M48
;Layer_Color=9474304
;FILE_FORMAT=2:5
INCH,LZ
;TYPE=PLATED
T1F00S00C0.02800
T2F00S00C0.03543
T3F00S00C0.04000
T4F00S00C0.04724
T5F00S00C0.17000
;TYPE=NON_PLATED
T6F00S00C0.03543
%
T01
X0044Y008
X0087Y0078
Y0071
Y0062
X0094Y0092
X01Y0086
X0106Y008
X0104Y0098
X0098Y0104
X0104Y011
X0099Y0116
X0104Y0121
X0101Y01275
X0104Y0134
X0101Y01405
X0104Y0152
X0039Y015
X0014Y0148
X0017Y0129
X0029Y0124
X0052Y0121
Y0129
X0072Y0104
X017Y0091252
X0184Y0098748
Y0111252
Y0126252
X017Y0118748
X0164Y014
Y007
X0175Y0055
X0184Y0083748
X03Y006
X031
X0269Y0152
X0345Y0153
X0356Y0145
X0376
X0387Y014
X0374Y0117
X0411
X0407Y0111
X0403Y0097
X0416
X0423Y0102
X0431Y0104
X0443
X0409Y0083
X037Y0075
X036Y007
X035Y0065
X0339Y006
X033
X032
X0321Y009
X0346Y0091
X0333Y0123
X0424Y0152
X0474Y0153
X0472Y0103
X048
X051Y008
X0499Y0063
X0544Y0087
X0527Y0121
Y013
X0525Y0143
X0531Y0153
X0543Y0149
X0542Y0172
X0523Y0166
X0516Y018
X0505Y0183
X051Y019615
X0488Y0161
X0474Y0164
X0523Y0244
X0437Y0265
X0415Y0261
X0404
X0409Y027
X0416Y0278
X0402Y0282
X0378Y029
X0366Y0295
X0336
X0345Y0265
X0321Y026
X03155Y02695
X0342Y0236
X0343018Y02275
X0331Y0224
X03505Y0240414
X0363Y024
X0381Y0231
X0376Y0215
X0357Y0188
X0389Y0157
X031Y0185
X03Y0188
X0295Y0182
X029Y0176
X0285Y017
X028Y0164
X0275Y0158
X027Y02
X0275Y0206
X028Y0212
X0285Y0218
X029Y0224
X0295Y023
X03Y0236
X0307Y0241
X029Y0255
X0281Y0253
X0275Y0259
X027Y0265
X0264Y0258
X0256Y025
X0257Y023
X0265Y0224
X026Y0218
X0253Y0212
X0263Y0206
X0305Y0194
X03Y0271
X0307Y0276
X0265Y029
X0255Y0293
X0226
X021Y0284
X0209Y0274
X0205Y0264
X0213Y0258
X0203Y0244
X0195Y0269
X0166Y0289
X017Y0215748
X0184Y0208252
Y0195748
Y0180748
X017Y0188252
X0184Y0223252
X0195Y0163
X0096Y02
X0086Y0224
X0089Y0231
X0094Y0236
X0076Y0245
X0067Y0239
X0071Y0227
X0083Y0259
Y0269
X0089Y0264
X0104
Y0274
X0114Y0269
X0113Y0282
X0126Y0291
X0155
X0139Y0255
X0103Y0303
X0086Y0288
X0075Y0293
X0046Y0291
X0047Y0301
X0025Y0286
X0023Y0274
X0029Y0263
X0036Y0269
X0046Y0248
X0044Y0182
X0039Y0161
X0012Y0168
X0045Y0316
Y0348
X0055
X0065
X0075
X0085
X0095
X0105
X0115
X0125
X0135
X0145
X0155
X0115Y0316
X0165Y0348
X0175
X0185
X0203
X0213
X0223
X0233
X0243
X0253
X0263
X0273
X029
X03
X031
X029Y0321
X0203Y032
X032Y0348
X033
X0338Y0336
X0358Y0348
X0368
X0378
X0388
X0398
X0408
X0423Y0336
T02
X0014Y0049
Y0061
X0027
Y0049
X0534Y0198
X0436Y0194
Y0184
X001Y0197
Y0207
T03
X006Y002
X007
X008
X009
X01
X011
X012
X013
Y003
X012
X011
X01
X009
X008
X007
X006
X018
Y002
X019
Y003
X02Y003
Y002
X021
Y003
X022
Y002
X023
Y003
X024
Y002
X025
Y003
X03
X031
Y002
X03
X032
X033
X034
X035
X036
X037
Y003
X036
X035
X034
X033
X032
X042
X043
X044
X045
X046
Y002
X045
X044
X043
X042
X047
X048
X049
Y003
X048
X047
T04
X0545Y0215
Y023
Y0245
X054Y029
Y031
T05
X002Y002
X054
X002Y038
X054
T06
X002Y0089
Y0106323
M30
