M48
;Layer_Color=9474304
;FILE_FORMAT=2:5
INCH,LZ
;TYPE=PLATED
T1F00S00C0.02800
T2F00S00C0.03150
T3F00S00C0.03543
T4F00S00C0.17000
%
T01
X0044Y0054
X0052Y0048
X0061Y0063
X0067Y0069
Y0081
X006Y0075
Y0087
X0075Y012
Y013
Y014
Y015
X0101Y0155
Y0145
Y0134
X0133Y0129
X0136Y0116
X0155Y0122
X014Y0152
X0122Y0097
X0094Y0103
X0095Y0034
X0081
Y0025
Y0017
X0108Y0019
X0126Y0013
X0144
X0138Y0019618
X0151Y0053
X0068Y0039
X0159Y0061
X0201Y0046
X0215Y0056
Y0066
Y0077
X0223Y0082
Y0072
Y00615
X0245Y00656
X0244Y0075
X0256Y0088
X0268Y0083
X0286Y0087
X0285Y0097
X0284Y0103
X0286Y0109
X0285Y0121
X0296Y0116
X0306Y012
X0301Y0126
X02915Y01345
X0288Y0143
X0297Y0147
X0291Y0154
X0283Y0155
X0302
X0308Y0143
X0305Y011
Y0102
X0308Y0081
Y0069
Y0059
Y0049
X0292Y0052
X0291Y0042
X0284
X0285Y0023
X029Y0017
X0295Y0024
X0298Y0012
X0309
X031Y0024
X02616Y00177
X02533Y00377
X0243Y0042
Y0099
X0245Y0123
X02616Y01264
X026Y0135
X0269Y0134
X0275964Y01365
X026Y0154
X0248Y0153
X0221
X0208
X018Y0155
X0215Y0115
Y0105
X0209Y0092
X0283Y0068
X02923Y0063
X0296Y0074
X032Y0079
X0315Y0064
Y0054
X0356Y0055
Y0064
X0366Y0073
X0379
X03888Y0084
X03999Y00839
X0404Y0078
X0403Y0069
Y0059
Y0049
X0427Y0046
Y0036
X0419Y0032
X0441Y0031
Y00505
X0463Y0052
Y0026
X046Y0089
X0447
X0429Y0073
X044Y0118
X04405Y0141
X0447Y0146
X046
X0434
X0422
X041
X0403Y0143
X0396Y0146
X0389Y0141
X0382Y0146
X0375Y0142
X037Y0133
X0357Y0144
X0345
X0336Y0139
X0321Y0141
X0329Y015
X0313Y0153
X0326Y0127
Y0098
X0349Y0096
X0346Y0105
Y0115
X0354Y0122
X0358Y01
X0374
X038Y0108
X0397Y01
X0339Y0073
X0373Y0036
X0322Y0017
X0466Y0122
X0472Y0146
X0488Y0139
X0494Y013
X0502Y0135
Y0145
Y011
X0494Y0105
X0514Y0087
Y0047
X051Y004
X0495Y0035
X0485Y003
X0478Y0068
X0472Y0089
X0476Y0169
X0489Y0167
X0501Y0163
X04747Y01837
X04792Y02222
X0472Y0273
X05021Y02978
X046Y0273
X0447
X0434
X0422
X0409
X0396
X0382
X0371Y026
X0364Y0255
X0359Y0245
X0358Y0229
X0355Y0221
X0354Y0208
X0341Y0211
X034Y0197
X0351Y0186
X0357Y0181
X0352Y0176
X0369Y0181
X0372Y0193
X032324Y0188
Y0221
X0341Y0229
Y0245
Y0255
X032424Y0254
X032324Y0287
X03384Y02866
X0348Y029
X0358
X03669Y02911
X0358Y0303
X0348
X0369Y031
X0422Y0212
X044Y017
X0467Y0169
X0305Y0179
X029424Y0188
X0304Y0204
X029424Y0221
X0302Y0234
X029424Y0254
X0274Y0263
X0279Y0269
X0271828Y0272
X0272Y0282
X0277Y0287
X02702Y02947
X0269Y0312
X0277
X0261Y0308
X0256Y02893
X024324Y0287
X021324
X0209Y0271
X0197Y0263
X0196Y0278
X0197Y0296
X0177Y0288
X01765Y0275
X01785Y0265
Y0256
X0196Y0245
X0212Y0236
X021324Y0221
X0197
Y0211
Y0197
X01985Y0179
X0203Y0165
X0214Y0166
X0215Y0158
X0226Y0166
X0238Y0167
X026Y0169
X0259Y01795
X02573Y01884
X0268Y0191
X02624Y02079
X0236Y0207
X0226Y0211
X0227Y0197
X021424Y0188
X024324
X024224Y0221
X0235Y0237
X024324Y0254
X0259Y0245
X021324Y0254
X0178Y0193
X0273Y0173
X02822Y01725
X0274Y0157
X029424Y0287
X0138Y0276
Y0266
X0136Y0237
Y0227
X0156Y0251
X0099Y027
Y0282
X0089Y0288
Y0276
Y0264
X0071Y0271
X0063Y0279
Y0301
X0074Y0297
X0121Y0298
X0124Y019
X0114Y0186
X0106Y0181
X0098
X0102Y01905
X0101Y0165
X0083Y0171
X0074Y0173
X0075Y016
X0073Y0187
X0068Y0196
X007Y0209
Y0217
Y0224
Y0232
X0043Y0236
X0021Y0277
X0036Y0322
X0078Y0375
X0088
X0098
X0108
X0118
X0128
X0138
X0148
X0161
X0177
X0193
X0205
X0218
X0236
X0251
X0269
X0291
X031
X0279Y0344
X0291Y0319
X0245Y0315
X0237
X0227
X0205Y0316
X0227Y0344
X0169
X0336Y0341
X0346Y0322
X0396Y0321
X0416Y0338
X0404Y0375
X0387
X0356
X0323
T02
X002Y012
X003
Y013
Y014
Y015
X002
Y014
Y013
Y016
X003
Y017
Y018
Y019
X002
Y018
Y017
T03
X0154Y0108
X017Y012
Y013
Y014
X018
Y013
Y012
X0175Y00175
X01875
X02
X02125
X0225
X02375
X01625
X054Y01
Y011
Y012
Y013
Y014
Y015
X055
Y014
Y013
Y012
Y011
Y01
Y016
Y017
X054
Y016
Y022
Y023
Y024
Y025
Y026
Y027
Y028
Y029
X055
Y028
Y027
Y026
Y025
Y024
Y023
Y022
X017Y0222
Y0204
Y024
X0162Y0164
X0148
X0134
X0128Y0204
X0114
X01
X0142
X0156
X0142Y0249
X0141Y0291
X0373Y0332
T04
X002Y002
X054
X002Y038
X054
M30
