M48
;Layer_Color=9474304
;FILE_FORMAT=2:5
INCH,LZ
;TYPE=PLATED
T1F00S00C0.02800
T2F00S00C0.03150
T3F00S00C0.03543
T4F00S00C0.07000
T5F00S00C0.10236
T6F00S00C0.17000
;TYPE=NON_PLATED
T7F00S00C0.03543
%
T01
X011Y013
Y014
Y015
X0159Y0152
X0166Y0149
X0171Y0143
X0188Y0152
X0186Y0086
X0195Y0079
X0163Y0078
X0162Y0086
X0379Y0078
Y00695
X0404Y0074
X0409Y0082
X0398
Y0093
X0422Y0098
X0428Y0078
X0425Y0066
X0444Y007
X0451Y0062
X0452Y0039
X04185Y0043
X042Y0032
X0409Y0037
X0405Y0022
X0406Y0153
X0417
X0422Y0137
X0432Y0138
X0446Y0134
X0449Y0148
X0392Y015
X038Y0149
X0374Y0153
X0347Y0152
X0499586Y0141808
X0521Y0146
X0532Y0152
X0508Y0113
X0513Y0063
X0503004Y0059996
X0479Y0058
Y005
Y0036
X0485Y003
X0473Y0073
Y0081
X0544Y0047
X052Y0161
X0519Y0177
X0528Y0172
X0479414
X0474Y0179
X0486Y0164
X0495Y021
X0504Y0201
X047Y0209
X05Y0283
X0499Y031
X0506
X0541Y026
X0448Y0216
X0437
X0450586Y0203559
X0442Y0187
X0466Y0185
X0421Y0177
X0417Y0161
X0427Y0158
X0402Y016
X03925Y0166
X0382Y0161
X0365Y0172
X0358
X0351
X0344
X0337
X033
X0323
X0316
X0323Y02
X033Y0207
X0345Y0208
X0339Y02
X0369
Y0193
X0368Y0185
X0369Y0207
Y0214
Y0221
Y0228
X0358
X0351Y0221
X0326Y0222
Y0229
X0316Y0214
X0358Y025
X03835Y0234
X0413Y0224
X0395Y0188
X0393Y0302
X0396Y0309
X0418Y0311
X0414Y0302
X0425Y0304
X0432Y0303
X0426Y0293
X0369Y0308
X0332Y0309
X032Y0308
X0277Y0296
X0251Y0265
X0219Y0263
X021Y0258
X02085Y0237
X0216
X02005
Y0217
X02085
X0216
X0214Y0201
X0223Y0196
X0232Y019
Y018
X0231Y017
X0212Y0172
X0195Y0173
X0166Y0174
X0201Y0208
X0203Y0287
X0197Y0296
X0200235Y0308765
X016Y0296
Y0256
X0283Y0215
X0291Y0216
X0127Y023
Y024
Y025
Y026
Y027
Y028
Y029
Y03
X011Y02
Y019
Y018
Y017
Y016
X0061Y0229
X00355Y023
X0027
X0059Y0314
Y0339
X0115Y0352
X0125
X0135
X0145
X0155
X0165
X0175
X0185
X02
X0212
X0228
X024
X0256
X0268
X0284
X0296
X0256Y0329
X024Y0325
X0244Y0316
X0268Y0313
X0332Y0317
X0339Y0352
X0351
X0378
X0376Y0365
X0388Y0345
Y0331
X0409Y0334
X0413Y034
X0418Y0346
X0424Y0352
X043Y0356
X0437Y0357
X0461Y0353
X0437Y0323
X0398Y0352
X0315
X0473Y03215
X0503Y0325
X0501Y0334
T02
X003Y013
X004
Y014
Y015
X003
Y014
X008
Y015
X009
Y014
Y013
X008
Y016
Y017
Y018
Y019
Y02
X009
Y019
Y018
Y017
Y016
X004
X003
Y017
Y018
Y019
Y02
X004
Y019
Y018
Y017
Y026
Y027
Y028
X003
Y029
Y03
Y031
X004
Y03
Y029
X003Y027
Y026
X008
Y027
X009
Y026
Y028
Y029
Y03
Y031
X008
Y03
Y029
Y028
Y032
X009
Y033
X008
X004
X003
Y032
X004
T03
X0193Y0032
X0203
X0213
X0223
X0233
X0243
X0253
X0263
X0273
X0283
X0293
X0303
Y0047
X0293
X0283
X0273
X0263
X0253
X0243
X0233
X0223
X0213
X0203
X0193
Y0062
X0203
X0213
X0223
X0233
X0243
X0253
X0263
X0273
X0283
X0293
X0303
Y0092
X0293
X0283
X0273
X0263
X0253
X0243
X0233
X0223
X0213
X0203
X0193
Y0107
X0203
X0213
X0223
X0233
X0243
X0253
X0263
X0273
X0283
X0293
X0303
Y0122
X0293
X0283
X0273
X0263
X0253
X0243
X0233
X0223
X0213
X0203
X0193
X0305Y0012
X0315
X0325
X0335
X0345
X0355
X0365
X0375
X0385
X0395
X042Y0012
X043
X044
X045
X046
X0456Y0084
Y0094
Y0104
Y0114
Y0124
X0468Y0119
Y0109
Y0099
Y0089
Y0129
X0383Y0122
X0373
X0363
X0353
X0343
X0333
X0323
X0313
Y0107
X0323
X0333
X0343
X0353
X0363
X0373
X0383
Y0092
X0373
X0363
X0353
X0343
X0333
X0323
X0313
Y0062
X0323
X0333
X0343
X0353
X0363
X0373
X0383
Y0047
X0373
X0363
X0353
X0343
X0333
X0323
X0313
Y0032
X0323
X0333
X0343
X0353
X0363
X0373
X0383
X047Y0012
X048
X049
X05
X051
X0518Y0032
Y0042
X05
Y0032
X048Y0123
Y0133
Y0143
X0476Y0252
X0486
Y0271
X0476
X0466
X0456
X0446
X0436
X0426
X0416
X0406
X0396
Y0252
X0406
X0416
X0426
X0436
X0446
X0456
X0466
X0417Y0238
X0407
X0397
X0317Y0251
X0307
X0297
X0287
X0277
X0267
X0257
X0247
X0237
X0227
X0185Y0216
X0175
X0165
X0454Y0365
X0464
X0474
T04
X0551848Y01445
Y0172
T05
X0536929Y0223622
Y0276378
Y0303622
Y0356378
T06
X002Y002
X054
X002Y038
X054
T07
X054Y0068
Y0085323
M30
