G04*
G04 #@! TF.GenerationSoftware,Altium Limited,Altium Designer,22.3.1 (43)*
G04*
G04 Layer_Color=65535*
%FSLAX25Y25*%
%MOIN*%
G70*
G04*
G04 #@! TF.SameCoordinates,3349D2AC-C315-450D-AF27-8CF08F727A17*
G04*
G04*
G04 #@! TF.FilePolarity,Positive*
G04*
G01*
G75*
%ADD10C,0.00787*%
%ADD11C,0.01575*%
%ADD12C,0.01000*%
%ADD13C,0.00500*%
%ADD14C,0.00800*%
G36*
X471835Y382299D02*
X471365D01*
Y382836D01*
X471835D01*
Y382299D01*
D02*
G37*
G36*
X467954Y381837D02*
X467975D01*
X468000Y381833D01*
X468062Y381821D01*
X468137Y381804D01*
X468216Y381775D01*
X468307Y381737D01*
X468399Y381687D01*
X468233Y381251D01*
X468224Y381255D01*
X468203Y381267D01*
X468170Y381284D01*
X468124Y381305D01*
X468075Y381321D01*
X468016Y381338D01*
X467954Y381350D01*
X467887Y381355D01*
X467862D01*
X467833Y381350D01*
X467796Y381342D01*
X467750Y381330D01*
X467704Y381313D01*
X467659Y381292D01*
X467609Y381259D01*
X467604Y381255D01*
X467588Y381242D01*
X467567Y381221D01*
X467542Y381192D01*
X467513Y381155D01*
X467484Y381113D01*
X467459Y381059D01*
X467434Y381001D01*
Y380997D01*
X467430Y380989D01*
X467426Y380976D01*
X467421Y380959D01*
X467417Y380934D01*
X467409Y380905D01*
X467396Y380839D01*
X467384Y380755D01*
X467372Y380664D01*
X467363Y380560D01*
X467359Y380452D01*
Y378996D01*
X466889D01*
Y381779D01*
X467313D01*
Y381359D01*
X467322Y381367D01*
X467330Y381384D01*
X467342Y381400D01*
X467372Y381454D01*
X467413Y381513D01*
X467459Y381579D01*
X467509Y381646D01*
X467559Y381700D01*
X467588Y381725D01*
X467613Y381746D01*
X467621Y381750D01*
X467638Y381762D01*
X467667Y381775D01*
X467700Y381796D01*
X467746Y381812D01*
X467796Y381825D01*
X467854Y381837D01*
X467912Y381841D01*
X467937D01*
X467954Y381837D01*
D02*
G37*
G36*
X469676D02*
X469709D01*
X469789Y381829D01*
X469876Y381816D01*
X469976Y381800D01*
X470071Y381779D01*
X470167Y381746D01*
X470171D01*
X470180Y381741D01*
X470192Y381737D01*
X470209Y381729D01*
X470250Y381708D01*
X470308Y381679D01*
X470367Y381642D01*
X470425Y381596D01*
X470483Y381546D01*
X470533Y381488D01*
X470537Y381479D01*
X470554Y381459D01*
X470575Y381421D01*
X470600Y381375D01*
X470629Y381313D01*
X470654Y381238D01*
X470679Y381155D01*
X470700Y381059D01*
X470238Y380997D01*
Y381001D01*
Y381005D01*
X470229Y381030D01*
X470221Y381072D01*
X470204Y381117D01*
X470180Y381171D01*
X470146Y381226D01*
X470105Y381280D01*
X470055Y381330D01*
X470046Y381334D01*
X470026Y381350D01*
X469992Y381371D01*
X469947Y381392D01*
X469884Y381417D01*
X469809Y381434D01*
X469726Y381450D01*
X469626Y381454D01*
X469572D01*
X469547Y381450D01*
X469518D01*
X469447Y381442D01*
X469373Y381429D01*
X469293Y381409D01*
X469223Y381384D01*
X469194Y381367D01*
X469165Y381346D01*
X469160Y381342D01*
X469144Y381325D01*
X469123Y381305D01*
X469098Y381276D01*
X469069Y381238D01*
X469048Y381192D01*
X469031Y381147D01*
X469027Y381093D01*
Y381088D01*
Y381076D01*
X469031Y381059D01*
X469035Y381038D01*
X469052Y380984D01*
X469065Y380955D01*
X469081Y380926D01*
X469085Y380922D01*
X469094Y380914D01*
X469106Y380901D01*
X469127Y380885D01*
X469152Y380864D01*
X469185Y380843D01*
X469223Y380822D01*
X469264Y380801D01*
X469269D01*
X469281Y380797D01*
X469306Y380789D01*
X469343Y380776D01*
X469368Y380768D01*
X469397Y380760D01*
X469431Y380751D01*
X469468Y380739D01*
X469514Y380726D01*
X469564Y380714D01*
X469618Y380697D01*
X469680Y380681D01*
X469685D01*
X469701Y380677D01*
X469726Y380668D01*
X469764Y380660D01*
X469801Y380647D01*
X469847Y380635D01*
X469901Y380618D01*
X469955Y380602D01*
X470071Y380568D01*
X470184Y380531D01*
X470238Y380514D01*
X470288Y380493D01*
X470333Y380477D01*
X470375Y380460D01*
X470379D01*
X470383Y380456D01*
X470408Y380444D01*
X470446Y380427D01*
X470487Y380398D01*
X470537Y380364D01*
X470591Y380323D01*
X470641Y380273D01*
X470687Y380215D01*
X470691Y380206D01*
X470704Y380186D01*
X470724Y380152D01*
X470745Y380102D01*
X470766Y380044D01*
X470787Y379978D01*
X470799Y379899D01*
X470803Y379811D01*
Y379807D01*
Y379799D01*
Y379786D01*
Y379770D01*
X470795Y379724D01*
X470787Y379666D01*
X470770Y379599D01*
X470745Y379524D01*
X470708Y379445D01*
X470662Y379366D01*
Y379362D01*
X470654Y379358D01*
X470637Y379333D01*
X470604Y379295D01*
X470562Y379250D01*
X470504Y379195D01*
X470437Y379141D01*
X470358Y379092D01*
X470267Y379046D01*
X470263D01*
X470254Y379042D01*
X470242Y379037D01*
X470221Y379029D01*
X470196Y379021D01*
X470167Y379008D01*
X470134Y379000D01*
X470096Y378992D01*
X470009Y378971D01*
X469909Y378950D01*
X469801Y378938D01*
X469680Y378933D01*
X469626D01*
X469589Y378938D01*
X469547Y378942D01*
X469493Y378946D01*
X469435Y378950D01*
X469373Y378963D01*
X469239Y378988D01*
X469098Y379025D01*
X469031Y379050D01*
X468965Y379083D01*
X468907Y379117D01*
X468848Y379154D01*
X468844Y379158D01*
X468836Y379166D01*
X468823Y379179D01*
X468803Y379195D01*
X468782Y379221D01*
X468757Y379250D01*
X468728Y379283D01*
X468699Y379320D01*
X468665Y379366D01*
X468636Y379416D01*
X468607Y379470D01*
X468578Y379533D01*
X468553Y379595D01*
X468528Y379666D01*
X468507Y379745D01*
X468491Y379824D01*
X468957Y379899D01*
Y379894D01*
X468961Y379886D01*
Y379874D01*
X468965Y379853D01*
X468969Y379828D01*
X468977Y379803D01*
X468998Y379741D01*
X469027Y379670D01*
X469065Y379595D01*
X469110Y379528D01*
X469173Y379466D01*
X469177D01*
X469181Y379462D01*
X469206Y379445D01*
X469248Y379420D01*
X469306Y379395D01*
X469377Y379366D01*
X469464Y379345D01*
X469564Y379329D01*
X469676Y379320D01*
X469709D01*
X469730Y379325D01*
X469759D01*
X469789Y379329D01*
X469859Y379337D01*
X469938Y379354D01*
X470021Y379374D01*
X470096Y379408D01*
X470163Y379449D01*
X470171Y379453D01*
X470188Y379474D01*
X470213Y379499D01*
X470242Y379537D01*
X470271Y379582D01*
X470296Y379637D01*
X470313Y379695D01*
X470321Y379761D01*
Y379770D01*
Y379786D01*
X470313Y379819D01*
X470304Y379853D01*
X470288Y379894D01*
X470263Y379936D01*
X470225Y379978D01*
X470180Y380015D01*
X470175Y380019D01*
X470159Y380028D01*
X470130Y380040D01*
X470109Y380048D01*
X470084Y380057D01*
X470051Y380069D01*
X470017Y380082D01*
X469980Y380094D01*
X469934Y380107D01*
X469884Y380123D01*
X469826Y380140D01*
X469764Y380156D01*
X469697Y380173D01*
X469693D01*
X469676Y380177D01*
X469647Y380186D01*
X469614Y380194D01*
X469572Y380206D01*
X469522Y380219D01*
X469468Y380236D01*
X469410Y380252D01*
X469293Y380290D01*
X469173Y380327D01*
X469115Y380344D01*
X469065Y380364D01*
X469015Y380385D01*
X468973Y380402D01*
X468969D01*
X468965Y380406D01*
X468940Y380419D01*
X468907Y380439D01*
X468861Y380473D01*
X468811Y380510D01*
X468761Y380552D01*
X468711Y380606D01*
X468669Y380664D01*
X468665Y380672D01*
X468653Y380693D01*
X468636Y380731D01*
X468619Y380776D01*
X468603Y380830D01*
X468586Y380893D01*
X468574Y380963D01*
X468570Y381038D01*
Y381043D01*
Y381047D01*
Y381072D01*
X468574Y381105D01*
X468582Y381151D01*
X468590Y381205D01*
X468603Y381263D01*
X468624Y381325D01*
X468653Y381384D01*
X468657Y381392D01*
X468669Y381409D01*
X468686Y381438D01*
X468715Y381475D01*
X468744Y381517D01*
X468786Y381563D01*
X468832Y381604D01*
X468886Y381646D01*
X468890Y381650D01*
X468907Y381658D01*
X468931Y381675D01*
X468965Y381692D01*
X469006Y381712D01*
X469056Y381737D01*
X469119Y381762D01*
X469185Y381783D01*
X469189D01*
X469194Y381787D01*
X469219Y381791D01*
X469256Y381800D01*
X469310Y381812D01*
X469368Y381825D01*
X469439Y381833D01*
X469514Y381837D01*
X469593Y381841D01*
X469647D01*
X469676Y381837D01*
D02*
G37*
G36*
X462013Y378996D02*
X461489D01*
X460000Y382836D01*
X460553D01*
X461552Y380044D01*
Y380040D01*
X461556Y380028D01*
X461564Y380011D01*
X461573Y379986D01*
X461581Y379957D01*
X461593Y379924D01*
X461606Y379886D01*
X461622Y379840D01*
X461652Y379745D01*
X461685Y379641D01*
X461718Y379528D01*
X461751Y379416D01*
Y379420D01*
X461756Y379429D01*
X461760Y379449D01*
X461768Y379470D01*
X461776Y379499D01*
X461785Y379533D01*
X461797Y379570D01*
X461810Y379611D01*
X461839Y379707D01*
X461876Y379815D01*
X461918Y379928D01*
X461959Y380044D01*
X462995Y382836D01*
X463511D01*
X462013Y378996D01*
D02*
G37*
G36*
X483138D02*
X482668D01*
Y381995D01*
X482659Y381987D01*
X482639Y381966D01*
X482601Y381937D01*
X482547Y381895D01*
X482485Y381845D01*
X482406Y381791D01*
X482318Y381733D01*
X482219Y381671D01*
X482214D01*
X482206Y381662D01*
X482194Y381654D01*
X482173Y381646D01*
X482148Y381629D01*
X482119Y381617D01*
X482052Y381579D01*
X481977Y381542D01*
X481894Y381500D01*
X481807Y381463D01*
X481723Y381429D01*
Y381883D01*
X481728Y381887D01*
X481740Y381891D01*
X481761Y381904D01*
X481790Y381916D01*
X481823Y381933D01*
X481865Y381958D01*
X481911Y381983D01*
X481956Y382008D01*
X482065Y382074D01*
X482181Y382153D01*
X482302Y382237D01*
X482414Y382332D01*
X482418Y382336D01*
X482427Y382345D01*
X482443Y382357D01*
X482464Y382378D01*
X482485Y382403D01*
X482514Y382428D01*
X482576Y382499D01*
X482647Y382573D01*
X482718Y382661D01*
X482780Y382752D01*
X482834Y382848D01*
X483138D01*
Y378996D01*
D02*
G37*
G36*
X480675D02*
X480139D01*
Y379533D01*
X480675D01*
Y378996D01*
D02*
G37*
G36*
X478666D02*
X478196D01*
Y381995D01*
X478188Y381987D01*
X478167Y381966D01*
X478129Y381937D01*
X478075Y381895D01*
X478013Y381845D01*
X477934Y381791D01*
X477846Y381733D01*
X477747Y381671D01*
X477742D01*
X477734Y381662D01*
X477722Y381654D01*
X477701Y381646D01*
X477676Y381629D01*
X477647Y381617D01*
X477580Y381579D01*
X477505Y381542D01*
X477422Y381500D01*
X477335Y381463D01*
X477251Y381429D01*
Y381883D01*
X477256Y381887D01*
X477268Y381891D01*
X477289Y381904D01*
X477318Y381916D01*
X477351Y381933D01*
X477393Y381958D01*
X477439Y381983D01*
X477485Y382008D01*
X477593Y382074D01*
X477709Y382153D01*
X477830Y382237D01*
X477942Y382332D01*
X477946Y382336D01*
X477955Y382345D01*
X477971Y382357D01*
X477992Y382378D01*
X478013Y382403D01*
X478042Y382428D01*
X478104Y382499D01*
X478175Y382573D01*
X478246Y382661D01*
X478308Y382752D01*
X478362Y382848D01*
X478666D01*
Y378996D01*
D02*
G37*
G36*
X471835D02*
X471365D01*
Y381779D01*
X471835D01*
Y378996D01*
D02*
G37*
G36*
X473732Y381837D02*
X473774D01*
X473824Y381829D01*
X473878Y381821D01*
X473940Y381808D01*
X474011Y381796D01*
X474082Y381775D01*
X474161Y381750D01*
X474235Y381716D01*
X474315Y381683D01*
X474394Y381637D01*
X474469Y381588D01*
X474543Y381529D01*
X474614Y381463D01*
X474618Y381459D01*
X474631Y381446D01*
X474647Y381425D01*
X474672Y381392D01*
X474697Y381355D01*
X474731Y381309D01*
X474764Y381255D01*
X474797Y381192D01*
X474830Y381122D01*
X474864Y381043D01*
X474897Y380959D01*
X474922Y380868D01*
X474947Y380768D01*
X474964Y380660D01*
X474976Y380543D01*
X474980Y380423D01*
Y380419D01*
Y380398D01*
Y380373D01*
X474976Y380335D01*
Y380290D01*
X474972Y380236D01*
X474968Y380177D01*
X474959Y380115D01*
X474943Y379982D01*
X474914Y379840D01*
X474872Y379703D01*
X474847Y379641D01*
X474818Y379578D01*
Y379574D01*
X474810Y379566D01*
X474801Y379549D01*
X474789Y379528D01*
X474772Y379503D01*
X474751Y379470D01*
X474697Y379403D01*
X474631Y379325D01*
X474552Y379245D01*
X474456Y379171D01*
X474348Y379100D01*
X474344D01*
X474335Y379092D01*
X474319Y379083D01*
X474294Y379075D01*
X474265Y379062D01*
X474231Y379046D01*
X474194Y379033D01*
X474148Y379017D01*
X474102Y379000D01*
X474048Y378988D01*
X473936Y378958D01*
X473811Y378942D01*
X473678Y378933D01*
X473653D01*
X473624Y378938D01*
X473582D01*
X473532Y378946D01*
X473474Y378954D01*
X473412Y378967D01*
X473341Y378979D01*
X473266Y379000D01*
X473191Y379025D01*
X473112Y379054D01*
X473033Y379092D01*
X472954Y379133D01*
X472879Y379183D01*
X472804Y379241D01*
X472734Y379308D01*
X472730Y379312D01*
X472717Y379325D01*
X472701Y379345D01*
X472680Y379379D01*
X472651Y379416D01*
X472621Y379462D01*
X472588Y379520D01*
X472555Y379582D01*
X472522Y379657D01*
X472488Y379736D01*
X472459Y379824D01*
X472430Y379919D01*
X472409Y380023D01*
X472393Y380136D01*
X472380Y380256D01*
X472376Y380385D01*
Y380389D01*
Y380394D01*
Y380419D01*
X472380Y380460D01*
X472384Y380510D01*
X472389Y380577D01*
X472397Y380651D01*
X472413Y380731D01*
X472430Y380818D01*
X472451Y380909D01*
X472480Y381005D01*
X472517Y381101D01*
X472555Y381196D01*
X472605Y381288D01*
X472663Y381375D01*
X472730Y381454D01*
X472804Y381529D01*
X472809Y381533D01*
X472821Y381542D01*
X472842Y381558D01*
X472867Y381579D01*
X472904Y381600D01*
X472946Y381629D01*
X472992Y381658D01*
X473050Y381687D01*
X473108Y381716D01*
X473175Y381741D01*
X473245Y381771D01*
X473324Y381791D01*
X473408Y381812D01*
X473491Y381829D01*
X473582Y381837D01*
X473678Y381841D01*
X473703D01*
X473732Y381837D01*
D02*
G37*
G36*
X465104D02*
X465142D01*
X465192Y381829D01*
X465246Y381821D01*
X465308Y381808D01*
X465375Y381796D01*
X465445Y381775D01*
X465516Y381750D01*
X465595Y381716D01*
X465670Y381679D01*
X465745Y381637D01*
X465820Y381583D01*
X465895Y381525D01*
X465961Y381459D01*
X465965Y381454D01*
X465978Y381442D01*
X465995Y381421D01*
X466015Y381388D01*
X466045Y381350D01*
X466074Y381305D01*
X466107Y381246D01*
X466140Y381184D01*
X466169Y381113D01*
X466203Y381034D01*
X466232Y380947D01*
X466261Y380851D01*
X466282Y380747D01*
X466298Y380635D01*
X466311Y380518D01*
X466315Y380394D01*
Y380385D01*
Y380364D01*
Y380323D01*
X466311Y380269D01*
X464235D01*
Y380265D01*
Y380248D01*
X464239Y380223D01*
X464243Y380194D01*
X464247Y380152D01*
X464256Y380111D01*
X464264Y380061D01*
X464277Y380007D01*
X464310Y379894D01*
X464356Y379774D01*
X464385Y379720D01*
X464414Y379661D01*
X464451Y379611D01*
X464493Y379562D01*
X464497Y379557D01*
X464505Y379553D01*
X464518Y379541D01*
X464534Y379524D01*
X464559Y379507D01*
X464584Y379487D01*
X464618Y379462D01*
X464655Y379441D01*
X464738Y379395D01*
X464838Y379358D01*
X464892Y379341D01*
X464950Y379333D01*
X465013Y379325D01*
X465075Y379320D01*
X465100D01*
X465117Y379325D01*
X465167Y379329D01*
X465229Y379337D01*
X465296Y379354D01*
X465371Y379379D01*
X465445Y379408D01*
X465516Y379453D01*
X465520D01*
X465524Y379462D01*
X465545Y379478D01*
X465579Y379512D01*
X465620Y379562D01*
X465666Y379620D01*
X465716Y379699D01*
X465766Y379790D01*
X465807Y379894D01*
X466298Y379832D01*
Y379828D01*
X466294Y379811D01*
X466286Y379790D01*
X466273Y379761D01*
X466261Y379724D01*
X466244Y379682D01*
X466223Y379637D01*
X466203Y379587D01*
X466144Y379483D01*
X466069Y379370D01*
X466024Y379316D01*
X465978Y379262D01*
X465928Y379212D01*
X465870Y379166D01*
X465866Y379162D01*
X465857Y379158D01*
X465836Y379146D01*
X465816Y379129D01*
X465782Y379112D01*
X465745Y379092D01*
X465703Y379071D01*
X465653Y379050D01*
X465599Y379029D01*
X465537Y379008D01*
X465475Y378988D01*
X465404Y378971D01*
X465329Y378954D01*
X465250Y378942D01*
X465163Y378938D01*
X465075Y378933D01*
X465050D01*
X465017Y378938D01*
X464975D01*
X464921Y378946D01*
X464863Y378954D01*
X464796Y378967D01*
X464726Y378979D01*
X464651Y379000D01*
X464572Y379025D01*
X464489Y379054D01*
X464410Y379092D01*
X464326Y379133D01*
X464252Y379183D01*
X464177Y379241D01*
X464106Y379308D01*
X464102Y379312D01*
X464089Y379325D01*
X464073Y379345D01*
X464052Y379379D01*
X464023Y379416D01*
X463994Y379462D01*
X463960Y379516D01*
X463931Y379578D01*
X463898Y379649D01*
X463865Y379728D01*
X463835Y379815D01*
X463806Y379911D01*
X463786Y380011D01*
X463769Y380119D01*
X463757Y380236D01*
X463752Y380360D01*
Y380369D01*
Y380389D01*
X463757Y380427D01*
Y380477D01*
X463765Y380535D01*
X463773Y380602D01*
X463781Y380681D01*
X463798Y380760D01*
X463815Y380847D01*
X463840Y380934D01*
X463869Y381026D01*
X463902Y381117D01*
X463944Y381205D01*
X463994Y381292D01*
X464048Y381375D01*
X464110Y381450D01*
X464114Y381454D01*
X464127Y381467D01*
X464148Y381488D01*
X464177Y381513D01*
X464210Y381542D01*
X464256Y381575D01*
X464306Y381608D01*
X464364Y381646D01*
X464426Y381683D01*
X464497Y381716D01*
X464576Y381750D01*
X464659Y381779D01*
X464751Y381804D01*
X464842Y381825D01*
X464946Y381837D01*
X465050Y381841D01*
X465075D01*
X465104Y381837D01*
D02*
G37*
%LPC*%
G36*
X473678Y381450D02*
X473645D01*
X473620Y381446D01*
X473591Y381442D01*
X473553Y381438D01*
X473474Y381417D01*
X473379Y381384D01*
X473333Y381363D01*
X473283Y381338D01*
X473233Y381309D01*
X473183Y381271D01*
X473137Y381230D01*
X473092Y381184D01*
X473087Y381180D01*
X473083Y381171D01*
X473071Y381155D01*
X473054Y381134D01*
X473037Y381105D01*
X473017Y381072D01*
X472996Y381030D01*
X472975Y380984D01*
X472954Y380930D01*
X472933Y380872D01*
X472913Y380805D01*
X472896Y380735D01*
X472879Y380656D01*
X472867Y380573D01*
X472863Y380481D01*
X472859Y380385D01*
Y380381D01*
Y380360D01*
Y380335D01*
X472863Y380298D01*
X472867Y380252D01*
X472871Y380202D01*
X472879Y380144D01*
X472888Y380086D01*
X472917Y379953D01*
X472958Y379819D01*
X472983Y379757D01*
X473017Y379695D01*
X473050Y379637D01*
X473092Y379582D01*
X473096Y379578D01*
X473104Y379570D01*
X473116Y379557D01*
X473133Y379541D01*
X473158Y379520D01*
X473183Y379499D01*
X473216Y379474D01*
X473254Y379453D01*
X473337Y379403D01*
X473437Y379362D01*
X473491Y379345D01*
X473553Y379333D01*
X473611Y379325D01*
X473678Y379320D01*
X473711D01*
X473736Y379325D01*
X473765Y379329D01*
X473803Y379333D01*
X473882Y379354D01*
X473973Y379387D01*
X474023Y379408D01*
X474073Y379433D01*
X474119Y379462D01*
X474169Y379499D01*
X474215Y379541D01*
X474261Y379587D01*
X474265Y379591D01*
X474269Y379599D01*
X474281Y379616D01*
X474298Y379637D01*
X474315Y379666D01*
X474335Y379699D01*
X474356Y379741D01*
X474381Y379790D01*
X474402Y379840D01*
X474423Y379903D01*
X474443Y379969D01*
X474460Y380044D01*
X474477Y380123D01*
X474489Y380211D01*
X474493Y380302D01*
X474498Y380402D01*
Y380406D01*
Y380423D01*
Y380452D01*
X474493Y380485D01*
X474489Y380531D01*
X474485Y380581D01*
X474477Y380635D01*
X474469Y380693D01*
X474439Y380818D01*
X474423Y380885D01*
X474398Y380951D01*
X474369Y381013D01*
X474339Y381076D01*
X474302Y381130D01*
X474261Y381184D01*
X474256Y381188D01*
X474248Y381196D01*
X474235Y381209D01*
X474219Y381226D01*
X474194Y381246D01*
X474169Y381267D01*
X474136Y381292D01*
X474102Y381317D01*
X474015Y381367D01*
X473915Y381409D01*
X473861Y381425D01*
X473803Y381438D01*
X473740Y381446D01*
X473678Y381450D01*
D02*
G37*
G36*
X465050Y381454D02*
X465017D01*
X464996Y381450D01*
X464967Y381446D01*
X464938Y381442D01*
X464859Y381425D01*
X464776Y381400D01*
X464680Y381363D01*
X464634Y381338D01*
X464588Y381309D01*
X464543Y381271D01*
X464501Y381234D01*
X464497Y381230D01*
X464493Y381226D01*
X464480Y381213D01*
X464468Y381196D01*
X464451Y381171D01*
X464430Y381147D01*
X464410Y381117D01*
X464389Y381080D01*
X464368Y381043D01*
X464347Y380997D01*
X464306Y380897D01*
X464277Y380785D01*
X464268Y380722D01*
X464260Y380656D01*
X465816D01*
Y380660D01*
Y380672D01*
X465811Y380689D01*
X465807Y380714D01*
X465803Y380743D01*
X465799Y380776D01*
X465782Y380851D01*
X465757Y380939D01*
X465728Y381026D01*
X465687Y381109D01*
X465637Y381180D01*
X465633Y381184D01*
X465628Y381192D01*
X465612Y381205D01*
X465595Y381221D01*
X465574Y381242D01*
X465545Y381267D01*
X465512Y381292D01*
X465479Y381317D01*
X465437Y381342D01*
X465391Y381367D01*
X465292Y381413D01*
X465237Y381429D01*
X465179Y381442D01*
X465117Y381450D01*
X465050Y381454D01*
D02*
G37*
%LPD*%
D10*
X520560Y330311D02*
G03*
X520560Y330311I-1324J0D01*
G01*
X557669Y321181D02*
Y351496D01*
X396500Y194000D02*
Y213167D01*
Y194000D02*
Y224000D01*
X416500Y194000D02*
Y224000D01*
X396500D02*
X416500D01*
X396500Y194000D02*
X416500D01*
X207098Y151598D02*
Y176402D01*
Y151598D02*
X231902D01*
Y176402D01*
X207098D02*
X231902D01*
X457874Y298898D02*
X464567D01*
X465945Y259772D02*
Y300228D01*
Y259772D02*
X484055D01*
Y300228D01*
X465945D02*
X484055D01*
X105945Y264173D02*
X124055D01*
Y235827D02*
Y264173D01*
X105945Y235827D02*
X124055D01*
X105945D02*
Y264173D01*
X97480Y263780D02*
X104567D01*
X242717Y254843D02*
X257283D01*
Y235157D02*
Y254843D01*
X242717Y235157D02*
X257283D01*
X242717D02*
Y254843D01*
X235532Y254941D02*
X241339D01*
D11*
X202276Y179748D02*
G03*
X202276Y179748I-787J0D01*
G01*
D12*
X272700Y348000D02*
X312700D01*
X272700Y358000D02*
X312700D01*
Y348000D02*
Y358000D01*
X272700Y348000D02*
Y358000D01*
Y359500D02*
X312700D01*
X272700Y369500D02*
X312700D01*
Y359500D02*
Y369500D01*
X272700Y359500D02*
Y369500D01*
X231000Y348000D02*
X271000D01*
X231000Y358000D02*
X271000D01*
Y348000D02*
Y358000D01*
X231000Y348000D02*
Y358000D01*
Y359500D02*
X271000D01*
X231000Y369500D02*
X271000D01*
Y359500D02*
Y369500D01*
X231000Y359500D02*
Y369500D01*
X429500Y348000D02*
X479500D01*
X429500Y358000D02*
X479500D01*
Y348000D02*
Y358000D01*
X429500Y348000D02*
Y358000D01*
X154000Y348000D02*
X229000D01*
X154000Y358000D02*
X229000D01*
Y348000D02*
Y358000D01*
X154000Y348000D02*
Y358000D01*
X429500Y359500D02*
X479500D01*
X429500Y369500D02*
X479500D01*
Y359500D02*
Y369500D01*
X429500Y359500D02*
Y369500D01*
X314500Y348000D02*
X354500D01*
X314500Y358000D02*
X354500D01*
Y348000D02*
Y358000D01*
X314500Y348000D02*
Y358000D01*
X71700Y348000D02*
X152700D01*
X71700Y358000D02*
X152700D01*
Y348000D02*
Y358000D01*
X71700Y348000D02*
Y358000D01*
X314500Y359500D02*
X354500D01*
X314500Y369500D02*
X354500D01*
Y359500D02*
Y369500D01*
X314500Y359500D02*
Y369500D01*
X71750Y359500D02*
X229250D01*
X71750Y369500D02*
X229250D01*
Y359500D02*
Y369500D01*
X71750Y359500D02*
Y369500D01*
X35000Y50000D02*
Y60000D01*
X25000Y50000D02*
X35000D01*
X25000D02*
Y60000D01*
X35000D01*
X33000Y50000D02*
X35000D01*
X530000Y66000D02*
Y76000D01*
X520000Y66000D02*
X530000D01*
X520000D02*
Y76000D01*
X530000D01*
X528000Y66000D02*
X530000D01*
X20000Y50000D02*
Y60000D01*
X10000Y50000D02*
X20000D01*
X10000D02*
Y60000D01*
X20000D01*
X18000Y50000D02*
X20000D01*
X35000Y65000D02*
Y75000D01*
X25000Y65000D02*
X35000D01*
X25000D02*
Y75000D01*
X35000D01*
X33000Y65000D02*
X35000D01*
X546000Y48000D02*
Y58000D01*
X536000Y48000D02*
X546000D01*
X536000D02*
Y58000D01*
X546000D01*
X544000Y48000D02*
X546000D01*
Y66000D02*
Y76000D01*
X536000Y66000D02*
X546000D01*
X536000D02*
Y76000D01*
X546000D01*
X544000Y66000D02*
X546000D01*
X531000Y48000D02*
Y58000D01*
X521000Y48000D02*
X531000D01*
X521000D02*
Y58000D01*
X531000D01*
X529000Y48000D02*
X531000D01*
X20000Y65000D02*
Y75000D01*
X10000Y65000D02*
X20000D01*
X10000D02*
Y75000D01*
X20000D01*
X18000Y65000D02*
X20000D01*
X143500Y329500D02*
Y345500D01*
X151000D01*
Y329500D02*
Y345500D01*
X143500Y329500D02*
X151000D01*
X145000Y331000D02*
X149500D01*
X103500Y329500D02*
Y345500D01*
X111000D01*
Y329500D02*
Y345500D01*
X103500Y329500D02*
X111000D01*
X105000Y331000D02*
X109500D01*
X11000Y165000D02*
Y169000D01*
X7000D02*
X11000D01*
X7000Y210000D02*
X43000D01*
Y100000D02*
Y210000D01*
X7000Y100000D02*
X43000D01*
X7000D02*
Y145000D01*
Y169000D02*
Y210000D01*
Y145000D02*
X11000D01*
Y165000D01*
X350000Y210000D02*
Y220000D01*
X340000Y210000D02*
X350000D01*
X340000D02*
Y220000D01*
X350000D01*
X348000Y210000D02*
X350000D01*
Y230000D02*
Y240000D01*
X340000Y230000D02*
X350000D01*
X340000D02*
Y240000D01*
X350000D01*
X348000Y230000D02*
X350000D01*
Y192000D02*
Y202000D01*
X340000Y192000D02*
X350000D01*
X340000D02*
Y202000D01*
X350000D01*
X348000Y192000D02*
X350000D01*
X56000Y230000D02*
Y240000D01*
X46000Y230000D02*
X56000D01*
X46000D02*
Y240000D01*
X56000D01*
X54000Y230000D02*
X56000D01*
X310000Y170000D02*
Y180000D01*
X300000Y170000D02*
X310000D01*
X300000D02*
Y180000D01*
X310000D01*
X308000Y170000D02*
X310000D01*
X325000D02*
Y180000D01*
X315000Y170000D02*
X325000D01*
X315000D02*
Y180000D01*
X325000D01*
X323000Y170000D02*
X325000D01*
X340000D02*
Y180000D01*
X330000Y170000D02*
X340000D01*
X330000D02*
Y180000D01*
X340000D01*
X338000Y170000D02*
X340000D01*
X355000D02*
Y180000D01*
X345000Y170000D02*
X355000D01*
X345000D02*
Y180000D01*
X355000D01*
X353000Y170000D02*
X355000D01*
X370000D02*
Y180000D01*
X360000Y170000D02*
X370000D01*
X360000D02*
Y180000D01*
X370000D01*
X368000Y170000D02*
X370000D01*
X385000D02*
Y180000D01*
X375000Y170000D02*
X385000D01*
X375000D02*
Y180000D01*
X385000D01*
X383000Y170000D02*
X385000D01*
X310000Y150000D02*
Y160000D01*
X300000Y150000D02*
X310000D01*
X300000D02*
Y160000D01*
X310000D01*
X308000Y150000D02*
X310000D01*
X325000D02*
Y160000D01*
X315000Y150000D02*
X325000D01*
X315000D02*
Y160000D01*
X325000D01*
X323000Y150000D02*
X325000D01*
X340000D02*
Y160000D01*
X330000Y150000D02*
X340000D01*
X330000D02*
Y160000D01*
X340000D01*
X338000Y150000D02*
X340000D01*
X370000D02*
Y160000D01*
X360000Y150000D02*
X370000D01*
X360000D02*
Y160000D01*
X370000D01*
X368000Y150000D02*
X370000D01*
X355000D02*
Y160000D01*
X345000Y150000D02*
X355000D01*
X345000D02*
Y160000D01*
X355000D01*
X353000Y150000D02*
X355000D01*
X385000D02*
Y160000D01*
X375000Y150000D02*
X385000D01*
X375000D02*
Y160000D01*
X385000D01*
X383000Y150000D02*
X385000D01*
X470500Y331500D02*
X475000D01*
X469000Y330000D02*
X476500D01*
Y346000D01*
X469000D02*
X476500D01*
X469000Y330000D02*
Y346000D01*
X441500Y331500D02*
X446000D01*
X440000Y330000D02*
X447500D01*
Y346000D01*
X440000D02*
X447500D01*
X440000Y330000D02*
Y346000D01*
Y215000D02*
Y225000D01*
X430000Y215000D02*
X440000D01*
X430000D02*
Y225000D01*
X440000D01*
X438000Y215000D02*
X440000D01*
X455000D02*
Y225000D01*
X445000Y215000D02*
X455000D01*
X445000D02*
Y225000D01*
X455000D01*
X453000Y215000D02*
X455000D01*
X470000D02*
Y225000D01*
X460000Y215000D02*
X470000D01*
X460000D02*
Y225000D01*
X470000D01*
X468000Y215000D02*
X470000D01*
X485000D02*
Y225000D01*
X475000Y215000D02*
X485000D01*
X475000D02*
Y225000D01*
X485000D01*
X483000Y215000D02*
X485000D01*
X500000D02*
Y225000D01*
X490000Y215000D02*
X500000D01*
X490000D02*
Y225000D01*
X500000D01*
X498000Y215000D02*
X500000D01*
X515000D02*
Y225000D01*
X505000Y215000D02*
X515000D01*
X505000D02*
Y225000D01*
X515000D01*
X513000Y215000D02*
X515000D01*
X530000D02*
Y225000D01*
X520000Y215000D02*
X530000D01*
X520000D02*
Y225000D01*
X530000D01*
X528000Y215000D02*
X530000D01*
X440000Y195000D02*
Y205000D01*
X430000Y195000D02*
X440000D01*
X430000D02*
Y205000D01*
X440000D01*
X438000Y195000D02*
X440000D01*
X455000D02*
Y205000D01*
X445000Y195000D02*
X455000D01*
X445000D02*
Y205000D01*
X455000D01*
X453000Y195000D02*
X455000D01*
X470000D02*
Y205000D01*
X460000Y195000D02*
X470000D01*
X460000D02*
Y205000D01*
X470000D01*
X468000Y195000D02*
X470000D01*
X485000D02*
Y205000D01*
X475000Y195000D02*
X485000D01*
X475000D02*
Y205000D01*
X485000D01*
X483000Y195000D02*
X485000D01*
X500000D02*
Y205000D01*
X490000Y195000D02*
X500000D01*
X490000D02*
Y205000D01*
X500000D01*
X498000Y195000D02*
X500000D01*
X515000D02*
Y205000D01*
X505000Y195000D02*
X515000D01*
X505000D02*
Y205000D01*
X515000D01*
X513000Y195000D02*
X515000D01*
X384000Y324000D02*
Y334000D01*
X374000Y324000D02*
X384000D01*
X374000D02*
Y334000D01*
X384000D01*
X382000Y324000D02*
X384000D01*
X202500Y331000D02*
X207000D01*
X201000Y329500D02*
X208500D01*
Y345500D01*
X201000D02*
X208500D01*
X201000Y329500D02*
Y345500D01*
X255500Y331000D02*
X260000D01*
X254000Y329500D02*
X261500D01*
Y345500D01*
X254000D02*
X261500D01*
X254000Y329500D02*
Y345500D01*
X239000Y331000D02*
X243500D01*
X237500Y329500D02*
X245000D01*
Y345500D01*
X237500D02*
X245000D01*
X237500Y329500D02*
Y345500D01*
X299000Y331000D02*
X303500D01*
X297500Y329500D02*
X305000D01*
Y345500D01*
X297500D02*
X305000D01*
X297500Y329500D02*
Y345500D01*
X278500Y331000D02*
X283000D01*
X277000Y329500D02*
X284500D01*
Y345500D01*
X277000D02*
X284500D01*
X277000Y329500D02*
Y345500D01*
X189000Y331000D02*
X193500D01*
X187500Y329500D02*
X195000D01*
Y345500D01*
X187500D02*
X195000D01*
X187500Y329500D02*
Y345500D01*
X175000Y331000D02*
X179500D01*
X173500Y329500D02*
X181000D01*
Y345500D01*
X173500D02*
X181000D01*
X173500Y329500D02*
Y345500D01*
X160500Y331000D02*
X165000D01*
X159000Y329500D02*
X166500D01*
Y345500D01*
X159000D02*
X166500D01*
X159000Y329500D02*
Y345500D01*
X319500Y331000D02*
X324000D01*
X318000Y329500D02*
X325500D01*
Y345500D01*
X318000D02*
X325500D01*
X318000Y329500D02*
Y345500D01*
X340500Y331000D02*
X345000D01*
X339000Y329500D02*
X346500D01*
Y345500D01*
X339000D02*
X346500D01*
X339000Y329500D02*
Y345500D01*
X217500Y331000D02*
X222000D01*
X216000Y329500D02*
X223500D01*
Y345500D01*
X216000D02*
X223500D01*
X216000Y329500D02*
Y345500D01*
X75000Y331000D02*
X79500D01*
X73500Y329500D02*
X81000D01*
Y345500D01*
X73500D02*
X81000D01*
X73500Y329500D02*
Y345500D01*
X85000Y331000D02*
X89500D01*
X83500Y329500D02*
X91000D01*
Y345500D01*
X83500D02*
X91000D01*
X83500Y329500D02*
Y345500D01*
X95000Y331000D02*
X99500D01*
X93500Y329500D02*
X101000D01*
Y345500D01*
X93500D02*
X101000D01*
X93500Y329500D02*
Y345500D01*
X115000Y331000D02*
X119500D01*
X113500Y329500D02*
X121000D01*
Y345500D01*
X113500D02*
X121000D01*
X113500Y329500D02*
Y345500D01*
X125000Y331000D02*
X129500D01*
X123500Y329500D02*
X131000D01*
Y345500D01*
X123500D02*
X131000D01*
X123500Y329500D02*
Y345500D01*
X135000Y331000D02*
X139500D01*
X133500Y329500D02*
X141000D01*
Y345500D01*
X133500D02*
X141000D01*
X133500Y329500D02*
Y345500D01*
X436166Y354482D02*
X435499Y355148D01*
X434166D01*
X433500Y354482D01*
Y351816D01*
X434166Y351150D01*
X435499D01*
X436166Y351816D01*
X437499Y355148D02*
Y351150D01*
X439498D01*
X440165Y351816D01*
Y352483D01*
X439498Y353149D01*
X437499D01*
X439498D01*
X440165Y353815D01*
Y354482D01*
X439498Y355148D01*
X437499D01*
X441497D02*
Y351816D01*
X442164Y351150D01*
X443497D01*
X444163Y351816D01*
Y355148D01*
X448162Y354482D02*
X447496Y355148D01*
X446163D01*
X445496Y354482D01*
Y353815D01*
X446163Y353149D01*
X447496D01*
X448162Y352483D01*
Y351816D01*
X447496Y351150D01*
X446163D01*
X445496Y351816D01*
X449495Y354482D02*
X450161Y355148D01*
X451494D01*
X452161Y354482D01*
Y351816D01*
X451494Y351150D01*
X450161D01*
X449495Y351816D01*
Y354482D01*
X462666Y354332D02*
X461999Y354999D01*
X460666D01*
X460000Y354332D01*
Y351666D01*
X460666Y351000D01*
X461999D01*
X462666Y351666D01*
X463999Y354999D02*
Y351000D01*
X465998D01*
X466665Y351666D01*
Y352333D01*
X465998Y352999D01*
X463999D01*
X465998D01*
X466665Y353666D01*
Y354332D01*
X465998Y354999D01*
X463999D01*
X467997D02*
Y351666D01*
X468664Y351000D01*
X469997D01*
X470663Y351666D01*
Y354999D01*
X474662Y354332D02*
X473995Y354999D01*
X472663D01*
X471996Y354332D01*
Y353666D01*
X472663Y352999D01*
X473995D01*
X474662Y352333D01*
Y351666D01*
X473995Y351000D01*
X472663D01*
X471996Y351666D01*
X475995Y351000D02*
X477328D01*
X476661D01*
Y354999D01*
X475995Y354332D01*
X449666Y366999D02*
X447000D01*
Y364999D01*
X448333D01*
X447000D01*
Y363000D01*
X450999Y366999D02*
X453664D01*
X452332D01*
Y363000D01*
X454997Y366999D02*
Y363000D01*
X456997D01*
X457663Y363666D01*
Y366332D01*
X456997Y366999D01*
X454997D01*
X458996D02*
X460329D01*
X459663D01*
Y363000D01*
X458996D01*
X460329D01*
X283666Y365332D02*
X282999Y365999D01*
X281666D01*
X281000Y365332D01*
Y364666D01*
X281666Y363999D01*
X282999D01*
X283666Y363333D01*
Y362666D01*
X282999Y362000D01*
X281666D01*
X281000Y362666D01*
X286998Y362000D02*
X285665D01*
X284999Y362666D01*
Y363999D01*
X285665Y364666D01*
X286998D01*
X287665Y363999D01*
Y363333D01*
X284999D01*
X288997Y364666D02*
Y362000D01*
Y363333D01*
X289664Y363999D01*
X290330Y364666D01*
X290997D01*
X292996Y362000D02*
X294329D01*
X293663D01*
Y364666D01*
X292996D01*
X296995D02*
X298328D01*
X298994Y363999D01*
Y362000D01*
X296995D01*
X296328Y362666D01*
X296995Y363333D01*
X298994D01*
X300327Y362000D02*
X301660D01*
X300994D01*
Y365999D01*
X300327D01*
X255000Y354999D02*
Y351000D01*
X256999D01*
X257666Y351666D01*
Y354332D01*
X256999Y354999D01*
X255000D01*
X258999Y351000D02*
Y354999D01*
X260998D01*
X261665Y354332D01*
Y352999D01*
X260998Y352333D01*
X258999D01*
X75000Y354999D02*
Y351000D01*
X76999D01*
X77666Y351666D01*
Y354332D01*
X76999Y354999D01*
X75000D01*
X78999D02*
X81665D01*
Y354332D01*
X78999Y351666D01*
Y351000D01*
X84690Y354999D02*
Y351000D01*
X86690D01*
X87356Y351666D01*
Y354332D01*
X86690Y354999D01*
X84690D01*
X91355D02*
X90022Y354332D01*
X88689Y352999D01*
Y351666D01*
X89356Y351000D01*
X90689D01*
X91355Y351666D01*
Y352333D01*
X90689Y352999D01*
X88689D01*
X141000Y382999D02*
Y386998D01*
X142999Y388997D01*
X144999Y386998D01*
Y382999D01*
Y385998D01*
X141000D01*
X146998Y388997D02*
Y382999D01*
X149997D01*
X150997Y383999D01*
Y384999D01*
X149997Y385998D01*
X146998D01*
X149997D01*
X150997Y386998D01*
Y387998D01*
X149997Y388997D01*
X146998D01*
X156995Y387998D02*
X155995Y388997D01*
X153996D01*
X152996Y387998D01*
Y386998D01*
X153996Y385998D01*
X155995D01*
X156995Y384999D01*
Y383999D01*
X155995Y382999D01*
X153996D01*
X152996Y383999D01*
X164992Y388997D02*
Y382999D01*
X167991D01*
X168991Y383999D01*
Y387998D01*
X167991Y388997D01*
X164992D01*
X171990Y386998D02*
X173989D01*
X174989Y385998D01*
Y382999D01*
X171990D01*
X170990Y383999D01*
X171990Y384999D01*
X174989D01*
X177988Y387998D02*
Y386998D01*
X176988D01*
X178988D01*
X177988D01*
Y383999D01*
X178988Y382999D01*
X182986Y386998D02*
X184986D01*
X185985Y385998D01*
Y382999D01*
X182986D01*
X181987Y383999D01*
X182986Y384999D01*
X185985D01*
X197982Y387998D02*
X196982Y388997D01*
X194983D01*
X193983Y387998D01*
Y386998D01*
X194983Y385998D01*
X196982D01*
X197982Y384999D01*
Y383999D01*
X196982Y382999D01*
X194983D01*
X193983Y383999D01*
X199981Y386998D02*
Y383999D01*
X200981Y382999D01*
X203980D01*
Y382000D01*
X202980Y381000D01*
X201980D01*
X203980Y382999D02*
Y386998D01*
X205979Y382999D02*
X208978D01*
X209978Y383999D01*
X208978Y384999D01*
X206979D01*
X205979Y385998D01*
X206979Y386998D01*
X209978D01*
X212977Y387998D02*
Y386998D01*
X211977D01*
X213976D01*
X212977D01*
Y383999D01*
X213976Y382999D01*
X219974D02*
X217975D01*
X216975Y383999D01*
Y385998D01*
X217975Y386998D01*
X219974D01*
X220974Y385998D01*
Y384999D01*
X216975D01*
X222973Y382999D02*
Y386998D01*
X223973D01*
X224973Y385998D01*
Y382999D01*
Y385998D01*
X225973Y386998D01*
X226972Y385998D01*
Y382999D01*
X228972D02*
X231971D01*
X232970Y383999D01*
X231971Y384999D01*
X229971D01*
X228972Y385998D01*
X229971Y386998D01*
X232970D01*
X235969Y382000D02*
X236969Y382999D01*
Y383999D01*
X235969D01*
Y382999D01*
X236969D01*
X235969Y382000D01*
X234970Y381000D01*
X246966Y388997D02*
X248965D01*
X247965D01*
Y382999D01*
X246966D01*
X248965D01*
X251964D02*
Y386998D01*
X254963D01*
X255963Y385998D01*
Y382999D01*
X261961Y386998D02*
X258962D01*
X257962Y385998D01*
Y383999D01*
X258962Y382999D01*
X261961D01*
X264960Y382000D02*
X265960Y382999D01*
Y383999D01*
X264960D01*
Y382999D01*
X265960D01*
X264960Y382000D01*
X263960Y381000D01*
X277956Y382999D02*
X275956Y384999D01*
Y386998D01*
X277956Y388997D01*
X284953Y386998D02*
X281954D01*
X280955Y385998D01*
Y383999D01*
X281954Y382999D01*
X284953D01*
X286953D02*
X288952Y384999D01*
Y386998D01*
X286953Y388997D01*
X301948Y387998D02*
X300948Y388997D01*
X298949D01*
X297949Y387998D01*
Y383999D01*
X298949Y382999D01*
X300948D01*
X301948Y383999D01*
X304947Y382999D02*
X306946D01*
X307946Y383999D01*
Y385998D01*
X306946Y386998D01*
X304947D01*
X303947Y385998D01*
Y383999D01*
X304947Y382999D01*
X309945Y381000D02*
Y386998D01*
X312944D01*
X313944Y385998D01*
Y383999D01*
X312944Y382999D01*
X309945D01*
X315943Y386998D02*
Y383999D01*
X316943Y382999D01*
X319942D01*
Y382000D01*
X318942Y381000D01*
X317943D01*
X319942Y382999D02*
Y386998D01*
X321941D02*
Y382999D01*
Y384999D01*
X322941Y385998D01*
X323941Y386998D01*
X324940D01*
X327940Y382999D02*
X329939D01*
X328939D01*
Y386998D01*
X327940D01*
X334937Y381000D02*
X335937D01*
X336937Y382000D01*
Y386998D01*
X333938D01*
X332938Y385998D01*
Y383999D01*
X333938Y382999D01*
X336937D01*
X338936Y388997D02*
Y382999D01*
Y385998D01*
X339936Y386998D01*
X341935D01*
X342935Y385998D01*
Y382999D01*
X345934Y387998D02*
Y386998D01*
X344934D01*
X346933D01*
X345934D01*
Y383999D01*
X346933Y382999D01*
X359929D02*
X355930D01*
X359929Y386998D01*
Y387998D01*
X358929Y388997D01*
X356930D01*
X355930Y387998D01*
X361929D02*
X362928Y388997D01*
X364928D01*
X365927Y387998D01*
Y383999D01*
X364928Y382999D01*
X362928D01*
X361929Y383999D01*
Y387998D01*
X371925Y382999D02*
X367927D01*
X371925Y386998D01*
Y387998D01*
X370926Y388997D01*
X368926D01*
X367927Y387998D01*
X377923Y388997D02*
X373925D01*
Y385998D01*
X375924Y386998D01*
X376924D01*
X377923Y385998D01*
Y383999D01*
X376924Y382999D01*
X374924D01*
X373925Y383999D01*
X123452Y354999D02*
Y351000D01*
X125451D01*
X126118Y351666D01*
Y354332D01*
X125451Y354999D01*
X123452D01*
X130117Y351000D02*
X127451D01*
X130117Y353666D01*
Y354332D01*
X129450Y354999D01*
X128117D01*
X127451Y354332D01*
X217000Y354999D02*
Y351000D01*
X218333Y352333D01*
X219666Y351000D01*
Y354999D01*
X220999Y351000D02*
Y354999D01*
X222998D01*
X223664Y354332D01*
Y352999D01*
X222998Y352333D01*
X220999D01*
X222332D02*
X223664Y351000D01*
X133142Y354999D02*
Y351000D01*
X135142D01*
X135808Y351666D01*
Y354332D01*
X135142Y354999D01*
X133142D01*
X137141Y351000D02*
X138474D01*
X137808D01*
Y354999D01*
X137141Y354332D01*
X141500Y354999D02*
Y351000D01*
X143499D01*
X144166Y351666D01*
Y354332D01*
X143499Y354999D01*
X141500D01*
X145499Y354332D02*
X146165Y354999D01*
X147498D01*
X148164Y354332D01*
Y351666D01*
X147498Y351000D01*
X146165D01*
X145499Y351666D01*
Y354332D01*
X159000Y354999D02*
X160333D01*
X159667D01*
Y351000D01*
X159000D01*
X160333D01*
X162332D02*
Y353666D01*
X164332D01*
X164998Y352999D01*
Y351000D01*
X166997Y354332D02*
Y353666D01*
X166331D01*
X167664D01*
X166997D01*
Y351666D01*
X167664Y351000D01*
X173000D02*
Y354999D01*
X174999D01*
X175666Y354332D01*
Y352999D01*
X174999Y352333D01*
X173000D01*
X174333D02*
X175666Y351000D01*
X176999D02*
X178998D01*
X179665Y351666D01*
X178998Y352333D01*
X177665D01*
X176999Y352999D01*
X177665Y353666D01*
X179665D01*
X181664Y354332D02*
Y353666D01*
X180997D01*
X182330D01*
X181664D01*
Y351666D01*
X182330Y351000D01*
X190666Y354332D02*
X189999Y354999D01*
X188666D01*
X188000Y354332D01*
Y351666D01*
X188666Y351000D01*
X189999D01*
X190666Y351666D01*
X194665Y354332D02*
X193998Y354999D01*
X192665D01*
X191999Y354332D01*
Y353666D01*
X192665Y352999D01*
X193998D01*
X194665Y352333D01*
Y351666D01*
X193998Y351000D01*
X192665D01*
X191999Y351666D01*
X121666Y366332D02*
X120999Y366999D01*
X119667D01*
X119000Y366332D01*
Y363666D01*
X119667Y363000D01*
X120999D01*
X121666Y363666D01*
X122999Y363000D02*
Y366999D01*
X124998D01*
X125664Y366332D01*
Y364999D01*
X124998Y364333D01*
X122999D01*
X126997Y366999D02*
Y363666D01*
X127664Y363000D01*
X128997D01*
X129663Y363666D01*
Y366999D01*
X134995D02*
Y363000D01*
X136994D01*
X137661Y363666D01*
Y364333D01*
X136994Y364999D01*
X134995D01*
X136994D01*
X137661Y365666D01*
Y366332D01*
X136994Y366999D01*
X134995D01*
X138994Y365666D02*
Y363666D01*
X139660Y363000D01*
X141659D01*
Y365666D01*
X142992Y363000D02*
X144992D01*
X145658Y363666D01*
X144992Y364333D01*
X143659D01*
X142992Y364999D01*
X143659Y365666D01*
X145658D01*
X151656D02*
X152989D01*
X153656Y364999D01*
Y363000D01*
X151656D01*
X150990Y363666D01*
X151656Y364333D01*
X153656D01*
X154988Y363000D02*
Y365666D01*
X156988D01*
X157654Y364999D01*
Y363000D01*
X161653Y366999D02*
Y363000D01*
X159653D01*
X158987Y363666D01*
Y364999D01*
X159653Y365666D01*
X161653D01*
X169650Y366332D02*
X168984Y366999D01*
X167651D01*
X166984Y366332D01*
Y363666D01*
X167651Y363000D01*
X168984D01*
X169650Y363666D01*
X171650Y363000D02*
X172983D01*
X173649Y363666D01*
Y364999D01*
X172983Y365666D01*
X171650D01*
X170983Y364999D01*
Y363666D01*
X171650Y363000D01*
X174982D02*
Y365666D01*
X176981D01*
X177648Y364999D01*
Y363000D01*
X179647Y366332D02*
Y365666D01*
X178981D01*
X180314D01*
X179647D01*
Y363666D01*
X180314Y363000D01*
X182313Y365666D02*
Y363000D01*
Y364333D01*
X182979Y364999D01*
X183646Y365666D01*
X184312D01*
X186978Y363000D02*
X188311D01*
X188977Y363666D01*
Y364999D01*
X188311Y365666D01*
X186978D01*
X186312Y364999D01*
Y363666D01*
X186978Y363000D01*
X190310D02*
X191643D01*
X190977D01*
Y366999D01*
X190310D01*
X94381Y354999D02*
Y351000D01*
X96380D01*
X97047Y351666D01*
Y354332D01*
X96380Y354999D01*
X94381D01*
X101045D02*
X98379D01*
Y352999D01*
X99712Y353666D01*
X100379D01*
X101045Y352999D01*
Y351666D01*
X100379Y351000D01*
X99046D01*
X98379Y351666D01*
X104071Y354999D02*
Y351000D01*
X106071D01*
X106737Y351666D01*
Y354332D01*
X106071Y354999D01*
X104071D01*
X110069Y351000D02*
Y354999D01*
X108070Y352999D01*
X110736D01*
X113762Y354999D02*
Y351000D01*
X115761D01*
X116427Y351666D01*
Y354332D01*
X115761Y354999D01*
X113762D01*
X117760Y354332D02*
X118427Y354999D01*
X119760D01*
X120426Y354332D01*
Y353666D01*
X119760Y352999D01*
X119093D01*
X119760D01*
X120426Y352333D01*
Y351666D01*
X119760Y351000D01*
X118427D01*
X117760Y351666D01*
X202000Y351000D02*
Y354999D01*
X203999D01*
X204666Y354332D01*
Y352999D01*
X203999Y352333D01*
X202000D01*
X203333D02*
X204666Y351000D01*
X205999Y354999D02*
Y351000D01*
X207998D01*
X208664Y351666D01*
Y354332D01*
X207998Y354999D01*
X205999D01*
X461000Y386000D02*
Y389999D01*
X462999D01*
X463666Y389332D01*
Y387999D01*
X462999Y387333D01*
X461000D01*
X464999Y386000D02*
X467664Y388666D01*
X468997Y386000D02*
Y389999D01*
X471663Y386000D01*
Y389999D01*
X479661D02*
X476995D01*
Y387999D01*
X478328D01*
X476995D01*
Y386000D01*
X480994Y389999D02*
X483659D01*
X482327D01*
Y386000D01*
X484992Y389999D02*
Y386000D01*
X486992D01*
X487658Y386666D01*
Y389332D01*
X486992Y389999D01*
X484992D01*
X488991D02*
X490324D01*
X489657D01*
Y386000D01*
X488991D01*
X490324D01*
X492323Y387999D02*
X494989D01*
X496322Y389332D02*
X496988Y389999D01*
X498321D01*
X498988Y389332D01*
Y388666D01*
X498321Y387999D01*
X497655D01*
X498321D01*
X498988Y387333D01*
Y386666D01*
X498321Y386000D01*
X496988D01*
X496322Y386666D01*
X502986Y386000D02*
X500321D01*
X502986Y388666D01*
Y389332D01*
X502320Y389999D01*
X500987D01*
X500321Y389332D01*
X504319Y386666D02*
X504986Y386000D01*
X506319D01*
X506985Y386666D01*
Y389332D01*
X506319Y389999D01*
X504986D01*
X504319Y389332D01*
Y388666D01*
X504986Y387999D01*
X506985D01*
X510984Y389999D02*
X508318D01*
Y387999D01*
X509651Y388666D01*
X510317D01*
X510984Y387999D01*
Y386666D01*
X510317Y386000D01*
X508985D01*
X508318Y386666D01*
X512317Y389332D02*
X512983Y389999D01*
X514316D01*
X514983Y389332D01*
Y388666D01*
X514316Y387999D01*
X514983Y387333D01*
Y386666D01*
X514316Y386000D01*
X512983D01*
X512317Y386666D01*
Y387333D01*
X512983Y387999D01*
X512317Y388666D01*
Y389332D01*
X512983Y387999D02*
X514316D01*
X324000Y362000D02*
Y365999D01*
X325999D01*
X326666Y365332D01*
Y363999D01*
X325999Y363333D01*
X324000D01*
X328665Y362000D02*
X329998D01*
X330664Y362666D01*
Y363999D01*
X329998Y364666D01*
X328665D01*
X327999Y363999D01*
Y362666D01*
X328665Y362000D01*
X331997Y364666D02*
Y362666D01*
X332664Y362000D01*
X333330Y362666D01*
X333997Y362000D01*
X334663Y362666D01*
Y364666D01*
X337996Y362000D02*
X336663D01*
X335996Y362666D01*
Y363999D01*
X336663Y364666D01*
X337996D01*
X338662Y363999D01*
Y363333D01*
X335996D01*
X339995Y364666D02*
Y362000D01*
Y363333D01*
X340661Y363999D01*
X341328Y364666D01*
X341994D01*
X343666Y355148D02*
X341000D01*
Y353149D01*
X342333Y353815D01*
X342999D01*
X343666Y353149D01*
Y351816D01*
X342999Y351150D01*
X341666D01*
X341000Y351816D01*
X344999Y355148D02*
Y352483D01*
X346332Y351150D01*
X347664Y352483D01*
Y355148D01*
X318500Y354482D02*
X319166Y355148D01*
X320499D01*
X321166Y354482D01*
Y353815D01*
X320499Y353149D01*
X319833D01*
X320499D01*
X321166Y352483D01*
Y351816D01*
X320499Y351150D01*
X319166D01*
X318500Y351816D01*
X322499Y351150D02*
Y351816D01*
X323165D01*
Y351150D01*
X322499D01*
X325831Y354482D02*
X326497Y355148D01*
X327830D01*
X328497Y354482D01*
Y353815D01*
X327830Y353149D01*
X327164D01*
X327830D01*
X328497Y352483D01*
Y351816D01*
X327830Y351150D01*
X326497D01*
X325831Y351816D01*
X329830Y355148D02*
Y352483D01*
X331163Y351150D01*
X332495Y352483D01*
Y355148D01*
X244000Y365999D02*
Y362666D01*
X244666Y362000D01*
X245999D01*
X246666Y362666D01*
Y365999D01*
X250664Y365332D02*
X249998Y365999D01*
X248665D01*
X247999Y365332D01*
Y364666D01*
X248665Y363999D01*
X249998D01*
X250664Y363333D01*
Y362666D01*
X249998Y362000D01*
X248665D01*
X247999Y362666D01*
X251997Y365999D02*
Y362000D01*
X253997D01*
X254663Y362666D01*
Y363333D01*
X253997Y363999D01*
X251997D01*
X253997D01*
X254663Y364666D01*
Y365332D01*
X253997Y365999D01*
X251997D01*
X238000Y354999D02*
Y351000D01*
X239999D01*
X240666Y351666D01*
Y354332D01*
X239999Y354999D01*
X238000D01*
X241999Y351000D02*
Y354999D01*
X243332Y353666D01*
X244665Y354999D01*
Y351000D01*
X277000D02*
Y354999D01*
X278999D01*
X279666Y354332D01*
Y352999D01*
X278999Y352333D01*
X277000D01*
X278333D02*
X279666Y351000D01*
X280999Y354999D02*
X283664Y351000D01*
Y354999D02*
X280999Y351000D01*
X284997Y354999D02*
Y351000D01*
X286997D01*
X287663Y351666D01*
Y354332D01*
X286997Y354999D01*
X284997D01*
X296000D02*
X298666D01*
X297333D01*
Y351000D01*
X299999Y354999D02*
X302664Y351000D01*
Y354999D02*
X299999Y351000D01*
X303997Y354999D02*
Y351000D01*
X305997D01*
X306663Y351666D01*
Y354332D01*
X305997Y354999D01*
X303997D01*
X234668Y260999D02*
Y257667D01*
X235334Y257001D01*
X236667D01*
X237334Y257667D01*
Y260999D01*
X238667Y260333D02*
X239333Y260999D01*
X240666D01*
X241332Y260333D01*
Y259666D01*
X240666Y259000D01*
X239999D01*
X240666D01*
X241332Y258334D01*
Y257667D01*
X240666Y257001D01*
X239333D01*
X238667Y257667D01*
X96668Y269999D02*
Y266667D01*
X97334Y266001D01*
X98667D01*
X99334Y266667D01*
Y269999D01*
X103332Y266001D02*
X100666D01*
X103332Y268666D01*
Y269333D01*
X102666Y269999D01*
X101333D01*
X100666Y269333D01*
X458555Y305779D02*
Y302447D01*
X459221Y301780D01*
X460554D01*
X461221Y302447D01*
Y305779D01*
X462553Y301780D02*
X463886D01*
X463220D01*
Y305779D01*
X462553Y305112D01*
X373502Y338499D02*
X375501D01*
X374501D01*
Y335501D01*
X376501D02*
Y338499D01*
X378000D01*
X378500Y338000D01*
Y337000D01*
X378000Y336500D01*
X376501D01*
X379500Y338000D02*
X380000Y338499D01*
X380999D01*
X381499Y338000D01*
Y337500D01*
X380999Y337000D01*
X380500D01*
X380999D01*
X381499Y336500D01*
Y336000D01*
X380999Y335501D01*
X380000D01*
X379500Y336000D01*
X382499Y338000D02*
X382999Y338499D01*
X383998D01*
X384498Y338000D01*
Y336000D01*
X383998Y335501D01*
X382999D01*
X382499Y336000D01*
Y338000D01*
X504502Y210500D02*
X506501D01*
X505502D01*
Y207501D01*
X507501D02*
Y210500D01*
X509000D01*
X509500Y210000D01*
Y209000D01*
X509000Y208500D01*
X507501D01*
X512499Y207501D02*
X510500D01*
X512499Y209500D01*
Y210000D01*
X511999Y210500D01*
X511000D01*
X510500Y210000D01*
X513499Y208000D02*
X513999Y207501D01*
X514998D01*
X515498Y208000D01*
Y210000D01*
X514998Y210500D01*
X513999D01*
X513499Y210000D01*
Y209500D01*
X513999Y209000D01*
X515498D01*
X489502Y210500D02*
X491501D01*
X490501D01*
Y207501D01*
X492501D02*
Y210500D01*
X494000D01*
X494500Y210000D01*
Y209000D01*
X494000Y208500D01*
X492501D01*
X497499Y207501D02*
X495500D01*
X497499Y209500D01*
Y210000D01*
X496999Y210500D01*
X496000D01*
X495500Y210000D01*
X498499D02*
X498999Y210500D01*
X499998D01*
X500498Y210000D01*
Y209500D01*
X499998Y209000D01*
X500498Y208500D01*
Y208000D01*
X499998Y207501D01*
X498999D01*
X498499Y208000D01*
Y208500D01*
X498999Y209000D01*
X498499Y209500D01*
Y210000D01*
X498999Y209000D02*
X499998D01*
X473502Y210500D02*
X475501D01*
X474502D01*
Y207501D01*
X476501D02*
Y210500D01*
X478000D01*
X478500Y210000D01*
Y209000D01*
X478000Y208500D01*
X476501D01*
X481499Y207501D02*
X479500D01*
X481499Y209500D01*
Y210000D01*
X480999Y210500D01*
X480000D01*
X479500Y210000D01*
X482499Y210500D02*
X484498D01*
Y210000D01*
X482499Y208000D01*
Y207501D01*
X459502Y210500D02*
X461501D01*
X460501D01*
Y207501D01*
X462501D02*
Y210500D01*
X464000D01*
X464500Y210000D01*
Y209000D01*
X464000Y208500D01*
X462501D01*
X467499Y207501D02*
X465500D01*
X467499Y209500D01*
Y210000D01*
X466999Y210500D01*
X466000D01*
X465500Y210000D01*
X470498Y210500D02*
X469498Y210000D01*
X468499Y209000D01*
Y208000D01*
X468999Y207501D01*
X469998D01*
X470498Y208000D01*
Y208500D01*
X469998Y209000D01*
X468499D01*
X443502Y210500D02*
X445501D01*
X444501D01*
Y207501D01*
X446501D02*
Y210500D01*
X448000D01*
X448500Y210000D01*
Y209000D01*
X448000Y208500D01*
X446501D01*
X451499Y207501D02*
X449500D01*
X451499Y209500D01*
Y210000D01*
X450999Y210500D01*
X450000D01*
X449500Y210000D01*
X454498Y210500D02*
X452499D01*
Y209000D01*
X453499Y209500D01*
X453998D01*
X454498Y209000D01*
Y208000D01*
X453998Y207501D01*
X452999D01*
X452499Y208000D01*
X429502Y210500D02*
X431501D01*
X430502D01*
Y207501D01*
X432501D02*
Y210500D01*
X434000D01*
X434500Y210000D01*
Y209000D01*
X434000Y208500D01*
X432501D01*
X437499Y207501D02*
X435500D01*
X437499Y209500D01*
Y210000D01*
X436999Y210500D01*
X436000D01*
X435500Y210000D01*
X439998Y207501D02*
Y210500D01*
X438499Y209000D01*
X440498D01*
X518502Y229999D02*
X520501D01*
X519501D01*
Y227000D01*
X521501D02*
Y229999D01*
X523000D01*
X523500Y229500D01*
Y228500D01*
X523000Y228000D01*
X521501D01*
X526499Y227000D02*
X524500D01*
X526499Y229000D01*
Y229500D01*
X525999Y229999D01*
X525000D01*
X524500Y229500D01*
X527499D02*
X527999Y229999D01*
X528998D01*
X529498Y229500D01*
Y229000D01*
X528998Y228500D01*
X528499D01*
X528998D01*
X529498Y228000D01*
Y227500D01*
X528998Y227000D01*
X527999D01*
X527499Y227500D01*
X504502Y229999D02*
X506501D01*
X505502D01*
Y227000D01*
X507501D02*
Y229999D01*
X509000D01*
X509500Y229500D01*
Y228500D01*
X509000Y228000D01*
X507501D01*
X512499Y227000D02*
X510500D01*
X512499Y229000D01*
Y229500D01*
X511999Y229999D01*
X511000D01*
X510500Y229500D01*
X515498Y227000D02*
X513499D01*
X515498Y229000D01*
Y229500D01*
X514998Y229999D01*
X513999D01*
X513499Y229500D01*
X489002Y229999D02*
X491001D01*
X490001D01*
Y227000D01*
X492001D02*
Y229999D01*
X493500D01*
X494000Y229500D01*
Y228500D01*
X493500Y228000D01*
X492001D01*
X496999Y227000D02*
X495000D01*
X496999Y229000D01*
Y229500D01*
X496499Y229999D01*
X495500D01*
X495000Y229500D01*
X497999Y227000D02*
X498998D01*
X498498D01*
Y229999D01*
X497999Y229500D01*
X474502Y229999D02*
X476501D01*
X475501D01*
Y227000D01*
X477501D02*
Y229999D01*
X479000D01*
X479500Y229500D01*
Y228500D01*
X479000Y228000D01*
X477501D01*
X482499Y227000D02*
X480500D01*
X482499Y229000D01*
Y229500D01*
X481999Y229999D01*
X481000D01*
X480500Y229500D01*
X483499D02*
X483999Y229999D01*
X484998D01*
X485498Y229500D01*
Y227500D01*
X484998Y227000D01*
X483999D01*
X483499Y227500D01*
Y229500D01*
X459752Y229999D02*
X461751D01*
X460751D01*
Y227000D01*
X462751D02*
Y229999D01*
X464250D01*
X464750Y229500D01*
Y228500D01*
X464250Y228000D01*
X462751D01*
X465750Y227000D02*
X466749D01*
X466250D01*
Y229999D01*
X465750Y229500D01*
X468249Y227500D02*
X468749Y227000D01*
X469748D01*
X470248Y227500D01*
Y229500D01*
X469748Y229999D01*
X468749D01*
X468249Y229500D01*
Y229000D01*
X468749Y228500D01*
X470248D01*
X444752Y229999D02*
X446751D01*
X445751D01*
Y227000D01*
X447751D02*
Y229999D01*
X449250D01*
X449750Y229500D01*
Y228500D01*
X449250Y228000D01*
X447751D01*
X450750Y227000D02*
X451749D01*
X451250D01*
Y229999D01*
X450750Y229500D01*
X453249D02*
X453749Y229999D01*
X454748D01*
X455248Y229500D01*
Y229000D01*
X454748Y228500D01*
X455248Y228000D01*
Y227500D01*
X454748Y227000D01*
X453749D01*
X453249Y227500D01*
Y228000D01*
X453749Y228500D01*
X453249Y229000D01*
Y229500D01*
X453749Y228500D02*
X454748D01*
X429752Y229999D02*
X431751D01*
X430751D01*
Y227000D01*
X432751D02*
Y229999D01*
X434250D01*
X434750Y229500D01*
Y228500D01*
X434250Y228000D01*
X432751D01*
X435750Y227000D02*
X436749D01*
X436250D01*
Y229999D01*
X435750Y229500D01*
X438249Y229999D02*
X440248D01*
Y229500D01*
X438249Y227500D01*
Y227000D01*
X375752Y165499D02*
X377751D01*
X376751D01*
Y162501D01*
X378751D02*
Y165499D01*
X380250D01*
X380750Y165000D01*
Y164000D01*
X380250Y163500D01*
X378751D01*
X381750Y162501D02*
X382749D01*
X382250D01*
Y165499D01*
X381750Y165000D01*
X386248Y165499D02*
X385249Y165000D01*
X384249Y164000D01*
Y163000D01*
X384749Y162501D01*
X385749D01*
X386248Y163000D01*
Y163500D01*
X385749Y164000D01*
X384249D01*
X359752Y165499D02*
X361751D01*
X360751D01*
Y162501D01*
X362751D02*
Y165499D01*
X364250D01*
X364750Y165000D01*
Y164000D01*
X364250Y163500D01*
X362751D01*
X365750Y162501D02*
X366749D01*
X366250D01*
Y165499D01*
X365750Y165000D01*
X370248Y165499D02*
X368249D01*
Y164000D01*
X369249Y164500D01*
X369748D01*
X370248Y164000D01*
Y163000D01*
X369748Y162501D01*
X368749D01*
X368249Y163000D01*
X344752Y166499D02*
X346751D01*
X345751D01*
Y163500D01*
X347751D02*
Y166499D01*
X349250D01*
X349750Y166000D01*
Y165000D01*
X349250Y164500D01*
X347751D01*
X350750Y163500D02*
X351749D01*
X351250D01*
Y166499D01*
X350750Y166000D01*
X354749Y163500D02*
Y166499D01*
X353249Y165000D01*
X355248D01*
X329752Y166499D02*
X331751D01*
X330751D01*
Y163500D01*
X332751D02*
Y166499D01*
X334250D01*
X334750Y166000D01*
Y165000D01*
X334250Y164500D01*
X332751D01*
X335750Y163500D02*
X336749D01*
X336250D01*
Y166499D01*
X335750Y166000D01*
X338249D02*
X338749Y166499D01*
X339749D01*
X340248Y166000D01*
Y165500D01*
X339749Y165000D01*
X339249D01*
X339749D01*
X340248Y164500D01*
Y164000D01*
X339749Y163500D01*
X338749D01*
X338249Y164000D01*
X314752Y165499D02*
X316751D01*
X315751D01*
Y162501D01*
X317751D02*
Y165499D01*
X319250D01*
X319750Y165000D01*
Y164000D01*
X319250Y163500D01*
X317751D01*
X320750Y162501D02*
X321749D01*
X321250D01*
Y165499D01*
X320750Y165000D01*
X325248Y162501D02*
X323249D01*
X325248Y164500D01*
Y165000D01*
X324748Y165499D01*
X323749D01*
X323249Y165000D01*
X300252Y166499D02*
X302251D01*
X301251D01*
Y163500D01*
X303251D02*
Y166499D01*
X304750D01*
X305250Y166000D01*
Y165000D01*
X304750Y164500D01*
X303251D01*
X306250Y163500D02*
X307249D01*
X306749D01*
Y166499D01*
X306250Y166000D01*
X308749Y163500D02*
X309749D01*
X309249D01*
Y166499D01*
X308749Y166000D01*
X374752Y185500D02*
X376751D01*
X375751D01*
Y182501D01*
X377751D02*
Y185500D01*
X379250D01*
X379750Y185000D01*
Y184000D01*
X379250Y183500D01*
X377751D01*
X380750Y182501D02*
X381749D01*
X381250D01*
Y185500D01*
X380750Y185000D01*
X383249D02*
X383749Y185500D01*
X384749D01*
X385248Y185000D01*
Y183000D01*
X384749Y182501D01*
X383749D01*
X383249Y183000D01*
Y185000D01*
X361001Y185500D02*
X363001D01*
X362001D01*
Y182501D01*
X364000D02*
Y185500D01*
X365500D01*
X366000Y185000D01*
Y184000D01*
X365500Y183500D01*
X364000D01*
X366999Y183000D02*
X367499Y182501D01*
X368499D01*
X368999Y183000D01*
Y185000D01*
X368499Y185500D01*
X367499D01*
X366999Y185000D01*
Y184500D01*
X367499Y184000D01*
X368999D01*
X346001Y185500D02*
X348001D01*
X347001D01*
Y182501D01*
X349000D02*
Y185500D01*
X350500D01*
X351000Y185000D01*
Y184000D01*
X350500Y183500D01*
X349000D01*
X351999Y185000D02*
X352499Y185500D01*
X353499D01*
X353999Y185000D01*
Y184500D01*
X353499Y184000D01*
X353999Y183500D01*
Y183000D01*
X353499Y182501D01*
X352499D01*
X351999Y183000D01*
Y183500D01*
X352499Y184000D01*
X351999Y184500D01*
Y185000D01*
X352499Y184000D02*
X353499D01*
X331001Y186500D02*
X333001D01*
X332001D01*
Y183501D01*
X334000D02*
Y186500D01*
X335500D01*
X336000Y186000D01*
Y185000D01*
X335500Y184500D01*
X334000D01*
X336999Y186500D02*
X338999D01*
Y186000D01*
X336999Y184000D01*
Y183501D01*
X316001Y186500D02*
X318001D01*
X317001D01*
Y183501D01*
X319000D02*
Y186500D01*
X320500D01*
X321000Y186000D01*
Y185000D01*
X320500Y184500D01*
X319000D01*
X323999Y186500D02*
X322999Y186000D01*
X321999Y185000D01*
Y184000D01*
X322499Y183501D01*
X323499D01*
X323999Y184000D01*
Y184500D01*
X323499Y185000D01*
X321999D01*
X301001Y186500D02*
X303001D01*
X302001D01*
Y183501D01*
X304000D02*
Y186500D01*
X305500D01*
X306000Y186000D01*
Y185000D01*
X305500Y184500D01*
X304000D01*
X308999Y186500D02*
X306999D01*
Y185000D01*
X307999Y185500D01*
X308499D01*
X308999Y185000D01*
Y184000D01*
X308499Y183501D01*
X307499D01*
X306999Y184000D01*
X44668Y245999D02*
X47334D01*
X46001D01*
Y242001D01*
X48667D02*
Y245999D01*
X50666D01*
X51333Y245333D01*
Y244000D01*
X50666Y243334D01*
X48667D01*
X54665Y242001D02*
Y245999D01*
X52666Y244000D01*
X55332D01*
X340001Y206500D02*
X342001D01*
X341001D01*
Y203501D01*
X343000D02*
Y206500D01*
X344500D01*
X345000Y206000D01*
Y205000D01*
X344500Y204500D01*
X343000D01*
X345999Y206000D02*
X346499Y206500D01*
X347499D01*
X347999Y206000D01*
Y205500D01*
X347499Y205000D01*
X346999D01*
X347499D01*
X347999Y204500D01*
Y204000D01*
X347499Y203501D01*
X346499D01*
X345999Y204000D01*
X340001Y225500D02*
X342001D01*
X341001D01*
Y222500D01*
X343000D02*
Y225500D01*
X344500D01*
X345000Y225000D01*
Y224000D01*
X344500Y223500D01*
X343000D01*
X347999Y222500D02*
X345999D01*
X347999Y224500D01*
Y225000D01*
X347499Y225500D01*
X346499D01*
X345999Y225000D01*
X340501Y245499D02*
X342500D01*
X341501D01*
Y242500D01*
X343500D02*
Y245499D01*
X345000D01*
X345499Y245000D01*
Y244000D01*
X345000Y243500D01*
X343500D01*
X346499Y242500D02*
X347499D01*
X346999D01*
Y245499D01*
X346499Y245000D01*
X284668Y243001D02*
Y246999D01*
X286668D01*
X287334Y246333D01*
Y245000D01*
X286668Y244334D01*
X284668D01*
X286001D02*
X287334Y243001D01*
X288667Y243667D02*
X289334Y243001D01*
X290666D01*
X291333Y243667D01*
Y246333D01*
X290666Y246999D01*
X289334D01*
X288667Y246333D01*
Y245666D01*
X289334Y245000D01*
X291333D01*
X294665Y243001D02*
Y246999D01*
X292666Y245000D01*
X295332D01*
X284668Y237001D02*
Y240999D01*
X286668D01*
X287334Y240333D01*
Y239000D01*
X286668Y238334D01*
X284668D01*
X286001D02*
X287334Y237001D01*
X288667Y237667D02*
X289334Y237001D01*
X290666D01*
X291333Y237667D01*
Y240333D01*
X290666Y240999D01*
X289334D01*
X288667Y240333D01*
Y239666D01*
X289334Y239000D01*
X291333D01*
X292666Y240333D02*
X293332Y240999D01*
X294665D01*
X295332Y240333D01*
Y239666D01*
X294665Y239000D01*
X293999D01*
X294665D01*
X295332Y238334D01*
Y237667D01*
X294665Y237001D01*
X293332D01*
X292666Y237667D01*
X193499Y256668D02*
X189501D01*
Y258668D01*
X190167Y259334D01*
X191500D01*
X192166Y258668D01*
Y256668D01*
Y258001D02*
X193499Y259334D01*
X192833Y260667D02*
X193499Y261334D01*
Y262667D01*
X192833Y263333D01*
X190167D01*
X189501Y262667D01*
Y261334D01*
X190167Y260667D01*
X190833D01*
X191500Y261334D01*
Y263333D01*
X193499Y267332D02*
Y264666D01*
X190833Y267332D01*
X190167D01*
X189501Y266665D01*
Y265332D01*
X190167Y264666D01*
X203835Y239001D02*
Y242999D01*
X205834D01*
X206501Y242333D01*
Y241000D01*
X205834Y240334D01*
X203835D01*
X205168D02*
X206501Y239001D01*
X207834Y239667D02*
X208500Y239001D01*
X209833D01*
X210499Y239667D01*
Y242333D01*
X209833Y242999D01*
X208500D01*
X207834Y242333D01*
Y241666D01*
X208500Y241000D01*
X210499D01*
X211832Y239001D02*
X213165D01*
X212499D01*
Y242999D01*
X211832Y242333D01*
X179499Y256668D02*
X175501D01*
Y258668D01*
X176167Y259334D01*
X177500D01*
X178166Y258668D01*
Y256668D01*
Y258001D02*
X179499Y259334D01*
X178833Y260667D02*
X179499Y261334D01*
Y262667D01*
X178833Y263333D01*
X176167D01*
X175501Y262667D01*
Y261334D01*
X176167Y260667D01*
X176833D01*
X177500Y261334D01*
Y263333D01*
X176167Y264666D02*
X175501Y265332D01*
Y266665D01*
X176167Y267332D01*
X178833D01*
X179499Y266665D01*
Y265332D01*
X178833Y264666D01*
X176167D01*
X203668Y245001D02*
Y248999D01*
X205668D01*
X206334Y248333D01*
Y247000D01*
X205668Y246334D01*
X203668D01*
X205001D02*
X206334Y245001D01*
X207667Y248333D02*
X208334Y248999D01*
X209666D01*
X210333Y248333D01*
Y247666D01*
X209666Y247000D01*
X210333Y246334D01*
Y245667D01*
X209666Y245001D01*
X208334D01*
X207667Y245667D01*
Y246334D01*
X208334Y247000D01*
X207667Y247666D01*
Y248333D01*
X208334Y247000D02*
X209666D01*
X211666Y245667D02*
X212332Y245001D01*
X213665D01*
X214332Y245667D01*
Y248333D01*
X213665Y248999D01*
X212332D01*
X211666Y248333D01*
Y247666D01*
X212332Y247000D01*
X214332D01*
X164999Y256668D02*
X161001D01*
Y258668D01*
X161667Y259334D01*
X163000D01*
X163666Y258668D01*
Y256668D01*
Y258001D02*
X164999Y259334D01*
X161667Y260667D02*
X161001Y261334D01*
Y262667D01*
X161667Y263333D01*
X162334D01*
X163000Y262667D01*
X163666Y263333D01*
X164333D01*
X164999Y262667D01*
Y261334D01*
X164333Y260667D01*
X163666D01*
X163000Y261334D01*
X162334Y260667D01*
X161667D01*
X163000Y261334D02*
Y262667D01*
X161667Y264666D02*
X161001Y265332D01*
Y266665D01*
X161667Y267332D01*
X162334D01*
X163000Y266665D01*
X163666Y267332D01*
X164333D01*
X164999Y266665D01*
Y265332D01*
X164333Y264666D01*
X163666D01*
X163000Y265332D01*
X162334Y264666D01*
X161667D01*
X163000Y265332D02*
Y266665D01*
X203668Y251001D02*
Y254999D01*
X205668D01*
X206334Y254333D01*
Y253000D01*
X205668Y252334D01*
X203668D01*
X205001D02*
X206334Y251001D01*
X207667Y254333D02*
X208334Y254999D01*
X209666D01*
X210333Y254333D01*
Y253666D01*
X209666Y253000D01*
X210333Y252334D01*
Y251667D01*
X209666Y251001D01*
X208334D01*
X207667Y251667D01*
Y252334D01*
X208334Y253000D01*
X207667Y253666D01*
Y254333D01*
X208334Y253000D02*
X209666D01*
X211666Y254999D02*
X214332D01*
Y254333D01*
X211666Y251667D01*
Y251001D01*
X513668Y280001D02*
Y283999D01*
X515668D01*
X516334Y283333D01*
Y282000D01*
X515668Y281334D01*
X513668D01*
X515001D02*
X516334Y280001D01*
X520333Y283999D02*
X519000Y283333D01*
X517667Y282000D01*
Y280667D01*
X518334Y280001D01*
X519666D01*
X520333Y280667D01*
Y281334D01*
X519666Y282000D01*
X517667D01*
X521666Y283999D02*
X524332D01*
Y283333D01*
X521666Y280667D01*
Y280001D01*
X513668Y298001D02*
Y301999D01*
X515668D01*
X516334Y301333D01*
Y300000D01*
X515668Y299334D01*
X513668D01*
X515001D02*
X516334Y298001D01*
X520333Y301999D02*
X519000Y301333D01*
X517667Y300000D01*
Y298667D01*
X518334Y298001D01*
X519666D01*
X520333Y298667D01*
Y299334D01*
X519666Y300000D01*
X517667D01*
X524332Y301999D02*
X522999Y301333D01*
X521666Y300000D01*
Y298667D01*
X522332Y298001D01*
X523665D01*
X524332Y298667D01*
Y299334D01*
X523665Y300000D01*
X521666D01*
X513668Y292001D02*
Y295999D01*
X515668D01*
X516334Y295333D01*
Y294000D01*
X515668Y293334D01*
X513668D01*
X515001D02*
X516334Y292001D01*
X520333Y295999D02*
X519000Y295333D01*
X517667Y294000D01*
Y292667D01*
X518334Y292001D01*
X519666D01*
X520333Y292667D01*
Y293334D01*
X519666Y294000D01*
X517667D01*
X524332Y295999D02*
X521666D01*
Y294000D01*
X522999Y294666D01*
X523665D01*
X524332Y294000D01*
Y292667D01*
X523665Y292001D01*
X522332D01*
X521666Y292667D01*
X513668Y286001D02*
Y289999D01*
X515668D01*
X516334Y289333D01*
Y288000D01*
X515668Y287334D01*
X513668D01*
X515001D02*
X516334Y286001D01*
X520333Y289999D02*
X519000Y289333D01*
X517667Y288000D01*
Y286667D01*
X518334Y286001D01*
X519666D01*
X520333Y286667D01*
Y287334D01*
X519666Y288000D01*
X517667D01*
X523665Y286001D02*
Y289999D01*
X521666Y288000D01*
X524332D01*
X419668Y244001D02*
Y247999D01*
X421668D01*
X422334Y247333D01*
Y246000D01*
X421668Y245334D01*
X419668D01*
X421001D02*
X422334Y244001D01*
X426333Y247999D02*
X425000Y247333D01*
X423667Y246000D01*
Y244667D01*
X424334Y244001D01*
X425666D01*
X426333Y244667D01*
Y245334D01*
X425666Y246000D01*
X423667D01*
X427666Y247333D02*
X428332Y247999D01*
X429665D01*
X430332Y247333D01*
Y246666D01*
X429665Y246000D01*
X428999D01*
X429665D01*
X430332Y245334D01*
Y244667D01*
X429665Y244001D01*
X428332D01*
X427666Y244667D01*
X419668Y250001D02*
Y253999D01*
X421668D01*
X422334Y253333D01*
Y252000D01*
X421668Y251334D01*
X419668D01*
X421001D02*
X422334Y250001D01*
X426333Y253999D02*
X425000Y253333D01*
X423667Y252000D01*
Y250667D01*
X424334Y250001D01*
X425666D01*
X426333Y250667D01*
Y251334D01*
X425666Y252000D01*
X423667D01*
X430332Y250001D02*
X427666D01*
X430332Y252666D01*
Y253333D01*
X429665Y253999D01*
X428332D01*
X427666Y253333D01*
X420335Y256001D02*
Y259999D01*
X422334D01*
X423001Y259333D01*
Y258000D01*
X422334Y257334D01*
X420335D01*
X421668D02*
X423001Y256001D01*
X426999Y259999D02*
X425666Y259333D01*
X424334Y258000D01*
Y256667D01*
X425000Y256001D01*
X426333D01*
X426999Y256667D01*
Y257334D01*
X426333Y258000D01*
X424334D01*
X428332Y256001D02*
X429665D01*
X428999D01*
Y259999D01*
X428332Y259333D01*
X419668Y262001D02*
Y265999D01*
X421668D01*
X422334Y265333D01*
Y264000D01*
X421668Y263334D01*
X419668D01*
X421001D02*
X422334Y262001D01*
X426333Y265999D02*
X425000Y265333D01*
X423667Y264000D01*
Y262667D01*
X424334Y262001D01*
X425666D01*
X426333Y262667D01*
Y263334D01*
X425666Y264000D01*
X423667D01*
X427666Y265333D02*
X428332Y265999D01*
X429665D01*
X430332Y265333D01*
Y262667D01*
X429665Y262001D01*
X428332D01*
X427666Y262667D01*
Y265333D01*
X512668Y262001D02*
Y265999D01*
X514668D01*
X515334Y265333D01*
Y264000D01*
X514668Y263334D01*
X512668D01*
X514001D02*
X515334Y262001D01*
X519333Y265999D02*
X516667D01*
Y264000D01*
X518000Y264666D01*
X518666D01*
X519333Y264000D01*
Y262667D01*
X518666Y262001D01*
X517334D01*
X516667Y262667D01*
X520666D02*
X521332Y262001D01*
X522665D01*
X523332Y262667D01*
Y265333D01*
X522665Y265999D01*
X521332D01*
X520666Y265333D01*
Y264666D01*
X521332Y264000D01*
X523332D01*
X419668Y268001D02*
Y271999D01*
X421668D01*
X422334Y271333D01*
Y270000D01*
X421668Y269334D01*
X419668D01*
X421001D02*
X422334Y268001D01*
X426333Y271999D02*
X423667D01*
Y270000D01*
X425000Y270666D01*
X425666D01*
X426333Y270000D01*
Y268667D01*
X425666Y268001D01*
X424334D01*
X423667Y268667D01*
X427666Y271333D02*
X428332Y271999D01*
X429665D01*
X430332Y271333D01*
Y270666D01*
X429665Y270000D01*
X430332Y269334D01*
Y268667D01*
X429665Y268001D01*
X428332D01*
X427666Y268667D01*
Y269334D01*
X428332Y270000D01*
X427666Y270666D01*
Y271333D01*
X428332Y270000D02*
X429665D01*
X512668Y268001D02*
Y271999D01*
X514668D01*
X515334Y271333D01*
Y270000D01*
X514668Y269334D01*
X512668D01*
X514001D02*
X515334Y268001D01*
X519333Y271999D02*
X516667D01*
Y270000D01*
X518000Y270666D01*
X518666D01*
X519333Y270000D01*
Y268667D01*
X518666Y268001D01*
X517334D01*
X516667Y268667D01*
X520666Y271999D02*
X523332D01*
Y271333D01*
X520666Y268667D01*
Y268001D01*
X419668Y274001D02*
Y277999D01*
X421668D01*
X422334Y277333D01*
Y276000D01*
X421668Y275334D01*
X419668D01*
X421001D02*
X422334Y274001D01*
X426333Y277999D02*
X423667D01*
Y276000D01*
X425000Y276666D01*
X425666D01*
X426333Y276000D01*
Y274667D01*
X425666Y274001D01*
X424334D01*
X423667Y274667D01*
X430332Y277999D02*
X428999Y277333D01*
X427666Y276000D01*
Y274667D01*
X428332Y274001D01*
X429665D01*
X430332Y274667D01*
Y275334D01*
X429665Y276000D01*
X427666D01*
X419668Y280001D02*
Y283999D01*
X421668D01*
X422334Y283333D01*
Y282000D01*
X421668Y281334D01*
X419668D01*
X421001D02*
X422334Y280001D01*
X426333Y283999D02*
X423667D01*
Y282000D01*
X425000Y282666D01*
X425666D01*
X426333Y282000D01*
Y280667D01*
X425666Y280001D01*
X424334D01*
X423667Y280667D01*
X430332Y283999D02*
X427666D01*
Y282000D01*
X428999Y282666D01*
X429665D01*
X430332Y282000D01*
Y280667D01*
X429665Y280001D01*
X428332D01*
X427666Y280667D01*
X487668Y328001D02*
Y331999D01*
X489668D01*
X490334Y331333D01*
Y330000D01*
X489668Y329334D01*
X487668D01*
X489001D02*
X490334Y328001D01*
X494333Y331999D02*
X491667D01*
Y330000D01*
X493000Y330666D01*
X493666D01*
X494333Y330000D01*
Y328667D01*
X493666Y328001D01*
X492334D01*
X491667Y328667D01*
X497665Y328001D02*
Y331999D01*
X495666Y330000D01*
X498332D01*
X487668Y334001D02*
Y337999D01*
X489668D01*
X490334Y337333D01*
Y336000D01*
X489668Y335334D01*
X487668D01*
X489001D02*
X490334Y334001D01*
X494333Y337999D02*
X491667D01*
Y336000D01*
X493000Y336666D01*
X493666D01*
X494333Y336000D01*
Y334667D01*
X493666Y334001D01*
X492334D01*
X491667Y334667D01*
X495666Y337333D02*
X496332Y337999D01*
X497665D01*
X498332Y337333D01*
Y336666D01*
X497665Y336000D01*
X496999D01*
X497665D01*
X498332Y335334D01*
Y334667D01*
X497665Y334001D01*
X496332D01*
X495666Y334667D01*
X419668Y286001D02*
Y289999D01*
X421668D01*
X422334Y289333D01*
Y288000D01*
X421668Y287334D01*
X419668D01*
X421001D02*
X422334Y286001D01*
X426333Y289999D02*
X423667D01*
Y288000D01*
X425000Y288666D01*
X425666D01*
X426333Y288000D01*
Y286667D01*
X425666Y286001D01*
X424334D01*
X423667Y286667D01*
X430332Y286001D02*
X427666D01*
X430332Y288666D01*
Y289333D01*
X429665Y289999D01*
X428332D01*
X427666Y289333D01*
X543335Y267501D02*
Y271499D01*
X545334D01*
X546001Y270833D01*
Y269500D01*
X545334Y268834D01*
X543335D01*
X544668D02*
X546001Y267501D01*
X549999Y271499D02*
X547334D01*
Y269500D01*
X548666Y270166D01*
X549333D01*
X549999Y269500D01*
Y268167D01*
X549333Y267501D01*
X548000D01*
X547334Y268167D01*
X551332Y267501D02*
X552665D01*
X551999D01*
Y271499D01*
X551332Y270833D01*
X419668Y298001D02*
Y301999D01*
X421668D01*
X422334Y301333D01*
Y300000D01*
X421668Y299334D01*
X419668D01*
X421001D02*
X422334Y298001D01*
X426333Y301999D02*
X423667D01*
Y300000D01*
X425000Y300666D01*
X425666D01*
X426333Y300000D01*
Y298667D01*
X425666Y298001D01*
X424334D01*
X423667Y298667D01*
X427666Y301333D02*
X428332Y301999D01*
X429665D01*
X430332Y301333D01*
Y298667D01*
X429665Y298001D01*
X428332D01*
X427666Y298667D01*
Y301333D01*
X419668Y292001D02*
Y295999D01*
X421668D01*
X422334Y295333D01*
Y294000D01*
X421668Y293334D01*
X419668D01*
X421001D02*
X422334Y292001D01*
X425666D02*
Y295999D01*
X423667Y294000D01*
X426333D01*
X427666Y292667D02*
X428332Y292001D01*
X429665D01*
X430332Y292667D01*
Y295333D01*
X429665Y295999D01*
X428332D01*
X427666Y295333D01*
Y294666D01*
X428332Y294000D01*
X430332D01*
X419668Y304001D02*
Y307999D01*
X421668D01*
X422334Y307333D01*
Y306000D01*
X421668Y305334D01*
X419668D01*
X421001D02*
X422334Y304001D01*
X425666D02*
Y307999D01*
X423667Y306000D01*
X426333D01*
X427666Y307333D02*
X428332Y307999D01*
X429665D01*
X430332Y307333D01*
Y306666D01*
X429665Y306000D01*
X430332Y305334D01*
Y304667D01*
X429665Y304001D01*
X428332D01*
X427666Y304667D01*
Y305334D01*
X428332Y306000D01*
X427666Y306666D01*
Y307333D01*
X428332Y306000D02*
X429665D01*
X419668Y310001D02*
Y313999D01*
X421668D01*
X422334Y313333D01*
Y312000D01*
X421668Y311334D01*
X419668D01*
X421001D02*
X422334Y310001D01*
X425666D02*
Y313999D01*
X423667Y312000D01*
X426333D01*
X427666Y313999D02*
X430332D01*
Y313333D01*
X427666Y310667D01*
Y310001D01*
X512668Y274001D02*
Y277999D01*
X514668D01*
X515334Y277333D01*
Y276000D01*
X514668Y275334D01*
X512668D01*
X514001D02*
X515334Y274001D01*
X518666D02*
Y277999D01*
X516667Y276000D01*
X519333D01*
X523332Y277999D02*
X521999Y277333D01*
X520666Y276000D01*
Y274667D01*
X521332Y274001D01*
X522665D01*
X523332Y274667D01*
Y275334D01*
X522665Y276000D01*
X520666D01*
X458779Y321304D02*
X456486Y324580D01*
X458124Y325727D01*
X459052Y325563D01*
X459816Y324471D01*
X459653Y323543D01*
X458015Y322396D01*
X459107Y323161D02*
X460963Y322833D01*
X463693Y324745D02*
X461399Y328020D01*
X460908Y325236D01*
X463092Y326764D01*
X465221Y330696D02*
X463037Y329167D01*
X464184Y327529D01*
X464893Y328839D01*
X465439Y329222D01*
X466367Y329058D01*
X467132Y327966D01*
X466968Y327038D01*
X465876Y326273D01*
X464948Y326437D01*
X428779Y322304D02*
X426486Y325580D01*
X428124Y326727D01*
X429052Y326563D01*
X429816Y325471D01*
X429653Y324543D01*
X428015Y323396D01*
X429107Y324161D02*
X430963Y323833D01*
X433693Y325745D02*
X431399Y329020D01*
X430908Y326236D01*
X433092Y327765D01*
X436968Y328038D02*
X434675Y331314D01*
X434184Y328529D01*
X436367Y330058D01*
X209999Y105668D02*
X206001D01*
Y107668D01*
X206667Y108334D01*
X208000D01*
X208666Y107668D01*
Y105668D01*
Y107001D02*
X209999Y108334D01*
Y111667D02*
X206001D01*
X208000Y109667D01*
Y112333D01*
X206667Y113666D02*
X206001Y114332D01*
Y115665D01*
X206667Y116332D01*
X207334D01*
X208000Y115665D01*
Y114999D01*
Y115665D01*
X208666Y116332D01*
X209333D01*
X209999Y115665D01*
Y114332D01*
X209333Y113666D01*
X215999Y105668D02*
X212001D01*
Y107668D01*
X212667Y108334D01*
X214000D01*
X214666Y107668D01*
Y105668D01*
Y107001D02*
X215999Y108334D01*
Y111667D02*
X212001D01*
X214000Y109667D01*
Y112333D01*
X215999Y116332D02*
Y113666D01*
X213334Y116332D01*
X212667D01*
X212001Y115665D01*
Y114332D01*
X212667Y113666D01*
X221999Y106335D02*
X218001D01*
Y108334D01*
X218667Y109001D01*
X220000D01*
X220666Y108334D01*
Y106335D01*
Y107668D02*
X221999Y109001D01*
Y112333D02*
X218001D01*
X220000Y110334D01*
Y112999D01*
X221999Y114332D02*
Y115665D01*
Y114999D01*
X218001D01*
X218667Y114332D01*
X203999Y105668D02*
X200001D01*
Y107668D01*
X200667Y108334D01*
X202000D01*
X202666Y107668D01*
Y105668D01*
Y107001D02*
X203999Y108334D01*
Y111667D02*
X200001D01*
X202000Y109667D01*
Y112333D01*
X200667Y113666D02*
X200001Y114332D01*
Y115665D01*
X200667Y116332D01*
X203333D01*
X203999Y115665D01*
Y114332D01*
X203333Y113666D01*
X200667D01*
X227999Y105668D02*
X224001D01*
Y107668D01*
X224667Y108334D01*
X226000D01*
X226666Y107668D01*
Y105668D01*
Y107001D02*
X227999Y108334D01*
X224667Y109667D02*
X224001Y110334D01*
Y111667D01*
X224667Y112333D01*
X225334D01*
X226000Y111667D01*
Y111000D01*
Y111667D01*
X226666Y112333D01*
X227333D01*
X227999Y111667D01*
Y110334D01*
X227333Y109667D01*
Y113666D02*
X227999Y114332D01*
Y115665D01*
X227333Y116332D01*
X224667D01*
X224001Y115665D01*
Y114332D01*
X224667Y113666D01*
X225334D01*
X226000Y114332D01*
Y116332D01*
X157668Y142001D02*
Y145999D01*
X159668D01*
X160334Y145333D01*
Y144000D01*
X159668Y143333D01*
X157668D01*
X159001D02*
X160334Y142001D01*
X161667Y145333D02*
X162334Y145999D01*
X163666D01*
X164333Y145333D01*
Y144667D01*
X163666Y144000D01*
X163000D01*
X163666D01*
X164333Y143333D01*
Y142667D01*
X163666Y142001D01*
X162334D01*
X161667Y142667D01*
X165666Y145333D02*
X166332Y145999D01*
X167665D01*
X168332Y145333D01*
Y144667D01*
X167665Y144000D01*
X168332Y143333D01*
Y142667D01*
X167665Y142001D01*
X166332D01*
X165666Y142667D01*
Y143333D01*
X166332Y144000D01*
X165666Y144667D01*
Y145333D01*
X166332Y144000D02*
X167665D01*
X233999Y105668D02*
X230001D01*
Y107668D01*
X230667Y108334D01*
X232000D01*
X232666Y107668D01*
Y105668D01*
Y107001D02*
X233999Y108334D01*
X230667Y109667D02*
X230001Y110334D01*
Y111667D01*
X230667Y112333D01*
X231334D01*
X232000Y111667D01*
Y111000D01*
Y111667D01*
X232666Y112333D01*
X233333D01*
X233999Y111667D01*
Y110334D01*
X233333Y109667D01*
X230001Y113666D02*
Y116332D01*
X230667D01*
X233333Y113666D01*
X233999D01*
X157668Y148001D02*
Y151999D01*
X159668D01*
X160334Y151333D01*
Y150000D01*
X159668Y149334D01*
X157668D01*
X159001D02*
X160334Y148001D01*
X161667Y151333D02*
X162334Y151999D01*
X163666D01*
X164333Y151333D01*
Y150666D01*
X163666Y150000D01*
X163000D01*
X163666D01*
X164333Y149334D01*
Y148667D01*
X163666Y148001D01*
X162334D01*
X161667Y148667D01*
X168332Y151999D02*
X166999Y151333D01*
X165666Y150000D01*
Y148667D01*
X166332Y148001D01*
X167665D01*
X168332Y148667D01*
Y149334D01*
X167665Y150000D01*
X165666D01*
X239999Y105668D02*
X236001D01*
Y107668D01*
X236667Y108334D01*
X238000D01*
X238666Y107668D01*
Y105668D01*
Y107001D02*
X239999Y108334D01*
X236667Y109667D02*
X236001Y110334D01*
Y111667D01*
X236667Y112333D01*
X237333D01*
X238000Y111667D01*
Y111000D01*
Y111667D01*
X238666Y112333D01*
X239333D01*
X239999Y111667D01*
Y110334D01*
X239333Y109667D01*
X236001Y116332D02*
Y113666D01*
X238000D01*
X237333Y114999D01*
Y115665D01*
X238000Y116332D01*
X239333D01*
X239999Y115665D01*
Y114332D01*
X239333Y113666D01*
X157668Y154001D02*
Y157999D01*
X159668D01*
X160334Y157333D01*
Y156000D01*
X159668Y155333D01*
X157668D01*
X159001D02*
X160334Y154001D01*
X161667Y157333D02*
X162334Y157999D01*
X163666D01*
X164333Y157333D01*
Y156667D01*
X163666Y156000D01*
X163000D01*
X163666D01*
X164333Y155333D01*
Y154667D01*
X163666Y154001D01*
X162334D01*
X161667Y154667D01*
X167665Y154001D02*
Y157999D01*
X165666Y156000D01*
X168332D01*
X266668Y149001D02*
Y152999D01*
X268668D01*
X269334Y152333D01*
Y151000D01*
X268668Y150333D01*
X266668D01*
X268001D02*
X269334Y149001D01*
X270667Y152333D02*
X271334Y152999D01*
X272666D01*
X273333Y152333D01*
Y151666D01*
X272666Y151000D01*
X272000D01*
X272666D01*
X273333Y150333D01*
Y149667D01*
X272666Y149001D01*
X271334D01*
X270667Y149667D01*
X274666Y152333D02*
X275332Y152999D01*
X276665D01*
X277332Y152333D01*
Y151666D01*
X276665Y151000D01*
X275999D01*
X276665D01*
X277332Y150333D01*
Y149667D01*
X276665Y149001D01*
X275332D01*
X274666Y149667D01*
X266668Y155001D02*
Y158999D01*
X268668D01*
X269334Y158333D01*
Y157000D01*
X268668Y156333D01*
X266668D01*
X268001D02*
X269334Y155001D01*
X270667Y158333D02*
X271334Y158999D01*
X272666D01*
X273333Y158333D01*
Y157667D01*
X272666Y157000D01*
X272000D01*
X272666D01*
X273333Y156333D01*
Y155667D01*
X272666Y155001D01*
X271334D01*
X270667Y155667D01*
X277332Y155001D02*
X274666D01*
X277332Y157667D01*
Y158333D01*
X276665Y158999D01*
X275332D01*
X274666Y158333D01*
X158335Y160001D02*
Y163999D01*
X160334D01*
X161001Y163333D01*
Y162000D01*
X160334Y161334D01*
X158335D01*
X159668D02*
X161001Y160001D01*
X162334Y163333D02*
X163000Y163999D01*
X164333D01*
X164999Y163333D01*
Y162666D01*
X164333Y162000D01*
X163666D01*
X164333D01*
X164999Y161334D01*
Y160667D01*
X164333Y160001D01*
X163000D01*
X162334Y160667D01*
X166332Y160001D02*
X167665D01*
X166999D01*
Y163999D01*
X166332Y163333D01*
X266668Y161001D02*
Y164999D01*
X268668D01*
X269334Y164333D01*
Y163000D01*
X268668Y162334D01*
X266668D01*
X268001D02*
X269334Y161001D01*
X270667Y164333D02*
X271334Y164999D01*
X272666D01*
X273333Y164333D01*
Y163666D01*
X272666Y163000D01*
X272000D01*
X272666D01*
X273333Y162334D01*
Y161667D01*
X272666Y161001D01*
X271334D01*
X270667Y161667D01*
X274666Y164333D02*
X275332Y164999D01*
X276665D01*
X277332Y164333D01*
Y161667D01*
X276665Y161001D01*
X275332D01*
X274666Y161667D01*
Y164333D01*
X157668Y166001D02*
Y169999D01*
X159668D01*
X160334Y169333D01*
Y168000D01*
X159668Y167333D01*
X157668D01*
X159001D02*
X160334Y166001D01*
X164333D02*
X161667D01*
X164333Y168667D01*
Y169333D01*
X163666Y169999D01*
X162334D01*
X161667Y169333D01*
X165666Y166667D02*
X166332Y166001D01*
X167665D01*
X168332Y166667D01*
Y169333D01*
X167665Y169999D01*
X166332D01*
X165666Y169333D01*
Y168667D01*
X166332Y168000D01*
X168332D01*
X266668Y167001D02*
Y170999D01*
X268668D01*
X269334Y170333D01*
Y169000D01*
X268668Y168333D01*
X266668D01*
X268001D02*
X269334Y167001D01*
X273333D02*
X270667D01*
X273333Y169667D01*
Y170333D01*
X272666Y170999D01*
X271334D01*
X270667Y170333D01*
X274666D02*
X275332Y170999D01*
X276665D01*
X277332Y170333D01*
Y169667D01*
X276665Y169000D01*
X277332Y168333D01*
Y167667D01*
X276665Y167001D01*
X275332D01*
X274666Y167667D01*
Y168333D01*
X275332Y169000D01*
X274666Y169667D01*
Y170333D01*
X275332Y169000D02*
X276665D01*
X157668Y172001D02*
Y175999D01*
X159668D01*
X160334Y175333D01*
Y174000D01*
X159668Y173334D01*
X157668D01*
X159001D02*
X160334Y172001D01*
X164333D02*
X161667D01*
X164333Y174667D01*
Y175333D01*
X163666Y175999D01*
X162334D01*
X161667Y175333D01*
X165666Y175999D02*
X168332D01*
Y175333D01*
X165666Y172667D01*
Y172001D01*
X266668Y173001D02*
Y176999D01*
X268668D01*
X269334Y176333D01*
Y175000D01*
X268668Y174334D01*
X266668D01*
X268001D02*
X269334Y173001D01*
X273333D02*
X270667D01*
X273333Y175666D01*
Y176333D01*
X272666Y176999D01*
X271334D01*
X270667Y176333D01*
X277332Y176999D02*
X275999Y176333D01*
X274666Y175000D01*
Y173667D01*
X275332Y173001D01*
X276665D01*
X277332Y173667D01*
Y174334D01*
X276665Y175000D01*
X274666D01*
X158168Y178001D02*
Y181999D01*
X160168D01*
X160834Y181333D01*
Y180000D01*
X160168Y179333D01*
X158168D01*
X159501D02*
X160834Y178001D01*
X164833D02*
X162167D01*
X164833Y180666D01*
Y181333D01*
X164166Y181999D01*
X162833D01*
X162167Y181333D01*
X168832Y181999D02*
X166166D01*
Y180000D01*
X167499Y180666D01*
X168165D01*
X168832Y180000D01*
Y178667D01*
X168165Y178001D01*
X166832D01*
X166166Y178667D01*
X266818Y179001D02*
Y182999D01*
X268817D01*
X269484Y182333D01*
Y181000D01*
X268817Y180333D01*
X266818D01*
X268151D02*
X269484Y179001D01*
X273482D02*
X270817D01*
X273482Y181667D01*
Y182333D01*
X272816Y182999D01*
X271483D01*
X270817Y182333D01*
X276815Y179001D02*
Y182999D01*
X274815Y181000D01*
X277481D01*
X157668Y184001D02*
Y187999D01*
X159668D01*
X160334Y187333D01*
Y186000D01*
X159668Y185334D01*
X157668D01*
X159001D02*
X160334Y184001D01*
X164333D02*
X161667D01*
X164333Y186667D01*
Y187333D01*
X163666Y187999D01*
X162334D01*
X161667Y187333D01*
X165666D02*
X166332Y187999D01*
X167665D01*
X168332Y187333D01*
Y186667D01*
X167665Y186000D01*
X166999D01*
X167665D01*
X168332Y185334D01*
Y184667D01*
X167665Y184001D01*
X166332D01*
X165666Y184667D01*
X242999Y209668D02*
X239001D01*
Y211668D01*
X239667Y212334D01*
X241000D01*
X241666Y211668D01*
Y209668D01*
Y211001D02*
X242999Y212334D01*
Y216333D02*
Y213667D01*
X240334Y216333D01*
X239667D01*
X239001Y215666D01*
Y214334D01*
X239667Y213667D01*
X242999Y220332D02*
Y217666D01*
X240334Y220332D01*
X239667D01*
X239001Y219665D01*
Y218332D01*
X239667Y217666D01*
X204999Y210335D02*
X201001D01*
Y212334D01*
X201667Y213001D01*
X203000D01*
X203666Y212334D01*
Y210335D01*
Y211668D02*
X204999Y213001D01*
Y216999D02*
Y214334D01*
X202333Y216999D01*
X201667D01*
X201001Y216333D01*
Y215000D01*
X201667Y214334D01*
X204999Y218332D02*
Y219665D01*
Y218999D01*
X201001D01*
X201667Y218332D01*
X236999Y209668D02*
X233001D01*
Y211668D01*
X233667Y212334D01*
X235000D01*
X235666Y211668D01*
Y209668D01*
Y211001D02*
X236999Y212334D01*
Y216333D02*
Y213667D01*
X234334Y216333D01*
X233667D01*
X233001Y215666D01*
Y214334D01*
X233667Y213667D01*
Y217666D02*
X233001Y218332D01*
Y219665D01*
X233667Y220332D01*
X236333D01*
X236999Y219665D01*
Y218332D01*
X236333Y217666D01*
X233667D01*
X210999Y210002D02*
X207001D01*
Y212001D01*
X207667Y212667D01*
X209000D01*
X209666Y212001D01*
Y210002D01*
Y211334D02*
X210999Y212667D01*
Y214000D02*
Y215333D01*
Y214667D01*
X207001D01*
X207667Y214000D01*
X210333Y217333D02*
X210999Y217999D01*
Y219332D01*
X210333Y219998D01*
X207667D01*
X207001Y219332D01*
Y217999D01*
X207667Y217333D01*
X208334D01*
X209000Y217999D01*
Y219998D01*
X230999Y210002D02*
X227001D01*
Y212001D01*
X227667Y212667D01*
X229000D01*
X229666Y212001D01*
Y210002D01*
Y211334D02*
X230999Y212667D01*
Y214000D02*
Y215333D01*
Y214667D01*
X227001D01*
X227667Y214000D01*
Y217333D02*
X227001Y217999D01*
Y219332D01*
X227667Y219998D01*
X228334D01*
X229000Y219332D01*
X229666Y219998D01*
X230333D01*
X230999Y219332D01*
Y217999D01*
X230333Y217333D01*
X229666D01*
X229000Y217999D01*
X228334Y217333D01*
X227667D01*
X229000Y217999D02*
Y219332D01*
X216999Y210002D02*
X213001D01*
Y212001D01*
X213667Y212667D01*
X215000D01*
X215666Y212001D01*
Y210002D01*
Y211334D02*
X216999Y212667D01*
Y214000D02*
Y215333D01*
Y214667D01*
X213001D01*
X213667Y214000D01*
X213001Y217333D02*
Y219998D01*
X213667D01*
X216333Y217333D01*
X216999D01*
X67002Y118001D02*
Y121999D01*
X69001D01*
X69667Y121333D01*
Y120000D01*
X69001Y119334D01*
X67002D01*
X68335D02*
X69667Y118001D01*
X71000D02*
X72333D01*
X71667D01*
Y121999D01*
X71000Y121333D01*
X76998Y121999D02*
X75665Y121333D01*
X74333Y120000D01*
Y118667D01*
X74999Y118001D01*
X76332D01*
X76998Y118667D01*
Y119334D01*
X76332Y120000D01*
X74333D01*
X67002Y128001D02*
Y131999D01*
X69001D01*
X69667Y131333D01*
Y130000D01*
X69001Y129333D01*
X67002D01*
X68335D02*
X69667Y128001D01*
X71000D02*
X72333D01*
X71667D01*
Y131999D01*
X71000Y131333D01*
X76998Y131999D02*
X74333D01*
Y130000D01*
X75665Y130666D01*
X76332D01*
X76998Y130000D01*
Y128667D01*
X76332Y128001D01*
X74999D01*
X74333Y128667D01*
X97002Y133001D02*
Y136999D01*
X99001D01*
X99667Y136333D01*
Y135000D01*
X99001Y134334D01*
X97002D01*
X98334D02*
X99667Y133001D01*
X101000D02*
X102333D01*
X101667D01*
Y136999D01*
X101000Y136333D01*
X106332Y133001D02*
Y136999D01*
X104333Y135000D01*
X106998D01*
X67002Y138001D02*
Y141999D01*
X69001D01*
X69667Y141333D01*
Y140000D01*
X69001Y139333D01*
X67002D01*
X68335D02*
X69667Y138001D01*
X71000D02*
X72333D01*
X71667D01*
Y141999D01*
X71000Y141333D01*
X74333D02*
X74999Y141999D01*
X76332D01*
X76998Y141333D01*
Y140666D01*
X76332Y140000D01*
X75665D01*
X76332D01*
X76998Y139333D01*
Y138667D01*
X76332Y138001D01*
X74999D01*
X74333Y138667D01*
X97002Y143001D02*
Y146999D01*
X99001D01*
X99667Y146333D01*
Y145000D01*
X99001Y144334D01*
X97002D01*
X98334D02*
X99667Y143001D01*
X101000D02*
X102333D01*
X101667D01*
Y146999D01*
X101000Y146333D01*
X106998Y143001D02*
X104333D01*
X106998Y145667D01*
Y146333D01*
X106332Y146999D01*
X104999D01*
X104333Y146333D01*
X67668Y148001D02*
Y151999D01*
X69667D01*
X70334Y151333D01*
Y150000D01*
X69667Y149334D01*
X67668D01*
X69001D02*
X70334Y148001D01*
X71667D02*
X73000D01*
X72333D01*
Y151999D01*
X71667Y151333D01*
X74999Y148001D02*
X76332D01*
X75665D01*
Y151999D01*
X74999Y151333D01*
X97002Y153001D02*
Y156999D01*
X99001D01*
X99667Y156333D01*
Y155000D01*
X99001Y154333D01*
X97002D01*
X98334D02*
X99667Y153001D01*
X101000D02*
X102333D01*
X101667D01*
Y156999D01*
X101000Y156333D01*
X104333D02*
X104999Y156999D01*
X106332D01*
X106998Y156333D01*
Y153667D01*
X106332Y153001D01*
X104999D01*
X104333Y153667D01*
Y156333D01*
X68668Y158001D02*
Y161999D01*
X70667D01*
X71334Y161333D01*
Y160000D01*
X70667Y159334D01*
X68668D01*
X70001D02*
X71334Y158001D01*
X72667Y158667D02*
X73333Y158001D01*
X74666D01*
X75332Y158667D01*
Y161333D01*
X74666Y161999D01*
X73333D01*
X72667Y161333D01*
Y160667D01*
X73333Y160000D01*
X75332D01*
X98668Y163001D02*
Y166999D01*
X100667D01*
X101334Y166333D01*
Y165000D01*
X100667Y164333D01*
X98668D01*
X100001D02*
X101334Y163001D01*
X102666Y166333D02*
X103333Y166999D01*
X104666D01*
X105332Y166333D01*
Y165666D01*
X104666Y165000D01*
X105332Y164333D01*
Y163667D01*
X104666Y163001D01*
X103333D01*
X102666Y163667D01*
Y164333D01*
X103333Y165000D01*
X102666Y165666D01*
Y166333D01*
X103333Y165000D02*
X104666D01*
X68668Y168001D02*
Y171999D01*
X70667D01*
X71334Y171333D01*
Y170000D01*
X70667Y169334D01*
X68668D01*
X70001D02*
X71334Y168001D01*
X72667Y171999D02*
X75332D01*
Y171333D01*
X72667Y168667D01*
Y168001D01*
X68668Y178001D02*
Y181999D01*
X70667D01*
X71334Y181333D01*
Y180000D01*
X70667Y179333D01*
X68668D01*
X70001D02*
X71334Y178001D01*
X75332Y181999D02*
X73999Y181333D01*
X72667Y180000D01*
Y178667D01*
X73333Y178001D01*
X74666D01*
X75332Y178667D01*
Y179333D01*
X74666Y180000D01*
X72667D01*
X363668Y199001D02*
Y202999D01*
X365667D01*
X366334Y202333D01*
Y201000D01*
X365667Y200333D01*
X363668D01*
X365001D02*
X366334Y199001D01*
X370332Y202999D02*
X367667D01*
Y201000D01*
X368999Y201666D01*
X369666D01*
X370332Y201000D01*
Y199667D01*
X369666Y199001D01*
X368333D01*
X367667Y199667D01*
X68668Y188001D02*
Y191999D01*
X70667D01*
X71334Y191333D01*
Y190000D01*
X70667Y189333D01*
X68668D01*
X70001D02*
X71334Y188001D01*
X74666D02*
Y191999D01*
X72667Y190000D01*
X75332D01*
X363668Y205001D02*
Y208999D01*
X365667D01*
X366334Y208333D01*
Y207000D01*
X365667Y206334D01*
X363668D01*
X365001D02*
X366334Y205001D01*
X367667Y208333D02*
X368333Y208999D01*
X369666D01*
X370332Y208333D01*
Y207666D01*
X369666Y207000D01*
X368999D01*
X369666D01*
X370332Y206334D01*
Y205667D01*
X369666Y205001D01*
X368333D01*
X367667Y205667D01*
X363668Y211001D02*
Y214999D01*
X365667D01*
X366334Y214333D01*
Y213000D01*
X365667Y212334D01*
X363668D01*
X365001D02*
X366334Y211001D01*
X370332D02*
X367667D01*
X370332Y213666D01*
Y214333D01*
X369666Y214999D01*
X368333D01*
X367667Y214333D01*
X364334Y217001D02*
Y220999D01*
X366334D01*
X367000Y220333D01*
Y219000D01*
X366334Y218334D01*
X364334D01*
X365667D02*
X367000Y217001D01*
X368333D02*
X369666D01*
X368999D01*
Y220999D01*
X368333Y220333D01*
X320001Y309836D02*
X323999D01*
Y312502D01*
X320001Y316501D02*
Y313835D01*
X323999D01*
Y316501D01*
X322000Y313835D02*
Y315168D01*
X320001Y317834D02*
X323999D01*
Y319833D01*
X323333Y320499D01*
X320667D01*
X320001Y319833D01*
Y317834D01*
X323999Y324498D02*
Y321832D01*
X321334Y324498D01*
X320667D01*
X320001Y323832D01*
Y322499D01*
X320667Y321832D01*
X323999Y325831D02*
Y327164D01*
Y326497D01*
X320001D01*
X320667Y325831D01*
X341001Y307319D02*
X344999D01*
Y309985D01*
X341001Y313984D02*
Y311318D01*
X344999D01*
Y313984D01*
X343000Y311318D02*
Y312651D01*
X341001Y315317D02*
X344999D01*
Y317316D01*
X344333Y317983D01*
X341667D01*
X341001Y317316D01*
Y315317D01*
X344999Y321981D02*
Y319315D01*
X342334Y321981D01*
X341667D01*
X341001Y321315D01*
Y319982D01*
X341667Y319315D01*
Y323314D02*
X341001Y323981D01*
Y325313D01*
X341667Y325980D01*
X344333D01*
X344999Y325313D01*
Y323981D01*
X344333Y323314D01*
X341667D01*
X218001Y308503D02*
X221999D01*
Y311169D01*
X218001Y315167D02*
Y312502D01*
X221999D01*
Y315167D01*
X220000Y312502D02*
Y313835D01*
X218001Y316500D02*
X221999D01*
Y318500D01*
X221333Y319166D01*
X218667D01*
X218001Y318500D01*
Y316500D01*
X221999Y320499D02*
Y321832D01*
Y321165D01*
X218001D01*
X218667Y320499D01*
X221333Y323831D02*
X221999Y324498D01*
Y325831D01*
X221333Y326497D01*
X218667D01*
X218001Y325831D01*
Y324498D01*
X218667Y323831D01*
X219334D01*
X220000Y324498D01*
Y326497D01*
X75501Y308503D02*
X79499D01*
Y311169D01*
X75501Y315167D02*
Y312502D01*
X79499D01*
Y315167D01*
X77500Y312502D02*
Y313835D01*
X75501Y316500D02*
X79499D01*
Y318500D01*
X78833Y319166D01*
X76167D01*
X75501Y318500D01*
Y316500D01*
X79499Y320499D02*
Y321832D01*
Y321165D01*
X75501D01*
X76167Y320499D01*
Y323831D02*
X75501Y324498D01*
Y325831D01*
X76167Y326497D01*
X76834D01*
X77500Y325831D01*
X78166Y326497D01*
X78833D01*
X79499Y325831D01*
Y324498D01*
X78833Y323831D01*
X78166D01*
X77500Y324498D01*
X76834Y323831D01*
X76167D01*
X77500Y324498D02*
Y325831D01*
X85501Y308503D02*
X89499D01*
Y311169D01*
X85501Y315167D02*
Y312502D01*
X89499D01*
Y315167D01*
X87500Y312502D02*
Y313835D01*
X85501Y316500D02*
X89499D01*
Y318500D01*
X88833Y319166D01*
X86167D01*
X85501Y318500D01*
Y316500D01*
X89499Y320499D02*
Y321832D01*
Y321165D01*
X85501D01*
X86167Y320499D01*
X85501Y323831D02*
Y326497D01*
X86167D01*
X88833Y323831D01*
X89499D01*
X95501Y308503D02*
X99499D01*
Y311169D01*
X95501Y315167D02*
Y312502D01*
X99499D01*
Y315167D01*
X97500Y312502D02*
Y313835D01*
X95501Y316500D02*
X99499D01*
Y318500D01*
X98833Y319166D01*
X96167D01*
X95501Y318500D01*
Y316500D01*
X99499Y320499D02*
Y321832D01*
Y321165D01*
X95501D01*
X96167Y320499D01*
X95501Y326497D02*
X96167Y325164D01*
X97500Y323831D01*
X98833D01*
X99499Y324498D01*
Y325831D01*
X98833Y326497D01*
X98166D01*
X97500Y325831D01*
Y323831D01*
X105501Y308503D02*
X109499D01*
Y311169D01*
X105501Y315167D02*
Y312502D01*
X109499D01*
Y315167D01*
X107500Y312502D02*
Y313835D01*
X105501Y316500D02*
X109499D01*
Y318500D01*
X108833Y319166D01*
X106167D01*
X105501Y318500D01*
Y316500D01*
X109499Y320499D02*
Y321832D01*
Y321165D01*
X105501D01*
X106167Y320499D01*
X105501Y326497D02*
Y323831D01*
X107500D01*
X106834Y325164D01*
Y325831D01*
X107500Y326497D01*
X108833D01*
X109499Y325831D01*
Y324498D01*
X108833Y323831D01*
X115501Y308503D02*
X119499D01*
Y311169D01*
X115501Y315167D02*
Y312502D01*
X119499D01*
Y315167D01*
X117500Y312502D02*
Y313835D01*
X115501Y316500D02*
X119499D01*
Y318500D01*
X118833Y319166D01*
X116167D01*
X115501Y318500D01*
Y316500D01*
X119499Y320499D02*
Y321832D01*
Y321165D01*
X115501D01*
X116167Y320499D01*
X119499Y325831D02*
X115501D01*
X117500Y323831D01*
Y326497D01*
X125501Y308503D02*
X129499D01*
Y311169D01*
X125501Y315167D02*
Y312502D01*
X129499D01*
Y315167D01*
X127500Y312502D02*
Y313835D01*
X125501Y316500D02*
X129499D01*
Y318500D01*
X128833Y319166D01*
X126167D01*
X125501Y318500D01*
Y316500D01*
X129499Y320499D02*
Y321832D01*
Y321165D01*
X125501D01*
X126167Y320499D01*
Y323831D02*
X125501Y324498D01*
Y325831D01*
X126167Y326497D01*
X126833D01*
X127500Y325831D01*
Y325164D01*
Y325831D01*
X128166Y326497D01*
X128833D01*
X129499Y325831D01*
Y324498D01*
X128833Y323831D01*
X135501Y308503D02*
X139499D01*
Y311169D01*
X135501Y315167D02*
Y312502D01*
X139499D01*
Y315167D01*
X137500Y312502D02*
Y313835D01*
X135501Y316500D02*
X139499D01*
Y318500D01*
X138833Y319166D01*
X136167D01*
X135501Y318500D01*
Y316500D01*
X139499Y320499D02*
Y321832D01*
Y321165D01*
X135501D01*
X136167Y320499D01*
X139499Y326497D02*
Y323831D01*
X136834Y326497D01*
X136167D01*
X135501Y325831D01*
Y324498D01*
X136167Y323831D01*
X145501Y309169D02*
X149499D01*
Y311835D01*
X145501Y315834D02*
Y313168D01*
X149499D01*
Y315834D01*
X147500Y313168D02*
Y314501D01*
X145501Y317167D02*
X149499D01*
Y319166D01*
X148833Y319833D01*
X146167D01*
X145501Y319166D01*
Y317167D01*
X149499Y321165D02*
Y322498D01*
Y321832D01*
X145501D01*
X146167Y321165D01*
X149499Y324498D02*
Y325831D01*
Y325164D01*
X145501D01*
X146167Y324498D01*
X202001Y308503D02*
X205999D01*
Y311169D01*
X202001Y315167D02*
Y312502D01*
X205999D01*
Y315167D01*
X204000Y312502D02*
Y313835D01*
X202001Y316500D02*
X205999D01*
Y318500D01*
X205333Y319166D01*
X202667D01*
X202001Y318500D01*
Y316500D01*
X205999Y320499D02*
Y321832D01*
Y321165D01*
X202001D01*
X202667Y320499D01*
Y323831D02*
X202001Y324498D01*
Y325831D01*
X202667Y326497D01*
X205333D01*
X205999Y325831D01*
Y324498D01*
X205333Y323831D01*
X202667D01*
X256001Y311169D02*
X259999D01*
Y313835D01*
X256001Y317834D02*
Y315168D01*
X259999D01*
Y317834D01*
X258000Y315168D02*
Y316501D01*
X256001Y319166D02*
X259999D01*
Y321166D01*
X259333Y321832D01*
X256667D01*
X256001Y321166D01*
Y319166D01*
X259333Y323165D02*
X259999Y323832D01*
Y325165D01*
X259333Y325831D01*
X256667D01*
X256001Y325165D01*
Y323832D01*
X256667Y323165D01*
X257334D01*
X258000Y323832D01*
Y325831D01*
X239501Y311169D02*
X243499D01*
Y313835D01*
X239501Y317834D02*
Y315168D01*
X243499D01*
Y317834D01*
X241500Y315168D02*
Y316501D01*
X239501Y319166D02*
X243499D01*
Y321166D01*
X242833Y321832D01*
X240167D01*
X239501Y321166D01*
Y319166D01*
X240167Y323165D02*
X239501Y323832D01*
Y325165D01*
X240167Y325831D01*
X240834D01*
X241500Y325165D01*
X242166Y325831D01*
X242833D01*
X243499Y325165D01*
Y323832D01*
X242833Y323165D01*
X242166D01*
X241500Y323832D01*
X240834Y323165D01*
X240167D01*
X241500Y323832D02*
Y325165D01*
X299501Y311169D02*
X303499D01*
Y313835D01*
X299501Y317834D02*
Y315168D01*
X303499D01*
Y317834D01*
X301500Y315168D02*
Y316501D01*
X299501Y319166D02*
X303499D01*
Y321166D01*
X302833Y321832D01*
X300167D01*
X299501Y321166D01*
Y319166D01*
Y323165D02*
Y325831D01*
X300167D01*
X302833Y323165D01*
X303499D01*
X279001Y311169D02*
X282999D01*
Y313835D01*
X279001Y317834D02*
Y315168D01*
X282999D01*
Y317834D01*
X281000Y315168D02*
Y316501D01*
X279001Y319166D02*
X282999D01*
Y321166D01*
X282333Y321832D01*
X279667D01*
X279001Y321166D01*
Y319166D01*
Y325831D02*
X279667Y324498D01*
X281000Y323165D01*
X282333D01*
X282999Y323832D01*
Y325165D01*
X282333Y325831D01*
X281666D01*
X281000Y325165D01*
Y323165D01*
X189501Y312169D02*
X193499D01*
Y314835D01*
X189501Y318834D02*
Y316168D01*
X193499D01*
Y318834D01*
X191500Y316168D02*
Y317501D01*
X189501Y320166D02*
X193499D01*
Y322166D01*
X192833Y322832D01*
X190167D01*
X189501Y322166D01*
Y320166D01*
Y326831D02*
Y324165D01*
X191500D01*
X190833Y325498D01*
Y326165D01*
X191500Y326831D01*
X192833D01*
X193499Y326165D01*
Y324832D01*
X192833Y324165D01*
X175501Y312169D02*
X179499D01*
Y314835D01*
X175501Y318834D02*
Y316168D01*
X179499D01*
Y318834D01*
X177500Y316168D02*
Y317501D01*
X175501Y320166D02*
X179499D01*
Y322166D01*
X178833Y322832D01*
X176167D01*
X175501Y322166D01*
Y320166D01*
X179499Y326165D02*
X175501D01*
X177500Y324165D01*
Y326831D01*
X161001Y313019D02*
X164999D01*
Y315685D01*
X161001Y319684D02*
Y317018D01*
X164999D01*
Y319684D01*
X163000Y317018D02*
Y318351D01*
X161001Y321017D02*
X164999D01*
Y323016D01*
X164333Y323683D01*
X161667D01*
X161001Y323016D01*
Y321017D01*
X161667Y325016D02*
X161001Y325682D01*
Y327015D01*
X161667Y327681D01*
X162334D01*
X163000Y327015D01*
Y326348D01*
Y327015D01*
X163666Y327681D01*
X164333D01*
X164999Y327015D01*
Y325682D01*
X164333Y325016D01*
X461848Y319433D02*
X464142Y316157D01*
X466325Y317686D01*
X467307Y323255D02*
X465124Y321726D01*
X467417Y318451D01*
X469601Y319980D01*
X466270Y320089D02*
X467362Y320853D01*
X468399Y324020D02*
X470693Y320744D01*
X472331Y321891D01*
X472494Y322819D01*
X470965Y325003D01*
X470037Y325167D01*
X468399Y324020D01*
X476152Y324567D02*
X473968Y323038D01*
X474623Y326751D01*
X474241Y327297D01*
X473313Y327460D01*
X472221Y326696D01*
X472057Y325768D01*
X433394Y320815D02*
X435687Y317540D01*
X437871Y319069D01*
X438853Y324638D02*
X436669Y323109D01*
X438963Y319833D01*
X441147Y321362D01*
X437816Y321471D02*
X438908Y322235D01*
X439945Y325402D02*
X442239Y322127D01*
X443876Y323273D01*
X444040Y324202D01*
X442511Y326385D01*
X441583Y326549D01*
X439945Y325402D01*
X445514Y324420D02*
X446606Y325185D01*
X446060Y324803D01*
X443766Y328078D01*
X443603Y327150D01*
X522000Y364999D02*
X520667D01*
X521334D01*
Y361667D01*
X520667Y361001D01*
X520001D01*
X519334Y361667D01*
X523333Y361001D02*
X524666D01*
X523999D01*
Y364999D01*
X523333Y364333D01*
X197668Y189999D02*
X199001D01*
X198335D01*
Y186001D01*
X197668D01*
X199001D01*
X203666Y189333D02*
X203000Y189999D01*
X201667D01*
X201000Y189333D01*
Y186667D01*
X201667Y186001D01*
X203000D01*
X203666Y186667D01*
X204999Y186001D02*
X206332D01*
X205665D01*
Y189999D01*
X204999Y189333D01*
X9116Y218448D02*
Y214450D01*
Y216449D01*
X11782D01*
Y218448D01*
Y214450D01*
X15781D02*
X13115D01*
X15781Y217115D01*
Y217782D01*
X15114Y218448D01*
X13781D01*
X13115Y217782D01*
X391334Y229999D02*
Y226001D01*
Y228000D01*
X394000D01*
Y229999D01*
Y226001D01*
X395333D02*
X396666D01*
X395999D01*
Y229999D01*
X395333Y229333D01*
D13*
X176800Y177500D02*
X180900D01*
Y182500D01*
X176700D02*
X180900D01*
X170100D02*
X174200D01*
X170100Y177500D02*
Y182500D01*
Y177500D02*
X174200D01*
X380300Y216500D02*
X384400D01*
Y221500D01*
X380200D02*
X384400D01*
X373600D02*
X377700D01*
X373600Y216500D02*
Y221500D01*
Y216500D02*
X377700D01*
X373600Y209500D02*
X377700D01*
X373600Y204500D02*
Y209500D01*
Y204500D02*
X377800D01*
X380300D02*
X384400D01*
Y209500D01*
X380300D02*
X384400D01*
X380300Y210500D02*
X384400D01*
Y215500D01*
X380200D02*
X384400D01*
X373600D02*
X377700D01*
X373600Y210500D02*
Y215500D01*
Y210500D02*
X377700D01*
X380300Y198500D02*
X384400D01*
Y203500D01*
X380200D02*
X384400D01*
X373600D02*
X377700D01*
X373600Y198500D02*
Y203500D01*
Y198500D02*
X377700D01*
X54600Y192500D02*
X58700D01*
X54600Y187500D02*
Y192500D01*
Y187500D02*
X58800D01*
X61300D02*
X65400D01*
Y192500D01*
X61300D02*
X65400D01*
X54600Y182500D02*
X58700D01*
X54600Y177500D02*
Y182500D01*
Y177500D02*
X58800D01*
X61300D02*
X65400D01*
Y182500D01*
X61300D02*
X65400D01*
X91300Y162500D02*
X95400D01*
Y167500D01*
X91200D02*
X95400D01*
X84600D02*
X88700D01*
X84600Y162500D02*
Y167500D01*
Y162500D02*
X88700D01*
X54600Y172500D02*
X58700D01*
X54600Y167500D02*
Y172500D01*
Y167500D02*
X58800D01*
X61300D02*
X65400D01*
Y172500D01*
X61300D02*
X65400D01*
X91300Y152500D02*
X95400D01*
Y157500D01*
X91200D02*
X95400D01*
X84600D02*
X88700D01*
X84600Y152500D02*
Y157500D01*
Y152500D02*
X88700D01*
X54600Y162500D02*
X58700D01*
X54600Y157500D02*
Y162500D01*
Y157500D02*
X58800D01*
X61300D02*
X65400D01*
Y162500D01*
X61300D02*
X65400D01*
X91300Y142500D02*
X95400D01*
Y147500D01*
X91200D02*
X95400D01*
X84600D02*
X88700D01*
X84600Y142500D02*
Y147500D01*
Y142500D02*
X88700D01*
X54600Y152500D02*
X58700D01*
X54600Y147500D02*
Y152500D01*
Y147500D02*
X58800D01*
X61300D02*
X65400D01*
Y152500D01*
X61300D02*
X65400D01*
X91300Y132500D02*
X95400D01*
Y137500D01*
X91200D02*
X95400D01*
X84600D02*
X88700D01*
X84600Y132500D02*
Y137500D01*
Y132500D02*
X88700D01*
X54600Y142500D02*
X58700D01*
X54600Y137500D02*
Y142500D01*
Y137500D02*
X58800D01*
X61300D02*
X65400D01*
Y142500D01*
X61300D02*
X65400D01*
X54600Y132500D02*
X58700D01*
X54600Y127500D02*
Y132500D01*
Y127500D02*
X58800D01*
X61300D02*
X65400D01*
Y132500D01*
X61300D02*
X65400D01*
X54600Y122500D02*
X58700D01*
X54600Y117500D02*
Y122500D01*
Y117500D02*
X58800D01*
X61300D02*
X65400D01*
Y122500D01*
X61300D02*
X65400D01*
X231500Y203300D02*
Y207400D01*
X226500D02*
X231500D01*
X226500Y203200D02*
Y207400D01*
Y196600D02*
Y200700D01*
Y196600D02*
X231500D01*
Y200700D01*
X212500Y196600D02*
Y200700D01*
Y196600D02*
X217500D01*
Y200800D01*
Y203300D02*
Y207400D01*
X212500D02*
X217500D01*
X212500Y203300D02*
Y207400D01*
X237500Y203300D02*
Y207400D01*
X232500D02*
X237500D01*
X232500Y203200D02*
Y207400D01*
Y196600D02*
Y200700D01*
Y196600D02*
X237500D01*
Y200700D01*
X206500Y196600D02*
Y200700D01*
Y196600D02*
X211500D01*
Y200800D01*
Y203300D02*
Y207400D01*
X206500D02*
X211500D01*
X206500Y203300D02*
Y207400D01*
X243500Y203300D02*
Y207400D01*
X238500D02*
X243500D01*
X238500Y203200D02*
Y207400D01*
Y196600D02*
Y200700D01*
Y196600D02*
X243500D01*
Y200700D01*
X200500Y196600D02*
Y200700D01*
Y196600D02*
X205500D01*
Y200800D01*
Y203300D02*
Y207400D01*
X200500D02*
X205500D01*
X200500Y203300D02*
Y207400D01*
X260300Y178500D02*
X264400D01*
Y183500D01*
X260200D02*
X264400D01*
X253600D02*
X257700D01*
X253600Y178500D02*
Y183500D01*
Y178500D02*
X257700D01*
X176800Y183500D02*
X180900D01*
Y188500D01*
X176700D02*
X180900D01*
X170100D02*
X174200D01*
X170100Y183500D02*
Y188500D01*
Y183500D02*
X174200D01*
X260300Y172500D02*
X264400D01*
Y177500D01*
X260200D02*
X264400D01*
X253600D02*
X257700D01*
X253600Y172500D02*
Y177500D01*
Y172500D02*
X257700D01*
X260300Y166500D02*
X264400D01*
Y171500D01*
X260200D02*
X264400D01*
X253600D02*
X257700D01*
X253600Y166500D02*
Y171500D01*
Y166500D02*
X257700D01*
X176800Y171500D02*
X180900D01*
Y176500D01*
X176700D02*
X180900D01*
X170100D02*
X174200D01*
X170100Y171500D02*
Y176500D01*
Y171500D02*
X174200D01*
X260300Y160500D02*
X264400D01*
Y165500D01*
X260200D02*
X264400D01*
X253600D02*
X257700D01*
X253600Y160500D02*
Y165500D01*
Y160500D02*
X257700D01*
X176800Y165500D02*
X180900D01*
Y170500D01*
X176700D02*
X180900D01*
X170100D02*
X174200D01*
X170100Y165500D02*
Y170500D01*
Y165500D02*
X174200D01*
X260300Y154500D02*
X264400D01*
Y159500D01*
X260200D02*
X264400D01*
X253600D02*
X257700D01*
X253600Y154500D02*
Y159500D01*
Y154500D02*
X257700D01*
X176800Y159500D02*
X180900D01*
Y164500D01*
X176700D02*
X180900D01*
X170100D02*
X174200D01*
X170100Y159500D02*
Y164500D01*
Y159500D02*
X174200D01*
X260300Y148500D02*
X264400D01*
Y153500D01*
X260200D02*
X264400D01*
X253600D02*
X257700D01*
X253600Y148500D02*
Y153500D01*
Y148500D02*
X257700D01*
X235500Y119600D02*
Y123700D01*
Y119600D02*
X240500D01*
Y123800D01*
Y126300D02*
Y130400D01*
X235500D02*
X240500D01*
X235500Y126300D02*
Y130400D01*
X176800Y153500D02*
X180900D01*
Y158500D01*
X176700D02*
X180900D01*
X170100D02*
X174200D01*
X170100Y153500D02*
Y158500D01*
Y153500D02*
X174200D01*
X229500Y119600D02*
Y123700D01*
Y119600D02*
X234500D01*
Y123800D01*
Y126300D02*
Y130400D01*
X229500D02*
X234500D01*
X229500Y126300D02*
Y130400D01*
X176800Y147500D02*
X180900D01*
Y152500D01*
X176700D02*
X180900D01*
X170100D02*
X174200D01*
X170100Y147500D02*
Y152500D01*
Y147500D02*
X174200D01*
X223500Y119600D02*
Y123700D01*
Y119600D02*
X228500D01*
Y123800D01*
Y126300D02*
Y130400D01*
X223500D02*
X228500D01*
X223500Y126300D02*
Y130400D01*
X176800Y141500D02*
X180900D01*
Y146500D01*
X176700D02*
X180900D01*
X170100D02*
X174200D01*
X170100Y141500D02*
Y146500D01*
Y141500D02*
X174200D01*
X217500Y119600D02*
Y123700D01*
Y119600D02*
X222500D01*
Y123800D01*
Y126300D02*
Y130400D01*
X217500D02*
X222500D01*
X217500Y126300D02*
Y130400D01*
X204500Y126300D02*
Y130400D01*
X199500D02*
X204500D01*
X199500Y126200D02*
Y130400D01*
Y119600D02*
Y123700D01*
Y119600D02*
X204500D01*
Y123700D01*
X211500Y119600D02*
Y123700D01*
Y119600D02*
X216500D01*
Y123800D01*
Y126300D02*
Y130400D01*
X211500D02*
X216500D01*
X211500Y126300D02*
Y130400D01*
X205500Y119600D02*
Y123700D01*
Y119600D02*
X210500D01*
Y123800D01*
Y126300D02*
Y130400D01*
X205500D02*
X210500D01*
X205500Y126300D02*
Y130400D01*
X462500Y332600D02*
Y336700D01*
Y332600D02*
X467500D01*
Y336800D01*
Y339300D02*
Y343400D01*
X462500D02*
X467500D01*
X462500Y339300D02*
Y343400D01*
X433500Y332600D02*
Y336700D01*
Y332600D02*
X438500D01*
Y336800D01*
Y339300D02*
Y343400D01*
X433500D02*
X438500D01*
X433500Y339300D02*
Y343400D01*
X507300Y273500D02*
X511400D01*
Y278500D01*
X507200D02*
X511400D01*
X500600D02*
X504700D01*
X500600Y273500D02*
Y278500D01*
Y273500D02*
X504700D01*
X434600Y308500D02*
X438700D01*
X434600Y303500D02*
Y308500D01*
Y303500D02*
X438800D01*
X441300D02*
X445400D01*
Y308500D01*
X441300D02*
X445400D01*
X441150Y309500D02*
X445250D01*
Y314500D01*
X441050D02*
X445250D01*
X434450D02*
X438550D01*
X434450Y309500D02*
Y314500D01*
Y309500D02*
X438550D01*
X434600Y302500D02*
X438700D01*
X434600Y297500D02*
Y302500D01*
Y297500D02*
X438800D01*
X441300D02*
X445400D01*
Y302500D01*
X441300D02*
X445400D01*
X441300Y291500D02*
X445400D01*
Y296500D01*
X441200D02*
X445400D01*
X434600D02*
X438700D01*
X434600Y291500D02*
Y296500D01*
Y291500D02*
X438700D01*
X530600Y272000D02*
X534700D01*
X530600Y267000D02*
Y272000D01*
Y267000D02*
X534800D01*
X537300D02*
X541400D01*
Y272000D01*
X537300D02*
X541400D01*
X434600Y290500D02*
X438700D01*
X434600Y285500D02*
Y290500D01*
Y285500D02*
X438800D01*
X441300D02*
X445400D01*
Y290500D01*
X441300D02*
X445400D01*
X499600Y338500D02*
X503700D01*
X499600Y333500D02*
Y338500D01*
Y333500D02*
X503800D01*
X506300D02*
X510400D01*
Y338500D01*
X506300D02*
X510400D01*
X434600Y284500D02*
X438700D01*
X434600Y279500D02*
Y284500D01*
Y279500D02*
X438800D01*
X441300D02*
X445400D01*
Y284500D01*
X441300D02*
X445400D01*
X506300Y327500D02*
X510400D01*
Y332500D01*
X506200D02*
X510400D01*
X499600D02*
X503700D01*
X499600Y327500D02*
Y332500D01*
Y327500D02*
X503700D01*
X434600Y278500D02*
X438700D01*
X434600Y273500D02*
Y278500D01*
Y273500D02*
X438800D01*
X441300D02*
X445400D01*
Y278500D01*
X441300D02*
X445400D01*
X434600Y272500D02*
X438700D01*
X434600Y267500D02*
Y272500D01*
Y267500D02*
X438800D01*
X441300D02*
X445400D01*
Y272500D01*
X441300D02*
X445400D01*
X500600D02*
X504700D01*
X500600Y267500D02*
Y272500D01*
Y267500D02*
X504800D01*
X507300D02*
X511400D01*
Y272500D01*
X507300D02*
X511400D01*
X434600Y266500D02*
X438700D01*
X434600Y261500D02*
Y266500D01*
Y261500D02*
X438800D01*
X441300D02*
X445400D01*
Y266500D01*
X441300D02*
X445400D01*
X500600D02*
X504700D01*
X500600Y261500D02*
Y266500D01*
Y261500D02*
X504800D01*
X507300D02*
X511400D01*
Y266500D01*
X507300D02*
X511400D01*
X434600Y260500D02*
X438700D01*
X434600Y255500D02*
Y260500D01*
Y255500D02*
X438800D01*
X441300D02*
X445400D01*
Y260500D01*
X441300D02*
X445400D01*
X434600Y254500D02*
X438700D01*
X434600Y249500D02*
Y254500D01*
Y249500D02*
X438800D01*
X441300D02*
X445400D01*
Y254500D01*
X441300D02*
X445400D01*
X434600Y248500D02*
X438700D01*
X434600Y243500D02*
Y248500D01*
Y243500D02*
X438800D01*
X441300D02*
X445400D01*
Y248500D01*
X441300D02*
X445400D01*
X507300Y285500D02*
X511400D01*
Y290500D01*
X507200D02*
X511400D01*
X500600D02*
X504700D01*
X500600Y285500D02*
Y290500D01*
Y285500D02*
X504700D01*
X507300Y291500D02*
X511400D01*
Y296500D01*
X507200D02*
X511400D01*
X500600D02*
X504700D01*
X500600Y291500D02*
Y296500D01*
Y291500D02*
X504700D01*
X507300Y297500D02*
X511400D01*
Y302500D01*
X507200D02*
X511400D01*
X500600D02*
X504700D01*
X500600Y297500D02*
Y302500D01*
Y297500D02*
X504700D01*
X500600Y284500D02*
X504700D01*
X500600Y279500D02*
Y284500D01*
Y279500D02*
X504800D01*
X507300D02*
X511400D01*
Y284500D01*
X507300D02*
X511400D01*
X222300Y250500D02*
X226400D01*
Y255500D01*
X222200D02*
X226400D01*
X215600D02*
X219700D01*
X215600Y250500D02*
Y255500D01*
Y250500D02*
X219700D01*
X222300Y244500D02*
X226400D01*
Y249500D01*
X222200D02*
X226400D01*
X215600D02*
X219700D01*
X215600Y244500D02*
Y249500D01*
Y244500D02*
X219700D01*
X165500Y276300D02*
Y280400D01*
X160500D02*
X165500D01*
X160500Y276200D02*
Y280400D01*
Y269600D02*
Y273700D01*
Y269600D02*
X165500D01*
Y273700D01*
X222300Y238500D02*
X226400D01*
Y243500D01*
X222200D02*
X226400D01*
X215600D02*
X219700D01*
X215600Y238500D02*
Y243500D01*
Y238500D02*
X219700D01*
X180000Y276300D02*
Y280400D01*
X175000D02*
X180000D01*
X175000Y276200D02*
Y280400D01*
Y269600D02*
Y273700D01*
Y269600D02*
X180000D01*
Y273700D01*
X272600Y241500D02*
X276700D01*
X272600Y236500D02*
Y241500D01*
Y236500D02*
X276800D01*
X279300D02*
X283400D01*
Y241500D01*
X279300D02*
X283400D01*
X194000Y276300D02*
Y280400D01*
X189000D02*
X194000D01*
X189000Y276200D02*
Y280400D01*
Y269600D02*
Y273700D01*
Y269600D02*
X194000D01*
Y273700D01*
X272600Y247500D02*
X276700D01*
X272600Y242500D02*
Y247500D01*
Y242500D02*
X276800D01*
X279300D02*
X283400D01*
Y247500D01*
X279300D02*
X283400D01*
D14*
X519000Y80500D02*
X520999D01*
X520000Y81499D02*
Y79500D01*
X523998Y81999D02*
X521999D01*
Y80500D01*
X522999Y80999D01*
X523498D01*
X523998Y80500D01*
Y79500D01*
X523498Y79000D01*
X522499D01*
X521999Y79500D01*
X524998Y79000D02*
Y79500D01*
X525498D01*
Y79000D01*
X524998D01*
X527497Y81499D02*
X527997Y81999D01*
X528997D01*
X529497Y81499D01*
Y79500D01*
X528997Y79000D01*
X527997D01*
X527497Y79500D01*
Y81499D01*
X530496Y80999D02*
X531496Y79000D01*
X532496Y80999D01*
X24000Y78500D02*
X25999D01*
X25000Y79499D02*
Y77500D01*
X28998Y79999D02*
X26999D01*
Y78500D01*
X27999Y78999D01*
X28499D01*
X28998Y78500D01*
Y77500D01*
X28499Y77000D01*
X27499D01*
X26999Y77500D01*
X29998Y77000D02*
Y77500D01*
X30498D01*
Y77000D01*
X29998D01*
X32497Y79499D02*
X32997Y79999D01*
X33997D01*
X34497Y79499D01*
Y77500D01*
X33997Y77000D01*
X32997D01*
X32497Y77500D01*
Y79499D01*
X35496Y78999D02*
X36496Y77000D01*
X37496Y78999D01*
X535000Y80500D02*
X536999D01*
X536000Y81499D02*
Y79500D01*
X539998Y81999D02*
X537999D01*
Y80500D01*
X538999Y80999D01*
X539499D01*
X539998Y80500D01*
Y79500D01*
X539499Y79000D01*
X538499D01*
X537999Y79500D01*
X540998Y79000D02*
Y79500D01*
X541498D01*
Y79000D01*
X540998D01*
X543497Y81499D02*
X543997Y81999D01*
X544997D01*
X545497Y81499D01*
Y79500D01*
X544997Y79000D01*
X543997D01*
X543497Y79500D01*
Y81499D01*
X546496Y80999D02*
X547496Y79000D01*
X548496Y80999D01*
X9000Y78500D02*
X10999D01*
X10000Y79499D02*
Y77500D01*
X13998Y79999D02*
X11999D01*
Y78500D01*
X12999Y78999D01*
X13499D01*
X13998Y78500D01*
Y77500D01*
X13499Y77000D01*
X12499D01*
X11999Y77500D01*
X14998Y77000D02*
Y77500D01*
X15498D01*
Y77000D01*
X14998D01*
X17497Y79499D02*
X17997Y79999D01*
X18997D01*
X19497Y79499D01*
Y77500D01*
X18997Y77000D01*
X17997D01*
X17497Y77500D01*
Y79499D01*
X20496Y78999D02*
X21496Y77000D01*
X22496Y78999D01*
X26999Y47499D02*
X26500Y47999D01*
X25500D01*
X25000Y47499D01*
Y45500D01*
X25500Y45000D01*
X26500D01*
X26999Y45500D01*
Y46499D01*
X26000D01*
X27999Y45000D02*
Y46999D01*
X29499D01*
X29998Y46499D01*
Y45000D01*
X32997Y47999D02*
Y45000D01*
X31498D01*
X30998Y45500D01*
Y46499D01*
X31498Y46999D01*
X32997D01*
X11999Y47499D02*
X11500Y47999D01*
X10500D01*
X10000Y47499D01*
Y45500D01*
X10500Y45000D01*
X11500D01*
X11999Y45500D01*
Y46499D01*
X11000D01*
X12999Y45000D02*
Y46999D01*
X14499D01*
X14998Y46499D01*
Y45000D01*
X17997Y47999D02*
Y45000D01*
X16498D01*
X15998Y45500D01*
Y46499D01*
X16498Y46999D01*
X17997D01*
X538999Y44499D02*
X538499Y44999D01*
X537500D01*
X537000Y44499D01*
Y42500D01*
X537500Y42000D01*
X538499D01*
X538999Y42500D01*
Y43499D01*
X538000D01*
X539999Y42000D02*
Y43999D01*
X541499D01*
X541998Y43499D01*
Y42000D01*
X544997Y44999D02*
Y42000D01*
X543498D01*
X542998Y42500D01*
Y43499D01*
X543498Y43999D01*
X544997D01*
X523999Y44499D02*
X523499Y44999D01*
X522500D01*
X522000Y44499D01*
Y42500D01*
X522500Y42000D01*
X523499D01*
X523999Y42500D01*
Y43499D01*
X523000D01*
X524999Y42000D02*
Y43999D01*
X526499D01*
X526998Y43499D01*
Y42000D01*
X529997Y44999D02*
Y42000D01*
X528498D01*
X527998Y42500D01*
Y43499D01*
X528498Y43999D01*
X529997D01*
X399500Y227000D02*
Y225667D01*
Y226334D01*
X403499D01*
X402832Y227000D01*
X409500Y226334D02*
Y229000D01*
X412166Y226334D01*
X412832D01*
X413499Y227001D01*
Y228334D01*
X412832Y229000D01*
X403499Y189334D02*
Y192000D01*
X401499D01*
X402166Y190667D01*
Y190001D01*
X401499Y189334D01*
X400166D01*
X399500Y190001D01*
Y191333D01*
X400166Y192000D01*
X413499Y189334D02*
X412832Y190667D01*
X411499Y192000D01*
X410166D01*
X409500Y191333D01*
Y190001D01*
X410166Y189334D01*
X410833D01*
X411499Y190001D01*
Y192000D01*
M02*
