G04*
G04 #@! TF.GenerationSoftware,Altium Limited,Altium Designer,22.3.1 (43)*
G04*
G04 Layer_Color=8388736*
%FSLAX25Y25*%
%MOIN*%
G70*
G04*
G04 #@! TF.SameCoordinates,3349D2AC-C315-450D-AF27-8CF08F727A17*
G04*
G04*
G04 #@! TF.FilePolarity,Negative*
G04*
G01*
G75*
%ADD25R,0.03950X0.03950*%
%ADD26R,0.10642X0.08674*%
%ADD27R,0.09855X0.02769*%
%ADD28R,0.03950X0.04540*%
%ADD29R,0.03162X0.06607*%
%ADD30R,0.06607X0.03162*%
%ADD31R,0.04540X0.03950*%
%ADD32R,0.07493X0.02572*%
%ADD33R,0.07887X0.02572*%
%ADD34R,0.06607X0.02572*%
%ADD35R,0.06706X0.06706*%
%ADD36C,0.04343*%
%ADD37C,0.06706*%
%ADD38R,0.06706X0.06706*%
%ADD39C,0.06800*%
%ADD40R,0.06800X0.06800*%
%ADD41C,0.20800*%
%ADD42C,0.05800*%
D25*
X147500Y340650D02*
D03*
Y334350D02*
D03*
X107500Y340650D02*
D03*
Y334350D02*
D03*
X473000Y334850D02*
D03*
Y341150D02*
D03*
X444000Y334850D02*
D03*
Y341150D02*
D03*
X205000Y334350D02*
D03*
Y340650D02*
D03*
X258000Y334350D02*
D03*
Y340650D02*
D03*
X241500Y334350D02*
D03*
Y340650D02*
D03*
X301500Y334350D02*
D03*
Y340650D02*
D03*
X281000Y334350D02*
D03*
Y340650D02*
D03*
X191500Y334350D02*
D03*
Y340650D02*
D03*
X177500Y334350D02*
D03*
Y340650D02*
D03*
X163000Y334350D02*
D03*
Y340650D02*
D03*
X322000Y334350D02*
D03*
Y340650D02*
D03*
X343000Y334350D02*
D03*
Y340650D02*
D03*
X220000Y334350D02*
D03*
Y340650D02*
D03*
X77500Y334350D02*
D03*
Y340650D02*
D03*
X87500Y334350D02*
D03*
Y340650D02*
D03*
X97500Y334350D02*
D03*
Y340650D02*
D03*
X117500Y334350D02*
D03*
Y340650D02*
D03*
X127500Y334350D02*
D03*
Y340650D02*
D03*
X137500Y334350D02*
D03*
Y340650D02*
D03*
D26*
X527157Y318819D02*
D03*
X548811D02*
D03*
Y353858D02*
D03*
X527157D02*
D03*
D27*
Y342638D02*
D03*
Y339488D02*
D03*
Y336339D02*
D03*
Y333189D02*
D03*
Y330039D02*
D03*
D28*
X172350Y180000D02*
D03*
X178650D02*
D03*
X375850Y219000D02*
D03*
X382150D02*
D03*
Y207000D02*
D03*
X375850D02*
D03*
Y213000D02*
D03*
X382150D02*
D03*
X375850Y201000D02*
D03*
X382150D02*
D03*
X63150Y190000D02*
D03*
X56850D02*
D03*
X63150Y180000D02*
D03*
X56850D02*
D03*
X86850Y165000D02*
D03*
X93150D02*
D03*
X63150Y170000D02*
D03*
X56850D02*
D03*
X86850Y155000D02*
D03*
X93150D02*
D03*
X63150Y160000D02*
D03*
X56850D02*
D03*
X86850Y145000D02*
D03*
X93150D02*
D03*
X63150Y150000D02*
D03*
X56850D02*
D03*
X86850Y135000D02*
D03*
X93150D02*
D03*
X63150Y140000D02*
D03*
X56850D02*
D03*
X63150Y130000D02*
D03*
X56850D02*
D03*
X63150Y120000D02*
D03*
X56850D02*
D03*
X255850Y181000D02*
D03*
X262150D02*
D03*
X172350Y186000D02*
D03*
X178650D02*
D03*
X255850Y175000D02*
D03*
X262150D02*
D03*
X255850Y169000D02*
D03*
X262150D02*
D03*
X172350Y174000D02*
D03*
X178650D02*
D03*
X255850Y163000D02*
D03*
X262150D02*
D03*
X172350Y168000D02*
D03*
X178650D02*
D03*
X255850Y157000D02*
D03*
X262150D02*
D03*
X172350Y162000D02*
D03*
X178650D02*
D03*
X255850Y151000D02*
D03*
X262150D02*
D03*
X172350Y156000D02*
D03*
X178650D02*
D03*
X172350Y150000D02*
D03*
X178650D02*
D03*
X172350Y144000D02*
D03*
X178650D02*
D03*
X502850Y276000D02*
D03*
X509150D02*
D03*
X443150Y306000D02*
D03*
X436850D02*
D03*
X436701Y312000D02*
D03*
X443000D02*
D03*
X443150Y300000D02*
D03*
X436850D02*
D03*
Y294000D02*
D03*
X443150D02*
D03*
X539150Y269500D02*
D03*
X532850D02*
D03*
X443150Y288000D02*
D03*
X436850D02*
D03*
X508150Y336000D02*
D03*
X501850D02*
D03*
X443150Y282000D02*
D03*
X436850D02*
D03*
X501850Y330000D02*
D03*
X508150D02*
D03*
X443150Y276000D02*
D03*
X436850D02*
D03*
X443150Y270000D02*
D03*
X436850D02*
D03*
X509150D02*
D03*
X502850D02*
D03*
X443150Y264000D02*
D03*
X436850D02*
D03*
X509150D02*
D03*
X502850D02*
D03*
X443150Y258000D02*
D03*
X436850D02*
D03*
X443150Y252000D02*
D03*
X436850D02*
D03*
X443150Y246000D02*
D03*
X436850D02*
D03*
X502850Y288000D02*
D03*
X509150D02*
D03*
X502850Y294000D02*
D03*
X509150D02*
D03*
X502850Y300000D02*
D03*
X509150D02*
D03*
Y282000D02*
D03*
X502850D02*
D03*
X217850Y253000D02*
D03*
X224150D02*
D03*
X217850Y247000D02*
D03*
X224150D02*
D03*
X217850Y241000D02*
D03*
X224150D02*
D03*
X281150Y239000D02*
D03*
X274850D02*
D03*
X281150Y245000D02*
D03*
X274850D02*
D03*
D29*
X208476Y180685D02*
D03*
X211626D02*
D03*
X214776D02*
D03*
X217925D02*
D03*
X221075D02*
D03*
X224224D02*
D03*
X227374D02*
D03*
X230524D02*
D03*
Y147315D02*
D03*
X227374D02*
D03*
X224224D02*
D03*
X221075D02*
D03*
X217925D02*
D03*
X214776D02*
D03*
X211626D02*
D03*
X208476D02*
D03*
D30*
X236185Y175024D02*
D03*
Y171874D02*
D03*
Y168724D02*
D03*
Y165575D02*
D03*
Y162425D02*
D03*
Y159276D02*
D03*
Y156126D02*
D03*
Y152976D02*
D03*
X202815D02*
D03*
Y156126D02*
D03*
Y159276D02*
D03*
Y162425D02*
D03*
Y165575D02*
D03*
Y168724D02*
D03*
Y171874D02*
D03*
Y175024D02*
D03*
D31*
X229000Y198850D02*
D03*
Y205150D02*
D03*
X215000D02*
D03*
Y198850D02*
D03*
X235000D02*
D03*
Y205150D02*
D03*
X209000D02*
D03*
Y198850D02*
D03*
X241000D02*
D03*
Y205150D02*
D03*
X203000D02*
D03*
Y198850D02*
D03*
X238000Y128150D02*
D03*
Y121850D02*
D03*
X232000Y128150D02*
D03*
Y121850D02*
D03*
X226000Y128150D02*
D03*
Y121850D02*
D03*
X220000Y128150D02*
D03*
Y121850D02*
D03*
X202000D02*
D03*
Y128150D02*
D03*
X214000D02*
D03*
Y121850D02*
D03*
X208000Y128150D02*
D03*
Y121850D02*
D03*
X465000Y341150D02*
D03*
Y334850D02*
D03*
X436000Y341150D02*
D03*
Y334850D02*
D03*
X163000Y271850D02*
D03*
Y278150D02*
D03*
X177500Y271850D02*
D03*
Y278150D02*
D03*
X191500Y271850D02*
D03*
Y278150D02*
D03*
D32*
X488780Y296634D02*
D03*
Y294075D02*
D03*
Y291516D02*
D03*
Y288957D02*
D03*
Y286398D02*
D03*
Y283839D02*
D03*
Y281280D02*
D03*
Y278720D02*
D03*
Y276161D02*
D03*
Y273602D02*
D03*
Y271043D02*
D03*
Y268484D02*
D03*
Y265925D02*
D03*
Y263366D02*
D03*
X461220D02*
D03*
Y265925D02*
D03*
Y268484D02*
D03*
Y271043D02*
D03*
Y273602D02*
D03*
Y276161D02*
D03*
Y278720D02*
D03*
Y281280D02*
D03*
Y283839D02*
D03*
Y286398D02*
D03*
Y288957D02*
D03*
Y291516D02*
D03*
Y294075D02*
D03*
Y296634D02*
D03*
D33*
X101024Y261516D02*
D03*
Y258957D02*
D03*
Y256398D02*
D03*
Y253839D02*
D03*
Y251280D02*
D03*
Y248720D02*
D03*
Y246161D02*
D03*
Y243602D02*
D03*
Y241043D02*
D03*
Y238484D02*
D03*
X128976D02*
D03*
Y241043D02*
D03*
Y243602D02*
D03*
Y246161D02*
D03*
Y248720D02*
D03*
Y251280D02*
D03*
Y253839D02*
D03*
Y256398D02*
D03*
Y258957D02*
D03*
Y261516D02*
D03*
D34*
X238433Y252677D02*
D03*
Y250118D02*
D03*
Y247559D02*
D03*
Y245000D02*
D03*
Y242441D02*
D03*
Y239882D02*
D03*
Y237323D02*
D03*
X261567D02*
D03*
Y239882D02*
D03*
Y242441D02*
D03*
Y245000D02*
D03*
Y247559D02*
D03*
Y250118D02*
D03*
Y252677D02*
D03*
D35*
X30000Y55000D02*
D03*
X525000Y71000D02*
D03*
X15000Y55000D02*
D03*
X30000Y70000D02*
D03*
X541000Y53000D02*
D03*
Y71000D02*
D03*
X526000Y53000D02*
D03*
X15000Y70000D02*
D03*
X345000Y215000D02*
D03*
Y235000D02*
D03*
Y197000D02*
D03*
X51000Y235000D02*
D03*
X305000Y175000D02*
D03*
X320000D02*
D03*
X335000D02*
D03*
X350000D02*
D03*
X365000D02*
D03*
X380000D02*
D03*
X305000Y155000D02*
D03*
X320000D02*
D03*
X335000D02*
D03*
X365000D02*
D03*
X350000D02*
D03*
X380000D02*
D03*
X435000Y220000D02*
D03*
X450000D02*
D03*
X465000D02*
D03*
X480000D02*
D03*
X495000D02*
D03*
X510000D02*
D03*
X525000D02*
D03*
X435000Y200000D02*
D03*
X450000D02*
D03*
X465000D02*
D03*
X480000D02*
D03*
X495000D02*
D03*
X510000D02*
D03*
X379000Y329000D02*
D03*
D36*
X537000Y345000D02*
D03*
Y327677D02*
D03*
D37*
X411500Y199000D02*
D03*
X401500D02*
D03*
X411500Y209000D02*
D03*
X401500D02*
D03*
X411500Y219000D02*
D03*
D38*
X401500D02*
D03*
D39*
X30000Y120000D02*
D03*
Y130000D02*
D03*
Y140000D02*
D03*
Y150000D02*
D03*
Y160000D02*
D03*
Y170000D02*
D03*
Y180000D02*
D03*
X20000Y120000D02*
D03*
Y130000D02*
D03*
Y140000D02*
D03*
Y150000D02*
D03*
Y160000D02*
D03*
Y170000D02*
D03*
X30000Y190000D02*
D03*
X20000Y180000D02*
D03*
D40*
Y190000D02*
D03*
D41*
Y20000D02*
D03*
X540000Y380000D02*
D03*
X20000D02*
D03*
X540000Y20000D02*
D03*
D42*
X506000Y317000D02*
D03*
X494000Y318000D02*
D03*
X515000Y322000D02*
D03*
X60000Y90000D02*
D03*
X421000Y230000D02*
D03*
Y220000D02*
D03*
X503000Y186000D02*
D03*
X533000Y302000D02*
D03*
X509000Y244000D02*
D03*
X502000Y344000D02*
D03*
X271000Y226000D02*
D03*
X81000Y235000D02*
D03*
X91000Y231000D02*
D03*
X100000Y229000D02*
D03*
X415000Y310000D02*
D03*
X349000Y375000D02*
D03*
X292000Y338000D02*
D03*
X307000Y375000D02*
D03*
X263000D02*
D03*
X245000D02*
D03*
X225000D02*
D03*
X209000D02*
D03*
X196000D02*
D03*
X181000D02*
D03*
X147000Y254000D02*
D03*
X140000Y249000D02*
D03*
X152000Y247000D02*
D03*
X273918Y290000D02*
D03*
X260000Y281000D02*
D03*
X225000Y171000D02*
D03*
X228000Y157000D02*
D03*
X484000Y250000D02*
D03*
X471000Y271000D02*
D03*
X87000Y268000D02*
D03*
X60000Y202000D02*
D03*
X75000Y215000D02*
D03*
X72000Y229000D02*
D03*
X80000Y242000D02*
D03*
X74000Y114000D02*
D03*
X525000Y281000D02*
D03*
X518000Y276000D02*
D03*
X209000Y216000D02*
D03*
X170000Y200000D02*
D03*
X105600Y178000D02*
D03*
X167400D02*
D03*
X166900Y168000D02*
D03*
X118090Y122990D02*
D03*
X189700Y142000D02*
D03*
X163000Y262800D02*
D03*
X116400Y209600D02*
D03*
X234300D02*
D03*
Y226000D02*
D03*
X167000Y375000D02*
D03*
X132000D02*
D03*
X112000D02*
D03*
X102000D02*
D03*
X264500Y188000D02*
D03*
X264900Y141500D02*
D03*
X172350Y133550D02*
D03*
X197000Y124500D02*
D03*
X425700Y253000D02*
D03*
X190400Y259100D02*
D03*
X198000Y249500D02*
D03*
X424400Y294000D02*
D03*
X280300Y234300D02*
D03*
X326000Y375000D02*
D03*
X83000D02*
D03*
X93000D02*
D03*
X122000D02*
D03*
X142000D02*
D03*
X152000D02*
D03*
X286000D02*
D03*
X524700Y294000D02*
D03*
X498400Y281700D02*
D03*
X242600Y136700D02*
D03*
X208000Y241000D02*
D03*
X493900Y230400D02*
D03*
X475800Y256300D02*
D03*
X470000Y285000D02*
D03*
X472400Y310600D02*
D03*
X471800Y298200D02*
D03*
X480900Y312100D02*
D03*
X430500Y273000D02*
D03*
X248408Y236000D02*
D03*
X141591Y265600D02*
D03*
X213000Y224600D02*
D03*
X163000Y267400D02*
D03*
X164700Y184700D02*
D03*
Y225500D02*
D03*
X255700Y193800D02*
D03*
X193400Y194900D02*
D03*
X205000Y298000D02*
D03*
X272500Y252500D02*
D03*
X254000Y271000D02*
D03*
X220000Y291000D02*
D03*
X235000Y289000D02*
D03*
X193800Y146400D02*
D03*
X108000Y324000D02*
D03*
X270000Y270000D02*
D03*
X162000Y324000D02*
D03*
X249800Y328400D02*
D03*
X333000Y320000D02*
D03*
X540890Y359858D02*
D03*
X545500Y306400D02*
D03*
X334059Y343200D02*
D03*
X427059Y335400D02*
D03*
X456059D02*
D03*
X535079Y318819D02*
D03*
X480000Y70000D02*
D03*
X490000D02*
D03*
X510000D02*
D03*
X500000D02*
D03*
X470000D02*
D03*
Y60000D02*
D03*
X500000D02*
D03*
X510000D02*
D03*
X490000D02*
D03*
X480000D02*
D03*
X470000Y50000D02*
D03*
X500000D02*
D03*
X510000D02*
D03*
X490000D02*
D03*
X480000D02*
D03*
X470000Y40000D02*
D03*
X500000D02*
D03*
X510000D02*
D03*
X490000D02*
D03*
X480000D02*
D03*
X470000Y30000D02*
D03*
X500000D02*
D03*
X510000D02*
D03*
X490000D02*
D03*
X480000D02*
D03*
X470000Y20000D02*
D03*
X500000D02*
D03*
X510000D02*
D03*
X490000D02*
D03*
X480000D02*
D03*
X470000Y10000D02*
D03*
X500000D02*
D03*
X510000D02*
D03*
X490000D02*
D03*
X480000D02*
D03*
X470000Y80000D02*
D03*
X500000D02*
D03*
X510000D02*
D03*
X490000D02*
D03*
X480000D02*
D03*
X470000Y90000D02*
D03*
X500000D02*
D03*
X510000D02*
D03*
X490000D02*
D03*
X480000D02*
D03*
X370000D02*
D03*
X380000D02*
D03*
X430000D02*
D03*
X440000D02*
D03*
X460000D02*
D03*
X450000D02*
D03*
X410000D02*
D03*
X420000D02*
D03*
X400000D02*
D03*
X390000D02*
D03*
X370000Y80000D02*
D03*
X380000D02*
D03*
X430000D02*
D03*
X440000D02*
D03*
X460000D02*
D03*
X450000D02*
D03*
X410000D02*
D03*
X420000D02*
D03*
X400000D02*
D03*
X390000D02*
D03*
X370000Y10000D02*
D03*
X380000D02*
D03*
X430000D02*
D03*
X440000D02*
D03*
X460000D02*
D03*
X450000D02*
D03*
X410000D02*
D03*
X420000D02*
D03*
X400000D02*
D03*
X390000D02*
D03*
X370000Y20000D02*
D03*
X380000D02*
D03*
X430000D02*
D03*
X440000D02*
D03*
X460000D02*
D03*
X450000D02*
D03*
X410000D02*
D03*
X420000D02*
D03*
X400000D02*
D03*
X390000D02*
D03*
X370000Y30000D02*
D03*
X380000D02*
D03*
X430000D02*
D03*
X440000D02*
D03*
X460000D02*
D03*
X450000D02*
D03*
X410000D02*
D03*
X420000D02*
D03*
X400000D02*
D03*
X390000D02*
D03*
X370000Y40000D02*
D03*
X380000D02*
D03*
X430000D02*
D03*
X440000D02*
D03*
X460000D02*
D03*
X450000D02*
D03*
X410000D02*
D03*
X420000D02*
D03*
X400000D02*
D03*
X390000D02*
D03*
X370000Y50000D02*
D03*
X380000D02*
D03*
X430000D02*
D03*
X440000D02*
D03*
X460000D02*
D03*
X450000D02*
D03*
X410000D02*
D03*
X420000D02*
D03*
X400000D02*
D03*
X390000D02*
D03*
X370000Y60000D02*
D03*
X380000D02*
D03*
X430000D02*
D03*
X440000D02*
D03*
X460000D02*
D03*
X450000D02*
D03*
X410000D02*
D03*
X420000D02*
D03*
X400000D02*
D03*
X390000D02*
D03*
Y70000D02*
D03*
X400000D02*
D03*
X420000D02*
D03*
X410000D02*
D03*
X450000D02*
D03*
X460000D02*
D03*
X440000D02*
D03*
X430000D02*
D03*
X380000D02*
D03*
X370000D02*
D03*
X210000D02*
D03*
X220000D02*
D03*
X240000D02*
D03*
X230000D02*
D03*
X270000D02*
D03*
X280000D02*
D03*
X260000D02*
D03*
X250000D02*
D03*
X330000D02*
D03*
X340000D02*
D03*
X360000D02*
D03*
X350000D02*
D03*
X310000D02*
D03*
X320000D02*
D03*
X300000D02*
D03*
X290000D02*
D03*
Y60000D02*
D03*
X300000D02*
D03*
X320000D02*
D03*
X310000D02*
D03*
X350000D02*
D03*
X360000D02*
D03*
X340000D02*
D03*
X330000D02*
D03*
X250000D02*
D03*
X260000D02*
D03*
X280000D02*
D03*
X270000D02*
D03*
X230000D02*
D03*
X240000D02*
D03*
X220000D02*
D03*
X210000D02*
D03*
X290000Y50000D02*
D03*
X300000D02*
D03*
X320000D02*
D03*
X310000D02*
D03*
X350000D02*
D03*
X360000D02*
D03*
X340000D02*
D03*
X330000D02*
D03*
X250000D02*
D03*
X260000D02*
D03*
X280000D02*
D03*
X270000D02*
D03*
X230000D02*
D03*
X240000D02*
D03*
X220000D02*
D03*
X210000D02*
D03*
X290000Y40000D02*
D03*
X300000D02*
D03*
X320000D02*
D03*
X310000D02*
D03*
X350000D02*
D03*
X360000D02*
D03*
X340000D02*
D03*
X330000D02*
D03*
X250000D02*
D03*
X260000D02*
D03*
X280000D02*
D03*
X270000D02*
D03*
X230000D02*
D03*
X240000D02*
D03*
X220000D02*
D03*
X210000D02*
D03*
X290000Y30000D02*
D03*
X300000D02*
D03*
X320000D02*
D03*
X310000D02*
D03*
X350000D02*
D03*
X360000D02*
D03*
X340000D02*
D03*
X330000D02*
D03*
X250000D02*
D03*
X260000D02*
D03*
X280000D02*
D03*
X270000D02*
D03*
X230000D02*
D03*
X240000D02*
D03*
X220000D02*
D03*
X210000D02*
D03*
X290000Y20000D02*
D03*
X300000D02*
D03*
X320000D02*
D03*
X310000D02*
D03*
X350000D02*
D03*
X360000D02*
D03*
X340000D02*
D03*
X330000D02*
D03*
X250000D02*
D03*
X260000D02*
D03*
X280000D02*
D03*
X270000D02*
D03*
X230000D02*
D03*
X240000D02*
D03*
X220000D02*
D03*
X210000D02*
D03*
X290000Y10000D02*
D03*
X300000D02*
D03*
X320000D02*
D03*
X310000D02*
D03*
X350000D02*
D03*
X360000D02*
D03*
X340000D02*
D03*
X330000D02*
D03*
X250000D02*
D03*
X260000D02*
D03*
X280000D02*
D03*
X270000D02*
D03*
X230000D02*
D03*
X240000D02*
D03*
X220000D02*
D03*
X210000D02*
D03*
X290000Y80000D02*
D03*
X300000D02*
D03*
X320000D02*
D03*
X310000D02*
D03*
X350000D02*
D03*
X360000D02*
D03*
X340000D02*
D03*
X330000D02*
D03*
X250000D02*
D03*
X260000D02*
D03*
X280000D02*
D03*
X270000D02*
D03*
X230000D02*
D03*
X240000D02*
D03*
X220000D02*
D03*
X210000D02*
D03*
X290000Y90000D02*
D03*
X300000D02*
D03*
X320000D02*
D03*
X310000D02*
D03*
X350000D02*
D03*
X360000D02*
D03*
X340000D02*
D03*
X330000D02*
D03*
X250000D02*
D03*
X260000D02*
D03*
X280000D02*
D03*
X270000D02*
D03*
X230000D02*
D03*
X240000D02*
D03*
X220000D02*
D03*
X210000D02*
D03*
X50000D02*
D03*
X80000D02*
D03*
X70000D02*
D03*
X110000D02*
D03*
X120000D02*
D03*
X100000D02*
D03*
X90000D02*
D03*
X170000D02*
D03*
X180000D02*
D03*
X200000D02*
D03*
X190000D02*
D03*
X150000D02*
D03*
X160000D02*
D03*
X140000D02*
D03*
X130000D02*
D03*
X50000Y80000D02*
D03*
X60000D02*
D03*
X80000D02*
D03*
X70000D02*
D03*
X110000D02*
D03*
X120000D02*
D03*
X100000D02*
D03*
X90000D02*
D03*
X170000D02*
D03*
X180000D02*
D03*
X200000D02*
D03*
X190000D02*
D03*
X150000D02*
D03*
X160000D02*
D03*
X140000D02*
D03*
X130000D02*
D03*
X50000Y10000D02*
D03*
X60000D02*
D03*
X80000D02*
D03*
X70000D02*
D03*
X110000D02*
D03*
X120000D02*
D03*
X100000D02*
D03*
X90000D02*
D03*
X170000D02*
D03*
X180000D02*
D03*
X200000D02*
D03*
X190000D02*
D03*
X150000D02*
D03*
X160000D02*
D03*
X140000D02*
D03*
X130000D02*
D03*
X50000Y20000D02*
D03*
X60000D02*
D03*
X80000D02*
D03*
X70000D02*
D03*
X110000D02*
D03*
X120000D02*
D03*
X100000D02*
D03*
X90000D02*
D03*
X170000D02*
D03*
X180000D02*
D03*
X200000D02*
D03*
X190000D02*
D03*
X150000D02*
D03*
X160000D02*
D03*
X140000D02*
D03*
X130000D02*
D03*
X50000Y30000D02*
D03*
X60000D02*
D03*
X80000D02*
D03*
X70000D02*
D03*
X110000D02*
D03*
X120000D02*
D03*
X100000D02*
D03*
X90000D02*
D03*
X170000D02*
D03*
X180000D02*
D03*
X200000D02*
D03*
X190000D02*
D03*
X150000D02*
D03*
X160000D02*
D03*
X140000D02*
D03*
X130000D02*
D03*
X50000Y40000D02*
D03*
X60000D02*
D03*
X80000D02*
D03*
X70000D02*
D03*
X110000D02*
D03*
X120000D02*
D03*
X100000D02*
D03*
X90000D02*
D03*
X170000D02*
D03*
X180000D02*
D03*
X200000D02*
D03*
X190000D02*
D03*
X150000D02*
D03*
X160000D02*
D03*
X140000D02*
D03*
X130000D02*
D03*
X50000Y50000D02*
D03*
X60000D02*
D03*
X80000D02*
D03*
X70000D02*
D03*
X110000D02*
D03*
X120000D02*
D03*
X100000D02*
D03*
X90000D02*
D03*
X170000D02*
D03*
X180000D02*
D03*
X200000D02*
D03*
X190000D02*
D03*
X150000D02*
D03*
X160000D02*
D03*
X140000D02*
D03*
X130000D02*
D03*
X50000Y60000D02*
D03*
X60000D02*
D03*
X80000D02*
D03*
X70000D02*
D03*
X110000D02*
D03*
X120000D02*
D03*
X100000D02*
D03*
X90000D02*
D03*
X170000D02*
D03*
X180000D02*
D03*
X200000D02*
D03*
X190000D02*
D03*
X150000D02*
D03*
X160000D02*
D03*
X140000D02*
D03*
X130000D02*
D03*
Y70000D02*
D03*
X140000D02*
D03*
X160000D02*
D03*
X150000D02*
D03*
X190000D02*
D03*
X200000D02*
D03*
X180000D02*
D03*
X170000D02*
D03*
X90000D02*
D03*
X100000D02*
D03*
X120000D02*
D03*
X110000D02*
D03*
X70000D02*
D03*
X80000D02*
D03*
X60000D02*
D03*
X50000D02*
D03*
M02*
