G04*
G04 #@! TF.GenerationSoftware,Altium Limited,Altium Designer,22.3.1 (43)*
G04*
G04 Layer_Color=12632256*
%FSLAX25Y25*%
%MOIN*%
G70*
G04*
G04 #@! TF.SameCoordinates,3349D2AC-C315-450D-AF27-8CF08F727A17*
G04*
G04*
G04 #@! TF.FilePolarity,Positive*
G04*
G01*
G75*
%ADD43R,0.05906X0.05906*%
%ADD44C,0.03543*%
%ADD45C,0.05906*%
%ADD46R,0.05906X0.05906*%
%ADD47C,0.06000*%
%ADD48R,0.06000X0.06000*%
%ADD49C,0.20000*%
D43*
X30000Y55000D02*
D03*
X525000Y71000D02*
D03*
X15000Y55000D02*
D03*
X30000Y70000D02*
D03*
X541000Y53000D02*
D03*
Y71000D02*
D03*
X526000Y53000D02*
D03*
X15000Y70000D02*
D03*
X345000Y215000D02*
D03*
Y235000D02*
D03*
Y197000D02*
D03*
X51000Y235000D02*
D03*
X305000Y175000D02*
D03*
X320000D02*
D03*
X335000D02*
D03*
X350000D02*
D03*
X365000D02*
D03*
X380000D02*
D03*
X305000Y155000D02*
D03*
X320000D02*
D03*
X335000D02*
D03*
X365000D02*
D03*
X350000D02*
D03*
X380000D02*
D03*
X435000Y220000D02*
D03*
X450000D02*
D03*
X465000D02*
D03*
X480000D02*
D03*
X495000D02*
D03*
X510000D02*
D03*
X525000D02*
D03*
X435000Y200000D02*
D03*
X450000D02*
D03*
X465000D02*
D03*
X480000D02*
D03*
X495000D02*
D03*
X510000D02*
D03*
X379000Y329000D02*
D03*
D44*
X537000Y345000D02*
D03*
Y327677D02*
D03*
D45*
X411500Y199000D02*
D03*
X401500D02*
D03*
X411500Y209000D02*
D03*
X401500D02*
D03*
X411500Y219000D02*
D03*
D46*
X401500D02*
D03*
D47*
X30000Y120000D02*
D03*
Y130000D02*
D03*
Y140000D02*
D03*
Y150000D02*
D03*
Y160000D02*
D03*
Y170000D02*
D03*
Y180000D02*
D03*
X20000Y120000D02*
D03*
Y130000D02*
D03*
Y140000D02*
D03*
Y150000D02*
D03*
Y160000D02*
D03*
Y170000D02*
D03*
X30000Y190000D02*
D03*
X20000Y180000D02*
D03*
D48*
Y190000D02*
D03*
D49*
Y20000D02*
D03*
X540000Y380000D02*
D03*
X20000D02*
D03*
X540000Y20000D02*
D03*
M02*
