G04*
G04 #@! TF.GenerationSoftware,Altium Limited,Altium Designer,22.3.1 (43)*
G04*
G04 Layer_Color=8421504*
%FSLAX25Y25*%
%MOIN*%
G70*
G04*
G04 #@! TF.SameCoordinates,3349D2AC-C315-450D-AF27-8CF08F727A17*
G04*
G04*
G04 #@! TF.FilePolarity,Positive*
G04*
G01*
G75*
%ADD15R,0.03150X0.03150*%
%ADD16R,0.09843X0.07874*%
%ADD17R,0.09055X0.01968*%
%ADD18R,0.03150X0.03740*%
%ADD19R,0.02362X0.05807*%
%ADD20R,0.05807X0.02362*%
%ADD21R,0.03740X0.03150*%
%ADD22R,0.06693X0.01772*%
%ADD23R,0.07087X0.01772*%
%ADD24R,0.05807X0.01772*%
D15*
X147500Y340650D02*
D03*
Y334350D02*
D03*
X107500Y340650D02*
D03*
Y334350D02*
D03*
X473000Y334850D02*
D03*
Y341150D02*
D03*
X444000Y334850D02*
D03*
Y341150D02*
D03*
X205000Y334350D02*
D03*
Y340650D02*
D03*
X258000Y334350D02*
D03*
Y340650D02*
D03*
X241500Y334350D02*
D03*
Y340650D02*
D03*
X301500Y334350D02*
D03*
Y340650D02*
D03*
X281000Y334350D02*
D03*
Y340650D02*
D03*
X191500Y334350D02*
D03*
Y340650D02*
D03*
X177500Y334350D02*
D03*
Y340650D02*
D03*
X163000Y334350D02*
D03*
Y340650D02*
D03*
X322000Y334350D02*
D03*
Y340650D02*
D03*
X343000Y334350D02*
D03*
Y340650D02*
D03*
X220000Y334350D02*
D03*
Y340650D02*
D03*
X77500Y334350D02*
D03*
Y340650D02*
D03*
X87500Y334350D02*
D03*
Y340650D02*
D03*
X97500Y334350D02*
D03*
Y340650D02*
D03*
X117500Y334350D02*
D03*
Y340650D02*
D03*
X127500Y334350D02*
D03*
Y340650D02*
D03*
X137500Y334350D02*
D03*
Y340650D02*
D03*
D16*
X527157Y318819D02*
D03*
X548811D02*
D03*
Y353858D02*
D03*
X527157D02*
D03*
D17*
Y342638D02*
D03*
Y339488D02*
D03*
Y336339D02*
D03*
Y333189D02*
D03*
Y330039D02*
D03*
D18*
X172350Y180000D02*
D03*
X178650D02*
D03*
X375850Y219000D02*
D03*
X382150D02*
D03*
Y207000D02*
D03*
X375850D02*
D03*
Y213000D02*
D03*
X382150D02*
D03*
X375850Y201000D02*
D03*
X382150D02*
D03*
X63150Y190000D02*
D03*
X56850D02*
D03*
X63150Y180000D02*
D03*
X56850D02*
D03*
X86850Y165000D02*
D03*
X93150D02*
D03*
X63150Y170000D02*
D03*
X56850D02*
D03*
X86850Y155000D02*
D03*
X93150D02*
D03*
X63150Y160000D02*
D03*
X56850D02*
D03*
X86850Y145000D02*
D03*
X93150D02*
D03*
X63150Y150000D02*
D03*
X56850D02*
D03*
X86850Y135000D02*
D03*
X93150D02*
D03*
X63150Y140000D02*
D03*
X56850D02*
D03*
X63150Y130000D02*
D03*
X56850D02*
D03*
X63150Y120000D02*
D03*
X56850D02*
D03*
X255850Y181000D02*
D03*
X262150D02*
D03*
X172350Y186000D02*
D03*
X178650D02*
D03*
X255850Y175000D02*
D03*
X262150D02*
D03*
X255850Y169000D02*
D03*
X262150D02*
D03*
X172350Y174000D02*
D03*
X178650D02*
D03*
X255850Y163000D02*
D03*
X262150D02*
D03*
X172350Y168000D02*
D03*
X178650D02*
D03*
X255850Y157000D02*
D03*
X262150D02*
D03*
X172350Y162000D02*
D03*
X178650D02*
D03*
X255850Y151000D02*
D03*
X262150D02*
D03*
X172350Y156000D02*
D03*
X178650D02*
D03*
X172350Y150000D02*
D03*
X178650D02*
D03*
X172350Y144000D02*
D03*
X178650D02*
D03*
X502850Y276000D02*
D03*
X509150D02*
D03*
X443150Y306000D02*
D03*
X436850D02*
D03*
X436701Y312000D02*
D03*
X443000D02*
D03*
X443150Y300000D02*
D03*
X436850D02*
D03*
Y294000D02*
D03*
X443150D02*
D03*
X539150Y269500D02*
D03*
X532850D02*
D03*
X443150Y288000D02*
D03*
X436850D02*
D03*
X508150Y336000D02*
D03*
X501850D02*
D03*
X443150Y282000D02*
D03*
X436850D02*
D03*
X501850Y330000D02*
D03*
X508150D02*
D03*
X443150Y276000D02*
D03*
X436850D02*
D03*
X443150Y270000D02*
D03*
X436850D02*
D03*
X509150D02*
D03*
X502850D02*
D03*
X443150Y264000D02*
D03*
X436850D02*
D03*
X509150D02*
D03*
X502850D02*
D03*
X443150Y258000D02*
D03*
X436850D02*
D03*
X443150Y252000D02*
D03*
X436850D02*
D03*
X443150Y246000D02*
D03*
X436850D02*
D03*
X502850Y288000D02*
D03*
X509150D02*
D03*
X502850Y294000D02*
D03*
X509150D02*
D03*
X502850Y300000D02*
D03*
X509150D02*
D03*
Y282000D02*
D03*
X502850D02*
D03*
X217850Y253000D02*
D03*
X224150D02*
D03*
X217850Y247000D02*
D03*
X224150D02*
D03*
X217850Y241000D02*
D03*
X224150D02*
D03*
X281150Y239000D02*
D03*
X274850D02*
D03*
X281150Y245000D02*
D03*
X274850D02*
D03*
D19*
X208476Y180685D02*
D03*
X211626D02*
D03*
X214776D02*
D03*
X217925D02*
D03*
X221075D02*
D03*
X224224D02*
D03*
X227374D02*
D03*
X230524D02*
D03*
Y147315D02*
D03*
X227374D02*
D03*
X224224D02*
D03*
X221075D02*
D03*
X217925D02*
D03*
X214776D02*
D03*
X211626D02*
D03*
X208476D02*
D03*
D20*
X236185Y175024D02*
D03*
Y171874D02*
D03*
Y168724D02*
D03*
Y165575D02*
D03*
Y162425D02*
D03*
Y159276D02*
D03*
Y156126D02*
D03*
Y152976D02*
D03*
X202815D02*
D03*
Y156126D02*
D03*
Y159276D02*
D03*
Y162425D02*
D03*
Y165575D02*
D03*
Y168724D02*
D03*
Y171874D02*
D03*
Y175024D02*
D03*
D21*
X229000Y198850D02*
D03*
Y205150D02*
D03*
X215000D02*
D03*
Y198850D02*
D03*
X235000D02*
D03*
Y205150D02*
D03*
X209000D02*
D03*
Y198850D02*
D03*
X241000D02*
D03*
Y205150D02*
D03*
X203000D02*
D03*
Y198850D02*
D03*
X238000Y128150D02*
D03*
Y121850D02*
D03*
X232000Y128150D02*
D03*
Y121850D02*
D03*
X226000Y128150D02*
D03*
Y121850D02*
D03*
X220000Y128150D02*
D03*
Y121850D02*
D03*
X202000D02*
D03*
Y128150D02*
D03*
X214000D02*
D03*
Y121850D02*
D03*
X208000Y128150D02*
D03*
Y121850D02*
D03*
X465000Y341150D02*
D03*
Y334850D02*
D03*
X436000Y341150D02*
D03*
Y334850D02*
D03*
X163000Y271850D02*
D03*
Y278150D02*
D03*
X177500Y271850D02*
D03*
Y278150D02*
D03*
X191500Y271850D02*
D03*
Y278150D02*
D03*
D22*
X488780Y296634D02*
D03*
Y294075D02*
D03*
Y291516D02*
D03*
Y288957D02*
D03*
Y286398D02*
D03*
Y283839D02*
D03*
Y281280D02*
D03*
Y278720D02*
D03*
Y276161D02*
D03*
Y273602D02*
D03*
Y271043D02*
D03*
Y268484D02*
D03*
Y265925D02*
D03*
Y263366D02*
D03*
X461220D02*
D03*
Y265925D02*
D03*
Y268484D02*
D03*
Y271043D02*
D03*
Y273602D02*
D03*
Y276161D02*
D03*
Y278720D02*
D03*
Y281280D02*
D03*
Y283839D02*
D03*
Y286398D02*
D03*
Y288957D02*
D03*
Y291516D02*
D03*
Y294075D02*
D03*
Y296634D02*
D03*
D23*
X101024Y261516D02*
D03*
Y258957D02*
D03*
Y256398D02*
D03*
Y253839D02*
D03*
Y251280D02*
D03*
Y248720D02*
D03*
Y246161D02*
D03*
Y243602D02*
D03*
Y241043D02*
D03*
Y238484D02*
D03*
X128976D02*
D03*
Y241043D02*
D03*
Y243602D02*
D03*
Y246161D02*
D03*
Y248720D02*
D03*
Y251280D02*
D03*
Y253839D02*
D03*
Y256398D02*
D03*
Y258957D02*
D03*
Y261516D02*
D03*
D24*
X238433Y252677D02*
D03*
Y250118D02*
D03*
Y247559D02*
D03*
Y245000D02*
D03*
Y242441D02*
D03*
Y239882D02*
D03*
Y237323D02*
D03*
X261567D02*
D03*
Y239882D02*
D03*
Y242441D02*
D03*
Y245000D02*
D03*
Y247559D02*
D03*
Y250118D02*
D03*
Y252677D02*
D03*
M02*
