G04*
G04 #@! TF.GenerationSoftware,Altium Limited,Altium Designer,22.3.1 (43)*
G04*
G04 Layer_Color=32768*
%FSLAX25Y25*%
%MOIN*%
G70*
G04*
G04 #@! TF.SameCoordinates,3349D2AC-C315-450D-AF27-8CF08F727A17*
G04*
G04*
G04 #@! TF.FilePolarity,Positive*
G04*
G01*
G75*
%ADD58C,0.00394*%
%ADD59C,0.00197*%
D58*
X239925Y343150D02*
X243075D01*
Y336850D02*
Y343150D01*
X239925Y336850D02*
X243075D01*
X239925D02*
Y343150D01*
X341425D02*
X344575D01*
Y336850D02*
Y343150D01*
X341425Y336850D02*
X344575D01*
X341425D02*
Y343150D01*
X320425Y336850D02*
X323575D01*
X320425D02*
Y343150D01*
X323575D01*
Y336850D02*
Y343150D01*
X299925D02*
X303075D01*
Y336850D02*
Y343150D01*
X299925Y336850D02*
X303075D01*
X299925D02*
Y343150D01*
X256425D02*
X259575D01*
Y336850D02*
Y343150D01*
X256425Y336850D02*
X259575D01*
X256425D02*
Y343150D01*
X279425D02*
X282575D01*
Y336850D02*
Y343150D01*
X279425Y336850D02*
X282575D01*
X279425D02*
Y343150D01*
X203425D02*
X206575D01*
Y336850D02*
Y343150D01*
X203425Y336850D02*
X206575D01*
X203425D02*
Y343150D01*
X218425D02*
X221575D01*
Y336850D02*
Y343150D01*
X218425Y336850D02*
X221575D01*
X218425D02*
Y343150D01*
X189925D02*
X193075D01*
Y336850D02*
Y343150D01*
X189925Y336850D02*
X193075D01*
X189925D02*
Y343150D01*
X161425D02*
X164575D01*
Y336850D02*
Y343150D01*
X161425Y336850D02*
X164575D01*
X161425D02*
Y343150D01*
X175925Y336850D02*
X179075D01*
X175925D02*
Y343150D01*
X179075D01*
Y336850D02*
Y343150D01*
X135925D02*
X139075D01*
Y336850D02*
Y343150D01*
X135925Y336850D02*
X139075D01*
X135925D02*
Y343150D01*
X95925D02*
X99075D01*
Y336850D02*
Y343150D01*
X95925Y336850D02*
X99075D01*
X95925D02*
Y343150D01*
X85925D02*
X89075D01*
Y336850D02*
Y343150D01*
X85925Y336850D02*
X89075D01*
X85925D02*
Y343150D01*
X75925D02*
X79075D01*
Y336850D02*
Y343150D01*
X75925Y336850D02*
X79075D01*
X75925D02*
Y343150D01*
X125925D02*
X129075D01*
Y336850D02*
Y343150D01*
X125925Y336850D02*
X129075D01*
X125925D02*
Y343150D01*
X115925D02*
X119075D01*
Y336850D02*
Y343150D01*
X115925Y336850D02*
X119075D01*
X115925D02*
Y343150D01*
X105925D02*
X109075D01*
Y336850D02*
Y343150D01*
X105925Y336850D02*
X109075D01*
X105925D02*
Y343150D01*
X145925D02*
X149075D01*
Y336850D02*
Y343150D01*
X145925Y336850D02*
X149075D01*
X145925D02*
Y343150D01*
X213425Y167850D02*
Y174150D01*
Y167850D02*
X216575D01*
Y174150D01*
X213425D02*
X216575D01*
X222575Y155850D02*
Y162150D01*
X219425D02*
X222575D01*
X219425Y155850D02*
Y162150D01*
Y155850D02*
X222575D01*
X207425Y167850D02*
Y174150D01*
Y167850D02*
X210575D01*
Y174150D01*
X207425D02*
X210575D01*
X216575Y155850D02*
Y162150D01*
X213425D02*
X216575D01*
X213425Y155850D02*
Y162150D01*
Y155850D02*
X216575D01*
X204575D02*
Y162150D01*
X201425D02*
X204575D01*
X201425Y155850D02*
Y162150D01*
Y155850D02*
X204575D01*
X210575D02*
Y162150D01*
X207425D02*
X210575D01*
X207425Y155850D02*
Y162150D01*
Y155850D02*
X210575D01*
X172350Y181575D02*
X178650D01*
Y178425D02*
Y181575D01*
X172350Y178425D02*
X178650D01*
X172350D02*
Y181575D01*
X375850Y220575D02*
X382150D01*
Y217425D02*
Y220575D01*
X375850Y217425D02*
X382150D01*
X375850D02*
Y220575D01*
Y205425D02*
X382150D01*
X375850D02*
Y208575D01*
X382150D01*
Y205425D02*
Y208575D01*
X375850Y214575D02*
X382150D01*
Y211425D02*
Y214575D01*
X375850Y211425D02*
X382150D01*
X375850D02*
Y214575D01*
Y202575D02*
X382150D01*
Y199425D02*
Y202575D01*
X375850Y199425D02*
X382150D01*
X375850D02*
Y202575D01*
X56850Y188425D02*
X63150D01*
X56850D02*
Y191575D01*
X63150D01*
Y188425D02*
Y191575D01*
X56850Y178425D02*
X63150D01*
X56850D02*
Y181575D01*
X63150D01*
Y178425D02*
Y181575D01*
X86850Y166575D02*
X93150D01*
Y163425D02*
Y166575D01*
X86850Y163425D02*
X93150D01*
X86850D02*
Y166575D01*
X56850Y168425D02*
X63150D01*
X56850D02*
Y171575D01*
X63150D01*
Y168425D02*
Y171575D01*
X86850Y156575D02*
X93150D01*
Y153425D02*
Y156575D01*
X86850Y153425D02*
X93150D01*
X86850D02*
Y156575D01*
X56850Y158425D02*
X63150D01*
X56850D02*
Y161575D01*
X63150D01*
Y158425D02*
Y161575D01*
X86850Y146575D02*
X93150D01*
Y143425D02*
Y146575D01*
X86850Y143425D02*
X93150D01*
X86850D02*
Y146575D01*
X56850Y148425D02*
X63150D01*
X56850D02*
Y151575D01*
X63150D01*
Y148425D02*
Y151575D01*
X86850Y136575D02*
X93150D01*
Y133425D02*
Y136575D01*
X86850Y133425D02*
X93150D01*
X86850D02*
Y136575D01*
X56850Y138425D02*
X63150D01*
X56850D02*
Y141575D01*
X63150D01*
Y138425D02*
Y141575D01*
X56850Y128425D02*
X63150D01*
X56850D02*
Y131575D01*
X63150D01*
Y128425D02*
Y131575D01*
X56850Y118425D02*
X63150D01*
X56850D02*
Y121575D01*
X63150D01*
Y118425D02*
Y121575D01*
X227425Y198850D02*
Y205150D01*
X230575D01*
Y198850D02*
Y205150D01*
X227425Y198850D02*
X230575D01*
X216575D02*
Y205150D01*
X213425Y198850D02*
X216575D01*
X213425D02*
Y205150D01*
X216575D01*
X233425Y198850D02*
Y205150D01*
X236575D01*
Y198850D02*
Y205150D01*
X233425Y198850D02*
X236575D01*
X210575D02*
Y205150D01*
X207425Y198850D02*
X210575D01*
X207425D02*
Y205150D01*
X210575D01*
X239425Y198850D02*
Y205150D01*
X242575D01*
Y198850D02*
Y205150D01*
X239425Y198850D02*
X242575D01*
X204575D02*
Y205150D01*
X201425Y198850D02*
X204575D01*
X201425D02*
Y205150D01*
X204575D01*
X255850Y182575D02*
X262150D01*
Y179425D02*
Y182575D01*
X255850Y179425D02*
X262150D01*
X255850D02*
Y182575D01*
X172350Y187575D02*
X178650D01*
Y184425D02*
Y187575D01*
X172350Y184425D02*
X178650D01*
X172350D02*
Y187575D01*
X255850Y176575D02*
X262150D01*
Y173425D02*
Y176575D01*
X255850Y173425D02*
X262150D01*
X255850D02*
Y176575D01*
Y170575D02*
X262150D01*
Y167425D02*
Y170575D01*
X255850Y167425D02*
X262150D01*
X255850D02*
Y170575D01*
X172350Y175575D02*
X178650D01*
Y172425D02*
Y175575D01*
X172350Y172425D02*
X178650D01*
X172350D02*
Y175575D01*
X255850Y164575D02*
X262150D01*
Y161425D02*
Y164575D01*
X255850Y161425D02*
X262150D01*
X255850D02*
Y164575D01*
X172350Y169575D02*
X178650D01*
Y166425D02*
Y169575D01*
X172350Y166425D02*
X178650D01*
X172350D02*
Y169575D01*
X255850Y158575D02*
X262150D01*
Y155425D02*
Y158575D01*
X255850Y155425D02*
X262150D01*
X255850D02*
Y158575D01*
X172350Y163575D02*
X178650D01*
Y160425D02*
Y163575D01*
X172350Y160425D02*
X178650D01*
X172350D02*
Y163575D01*
X255850Y152575D02*
X262150D01*
Y149425D02*
Y152575D01*
X255850Y149425D02*
X262150D01*
X255850D02*
Y152575D01*
X239575Y121850D02*
Y128150D01*
X236425Y121850D02*
X239575D01*
X236425D02*
Y128150D01*
X239575D01*
X172350Y157575D02*
X178650D01*
Y154425D02*
Y157575D01*
X172350Y154425D02*
X178650D01*
X172350D02*
Y157575D01*
X233575Y121850D02*
Y128150D01*
X230425Y121850D02*
X233575D01*
X230425D02*
Y128150D01*
X233575D01*
X172350Y151575D02*
X178650D01*
Y148425D02*
Y151575D01*
X172350Y148425D02*
X178650D01*
X172350D02*
Y151575D01*
X227575Y121850D02*
Y128150D01*
X224425Y121850D02*
X227575D01*
X224425D02*
Y128150D01*
X227575D01*
X172350Y145575D02*
X178650D01*
Y142425D02*
Y145575D01*
X172350Y142425D02*
X178650D01*
X172350D02*
Y145575D01*
X221575Y121850D02*
Y128150D01*
X218425Y121850D02*
X221575D01*
X218425D02*
Y128150D01*
X221575D01*
X200425Y121850D02*
Y128150D01*
X203575D01*
Y121850D02*
Y128150D01*
X200425Y121850D02*
X203575D01*
X215575D02*
Y128150D01*
X212425Y121850D02*
X215575D01*
X212425D02*
Y128150D01*
X215575D01*
X209575Y121850D02*
Y128150D01*
X206425Y121850D02*
X209575D01*
X206425D02*
Y128150D01*
X209575D01*
X466575Y334850D02*
Y341150D01*
X463425Y334850D02*
X466575D01*
X463425D02*
Y341150D01*
X466575D01*
X437575Y334850D02*
Y341150D01*
X434425Y334850D02*
X437575D01*
X434425D02*
Y341150D01*
X437575D01*
X502850Y277575D02*
X509150D01*
Y274425D02*
Y277575D01*
X502850Y274425D02*
X509150D01*
X502850D02*
Y277575D01*
X436850Y304425D02*
X443150D01*
X436850D02*
Y307575D01*
X443150D01*
Y304425D02*
Y307575D01*
X436701Y313575D02*
X443000D01*
Y310425D02*
Y313575D01*
X436701Y310425D02*
X443000D01*
X436701D02*
Y313575D01*
X436850Y298425D02*
X443150D01*
X436850D02*
Y301575D01*
X443150D01*
Y298425D02*
Y301575D01*
X436850Y295575D02*
X443150D01*
Y292425D02*
Y295575D01*
X436850Y292425D02*
X443150D01*
X436850D02*
Y295575D01*
X532850Y267925D02*
X539150D01*
X532850D02*
Y271075D01*
X539150D01*
Y267925D02*
Y271075D01*
X436850Y286425D02*
X443150D01*
X436850D02*
Y289575D01*
X443150D01*
Y286425D02*
Y289575D01*
X501850Y334425D02*
X508150D01*
X501850D02*
Y337575D01*
X508150D01*
Y334425D02*
Y337575D01*
X436850Y280425D02*
X443150D01*
X436850D02*
Y283575D01*
X443150D01*
Y280425D02*
Y283575D01*
X501850Y331575D02*
X508150D01*
Y328425D02*
Y331575D01*
X501850Y328425D02*
X508150D01*
X501850D02*
Y331575D01*
X436850Y274425D02*
X443150D01*
X436850D02*
Y277575D01*
X443150D01*
Y274425D02*
Y277575D01*
X436850Y268425D02*
X443150D01*
X436850D02*
Y271575D01*
X443150D01*
Y268425D02*
Y271575D01*
X502850Y268425D02*
X509150D01*
X502850D02*
Y271575D01*
X509150D01*
Y268425D02*
Y271575D01*
X436850Y262425D02*
X443150D01*
X436850D02*
Y265575D01*
X443150D01*
Y262425D02*
Y265575D01*
X502850Y262425D02*
X509150D01*
X502850D02*
Y265575D01*
X509150D01*
Y262425D02*
Y265575D01*
X436850Y256425D02*
X443150D01*
X436850D02*
Y259575D01*
X443150D01*
Y256425D02*
Y259575D01*
X436850Y250425D02*
X443150D01*
X436850D02*
Y253575D01*
X443150D01*
Y250425D02*
Y253575D01*
X436850Y244425D02*
X443150D01*
X436850D02*
Y247575D01*
X443150D01*
Y244425D02*
Y247575D01*
X502850Y289575D02*
X509150D01*
Y286425D02*
Y289575D01*
X502850Y286425D02*
X509150D01*
X502850D02*
Y289575D01*
Y295575D02*
X509150D01*
Y292425D02*
Y295575D01*
X502850Y292425D02*
X509150D01*
X502850D02*
Y295575D01*
Y301575D02*
X509150D01*
Y298425D02*
Y301575D01*
X502850Y298425D02*
X509150D01*
X502850D02*
Y301575D01*
Y280425D02*
X509150D01*
X502850D02*
Y283575D01*
X509150D01*
Y280425D02*
Y283575D01*
X104567Y264173D02*
X125433D01*
Y235827D02*
Y264173D01*
X104567Y235827D02*
X125433D01*
X104567D02*
Y264173D01*
Y261614D02*
X107126Y264173D01*
X241339Y254843D02*
X258661D01*
Y235157D02*
Y254843D01*
X241339Y235157D02*
X258661D01*
X241339D02*
Y254843D01*
Y252283D02*
X243898Y254843D01*
X217850Y254575D02*
X224150D01*
Y251425D02*
Y254575D01*
X217850Y251425D02*
X224150D01*
X217850D02*
Y254575D01*
Y248575D02*
X224150D01*
Y245425D02*
Y248575D01*
X217850Y245425D02*
X224150D01*
X217850D02*
Y248575D01*
X161425Y271850D02*
Y278150D01*
X164575D01*
Y271850D02*
Y278150D01*
X161425Y271850D02*
X164575D01*
X217850Y242575D02*
X224150D01*
Y239425D02*
Y242575D01*
X217850Y239425D02*
X224150D01*
X217850D02*
Y242575D01*
X175925Y271850D02*
Y278150D01*
X179075D01*
Y271850D02*
Y278150D01*
X175925Y271850D02*
X179075D01*
X274850Y237425D02*
X281150D01*
X274850D02*
Y240575D01*
X281150D01*
Y237425D02*
Y240575D01*
X189925Y271850D02*
Y278150D01*
X193075D01*
Y271850D02*
Y278150D01*
X189925Y271850D02*
X193075D01*
X274850Y243425D02*
X281150D01*
X274850D02*
Y246575D01*
X281150D01*
Y243425D02*
Y246575D01*
D59*
X198929Y143429D02*
Y184571D01*
Y143429D02*
X240071D01*
Y184571D01*
X198929D02*
X240071D01*
X456890Y258346D02*
Y301654D01*
Y258346D02*
X493110D01*
Y301654D01*
X456890D02*
X493110D01*
M02*
