G04*
G04 #@! TF.GenerationSoftware,Altium Limited,Altium Designer,22.3.1 (43)*
G04*
G04 Layer_Color=12632256*
%FSLAX25Y25*%
%MOIN*%
G70*
G04*
G04 #@! TF.SameCoordinates,60FF7B14-72D9-4FEE-8752-AF75FF6C3092*
G04*
G04*
G04 #@! TF.FilePolarity,Positive*
G04*
G01*
G75*
%ADD38R,0.05906X0.05906*%
%ADD39C,0.05906*%
%ADD40R,0.05906X0.05906*%
%ADD41C,0.06000*%
%ADD42R,0.06000X0.06000*%
%ADD43C,0.20000*%
D38*
X540000Y140000D02*
D03*
Y270000D02*
D03*
X305000Y246000D02*
D03*
D39*
X540000Y90000D02*
D03*
Y130000D02*
D03*
Y80000D02*
D03*
Y120000D02*
D03*
Y70000D02*
D03*
Y110000D02*
D03*
Y60000D02*
D03*
Y100000D02*
D03*
Y50000D02*
D03*
X465000Y160000D02*
D03*
X425000D02*
D03*
X475000D02*
D03*
X435000D02*
D03*
X485000D02*
D03*
X445000D02*
D03*
X495000D02*
D03*
X455000D02*
D03*
X505000D02*
D03*
X465000Y51000D02*
D03*
X425000D02*
D03*
X475000D02*
D03*
X435000D02*
D03*
X485000D02*
D03*
X445000D02*
D03*
X495000D02*
D03*
X455000D02*
D03*
X505000D02*
D03*
X540000Y220000D02*
D03*
Y260000D02*
D03*
Y210000D02*
D03*
Y250000D02*
D03*
Y200000D02*
D03*
Y240000D02*
D03*
Y190000D02*
D03*
Y230000D02*
D03*
Y180000D02*
D03*
X453000Y271000D02*
D03*
X413000D02*
D03*
X463000D02*
D03*
X423000D02*
D03*
X473000D02*
D03*
X433000D02*
D03*
X483000D02*
D03*
X443000D02*
D03*
X493000D02*
D03*
X542500Y295000D02*
D03*
X428000D02*
D03*
X315000Y226000D02*
D03*
X305000D02*
D03*
X315000Y236000D02*
D03*
X305000D02*
D03*
X315000Y246000D02*
D03*
D40*
X415000Y160000D02*
D03*
Y51000D02*
D03*
X403000Y271000D02*
D03*
X542500Y305000D02*
D03*
X428000D02*
D03*
X90000Y175000D02*
D03*
X259000Y250000D02*
D03*
Y209000D02*
D03*
Y229000D02*
D03*
X272000Y134000D02*
D03*
X135000Y161000D02*
D03*
Y141000D02*
D03*
X358000Y124000D02*
D03*
X372000D02*
D03*
X386000Y158000D02*
D03*
Y140000D02*
D03*
D41*
X30000Y120000D02*
D03*
Y130000D02*
D03*
Y140000D02*
D03*
Y150000D02*
D03*
Y160000D02*
D03*
Y170000D02*
D03*
Y180000D02*
D03*
X20000Y120000D02*
D03*
Y130000D02*
D03*
Y140000D02*
D03*
Y150000D02*
D03*
Y160000D02*
D03*
Y170000D02*
D03*
X30000Y190000D02*
D03*
X20000Y180000D02*
D03*
D42*
Y190000D02*
D03*
D43*
Y380000D02*
D03*
Y20000D02*
D03*
X540000D02*
D03*
Y380000D02*
D03*
M02*
