G04*
G04 #@! TF.GenerationSoftware,Altium Limited,Altium Designer,22.3.1 (43)*
G04*
G04 Layer_Physical_Order=3*
G04 Layer_Color=128*
%FSLAX25Y25*%
%MOIN*%
G70*
G04*
G04 #@! TF.SameCoordinates,60FF7B14-72D9-4FEE-8752-AF75FF6C3092*
G04*
G04*
G04 #@! TF.FilePolarity,Negative*
G04*
G01*
G75*
%ADD34C,0.06800*%
%ADD45C,0.04000*%
%ADD46C,0.07543*%
G04:AMPARAMS|DCode=47|XSize=95.433mil|YSize=95.433mil|CornerRadius=0mil|HoleSize=0mil|Usage=FLASHONLY|Rotation=0.000|XOffset=0mil|YOffset=0mil|HoleType=Round|Shape=Relief|Width=10mil|Gap=10mil|Entries=4|*
%AMTHD47*
7,0,0,0.09543,0.07543,0.01000,45*
%
%ADD47THD47*%
%ADD48C,0.07150*%
G04:AMPARAMS|DCode=49|XSize=91.5mil|YSize=91.5mil|CornerRadius=0mil|HoleSize=0mil|Usage=FLASHONLY|Rotation=0.000|XOffset=0mil|YOffset=0mil|HoleType=Round|Shape=Relief|Width=10mil|Gap=10mil|Entries=4|*
%AMTHD49*
7,0,0,0.09150,0.07150,0.01000,45*
%
%ADD49THD49*%
%ADD50C,0.21000*%
G04:AMPARAMS|DCode=51|XSize=88mil|YSize=88mil|CornerRadius=0mil|HoleSize=0mil|Usage=FLASHONLY|Rotation=0.000|XOffset=0mil|YOffset=0mil|HoleType=Round|Shape=Relief|Width=10mil|Gap=10mil|Entries=4|*
%AMTHD51*
7,0,0,0.08800,0.06800,0.01000,45*
%
%ADD51THD51*%
D34*
X508000Y243000D02*
D03*
Y316000D02*
D03*
Y259000D02*
D03*
X484000Y300000D02*
D03*
Y319000D02*
D03*
X315000Y265000D02*
D03*
X359000Y297000D02*
D03*
X444000Y326000D02*
D03*
X314000Y277000D02*
D03*
X315000Y290000D02*
D03*
X524000Y145000D02*
D03*
X516000Y271000D02*
D03*
Y262000D02*
D03*
X50000Y200000D02*
D03*
X57000Y108000D02*
D03*
X65000Y206000D02*
D03*
X102000Y210000D02*
D03*
X147000Y223000D02*
D03*
X65000Y214000D02*
D03*
X45000D02*
D03*
X160000Y216000D02*
D03*
X114500Y205600D02*
D03*
X169000Y244000D02*
D03*
X59000Y235000D02*
D03*
X90000Y238500D02*
D03*
X166000Y235000D02*
D03*
X44000D02*
D03*
X38000Y229000D02*
D03*
X33000Y222000D02*
D03*
X61000D02*
D03*
X160000Y228000D02*
D03*
X67000D02*
D03*
X42000Y99000D02*
D03*
X35000Y104000D02*
D03*
X185000Y302000D02*
D03*
X133500Y185500D02*
D03*
X133900Y124600D02*
D03*
X206000Y230000D02*
D03*
X207000Y276000D02*
D03*
X244000Y278000D02*
D03*
X72661Y190000D02*
D03*
X100100Y178700D02*
D03*
X111000Y182000D02*
D03*
X276000Y208000D02*
D03*
X263500Y192000D02*
D03*
X329000Y208000D02*
D03*
X156000Y301000D02*
D03*
X379000Y308000D02*
D03*
X358000Y312000D02*
D03*
X469000Y282000D02*
D03*
X520000Y322000D02*
D03*
X378000Y251000D02*
D03*
X397000D02*
D03*
X381800Y202400D02*
D03*
X513000Y375000D02*
D03*
X527000D02*
D03*
X494500D02*
D03*
X480000D02*
D03*
X462000D02*
D03*
X444000D02*
D03*
X412000D02*
D03*
X398000D02*
D03*
X377000D02*
D03*
X368000D02*
D03*
X358000D02*
D03*
X349000D02*
D03*
X340000D02*
D03*
X331000D02*
D03*
X322000D02*
D03*
X305000D02*
D03*
X295000D02*
D03*
X285000D02*
D03*
X275000D02*
D03*
X265000D02*
D03*
X255000D02*
D03*
X245000D02*
D03*
X235000D02*
D03*
X220000D02*
D03*
X207500D02*
D03*
X193000D02*
D03*
X178000D02*
D03*
X163000D02*
D03*
X145000D02*
D03*
X135000D02*
D03*
X125000D02*
D03*
X115000D02*
D03*
X105000D02*
D03*
X95000D02*
D03*
X85000D02*
D03*
X75000D02*
D03*
X403000Y198500D02*
D03*
X485000Y131500D02*
D03*
X454500D02*
D03*
X174500Y24500D02*
D03*
X429500Y214000D02*
D03*
X481000Y105500D02*
D03*
X146500Y20000D02*
D03*
X180000Y92500D02*
D03*
X209200Y83000D02*
D03*
X117000Y110500D02*
D03*
X229000Y109000D02*
D03*
X200500Y101500D02*
D03*
X481500Y253500D02*
D03*
X403500Y105000D02*
D03*
X392000D02*
D03*
X503000Y145000D02*
D03*
X478500Y193000D02*
D03*
X465000Y188500D02*
D03*
X463700Y196550D02*
D03*
X249000Y121000D02*
D03*
X250500Y130500D02*
D03*
X292500Y113000D02*
D03*
X280000Y177000D02*
D03*
X278300Y167000D02*
D03*
X338000Y83000D02*
D03*
X317000Y81500D02*
D03*
X296500Y70500D02*
D03*
X151500Y152500D02*
D03*
X146000Y158500D02*
D03*
X484000Y214500D02*
D03*
X495000Y105500D02*
D03*
X519000D02*
D03*
X507500Y105000D02*
D03*
X429500Y91500D02*
D03*
X430000Y79000D02*
D03*
X500500Y78000D02*
D03*
X415450Y93000D02*
D03*
X450500Y168500D02*
D03*
X441000Y172500D02*
D03*
X200500Y14500D02*
D03*
X212000Y171000D02*
D03*
X327000Y185000D02*
D03*
X369052Y202203D02*
D03*
X365000Y195000D02*
D03*
X331500Y195600D02*
D03*
X238200Y220000D02*
D03*
X331718Y152300D02*
D03*
X290500Y146500D02*
D03*
X324000Y112500D02*
D03*
X314000Y119000D02*
D03*
X414500Y113000D02*
D03*
X429000Y101500D02*
D03*
X415500Y34000D02*
D03*
X320500Y16500D02*
D03*
X295500Y37000D02*
D03*
X294500Y47500D02*
D03*
X268500Y52000D02*
D03*
X80000Y7000D02*
D03*
X342000Y19000D02*
D03*
X270000Y16000D02*
D03*
X54000Y14000D02*
D03*
X43500Y32000D02*
D03*
X54500Y56500D02*
D03*
X42500Y55000D02*
D03*
X75000Y123000D02*
D03*
X108500Y114500D02*
D03*
X96500Y83500D02*
D03*
X189000Y68853D02*
D03*
X248000Y57500D02*
D03*
X275000Y31000D02*
D03*
X263000Y19500D02*
D03*
X126500Y59000D02*
D03*
X162451Y75000D02*
D03*
X177700D02*
D03*
X102500Y65000D02*
D03*
X197500Y70000D02*
D03*
X206500D02*
D03*
X223400Y75937D02*
D03*
X116500Y189500D02*
D03*
X148471Y119000D02*
D03*
X87500Y270500D02*
D03*
X63000Y321000D02*
D03*
X152000Y321500D02*
D03*
X81800Y182000D02*
D03*
X184700Y208300D02*
D03*
X189400Y202400D02*
D03*
X74600Y174000D02*
D03*
X152900Y183000D02*
D03*
X67600Y151400D02*
D03*
X158900Y113700D02*
D03*
X84300D02*
D03*
X137400Y253839D02*
D03*
X188700Y177400D02*
D03*
X149100Y128400D02*
D03*
X78970Y161500D02*
D03*
X199900Y113900D02*
D03*
X163000Y262300D02*
D03*
X175100Y260600D02*
D03*
X197600Y125327D02*
D03*
X139100Y105500D02*
D03*
X284600Y97400D02*
D03*
X444000Y64800D02*
D03*
X475500Y68000D02*
D03*
X372200Y106700D02*
D03*
X487000Y23400D02*
D03*
X294400Y95100D02*
D03*
X374312Y97000D02*
D03*
X501300Y91150D02*
D03*
X292900Y88000D02*
D03*
X433900Y66800D02*
D03*
X324300Y121100D02*
D03*
X475000Y125600D02*
D03*
X309700Y132800D02*
D03*
X403000Y189900D02*
D03*
X435000Y124300D02*
D03*
X44500Y19000D02*
D03*
X524400Y184400D02*
D03*
X528400Y178400D02*
D03*
X115200Y87100D02*
D03*
X443100Y79200D02*
D03*
X415400Y217800D02*
D03*
X280600Y20000D02*
D03*
X146400Y52100D02*
D03*
X421400Y209100D02*
D03*
X356000Y222500D02*
D03*
X294900Y181200D02*
D03*
X453000Y210400D02*
D03*
X268000Y152000D02*
D03*
X394000Y210700D02*
D03*
X372500Y180600D02*
D03*
X366000Y209800D02*
D03*
X387500Y36800D02*
D03*
X529700Y80900D02*
D03*
X290700Y19000D02*
D03*
X81600Y140000D02*
D03*
X106100Y160500D02*
D03*
X253100Y138000D02*
D03*
X267650Y177950D02*
D03*
X366700Y141300D02*
D03*
X293100Y131400D02*
D03*
X331300Y135937D02*
D03*
X500000Y180850D02*
D03*
X458800Y121300D02*
D03*
X341100Y128500D02*
D03*
X132408Y93600D02*
D03*
X151500Y194000D02*
D03*
X70700Y140000D02*
D03*
X250100Y225300D02*
D03*
X190800Y194900D02*
D03*
X147200Y259800D02*
D03*
X466000Y69000D02*
D03*
X254150Y97700D02*
D03*
X369200Y82800D02*
D03*
X381500Y49700D02*
D03*
X295400Y155400D02*
D03*
X486300Y67000D02*
D03*
X436000Y106325D02*
D03*
X325400Y153100D02*
D03*
X351100Y133500D02*
D03*
X472000Y205500D02*
D03*
X383033Y79000D02*
D03*
X328408Y146200D02*
D03*
X446700Y197150D02*
D03*
X434000D02*
D03*
X416700Y195550D02*
D03*
X473500Y91100D02*
D03*
X457200Y96300D02*
D03*
X144000Y31000D02*
D03*
X520000Y203000D02*
D03*
X508000Y209900D02*
D03*
X497000Y214200D02*
D03*
X461900Y221250D02*
D03*
X440000Y212900D02*
D03*
X465575Y105300D02*
D03*
X450000Y105600D02*
D03*
X244000Y146000D02*
D03*
D45*
X0Y0D02*
X560000D01*
Y400000D01*
X0D02*
X560000D01*
X0Y0D02*
Y400000D01*
D46*
X540000Y90000D02*
D03*
Y130000D02*
D03*
Y80000D02*
D03*
Y120000D02*
D03*
Y70000D02*
D03*
Y110000D02*
D03*
Y60000D02*
D03*
Y100000D02*
D03*
Y50000D02*
D03*
X465000Y160000D02*
D03*
X425000D02*
D03*
X475000D02*
D03*
X435000D02*
D03*
X485000D02*
D03*
X445000D02*
D03*
X495000D02*
D03*
X455000D02*
D03*
X505000D02*
D03*
X465000Y51000D02*
D03*
X425000D02*
D03*
X475000D02*
D03*
X435000D02*
D03*
X485000D02*
D03*
X445000D02*
D03*
X495000D02*
D03*
X455000D02*
D03*
X505000D02*
D03*
X540000Y220000D02*
D03*
Y260000D02*
D03*
Y210000D02*
D03*
Y250000D02*
D03*
Y200000D02*
D03*
Y240000D02*
D03*
Y190000D02*
D03*
Y230000D02*
D03*
Y180000D02*
D03*
X453000Y271000D02*
D03*
X413000D02*
D03*
X463000D02*
D03*
X423000D02*
D03*
X473000D02*
D03*
X433000D02*
D03*
X483000D02*
D03*
X443000D02*
D03*
X493000D02*
D03*
X542500Y295000D02*
D03*
Y305000D02*
D03*
X428000Y295000D02*
D03*
Y305000D02*
D03*
X315000Y226000D02*
D03*
X305000D02*
D03*
X315000Y236000D02*
D03*
X305000D02*
D03*
Y246000D02*
D03*
X90000Y175000D02*
D03*
X259000Y250000D02*
D03*
Y209000D02*
D03*
Y229000D02*
D03*
X272000Y134000D02*
D03*
X135000Y161000D02*
D03*
Y141000D02*
D03*
X358000Y124000D02*
D03*
X372000D02*
D03*
X386000Y158000D02*
D03*
Y140000D02*
D03*
D47*
X540000D02*
D03*
X415000Y160000D02*
D03*
Y51000D02*
D03*
X540000Y270000D02*
D03*
X403000Y271000D02*
D03*
X315000Y246000D02*
D03*
D48*
X30000Y120000D02*
D03*
Y130000D02*
D03*
Y140000D02*
D03*
Y150000D02*
D03*
Y160000D02*
D03*
Y170000D02*
D03*
Y180000D02*
D03*
X20000Y120000D02*
D03*
Y130000D02*
D03*
Y140000D02*
D03*
Y150000D02*
D03*
Y160000D02*
D03*
Y170000D02*
D03*
X30000Y190000D02*
D03*
X20000Y180000D02*
D03*
D49*
Y190000D02*
D03*
D50*
Y380000D02*
D03*
Y20000D02*
D03*
X540000D02*
D03*
Y380000D02*
D03*
D51*
X472000Y237000D02*
D03*
X139000Y269000D02*
D03*
X391000Y241000D02*
D03*
X472000Y322000D02*
D03*
X387000Y317000D02*
D03*
X542000Y354000D02*
D03*
X314000Y314000D02*
D03*
X63000Y337000D02*
D03*
X212000Y161000D02*
D03*
X341500Y209500D02*
D03*
X326000Y162500D02*
D03*
X443500Y126000D02*
D03*
X360500Y51500D02*
D03*
X180942Y106000D02*
D03*
X514400Y131700D02*
D03*
X508300Y129700D02*
D03*
X336600Y117100D02*
D03*
X121750Y50400D02*
D03*
X223100Y166000D02*
D03*
X406900Y236400D02*
D03*
X244591Y265600D02*
D03*
X237679Y48500D02*
D03*
M02*
