G04*
G04 #@! TF.GenerationSoftware,Altium Limited,Altium Designer,22.3.1 (43)*
G04*
G04 Layer_Color=255*
%FSLAX25Y25*%
%MOIN*%
G70*
G04*
G04 #@! TF.SameCoordinates,60FF7B14-72D9-4FEE-8752-AF75FF6C3092*
G04*
G04*
G04 #@! TF.FilePolarity,Positive*
G04*
G01*
G75*
%ADD16R,0.03150X0.03740*%
%ADD18R,0.03740X0.03150*%
%ADD38R,0.05906X0.05906*%
%ADD39C,0.05906*%
%ADD40R,0.05906X0.05906*%
%ADD41C,0.06000*%
%ADD42R,0.06000X0.06000*%
%ADD43C,0.20000*%
D16*
X223150Y179000D02*
D03*
X216850D02*
D03*
Y185000D02*
D03*
X223150D02*
D03*
X203850Y152000D02*
D03*
X210150D02*
D03*
X203850Y146000D02*
D03*
X210150D02*
D03*
X229150Y152000D02*
D03*
X222850D02*
D03*
X229150Y146000D02*
D03*
X222850D02*
D03*
D18*
X527000Y336850D02*
D03*
Y343150D02*
D03*
X513000D02*
D03*
Y336850D02*
D03*
X494500D02*
D03*
Y343150D02*
D03*
X480000Y336850D02*
D03*
Y343150D02*
D03*
X444000Y336850D02*
D03*
Y343150D02*
D03*
X462000Y336850D02*
D03*
Y343150D02*
D03*
X428000Y336850D02*
D03*
Y343150D02*
D03*
X398000Y336850D02*
D03*
Y343150D02*
D03*
X412000Y336850D02*
D03*
Y343150D02*
D03*
X358500Y336850D02*
D03*
Y343150D02*
D03*
X377000Y336850D02*
D03*
Y343150D02*
D03*
X368000Y336850D02*
D03*
Y343150D02*
D03*
X349000Y336850D02*
D03*
Y343150D02*
D03*
X331000Y336850D02*
D03*
Y343150D02*
D03*
X322000Y336850D02*
D03*
Y343150D02*
D03*
X340000Y336850D02*
D03*
Y343150D02*
D03*
X245000Y336850D02*
D03*
Y343150D02*
D03*
X265000Y336850D02*
D03*
Y343150D02*
D03*
X255000Y336850D02*
D03*
Y343150D02*
D03*
X275000Y336850D02*
D03*
Y343150D02*
D03*
X305000Y336850D02*
D03*
Y343150D02*
D03*
X295000Y336850D02*
D03*
Y343150D02*
D03*
X285000Y336850D02*
D03*
Y343150D02*
D03*
X235000Y336850D02*
D03*
Y343150D02*
D03*
X163000Y336850D02*
D03*
Y343150D02*
D03*
X220000Y336850D02*
D03*
Y343150D02*
D03*
X178000D02*
D03*
Y336850D02*
D03*
X193000D02*
D03*
Y343150D02*
D03*
X207500Y336850D02*
D03*
Y343150D02*
D03*
X145000Y336850D02*
D03*
Y343150D02*
D03*
X135000Y336850D02*
D03*
Y343150D02*
D03*
X125000Y336850D02*
D03*
Y343150D02*
D03*
X115000Y336850D02*
D03*
Y343150D02*
D03*
X75000Y336850D02*
D03*
Y343150D02*
D03*
X105000Y336850D02*
D03*
Y343150D02*
D03*
X95000Y336850D02*
D03*
Y343150D02*
D03*
X85000Y336850D02*
D03*
Y343150D02*
D03*
X466000Y91150D02*
D03*
Y84850D02*
D03*
X436000Y92150D02*
D03*
Y85850D02*
D03*
X408000Y91150D02*
D03*
Y84850D02*
D03*
X423000Y91150D02*
D03*
Y84850D02*
D03*
X495000D02*
D03*
Y91150D02*
D03*
X450000Y92150D02*
D03*
Y85850D02*
D03*
X457000Y197150D02*
D03*
Y190850D02*
D03*
X485000D02*
D03*
Y197150D02*
D03*
X395000D02*
D03*
Y190850D02*
D03*
X441000Y197150D02*
D03*
Y190850D02*
D03*
X427000Y197150D02*
D03*
Y190850D02*
D03*
X411000Y197150D02*
D03*
Y190850D02*
D03*
X480575Y118150D02*
D03*
Y111850D02*
D03*
X465575Y118150D02*
D03*
Y111850D02*
D03*
X518575Y118150D02*
D03*
Y111850D02*
D03*
X494575Y118150D02*
D03*
Y111850D02*
D03*
X507075Y118150D02*
D03*
Y111850D02*
D03*
X407575Y118150D02*
D03*
Y111850D02*
D03*
X449575Y118150D02*
D03*
Y111850D02*
D03*
X435575Y118150D02*
D03*
Y111850D02*
D03*
X422575Y118150D02*
D03*
Y111850D02*
D03*
X392575Y118150D02*
D03*
Y111850D02*
D03*
X496000Y227550D02*
D03*
Y221250D02*
D03*
X484000Y227550D02*
D03*
Y221250D02*
D03*
X508000Y227550D02*
D03*
Y221250D02*
D03*
X520000Y227550D02*
D03*
Y221250D02*
D03*
X394000Y227550D02*
D03*
Y221250D02*
D03*
X426000Y227550D02*
D03*
Y221250D02*
D03*
X410000Y227550D02*
D03*
Y221250D02*
D03*
X440000Y227550D02*
D03*
Y221250D02*
D03*
X456000Y227550D02*
D03*
Y221250D02*
D03*
X472000Y227550D02*
D03*
Y221250D02*
D03*
D38*
X540000Y140000D02*
D03*
Y270000D02*
D03*
X305000Y246000D02*
D03*
D39*
X540000Y90000D02*
D03*
Y130000D02*
D03*
Y80000D02*
D03*
Y120000D02*
D03*
Y70000D02*
D03*
Y110000D02*
D03*
Y60000D02*
D03*
Y100000D02*
D03*
Y50000D02*
D03*
X465000Y160000D02*
D03*
X425000D02*
D03*
X475000D02*
D03*
X435000D02*
D03*
X485000D02*
D03*
X445000D02*
D03*
X495000D02*
D03*
X455000D02*
D03*
X505000D02*
D03*
X465000Y51000D02*
D03*
X425000D02*
D03*
X475000D02*
D03*
X435000D02*
D03*
X485000D02*
D03*
X445000D02*
D03*
X495000D02*
D03*
X455000D02*
D03*
X505000D02*
D03*
X540000Y220000D02*
D03*
Y260000D02*
D03*
Y210000D02*
D03*
Y250000D02*
D03*
Y200000D02*
D03*
Y240000D02*
D03*
Y190000D02*
D03*
Y230000D02*
D03*
Y180000D02*
D03*
X453000Y271000D02*
D03*
X413000D02*
D03*
X463000D02*
D03*
X423000D02*
D03*
X473000D02*
D03*
X433000D02*
D03*
X483000D02*
D03*
X443000D02*
D03*
X493000D02*
D03*
X542500Y295000D02*
D03*
X428000D02*
D03*
X315000Y226000D02*
D03*
X305000D02*
D03*
X315000Y236000D02*
D03*
X305000D02*
D03*
X315000Y246000D02*
D03*
D40*
X415000Y160000D02*
D03*
Y51000D02*
D03*
X403000Y271000D02*
D03*
X542500Y305000D02*
D03*
X428000D02*
D03*
X90000Y175000D02*
D03*
X259000Y250000D02*
D03*
Y209000D02*
D03*
Y229000D02*
D03*
X272000Y134000D02*
D03*
X135000Y161000D02*
D03*
Y141000D02*
D03*
X358000Y124000D02*
D03*
X372000D02*
D03*
X386000Y158000D02*
D03*
Y140000D02*
D03*
D41*
X30000Y120000D02*
D03*
Y130000D02*
D03*
Y140000D02*
D03*
Y150000D02*
D03*
Y160000D02*
D03*
Y170000D02*
D03*
Y180000D02*
D03*
X20000Y120000D02*
D03*
Y130000D02*
D03*
Y140000D02*
D03*
Y150000D02*
D03*
Y160000D02*
D03*
Y170000D02*
D03*
X30000Y190000D02*
D03*
X20000Y180000D02*
D03*
D42*
Y190000D02*
D03*
D43*
Y380000D02*
D03*
Y20000D02*
D03*
X540000D02*
D03*
Y380000D02*
D03*
M02*
