G04*
G04 #@! TF.GenerationSoftware,Altium Limited,Altium Designer,22.3.1 (43)*
G04*
G04 Layer_Color=32896*
%FSLAX25Y25*%
%MOIN*%
G70*
G04*
G04 #@! TF.SameCoordinates,60FF7B14-72D9-4FEE-8752-AF75FF6C3092*
G04*
G04*
G04 #@! TF.FilePolarity,Positive*
G04*
G01*
G75*
%ADD11C,0.01000*%
%ADD12C,0.00500*%
D11*
X483001Y173336D02*
X486999D01*
Y175335D01*
X486333Y176001D01*
X485000D01*
X484334Y175335D01*
Y173336D01*
Y174668D02*
X483001Y176001D01*
Y180000D02*
Y177334D01*
X485666Y180000D01*
X486333D01*
X486999Y179333D01*
Y178001D01*
X486333Y177334D01*
X483001Y183999D02*
Y181333D01*
X485666Y183999D01*
X486333D01*
X486999Y183332D01*
Y181999D01*
X486333Y181333D01*
X483001Y185332D02*
Y186664D01*
Y185998D01*
X486999D01*
X486333Y185332D01*
X455001Y173002D02*
X458999D01*
Y175002D01*
X458333Y175668D01*
X457000D01*
X456333Y175002D01*
Y173002D01*
Y174335D02*
X455001Y175668D01*
Y179667D02*
Y177001D01*
X457666Y179667D01*
X458333D01*
X458999Y179000D01*
Y177667D01*
X458333Y177001D01*
X455001Y181000D02*
Y182333D01*
Y181666D01*
X458999D01*
X458333Y181000D01*
Y184332D02*
X458999Y184998D01*
Y186331D01*
X458333Y186998D01*
X457666D01*
X457000Y186331D01*
X456333Y186998D01*
X455667D01*
X455001Y186331D01*
Y184998D01*
X455667Y184332D01*
X456333D01*
X457000Y184998D01*
X457666Y184332D01*
X458333D01*
X457000Y184998D02*
Y186331D01*
X439001Y173002D02*
X442999D01*
Y175002D01*
X442333Y175668D01*
X441000D01*
X440334Y175002D01*
Y173002D01*
Y174335D02*
X439001Y175668D01*
Y179667D02*
Y177001D01*
X441666Y179667D01*
X442333D01*
X442999Y179000D01*
Y177667D01*
X442333Y177001D01*
X439001Y181000D02*
Y182333D01*
Y181666D01*
X442999D01*
X442333Y181000D01*
X442999Y184332D02*
Y186998D01*
X442333D01*
X439667Y184332D01*
X439001D01*
X425001Y173002D02*
X428999D01*
Y175002D01*
X428333Y175668D01*
X427000D01*
X426334Y175002D01*
Y173002D01*
Y174335D02*
X425001Y175668D01*
Y179667D02*
Y177001D01*
X427666Y179667D01*
X428333D01*
X428999Y179000D01*
Y177667D01*
X428333Y177001D01*
X425001Y181000D02*
Y182333D01*
Y181666D01*
X428999D01*
X428333Y181000D01*
X428999Y186998D02*
X428333Y185665D01*
X427000Y184332D01*
X425667D01*
X425001Y184998D01*
Y186331D01*
X425667Y186998D01*
X426334D01*
X427000Y186331D01*
Y184332D01*
X409001Y173002D02*
X412999D01*
Y175002D01*
X412333Y175668D01*
X411000D01*
X410333Y175002D01*
Y173002D01*
Y174335D02*
X409001Y175668D01*
Y179667D02*
Y177001D01*
X411666Y179667D01*
X412333D01*
X412999Y179000D01*
Y177667D01*
X412333Y177001D01*
X409001Y181000D02*
Y182333D01*
Y181666D01*
X412999D01*
X412333Y181000D01*
X412999Y186998D02*
Y184332D01*
X411000D01*
X411666Y185665D01*
Y186331D01*
X411000Y186998D01*
X409667D01*
X409001Y186331D01*
Y184998D01*
X409667Y184332D01*
X393001Y173002D02*
X396999D01*
Y175002D01*
X396333Y175668D01*
X395000D01*
X394334Y175002D01*
Y173002D01*
Y174335D02*
X393001Y175668D01*
Y179667D02*
Y177001D01*
X395666Y179667D01*
X396333D01*
X396999Y179000D01*
Y177667D01*
X396333Y177001D01*
X393001Y181000D02*
Y182333D01*
Y181666D01*
X396999D01*
X396333Y181000D01*
X393001Y186331D02*
X396999D01*
X395000Y184332D01*
Y186998D01*
X529312Y205940D02*
X531606Y209215D01*
X529968Y210362D01*
X529040Y210198D01*
X528275Y209106D01*
X528439Y208178D01*
X530077Y207031D01*
X528985Y207796D02*
X527129Y207469D01*
X523853Y209762D02*
X526037Y208233D01*
X525382Y211946D01*
X525765Y212492D01*
X526693Y212655D01*
X527784Y211891D01*
X527948Y210963D01*
X524673Y213256D02*
X524509Y214185D01*
X523417Y214949D01*
X522489Y214785D01*
X520960Y212602D01*
X521124Y211673D01*
X522215Y210909D01*
X523144Y211073D01*
X524673Y213256D01*
X519486Y212820D02*
X518394Y213585D01*
X518940Y213203D01*
X521233Y216478D01*
X521397Y215550D01*
X517858Y205557D02*
X520152Y208833D01*
X518514Y209980D01*
X517586Y209816D01*
X516821Y208724D01*
X516985Y207796D01*
X518623Y206649D01*
X517531Y207414D02*
X515675Y207086D01*
X512399Y209380D02*
X514583Y207851D01*
X513928Y211564D01*
X514310Y212110D01*
X515239Y212273D01*
X516330Y211509D01*
X516494Y210580D01*
X513219Y212874D02*
X513055Y213802D01*
X511963Y214567D01*
X511035Y214403D01*
X509506Y212220D01*
X509669Y211291D01*
X510761Y210527D01*
X511690Y210690D01*
X513219Y212874D01*
X509943Y215168D02*
X509779Y216096D01*
X508687Y216860D01*
X507759Y216697D01*
X506230Y214513D01*
X506394Y213585D01*
X507486Y212820D01*
X508414Y212984D01*
X509943Y215168D01*
X505585Y205749D02*
X507879Y209024D01*
X506241Y210171D01*
X505313Y210007D01*
X504549Y208915D01*
X504712Y207987D01*
X506350Y206840D01*
X505258Y207605D02*
X503402Y207277D01*
X502310Y208042D02*
X501218Y208807D01*
X501764Y208424D01*
X504058Y211700D01*
X504221Y210772D01*
X499963Y210499D02*
X499034Y210336D01*
X497942Y211100D01*
X497779Y212028D01*
X499308Y214212D01*
X500236Y214376D01*
X501328Y213611D01*
X501491Y212683D01*
X501109Y212137D01*
X500181Y211973D01*
X498543Y213120D01*
X496687Y212793D02*
X495759Y212629D01*
X494667Y213394D01*
X494503Y214322D01*
X496032Y216506D01*
X496960Y216669D01*
X498052Y215905D01*
X498216Y214977D01*
X497834Y214431D01*
X496906Y214267D01*
X495268Y215414D01*
X493585Y205749D02*
X495879Y209024D01*
X494241Y210171D01*
X493313Y210007D01*
X492549Y208915D01*
X492712Y207987D01*
X494350Y206840D01*
X493258Y207605D02*
X491402Y207277D01*
X490310Y208042D02*
X489218Y208807D01*
X489764Y208424D01*
X492058Y211700D01*
X492221Y210772D01*
X487962Y210499D02*
X487034Y210336D01*
X485943Y211100D01*
X485779Y212028D01*
X487308Y214212D01*
X488236Y214376D01*
X489328Y213611D01*
X489492Y212683D01*
X489109Y212137D01*
X488181Y211973D01*
X486543Y213120D01*
X486216Y214977D02*
X486052Y215905D01*
X484961Y216669D01*
X484032Y216506D01*
X483650Y215960D01*
X483814Y215032D01*
X482886Y214868D01*
X482503Y214322D01*
X482667Y213394D01*
X483759Y212629D01*
X484687Y212793D01*
X485069Y213339D01*
X484905Y214267D01*
X485834Y214431D01*
X486216Y214977D01*
X484905Y214267D02*
X483814Y215032D01*
X481585Y205749D02*
X483879Y209024D01*
X482241Y210171D01*
X481313Y210007D01*
X480548Y208915D01*
X480712Y207987D01*
X482350Y206840D01*
X481258Y207605D02*
X479402Y207277D01*
X478310Y208042D02*
X477218Y208807D01*
X477764Y208424D01*
X480057Y211700D01*
X480221Y210772D01*
X475962Y210499D02*
X475034Y210336D01*
X473943Y211100D01*
X473779Y212028D01*
X475308Y214212D01*
X476236Y214376D01*
X477328Y213611D01*
X477492Y212683D01*
X477109Y212137D01*
X476181Y211973D01*
X474543Y213120D01*
X474598Y215523D02*
X472414Y217052D01*
X472032Y216506D01*
X472687Y212793D01*
X472305Y212247D01*
X465585Y205749D02*
X467879Y209024D01*
X466241Y210171D01*
X465313Y210007D01*
X464548Y208915D01*
X464712Y207987D01*
X466350Y206840D01*
X465258Y207605D02*
X463402Y207277D01*
X462310Y208042D02*
X461218Y208807D01*
X461764Y208424D01*
X464057Y211700D01*
X464221Y210772D01*
X459963Y210499D02*
X459034Y210336D01*
X457942Y211100D01*
X457779Y212028D01*
X459308Y214212D01*
X460236Y214376D01*
X461328Y213611D01*
X461491Y212683D01*
X461109Y212137D01*
X460181Y211973D01*
X458543Y213120D01*
X456415Y217052D02*
X457124Y215741D01*
X457451Y213885D01*
X456687Y212793D01*
X455759Y212629D01*
X454667Y213394D01*
X454503Y214322D01*
X454885Y214868D01*
X455814Y215032D01*
X457451Y213885D01*
X449585Y205749D02*
X451879Y209024D01*
X450241Y210171D01*
X449313Y210007D01*
X448549Y208915D01*
X448712Y207987D01*
X450350Y206840D01*
X449258Y207605D02*
X447402Y207277D01*
X446310Y208042D02*
X445218Y208807D01*
X445764Y208424D01*
X448058Y211700D01*
X448221Y210772D01*
X443962Y210499D02*
X443034Y210336D01*
X441943Y211100D01*
X441779Y212028D01*
X443308Y214212D01*
X444236Y214376D01*
X445328Y213611D01*
X445492Y212683D01*
X445109Y212137D01*
X444181Y211973D01*
X442543Y213120D01*
X440414Y217052D02*
X442598Y215523D01*
X441452Y213885D01*
X440742Y215195D01*
X440196Y215577D01*
X439268Y215414D01*
X438503Y214322D01*
X438667Y213394D01*
X439759Y212629D01*
X440687Y212793D01*
X435585Y205749D02*
X437879Y209024D01*
X436241Y210171D01*
X435313Y210007D01*
X434549Y208915D01*
X434712Y207987D01*
X436350Y206840D01*
X435258Y207605D02*
X433402Y207277D01*
X432310Y208042D02*
X431218Y208807D01*
X431764Y208424D01*
X434058Y211700D01*
X434221Y210772D01*
X429962Y210499D02*
X429034Y210336D01*
X427943Y211100D01*
X427779Y212028D01*
X429308Y214212D01*
X430236Y214376D01*
X431328Y213611D01*
X431492Y212683D01*
X431109Y212137D01*
X430181Y211973D01*
X428543Y213120D01*
X424667Y213394D02*
X426961Y216669D01*
X427452Y213885D01*
X425268Y215414D01*
X419585Y205749D02*
X421879Y209024D01*
X420241Y210171D01*
X419313Y210007D01*
X418548Y208915D01*
X418712Y207987D01*
X420350Y206840D01*
X419258Y207605D02*
X417402Y207277D01*
X416310Y208042D02*
X415218Y208807D01*
X415764Y208424D01*
X418057Y211700D01*
X418221Y210772D01*
X413963Y210499D02*
X413034Y210336D01*
X411942Y211100D01*
X411779Y212028D01*
X413308Y214212D01*
X414236Y214376D01*
X415328Y213611D01*
X415491Y212683D01*
X415109Y212137D01*
X414181Y211973D01*
X412543Y213120D01*
X412216Y214977D02*
X412052Y215905D01*
X410960Y216669D01*
X410032Y216506D01*
X409650Y215960D01*
X409814Y215032D01*
X410360Y214649D01*
X409814Y215032D01*
X408885Y214868D01*
X408503Y214322D01*
X408667Y213394D01*
X409759Y212629D01*
X410687Y212793D01*
X403585Y205749D02*
X405879Y209024D01*
X404241Y210171D01*
X403313Y210007D01*
X402549Y208915D01*
X402712Y207987D01*
X404350Y206840D01*
X403258Y207605D02*
X401402Y207277D01*
X400310Y208042D02*
X399218Y208807D01*
X399764Y208424D01*
X402058Y211700D01*
X402221Y210772D01*
X397962Y210499D02*
X397034Y210336D01*
X395942Y211100D01*
X395779Y212028D01*
X397308Y214212D01*
X398236Y214376D01*
X399328Y213611D01*
X399492Y212683D01*
X399109Y212137D01*
X398181Y211973D01*
X396543Y213120D01*
X392121Y213776D02*
X394305Y212247D01*
X393650Y215960D01*
X394032Y216506D01*
X394960Y216669D01*
X396052Y215905D01*
X396216Y214977D01*
X493001Y67002D02*
X496999D01*
Y69002D01*
X496333Y69668D01*
X495000D01*
X494334Y69002D01*
Y67002D01*
Y68335D02*
X493001Y69668D01*
Y71001D02*
Y72334D01*
Y71667D01*
X496999D01*
X496333Y71001D01*
Y74333D02*
X496999Y75000D01*
Y76333D01*
X496333Y76999D01*
X495666D01*
X495000Y76333D01*
X494334Y76999D01*
X493667D01*
X493001Y76333D01*
Y75000D01*
X493667Y74333D01*
X494334D01*
X495000Y75000D01*
X495666Y74333D01*
X496333D01*
X495000Y75000D02*
Y76333D01*
X496999Y78332D02*
Y80998D01*
X496333D01*
X493667Y78332D01*
X493001D01*
X464001Y67002D02*
X467999D01*
Y69002D01*
X467333Y69668D01*
X466000D01*
X465334Y69002D01*
Y67002D01*
Y68335D02*
X464001Y69668D01*
Y71001D02*
Y72334D01*
Y71667D01*
X467999D01*
X467333Y71001D01*
Y74333D02*
X467999Y75000D01*
Y76333D01*
X467333Y76999D01*
X466666D01*
X466000Y76333D01*
X465334Y76999D01*
X464667D01*
X464001Y76333D01*
Y75000D01*
X464667Y74333D01*
X465334D01*
X466000Y75000D01*
X466666Y74333D01*
X467333D01*
X466000Y75000D02*
Y76333D01*
X464001Y80998D02*
Y78332D01*
X466666Y80998D01*
X467333D01*
X467999Y80331D01*
Y78998D01*
X467333Y78332D01*
X448001Y68002D02*
X451999D01*
Y70002D01*
X451333Y70668D01*
X450000D01*
X449334Y70002D01*
Y68002D01*
Y69335D02*
X448001Y70668D01*
Y72001D02*
Y73334D01*
Y72667D01*
X451999D01*
X451333Y72001D01*
X451999Y75333D02*
Y77999D01*
X451333D01*
X448667Y75333D01*
X448001D01*
X448667Y79332D02*
X448001Y79998D01*
Y81331D01*
X448667Y81998D01*
X451333D01*
X451999Y81331D01*
Y79998D01*
X451333Y79332D01*
X450666D01*
X450000Y79998D01*
Y81998D01*
X434001Y68002D02*
X437999D01*
Y70002D01*
X437333Y70668D01*
X436000D01*
X435333Y70002D01*
Y68002D01*
Y69335D02*
X434001Y70668D01*
Y72001D02*
Y73334D01*
Y72667D01*
X437999D01*
X437333Y72001D01*
X437999Y75333D02*
Y77999D01*
X437333D01*
X434667Y75333D01*
X434001D01*
X437999Y81998D02*
X437333Y80665D01*
X436000Y79332D01*
X434667D01*
X434001Y79998D01*
Y81331D01*
X434667Y81998D01*
X435333D01*
X436000Y81331D01*
Y79332D01*
X421001Y67002D02*
X424999D01*
Y69002D01*
X424333Y69668D01*
X423000D01*
X422333Y69002D01*
Y67002D01*
Y68335D02*
X421001Y69668D01*
Y71001D02*
Y72334D01*
Y71667D01*
X424999D01*
X424333Y71001D01*
X424999Y74333D02*
Y76999D01*
X424333D01*
X421667Y74333D01*
X421001D01*
X424999Y80998D02*
Y78332D01*
X423000D01*
X423666Y79665D01*
Y80331D01*
X423000Y80998D01*
X421667D01*
X421001Y80331D01*
Y78998D01*
X421667Y78332D01*
X406001Y67002D02*
X409999D01*
Y69002D01*
X409333Y69668D01*
X408000D01*
X407334Y69002D01*
Y67002D01*
Y68335D02*
X406001Y69668D01*
Y71001D02*
Y72334D01*
Y71667D01*
X409999D01*
X409333Y71001D01*
X409999Y74333D02*
Y76999D01*
X409333D01*
X406667Y74333D01*
X406001D01*
Y80331D02*
X409999D01*
X408000Y78332D01*
Y80998D01*
X236999Y361998D02*
X233001D01*
Y359998D01*
X233667Y359332D01*
X235000D01*
X235666Y359998D01*
Y361998D01*
Y360665D02*
X236999Y359332D01*
Y357999D02*
Y356666D01*
Y357333D01*
X233001D01*
X233667Y357999D01*
X233001Y354667D02*
Y352001D01*
X233667D01*
X236333Y354667D01*
X236999D01*
X233667Y350668D02*
X233001Y350002D01*
Y348669D01*
X233667Y348002D01*
X234333D01*
X235000Y348669D01*
Y349335D01*
Y348669D01*
X235666Y348002D01*
X236333D01*
X236999Y348669D01*
Y350002D01*
X236333Y350668D01*
X246999Y361998D02*
X243001D01*
Y359998D01*
X243667Y359332D01*
X245000D01*
X245666Y359998D01*
Y361998D01*
Y360665D02*
X246999Y359332D01*
Y357999D02*
Y356666D01*
Y357333D01*
X243001D01*
X243667Y357999D01*
X243001Y354667D02*
Y352001D01*
X243667D01*
X246333Y354667D01*
X246999D01*
Y348002D02*
Y350668D01*
X244334Y348002D01*
X243667D01*
X243001Y348669D01*
Y350002D01*
X243667Y350668D01*
X256999Y361331D02*
X253001D01*
Y359332D01*
X253667Y358665D01*
X255000D01*
X255666Y359332D01*
Y361331D01*
Y359998D02*
X256999Y358665D01*
Y357333D02*
Y356000D01*
Y356666D01*
X253001D01*
X253667Y357333D01*
X253001Y354000D02*
Y351335D01*
X253667D01*
X256333Y354000D01*
X256999D01*
Y350002D02*
Y348669D01*
Y349335D01*
X253001D01*
X253667Y350002D01*
X266999Y361998D02*
X263001D01*
Y359998D01*
X263667Y359332D01*
X265000D01*
X265666Y359998D01*
Y361998D01*
Y360665D02*
X266999Y359332D01*
Y357999D02*
Y356666D01*
Y357333D01*
X263001D01*
X263667Y357999D01*
X263001Y354667D02*
Y352001D01*
X263667D01*
X266333Y354667D01*
X266999D01*
X263667Y350668D02*
X263001Y350002D01*
Y348669D01*
X263667Y348002D01*
X266333D01*
X266999Y348669D01*
Y350002D01*
X266333Y350668D01*
X263667D01*
X276999Y361998D02*
X273001D01*
Y359998D01*
X273667Y359332D01*
X275000D01*
X275666Y359998D01*
Y361998D01*
Y360665D02*
X276999Y359332D01*
Y357999D02*
Y356666D01*
Y357333D01*
X273001D01*
X273667Y357999D01*
X273001Y352001D02*
X273667Y353334D01*
X275000Y354667D01*
X276333D01*
X276999Y354000D01*
Y352667D01*
X276333Y352001D01*
X275666D01*
X275000Y352667D01*
Y354667D01*
X276333Y350668D02*
X276999Y350002D01*
Y348669D01*
X276333Y348002D01*
X273667D01*
X273001Y348669D01*
Y350002D01*
X273667Y350668D01*
X274334D01*
X275000Y350002D01*
Y348002D01*
X286999Y361998D02*
X283001D01*
Y359998D01*
X283667Y359332D01*
X285000D01*
X285666Y359998D01*
Y361998D01*
Y360665D02*
X286999Y359332D01*
Y357999D02*
Y356666D01*
Y357333D01*
X283001D01*
X283667Y357999D01*
X283001Y352001D02*
X283667Y353334D01*
X285000Y354667D01*
X286333D01*
X286999Y354000D01*
Y352667D01*
X286333Y352001D01*
X285666D01*
X285000Y352667D01*
Y354667D01*
X283667Y350668D02*
X283001Y350002D01*
Y348669D01*
X283667Y348002D01*
X284333D01*
X285000Y348669D01*
X285666Y348002D01*
X286333D01*
X286999Y348669D01*
Y350002D01*
X286333Y350668D01*
X285666D01*
X285000Y350002D01*
X284333Y350668D01*
X283667D01*
X285000Y350002D02*
Y348669D01*
X296999Y361998D02*
X293001D01*
Y359998D01*
X293667Y359332D01*
X295000D01*
X295666Y359998D01*
Y361998D01*
Y360665D02*
X296999Y359332D01*
Y357999D02*
Y356666D01*
Y357333D01*
X293001D01*
X293667Y357999D01*
X293001Y352001D02*
X293667Y353334D01*
X295000Y354667D01*
X296333D01*
X296999Y354000D01*
Y352667D01*
X296333Y352001D01*
X295666D01*
X295000Y352667D01*
Y354667D01*
X293001Y350668D02*
Y348002D01*
X293667D01*
X296333Y350668D01*
X296999D01*
X306999Y361998D02*
X303001D01*
Y359998D01*
X303667Y359332D01*
X305000D01*
X305666Y359998D01*
Y361998D01*
Y360665D02*
X306999Y359332D01*
Y357999D02*
Y356666D01*
Y357333D01*
X303001D01*
X303667Y357999D01*
X303001Y352001D02*
X303667Y353334D01*
X305000Y354667D01*
X306333D01*
X306999Y354000D01*
Y352667D01*
X306333Y352001D01*
X305666D01*
X305000Y352667D01*
Y354667D01*
X303001Y348002D02*
X303667Y349335D01*
X305000Y350668D01*
X306333D01*
X306999Y350002D01*
Y348669D01*
X306333Y348002D01*
X305666D01*
X305000Y348669D01*
Y350668D01*
X527160Y97348D02*
X529454Y100624D01*
X527816Y101771D01*
X526888Y101607D01*
X526123Y100515D01*
X526287Y99587D01*
X527925Y98440D01*
X526833Y99205D02*
X524976Y98878D01*
X523885Y99642D02*
X522793Y100407D01*
X523339Y100024D01*
X525632Y103300D01*
X525796Y102372D01*
X521265Y106358D02*
X521975Y105048D01*
X522302Y103191D01*
X521537Y102099D01*
X520609Y101936D01*
X519517Y102700D01*
X519354Y103628D01*
X519736Y104174D01*
X520664Y104338D01*
X522302Y103191D01*
X515696Y105376D02*
X517879Y103847D01*
X517225Y107560D01*
X517607Y108106D01*
X518535Y108269D01*
X519627Y107505D01*
X519791Y106577D01*
X516114Y96731D02*
X518408Y100006D01*
X516770Y101153D01*
X515842Y100989D01*
X515077Y99898D01*
X515241Y98969D01*
X516879Y97823D01*
X515787Y98587D02*
X513931Y98260D01*
X512839Y99024D02*
X511747Y99789D01*
X512293Y99407D01*
X514586Y102682D01*
X514750Y101754D01*
X510219Y105740D02*
X510929Y104430D01*
X511256Y102573D01*
X510491Y101481D01*
X509563Y101318D01*
X508471Y102082D01*
X508308Y103011D01*
X508690Y103557D01*
X509618Y103720D01*
X511256Y102573D01*
X506834Y103229D02*
X505742Y103994D01*
X506288Y103611D01*
X508581Y106887D01*
X508745Y105959D01*
X503160Y97348D02*
X505454Y100624D01*
X503816Y101771D01*
X502888Y101607D01*
X502123Y100515D01*
X502287Y99587D01*
X503925Y98440D01*
X502833Y99205D02*
X500977Y98878D01*
X499885Y99642D02*
X498793Y100407D01*
X499339Y100024D01*
X501632Y103300D01*
X501796Y102372D01*
X497265Y106358D02*
X497974Y105048D01*
X498302Y103191D01*
X497537Y102099D01*
X496609Y101936D01*
X495517Y102700D01*
X495354Y103628D01*
X495736Y104174D01*
X496664Y104338D01*
X498302Y103191D01*
X495791Y106577D02*
X495627Y107505D01*
X494535Y108269D01*
X493607Y108106D01*
X492078Y105922D01*
X492242Y104994D01*
X493334Y104229D01*
X494262Y104393D01*
X495791Y106577D01*
X489160Y97348D02*
X491454Y100624D01*
X489816Y101771D01*
X488888Y101607D01*
X488123Y100515D01*
X488287Y99587D01*
X489925Y98440D01*
X488833Y99205D02*
X486976Y98878D01*
X485885Y99642D02*
X484793Y100407D01*
X485339Y100024D01*
X487632Y103300D01*
X487796Y102372D01*
X483265Y106358D02*
X485449Y104829D01*
X484302Y103191D01*
X483592Y104502D01*
X483046Y104884D01*
X482118Y104720D01*
X481354Y103628D01*
X481517Y102700D01*
X482609Y101936D01*
X483537Y102099D01*
X480262Y104393D02*
X479334Y104229D01*
X478242Y104994D01*
X478078Y105922D01*
X479607Y108106D01*
X480535Y108269D01*
X481627Y107505D01*
X481791Y106577D01*
X481409Y106031D01*
X480480Y105867D01*
X478843Y107014D01*
X476160Y97348D02*
X478454Y100624D01*
X476816Y101771D01*
X475888Y101607D01*
X475123Y100515D01*
X475287Y99587D01*
X476925Y98440D01*
X475833Y99205D02*
X473977Y98878D01*
X472885Y99642D02*
X471793Y100407D01*
X472339Y100024D01*
X474632Y103300D01*
X474796Y102372D01*
X470265Y106358D02*
X472449Y104829D01*
X471302Y103191D01*
X470592Y104502D01*
X470046Y104884D01*
X469118Y104720D01*
X468354Y103628D01*
X468517Y102700D01*
X469609Y101936D01*
X470537Y102099D01*
X468791Y106577D02*
X468627Y107505D01*
X467535Y108269D01*
X466607Y108106D01*
X466225Y107560D01*
X466389Y106632D01*
X465460Y106468D01*
X465078Y105922D01*
X465242Y104994D01*
X466334Y104229D01*
X467262Y104393D01*
X467644Y104939D01*
X467480Y105867D01*
X468408Y106031D01*
X468791Y106577D01*
X467480Y105867D02*
X466389Y106632D01*
X460160Y96848D02*
X462454Y100124D01*
X460816Y101271D01*
X459888Y101107D01*
X459123Y100015D01*
X459287Y99087D01*
X460925Y97940D01*
X459833Y98705D02*
X457976Y98378D01*
X456885Y99142D02*
X455793Y99907D01*
X456339Y99524D01*
X458632Y102800D01*
X458796Y101872D01*
X454265Y105858D02*
X456449Y104329D01*
X455302Y102691D01*
X454592Y104002D01*
X454046Y104384D01*
X453118Y104220D01*
X452354Y103128D01*
X452517Y102200D01*
X453609Y101436D01*
X454537Y101599D01*
X453173Y106623D02*
X450989Y108151D01*
X450607Y107606D01*
X451262Y103893D01*
X450879Y103347D01*
X446160Y96848D02*
X448454Y100124D01*
X446816Y101271D01*
X445888Y101107D01*
X445123Y100015D01*
X445287Y99087D01*
X446925Y97940D01*
X445833Y98705D02*
X443976Y98378D01*
X442885Y99142D02*
X441793Y99907D01*
X442339Y99524D01*
X444632Y102800D01*
X444796Y101872D01*
X440265Y105858D02*
X442449Y104329D01*
X441302Y102691D01*
X440592Y104002D01*
X440046Y104384D01*
X439118Y104220D01*
X438354Y103128D01*
X438517Y102200D01*
X439609Y101436D01*
X440537Y101599D01*
X436989Y108151D02*
X437699Y106841D01*
X438026Y104985D01*
X437262Y103893D01*
X436334Y103729D01*
X435242Y104494D01*
X435078Y105422D01*
X435460Y105968D01*
X436388Y106131D01*
X438026Y104985D01*
X431085Y96848D02*
X433379Y100124D01*
X431741Y101271D01*
X430813Y101107D01*
X430049Y100015D01*
X430212Y99087D01*
X431850Y97940D01*
X430758Y98705D02*
X428902Y98378D01*
X427810Y99142D02*
X426718Y99907D01*
X427264Y99524D01*
X429558Y102800D01*
X429721Y101872D01*
X425190Y105858D02*
X427374Y104329D01*
X426227Y102691D01*
X425517Y104002D01*
X424971Y104384D01*
X424043Y104220D01*
X423279Y103128D01*
X423443Y102200D01*
X424534Y101436D01*
X425462Y101599D01*
X421915Y108151D02*
X424098Y106623D01*
X422952Y104985D01*
X422242Y106295D01*
X421696Y106677D01*
X420768Y106514D01*
X420003Y105422D01*
X420167Y104494D01*
X421259Y103729D01*
X422187Y103893D01*
X418160Y97348D02*
X420454Y100624D01*
X418816Y101771D01*
X417888Y101607D01*
X417123Y100515D01*
X417287Y99587D01*
X418925Y98440D01*
X417833Y99205D02*
X415976Y98878D01*
X414885Y99642D02*
X413793Y100407D01*
X414339Y100024D01*
X416632Y103300D01*
X416796Y102372D01*
X412265Y106358D02*
X414449Y104829D01*
X413302Y103191D01*
X412592Y104502D01*
X412046Y104884D01*
X411118Y104720D01*
X410354Y103628D01*
X410517Y102700D01*
X411609Y101936D01*
X412537Y102099D01*
X407242Y104994D02*
X409535Y108269D01*
X410026Y105485D01*
X407843Y107014D01*
X402160Y97348D02*
X404454Y100624D01*
X402816Y101771D01*
X401888Y101607D01*
X401123Y100515D01*
X401287Y99587D01*
X402925Y98440D01*
X401833Y99205D02*
X399976Y98878D01*
X398885Y99642D02*
X397793Y100407D01*
X398339Y100024D01*
X400632Y103300D01*
X400796Y102372D01*
X396265Y106358D02*
X398449Y104829D01*
X397302Y103191D01*
X396592Y104502D01*
X396046Y104884D01*
X395118Y104720D01*
X394354Y103628D01*
X394517Y102700D01*
X395609Y101936D01*
X396537Y102099D01*
X394791Y106577D02*
X394627Y107505D01*
X393535Y108269D01*
X392607Y108106D01*
X392225Y107560D01*
X392389Y106632D01*
X392934Y106249D01*
X392389Y106632D01*
X391460Y106468D01*
X391078Y105922D01*
X391242Y104994D01*
X392334Y104229D01*
X393262Y104393D01*
X514999Y360998D02*
X511001D01*
Y358998D01*
X511667Y358332D01*
X513000D01*
X513666Y358998D01*
Y360998D01*
Y359665D02*
X514999Y358332D01*
Y356999D02*
Y355666D01*
Y356333D01*
X511001D01*
X511667Y356999D01*
X511001Y351001D02*
Y353667D01*
X513000D01*
X512333Y352334D01*
Y351667D01*
X513000Y351001D01*
X514333D01*
X514999Y351667D01*
Y353000D01*
X514333Y353667D01*
X511667Y349668D02*
X511001Y349002D01*
Y347669D01*
X511667Y347002D01*
X514333D01*
X514999Y347669D01*
Y349002D01*
X514333Y349668D01*
X511667D01*
X528999Y360998D02*
X525001D01*
Y358998D01*
X525667Y358332D01*
X527000D01*
X527666Y358998D01*
Y360998D01*
Y359665D02*
X528999Y358332D01*
Y356999D02*
Y355666D01*
Y356333D01*
X525001D01*
X525667Y356999D01*
X528999Y351667D02*
X525001D01*
X527000Y353667D01*
Y351001D01*
X528333Y349668D02*
X528999Y349002D01*
Y347669D01*
X528333Y347002D01*
X525667D01*
X525001Y347669D01*
Y349002D01*
X525667Y349668D01*
X526334D01*
X527000Y349002D01*
Y347002D01*
X76999Y361331D02*
X73001D01*
Y359332D01*
X73667Y358665D01*
X75000D01*
X75666Y359332D01*
Y361331D01*
Y359998D02*
X76999Y358665D01*
Y357333D02*
Y356000D01*
Y356666D01*
X73001D01*
X73667Y357333D01*
X76999Y352001D02*
X73001D01*
X75000Y354000D01*
Y351335D01*
X76999Y350002D02*
Y348669D01*
Y349335D01*
X73001D01*
X73667Y350002D01*
X86999Y361998D02*
X83001D01*
Y359998D01*
X83667Y359332D01*
X85000D01*
X85666Y359998D01*
Y361998D01*
Y360665D02*
X86999Y359332D01*
Y357999D02*
Y356666D01*
Y357333D01*
X83001D01*
X83667Y357999D01*
X86999Y352667D02*
X83001D01*
X85000Y354667D01*
Y352001D01*
X83667Y350668D02*
X83001Y350002D01*
Y348669D01*
X83667Y348002D01*
X86333D01*
X86999Y348669D01*
Y350002D01*
X86333Y350668D01*
X83667D01*
X96999Y361998D02*
X93001D01*
Y359998D01*
X93667Y359332D01*
X95000D01*
X95666Y359998D01*
Y361998D01*
Y360665D02*
X96999Y359332D01*
Y357999D02*
Y356666D01*
Y357333D01*
X93001D01*
X93667Y357999D01*
Y354667D02*
X93001Y354000D01*
Y352667D01*
X93667Y352001D01*
X94333D01*
X95000Y352667D01*
Y353334D01*
Y352667D01*
X95666Y352001D01*
X96333D01*
X96999Y352667D01*
Y354000D01*
X96333Y354667D01*
Y350668D02*
X96999Y350002D01*
Y348669D01*
X96333Y348002D01*
X93667D01*
X93001Y348669D01*
Y350002D01*
X93667Y350668D01*
X94333D01*
X95000Y350002D01*
Y348002D01*
X106999Y361998D02*
X103001D01*
Y359998D01*
X103667Y359332D01*
X105000D01*
X105666Y359998D01*
Y361998D01*
Y360665D02*
X106999Y359332D01*
Y357999D02*
Y356666D01*
Y357333D01*
X103001D01*
X103667Y357999D01*
Y354667D02*
X103001Y354000D01*
Y352667D01*
X103667Y352001D01*
X104333D01*
X105000Y352667D01*
Y353334D01*
Y352667D01*
X105666Y352001D01*
X106333D01*
X106999Y352667D01*
Y354000D01*
X106333Y354667D01*
X103667Y350668D02*
X103001Y350002D01*
Y348669D01*
X103667Y348002D01*
X104333D01*
X105000Y348669D01*
X105666Y348002D01*
X106333D01*
X106999Y348669D01*
Y350002D01*
X106333Y350668D01*
X105666D01*
X105000Y350002D01*
X104333Y350668D01*
X103667D01*
X105000Y350002D02*
Y348669D01*
X116999Y361998D02*
X113001D01*
Y359998D01*
X113667Y359332D01*
X115000D01*
X115666Y359998D01*
Y361998D01*
Y360665D02*
X116999Y359332D01*
Y357999D02*
Y356666D01*
Y357333D01*
X113001D01*
X113667Y357999D01*
Y354667D02*
X113001Y354000D01*
Y352667D01*
X113667Y352001D01*
X114333D01*
X115000Y352667D01*
Y353334D01*
Y352667D01*
X115666Y352001D01*
X116333D01*
X116999Y352667D01*
Y354000D01*
X116333Y354667D01*
X113001Y350668D02*
Y348002D01*
X113667D01*
X116333Y350668D01*
X116999D01*
X126999Y361998D02*
X123001D01*
Y359998D01*
X123667Y359332D01*
X125000D01*
X125666Y359998D01*
Y361998D01*
Y360665D02*
X126999Y359332D01*
Y357999D02*
Y356666D01*
Y357333D01*
X123001D01*
X123667Y357999D01*
Y354667D02*
X123001Y354000D01*
Y352667D01*
X123667Y352001D01*
X124334D01*
X125000Y352667D01*
Y353334D01*
Y352667D01*
X125666Y352001D01*
X126333D01*
X126999Y352667D01*
Y354000D01*
X126333Y354667D01*
X123001Y348002D02*
X123667Y349335D01*
X125000Y350668D01*
X126333D01*
X126999Y350002D01*
Y348669D01*
X126333Y348002D01*
X125666D01*
X125000Y348669D01*
Y350668D01*
X136999Y361998D02*
X133001D01*
Y359998D01*
X133667Y359332D01*
X135000D01*
X135666Y359998D01*
Y361998D01*
Y360665D02*
X136999Y359332D01*
Y357999D02*
Y356666D01*
Y357333D01*
X133001D01*
X133667Y357999D01*
Y354667D02*
X133001Y354000D01*
Y352667D01*
X133667Y352001D01*
X134334D01*
X135000Y352667D01*
Y353334D01*
Y352667D01*
X135666Y352001D01*
X136333D01*
X136999Y352667D01*
Y354000D01*
X136333Y354667D01*
X133001Y348002D02*
Y350668D01*
X135000D01*
X134334Y349335D01*
Y348669D01*
X135000Y348002D01*
X136333D01*
X136999Y348669D01*
Y350002D01*
X136333Y350668D01*
X146999Y361998D02*
X143001D01*
Y359998D01*
X143667Y359332D01*
X145000D01*
X145666Y359998D01*
Y361998D01*
Y360665D02*
X146999Y359332D01*
Y357999D02*
Y356666D01*
Y357333D01*
X143001D01*
X143667Y357999D01*
Y354667D02*
X143001Y354000D01*
Y352667D01*
X143667Y352001D01*
X144334D01*
X145000Y352667D01*
Y353334D01*
Y352667D01*
X145666Y352001D01*
X146333D01*
X146999Y352667D01*
Y354000D01*
X146333Y354667D01*
X146999Y348669D02*
X143001D01*
X145000Y350668D01*
Y348002D01*
X221999Y360998D02*
X218001D01*
Y358998D01*
X218667Y358332D01*
X220000D01*
X220666Y358998D01*
Y360998D01*
Y359665D02*
X221999Y358332D01*
Y356999D02*
Y355666D01*
Y356333D01*
X218001D01*
X218667Y356999D01*
Y353667D02*
X218001Y353000D01*
Y351667D01*
X218667Y351001D01*
X219334D01*
X220000Y351667D01*
Y352334D01*
Y351667D01*
X220666Y351001D01*
X221333D01*
X221999Y351667D01*
Y353000D01*
X221333Y353667D01*
X218667Y349668D02*
X218001Y349002D01*
Y347669D01*
X218667Y347002D01*
X219334D01*
X220000Y347669D01*
Y348335D01*
Y347669D01*
X220666Y347002D01*
X221333D01*
X221999Y347669D01*
Y349002D01*
X221333Y349668D01*
X209499Y360998D02*
X205501D01*
Y358998D01*
X206167Y358332D01*
X207500D01*
X208166Y358998D01*
Y360998D01*
Y359665D02*
X209499Y358332D01*
Y356999D02*
Y355666D01*
Y356333D01*
X205501D01*
X206167Y356999D01*
Y353667D02*
X205501Y353000D01*
Y351667D01*
X206167Y351001D01*
X206834D01*
X207500Y351667D01*
Y352334D01*
Y351667D01*
X208166Y351001D01*
X208833D01*
X209499Y351667D01*
Y353000D01*
X208833Y353667D01*
X209499Y347002D02*
Y349668D01*
X206834Y347002D01*
X206167D01*
X205501Y347669D01*
Y349002D01*
X206167Y349668D01*
X179999Y360331D02*
X176001D01*
Y358332D01*
X176667Y357665D01*
X178000D01*
X178666Y358332D01*
Y360331D01*
Y358998D02*
X179999Y357665D01*
Y356333D02*
Y355000D01*
Y355666D01*
X176001D01*
X176667Y356333D01*
Y353000D02*
X176001Y352334D01*
Y351001D01*
X176667Y350335D01*
X177333D01*
X178000Y351001D01*
Y351667D01*
Y351001D01*
X178666Y350335D01*
X179333D01*
X179999Y351001D01*
Y352334D01*
X179333Y353000D01*
X179999Y349002D02*
Y347669D01*
Y348335D01*
X176001D01*
X176667Y349002D01*
X164999Y360998D02*
X161001D01*
Y358998D01*
X161667Y358332D01*
X163000D01*
X163666Y358998D01*
Y360998D01*
Y359665D02*
X164999Y358332D01*
Y356999D02*
Y355666D01*
Y356333D01*
X161001D01*
X161667Y356999D01*
Y353667D02*
X161001Y353000D01*
Y351667D01*
X161667Y351001D01*
X162334D01*
X163000Y351667D01*
Y352334D01*
Y351667D01*
X163666Y351001D01*
X164333D01*
X164999Y351667D01*
Y353000D01*
X164333Y353667D01*
X161667Y349668D02*
X161001Y349002D01*
Y347669D01*
X161667Y347002D01*
X164333D01*
X164999Y347669D01*
Y349002D01*
X164333Y349668D01*
X161667D01*
X194999Y360998D02*
X191001D01*
Y358998D01*
X191667Y358332D01*
X193000D01*
X193666Y358998D01*
Y360998D01*
Y359665D02*
X194999Y358332D01*
Y356999D02*
Y355666D01*
Y356333D01*
X191001D01*
X191667Y356999D01*
X194999Y351001D02*
Y353667D01*
X192333Y351001D01*
X191667D01*
X191001Y351667D01*
Y353000D01*
X191667Y353667D01*
X194333Y349668D02*
X194999Y349002D01*
Y347669D01*
X194333Y347002D01*
X191667D01*
X191001Y347669D01*
Y349002D01*
X191667Y349668D01*
X192333D01*
X193000Y349002D01*
Y347002D01*
X496499Y360998D02*
X492501D01*
Y358998D01*
X493167Y358332D01*
X494500D01*
X495166Y358998D01*
Y360998D01*
Y359665D02*
X496499Y358332D01*
Y356999D02*
Y355666D01*
Y356333D01*
X492501D01*
X493167Y356999D01*
X496499Y351001D02*
Y353667D01*
X493833Y351001D01*
X493167D01*
X492501Y351667D01*
Y353000D01*
X493167Y353667D01*
Y349668D02*
X492501Y349002D01*
Y347669D01*
X493167Y347002D01*
X493833D01*
X494500Y347669D01*
X495166Y347002D01*
X495833D01*
X496499Y347669D01*
Y349002D01*
X495833Y349668D01*
X495166D01*
X494500Y349002D01*
X493833Y349668D01*
X493167D01*
X494500Y349002D02*
Y347669D01*
X481999Y361998D02*
X478001D01*
Y359998D01*
X478667Y359332D01*
X480000D01*
X480666Y359998D01*
Y361998D01*
Y360665D02*
X481999Y359332D01*
Y357999D02*
Y356666D01*
Y357333D01*
X478001D01*
X478667Y357999D01*
X481999Y352001D02*
Y354667D01*
X479333Y352001D01*
X478667D01*
X478001Y352667D01*
Y354000D01*
X478667Y354667D01*
X478001Y350668D02*
Y348002D01*
X478667D01*
X481333Y350668D01*
X481999D01*
X463999Y360998D02*
X460001D01*
Y358998D01*
X460667Y358332D01*
X462000D01*
X462666Y358998D01*
Y360998D01*
Y359665D02*
X463999Y358332D01*
Y356999D02*
Y355666D01*
Y356333D01*
X460001D01*
X460667Y356999D01*
X463999Y351001D02*
Y353667D01*
X461334Y351001D01*
X460667D01*
X460001Y351667D01*
Y353000D01*
X460667Y353667D01*
X460001Y347002D02*
X460667Y348335D01*
X462000Y349668D01*
X463333D01*
X463999Y349002D01*
Y347669D01*
X463333Y347002D01*
X462666D01*
X462000Y347669D01*
Y349668D01*
X445999Y361998D02*
X442001D01*
Y359998D01*
X442667Y359332D01*
X444000D01*
X444666Y359998D01*
Y361998D01*
Y360665D02*
X445999Y359332D01*
Y357999D02*
Y356666D01*
Y357333D01*
X442001D01*
X442667Y357999D01*
X445999Y352001D02*
Y354667D01*
X443333Y352001D01*
X442667D01*
X442001Y352667D01*
Y354000D01*
X442667Y354667D01*
X442001Y348002D02*
Y350668D01*
X444000D01*
X443333Y349335D01*
Y348669D01*
X444000Y348002D01*
X445333D01*
X445999Y348669D01*
Y350002D01*
X445333Y350668D01*
X413999Y360998D02*
X410001D01*
Y358998D01*
X410667Y358332D01*
X412000D01*
X412666Y358998D01*
Y360998D01*
Y359665D02*
X413999Y358332D01*
Y356999D02*
Y355666D01*
Y356333D01*
X410001D01*
X410667Y356999D01*
X413999Y351001D02*
Y353667D01*
X411334Y351001D01*
X410667D01*
X410001Y351667D01*
Y353000D01*
X410667Y353667D01*
X413999Y347669D02*
X410001D01*
X412000Y349668D01*
Y347002D01*
X399999Y360998D02*
X396001D01*
Y358998D01*
X396667Y358332D01*
X398000D01*
X398666Y358998D01*
Y360998D01*
Y359665D02*
X399999Y358332D01*
Y356999D02*
Y355666D01*
Y356333D01*
X396001D01*
X396667Y356999D01*
X399999Y351001D02*
Y353667D01*
X397334Y351001D01*
X396667D01*
X396001Y351667D01*
Y353000D01*
X396667Y353667D01*
Y349668D02*
X396001Y349002D01*
Y347669D01*
X396667Y347002D01*
X397334D01*
X398000Y347669D01*
Y348335D01*
Y347669D01*
X398666Y347002D01*
X399333D01*
X399999Y347669D01*
Y349002D01*
X399333Y349668D01*
X378999Y361998D02*
X375001D01*
Y359998D01*
X375667Y359332D01*
X377000D01*
X377666Y359998D01*
Y361998D01*
Y360665D02*
X378999Y359332D01*
Y357999D02*
Y356666D01*
Y357333D01*
X375001D01*
X375667Y357999D01*
X378999Y352001D02*
Y354667D01*
X376333Y352001D01*
X375667D01*
X375001Y352667D01*
Y354000D01*
X375667Y354667D01*
X378999Y348002D02*
Y350668D01*
X376333Y348002D01*
X375667D01*
X375001Y348669D01*
Y350002D01*
X375667Y350668D01*
X369999Y361331D02*
X366001D01*
Y359332D01*
X366667Y358665D01*
X368000D01*
X368666Y359332D01*
Y361331D01*
Y359998D02*
X369999Y358665D01*
Y357333D02*
Y356000D01*
Y356666D01*
X366001D01*
X366667Y357333D01*
X369999Y351335D02*
Y354000D01*
X367334Y351335D01*
X366667D01*
X366001Y352001D01*
Y353334D01*
X366667Y354000D01*
X369999Y350002D02*
Y348669D01*
Y349335D01*
X366001D01*
X366667Y350002D01*
X360499Y361998D02*
X356501D01*
Y359998D01*
X357167Y359332D01*
X358500D01*
X359166Y359998D01*
Y361998D01*
Y360665D02*
X360499Y359332D01*
Y357999D02*
Y356666D01*
Y357333D01*
X356501D01*
X357167Y357999D01*
X360499Y352001D02*
Y354667D01*
X357834Y352001D01*
X357167D01*
X356501Y352667D01*
Y354000D01*
X357167Y354667D01*
Y350668D02*
X356501Y350002D01*
Y348669D01*
X357167Y348002D01*
X359833D01*
X360499Y348669D01*
Y350002D01*
X359833Y350668D01*
X357167D01*
X350999Y361665D02*
X347001D01*
Y359665D01*
X347667Y358999D01*
X349000D01*
X349666Y359665D01*
Y361665D01*
Y360332D02*
X350999Y358999D01*
Y357666D02*
Y356333D01*
Y356999D01*
X347001D01*
X347667Y357666D01*
X350999Y354333D02*
Y353001D01*
Y353667D01*
X347001D01*
X347667Y354333D01*
X350333Y351001D02*
X350999Y350335D01*
Y349002D01*
X350333Y348336D01*
X347667D01*
X347001Y349002D01*
Y350335D01*
X347667Y351001D01*
X348334D01*
X349000Y350335D01*
Y348336D01*
X341999Y361665D02*
X338001D01*
Y359665D01*
X338667Y358999D01*
X340000D01*
X340666Y359665D01*
Y361665D01*
Y360332D02*
X341999Y358999D01*
Y357666D02*
Y356333D01*
Y356999D01*
X338001D01*
X338667Y357666D01*
X341999Y354333D02*
Y353001D01*
Y353667D01*
X338001D01*
X338667Y354333D01*
Y351001D02*
X338001Y350335D01*
Y349002D01*
X338667Y348336D01*
X339334D01*
X340000Y349002D01*
X340666Y348336D01*
X341333D01*
X341999Y349002D01*
Y350335D01*
X341333Y351001D01*
X340666D01*
X340000Y350335D01*
X339334Y351001D01*
X338667D01*
X340000Y350335D02*
Y349002D01*
X332999Y361665D02*
X329001D01*
Y359665D01*
X329667Y358999D01*
X331000D01*
X331666Y359665D01*
Y361665D01*
Y360332D02*
X332999Y358999D01*
Y357666D02*
Y356333D01*
Y356999D01*
X329001D01*
X329667Y357666D01*
X332999Y354333D02*
Y353001D01*
Y353667D01*
X329001D01*
X329667Y354333D01*
X329001Y351001D02*
Y348336D01*
X329667D01*
X332333Y351001D01*
X332999D01*
X323999Y361665D02*
X320001D01*
Y359665D01*
X320667Y358999D01*
X322000D01*
X322666Y359665D01*
Y361665D01*
Y360332D02*
X323999Y358999D01*
Y357666D02*
Y356333D01*
Y356999D01*
X320001D01*
X320667Y357666D01*
X323999Y354333D02*
Y353001D01*
Y353667D01*
X320001D01*
X320667Y354333D01*
X320001Y348336D02*
X320667Y349668D01*
X322000Y351001D01*
X323333D01*
X323999Y350335D01*
Y349002D01*
X323333Y348336D01*
X322666D01*
X322000Y349002D01*
Y351001D01*
X429999Y358332D02*
X426001D01*
Y356332D01*
X426667Y355666D01*
X428000D01*
X428666Y356332D01*
Y358332D01*
Y356999D02*
X429999Y355666D01*
Y351667D02*
Y354333D01*
X427333Y351667D01*
X426667D01*
X426001Y352334D01*
Y353666D01*
X426667Y354333D01*
Y350334D02*
X426001Y349668D01*
Y348335D01*
X426667Y347668D01*
X427333D01*
X428000Y348335D01*
Y349001D01*
Y348335D01*
X428666Y347668D01*
X429333D01*
X429999Y348335D01*
Y349668D01*
X429333Y350334D01*
X231166Y180382D02*
X231833Y181048D01*
X233166D01*
X233832Y180382D01*
Y177716D01*
X233166Y177050D01*
X231833D01*
X231166Y177716D01*
X227168Y181048D02*
X228501Y180382D01*
X229834Y179049D01*
Y177716D01*
X229167Y177050D01*
X227834D01*
X227168Y177716D01*
Y178383D01*
X227834Y179049D01*
X229834D01*
X231166Y186382D02*
X231833Y187048D01*
X233166D01*
X233832Y186382D01*
Y183716D01*
X233166Y183050D01*
X231833D01*
X231166Y183716D01*
X227168Y187048D02*
X229834D01*
Y185049D01*
X228501Y185715D01*
X227834D01*
X227168Y185049D01*
Y183716D01*
X227834Y183050D01*
X229167D01*
X229834Y183716D01*
X217000Y153049D02*
X217500Y153549D01*
X218499D01*
X218999Y153049D01*
Y151049D01*
X218499Y150549D01*
X217500D01*
X217000Y151049D01*
X214501Y150549D02*
Y153549D01*
X216000Y152049D01*
X214001D01*
X217000Y147000D02*
X217500Y147500D01*
X218499D01*
X218999Y147000D01*
Y145000D01*
X218499Y144501D01*
X217500D01*
X217000Y145000D01*
X216000Y147000D02*
X215500Y147500D01*
X214501D01*
X214001Y147000D01*
Y146500D01*
X214501Y146000D01*
X215001D01*
X214501D01*
X214001Y145500D01*
Y145000D01*
X214501Y144501D01*
X215500D01*
X216000Y145000D01*
X236000Y153000D02*
X236500Y153499D01*
X237499D01*
X237999Y153000D01*
Y151000D01*
X237499Y150501D01*
X236500D01*
X236000Y151000D01*
X233001Y150501D02*
X235000D01*
X233001Y152500D01*
Y153000D01*
X233501Y153499D01*
X234500D01*
X235000Y153000D01*
X235000Y147000D02*
X235500Y147500D01*
X236500D01*
X236999Y147000D01*
Y145000D01*
X236500Y144501D01*
X235500D01*
X235000Y145000D01*
X234000Y144501D02*
X233001D01*
X233501D01*
Y147500D01*
X234000Y147000D01*
D12*
X529500Y341300D02*
Y345400D01*
X524500D02*
X529500D01*
X524500Y341300D02*
Y345400D01*
Y334600D02*
Y338800D01*
Y334600D02*
X529500D01*
Y338700D01*
X510500Y334600D02*
Y338700D01*
Y334600D02*
X515500D01*
Y338700D01*
Y341200D02*
Y345400D01*
X510500D02*
X515500D01*
X510500Y341300D02*
Y345400D01*
X497000Y341300D02*
Y345400D01*
X492000D02*
X497000D01*
X492000Y341300D02*
Y345400D01*
Y334600D02*
Y338800D01*
Y334600D02*
X497000D01*
Y338700D01*
X482500Y341300D02*
Y345400D01*
X477500D02*
X482500D01*
X477500Y341300D02*
Y345400D01*
Y334600D02*
Y338800D01*
Y334600D02*
X482500D01*
Y338700D01*
X446500Y341300D02*
Y345400D01*
X441500D02*
X446500D01*
X441500Y341300D02*
Y345400D01*
Y334600D02*
Y338800D01*
Y334600D02*
X446500D01*
Y338700D01*
X464500Y341300D02*
Y345400D01*
X459500D02*
X464500D01*
X459500Y341300D02*
Y345400D01*
Y334600D02*
Y338800D01*
Y334600D02*
X464500D01*
Y338700D01*
X430500Y341300D02*
Y345400D01*
X425500D02*
X430500D01*
X425500Y341300D02*
Y345400D01*
Y334600D02*
Y338800D01*
Y334600D02*
X430500D01*
Y338700D01*
X400500Y341300D02*
Y345400D01*
X395500D02*
X400500D01*
X395500Y341300D02*
Y345400D01*
Y334600D02*
Y338800D01*
Y334600D02*
X400500D01*
Y338700D01*
X414500Y341300D02*
Y345400D01*
X409500D02*
X414500D01*
X409500Y341300D02*
Y345400D01*
Y334600D02*
Y338800D01*
Y334600D02*
X414500D01*
Y338700D01*
X361000Y341300D02*
Y345400D01*
X356000D02*
X361000D01*
X356000Y341300D02*
Y345400D01*
Y334600D02*
Y338800D01*
Y334600D02*
X361000D01*
Y338700D01*
X379500Y341300D02*
Y345400D01*
X374500D02*
X379500D01*
X374500Y341300D02*
Y345400D01*
Y334600D02*
Y338800D01*
Y334600D02*
X379500D01*
Y338700D01*
X370500Y341300D02*
Y345400D01*
X365500D02*
X370500D01*
X365500Y341300D02*
Y345400D01*
Y334600D02*
Y338800D01*
Y334600D02*
X370500D01*
Y338700D01*
X351500Y341300D02*
Y345400D01*
X346500D02*
X351500D01*
X346500Y341300D02*
Y345400D01*
Y334600D02*
Y338800D01*
Y334600D02*
X351500D01*
Y338700D01*
X333500Y341300D02*
Y345400D01*
X328500D02*
X333500D01*
X328500Y341300D02*
Y345400D01*
Y334600D02*
Y338800D01*
Y334600D02*
X333500D01*
Y338700D01*
X324500Y341300D02*
Y345400D01*
X319500D02*
X324500D01*
X319500Y341300D02*
Y345400D01*
Y334600D02*
Y338800D01*
Y334600D02*
X324500D01*
Y338700D01*
X342500Y341300D02*
Y345400D01*
X337500D02*
X342500D01*
X337500Y341300D02*
Y345400D01*
Y334600D02*
Y338800D01*
Y334600D02*
X342500D01*
Y338700D01*
X247500Y341300D02*
Y345400D01*
X242500D02*
X247500D01*
X242500Y341300D02*
Y345400D01*
Y334600D02*
Y338800D01*
Y334600D02*
X247500D01*
Y338700D01*
X267500Y341300D02*
Y345400D01*
X262500D02*
X267500D01*
X262500Y341300D02*
Y345400D01*
Y334600D02*
Y338800D01*
Y334600D02*
X267500D01*
Y338700D01*
X257500Y341300D02*
Y345400D01*
X252500D02*
X257500D01*
X252500Y341300D02*
Y345400D01*
Y334600D02*
Y338800D01*
Y334600D02*
X257500D01*
Y338700D01*
X277500Y341300D02*
Y345400D01*
X272500D02*
X277500D01*
X272500Y341300D02*
Y345400D01*
Y334600D02*
Y338800D01*
Y334600D02*
X277500D01*
Y338700D01*
X307500Y341300D02*
Y345400D01*
X302500D02*
X307500D01*
X302500Y341300D02*
Y345400D01*
Y334600D02*
Y338800D01*
Y334600D02*
X307500D01*
Y338700D01*
X297500Y341300D02*
Y345400D01*
X292500D02*
X297500D01*
X292500Y341300D02*
Y345400D01*
Y334600D02*
Y338800D01*
Y334600D02*
X297500D01*
Y338700D01*
X287500Y341300D02*
Y345400D01*
X282500D02*
X287500D01*
X282500Y341300D02*
Y345400D01*
Y334600D02*
Y338800D01*
Y334600D02*
X287500D01*
Y338700D01*
X237500Y341300D02*
Y345400D01*
X232500D02*
X237500D01*
X232500Y341300D02*
Y345400D01*
Y334600D02*
Y338800D01*
Y334600D02*
X237500D01*
Y338700D01*
X165500Y341300D02*
Y345400D01*
X160500D02*
X165500D01*
X160500Y341300D02*
Y345400D01*
Y334600D02*
Y338800D01*
Y334600D02*
X165500D01*
Y338700D01*
X222500Y341300D02*
Y345400D01*
X217500D02*
X222500D01*
X217500Y341300D02*
Y345400D01*
Y334600D02*
Y338800D01*
Y334600D02*
X222500D01*
Y338700D01*
X175500Y334600D02*
Y338700D01*
Y334600D02*
X180500D01*
Y338700D01*
Y341200D02*
Y345400D01*
X175500D02*
X180500D01*
X175500Y341300D02*
Y345400D01*
X195500Y341300D02*
Y345400D01*
X190500D02*
X195500D01*
X190500Y341300D02*
Y345400D01*
Y334600D02*
Y338800D01*
Y334600D02*
X195500D01*
Y338700D01*
X210000Y341300D02*
Y345400D01*
X205000D02*
X210000D01*
X205000Y341300D02*
Y345400D01*
Y334600D02*
Y338800D01*
Y334600D02*
X210000D01*
Y338700D01*
X147500Y341300D02*
Y345400D01*
X142500D02*
X147500D01*
X142500Y341300D02*
Y345400D01*
Y334600D02*
Y338800D01*
Y334600D02*
X147500D01*
Y338700D01*
X137500Y341300D02*
Y345400D01*
X132500D02*
X137500D01*
X132500Y341300D02*
Y345400D01*
Y334600D02*
Y338800D01*
Y334600D02*
X137500D01*
Y338700D01*
X127500Y341300D02*
Y345400D01*
X122500D02*
X127500D01*
X122500Y341300D02*
Y345400D01*
Y334600D02*
Y338800D01*
Y334600D02*
X127500D01*
Y338700D01*
X117500Y341300D02*
Y345400D01*
X112500D02*
X117500D01*
X112500Y341300D02*
Y345400D01*
Y334600D02*
Y338800D01*
Y334600D02*
X117500D01*
Y338700D01*
X77500Y341300D02*
Y345400D01*
X72500D02*
X77500D01*
X72500Y341300D02*
Y345400D01*
Y334600D02*
Y338800D01*
Y334600D02*
X77500D01*
Y338700D01*
X107500Y341300D02*
Y345400D01*
X102500D02*
X107500D01*
X102500Y341300D02*
Y345400D01*
Y334600D02*
Y338800D01*
Y334600D02*
X107500D01*
Y338700D01*
X97500Y341300D02*
Y345400D01*
X92500D02*
X97500D01*
X92500Y341300D02*
Y345400D01*
Y334600D02*
Y338800D01*
Y334600D02*
X97500D01*
Y338700D01*
X87500Y341300D02*
Y345400D01*
X82500D02*
X87500D01*
X82500Y341300D02*
Y345400D01*
Y334600D02*
Y338800D01*
Y334600D02*
X87500D01*
Y338700D01*
X214600Y176500D02*
X218700D01*
X214600D02*
Y181500D01*
X218800D01*
X221300D02*
X225400D01*
Y176500D02*
Y181500D01*
X221300Y176500D02*
X225400D01*
X463500Y82600D02*
Y86700D01*
Y82600D02*
X468500D01*
Y86700D01*
Y89200D02*
Y93400D01*
X463500D02*
X468500D01*
X463500Y89300D02*
Y93400D01*
X433500Y83600D02*
Y87700D01*
Y83600D02*
X438500D01*
Y87700D01*
Y90200D02*
Y94400D01*
X433500D02*
X438500D01*
X433500Y90300D02*
Y94400D01*
X405500Y82600D02*
Y86700D01*
Y82600D02*
X410500D01*
Y86700D01*
Y89200D02*
Y93400D01*
X405500D02*
X410500D01*
X405500Y89300D02*
Y93400D01*
X420500Y82600D02*
Y86700D01*
Y82600D02*
X425500D01*
Y86700D01*
Y89200D02*
Y93400D01*
X420500D02*
X425500D01*
X420500Y89300D02*
Y93400D01*
X497500Y89300D02*
Y93400D01*
X492500D02*
X497500D01*
X492500Y89300D02*
Y93400D01*
Y82600D02*
Y86800D01*
Y82600D02*
X497500D01*
Y86700D01*
X447500Y83600D02*
Y87700D01*
Y83600D02*
X452500D01*
Y87700D01*
Y90200D02*
Y94400D01*
X447500D02*
X452500D01*
X447500Y90300D02*
Y94400D01*
X454500Y188600D02*
Y192700D01*
Y188600D02*
X459500D01*
Y192700D01*
Y195200D02*
Y199400D01*
X454500D02*
X459500D01*
X454500Y195300D02*
Y199400D01*
X487500Y195300D02*
Y199400D01*
X482500D02*
X487500D01*
X482500Y195300D02*
Y199400D01*
Y188600D02*
Y192800D01*
Y188600D02*
X487500D01*
Y192700D01*
X392500Y188600D02*
Y192700D01*
Y188600D02*
X397500D01*
Y192700D01*
Y195200D02*
Y199400D01*
X392500D02*
X397500D01*
X392500Y195300D02*
Y199400D01*
X438500Y188600D02*
Y192700D01*
Y188600D02*
X443500D01*
Y192700D01*
Y195200D02*
Y199400D01*
X438500D02*
X443500D01*
X438500Y195300D02*
Y199400D01*
X424500Y188600D02*
Y192700D01*
Y188600D02*
X429500D01*
Y192700D01*
Y195200D02*
Y199400D01*
X424500D02*
X429500D01*
X424500Y195300D02*
Y199400D01*
X408500Y188600D02*
Y192700D01*
Y188600D02*
X413500D01*
Y192700D01*
Y195200D02*
Y199400D01*
X408500D02*
X413500D01*
X408500Y195300D02*
Y199400D01*
X221300Y182500D02*
X225400D01*
Y187500D01*
X221300D02*
X225400D01*
X214600D02*
X218800D01*
X214600Y182500D02*
Y187500D01*
Y182500D02*
X218700D01*
X208300Y149500D02*
X212400D01*
Y154500D01*
X208300D02*
X212400D01*
X201600D02*
X205800D01*
X201600Y149500D02*
Y154500D01*
Y149500D02*
X205700D01*
X208300Y143500D02*
X212400D01*
Y148500D01*
X208300D02*
X212400D01*
X201600D02*
X205800D01*
X201600Y143500D02*
Y148500D01*
Y143500D02*
X205700D01*
X220600Y154500D02*
X224700D01*
X220600Y149500D02*
Y154500D01*
Y149500D02*
X224700D01*
X227200D02*
X231400D01*
Y154500D01*
X227300D02*
X231400D01*
X220600Y148500D02*
X224700D01*
X220600Y143500D02*
Y148500D01*
Y143500D02*
X224700D01*
X227200D02*
X231400D01*
Y148500D01*
X227300D02*
X231400D01*
X478075Y109600D02*
Y113700D01*
Y109600D02*
X483075D01*
Y113700D01*
Y116200D02*
Y120400D01*
X478075D02*
X483075D01*
X478075Y116300D02*
Y120400D01*
X463075Y109600D02*
Y113700D01*
Y109600D02*
X468075D01*
Y113700D01*
Y116200D02*
Y120400D01*
X463075D02*
X468075D01*
X463075Y116300D02*
Y120400D01*
X516075Y109600D02*
Y113700D01*
Y109600D02*
X521075D01*
Y113700D01*
Y116200D02*
Y120400D01*
X516075D02*
X521075D01*
X516075Y116300D02*
Y120400D01*
X492075Y109600D02*
Y113700D01*
Y109600D02*
X497075D01*
Y113700D01*
Y116200D02*
Y120400D01*
X492075D02*
X497075D01*
X492075Y116300D02*
Y120400D01*
X504575Y109600D02*
Y113700D01*
Y109600D02*
X509575D01*
Y113700D01*
Y116200D02*
Y120400D01*
X504575D02*
X509575D01*
X504575Y116300D02*
Y120400D01*
X405075Y109600D02*
Y113700D01*
Y109600D02*
X410075D01*
Y113700D01*
Y116200D02*
Y120400D01*
X405075D02*
X410075D01*
X405075Y116300D02*
Y120400D01*
X447075Y109600D02*
Y113700D01*
Y109600D02*
X452075D01*
Y113700D01*
Y116200D02*
Y120400D01*
X447075D02*
X452075D01*
X447075Y116300D02*
Y120400D01*
X433075Y109600D02*
Y113700D01*
Y109600D02*
X438075D01*
Y113700D01*
Y116200D02*
Y120400D01*
X433075D02*
X438075D01*
X433075Y116300D02*
Y120400D01*
X420075Y109600D02*
Y113700D01*
Y109600D02*
X425075D01*
Y113700D01*
Y116200D02*
Y120400D01*
X420075D02*
X425075D01*
X420075Y116300D02*
Y120400D01*
X390075Y109600D02*
Y113700D01*
Y109600D02*
X395075D01*
Y113700D01*
Y116200D02*
Y120400D01*
X390075D02*
X395075D01*
X390075Y116300D02*
Y120400D01*
X493500Y219000D02*
Y223100D01*
Y219000D02*
X498500D01*
Y223100D01*
Y225600D02*
Y229800D01*
X493500D02*
X498500D01*
X493500Y225700D02*
Y229800D01*
X481500Y219000D02*
Y223100D01*
Y219000D02*
X486500D01*
Y223100D01*
Y225600D02*
Y229800D01*
X481500D02*
X486500D01*
X481500Y225700D02*
Y229800D01*
X505500Y219000D02*
Y223100D01*
Y219000D02*
X510500D01*
Y223100D01*
Y225600D02*
Y229800D01*
X505500D02*
X510500D01*
X505500Y225700D02*
Y229800D01*
X517500Y219000D02*
Y223100D01*
Y219000D02*
X522500D01*
Y223100D01*
Y225600D02*
Y229800D01*
X517500D02*
X522500D01*
X517500Y225700D02*
Y229800D01*
X391500Y219000D02*
Y223100D01*
Y219000D02*
X396500D01*
Y223100D01*
Y225600D02*
Y229800D01*
X391500D02*
X396500D01*
X391500Y225700D02*
Y229800D01*
X423500Y219000D02*
Y223100D01*
Y219000D02*
X428500D01*
Y223100D01*
Y225600D02*
Y229800D01*
X423500D02*
X428500D01*
X423500Y225700D02*
Y229800D01*
X407500Y219000D02*
Y223100D01*
Y219000D02*
X412500D01*
Y223100D01*
Y225600D02*
Y229800D01*
X407500D02*
X412500D01*
X407500Y225700D02*
Y229800D01*
X437500Y219000D02*
Y223100D01*
Y219000D02*
X442500D01*
Y223100D01*
Y225600D02*
Y229800D01*
X437500D02*
X442500D01*
X437500Y225700D02*
Y229800D01*
X453500Y219000D02*
Y223100D01*
Y219000D02*
X458500D01*
Y223100D01*
Y225600D02*
Y229800D01*
X453500D02*
X458500D01*
X453500Y225700D02*
Y229800D01*
X469500Y219000D02*
Y223100D01*
Y219000D02*
X474500D01*
Y223100D01*
Y225600D02*
Y229800D01*
X469500D02*
X474500D01*
X469500Y225700D02*
Y229800D01*
M02*
