G04*
G04 #@! TF.GenerationSoftware,Altium Limited,Altium Designer,22.3.1 (43)*
G04*
G04 Layer_Color=32768*
%FSLAX25Y25*%
%MOIN*%
G70*
G04*
G04 #@! TF.SameCoordinates,60FF7B14-72D9-4FEE-8752-AF75FF6C3092*
G04*
G04*
G04 #@! TF.FilePolarity,Positive*
G04*
G01*
G75*
%ADD53C,0.00394*%
%ADD54C,0.00197*%
D53*
X525425Y343150D02*
X528575D01*
Y336850D02*
Y343150D01*
X525425Y336850D02*
X528575D01*
X525425D02*
Y343150D01*
X511425Y336850D02*
X514575D01*
X511425D02*
Y343150D01*
X514575D01*
Y336850D02*
Y343150D01*
X492925D02*
X496075D01*
Y336850D02*
Y343150D01*
X492925Y336850D02*
X496075D01*
X492925D02*
Y343150D01*
X478425D02*
X481575D01*
Y336850D02*
Y343150D01*
X478425Y336850D02*
X481575D01*
X478425D02*
Y343150D01*
X442425D02*
X445575D01*
Y336850D02*
Y343150D01*
X442425Y336850D02*
X445575D01*
X442425D02*
Y343150D01*
X460425D02*
X463575D01*
Y336850D02*
Y343150D01*
X460425Y336850D02*
X463575D01*
X460425D02*
Y343150D01*
X426425D02*
X429575D01*
Y336850D02*
Y343150D01*
X426425Y336850D02*
X429575D01*
X426425D02*
Y343150D01*
X396425D02*
X399575D01*
Y336850D02*
Y343150D01*
X396425Y336850D02*
X399575D01*
X396425D02*
Y343150D01*
X410425D02*
X413575D01*
Y336850D02*
Y343150D01*
X410425Y336850D02*
X413575D01*
X410425D02*
Y343150D01*
X356925D02*
X360075D01*
Y336850D02*
Y343150D01*
X356925Y336850D02*
X360075D01*
X356925D02*
Y343150D01*
X375425D02*
X378575D01*
Y336850D02*
Y343150D01*
X375425Y336850D02*
X378575D01*
X375425D02*
Y343150D01*
X366425D02*
X369575D01*
Y336850D02*
Y343150D01*
X366425Y336850D02*
X369575D01*
X366425D02*
Y343150D01*
X347425D02*
X350575D01*
Y336850D02*
Y343150D01*
X347425Y336850D02*
X350575D01*
X347425D02*
Y343150D01*
X329425D02*
X332575D01*
Y336850D02*
Y343150D01*
X329425Y336850D02*
X332575D01*
X329425D02*
Y343150D01*
X320425D02*
X323575D01*
Y336850D02*
Y343150D01*
X320425Y336850D02*
X323575D01*
X320425D02*
Y343150D01*
X338425D02*
X341575D01*
Y336850D02*
Y343150D01*
X338425Y336850D02*
X341575D01*
X338425D02*
Y343150D01*
X243425D02*
X246575D01*
Y336850D02*
Y343150D01*
X243425Y336850D02*
X246575D01*
X243425D02*
Y343150D01*
X263425D02*
X266575D01*
Y336850D02*
Y343150D01*
X263425Y336850D02*
X266575D01*
X263425D02*
Y343150D01*
X253425D02*
X256575D01*
Y336850D02*
Y343150D01*
X253425Y336850D02*
X256575D01*
X253425D02*
Y343150D01*
X273425D02*
X276575D01*
Y336850D02*
Y343150D01*
X273425Y336850D02*
X276575D01*
X273425D02*
Y343150D01*
X303425D02*
X306575D01*
Y336850D02*
Y343150D01*
X303425Y336850D02*
X306575D01*
X303425D02*
Y343150D01*
X293425D02*
X296575D01*
Y336850D02*
Y343150D01*
X293425Y336850D02*
X296575D01*
X293425D02*
Y343150D01*
X283425D02*
X286575D01*
Y336850D02*
Y343150D01*
X283425Y336850D02*
X286575D01*
X283425D02*
Y343150D01*
X233425D02*
X236575D01*
Y336850D02*
Y343150D01*
X233425Y336850D02*
X236575D01*
X233425D02*
Y343150D01*
X161425D02*
X164575D01*
Y336850D02*
Y343150D01*
X161425Y336850D02*
X164575D01*
X161425D02*
Y343150D01*
X218425D02*
X221575D01*
Y336850D02*
Y343150D01*
X218425Y336850D02*
X221575D01*
X218425D02*
Y343150D01*
X176425Y336850D02*
X179575D01*
X176425D02*
Y343150D01*
X179575D01*
Y336850D02*
Y343150D01*
X191425D02*
X194575D01*
Y336850D02*
Y343150D01*
X191425Y336850D02*
X194575D01*
X191425D02*
Y343150D01*
X205925D02*
X209075D01*
Y336850D02*
Y343150D01*
X205925Y336850D02*
X209075D01*
X205925D02*
Y343150D01*
X143425D02*
X146575D01*
Y336850D02*
Y343150D01*
X143425Y336850D02*
X146575D01*
X143425D02*
Y343150D01*
X133425D02*
X136575D01*
Y336850D02*
Y343150D01*
X133425Y336850D02*
X136575D01*
X133425D02*
Y343150D01*
X123425D02*
X126575D01*
Y336850D02*
Y343150D01*
X123425Y336850D02*
X126575D01*
X123425D02*
Y343150D01*
X113425D02*
X116575D01*
Y336850D02*
Y343150D01*
X113425Y336850D02*
X116575D01*
X113425D02*
Y343150D01*
X73425D02*
X76575D01*
Y336850D02*
Y343150D01*
X73425Y336850D02*
X76575D01*
X73425D02*
Y343150D01*
X103425D02*
X106575D01*
Y336850D02*
Y343150D01*
X103425Y336850D02*
X106575D01*
X103425D02*
Y343150D01*
X93425D02*
X96575D01*
Y336850D02*
Y343150D01*
X93425Y336850D02*
X96575D01*
X93425D02*
Y343150D01*
X83425D02*
X86575D01*
Y336850D02*
Y343150D01*
X83425Y336850D02*
X86575D01*
X83425D02*
Y343150D01*
X216850Y180575D02*
X223150D01*
X216850Y177425D02*
Y180575D01*
Y177425D02*
X223150D01*
Y180575D01*
X464425Y84850D02*
X467575D01*
X464425D02*
Y91150D01*
X467575D01*
Y84850D02*
Y91150D01*
X434425Y85850D02*
X437575D01*
X434425D02*
Y92150D01*
X437575D01*
Y85850D02*
Y92150D01*
X406425Y84850D02*
X409575D01*
X406425D02*
Y91150D01*
X409575D01*
Y84850D02*
Y91150D01*
X421425Y84850D02*
X424575D01*
X421425D02*
Y91150D01*
X424575D01*
Y84850D02*
Y91150D01*
X493425D02*
X496575D01*
Y84850D02*
Y91150D01*
X493425Y84850D02*
X496575D01*
X493425D02*
Y91150D01*
X448425Y85850D02*
X451575D01*
X448425D02*
Y92150D01*
X451575D01*
Y85850D02*
Y92150D01*
X455425Y190850D02*
X458575D01*
X455425D02*
Y197150D01*
X458575D01*
Y190850D02*
Y197150D01*
X483425D02*
X486575D01*
Y190850D02*
Y197150D01*
X483425Y190850D02*
X486575D01*
X483425D02*
Y197150D01*
X393425Y190850D02*
X396575D01*
X393425D02*
Y197150D01*
X396575D01*
Y190850D02*
Y197150D01*
X439425Y190850D02*
X442575D01*
X439425D02*
Y197150D01*
X442575D01*
Y190850D02*
Y197150D01*
X425425Y190850D02*
X428575D01*
X425425D02*
Y197150D01*
X428575D01*
Y190850D02*
Y197150D01*
X409425Y190850D02*
X412575D01*
X409425D02*
Y197150D01*
X412575D01*
Y190850D02*
Y197150D01*
X359150Y108425D02*
Y111575D01*
X352850D02*
X359150D01*
X352850Y108425D02*
Y111575D01*
Y108425D02*
X359150D01*
Y96425D02*
Y99575D01*
X352850D02*
X359150D01*
X352850Y96425D02*
Y99575D01*
Y96425D02*
X359150D01*
X352850Y90425D02*
Y93575D01*
Y90425D02*
X359150D01*
Y93575D01*
X352850D02*
X359150D01*
Y84425D02*
Y87575D01*
X352850D02*
X359150D01*
X352850Y84425D02*
Y87575D01*
Y84425D02*
X359150D01*
X352850Y78425D02*
Y81575D01*
Y78425D02*
X359150D01*
Y81575D01*
X352850D02*
X359150D01*
X352850Y194425D02*
Y197575D01*
Y194425D02*
X359150D01*
Y197575D01*
X352850D02*
X359150D01*
X321339Y195283D02*
X323898Y197843D01*
X321339Y178157D02*
Y197843D01*
Y178157D02*
X338661D01*
Y197843D01*
X321339D02*
X338661D01*
X223150Y183425D02*
Y186575D01*
X216850Y183425D02*
X223150D01*
X216850D02*
Y186575D01*
X223150D01*
X210150Y150425D02*
Y153575D01*
X203850Y150425D02*
X210150D01*
X203850D02*
Y153575D01*
X210150D01*
Y144425D02*
Y147575D01*
X203850Y144425D02*
X210150D01*
X203850D02*
Y147575D01*
X210150D01*
X222850Y150425D02*
Y153575D01*
X229150D01*
Y150425D02*
Y153575D01*
X222850Y150425D02*
X229150D01*
X222850Y144425D02*
Y147575D01*
X229150D01*
Y144425D02*
Y147575D01*
X222850Y144425D02*
X229150D01*
X479000Y111850D02*
X482150D01*
X479000D02*
Y118150D01*
X482150D01*
Y111850D02*
Y118150D01*
X464000Y111850D02*
X467150D01*
X464000D02*
Y118150D01*
X467150D01*
Y111850D02*
Y118150D01*
X517000Y111850D02*
X520150D01*
X517000D02*
Y118150D01*
X520150D01*
Y111850D02*
Y118150D01*
X493000Y111850D02*
X496150D01*
X493000D02*
Y118150D01*
X496150D01*
Y111850D02*
Y118150D01*
X505500Y111850D02*
X508650D01*
X505500D02*
Y118150D01*
X508650D01*
Y111850D02*
Y118150D01*
X406000Y111850D02*
X409150D01*
X406000D02*
Y118150D01*
X409150D01*
Y111850D02*
Y118150D01*
X448000Y111850D02*
X451150D01*
X448000D02*
Y118150D01*
X451150D01*
Y111850D02*
Y118150D01*
X434000Y111850D02*
X437150D01*
X434000D02*
Y118150D01*
X437150D01*
Y111850D02*
Y118150D01*
X421000Y111850D02*
X424150D01*
X421000D02*
Y118150D01*
X424150D01*
Y111850D02*
Y118150D01*
X391000Y111850D02*
X394150D01*
X391000D02*
Y118150D01*
X394150D01*
Y111850D02*
Y118150D01*
X494425Y221250D02*
X497575D01*
X494425D02*
Y227550D01*
X497575D01*
Y221250D02*
Y227550D01*
X482425Y221250D02*
X485575D01*
X482425D02*
Y227550D01*
X485575D01*
Y221250D02*
Y227550D01*
X506425Y221250D02*
X509575D01*
X506425D02*
Y227550D01*
X509575D01*
Y221250D02*
Y227550D01*
X518425Y221250D02*
X521575D01*
X518425D02*
Y227550D01*
X521575D01*
Y221250D02*
Y227550D01*
X392425Y221250D02*
X395575D01*
X392425D02*
Y227550D01*
X395575D01*
Y221250D02*
Y227550D01*
X424425Y221250D02*
X427575D01*
X424425D02*
Y227550D01*
X427575D01*
Y221250D02*
Y227550D01*
X408425Y221250D02*
X411575D01*
X408425D02*
Y227550D01*
X411575D01*
Y221250D02*
Y227550D01*
X438425Y221250D02*
X441575D01*
X438425D02*
Y227550D01*
X441575D01*
Y221250D02*
Y227550D01*
X454425Y221250D02*
X457575D01*
X454425D02*
Y227550D01*
X457575D01*
Y221250D02*
Y227550D01*
X470425Y221250D02*
X473575D01*
X470425D02*
Y227550D01*
X473575D01*
Y221250D02*
Y227550D01*
X411425Y249850D02*
X414575D01*
Y256150D01*
X411425D02*
X414575D01*
X411425Y249850D02*
Y256150D01*
X471425Y249850D02*
X474575D01*
Y256150D01*
X471425D02*
X474575D01*
X471425Y249850D02*
Y256150D01*
X461425Y249850D02*
X464575D01*
Y256150D01*
X461425D02*
X464575D01*
X461425Y249850D02*
Y256150D01*
X451425Y249850D02*
X454575D01*
Y256150D01*
X451425D02*
X454575D01*
X451425Y249850D02*
Y256150D01*
X441425Y249850D02*
X444575D01*
Y256150D01*
X441425D02*
X444575D01*
X441425Y249850D02*
Y256150D01*
X421425Y249850D02*
X424575D01*
Y256150D01*
X421425D02*
X424575D01*
X421425Y249850D02*
Y256150D01*
X483425Y137850D02*
Y144150D01*
X486575D01*
Y137850D02*
Y144150D01*
X483425Y137850D02*
X486575D01*
X104567Y264173D02*
X125433D01*
Y235827D02*
Y264173D01*
X104567Y235827D02*
X125433D01*
X104567D02*
Y264173D01*
Y261614D02*
X107126Y264173D01*
X191425Y266850D02*
Y273150D01*
X194575D01*
Y266850D02*
Y273150D01*
X191425Y266850D02*
X194575D01*
X161425D02*
Y273150D01*
X164575D01*
Y266850D02*
Y273150D01*
X161425Y266850D02*
X164575D01*
X338425D02*
Y273150D01*
X341575D01*
Y266850D02*
Y273150D01*
X338425Y266850D02*
X341575D01*
X176425D02*
Y273150D01*
X179575D01*
Y266850D02*
Y273150D01*
X176425Y266850D02*
X179575D01*
X347425D02*
Y273150D01*
X350575D01*
Y266850D02*
Y273150D01*
X347425Y266850D02*
X350575D01*
X501925Y297850D02*
Y304150D01*
X505075D01*
Y297850D02*
Y304150D01*
X501925Y297850D02*
X505075D01*
X127339Y107843D02*
X144661D01*
Y88157D02*
Y107843D01*
X127339Y88157D02*
X144661D01*
X127339D02*
Y107843D01*
Y105283D02*
X129898Y107843D01*
X101850Y105575D02*
X108150D01*
Y102425D02*
Y105575D01*
X101850Y102425D02*
X108150D01*
X101850D02*
Y105575D01*
Y99575D02*
X108150D01*
Y96425D02*
Y99575D01*
X101850Y96425D02*
X108150D01*
X101850D02*
Y99575D01*
Y93575D02*
X108150D01*
Y90425D02*
Y93575D01*
X101850Y90425D02*
X108150D01*
X101850D02*
Y93575D01*
X164850Y90425D02*
X171150D01*
X164850D02*
Y93575D01*
X171150D01*
Y90425D02*
Y93575D01*
X164850Y96425D02*
X171150D01*
X164850D02*
Y99575D01*
X171150D01*
Y96425D02*
Y99575D01*
X164850Y102425D02*
X171150D01*
X164850D02*
Y105575D01*
X171150D01*
Y102425D02*
Y105575D01*
X300850Y194425D02*
X307150D01*
X300850D02*
Y197575D01*
X307150D01*
Y194425D02*
Y197575D01*
X300850Y203575D02*
X307150D01*
Y200425D02*
Y203575D01*
X300850Y200425D02*
X307150D01*
X300850D02*
Y203575D01*
Y182425D02*
X307150D01*
X300850D02*
Y185575D01*
X307150D01*
Y182425D02*
Y185575D01*
X300850Y191575D02*
X307150D01*
Y188425D02*
Y191575D01*
X300850Y188425D02*
X307150D01*
X300850D02*
Y191575D01*
Y170425D02*
X307150D01*
X300850D02*
Y173575D01*
X307150D01*
Y170425D02*
Y173575D01*
X300850Y179575D02*
X307150D01*
Y176425D02*
Y179575D01*
X300850Y176425D02*
X307150D01*
X300850D02*
Y179575D01*
X209567Y264173D02*
X230433D01*
Y235827D02*
Y264173D01*
X209567Y235827D02*
X230433D01*
X209567D02*
Y264173D01*
Y261614D02*
X212126Y264173D01*
X352850Y173575D02*
X359150D01*
Y170425D02*
Y173575D01*
X352850Y170425D02*
X359150D01*
X352850D02*
Y173575D01*
Y176425D02*
X359150D01*
X352850D02*
Y179575D01*
X359150D01*
Y176425D02*
Y179575D01*
X352850Y185575D02*
X359150D01*
Y182425D02*
Y185575D01*
X352850Y182425D02*
X359150D01*
X352850D02*
Y185575D01*
Y188425D02*
X359150D01*
X352850D02*
Y191575D01*
X359150D01*
Y188425D02*
Y191575D01*
X352850Y200425D02*
X359150D01*
X352850D02*
Y203575D01*
X359150D01*
Y200425D02*
Y203575D01*
X321339Y107843D02*
X338661D01*
Y88157D02*
Y107843D01*
X321339Y88157D02*
X338661D01*
X321339D02*
Y107843D01*
Y105283D02*
X323898Y107843D01*
X298850Y104425D02*
X305150D01*
X298850D02*
Y107575D01*
X305150D01*
Y104425D02*
Y107575D01*
X298850Y113575D02*
X305150D01*
Y110425D02*
Y113575D01*
X298850Y110425D02*
X305150D01*
X298850D02*
Y113575D01*
Y92425D02*
X305150D01*
X298850D02*
Y95575D01*
X305150D01*
Y92425D02*
Y95575D01*
X298850Y101575D02*
X305150D01*
Y98425D02*
Y101575D01*
X298850Y98425D02*
X305150D01*
X298850D02*
Y101575D01*
Y80425D02*
X305150D01*
X298850D02*
Y83575D01*
X305150D01*
Y80425D02*
Y83575D01*
X298850Y89575D02*
X305150D01*
Y86425D02*
Y89575D01*
X298850Y86425D02*
X305150D01*
X298850D02*
Y89575D01*
X352850Y105575D02*
X359150D01*
Y102425D02*
Y105575D01*
X352850Y102425D02*
X359150D01*
X352850D02*
Y105575D01*
X321339Y161843D02*
X338661D01*
Y142157D02*
Y161843D01*
X321339Y142157D02*
X338661D01*
X321339D02*
Y161843D01*
Y159283D02*
X323898Y161843D01*
X300850Y161575D02*
X307150D01*
Y158425D02*
Y161575D01*
X300850Y158425D02*
X307150D01*
X300850D02*
Y161575D01*
Y155575D02*
X307150D01*
Y152425D02*
Y155575D01*
X300850Y152425D02*
X307150D01*
X300850D02*
Y155575D01*
Y149575D02*
X307150D01*
Y146425D02*
Y149575D01*
X300850Y146425D02*
X307150D01*
X300850D02*
Y149575D01*
X352850Y138425D02*
X359150D01*
X352850D02*
Y141575D01*
X359150D01*
Y138425D02*
Y141575D01*
X352850Y147575D02*
X359150D01*
Y144425D02*
Y147575D01*
X352850Y144425D02*
X359150D01*
X352850D02*
Y147575D01*
Y150425D02*
X359150D01*
X352850D02*
Y153575D01*
X359150D01*
Y150425D02*
Y153575D01*
X352850Y159575D02*
X359150D01*
Y156425D02*
Y159575D01*
X352850Y156425D02*
X359150D01*
X352850D02*
Y159575D01*
Y162425D02*
X359150D01*
X352850D02*
Y165575D01*
X359150D01*
Y162425D02*
Y165575D01*
X282350Y247575D02*
X288650D01*
Y244425D02*
Y247575D01*
X282350Y244425D02*
X288650D01*
X282350D02*
Y247575D01*
X56850Y188425D02*
X63150D01*
X56850D02*
Y191575D01*
X63150D01*
Y188425D02*
Y191575D01*
X282350Y214425D02*
X288650D01*
X282350D02*
Y217575D01*
X288650D01*
Y214425D02*
Y217575D01*
X282350Y237575D02*
X288650D01*
Y234425D02*
Y237575D01*
X282350Y234425D02*
X288650D01*
X282350D02*
Y237575D01*
X56850Y178425D02*
X63150D01*
X56850D02*
Y181575D01*
X63150D01*
Y178425D02*
Y181575D01*
X282350Y227575D02*
X288650D01*
Y224425D02*
Y227575D01*
X282350Y224425D02*
X288650D01*
X282350D02*
Y227575D01*
X86850Y166575D02*
X93150D01*
Y163425D02*
Y166575D01*
X86850Y163425D02*
X93150D01*
X86850D02*
Y166575D01*
X56850Y168425D02*
X63150D01*
X56850D02*
Y171575D01*
X63150D01*
Y168425D02*
Y171575D01*
X86850Y156575D02*
X93150D01*
Y153425D02*
Y156575D01*
X86850Y153425D02*
X93150D01*
X86850D02*
Y156575D01*
X56850Y158425D02*
X63150D01*
X56850D02*
Y161575D01*
X63150D01*
Y158425D02*
Y161575D01*
X86850Y146575D02*
X93150D01*
Y143425D02*
Y146575D01*
X86850Y143425D02*
X93150D01*
X86850D02*
Y146575D01*
X56850Y148425D02*
X63150D01*
X56850D02*
Y151575D01*
X63150D01*
Y148425D02*
Y151575D01*
X86850Y136575D02*
X93150D01*
Y133425D02*
Y136575D01*
X86850Y133425D02*
X93150D01*
X86850D02*
Y136575D01*
X56850Y138425D02*
X63150D01*
X56850D02*
Y141575D01*
X63150D01*
Y138425D02*
Y141575D01*
X56850Y128425D02*
X63150D01*
X56850D02*
Y131575D01*
X63150D01*
Y128425D02*
Y131575D01*
X226425Y198850D02*
Y205150D01*
X229575D01*
Y198850D02*
Y205150D01*
X226425Y198850D02*
X229575D01*
X216575D02*
Y205150D01*
X213425Y198850D02*
X216575D01*
X213425D02*
Y205150D01*
X216575D01*
X56850Y118425D02*
X63150D01*
X56850D02*
Y121575D01*
X63150D01*
Y118425D02*
Y121575D01*
X232425Y198850D02*
Y205150D01*
X235575D01*
Y198850D02*
Y205150D01*
X232425Y198850D02*
X235575D01*
X210575D02*
Y205150D01*
X207425Y198850D02*
X210575D01*
X207425D02*
Y205150D01*
X210575D01*
X238425Y198850D02*
Y205150D01*
X241575D01*
Y198850D02*
Y205150D01*
X238425Y198850D02*
X241575D01*
X204575D02*
Y205150D01*
X201425Y198850D02*
X204575D01*
X201425D02*
Y205150D01*
X204575D01*
X540925Y336850D02*
Y343150D01*
X544075D01*
Y336850D02*
Y343150D01*
X540925Y336850D02*
X544075D01*
X255850Y182575D02*
X262150D01*
Y179425D02*
Y182575D01*
X255850Y179425D02*
X262150D01*
X255850D02*
Y182575D01*
X158850Y178575D02*
X165150D01*
Y175425D02*
Y178575D01*
X158850Y175425D02*
X165150D01*
X158850D02*
Y178575D01*
X255850Y176575D02*
X262150D01*
Y173425D02*
Y176575D01*
X255850Y173425D02*
X262150D01*
X255850D02*
Y176575D01*
X158850Y172575D02*
X165150D01*
Y169425D02*
Y172575D01*
X158850Y169425D02*
X165150D01*
X158850D02*
Y172575D01*
X255850Y170575D02*
X262150D01*
Y167425D02*
Y170575D01*
X255850Y167425D02*
X262150D01*
X255850D02*
Y170575D01*
X158850Y166575D02*
X165150D01*
Y163425D02*
Y166575D01*
X158850Y163425D02*
X165150D01*
X158850D02*
Y166575D01*
X255850Y164575D02*
X262150D01*
Y161425D02*
Y164575D01*
X255850Y161425D02*
X262150D01*
X255850D02*
Y164575D01*
X158850Y160575D02*
X165150D01*
Y157425D02*
Y160575D01*
X158850Y157425D02*
X165150D01*
X158850D02*
Y160575D01*
X255850Y158575D02*
X262150D01*
Y155425D02*
Y158575D01*
X255850Y155425D02*
X262150D01*
X255850D02*
Y158575D01*
X158850Y154575D02*
X165150D01*
Y151425D02*
Y154575D01*
X158850Y151425D02*
X165150D01*
X158850D02*
Y154575D01*
X255850Y152575D02*
X262150D01*
Y149425D02*
Y152575D01*
X255850Y149425D02*
X262150D01*
X255850D02*
Y152575D01*
X243575Y117850D02*
Y124150D01*
X240425Y117850D02*
X243575D01*
X240425D02*
Y124150D01*
X243575D01*
X158850Y148575D02*
X165150D01*
Y145425D02*
Y148575D01*
X158850Y145425D02*
X165150D01*
X158850D02*
Y148575D01*
X237575Y117850D02*
Y124150D01*
X234425Y117850D02*
X237575D01*
X234425D02*
Y124150D01*
X237575D01*
X158850Y142575D02*
X165150D01*
Y139425D02*
Y142575D01*
X158850Y139425D02*
X165150D01*
X158850D02*
Y142575D01*
X231575Y117850D02*
Y124150D01*
X228425Y117850D02*
X231575D01*
X228425D02*
Y124150D01*
X231575D01*
X158850Y136575D02*
X165150D01*
Y133425D02*
Y136575D01*
X158850Y133425D02*
X165150D01*
X158850D02*
Y136575D01*
X225575Y117850D02*
Y124150D01*
X222425Y117850D02*
X225575D01*
X222425D02*
Y124150D01*
X225575D01*
X204425Y117850D02*
Y124150D01*
X207575D01*
Y117850D02*
Y124150D01*
X204425Y117850D02*
X207575D01*
X219575D02*
Y124150D01*
X216425Y117850D02*
X219575D01*
X216425D02*
Y124150D01*
X219575D01*
X213575Y117850D02*
Y124150D01*
X210425Y117850D02*
X213575D01*
X210425D02*
Y124150D01*
X213575D01*
X213323Y45488D02*
X218323Y50488D01*
X213323Y11512D02*
Y50488D01*
Y11512D02*
X228677D01*
Y50488D01*
X213323D02*
X228677D01*
X423425Y27850D02*
Y34150D01*
X426575D01*
Y27850D02*
Y34150D01*
X423425Y27850D02*
X426575D01*
X433425D02*
Y34150D01*
X436575D01*
Y27850D02*
Y34150D01*
X433425Y27850D02*
X436575D01*
X247850Y50575D02*
X254150D01*
Y47425D02*
Y50575D01*
X247850Y47425D02*
X254150D01*
X247850D02*
Y50575D01*
X443425Y27850D02*
Y34150D01*
X446575D01*
Y27850D02*
Y34150D01*
X443425Y27850D02*
X446575D01*
X182850Y47425D02*
X189150D01*
X182850D02*
Y50575D01*
X189150D01*
Y47425D02*
Y50575D01*
X247850Y41425D02*
X254150D01*
X247850D02*
Y44575D01*
X254150D01*
Y41425D02*
Y44575D01*
X453425Y27850D02*
Y34150D01*
X456575D01*
Y27850D02*
Y34150D01*
X453425Y27850D02*
X456575D01*
X182850Y41425D02*
X189150D01*
X182850D02*
Y44575D01*
X189150D01*
Y41425D02*
Y44575D01*
X247850Y35425D02*
X254150D01*
X247850D02*
Y38575D01*
X254150D01*
Y35425D02*
Y38575D01*
X463425Y27850D02*
Y34150D01*
X466575D01*
Y27850D02*
Y34150D01*
X463425Y27850D02*
X466575D01*
X182850Y35425D02*
X189150D01*
X182850D02*
Y38575D01*
X189150D01*
Y35425D02*
Y38575D01*
X247850Y29425D02*
X254150D01*
X247850D02*
Y32575D01*
X254150D01*
Y29425D02*
Y32575D01*
X473425Y27850D02*
Y34150D01*
X476575D01*
Y27850D02*
Y34150D01*
X473425Y27850D02*
X476575D01*
X182850Y29425D02*
X189150D01*
X182850D02*
Y32575D01*
X189150D01*
Y29425D02*
Y32575D01*
X247850Y23425D02*
X254150D01*
X247850D02*
Y26575D01*
X254150D01*
Y23425D02*
Y26575D01*
X483425Y27850D02*
Y34150D01*
X486575D01*
Y27850D02*
Y34150D01*
X483425Y27850D02*
X486575D01*
X182850Y23425D02*
X189150D01*
X182850D02*
Y26575D01*
X189150D01*
Y23425D02*
Y26575D01*
X247850Y17425D02*
X254150D01*
X247850D02*
Y20575D01*
X254150D01*
Y17425D02*
Y20575D01*
X493425Y27850D02*
Y34150D01*
X496575D01*
Y27850D02*
Y34150D01*
X493425Y27850D02*
X496575D01*
X182850Y17425D02*
X189150D01*
X182850D02*
Y20575D01*
X189150D01*
Y17425D02*
Y20575D01*
X182850Y11425D02*
X189150D01*
X182850D02*
Y14575D01*
X189150D01*
Y11425D02*
Y14575D01*
X247850D02*
X254150D01*
Y11425D02*
Y14575D01*
X247850Y11425D02*
X254150D01*
X247850D02*
Y14575D01*
X93323Y45488D02*
X98323Y50488D01*
X93323Y11512D02*
Y50488D01*
Y11512D02*
X108677D01*
Y50488D01*
X93323D02*
X108677D01*
X423425Y137850D02*
Y144150D01*
X426575D01*
Y137850D02*
Y144150D01*
X423425Y137850D02*
X426575D01*
X127850Y50575D02*
X134150D01*
Y47425D02*
Y50575D01*
X127850Y47425D02*
X134150D01*
X127850D02*
Y50575D01*
X433425Y137850D02*
Y144150D01*
X436575D01*
Y137850D02*
Y144150D01*
X433425Y137850D02*
X436575D01*
X62850Y47425D02*
X69150D01*
X62850D02*
Y50575D01*
X69150D01*
Y47425D02*
Y50575D01*
X127850Y41425D02*
X134150D01*
X127850D02*
Y44575D01*
X134150D01*
Y41425D02*
Y44575D01*
X443425Y137850D02*
Y144150D01*
X446575D01*
Y137850D02*
Y144150D01*
X443425Y137850D02*
X446575D01*
X62850Y41425D02*
X69150D01*
X62850D02*
Y44575D01*
X69150D01*
Y41425D02*
Y44575D01*
X127850Y35425D02*
X134150D01*
X127850D02*
Y38575D01*
X134150D01*
Y35425D02*
Y38575D01*
X333323Y45488D02*
X338323Y50488D01*
X333323Y11512D02*
Y50488D01*
Y11512D02*
X348677D01*
Y50488D01*
X333323D02*
X348677D01*
X453425Y137850D02*
Y144150D01*
X456575D01*
Y137850D02*
Y144150D01*
X453425Y137850D02*
X456575D01*
X62850Y35425D02*
X69150D01*
X62850D02*
Y38575D01*
X69150D01*
Y35425D02*
Y38575D01*
X127850Y29425D02*
X134150D01*
X127850D02*
Y32575D01*
X134150D01*
Y29425D02*
Y32575D01*
X463425Y137850D02*
Y144150D01*
X466575D01*
Y137850D02*
Y144150D01*
X463425Y137850D02*
X466575D01*
X62850Y29425D02*
X69150D01*
X62850D02*
Y32575D01*
X69150D01*
Y29425D02*
Y32575D01*
X127850Y23425D02*
X134150D01*
X127850D02*
Y26575D01*
X134150D01*
Y23425D02*
Y26575D01*
X473425Y137850D02*
Y144150D01*
X476575D01*
Y137850D02*
Y144150D01*
X473425Y137850D02*
X476575D01*
X62850Y23425D02*
X69150D01*
X62850D02*
Y26575D01*
X69150D01*
Y23425D02*
Y26575D01*
X127850Y17425D02*
X134150D01*
X127850D02*
Y20575D01*
X134150D01*
Y17425D02*
Y20575D01*
X367850Y50575D02*
X374150D01*
Y47425D02*
Y50575D01*
X367850Y47425D02*
X374150D01*
X367850D02*
Y50575D01*
X62850Y17425D02*
X69150D01*
X62850D02*
Y20575D01*
X69150D01*
Y17425D02*
Y20575D01*
X493425Y137850D02*
Y144150D01*
X496575D01*
Y137850D02*
Y144150D01*
X493425Y137850D02*
X496575D01*
X302850Y47425D02*
X309150D01*
X302850D02*
Y50575D01*
X309150D01*
Y47425D02*
Y50575D01*
X367850Y41425D02*
X374150D01*
X367850D02*
Y44575D01*
X374150D01*
Y41425D02*
Y44575D01*
X62850Y11425D02*
X69150D01*
X62850D02*
Y14575D01*
X69150D01*
Y11425D02*
Y14575D01*
X302850Y41425D02*
X309150D01*
X302850D02*
Y44575D01*
X309150D01*
Y41425D02*
Y44575D01*
X367850Y35425D02*
X374150D01*
X367850D02*
Y38575D01*
X374150D01*
Y35425D02*
Y38575D01*
X302850Y35425D02*
X309150D01*
X302850D02*
Y38575D01*
X309150D01*
Y35425D02*
Y38575D01*
X367850Y29425D02*
X374150D01*
X367850D02*
Y32575D01*
X374150D01*
Y29425D02*
Y32575D01*
X127850Y14575D02*
X134150D01*
Y11425D02*
Y14575D01*
X127850Y11425D02*
X134150D01*
X127850D02*
Y14575D01*
X302850Y29425D02*
X309150D01*
X302850D02*
Y32575D01*
X309150D01*
Y29425D02*
Y32575D01*
X367850Y23425D02*
X374150D01*
X367850D02*
Y26575D01*
X374150D01*
Y23425D02*
Y26575D01*
X302850Y23425D02*
X309150D01*
X302850D02*
Y26575D01*
X309150D01*
Y23425D02*
Y26575D01*
X367850Y17425D02*
X374150D01*
X367850D02*
Y20575D01*
X374150D01*
Y17425D02*
Y20575D01*
X302850Y17425D02*
X309150D01*
X302850D02*
Y20575D01*
X309150D01*
Y17425D02*
Y20575D01*
X302850Y11425D02*
X309150D01*
X302850D02*
Y14575D01*
X309150D01*
Y11425D02*
Y14575D01*
D54*
X198429Y143429D02*
Y184571D01*
Y143429D02*
X239571D01*
Y184571D01*
X198429D02*
X239571D01*
M02*
