G04*
G04 #@! TF.GenerationSoftware,Altium Limited,Altium Designer,22.3.1 (43)*
G04*
G04 Layer_Color=32896*
%FSLAX25Y25*%
%MOIN*%
G70*
G04*
G04 #@! TF.SameCoordinates,60FF7B14-72D9-4FEE-8752-AF75FF6C3092*
G04*
G04*
G04 #@! TF.FilePolarity,Positive*
G04*
G01*
G75*
%ADD54C,0.00197*%
D54*
X524047Y345709D02*
X529953D01*
Y334291D02*
Y345709D01*
X524047Y334291D02*
X529953D01*
X524047D02*
Y345709D01*
X510047Y334291D02*
X515953D01*
X510047D02*
Y345709D01*
X515953D01*
Y334291D02*
Y345709D01*
X491547D02*
X497453D01*
Y334291D02*
Y345709D01*
X491547Y334291D02*
X497453D01*
X491547D02*
Y345709D01*
X477047D02*
X482953D01*
Y334291D02*
Y345709D01*
X477047Y334291D02*
X482953D01*
X477047D02*
Y345709D01*
X441047D02*
X446953D01*
Y334291D02*
Y345709D01*
X441047Y334291D02*
X446953D01*
X441047D02*
Y345709D01*
X459047D02*
X464953D01*
Y334291D02*
Y345709D01*
X459047Y334291D02*
X464953D01*
X459047D02*
Y345709D01*
X425047D02*
X430953D01*
Y334291D02*
Y345709D01*
X425047Y334291D02*
X430953D01*
X425047D02*
Y345709D01*
X395047D02*
X400953D01*
Y334291D02*
Y345709D01*
X395047Y334291D02*
X400953D01*
X395047D02*
Y345709D01*
X409047D02*
X414953D01*
Y334291D02*
Y345709D01*
X409047Y334291D02*
X414953D01*
X409047D02*
Y345709D01*
X355547D02*
X361453D01*
Y334291D02*
Y345709D01*
X355547Y334291D02*
X361453D01*
X355547D02*
Y345709D01*
X374047D02*
X379953D01*
Y334291D02*
Y345709D01*
X374047Y334291D02*
X379953D01*
X374047D02*
Y345709D01*
X365047D02*
X370953D01*
Y334291D02*
Y345709D01*
X365047Y334291D02*
X370953D01*
X365047D02*
Y345709D01*
X346047D02*
X351953D01*
Y334291D02*
Y345709D01*
X346047Y334291D02*
X351953D01*
X346047D02*
Y345709D01*
X328047D02*
X333953D01*
Y334291D02*
Y345709D01*
X328047Y334291D02*
X333953D01*
X328047D02*
Y345709D01*
X319047D02*
X324953D01*
Y334291D02*
Y345709D01*
X319047Y334291D02*
X324953D01*
X319047D02*
Y345709D01*
X337047D02*
X342953D01*
Y334291D02*
Y345709D01*
X337047Y334291D02*
X342953D01*
X337047D02*
Y345709D01*
X242047D02*
X247953D01*
Y334291D02*
Y345709D01*
X242047Y334291D02*
X247953D01*
X242047D02*
Y345709D01*
X262047D02*
X267953D01*
Y334291D02*
Y345709D01*
X262047Y334291D02*
X267953D01*
X262047D02*
Y345709D01*
X252047D02*
X257953D01*
Y334291D02*
Y345709D01*
X252047Y334291D02*
X257953D01*
X252047D02*
Y345709D01*
X272047D02*
X277953D01*
Y334291D02*
Y345709D01*
X272047Y334291D02*
X277953D01*
X272047D02*
Y345709D01*
X302047D02*
X307953D01*
Y334291D02*
Y345709D01*
X302047Y334291D02*
X307953D01*
X302047D02*
Y345709D01*
X292047D02*
X297953D01*
Y334291D02*
Y345709D01*
X292047Y334291D02*
X297953D01*
X292047D02*
Y345709D01*
X282047D02*
X287953D01*
Y334291D02*
Y345709D01*
X282047Y334291D02*
X287953D01*
X282047D02*
Y345709D01*
X232047D02*
X237953D01*
Y334291D02*
Y345709D01*
X232047Y334291D02*
X237953D01*
X232047D02*
Y345709D01*
X160047D02*
X165953D01*
Y334291D02*
Y345709D01*
X160047Y334291D02*
X165953D01*
X160047D02*
Y345709D01*
X217047D02*
X222953D01*
Y334291D02*
Y345709D01*
X217047Y334291D02*
X222953D01*
X217047D02*
Y345709D01*
X175047Y334291D02*
X180953D01*
X175047D02*
Y345709D01*
X180953D01*
Y334291D02*
Y345709D01*
X190047D02*
X195953D01*
Y334291D02*
Y345709D01*
X190047Y334291D02*
X195953D01*
X190047D02*
Y345709D01*
X204547D02*
X210453D01*
Y334291D02*
Y345709D01*
X204547Y334291D02*
X210453D01*
X204547D02*
Y345709D01*
X142047D02*
X147953D01*
Y334291D02*
Y345709D01*
X142047Y334291D02*
X147953D01*
X142047D02*
Y345709D01*
X132047D02*
X137953D01*
Y334291D02*
Y345709D01*
X132047Y334291D02*
X137953D01*
X132047D02*
Y345709D01*
X122047D02*
X127953D01*
Y334291D02*
Y345709D01*
X122047Y334291D02*
X127953D01*
X122047D02*
Y345709D01*
X112047D02*
X117953D01*
Y334291D02*
Y345709D01*
X112047Y334291D02*
X117953D01*
X112047D02*
Y345709D01*
X72047D02*
X77953D01*
Y334291D02*
Y345709D01*
X72047Y334291D02*
X77953D01*
X72047D02*
Y345709D01*
X102047D02*
X107953D01*
Y334291D02*
Y345709D01*
X102047Y334291D02*
X107953D01*
X102047D02*
Y345709D01*
X92047D02*
X97953D01*
Y334291D02*
Y345709D01*
X92047Y334291D02*
X97953D01*
X92047D02*
Y345709D01*
X82047D02*
X87953D01*
Y334291D02*
Y345709D01*
X82047Y334291D02*
X87953D01*
X82047D02*
Y345709D01*
X214291Y181953D02*
X225709D01*
X214291Y176047D02*
Y181953D01*
Y176047D02*
X225709D01*
Y181953D01*
X463047Y82291D02*
X468953D01*
X463047D02*
Y93709D01*
X468953D01*
Y82291D02*
Y93709D01*
X433047Y83291D02*
X438953D01*
X433047D02*
Y94709D01*
X438953D01*
Y83291D02*
Y94709D01*
X405047Y82291D02*
X410953D01*
X405047D02*
Y93709D01*
X410953D01*
Y82291D02*
Y93709D01*
X420047Y82291D02*
X425953D01*
X420047D02*
Y93709D01*
X425953D01*
Y82291D02*
Y93709D01*
X492047D02*
X497953D01*
Y82291D02*
Y93709D01*
X492047Y82291D02*
X497953D01*
X492047D02*
Y93709D01*
X447047Y83291D02*
X452953D01*
X447047D02*
Y94709D01*
X452953D01*
Y83291D02*
Y94709D01*
X454047Y188291D02*
X459953D01*
X454047D02*
Y199709D01*
X459953D01*
Y188291D02*
Y199709D01*
X482047D02*
X487953D01*
Y188291D02*
Y199709D01*
X482047Y188291D02*
X487953D01*
X482047D02*
Y199709D01*
X392047Y188291D02*
X397953D01*
X392047D02*
Y199709D01*
X397953D01*
Y188291D02*
Y199709D01*
X438047Y188291D02*
X443953D01*
X438047D02*
Y199709D01*
X443953D01*
Y188291D02*
Y199709D01*
X424047Y188291D02*
X429953D01*
X424047D02*
Y199709D01*
X429953D01*
Y188291D02*
Y199709D01*
X408047Y188291D02*
X413953D01*
X408047D02*
Y199709D01*
X413953D01*
Y188291D02*
Y199709D01*
X361709Y107047D02*
Y112953D01*
X350291D02*
X361709D01*
X350291Y107047D02*
Y112953D01*
Y107047D02*
X361709D01*
Y95047D02*
Y100953D01*
X350291D02*
X361709D01*
X350291Y95047D02*
Y100953D01*
Y95047D02*
X361709D01*
X350291Y89047D02*
Y94953D01*
Y89047D02*
X361709D01*
Y94953D01*
X350291D02*
X361709D01*
Y83047D02*
Y88953D01*
X350291D02*
X361709D01*
X350291Y83047D02*
Y88953D01*
Y83047D02*
X361709D01*
X350291Y77047D02*
Y82953D01*
Y77047D02*
X361709D01*
Y82953D01*
X350291D02*
X361709D01*
X350291Y193047D02*
Y198953D01*
Y193047D02*
X361709D01*
Y198953D01*
X350291D02*
X361709D01*
X314547Y176976D02*
Y199024D01*
Y176976D02*
X345453D01*
Y199024D01*
X314547D02*
X345453D01*
X225709Y182047D02*
Y187953D01*
X214291Y182047D02*
X225709D01*
X214291D02*
Y187953D01*
X225709D01*
X212709Y149047D02*
Y154953D01*
X201291Y149047D02*
X212709D01*
X201291D02*
Y154953D01*
X212709D01*
Y143047D02*
Y148953D01*
X201291Y143047D02*
X212709D01*
X201291D02*
Y148953D01*
X212709D01*
X220291Y149047D02*
Y154953D01*
X231709D01*
Y149047D02*
Y154953D01*
X220291Y149047D02*
X231709D01*
X220291Y143047D02*
Y148953D01*
X231709D01*
Y143047D02*
Y148953D01*
X220291Y143047D02*
X231709D01*
X477622Y109291D02*
X483528D01*
X477622D02*
Y120709D01*
X483528D01*
Y109291D02*
Y120709D01*
X462622Y109291D02*
X468528D01*
X462622D02*
Y120709D01*
X468528D01*
Y109291D02*
Y120709D01*
X515622Y109291D02*
X521528D01*
X515622D02*
Y120709D01*
X521528D01*
Y109291D02*
Y120709D01*
X491622Y109291D02*
X497528D01*
X491622D02*
Y120709D01*
X497528D01*
Y109291D02*
Y120709D01*
X504122Y109291D02*
X510028D01*
X504122D02*
Y120709D01*
X510028D01*
Y109291D02*
Y120709D01*
X404622Y109291D02*
X410528D01*
X404622D02*
Y120709D01*
X410528D01*
Y109291D02*
Y120709D01*
X446622Y109291D02*
X452528D01*
X446622D02*
Y120709D01*
X452528D01*
Y109291D02*
Y120709D01*
X432622Y109291D02*
X438528D01*
X432622D02*
Y120709D01*
X438528D01*
Y109291D02*
Y120709D01*
X419622Y109291D02*
X425528D01*
X419622D02*
Y120709D01*
X425528D01*
Y109291D02*
Y120709D01*
X389622Y109291D02*
X395528D01*
X389622D02*
Y120709D01*
X395528D01*
Y109291D02*
Y120709D01*
X493047Y218691D02*
X498953D01*
X493047D02*
Y230109D01*
X498953D01*
Y218691D02*
Y230109D01*
X481047Y218691D02*
X486953D01*
X481047D02*
Y230109D01*
X486953D01*
Y218691D02*
Y230109D01*
X505047Y218691D02*
X510953D01*
X505047D02*
Y230109D01*
X510953D01*
Y218691D02*
Y230109D01*
X517047Y218691D02*
X522953D01*
X517047D02*
Y230109D01*
X522953D01*
Y218691D02*
Y230109D01*
X391047Y218691D02*
X396953D01*
X391047D02*
Y230109D01*
X396953D01*
Y218691D02*
Y230109D01*
X423047Y218691D02*
X428953D01*
X423047D02*
Y230109D01*
X428953D01*
Y218691D02*
Y230109D01*
X407047Y218691D02*
X412953D01*
X407047D02*
Y230109D01*
X412953D01*
Y218691D02*
Y230109D01*
X437047Y218691D02*
X442953D01*
X437047D02*
Y230109D01*
X442953D01*
Y218691D02*
Y230109D01*
X453047Y218691D02*
X458953D01*
X453047D02*
Y230109D01*
X458953D01*
Y218691D02*
Y230109D01*
X469047Y218691D02*
X474953D01*
X469047D02*
Y230109D01*
X474953D01*
Y218691D02*
Y230109D01*
X410047Y247291D02*
X415953D01*
Y258709D01*
X410047D02*
X415953D01*
X410047Y247291D02*
Y258709D01*
X470047Y247291D02*
X475953D01*
Y258709D01*
X470047D02*
X475953D01*
X470047Y247291D02*
Y258709D01*
X460047Y247291D02*
X465953D01*
Y258709D01*
X460047D02*
X465953D01*
X460047Y247291D02*
Y258709D01*
X450047Y247291D02*
X455953D01*
Y258709D01*
X450047D02*
X455953D01*
X450047Y247291D02*
Y258709D01*
X440047Y247291D02*
X445953D01*
Y258709D01*
X440047D02*
X445953D01*
X440047Y247291D02*
Y258709D01*
X420047Y247291D02*
X425953D01*
Y258709D01*
X420047D02*
X425953D01*
X420047Y247291D02*
Y258709D01*
X482047Y135291D02*
Y146709D01*
X487953D01*
Y135291D02*
Y146709D01*
X482047Y135291D02*
X487953D01*
X96496Y265748D02*
X133504D01*
Y234252D02*
Y265748D01*
X96496Y234252D02*
X133504D01*
X96496D02*
Y265748D01*
X190047Y264291D02*
Y275709D01*
X195953D01*
Y264291D02*
Y275709D01*
X190047Y264291D02*
X195953D01*
X160047D02*
Y275709D01*
X165953D01*
Y264291D02*
Y275709D01*
X160047Y264291D02*
X165953D01*
X337047D02*
Y275709D01*
X342953D01*
Y264291D02*
Y275709D01*
X337047Y264291D02*
X342953D01*
X175047D02*
Y275709D01*
X180953D01*
Y264291D02*
Y275709D01*
X175047Y264291D02*
X180953D01*
X346047D02*
Y275709D01*
X351953D01*
Y264291D02*
Y275709D01*
X346047Y264291D02*
X351953D01*
X500547Y295291D02*
Y306709D01*
X506453D01*
Y295291D02*
Y306709D01*
X500547Y295291D02*
X506453D01*
X120547Y109024D02*
X151453D01*
Y86976D02*
Y109024D01*
X120547Y86976D02*
X151453D01*
X120547D02*
Y109024D01*
X99291Y106953D02*
X110709D01*
Y101047D02*
Y106953D01*
X99291Y101047D02*
X110709D01*
X99291D02*
Y106953D01*
Y100953D02*
X110709D01*
Y95047D02*
Y100953D01*
X99291Y95047D02*
X110709D01*
X99291D02*
Y100953D01*
Y94953D02*
X110709D01*
Y89047D02*
Y94953D01*
X99291Y89047D02*
X110709D01*
X99291D02*
Y94953D01*
X162291Y89047D02*
X173709D01*
X162291D02*
Y94953D01*
X173709D01*
Y89047D02*
Y94953D01*
X162291Y95047D02*
X173709D01*
X162291D02*
Y100953D01*
X173709D01*
Y95047D02*
Y100953D01*
X162291Y101047D02*
X173709D01*
X162291D02*
Y106953D01*
X173709D01*
Y101047D02*
Y106953D01*
X298291Y193047D02*
X309709D01*
X298291D02*
Y198953D01*
X309709D01*
Y193047D02*
Y198953D01*
X298291Y204953D02*
X309709D01*
Y199047D02*
Y204953D01*
X298291Y199047D02*
X309709D01*
X298291D02*
Y204953D01*
Y181047D02*
X309709D01*
X298291D02*
Y186953D01*
X309709D01*
Y181047D02*
Y186953D01*
X298291Y192953D02*
X309709D01*
Y187047D02*
Y192953D01*
X298291Y187047D02*
X309709D01*
X298291D02*
Y192953D01*
Y169047D02*
X309709D01*
X298291D02*
Y174953D01*
X309709D01*
Y169047D02*
Y174953D01*
X298291Y180953D02*
X309709D01*
Y175047D02*
Y180953D01*
X298291Y175047D02*
X309709D01*
X298291D02*
Y180953D01*
X201496Y265748D02*
X238504D01*
Y234252D02*
Y265748D01*
X201496Y234252D02*
X238504D01*
X201496D02*
Y265748D01*
X350291Y174953D02*
X361709D01*
Y169047D02*
Y174953D01*
X350291Y169047D02*
X361709D01*
X350291D02*
Y174953D01*
Y175047D02*
X361709D01*
X350291D02*
Y180953D01*
X361709D01*
Y175047D02*
Y180953D01*
X350291Y186953D02*
X361709D01*
Y181047D02*
Y186953D01*
X350291Y181047D02*
X361709D01*
X350291D02*
Y186953D01*
Y187047D02*
X361709D01*
X350291D02*
Y192953D01*
X361709D01*
Y187047D02*
Y192953D01*
X350291Y199047D02*
X361709D01*
X350291D02*
Y204953D01*
X361709D01*
Y199047D02*
Y204953D01*
X314547Y109024D02*
X345453D01*
Y86976D02*
Y109024D01*
X314547Y86976D02*
X345453D01*
X314547D02*
Y109024D01*
X296291Y103047D02*
X307709D01*
X296291D02*
Y108953D01*
X307709D01*
Y103047D02*
Y108953D01*
X296291Y114953D02*
X307709D01*
Y109047D02*
Y114953D01*
X296291Y109047D02*
X307709D01*
X296291D02*
Y114953D01*
Y91047D02*
X307709D01*
X296291D02*
Y96953D01*
X307709D01*
Y91047D02*
Y96953D01*
X296291Y102953D02*
X307709D01*
Y97047D02*
Y102953D01*
X296291Y97047D02*
X307709D01*
X296291D02*
Y102953D01*
Y79047D02*
X307709D01*
X296291D02*
Y84953D01*
X307709D01*
Y79047D02*
Y84953D01*
X296291Y90953D02*
X307709D01*
Y85047D02*
Y90953D01*
X296291Y85047D02*
X307709D01*
X296291D02*
Y90953D01*
X350291Y106953D02*
X361709D01*
Y101047D02*
Y106953D01*
X350291Y101047D02*
X361709D01*
X350291D02*
Y106953D01*
X314547Y163024D02*
X345453D01*
Y140976D02*
Y163024D01*
X314547Y140976D02*
X345453D01*
X314547D02*
Y163024D01*
X298291Y162953D02*
X309709D01*
Y157047D02*
Y162953D01*
X298291Y157047D02*
X309709D01*
X298291D02*
Y162953D01*
Y156953D02*
X309709D01*
Y151047D02*
Y156953D01*
X298291Y151047D02*
X309709D01*
X298291D02*
Y156953D01*
Y150953D02*
X309709D01*
Y145047D02*
Y150953D01*
X298291Y145047D02*
X309709D01*
X298291D02*
Y150953D01*
X350291Y137047D02*
X361709D01*
X350291D02*
Y142953D01*
X361709D01*
Y137047D02*
Y142953D01*
X350291Y148953D02*
X361709D01*
Y143047D02*
Y148953D01*
X350291Y143047D02*
X361709D01*
X350291D02*
Y148953D01*
Y149047D02*
X361709D01*
X350291D02*
Y154953D01*
X361709D01*
Y149047D02*
Y154953D01*
X350291Y160953D02*
X361709D01*
Y155047D02*
Y160953D01*
X350291Y155047D02*
X361709D01*
X350291D02*
Y160953D01*
Y161047D02*
X361709D01*
X350291D02*
Y166953D01*
X361709D01*
Y161047D02*
Y166953D01*
X279791Y248953D02*
X291209D01*
Y243047D02*
Y248953D01*
X279791Y243047D02*
X291209D01*
X279791D02*
Y248953D01*
X54291Y187047D02*
X65709D01*
X54291D02*
Y192953D01*
X65709D01*
Y187047D02*
Y192953D01*
X279791Y213047D02*
X291209D01*
X279791D02*
Y218953D01*
X291209D01*
Y213047D02*
Y218953D01*
X279791Y238953D02*
X291209D01*
Y233047D02*
Y238953D01*
X279791Y233047D02*
X291209D01*
X279791D02*
Y238953D01*
X54291Y177047D02*
X65709D01*
X54291D02*
Y182953D01*
X65709D01*
Y177047D02*
Y182953D01*
X279791Y228953D02*
X291209D01*
Y223047D02*
Y228953D01*
X279791Y223047D02*
X291209D01*
X279791D02*
Y228953D01*
X84291Y167953D02*
X95709D01*
Y162047D02*
Y167953D01*
X84291Y162047D02*
X95709D01*
X84291D02*
Y167953D01*
X54291Y167047D02*
X65709D01*
X54291D02*
Y172953D01*
X65709D01*
Y167047D02*
Y172953D01*
X84291Y157953D02*
X95709D01*
Y152047D02*
Y157953D01*
X84291Y152047D02*
X95709D01*
X84291D02*
Y157953D01*
X54291Y157047D02*
X65709D01*
X54291D02*
Y162953D01*
X65709D01*
Y157047D02*
Y162953D01*
X84291Y147953D02*
X95709D01*
Y142047D02*
Y147953D01*
X84291Y142047D02*
X95709D01*
X84291D02*
Y147953D01*
X54291Y147047D02*
X65709D01*
X54291D02*
Y152953D01*
X65709D01*
Y147047D02*
Y152953D01*
X84291Y137953D02*
X95709D01*
Y132047D02*
Y137953D01*
X84291Y132047D02*
X95709D01*
X84291D02*
Y137953D01*
X54291Y137047D02*
X65709D01*
X54291D02*
Y142953D01*
X65709D01*
Y137047D02*
Y142953D01*
X54291Y127047D02*
X65709D01*
X54291D02*
Y132953D01*
X65709D01*
Y127047D02*
Y132953D01*
X225047Y196291D02*
Y207709D01*
X230953D01*
Y196291D02*
Y207709D01*
X225047Y196291D02*
X230953D01*
X217953D02*
Y207709D01*
X212047Y196291D02*
X217953D01*
X212047D02*
Y207709D01*
X217953D01*
X54291Y117047D02*
X65709D01*
X54291D02*
Y122953D01*
X65709D01*
Y117047D02*
Y122953D01*
X231047Y196291D02*
Y207709D01*
X236953D01*
Y196291D02*
Y207709D01*
X231047Y196291D02*
X236953D01*
X211953D02*
Y207709D01*
X206047Y196291D02*
X211953D01*
X206047D02*
Y207709D01*
X211953D01*
X237047Y196291D02*
Y207709D01*
X242953D01*
Y196291D02*
Y207709D01*
X237047Y196291D02*
X242953D01*
X205953D02*
Y207709D01*
X200047Y196291D02*
X205953D01*
X200047D02*
Y207709D01*
X205953D01*
X539547Y334291D02*
Y345709D01*
X545453D01*
Y334291D02*
Y345709D01*
X539547Y334291D02*
X545453D01*
X253291Y183953D02*
X264709D01*
Y178047D02*
Y183953D01*
X253291Y178047D02*
X264709D01*
X253291D02*
Y183953D01*
X156291Y179953D02*
X167709D01*
Y174047D02*
Y179953D01*
X156291Y174047D02*
X167709D01*
X156291D02*
Y179953D01*
X253291Y177953D02*
X264709D01*
Y172047D02*
Y177953D01*
X253291Y172047D02*
X264709D01*
X253291D02*
Y177953D01*
X156291Y173953D02*
X167709D01*
Y168047D02*
Y173953D01*
X156291Y168047D02*
X167709D01*
X156291D02*
Y173953D01*
X253291Y171953D02*
X264709D01*
Y166047D02*
Y171953D01*
X253291Y166047D02*
X264709D01*
X253291D02*
Y171953D01*
X156291Y167953D02*
X167709D01*
Y162047D02*
Y167953D01*
X156291Y162047D02*
X167709D01*
X156291D02*
Y167953D01*
X253291Y165953D02*
X264709D01*
Y160047D02*
Y165953D01*
X253291Y160047D02*
X264709D01*
X253291D02*
Y165953D01*
X156291Y161953D02*
X167709D01*
Y156047D02*
Y161953D01*
X156291Y156047D02*
X167709D01*
X156291D02*
Y161953D01*
X253291Y159953D02*
X264709D01*
Y154047D02*
Y159953D01*
X253291Y154047D02*
X264709D01*
X253291D02*
Y159953D01*
X156291Y155953D02*
X167709D01*
Y150047D02*
Y155953D01*
X156291Y150047D02*
X167709D01*
X156291D02*
Y155953D01*
X253291Y153953D02*
X264709D01*
Y148047D02*
Y153953D01*
X253291Y148047D02*
X264709D01*
X253291D02*
Y153953D01*
X244953Y115291D02*
Y126709D01*
X239047Y115291D02*
X244953D01*
X239047D02*
Y126709D01*
X244953D01*
X156291Y149953D02*
X167709D01*
Y144047D02*
Y149953D01*
X156291Y144047D02*
X167709D01*
X156291D02*
Y149953D01*
X238953Y115291D02*
Y126709D01*
X233047Y115291D02*
X238953D01*
X233047D02*
Y126709D01*
X238953D01*
X156291Y143953D02*
X167709D01*
Y138047D02*
Y143953D01*
X156291Y138047D02*
X167709D01*
X156291D02*
Y143953D01*
X232953Y115291D02*
Y126709D01*
X227047Y115291D02*
X232953D01*
X227047D02*
Y126709D01*
X232953D01*
X156291Y137953D02*
X167709D01*
Y132047D02*
Y137953D01*
X156291Y132047D02*
X167709D01*
X156291D02*
Y137953D01*
X226953Y115291D02*
Y126709D01*
X221047Y115291D02*
X226953D01*
X221047D02*
Y126709D01*
X226953D01*
X203047Y115291D02*
Y126709D01*
X208953D01*
Y115291D02*
Y126709D01*
X203047Y115291D02*
X208953D01*
X220953D02*
Y126709D01*
X215047Y115291D02*
X220953D01*
X215047D02*
Y126709D01*
X220953D01*
X214953Y115291D02*
Y126709D01*
X209047Y115291D02*
X214953D01*
X209047D02*
Y126709D01*
X214953D01*
X206335Y10331D02*
Y51669D01*
Y10331D02*
X235665D01*
Y51669D01*
X206335D02*
X235665D01*
X422047Y25291D02*
Y36709D01*
X427953D01*
Y25291D02*
Y36709D01*
X422047Y25291D02*
X427953D01*
X432047D02*
Y36709D01*
X437953D01*
Y25291D02*
Y36709D01*
X432047Y25291D02*
X437953D01*
X245291Y51953D02*
X256709D01*
Y46047D02*
Y51953D01*
X245291Y46047D02*
X256709D01*
X245291D02*
Y51953D01*
X442047Y25291D02*
Y36709D01*
X447953D01*
Y25291D02*
Y36709D01*
X442047Y25291D02*
X447953D01*
X180291Y46047D02*
X191709D01*
X180291D02*
Y51953D01*
X191709D01*
Y46047D02*
Y51953D01*
X245291Y40047D02*
X256709D01*
X245291D02*
Y45953D01*
X256709D01*
Y40047D02*
Y45953D01*
X452047Y25291D02*
Y36709D01*
X457953D01*
Y25291D02*
Y36709D01*
X452047Y25291D02*
X457953D01*
X180291Y40047D02*
X191709D01*
X180291D02*
Y45953D01*
X191709D01*
Y40047D02*
Y45953D01*
X245291Y34047D02*
X256709D01*
X245291D02*
Y39953D01*
X256709D01*
Y34047D02*
Y39953D01*
X462047Y25291D02*
Y36709D01*
X467953D01*
Y25291D02*
Y36709D01*
X462047Y25291D02*
X467953D01*
X180291Y34047D02*
X191709D01*
X180291D02*
Y39953D01*
X191709D01*
Y34047D02*
Y39953D01*
X245291Y28047D02*
X256709D01*
X245291D02*
Y33953D01*
X256709D01*
Y28047D02*
Y33953D01*
X472047Y25291D02*
Y36709D01*
X477953D01*
Y25291D02*
Y36709D01*
X472047Y25291D02*
X477953D01*
X180291Y28047D02*
X191709D01*
X180291D02*
Y33953D01*
X191709D01*
Y28047D02*
Y33953D01*
X245291Y22047D02*
X256709D01*
X245291D02*
Y27953D01*
X256709D01*
Y22047D02*
Y27953D01*
X482047Y25291D02*
Y36709D01*
X487953D01*
Y25291D02*
Y36709D01*
X482047Y25291D02*
X487953D01*
X180291Y22047D02*
X191709D01*
X180291D02*
Y27953D01*
X191709D01*
Y22047D02*
Y27953D01*
X245291Y16047D02*
X256709D01*
X245291D02*
Y21953D01*
X256709D01*
Y16047D02*
Y21953D01*
X492047Y25291D02*
Y36709D01*
X497953D01*
Y25291D02*
Y36709D01*
X492047Y25291D02*
X497953D01*
X180291Y16047D02*
X191709D01*
X180291D02*
Y21953D01*
X191709D01*
Y16047D02*
Y21953D01*
X180291Y10047D02*
X191709D01*
X180291D02*
Y15953D01*
X191709D01*
Y10047D02*
Y15953D01*
X245291D02*
X256709D01*
Y10047D02*
Y15953D01*
X245291Y10047D02*
X256709D01*
X245291D02*
Y15953D01*
X86335Y10331D02*
Y51669D01*
Y10331D02*
X115665D01*
Y51669D01*
X86335D02*
X115665D01*
X422047Y135291D02*
Y146709D01*
X427953D01*
Y135291D02*
Y146709D01*
X422047Y135291D02*
X427953D01*
X125291Y51953D02*
X136709D01*
Y46047D02*
Y51953D01*
X125291Y46047D02*
X136709D01*
X125291D02*
Y51953D01*
X432047Y135291D02*
Y146709D01*
X437953D01*
Y135291D02*
Y146709D01*
X432047Y135291D02*
X437953D01*
X60291Y46047D02*
X71709D01*
X60291D02*
Y51953D01*
X71709D01*
Y46047D02*
Y51953D01*
X125291Y40047D02*
X136709D01*
X125291D02*
Y45953D01*
X136709D01*
Y40047D02*
Y45953D01*
X442047Y135291D02*
Y146709D01*
X447953D01*
Y135291D02*
Y146709D01*
X442047Y135291D02*
X447953D01*
X60291Y40047D02*
X71709D01*
X60291D02*
Y45953D01*
X71709D01*
Y40047D02*
Y45953D01*
X125291Y34047D02*
X136709D01*
X125291D02*
Y39953D01*
X136709D01*
Y34047D02*
Y39953D01*
X326335Y10331D02*
Y51669D01*
Y10331D02*
X355665D01*
Y51669D01*
X326335D02*
X355665D01*
X452047Y135291D02*
Y146709D01*
X457953D01*
Y135291D02*
Y146709D01*
X452047Y135291D02*
X457953D01*
X60291Y34047D02*
X71709D01*
X60291D02*
Y39953D01*
X71709D01*
Y34047D02*
Y39953D01*
X125291Y28047D02*
X136709D01*
X125291D02*
Y33953D01*
X136709D01*
Y28047D02*
Y33953D01*
X462047Y135291D02*
Y146709D01*
X467953D01*
Y135291D02*
Y146709D01*
X462047Y135291D02*
X467953D01*
X60291Y28047D02*
X71709D01*
X60291D02*
Y33953D01*
X71709D01*
Y28047D02*
Y33953D01*
X125291Y22047D02*
X136709D01*
X125291D02*
Y27953D01*
X136709D01*
Y22047D02*
Y27953D01*
X472047Y135291D02*
Y146709D01*
X477953D01*
Y135291D02*
Y146709D01*
X472047Y135291D02*
X477953D01*
X60291Y22047D02*
X71709D01*
X60291D02*
Y27953D01*
X71709D01*
Y22047D02*
Y27953D01*
X125291Y16047D02*
X136709D01*
X125291D02*
Y21953D01*
X136709D01*
Y16047D02*
Y21953D01*
X365291Y51953D02*
X376709D01*
Y46047D02*
Y51953D01*
X365291Y46047D02*
X376709D01*
X365291D02*
Y51953D01*
X60291Y16047D02*
X71709D01*
X60291D02*
Y21953D01*
X71709D01*
Y16047D02*
Y21953D01*
X492047Y135291D02*
Y146709D01*
X497953D01*
Y135291D02*
Y146709D01*
X492047Y135291D02*
X497953D01*
X300291Y46047D02*
X311709D01*
X300291D02*
Y51953D01*
X311709D01*
Y46047D02*
Y51953D01*
X365291Y40047D02*
X376709D01*
X365291D02*
Y45953D01*
X376709D01*
Y40047D02*
Y45953D01*
X60291Y10047D02*
X71709D01*
X60291D02*
Y15953D01*
X71709D01*
Y10047D02*
Y15953D01*
X300291Y40047D02*
X311709D01*
X300291D02*
Y45953D01*
X311709D01*
Y40047D02*
Y45953D01*
X365291Y34047D02*
X376709D01*
X365291D02*
Y39953D01*
X376709D01*
Y34047D02*
Y39953D01*
X300291Y34047D02*
X311709D01*
X300291D02*
Y39953D01*
X311709D01*
Y34047D02*
Y39953D01*
X365291Y28047D02*
X376709D01*
X365291D02*
Y33953D01*
X376709D01*
Y28047D02*
Y33953D01*
X125291Y15953D02*
X136709D01*
Y10047D02*
Y15953D01*
X125291Y10047D02*
X136709D01*
X125291D02*
Y15953D01*
X300291Y28047D02*
X311709D01*
X300291D02*
Y33953D01*
X311709D01*
Y28047D02*
Y33953D01*
X365291Y22047D02*
X376709D01*
X365291D02*
Y27953D01*
X376709D01*
Y22047D02*
Y27953D01*
X300291Y22047D02*
X311709D01*
X300291D02*
Y27953D01*
X311709D01*
Y22047D02*
Y27953D01*
X365291Y16047D02*
X376709D01*
X365291D02*
Y21953D01*
X376709D01*
Y16047D02*
Y21953D01*
X300291Y16047D02*
X311709D01*
X300291D02*
Y21953D01*
X311709D01*
Y16047D02*
Y21953D01*
X300291Y10047D02*
X311709D01*
X300291D02*
Y15953D01*
X311709D01*
Y10047D02*
Y15953D01*
M02*
