G04*
G04 #@! TF.GenerationSoftware,Altium Limited,Altium Designer,22.3.1 (43)*
G04*
G04 Layer_Color=8421504*
%FSLAX25Y25*%
%MOIN*%
G70*
G04*
G04 #@! TF.SameCoordinates,60FF7B14-72D9-4FEE-8752-AF75FF6C3092*
G04*
G04*
G04 #@! TF.FilePolarity,Positive*
G04*
G01*
G75*
%ADD15R,0.03150X0.03150*%
%ADD16R,0.03150X0.03740*%
%ADD17R,0.05807X0.01772*%
%ADD18R,0.03740X0.03150*%
%ADD19R,0.07087X0.01772*%
%ADD20R,0.02362X0.05807*%
%ADD21R,0.05807X0.02362*%
%ADD22R,0.06004X0.02559*%
D15*
X163000Y334350D02*
D03*
Y340650D02*
D03*
X178000Y334350D02*
D03*
Y340650D02*
D03*
X193000Y334350D02*
D03*
Y340650D02*
D03*
X220000Y334350D02*
D03*
Y340650D02*
D03*
X207500Y334350D02*
D03*
Y340650D02*
D03*
X521000Y189850D02*
D03*
Y196150D02*
D03*
X322000Y340650D02*
D03*
Y334350D02*
D03*
X331000Y340650D02*
D03*
Y334350D02*
D03*
X340000Y340650D02*
D03*
Y334350D02*
D03*
X349000Y340650D02*
D03*
Y334350D02*
D03*
X358500Y340650D02*
D03*
Y334350D02*
D03*
X368000Y340650D02*
D03*
Y334350D02*
D03*
X377000Y340650D02*
D03*
Y334350D02*
D03*
X398000Y340650D02*
D03*
Y334350D02*
D03*
X412000Y340650D02*
D03*
Y334350D02*
D03*
X444000Y340650D02*
D03*
Y334350D02*
D03*
X462000Y340650D02*
D03*
Y334350D02*
D03*
X480000Y340650D02*
D03*
Y334350D02*
D03*
X494500Y340650D02*
D03*
Y334350D02*
D03*
X145000Y340650D02*
D03*
Y334350D02*
D03*
X135000Y340650D02*
D03*
Y334350D02*
D03*
X125000Y340650D02*
D03*
Y334350D02*
D03*
X115000Y340650D02*
D03*
Y334350D02*
D03*
X105000Y340650D02*
D03*
Y334350D02*
D03*
X95000Y340650D02*
D03*
Y334350D02*
D03*
X85000Y340650D02*
D03*
Y334350D02*
D03*
X75000Y340650D02*
D03*
Y334350D02*
D03*
X527000Y340650D02*
D03*
Y334350D02*
D03*
X513000Y340650D02*
D03*
Y334350D02*
D03*
X393000Y90650D02*
D03*
Y84350D02*
D03*
X408000Y90650D02*
D03*
Y84350D02*
D03*
X423000Y90650D02*
D03*
Y84350D02*
D03*
X436000Y90650D02*
D03*
Y84350D02*
D03*
X450000Y90650D02*
D03*
Y84350D02*
D03*
X466000Y90650D02*
D03*
Y84350D02*
D03*
X481000Y90650D02*
D03*
Y84350D02*
D03*
X495000Y90650D02*
D03*
Y84350D02*
D03*
X507500Y90650D02*
D03*
Y84350D02*
D03*
X519000Y90650D02*
D03*
Y84350D02*
D03*
X305000Y340650D02*
D03*
Y334350D02*
D03*
X295000Y340650D02*
D03*
Y334350D02*
D03*
X285000Y340650D02*
D03*
Y334350D02*
D03*
X275000Y340650D02*
D03*
Y334350D02*
D03*
X265000Y340650D02*
D03*
Y334350D02*
D03*
X255000Y340650D02*
D03*
Y334350D02*
D03*
X245000Y340650D02*
D03*
Y334350D02*
D03*
X235000Y340650D02*
D03*
Y334350D02*
D03*
X395000Y196150D02*
D03*
Y189850D02*
D03*
X411000Y196150D02*
D03*
Y189850D02*
D03*
X427000Y196150D02*
D03*
Y189850D02*
D03*
X441000Y196150D02*
D03*
Y189850D02*
D03*
X457000Y196150D02*
D03*
Y189850D02*
D03*
X473000Y196150D02*
D03*
Y189850D02*
D03*
X485000Y196150D02*
D03*
Y189850D02*
D03*
X497000Y196150D02*
D03*
Y189850D02*
D03*
X509000Y196150D02*
D03*
Y189850D02*
D03*
D16*
X352850Y110000D02*
D03*
X359150D02*
D03*
X352850Y98000D02*
D03*
X359150D02*
D03*
Y92000D02*
D03*
X352850D02*
D03*
Y86000D02*
D03*
X359150D02*
D03*
Y80000D02*
D03*
X352850D02*
D03*
X359150Y196000D02*
D03*
X352850D02*
D03*
X101850Y104000D02*
D03*
X108150D02*
D03*
X101850Y98000D02*
D03*
X108150D02*
D03*
X101850Y92000D02*
D03*
X108150D02*
D03*
X171150D02*
D03*
X164850D02*
D03*
X171150Y98000D02*
D03*
X164850D02*
D03*
X171150Y104000D02*
D03*
X164850D02*
D03*
X307150Y196000D02*
D03*
X300850D02*
D03*
Y202000D02*
D03*
X307150D02*
D03*
Y184000D02*
D03*
X300850D02*
D03*
Y190000D02*
D03*
X307150D02*
D03*
Y172000D02*
D03*
X300850D02*
D03*
Y178000D02*
D03*
X307150D02*
D03*
X352850Y172000D02*
D03*
X359150D02*
D03*
Y178000D02*
D03*
X352850D02*
D03*
Y184000D02*
D03*
X359150D02*
D03*
Y190000D02*
D03*
X352850D02*
D03*
X359150Y202000D02*
D03*
X352850D02*
D03*
X305150Y106000D02*
D03*
X298850D02*
D03*
Y112000D02*
D03*
X305150D02*
D03*
Y94000D02*
D03*
X298850D02*
D03*
Y100000D02*
D03*
X305150D02*
D03*
Y82000D02*
D03*
X298850D02*
D03*
Y88000D02*
D03*
X305150D02*
D03*
X352850Y104000D02*
D03*
X359150D02*
D03*
X300850Y160000D02*
D03*
X307150D02*
D03*
X300850Y154000D02*
D03*
X307150D02*
D03*
X300850Y148000D02*
D03*
X307150D02*
D03*
X359150Y140000D02*
D03*
X352850D02*
D03*
Y146000D02*
D03*
X359150D02*
D03*
Y152000D02*
D03*
X352850D02*
D03*
Y158000D02*
D03*
X359150D02*
D03*
Y164000D02*
D03*
X352850D02*
D03*
X282350Y246000D02*
D03*
X288650D02*
D03*
X63150Y190000D02*
D03*
X56850D02*
D03*
X288650Y216000D02*
D03*
X282350D02*
D03*
Y236000D02*
D03*
X288650D02*
D03*
X63150Y180000D02*
D03*
X56850D02*
D03*
X282350Y226000D02*
D03*
X288650D02*
D03*
X86850Y165000D02*
D03*
X93150D02*
D03*
X63150Y170000D02*
D03*
X56850D02*
D03*
X86850Y155000D02*
D03*
X93150D02*
D03*
X63150Y160000D02*
D03*
X56850D02*
D03*
X86850Y145000D02*
D03*
X93150D02*
D03*
X63150Y150000D02*
D03*
X56850D02*
D03*
X86850Y135000D02*
D03*
X93150D02*
D03*
X63150Y140000D02*
D03*
X56850D02*
D03*
X63150Y130000D02*
D03*
X56850D02*
D03*
X63150Y120000D02*
D03*
X56850D02*
D03*
X255850Y181000D02*
D03*
X262150D02*
D03*
X158850Y177000D02*
D03*
X165150D02*
D03*
X255850Y175000D02*
D03*
X262150D02*
D03*
X158850Y171000D02*
D03*
X165150D02*
D03*
X255850Y169000D02*
D03*
X262150D02*
D03*
X158850Y165000D02*
D03*
X165150D02*
D03*
X255850Y163000D02*
D03*
X262150D02*
D03*
X158850Y159000D02*
D03*
X165150D02*
D03*
X255850Y157000D02*
D03*
X262150D02*
D03*
X158850Y153000D02*
D03*
X165150D02*
D03*
X255850Y151000D02*
D03*
X262150D02*
D03*
X158850Y147000D02*
D03*
X165150D02*
D03*
X158850Y141000D02*
D03*
X165150D02*
D03*
X158850Y135000D02*
D03*
X165150D02*
D03*
X247850Y49000D02*
D03*
X254150D02*
D03*
X189150D02*
D03*
X182850D02*
D03*
X254150Y43000D02*
D03*
X247850D02*
D03*
X189150D02*
D03*
X182850D02*
D03*
X254150Y37000D02*
D03*
X247850D02*
D03*
X189150D02*
D03*
X182850D02*
D03*
X254150Y31000D02*
D03*
X247850D02*
D03*
X189150D02*
D03*
X182850D02*
D03*
X254150Y25000D02*
D03*
X247850D02*
D03*
X189150D02*
D03*
X182850D02*
D03*
X254150Y19000D02*
D03*
X247850D02*
D03*
X189150D02*
D03*
X182850D02*
D03*
X189150Y13000D02*
D03*
X182850D02*
D03*
X247850D02*
D03*
X254150D02*
D03*
X127850Y49000D02*
D03*
X134150D02*
D03*
X69150D02*
D03*
X62850D02*
D03*
X134150Y43000D02*
D03*
X127850D02*
D03*
X69150D02*
D03*
X62850D02*
D03*
X134150Y37000D02*
D03*
X127850D02*
D03*
X69150D02*
D03*
X62850D02*
D03*
X134150Y31000D02*
D03*
X127850D02*
D03*
X69150D02*
D03*
X62850D02*
D03*
X134150Y25000D02*
D03*
X127850D02*
D03*
X69150D02*
D03*
X62850D02*
D03*
X134150Y19000D02*
D03*
X127850D02*
D03*
X367850Y49000D02*
D03*
X374150D02*
D03*
X69150Y19000D02*
D03*
X62850D02*
D03*
X309150Y49000D02*
D03*
X302850D02*
D03*
X374150Y43000D02*
D03*
X367850D02*
D03*
X69150Y13000D02*
D03*
X62850D02*
D03*
X309150Y43000D02*
D03*
X302850D02*
D03*
X374150Y37000D02*
D03*
X367850D02*
D03*
X309150D02*
D03*
X302850D02*
D03*
X374150Y31000D02*
D03*
X367850D02*
D03*
X127850Y13000D02*
D03*
X134150D02*
D03*
X309150Y31000D02*
D03*
X302850D02*
D03*
X374150Y25000D02*
D03*
X367850D02*
D03*
X309150D02*
D03*
X302850D02*
D03*
X374150Y19000D02*
D03*
X367850D02*
D03*
X309150D02*
D03*
X302850D02*
D03*
X309150Y13000D02*
D03*
X302850D02*
D03*
D17*
X341567Y195677D02*
D03*
Y193118D02*
D03*
Y190559D02*
D03*
Y188000D02*
D03*
Y185441D02*
D03*
Y182882D02*
D03*
Y180323D02*
D03*
X318433D02*
D03*
Y182882D02*
D03*
Y185441D02*
D03*
Y188000D02*
D03*
Y190559D02*
D03*
Y193118D02*
D03*
Y195677D02*
D03*
X124433Y105677D02*
D03*
Y103118D02*
D03*
Y100559D02*
D03*
Y98000D02*
D03*
Y95441D02*
D03*
Y92882D02*
D03*
Y90323D02*
D03*
X147567D02*
D03*
Y92882D02*
D03*
Y95441D02*
D03*
Y98000D02*
D03*
Y100559D02*
D03*
Y103118D02*
D03*
Y105677D02*
D03*
X318433D02*
D03*
Y103118D02*
D03*
Y100559D02*
D03*
Y98000D02*
D03*
Y95441D02*
D03*
Y92882D02*
D03*
Y90323D02*
D03*
X341567D02*
D03*
Y92882D02*
D03*
Y95441D02*
D03*
Y98000D02*
D03*
Y100559D02*
D03*
Y103118D02*
D03*
Y105677D02*
D03*
X318433Y159677D02*
D03*
Y157118D02*
D03*
Y154559D02*
D03*
Y152000D02*
D03*
Y149441D02*
D03*
Y146882D02*
D03*
Y144323D02*
D03*
X341567D02*
D03*
Y146882D02*
D03*
Y149441D02*
D03*
Y152000D02*
D03*
Y154559D02*
D03*
Y157118D02*
D03*
Y159677D02*
D03*
D18*
X413000Y256150D02*
D03*
Y249850D02*
D03*
X473000Y256150D02*
D03*
Y249850D02*
D03*
X463000Y256150D02*
D03*
Y249850D02*
D03*
X453000Y256150D02*
D03*
Y249850D02*
D03*
X443000Y256150D02*
D03*
Y249850D02*
D03*
X423000Y256150D02*
D03*
Y249850D02*
D03*
X485000Y137850D02*
D03*
Y144150D02*
D03*
X193000Y266850D02*
D03*
Y273150D02*
D03*
X163000Y266850D02*
D03*
Y273150D02*
D03*
X340000Y266850D02*
D03*
Y273150D02*
D03*
X178000Y266850D02*
D03*
Y273150D02*
D03*
X349000Y266850D02*
D03*
Y273150D02*
D03*
X503500Y297850D02*
D03*
Y304150D02*
D03*
X228000Y198850D02*
D03*
Y205150D02*
D03*
X215000D02*
D03*
Y198850D02*
D03*
X234000D02*
D03*
Y205150D02*
D03*
X209000D02*
D03*
Y198850D02*
D03*
X240000D02*
D03*
Y205150D02*
D03*
X203000D02*
D03*
Y198850D02*
D03*
X542500Y336850D02*
D03*
Y343150D02*
D03*
X242000Y124150D02*
D03*
Y117850D02*
D03*
X236000Y124150D02*
D03*
Y117850D02*
D03*
X230000Y124150D02*
D03*
Y117850D02*
D03*
X224000Y124150D02*
D03*
Y117850D02*
D03*
X206000D02*
D03*
Y124150D02*
D03*
X218000D02*
D03*
Y117850D02*
D03*
X212000Y124150D02*
D03*
Y117850D02*
D03*
X425000Y27850D02*
D03*
Y34150D02*
D03*
X435000Y27850D02*
D03*
Y34150D02*
D03*
X445000Y27850D02*
D03*
Y34150D02*
D03*
X455000Y27850D02*
D03*
Y34150D02*
D03*
X465000Y27850D02*
D03*
Y34150D02*
D03*
X475000Y27850D02*
D03*
Y34150D02*
D03*
X485000Y27850D02*
D03*
Y34150D02*
D03*
X495000Y27850D02*
D03*
Y34150D02*
D03*
X425000Y137850D02*
D03*
Y144150D02*
D03*
X435000Y137850D02*
D03*
Y144150D02*
D03*
X445000Y137850D02*
D03*
Y144150D02*
D03*
X455000Y137850D02*
D03*
Y144150D02*
D03*
X465000Y137850D02*
D03*
Y144150D02*
D03*
X475000Y137850D02*
D03*
Y144150D02*
D03*
X495000Y137850D02*
D03*
Y144150D02*
D03*
D19*
X101024Y261516D02*
D03*
Y258957D02*
D03*
Y256398D02*
D03*
Y253839D02*
D03*
Y251280D02*
D03*
Y248720D02*
D03*
Y246161D02*
D03*
Y243602D02*
D03*
Y241043D02*
D03*
Y238484D02*
D03*
X128976D02*
D03*
Y241043D02*
D03*
Y243602D02*
D03*
Y246161D02*
D03*
Y248720D02*
D03*
Y251280D02*
D03*
Y253839D02*
D03*
Y256398D02*
D03*
Y258957D02*
D03*
Y261516D02*
D03*
X206024D02*
D03*
Y258957D02*
D03*
Y256398D02*
D03*
Y253839D02*
D03*
Y251280D02*
D03*
Y248720D02*
D03*
Y246161D02*
D03*
Y243602D02*
D03*
Y241043D02*
D03*
Y238484D02*
D03*
X233976D02*
D03*
Y241043D02*
D03*
Y243602D02*
D03*
Y246161D02*
D03*
Y248720D02*
D03*
Y251280D02*
D03*
Y253839D02*
D03*
Y256398D02*
D03*
Y258957D02*
D03*
Y261516D02*
D03*
D20*
X207976Y180685D02*
D03*
X211126D02*
D03*
X214276D02*
D03*
X217425D02*
D03*
X220575D02*
D03*
X223724D02*
D03*
X226874D02*
D03*
X230024D02*
D03*
Y147315D02*
D03*
X226874D02*
D03*
X223724D02*
D03*
X220575D02*
D03*
X217425D02*
D03*
X214276D02*
D03*
X211126D02*
D03*
X207976D02*
D03*
D21*
X235685Y175024D02*
D03*
Y171874D02*
D03*
Y168724D02*
D03*
Y165575D02*
D03*
Y162425D02*
D03*
Y159276D02*
D03*
Y156126D02*
D03*
Y152976D02*
D03*
X202315D02*
D03*
Y156126D02*
D03*
Y159276D02*
D03*
Y162425D02*
D03*
Y165575D02*
D03*
Y168724D02*
D03*
Y171874D02*
D03*
Y175024D02*
D03*
D22*
X231677Y48500D02*
D03*
Y43500D02*
D03*
Y38500D02*
D03*
Y33500D02*
D03*
Y28500D02*
D03*
Y23500D02*
D03*
Y18500D02*
D03*
Y13500D02*
D03*
X210323D02*
D03*
Y18500D02*
D03*
Y23500D02*
D03*
Y28500D02*
D03*
Y33500D02*
D03*
Y38500D02*
D03*
Y43500D02*
D03*
Y48500D02*
D03*
X111677D02*
D03*
Y43500D02*
D03*
Y38500D02*
D03*
Y33500D02*
D03*
Y28500D02*
D03*
Y23500D02*
D03*
Y18500D02*
D03*
Y13500D02*
D03*
X90323D02*
D03*
Y18500D02*
D03*
Y23500D02*
D03*
Y28500D02*
D03*
Y33500D02*
D03*
Y38500D02*
D03*
Y43500D02*
D03*
Y48500D02*
D03*
X351677D02*
D03*
Y43500D02*
D03*
Y38500D02*
D03*
Y33500D02*
D03*
Y28500D02*
D03*
Y23500D02*
D03*
Y18500D02*
D03*
Y13500D02*
D03*
X330323D02*
D03*
Y18500D02*
D03*
Y23500D02*
D03*
Y28500D02*
D03*
Y33500D02*
D03*
Y38500D02*
D03*
Y43500D02*
D03*
Y48500D02*
D03*
M02*
