G04*
G04 #@! TF.GenerationSoftware,Altium Limited,Altium Designer,22.3.1 (43)*
G04*
G04 Layer_Color=16711935*
%FSLAX25Y25*%
%MOIN*%
G70*
G04*
G04 #@! TF.SameCoordinates,DE08D283-0CB9-458E-8042-9F6044BD937B*
G04*
G04*
G04 #@! TF.FilePolarity,Positive*
G04*
G01*
G75*
%ADD10C,0.00394*%
%ADD14C,0.00787*%
D10*
X136094Y235945D02*
X139244Y239094D01*
X136094Y211535D02*
Y239094D01*
Y211535D02*
X163654D01*
Y239094D01*
X136094D02*
X163654D01*
D14*
X223264Y9189D02*
X273736D01*
X223264D02*
Y37732D01*
X273736D01*
Y9189D02*
Y37732D01*
X223264Y162189D02*
X273736D01*
X223264D02*
Y190732D01*
X273736D01*
Y162189D02*
Y190732D01*
X294764Y9189D02*
X345236D01*
X294764D02*
Y37732D01*
X345236D01*
Y9189D02*
Y37732D01*
X294764Y162189D02*
X345236D01*
X294764D02*
Y190732D01*
X345236D01*
Y162189D02*
Y190732D01*
X367264Y9189D02*
X417736D01*
X367264D02*
Y37732D01*
X417736D01*
Y9189D02*
Y37732D01*
X367264Y162189D02*
X417736D01*
X367264D02*
Y190732D01*
X417736D01*
Y162189D02*
Y190732D01*
X439264Y9189D02*
X489736D01*
X439264D02*
Y37732D01*
X489736D01*
Y9189D02*
Y37732D01*
X439264Y162189D02*
X489736D01*
X439264D02*
Y190732D01*
X489736D01*
Y162189D02*
Y190732D01*
M02*
