G04*
G04 #@! TF.GenerationSoftware,Altium Limited,Altium Designer,22.3.1 (43)*
G04*
G04 Layer_Color=8388736*
%FSLAX25Y25*%
%MOIN*%
G70*
G04*
G04 #@! TF.SameCoordinates,DE08D283-0CB9-458E-8042-9F6044BD937B*
G04*
G04*
G04 #@! TF.FilePolarity,Negative*
G04*
G01*
G75*
%ADD24R,0.04540X0.03950*%
%ADD25R,0.03950X0.04540*%
%ADD26R,0.06607X0.02572*%
%ADD27R,0.07887X0.02572*%
%ADD28R,0.05721X0.03162*%
%ADD29R,0.03162X0.06607*%
%ADD30R,0.06607X0.03162*%
%ADD31R,0.03950X0.03950*%
%ADD32C,0.08477*%
%ADD33C,0.06706*%
%ADD34R,0.06706X0.06706*%
%ADD35O,0.06706X0.06706*%
%ADD36C,0.07887*%
%ADD37C,0.06800*%
%ADD38R,0.06800X0.06800*%
%ADD39C,0.20800*%
%ADD40R,0.06706X0.06706*%
%ADD41C,0.05800*%
D24*
X383000Y148150D02*
D03*
Y141850D02*
D03*
X236000Y148150D02*
D03*
Y141850D02*
D03*
X184000Y134150D02*
D03*
Y127850D02*
D03*
X195000Y168850D02*
D03*
Y175150D02*
D03*
X311000Y302000D02*
D03*
Y295701D02*
D03*
X236000Y301150D02*
D03*
Y294850D02*
D03*
X195000Y265850D02*
D03*
Y272150D02*
D03*
X429000Y295350D02*
D03*
Y301650D02*
D03*
X285000Y295350D02*
D03*
Y301650D02*
D03*
X357000Y295350D02*
D03*
Y301650D02*
D03*
X429000Y142350D02*
D03*
Y148650D02*
D03*
X284000Y142350D02*
D03*
Y148650D02*
D03*
X213000Y141850D02*
D03*
Y148150D02*
D03*
X357000Y142350D02*
D03*
Y148650D02*
D03*
X213000Y295350D02*
D03*
Y301650D02*
D03*
X156000Y318850D02*
D03*
Y325150D02*
D03*
X170000Y318850D02*
D03*
Y325150D02*
D03*
X184000Y318850D02*
D03*
Y325150D02*
D03*
X169000Y265850D02*
D03*
Y272150D02*
D03*
X140000D02*
D03*
Y265850D02*
D03*
X175000D02*
D03*
Y272150D02*
D03*
X134000D02*
D03*
Y265850D02*
D03*
X181000D02*
D03*
Y272150D02*
D03*
X128000D02*
D03*
Y265850D02*
D03*
X169000Y193150D02*
D03*
Y186850D02*
D03*
X163000Y193150D02*
D03*
Y186850D02*
D03*
X157000Y193150D02*
D03*
Y186850D02*
D03*
X151000Y193150D02*
D03*
Y186850D02*
D03*
X133000D02*
D03*
Y193150D02*
D03*
X145000Y193299D02*
D03*
Y187000D02*
D03*
X139000Y193150D02*
D03*
Y186850D02*
D03*
D25*
X389150Y311000D02*
D03*
X382850D02*
D03*
X371850Y361000D02*
D03*
X378150D02*
D03*
X309850Y357000D02*
D03*
X316150D02*
D03*
Y338000D02*
D03*
X309850D02*
D03*
Y345000D02*
D03*
X316150D02*
D03*
X371850Y331000D02*
D03*
X378150D02*
D03*
Y337000D02*
D03*
X371850D02*
D03*
Y343000D02*
D03*
X378150D02*
D03*
Y349000D02*
D03*
X371850D02*
D03*
Y355000D02*
D03*
X378150D02*
D03*
X103150Y60000D02*
D03*
X96850D02*
D03*
X73150Y190000D02*
D03*
X66850D02*
D03*
X55150Y70000D02*
D03*
X48850D02*
D03*
X103150D02*
D03*
X96850D02*
D03*
X73150Y180000D02*
D03*
X66850D02*
D03*
X103150Y80000D02*
D03*
X96850D02*
D03*
Y165000D02*
D03*
X103150D02*
D03*
X73150Y170000D02*
D03*
X66850D02*
D03*
X96850Y155000D02*
D03*
X103150D02*
D03*
X73150Y160000D02*
D03*
X66850D02*
D03*
X96850Y145000D02*
D03*
X103150D02*
D03*
X73150Y150000D02*
D03*
X66850D02*
D03*
X96850Y135000D02*
D03*
X103150D02*
D03*
X73150Y140000D02*
D03*
X66850D02*
D03*
X73150Y130000D02*
D03*
X66850D02*
D03*
X73150Y120000D02*
D03*
X66850D02*
D03*
X183850Y247000D02*
D03*
X190150D02*
D03*
X101850Y251000D02*
D03*
X108150D02*
D03*
X183850Y241000D02*
D03*
X190150D02*
D03*
X101850Y245000D02*
D03*
X108150D02*
D03*
X183850Y235000D02*
D03*
X190150D02*
D03*
X101850Y239000D02*
D03*
X108150D02*
D03*
X183850Y229000D02*
D03*
X190150D02*
D03*
X101850Y233000D02*
D03*
X108150D02*
D03*
X183850Y223000D02*
D03*
X190150D02*
D03*
X101850Y227000D02*
D03*
X108150D02*
D03*
X183850Y202000D02*
D03*
X190150D02*
D03*
X101850Y221000D02*
D03*
X108150D02*
D03*
X101850Y215000D02*
D03*
X108150D02*
D03*
X101850Y209000D02*
D03*
X108150D02*
D03*
D26*
X329433Y355677D02*
D03*
Y353118D02*
D03*
Y350559D02*
D03*
Y348000D02*
D03*
Y345441D02*
D03*
Y342882D02*
D03*
Y340323D02*
D03*
X352567D02*
D03*
Y342882D02*
D03*
Y345441D02*
D03*
Y348000D02*
D03*
Y350559D02*
D03*
Y353118D02*
D03*
Y355677D02*
D03*
D27*
X26024Y285516D02*
D03*
Y282957D02*
D03*
Y280398D02*
D03*
Y277839D02*
D03*
Y275279D02*
D03*
Y272721D02*
D03*
Y270161D02*
D03*
Y267602D02*
D03*
Y265043D02*
D03*
Y262484D02*
D03*
X53976D02*
D03*
Y265043D02*
D03*
Y267602D02*
D03*
Y270161D02*
D03*
Y272721D02*
D03*
Y275279D02*
D03*
Y277839D02*
D03*
Y280398D02*
D03*
Y282957D02*
D03*
Y285516D02*
D03*
D28*
X265866Y301760D02*
D03*
X194866D02*
D03*
Y294240D02*
D03*
X203134Y298000D02*
D03*
X265866Y294240D02*
D03*
X274134Y298000D02*
D03*
X411866Y301760D02*
D03*
Y294240D02*
D03*
X420134Y298000D02*
D03*
X339866Y301760D02*
D03*
Y294240D02*
D03*
X348134Y298000D02*
D03*
X194866Y148760D02*
D03*
Y141240D02*
D03*
X203134Y145000D02*
D03*
X265866Y148760D02*
D03*
Y141240D02*
D03*
X274134Y145000D02*
D03*
X411866Y148760D02*
D03*
Y141240D02*
D03*
X420134Y145000D02*
D03*
X339866Y148760D02*
D03*
Y141240D02*
D03*
X348134Y145000D02*
D03*
D29*
X138850Y242000D02*
D03*
X142000D02*
D03*
X145150D02*
D03*
X148299D02*
D03*
X151449D02*
D03*
X154598D02*
D03*
X157748D02*
D03*
X160898D02*
D03*
Y208630D02*
D03*
X157748D02*
D03*
X154598D02*
D03*
X151449D02*
D03*
X148299D02*
D03*
X145150D02*
D03*
X142000D02*
D03*
X138850D02*
D03*
D30*
X166559Y236339D02*
D03*
Y233189D02*
D03*
Y230039D02*
D03*
Y226890D02*
D03*
Y223740D02*
D03*
Y220590D02*
D03*
Y217441D02*
D03*
Y214291D02*
D03*
X133189D02*
D03*
Y217441D02*
D03*
Y220590D02*
D03*
Y223740D02*
D03*
Y226890D02*
D03*
Y230039D02*
D03*
Y233189D02*
D03*
Y236339D02*
D03*
D31*
X284000Y119850D02*
D03*
Y126150D02*
D03*
X285000Y279150D02*
D03*
Y272850D02*
D03*
X429000Y279150D02*
D03*
Y272850D02*
D03*
X357000Y279150D02*
D03*
Y272850D02*
D03*
X240000Y334350D02*
D03*
Y340650D02*
D03*
X260000Y334350D02*
D03*
Y340650D02*
D03*
X192000Y334350D02*
D03*
Y340650D02*
D03*
X177500Y334350D02*
D03*
Y340650D02*
D03*
X163500Y334350D02*
D03*
Y340650D02*
D03*
X76000Y334350D02*
D03*
Y340650D02*
D03*
X86000Y334350D02*
D03*
Y340650D02*
D03*
X96000Y334350D02*
D03*
Y340650D02*
D03*
X106000Y334350D02*
D03*
Y340650D02*
D03*
X116000Y334350D02*
D03*
Y340650D02*
D03*
X126000Y334350D02*
D03*
Y340650D02*
D03*
X136000Y334350D02*
D03*
Y340650D02*
D03*
X146000Y334350D02*
D03*
Y340650D02*
D03*
X208000Y334350D02*
D03*
Y340650D02*
D03*
X220000Y334350D02*
D03*
Y340650D02*
D03*
X213000Y272850D02*
D03*
Y279150D02*
D03*
X429000Y119850D02*
D03*
Y126150D02*
D03*
X213000Y119850D02*
D03*
Y126150D02*
D03*
X357000Y119850D02*
D03*
Y126150D02*
D03*
D32*
X248378Y215126D02*
D03*
X272000Y271031D02*
D03*
X344000D02*
D03*
X320378Y215126D02*
D03*
X392378D02*
D03*
X416000Y271031D02*
D03*
X488000D02*
D03*
X464378Y215126D02*
D03*
X248378Y62126D02*
D03*
X272000Y118032D02*
D03*
X344000D02*
D03*
X320378Y62126D02*
D03*
X392378D02*
D03*
X416000Y118032D02*
D03*
X488000D02*
D03*
X464378Y62126D02*
D03*
D33*
X224756Y223000D02*
D03*
X296756D02*
D03*
X368756D02*
D03*
X440756D02*
D03*
X224756Y70000D02*
D03*
X296756D02*
D03*
X368756D02*
D03*
X440756D02*
D03*
X70000Y80000D02*
D03*
X80000D02*
D03*
X70000Y70000D02*
D03*
X80000D02*
D03*
X70000Y60000D02*
D03*
D34*
X272000Y223000D02*
D03*
X344000D02*
D03*
X416000D02*
D03*
X488000D02*
D03*
X272000Y70000D02*
D03*
X344000D02*
D03*
X416000D02*
D03*
X488000D02*
D03*
X80000Y60000D02*
D03*
D35*
X224756Y271031D02*
D03*
X296756D02*
D03*
X368756D02*
D03*
X440756D02*
D03*
X224756Y118032D02*
D03*
X296756D02*
D03*
X368756D02*
D03*
X440756D02*
D03*
D36*
X263500Y21000D02*
D03*
X248500D02*
D03*
X233500D02*
D03*
X263500Y174000D02*
D03*
X248500D02*
D03*
X233500D02*
D03*
X335000Y21000D02*
D03*
X320000D02*
D03*
X305000D02*
D03*
X335000Y174000D02*
D03*
X320000D02*
D03*
X305000D02*
D03*
X407500Y21000D02*
D03*
X392500D02*
D03*
X377500D02*
D03*
X407500Y174000D02*
D03*
X392500D02*
D03*
X377500D02*
D03*
X479500Y21000D02*
D03*
X464500D02*
D03*
X449500D02*
D03*
X479500Y174000D02*
D03*
X464500D02*
D03*
X449500D02*
D03*
D37*
X30000Y120000D02*
D03*
Y130000D02*
D03*
Y140000D02*
D03*
Y150000D02*
D03*
Y160000D02*
D03*
Y170000D02*
D03*
Y180000D02*
D03*
X20000Y120000D02*
D03*
Y130000D02*
D03*
Y140000D02*
D03*
Y150000D02*
D03*
Y160000D02*
D03*
Y170000D02*
D03*
X30000Y190000D02*
D03*
X20000Y180000D02*
D03*
D38*
Y190000D02*
D03*
D39*
X540000Y20000D02*
D03*
Y380000D02*
D03*
X20000D02*
D03*
Y20000D02*
D03*
D40*
X430000Y370000D02*
D03*
X416000D02*
D03*
X458000D02*
D03*
X444000D02*
D03*
X430000Y348000D02*
D03*
X416000D02*
D03*
X458000D02*
D03*
X444000D02*
D03*
X72000Y34000D02*
D03*
X60000D02*
D03*
X280000Y355000D02*
D03*
X84000Y34000D02*
D03*
X96000D02*
D03*
X120000D02*
D03*
X108000D02*
D03*
X144000D02*
D03*
X132000D02*
D03*
X156000D02*
D03*
D41*
X205000Y178000D02*
D03*
X433000Y13000D02*
D03*
X361000Y12000D02*
D03*
X288000Y15000D02*
D03*
X215000Y18000D02*
D03*
X433000Y169000D02*
D03*
X359000Y167000D02*
D03*
X290000Y166000D02*
D03*
X219000Y177000D02*
D03*
X25000Y292000D02*
D03*
X90000Y54000D02*
D03*
Y88000D02*
D03*
X107000Y175000D02*
D03*
X87000Y178000D02*
D03*
X43000Y216000D02*
D03*
X44000Y240000D02*
D03*
X31000Y210000D02*
D03*
X33000Y241000D02*
D03*
X15000Y283000D02*
D03*
X140000Y287000D02*
D03*
X296000Y346000D02*
D03*
X301000Y339000D02*
D03*
X214000Y318000D02*
D03*
X283000Y319000D02*
D03*
X145000Y173000D02*
D03*
X170000Y313000D02*
D03*
X190000Y188000D02*
D03*
X150000Y135000D02*
D03*
X171000D02*
D03*
X205000Y164000D02*
D03*
X221000D02*
D03*
X325000Y149000D02*
D03*
X186000Y146000D02*
D03*
X391000Y156000D02*
D03*
X169000Y157000D02*
D03*
X151000Y180000D02*
D03*
X184000Y312000D02*
D03*
X111000Y165000D02*
D03*
X116000Y289000D02*
D03*
X125000Y173000D02*
D03*
X110000Y60000D02*
D03*
X169000Y278000D02*
D03*
X224000Y302000D02*
D03*
X200000Y251000D02*
D03*
X246000Y301760D02*
D03*
X202000Y241000D02*
D03*
X321000Y302000D02*
D03*
X208000Y235000D02*
D03*
X389000Y302000D02*
D03*
X55000Y251000D02*
D03*
X84000Y160000D02*
D03*
X64000Y245000D02*
D03*
X80000Y150000D02*
D03*
X85000Y140000D02*
D03*
X84000Y130000D02*
D03*
X89000Y120000D02*
D03*
X163000Y74000D02*
D03*
X133000Y176000D02*
D03*
X144000Y79000D02*
D03*
X76000Y288000D02*
D03*
X93000Y227000D02*
D03*
X99000Y280000D02*
D03*
X88000Y273000D02*
D03*
X79000Y233000D02*
D03*
X70000Y268000D02*
D03*
Y239000D02*
D03*
X78586Y245000D02*
D03*
X78000Y262000D02*
D03*
X26000Y252000D02*
D03*
X64000Y291000D02*
D03*
X443000Y149000D02*
D03*
X372000D02*
D03*
X295650Y148650D02*
D03*
X225000Y148000D02*
D03*
X388000Y324000D02*
D03*
X400000Y355000D02*
D03*
X341000Y353000D02*
D03*
Y343000D02*
D03*
X447650Y301650D02*
D03*
X374650D02*
D03*
X298000Y302000D02*
D03*
X277000Y334000D02*
D03*
X65000D02*
D03*
X155000Y342000D02*
D03*
X240000Y320000D02*
D03*
X260000D02*
D03*
Y347000D02*
D03*
X240000D02*
D03*
X220000D02*
D03*
X208000D02*
D03*
X192000D02*
D03*
X178000D02*
D03*
X163500D02*
D03*
X399000Y294000D02*
D03*
X398000Y141000D02*
D03*
X329000D02*
D03*
X254000D02*
D03*
X195000Y128000D02*
D03*
Y286000D02*
D03*
X328000Y294000D02*
D03*
X254000Y293000D02*
D03*
X158000Y265000D02*
D03*
X146000Y259000D02*
D03*
X179000Y210000D02*
D03*
X146000Y347000D02*
D03*
X136000D02*
D03*
X126000D02*
D03*
X116000D02*
D03*
X106000D02*
D03*
X96000D02*
D03*
X86000D02*
D03*
X76000D02*
D03*
X474000Y273000D02*
D03*
X403000D02*
D03*
X331000Y272000D02*
D03*
X259000D02*
D03*
Y120000D02*
D03*
X331000D02*
D03*
X402000D02*
D03*
X475000Y119000D02*
D03*
M02*
