G04*
G04 #@! TF.GenerationSoftware,Altium Limited,Altium Designer,22.3.1 (43)*
G04*
G04 Layer_Color=16711935*
%FSLAX25Y25*%
%MOIN*%
G70*
G04*
G04 #@! TF.SameCoordinates,DE08D283-0CB9-458E-8042-9F6044BD937B*
G04*
G04*
G04 #@! TF.FilePolarity,Negative*
G04*
G01*
G75*
%ADD24R,0.04540X0.03950*%
%ADD25R,0.03950X0.04540*%
%ADD32C,0.08477*%
%ADD33C,0.06706*%
%ADD34R,0.06706X0.06706*%
%ADD35O,0.06706X0.06706*%
%ADD36C,0.07887*%
%ADD37C,0.06800*%
%ADD38R,0.06800X0.06800*%
%ADD39C,0.20800*%
%ADD40R,0.06706X0.06706*%
%ADD41C,0.05800*%
%ADD64R,0.12800X0.06800*%
D24*
X260000Y334350D02*
D03*
Y340650D02*
D03*
X240000Y334350D02*
D03*
Y340650D02*
D03*
X208000Y341150D02*
D03*
Y334850D02*
D03*
X220000Y341150D02*
D03*
Y334850D02*
D03*
X163500Y340650D02*
D03*
Y334350D02*
D03*
X177500Y340650D02*
D03*
Y334350D02*
D03*
X192000Y340650D02*
D03*
Y334350D02*
D03*
X116000Y340650D02*
D03*
Y334350D02*
D03*
X86000Y340650D02*
D03*
Y334350D02*
D03*
X76000Y340650D02*
D03*
Y334350D02*
D03*
X96000Y340650D02*
D03*
Y334350D02*
D03*
X106000Y340650D02*
D03*
Y334350D02*
D03*
X126000Y340650D02*
D03*
Y334350D02*
D03*
X136000Y340650D02*
D03*
Y334350D02*
D03*
X146000Y340650D02*
D03*
Y334350D02*
D03*
X224500Y196150D02*
D03*
Y189850D02*
D03*
X297000Y196150D02*
D03*
Y189850D02*
D03*
X369000Y196150D02*
D03*
Y189850D02*
D03*
X441000Y196150D02*
D03*
Y189850D02*
D03*
X369000Y43150D02*
D03*
Y36850D02*
D03*
X224500Y43150D02*
D03*
Y36850D02*
D03*
X297000Y43150D02*
D03*
Y36850D02*
D03*
X441000Y43150D02*
D03*
Y36850D02*
D03*
D25*
X146150Y220000D02*
D03*
X139850D02*
D03*
X151850Y226500D02*
D03*
X158150D02*
D03*
X146150D02*
D03*
X139850D02*
D03*
X151850Y220000D02*
D03*
X158150D02*
D03*
X146150Y233000D02*
D03*
X139850D02*
D03*
X151850D02*
D03*
X158150D02*
D03*
D32*
X248378Y215126D02*
D03*
X272000Y271031D02*
D03*
X344000D02*
D03*
X320378Y215126D02*
D03*
X392378D02*
D03*
X416000Y271031D02*
D03*
X488000D02*
D03*
X464378Y215126D02*
D03*
X248378Y62126D02*
D03*
X272000Y118032D02*
D03*
X344000D02*
D03*
X320378Y62126D02*
D03*
X392378D02*
D03*
X416000Y118032D02*
D03*
X488000D02*
D03*
X464378Y62126D02*
D03*
D33*
X224756Y223000D02*
D03*
X296756D02*
D03*
X368756D02*
D03*
X440756D02*
D03*
X224756Y70000D02*
D03*
X296756D02*
D03*
X368756D02*
D03*
X440756D02*
D03*
X70000Y80000D02*
D03*
X80000D02*
D03*
X70000Y70000D02*
D03*
X80000D02*
D03*
X70000Y60000D02*
D03*
D34*
X272000Y223000D02*
D03*
X344000D02*
D03*
X416000D02*
D03*
X488000D02*
D03*
X272000Y70000D02*
D03*
X344000D02*
D03*
X416000D02*
D03*
X488000D02*
D03*
X80000Y60000D02*
D03*
D35*
X224756Y271031D02*
D03*
X296756D02*
D03*
X368756D02*
D03*
X440756D02*
D03*
X224756Y118032D02*
D03*
X296756D02*
D03*
X368756D02*
D03*
X440756D02*
D03*
D36*
X263500Y21000D02*
D03*
X248500D02*
D03*
X233500D02*
D03*
X263500Y174000D02*
D03*
X248500D02*
D03*
X233500D02*
D03*
X335000Y21000D02*
D03*
X320000D02*
D03*
X305000D02*
D03*
X335000Y174000D02*
D03*
X320000D02*
D03*
X305000D02*
D03*
X407500Y21000D02*
D03*
X392500D02*
D03*
X377500D02*
D03*
X407500Y174000D02*
D03*
X392500D02*
D03*
X377500D02*
D03*
X479500Y21000D02*
D03*
X464500D02*
D03*
X449500D02*
D03*
X479500Y174000D02*
D03*
X464500D02*
D03*
X449500D02*
D03*
D37*
X30000Y120000D02*
D03*
Y130000D02*
D03*
Y140000D02*
D03*
Y150000D02*
D03*
Y160000D02*
D03*
Y170000D02*
D03*
Y180000D02*
D03*
X20000Y120000D02*
D03*
Y130000D02*
D03*
Y140000D02*
D03*
Y150000D02*
D03*
Y160000D02*
D03*
Y170000D02*
D03*
X30000Y190000D02*
D03*
X20000Y180000D02*
D03*
D38*
Y190000D02*
D03*
D39*
X540000Y20000D02*
D03*
Y380000D02*
D03*
X20000D02*
D03*
Y20000D02*
D03*
D40*
X430000Y370000D02*
D03*
X416000D02*
D03*
X458000D02*
D03*
X444000D02*
D03*
X430000Y348000D02*
D03*
X416000D02*
D03*
X458000D02*
D03*
X444000D02*
D03*
X72000Y34000D02*
D03*
X60000D02*
D03*
X280000Y355000D02*
D03*
X84000Y34000D02*
D03*
X96000D02*
D03*
X120000D02*
D03*
X108000D02*
D03*
X144000D02*
D03*
X132000D02*
D03*
X156000D02*
D03*
D41*
X205000Y178000D02*
D03*
X433000Y13000D02*
D03*
X361000Y12000D02*
D03*
X288000Y15000D02*
D03*
X215000Y18000D02*
D03*
X433000Y169000D02*
D03*
X359000Y167000D02*
D03*
X290000Y166000D02*
D03*
X219000Y177000D02*
D03*
X25000Y292000D02*
D03*
X90000Y54000D02*
D03*
Y88000D02*
D03*
X107000Y175000D02*
D03*
X87000Y178000D02*
D03*
X43000Y216000D02*
D03*
X44000Y240000D02*
D03*
X31000Y210000D02*
D03*
X33000Y241000D02*
D03*
X15000Y283000D02*
D03*
X140000Y287000D02*
D03*
X296000Y346000D02*
D03*
X301000Y339000D02*
D03*
X214000Y318000D02*
D03*
X283000Y319000D02*
D03*
X145000Y173000D02*
D03*
X170000Y313000D02*
D03*
X190000Y188000D02*
D03*
X150000Y135000D02*
D03*
X171000D02*
D03*
X205000Y164000D02*
D03*
X221000D02*
D03*
X325000Y149000D02*
D03*
X186000Y146000D02*
D03*
X391000Y156000D02*
D03*
X169000Y157000D02*
D03*
X151000Y180000D02*
D03*
X184000Y312000D02*
D03*
X111000Y165000D02*
D03*
X116000Y289000D02*
D03*
X125000Y173000D02*
D03*
X110000Y60000D02*
D03*
X169000Y278000D02*
D03*
X224000Y302000D02*
D03*
X200000Y251000D02*
D03*
X246000Y301760D02*
D03*
X202000Y241000D02*
D03*
X321000Y302000D02*
D03*
X208000Y235000D02*
D03*
X389000Y302000D02*
D03*
X55000Y251000D02*
D03*
X84000Y160000D02*
D03*
X64000Y245000D02*
D03*
X80000Y150000D02*
D03*
X85000Y140000D02*
D03*
X84000Y130000D02*
D03*
X89000Y120000D02*
D03*
X163000Y74000D02*
D03*
X133000Y176000D02*
D03*
X144000Y79000D02*
D03*
X76000Y288000D02*
D03*
X93000Y227000D02*
D03*
X99000Y280000D02*
D03*
X88000Y273000D02*
D03*
X79000Y233000D02*
D03*
X70000Y268000D02*
D03*
Y239000D02*
D03*
X78586Y245000D02*
D03*
X78000Y262000D02*
D03*
X26000Y252000D02*
D03*
X64000Y291000D02*
D03*
X443000Y149000D02*
D03*
X372000D02*
D03*
X295650Y148650D02*
D03*
X225000Y148000D02*
D03*
X388000Y324000D02*
D03*
X400000Y355000D02*
D03*
X341000Y353000D02*
D03*
Y343000D02*
D03*
X447650Y301650D02*
D03*
X374650D02*
D03*
X298000Y302000D02*
D03*
X277000Y334000D02*
D03*
X65000D02*
D03*
X155000Y342000D02*
D03*
X240000Y320000D02*
D03*
X260000D02*
D03*
Y347000D02*
D03*
X240000D02*
D03*
X220000D02*
D03*
X208000D02*
D03*
X192000D02*
D03*
X178000D02*
D03*
X163500D02*
D03*
X399000Y294000D02*
D03*
X398000Y141000D02*
D03*
X329000D02*
D03*
X254000D02*
D03*
X195000Y128000D02*
D03*
Y286000D02*
D03*
X328000Y294000D02*
D03*
X254000Y293000D02*
D03*
X158000Y265000D02*
D03*
X146000Y259000D02*
D03*
X179000Y210000D02*
D03*
X146000Y347000D02*
D03*
X136000D02*
D03*
X126000D02*
D03*
X116000D02*
D03*
X106000D02*
D03*
X96000D02*
D03*
X86000D02*
D03*
X76000D02*
D03*
X474000Y273000D02*
D03*
X403000D02*
D03*
X331000Y272000D02*
D03*
X259000D02*
D03*
Y120000D02*
D03*
X331000D02*
D03*
X402000D02*
D03*
X475000Y119000D02*
D03*
D64*
X259000Y251000D02*
D03*
X234000D02*
D03*
X306000D02*
D03*
X331000D02*
D03*
X475000D02*
D03*
X450000D02*
D03*
X378000D02*
D03*
X403000D02*
D03*
X259000Y98000D02*
D03*
X234000D02*
D03*
X306000D02*
D03*
X331000D02*
D03*
X475000D02*
D03*
X450000D02*
D03*
X378000D02*
D03*
X403000D02*
D03*
M02*
