G04*
G04 #@! TF.GenerationSoftware,Altium Limited,Altium Designer,22.3.1 (43)*
G04*
G04 Layer_Physical_Order=4*
G04 Layer_Color=16711680*
%FSLAX25Y25*%
%MOIN*%
G70*
G04*
G04 #@! TF.SameCoordinates,DE08D283-0CB9-458E-8042-9F6044BD937B*
G04*
G04*
G04 #@! TF.FilePolarity,Positive*
G04*
G01*
G75*
%ADD12C,0.01000*%
%ADD16R,0.03740X0.03150*%
%ADD17R,0.03150X0.03740*%
%ADD42C,0.07677*%
%ADD43C,0.05906*%
%ADD44R,0.05906X0.05906*%
%ADD45O,0.05906X0.05906*%
%ADD46C,0.07087*%
%ADD47C,0.06000*%
%ADD48R,0.06000X0.06000*%
%ADD49C,0.20000*%
%ADD50R,0.05906X0.05906*%
%ADD51C,0.05000*%
%ADD52C,0.04000*%
%ADD63R,0.12000X0.06000*%
G36*
X560000D02*
X0D01*
Y400000D01*
X560000D01*
Y0D01*
D02*
G37*
%LPC*%
G36*
X540826Y390500D02*
X539174D01*
X537541Y390242D01*
X535969Y389731D01*
X534497Y388980D01*
X533160Y388009D01*
X531991Y386840D01*
X531020Y385503D01*
X530269Y384031D01*
X529759Y382459D01*
X529500Y380826D01*
Y379174D01*
X529759Y377541D01*
X530269Y375969D01*
X531020Y374497D01*
X531991Y373160D01*
X533160Y371991D01*
X534497Y371020D01*
X535969Y370269D01*
X537541Y369759D01*
X539174Y369500D01*
X540826D01*
X542459Y369759D01*
X544031Y370269D01*
X545503Y371020D01*
X546840Y371991D01*
X548009Y373160D01*
X548980Y374497D01*
X549731Y375969D01*
X550242Y377541D01*
X550500Y379174D01*
Y380826D01*
X550242Y382459D01*
X549731Y384031D01*
X548980Y385503D01*
X548009Y386840D01*
X546840Y388009D01*
X545503Y388980D01*
X544031Y389731D01*
X542459Y390242D01*
X540826Y390500D01*
D02*
G37*
G36*
X20826D02*
X19174D01*
X17541Y390242D01*
X15969Y389731D01*
X14497Y388980D01*
X13160Y388009D01*
X11991Y386840D01*
X11020Y385503D01*
X10269Y384031D01*
X9759Y382459D01*
X9500Y380826D01*
Y379174D01*
X9759Y377541D01*
X10269Y375969D01*
X11020Y374497D01*
X11991Y373160D01*
X13160Y371991D01*
X14497Y371020D01*
X15969Y370269D01*
X17541Y369759D01*
X19174Y369500D01*
X20826D01*
X22459Y369759D01*
X24031Y370269D01*
X25503Y371020D01*
X26840Y371991D01*
X28009Y373160D01*
X28980Y374497D01*
X29731Y375969D01*
X30242Y377541D01*
X30500Y379174D01*
Y380826D01*
X30242Y382459D01*
X29731Y384031D01*
X28980Y385503D01*
X28009Y386840D01*
X26840Y388009D01*
X25503Y388980D01*
X24031Y389731D01*
X22459Y390242D01*
X20826Y390500D01*
D02*
G37*
G36*
X461453Y373453D02*
X454547D01*
Y366547D01*
X461453D01*
Y373453D01*
D02*
G37*
G36*
X447453D02*
X440547D01*
Y366547D01*
X447453D01*
Y373453D01*
D02*
G37*
G36*
X419453D02*
X412547D01*
Y371020D01*
X388000D01*
X387610Y370942D01*
X387279Y370721D01*
X383279Y366721D01*
X383058Y366390D01*
X382980Y366000D01*
Y328422D01*
X381578Y327020D01*
X317422D01*
X316020Y328422D01*
Y344414D01*
X315942Y344804D01*
X315721Y345135D01*
X315135Y345721D01*
X314804Y345942D01*
X314414Y346020D01*
X303000D01*
X302610Y345942D01*
X302279Y345721D01*
X300279Y343721D01*
X300058Y343390D01*
X299980Y343000D01*
Y341833D01*
X299842Y341796D01*
X299158Y341401D01*
X298599Y340842D01*
X298204Y340158D01*
X298000Y339395D01*
Y338605D01*
X298204Y337842D01*
X298599Y337158D01*
X299158Y336599D01*
X299842Y336204D01*
X300605Y336000D01*
X301395D01*
X302158Y336204D01*
X302842Y336599D01*
X303401Y337158D01*
X303796Y337842D01*
X304000Y338605D01*
Y339395D01*
X303796Y340158D01*
X303401Y340842D01*
X302842Y341401D01*
X302158Y341796D01*
X302020Y341833D01*
Y342578D01*
X303422Y343980D01*
X313980D01*
Y328000D01*
X314058Y327610D01*
X314279Y327279D01*
X316279Y325279D01*
X316610Y325058D01*
X317000Y324980D01*
X382000D01*
X382390Y325058D01*
X382721Y325279D01*
X384721Y327279D01*
X384942Y327610D01*
X385020Y328000D01*
Y365578D01*
X388422Y368980D01*
X412547D01*
Y366547D01*
X419453D01*
Y373453D01*
D02*
G37*
G36*
X283453Y358453D02*
X276547D01*
Y356020D01*
X250586D01*
X250196Y355942D01*
X249865Y355721D01*
X249279Y355135D01*
X249058Y354804D01*
X248980Y354414D01*
Y335422D01*
X248928Y335370D01*
X242370D01*
Y336425D01*
X237630D01*
Y332276D01*
X242370D01*
Y333331D01*
X249350D01*
X249741Y333408D01*
X250071Y333629D01*
X250721Y334279D01*
X250942Y334610D01*
X251020Y335000D01*
Y353980D01*
X276547D01*
Y351547D01*
X283453D01*
Y358453D01*
D02*
G37*
G36*
X341395Y356000D02*
X340605D01*
X339842Y355796D01*
X339158Y355401D01*
X338599Y354842D01*
X338204Y354158D01*
X338000Y353395D01*
Y352605D01*
X338204Y351842D01*
X338599Y351158D01*
X339158Y350599D01*
X339842Y350204D01*
X340605Y350000D01*
X341395D01*
X342158Y350204D01*
X342842Y350599D01*
X343401Y351158D01*
X343796Y351842D01*
X344000Y352605D01*
Y353395D01*
X343796Y354158D01*
X343401Y354842D01*
X342842Y355401D01*
X342158Y355796D01*
X341395Y356000D01*
D02*
G37*
G36*
X457000Y361020D02*
X408000D01*
X407610Y360942D01*
X407279Y360721D01*
X403123Y356565D01*
X402523Y356630D01*
X402401Y356842D01*
X401842Y357401D01*
X401158Y357796D01*
X400395Y358000D01*
X399605D01*
X398842Y357796D01*
X398158Y357401D01*
X397599Y356842D01*
X397204Y356158D01*
X397000Y355395D01*
Y354605D01*
X397204Y353842D01*
X397599Y353158D01*
X398158Y352599D01*
X398842Y352204D01*
X399605Y352000D01*
X400395D01*
X401158Y352204D01*
X401842Y352599D01*
X402401Y353158D01*
X402796Y353842D01*
X402921Y354309D01*
X403328D01*
X403719Y354386D01*
X404049Y354608D01*
X408422Y358980D01*
X456578D01*
X457980Y357578D01*
Y351453D01*
X454547D01*
Y344547D01*
X461453D01*
Y351453D01*
X460020D01*
Y358000D01*
X459942Y358390D01*
X459721Y358721D01*
X457721Y360721D01*
X457390Y360942D01*
X457000Y361020D01*
D02*
G37*
G36*
X447453Y351453D02*
X440547D01*
Y344547D01*
X447453D01*
Y351453D01*
D02*
G37*
G36*
X433453D02*
X426547D01*
Y344547D01*
X433453D01*
Y351453D01*
D02*
G37*
G36*
X419453D02*
X412547D01*
Y344547D01*
X419453D01*
Y351453D01*
D02*
G37*
G36*
X296395Y349000D02*
X295605D01*
X294842Y348796D01*
X294158Y348401D01*
X293599Y347842D01*
X293204Y347158D01*
X293167Y347020D01*
X286000D01*
X285610Y346942D01*
X285279Y346721D01*
X282279Y343721D01*
X282058Y343390D01*
X281980Y343000D01*
Y321833D01*
X281842Y321796D01*
X281158Y321401D01*
X280599Y320842D01*
X280204Y320158D01*
X280000Y319395D01*
Y318605D01*
X280204Y317842D01*
X280599Y317158D01*
X281158Y316599D01*
X281842Y316204D01*
X282605Y316000D01*
X283395D01*
X284158Y316204D01*
X284842Y316599D01*
X285401Y317158D01*
X285796Y317842D01*
X286000Y318605D01*
Y319395D01*
X285796Y320158D01*
X285401Y320842D01*
X284842Y321401D01*
X284158Y321796D01*
X284020Y321833D01*
Y342578D01*
X286422Y344980D01*
X293167D01*
X293204Y344842D01*
X293599Y344158D01*
X294158Y343599D01*
X294842Y343204D01*
X295605Y343000D01*
X296395D01*
X297158Y343204D01*
X297842Y343599D01*
X298401Y344158D01*
X298796Y344842D01*
X299000Y345605D01*
Y346395D01*
X298796Y347158D01*
X298401Y347842D01*
X297842Y348401D01*
X297158Y348796D01*
X296395Y349000D01*
D02*
G37*
G36*
X341395Y346000D02*
X340605D01*
X339842Y345796D01*
X339158Y345401D01*
X338599Y344842D01*
X338204Y344158D01*
X338000Y343395D01*
Y342605D01*
X338204Y341842D01*
X338599Y341158D01*
X339158Y340599D01*
X339842Y340204D01*
X340605Y340000D01*
X341395D01*
X342158Y340204D01*
X342842Y340599D01*
X343401Y341158D01*
X343796Y341842D01*
X344000Y342605D01*
Y343395D01*
X343796Y344158D01*
X343401Y344842D01*
X342842Y345401D01*
X342158Y345796D01*
X341395Y346000D01*
D02*
G37*
G36*
X220395Y350000D02*
X219605D01*
X218842Y349796D01*
X218158Y349401D01*
X217599Y348842D01*
X217204Y348158D01*
X217000Y347395D01*
Y346605D01*
X217204Y345842D01*
X217599Y345158D01*
X218158Y344599D01*
X218842Y344204D01*
X218980Y344167D01*
Y343224D01*
X217630D01*
Y339075D01*
X222370D01*
Y343224D01*
X221020D01*
Y344167D01*
X221158Y344204D01*
X221842Y344599D01*
X222401Y345158D01*
X222796Y345842D01*
X223000Y346605D01*
Y347395D01*
X222796Y348158D01*
X222401Y348842D01*
X221842Y349401D01*
X221158Y349796D01*
X220395Y350000D01*
D02*
G37*
G36*
X208395D02*
X207605D01*
X206842Y349796D01*
X206158Y349401D01*
X205599Y348842D01*
X205204Y348158D01*
X205000Y347395D01*
Y346605D01*
X205204Y345842D01*
X205599Y345158D01*
X206158Y344599D01*
X206842Y344204D01*
X206980Y344167D01*
Y343224D01*
X205630D01*
Y339075D01*
X210370D01*
Y343224D01*
X209020D01*
Y344167D01*
X209158Y344204D01*
X209842Y344599D01*
X210401Y345158D01*
X210796Y345842D01*
X211000Y346605D01*
Y347395D01*
X210796Y348158D01*
X210401Y348842D01*
X209842Y349401D01*
X209158Y349796D01*
X208395Y350000D01*
D02*
G37*
G36*
X260395D02*
X259605D01*
X258842Y349796D01*
X258158Y349401D01*
X257599Y348842D01*
X257204Y348158D01*
X257000Y347395D01*
Y346605D01*
X257204Y345842D01*
X257599Y345158D01*
X258158Y344599D01*
X258842Y344204D01*
X258980Y344167D01*
Y342724D01*
X257630D01*
Y338575D01*
X262370D01*
Y342724D01*
X261020D01*
Y344167D01*
X261158Y344204D01*
X261842Y344599D01*
X262401Y345158D01*
X262796Y345842D01*
X263000Y346605D01*
Y347395D01*
X262796Y348158D01*
X262401Y348842D01*
X261842Y349401D01*
X261158Y349796D01*
X260395Y350000D01*
D02*
G37*
G36*
X240395D02*
X239605D01*
X238842Y349796D01*
X238158Y349401D01*
X237599Y348842D01*
X237204Y348158D01*
X237000Y347395D01*
Y346605D01*
X237204Y345842D01*
X237599Y345158D01*
X238158Y344599D01*
X238842Y344204D01*
X238980Y344167D01*
Y342724D01*
X237630D01*
Y338575D01*
X242370D01*
Y342724D01*
X241020D01*
Y344167D01*
X241158Y344204D01*
X241842Y344599D01*
X242401Y345158D01*
X242796Y345842D01*
X243000Y346605D01*
Y347395D01*
X242796Y348158D01*
X242401Y348842D01*
X241842Y349401D01*
X241158Y349796D01*
X240395Y350000D01*
D02*
G37*
G36*
X192395D02*
X191605D01*
X190842Y349796D01*
X190158Y349401D01*
X189599Y348842D01*
X189204Y348158D01*
X189000Y347395D01*
Y346605D01*
X189204Y345842D01*
X189599Y345158D01*
X190158Y344599D01*
X190842Y344204D01*
X190980Y344167D01*
Y342724D01*
X189630D01*
Y338575D01*
X194370D01*
Y342724D01*
X193020D01*
Y344167D01*
X193158Y344204D01*
X193842Y344599D01*
X194401Y345158D01*
X194796Y345842D01*
X195000Y346605D01*
Y347395D01*
X194796Y348158D01*
X194401Y348842D01*
X193842Y349401D01*
X193158Y349796D01*
X192395Y350000D01*
D02*
G37*
G36*
X178395D02*
X177605D01*
X176842Y349796D01*
X176158Y349401D01*
X175599Y348842D01*
X175204Y348158D01*
X175000Y347395D01*
Y346605D01*
X175204Y345842D01*
X175599Y345158D01*
X176158Y344599D01*
X176480Y344413D01*
Y342724D01*
X175130D01*
Y338575D01*
X179870D01*
Y342724D01*
X178520D01*
Y344033D01*
X179158Y344204D01*
X179842Y344599D01*
X180401Y345158D01*
X180796Y345842D01*
X181000Y346605D01*
Y347395D01*
X180796Y348158D01*
X180401Y348842D01*
X179842Y349401D01*
X179158Y349796D01*
X178395Y350000D01*
D02*
G37*
G36*
X163895D02*
X163105D01*
X162342Y349796D01*
X161658Y349401D01*
X161099Y348842D01*
X160704Y348158D01*
X160500Y347395D01*
Y346605D01*
X160704Y345842D01*
X161099Y345158D01*
X161658Y344599D01*
X162342Y344204D01*
X162480Y344167D01*
Y342724D01*
X161130D01*
Y338575D01*
X165870D01*
Y342724D01*
X164520D01*
Y344167D01*
X164658Y344204D01*
X165342Y344599D01*
X165901Y345158D01*
X166296Y345842D01*
X166500Y346605D01*
Y347395D01*
X166296Y348158D01*
X165901Y348842D01*
X165342Y349401D01*
X164658Y349796D01*
X163895Y350000D01*
D02*
G37*
G36*
X146395D02*
X145605D01*
X144842Y349796D01*
X144158Y349401D01*
X143599Y348842D01*
X143204Y348158D01*
X143000Y347395D01*
Y346605D01*
X143204Y345842D01*
X143599Y345158D01*
X144158Y344599D01*
X144842Y344204D01*
X144980Y344167D01*
Y342724D01*
X143630D01*
Y338575D01*
X148370D01*
Y342724D01*
X147020D01*
Y344167D01*
X147158Y344204D01*
X147842Y344599D01*
X148401Y345158D01*
X148796Y345842D01*
X149000Y346605D01*
Y347395D01*
X148796Y348158D01*
X148401Y348842D01*
X147842Y349401D01*
X147158Y349796D01*
X146395Y350000D01*
D02*
G37*
G36*
X136395D02*
X135605D01*
X134842Y349796D01*
X134158Y349401D01*
X133599Y348842D01*
X133204Y348158D01*
X133000Y347395D01*
Y346605D01*
X133204Y345842D01*
X133599Y345158D01*
X134158Y344599D01*
X134842Y344204D01*
X134980Y344167D01*
Y342724D01*
X133630D01*
Y338575D01*
X138370D01*
Y342724D01*
X137020D01*
Y344167D01*
X137158Y344204D01*
X137842Y344599D01*
X138401Y345158D01*
X138796Y345842D01*
X139000Y346605D01*
Y347395D01*
X138796Y348158D01*
X138401Y348842D01*
X137842Y349401D01*
X137158Y349796D01*
X136395Y350000D01*
D02*
G37*
G36*
X126395D02*
X125605D01*
X124842Y349796D01*
X124158Y349401D01*
X123599Y348842D01*
X123204Y348158D01*
X123000Y347395D01*
Y346605D01*
X123204Y345842D01*
X123599Y345158D01*
X124158Y344599D01*
X124842Y344204D01*
X124980Y344167D01*
Y342724D01*
X123630D01*
Y338575D01*
X128370D01*
Y342724D01*
X127020D01*
Y344167D01*
X127158Y344204D01*
X127842Y344599D01*
X128401Y345158D01*
X128796Y345842D01*
X129000Y346605D01*
Y347395D01*
X128796Y348158D01*
X128401Y348842D01*
X127842Y349401D01*
X127158Y349796D01*
X126395Y350000D01*
D02*
G37*
G36*
X116395D02*
X115605D01*
X114842Y349796D01*
X114158Y349401D01*
X113599Y348842D01*
X113204Y348158D01*
X113000Y347395D01*
Y346605D01*
X113204Y345842D01*
X113599Y345158D01*
X114158Y344599D01*
X114842Y344204D01*
X114980Y344167D01*
Y342724D01*
X113630D01*
Y338575D01*
X118370D01*
Y342724D01*
X117020D01*
Y344167D01*
X117158Y344204D01*
X117842Y344599D01*
X118401Y345158D01*
X118796Y345842D01*
X119000Y346605D01*
Y347395D01*
X118796Y348158D01*
X118401Y348842D01*
X117842Y349401D01*
X117158Y349796D01*
X116395Y350000D01*
D02*
G37*
G36*
X106395D02*
X105605D01*
X104842Y349796D01*
X104158Y349401D01*
X103599Y348842D01*
X103204Y348158D01*
X103000Y347395D01*
Y346605D01*
X103204Y345842D01*
X103599Y345158D01*
X104158Y344599D01*
X104842Y344204D01*
X104980Y344167D01*
Y342724D01*
X103630D01*
Y338575D01*
X108370D01*
Y342724D01*
X107020D01*
Y344167D01*
X107158Y344204D01*
X107842Y344599D01*
X108401Y345158D01*
X108796Y345842D01*
X109000Y346605D01*
Y347395D01*
X108796Y348158D01*
X108401Y348842D01*
X107842Y349401D01*
X107158Y349796D01*
X106395Y350000D01*
D02*
G37*
G36*
X96395D02*
X95605D01*
X94842Y349796D01*
X94158Y349401D01*
X93599Y348842D01*
X93204Y348158D01*
X93000Y347395D01*
Y346605D01*
X93204Y345842D01*
X93599Y345158D01*
X94158Y344599D01*
X94842Y344204D01*
X94980Y344167D01*
Y342724D01*
X93630D01*
Y338575D01*
X98370D01*
Y342724D01*
X97020D01*
Y344167D01*
X97158Y344204D01*
X97842Y344599D01*
X98401Y345158D01*
X98796Y345842D01*
X99000Y346605D01*
Y347395D01*
X98796Y348158D01*
X98401Y348842D01*
X97842Y349401D01*
X97158Y349796D01*
X96395Y350000D01*
D02*
G37*
G36*
X86395D02*
X85605D01*
X84842Y349796D01*
X84158Y349401D01*
X83599Y348842D01*
X83204Y348158D01*
X83000Y347395D01*
Y346605D01*
X83204Y345842D01*
X83599Y345158D01*
X84158Y344599D01*
X84842Y344204D01*
X84980Y344167D01*
Y342724D01*
X83630D01*
Y338575D01*
X88370D01*
Y342724D01*
X87020D01*
Y344167D01*
X87158Y344204D01*
X87842Y344599D01*
X88401Y345158D01*
X88796Y345842D01*
X89000Y346605D01*
Y347395D01*
X88796Y348158D01*
X88401Y348842D01*
X87842Y349401D01*
X87158Y349796D01*
X86395Y350000D01*
D02*
G37*
G36*
X76395D02*
X75605D01*
X74842Y349796D01*
X74158Y349401D01*
X73599Y348842D01*
X73204Y348158D01*
X73000Y347395D01*
Y346605D01*
X73204Y345842D01*
X73599Y345158D01*
X74158Y344599D01*
X74842Y344204D01*
X74980Y344167D01*
Y342724D01*
X73630D01*
Y338575D01*
X78370D01*
Y342724D01*
X77020D01*
Y344167D01*
X77158Y344204D01*
X77842Y344599D01*
X78401Y345158D01*
X78796Y345842D01*
X79000Y346605D01*
Y347395D01*
X78796Y348158D01*
X78401Y348842D01*
X77842Y349401D01*
X77158Y349796D01*
X76395Y350000D01*
D02*
G37*
G36*
X277395Y337000D02*
X276605D01*
X275842Y336796D01*
X275158Y336401D01*
X274599Y335842D01*
X274327Y335370D01*
X262370D01*
Y336425D01*
X257630D01*
Y332276D01*
X262370D01*
Y333331D01*
X274074D01*
X274204Y332842D01*
X274599Y332158D01*
X275158Y331599D01*
X275842Y331204D01*
X276605Y331000D01*
X277395D01*
X278158Y331204D01*
X278842Y331599D01*
X279401Y332158D01*
X279796Y332842D01*
X280000Y333605D01*
Y334395D01*
X279796Y335158D01*
X279401Y335842D01*
X278842Y336401D01*
X278158Y336796D01*
X277395Y337000D01*
D02*
G37*
G36*
X155395Y345000D02*
X154605D01*
X153842Y344796D01*
X153158Y344401D01*
X152599Y343842D01*
X152204Y343158D01*
X152000Y342395D01*
Y341605D01*
X152204Y340842D01*
X152599Y340158D01*
X153158Y339599D01*
X153842Y339204D01*
X153980Y339167D01*
Y334936D01*
X154058Y334546D01*
X154279Y334215D01*
X154865Y333629D01*
X155196Y333408D01*
X155586Y333331D01*
X161130D01*
Y332276D01*
X165870D01*
Y333331D01*
X175130D01*
Y332276D01*
X179870D01*
Y333831D01*
X189630D01*
Y332276D01*
X194370D01*
Y333831D01*
X205630D01*
Y332776D01*
X210370D01*
Y333831D01*
X217630D01*
Y332776D01*
X222370D01*
Y336925D01*
X217630D01*
Y335870D01*
X210370D01*
Y336925D01*
X205630D01*
Y335870D01*
X194370D01*
Y336425D01*
X189630D01*
Y335870D01*
X179870D01*
Y336425D01*
X175130D01*
Y335370D01*
X165870D01*
Y336425D01*
X161130D01*
Y335370D01*
X156020D01*
Y339167D01*
X156158Y339204D01*
X156842Y339599D01*
X157401Y340158D01*
X157796Y340842D01*
X158000Y341605D01*
Y342395D01*
X157796Y343158D01*
X157401Y343842D01*
X156842Y344401D01*
X156158Y344796D01*
X155395Y345000D01*
D02*
G37*
G36*
X65395Y337000D02*
X64605D01*
X63842Y336796D01*
X63158Y336401D01*
X62599Y335842D01*
X62204Y335158D01*
X62000Y334395D01*
Y333605D01*
X62204Y332842D01*
X62599Y332158D01*
X63158Y331599D01*
X63842Y331204D01*
X64605Y331000D01*
X65395D01*
X66158Y331204D01*
X66842Y331599D01*
X67401Y332158D01*
X67796Y332842D01*
X67927Y333331D01*
X73630D01*
Y332276D01*
X78370D01*
Y333331D01*
X83630D01*
Y332276D01*
X88370D01*
Y333331D01*
X93630D01*
Y332276D01*
X98370D01*
Y333331D01*
X103630D01*
Y332276D01*
X108370D01*
Y333331D01*
X113630D01*
Y332276D01*
X118370D01*
Y333331D01*
X123630D01*
Y332276D01*
X128370D01*
Y333331D01*
X133630D01*
Y332276D01*
X138370D01*
Y333331D01*
X143630D01*
Y332276D01*
X148370D01*
Y336425D01*
X143630D01*
Y335370D01*
X138370D01*
Y336425D01*
X133630D01*
Y335370D01*
X128370D01*
Y336425D01*
X123630D01*
Y335370D01*
X118370D01*
Y336425D01*
X113630D01*
Y335370D01*
X108370D01*
Y336425D01*
X103630D01*
Y335370D01*
X98370D01*
Y336425D01*
X93630D01*
Y335370D01*
X88370D01*
Y336425D01*
X83630D01*
Y335370D01*
X78370D01*
Y336425D01*
X73630D01*
Y335370D01*
X67673D01*
X67401Y335842D01*
X66842Y336401D01*
X66158Y336796D01*
X65395Y337000D01*
D02*
G37*
G36*
X433453Y373453D02*
X426547D01*
Y366547D01*
X428980D01*
Y364020D01*
X388586D01*
X388196Y363942D01*
X387865Y363721D01*
X387279Y363135D01*
X387058Y362804D01*
X386980Y362414D01*
Y326833D01*
X386842Y326796D01*
X386158Y326401D01*
X385599Y325842D01*
X385204Y325158D01*
X385000Y324395D01*
Y323605D01*
X385204Y322842D01*
X385599Y322158D01*
X386158Y321599D01*
X386842Y321204D01*
X387605Y321000D01*
X388395D01*
X389158Y321204D01*
X389842Y321599D01*
X390401Y322158D01*
X390796Y322842D01*
X391000Y323605D01*
Y324395D01*
X390796Y325158D01*
X390401Y325842D01*
X389842Y326401D01*
X389158Y326796D01*
X389020Y326833D01*
Y361980D01*
X429414D01*
X429804Y362058D01*
X430135Y362279D01*
X430721Y362865D01*
X430942Y363196D01*
X431020Y363586D01*
Y366547D01*
X433453D01*
Y373453D01*
D02*
G37*
G36*
X260395Y323000D02*
X259605D01*
X258842Y322796D01*
X258158Y322401D01*
X257599Y321842D01*
X257204Y321158D01*
X257000Y320395D01*
Y319605D01*
X257204Y318842D01*
X257599Y318158D01*
X258158Y317599D01*
X258842Y317204D01*
X259605Y317000D01*
X260395D01*
X261158Y317204D01*
X261842Y317599D01*
X262401Y318158D01*
X262796Y318842D01*
X263000Y319605D01*
Y320395D01*
X262796Y321158D01*
X262401Y321842D01*
X261842Y322401D01*
X261158Y322796D01*
X260395Y323000D01*
D02*
G37*
G36*
X240395D02*
X239605D01*
X238842Y322796D01*
X238158Y322401D01*
X237599Y321842D01*
X237204Y321158D01*
X237000Y320395D01*
Y319605D01*
X237204Y318842D01*
X237599Y318158D01*
X238158Y317599D01*
X238842Y317204D01*
X239605Y317000D01*
X240395D01*
X241158Y317204D01*
X241842Y317599D01*
X242401Y318158D01*
X242796Y318842D01*
X243000Y319605D01*
Y320395D01*
X242796Y321158D01*
X242401Y321842D01*
X241842Y322401D01*
X241158Y322796D01*
X240395Y323000D01*
D02*
G37*
G36*
X214395Y321000D02*
X213605D01*
X212842Y320796D01*
X212158Y320401D01*
X211599Y319842D01*
X211204Y319158D01*
X211000Y318395D01*
Y317605D01*
X211204Y316842D01*
X211276Y316718D01*
X207279Y312721D01*
X207058Y312390D01*
X206980Y312000D01*
Y299422D01*
X203779Y296221D01*
X203558Y295890D01*
X203480Y295500D01*
Y285922D01*
X192279Y274721D01*
X192058Y274390D01*
X191980Y274000D01*
Y207000D01*
X192058Y206610D01*
X192279Y206279D01*
X196980Y201578D01*
Y175422D01*
X195578Y174020D01*
X147833D01*
X147796Y174158D01*
X147401Y174842D01*
X146842Y175401D01*
X146158Y175796D01*
X145395Y176000D01*
X144605D01*
X143842Y175796D01*
X143158Y175401D01*
X142599Y174842D01*
X142204Y174158D01*
X142000Y173395D01*
Y172605D01*
X142204Y171842D01*
X142599Y171158D01*
X143158Y170599D01*
X143842Y170204D01*
X144605Y170000D01*
X145395D01*
X146158Y170204D01*
X146842Y170599D01*
X147401Y171158D01*
X147796Y171842D01*
X147833Y171980D01*
X196000D01*
X196390Y172058D01*
X196721Y172279D01*
X198721Y174279D01*
X198942Y174610D01*
X199020Y175000D01*
Y202000D01*
X198942Y202390D01*
X198721Y202721D01*
X194020Y207422D01*
Y273578D01*
X205221Y284779D01*
X205442Y285110D01*
X205520Y285500D01*
Y295078D01*
X208721Y298279D01*
X208942Y298610D01*
X209020Y299000D01*
Y311578D01*
X212718Y315276D01*
X212842Y315204D01*
X213605Y315000D01*
X214395D01*
X215158Y315204D01*
X215842Y315599D01*
X216401Y316158D01*
X216796Y316842D01*
X217000Y317605D01*
Y318395D01*
X216796Y319158D01*
X216401Y319842D01*
X215842Y320401D01*
X215158Y320796D01*
X214395Y321000D01*
D02*
G37*
G36*
X298395Y305000D02*
X297605D01*
X296842Y304796D01*
X296158Y304401D01*
X295599Y303842D01*
X295204Y303158D01*
X295000Y302395D01*
Y301605D01*
X295204Y300842D01*
X295599Y300158D01*
X296158Y299599D01*
X296842Y299204D01*
X297605Y299000D01*
X298395D01*
X299158Y299204D01*
X299842Y299599D01*
X300401Y300158D01*
X300796Y300842D01*
X301000Y301605D01*
Y302395D01*
X300796Y303158D01*
X300401Y303842D01*
X299842Y304401D01*
X299158Y304796D01*
X298395Y305000D01*
D02*
G37*
G36*
X224395D02*
X223605D01*
X222842Y304796D01*
X222158Y304401D01*
X221599Y303842D01*
X221204Y303158D01*
X221000Y302395D01*
Y301605D01*
X221204Y300842D01*
X221599Y300158D01*
X222158Y299599D01*
X222842Y299204D01*
X223605Y299000D01*
X224395D01*
X225158Y299204D01*
X225842Y299599D01*
X226401Y300158D01*
X226796Y300842D01*
X227000Y301605D01*
Y302395D01*
X226796Y303158D01*
X226401Y303842D01*
X225842Y304401D01*
X225158Y304796D01*
X224395Y305000D01*
D02*
G37*
G36*
X448045Y304650D02*
X447255D01*
X446492Y304445D01*
X445808Y304050D01*
X445249Y303492D01*
X444854Y302808D01*
X444650Y302045D01*
Y301255D01*
X444854Y300492D01*
X445249Y299808D01*
X445808Y299249D01*
X446492Y298854D01*
X447255Y298650D01*
X448045D01*
X448808Y298854D01*
X449492Y299249D01*
X450050Y299808D01*
X450445Y300492D01*
X450650Y301255D01*
Y302045D01*
X450445Y302808D01*
X450050Y303492D01*
X449492Y304050D01*
X448808Y304445D01*
X448045Y304650D01*
D02*
G37*
G36*
X375045D02*
X374255D01*
X373492Y304445D01*
X372808Y304050D01*
X372249Y303492D01*
X371854Y302808D01*
X371650Y302045D01*
Y301255D01*
X371854Y300492D01*
X372249Y299808D01*
X372808Y299249D01*
X373492Y298854D01*
X374255Y298650D01*
X375045D01*
X375808Y298854D01*
X376492Y299249D01*
X377050Y299808D01*
X377445Y300492D01*
X377650Y301255D01*
Y302045D01*
X377445Y302808D01*
X377050Y303492D01*
X376492Y304050D01*
X375808Y304445D01*
X375045Y304650D01*
D02*
G37*
G36*
X399395Y297000D02*
X398605D01*
X397842Y296796D01*
X397158Y296401D01*
X396599Y295842D01*
X396204Y295158D01*
X396000Y294395D01*
Y293605D01*
X396204Y292842D01*
X396599Y292158D01*
X397158Y291599D01*
X397842Y291204D01*
X398605Y291000D01*
X399395D01*
X400158Y291204D01*
X400842Y291599D01*
X401401Y292158D01*
X401796Y292842D01*
X402000Y293605D01*
Y294395D01*
X401796Y295158D01*
X401401Y295842D01*
X400842Y296401D01*
X400158Y296796D01*
X399395Y297000D01*
D02*
G37*
G36*
X328395D02*
X327605D01*
X326842Y296796D01*
X326158Y296401D01*
X325599Y295842D01*
X325204Y295158D01*
X325000Y294395D01*
Y293605D01*
X325204Y292842D01*
X325599Y292158D01*
X326158Y291599D01*
X326842Y291204D01*
X327605Y291000D01*
X328395D01*
X329158Y291204D01*
X329842Y291599D01*
X330401Y292158D01*
X330796Y292842D01*
X331000Y293605D01*
Y294395D01*
X330796Y295158D01*
X330401Y295842D01*
X329842Y296401D01*
X329158Y296796D01*
X328395Y297000D01*
D02*
G37*
G36*
X254395Y296000D02*
X253605D01*
X252842Y295796D01*
X252158Y295401D01*
X251599Y294842D01*
X251204Y294158D01*
X251000Y293395D01*
Y292605D01*
X251204Y291842D01*
X251599Y291158D01*
X252158Y290599D01*
X252842Y290204D01*
X253605Y290000D01*
X254395D01*
X255158Y290204D01*
X255842Y290599D01*
X256401Y291158D01*
X256796Y291842D01*
X257000Y292605D01*
Y293395D01*
X256796Y294158D01*
X256401Y294842D01*
X255842Y295401D01*
X255158Y295796D01*
X254395Y296000D01*
D02*
G37*
G36*
X189414Y322020D02*
X169586D01*
X169196Y321942D01*
X168865Y321721D01*
X168279Y321135D01*
X168058Y320804D01*
X167980Y320414D01*
Y315223D01*
X167599Y314842D01*
X167204Y314158D01*
X167000Y313395D01*
Y312605D01*
X167204Y311842D01*
X167599Y311158D01*
X168158Y310599D01*
X168842Y310204D01*
X169605Y310000D01*
X170395D01*
X171158Y310204D01*
X171842Y310599D01*
X172401Y311158D01*
X172796Y311842D01*
X173000Y312605D01*
Y313395D01*
X172796Y314158D01*
X172401Y314842D01*
X171842Y315401D01*
X171158Y315796D01*
X170395Y316000D01*
X170020D01*
Y319980D01*
X188980D01*
Y292422D01*
X186520Y289962D01*
X186020Y290169D01*
Y309414D01*
X185959Y309717D01*
X186401Y310158D01*
X186796Y310842D01*
X187000Y311605D01*
Y312395D01*
X186796Y313158D01*
X186401Y313842D01*
X185842Y314401D01*
X185158Y314796D01*
X184395Y315000D01*
X183605D01*
X182842Y314796D01*
X182158Y314401D01*
X181599Y313842D01*
X181204Y313158D01*
X181000Y312395D01*
Y311605D01*
X181204Y310842D01*
X181599Y310158D01*
X182158Y309599D01*
X182842Y309204D01*
X183605Y309000D01*
X183980D01*
Y220036D01*
X183480Y219824D01*
X183304Y219942D01*
X182914Y220020D01*
X170020D01*
Y275167D01*
X170158Y275204D01*
X170842Y275599D01*
X171401Y276158D01*
X171796Y276842D01*
X172000Y277605D01*
Y278395D01*
X171796Y279158D01*
X171401Y279842D01*
X170842Y280401D01*
X170158Y280796D01*
X169395Y281000D01*
X168605D01*
X167842Y280796D01*
X167158Y280401D01*
X166599Y279842D01*
X166204Y279158D01*
X166000Y278395D01*
Y277605D01*
X166204Y276842D01*
X166599Y276158D01*
X167158Y275599D01*
X167842Y275204D01*
X167980Y275167D01*
Y219586D01*
X168058Y219196D01*
X168279Y218865D01*
X168865Y218279D01*
X169196Y218058D01*
X169586Y217980D01*
X182480D01*
Y210534D01*
X181980Y210468D01*
X181796Y211158D01*
X181401Y211842D01*
X180842Y212401D01*
X180158Y212796D01*
X180020Y212833D01*
Y215414D01*
X179942Y215804D01*
X179721Y216135D01*
X179135Y216721D01*
X178804Y216942D01*
X178414Y217020D01*
X159169D01*
Y217630D01*
X160224D01*
Y222370D01*
X159169D01*
Y224130D01*
X160224D01*
Y228870D01*
X159169D01*
Y230630D01*
X160224D01*
Y235370D01*
X156075D01*
Y230630D01*
X157130D01*
Y228870D01*
X156075D01*
Y224130D01*
X157130D01*
Y222370D01*
X156075D01*
Y217630D01*
X157130D01*
Y217020D01*
X140870D01*
Y217630D01*
X141925D01*
Y222370D01*
X140870D01*
Y224130D01*
X141925D01*
Y228870D01*
X140870D01*
Y230630D01*
X141925D01*
Y235370D01*
X137776D01*
Y230630D01*
X138831D01*
Y228870D01*
X137776D01*
Y224130D01*
X138831D01*
Y222370D01*
X137776D01*
Y217630D01*
X138831D01*
Y216586D01*
X138908Y216196D01*
X139129Y215865D01*
X139715Y215279D01*
X140046Y215058D01*
X140436Y214980D01*
X157564D01*
X157954Y215058D01*
X158150Y215189D01*
X158345Y215058D01*
X158735Y214980D01*
X177980D01*
Y212833D01*
X177842Y212796D01*
X177158Y212401D01*
X176599Y211842D01*
X176204Y211158D01*
X176000Y210395D01*
Y209605D01*
X176204Y208842D01*
X176599Y208158D01*
X177158Y207599D01*
X177842Y207204D01*
X178605Y207000D01*
X179395D01*
X180158Y207204D01*
X180842Y207599D01*
X181401Y208158D01*
X181796Y208842D01*
X181980Y209532D01*
X182480Y209466D01*
Y193044D01*
X179456Y190020D01*
X128000D01*
X127610Y189942D01*
X127279Y189721D01*
X118576Y181018D01*
X118196Y180942D01*
X117865Y180721D01*
X117279Y180135D01*
X117058Y179804D01*
X116980Y179414D01*
Y146000D01*
X117058Y145610D01*
X117279Y145279D01*
X124980Y137578D01*
Y61020D01*
X112833D01*
X112796Y61158D01*
X112401Y61842D01*
X111842Y62401D01*
X111158Y62796D01*
X110395Y63000D01*
X109605D01*
X108842Y62796D01*
X108158Y62401D01*
X107599Y61842D01*
X107204Y61158D01*
X107000Y60395D01*
Y59605D01*
X107204Y58842D01*
X107599Y58158D01*
X108158Y57599D01*
X108842Y57204D01*
X109605Y57000D01*
X110395D01*
X111158Y57204D01*
X111842Y57599D01*
X112401Y58158D01*
X112796Y58842D01*
X112833Y58980D01*
X125414D01*
X125804Y59058D01*
X126135Y59279D01*
X126721Y59865D01*
X126942Y60196D01*
X127020Y60586D01*
Y138000D01*
X126942Y138390D01*
X126721Y138721D01*
X119020Y146422D01*
Y178984D01*
X119390Y179058D01*
X119721Y179279D01*
X128422Y187980D01*
X178885D01*
X179077Y187519D01*
X172578Y181020D01*
X153833D01*
X153796Y181158D01*
X153401Y181842D01*
X152842Y182401D01*
X152158Y182796D01*
X151395Y183000D01*
X150605D01*
X149842Y182796D01*
X149158Y182401D01*
X148599Y181842D01*
X148204Y181158D01*
X148000Y180395D01*
Y179605D01*
X148204Y178842D01*
X148599Y178158D01*
X149158Y177599D01*
X149842Y177204D01*
X150605Y177000D01*
X151395D01*
X152158Y177204D01*
X152842Y177599D01*
X153401Y178158D01*
X153796Y178842D01*
X153833Y178980D01*
X173000D01*
X173390Y179058D01*
X173721Y179279D01*
X185480Y191039D01*
X185653Y191025D01*
X186008Y190859D01*
X186058Y190610D01*
X186279Y190279D01*
X187276Y189282D01*
X187204Y189158D01*
X187000Y188395D01*
Y187605D01*
X187204Y186842D01*
X187599Y186158D01*
X188158Y185599D01*
X188842Y185204D01*
X189605Y185000D01*
X190395D01*
X191158Y185204D01*
X191842Y185599D01*
X192401Y186158D01*
X192796Y186842D01*
X193000Y187605D01*
Y188395D01*
X192796Y189158D01*
X192401Y189842D01*
X191842Y190401D01*
X191158Y190796D01*
X190395Y191000D01*
X189605D01*
X188842Y190796D01*
X188718Y190724D01*
X188020Y191422D01*
Y288578D01*
X190721Y291279D01*
X190942Y291610D01*
X191020Y292000D01*
Y320414D01*
X190942Y320804D01*
X190721Y321135D01*
X190135Y321721D01*
X189804Y321942D01*
X189414Y322020D01*
D02*
G37*
G36*
X25395Y295000D02*
X24605D01*
X23842Y294796D01*
X23158Y294401D01*
X22599Y293842D01*
X22204Y293158D01*
X22000Y292395D01*
Y291605D01*
X22204Y290842D01*
X22599Y290158D01*
X23158Y289599D01*
X23842Y289204D01*
X24605Y289000D01*
X25395D01*
X26158Y289204D01*
X26842Y289599D01*
X27401Y290158D01*
X27796Y290842D01*
X28000Y291605D01*
Y292395D01*
X27796Y293158D01*
X27401Y293842D01*
X26842Y294401D01*
X26158Y294796D01*
X25395Y295000D01*
D02*
G37*
G36*
X64395Y294000D02*
X63605D01*
X62842Y293796D01*
X62158Y293401D01*
X61599Y292842D01*
X61204Y292158D01*
X61000Y291395D01*
Y290605D01*
X61204Y289842D01*
X61599Y289158D01*
X62158Y288599D01*
X62842Y288204D01*
X63605Y288000D01*
X64395D01*
X65158Y288204D01*
X65842Y288599D01*
X66401Y289158D01*
X66796Y289842D01*
X67000Y290605D01*
Y291395D01*
X66796Y292158D01*
X66401Y292842D01*
X65842Y293401D01*
X65158Y293796D01*
X64395Y294000D01*
D02*
G37*
G36*
X116395Y292000D02*
X115605D01*
X114842Y291796D01*
X114158Y291401D01*
X113599Y290842D01*
X113204Y290158D01*
X113000Y289395D01*
Y288605D01*
X113204Y287842D01*
X113276Y287718D01*
X110279Y284721D01*
X110058Y284390D01*
X109980Y284000D01*
Y176838D01*
X109480Y176704D01*
X109401Y176842D01*
X108842Y177401D01*
X108158Y177796D01*
X107395Y178000D01*
X106605D01*
X105842Y177796D01*
X105158Y177401D01*
X104599Y176842D01*
X104204Y176158D01*
X104000Y175395D01*
Y174605D01*
X104204Y173842D01*
X104276Y173718D01*
X102520Y171961D01*
X102020Y172169D01*
Y219000D01*
X101942Y219390D01*
X101721Y219721D01*
X95961Y225480D01*
X96169Y225980D01*
X104414D01*
X104804Y226058D01*
X105135Y226279D01*
X105721Y226865D01*
X105942Y227196D01*
X106020Y227586D01*
Y279414D01*
X105942Y279804D01*
X105721Y280135D01*
X105135Y280721D01*
X104804Y280942D01*
X104414Y281020D01*
X101833D01*
X101796Y281158D01*
X101401Y281842D01*
X100842Y282401D01*
X100158Y282796D01*
X99395Y283000D01*
X98605D01*
X97842Y282796D01*
X97158Y282401D01*
X96599Y281842D01*
X96204Y281158D01*
X96000Y280395D01*
Y279605D01*
X96204Y278842D01*
X96599Y278158D01*
X97158Y277599D01*
X97842Y277204D01*
X98605Y277000D01*
X99395D01*
X100158Y277204D01*
X100842Y277599D01*
X101401Y278158D01*
X101796Y278842D01*
X101833Y278980D01*
X103980D01*
Y228020D01*
X95833D01*
X95796Y228158D01*
X95401Y228842D01*
X94842Y229401D01*
X94158Y229796D01*
X93395Y230000D01*
X92605D01*
X91842Y229796D01*
X91158Y229401D01*
X90599Y228842D01*
X90204Y228158D01*
X90000Y227395D01*
Y226605D01*
X90204Y225842D01*
X90599Y225158D01*
X91158Y224599D01*
X91842Y224204D01*
X92605Y224000D01*
X93395D01*
X94158Y224204D01*
X94282Y224276D01*
X98099Y220459D01*
X97892Y219959D01*
X86483D01*
X80020Y226422D01*
Y230167D01*
X80158Y230204D01*
X80842Y230599D01*
X81401Y231158D01*
X81796Y231842D01*
X81833Y231980D01*
X87414D01*
X87804Y232058D01*
X88135Y232279D01*
X88721Y232865D01*
X88942Y233196D01*
X89020Y233586D01*
Y270167D01*
X89158Y270204D01*
X89842Y270599D01*
X90401Y271158D01*
X90796Y271842D01*
X91000Y272605D01*
Y273395D01*
X90796Y274158D01*
X90401Y274842D01*
X89842Y275401D01*
X89158Y275796D01*
X88395Y276000D01*
X87605D01*
X86842Y275796D01*
X86158Y275401D01*
X85599Y274842D01*
X85204Y274158D01*
X85000Y273395D01*
Y272605D01*
X85204Y271842D01*
X85599Y271158D01*
X86158Y270599D01*
X86842Y270204D01*
X86980Y270167D01*
Y234020D01*
X81833D01*
X81796Y234158D01*
X81401Y234842D01*
X80842Y235401D01*
X80158Y235796D01*
X79395Y236000D01*
X78605D01*
X77842Y235796D01*
X77158Y235401D01*
X76599Y234842D01*
X76204Y234158D01*
X76000Y233395D01*
Y232605D01*
X76204Y231842D01*
X76599Y231158D01*
X77158Y230599D01*
X77842Y230204D01*
X77980Y230167D01*
Y226000D01*
X78058Y225610D01*
X78279Y225279D01*
X85039Y218520D01*
X84831Y218020D01*
X82422D01*
X71020Y229422D01*
Y236167D01*
X71158Y236204D01*
X71842Y236599D01*
X72401Y237158D01*
X72796Y237842D01*
X73000Y238605D01*
Y239395D01*
X72796Y240158D01*
X72401Y240842D01*
X71842Y241401D01*
X71158Y241796D01*
X71020Y241833D01*
Y265167D01*
X71158Y265204D01*
X71842Y265599D01*
X72401Y266158D01*
X72796Y266842D01*
X73000Y267605D01*
Y268395D01*
X72796Y269158D01*
X72401Y269842D01*
X71842Y270401D01*
X71158Y270796D01*
X70395Y271000D01*
X69605D01*
X68842Y270796D01*
X68158Y270401D01*
X67599Y269842D01*
X67204Y269158D01*
X67000Y268395D01*
Y267605D01*
X67204Y266842D01*
X67599Y266158D01*
X68158Y265599D01*
X68842Y265204D01*
X68980Y265167D01*
Y241833D01*
X68842Y241796D01*
X68158Y241401D01*
X67599Y240842D01*
X67204Y240158D01*
X67000Y239395D01*
Y238605D01*
X67204Y237842D01*
X67599Y237158D01*
X68158Y236599D01*
X68842Y236204D01*
X68980Y236167D01*
Y229000D01*
X69058Y228610D01*
X69279Y228279D01*
X81038Y216520D01*
X80831Y216020D01*
X78422D01*
X65020Y229422D01*
Y242167D01*
X65158Y242204D01*
X65842Y242599D01*
X66401Y243158D01*
X66796Y243842D01*
X67000Y244605D01*
Y245395D01*
X66796Y246158D01*
X66401Y246842D01*
X65842Y247401D01*
X65158Y247796D01*
X64395Y248000D01*
X63605D01*
X62842Y247796D01*
X62158Y247401D01*
X61599Y246842D01*
X61204Y246158D01*
X61000Y245395D01*
Y244605D01*
X61204Y243842D01*
X61599Y243158D01*
X62158Y242599D01*
X62842Y242204D01*
X62980Y242167D01*
Y229169D01*
X62535Y228948D01*
X62498Y228944D01*
X56020Y235422D01*
Y248167D01*
X56158Y248204D01*
X56842Y248599D01*
X57401Y249158D01*
X57796Y249842D01*
X58000Y250605D01*
Y251395D01*
X57796Y252158D01*
X57401Y252842D01*
X56842Y253401D01*
X56158Y253796D01*
X55395Y254000D01*
X54605D01*
X53842Y253796D01*
X53158Y253401D01*
X52599Y252842D01*
X52204Y252158D01*
X52000Y251395D01*
Y250605D01*
X52204Y249842D01*
X52599Y249158D01*
X53158Y248599D01*
X53842Y248204D01*
X53980Y248167D01*
Y235000D01*
X54058Y234610D01*
X54279Y234279D01*
X76279Y212279D01*
X76610Y212058D01*
X77000Y211980D01*
X92480D01*
Y169508D01*
X85545Y162572D01*
X85158Y162796D01*
X84395Y163000D01*
X83605D01*
X82842Y162796D01*
X82158Y162401D01*
X81599Y161842D01*
X81204Y161158D01*
X81000Y160395D01*
Y159605D01*
X81204Y158842D01*
X81599Y158158D01*
X82158Y157599D01*
X82842Y157204D01*
X83605Y157000D01*
X84395D01*
X85158Y157204D01*
X85842Y157599D01*
X86401Y158158D01*
X86796Y158842D01*
X87000Y159605D01*
Y160395D01*
X86842Y160986D01*
X93519Y167662D01*
X93980Y167471D01*
Y151020D01*
X82833D01*
X82796Y151158D01*
X82401Y151842D01*
X81842Y152401D01*
X81158Y152796D01*
X80395Y153000D01*
X79605D01*
X78842Y152796D01*
X78158Y152401D01*
X77599Y151842D01*
X77204Y151158D01*
X77000Y150395D01*
Y149605D01*
X77204Y148842D01*
X77599Y148158D01*
X78158Y147599D01*
X78842Y147204D01*
X79605Y147000D01*
X80395D01*
X81158Y147204D01*
X81842Y147599D01*
X82401Y148158D01*
X82796Y148842D01*
X82833Y148980D01*
X94414D01*
X94804Y149058D01*
X95135Y149279D01*
X95331Y149475D01*
X95831Y149268D01*
Y142273D01*
X94578Y141020D01*
X87833D01*
X87796Y141158D01*
X87401Y141842D01*
X86842Y142401D01*
X86158Y142796D01*
X85395Y143000D01*
X84605D01*
X83842Y142796D01*
X83158Y142401D01*
X82599Y141842D01*
X82204Y141158D01*
X82000Y140395D01*
Y139605D01*
X82204Y138842D01*
X82599Y138158D01*
X83158Y137599D01*
X83842Y137204D01*
X84605Y137000D01*
X85395D01*
X86158Y137204D01*
X86842Y137599D01*
X87401Y138158D01*
X87796Y138842D01*
X87833Y138980D01*
X95000D01*
X95390Y139058D01*
X95721Y139279D01*
X97480Y141039D01*
X97835Y140947D01*
X97980Y140847D01*
Y132422D01*
X96578Y131020D01*
X86833D01*
X86796Y131158D01*
X86401Y131842D01*
X85842Y132401D01*
X85158Y132796D01*
X84395Y133000D01*
X83605D01*
X82842Y132796D01*
X82158Y132401D01*
X81599Y131842D01*
X81204Y131158D01*
X81000Y130395D01*
Y129605D01*
X81204Y128842D01*
X81599Y128158D01*
X82158Y127599D01*
X82842Y127204D01*
X83605Y127000D01*
X84395D01*
X85158Y127204D01*
X85842Y127599D01*
X86401Y128158D01*
X86796Y128842D01*
X86833Y128980D01*
X97000D01*
X97390Y129058D01*
X97721Y129279D01*
X99480Y131038D01*
X99980Y130831D01*
Y121262D01*
X91735D01*
X91401Y121842D01*
X90842Y122401D01*
X90158Y122796D01*
X89395Y123000D01*
X88605D01*
X87842Y122796D01*
X87158Y122401D01*
X86599Y121842D01*
X86204Y121158D01*
X86000Y120395D01*
Y119605D01*
X86204Y118842D01*
X86599Y118158D01*
X87158Y117599D01*
X87842Y117204D01*
X88605Y117000D01*
X89395D01*
X90158Y117204D01*
X90842Y117599D01*
X91401Y118158D01*
X91796Y118842D01*
X91898Y119223D01*
X100414D01*
X100804Y119301D01*
X101135Y119522D01*
X101480Y119867D01*
X101980Y119660D01*
Y39000D01*
X102058Y38610D01*
X102279Y38279D01*
X104547Y36011D01*
Y30547D01*
X111453D01*
Y37453D01*
X105989D01*
X104020Y39422D01*
Y170578D01*
X105718Y172276D01*
X105842Y172204D01*
X106605Y172000D01*
X107395D01*
X108158Y172204D01*
X108842Y172599D01*
X109401Y173158D01*
X109480Y173296D01*
X109980Y173162D01*
Y167833D01*
X109842Y167796D01*
X109158Y167401D01*
X108599Y166842D01*
X108204Y166158D01*
X108000Y165395D01*
Y164605D01*
X108204Y163842D01*
X108599Y163158D01*
X109158Y162599D01*
X109842Y162204D01*
X110605Y162000D01*
X111395D01*
X112158Y162204D01*
X112842Y162599D01*
X113401Y163158D01*
X113796Y163842D01*
X114000Y164605D01*
Y165395D01*
X113796Y166158D01*
X113401Y166842D01*
X112842Y167401D01*
X112158Y167796D01*
X112020Y167833D01*
Y283578D01*
X114718Y286276D01*
X114842Y286204D01*
X115605Y286000D01*
X116395D01*
X117158Y286204D01*
X117842Y286599D01*
X118401Y287158D01*
X118796Y287842D01*
X119000Y288605D01*
Y289395D01*
X118796Y290158D01*
X118401Y290842D01*
X117842Y291401D01*
X117158Y291796D01*
X116395Y292000D01*
D02*
G37*
G36*
X76395Y291000D02*
X75605D01*
X74842Y290796D01*
X74158Y290401D01*
X73599Y289842D01*
X73204Y289158D01*
X73000Y288395D01*
Y287605D01*
X73204Y286842D01*
X73599Y286158D01*
X74158Y285599D01*
X74842Y285204D01*
X75605Y285000D01*
X76395D01*
X77158Y285204D01*
X77842Y285599D01*
X78401Y286158D01*
X78796Y286842D01*
X79000Y287605D01*
Y288395D01*
X78796Y289158D01*
X78401Y289842D01*
X77842Y290401D01*
X77158Y290796D01*
X76395Y291000D01*
D02*
G37*
G36*
X139000Y301020D02*
X17000D01*
X16610Y300942D01*
X16279Y300721D01*
X14279Y298721D01*
X14058Y298390D01*
X13980Y298000D01*
Y285833D01*
X13842Y285796D01*
X13158Y285401D01*
X12599Y284842D01*
X12204Y284158D01*
X12000Y283395D01*
Y282605D01*
X12204Y281842D01*
X12599Y281158D01*
X13158Y280599D01*
X13842Y280204D01*
X14605Y280000D01*
X15395D01*
X16158Y280204D01*
X16842Y280599D01*
X17401Y281158D01*
X17796Y281842D01*
X18000Y282605D01*
Y283395D01*
X17796Y284158D01*
X17401Y284842D01*
X16842Y285401D01*
X16158Y285796D01*
X16020Y285833D01*
Y297578D01*
X17422Y298980D01*
X138578D01*
X138980Y298578D01*
Y289833D01*
X138842Y289796D01*
X138158Y289401D01*
X137599Y288842D01*
X137204Y288158D01*
X137000Y287395D01*
Y286605D01*
X137204Y285842D01*
X137599Y285158D01*
X138158Y284599D01*
X138842Y284204D01*
X139605Y284000D01*
X140395D01*
X141158Y284204D01*
X141842Y284599D01*
X142401Y285158D01*
X142796Y285842D01*
X143000Y286605D01*
Y287395D01*
X142796Y288158D01*
X142401Y288842D01*
X141842Y289401D01*
X141158Y289796D01*
X141020Y289833D01*
Y299000D01*
X140942Y299390D01*
X140721Y299721D01*
X139721Y300721D01*
X139390Y300942D01*
X139000Y301020D01*
D02*
G37*
G36*
X195395Y289000D02*
X194605D01*
X193842Y288796D01*
X193158Y288401D01*
X192599Y287842D01*
X192204Y287158D01*
X192000Y286395D01*
Y285605D01*
X192204Y284842D01*
X192599Y284158D01*
X193158Y283599D01*
X193842Y283204D01*
X194605Y283000D01*
X195395D01*
X196158Y283204D01*
X196842Y283599D01*
X197401Y284158D01*
X197796Y284842D01*
X198000Y285605D01*
Y286395D01*
X197796Y287158D01*
X197401Y287842D01*
X196842Y288401D01*
X196158Y288796D01*
X195395Y289000D01*
D02*
G37*
G36*
X389395Y305000D02*
X388605D01*
X387842Y304796D01*
X387158Y304401D01*
X386599Y303842D01*
X386204Y303158D01*
X386000Y302395D01*
Y301605D01*
X386204Y300842D01*
X386599Y300158D01*
X387158Y299599D01*
X387842Y299204D01*
X387980Y299167D01*
Y280422D01*
X386578Y279020D01*
X322036D01*
X321824Y279520D01*
X321942Y279696D01*
X322020Y280086D01*
Y299167D01*
X322158Y299204D01*
X322842Y299599D01*
X323401Y300158D01*
X323796Y300842D01*
X324000Y301605D01*
Y302395D01*
X323796Y303158D01*
X323401Y303842D01*
X322842Y304401D01*
X322158Y304796D01*
X321395Y305000D01*
X320605D01*
X319842Y304796D01*
X319158Y304401D01*
X318599Y303842D01*
X318204Y303158D01*
X318000Y302395D01*
Y301605D01*
X318204Y300842D01*
X318599Y300158D01*
X319158Y299599D01*
X319842Y299204D01*
X319980Y299167D01*
Y280520D01*
X247036D01*
X246824Y281020D01*
X246942Y281196D01*
X247020Y281586D01*
Y298927D01*
X247158Y298964D01*
X247842Y299359D01*
X248401Y299918D01*
X248796Y300602D01*
X249000Y301365D01*
Y302155D01*
X248796Y302918D01*
X248401Y303602D01*
X247842Y304160D01*
X247158Y304555D01*
X246395Y304760D01*
X245605D01*
X244842Y304555D01*
X244158Y304160D01*
X243599Y303602D01*
X243204Y302918D01*
X243000Y302155D01*
Y301365D01*
X243204Y300602D01*
X243599Y299918D01*
X244158Y299359D01*
X244842Y298964D01*
X244980Y298927D01*
Y282020D01*
X207000D01*
X206610Y281942D01*
X206279Y281721D01*
X205279Y280721D01*
X205058Y280390D01*
X204980Y280000D01*
Y253422D01*
X203578Y252020D01*
X202833D01*
X202796Y252158D01*
X202401Y252842D01*
X201842Y253401D01*
X201158Y253796D01*
X200395Y254000D01*
X199605D01*
X198842Y253796D01*
X198158Y253401D01*
X197599Y252842D01*
X197204Y252158D01*
X197000Y251395D01*
Y250605D01*
X197204Y249842D01*
X197599Y249158D01*
X198158Y248599D01*
X198842Y248204D01*
X199605Y248000D01*
X200395D01*
X201158Y248204D01*
X201842Y248599D01*
X202401Y249158D01*
X202796Y249842D01*
X202833Y249980D01*
X204000D01*
X204390Y250058D01*
X204721Y250279D01*
X206480Y252039D01*
X206980Y251831D01*
Y249422D01*
X202044Y244486D01*
X201823Y244156D01*
X201792Y244000D01*
X201605D01*
X200842Y243796D01*
X200158Y243401D01*
X199599Y242842D01*
X199204Y242158D01*
X199000Y241395D01*
Y240605D01*
X199204Y239842D01*
X199599Y239158D01*
X200158Y238599D01*
X200842Y238204D01*
X201605Y238000D01*
X202395D01*
X203158Y238204D01*
X203842Y238599D01*
X204401Y239158D01*
X204796Y239842D01*
X205000Y240605D01*
Y241395D01*
X204796Y242158D01*
X204401Y242842D01*
X203842Y243400D01*
X208018Y247576D01*
X208480Y247385D01*
Y245801D01*
X207279Y244600D01*
X207058Y244269D01*
X206980Y243879D01*
Y237833D01*
X206842Y237796D01*
X206158Y237401D01*
X205599Y236842D01*
X205204Y236158D01*
X205000Y235395D01*
Y234605D01*
X205204Y233842D01*
X205599Y233158D01*
X206158Y232599D01*
X206842Y232204D01*
X207605Y232000D01*
X208395D01*
X209158Y232204D01*
X209842Y232599D01*
X210401Y233158D01*
X210796Y233842D01*
X211000Y234605D01*
Y235395D01*
X210796Y236158D01*
X210401Y236842D01*
X209842Y237401D01*
X209158Y237796D01*
X209020Y237833D01*
Y243456D01*
X210221Y244658D01*
X210442Y244988D01*
X210520Y245379D01*
Y276980D01*
X387000D01*
X387390Y277058D01*
X387721Y277279D01*
X389721Y279279D01*
X389942Y279610D01*
X390020Y280000D01*
Y299167D01*
X390158Y299204D01*
X390842Y299599D01*
X391401Y300158D01*
X391796Y300842D01*
X392000Y301605D01*
Y302395D01*
X391796Y303158D01*
X391401Y303842D01*
X390842Y304401D01*
X390158Y304796D01*
X389395Y305000D01*
D02*
G37*
G36*
X158395Y268000D02*
X157605D01*
X156842Y267796D01*
X156158Y267401D01*
X155599Y266842D01*
X155204Y266158D01*
X155000Y265395D01*
Y264605D01*
X155204Y263842D01*
X155599Y263158D01*
X156158Y262599D01*
X156842Y262204D01*
X157605Y262000D01*
X158395D01*
X159158Y262204D01*
X159842Y262599D01*
X160401Y263158D01*
X160796Y263842D01*
X161000Y264605D01*
Y265395D01*
X160796Y266158D01*
X160401Y266842D01*
X159842Y267401D01*
X159158Y267796D01*
X158395Y268000D01*
D02*
G37*
G36*
X26395Y255000D02*
X25605D01*
X24842Y254796D01*
X24158Y254401D01*
X23599Y253842D01*
X23204Y253158D01*
X23000Y252395D01*
Y251605D01*
X23204Y250842D01*
X23599Y250158D01*
X24158Y249599D01*
X24842Y249204D01*
X25605Y249000D01*
X26395D01*
X27158Y249204D01*
X27842Y249599D01*
X28401Y250158D01*
X28796Y250842D01*
X29000Y251605D01*
Y252395D01*
X28796Y253158D01*
X28401Y253842D01*
X27842Y254401D01*
X27158Y254796D01*
X26395Y255000D01*
D02*
G37*
G36*
X78395Y265000D02*
X77605D01*
X76842Y264796D01*
X76158Y264401D01*
X75599Y263842D01*
X75204Y263158D01*
X75000Y262395D01*
Y261605D01*
X75204Y260842D01*
X75599Y260158D01*
X76158Y259599D01*
X76842Y259204D01*
X76980Y259167D01*
Y247537D01*
X76744Y247401D01*
X76185Y246842D01*
X75790Y246158D01*
X75586Y245395D01*
Y244605D01*
X75790Y243842D01*
X76185Y243158D01*
X76744Y242599D01*
X77428Y242204D01*
X78191Y242000D01*
X78981D01*
X79744Y242204D01*
X80428Y242599D01*
X80986Y243158D01*
X81381Y243842D01*
X81586Y244605D01*
Y245395D01*
X81381Y246158D01*
X80986Y246842D01*
X80428Y247401D01*
X79744Y247796D01*
X79020Y247990D01*
Y259167D01*
X79158Y259204D01*
X79842Y259599D01*
X80401Y260158D01*
X80796Y260842D01*
X81000Y261605D01*
Y262395D01*
X80796Y263158D01*
X80401Y263842D01*
X79842Y264401D01*
X79158Y264796D01*
X78395Y265000D01*
D02*
G37*
G36*
X146395Y262000D02*
X145605D01*
X144842Y261796D01*
X144158Y261401D01*
X143599Y260842D01*
X143204Y260158D01*
X143000Y259395D01*
Y258605D01*
X143204Y257842D01*
X143599Y257158D01*
X144158Y256599D01*
X144842Y256204D01*
X145605Y256000D01*
X146395D01*
X146850Y256122D01*
X147980Y254992D01*
Y236273D01*
X147078Y235370D01*
X144075D01*
Y230630D01*
X148224D01*
Y231980D01*
X149776D01*
Y230630D01*
X150831D01*
Y228870D01*
X149776D01*
Y227520D01*
X148224D01*
Y228870D01*
X144075D01*
Y224130D01*
X145130D01*
Y222370D01*
X144075D01*
Y217630D01*
X148224D01*
Y218980D01*
X149776D01*
Y217630D01*
X153925D01*
Y222370D01*
X149776D01*
Y221020D01*
X148224D01*
Y222370D01*
X147169D01*
Y224130D01*
X148224D01*
Y225480D01*
X149776D01*
Y224130D01*
X153925D01*
Y228870D01*
X152870D01*
Y230630D01*
X153925D01*
Y235370D01*
X150434D01*
X150020Y235850D01*
Y255414D01*
X149942Y255804D01*
X149721Y256135D01*
X148510Y257347D01*
X148796Y257842D01*
X149000Y258605D01*
Y259395D01*
X148796Y260158D01*
X148401Y260842D01*
X147842Y261401D01*
X147158Y261796D01*
X146395Y262000D01*
D02*
G37*
G36*
X456500Y254500D02*
X443500D01*
Y247500D01*
X447451D01*
Y225549D01*
X443090D01*
X442876Y225763D01*
X442089Y226218D01*
X441211Y226453D01*
X440301D01*
X439423Y226218D01*
X438636Y225763D01*
X437993Y225120D01*
X437538Y224333D01*
X437303Y223455D01*
Y222545D01*
X437538Y221667D01*
X437993Y220880D01*
X438636Y220237D01*
X439423Y219782D01*
X439736Y219699D01*
Y198224D01*
X438630D01*
Y194075D01*
X443370D01*
Y198224D01*
X441776D01*
Y219699D01*
X442089Y219782D01*
X442876Y220237D01*
X443090Y220451D01*
X449000D01*
X449975Y220645D01*
X450802Y221198D01*
X451802Y222198D01*
X452355Y223025D01*
X452549Y224000D01*
Y247500D01*
X456500D01*
Y254500D01*
D02*
G37*
G36*
X384500D02*
X371500D01*
Y247500D01*
X375451D01*
Y225549D01*
X371090D01*
X370876Y225763D01*
X370089Y226218D01*
X369211Y226453D01*
X368301D01*
X367423Y226218D01*
X366636Y225763D01*
X365993Y225120D01*
X365539Y224333D01*
X365303Y223455D01*
Y222545D01*
X365539Y221667D01*
X365993Y220880D01*
X366636Y220237D01*
X367423Y219782D01*
X367736Y219699D01*
Y198224D01*
X366630D01*
Y194075D01*
X371370D01*
Y198224D01*
X369776D01*
Y219699D01*
X370089Y219782D01*
X370876Y220237D01*
X371090Y220451D01*
X377414D01*
X378390Y220645D01*
X379217Y221198D01*
X379802Y221783D01*
X380355Y222610D01*
X380549Y223586D01*
Y247500D01*
X384500D01*
Y254500D01*
D02*
G37*
G36*
X240500D02*
X227500D01*
Y247500D01*
X231451D01*
Y225549D01*
X227090D01*
X226876Y225763D01*
X226089Y226218D01*
X225210Y226453D01*
X224301D01*
X223423Y226218D01*
X222636Y225763D01*
X221993Y225120D01*
X221538Y224333D01*
X221303Y223455D01*
Y222545D01*
X221538Y221667D01*
X221993Y220880D01*
X222636Y220237D01*
X223423Y219782D01*
X223736Y219699D01*
Y198224D01*
X222130D01*
Y194075D01*
X226870D01*
Y198224D01*
X225776D01*
Y219699D01*
X226089Y219782D01*
X226876Y220237D01*
X227090Y220451D01*
X233414D01*
X234390Y220645D01*
X235217Y221198D01*
X235802Y221783D01*
X236355Y222610D01*
X236549Y223586D01*
Y247500D01*
X240500D01*
Y254500D01*
D02*
G37*
G36*
X312500D02*
X299500D01*
Y247500D01*
X303451D01*
Y224549D01*
X299849D01*
X299519Y225120D01*
X298876Y225763D01*
X298089Y226218D01*
X297211Y226453D01*
X296301D01*
X295423Y226218D01*
X294636Y225763D01*
X293993Y225120D01*
X293538Y224333D01*
X293303Y223455D01*
Y222545D01*
X293538Y221667D01*
X293993Y220880D01*
X294636Y220237D01*
X295423Y219782D01*
X295676Y219715D01*
X295736Y219674D01*
Y198224D01*
X294630D01*
Y194075D01*
X299370D01*
Y198224D01*
X297776D01*
Y219451D01*
X305000D01*
X305976Y219645D01*
X306802Y220198D01*
X307802Y221198D01*
X308355Y222024D01*
X308549Y223000D01*
Y247500D01*
X312500D01*
Y254500D01*
D02*
G37*
G36*
X474395Y276000D02*
X473605D01*
X472842Y275796D01*
X472158Y275401D01*
X471599Y274842D01*
X471204Y274158D01*
X471000Y273395D01*
Y272605D01*
X471204Y271842D01*
X471599Y271158D01*
X472158Y270599D01*
X472842Y270204D01*
X472980Y270167D01*
Y254500D01*
X468500D01*
Y247500D01*
X472451D01*
Y223586D01*
X472645Y222610D01*
X473198Y221783D01*
X473783Y221198D01*
X474610Y220645D01*
X475586Y220451D01*
X484547D01*
Y219547D01*
X491453D01*
Y226453D01*
X484547D01*
Y225549D01*
X477549D01*
Y247500D01*
X481500D01*
Y254500D01*
X475020D01*
Y270167D01*
X475158Y270204D01*
X475842Y270599D01*
X476401Y271158D01*
X476796Y271842D01*
X477000Y272605D01*
Y273395D01*
X476796Y274158D01*
X476401Y274842D01*
X475842Y275401D01*
X475158Y275796D01*
X474395Y276000D01*
D02*
G37*
G36*
X403395D02*
X402605D01*
X401842Y275796D01*
X401158Y275401D01*
X400599Y274842D01*
X400204Y274158D01*
X400000Y273395D01*
Y272605D01*
X400204Y271842D01*
X400599Y271158D01*
X401158Y270599D01*
X401842Y270204D01*
X401980Y270167D01*
Y254500D01*
X396500D01*
Y247500D01*
X400451D01*
Y223586D01*
X400645Y222610D01*
X401198Y221783D01*
X401783Y221198D01*
X402610Y220645D01*
X403586Y220451D01*
X412547D01*
Y219547D01*
X419453D01*
Y226453D01*
X412547D01*
Y225549D01*
X405549D01*
Y247500D01*
X409500D01*
Y254500D01*
X404020D01*
Y270167D01*
X404158Y270204D01*
X404842Y270599D01*
X405401Y271158D01*
X405796Y271842D01*
X406000Y272605D01*
Y273395D01*
X405796Y274158D01*
X405401Y274842D01*
X404842Y275401D01*
X404158Y275796D01*
X403395Y276000D01*
D02*
G37*
G36*
X259395Y275000D02*
X258605D01*
X257842Y274796D01*
X257158Y274401D01*
X256599Y273842D01*
X256204Y273158D01*
X256000Y272395D01*
Y271605D01*
X256204Y270842D01*
X256599Y270158D01*
X257158Y269599D01*
X257842Y269204D01*
X257980Y269167D01*
Y254500D01*
X252500D01*
Y247500D01*
X256451D01*
Y223586D01*
X256645Y222610D01*
X257198Y221783D01*
X257783Y221198D01*
X258610Y220645D01*
X259586Y220451D01*
X268547D01*
Y219547D01*
X275453D01*
Y226453D01*
X268547D01*
Y225549D01*
X261549D01*
Y247500D01*
X265500D01*
Y254500D01*
X260020D01*
Y269167D01*
X260158Y269204D01*
X260842Y269599D01*
X261401Y270158D01*
X261796Y270842D01*
X262000Y271605D01*
Y272395D01*
X261796Y273158D01*
X261401Y273842D01*
X260842Y274401D01*
X260158Y274796D01*
X259395Y275000D01*
D02*
G37*
G36*
X331395D02*
X330605D01*
X329842Y274796D01*
X329158Y274401D01*
X328599Y273842D01*
X328204Y273158D01*
X328000Y272395D01*
Y271605D01*
X328204Y270842D01*
X328599Y270158D01*
X329158Y269599D01*
X329842Y269204D01*
X329980Y269167D01*
Y254500D01*
X324500D01*
Y247500D01*
X328451D01*
Y222586D01*
X328645Y221610D01*
X329198Y220783D01*
X329783Y220198D01*
X330610Y219645D01*
X331586Y219451D01*
X344000D01*
X344484Y219547D01*
X347453D01*
Y226453D01*
X340547D01*
Y224549D01*
X333549D01*
Y247500D01*
X337500D01*
Y254500D01*
X332020D01*
Y269167D01*
X332158Y269204D01*
X332842Y269599D01*
X333401Y270158D01*
X333796Y270842D01*
X334000Y271605D01*
Y272395D01*
X333796Y273158D01*
X333401Y273842D01*
X332842Y274401D01*
X332158Y274796D01*
X331395Y275000D01*
D02*
G37*
G36*
X44395Y243000D02*
X43605D01*
X42842Y242796D01*
X42158Y242401D01*
X41599Y241842D01*
X41204Y241158D01*
X41000Y240395D01*
Y239605D01*
X41204Y238842D01*
X41599Y238158D01*
X42041Y237717D01*
X41980Y237414D01*
Y218833D01*
X41842Y218796D01*
X41158Y218401D01*
X40599Y217842D01*
X40204Y217158D01*
X40000Y216395D01*
Y215605D01*
X40204Y214842D01*
X40599Y214158D01*
X41158Y213599D01*
X41842Y213204D01*
X42605Y213000D01*
X43395D01*
X44158Y213204D01*
X44842Y213599D01*
X45401Y214158D01*
X45796Y214842D01*
X46000Y215605D01*
Y216395D01*
X45796Y217158D01*
X45401Y217842D01*
X44842Y218401D01*
X44158Y218796D01*
X44020Y218833D01*
Y237000D01*
X44395D01*
X45158Y237204D01*
X45842Y237599D01*
X46401Y238158D01*
X46796Y238842D01*
X47000Y239605D01*
Y240395D01*
X46796Y241158D01*
X46401Y241842D01*
X45842Y242401D01*
X45158Y242796D01*
X44395Y243000D01*
D02*
G37*
G36*
X33395Y244000D02*
X32605D01*
X31842Y243796D01*
X31158Y243401D01*
X30599Y242842D01*
X30204Y242158D01*
X30000Y241395D01*
Y240605D01*
X30204Y239842D01*
X30599Y239158D01*
X31158Y238599D01*
X31842Y238204D01*
X31980Y238167D01*
Y213360D01*
X31495Y212973D01*
X31395Y213000D01*
X30605D01*
X29842Y212796D01*
X29158Y212401D01*
X28599Y211842D01*
X28204Y211158D01*
X28000Y210395D01*
Y209605D01*
X28204Y208842D01*
X28599Y208158D01*
X29158Y207599D01*
X29842Y207204D01*
X30605Y207000D01*
X31395D01*
X32158Y207204D01*
X32842Y207599D01*
X33401Y208158D01*
X33796Y208842D01*
X34000Y209605D01*
Y210395D01*
X33796Y211158D01*
X33509Y211653D01*
X33721Y211865D01*
X33942Y212196D01*
X34020Y212586D01*
Y238167D01*
X34158Y238204D01*
X34842Y238599D01*
X35401Y239158D01*
X35796Y239842D01*
X36000Y240605D01*
Y241395D01*
X35796Y242158D01*
X35401Y242842D01*
X34842Y243401D01*
X34158Y243796D01*
X33395Y244000D01*
D02*
G37*
G36*
X30461Y193500D02*
X29539D01*
X28649Y193262D01*
X27851Y192801D01*
X27199Y192149D01*
X26739Y191351D01*
X26500Y190461D01*
Y189539D01*
X26739Y188649D01*
X27199Y187851D01*
X27851Y187199D01*
X28649Y186739D01*
X29539Y186500D01*
X30461D01*
X31351Y186739D01*
X32149Y187199D01*
X32801Y187851D01*
X33261Y188649D01*
X33500Y189539D01*
Y190461D01*
X33261Y191351D01*
X32801Y192149D01*
X32149Y192801D01*
X31351Y193262D01*
X30461Y193500D01*
D02*
G37*
G36*
X23500D02*
X16500D01*
Y186500D01*
X23500D01*
Y193500D01*
D02*
G37*
G36*
X226870Y191925D02*
X222130D01*
Y187776D01*
X223480D01*
Y182922D01*
X220282Y179724D01*
X220158Y179796D01*
X219395Y180000D01*
X218605D01*
X217842Y179796D01*
X217158Y179401D01*
X216599Y178842D01*
X216204Y178158D01*
X216000Y177395D01*
Y176605D01*
X216204Y175842D01*
X216599Y175158D01*
X217158Y174599D01*
X217842Y174204D01*
X218605Y174000D01*
X219395D01*
X220158Y174204D01*
X220842Y174599D01*
X221401Y175158D01*
X221796Y175842D01*
X222000Y176605D01*
Y177395D01*
X221796Y178158D01*
X221724Y178282D01*
X225221Y181779D01*
X225442Y182110D01*
X225520Y182500D01*
Y187776D01*
X226870D01*
Y191925D01*
D02*
G37*
G36*
X488571Y275370D02*
X487429D01*
X486325Y275074D01*
X485336Y274503D01*
X484528Y273695D01*
X483957Y272706D01*
X483661Y271603D01*
Y270460D01*
X483957Y269357D01*
X484528Y268368D01*
X485336Y267560D01*
X486325Y266989D01*
X487429Y266693D01*
X488571D01*
X489675Y266989D01*
X490664Y267560D01*
X491472Y268368D01*
X491538Y268482D01*
X496601D01*
X497451Y267633D01*
Y177399D01*
X496601Y176549D01*
X482669D01*
X481983Y177235D01*
X481061Y177768D01*
X480032Y178043D01*
X478968D01*
X477939Y177768D01*
X477017Y177235D01*
X476264Y176483D01*
X475732Y175561D01*
X475457Y174532D01*
Y173468D01*
X475732Y172439D01*
X476264Y171517D01*
X477017Y170765D01*
X477939Y170232D01*
X478968Y169957D01*
X480032D01*
X481061Y170232D01*
X481983Y170765D01*
X482669Y171451D01*
X497657D01*
X498632Y171645D01*
X499459Y172198D01*
X501802Y174541D01*
X502355Y175368D01*
X502549Y176343D01*
Y268688D01*
X502355Y269664D01*
X501802Y270491D01*
X499459Y272834D01*
X498632Y273387D01*
X497657Y273581D01*
X491538D01*
X491472Y273695D01*
X490664Y274503D01*
X489675Y275074D01*
X488571Y275370D01*
D02*
G37*
G36*
X416571D02*
X415429D01*
X414325Y275074D01*
X413336Y274503D01*
X412528Y273695D01*
X411957Y272706D01*
X411661Y271603D01*
Y270460D01*
X411957Y269357D01*
X412528Y268368D01*
X413336Y267560D01*
X414325Y266989D01*
X415429Y266693D01*
X416571D01*
X417675Y266989D01*
X418664Y267560D01*
X419472Y268368D01*
X419538Y268482D01*
X425451D01*
Y177399D01*
X424601Y176549D01*
X410669D01*
X409983Y177235D01*
X409061Y177768D01*
X408032Y178043D01*
X406968D01*
X405939Y177768D01*
X405017Y177235D01*
X404265Y176483D01*
X403732Y175561D01*
X403457Y174532D01*
Y173468D01*
X403732Y172439D01*
X404265Y171517D01*
X405017Y170765D01*
X405939Y170232D01*
X406968Y169957D01*
X408032D01*
X409061Y170232D01*
X409983Y170765D01*
X410669Y171451D01*
X425657D01*
X426632Y171645D01*
X427459Y172198D01*
X429802Y174541D01*
X430355Y175368D01*
X430549Y176343D01*
Y270000D01*
X430355Y270975D01*
X429802Y271802D01*
X428771Y272834D01*
X427944Y273387D01*
X426968Y273581D01*
X419538D01*
X419472Y273695D01*
X418664Y274503D01*
X417675Y275074D01*
X416571Y275370D01*
D02*
G37*
G36*
X344571D02*
X343429D01*
X342325Y275074D01*
X341336Y274503D01*
X340528Y273695D01*
X339957Y272706D01*
X339661Y271603D01*
Y270460D01*
X339957Y269357D01*
X340528Y268368D01*
X341336Y267560D01*
X342325Y266989D01*
X343429Y266693D01*
X344571D01*
X345675Y266989D01*
X346664Y267560D01*
X347472Y268368D01*
X347538Y268482D01*
X354084D01*
Y177399D01*
X353234Y176549D01*
X338169D01*
X337483Y177235D01*
X336561Y177768D01*
X335532Y178043D01*
X334468D01*
X333439Y177768D01*
X332517Y177235D01*
X331765Y176483D01*
X331232Y175561D01*
X330957Y174532D01*
Y173468D01*
X331232Y172439D01*
X331765Y171517D01*
X332517Y170765D01*
X333439Y170232D01*
X334468Y169957D01*
X335532D01*
X336561Y170232D01*
X337483Y170765D01*
X338169Y171451D01*
X354290D01*
X355266Y171645D01*
X356093Y172198D01*
X358436Y174541D01*
X358988Y175368D01*
X359182Y176343D01*
Y270446D01*
X358988Y271421D01*
X358436Y272248D01*
X357850Y272834D01*
X357023Y273387D01*
X356048Y273581D01*
X347538D01*
X347472Y273695D01*
X346664Y274503D01*
X345675Y275074D01*
X344571Y275370D01*
D02*
G37*
G36*
X272571D02*
X271429D01*
X270325Y275074D01*
X269336Y274503D01*
X268528Y273695D01*
X267957Y272706D01*
X267661Y271603D01*
Y270460D01*
X267957Y269357D01*
X268528Y268368D01*
X269336Y267560D01*
X270325Y266989D01*
X271429Y266693D01*
X272571D01*
X273675Y266989D01*
X274664Y267560D01*
X275472Y268368D01*
X275538Y268482D01*
X281451D01*
Y177399D01*
X280601Y176549D01*
X266669D01*
X265983Y177235D01*
X265061Y177768D01*
X264032Y178043D01*
X262968D01*
X261939Y177768D01*
X261017Y177235D01*
X260265Y176483D01*
X259732Y175561D01*
X259457Y174532D01*
Y173468D01*
X259732Y172439D01*
X260265Y171517D01*
X261017Y170765D01*
X261939Y170232D01*
X262968Y169957D01*
X264032D01*
X265061Y170232D01*
X265983Y170765D01*
X266669Y171451D01*
X281657D01*
X282632Y171645D01*
X283459Y172198D01*
X285802Y174541D01*
X286355Y175368D01*
X286549Y176343D01*
Y270446D01*
X286355Y271421D01*
X285802Y272248D01*
X285217Y272834D01*
X284390Y273387D01*
X283414Y273581D01*
X275538D01*
X275472Y273695D01*
X274664Y274503D01*
X273675Y275074D01*
X272571Y275370D01*
D02*
G37*
G36*
X30461Y183500D02*
X29539D01*
X28649Y183262D01*
X27851Y182801D01*
X27199Y182149D01*
X26739Y181351D01*
X26500Y180461D01*
Y179539D01*
X26739Y178649D01*
X27199Y177851D01*
X27851Y177199D01*
X28649Y176739D01*
X29539Y176500D01*
X30461D01*
X31351Y176739D01*
X32149Y177199D01*
X32801Y177851D01*
X33261Y178649D01*
X33500Y179539D01*
Y180461D01*
X33261Y181351D01*
X32801Y182149D01*
X32149Y182801D01*
X31351Y183262D01*
X30461Y183500D01*
D02*
G37*
G36*
X20461D02*
X19539D01*
X18649Y183262D01*
X17851Y182801D01*
X17199Y182149D01*
X16738Y181351D01*
X16500Y180461D01*
Y179539D01*
X16738Y178649D01*
X17199Y177851D01*
X17851Y177199D01*
X18649Y176739D01*
X19539Y176500D01*
X20461D01*
X21351Y176739D01*
X22149Y177199D01*
X22801Y177851D01*
X23261Y178649D01*
X23500Y179539D01*
Y180461D01*
X23261Y181351D01*
X22801Y182149D01*
X22149Y182801D01*
X21351Y183262D01*
X20461Y183500D01*
D02*
G37*
G36*
X205395Y181000D02*
X204605D01*
X203842Y180796D01*
X203158Y180401D01*
X202599Y179842D01*
X202204Y179158D01*
X202000Y178395D01*
Y177605D01*
X202204Y176842D01*
X202599Y176158D01*
X203158Y175599D01*
X203842Y175204D01*
X204605Y175000D01*
X205395D01*
X206158Y175204D01*
X206842Y175599D01*
X207401Y176158D01*
X207796Y176842D01*
X208000Y177605D01*
Y178395D01*
X207796Y179158D01*
X207401Y179842D01*
X206842Y180401D01*
X206158Y180796D01*
X205395Y181000D01*
D02*
G37*
G36*
X87395D02*
X86605D01*
X85842Y180796D01*
X85158Y180401D01*
X84599Y179842D01*
X84204Y179158D01*
X84000Y178395D01*
Y177605D01*
X84027Y177505D01*
X83640Y177020D01*
X72000D01*
X71610Y176942D01*
X71279Y176721D01*
X71058Y176390D01*
X70980Y176000D01*
Y98422D01*
X62279Y89721D01*
X62058Y89390D01*
X61980Y89000D01*
Y48586D01*
X62058Y48196D01*
X62279Y47865D01*
X62865Y47279D01*
X63196Y47058D01*
X63586Y46980D01*
X94980D01*
Y37453D01*
X92547D01*
Y30547D01*
X99453D01*
Y37453D01*
X97020D01*
Y47414D01*
X96942Y47804D01*
X96721Y48135D01*
X96135Y48721D01*
X95804Y48942D01*
X95414Y49020D01*
X64020D01*
Y88578D01*
X72721Y97279D01*
X72942Y97610D01*
X73020Y98000D01*
Y174980D01*
X84414D01*
X84804Y175058D01*
X85135Y175279D01*
X85347Y175490D01*
X85842Y175204D01*
X86605Y175000D01*
X87395D01*
X88158Y175204D01*
X88842Y175599D01*
X89401Y176158D01*
X89796Y176842D01*
X90000Y177605D01*
Y178395D01*
X89796Y179158D01*
X89401Y179842D01*
X88842Y180401D01*
X88158Y180796D01*
X87395Y181000D01*
D02*
G37*
G36*
X443370Y191925D02*
X438630D01*
Y187776D01*
X439980D01*
Y177422D01*
X434282Y171724D01*
X434158Y171796D01*
X433395Y172000D01*
X432605D01*
X431842Y171796D01*
X431158Y171401D01*
X430599Y170842D01*
X430204Y170158D01*
X430000Y169395D01*
Y168605D01*
X430204Y167842D01*
X430599Y167158D01*
X431158Y166599D01*
X431842Y166204D01*
X432605Y166000D01*
X433395D01*
X434158Y166204D01*
X434842Y166599D01*
X435401Y167158D01*
X435796Y167842D01*
X436000Y168605D01*
Y169395D01*
X435796Y170158D01*
X435724Y170282D01*
X441721Y176279D01*
X441942Y176610D01*
X442020Y177000D01*
Y187776D01*
X443370D01*
Y191925D01*
D02*
G37*
G36*
X464949Y219465D02*
X463807D01*
X462703Y219169D01*
X461714Y218598D01*
X460906Y217790D01*
X460335Y216801D01*
X460039Y215697D01*
Y214555D01*
X460335Y213451D01*
X460906Y212462D01*
X461714Y211654D01*
X461829Y211588D01*
Y177047D01*
X461265Y176483D01*
X460732Y175561D01*
X460457Y174532D01*
Y173468D01*
X460732Y172439D01*
X461265Y171517D01*
X462017Y170765D01*
X462939Y170232D01*
X463968Y169957D01*
X465032D01*
X466061Y170232D01*
X466983Y170765D01*
X467735Y171517D01*
X468268Y172439D01*
X468543Y173468D01*
Y174532D01*
X468268Y175561D01*
X467735Y176483D01*
X466983Y177235D01*
X466927Y177268D01*
Y211588D01*
X467042Y211654D01*
X467850Y212462D01*
X468421Y213451D01*
X468716Y214555D01*
Y215697D01*
X468421Y216801D01*
X467850Y217790D01*
X467042Y218598D01*
X466053Y219169D01*
X464949Y219465D01*
D02*
G37*
G36*
X440756Y274514D02*
X439855Y274395D01*
X439015Y274047D01*
X438293Y273494D01*
X437740Y272773D01*
X437392Y271933D01*
X437273Y271031D01*
X437392Y270130D01*
X437740Y269290D01*
X438293Y268569D01*
X439015Y268016D01*
X439855Y267668D01*
X440756Y267549D01*
X441657Y267668D01*
X442497Y268016D01*
X443106Y268482D01*
X459451D01*
Y227056D01*
X447698Y215302D01*
X447145Y214475D01*
X446951Y213500D01*
Y177169D01*
X446265Y176483D01*
X445732Y175561D01*
X445457Y174532D01*
Y173468D01*
X445732Y172439D01*
X446265Y171517D01*
X447017Y170765D01*
X447939Y170232D01*
X448968Y169957D01*
X450032D01*
X451061Y170232D01*
X451983Y170765D01*
X452736Y171517D01*
X453268Y172439D01*
X453543Y173468D01*
Y174532D01*
X453268Y175561D01*
X452736Y176483D01*
X452049Y177169D01*
Y212444D01*
X463802Y224198D01*
X464355Y225025D01*
X464549Y226000D01*
Y270446D01*
X464355Y271421D01*
X463802Y272248D01*
X463217Y272834D01*
X462390Y273387D01*
X461414Y273581D01*
X443106D01*
X442497Y274047D01*
X441657Y274395D01*
X440756Y274514D01*
D02*
G37*
G36*
X392949Y219465D02*
X391807D01*
X390703Y219169D01*
X389714Y218598D01*
X388906Y217790D01*
X388335Y216801D01*
X388039Y215697D01*
Y214555D01*
X388335Y213451D01*
X388906Y212462D01*
X389714Y211654D01*
X389829Y211588D01*
Y177047D01*
X389265Y176483D01*
X388732Y175561D01*
X388457Y174532D01*
Y173468D01*
X388732Y172439D01*
X389265Y171517D01*
X390017Y170765D01*
X390939Y170232D01*
X391968Y169957D01*
X393032D01*
X394061Y170232D01*
X394983Y170765D01*
X395735Y171517D01*
X396268Y172439D01*
X396543Y173468D01*
Y174532D01*
X396268Y175561D01*
X395735Y176483D01*
X394983Y177235D01*
X394927Y177268D01*
Y211588D01*
X395042Y211654D01*
X395850Y212462D01*
X396421Y213451D01*
X396716Y214555D01*
Y215697D01*
X396421Y216801D01*
X395850Y217790D01*
X395042Y218598D01*
X394053Y219169D01*
X392949Y219465D01*
D02*
G37*
G36*
X368756Y274514D02*
X367855Y274395D01*
X367015Y274047D01*
X366293Y273494D01*
X365740Y272773D01*
X365392Y271933D01*
X365273Y271031D01*
X365392Y270130D01*
X365740Y269290D01*
X366293Y268569D01*
X367015Y268016D01*
X367855Y267668D01*
X368756Y267549D01*
X369657Y267668D01*
X370497Y268016D01*
X371106Y268482D01*
X388451D01*
Y228056D01*
X375698Y215302D01*
X375145Y214475D01*
X374951Y213500D01*
Y177169D01*
X374265Y176483D01*
X373732Y175561D01*
X373457Y174532D01*
Y173468D01*
X373732Y172439D01*
X374265Y171517D01*
X375017Y170765D01*
X375939Y170232D01*
X376968Y169957D01*
X378032D01*
X379061Y170232D01*
X379983Y170765D01*
X380735Y171517D01*
X381268Y172439D01*
X381543Y173468D01*
Y174532D01*
X381268Y175561D01*
X380735Y176483D01*
X380049Y177169D01*
Y212444D01*
X392802Y225198D01*
X393355Y226025D01*
X393549Y227000D01*
Y270446D01*
X393355Y271421D01*
X392802Y272248D01*
X392217Y272834D01*
X391390Y273387D01*
X390414Y273581D01*
X371106D01*
X370497Y274047D01*
X369657Y274395D01*
X368756Y274514D01*
D02*
G37*
G36*
X320949Y219465D02*
X319807D01*
X318703Y219169D01*
X317714Y218598D01*
X316906Y217790D01*
X316335Y216801D01*
X316039Y215697D01*
Y214555D01*
X316335Y213451D01*
X316906Y212462D01*
X317714Y211654D01*
X317829Y211588D01*
Y177415D01*
X317517Y177235D01*
X316765Y176483D01*
X316232Y175561D01*
X315957Y174532D01*
Y173468D01*
X316232Y172439D01*
X316765Y171517D01*
X317517Y170765D01*
X318439Y170232D01*
X319468Y169957D01*
X320532D01*
X321561Y170232D01*
X322483Y170765D01*
X323235Y171517D01*
X323768Y172439D01*
X324043Y173468D01*
Y174532D01*
X323768Y175561D01*
X323235Y176483D01*
X322927Y176791D01*
Y211588D01*
X323042Y211654D01*
X323850Y212462D01*
X324421Y213451D01*
X324716Y214555D01*
Y215697D01*
X324421Y216801D01*
X323850Y217790D01*
X323042Y218598D01*
X322053Y219169D01*
X320949Y219465D01*
D02*
G37*
G36*
X296756Y274514D02*
X295855Y274395D01*
X295015Y274047D01*
X294293Y273494D01*
X293740Y272773D01*
X293392Y271933D01*
X293273Y271031D01*
X293392Y270130D01*
X293740Y269290D01*
X294293Y268569D01*
X295015Y268016D01*
X295855Y267668D01*
X296756Y267549D01*
X297657Y267668D01*
X298497Y268016D01*
X299106Y268482D01*
X315451D01*
Y227056D01*
X304198Y215802D01*
X303645Y214976D01*
X303451Y214000D01*
Y177771D01*
X303439Y177768D01*
X302517Y177235D01*
X301765Y176483D01*
X301232Y175561D01*
X300957Y174532D01*
Y173468D01*
X301232Y172439D01*
X301765Y171517D01*
X302517Y170765D01*
X303439Y170232D01*
X304468Y169957D01*
X305532D01*
X306561Y170232D01*
X307483Y170765D01*
X308235Y171517D01*
X308768Y172439D01*
X309043Y173468D01*
Y174532D01*
X308768Y175561D01*
X308549Y175940D01*
Y212944D01*
X319802Y224198D01*
X320355Y225025D01*
X320549Y226000D01*
Y270446D01*
X320355Y271421D01*
X319802Y272248D01*
X319217Y272834D01*
X318390Y273387D01*
X317414Y273581D01*
X299106D01*
X298497Y274047D01*
X297657Y274395D01*
X296756Y274514D01*
D02*
G37*
G36*
X248949Y219465D02*
X247807D01*
X246703Y219169D01*
X245714Y218598D01*
X244906Y217790D01*
X244335Y216801D01*
X244039Y215697D01*
Y214555D01*
X244335Y213451D01*
X244906Y212462D01*
X245714Y211654D01*
X245829Y211588D01*
Y177047D01*
X245265Y176483D01*
X244732Y175561D01*
X244457Y174532D01*
Y173468D01*
X244732Y172439D01*
X245265Y171517D01*
X246017Y170765D01*
X246939Y170232D01*
X247968Y169957D01*
X249032D01*
X250061Y170232D01*
X250983Y170765D01*
X251735Y171517D01*
X252268Y172439D01*
X252543Y173468D01*
Y174532D01*
X252268Y175561D01*
X251735Y176483D01*
X250983Y177235D01*
X250927Y177268D01*
Y211588D01*
X251042Y211654D01*
X251850Y212462D01*
X252421Y213451D01*
X252716Y214555D01*
Y215697D01*
X252421Y216801D01*
X251850Y217790D01*
X251042Y218598D01*
X250053Y219169D01*
X248949Y219465D01*
D02*
G37*
G36*
X224756Y274514D02*
X223855Y274395D01*
X223015Y274047D01*
X222293Y273494D01*
X221740Y272773D01*
X221392Y271933D01*
X221273Y271031D01*
X221392Y270130D01*
X221740Y269290D01*
X222293Y268569D01*
X223015Y268016D01*
X223855Y267668D01*
X224756Y267549D01*
X225657Y267668D01*
X226497Y268016D01*
X227106Y268482D01*
X243451D01*
Y227056D01*
X231698Y215302D01*
X231145Y214475D01*
X230951Y213500D01*
Y177169D01*
X230265Y176483D01*
X229732Y175561D01*
X229457Y174532D01*
Y173468D01*
X229732Y172439D01*
X230265Y171517D01*
X231017Y170765D01*
X231939Y170232D01*
X232968Y169957D01*
X234032D01*
X235061Y170232D01*
X235983Y170765D01*
X236735Y171517D01*
X237268Y172439D01*
X237543Y173468D01*
Y174532D01*
X237268Y175561D01*
X236735Y176483D01*
X236049Y177169D01*
Y212444D01*
X247802Y224198D01*
X248355Y225025D01*
X248549Y226000D01*
Y270446D01*
X248355Y271421D01*
X247802Y272248D01*
X247217Y272834D01*
X246390Y273387D01*
X245414Y273581D01*
X227106D01*
X226497Y274047D01*
X225657Y274395D01*
X224756Y274514D01*
D02*
G37*
G36*
X371370Y191925D02*
X366630D01*
Y187776D01*
X367980D01*
Y177422D01*
X360282Y169724D01*
X360158Y169796D01*
X359395Y170000D01*
X358605D01*
X357842Y169796D01*
X357158Y169401D01*
X356599Y168842D01*
X356204Y168158D01*
X356000Y167395D01*
Y166605D01*
X356204Y165842D01*
X356599Y165158D01*
X357158Y164599D01*
X357842Y164204D01*
X358605Y164000D01*
X359395D01*
X360158Y164204D01*
X360842Y164599D01*
X361401Y165158D01*
X361796Y165842D01*
X362000Y166605D01*
Y167395D01*
X361796Y168158D01*
X361724Y168282D01*
X369721Y176279D01*
X369942Y176610D01*
X370020Y177000D01*
Y187776D01*
X371370D01*
Y191925D01*
D02*
G37*
G36*
X299370D02*
X294630D01*
Y187776D01*
X295980D01*
Y173422D01*
X291282Y168724D01*
X291158Y168796D01*
X290395Y169000D01*
X289605D01*
X288842Y168796D01*
X288158Y168401D01*
X287599Y167842D01*
X287204Y167158D01*
X287000Y166395D01*
Y165605D01*
X287204Y164842D01*
X287599Y164158D01*
X288158Y163599D01*
X288842Y163204D01*
X289605Y163000D01*
X290395D01*
X291158Y163204D01*
X291842Y163599D01*
X292401Y164158D01*
X292796Y164842D01*
X293000Y165605D01*
Y166395D01*
X292796Y167158D01*
X292724Y167282D01*
X297721Y172279D01*
X297942Y172610D01*
X298020Y173000D01*
Y187776D01*
X299370D01*
Y191925D01*
D02*
G37*
G36*
X30461Y173500D02*
X29539D01*
X28649Y173261D01*
X27851Y172801D01*
X27199Y172149D01*
X26739Y171351D01*
X26500Y170461D01*
Y169539D01*
X26739Y168649D01*
X27199Y167851D01*
X27851Y167199D01*
X28649Y166738D01*
X29539Y166500D01*
X30461D01*
X31351Y166738D01*
X32149Y167199D01*
X32801Y167851D01*
X33261Y168649D01*
X33500Y169539D01*
Y170461D01*
X33261Y171351D01*
X32801Y172149D01*
X32149Y172801D01*
X31351Y173261D01*
X30461Y173500D01*
D02*
G37*
G36*
X20461D02*
X19539D01*
X18649Y173261D01*
X17851Y172801D01*
X17199Y172149D01*
X16738Y171351D01*
X16500Y170461D01*
Y169539D01*
X16738Y168649D01*
X17199Y167851D01*
X17851Y167199D01*
X18649Y166738D01*
X19539Y166500D01*
X20461D01*
X21351Y166738D01*
X22149Y167199D01*
X22801Y167851D01*
X23261Y168649D01*
X23500Y169539D01*
Y170461D01*
X23261Y171351D01*
X22801Y172149D01*
X22149Y172801D01*
X21351Y173261D01*
X20461Y173500D01*
D02*
G37*
G36*
X221395Y167000D02*
X220605D01*
X219842Y166796D01*
X219158Y166401D01*
X218599Y165842D01*
X218204Y165158D01*
X218167Y165020D01*
X207833D01*
X207796Y165158D01*
X207401Y165842D01*
X206842Y166401D01*
X206158Y166796D01*
X205395Y167000D01*
X204605D01*
X203842Y166796D01*
X203158Y166401D01*
X202599Y165842D01*
X202204Y165158D01*
X202000Y164395D01*
Y163605D01*
X202204Y162842D01*
X202599Y162158D01*
X203158Y161599D01*
X203842Y161204D01*
X204605Y161000D01*
X205395D01*
X206158Y161204D01*
X206842Y161599D01*
X207401Y162158D01*
X207796Y162842D01*
X207833Y162980D01*
X218167D01*
X218204Y162842D01*
X218599Y162158D01*
X219158Y161599D01*
X219842Y161204D01*
X220605Y161000D01*
X221395D01*
X222158Y161204D01*
X222842Y161599D01*
X223401Y162158D01*
X223796Y162842D01*
X224000Y163605D01*
Y164395D01*
X223796Y165158D01*
X223401Y165842D01*
X222842Y166401D01*
X222158Y166796D01*
X221395Y167000D01*
D02*
G37*
G36*
X30461Y163500D02*
X29539D01*
X28649Y163261D01*
X27851Y162801D01*
X27199Y162149D01*
X26739Y161351D01*
X26500Y160461D01*
Y159539D01*
X26739Y158649D01*
X27199Y157851D01*
X27851Y157199D01*
X28649Y156738D01*
X29539Y156500D01*
X30461D01*
X31351Y156738D01*
X32149Y157199D01*
X32801Y157851D01*
X33261Y158649D01*
X33500Y159539D01*
Y160461D01*
X33261Y161351D01*
X32801Y162149D01*
X32149Y162801D01*
X31351Y163261D01*
X30461Y163500D01*
D02*
G37*
G36*
X20461D02*
X19539D01*
X18649Y163261D01*
X17851Y162801D01*
X17199Y162149D01*
X16738Y161351D01*
X16500Y160461D01*
Y159539D01*
X16738Y158649D01*
X17199Y157851D01*
X17851Y157199D01*
X18649Y156738D01*
X19539Y156500D01*
X20461D01*
X21351Y156738D01*
X22149Y157199D01*
X22801Y157851D01*
X23261Y158649D01*
X23500Y159539D01*
Y160461D01*
X23261Y161351D01*
X22801Y162149D01*
X22149Y162801D01*
X21351Y163261D01*
X20461Y163500D01*
D02*
G37*
G36*
X169395Y160000D02*
X168605D01*
X167842Y159796D01*
X167158Y159401D01*
X166599Y158842D01*
X166204Y158158D01*
X166000Y157395D01*
Y156605D01*
X166204Y155842D01*
X166599Y155158D01*
X167158Y154599D01*
X167842Y154204D01*
X168605Y154000D01*
X169395D01*
X170158Y154204D01*
X170842Y154599D01*
X171401Y155158D01*
X171796Y155842D01*
X171833Y155980D01*
X388000D01*
Y155605D01*
X388204Y154842D01*
X388599Y154158D01*
X389158Y153599D01*
X389842Y153204D01*
X390605Y153000D01*
X391395D01*
X392158Y153204D01*
X392842Y153599D01*
X393401Y154158D01*
X393796Y154842D01*
X394000Y155605D01*
Y156395D01*
X393796Y157158D01*
X393401Y157842D01*
X392842Y158401D01*
X392158Y158796D01*
X391395Y159000D01*
X390605D01*
X389842Y158796D01*
X389158Y158401D01*
X388717Y157959D01*
X388414Y158020D01*
X171833D01*
X171796Y158158D01*
X171401Y158842D01*
X170842Y159401D01*
X170158Y159796D01*
X169395Y160000D01*
D02*
G37*
G36*
X30461Y153500D02*
X29539D01*
X28649Y153261D01*
X27851Y152801D01*
X27199Y152149D01*
X26739Y151351D01*
X26500Y150461D01*
Y149539D01*
X26739Y148649D01*
X27199Y147851D01*
X27851Y147199D01*
X28649Y146739D01*
X29539Y146500D01*
X30461D01*
X31351Y146739D01*
X32149Y147199D01*
X32801Y147851D01*
X33261Y148649D01*
X33500Y149539D01*
Y150461D01*
X33261Y151351D01*
X32801Y152149D01*
X32149Y152801D01*
X31351Y153261D01*
X30461Y153500D01*
D02*
G37*
G36*
X20461D02*
X19539D01*
X18649Y153261D01*
X17851Y152801D01*
X17199Y152149D01*
X16738Y151351D01*
X16500Y150461D01*
Y149539D01*
X16738Y148649D01*
X17199Y147851D01*
X17851Y147199D01*
X18649Y146739D01*
X19539Y146500D01*
X20461D01*
X21351Y146739D01*
X22149Y147199D01*
X22801Y147851D01*
X23261Y148649D01*
X23500Y149539D01*
Y150461D01*
X23261Y151351D01*
X22801Y152149D01*
X22149Y152801D01*
X21351Y153261D01*
X20461Y153500D01*
D02*
G37*
G36*
X443395Y152000D02*
X442605D01*
X441842Y151796D01*
X441158Y151401D01*
X440599Y150842D01*
X440204Y150158D01*
X440000Y149395D01*
Y148605D01*
X440204Y147842D01*
X440599Y147158D01*
X441158Y146599D01*
X441842Y146204D01*
X442605Y146000D01*
X443395D01*
X444158Y146204D01*
X444842Y146599D01*
X445401Y147158D01*
X445796Y147842D01*
X446000Y148605D01*
Y149395D01*
X445796Y150158D01*
X445401Y150842D01*
X444842Y151401D01*
X444158Y151796D01*
X443395Y152000D01*
D02*
G37*
G36*
X372395D02*
X371605D01*
X370842Y151796D01*
X370158Y151401D01*
X369599Y150842D01*
X369204Y150158D01*
X369000Y149395D01*
Y148605D01*
X369204Y147842D01*
X369599Y147158D01*
X370158Y146599D01*
X370842Y146204D01*
X371605Y146000D01*
X372395D01*
X373158Y146204D01*
X373842Y146599D01*
X374401Y147158D01*
X374796Y147842D01*
X375000Y148605D01*
Y149395D01*
X374796Y150158D01*
X374401Y150842D01*
X373842Y151401D01*
X373158Y151796D01*
X372395Y152000D01*
D02*
G37*
G36*
X322000Y154020D02*
X187586D01*
X187196Y153942D01*
X186865Y153721D01*
X186279Y153135D01*
X186058Y152804D01*
X185980Y152414D01*
Y149000D01*
X185605D01*
X184842Y148796D01*
X184158Y148401D01*
X183599Y147842D01*
X183204Y147158D01*
X183000Y146395D01*
Y145605D01*
X183204Y144842D01*
X183599Y144158D01*
X184158Y143599D01*
X184842Y143204D01*
X185605Y143000D01*
X186395D01*
X187158Y143204D01*
X187842Y143599D01*
X188401Y144158D01*
X188796Y144842D01*
X189000Y145605D01*
Y146395D01*
X188796Y147158D01*
X188401Y147842D01*
X187959Y148283D01*
X188020Y148586D01*
Y151980D01*
X294557D01*
X294623Y151480D01*
X294492Y151445D01*
X293808Y151050D01*
X293249Y150492D01*
X292854Y149808D01*
X292650Y149045D01*
Y148255D01*
X292854Y147492D01*
X293249Y146808D01*
X293808Y146249D01*
X294492Y145854D01*
X295255Y145650D01*
X296045D01*
X296808Y145854D01*
X297492Y146249D01*
X298050Y146808D01*
X298445Y147492D01*
X298650Y148255D01*
Y149045D01*
X298445Y149808D01*
X298050Y150492D01*
X297492Y151050D01*
X296808Y151445D01*
X296676Y151480D01*
X296742Y151980D01*
X321578D01*
X322658Y150900D01*
X322599Y150842D01*
X322204Y150158D01*
X322000Y149395D01*
Y148605D01*
X322204Y147842D01*
X322599Y147158D01*
X323158Y146599D01*
X323842Y146204D01*
X324605Y146000D01*
X325395D01*
X326158Y146204D01*
X326842Y146599D01*
X327401Y147158D01*
X327796Y147842D01*
X328000Y148605D01*
Y149395D01*
X327796Y150158D01*
X327401Y150842D01*
X326842Y151401D01*
X326158Y151796D01*
X325395Y152000D01*
X324605D01*
X324476Y151965D01*
X322721Y153721D01*
X322390Y153942D01*
X322000Y154020D01*
D02*
G37*
G36*
X225395Y151000D02*
X224605D01*
X223842Y150796D01*
X223158Y150401D01*
X222599Y149842D01*
X222204Y149158D01*
X222000Y148395D01*
Y147605D01*
X222204Y146842D01*
X222599Y146158D01*
X223158Y145599D01*
X223842Y145204D01*
X224605Y145000D01*
X225395D01*
X226158Y145204D01*
X226842Y145599D01*
X227401Y146158D01*
X227796Y146842D01*
X228000Y147605D01*
Y148395D01*
X227796Y149158D01*
X227401Y149842D01*
X226842Y150401D01*
X226158Y150796D01*
X225395Y151000D01*
D02*
G37*
G36*
X398395Y144000D02*
X397605D01*
X396842Y143796D01*
X396158Y143401D01*
X395599Y142842D01*
X395204Y142158D01*
X395000Y141395D01*
Y140605D01*
X395204Y139842D01*
X395599Y139158D01*
X396158Y138599D01*
X396842Y138204D01*
X397605Y138000D01*
X398395D01*
X399158Y138204D01*
X399842Y138599D01*
X400401Y139158D01*
X400796Y139842D01*
X401000Y140605D01*
Y141395D01*
X400796Y142158D01*
X400401Y142842D01*
X399842Y143401D01*
X399158Y143796D01*
X398395Y144000D01*
D02*
G37*
G36*
X329395D02*
X328605D01*
X327842Y143796D01*
X327158Y143401D01*
X326599Y142842D01*
X326204Y142158D01*
X326000Y141395D01*
Y140605D01*
X326204Y139842D01*
X326599Y139158D01*
X327158Y138599D01*
X327842Y138204D01*
X328605Y138000D01*
X329395D01*
X330158Y138204D01*
X330842Y138599D01*
X331401Y139158D01*
X331796Y139842D01*
X332000Y140605D01*
Y141395D01*
X331796Y142158D01*
X331401Y142842D01*
X330842Y143401D01*
X330158Y143796D01*
X329395Y144000D01*
D02*
G37*
G36*
X254395D02*
X253605D01*
X252842Y143796D01*
X252158Y143401D01*
X251599Y142842D01*
X251204Y142158D01*
X251000Y141395D01*
Y140605D01*
X251204Y139842D01*
X251599Y139158D01*
X252158Y138599D01*
X252842Y138204D01*
X253605Y138000D01*
X254395D01*
X255158Y138204D01*
X255842Y138599D01*
X256401Y139158D01*
X256796Y139842D01*
X257000Y140605D01*
Y141395D01*
X256796Y142158D01*
X256401Y142842D01*
X255842Y143401D01*
X255158Y143796D01*
X254395Y144000D01*
D02*
G37*
G36*
X30461Y143500D02*
X29539D01*
X28649Y143262D01*
X27851Y142801D01*
X27199Y142149D01*
X26739Y141351D01*
X26500Y140461D01*
Y139539D01*
X26739Y138649D01*
X27199Y137851D01*
X27851Y137199D01*
X28649Y136739D01*
X29539Y136500D01*
X30461D01*
X31351Y136739D01*
X32149Y137199D01*
X32801Y137851D01*
X33261Y138649D01*
X33500Y139539D01*
Y140461D01*
X33261Y141351D01*
X32801Y142149D01*
X32149Y142801D01*
X31351Y143262D01*
X30461Y143500D01*
D02*
G37*
G36*
X20461D02*
X19539D01*
X18649Y143262D01*
X17851Y142801D01*
X17199Y142149D01*
X16738Y141351D01*
X16500Y140461D01*
Y139539D01*
X16738Y138649D01*
X17199Y137851D01*
X17851Y137199D01*
X18649Y136739D01*
X19539Y136500D01*
X20461D01*
X21351Y136739D01*
X22149Y137199D01*
X22801Y137851D01*
X23261Y138649D01*
X23500Y139539D01*
Y140461D01*
X23261Y141351D01*
X22801Y142149D01*
X22149Y142801D01*
X21351Y143262D01*
X20461Y143500D01*
D02*
G37*
G36*
X171395Y138000D02*
X170605D01*
X169842Y137796D01*
X169158Y137401D01*
X168599Y136842D01*
X168204Y136158D01*
X168167Y136020D01*
X152833D01*
X152796Y136158D01*
X152401Y136842D01*
X151842Y137401D01*
X151158Y137796D01*
X150395Y138000D01*
X149605D01*
X148842Y137796D01*
X148158Y137401D01*
X147599Y136842D01*
X147204Y136158D01*
X147000Y135395D01*
Y134605D01*
X147204Y133842D01*
X147599Y133158D01*
X148158Y132599D01*
X148842Y132204D01*
X149605Y132000D01*
X150395D01*
X151158Y132204D01*
X151842Y132599D01*
X152401Y133158D01*
X152796Y133842D01*
X152833Y133980D01*
X168167D01*
X168204Y133842D01*
X168599Y133158D01*
X169158Y132599D01*
X169842Y132204D01*
X170605Y132000D01*
X171395D01*
X172158Y132204D01*
X172842Y132599D01*
X173401Y133158D01*
X173796Y133842D01*
X174000Y134605D01*
Y135395D01*
X173796Y136158D01*
X173401Y136842D01*
X172842Y137401D01*
X172158Y137796D01*
X171395Y138000D01*
D02*
G37*
G36*
X30461Y133500D02*
X29539D01*
X28649Y133262D01*
X27851Y132801D01*
X27199Y132149D01*
X26739Y131351D01*
X26500Y130461D01*
Y129539D01*
X26739Y128649D01*
X27199Y127851D01*
X27851Y127199D01*
X28649Y126739D01*
X29539Y126500D01*
X30461D01*
X31351Y126739D01*
X32149Y127199D01*
X32801Y127851D01*
X33261Y128649D01*
X33500Y129539D01*
Y130461D01*
X33261Y131351D01*
X32801Y132149D01*
X32149Y132801D01*
X31351Y133262D01*
X30461Y133500D01*
D02*
G37*
G36*
X20461D02*
X19539D01*
X18649Y133262D01*
X17851Y132801D01*
X17199Y132149D01*
X16738Y131351D01*
X16500Y130461D01*
Y129539D01*
X16738Y128649D01*
X17199Y127851D01*
X17851Y127199D01*
X18649Y126739D01*
X19539Y126500D01*
X20461D01*
X21351Y126739D01*
X22149Y127199D01*
X22801Y127851D01*
X23261Y128649D01*
X23500Y129539D01*
Y130461D01*
X23261Y131351D01*
X22801Y132149D01*
X22149Y132801D01*
X21351Y133262D01*
X20461Y133500D01*
D02*
G37*
G36*
X195395Y131000D02*
X194605D01*
X193842Y130796D01*
X193158Y130401D01*
X192599Y129842D01*
X192204Y129158D01*
X192000Y128395D01*
Y127605D01*
X192204Y126842D01*
X192599Y126158D01*
X193158Y125599D01*
X193842Y125204D01*
X194605Y125000D01*
X195395D01*
X196158Y125204D01*
X196842Y125599D01*
X197401Y126158D01*
X197796Y126842D01*
X198000Y127605D01*
Y128395D01*
X197796Y129158D01*
X197401Y129842D01*
X196842Y130401D01*
X196158Y130796D01*
X195395Y131000D01*
D02*
G37*
G36*
X30461Y123500D02*
X29539D01*
X28649Y123261D01*
X27851Y122801D01*
X27199Y122149D01*
X26739Y121351D01*
X26500Y120461D01*
Y119539D01*
X26739Y118649D01*
X27199Y117851D01*
X27851Y117199D01*
X28649Y116738D01*
X29539Y116500D01*
X30461D01*
X31351Y116738D01*
X32149Y117199D01*
X32801Y117851D01*
X33261Y118649D01*
X33500Y119539D01*
Y120461D01*
X33261Y121351D01*
X32801Y122149D01*
X32149Y122801D01*
X31351Y123261D01*
X30461Y123500D01*
D02*
G37*
G36*
X20461D02*
X19539D01*
X18649Y123261D01*
X17851Y122801D01*
X17199Y122149D01*
X16738Y121351D01*
X16500Y120461D01*
Y119539D01*
X16738Y118649D01*
X17199Y117851D01*
X17851Y117199D01*
X18649Y116738D01*
X19539Y116500D01*
X20461D01*
X21351Y116738D01*
X22149Y117199D01*
X22801Y117851D01*
X23261Y118649D01*
X23500Y119539D01*
Y120461D01*
X23261Y121351D01*
X22801Y122149D01*
X22149Y122801D01*
X21351Y123261D01*
X20461Y123500D01*
D02*
G37*
G36*
X80455Y83453D02*
X79545D01*
X78667Y83217D01*
X77880Y82763D01*
X77237Y82120D01*
X76783Y81333D01*
X76547Y80455D01*
Y79545D01*
X76783Y78667D01*
X77237Y77880D01*
X77880Y77237D01*
X78667Y76783D01*
X79545Y76547D01*
X80455D01*
X81333Y76783D01*
X82120Y77237D01*
X82763Y77880D01*
X83217Y78667D01*
X83453Y79545D01*
Y80455D01*
X83217Y81333D01*
X82763Y82120D01*
X82120Y82763D01*
X81333Y83217D01*
X80455Y83453D01*
D02*
G37*
G36*
X70455D02*
X69545D01*
X68667Y83217D01*
X67880Y82763D01*
X67237Y82120D01*
X66783Y81333D01*
X66547Y80455D01*
Y79545D01*
X66783Y78667D01*
X67237Y77880D01*
X67880Y77237D01*
X68667Y76783D01*
X69545Y76547D01*
X70455D01*
X71333Y76783D01*
X72120Y77237D01*
X72763Y77880D01*
X73217Y78667D01*
X73453Y79545D01*
Y80455D01*
X73217Y81333D01*
X72763Y82120D01*
X72120Y82763D01*
X71333Y83217D01*
X70455Y83453D01*
D02*
G37*
G36*
X456500Y101500D02*
X443500D01*
Y94500D01*
X447451D01*
Y73056D01*
X446944Y72549D01*
X443090D01*
X442876Y72763D01*
X442089Y73217D01*
X441211Y73453D01*
X440301D01*
X439423Y73217D01*
X438636Y72763D01*
X437993Y72120D01*
X437538Y71333D01*
X437303Y70455D01*
Y69545D01*
X437538Y68667D01*
X437993Y67880D01*
X438636Y67237D01*
X439423Y66783D01*
X439980Y66633D01*
Y45224D01*
X438630D01*
Y41075D01*
X443370D01*
Y45224D01*
X442020D01*
Y66764D01*
X442089Y66783D01*
X442876Y67237D01*
X443090Y67451D01*
X448000D01*
X448976Y67645D01*
X449802Y68198D01*
X451802Y70198D01*
X452355Y71025D01*
X452549Y72000D01*
Y94500D01*
X456500D01*
Y101500D01*
D02*
G37*
G36*
X384500D02*
X371500D01*
Y94500D01*
X375451D01*
Y72549D01*
X371090D01*
X370876Y72763D01*
X370089Y73217D01*
X369211Y73453D01*
X368301D01*
X367423Y73217D01*
X366636Y72763D01*
X365993Y72120D01*
X365539Y71333D01*
X365303Y70455D01*
Y69545D01*
X365539Y68667D01*
X365993Y67880D01*
X366636Y67237D01*
X367423Y66783D01*
X367736Y66699D01*
Y45224D01*
X366630D01*
Y41075D01*
X371370D01*
Y45224D01*
X369776D01*
Y66699D01*
X370089Y66783D01*
X370876Y67237D01*
X371090Y67451D01*
X377000D01*
X377976Y67645D01*
X378802Y68198D01*
X379802Y69198D01*
X380355Y70025D01*
X380549Y71000D01*
Y94500D01*
X384500D01*
Y101500D01*
D02*
G37*
G36*
X312500D02*
X299500D01*
Y94500D01*
X303451D01*
Y72549D01*
X299090D01*
X298876Y72763D01*
X298089Y73217D01*
X297211Y73453D01*
X296301D01*
X295423Y73217D01*
X294636Y72763D01*
X293993Y72120D01*
X293538Y71333D01*
X293303Y70455D01*
Y69545D01*
X293538Y68667D01*
X293993Y67880D01*
X294636Y67237D01*
X295423Y66783D01*
X295980Y66633D01*
Y45224D01*
X294630D01*
Y41075D01*
X299370D01*
Y45224D01*
X298020D01*
Y66764D01*
X298089Y66783D01*
X298876Y67237D01*
X299090Y67451D01*
X305000D01*
X305976Y67645D01*
X306802Y68198D01*
X307802Y69198D01*
X308355Y70025D01*
X308549Y71000D01*
Y94500D01*
X312500D01*
Y101500D01*
D02*
G37*
G36*
X240500D02*
X227500D01*
Y94500D01*
X231451D01*
Y72549D01*
X227090D01*
X226876Y72763D01*
X226089Y73217D01*
X225210Y73453D01*
X224301D01*
X223423Y73217D01*
X222636Y72763D01*
X221993Y72120D01*
X221538Y71333D01*
X221303Y70455D01*
Y69545D01*
X221538Y68667D01*
X221993Y67880D01*
X222636Y67237D01*
X223423Y66783D01*
X223480Y66767D01*
Y45224D01*
X222130D01*
Y41075D01*
X226870D01*
Y45224D01*
X225520D01*
Y66630D01*
X226089Y66783D01*
X226876Y67237D01*
X227090Y67451D01*
X233000D01*
X233976Y67645D01*
X234802Y68198D01*
X235802Y69198D01*
X236355Y70025D01*
X236549Y71000D01*
Y94500D01*
X240500D01*
Y101500D01*
D02*
G37*
G36*
X133395Y179000D02*
X132605D01*
X131842Y178796D01*
X131158Y178401D01*
X130599Y177842D01*
X130204Y177158D01*
X130000Y176395D01*
Y175605D01*
X130204Y174842D01*
X130599Y174158D01*
X131158Y173599D01*
X131842Y173204D01*
X132605Y173000D01*
X133395D01*
X134158Y173204D01*
X134282Y173276D01*
X134980Y172578D01*
Y101000D01*
X135058Y100610D01*
X135279Y100279D01*
X160276Y75282D01*
X160204Y75158D01*
X160000Y74395D01*
Y73605D01*
X160204Y72842D01*
X160599Y72158D01*
X161158Y71599D01*
X161842Y71204D01*
X162605Y71000D01*
X163395D01*
X164158Y71204D01*
X164842Y71599D01*
X165401Y72158D01*
X165796Y72842D01*
X166000Y73605D01*
Y74395D01*
X165796Y75158D01*
X165401Y75842D01*
X164842Y76401D01*
X164158Y76796D01*
X163395Y77000D01*
X162605D01*
X161842Y76796D01*
X161718Y76724D01*
X137020Y101422D01*
Y173000D01*
X136942Y173390D01*
X136721Y173721D01*
X135724Y174718D01*
X135796Y174842D01*
X136000Y175605D01*
Y176395D01*
X135796Y177158D01*
X135401Y177842D01*
X134842Y178401D01*
X134158Y178796D01*
X133395Y179000D01*
D02*
G37*
G36*
X440756Y121514D02*
X439855Y121395D01*
X439015Y121047D01*
X438293Y120494D01*
X437740Y119773D01*
X437392Y118933D01*
X437273Y118032D01*
X437392Y117130D01*
X437740Y116290D01*
X438293Y115569D01*
X439015Y115015D01*
X439855Y114668D01*
X440756Y114549D01*
X441657Y114668D01*
X442497Y115015D01*
X443106Y115482D01*
X459451D01*
Y72000D01*
X459635Y71077D01*
X449279Y60721D01*
X449058Y60390D01*
X448980Y60000D01*
Y25043D01*
X448968D01*
X447939Y24768D01*
X447017Y24236D01*
X446265Y23483D01*
X445732Y22561D01*
X445457Y21532D01*
Y20468D01*
X445732Y19439D01*
X446265Y18517D01*
X447017Y17764D01*
X447939Y17232D01*
X448968Y16957D01*
X450032D01*
X451061Y17232D01*
X451983Y17764D01*
X452736Y18517D01*
X453268Y19439D01*
X453543Y20468D01*
Y21532D01*
X453268Y22561D01*
X452736Y23483D01*
X451983Y24236D01*
X451061Y24768D01*
X451020Y24779D01*
Y59578D01*
X461077Y69635D01*
X462000Y69451D01*
X462976Y69645D01*
X463802Y70198D01*
X464355Y71025D01*
X464549Y72000D01*
Y117446D01*
X464355Y118421D01*
X463802Y119248D01*
X463217Y119834D01*
X462390Y120386D01*
X461414Y120580D01*
X443106D01*
X442497Y121047D01*
X441657Y121395D01*
X440756Y121514D01*
D02*
G37*
G36*
X475395Y122000D02*
X474605D01*
X473842Y121796D01*
X473158Y121401D01*
X472599Y120842D01*
X472204Y120158D01*
X472000Y119395D01*
Y118605D01*
X472204Y117842D01*
X472599Y117158D01*
X473158Y116599D01*
X473842Y116204D01*
X473980Y116167D01*
Y101500D01*
X468500D01*
Y94500D01*
X472451D01*
Y71000D01*
X472645Y70025D01*
X473198Y69198D01*
X474198Y68198D01*
X475025Y67645D01*
X476000Y67451D01*
X484547D01*
Y66547D01*
X491453D01*
Y73453D01*
X484547D01*
Y72549D01*
X477549D01*
Y94500D01*
X481500D01*
Y101500D01*
X476020D01*
Y116167D01*
X476158Y116204D01*
X476842Y116599D01*
X477401Y117158D01*
X477796Y117842D01*
X478000Y118605D01*
Y119395D01*
X477796Y120158D01*
X477401Y120842D01*
X476842Y121401D01*
X476158Y121796D01*
X475395Y122000D01*
D02*
G37*
G36*
X402395Y123000D02*
X401605D01*
X400842Y122796D01*
X400158Y122401D01*
X399599Y121842D01*
X399204Y121158D01*
X399000Y120395D01*
Y119605D01*
X399204Y118842D01*
X399599Y118158D01*
X400158Y117599D01*
X400842Y117204D01*
X400980Y117167D01*
Y101500D01*
X396500D01*
Y94500D01*
X400451D01*
Y70586D01*
X400645Y69610D01*
X401198Y68783D01*
X401783Y68198D01*
X402610Y67645D01*
X403586Y67451D01*
X412547D01*
Y66547D01*
X419453D01*
Y73453D01*
X412547D01*
Y72549D01*
X405549D01*
Y94500D01*
X409500D01*
Y101500D01*
X403020D01*
Y117167D01*
X403158Y117204D01*
X403842Y117599D01*
X404401Y118158D01*
X404796Y118842D01*
X405000Y119605D01*
Y120395D01*
X404796Y121158D01*
X404401Y121842D01*
X403842Y122401D01*
X403158Y122796D01*
X402395Y123000D01*
D02*
G37*
G36*
X331395D02*
X330605D01*
X329842Y122796D01*
X329158Y122401D01*
X328599Y121842D01*
X328204Y121158D01*
X328000Y120395D01*
Y119605D01*
X328204Y118842D01*
X328599Y118158D01*
X329158Y117599D01*
X329842Y117204D01*
X329980Y117167D01*
Y101500D01*
X324500D01*
Y94500D01*
X328451D01*
Y70586D01*
X328645Y69610D01*
X329198Y68783D01*
X329783Y68198D01*
X330610Y67645D01*
X331586Y67451D01*
X340547D01*
Y66547D01*
X347453D01*
Y73453D01*
X340547D01*
Y72549D01*
X333549D01*
Y94500D01*
X337500D01*
Y101500D01*
X332020D01*
Y117167D01*
X332158Y117204D01*
X332842Y117599D01*
X333401Y118158D01*
X333796Y118842D01*
X334000Y119605D01*
Y120395D01*
X333796Y121158D01*
X333401Y121842D01*
X332842Y122401D01*
X332158Y122796D01*
X331395Y123000D01*
D02*
G37*
G36*
X259395D02*
X258605D01*
X257842Y122796D01*
X257158Y122401D01*
X256599Y121842D01*
X256204Y121158D01*
X256000Y120395D01*
Y119605D01*
X256204Y118842D01*
X256599Y118158D01*
X257158Y117599D01*
X257842Y117204D01*
X257980Y117167D01*
Y101500D01*
X252500D01*
Y94500D01*
X256451D01*
Y70586D01*
X256645Y69610D01*
X257198Y68783D01*
X257783Y68198D01*
X258610Y67645D01*
X259586Y67451D01*
X268547D01*
Y66547D01*
X275453D01*
Y73453D01*
X268547D01*
Y72549D01*
X261549D01*
Y94500D01*
X265500D01*
Y101500D01*
X260020D01*
Y117167D01*
X260158Y117204D01*
X260842Y117599D01*
X261401Y118158D01*
X261796Y118842D01*
X262000Y119605D01*
Y120395D01*
X261796Y121158D01*
X261401Y121842D01*
X260842Y122401D01*
X260158Y122796D01*
X259395Y123000D01*
D02*
G37*
G36*
X80455Y73453D02*
X79545D01*
X78667Y73217D01*
X77880Y72763D01*
X77237Y72120D01*
X76783Y71333D01*
X76547Y70455D01*
Y69545D01*
X76783Y68667D01*
X77237Y67880D01*
X77880Y67237D01*
X78667Y66783D01*
X79545Y66547D01*
X80455D01*
X81333Y66783D01*
X82120Y67237D01*
X82763Y67880D01*
X83217Y68667D01*
X83453Y69545D01*
Y70455D01*
X83217Y71333D01*
X82763Y72120D01*
X82120Y72763D01*
X81333Y73217D01*
X80455Y73453D01*
D02*
G37*
G36*
X70455D02*
X69545D01*
X68667Y73217D01*
X67880Y72763D01*
X67237Y72120D01*
X66783Y71333D01*
X66547Y70455D01*
Y69545D01*
X66783Y68667D01*
X67237Y67880D01*
X67880Y67237D01*
X68667Y66783D01*
X69545Y66547D01*
X70455D01*
X71333Y66783D01*
X72120Y67237D01*
X72763Y67880D01*
X73217Y68667D01*
X73453Y69545D01*
Y70455D01*
X73217Y71333D01*
X72763Y72120D01*
X72120Y72763D01*
X71333Y73217D01*
X70455Y73453D01*
D02*
G37*
G36*
X83453Y63453D02*
X76547D01*
Y56547D01*
X83453D01*
Y63453D01*
D02*
G37*
G36*
X70455D02*
X69545D01*
X68667Y63217D01*
X67880Y62763D01*
X67237Y62120D01*
X66783Y61333D01*
X66547Y60455D01*
Y59545D01*
X66783Y58667D01*
X67237Y57880D01*
X67880Y57237D01*
X68667Y56783D01*
X69545Y56547D01*
X70455D01*
X71333Y56783D01*
X72120Y57237D01*
X72763Y57880D01*
X73217Y58667D01*
X73453Y59545D01*
Y60455D01*
X73217Y61333D01*
X72763Y62120D01*
X72120Y62763D01*
X71333Y63217D01*
X70455Y63453D01*
D02*
G37*
G36*
X90395Y91000D02*
X89605D01*
X88842Y90796D01*
X88158Y90401D01*
X87599Y89842D01*
X87204Y89158D01*
X87000Y88395D01*
Y87605D01*
X87204Y86842D01*
X87599Y86158D01*
X88158Y85599D01*
X88842Y85204D01*
X88980Y85167D01*
Y56833D01*
X88842Y56796D01*
X88158Y56401D01*
X87599Y55842D01*
X87204Y55158D01*
X87000Y54395D01*
Y53605D01*
X87204Y52842D01*
X87599Y52158D01*
X88158Y51599D01*
X88842Y51204D01*
X89605Y51000D01*
X90395D01*
X91158Y51204D01*
X91842Y51599D01*
X92401Y52158D01*
X92796Y52842D01*
X93000Y53605D01*
Y54395D01*
X92796Y55158D01*
X92401Y55842D01*
X91842Y56401D01*
X91158Y56796D01*
X91020Y56833D01*
Y85167D01*
X91158Y85204D01*
X91842Y85599D01*
X92401Y86158D01*
X92796Y86842D01*
X93000Y87605D01*
Y88395D01*
X92796Y89158D01*
X92401Y89842D01*
X91842Y90401D01*
X91158Y90796D01*
X90395Y91000D01*
D02*
G37*
G36*
X159453Y37453D02*
X152547D01*
Y30547D01*
X159453D01*
Y37453D01*
D02*
G37*
G36*
X144395Y82000D02*
X143605D01*
X142842Y81796D01*
X142158Y81401D01*
X141599Y80842D01*
X141204Y80158D01*
X141000Y79395D01*
Y78605D01*
X141204Y77842D01*
X141599Y77158D01*
X142158Y76599D01*
X142842Y76204D01*
X142980Y76167D01*
Y37453D01*
X140547D01*
Y30547D01*
X147453D01*
Y37453D01*
X145020D01*
Y76167D01*
X145158Y76204D01*
X145842Y76599D01*
X146401Y77158D01*
X146796Y77842D01*
X147000Y78605D01*
Y79395D01*
X146796Y80158D01*
X146401Y80842D01*
X145842Y81401D01*
X145158Y81796D01*
X144395Y82000D01*
D02*
G37*
G36*
X125395Y176000D02*
X124605D01*
X123842Y175796D01*
X123158Y175401D01*
X122599Y174842D01*
X122204Y174158D01*
X122000Y173395D01*
Y172605D01*
X122204Y171842D01*
X122599Y171158D01*
X123158Y170599D01*
X123842Y170204D01*
X124605Y170000D01*
X125395D01*
X126158Y170204D01*
X126282Y170276D01*
X130980Y165578D01*
Y37453D01*
X128547D01*
Y30547D01*
X135453D01*
Y37453D01*
X133020D01*
Y166000D01*
X132942Y166390D01*
X132721Y166721D01*
X127724Y171718D01*
X127796Y171842D01*
X128000Y172605D01*
Y173395D01*
X127796Y174158D01*
X127401Y174842D01*
X126842Y175401D01*
X126158Y175796D01*
X125395Y176000D01*
D02*
G37*
G36*
X123453Y37453D02*
X116547D01*
Y30547D01*
X123453D01*
Y37453D01*
D02*
G37*
G36*
X87453D02*
X80547D01*
Y30547D01*
X87453D01*
Y37453D01*
D02*
G37*
G36*
X75453D02*
X68547D01*
Y30547D01*
X75453D01*
Y37453D01*
D02*
G37*
G36*
X63453D02*
X56547D01*
Y30547D01*
X63453D01*
Y37453D01*
D02*
G37*
G36*
X488571Y122370D02*
X487429D01*
X486325Y122074D01*
X485336Y121503D01*
X484528Y120695D01*
X483957Y119706D01*
X483661Y118603D01*
Y117460D01*
X483957Y116357D01*
X484528Y115368D01*
X485336Y114560D01*
X486325Y113989D01*
X487429Y113693D01*
X488571D01*
X489675Y113989D01*
X490664Y114560D01*
X491472Y115368D01*
X491538Y115482D01*
X499451D01*
Y24399D01*
X498601Y23549D01*
X482669D01*
X481983Y24236D01*
X481061Y24768D01*
X480032Y25043D01*
X478968D01*
X477939Y24768D01*
X477017Y24236D01*
X476264Y23483D01*
X475732Y22561D01*
X475457Y21532D01*
Y20468D01*
X475732Y19439D01*
X476264Y18517D01*
X477017Y17764D01*
X477939Y17232D01*
X478968Y16957D01*
X480032D01*
X481061Y17232D01*
X481983Y17764D01*
X482669Y18451D01*
X499657D01*
X500632Y18645D01*
X501459Y19198D01*
X503802Y21541D01*
X504355Y22368D01*
X504549Y23343D01*
Y117446D01*
X504355Y118421D01*
X503802Y119248D01*
X503217Y119834D01*
X502390Y120386D01*
X501414Y120580D01*
X491538D01*
X491472Y120695D01*
X490664Y121503D01*
X489675Y122074D01*
X488571Y122370D01*
D02*
G37*
G36*
X416571D02*
X415429D01*
X414325Y122074D01*
X413336Y121503D01*
X412528Y120695D01*
X411957Y119706D01*
X411661Y118603D01*
Y117460D01*
X411957Y116357D01*
X412528Y115368D01*
X413336Y114560D01*
X414325Y113989D01*
X415429Y113693D01*
X416571D01*
X417675Y113989D01*
X418664Y114560D01*
X419472Y115368D01*
X419538Y115482D01*
X426451D01*
Y24399D01*
X425601Y23549D01*
X410669D01*
X409983Y24236D01*
X409061Y24768D01*
X408032Y25043D01*
X406968D01*
X405939Y24768D01*
X405017Y24236D01*
X404265Y23483D01*
X403732Y22561D01*
X403457Y21532D01*
Y20468D01*
X403732Y19439D01*
X404265Y18517D01*
X405017Y17764D01*
X405939Y17232D01*
X406968Y16957D01*
X408032D01*
X409061Y17232D01*
X409983Y17764D01*
X410669Y18451D01*
X426657D01*
X427632Y18645D01*
X428459Y19198D01*
X430802Y21541D01*
X431355Y22368D01*
X431549Y23343D01*
Y117446D01*
X431355Y118421D01*
X430802Y119248D01*
X430217Y119834D01*
X429390Y120386D01*
X428414Y120580D01*
X419538D01*
X419472Y120695D01*
X418664Y121503D01*
X417675Y122074D01*
X416571Y122370D01*
D02*
G37*
G36*
X344571D02*
X343429D01*
X342325Y122074D01*
X341336Y121503D01*
X340528Y120695D01*
X339957Y119706D01*
X339661Y118603D01*
Y117460D01*
X339957Y116357D01*
X340528Y115368D01*
X341336Y114560D01*
X342325Y113989D01*
X343429Y113693D01*
X344571D01*
X345675Y113989D01*
X346664Y114560D01*
X347472Y115368D01*
X347538Y115482D01*
X355451D01*
Y24399D01*
X354601Y23549D01*
X338169D01*
X337483Y24236D01*
X336561Y24768D01*
X335532Y25043D01*
X334468D01*
X333439Y24768D01*
X332517Y24236D01*
X331765Y23483D01*
X331232Y22561D01*
X330957Y21532D01*
Y20468D01*
X331232Y19439D01*
X331765Y18517D01*
X332517Y17764D01*
X333439Y17232D01*
X334468Y16957D01*
X335532D01*
X336561Y17232D01*
X337483Y17764D01*
X338169Y18451D01*
X355657D01*
X356632Y18645D01*
X357459Y19198D01*
X359802Y21541D01*
X360355Y22368D01*
X360549Y23343D01*
Y117000D01*
X360355Y117975D01*
X359802Y118802D01*
X358771Y119834D01*
X357944Y120386D01*
X356968Y120580D01*
X347538D01*
X347472Y120695D01*
X346664Y121503D01*
X345675Y122074D01*
X344571Y122370D01*
D02*
G37*
G36*
X272571D02*
X271429D01*
X270325Y122074D01*
X269336Y121503D01*
X268528Y120695D01*
X267957Y119706D01*
X267661Y118603D01*
Y117460D01*
X267957Y116357D01*
X268528Y115368D01*
X269336Y114560D01*
X270325Y113989D01*
X271429Y113693D01*
X272571D01*
X273675Y113989D01*
X274664Y114560D01*
X275472Y115368D01*
X275538Y115482D01*
X281451D01*
Y24399D01*
X280601Y23549D01*
X266669D01*
X265983Y24236D01*
X265061Y24768D01*
X264032Y25043D01*
X262968D01*
X261939Y24768D01*
X261017Y24236D01*
X260265Y23483D01*
X259732Y22561D01*
X259457Y21532D01*
Y20468D01*
X259732Y19439D01*
X260265Y18517D01*
X261017Y17764D01*
X261939Y17232D01*
X262968Y16957D01*
X264032D01*
X265061Y17232D01*
X265983Y17764D01*
X266669Y18451D01*
X281657D01*
X282632Y18645D01*
X283459Y19198D01*
X285802Y21541D01*
X286355Y22368D01*
X286549Y23343D01*
Y117000D01*
X286355Y117975D01*
X285802Y118802D01*
X284771Y119834D01*
X283944Y120386D01*
X282968Y120580D01*
X275538D01*
X275472Y120695D01*
X274664Y121503D01*
X273675Y122074D01*
X272571Y122370D01*
D02*
G37*
G36*
X226870Y38925D02*
X222130D01*
Y34776D01*
X223480D01*
Y21922D01*
X220578Y19020D01*
X217833D01*
X217796Y19158D01*
X217401Y19842D01*
X216842Y20401D01*
X216158Y20796D01*
X215395Y21000D01*
X214605D01*
X213842Y20796D01*
X213158Y20401D01*
X212599Y19842D01*
X212204Y19158D01*
X212000Y18395D01*
Y17605D01*
X212204Y16842D01*
X212599Y16158D01*
X213158Y15599D01*
X213842Y15204D01*
X214605Y15000D01*
X215395D01*
X216158Y15204D01*
X216842Y15599D01*
X217401Y16158D01*
X217796Y16842D01*
X217833Y16980D01*
X221000D01*
X221390Y17058D01*
X221721Y17279D01*
X225221Y20779D01*
X225442Y21110D01*
X225520Y21500D01*
Y34776D01*
X226870D01*
Y38925D01*
D02*
G37*
G36*
X299370D02*
X294630D01*
Y34776D01*
X295980D01*
Y24422D01*
X289282Y17724D01*
X289158Y17796D01*
X288395Y18000D01*
X287605D01*
X286842Y17796D01*
X286158Y17401D01*
X285599Y16842D01*
X285204Y16158D01*
X285000Y15395D01*
Y14605D01*
X285204Y13842D01*
X285599Y13158D01*
X286158Y12599D01*
X286842Y12204D01*
X287605Y12000D01*
X288395D01*
X289158Y12204D01*
X289842Y12599D01*
X290401Y13158D01*
X290796Y13842D01*
X291000Y14605D01*
Y15395D01*
X290796Y16158D01*
X290724Y16282D01*
X297721Y23279D01*
X297942Y23610D01*
X298020Y24000D01*
Y34776D01*
X299370D01*
Y38925D01*
D02*
G37*
G36*
X464949Y66465D02*
X463807D01*
X462703Y66169D01*
X461714Y65598D01*
X460906Y64790D01*
X460335Y63801D01*
X460039Y62697D01*
Y61555D01*
X460335Y60451D01*
X460906Y59462D01*
X461714Y58654D01*
X461829Y58588D01*
Y24047D01*
X461265Y23483D01*
X460732Y22561D01*
X460457Y21532D01*
Y20468D01*
X460732Y19439D01*
X461265Y18517D01*
X462017Y17764D01*
X462939Y17232D01*
X463968Y16957D01*
X465032D01*
X466061Y17232D01*
X466983Y17764D01*
X467735Y18517D01*
X468268Y19439D01*
X468543Y20468D01*
Y21532D01*
X468268Y22561D01*
X467735Y23483D01*
X466983Y24236D01*
X466927Y24268D01*
Y58588D01*
X467042Y58654D01*
X467850Y59462D01*
X468421Y60451D01*
X468716Y61555D01*
Y62697D01*
X468421Y63801D01*
X467850Y64790D01*
X467042Y65598D01*
X466053Y66169D01*
X464949Y66465D01*
D02*
G37*
G36*
X392949D02*
X391807D01*
X390703Y66169D01*
X389714Y65598D01*
X388906Y64790D01*
X388335Y63801D01*
X388039Y62697D01*
Y61555D01*
X388335Y60451D01*
X388906Y59462D01*
X389714Y58654D01*
X389951Y58517D01*
Y24169D01*
X389265Y23483D01*
X388732Y22561D01*
X388457Y21532D01*
Y20468D01*
X388732Y19439D01*
X389265Y18517D01*
X390017Y17764D01*
X390939Y17232D01*
X391968Y16957D01*
X393032D01*
X394061Y17232D01*
X394983Y17764D01*
X395735Y18517D01*
X396268Y19439D01*
X396543Y20468D01*
Y21532D01*
X396268Y22561D01*
X395735Y23483D01*
X395049Y24169D01*
Y58661D01*
X395850Y59462D01*
X396421Y60451D01*
X396716Y61555D01*
Y62697D01*
X396421Y63801D01*
X395850Y64790D01*
X395042Y65598D01*
X394053Y66169D01*
X392949Y66465D01*
D02*
G37*
G36*
X368756Y121514D02*
X367855Y121395D01*
X367015Y121047D01*
X366293Y120494D01*
X365740Y119773D01*
X365392Y118933D01*
X365273Y118032D01*
X365392Y117130D01*
X365740Y116290D01*
X366293Y115569D01*
X367015Y115015D01*
X367855Y114668D01*
X368756Y114549D01*
X369657Y114668D01*
X370497Y115015D01*
X371106Y115482D01*
X387451D01*
Y74056D01*
X376198Y62802D01*
X375645Y61976D01*
X375451Y61000D01*
Y24486D01*
X375017Y24236D01*
X374265Y23483D01*
X373732Y22561D01*
X373457Y21532D01*
Y20468D01*
X373732Y19439D01*
X374265Y18517D01*
X375017Y17764D01*
X375939Y17232D01*
X376968Y16957D01*
X378032D01*
X379061Y17232D01*
X379983Y17764D01*
X380735Y18517D01*
X381268Y19439D01*
X381543Y20468D01*
Y21532D01*
X381268Y22561D01*
X380735Y23483D01*
X380549Y23669D01*
Y59944D01*
X391802Y71198D01*
X392355Y72025D01*
X392549Y73000D01*
Y117446D01*
X392355Y118421D01*
X391802Y119248D01*
X391217Y119834D01*
X390390Y120386D01*
X389414Y120580D01*
X371106D01*
X370497Y121047D01*
X369657Y121395D01*
X368756Y121514D01*
D02*
G37*
G36*
X320949Y66465D02*
X319807D01*
X318703Y66169D01*
X317714Y65598D01*
X316906Y64790D01*
X316335Y63801D01*
X316039Y62697D01*
Y61555D01*
X316335Y60451D01*
X316906Y59462D01*
X317714Y58654D01*
X317829Y58588D01*
Y24415D01*
X317517Y24236D01*
X316765Y23483D01*
X316232Y22561D01*
X315957Y21532D01*
Y20468D01*
X316232Y19439D01*
X316765Y18517D01*
X317517Y17764D01*
X318439Y17232D01*
X319468Y16957D01*
X320532D01*
X321561Y17232D01*
X322483Y17764D01*
X323235Y18517D01*
X323768Y19439D01*
X324043Y20468D01*
Y21532D01*
X323768Y22561D01*
X323235Y23483D01*
X322927Y23791D01*
Y58588D01*
X323042Y58654D01*
X323850Y59462D01*
X324421Y60451D01*
X324716Y61555D01*
Y62697D01*
X324421Y63801D01*
X323850Y64790D01*
X323042Y65598D01*
X322053Y66169D01*
X320949Y66465D01*
D02*
G37*
G36*
X296756Y121514D02*
X295855Y121395D01*
X295015Y121047D01*
X294293Y120494D01*
X293740Y119773D01*
X293392Y118933D01*
X293273Y118032D01*
X293392Y117130D01*
X293740Y116290D01*
X294293Y115569D01*
X295015Y115015D01*
X295855Y114668D01*
X296756Y114549D01*
X297657Y114668D01*
X298497Y115015D01*
X299106Y115482D01*
X314451D01*
Y73056D01*
X305198Y63802D01*
X304645Y62976D01*
X304451Y62000D01*
Y25685D01*
X303569Y24802D01*
X303439Y24768D01*
X302517Y24236D01*
X301765Y23483D01*
X301232Y22561D01*
X300957Y21532D01*
Y20468D01*
X301232Y19439D01*
X301765Y18517D01*
X302517Y17764D01*
X303439Y17232D01*
X304468Y16957D01*
X305532D01*
X306561Y17232D01*
X307483Y17764D01*
X308235Y18517D01*
X308768Y19439D01*
X309043Y20468D01*
Y21532D01*
X308768Y22561D01*
X308683Y22707D01*
X308802Y22827D01*
X309355Y23654D01*
X309549Y24629D01*
Y60944D01*
X318802Y70198D01*
X319355Y71025D01*
X319549Y72000D01*
Y117446D01*
X319355Y118421D01*
X318802Y119248D01*
X318451Y119483D01*
X318217Y119834D01*
X317390Y120386D01*
X316414Y120580D01*
X299106D01*
X298497Y121047D01*
X297657Y121395D01*
X296756Y121514D01*
D02*
G37*
G36*
X248949Y66465D02*
X247807D01*
X246703Y66169D01*
X245714Y65598D01*
X244906Y64790D01*
X244335Y63801D01*
X244039Y62697D01*
Y61555D01*
X244335Y60451D01*
X244906Y59462D01*
X245714Y58654D01*
X245829Y58588D01*
Y24047D01*
X245265Y23483D01*
X244732Y22561D01*
X244457Y21532D01*
Y20468D01*
X244732Y19439D01*
X245265Y18517D01*
X246017Y17764D01*
X246939Y17232D01*
X247968Y16957D01*
X249032D01*
X250061Y17232D01*
X250983Y17764D01*
X251735Y18517D01*
X252268Y19439D01*
X252543Y20468D01*
Y21532D01*
X252268Y22561D01*
X251735Y23483D01*
X250983Y24236D01*
X250927Y24268D01*
Y58588D01*
X251042Y58654D01*
X251850Y59462D01*
X252421Y60451D01*
X252716Y61555D01*
Y62697D01*
X252421Y63801D01*
X251850Y64790D01*
X251042Y65598D01*
X250053Y66169D01*
X248949Y66465D01*
D02*
G37*
G36*
X224756Y121514D02*
X223855Y121395D01*
X223015Y121047D01*
X222293Y120494D01*
X221740Y119773D01*
X221392Y118933D01*
X221273Y118032D01*
X221392Y117130D01*
X221740Y116290D01*
X222293Y115569D01*
X223015Y115015D01*
X223855Y114668D01*
X224756Y114549D01*
X225657Y114668D01*
X226497Y115015D01*
X227106Y115482D01*
X243451D01*
Y75056D01*
X232198Y63802D01*
X231645Y62976D01*
X231451Y62000D01*
Y24486D01*
X231017Y24236D01*
X230265Y23483D01*
X229732Y22561D01*
X229457Y21532D01*
Y20468D01*
X229732Y19439D01*
X230265Y18517D01*
X231017Y17764D01*
X231939Y17232D01*
X232968Y16957D01*
X234032D01*
X235061Y17232D01*
X235983Y17764D01*
X236735Y18517D01*
X237268Y19439D01*
X237543Y20468D01*
Y21532D01*
X237268Y22561D01*
X236735Y23483D01*
X236549Y23669D01*
Y60944D01*
X247802Y72198D01*
X248355Y73024D01*
X248549Y74000D01*
Y117446D01*
X248355Y118421D01*
X247802Y119248D01*
X247217Y119834D01*
X246390Y120386D01*
X245414Y120580D01*
X227106D01*
X226497Y121047D01*
X225657Y121395D01*
X224756Y121514D01*
D02*
G37*
G36*
X443370Y38925D02*
X438630D01*
Y34776D01*
X439980D01*
Y21422D01*
X434282Y15724D01*
X434158Y15796D01*
X433395Y16000D01*
X432605D01*
X431842Y15796D01*
X431158Y15401D01*
X430599Y14842D01*
X430204Y14158D01*
X430000Y13395D01*
Y12605D01*
X430204Y11842D01*
X430599Y11158D01*
X431158Y10599D01*
X431842Y10204D01*
X432605Y10000D01*
X433395D01*
X434158Y10204D01*
X434842Y10599D01*
X435401Y11158D01*
X435796Y11842D01*
X436000Y12605D01*
Y13395D01*
X435796Y14158D01*
X435724Y14282D01*
X441721Y20279D01*
X441942Y20610D01*
X442020Y21000D01*
Y34776D01*
X443370D01*
Y38925D01*
D02*
G37*
G36*
X371370D02*
X366630D01*
Y34776D01*
X367980D01*
Y20422D01*
X362282Y14724D01*
X362158Y14796D01*
X361395Y15000D01*
X360605D01*
X359842Y14796D01*
X359158Y14401D01*
X358599Y13842D01*
X358204Y13158D01*
X358000Y12395D01*
Y11605D01*
X358204Y10842D01*
X358599Y10158D01*
X359158Y9599D01*
X359842Y9204D01*
X360605Y9000D01*
X361395D01*
X362158Y9204D01*
X362842Y9599D01*
X363401Y10158D01*
X363796Y10842D01*
X364000Y11605D01*
Y12395D01*
X363796Y13158D01*
X363724Y13282D01*
X369721Y19279D01*
X369942Y19610D01*
X370020Y20000D01*
Y34776D01*
X371370D01*
Y38925D01*
D02*
G37*
G36*
X540826Y30500D02*
X539174D01*
X537541Y30242D01*
X535969Y29731D01*
X534497Y28980D01*
X533160Y28009D01*
X531991Y26840D01*
X531020Y25503D01*
X530269Y24031D01*
X529759Y22459D01*
X529500Y20826D01*
Y19174D01*
X529759Y17541D01*
X530269Y15969D01*
X531020Y14497D01*
X531991Y13160D01*
X533160Y11991D01*
X534497Y11020D01*
X535969Y10269D01*
X537541Y9759D01*
X539174Y9500D01*
X540826D01*
X542459Y9759D01*
X544031Y10269D01*
X545503Y11020D01*
X546840Y11991D01*
X548009Y13160D01*
X548980Y14497D01*
X549731Y15969D01*
X550242Y17541D01*
X550500Y19174D01*
Y20826D01*
X550242Y22459D01*
X549731Y24031D01*
X548980Y25503D01*
X548009Y26840D01*
X546840Y28009D01*
X545503Y28980D01*
X544031Y29731D01*
X542459Y30242D01*
X540826Y30500D01*
D02*
G37*
G36*
X20826D02*
X19174D01*
X17541Y30242D01*
X15969Y29731D01*
X14497Y28980D01*
X13160Y28009D01*
X11991Y26840D01*
X11020Y25503D01*
X10269Y24031D01*
X9759Y22459D01*
X9500Y20826D01*
Y19174D01*
X9759Y17541D01*
X10269Y15969D01*
X11020Y14497D01*
X11991Y13160D01*
X13160Y11991D01*
X14497Y11020D01*
X15969Y10269D01*
X17541Y9759D01*
X19174Y9500D01*
X20826D01*
X22459Y9759D01*
X24031Y10269D01*
X25503Y11020D01*
X26840Y11991D01*
X28009Y13160D01*
X28980Y14497D01*
X29731Y15969D01*
X30242Y17541D01*
X30500Y19174D01*
Y20826D01*
X30242Y22459D01*
X29731Y24031D01*
X28980Y25503D01*
X28009Y26840D01*
X26840Y28009D01*
X25503Y28980D01*
X24031Y29731D01*
X22459Y30242D01*
X20826Y30500D01*
D02*
G37*
%LPD*%
D12*
X305000Y174000D02*
X306000Y175000D01*
X233500Y21000D02*
X234000Y21500D01*
X450000D02*
Y60000D01*
X449500Y21000D02*
X450000Y21500D01*
Y60000D02*
X462000Y72000D01*
X377000Y60414D02*
X377586Y61000D01*
X378000D01*
X305000Y21000D02*
Y22629D01*
X316414Y118032D02*
X317000Y117446D01*
X433000Y13000D02*
X441000Y21000D01*
Y36850D01*
X369000Y20000D02*
Y36850D01*
X361000Y12000D02*
X369000Y20000D01*
X297000Y24000D02*
Y36850D01*
X288000Y15000D02*
X297000Y24000D01*
X215000Y18000D02*
X221000D01*
X224500Y21500D01*
Y36850D01*
X441000Y177000D02*
Y189850D01*
X433000Y169000D02*
X441000Y177000D01*
X359000Y167000D02*
X369000Y177000D01*
Y189850D01*
X290000Y166000D02*
X297000Y173000D01*
Y189850D01*
X224500Y182500D02*
Y189850D01*
X219000Y177000D02*
X224500Y182500D01*
X17000Y300000D02*
X139000D01*
X140000Y287000D02*
Y299000D01*
X139000Y300000D02*
X140000Y299000D01*
X15000Y283000D02*
Y298000D01*
X17000Y300000D01*
X63586Y48000D02*
X95414D01*
X96000Y47414D01*
Y34000D02*
Y47414D01*
X72000Y176000D02*
X84414D01*
X63000Y48586D02*
X63586Y48000D01*
X63000Y48586D02*
Y89000D01*
X72000Y98000D01*
Y176000D01*
X90000Y54000D02*
Y88000D01*
X103000Y39000D02*
Y171000D01*
Y39000D02*
X108000Y34000D01*
X103000Y171000D02*
X107000Y175000D01*
X84414Y176000D02*
X86414Y178000D01*
X87000D01*
X43000Y216000D02*
Y237414D01*
X43235Y237649D01*
Y239235D01*
X44000Y240000D01*
X33000Y212586D02*
Y241000D01*
X31000Y210586D02*
X33000Y212586D01*
X31000Y210000D02*
Y210586D01*
X286000Y346000D02*
X296000D01*
X301000Y339000D02*
Y343000D01*
X303000Y345000D01*
X208000Y312000D02*
X214000Y318000D01*
X283000Y319000D02*
Y343000D01*
X286000Y346000D01*
X303000Y345000D02*
X314414D01*
X190000Y292000D02*
Y320414D01*
X187000Y191000D02*
X190000Y188000D01*
X187000Y191000D02*
Y289000D01*
X190000Y292000D01*
X193000Y274000D02*
X204500Y285500D01*
Y295500D01*
X193000Y207000D02*
Y274000D01*
X208000Y299000D02*
Y312000D01*
X204500Y295500D02*
X208000Y299000D01*
X193000Y207000D02*
X198000Y202000D01*
Y175000D02*
Y202000D01*
X196000Y173000D02*
X198000Y175000D01*
X145000Y173000D02*
X196000D01*
X184765Y309649D02*
X185000Y309414D01*
X184000Y312000D02*
X184765Y311235D01*
X182914Y219000D02*
X183500Y218414D01*
X184765Y309649D02*
Y311235D01*
X173000Y180000D02*
X185000Y192000D01*
Y309414D01*
X183500Y192621D02*
Y218414D01*
X169586Y219000D02*
X182914D01*
X179879Y189000D02*
X183500Y192621D01*
X169000Y320414D02*
X169586Y321000D01*
X169000Y314000D02*
Y320414D01*
Y314000D02*
X170000Y313000D01*
X189414Y321000D02*
X190000Y320414D01*
X169586Y321000D02*
X189414D01*
X150000Y135000D02*
X171000D01*
X205000Y164000D02*
X221000D01*
X322000Y153000D02*
X325000Y150000D01*
Y149000D02*
Y150000D01*
X187586Y153000D02*
X322000D01*
X187000Y148586D02*
Y152414D01*
X187586Y153000D01*
X186765Y148351D02*
X187000Y148586D01*
X186000Y146000D02*
X186765Y146765D01*
Y148351D01*
X388414Y157000D02*
X388649Y156765D01*
X169000Y157000D02*
X388414D01*
X390235Y156765D02*
X391000Y156000D01*
X388649Y156765D02*
X390235D01*
X128000Y189000D02*
X179879D01*
X151000Y180000D02*
X173000D01*
X111000Y284000D02*
X116000Y289000D01*
X111000Y165000D02*
Y284000D01*
X132000Y34000D02*
Y166000D01*
X125000Y173000D02*
X132000Y166000D01*
X118000Y146000D02*
X126000Y138000D01*
Y60586D02*
Y138000D01*
X118000Y179414D02*
X118586Y180000D01*
X118000Y146000D02*
Y179414D01*
X118586Y180000D02*
X119000D01*
X110000Y60000D02*
X125414D01*
X126000Y60586D01*
X119000Y180000D02*
X128000Y189000D01*
X169000Y219586D02*
X169586Y219000D01*
X169000Y219586D02*
Y278000D01*
X208000Y249000D02*
Y278914D01*
X202765Y241765D02*
Y243765D01*
X202000Y241000D02*
X202765Y241765D01*
Y243765D02*
X208000Y249000D01*
X206000Y253000D02*
Y280000D01*
X200000Y251000D02*
X204000D01*
X206000Y253000D01*
Y280000D02*
X207000Y281000D01*
X245414D02*
X246000Y281586D01*
X207000Y281000D02*
X245414D01*
X246000Y281586D02*
Y301760D01*
X208000Y278914D02*
X208586Y279500D01*
X209500Y277414D02*
X210086Y278000D01*
X209500Y245379D02*
Y277414D01*
X208000Y243879D02*
X209500Y245379D01*
X210086Y278000D02*
X387000D01*
X208000Y235000D02*
Y243879D01*
X208586Y279500D02*
X320414D01*
X321000Y280086D02*
Y302000D01*
X320414Y279500D02*
X321000Y280086D01*
X387000Y278000D02*
X389000Y280000D01*
Y302000D01*
X84000Y160000D02*
X84414D01*
X93500Y169086D01*
X55000Y235000D02*
Y251000D01*
Y235000D02*
X77000Y213000D01*
X92914D02*
X93500Y212414D01*
X77000Y213000D02*
X92914D01*
X93500Y169086D02*
Y212414D01*
X78000Y215000D02*
X94414D01*
X64000Y229000D02*
X78000Y215000D01*
X94414D02*
X95000Y214414D01*
X82000Y217000D02*
X96265D01*
X70000Y229000D02*
X82000Y217000D01*
X70000Y229000D02*
Y239000D01*
X96850Y141850D02*
Y216414D01*
X96265Y217000D02*
X96850Y216414D01*
X79000Y226000D02*
Y233000D01*
Y226000D02*
X86061Y218939D01*
X98414D01*
X99000Y218354D01*
Y132000D02*
Y218354D01*
X94414Y150000D02*
X95000Y150586D01*
Y214414D01*
X80000Y150000D02*
X94414D01*
X85000Y140000D02*
X95000D01*
X96850Y141850D01*
X70000Y239000D02*
Y266000D01*
X84000Y130000D02*
X97000D01*
X99000Y132000D01*
X101000Y120828D02*
Y219000D01*
X93000Y227000D02*
X101000Y219000D01*
X89243Y120243D02*
X100414D01*
X101000Y120828D01*
X64000Y229000D02*
Y246000D01*
X70586Y266586D02*
Y267414D01*
X70000Y268000D02*
X70586Y267414D01*
X70000Y266000D02*
X70586Y266586D01*
X89000Y120000D02*
X89243Y120243D01*
X136000Y101000D02*
Y173000D01*
Y101000D02*
X163000Y74000D01*
X133000Y176000D02*
X136000Y173000D01*
X144000Y34000D02*
Y79000D01*
X104414Y280000D02*
X105000Y279414D01*
Y227586D02*
Y279414D01*
X99000Y280000D02*
X104414D01*
X93000Y227000D02*
X104414D01*
X105000Y227586D01*
X88000Y233586D02*
Y273000D01*
X87414Y233000D02*
X88000Y233586D01*
X79000Y233000D02*
X87414D01*
X78000Y245586D02*
Y262000D01*
Y245586D02*
X78586Y245000D01*
X278000Y355000D02*
X279500Y353500D01*
X250586Y355000D02*
X278000D01*
X250000Y335000D02*
Y354414D01*
X250586Y355000D01*
X240000Y334350D02*
X249350D01*
X250000Y335000D01*
X315000Y328000D02*
Y344414D01*
X314414Y345000D02*
X315000Y344414D01*
X382000Y326000D02*
X384000Y328000D01*
X317000Y326000D02*
X382000D01*
X384000Y328000D02*
Y366000D01*
X388000Y370000D01*
X416000D01*
X388000Y324000D02*
Y362414D01*
X315000Y328000D02*
X317000Y326000D01*
X388586Y363000D02*
X429414D01*
X388000Y362414D02*
X388586Y363000D01*
X429414D02*
X430000Y363586D01*
Y370000D01*
X459000Y349000D02*
Y358000D01*
X458000Y348000D02*
X459000Y349000D01*
X408000Y360000D02*
X457000D01*
X459000Y358000D01*
X403328Y355328D02*
X408000Y360000D01*
X400000Y355000D02*
X400328Y355328D01*
X403328D01*
X276650Y334350D02*
X277000Y334000D01*
X260000Y334350D02*
X276650D01*
X65000Y334000D02*
X65350Y334350D01*
X76000D01*
X86000D01*
X136000D02*
X146000D01*
X126000D02*
X136000D01*
X116000D02*
X126000D01*
X106000D02*
X116000D01*
X96000D02*
X106000D01*
X86000D02*
X96000D01*
X155586D02*
X163500D01*
X155000Y334936D02*
X155586Y334350D01*
X155000Y334936D02*
Y342000D01*
X178000Y334850D02*
X208000D01*
X163500Y334350D02*
X177500D01*
X208000Y334850D02*
X220000D01*
X177500Y334350D02*
X178000Y334850D01*
X260000Y340650D02*
Y347000D01*
X240000Y340650D02*
Y347000D01*
X220000Y341150D02*
Y347000D01*
X208000Y341150D02*
Y348000D01*
X192000Y340650D02*
Y347000D01*
X177500Y346500D02*
X178000Y347000D01*
X177500Y340650D02*
Y346500D01*
X163500Y340650D02*
Y347500D01*
X146000Y258414D02*
X149000Y255414D01*
X146000Y258414D02*
Y259000D01*
X147224Y234370D02*
X147520D01*
X149000Y235850D02*
Y255414D01*
X147520Y234370D02*
X149000Y235850D01*
X146150Y233295D02*
X147224Y234370D01*
X146150Y226500D02*
X151850D01*
X146150Y233000D02*
X151850D01*
Y226500D02*
Y233000D01*
X146150Y220000D02*
X151850D01*
X146150D02*
Y226500D01*
Y233000D02*
Y233295D01*
X178414Y216000D02*
X179000Y215414D01*
X158150Y216586D02*
X158735Y216000D01*
X179000Y210000D02*
Y215414D01*
X158735Y216000D02*
X178414D01*
X158150Y216586D02*
Y220000D01*
X140436Y216000D02*
X157564D01*
X158150Y216586D01*
X139850D02*
X140436Y216000D01*
X139850Y216586D02*
Y220000D01*
Y226500D02*
Y233000D01*
Y220000D02*
Y226500D01*
X158150D02*
Y233000D01*
Y220000D02*
Y226500D01*
X146000Y340650D02*
Y347000D01*
X136000Y340650D02*
Y347000D01*
X126000Y340650D02*
Y347000D01*
X116000Y340650D02*
Y347000D01*
X106000Y340650D02*
Y347000D01*
X96000Y340650D02*
Y347000D01*
X86000Y340650D02*
Y347000D01*
X76000Y340650D02*
Y348000D01*
X440756Y196394D02*
Y223000D01*
Y196394D02*
X441000Y196150D01*
X368756Y196394D02*
Y223000D01*
Y196394D02*
X369000Y196150D01*
X296756Y222000D02*
Y223000D01*
Y196394D02*
Y222000D01*
Y196394D02*
X297000Y196150D01*
X224756Y196405D02*
Y223000D01*
X224500Y196150D02*
X224756Y196405D01*
X224500Y69744D02*
X224756Y70000D01*
X224500Y43150D02*
Y69744D01*
X296756Y70000D02*
X297000Y69756D01*
Y43150D02*
Y69756D01*
X368756Y43394D02*
Y70000D01*
Y43394D02*
X369000Y43150D01*
X440756Y70000D02*
X441000Y69756D01*
Y43150D02*
Y69756D01*
X403000Y251000D02*
Y273000D01*
X474000Y252000D02*
Y273000D01*
Y252000D02*
X475000Y251000D01*
X403000Y273000D02*
X403765Y272235D01*
X331000Y251000D02*
Y272000D01*
X259000Y251000D02*
Y272000D01*
Y98000D02*
Y120000D01*
X331000Y98000D02*
Y120000D01*
X402000Y99000D02*
Y120000D01*
Y99000D02*
X403000Y98000D01*
X475000D02*
Y119000D01*
X464000Y173000D02*
X464378Y173378D01*
X392000Y173000D02*
X392378Y173378D01*
X320000Y173000D02*
X320378Y173378D01*
X248000Y173000D02*
X248378Y173378D01*
X248000Y20000D02*
X248378Y20378D01*
X320000Y20000D02*
X320378Y20378D01*
D16*
X260000Y334350D02*
D03*
Y340650D02*
D03*
X240000Y334350D02*
D03*
Y340650D02*
D03*
X208000Y341150D02*
D03*
Y334850D02*
D03*
X220000Y341150D02*
D03*
Y334850D02*
D03*
X163500Y340650D02*
D03*
Y334350D02*
D03*
X177500Y340650D02*
D03*
Y334350D02*
D03*
X192000Y340650D02*
D03*
Y334350D02*
D03*
X116000Y340650D02*
D03*
Y334350D02*
D03*
X86000Y340650D02*
D03*
Y334350D02*
D03*
X76000Y340650D02*
D03*
Y334350D02*
D03*
X96000Y340650D02*
D03*
Y334350D02*
D03*
X106000Y340650D02*
D03*
Y334350D02*
D03*
X126000Y340650D02*
D03*
Y334350D02*
D03*
X136000Y340650D02*
D03*
Y334350D02*
D03*
X146000Y340650D02*
D03*
Y334350D02*
D03*
X224500Y196150D02*
D03*
Y189850D02*
D03*
X297000Y196150D02*
D03*
Y189850D02*
D03*
X369000Y196150D02*
D03*
Y189850D02*
D03*
X441000Y196150D02*
D03*
Y189850D02*
D03*
X369000Y43150D02*
D03*
Y36850D02*
D03*
X224500Y43150D02*
D03*
Y36850D02*
D03*
X297000Y43150D02*
D03*
Y36850D02*
D03*
X441000Y43150D02*
D03*
Y36850D02*
D03*
D17*
X146150Y220000D02*
D03*
X139850D02*
D03*
X151850Y226500D02*
D03*
X158150D02*
D03*
X146150D02*
D03*
X139850D02*
D03*
X151850Y220000D02*
D03*
X158150D02*
D03*
X146150Y233000D02*
D03*
X139850D02*
D03*
X151850D02*
D03*
X158150D02*
D03*
D42*
X248378Y215126D02*
D03*
X272000Y271031D02*
D03*
X344000D02*
D03*
X320378Y215126D02*
D03*
X392378D02*
D03*
X416000Y271031D02*
D03*
X488000D02*
D03*
X464378Y215126D02*
D03*
X248378Y62126D02*
D03*
X272000Y118032D02*
D03*
X344000D02*
D03*
X320378Y62126D02*
D03*
X392378D02*
D03*
X416000Y118032D02*
D03*
X488000D02*
D03*
X464378Y62126D02*
D03*
D43*
X224756Y223000D02*
D03*
X296756D02*
D03*
X368756D02*
D03*
X440756D02*
D03*
X224756Y70000D02*
D03*
X296756D02*
D03*
X368756D02*
D03*
X440756D02*
D03*
X70000Y80000D02*
D03*
X80000D02*
D03*
X70000Y70000D02*
D03*
X80000D02*
D03*
X70000Y60000D02*
D03*
D44*
X272000Y223000D02*
D03*
X344000D02*
D03*
X416000D02*
D03*
X488000D02*
D03*
X272000Y70000D02*
D03*
X344000D02*
D03*
X416000D02*
D03*
X488000D02*
D03*
X80000Y60000D02*
D03*
D45*
X224756Y271031D02*
D03*
X296756D02*
D03*
X368756D02*
D03*
X440756D02*
D03*
X224756Y118032D02*
D03*
X296756D02*
D03*
X368756D02*
D03*
X440756D02*
D03*
D46*
X263500Y21000D02*
D03*
X248500D02*
D03*
X233500D02*
D03*
X263500Y174000D02*
D03*
X248500D02*
D03*
X233500D02*
D03*
X335000Y21000D02*
D03*
X320000D02*
D03*
X305000D02*
D03*
X335000Y174000D02*
D03*
X320000D02*
D03*
X305000D02*
D03*
X407500Y21000D02*
D03*
X392500D02*
D03*
X377500D02*
D03*
X407500Y174000D02*
D03*
X392500D02*
D03*
X377500D02*
D03*
X479500Y21000D02*
D03*
X464500D02*
D03*
X449500D02*
D03*
X479500Y174000D02*
D03*
X464500D02*
D03*
X449500D02*
D03*
D47*
X30000Y120000D02*
D03*
Y130000D02*
D03*
Y140000D02*
D03*
Y150000D02*
D03*
Y160000D02*
D03*
Y170000D02*
D03*
Y180000D02*
D03*
X20000Y120000D02*
D03*
Y130000D02*
D03*
Y140000D02*
D03*
Y150000D02*
D03*
Y160000D02*
D03*
Y170000D02*
D03*
X30000Y190000D02*
D03*
X20000Y180000D02*
D03*
D48*
Y190000D02*
D03*
D49*
X540000Y20000D02*
D03*
Y380000D02*
D03*
X20000D02*
D03*
Y20000D02*
D03*
D50*
X430000Y370000D02*
D03*
X416000D02*
D03*
X458000D02*
D03*
X444000D02*
D03*
X430000Y348000D02*
D03*
X416000D02*
D03*
X458000D02*
D03*
X444000D02*
D03*
X72000Y34000D02*
D03*
X60000D02*
D03*
X280000Y355000D02*
D03*
X84000Y34000D02*
D03*
X96000D02*
D03*
X120000D02*
D03*
X108000D02*
D03*
X144000D02*
D03*
X132000D02*
D03*
X156000D02*
D03*
D51*
X205000Y178000D02*
D03*
X433000Y13000D02*
D03*
X361000Y12000D02*
D03*
X288000Y15000D02*
D03*
X215000Y18000D02*
D03*
X433000Y169000D02*
D03*
X359000Y167000D02*
D03*
X290000Y166000D02*
D03*
X219000Y177000D02*
D03*
X25000Y292000D02*
D03*
X90000Y54000D02*
D03*
Y88000D02*
D03*
X107000Y175000D02*
D03*
X87000Y178000D02*
D03*
X43000Y216000D02*
D03*
X44000Y240000D02*
D03*
X31000Y210000D02*
D03*
X33000Y241000D02*
D03*
X15000Y283000D02*
D03*
X140000Y287000D02*
D03*
X296000Y346000D02*
D03*
X301000Y339000D02*
D03*
X214000Y318000D02*
D03*
X283000Y319000D02*
D03*
X145000Y173000D02*
D03*
X170000Y313000D02*
D03*
X190000Y188000D02*
D03*
X150000Y135000D02*
D03*
X171000D02*
D03*
X205000Y164000D02*
D03*
X221000D02*
D03*
X325000Y149000D02*
D03*
X186000Y146000D02*
D03*
X391000Y156000D02*
D03*
X169000Y157000D02*
D03*
X151000Y180000D02*
D03*
X184000Y312000D02*
D03*
X111000Y165000D02*
D03*
X116000Y289000D02*
D03*
X125000Y173000D02*
D03*
X110000Y60000D02*
D03*
X169000Y278000D02*
D03*
X224000Y302000D02*
D03*
X200000Y251000D02*
D03*
X246000Y301760D02*
D03*
X202000Y241000D02*
D03*
X321000Y302000D02*
D03*
X208000Y235000D02*
D03*
X389000Y302000D02*
D03*
X55000Y251000D02*
D03*
X84000Y160000D02*
D03*
X64000Y245000D02*
D03*
X80000Y150000D02*
D03*
X85000Y140000D02*
D03*
X84000Y130000D02*
D03*
X89000Y120000D02*
D03*
X163000Y74000D02*
D03*
X133000Y176000D02*
D03*
X144000Y79000D02*
D03*
X76000Y288000D02*
D03*
X93000Y227000D02*
D03*
X99000Y280000D02*
D03*
X88000Y273000D02*
D03*
X79000Y233000D02*
D03*
X70000Y268000D02*
D03*
Y239000D02*
D03*
X78586Y245000D02*
D03*
X78000Y262000D02*
D03*
X26000Y252000D02*
D03*
X64000Y291000D02*
D03*
X443000Y149000D02*
D03*
X372000D02*
D03*
X295650Y148650D02*
D03*
X225000Y148000D02*
D03*
X388000Y324000D02*
D03*
X400000Y355000D02*
D03*
X341000Y353000D02*
D03*
Y343000D02*
D03*
X447650Y301650D02*
D03*
X374650D02*
D03*
X298000Y302000D02*
D03*
X277000Y334000D02*
D03*
X65000D02*
D03*
X155000Y342000D02*
D03*
X240000Y320000D02*
D03*
X260000D02*
D03*
Y347000D02*
D03*
X240000D02*
D03*
X220000D02*
D03*
X208000D02*
D03*
X192000D02*
D03*
X178000D02*
D03*
X163500D02*
D03*
X399000Y294000D02*
D03*
X398000Y141000D02*
D03*
X329000D02*
D03*
X254000D02*
D03*
X195000Y128000D02*
D03*
Y286000D02*
D03*
X328000Y294000D02*
D03*
X254000Y293000D02*
D03*
X158000Y265000D02*
D03*
X146000Y259000D02*
D03*
X179000Y210000D02*
D03*
X146000Y347000D02*
D03*
X136000D02*
D03*
X126000D02*
D03*
X116000D02*
D03*
X106000D02*
D03*
X96000D02*
D03*
X86000D02*
D03*
X76000D02*
D03*
X474000Y273000D02*
D03*
X403000D02*
D03*
X331000Y272000D02*
D03*
X259000D02*
D03*
Y120000D02*
D03*
X331000D02*
D03*
X402000D02*
D03*
X475000Y119000D02*
D03*
D52*
X377500Y174000D02*
Y213500D01*
X391000Y227000D01*
Y270446D01*
X449500Y213500D02*
X462000Y226000D01*
Y270446D01*
X449500Y174000D02*
Y213500D01*
X440756Y271031D02*
X461414D01*
X462000Y270446D01*
X390414Y271031D02*
X391000Y270446D01*
X368756Y271031D02*
X390414D01*
X306000Y175000D02*
Y214000D01*
X318000Y226000D01*
Y270446D01*
X296756Y271031D02*
X317414D01*
X318000Y270446D01*
X233500Y174000D02*
Y213500D01*
X246000Y226000D01*
Y270446D01*
X224756Y271031D02*
X245414D01*
X246000Y270446D01*
X390000Y73000D02*
Y117446D01*
X378000Y61000D02*
X390000Y73000D01*
X378000Y21500D02*
Y61000D01*
X377500Y21000D02*
X378000Y21500D01*
X234000Y62000D02*
X246000Y74000D01*
Y117446D01*
X234000Y21500D02*
Y62000D01*
X245414Y118032D02*
X246000Y117446D01*
X224756Y118032D02*
X245414D01*
X461414D02*
X462000Y117446D01*
Y72000D02*
Y117446D01*
X440756Y118032D02*
X461414D01*
X389414D02*
X390000Y117446D01*
X368756Y118032D02*
X389414D01*
X307000Y24629D02*
Y62000D01*
X317000Y72000D01*
X305000Y22629D02*
X307000Y24629D01*
X317000Y72000D02*
Y117446D01*
X296756Y118032D02*
X316414D01*
X355657Y21000D02*
X358000Y23343D01*
Y117000D01*
X335000Y21000D02*
X355657D01*
X392500D02*
Y62004D01*
X426657Y21000D02*
X429000Y23343D01*
Y117446D01*
X407500Y21000D02*
X426657D01*
X464378Y21122D02*
Y62126D01*
X479500Y21000D02*
X499657D01*
X502000Y23343D02*
Y117446D01*
X499657Y21000D02*
X502000Y23343D01*
X281657Y21000D02*
X284000Y23343D01*
Y117000D01*
X263500Y21000D02*
X281657D01*
X500000Y176343D02*
Y268688D01*
X479500Y174000D02*
X497657D01*
X500000Y176343D01*
X497657Y271031D02*
X500000Y268688D01*
X488000Y271031D02*
X497657D01*
X407500Y174000D02*
X425657D01*
X428000Y176343D01*
Y270000D01*
X284000Y176343D02*
Y270446D01*
X263500Y174000D02*
X281657D01*
X284000Y176343D01*
X356633D02*
Y270446D01*
X354290Y174000D02*
X356633Y176343D01*
X335000Y174000D02*
X354290D01*
X296756Y222000D02*
X305000D01*
X403000Y223586D02*
X403586Y223000D01*
X403000Y223586D02*
Y251000D01*
X403586Y223000D02*
X416000D01*
X475586D02*
X488000D01*
X475000Y223586D02*
Y251000D01*
Y223586D02*
X475586Y223000D01*
X234000Y223586D02*
Y251000D01*
X224756Y223000D02*
X233414D01*
X234000Y223586D01*
X356048Y271031D02*
X356633Y270446D01*
X344000Y271031D02*
X356048D01*
X426968D02*
X428000Y270000D01*
X416000Y271031D02*
X426968D01*
X283414D02*
X284000Y270446D01*
X272000Y271031D02*
X283414D01*
X464378Y173378D02*
Y215126D01*
X392378Y173378D02*
Y215126D01*
X320378Y173378D02*
Y215126D01*
X248378Y173378D02*
Y215126D01*
X344000Y118032D02*
X356968D01*
X358000Y117000D01*
X272000Y118032D02*
X282968D01*
X284000Y117000D01*
X248378Y20378D02*
Y62126D01*
X320378Y20378D02*
Y62126D01*
X428414Y118032D02*
X429000Y117446D01*
X416000Y118032D02*
X428414D01*
X488000D02*
X501414D01*
X502000Y117446D01*
X440756Y223000D02*
X449000D01*
X450000Y224000D02*
Y251000D01*
X449000Y223000D02*
X450000Y224000D01*
X368756Y223000D02*
X377414D01*
X378000Y223586D02*
Y251000D01*
X377414Y223000D02*
X378000Y223586D01*
X331000Y222586D02*
X331586Y222000D01*
X331000Y222586D02*
Y251000D01*
X331586Y222000D02*
X344000D01*
X306000Y223000D02*
Y251000D01*
X305000Y222000D02*
X306000Y223000D01*
X259586D02*
X272000D01*
X259000Y223586D02*
X259586Y223000D01*
X259000Y223586D02*
Y251000D01*
X224756Y70000D02*
X233000D01*
X234000Y71000D01*
Y98000D01*
X259586Y70000D02*
X272000D01*
X259000Y70586D02*
X259586Y70000D01*
X259000Y70586D02*
Y98000D01*
X305000Y70000D02*
X306000Y71000D01*
X296756Y70000D02*
X305000D01*
X306000Y71000D02*
Y98000D01*
X331000Y70586D02*
X331586Y70000D01*
X344000D01*
X331000Y70586D02*
Y98000D01*
X377000Y70000D02*
X378000Y71000D01*
X368756Y70000D02*
X377000D01*
X378000Y71000D02*
Y98000D01*
X403586Y70000D02*
X416000D01*
X403000Y70586D02*
Y98000D01*
Y70586D02*
X403586Y70000D01*
X440756D02*
X448000D01*
X450000Y72000D01*
Y98000D01*
X476000Y70000D02*
X488000D01*
X475000Y71000D02*
Y98000D01*
Y71000D02*
X476000Y70000D01*
D63*
X259000Y251000D02*
D03*
X234000D02*
D03*
X306000D02*
D03*
X331000D02*
D03*
X475000D02*
D03*
X450000D02*
D03*
X378000D02*
D03*
X403000D02*
D03*
X259000Y98000D02*
D03*
X234000D02*
D03*
X306000D02*
D03*
X331000D02*
D03*
X475000D02*
D03*
X450000D02*
D03*
X378000D02*
D03*
X403000D02*
D03*
M02*
