G04*
G04 #@! TF.GenerationSoftware,Altium Limited,Altium Designer,22.3.1 (43)*
G04*
G04 Layer_Color=32896*
%FSLAX25Y25*%
%MOIN*%
G70*
G04*
G04 #@! TF.SameCoordinates,DE08D283-0CB9-458E-8042-9F6044BD937B*
G04*
G04*
G04 #@! TF.FilePolarity,Positive*
G04*
G01*
G75*
%ADD12C,0.01000*%
%ADD13C,0.00500*%
D12*
X263000Y257000D02*
X269000D01*
X224000D02*
X263000D01*
X226000Y247000D02*
Y255000D01*
X269000Y245000D02*
Y257000D01*
X224000Y245000D02*
X269000D01*
X224000Y250000D02*
Y256000D01*
Y245000D02*
Y250000D01*
Y256000D02*
Y257000D01*
X296000Y256000D02*
Y257000D01*
Y245000D02*
Y250000D01*
Y256000D01*
Y245000D02*
X341000D01*
Y257000D01*
X298000Y247000D02*
Y255000D01*
X296000Y257000D02*
X335000D01*
X341000D01*
X479000D02*
X485000D01*
X440000D02*
X479000D01*
X442000Y247000D02*
Y255000D01*
X485000Y245000D02*
Y257000D01*
X440000Y245000D02*
X485000D01*
X440000Y250000D02*
Y256000D01*
Y245000D02*
Y250000D01*
Y256000D02*
Y257000D01*
X368000Y256000D02*
Y257000D01*
Y245000D02*
Y250000D01*
Y256000D01*
Y245000D02*
X413000D01*
Y257000D01*
X370000Y247000D02*
Y255000D01*
X368000Y257000D02*
X407000D01*
X413000D01*
X263000Y104000D02*
X269000D01*
X224000D02*
X263000D01*
X226000Y94000D02*
Y102000D01*
X269000Y92000D02*
Y104000D01*
X224000Y92000D02*
X269000D01*
X224000Y97000D02*
Y103000D01*
Y92000D02*
Y97000D01*
Y103000D02*
Y104000D01*
X296000Y103000D02*
Y104000D01*
Y92000D02*
Y97000D01*
Y103000D01*
Y92000D02*
X341000D01*
Y104000D01*
X298000Y94000D02*
Y102000D01*
X296000Y104000D02*
X335000D01*
X341000D01*
X479000D02*
X485000D01*
X440000D02*
X479000D01*
X442000Y94000D02*
Y102000D01*
X485000Y92000D02*
Y104000D01*
X440000Y92000D02*
X485000D01*
X440000Y97000D02*
Y103000D01*
Y92000D02*
Y97000D01*
Y103000D02*
Y104000D01*
X368000Y103000D02*
Y104000D01*
Y92000D02*
Y97000D01*
Y103000D01*
Y92000D02*
X413000D01*
Y104000D01*
X370000Y94000D02*
Y102000D01*
X368000Y104000D02*
X407000D01*
X413000D01*
X218001Y320668D02*
X221999D01*
Y322668D01*
X221333Y323334D01*
X220000D01*
X219334Y322668D01*
Y320668D01*
Y322001D02*
X218001Y323334D01*
X221999Y324667D02*
Y327333D01*
X221333D01*
X218667Y324667D01*
X218001D01*
X221999Y328666D02*
Y331332D01*
X221333D01*
X218667Y328666D01*
X218001D01*
X206001Y319668D02*
X209999D01*
Y321668D01*
X209333Y322334D01*
X208000D01*
X207334Y321668D01*
Y319668D01*
Y321001D02*
X206001Y322334D01*
X209999Y323667D02*
Y326333D01*
X209333D01*
X206667Y323667D01*
X206001D01*
X209999Y330332D02*
X209333Y328999D01*
X208000Y327666D01*
X206667D01*
X206001Y328332D01*
Y329665D01*
X206667Y330332D01*
X207334D01*
X208000Y329665D01*
Y327666D01*
X190001Y319668D02*
X193999D01*
Y321668D01*
X193333Y322334D01*
X192000D01*
X191333Y321668D01*
Y319668D01*
Y321001D02*
X190001Y322334D01*
X193999Y326333D02*
X193333Y325000D01*
X192000Y323667D01*
X190667D01*
X190001Y324334D01*
Y325666D01*
X190667Y326333D01*
X191333D01*
X192000Y325666D01*
Y323667D01*
X190001Y330332D02*
Y327666D01*
X192666Y330332D01*
X193333D01*
X193999Y329665D01*
Y328332D01*
X193333Y327666D01*
X176001Y319335D02*
X179999D01*
Y321334D01*
X179333Y322001D01*
X178000D01*
X177333Y321334D01*
Y319335D01*
Y320668D02*
X176001Y322001D01*
X179999Y325999D02*
X179333Y324666D01*
X178000Y323334D01*
X176667D01*
X176001Y324000D01*
Y325333D01*
X176667Y325999D01*
X177333D01*
X178000Y325333D01*
Y323334D01*
X176001Y327332D02*
Y328665D01*
Y327999D01*
X179999D01*
X179333Y327332D01*
X162001Y319668D02*
X165999D01*
Y321668D01*
X165333Y322334D01*
X164000D01*
X163333Y321668D01*
Y319668D01*
Y321001D02*
X162001Y322334D01*
X165999Y326333D02*
X165333Y325000D01*
X164000Y323667D01*
X162667D01*
X162001Y324334D01*
Y325666D01*
X162667Y326333D01*
X163333D01*
X164000Y325666D01*
Y323667D01*
X165333Y327666D02*
X165999Y328332D01*
Y329665D01*
X165333Y330332D01*
X162667D01*
X162001Y329665D01*
Y328332D01*
X162667Y327666D01*
X165333D01*
X258001Y319668D02*
X261999D01*
Y321668D01*
X261333Y322334D01*
X260000D01*
X259333Y321668D01*
Y319668D01*
Y321001D02*
X258001Y322334D01*
X261999Y326333D02*
X261333Y325000D01*
X260000Y323667D01*
X258667D01*
X258001Y324334D01*
Y325666D01*
X258667Y326333D01*
X259333D01*
X260000Y325666D01*
Y323667D01*
X261333Y327666D02*
X261999Y328332D01*
Y329665D01*
X261333Y330332D01*
X260666D01*
X260000Y329665D01*
Y328999D01*
Y329665D01*
X259333Y330332D01*
X258667D01*
X258001Y329665D01*
Y328332D01*
X258667Y327666D01*
X74001Y319668D02*
X77999D01*
Y321668D01*
X77333Y322334D01*
X76000D01*
X75333Y321668D01*
Y319668D01*
Y321001D02*
X74001Y322334D01*
X77999Y323667D02*
Y326333D01*
X77333D01*
X74667Y323667D01*
X74001D01*
Y330332D02*
Y327666D01*
X76666Y330332D01*
X77333D01*
X77999Y329665D01*
Y328332D01*
X77333Y327666D01*
X84001Y319835D02*
X87999D01*
Y321834D01*
X87333Y322501D01*
X86000D01*
X85334Y321834D01*
Y319835D01*
Y321168D02*
X84001Y322501D01*
X87999Y323834D02*
Y326499D01*
X87333D01*
X84667Y323834D01*
X84001D01*
Y327832D02*
Y329165D01*
Y328499D01*
X87999D01*
X87333Y327832D01*
X94001Y319668D02*
X97999D01*
Y321668D01*
X97333Y322334D01*
X96000D01*
X95333Y321668D01*
Y319668D01*
Y321001D02*
X94001Y322334D01*
X97999Y323667D02*
Y326333D01*
X97333D01*
X94667Y323667D01*
X94001D01*
X97333Y327666D02*
X97999Y328332D01*
Y329665D01*
X97333Y330332D01*
X94667D01*
X94001Y329665D01*
Y328332D01*
X94667Y327666D01*
X97333D01*
X104001Y319668D02*
X107999D01*
Y321668D01*
X107333Y322334D01*
X106000D01*
X105333Y321668D01*
Y319668D01*
Y321001D02*
X104001Y322334D01*
X107999Y326333D02*
X107333Y325000D01*
X106000Y323667D01*
X104667D01*
X104001Y324334D01*
Y325666D01*
X104667Y326333D01*
X105333D01*
X106000Y325666D01*
Y323667D01*
X104667Y327666D02*
X104001Y328332D01*
Y329665D01*
X104667Y330332D01*
X107333D01*
X107999Y329665D01*
Y328332D01*
X107333Y327666D01*
X106667D01*
X106000Y328332D01*
Y330332D01*
X114001Y319668D02*
X117999D01*
Y321668D01*
X117333Y322334D01*
X116000D01*
X115333Y321668D01*
Y319668D01*
Y321001D02*
X114001Y322334D01*
X117999Y326333D02*
X117333Y325000D01*
X116000Y323667D01*
X114667D01*
X114001Y324334D01*
Y325666D01*
X114667Y326333D01*
X115333D01*
X116000Y325666D01*
Y323667D01*
X117333Y327666D02*
X117999Y328332D01*
Y329665D01*
X117333Y330332D01*
X116666D01*
X116000Y329665D01*
X115333Y330332D01*
X114667D01*
X114001Y329665D01*
Y328332D01*
X114667Y327666D01*
X115333D01*
X116000Y328332D01*
X116666Y327666D01*
X117333D01*
X116000Y328332D02*
Y329665D01*
X124001Y319168D02*
X127999D01*
Y321168D01*
X127333Y321834D01*
X126000D01*
X125333Y321168D01*
Y319168D01*
Y320501D02*
X124001Y321834D01*
X127999Y325833D02*
X127333Y324500D01*
X126000Y323167D01*
X124667D01*
X124001Y323834D01*
Y325166D01*
X124667Y325833D01*
X125333D01*
X126000Y325166D01*
Y323167D01*
X127999Y327166D02*
Y329832D01*
X127333D01*
X124667Y327166D01*
X124001D01*
X134001Y319668D02*
X137999D01*
Y321668D01*
X137333Y322334D01*
X136000D01*
X135334Y321668D01*
Y319668D01*
Y321001D02*
X134001Y322334D01*
X137999Y326333D02*
X137333Y325000D01*
X136000Y323667D01*
X134667D01*
X134001Y324334D01*
Y325666D01*
X134667Y326333D01*
X135334D01*
X136000Y325666D01*
Y323667D01*
X137999Y330332D02*
X137333Y328999D01*
X136000Y327666D01*
X134667D01*
X134001Y328332D01*
Y329665D01*
X134667Y330332D01*
X135334D01*
X136000Y329665D01*
Y327666D01*
X144001Y319668D02*
X147999D01*
Y321668D01*
X147333Y322334D01*
X146000D01*
X145334Y321668D01*
Y319668D01*
Y321001D02*
X144001Y322334D01*
X147999Y326333D02*
X147333Y325000D01*
X146000Y323667D01*
X144667D01*
X144001Y324334D01*
Y325666D01*
X144667Y326333D01*
X145334D01*
X146000Y325666D01*
Y323667D01*
X147999Y330332D02*
Y327666D01*
X146000D01*
X146667Y328999D01*
Y329665D01*
X146000Y330332D01*
X144667D01*
X144001Y329665D01*
Y328332D01*
X144667Y327666D01*
X442333Y25667D02*
X442999Y25001D01*
Y23668D01*
X442333Y23002D01*
X439667D01*
X439001Y23668D01*
Y25001D01*
X439667Y25667D01*
X439001Y27000D02*
Y28333D01*
Y27667D01*
X442999D01*
X442333Y27000D01*
X439001Y32332D02*
X442999D01*
X441000Y30333D01*
Y32998D01*
X370333Y25667D02*
X370999Y25001D01*
Y23668D01*
X370333Y23002D01*
X367667D01*
X367001Y23668D01*
Y25001D01*
X367667Y25667D01*
X367001Y27000D02*
Y28333D01*
Y27667D01*
X370999D01*
X370333Y27000D01*
Y30333D02*
X370999Y30999D01*
Y32332D01*
X370333Y32998D01*
X369666D01*
X369000Y32332D01*
Y31666D01*
Y32332D01*
X368334Y32998D01*
X367667D01*
X367001Y32332D01*
Y30999D01*
X367667Y30333D01*
X298333Y25667D02*
X298999Y25001D01*
Y23668D01*
X298333Y23002D01*
X295667D01*
X295001Y23668D01*
Y25001D01*
X295667Y25667D01*
X295001Y27000D02*
Y28333D01*
Y27667D01*
X298999D01*
X298333Y27000D01*
X295001Y32998D02*
Y30333D01*
X297666Y32998D01*
X298333D01*
X298999Y32332D01*
Y30999D01*
X298333Y30333D01*
X225833Y26509D02*
X226499Y25843D01*
Y24510D01*
X225833Y23843D01*
X223167D01*
X222501Y24510D01*
Y25843D01*
X223167Y26509D01*
X222501Y27842D02*
Y29175D01*
Y28508D01*
X226499D01*
X225833Y27842D01*
X222501Y31174D02*
Y32507D01*
Y31841D01*
X226499D01*
X225833Y31174D01*
X442333Y178667D02*
X442999Y178001D01*
Y176668D01*
X442333Y176002D01*
X439667D01*
X439001Y176668D01*
Y178001D01*
X439667Y178667D01*
X439001Y180000D02*
Y181333D01*
Y180667D01*
X442999D01*
X442333Y180000D01*
Y183333D02*
X442999Y183999D01*
Y185332D01*
X442333Y185998D01*
X439667D01*
X439001Y185332D01*
Y183999D01*
X439667Y183333D01*
X442333D01*
X370333Y181483D02*
X370999Y180817D01*
Y179484D01*
X370333Y178817D01*
X367667D01*
X367001Y179484D01*
Y180817D01*
X367667Y181483D01*
Y182816D02*
X367001Y183483D01*
Y184815D01*
X367667Y185482D01*
X370333D01*
X370999Y184815D01*
Y183483D01*
X370333Y182816D01*
X369666D01*
X369000Y183483D01*
Y185482D01*
X298333Y182334D02*
X298999Y181667D01*
Y180334D01*
X298333Y179668D01*
X295667D01*
X295001Y180334D01*
Y181667D01*
X295667Y182334D01*
X298333Y183667D02*
X298999Y184333D01*
Y185666D01*
X298333Y186332D01*
X297666D01*
X297000Y185666D01*
X296334Y186332D01*
X295667D01*
X295001Y185666D01*
Y184333D01*
X295667Y183667D01*
X296334D01*
X297000Y184333D01*
X297666Y183667D01*
X298333D01*
X297000Y184333D02*
Y185666D01*
X226333Y182334D02*
X226999Y181667D01*
Y180334D01*
X226333Y179668D01*
X223667D01*
X223001Y180334D01*
Y181667D01*
X223667Y182334D01*
X226999Y183667D02*
Y186332D01*
X226333D01*
X223667Y183667D01*
X223001D01*
X165666Y234333D02*
X166333Y234999D01*
X167666D01*
X168332Y234333D01*
Y231667D01*
X167666Y231001D01*
X166333D01*
X165666Y231667D01*
X161668Y234999D02*
X163001Y234333D01*
X164333Y233000D01*
Y231667D01*
X163667Y231001D01*
X162334D01*
X161668Y231667D01*
Y232334D01*
X162334Y233000D01*
X164333D01*
X165816Y227833D02*
X166482Y228499D01*
X167815D01*
X168482Y227833D01*
Y225167D01*
X167815Y224501D01*
X166482D01*
X165816Y225167D01*
X161817Y228499D02*
X164483D01*
Y226500D01*
X163150Y227166D01*
X162484D01*
X161817Y226500D01*
Y225167D01*
X162484Y224501D01*
X163817D01*
X164483Y225167D01*
X133167Y221333D02*
X133833Y221999D01*
X135166D01*
X135832Y221333D01*
Y218667D01*
X135166Y218001D01*
X133833D01*
X133167Y218667D01*
X129834Y218001D02*
Y221999D01*
X131834Y220000D01*
X129168D01*
X165666Y221333D02*
X166333Y221999D01*
X167666D01*
X168332Y221333D01*
Y218667D01*
X167666Y218001D01*
X166333D01*
X165666Y218667D01*
X164333Y221333D02*
X163667Y221999D01*
X162334D01*
X161668Y221333D01*
Y220666D01*
X162334Y220000D01*
X163001D01*
X162334D01*
X161668Y219334D01*
Y218667D01*
X162334Y218001D01*
X163667D01*
X164333Y218667D01*
X133167Y227833D02*
X133833Y228499D01*
X135166D01*
X135832Y227833D01*
Y225167D01*
X135166Y224501D01*
X133833D01*
X133167Y225167D01*
X129168Y224501D02*
X131834D01*
X129168Y227166D01*
Y227833D01*
X129834Y228499D01*
X131167D01*
X131834Y227833D01*
X133000Y234333D02*
X133667Y234999D01*
X134999D01*
X135666Y234333D01*
Y231667D01*
X134999Y231001D01*
X133667D01*
X133000Y231667D01*
X131667Y231001D02*
X130334D01*
X131001D01*
Y234999D01*
X131667Y234333D01*
X238001Y319668D02*
X241999D01*
Y321668D01*
X241333Y322334D01*
X240000D01*
X239334Y321668D01*
Y319668D01*
Y321001D02*
X238001Y322334D01*
X241999Y326333D02*
X241333Y325000D01*
X240000Y323667D01*
X238667D01*
X238001Y324334D01*
Y325666D01*
X238667Y326333D01*
X239334D01*
X240000Y325666D01*
Y323667D01*
X238001Y329665D02*
X241999D01*
X240000Y327666D01*
Y330332D01*
X356952Y105884D02*
X360950D01*
Y103884D01*
X360284Y103218D01*
X357618D01*
X356952Y103884D01*
Y105884D01*
X357618Y101885D02*
X356952Y101219D01*
Y99886D01*
X357618Y99219D01*
X358284D01*
X358951Y99886D01*
X359617Y99219D01*
X360284D01*
X360950Y99886D01*
Y101219D01*
X360284Y101885D01*
X359617D01*
X358951Y101219D01*
X358284Y101885D01*
X357618D01*
X358951Y101219D02*
Y99886D01*
X428952Y105884D02*
X432950D01*
Y103884D01*
X432284Y103218D01*
X429618D01*
X428952Y103884D01*
Y105884D01*
Y101885D02*
Y99219D01*
X429618D01*
X432284Y101885D01*
X432950D01*
X284952Y105884D02*
X288950D01*
Y103884D01*
X288284Y103218D01*
X285618D01*
X284952Y103884D01*
Y105884D01*
Y99219D02*
X285618Y100552D01*
X286951Y101885D01*
X288284D01*
X288950Y101219D01*
Y99886D01*
X288284Y99219D01*
X287617D01*
X286951Y99886D01*
Y101885D01*
X212952Y105884D02*
X216950D01*
Y103884D01*
X216284Y103218D01*
X213618D01*
X212952Y103884D01*
Y105884D01*
Y99219D02*
Y101885D01*
X214951D01*
X214284Y100552D01*
Y99886D01*
X214951Y99219D01*
X216284D01*
X216950Y99886D01*
Y101219D01*
X216284Y101885D01*
X356952Y258884D02*
X360950D01*
Y256885D01*
X360284Y256218D01*
X357618D01*
X356952Y256885D01*
Y258884D01*
X360950Y252886D02*
X356952D01*
X358951Y254885D01*
Y252219D01*
X428952Y258884D02*
X432950D01*
Y256885D01*
X432284Y256218D01*
X429618D01*
X428952Y256885D01*
Y258884D01*
X432950Y252219D02*
Y254885D01*
X430285Y252219D01*
X429618D01*
X428952Y252886D01*
Y254219D01*
X429618Y254885D01*
X284952Y258217D02*
X288950D01*
Y256218D01*
X288284Y255552D01*
X285618D01*
X284952Y256218D01*
Y258217D01*
X288950Y254219D02*
Y252886D01*
Y253552D01*
X284952D01*
X285618Y254219D01*
X212001Y256332D02*
X215999D01*
Y254333D01*
X215333Y253666D01*
X212667D01*
X212001Y254333D01*
Y256332D01*
X212667Y252333D02*
X212001Y251667D01*
Y250334D01*
X212667Y249668D01*
X213334D01*
X214000Y250334D01*
Y251001D01*
Y250334D01*
X214666Y249668D01*
X215333D01*
X215999Y250334D01*
Y251667D01*
X215333Y252333D01*
D13*
X262500Y338800D02*
Y342900D01*
X257500D02*
X262500D01*
X257500Y338800D02*
Y342900D01*
Y332100D02*
Y336300D01*
Y332100D02*
X262500D01*
Y336200D01*
X242500Y338800D02*
Y342900D01*
X237500D02*
X242500D01*
X237500Y338800D02*
Y342900D01*
Y332100D02*
Y336300D01*
Y332100D02*
X242500D01*
Y336200D01*
X210500Y332600D02*
Y336700D01*
X205500Y332600D02*
X210500D01*
X205500D02*
Y336800D01*
Y339300D02*
Y343400D01*
X210500D01*
Y339300D02*
Y343400D01*
X222500Y332600D02*
Y336700D01*
X217500Y332600D02*
X222500D01*
X217500D02*
Y336800D01*
Y339300D02*
Y343400D01*
X222500D01*
Y339300D02*
Y343400D01*
X166000Y332100D02*
Y336200D01*
X161000Y332100D02*
X166000D01*
X161000D02*
Y336300D01*
Y338800D02*
Y342900D01*
X166000D01*
Y338800D02*
Y342900D01*
X180000Y332100D02*
Y336200D01*
X175000Y332100D02*
X180000D01*
X175000D02*
Y336300D01*
Y338800D02*
Y342900D01*
X180000D01*
Y338800D02*
Y342900D01*
X194500Y332100D02*
Y336200D01*
X189500Y332100D02*
X194500D01*
X189500D02*
Y336300D01*
Y338800D02*
Y342900D01*
X194500D01*
Y338800D02*
Y342900D01*
X137600Y222500D02*
X141700D01*
X137600Y217500D02*
Y222500D01*
Y217500D02*
X141700D01*
X144200D02*
X148400D01*
Y222500D01*
X144300D02*
X148400D01*
X156300Y224000D02*
X160400D01*
Y229000D01*
X156300D02*
X160400D01*
X149600D02*
X153800D01*
X149600Y224000D02*
Y229000D01*
Y224000D02*
X153700D01*
X137600Y229000D02*
X141700D01*
X137600Y224000D02*
Y229000D01*
Y224000D02*
X141700D01*
X144200D02*
X148400D01*
Y229000D01*
X144300D02*
X148400D01*
X156300Y217500D02*
X160400D01*
Y222500D01*
X156300D02*
X160400D01*
X149600D02*
X153800D01*
X149600Y217500D02*
Y222500D01*
Y217500D02*
X153700D01*
X137600Y235500D02*
X141700D01*
X137600Y230500D02*
Y235500D01*
Y230500D02*
X141700D01*
X144200D02*
X148400D01*
Y235500D01*
X144300D02*
X148400D01*
X156300Y230500D02*
X160400D01*
Y235500D01*
X156300D02*
X160400D01*
X149600D02*
X153800D01*
X149600Y230500D02*
Y235500D01*
Y230500D02*
X153700D01*
X118500Y332100D02*
Y336200D01*
X113500Y332100D02*
X118500D01*
X113500D02*
Y336300D01*
Y338800D02*
Y342900D01*
X118500D01*
Y338800D02*
Y342900D01*
X88500Y332100D02*
Y336200D01*
X83500Y332100D02*
X88500D01*
X83500D02*
Y336300D01*
Y338800D02*
Y342900D01*
X88500D01*
Y338800D02*
Y342900D01*
X78500Y332100D02*
Y336200D01*
X73500Y332100D02*
X78500D01*
X73500D02*
Y336300D01*
Y338800D02*
Y342900D01*
X78500D01*
Y338800D02*
Y342900D01*
X98500Y332100D02*
Y336200D01*
X93500Y332100D02*
X98500D01*
X93500D02*
Y336300D01*
Y338800D02*
Y342900D01*
X98500D01*
Y338800D02*
Y342900D01*
X108500Y332100D02*
Y336200D01*
X103500Y332100D02*
X108500D01*
X103500D02*
Y336300D01*
Y338800D02*
Y342900D01*
X108500D01*
Y338800D02*
Y342900D01*
X128500Y332100D02*
Y336200D01*
X123500Y332100D02*
X128500D01*
X123500D02*
Y336300D01*
Y338800D02*
Y342900D01*
X128500D01*
Y338800D02*
Y342900D01*
X138500Y332100D02*
Y336200D01*
X133500Y332100D02*
X138500D01*
X133500D02*
Y336300D01*
Y338800D02*
Y342900D01*
X138500D01*
Y338800D02*
Y342900D01*
X148500Y332100D02*
Y336200D01*
X143500Y332100D02*
X148500D01*
X143500D02*
Y336300D01*
Y338800D02*
Y342900D01*
X148500D01*
Y338800D02*
Y342900D01*
X227000Y187600D02*
Y191700D01*
X222000Y187600D02*
X227000D01*
X222000D02*
Y191800D01*
Y194300D02*
Y198400D01*
X227000D01*
Y194300D02*
Y198400D01*
X299500Y187600D02*
Y191700D01*
X294500Y187600D02*
X299500D01*
X294500D02*
Y191800D01*
Y194300D02*
Y198400D01*
X299500D01*
Y194300D02*
Y198400D01*
X371500Y187600D02*
Y191700D01*
X366500Y187600D02*
X371500D01*
X366500D02*
Y191800D01*
Y194300D02*
Y198400D01*
X371500D01*
Y194300D02*
Y198400D01*
X443500Y187600D02*
Y191700D01*
X438500Y187600D02*
X443500D01*
X438500D02*
Y191800D01*
Y194300D02*
Y198400D01*
X443500D01*
Y194300D02*
Y198400D01*
X371500Y34600D02*
Y38700D01*
X366500Y34600D02*
X371500D01*
X366500D02*
Y38800D01*
Y41300D02*
Y45400D01*
X371500D01*
Y41300D02*
Y45400D01*
X227000Y34600D02*
Y38700D01*
X222000Y34600D02*
X227000D01*
X222000D02*
Y38800D01*
Y41300D02*
Y45400D01*
X227000D01*
Y41300D02*
Y45400D01*
X299500Y34600D02*
Y38700D01*
X294500Y34600D02*
X299500D01*
X294500D02*
Y38800D01*
Y41300D02*
Y45400D01*
X299500D01*
Y41300D02*
Y45400D01*
X443500Y34600D02*
Y38700D01*
X438500Y34600D02*
X443500D01*
X438500D02*
Y38800D01*
Y41300D02*
Y45400D01*
X443500D01*
Y41300D02*
Y45400D01*
M02*
