G04*
G04 #@! TF.GenerationSoftware,Altium Limited,Altium Designer,22.3.1 (43)*
G04*
G04 Layer_Color=8421504*
%FSLAX25Y25*%
%MOIN*%
G70*
G04*
G04 #@! TF.SameCoordinates,DE08D283-0CB9-458E-8042-9F6044BD937B*
G04*
G04*
G04 #@! TF.FilePolarity,Positive*
G04*
G01*
G75*
%ADD16R,0.03740X0.03150*%
%ADD17R,0.03150X0.03740*%
%ADD18R,0.05807X0.01772*%
%ADD19R,0.07087X0.01772*%
%ADD20R,0.04921X0.02362*%
%ADD21R,0.02362X0.05807*%
%ADD22R,0.05807X0.02362*%
%ADD23R,0.03150X0.03150*%
D16*
X383000Y148150D02*
D03*
Y141850D02*
D03*
X236000Y148150D02*
D03*
Y141850D02*
D03*
X184000Y134150D02*
D03*
Y127850D02*
D03*
X195000Y168850D02*
D03*
Y175150D02*
D03*
X311000Y302000D02*
D03*
Y295701D02*
D03*
X236000Y301150D02*
D03*
Y294850D02*
D03*
X195000Y265850D02*
D03*
Y272150D02*
D03*
X429000Y295350D02*
D03*
Y301650D02*
D03*
X285000Y295350D02*
D03*
Y301650D02*
D03*
X357000Y295350D02*
D03*
Y301650D02*
D03*
X429000Y142350D02*
D03*
Y148650D02*
D03*
X284000Y142350D02*
D03*
Y148650D02*
D03*
X213000Y141850D02*
D03*
Y148150D02*
D03*
X357000Y142350D02*
D03*
Y148650D02*
D03*
X213000Y295350D02*
D03*
Y301650D02*
D03*
X156000Y318850D02*
D03*
Y325150D02*
D03*
X170000Y318850D02*
D03*
Y325150D02*
D03*
X184000Y318850D02*
D03*
Y325150D02*
D03*
X169000Y265850D02*
D03*
Y272150D02*
D03*
X140000D02*
D03*
Y265850D02*
D03*
X175000D02*
D03*
Y272150D02*
D03*
X134000D02*
D03*
Y265850D02*
D03*
X181000D02*
D03*
Y272150D02*
D03*
X128000D02*
D03*
Y265850D02*
D03*
X169000Y193150D02*
D03*
Y186850D02*
D03*
X163000Y193150D02*
D03*
Y186850D02*
D03*
X157000Y193150D02*
D03*
Y186850D02*
D03*
X151000Y193150D02*
D03*
Y186850D02*
D03*
X133000D02*
D03*
Y193150D02*
D03*
X145000Y193299D02*
D03*
Y187000D02*
D03*
X139000Y193150D02*
D03*
Y186850D02*
D03*
D17*
X389150Y311000D02*
D03*
X382850D02*
D03*
X371850Y361000D02*
D03*
X378150D02*
D03*
X309850Y357000D02*
D03*
X316150D02*
D03*
Y338000D02*
D03*
X309850D02*
D03*
Y345000D02*
D03*
X316150D02*
D03*
X371850Y331000D02*
D03*
X378150D02*
D03*
Y337000D02*
D03*
X371850D02*
D03*
Y343000D02*
D03*
X378150D02*
D03*
Y349000D02*
D03*
X371850D02*
D03*
Y355000D02*
D03*
X378150D02*
D03*
X103150Y60000D02*
D03*
X96850D02*
D03*
X73150Y190000D02*
D03*
X66850D02*
D03*
X55150Y70000D02*
D03*
X48850D02*
D03*
X103150D02*
D03*
X96850D02*
D03*
X73150Y180000D02*
D03*
X66850D02*
D03*
X103150Y80000D02*
D03*
X96850D02*
D03*
Y165000D02*
D03*
X103150D02*
D03*
X73150Y170000D02*
D03*
X66850D02*
D03*
X96850Y155000D02*
D03*
X103150D02*
D03*
X73150Y160000D02*
D03*
X66850D02*
D03*
X96850Y145000D02*
D03*
X103150D02*
D03*
X73150Y150000D02*
D03*
X66850D02*
D03*
X96850Y135000D02*
D03*
X103150D02*
D03*
X73150Y140000D02*
D03*
X66850D02*
D03*
X73150Y130000D02*
D03*
X66850D02*
D03*
X73150Y120000D02*
D03*
X66850D02*
D03*
X183850Y247000D02*
D03*
X190150D02*
D03*
X101850Y251000D02*
D03*
X108150D02*
D03*
X183850Y241000D02*
D03*
X190150D02*
D03*
X101850Y245000D02*
D03*
X108150D02*
D03*
X183850Y235000D02*
D03*
X190150D02*
D03*
X101850Y239000D02*
D03*
X108150D02*
D03*
X183850Y229000D02*
D03*
X190150D02*
D03*
X101850Y233000D02*
D03*
X108150D02*
D03*
X183850Y223000D02*
D03*
X190150D02*
D03*
X101850Y227000D02*
D03*
X108150D02*
D03*
X183850Y202000D02*
D03*
X190150D02*
D03*
X101850Y221000D02*
D03*
X108150D02*
D03*
X101850Y215000D02*
D03*
X108150D02*
D03*
X101850Y209000D02*
D03*
X108150D02*
D03*
D18*
X329433Y355677D02*
D03*
Y353118D02*
D03*
Y350559D02*
D03*
Y348000D02*
D03*
Y345441D02*
D03*
Y342882D02*
D03*
Y340323D02*
D03*
X352567D02*
D03*
Y342882D02*
D03*
Y345441D02*
D03*
Y348000D02*
D03*
Y350559D02*
D03*
Y353118D02*
D03*
Y355677D02*
D03*
D19*
X26024Y285516D02*
D03*
Y282957D02*
D03*
Y280398D02*
D03*
Y277839D02*
D03*
Y275279D02*
D03*
Y272721D02*
D03*
Y270161D02*
D03*
Y267602D02*
D03*
Y265043D02*
D03*
Y262484D02*
D03*
X53976D02*
D03*
Y265043D02*
D03*
Y267602D02*
D03*
Y270161D02*
D03*
Y272721D02*
D03*
Y275279D02*
D03*
Y277839D02*
D03*
Y280398D02*
D03*
Y282957D02*
D03*
Y285516D02*
D03*
D20*
X265866Y301760D02*
D03*
X194866D02*
D03*
Y294240D02*
D03*
X203134Y298000D02*
D03*
X265866Y294240D02*
D03*
X274134Y298000D02*
D03*
X411866Y301760D02*
D03*
Y294240D02*
D03*
X420134Y298000D02*
D03*
X339866Y301760D02*
D03*
Y294240D02*
D03*
X348134Y298000D02*
D03*
X194866Y148760D02*
D03*
Y141240D02*
D03*
X203134Y145000D02*
D03*
X265866Y148760D02*
D03*
Y141240D02*
D03*
X274134Y145000D02*
D03*
X411866Y148760D02*
D03*
Y141240D02*
D03*
X420134Y145000D02*
D03*
X339866Y148760D02*
D03*
Y141240D02*
D03*
X348134Y145000D02*
D03*
D21*
X138850Y242000D02*
D03*
X142000D02*
D03*
X145150D02*
D03*
X148299D02*
D03*
X151449D02*
D03*
X154598D02*
D03*
X157748D02*
D03*
X160898D02*
D03*
Y208630D02*
D03*
X157748D02*
D03*
X154598D02*
D03*
X151449D02*
D03*
X148299D02*
D03*
X145150D02*
D03*
X142000D02*
D03*
X138850D02*
D03*
D22*
X166559Y236339D02*
D03*
Y233189D02*
D03*
Y230039D02*
D03*
Y226890D02*
D03*
Y223740D02*
D03*
Y220590D02*
D03*
Y217441D02*
D03*
Y214291D02*
D03*
X133189D02*
D03*
Y217441D02*
D03*
Y220590D02*
D03*
Y223740D02*
D03*
Y226890D02*
D03*
Y230039D02*
D03*
Y233189D02*
D03*
Y236339D02*
D03*
D23*
X284000Y119850D02*
D03*
Y126150D02*
D03*
X285000Y279150D02*
D03*
Y272850D02*
D03*
X429000Y279150D02*
D03*
Y272850D02*
D03*
X357000Y279150D02*
D03*
Y272850D02*
D03*
X240000Y334350D02*
D03*
Y340650D02*
D03*
X260000Y334350D02*
D03*
Y340650D02*
D03*
X192000Y334350D02*
D03*
Y340650D02*
D03*
X177500Y334350D02*
D03*
Y340650D02*
D03*
X163500Y334350D02*
D03*
Y340650D02*
D03*
X76000Y334350D02*
D03*
Y340650D02*
D03*
X86000Y334350D02*
D03*
Y340650D02*
D03*
X96000Y334350D02*
D03*
Y340650D02*
D03*
X106000Y334350D02*
D03*
Y340650D02*
D03*
X116000Y334350D02*
D03*
Y340650D02*
D03*
X126000Y334350D02*
D03*
Y340650D02*
D03*
X136000Y334350D02*
D03*
Y340650D02*
D03*
X146000Y334350D02*
D03*
Y340650D02*
D03*
X208000Y334350D02*
D03*
Y340650D02*
D03*
X220000Y334350D02*
D03*
Y340650D02*
D03*
X213000Y272850D02*
D03*
Y279150D02*
D03*
X429000Y119850D02*
D03*
Y126150D02*
D03*
X213000Y119850D02*
D03*
Y126150D02*
D03*
X357000Y119850D02*
D03*
Y126150D02*
D03*
M02*
