G04*
G04 #@! TF.GenerationSoftware,Altium Limited,Altium Designer,22.3.1 (43)*
G04*
G04 Layer_Color=128*
%FSLAX25Y25*%
%MOIN*%
G70*
G04*
G04 #@! TF.SameCoordinates,DE08D283-0CB9-458E-8042-9F6044BD937B*
G04*
G04*
G04 #@! TF.FilePolarity,Positive*
G04*
G01*
G75*
%ADD16R,0.03740X0.03150*%
%ADD17R,0.03150X0.03740*%
%ADD63R,0.12000X0.06000*%
D16*
X260000Y334350D02*
D03*
Y340650D02*
D03*
X240000Y334350D02*
D03*
Y340650D02*
D03*
X208000Y341150D02*
D03*
Y334850D02*
D03*
X220000Y341150D02*
D03*
Y334850D02*
D03*
X163500Y340650D02*
D03*
Y334350D02*
D03*
X177500Y340650D02*
D03*
Y334350D02*
D03*
X192000Y340650D02*
D03*
Y334350D02*
D03*
X116000Y340650D02*
D03*
Y334350D02*
D03*
X86000Y340650D02*
D03*
Y334350D02*
D03*
X76000Y340650D02*
D03*
Y334350D02*
D03*
X96000Y340650D02*
D03*
Y334350D02*
D03*
X106000Y340650D02*
D03*
Y334350D02*
D03*
X126000Y340650D02*
D03*
Y334350D02*
D03*
X136000Y340650D02*
D03*
Y334350D02*
D03*
X146000Y340650D02*
D03*
Y334350D02*
D03*
X224500Y196150D02*
D03*
Y189850D02*
D03*
X297000Y196150D02*
D03*
Y189850D02*
D03*
X369000Y196150D02*
D03*
Y189850D02*
D03*
X441000Y196150D02*
D03*
Y189850D02*
D03*
X369000Y43150D02*
D03*
Y36850D02*
D03*
X224500Y43150D02*
D03*
Y36850D02*
D03*
X297000Y43150D02*
D03*
Y36850D02*
D03*
X441000Y43150D02*
D03*
Y36850D02*
D03*
D17*
X146150Y220000D02*
D03*
X139850D02*
D03*
X151850Y226500D02*
D03*
X158150D02*
D03*
X146150D02*
D03*
X139850D02*
D03*
X151850Y220000D02*
D03*
X158150D02*
D03*
X146150Y233000D02*
D03*
X139850D02*
D03*
X151850D02*
D03*
X158150D02*
D03*
D63*
X259000Y251000D02*
D03*
X234000D02*
D03*
X306000D02*
D03*
X331000D02*
D03*
X475000D02*
D03*
X450000D02*
D03*
X378000D02*
D03*
X403000D02*
D03*
X259000Y98000D02*
D03*
X234000D02*
D03*
X306000D02*
D03*
X331000D02*
D03*
X475000D02*
D03*
X450000D02*
D03*
X378000D02*
D03*
X403000D02*
D03*
M02*
