G04*
G04 #@! TF.GenerationSoftware,Altium Limited,Altium Designer,22.3.1 (43)*
G04*
G04 Layer_Color=255*
%FSLAX25Y25*%
%MOIN*%
G70*
G04*
G04 #@! TF.SameCoordinates,DE08D283-0CB9-458E-8042-9F6044BD937B*
G04*
G04*
G04 #@! TF.FilePolarity,Positive*
G04*
G01*
G75*
%ADD16R,0.03740X0.03150*%
%ADD17R,0.03150X0.03740*%
%ADD42C,0.07677*%
%ADD43C,0.05906*%
%ADD44R,0.05906X0.05906*%
%ADD45O,0.05906X0.05906*%
%ADD46C,0.07087*%
%ADD47C,0.06000*%
%ADD48R,0.06000X0.06000*%
%ADD49C,0.20000*%
%ADD50R,0.05906X0.05906*%
%ADD63R,0.12000X0.06000*%
D16*
X260000Y334350D02*
D03*
Y340650D02*
D03*
X240000Y334350D02*
D03*
Y340650D02*
D03*
X208000Y341150D02*
D03*
Y334850D02*
D03*
X220000Y341150D02*
D03*
Y334850D02*
D03*
X163500Y340650D02*
D03*
Y334350D02*
D03*
X177500Y340650D02*
D03*
Y334350D02*
D03*
X192000Y340650D02*
D03*
Y334350D02*
D03*
X116000Y340650D02*
D03*
Y334350D02*
D03*
X86000Y340650D02*
D03*
Y334350D02*
D03*
X76000Y340650D02*
D03*
Y334350D02*
D03*
X96000Y340650D02*
D03*
Y334350D02*
D03*
X106000Y340650D02*
D03*
Y334350D02*
D03*
X126000Y340650D02*
D03*
Y334350D02*
D03*
X136000Y340650D02*
D03*
Y334350D02*
D03*
X146000Y340650D02*
D03*
Y334350D02*
D03*
X224500Y196150D02*
D03*
Y189850D02*
D03*
X297000Y196150D02*
D03*
Y189850D02*
D03*
X369000Y196150D02*
D03*
Y189850D02*
D03*
X441000Y196150D02*
D03*
Y189850D02*
D03*
X369000Y43150D02*
D03*
Y36850D02*
D03*
X224500Y43150D02*
D03*
Y36850D02*
D03*
X297000Y43150D02*
D03*
Y36850D02*
D03*
X441000Y43150D02*
D03*
Y36850D02*
D03*
D17*
X146150Y220000D02*
D03*
X139850D02*
D03*
X151850Y226500D02*
D03*
X158150D02*
D03*
X146150D02*
D03*
X139850D02*
D03*
X151850Y220000D02*
D03*
X158150D02*
D03*
X146150Y233000D02*
D03*
X139850D02*
D03*
X151850D02*
D03*
X158150D02*
D03*
D42*
X248378Y215126D02*
D03*
X272000Y271031D02*
D03*
X344000D02*
D03*
X320378Y215126D02*
D03*
X392378D02*
D03*
X416000Y271031D02*
D03*
X488000D02*
D03*
X464378Y215126D02*
D03*
X248378Y62126D02*
D03*
X272000Y118032D02*
D03*
X344000D02*
D03*
X320378Y62126D02*
D03*
X392378D02*
D03*
X416000Y118032D02*
D03*
X488000D02*
D03*
X464378Y62126D02*
D03*
D43*
X224756Y223000D02*
D03*
X296756D02*
D03*
X368756D02*
D03*
X440756D02*
D03*
X224756Y70000D02*
D03*
X296756D02*
D03*
X368756D02*
D03*
X440756D02*
D03*
X70000Y80000D02*
D03*
X80000D02*
D03*
X70000Y70000D02*
D03*
X80000D02*
D03*
X70000Y60000D02*
D03*
D44*
X272000Y223000D02*
D03*
X344000D02*
D03*
X416000D02*
D03*
X488000D02*
D03*
X272000Y70000D02*
D03*
X344000D02*
D03*
X416000D02*
D03*
X488000D02*
D03*
X80000Y60000D02*
D03*
D45*
X224756Y271031D02*
D03*
X296756D02*
D03*
X368756D02*
D03*
X440756D02*
D03*
X224756Y118032D02*
D03*
X296756D02*
D03*
X368756D02*
D03*
X440756D02*
D03*
D46*
X263500Y21000D02*
D03*
X248500D02*
D03*
X233500D02*
D03*
X263500Y174000D02*
D03*
X248500D02*
D03*
X233500D02*
D03*
X335000Y21000D02*
D03*
X320000D02*
D03*
X305000D02*
D03*
X335000Y174000D02*
D03*
X320000D02*
D03*
X305000D02*
D03*
X407500Y21000D02*
D03*
X392500D02*
D03*
X377500D02*
D03*
X407500Y174000D02*
D03*
X392500D02*
D03*
X377500D02*
D03*
X479500Y21000D02*
D03*
X464500D02*
D03*
X449500D02*
D03*
X479500Y174000D02*
D03*
X464500D02*
D03*
X449500D02*
D03*
D47*
X30000Y120000D02*
D03*
Y130000D02*
D03*
Y140000D02*
D03*
Y150000D02*
D03*
Y160000D02*
D03*
Y170000D02*
D03*
Y180000D02*
D03*
X20000Y120000D02*
D03*
Y130000D02*
D03*
Y140000D02*
D03*
Y150000D02*
D03*
Y160000D02*
D03*
Y170000D02*
D03*
X30000Y190000D02*
D03*
X20000Y180000D02*
D03*
D48*
Y190000D02*
D03*
D49*
X540000Y20000D02*
D03*
Y380000D02*
D03*
X20000D02*
D03*
Y20000D02*
D03*
D50*
X430000Y370000D02*
D03*
X416000D02*
D03*
X458000D02*
D03*
X444000D02*
D03*
X430000Y348000D02*
D03*
X416000D02*
D03*
X458000D02*
D03*
X444000D02*
D03*
X72000Y34000D02*
D03*
X60000D02*
D03*
X280000Y355000D02*
D03*
X84000Y34000D02*
D03*
X96000D02*
D03*
X120000D02*
D03*
X108000D02*
D03*
X144000D02*
D03*
X132000D02*
D03*
X156000D02*
D03*
D63*
X259000Y251000D02*
D03*
X234000D02*
D03*
X306000D02*
D03*
X331000D02*
D03*
X475000D02*
D03*
X450000D02*
D03*
X378000D02*
D03*
X403000D02*
D03*
X259000Y98000D02*
D03*
X234000D02*
D03*
X306000D02*
D03*
X331000D02*
D03*
X475000D02*
D03*
X450000D02*
D03*
X378000D02*
D03*
X403000D02*
D03*
M02*
