G04*
G04 #@! TF.GenerationSoftware,Altium Limited,Altium Designer,22.3.1 (43)*
G04*
G04 Layer_Color=65535*
%FSLAX25Y25*%
%MOIN*%
G70*
G04*
G04 #@! TF.SameCoordinates,DE08D283-0CB9-458E-8042-9F6044BD937B*
G04*
G04*
G04 #@! TF.FilePolarity,Positive*
G04*
G01*
G75*
%ADD10C,0.00394*%
%ADD11C,0.01575*%
%ADD12C,0.01000*%
%ADD13C,0.00500*%
%ADD14C,0.00787*%
%ADD15C,0.00800*%
D10*
X272000Y207646D02*
G03*
X272000Y207252I0J-197D01*
G01*
D02*
G03*
X272000Y207646I0J197D01*
G01*
X344000Y207252D02*
G03*
X344000Y207646I0J197D01*
G01*
D02*
G03*
X344000Y207252I0J-197D01*
G01*
X416000Y207646D02*
G03*
X416000Y207252I0J-197D01*
G01*
D02*
G03*
X416000Y207646I0J197D01*
G01*
X488000Y207252D02*
G03*
X488000Y207646I0J197D01*
G01*
D02*
G03*
X488000Y207252I0J-197D01*
G01*
X272000Y54646D02*
G03*
X272000Y54252I0J-197D01*
G01*
D02*
G03*
X272000Y54646I0J197D01*
G01*
X344000Y54252D02*
G03*
X344000Y54646I0J197D01*
G01*
D02*
G03*
X344000Y54252I0J-197D01*
G01*
X416000Y54646D02*
G03*
X416000Y54252I0J-197D01*
G01*
D02*
G03*
X416000Y54646I0J197D01*
G01*
X488000Y54252D02*
G03*
X488000Y54646I0J197D01*
G01*
D02*
G03*
X488000Y54252I0J-197D01*
G01*
D11*
X132650Y241063D02*
G03*
X132650Y241063I-787J0D01*
G01*
D12*
X231000Y347500D02*
X271000D01*
X231000Y357500D02*
X271000D01*
Y347500D02*
Y357500D01*
X231000Y347500D02*
Y357500D01*
Y359500D02*
X271000D01*
X231000Y369500D02*
X271000D01*
Y359500D02*
Y369500D01*
X231000Y359500D02*
Y369500D01*
X71750Y359500D02*
X228750D01*
X71750Y369500D02*
X228750D01*
Y359500D02*
Y369500D01*
X71750Y359500D02*
Y369500D01*
X154000Y347500D02*
X229000D01*
X154000Y357500D02*
X229000D01*
Y347500D02*
Y357500D01*
X154000Y347500D02*
Y357500D01*
X71500Y347500D02*
X152500D01*
X71500Y357500D02*
X152500D01*
Y347500D02*
Y357500D01*
X71500Y347500D02*
Y357500D01*
X11000Y165000D02*
Y169000D01*
X7000D02*
X11000D01*
X7000Y210000D02*
X43000D01*
Y100000D02*
Y210000D01*
X7000Y100000D02*
X43000D01*
X7000D02*
Y145000D01*
Y169000D02*
Y210000D01*
Y145000D02*
X11000D01*
Y165000D01*
X281500Y116500D02*
X286000D01*
X280000Y115000D02*
X287500D01*
Y131000D01*
X280000D02*
X287500D01*
X280000Y115000D02*
Y131000D01*
X281000Y268000D02*
Y284000D01*
X288500D01*
Y268000D02*
Y284000D01*
X281000Y268000D02*
X288500D01*
X282500Y269500D02*
X287000D01*
X425000Y268000D02*
Y284000D01*
X432500D01*
Y268000D02*
Y284000D01*
X425000Y268000D02*
X432500D01*
X426500Y269500D02*
X431000D01*
X353000Y268000D02*
Y284000D01*
X360500D01*
Y268000D02*
Y284000D01*
X353000Y268000D02*
X360500D01*
X354500Y269500D02*
X359000D01*
X237500Y331000D02*
X242000D01*
X236000Y329500D02*
X243500D01*
Y345500D01*
X236000D02*
X243500D01*
X236000Y329500D02*
Y345500D01*
X257500Y331000D02*
X262000D01*
X256000Y329500D02*
X263500D01*
Y345500D01*
X256000D02*
X263500D01*
X256000Y329500D02*
Y345500D01*
X189500Y331000D02*
X194000D01*
X188000Y329500D02*
X195500D01*
Y345500D01*
X188000D02*
X195500D01*
X188000Y329500D02*
Y345500D01*
X175000Y331000D02*
X179500D01*
X173500Y329500D02*
X181000D01*
Y345500D01*
X173500D02*
X181000D01*
X173500Y329500D02*
Y345500D01*
X161000Y331000D02*
X165500D01*
X159500Y329500D02*
X167000D01*
Y345500D01*
X159500D02*
X167000D01*
X159500Y329500D02*
Y345500D01*
X73500Y331000D02*
X78000D01*
X72000Y329500D02*
X79500D01*
Y345500D01*
X72000D02*
X79500D01*
X72000Y329500D02*
Y345500D01*
X83500Y331000D02*
X88000D01*
X82000Y329500D02*
X89500D01*
Y345500D01*
X82000D02*
X89500D01*
X82000Y329500D02*
Y345500D01*
X93500Y331000D02*
X98000D01*
X92000Y329500D02*
X99500D01*
Y345500D01*
X92000D02*
X99500D01*
X92000Y329500D02*
Y345500D01*
X103500Y331000D02*
X108000D01*
X102000Y329500D02*
X109500D01*
Y345500D01*
X102000D02*
X109500D01*
X102000Y329500D02*
Y345500D01*
X113500Y331000D02*
X118000D01*
X112000Y329500D02*
X119500D01*
Y345500D01*
X112000D02*
X119500D01*
X112000Y329500D02*
Y345500D01*
X123500Y331000D02*
X128000D01*
X122000Y329500D02*
X129500D01*
Y345500D01*
X122000D02*
X129500D01*
X122000Y329500D02*
Y345500D01*
X133500Y331000D02*
X138000D01*
X132000Y329500D02*
X139500D01*
Y345500D01*
X132000D02*
X139500D01*
X132000Y329500D02*
Y345500D01*
X143500Y331000D02*
X148000D01*
X142000Y329500D02*
X149500D01*
Y345500D01*
X142000D02*
X149500D01*
X142000Y329500D02*
Y345500D01*
X205500Y331000D02*
X210000D01*
X204000Y329500D02*
X211500D01*
Y345500D01*
X204000D02*
X211500D01*
X204000Y329500D02*
Y345500D01*
X217500Y331000D02*
X222000D01*
X216000Y329500D02*
X223500D01*
Y345500D01*
X216000D02*
X223500D01*
X216000Y329500D02*
Y345500D01*
X435000Y365000D02*
Y375000D01*
X425000Y365000D02*
X435000D01*
X425000D02*
Y375000D01*
X435000D01*
X433000Y365000D02*
X435000D01*
X421000D02*
Y375000D01*
X411000Y365000D02*
X421000D01*
X411000D02*
Y375000D01*
X421000D01*
X419000Y365000D02*
X421000D01*
X463000D02*
Y375000D01*
X453000Y365000D02*
X463000D01*
X453000D02*
Y375000D01*
X463000D01*
X461000Y365000D02*
X463000D01*
X449000D02*
Y375000D01*
X439000Y365000D02*
X449000D01*
X439000D02*
Y375000D01*
X449000D01*
X447000Y365000D02*
X449000D01*
X435000Y343000D02*
Y353000D01*
X425000Y343000D02*
X435000D01*
X425000D02*
Y353000D01*
X435000D01*
X433000Y343000D02*
X435000D01*
X421000D02*
Y353000D01*
X411000Y343000D02*
X421000D01*
X411000D02*
Y353000D01*
X421000D01*
X419000Y343000D02*
X421000D01*
X463000D02*
Y353000D01*
X453000Y343000D02*
X463000D01*
X453000D02*
Y353000D01*
X463000D01*
X461000Y343000D02*
X463000D01*
X449000D02*
Y353000D01*
X439000Y343000D02*
X449000D01*
X439000D02*
Y353000D01*
X449000D01*
X447000Y343000D02*
X449000D01*
X77000Y29000D02*
Y39000D01*
X67000Y29000D02*
X77000D01*
X67000D02*
Y39000D01*
X77000D01*
X75000Y29000D02*
X77000D01*
X65000D02*
Y39000D01*
X55000Y29000D02*
X65000D01*
X55000D02*
Y39000D01*
X65000D01*
X63000Y29000D02*
X65000D01*
X285000Y350000D02*
Y360000D01*
X275000Y350000D02*
X285000D01*
X275000D02*
Y360000D01*
X285000D01*
X283000Y350000D02*
X285000D01*
X89000Y29000D02*
Y39000D01*
X79000Y29000D02*
X89000D01*
X79000D02*
Y39000D01*
X89000D01*
X87000Y29000D02*
X89000D01*
X101000D02*
Y39000D01*
X91000Y29000D02*
X101000D01*
X91000D02*
Y39000D01*
X101000D01*
X99000Y29000D02*
X101000D01*
X125000D02*
Y39000D01*
X115000Y29000D02*
X125000D01*
X115000D02*
Y39000D01*
X125000D01*
X123000Y29000D02*
X125000D01*
X113000D02*
Y39000D01*
X103000Y29000D02*
X113000D01*
X103000D02*
Y39000D01*
X113000D01*
X111000Y29000D02*
X113000D01*
X149000D02*
Y39000D01*
X139000Y29000D02*
X149000D01*
X139000D02*
Y39000D01*
X149000D01*
X147000Y29000D02*
X149000D01*
X137000D02*
Y39000D01*
X127000Y29000D02*
X137000D01*
X127000D02*
Y39000D01*
X137000D01*
X135000Y29000D02*
X137000D01*
X161000D02*
Y39000D01*
X151000Y29000D02*
X161000D01*
X151000D02*
Y39000D01*
X161000D01*
X159000Y29000D02*
X161000D01*
X210500Y269500D02*
X215000D01*
X209000Y268000D02*
X216500D01*
Y284000D01*
X209000D02*
X216500D01*
X209000Y268000D02*
Y284000D01*
X426500Y116500D02*
X431000D01*
X425000Y115000D02*
X432500D01*
Y131000D01*
X425000D02*
X432500D01*
X425000Y115000D02*
Y131000D01*
X210500Y116500D02*
X215000D01*
X209000Y115000D02*
X216500D01*
Y131000D01*
X209000D02*
X216500D01*
X209000Y115000D02*
Y131000D01*
X354500Y116500D02*
X359000D01*
X353000Y115000D02*
X360500D01*
Y131000D01*
X353000D02*
X360500D01*
X353000Y115000D02*
Y131000D01*
X547002Y90000D02*
X551001D01*
X553000Y91999D01*
X551001Y93999D01*
X547002D01*
X553000Y98997D02*
Y96998D01*
X552000Y95998D01*
X550001D01*
X549001Y96998D01*
Y98997D01*
X550001Y99997D01*
X551001D01*
Y95998D01*
X549001Y101996D02*
X553000D01*
X551001D01*
X550001Y102996D01*
X549001Y103996D01*
Y104995D01*
X553000Y107994D02*
Y110993D01*
X552000Y111993D01*
X551001Y110993D01*
Y108994D01*
X550001Y107994D01*
X549001Y108994D01*
Y111993D01*
X553000Y113992D02*
Y115992D01*
Y114992D01*
X549001D01*
Y113992D01*
X553000Y119990D02*
Y121990D01*
X552000Y122989D01*
X550001D01*
X549001Y121990D01*
Y119990D01*
X550001Y118991D01*
X552000D01*
X553000Y119990D01*
Y124989D02*
X549001D01*
Y127988D01*
X550001Y128987D01*
X553000D01*
Y136985D02*
Y138984D01*
Y137985D01*
X547002D01*
X548002Y136985D01*
X553000Y141983D02*
X552000D01*
Y142983D01*
X553000D01*
Y141983D01*
Y146982D02*
Y148981D01*
Y147981D01*
X547002D01*
X548002Y146982D01*
X551001Y163000D02*
X545003D01*
Y165999D01*
X546002Y166999D01*
X548002D01*
X549001Y165999D01*
Y163000D01*
X551001Y168998D02*
X547002Y172997D01*
X551001Y174996D02*
X545003D01*
X551001Y178995D01*
X545003D01*
X551001Y186992D02*
X545003D01*
Y189991D01*
X546002Y190991D01*
X548002D01*
X549001Y189991D01*
Y186992D01*
Y188992D02*
X551001Y190991D01*
Y195989D02*
Y193990D01*
X550001Y192990D01*
X548002D01*
X547002Y193990D01*
Y195989D01*
X548002Y196989D01*
X549001D01*
Y192990D01*
X551001Y198988D02*
Y200988D01*
Y199988D01*
X545003D01*
Y198988D01*
X547002Y204986D02*
Y206986D01*
X548002Y207985D01*
X551001D01*
Y204986D01*
X550001Y203987D01*
X549001Y204986D01*
Y207985D01*
X547002Y209985D02*
X550001D01*
X551001Y210984D01*
Y213983D01*
X552000D01*
X553000Y212984D01*
Y211984D01*
X551001Y213983D02*
X547002D01*
X548002Y215983D02*
Y219982D01*
X546002Y221981D02*
X545003Y222981D01*
Y224980D01*
X546002Y225980D01*
X547002D01*
X548002Y224980D01*
Y223980D01*
Y224980D01*
X549001Y225980D01*
X550001D01*
X551001Y224980D01*
Y222981D01*
X550001Y221981D01*
X551001Y231978D02*
Y227979D01*
X547002Y231978D01*
X546002D01*
X545003Y230978D01*
Y228979D01*
X546002Y227979D01*
X550001Y233977D02*
X551001Y234977D01*
Y236976D01*
X550001Y237976D01*
X546002D01*
X545003Y236976D01*
Y234977D01*
X546002Y233977D01*
X547002D01*
X548002Y234977D01*
Y237976D01*
X545003Y243974D02*
Y239975D01*
X548002D01*
X547002Y241974D01*
Y242974D01*
X548002Y243974D01*
X550001D01*
X551001Y242974D01*
Y240975D01*
X550001Y239975D01*
X546002Y245973D02*
X545003Y246973D01*
Y248972D01*
X546002Y249972D01*
X547002D01*
X548002Y248972D01*
X549001Y249972D01*
X550001D01*
X551001Y248972D01*
Y246973D01*
X550001Y245973D01*
X549001D01*
X548002Y246973D01*
X547002Y245973D01*
X546002D01*
X548002Y246973D02*
Y248972D01*
X83500Y353999D02*
Y350000D01*
X85499D01*
X86166Y350666D01*
Y353332D01*
X85499Y353999D01*
X83500D01*
X90165D02*
X88832Y353332D01*
X87499Y351999D01*
Y350666D01*
X88165Y350000D01*
X89498D01*
X90165Y350666D01*
Y351333D01*
X89498Y351999D01*
X87499D01*
X113500Y353999D02*
Y350000D01*
X115499D01*
X116166Y350666D01*
Y353332D01*
X115499Y353999D01*
X113500D01*
X117499Y353332D02*
X118165Y353999D01*
X119498D01*
X120165Y353332D01*
Y352666D01*
X119498Y351999D01*
X118832D01*
X119498D01*
X120165Y351333D01*
Y350666D01*
X119498Y350000D01*
X118165D01*
X117499Y350666D01*
X93500Y353999D02*
Y350000D01*
X95499D01*
X96166Y350666D01*
Y353332D01*
X95499Y353999D01*
X93500D01*
X100164D02*
X97499D01*
Y351999D01*
X98832Y352666D01*
X99498D01*
X100164Y351999D01*
Y350666D01*
X99498Y350000D01*
X98165D01*
X97499Y350666D01*
X103500Y353999D02*
Y350000D01*
X105499D01*
X106166Y350666D01*
Y353332D01*
X105499Y353999D01*
X103500D01*
X109498Y350000D02*
Y353999D01*
X107499Y351999D01*
X110164D01*
X73500Y353999D02*
Y350000D01*
X75499D01*
X76166Y350666D01*
Y353332D01*
X75499Y353999D01*
X73500D01*
X77499D02*
X80164D01*
Y353332D01*
X77499Y350666D01*
Y350000D01*
X159000Y353999D02*
X160333D01*
X159667D01*
Y350000D01*
X159000D01*
X160333D01*
X162332D02*
Y352666D01*
X164332D01*
X164998Y351999D01*
Y350000D01*
X166997Y353332D02*
Y352666D01*
X166331D01*
X167664D01*
X166997D01*
Y350666D01*
X167664Y350000D01*
X143000Y353999D02*
Y350000D01*
X144999D01*
X145666Y350666D01*
Y353332D01*
X144999Y353999D01*
X143000D01*
X146999Y353332D02*
X147665Y353999D01*
X148998D01*
X149664Y353332D01*
Y350666D01*
X148998Y350000D01*
X147665D01*
X146999Y350666D01*
Y353332D01*
X133500Y353999D02*
Y350000D01*
X135499D01*
X136166Y350666D01*
Y353332D01*
X135499Y353999D01*
X133500D01*
X137499Y350000D02*
X138832D01*
X138165D01*
Y353999D01*
X137499Y353332D01*
X123500Y353999D02*
Y350000D01*
X125499D01*
X126166Y350666D01*
Y353332D01*
X125499Y353999D01*
X123500D01*
X130165Y350000D02*
X127499D01*
X130165Y352666D01*
Y353332D01*
X129498Y353999D01*
X128165D01*
X127499Y353332D01*
X141000Y382999D02*
Y386998D01*
X142999Y388997D01*
X144999Y386998D01*
Y382999D01*
Y385998D01*
X141000D01*
X146998Y388997D02*
Y382999D01*
X149997D01*
X150997Y383999D01*
Y384999D01*
X149997Y385998D01*
X146998D01*
X149997D01*
X150997Y386998D01*
Y387998D01*
X149997Y388997D01*
X146998D01*
X156995Y387998D02*
X155995Y388997D01*
X153996D01*
X152996Y387998D01*
Y386998D01*
X153996Y385998D01*
X155995D01*
X156995Y384999D01*
Y383999D01*
X155995Y382999D01*
X153996D01*
X152996Y383999D01*
X164992Y388997D02*
Y382999D01*
X167991D01*
X168991Y383999D01*
Y387998D01*
X167991Y388997D01*
X164992D01*
X171990Y386998D02*
X173989D01*
X174989Y385998D01*
Y382999D01*
X171990D01*
X170990Y383999D01*
X171990Y384999D01*
X174989D01*
X177988Y387998D02*
Y386998D01*
X176988D01*
X178988D01*
X177988D01*
Y383999D01*
X178988Y382999D01*
X182986Y386998D02*
X184986D01*
X185985Y385998D01*
Y382999D01*
X182986D01*
X181987Y383999D01*
X182986Y384999D01*
X185985D01*
X197982Y387998D02*
X196982Y388997D01*
X194983D01*
X193983Y387998D01*
Y386998D01*
X194983Y385998D01*
X196982D01*
X197982Y384999D01*
Y383999D01*
X196982Y382999D01*
X194983D01*
X193983Y383999D01*
X199981Y386998D02*
Y383999D01*
X200981Y382999D01*
X203980D01*
Y382000D01*
X202980Y381000D01*
X201980D01*
X203980Y382999D02*
Y386998D01*
X205979Y382999D02*
X208978D01*
X209978Y383999D01*
X208978Y384999D01*
X206979D01*
X205979Y385998D01*
X206979Y386998D01*
X209978D01*
X212977Y387998D02*
Y386998D01*
X211977D01*
X213976D01*
X212977D01*
Y383999D01*
X213976Y382999D01*
X219974D02*
X217975D01*
X216975Y383999D01*
Y385998D01*
X217975Y386998D01*
X219974D01*
X220974Y385998D01*
Y384999D01*
X216975D01*
X222973Y382999D02*
Y386998D01*
X223973D01*
X224973Y385998D01*
Y382999D01*
Y385998D01*
X225973Y386998D01*
X226972Y385998D01*
Y382999D01*
X228972D02*
X231971D01*
X232970Y383999D01*
X231971Y384999D01*
X229971D01*
X228972Y385998D01*
X229971Y386998D01*
X232970D01*
X235969Y382000D02*
X236969Y382999D01*
Y383999D01*
X235969D01*
Y382999D01*
X236969D01*
X235969Y382000D01*
X234970Y381000D01*
X246966Y388997D02*
X248965D01*
X247965D01*
Y382999D01*
X246966D01*
X248965D01*
X251964D02*
Y386998D01*
X254963D01*
X255963Y385998D01*
Y382999D01*
X261961Y386998D02*
X258962D01*
X257962Y385998D01*
Y383999D01*
X258962Y382999D01*
X261961D01*
X264960Y382000D02*
X265960Y382999D01*
Y383999D01*
X264960D01*
Y382999D01*
X265960D01*
X264960Y382000D01*
X263960Y381000D01*
X277956Y382999D02*
X275956Y384999D01*
Y386998D01*
X277956Y388997D01*
X284953Y386998D02*
X281954D01*
X280955Y385998D01*
Y383999D01*
X281954Y382999D01*
X284953D01*
X286953D02*
X288952Y384999D01*
Y386998D01*
X286953Y388997D01*
X301948Y387998D02*
X300948Y388997D01*
X298949D01*
X297949Y387998D01*
Y383999D01*
X298949Y382999D01*
X300948D01*
X301948Y383999D01*
X304947Y382999D02*
X306946D01*
X307946Y383999D01*
Y385998D01*
X306946Y386998D01*
X304947D01*
X303947Y385998D01*
Y383999D01*
X304947Y382999D01*
X309945Y381000D02*
Y386998D01*
X312944D01*
X313944Y385998D01*
Y383999D01*
X312944Y382999D01*
X309945D01*
X315943Y386998D02*
Y383999D01*
X316943Y382999D01*
X319942D01*
Y382000D01*
X318942Y381000D01*
X317943D01*
X319942Y382999D02*
Y386998D01*
X321941D02*
Y382999D01*
Y384999D01*
X322941Y385998D01*
X323941Y386998D01*
X324940D01*
X327940Y382999D02*
X329939D01*
X328939D01*
Y386998D01*
X327940D01*
X334937Y381000D02*
X335937D01*
X336937Y382000D01*
Y386998D01*
X333938D01*
X332938Y385998D01*
Y383999D01*
X333938Y382999D01*
X336937D01*
X338936Y388997D02*
Y382999D01*
Y385998D01*
X339936Y386998D01*
X341935D01*
X342935Y385998D01*
Y382999D01*
X345934Y387998D02*
Y386998D01*
X344934D01*
X346933D01*
X345934D01*
Y383999D01*
X346933Y382999D01*
X359929D02*
X355930D01*
X359929Y386998D01*
Y387998D01*
X358929Y388997D01*
X356930D01*
X355930Y387998D01*
X361929D02*
X362928Y388997D01*
X364928D01*
X365927Y387998D01*
Y383999D01*
X364928Y382999D01*
X362928D01*
X361929Y383999D01*
Y387998D01*
X371925Y382999D02*
X367927D01*
X371925Y386998D01*
Y387998D01*
X370926Y388997D01*
X368926D01*
X367927Y387998D01*
X377923Y388997D02*
X373925D01*
Y385998D01*
X375924Y386998D01*
X376924D01*
X377923Y385998D01*
Y383999D01*
X376924Y382999D01*
X374924D01*
X373925Y383999D01*
X217000Y353999D02*
Y350000D01*
X218333Y351333D01*
X219666Y350000D01*
Y353999D01*
X220999Y350000D02*
Y353999D01*
X222998D01*
X223664Y353332D01*
Y351999D01*
X222998Y351333D01*
X220999D01*
X222332D02*
X223664Y350000D01*
X173000D02*
Y353999D01*
X174999D01*
X175666Y353332D01*
Y351999D01*
X174999Y351333D01*
X173000D01*
X174333D02*
X175666Y350000D01*
X176999D02*
X178998D01*
X179665Y350666D01*
X178998Y351333D01*
X177665D01*
X176999Y351999D01*
X177665Y352666D01*
X179665D01*
X181664Y353332D02*
Y352666D01*
X180997D01*
X182330D01*
X181664D01*
Y350666D01*
X182330Y350000D01*
X191666Y353332D02*
X190999Y353999D01*
X189666D01*
X189000Y353332D01*
Y350666D01*
X189666Y350000D01*
X190999D01*
X191666Y350666D01*
X195665Y353332D02*
X194998Y353999D01*
X193665D01*
X192999Y353332D01*
Y352666D01*
X193665Y351999D01*
X194998D01*
X195665Y351333D01*
Y350666D01*
X194998Y350000D01*
X193665D01*
X192999Y350666D01*
X121666Y366332D02*
X120999Y366999D01*
X119667D01*
X119000Y366332D01*
Y363666D01*
X119667Y363000D01*
X120999D01*
X121666Y363666D01*
X122999Y363000D02*
Y366999D01*
X124998D01*
X125664Y366332D01*
Y364999D01*
X124998Y364333D01*
X122999D01*
X126997Y366999D02*
Y363666D01*
X127664Y363000D01*
X128997D01*
X129663Y363666D01*
Y366999D01*
X134995D02*
Y363000D01*
X136994D01*
X137661Y363666D01*
Y364333D01*
X136994Y364999D01*
X134995D01*
X136994D01*
X137661Y365666D01*
Y366332D01*
X136994Y366999D01*
X134995D01*
X138994Y365666D02*
Y363666D01*
X139660Y363000D01*
X141659D01*
Y365666D01*
X142992Y363000D02*
X144992D01*
X145658Y363666D01*
X144992Y364333D01*
X143659D01*
X142992Y364999D01*
X143659Y365666D01*
X145658D01*
X151656D02*
X152989D01*
X153656Y364999D01*
Y363000D01*
X151656D01*
X150990Y363666D01*
X151656Y364333D01*
X153656D01*
X154988Y363000D02*
Y365666D01*
X156988D01*
X157654Y364999D01*
Y363000D01*
X161653Y366999D02*
Y363000D01*
X159653D01*
X158987Y363666D01*
Y364999D01*
X159653Y365666D01*
X161653D01*
X169650Y366332D02*
X168984Y366999D01*
X167651D01*
X166984Y366332D01*
Y363666D01*
X167651Y363000D01*
X168984D01*
X169650Y363666D01*
X171650Y363000D02*
X172983D01*
X173649Y363666D01*
Y364999D01*
X172983Y365666D01*
X171650D01*
X170983Y364999D01*
Y363666D01*
X171650Y363000D01*
X174982D02*
Y365666D01*
X176981D01*
X177648Y364999D01*
Y363000D01*
X179647Y366332D02*
Y365666D01*
X178981D01*
X180314D01*
X179647D01*
Y363666D01*
X180314Y363000D01*
X182313Y365666D02*
Y363000D01*
Y364333D01*
X182979Y364999D01*
X183646Y365666D01*
X184312D01*
X186978Y363000D02*
X188311D01*
X188977Y363666D01*
Y364999D01*
X188311Y365666D01*
X186978D01*
X186312Y364999D01*
Y363666D01*
X186978Y363000D01*
X190310D02*
X191643D01*
X190977D01*
Y366999D01*
X190310D01*
X204500Y350000D02*
Y353999D01*
X206499D01*
X207166Y353332D01*
Y351999D01*
X206499Y351333D01*
X204500D01*
X205833D02*
X207166Y350000D01*
X208499Y353999D02*
Y350000D01*
X210498D01*
X211164Y350666D01*
Y353332D01*
X210498Y353999D01*
X208499D01*
X242000Y362000D02*
Y365999D01*
X243999D01*
X244666Y365332D01*
Y363999D01*
X243999Y363333D01*
X242000D01*
X246665Y362000D02*
X247998D01*
X248664Y362666D01*
Y363999D01*
X247998Y364666D01*
X246665D01*
X245999Y363999D01*
Y362666D01*
X246665Y362000D01*
X249997Y364666D02*
Y362666D01*
X250664Y362000D01*
X251330Y362666D01*
X251997Y362000D01*
X252663Y362666D01*
Y364666D01*
X255995Y362000D02*
X254663D01*
X253996Y362666D01*
Y363999D01*
X254663Y364666D01*
X255995D01*
X256662Y363999D01*
Y363333D01*
X253996D01*
X257995Y364666D02*
Y362000D01*
Y363333D01*
X258661Y363999D01*
X259328Y364666D01*
X259994D01*
X259666Y353999D02*
X257000D01*
Y351999D01*
X258333Y352666D01*
X258999D01*
X259666Y351999D01*
Y350666D01*
X258999Y350000D01*
X257666D01*
X257000Y350666D01*
X260999Y353999D02*
Y351333D01*
X262332Y350000D01*
X263665Y351333D01*
Y353999D01*
X234000Y353332D02*
X234666Y353999D01*
X235999D01*
X236666Y353332D01*
Y352666D01*
X235999Y351999D01*
X235333D01*
X235999D01*
X236666Y351333D01*
Y350666D01*
X235999Y350000D01*
X234666D01*
X234000Y350666D01*
X237999Y350000D02*
Y350666D01*
X238665D01*
Y350000D01*
X237999D01*
X241331Y353332D02*
X241997Y353999D01*
X243330D01*
X243997Y353332D01*
Y352666D01*
X243330Y351999D01*
X242664D01*
X243330D01*
X243997Y351333D01*
Y350666D01*
X243330Y350000D01*
X241997D01*
X241331Y350666D01*
X245330Y353999D02*
Y351333D01*
X246663Y350000D01*
X247995Y351333D01*
Y353999D01*
X202999Y263668D02*
X199001D01*
Y265668D01*
X199667Y266334D01*
X201000D01*
X201666Y265668D01*
Y263668D01*
Y265001D02*
X202999Y266334D01*
X199001Y270333D02*
Y267667D01*
X201000D01*
X200333Y269000D01*
Y269667D01*
X201000Y270333D01*
X202333D01*
X202999Y269667D01*
Y268334D01*
X202333Y267667D01*
X199001Y274332D02*
Y271666D01*
X201000D01*
X200333Y272999D01*
Y273665D01*
X201000Y274332D01*
X202333D01*
X202999Y273665D01*
Y272332D01*
X202333Y271666D01*
X231668Y286001D02*
Y289999D01*
X233668D01*
X234334Y289333D01*
Y288000D01*
X233668Y287334D01*
X231668D01*
X233001D02*
X234334Y286001D01*
X238333Y289999D02*
X235667D01*
Y288000D01*
X237000Y288666D01*
X237666D01*
X238333Y288000D01*
Y286667D01*
X237666Y286001D01*
X236334D01*
X235667Y286667D01*
X241665Y286001D02*
Y289999D01*
X239666Y288000D01*
X242332D01*
X306668Y287851D02*
Y291850D01*
X308668D01*
X309334Y291183D01*
Y289850D01*
X308668Y289184D01*
X306668D01*
X308001D02*
X309334Y287851D01*
X313333Y291850D02*
X310667D01*
Y289850D01*
X312000Y290517D01*
X312666D01*
X313333Y289850D01*
Y288517D01*
X312666Y287851D01*
X311334D01*
X310667Y288517D01*
X314666Y291183D02*
X315332Y291850D01*
X316665D01*
X317332Y291183D01*
Y290517D01*
X316665Y289850D01*
X315999D01*
X316665D01*
X317332Y289184D01*
Y288517D01*
X316665Y287851D01*
X315332D01*
X314666Y288517D01*
X392668Y309001D02*
Y312999D01*
X394668D01*
X395334Y312333D01*
Y311000D01*
X394668Y310334D01*
X392668D01*
X394001D02*
X395334Y309001D01*
X399333Y312999D02*
X396667D01*
Y311000D01*
X398000Y311666D01*
X398666D01*
X399333Y311000D01*
Y309667D01*
X398666Y309001D01*
X397334D01*
X396667Y309667D01*
X403332Y309001D02*
X400666D01*
X403332Y311666D01*
Y312333D01*
X402665Y312999D01*
X401332D01*
X400666Y312333D01*
X190335Y160001D02*
Y163999D01*
X192334D01*
X193001Y163333D01*
Y162000D01*
X192334Y161334D01*
X190335D01*
X191668D02*
X193001Y160001D01*
X196999Y163999D02*
X194334D01*
Y162000D01*
X195667Y162666D01*
X196333D01*
X196999Y162000D01*
Y160667D01*
X196333Y160001D01*
X195000D01*
X194334Y160667D01*
X198332Y160001D02*
X199665D01*
X198999D01*
Y163999D01*
X198332Y163333D01*
X232668Y134001D02*
Y137999D01*
X234668D01*
X235334Y137333D01*
Y136000D01*
X234668Y135334D01*
X232668D01*
X234001D02*
X235334Y134001D01*
X239333Y137999D02*
X236667D01*
Y136000D01*
X238000Y136667D01*
X238666D01*
X239333Y136000D01*
Y134667D01*
X238666Y134001D01*
X237334D01*
X236667Y134667D01*
X240666Y137333D02*
X241332Y137999D01*
X242665D01*
X243332Y137333D01*
Y134667D01*
X242665Y134001D01*
X241332D01*
X240666Y134667D01*
Y137333D01*
X178668Y119001D02*
Y122999D01*
X180668D01*
X181334Y122333D01*
Y121000D01*
X180668Y120334D01*
X178668D01*
X180001D02*
X181334Y119001D01*
X184667D02*
Y122999D01*
X182667Y121000D01*
X185333D01*
X186666Y119667D02*
X187332Y119001D01*
X188665D01*
X189332Y119667D01*
Y122333D01*
X188665Y122999D01*
X187332D01*
X186666Y122333D01*
Y121667D01*
X187332Y121000D01*
X189332D01*
X378668Y134001D02*
Y137999D01*
X380668D01*
X381334Y137333D01*
Y136000D01*
X380668Y135334D01*
X378668D01*
X380001D02*
X381334Y134001D01*
X384666D02*
Y137999D01*
X382667Y136000D01*
X385333D01*
X386666Y137333D02*
X387332Y137999D01*
X388665D01*
X389332Y137333D01*
Y136667D01*
X388665Y136000D01*
X389332Y135334D01*
Y134667D01*
X388665Y134001D01*
X387332D01*
X386666Y134667D01*
Y135334D01*
X387332Y136000D01*
X386666Y136667D01*
Y137333D01*
X387332Y136000D02*
X388665D01*
X441834Y43999D02*
X440501D01*
X441167D01*
Y40667D01*
X440501Y40001D01*
X439834D01*
X439168Y40667D01*
X443166Y43333D02*
X443833Y43999D01*
X445166D01*
X445832Y43333D01*
Y42666D01*
X445166Y42000D01*
X445832Y41334D01*
Y40667D01*
X445166Y40001D01*
X443833D01*
X443166Y40667D01*
Y41334D01*
X443833Y42000D01*
X443166Y42666D01*
Y43333D01*
X443833Y42000D02*
X445166D01*
X369834Y43999D02*
X368501D01*
X369167D01*
Y40667D01*
X368501Y40001D01*
X367834D01*
X367168Y40667D01*
X373832Y43999D02*
X372499Y43333D01*
X371166Y42000D01*
Y40667D01*
X371833Y40001D01*
X373166D01*
X373832Y40667D01*
Y41334D01*
X373166Y42000D01*
X371166D01*
X297334Y43999D02*
X296001D01*
X296667D01*
Y40667D01*
X296001Y40001D01*
X295334D01*
X294668Y40667D01*
X300666Y40001D02*
Y43999D01*
X298667Y42000D01*
X301332D01*
X226834Y43999D02*
X225501D01*
X226167D01*
Y40667D01*
X225501Y40001D01*
X224834D01*
X224168Y40667D01*
X230832Y40001D02*
X228167D01*
X230832Y42666D01*
Y43333D01*
X230166Y43999D01*
X228833D01*
X228167Y43333D01*
X441834Y196999D02*
X440501D01*
X441167D01*
Y193667D01*
X440501Y193001D01*
X439834D01*
X439168Y193667D01*
X443166Y196999D02*
X445832D01*
Y196333D01*
X443166Y193667D01*
Y193001D01*
X370334Y196999D02*
X369001D01*
X369667D01*
Y193667D01*
X369001Y193001D01*
X368334D01*
X367668Y193667D01*
X374332Y196999D02*
X371667D01*
Y195000D01*
X372999Y195667D01*
X373666D01*
X374332Y195000D01*
Y193667D01*
X373666Y193001D01*
X372333D01*
X371667Y193667D01*
X297334Y196999D02*
X296001D01*
X296667D01*
Y193667D01*
X296001Y193001D01*
X295334D01*
X294668Y193667D01*
X298667Y196333D02*
X299333Y196999D01*
X300666D01*
X301332Y196333D01*
Y195667D01*
X300666Y195000D01*
X299999D01*
X300666D01*
X301332Y194334D01*
Y193667D01*
X300666Y193001D01*
X299333D01*
X298667Y193667D01*
X226000Y197999D02*
X224667D01*
X225334D01*
Y194667D01*
X224667Y194001D01*
X224001D01*
X223334Y194667D01*
X227333Y194001D02*
X228666D01*
X227999D01*
Y197999D01*
X227333Y197333D01*
X7450Y219448D02*
Y213450D01*
Y216449D01*
X11449D01*
Y219448D01*
Y213450D01*
X13448D02*
X15447D01*
X14448D01*
Y219448D01*
X13448Y218448D01*
X326450Y368148D02*
Y363150D01*
X327450Y362150D01*
X329449D01*
X330449Y363150D01*
Y368148D01*
X336447Y362150D02*
X332448D01*
X336447Y366149D01*
Y367148D01*
X335447Y368148D01*
X333448D01*
X332448Y367148D01*
X56002Y95999D02*
Y90001D01*
Y93000D01*
X60000D01*
Y95999D01*
Y90001D01*
X65998D02*
X62000D01*
X65998Y94000D01*
Y94999D01*
X64999Y95999D01*
X62999D01*
X62000Y94999D01*
X23334Y294999D02*
Y291667D01*
X24001Y291001D01*
X25333D01*
X26000Y291667D01*
Y294999D01*
X27333Y291001D02*
X28666D01*
X27999D01*
Y294999D01*
X27333Y294333D01*
X434668Y139999D02*
Y136001D01*
Y137334D01*
X437334Y139999D01*
X435334Y138000D01*
X437334Y136001D01*
X438666Y139999D02*
X441332D01*
Y139333D01*
X438666Y136667D01*
Y136001D01*
X362668Y141999D02*
Y138001D01*
Y139333D01*
X365334Y141999D01*
X363334Y140000D01*
X365334Y138001D01*
X366667Y141333D02*
X367333Y141999D01*
X368666D01*
X369332Y141333D01*
Y140666D01*
X368666Y140000D01*
X369332Y139333D01*
Y138667D01*
X368666Y138001D01*
X367333D01*
X366667Y138667D01*
Y139333D01*
X367333Y140000D01*
X366667Y140666D01*
Y141333D01*
X367333Y140000D02*
X368666D01*
X291668Y140999D02*
Y137001D01*
Y138333D01*
X294334Y140999D01*
X292334Y139000D01*
X294334Y137001D01*
X298332Y140999D02*
X296999Y140333D01*
X295667Y139000D01*
Y137667D01*
X296333Y137001D01*
X297666D01*
X298332Y137667D01*
Y138333D01*
X297666Y139000D01*
X295667D01*
X219668Y139999D02*
Y136001D01*
Y137334D01*
X222334Y139999D01*
X220334Y138000D01*
X222334Y136001D01*
X226332Y139999D02*
X223667D01*
Y138000D01*
X224999Y138666D01*
X225666D01*
X226332Y138000D01*
Y136667D01*
X225666Y136001D01*
X224333D01*
X223667Y136667D01*
X434668Y289999D02*
Y286001D01*
Y287334D01*
X437334Y289999D01*
X435334Y288000D01*
X437334Y286001D01*
X438666Y289333D02*
X439333Y289999D01*
X440666D01*
X441332Y289333D01*
Y288666D01*
X440666Y288000D01*
X439999D01*
X440666D01*
X441332Y287334D01*
Y286667D01*
X440666Y286001D01*
X439333D01*
X438666Y286667D01*
X362668Y289999D02*
Y286001D01*
Y287334D01*
X365334Y289999D01*
X363334Y288000D01*
X365334Y286001D01*
X368666D02*
Y289999D01*
X366667Y288000D01*
X369332D01*
X290668Y289999D02*
Y286001D01*
Y287334D01*
X293334Y289999D01*
X291334Y288000D01*
X293334Y286001D01*
X297332D02*
X294667D01*
X297332Y288666D01*
Y289333D01*
X296666Y289999D01*
X295333D01*
X294667Y289333D01*
X218334Y289999D02*
Y286001D01*
Y287334D01*
X221000Y289999D01*
X219001Y288000D01*
X221000Y286001D01*
X222333D02*
X223666D01*
X222999D01*
Y289999D01*
X222333Y289333D01*
X358999Y153168D02*
X355001D01*
Y155168D01*
X355667Y155834D01*
X357000D01*
X357666Y155168D01*
Y153168D01*
Y154501D02*
X358999Y155834D01*
X355001Y159833D02*
Y157167D01*
X357000D01*
X356333Y158500D01*
Y159167D01*
X357000Y159833D01*
X358333D01*
X358999Y159167D01*
Y157834D01*
X358333Y157167D01*
Y161166D02*
X358999Y161832D01*
Y163165D01*
X358333Y163832D01*
X355667D01*
X355001Y163165D01*
Y161832D01*
X355667Y161166D01*
X356333D01*
X357000Y161832D01*
Y163832D01*
X430999Y152668D02*
X427001D01*
Y154668D01*
X427667Y155334D01*
X429000D01*
X429666Y154668D01*
Y152668D01*
Y154001D02*
X430999Y155334D01*
X427001Y159333D02*
Y156667D01*
X429000D01*
X428334Y158000D01*
Y158667D01*
X429000Y159333D01*
X430333D01*
X430999Y158667D01*
Y157334D01*
X430333Y156667D01*
X427667Y160666D02*
X427001Y161332D01*
Y162665D01*
X427667Y163332D01*
X428334D01*
X429000Y162665D01*
X429666Y163332D01*
X430333D01*
X430999Y162665D01*
Y161332D01*
X430333Y160666D01*
X429666D01*
X429000Y161332D01*
X428334Y160666D01*
X427667D01*
X429000Y161332D02*
Y162665D01*
X285999Y152668D02*
X282001D01*
Y154668D01*
X282667Y155334D01*
X284000D01*
X284666Y154668D01*
Y152668D01*
Y154001D02*
X285999Y155334D01*
X282001Y159333D02*
Y156667D01*
X284000D01*
X283334Y158000D01*
Y158667D01*
X284000Y159333D01*
X285333D01*
X285999Y158667D01*
Y157334D01*
X285333Y156667D01*
X282001Y160666D02*
Y163332D01*
X282667D01*
X285333Y160666D01*
X285999D01*
X214999Y151668D02*
X211001D01*
Y153668D01*
X211667Y154334D01*
X213000D01*
X213666Y153668D01*
Y151668D01*
Y153001D02*
X214999Y154334D01*
X211001Y158333D02*
Y155667D01*
X213000D01*
X212333Y157000D01*
Y157667D01*
X213000Y158333D01*
X214333D01*
X214999Y157667D01*
Y156334D01*
X214333Y155667D01*
X211001Y162332D02*
X211667Y160999D01*
X213000Y159666D01*
X214333D01*
X214999Y160332D01*
Y161665D01*
X214333Y162332D01*
X213666D01*
X213000Y161665D01*
Y159666D01*
X358999Y305668D02*
X355001D01*
Y307668D01*
X355667Y308334D01*
X357000D01*
X357666Y307668D01*
Y305668D01*
Y307001D02*
X358999Y308334D01*
Y311666D02*
X355001D01*
X357000Y309667D01*
Y312333D01*
X355001Y313666D02*
Y316332D01*
X355667D01*
X358333Y313666D01*
X358999D01*
X430999Y305668D02*
X427001D01*
Y307668D01*
X427667Y308334D01*
X429000D01*
X429666Y307668D01*
Y305668D01*
Y307001D02*
X430999Y308334D01*
Y311666D02*
X427001D01*
X429000Y309667D01*
Y312333D01*
X427001Y316332D02*
X427667Y314999D01*
X429000Y313666D01*
X430333D01*
X430999Y314332D01*
Y315665D01*
X430333Y316332D01*
X429666D01*
X429000Y315665D01*
Y313666D01*
X286999Y305668D02*
X283001D01*
Y307668D01*
X283667Y308334D01*
X285000D01*
X285666Y307668D01*
Y305668D01*
Y307001D02*
X286999Y308334D01*
Y311666D02*
X283001D01*
X285000Y309667D01*
Y312333D01*
X283001Y316332D02*
Y313666D01*
X285000D01*
X284333Y314999D01*
Y315665D01*
X285000Y316332D01*
X286333D01*
X286999Y315665D01*
Y314332D01*
X286333Y313666D01*
X283001Y97669D02*
X286999D01*
Y100335D01*
X283001Y104333D02*
Y101668D01*
X286999D01*
Y104333D01*
X285000Y101668D02*
Y103001D01*
X283001Y105666D02*
X286999D01*
Y107666D01*
X286333Y108332D01*
X283667D01*
X283001Y107666D01*
Y105666D01*
Y112331D02*
X283667Y110998D01*
X285000Y109665D01*
X286333D01*
X286999Y110332D01*
Y111664D01*
X286333Y112331D01*
X285666D01*
X285000Y111664D01*
Y109665D01*
X124542Y252314D02*
X125875D01*
X125208D01*
Y248316D01*
X124542D01*
X125875D01*
X130540Y251648D02*
X129874Y252314D01*
X128541D01*
X127874Y251648D01*
Y248982D01*
X128541Y248316D01*
X129874D01*
X130540Y248982D01*
X131873Y248316D02*
X133206D01*
X132539D01*
Y252314D01*
X131873Y251648D01*
X214999Y306168D02*
X211001D01*
Y308168D01*
X211667Y308834D01*
X213000D01*
X213666Y308168D01*
Y306168D01*
Y307501D02*
X214999Y308834D01*
Y312167D02*
X211001D01*
X213000Y310167D01*
Y312833D01*
X214999Y316165D02*
X211001D01*
X213000Y314166D01*
Y316832D01*
X452752Y358500D02*
X454751D01*
X453751D01*
Y355501D01*
X455751D02*
Y358500D01*
X457250D01*
X457750Y358000D01*
Y357000D01*
X457250Y356500D01*
X455751D01*
X458750Y355501D02*
X459749D01*
X459250D01*
Y358500D01*
X458750Y358000D01*
X461249D02*
X461749Y358500D01*
X462748D01*
X463248Y358000D01*
Y357500D01*
X462748Y357000D01*
X463248Y356500D01*
Y356000D01*
X462748Y355501D01*
X461749D01*
X461249Y356000D01*
Y356500D01*
X461749Y357000D01*
X461249Y357500D01*
Y358000D01*
X461749Y357000D02*
X462748D01*
X437752Y357500D02*
X439751D01*
X438751D01*
Y354501D01*
X440751D02*
Y357500D01*
X442250D01*
X442750Y357000D01*
Y356000D01*
X442250Y355500D01*
X440751D01*
X443750Y354501D02*
X444749D01*
X444250D01*
Y357500D01*
X443750Y357000D01*
X446249Y357500D02*
X448248D01*
Y357000D01*
X446249Y355000D01*
Y354501D01*
X424752Y357500D02*
X426751D01*
X425751D01*
Y354501D01*
X427751D02*
Y357500D01*
X429250D01*
X429750Y357000D01*
Y356000D01*
X429250Y355500D01*
X427751D01*
X430750Y354501D02*
X431749D01*
X431250D01*
Y357500D01*
X430750Y357000D01*
X435248Y357500D02*
X434249Y357000D01*
X433249Y356000D01*
Y355000D01*
X433749Y354501D01*
X434749D01*
X435248Y355000D01*
Y355500D01*
X434749Y356000D01*
X433249D01*
X410752Y357500D02*
X412751D01*
X411751D01*
Y354501D01*
X413751D02*
Y357500D01*
X415250D01*
X415750Y357000D01*
Y356000D01*
X415250Y355500D01*
X413751D01*
X416750Y354501D02*
X417749D01*
X417250D01*
Y357500D01*
X416750Y357000D01*
X421248Y357500D02*
X419249D01*
Y356000D01*
X420249Y356500D01*
X420749D01*
X421248Y356000D01*
Y355000D01*
X420749Y354501D01*
X419749D01*
X419249Y355000D01*
X452752Y379500D02*
X454751D01*
X453751D01*
Y376501D01*
X455751D02*
Y379500D01*
X457250D01*
X457750Y379000D01*
Y378000D01*
X457250Y377500D01*
X455751D01*
X458750Y376501D02*
X459749D01*
X459250D01*
Y379500D01*
X458750Y379000D01*
X462748Y376501D02*
Y379500D01*
X461249Y378000D01*
X463248D01*
X438752Y379500D02*
X440751D01*
X439751D01*
Y376501D01*
X441751D02*
Y379500D01*
X443250D01*
X443750Y379000D01*
Y378000D01*
X443250Y377500D01*
X441751D01*
X444750Y376501D02*
X445749D01*
X445250D01*
Y379500D01*
X444750Y379000D01*
X447249D02*
X447749Y379500D01*
X448748D01*
X449248Y379000D01*
Y378500D01*
X448748Y378000D01*
X448249D01*
X448748D01*
X449248Y377500D01*
Y377000D01*
X448748Y376501D01*
X447749D01*
X447249Y377000D01*
X425752Y379500D02*
X427751D01*
X426751D01*
Y376501D01*
X428751D02*
Y379500D01*
X430250D01*
X430750Y379000D01*
Y378000D01*
X430250Y377500D01*
X428751D01*
X431750Y376501D02*
X432749D01*
X432250D01*
Y379500D01*
X431750Y379000D01*
X436248Y376501D02*
X434249D01*
X436248Y378500D01*
Y379000D01*
X435748Y379500D01*
X434749D01*
X434249Y379000D01*
X411251Y379500D02*
X413251D01*
X412251D01*
Y376501D01*
X414251D02*
Y379500D01*
X415750D01*
X416250Y379000D01*
Y378000D01*
X415750Y377500D01*
X414251D01*
X417250Y376501D02*
X418249D01*
X417749D01*
Y379500D01*
X417250Y379000D01*
X419749Y376501D02*
X420749D01*
X420249D01*
Y379500D01*
X419749Y379000D01*
X150752Y44499D02*
X152751D01*
X151751D01*
Y41500D01*
X153751D02*
Y44499D01*
X155250D01*
X155750Y44000D01*
Y43000D01*
X155250Y42500D01*
X153751D01*
X156750Y41500D02*
X157749D01*
X157250D01*
Y44499D01*
X156750Y44000D01*
X159249D02*
X159749Y44499D01*
X160749D01*
X161248Y44000D01*
Y42000D01*
X160749Y41500D01*
X159749D01*
X159249Y42000D01*
Y44000D01*
X139001Y44499D02*
X141001D01*
X140001D01*
Y41500D01*
X142000D02*
Y44499D01*
X143500D01*
X144000Y44000D01*
Y43000D01*
X143500Y42500D01*
X142000D01*
X144999Y42000D02*
X145499Y41500D01*
X146499D01*
X146999Y42000D01*
Y44000D01*
X146499Y44499D01*
X145499D01*
X144999Y44000D01*
Y43500D01*
X145499Y43000D01*
X146999D01*
X127001Y43499D02*
X129001D01*
X128001D01*
Y40501D01*
X130000D02*
Y43499D01*
X131500D01*
X132000Y43000D01*
Y42000D01*
X131500Y41500D01*
X130000D01*
X132999Y43000D02*
X133499Y43499D01*
X134499D01*
X134999Y43000D01*
Y42500D01*
X134499Y42000D01*
X134999Y41500D01*
Y41000D01*
X134499Y40501D01*
X133499D01*
X132999Y41000D01*
Y41500D01*
X133499Y42000D01*
X132999Y42500D01*
Y43000D01*
X133499Y42000D02*
X134499D01*
X115001Y43499D02*
X117001D01*
X116001D01*
Y40501D01*
X118000D02*
Y43499D01*
X119500D01*
X120000Y43000D01*
Y42000D01*
X119500Y41500D01*
X118000D01*
X120999Y43499D02*
X122999D01*
Y43000D01*
X120999Y41000D01*
Y40501D01*
X103001Y43499D02*
X105001D01*
X104001D01*
Y40501D01*
X106000D02*
Y43499D01*
X107500D01*
X108000Y43000D01*
Y42000D01*
X107500Y41500D01*
X106000D01*
X110999Y43499D02*
X109999Y43000D01*
X108999Y42000D01*
Y41000D01*
X109499Y40501D01*
X110499D01*
X110999Y41000D01*
Y41500D01*
X110499Y42000D01*
X108999D01*
X91001Y43499D02*
X93001D01*
X92001D01*
Y40501D01*
X94000D02*
Y43499D01*
X95500D01*
X96000Y43000D01*
Y42000D01*
X95500Y41500D01*
X94000D01*
X98999Y43499D02*
X96999D01*
Y42000D01*
X97999Y42500D01*
X98499D01*
X98999Y42000D01*
Y41000D01*
X98499Y40501D01*
X97499D01*
X96999Y41000D01*
X78001Y43499D02*
X80001D01*
X79001D01*
Y40501D01*
X81000D02*
Y43499D01*
X82500D01*
X83000Y43000D01*
Y42000D01*
X82500Y41500D01*
X81000D01*
X85499Y40501D02*
Y43499D01*
X83999Y42000D01*
X85999D01*
X66001Y43499D02*
X68001D01*
X67001D01*
Y40501D01*
X69000D02*
Y43499D01*
X70500D01*
X71000Y43000D01*
Y42000D01*
X70500Y41500D01*
X69000D01*
X71999Y43000D02*
X72499Y43499D01*
X73499D01*
X73999Y43000D01*
Y42500D01*
X73499Y42000D01*
X72999D01*
X73499D01*
X73999Y41500D01*
Y41000D01*
X73499Y40501D01*
X72499D01*
X71999Y41000D01*
X54001Y43499D02*
X56001D01*
X55001D01*
Y40501D01*
X57000D02*
Y43499D01*
X58500D01*
X59000Y43000D01*
Y42000D01*
X58500Y41500D01*
X57000D01*
X61999Y40501D02*
X59999D01*
X61999Y42500D01*
Y43000D01*
X61499Y43499D01*
X60499D01*
X59999Y43000D01*
X276501Y364499D02*
X278501D01*
X277501D01*
Y361501D01*
X279500D02*
Y364499D01*
X281000D01*
X281500Y364000D01*
Y363000D01*
X281000Y362500D01*
X279500D01*
X282499Y361501D02*
X283499D01*
X282999D01*
Y364499D01*
X282499Y364000D01*
X382668Y353001D02*
Y356999D01*
X384668D01*
X385334Y356333D01*
Y355000D01*
X384668Y354334D01*
X382668D01*
X384001D02*
X385334Y353001D01*
X386667Y356333D02*
X387334Y356999D01*
X388666D01*
X389333Y356333D01*
Y355666D01*
X388666Y355000D01*
X389333Y354334D01*
Y353667D01*
X388666Y353001D01*
X387334D01*
X386667Y353667D01*
Y354334D01*
X387334Y355000D01*
X386667Y355666D01*
Y356333D01*
X387334Y355000D02*
X388666D01*
X393332Y356999D02*
X391999Y356333D01*
X390666Y355000D01*
Y353667D01*
X391332Y353001D01*
X392665D01*
X393332Y353667D01*
Y354334D01*
X392665Y355000D01*
X390666D01*
X382818Y359001D02*
Y362999D01*
X384817D01*
X385484Y362333D01*
Y361000D01*
X384817Y360334D01*
X382818D01*
X384151D02*
X385484Y359001D01*
X386817Y362333D02*
X387483Y362999D01*
X388816D01*
X389482Y362333D01*
Y361666D01*
X388816Y361000D01*
X389482Y360334D01*
Y359667D01*
X388816Y359001D01*
X387483D01*
X386817Y359667D01*
Y360334D01*
X387483Y361000D01*
X386817Y361666D01*
Y362333D01*
X387483Y361000D02*
X388816D01*
X393481Y362999D02*
X390815D01*
Y361000D01*
X392148Y361666D01*
X392815D01*
X393481Y361000D01*
Y359667D01*
X392815Y359001D01*
X391482D01*
X390815Y359667D01*
X382668Y340001D02*
Y343999D01*
X384668D01*
X385334Y343333D01*
Y342000D01*
X384668Y341334D01*
X382668D01*
X384001D02*
X385334Y340001D01*
X386667Y343333D02*
X387334Y343999D01*
X388666D01*
X389333Y343333D01*
Y342666D01*
X388666Y342000D01*
X389333Y341334D01*
Y340667D01*
X388666Y340001D01*
X387334D01*
X386667Y340667D01*
Y341334D01*
X387334Y342000D01*
X386667Y342666D01*
Y343333D01*
X387334Y342000D02*
X388666D01*
X392665Y340001D02*
Y343999D01*
X390666Y342000D01*
X393332D01*
X382668Y347001D02*
Y350999D01*
X384668D01*
X385334Y350333D01*
Y349000D01*
X384668Y348334D01*
X382668D01*
X384001D02*
X385334Y347001D01*
X386667Y350333D02*
X387334Y350999D01*
X388666D01*
X389333Y350333D01*
Y349666D01*
X388666Y349000D01*
X389333Y348334D01*
Y347667D01*
X388666Y347001D01*
X387334D01*
X386667Y347667D01*
Y348334D01*
X387334Y349000D01*
X386667Y349666D01*
Y350333D01*
X387334Y349000D02*
X388666D01*
X390666Y350333D02*
X391332Y350999D01*
X392665D01*
X393332Y350333D01*
Y349666D01*
X392665Y349000D01*
X391999D01*
X392665D01*
X393332Y348334D01*
Y347667D01*
X392665Y347001D01*
X391332D01*
X390666Y347667D01*
X382668Y328001D02*
Y331999D01*
X384668D01*
X385334Y331333D01*
Y330000D01*
X384668Y329334D01*
X382668D01*
X384001D02*
X385334Y328001D01*
X386667Y331333D02*
X387334Y331999D01*
X388666D01*
X389333Y331333D01*
Y330666D01*
X388666Y330000D01*
X389333Y329334D01*
Y328667D01*
X388666Y328001D01*
X387334D01*
X386667Y328667D01*
Y329334D01*
X387334Y330000D01*
X386667Y330666D01*
Y331333D01*
X387334Y330000D02*
X388666D01*
X393332Y328001D02*
X390666D01*
X393332Y330666D01*
Y331333D01*
X392665Y331999D01*
X391332D01*
X390666Y331333D01*
X383335Y334001D02*
Y337999D01*
X385334D01*
X386001Y337333D01*
Y336000D01*
X385334Y335334D01*
X383335D01*
X384668D02*
X386001Y334001D01*
X387334Y337333D02*
X388000Y337999D01*
X389333D01*
X389999Y337333D01*
Y336666D01*
X389333Y336000D01*
X389999Y335334D01*
Y334667D01*
X389333Y334001D01*
X388000D01*
X387334Y334667D01*
Y335334D01*
X388000Y336000D01*
X387334Y336666D01*
Y337333D01*
X388000Y336000D02*
X389333D01*
X391332Y334001D02*
X392665D01*
X391999D01*
Y337999D01*
X391332Y337333D01*
X295668Y336001D02*
Y339999D01*
X297668D01*
X298334Y339333D01*
Y338000D01*
X297668Y337334D01*
X295668D01*
X297001D02*
X298334Y336001D01*
X299667Y339333D02*
X300334Y339999D01*
X301666D01*
X302333Y339333D01*
Y338666D01*
X301666Y338000D01*
X302333Y337334D01*
Y336667D01*
X301666Y336001D01*
X300334D01*
X299667Y336667D01*
Y337334D01*
X300334Y338000D01*
X299667Y338666D01*
Y339333D01*
X300334Y338000D02*
X301666D01*
X303666Y339333D02*
X304332Y339999D01*
X305665D01*
X306332Y339333D01*
Y336667D01*
X305665Y336001D01*
X304332D01*
X303666Y336667D01*
Y339333D01*
X295668Y343001D02*
Y346999D01*
X297668D01*
X298334Y346333D01*
Y345000D01*
X297668Y344334D01*
X295668D01*
X297001D02*
X298334Y343001D01*
X299667Y346999D02*
X302333D01*
Y346333D01*
X299667Y343667D01*
Y343001D01*
X303666Y343667D02*
X304332Y343001D01*
X305665D01*
X306332Y343667D01*
Y346333D01*
X305665Y346999D01*
X304332D01*
X303666Y346333D01*
Y345666D01*
X304332Y345000D01*
X306332D01*
X295668Y355001D02*
Y358999D01*
X297668D01*
X298334Y358333D01*
Y357000D01*
X297668Y356334D01*
X295668D01*
X297001D02*
X298334Y355001D01*
X299667Y358999D02*
X302333D01*
Y358333D01*
X299667Y355667D01*
Y355001D01*
X303666Y358333D02*
X304332Y358999D01*
X305665D01*
X306332Y358333D01*
Y357666D01*
X305665Y357000D01*
X306332Y356334D01*
Y355667D01*
X305665Y355001D01*
X304332D01*
X303666Y355667D01*
Y356334D01*
X304332Y357000D01*
X303666Y357666D01*
Y358333D01*
X304332Y357000D02*
X305665D01*
X185999Y302668D02*
X182001D01*
Y304668D01*
X182667Y305334D01*
X184000D01*
X184666Y304668D01*
Y302668D01*
Y304001D02*
X185999Y305334D01*
X182001Y306667D02*
Y309333D01*
X182667D01*
X185333Y306667D01*
X185999D01*
X182001Y313332D02*
Y310666D01*
X184000D01*
X183334Y311999D01*
Y312665D01*
X184000Y313332D01*
X185333D01*
X185999Y312665D01*
Y311332D01*
X185333Y310666D01*
X171999Y304668D02*
X168001D01*
Y306668D01*
X168667Y307334D01*
X170000D01*
X170667Y306668D01*
Y304668D01*
Y306001D02*
X171999Y307334D01*
X168001Y308667D02*
Y311333D01*
X168667D01*
X171333Y308667D01*
X171999D01*
Y314665D02*
X168001D01*
X170000Y312666D01*
Y315332D01*
X157999Y304668D02*
X154001D01*
Y306668D01*
X154667Y307334D01*
X156000D01*
X156666Y306668D01*
Y304668D01*
Y306001D02*
X157999Y307334D01*
X154001Y308667D02*
Y311333D01*
X154667D01*
X157333Y308667D01*
X157999D01*
X154667Y312666D02*
X154001Y313332D01*
Y314665D01*
X154667Y315332D01*
X155333D01*
X156000Y314665D01*
Y313999D01*
Y314665D01*
X156666Y315332D01*
X157333D01*
X157999Y314665D01*
Y313332D01*
X157333Y312666D01*
X140999Y171668D02*
X137001D01*
Y173668D01*
X137667Y174334D01*
X139000D01*
X139666Y173668D01*
Y171668D01*
Y173001D02*
X140999Y174334D01*
Y177666D02*
X137001D01*
X139000Y175667D01*
Y178333D01*
X137667Y179666D02*
X137001Y180332D01*
Y181665D01*
X137667Y182332D01*
X138333D01*
X139000Y181665D01*
Y180999D01*
Y181665D01*
X139666Y182332D01*
X140333D01*
X140999Y181665D01*
Y180332D01*
X140333Y179666D01*
X146999Y171668D02*
X143001D01*
Y173668D01*
X143667Y174334D01*
X145000D01*
X145666Y173668D01*
Y171668D01*
Y173001D02*
X146999Y174334D01*
Y177666D02*
X143001D01*
X145000Y175667D01*
Y178333D01*
X146999Y182332D02*
Y179666D01*
X144334Y182332D01*
X143667D01*
X143001Y181665D01*
Y180332D01*
X143667Y179666D01*
X152999Y172335D02*
X149001D01*
Y174334D01*
X149667Y175001D01*
X151000D01*
X151666Y174334D01*
Y172335D01*
Y173668D02*
X152999Y175001D01*
Y178333D02*
X149001D01*
X151000Y176333D01*
Y178999D01*
X152999Y180332D02*
Y181665D01*
Y180999D01*
X149001D01*
X149667Y180332D01*
X134999Y171668D02*
X131001D01*
Y173668D01*
X131667Y174334D01*
X133000D01*
X133666Y173668D01*
Y171668D01*
Y173001D02*
X134999Y174334D01*
Y177666D02*
X131001D01*
X133000Y175667D01*
Y178333D01*
X131667Y179666D02*
X131001Y180332D01*
Y181665D01*
X131667Y182332D01*
X134333D01*
X134999Y181665D01*
Y180332D01*
X134333Y179666D01*
X131667D01*
X158999Y171668D02*
X155001D01*
Y173668D01*
X155667Y174334D01*
X157000D01*
X157667Y173668D01*
Y171668D01*
Y173001D02*
X158999Y174334D01*
X155667Y175667D02*
X155001Y176333D01*
Y177666D01*
X155667Y178333D01*
X156333D01*
X157000Y177666D01*
Y177000D01*
Y177666D01*
X157667Y178333D01*
X158333D01*
X158999Y177666D01*
Y176333D01*
X158333Y175667D01*
Y179666D02*
X158999Y180332D01*
Y181665D01*
X158333Y182332D01*
X155667D01*
X155001Y181665D01*
Y180332D01*
X155667Y179666D01*
X156333D01*
X157000Y180332D01*
Y182332D01*
X86668Y207001D02*
Y210999D01*
X88668D01*
X89334Y210333D01*
Y209000D01*
X88668Y208334D01*
X86668D01*
X88001D02*
X89334Y207001D01*
X90667Y210333D02*
X91334Y210999D01*
X92666D01*
X93333Y210333D01*
Y209666D01*
X92666Y209000D01*
X92000D01*
X92666D01*
X93333Y208334D01*
Y207667D01*
X92666Y207001D01*
X91334D01*
X90667Y207667D01*
X94666Y210333D02*
X95332Y210999D01*
X96665D01*
X97332Y210333D01*
Y209666D01*
X96665Y209000D01*
X97332Y208334D01*
Y207667D01*
X96665Y207001D01*
X95332D01*
X94666Y207667D01*
Y208334D01*
X95332Y209000D01*
X94666Y209666D01*
Y210333D01*
X95332Y209000D02*
X96665D01*
X164999Y171668D02*
X161001D01*
Y173668D01*
X161667Y174334D01*
X163000D01*
X163666Y173668D01*
Y171668D01*
Y173001D02*
X164999Y174334D01*
X161667Y175667D02*
X161001Y176333D01*
Y177666D01*
X161667Y178333D01*
X162334D01*
X163000Y177666D01*
Y177000D01*
Y177666D01*
X163666Y178333D01*
X164333D01*
X164999Y177666D01*
Y176333D01*
X164333Y175667D01*
X161001Y179666D02*
Y182332D01*
X161667D01*
X164333Y179666D01*
X164999D01*
X86668Y213001D02*
Y216999D01*
X88668D01*
X89334Y216333D01*
Y215000D01*
X88668Y214334D01*
X86668D01*
X88001D02*
X89334Y213001D01*
X90667Y216333D02*
X91334Y216999D01*
X92666D01*
X93333Y216333D01*
Y215666D01*
X92666Y215000D01*
X92000D01*
X92666D01*
X93333Y214334D01*
Y213667D01*
X92666Y213001D01*
X91334D01*
X90667Y213667D01*
X97332Y216999D02*
X95999Y216333D01*
X94666Y215000D01*
Y213667D01*
X95332Y213001D01*
X96665D01*
X97332Y213667D01*
Y214334D01*
X96665Y215000D01*
X94666D01*
X170999Y171668D02*
X167001D01*
Y173668D01*
X167667Y174334D01*
X169000D01*
X169666Y173668D01*
Y171668D01*
Y173001D02*
X170999Y174334D01*
X167667Y175667D02*
X167001Y176334D01*
Y177666D01*
X167667Y178333D01*
X168333D01*
X169000Y177666D01*
Y177000D01*
Y177666D01*
X169666Y178333D01*
X170333D01*
X170999Y177666D01*
Y176334D01*
X170333Y175667D01*
X167001Y182332D02*
Y179666D01*
X169000D01*
X168333Y180999D01*
Y181665D01*
X169000Y182332D01*
X170333D01*
X170999Y181665D01*
Y180332D01*
X170333Y179666D01*
X86668Y219001D02*
Y222999D01*
X88668D01*
X89334Y222333D01*
Y221000D01*
X88668Y220334D01*
X86668D01*
X88001D02*
X89334Y219001D01*
X90667Y222333D02*
X91334Y222999D01*
X92666D01*
X93333Y222333D01*
Y221666D01*
X92666Y221000D01*
X92000D01*
X92666D01*
X93333Y220334D01*
Y219667D01*
X92666Y219001D01*
X91334D01*
X90667Y219667D01*
X96665Y219001D02*
Y222999D01*
X94666Y221000D01*
X97332D01*
X197818Y200001D02*
Y203999D01*
X199817D01*
X200484Y203333D01*
Y202000D01*
X199817Y201333D01*
X197818D01*
X199151D02*
X200484Y200001D01*
X201817Y203333D02*
X202483Y203999D01*
X203816D01*
X204483Y203333D01*
Y202666D01*
X203816Y202000D01*
X203150D01*
X203816D01*
X204483Y201333D01*
Y200667D01*
X203816Y200001D01*
X202483D01*
X201817Y200667D01*
X205815Y203333D02*
X206482Y203999D01*
X207815D01*
X208481Y203333D01*
Y202666D01*
X207815Y202000D01*
X207148D01*
X207815D01*
X208481Y201333D01*
Y200667D01*
X207815Y200001D01*
X206482D01*
X205815Y200667D01*
X194668Y221001D02*
Y224999D01*
X196668D01*
X197334Y224333D01*
Y223000D01*
X196668Y222334D01*
X194668D01*
X196001D02*
X197334Y221001D01*
X198667Y224333D02*
X199334Y224999D01*
X200666D01*
X201333Y224333D01*
Y223666D01*
X200666Y223000D01*
X200000D01*
X200666D01*
X201333Y222334D01*
Y221667D01*
X200666Y221001D01*
X199334D01*
X198667Y221667D01*
X205332Y221001D02*
X202666D01*
X205332Y223666D01*
Y224333D01*
X204665Y224999D01*
X203332D01*
X202666Y224333D01*
X87335Y225001D02*
Y228999D01*
X89334D01*
X90001Y228333D01*
Y227000D01*
X89334Y226334D01*
X87335D01*
X88668D02*
X90001Y225001D01*
X91334Y228333D02*
X92000Y228999D01*
X93333D01*
X93999Y228333D01*
Y227666D01*
X93333Y227000D01*
X92666D01*
X93333D01*
X93999Y226334D01*
Y225667D01*
X93333Y225001D01*
X92000D01*
X91334Y225667D01*
X95332Y225001D02*
X96665D01*
X95999D01*
Y228999D01*
X95332Y228333D01*
X194668Y227001D02*
Y230999D01*
X196668D01*
X197334Y230333D01*
Y229000D01*
X196668Y228334D01*
X194668D01*
X196001D02*
X197334Y227001D01*
X198667Y230333D02*
X199334Y230999D01*
X200666D01*
X201333Y230333D01*
Y229666D01*
X200666Y229000D01*
X200000D01*
X200666D01*
X201333Y228334D01*
Y227667D01*
X200666Y227001D01*
X199334D01*
X198667Y227667D01*
X202666Y230333D02*
X203332Y230999D01*
X204665D01*
X205332Y230333D01*
Y227667D01*
X204665Y227001D01*
X203332D01*
X202666Y227667D01*
Y230333D01*
X86668Y231001D02*
Y234999D01*
X88668D01*
X89334Y234333D01*
Y233000D01*
X88668Y232334D01*
X86668D01*
X88001D02*
X89334Y231001D01*
X93333D02*
X90667D01*
X93333Y233666D01*
Y234333D01*
X92666Y234999D01*
X91334D01*
X90667Y234333D01*
X94666Y231667D02*
X95332Y231001D01*
X96665D01*
X97332Y231667D01*
Y234333D01*
X96665Y234999D01*
X95332D01*
X94666Y234333D01*
Y233666D01*
X95332Y233000D01*
X97332D01*
X194668Y233001D02*
Y236999D01*
X196668D01*
X197334Y236333D01*
Y235000D01*
X196668Y234334D01*
X194668D01*
X196001D02*
X197334Y233001D01*
X201333D02*
X198667D01*
X201333Y235666D01*
Y236333D01*
X200666Y236999D01*
X199334D01*
X198667Y236333D01*
X202666D02*
X203332Y236999D01*
X204665D01*
X205332Y236333D01*
Y235666D01*
X204665Y235000D01*
X205332Y234334D01*
Y233667D01*
X204665Y233001D01*
X203332D01*
X202666Y233667D01*
Y234334D01*
X203332Y235000D01*
X202666Y235666D01*
Y236333D01*
X203332Y235000D02*
X204665D01*
X86668Y237001D02*
Y240999D01*
X88668D01*
X89334Y240333D01*
Y239000D01*
X88668Y238334D01*
X86668D01*
X88001D02*
X89334Y237001D01*
X93333D02*
X90667D01*
X93333Y239666D01*
Y240333D01*
X92666Y240999D01*
X91334D01*
X90667Y240333D01*
X94666Y240999D02*
X97332D01*
Y240333D01*
X94666Y237667D01*
Y237001D01*
X194668Y239001D02*
Y242999D01*
X196668D01*
X197334Y242333D01*
Y241000D01*
X196668Y240334D01*
X194668D01*
X196001D02*
X197334Y239001D01*
X201333D02*
X198667D01*
X201333Y241666D01*
Y242333D01*
X200666Y242999D01*
X199334D01*
X198667Y242333D01*
X205332Y242999D02*
X203999Y242333D01*
X202666Y241000D01*
Y239667D01*
X203332Y239001D01*
X204665D01*
X205332Y239667D01*
Y240334D01*
X204665Y241000D01*
X202666D01*
X86668Y243001D02*
Y246999D01*
X88668D01*
X89334Y246333D01*
Y245000D01*
X88668Y244334D01*
X86668D01*
X88001D02*
X89334Y243001D01*
X93333D02*
X90667D01*
X93333Y245666D01*
Y246333D01*
X92666Y246999D01*
X91334D01*
X90667Y246333D01*
X97332Y246999D02*
X94666D01*
Y245000D01*
X95999Y245666D01*
X96665D01*
X97332Y245000D01*
Y243667D01*
X96665Y243001D01*
X95332D01*
X94666Y243667D01*
X194668Y245001D02*
Y248999D01*
X196668D01*
X197334Y248333D01*
Y247000D01*
X196668Y246334D01*
X194668D01*
X196001D02*
X197334Y245001D01*
X201333D02*
X198667D01*
X201333Y247666D01*
Y248333D01*
X200666Y248999D01*
X199334D01*
X198667Y248333D01*
X204665Y245001D02*
Y248999D01*
X202666Y247000D01*
X205332D01*
X86818Y249001D02*
Y252999D01*
X88817D01*
X89484Y252333D01*
Y251000D01*
X88817Y250334D01*
X86818D01*
X88151D02*
X89484Y249001D01*
X93483D02*
X90817D01*
X93483Y251666D01*
Y252333D01*
X92816Y252999D01*
X91483D01*
X90817Y252333D01*
X94815D02*
X95482Y252999D01*
X96815D01*
X97481Y252333D01*
Y251666D01*
X96815Y251000D01*
X96148D01*
X96815D01*
X97481Y250334D01*
Y249667D01*
X96815Y249001D01*
X95482D01*
X94815Y249667D01*
X182999Y276668D02*
X179001D01*
Y278668D01*
X179667Y279334D01*
X181000D01*
X181667Y278668D01*
Y276668D01*
Y278001D02*
X182999Y279334D01*
Y283333D02*
Y280667D01*
X180333Y283333D01*
X179667D01*
X179001Y282666D01*
Y281334D01*
X179667Y280667D01*
X182999Y287332D02*
Y284666D01*
X180333Y287332D01*
X179667D01*
X179001Y286665D01*
Y285332D01*
X179667Y284666D01*
X129999Y277335D02*
X126001D01*
Y279334D01*
X126667Y280001D01*
X128000D01*
X128666Y279334D01*
Y277335D01*
Y278668D02*
X129999Y280001D01*
Y283999D02*
Y281334D01*
X127333Y283999D01*
X126667D01*
X126001Y283333D01*
Y282000D01*
X126667Y281334D01*
X129999Y285332D02*
Y286665D01*
Y285999D01*
X126001D01*
X126667Y285332D01*
X176999Y276668D02*
X173001D01*
Y278668D01*
X173667Y279334D01*
X175000D01*
X175666Y278668D01*
Y276668D01*
Y278001D02*
X176999Y279334D01*
Y283333D02*
Y280667D01*
X174334Y283333D01*
X173667D01*
X173001Y282666D01*
Y281334D01*
X173667Y280667D01*
Y284666D02*
X173001Y285332D01*
Y286665D01*
X173667Y287332D01*
X176333D01*
X176999Y286665D01*
Y285332D01*
X176333Y284666D01*
X173667D01*
X135999Y277002D02*
X132001D01*
Y279001D01*
X132667Y279667D01*
X134000D01*
X134667Y279001D01*
Y277002D01*
Y278334D02*
X135999Y279667D01*
Y281000D02*
Y282333D01*
Y281667D01*
X132001D01*
X132667Y281000D01*
X135333Y284333D02*
X135999Y284999D01*
Y286332D01*
X135333Y286998D01*
X132667D01*
X132001Y286332D01*
Y284999D01*
X132667Y284333D01*
X133334D01*
X134000Y284999D01*
Y286998D01*
X170999Y277002D02*
X167001D01*
Y279001D01*
X167667Y279667D01*
X169000D01*
X169667Y279001D01*
Y277002D01*
Y278334D02*
X170999Y279667D01*
Y281000D02*
Y282333D01*
Y281667D01*
X167001D01*
X167667Y281000D01*
Y284333D02*
X167001Y284999D01*
Y286332D01*
X167667Y286998D01*
X168333D01*
X169000Y286332D01*
X169667Y286998D01*
X170333D01*
X170999Y286332D01*
Y284999D01*
X170333Y284333D01*
X169667D01*
X169000Y284999D01*
X168333Y284333D01*
X167667D01*
X169000Y284999D02*
Y286332D01*
X141999Y277002D02*
X138001D01*
Y279001D01*
X138667Y279667D01*
X140000D01*
X140666Y279001D01*
Y277002D01*
Y278334D02*
X141999Y279667D01*
Y281000D02*
Y282333D01*
Y281667D01*
X138001D01*
X138667Y281000D01*
X138001Y284333D02*
Y286998D01*
X138667D01*
X141333Y284333D01*
X141999D01*
X77002Y118001D02*
Y121999D01*
X79001D01*
X79667Y121333D01*
Y120000D01*
X79001Y119334D01*
X77002D01*
X78334D02*
X79667Y118001D01*
X81000D02*
X82333D01*
X81667D01*
Y121999D01*
X81000Y121333D01*
X86998Y121999D02*
X85666Y121333D01*
X84333Y120000D01*
Y118667D01*
X84999Y118001D01*
X86332D01*
X86998Y118667D01*
Y119334D01*
X86332Y120000D01*
X84333D01*
X77002Y128001D02*
Y131999D01*
X79001D01*
X79667Y131333D01*
Y130000D01*
X79001Y129333D01*
X77002D01*
X78334D02*
X79667Y128001D01*
X81000D02*
X82333D01*
X81667D01*
Y131999D01*
X81000Y131333D01*
X86998Y131999D02*
X84333D01*
Y130000D01*
X85666Y130666D01*
X86332D01*
X86998Y130000D01*
Y128667D01*
X86332Y128001D01*
X84999D01*
X84333Y128667D01*
X108002Y133001D02*
Y136999D01*
X110001D01*
X110667Y136333D01*
Y135000D01*
X110001Y134334D01*
X108002D01*
X109335D02*
X110667Y133001D01*
X112000D02*
X113333D01*
X112667D01*
Y136999D01*
X112000Y136333D01*
X117332Y133001D02*
Y136999D01*
X115333Y135000D01*
X117998D01*
X77002Y138001D02*
Y141999D01*
X79001D01*
X79667Y141333D01*
Y140000D01*
X79001Y139333D01*
X77002D01*
X78334D02*
X79667Y138001D01*
X81000D02*
X82333D01*
X81667D01*
Y141999D01*
X81000Y141333D01*
X84333D02*
X84999Y141999D01*
X86332D01*
X86998Y141333D01*
Y140666D01*
X86332Y140000D01*
X85666D01*
X86332D01*
X86998Y139333D01*
Y138667D01*
X86332Y138001D01*
X84999D01*
X84333Y138667D01*
X108002Y143001D02*
Y146999D01*
X110001D01*
X110667Y146333D01*
Y145000D01*
X110001Y144334D01*
X108002D01*
X109335D02*
X110667Y143001D01*
X112000D02*
X113333D01*
X112667D01*
Y146999D01*
X112000Y146333D01*
X117998Y143001D02*
X115333D01*
X117998Y145667D01*
Y146333D01*
X117332Y146999D01*
X115999D01*
X115333Y146333D01*
X77668Y148001D02*
Y151999D01*
X79667D01*
X80334Y151333D01*
Y150000D01*
X79667Y149334D01*
X77668D01*
X79001D02*
X80334Y148001D01*
X81667D02*
X83000D01*
X82333D01*
Y151999D01*
X81667Y151333D01*
X84999Y148001D02*
X86332D01*
X85666D01*
Y151999D01*
X84999Y151333D01*
X108002Y153001D02*
Y156999D01*
X110001D01*
X110667Y156333D01*
Y155000D01*
X110001Y154333D01*
X108002D01*
X109335D02*
X110667Y153001D01*
X112000D02*
X113333D01*
X112667D01*
Y156999D01*
X112000Y156333D01*
X115333D02*
X115999Y156999D01*
X117332D01*
X117998Y156333D01*
Y153667D01*
X117332Y153001D01*
X115999D01*
X115333Y153667D01*
Y156333D01*
X78668Y158001D02*
Y161999D01*
X80667D01*
X81334Y161333D01*
Y160000D01*
X80667Y159334D01*
X78668D01*
X80001D02*
X81334Y158001D01*
X82666Y158667D02*
X83333Y158001D01*
X84666D01*
X85332Y158667D01*
Y161333D01*
X84666Y161999D01*
X83333D01*
X82666Y161333D01*
Y160667D01*
X83333Y160000D01*
X85332D01*
X107668Y78001D02*
Y81999D01*
X109667D01*
X110334Y81333D01*
Y80000D01*
X109667Y79334D01*
X107668D01*
X109001D02*
X110334Y78001D01*
X111667Y81333D02*
X112333Y81999D01*
X113666D01*
X114332Y81333D01*
Y80666D01*
X113666Y80000D01*
X114332Y79334D01*
Y78667D01*
X113666Y78001D01*
X112333D01*
X111667Y78667D01*
Y79334D01*
X112333Y80000D01*
X111667Y80666D01*
Y81333D01*
X112333Y80000D02*
X113666D01*
X107668Y163001D02*
Y166999D01*
X109667D01*
X110334Y166333D01*
Y165000D01*
X109667Y164333D01*
X107668D01*
X109001D02*
X110334Y163001D01*
X111667Y166999D02*
X114332D01*
Y166333D01*
X111667Y163667D01*
Y163001D01*
X78668Y168001D02*
Y171999D01*
X80667D01*
X81334Y171333D01*
Y170000D01*
X80667Y169334D01*
X78668D01*
X80001D02*
X81334Y168001D01*
X85332Y171999D02*
X83999Y171333D01*
X82666Y170000D01*
Y168667D01*
X83333Y168001D01*
X84666D01*
X85332Y168667D01*
Y169334D01*
X84666Y170000D01*
X82666D01*
X38668Y68001D02*
Y71999D01*
X40667D01*
X41334Y71333D01*
Y70000D01*
X40667Y69334D01*
X38668D01*
X40001D02*
X41334Y68001D01*
X45332Y71999D02*
X42667D01*
Y70000D01*
X43999Y70666D01*
X44666D01*
X45332Y70000D01*
Y68667D01*
X44666Y68001D01*
X43333D01*
X42667Y68667D01*
X107668Y68001D02*
Y71999D01*
X109667D01*
X110334Y71333D01*
Y70000D01*
X109667Y69334D01*
X107668D01*
X109001D02*
X110334Y68001D01*
X113666D02*
Y71999D01*
X111667Y70000D01*
X114332D01*
X78668Y178001D02*
Y181999D01*
X80667D01*
X81334Y181333D01*
Y180000D01*
X80667Y179333D01*
X78668D01*
X80001D02*
X81334Y178001D01*
X82666Y181333D02*
X83333Y181999D01*
X84666D01*
X85332Y181333D01*
Y180666D01*
X84666Y180000D01*
X83999D01*
X84666D01*
X85332Y179333D01*
Y178667D01*
X84666Y178001D01*
X83333D01*
X82666Y178667D01*
X107668Y58001D02*
Y61999D01*
X109667D01*
X110334Y61333D01*
Y60000D01*
X109667Y59334D01*
X107668D01*
X109001D02*
X110334Y58001D01*
X114332D02*
X111667D01*
X114332Y60666D01*
Y61333D01*
X113666Y61999D01*
X112333D01*
X111667Y61333D01*
X79334Y188001D02*
Y191999D01*
X81334D01*
X82000Y191333D01*
Y190000D01*
X81334Y189333D01*
X79334D01*
X80667D02*
X82000Y188001D01*
X83333D02*
X84666D01*
X83999D01*
Y191999D01*
X83333Y191333D01*
X339334Y153667D02*
Y156333D01*
X338667Y156999D01*
X337334D01*
X336668Y156333D01*
Y153667D01*
X337334Y153001D01*
X338667D01*
X338001Y154333D02*
X339334Y153001D01*
X338667D02*
X339334Y153667D01*
X340667Y156333D02*
X341333Y156999D01*
X342666D01*
X343332Y156333D01*
Y155666D01*
X342666Y155000D01*
X343332Y154333D01*
Y153667D01*
X342666Y153001D01*
X341333D01*
X340667Y153667D01*
Y154333D01*
X341333Y155000D01*
X340667Y155666D01*
Y156333D01*
X341333Y155000D02*
X342666D01*
X410334Y153667D02*
Y156333D01*
X409667Y156999D01*
X408334D01*
X407668Y156333D01*
Y153667D01*
X408334Y153001D01*
X409667D01*
X409001Y154333D02*
X410334Y153001D01*
X409667D02*
X410334Y153667D01*
X411666Y156999D02*
X414332D01*
Y156333D01*
X411666Y153667D01*
Y153001D01*
X265334Y153667D02*
Y156333D01*
X264667Y156999D01*
X263334D01*
X262668Y156333D01*
Y153667D01*
X263334Y153001D01*
X264667D01*
X264001Y154333D02*
X265334Y153001D01*
X264667D02*
X265334Y153667D01*
X269332Y156999D02*
X267999Y156333D01*
X266667Y155000D01*
Y153667D01*
X267333Y153001D01*
X268666D01*
X269332Y153667D01*
Y154333D01*
X268666Y155000D01*
X266667D01*
X194334Y153667D02*
Y156333D01*
X193667Y156999D01*
X192334D01*
X191668Y156333D01*
Y153667D01*
X192334Y153001D01*
X193667D01*
X193001Y154333D02*
X194334Y153001D01*
X193667D02*
X194334Y153667D01*
X198332Y156999D02*
X195667D01*
Y155000D01*
X196999Y155666D01*
X197666D01*
X198332Y155000D01*
Y153667D01*
X197666Y153001D01*
X196333D01*
X195667Y153667D01*
X339334Y306667D02*
Y309333D01*
X338667Y309999D01*
X337334D01*
X336668Y309333D01*
Y306667D01*
X337334Y306001D01*
X338667D01*
X338001Y307334D02*
X339334Y306001D01*
X338667D02*
X339334Y306667D01*
X342666Y306001D02*
Y309999D01*
X340667Y308000D01*
X343332D01*
X411334Y306667D02*
Y309333D01*
X410667Y309999D01*
X409334D01*
X408668Y309333D01*
Y306667D01*
X409334Y306001D01*
X410667D01*
X410001Y307334D02*
X411334Y306001D01*
X410667D02*
X411334Y306667D01*
X412667Y309333D02*
X413333Y309999D01*
X414666D01*
X415332Y309333D01*
Y308666D01*
X414666Y308000D01*
X413999D01*
X414666D01*
X415332Y307334D01*
Y306667D01*
X414666Y306001D01*
X413333D01*
X412667Y306667D01*
X267334D02*
Y309333D01*
X266667Y309999D01*
X265334D01*
X264668Y309333D01*
Y306667D01*
X265334Y306001D01*
X266667D01*
X266001Y307334D02*
X267334Y306001D01*
X266667D02*
X267334Y306667D01*
X271332Y306001D02*
X268667D01*
X271332Y308666D01*
Y309333D01*
X270666Y309999D01*
X269333D01*
X268667Y309333D01*
X195000Y306667D02*
Y309333D01*
X194334Y309999D01*
X193001D01*
X192334Y309333D01*
Y306667D01*
X193001Y306001D01*
X194334D01*
X193667Y307334D02*
X195000Y306001D01*
X194334D02*
X195000Y306667D01*
X196333Y306001D02*
X197666D01*
X196999D01*
Y309999D01*
X196333Y309333D01*
X219001Y308670D02*
X222999D01*
Y311335D01*
X219001Y315334D02*
Y312668D01*
X222999D01*
Y315334D01*
X221000Y312668D02*
Y314001D01*
X219001Y316667D02*
X222999D01*
Y318666D01*
X222333Y319333D01*
X219667D01*
X219001Y318666D01*
Y316667D01*
X222999Y323332D02*
Y320666D01*
X220334Y323332D01*
X219667D01*
X219001Y322665D01*
Y321332D01*
X219667Y320666D01*
Y324664D02*
X219001Y325331D01*
Y326664D01*
X219667Y327330D01*
X220334D01*
X221000Y326664D01*
Y325997D01*
Y326664D01*
X221666Y327330D01*
X222333D01*
X222999Y326664D01*
Y325331D01*
X222333Y324664D01*
X204001Y308170D02*
X207999D01*
Y310836D01*
X204001Y314834D02*
Y312168D01*
X207999D01*
Y314834D01*
X206000Y312168D02*
Y313501D01*
X204001Y316167D02*
X207999D01*
Y318166D01*
X207333Y318833D01*
X204667D01*
X204001Y318166D01*
Y316167D01*
X207999Y322832D02*
Y320166D01*
X205333Y322832D01*
X204667D01*
X204001Y322165D01*
Y320832D01*
X204667Y320166D01*
X207999Y326830D02*
Y324165D01*
X205333Y326830D01*
X204667D01*
X204001Y326164D01*
Y324831D01*
X204667Y324165D01*
X74001Y309836D02*
X77999D01*
Y312502D01*
X74001Y316501D02*
Y313835D01*
X77999D01*
Y316501D01*
X76000Y313835D02*
Y315168D01*
X74001Y317834D02*
X77999D01*
Y319833D01*
X77333Y320499D01*
X74667D01*
X74001Y319833D01*
Y317834D01*
X77999Y324498D02*
Y321832D01*
X75334Y324498D01*
X74667D01*
X74001Y323832D01*
Y322499D01*
X74667Y321832D01*
X77999Y325831D02*
Y327164D01*
Y326497D01*
X74001D01*
X74667Y325831D01*
X84001Y309170D02*
X87999D01*
Y311836D01*
X84001Y315834D02*
Y313168D01*
X87999D01*
Y315834D01*
X86000Y313168D02*
Y314501D01*
X84001Y317167D02*
X87999D01*
Y319166D01*
X87333Y319833D01*
X84667D01*
X84001Y319166D01*
Y317167D01*
X87999Y323832D02*
Y321166D01*
X85334Y323832D01*
X84667D01*
X84001Y323165D01*
Y321832D01*
X84667Y321166D01*
Y325165D02*
X84001Y325831D01*
Y327164D01*
X84667Y327830D01*
X87333D01*
X87999Y327164D01*
Y325831D01*
X87333Y325165D01*
X84667D01*
X94001Y309503D02*
X97999D01*
Y312169D01*
X94001Y316167D02*
Y313502D01*
X97999D01*
Y316167D01*
X96000Y313502D02*
Y314834D01*
X94001Y317500D02*
X97999D01*
Y319500D01*
X97333Y320166D01*
X94667D01*
X94001Y319500D01*
Y317500D01*
X97999Y321499D02*
Y322832D01*
Y322165D01*
X94001D01*
X94667Y321499D01*
X97333Y324831D02*
X97999Y325498D01*
Y326831D01*
X97333Y327497D01*
X94667D01*
X94001Y326831D01*
Y325498D01*
X94667Y324831D01*
X95334D01*
X96000Y325498D01*
Y327497D01*
X104001Y309353D02*
X107999D01*
Y312019D01*
X104001Y316018D02*
Y313352D01*
X107999D01*
Y316018D01*
X106000Y313352D02*
Y314685D01*
X104001Y317351D02*
X107999D01*
Y319350D01*
X107333Y320017D01*
X104667D01*
X104001Y319350D01*
Y317351D01*
X107999Y321349D02*
Y322682D01*
Y322016D01*
X104001D01*
X104667Y321349D01*
Y324682D02*
X104001Y325348D01*
Y326681D01*
X104667Y327347D01*
X105333D01*
X106000Y326681D01*
X106667Y327347D01*
X107333D01*
X107999Y326681D01*
Y325348D01*
X107333Y324682D01*
X106667D01*
X106000Y325348D01*
X105333Y324682D01*
X104667D01*
X106000Y325348D02*
Y326681D01*
X115001Y309353D02*
X118999D01*
Y312019D01*
X115001Y316018D02*
Y313352D01*
X118999D01*
Y316018D01*
X117000Y313352D02*
Y314685D01*
X115001Y317351D02*
X118999D01*
Y319350D01*
X118333Y320017D01*
X115667D01*
X115001Y319350D01*
Y317351D01*
X118999Y321349D02*
Y322682D01*
Y322016D01*
X115001D01*
X115667Y321349D01*
X115001Y324682D02*
Y327347D01*
X115667D01*
X118333Y324682D01*
X118999D01*
X125001Y309503D02*
X128999D01*
Y312169D01*
X125001Y316167D02*
Y313502D01*
X128999D01*
Y316167D01*
X127000Y313502D02*
Y314834D01*
X125001Y317500D02*
X128999D01*
Y319500D01*
X128333Y320166D01*
X125667D01*
X125001Y319500D01*
Y317500D01*
X128999Y321499D02*
Y322832D01*
Y322165D01*
X125001D01*
X125667Y321499D01*
X125001Y327497D02*
X125667Y326164D01*
X127000Y324831D01*
X128333D01*
X128999Y325498D01*
Y326831D01*
X128333Y327497D01*
X127666D01*
X127000Y326831D01*
Y324831D01*
X135001Y309503D02*
X138999D01*
Y312169D01*
X135001Y316167D02*
Y313502D01*
X138999D01*
Y316167D01*
X137000Y313502D02*
Y314834D01*
X135001Y317500D02*
X138999D01*
Y319500D01*
X138333Y320166D01*
X135667D01*
X135001Y319500D01*
Y317500D01*
X138999Y321499D02*
Y322832D01*
Y322165D01*
X135001D01*
X135667Y321499D01*
X135001Y327497D02*
Y324831D01*
X137000D01*
X136334Y326164D01*
Y326831D01*
X137000Y327497D01*
X138333D01*
X138999Y326831D01*
Y325498D01*
X138333Y324831D01*
X145001Y309003D02*
X148999D01*
Y311669D01*
X145001Y315667D02*
Y313002D01*
X148999D01*
Y315667D01*
X147000Y313002D02*
Y314335D01*
X145001Y317000D02*
X148999D01*
Y319000D01*
X148333Y319666D01*
X145667D01*
X145001Y319000D01*
Y317000D01*
X148999Y320999D02*
Y322332D01*
Y321666D01*
X145001D01*
X145667Y320999D01*
X148999Y326331D02*
X145001D01*
X147000Y324331D01*
Y326997D01*
X239001Y309003D02*
X242999D01*
Y311669D01*
X239001Y315667D02*
Y313002D01*
X242999D01*
Y315667D01*
X241000Y313002D02*
Y314335D01*
X239001Y317000D02*
X242999D01*
Y319000D01*
X242333Y319666D01*
X239667D01*
X239001Y319000D01*
Y317000D01*
X242999Y320999D02*
Y322332D01*
Y321666D01*
X239001D01*
X239667Y320999D01*
Y324331D02*
X239001Y324998D01*
Y326331D01*
X239667Y326997D01*
X240334D01*
X241000Y326331D01*
Y325664D01*
Y326331D01*
X241666Y326997D01*
X242333D01*
X242999Y326331D01*
Y324998D01*
X242333Y324331D01*
X259001Y309003D02*
X262999D01*
Y311669D01*
X259001Y315667D02*
Y313002D01*
X262999D01*
Y315667D01*
X261000Y313002D02*
Y314335D01*
X259001Y317000D02*
X262999D01*
Y319000D01*
X262333Y319666D01*
X259667D01*
X259001Y319000D01*
Y317000D01*
X262999Y320999D02*
Y322332D01*
Y321666D01*
X259001D01*
X259667Y320999D01*
X262999Y326997D02*
Y324331D01*
X260334Y326997D01*
X259667D01*
X259001Y326331D01*
Y324998D01*
X259667Y324331D01*
X197001Y318669D02*
X200999D01*
Y321335D01*
X197001Y325334D02*
Y322668D01*
X200999D01*
Y325334D01*
X199000Y322668D02*
Y324001D01*
X197001Y326667D02*
X200999D01*
Y328666D01*
X200333Y329333D01*
X197667D01*
X197001Y328666D01*
Y326667D01*
X200999Y330665D02*
Y331998D01*
Y331332D01*
X197001D01*
X197667Y330665D01*
X200999Y333998D02*
Y335331D01*
Y334664D01*
X197001D01*
X197667Y333998D01*
X175001Y310003D02*
X178999D01*
Y312669D01*
X175001Y316667D02*
Y314002D01*
X178999D01*
Y316667D01*
X177000Y314002D02*
Y315335D01*
X175001Y318000D02*
X178999D01*
Y320000D01*
X178333Y320666D01*
X175667D01*
X175001Y320000D01*
Y318000D01*
X178999Y321999D02*
Y323332D01*
Y322666D01*
X175001D01*
X175667Y321999D01*
Y325331D02*
X175001Y325998D01*
Y327331D01*
X175667Y327997D01*
X178333D01*
X178999Y327331D01*
Y325998D01*
X178333Y325331D01*
X175667D01*
X161501Y312169D02*
X165499D01*
Y314835D01*
X161501Y318834D02*
Y316168D01*
X165499D01*
Y318834D01*
X163500Y316168D02*
Y317501D01*
X161501Y320166D02*
X165499D01*
Y322166D01*
X164833Y322832D01*
X162167D01*
X161501Y322166D01*
Y320166D01*
X164833Y324165D02*
X165499Y324832D01*
Y326165D01*
X164833Y326831D01*
X162167D01*
X161501Y326165D01*
Y324832D01*
X162167Y324165D01*
X162833D01*
X163500Y324832D01*
Y326831D01*
X356001Y97669D02*
X359999D01*
Y100335D01*
X356001Y104333D02*
Y101668D01*
X359999D01*
Y104333D01*
X358000Y101668D02*
Y103001D01*
X356001Y105666D02*
X359999D01*
Y107666D01*
X359333Y108332D01*
X356667D01*
X356001Y107666D01*
Y105666D01*
X356667Y109665D02*
X356001Y110332D01*
Y111664D01*
X356667Y112331D01*
X357334D01*
X358000Y111664D01*
X358666Y112331D01*
X359333D01*
X359999Y111664D01*
Y110332D01*
X359333Y109665D01*
X358666D01*
X358000Y110332D01*
X357334Y109665D01*
X356667D01*
X358000Y110332D02*
Y111664D01*
X428001Y98669D02*
X431999D01*
Y101335D01*
X428001Y105333D02*
Y102668D01*
X431999D01*
Y105333D01*
X430000Y102668D02*
Y104001D01*
X428001Y106667D02*
X431999D01*
Y108666D01*
X431333Y109332D01*
X428667D01*
X428001Y108666D01*
Y106667D01*
Y110665D02*
Y113331D01*
X428667D01*
X431333Y110665D01*
X431999D01*
X212001Y98519D02*
X215999D01*
Y101185D01*
X212001Y105184D02*
Y102518D01*
X215999D01*
Y105184D01*
X214000Y102518D02*
Y103851D01*
X212001Y106517D02*
X215999D01*
Y108516D01*
X215333Y109183D01*
X212667D01*
X212001Y108516D01*
Y106517D01*
Y113181D02*
Y110516D01*
X214000D01*
X213334Y111848D01*
Y112515D01*
X214000Y113181D01*
X215333D01*
X215999Y112515D01*
Y111182D01*
X215333Y110516D01*
X356001Y251669D02*
X359999D01*
Y254335D01*
X356001Y258334D02*
Y255668D01*
X359999D01*
Y258334D01*
X358000Y255668D02*
Y257001D01*
X356001Y259666D02*
X359999D01*
Y261666D01*
X359333Y262332D01*
X356667D01*
X356001Y261666D01*
Y259666D01*
X359999Y265665D02*
X356001D01*
X358000Y263665D01*
Y266331D01*
X428001Y250669D02*
X431999D01*
Y253335D01*
X428001Y257334D02*
Y254668D01*
X431999D01*
Y257334D01*
X430000Y254668D02*
Y256001D01*
X428001Y258666D02*
X431999D01*
Y260666D01*
X431333Y261332D01*
X428667D01*
X428001Y260666D01*
Y258666D01*
X428667Y262665D02*
X428001Y263332D01*
Y264665D01*
X428667Y265331D01*
X429334D01*
X430000Y264665D01*
Y263998D01*
Y264665D01*
X430666Y265331D01*
X431333D01*
X431999Y264665D01*
Y263332D01*
X431333Y262665D01*
X284001Y250669D02*
X287999D01*
Y253335D01*
X284001Y257334D02*
Y254668D01*
X287999D01*
Y257334D01*
X286000Y254668D02*
Y256001D01*
X284001Y258666D02*
X287999D01*
Y260666D01*
X287333Y261332D01*
X284667D01*
X284001Y260666D01*
Y258666D01*
X287999Y265331D02*
Y262665D01*
X285334Y265331D01*
X284667D01*
X284001Y264665D01*
Y263332D01*
X284667Y262665D01*
X212001Y252336D02*
X215999D01*
Y255001D01*
X212001Y259000D02*
Y256334D01*
X215999D01*
Y259000D01*
X214000Y256334D02*
Y257667D01*
X212001Y260333D02*
X215999D01*
Y262332D01*
X215333Y262999D01*
X212667D01*
X212001Y262332D01*
Y260333D01*
X215999Y264332D02*
Y265665D01*
Y264998D01*
X212001D01*
X212667Y264332D01*
D13*
X380500Y139600D02*
Y143700D01*
Y139600D02*
X385500D01*
Y143800D01*
Y146300D02*
Y150400D01*
X380500D02*
X385500D01*
X380500Y146300D02*
Y150400D01*
X233500Y139600D02*
Y143700D01*
Y139600D02*
X238500D01*
Y143800D01*
Y146300D02*
Y150400D01*
X233500D02*
X238500D01*
X233500Y146300D02*
Y150400D01*
X181500Y125600D02*
Y129700D01*
Y125600D02*
X186500D01*
Y129800D01*
Y132300D02*
Y136400D01*
X181500D02*
X186500D01*
X181500Y132300D02*
Y136400D01*
X197500Y173300D02*
Y177400D01*
X192500D02*
X197500D01*
X192500Y173200D02*
Y177400D01*
Y166600D02*
Y170700D01*
Y166600D02*
X197500D01*
Y170700D01*
X308500Y293450D02*
Y297550D01*
Y293450D02*
X313500D01*
Y297650D01*
Y300150D02*
Y304250D01*
X308500D02*
X313500D01*
X308500Y300150D02*
Y304250D01*
X233500Y292600D02*
Y296700D01*
Y292600D02*
X238500D01*
Y296800D01*
Y299300D02*
Y303400D01*
X233500D02*
X238500D01*
X233500Y299300D02*
Y303400D01*
X197500Y270300D02*
Y274400D01*
X192500D02*
X197500D01*
X192500Y270200D02*
Y274400D01*
Y263600D02*
Y267700D01*
Y263600D02*
X197500D01*
Y267700D01*
X380600Y313500D02*
X384700D01*
X380600Y308500D02*
Y313500D01*
Y308500D02*
X384800D01*
X387300D02*
X391400D01*
Y313500D01*
X387300D02*
X391400D01*
X376300Y363500D02*
X380400D01*
Y358500D02*
Y363500D01*
X376300Y358500D02*
X380400D01*
X369600D02*
X373800D01*
X369600D02*
Y363500D01*
X373700D01*
X431500Y299800D02*
Y303900D01*
X426500D02*
X431500D01*
X426500Y299700D02*
Y303900D01*
Y293100D02*
Y297200D01*
Y293100D02*
X431500D01*
Y297200D01*
X287500Y299800D02*
Y303900D01*
X282500D02*
X287500D01*
X282500Y299700D02*
Y303900D01*
Y293100D02*
Y297200D01*
Y293100D02*
X287500D01*
Y297200D01*
X359500Y299800D02*
Y303900D01*
X354500D02*
X359500D01*
X354500Y299700D02*
Y303900D01*
Y293100D02*
Y297200D01*
Y293100D02*
X359500D01*
Y297200D01*
X431500Y146800D02*
Y150900D01*
X426500D02*
X431500D01*
X426500Y146700D02*
Y150900D01*
Y140100D02*
Y144200D01*
Y140100D02*
X431500D01*
Y144200D01*
X286500Y146800D02*
Y150900D01*
X281500D02*
X286500D01*
X281500Y146700D02*
Y150900D01*
Y140100D02*
Y144200D01*
Y140100D02*
X286500D01*
Y144200D01*
X215500Y146300D02*
Y150400D01*
X210500D02*
X215500D01*
X210500Y146200D02*
Y150400D01*
Y139600D02*
Y143700D01*
Y139600D02*
X215500D01*
Y143700D01*
X359500Y146800D02*
Y150900D01*
X354500D02*
X359500D01*
X354500Y146700D02*
Y150900D01*
Y140100D02*
Y144200D01*
Y140100D02*
X359500D01*
Y144200D01*
X215500Y299800D02*
Y303900D01*
X210500D02*
X215500D01*
X210500Y299700D02*
Y303900D01*
Y293100D02*
Y297200D01*
Y293100D02*
X215500D01*
Y297200D01*
X158500Y323300D02*
Y327400D01*
X153500D02*
X158500D01*
X153500Y323200D02*
Y327400D01*
Y316600D02*
Y320700D01*
Y316600D02*
X158500D01*
Y320700D01*
X172500Y323300D02*
Y327400D01*
X167500D02*
X172500D01*
X167500Y323200D02*
Y327400D01*
Y316600D02*
Y320700D01*
Y316600D02*
X172500D01*
Y320700D01*
X186500Y323300D02*
Y327400D01*
X181500D02*
X186500D01*
X181500Y323200D02*
Y327400D01*
Y316600D02*
Y320700D01*
Y316600D02*
X186500D01*
Y320700D01*
X314300Y354500D02*
X318400D01*
Y359500D01*
X314200D02*
X318400D01*
X307600D02*
X311700D01*
X307600Y354500D02*
Y359500D01*
Y354500D02*
X311700D01*
X307600Y340500D02*
X311700D01*
X307600Y335500D02*
Y340500D01*
Y335500D02*
X311800D01*
X314300D02*
X318400D01*
Y340500D01*
X314300D02*
X318400D01*
X314300Y342500D02*
X318400D01*
Y347500D01*
X314200D02*
X318400D01*
X307600D02*
X311700D01*
X307600Y342500D02*
Y347500D01*
Y342500D02*
X311700D01*
X376300Y328500D02*
X380400D01*
Y333500D01*
X376200D02*
X380400D01*
X369600D02*
X373700D01*
X369600Y328500D02*
Y333500D01*
Y328500D02*
X373700D01*
X369600Y339500D02*
X373700D01*
X369600Y334500D02*
Y339500D01*
Y334500D02*
X373800D01*
X376300D02*
X380400D01*
Y339500D01*
X376300D02*
X380400D01*
X376300Y340500D02*
X380400D01*
Y345500D01*
X376200D02*
X380400D01*
X369600D02*
X373700D01*
X369600Y340500D02*
Y345500D01*
Y340500D02*
X373700D01*
X369600Y351500D02*
X373700D01*
X369600Y346500D02*
Y351500D01*
Y346500D02*
X373800D01*
X376300D02*
X380400D01*
Y351500D01*
X376300D02*
X380400D01*
X376300Y352500D02*
X380400D01*
Y357500D01*
X376200D02*
X380400D01*
X369600D02*
X373700D01*
X369600Y352500D02*
Y357500D01*
Y352500D02*
X373700D01*
X94600Y62500D02*
X98700D01*
X94600Y57500D02*
Y62500D01*
Y57500D02*
X98800D01*
X101300D02*
X105400D01*
Y62500D01*
X101300D02*
X105400D01*
X64600Y192500D02*
X68700D01*
X64600Y187500D02*
Y192500D01*
Y187500D02*
X68800D01*
X71300D02*
X75400D01*
Y192500D01*
X71300D02*
X75400D01*
X46600Y72500D02*
X50700D01*
X46600Y67500D02*
Y72500D01*
Y67500D02*
X50800D01*
X53300D02*
X57400D01*
Y72500D01*
X53300D02*
X57400D01*
X94600D02*
X98700D01*
X94600Y67500D02*
Y72500D01*
Y67500D02*
X98800D01*
X101300D02*
X105400D01*
Y72500D01*
X101300D02*
X105400D01*
X64600Y182500D02*
X68700D01*
X64600Y177500D02*
Y182500D01*
Y177500D02*
X68800D01*
X71300D02*
X75400D01*
Y182500D01*
X71300D02*
X75400D01*
X94600Y82500D02*
X98700D01*
X94600Y77500D02*
Y82500D01*
Y77500D02*
X98800D01*
X101300D02*
X105400D01*
Y82500D01*
X101300D02*
X105400D01*
X101300Y162500D02*
X105400D01*
Y167500D01*
X101200D02*
X105400D01*
X94600D02*
X98700D01*
X94600Y162500D02*
Y167500D01*
Y162500D02*
X98700D01*
X64600Y172500D02*
X68700D01*
X64600Y167500D02*
Y172500D01*
Y167500D02*
X68800D01*
X71300D02*
X75400D01*
Y172500D01*
X71300D02*
X75400D01*
X101300Y152500D02*
X105400D01*
Y157500D01*
X101200D02*
X105400D01*
X94600D02*
X98700D01*
X94600Y152500D02*
Y157500D01*
Y152500D02*
X98700D01*
X64600Y162500D02*
X68700D01*
X64600Y157500D02*
Y162500D01*
Y157500D02*
X68800D01*
X71300D02*
X75400D01*
Y162500D01*
X71300D02*
X75400D01*
X101300Y142500D02*
X105400D01*
Y147500D01*
X101200D02*
X105400D01*
X94600D02*
X98700D01*
X94600Y142500D02*
Y147500D01*
Y142500D02*
X98700D01*
X64600Y152500D02*
X68700D01*
X64600Y147500D02*
Y152500D01*
Y147500D02*
X68800D01*
X71300D02*
X75400D01*
Y152500D01*
X71300D02*
X75400D01*
X101300Y132500D02*
X105400D01*
Y137500D01*
X101200D02*
X105400D01*
X94600D02*
X98700D01*
X94600Y132500D02*
Y137500D01*
Y132500D02*
X98700D01*
X64600Y142500D02*
X68700D01*
X64600Y137500D02*
Y142500D01*
Y137500D02*
X68800D01*
X71300D02*
X75400D01*
Y142500D01*
X71300D02*
X75400D01*
X64600Y132500D02*
X68700D01*
X64600Y127500D02*
Y132500D01*
Y127500D02*
X68800D01*
X71300D02*
X75400D01*
Y132500D01*
X71300D02*
X75400D01*
X171500Y270300D02*
Y274400D01*
X166500D02*
X171500D01*
X166500Y270200D02*
Y274400D01*
Y263600D02*
Y267700D01*
Y263600D02*
X171500D01*
Y267700D01*
X137500Y263600D02*
Y267700D01*
Y263600D02*
X142500D01*
Y267800D01*
Y270300D02*
Y274400D01*
X137500D02*
X142500D01*
X137500Y270300D02*
Y274400D01*
X64600Y122500D02*
X68700D01*
X64600Y117500D02*
Y122500D01*
Y117500D02*
X68800D01*
X71300D02*
X75400D01*
Y122500D01*
X71300D02*
X75400D01*
X177500Y270300D02*
Y274400D01*
X172500D02*
X177500D01*
X172500Y270200D02*
Y274400D01*
Y263600D02*
Y267700D01*
Y263600D02*
X177500D01*
Y267700D01*
X131500Y263600D02*
Y267700D01*
Y263600D02*
X136500D01*
Y267800D01*
Y270300D02*
Y274400D01*
X131500D02*
X136500D01*
X131500Y270300D02*
Y274400D01*
X183500Y270300D02*
Y274400D01*
X178500D02*
X183500D01*
X178500Y270200D02*
Y274400D01*
Y263600D02*
Y267700D01*
Y263600D02*
X183500D01*
Y267700D01*
X125500Y263600D02*
Y267700D01*
Y263600D02*
X130500D01*
Y267800D01*
Y270300D02*
Y274400D01*
X125500D02*
X130500D01*
X125500Y270300D02*
Y274400D01*
X188300Y244500D02*
X192400D01*
Y249500D01*
X188200D02*
X192400D01*
X181600D02*
X185700D01*
X181600Y244500D02*
Y249500D01*
Y244500D02*
X185700D01*
X106300Y248500D02*
X110400D01*
Y253500D01*
X106200D02*
X110400D01*
X99600D02*
X103700D01*
X99600Y248500D02*
Y253500D01*
Y248500D02*
X103700D01*
X188300Y238500D02*
X192400D01*
Y243500D01*
X188200D02*
X192400D01*
X181600D02*
X185700D01*
X181600Y238500D02*
Y243500D01*
Y238500D02*
X185700D01*
X106300Y242500D02*
X110400D01*
Y247500D01*
X106200D02*
X110400D01*
X99600D02*
X103700D01*
X99600Y242500D02*
Y247500D01*
Y242500D02*
X103700D01*
X188300Y232500D02*
X192400D01*
Y237500D01*
X188200D02*
X192400D01*
X181600D02*
X185700D01*
X181600Y232500D02*
Y237500D01*
Y232500D02*
X185700D01*
X106300Y236500D02*
X110400D01*
Y241500D01*
X106200D02*
X110400D01*
X99600D02*
X103700D01*
X99600Y236500D02*
Y241500D01*
Y236500D02*
X103700D01*
X188300Y226500D02*
X192400D01*
Y231500D01*
X188200D02*
X192400D01*
X181600D02*
X185700D01*
X181600Y226500D02*
Y231500D01*
Y226500D02*
X185700D01*
X106300Y230500D02*
X110400D01*
Y235500D01*
X106200D02*
X110400D01*
X99600D02*
X103700D01*
X99600Y230500D02*
Y235500D01*
Y230500D02*
X103700D01*
X188300Y220500D02*
X192400D01*
Y225500D01*
X188200D02*
X192400D01*
X181600D02*
X185700D01*
X181600Y220500D02*
Y225500D01*
Y220500D02*
X185700D01*
X106300Y224500D02*
X110400D01*
Y229500D01*
X106200D02*
X110400D01*
X99600D02*
X103700D01*
X99600Y224500D02*
Y229500D01*
Y224500D02*
X103700D01*
X188300Y199500D02*
X192400D01*
Y204500D01*
X188200D02*
X192400D01*
X181600D02*
X185700D01*
X181600Y199500D02*
Y204500D01*
Y199500D02*
X185700D01*
X166500Y184600D02*
Y188700D01*
Y184600D02*
X171500D01*
Y188800D01*
Y191300D02*
Y195400D01*
X166500D02*
X171500D01*
X166500Y191300D02*
Y195400D01*
X106300Y218500D02*
X110400D01*
Y223500D01*
X106200D02*
X110400D01*
X99600D02*
X103700D01*
X99600Y218500D02*
Y223500D01*
Y218500D02*
X103700D01*
X160500Y184600D02*
Y188700D01*
Y184600D02*
X165500D01*
Y188800D01*
Y191300D02*
Y195400D01*
X160500D02*
X165500D01*
X160500Y191300D02*
Y195400D01*
X106300Y212500D02*
X110400D01*
Y217500D01*
X106200D02*
X110400D01*
X99600D02*
X103700D01*
X99600Y212500D02*
Y217500D01*
Y212500D02*
X103700D01*
X154500Y184600D02*
Y188700D01*
Y184600D02*
X159500D01*
Y188800D01*
Y191300D02*
Y195400D01*
X154500D02*
X159500D01*
X154500Y191300D02*
Y195400D01*
X106300Y206500D02*
X110400D01*
Y211500D01*
X106200D02*
X110400D01*
X99600D02*
X103700D01*
X99600Y206500D02*
Y211500D01*
Y206500D02*
X103700D01*
X148500Y184600D02*
Y188700D01*
Y184600D02*
X153500D01*
Y188800D01*
Y191300D02*
Y195400D01*
X148500D02*
X153500D01*
X148500Y191300D02*
Y195400D01*
X135500Y191300D02*
Y195400D01*
X130500D02*
X135500D01*
X130500Y191200D02*
Y195400D01*
Y184600D02*
Y188700D01*
Y184600D02*
X135500D01*
Y188700D01*
X142500Y184750D02*
Y188850D01*
Y184750D02*
X147500D01*
Y188950D01*
Y191450D02*
Y195550D01*
X142500D02*
X147500D01*
X142500Y191450D02*
Y195550D01*
X136500Y184600D02*
Y188700D01*
Y184600D02*
X141500D01*
Y188800D01*
Y191300D02*
Y195400D01*
X136500D02*
X141500D01*
X136500Y191300D02*
Y195400D01*
D14*
X218063Y209614D02*
X278693D01*
X218063D02*
Y284417D01*
X278693D01*
Y209614D02*
Y284417D01*
X350693Y209614D02*
Y284417D01*
X290063D02*
X350693D01*
X290063Y209614D02*
Y284417D01*
Y209614D02*
X350693D01*
X362063D02*
X422693D01*
X362063D02*
Y284417D01*
X422693D01*
Y209614D02*
Y284417D01*
X494693Y209614D02*
Y284417D01*
X434063D02*
X494693D01*
X434063Y209614D02*
Y284417D01*
Y209614D02*
X494693D01*
X218063Y56614D02*
X278693D01*
X218063D02*
Y131417D01*
X278693D01*
Y56614D02*
Y131417D01*
X350693Y56614D02*
Y131417D01*
X290063D02*
X350693D01*
X290063Y56614D02*
Y131417D01*
Y56614D02*
X350693D01*
X362063D02*
X422693D01*
X362063D02*
Y131417D01*
X422693D01*
Y56614D02*
Y131417D01*
X494693Y56614D02*
Y131417D01*
X434063D02*
X494693D01*
X434063Y56614D02*
Y131417D01*
Y56614D02*
X494693D01*
X223264Y9189D02*
X273736D01*
X223264D02*
Y37732D01*
X273736D01*
Y9189D02*
Y37732D01*
X223264Y162189D02*
X273736D01*
X223264D02*
Y190732D01*
X273736D01*
Y162189D02*
Y190732D01*
X294764Y9189D02*
X345236D01*
X294764D02*
Y37732D01*
X345236D01*
Y9189D02*
Y37732D01*
X294764Y162189D02*
X345236D01*
X294764D02*
Y190732D01*
X345236D01*
Y162189D02*
Y190732D01*
X367264Y9189D02*
X417736D01*
X367264D02*
Y37732D01*
X417736D01*
Y9189D02*
Y37732D01*
X367264Y162189D02*
X417736D01*
X367264D02*
Y190732D01*
X417736D01*
Y162189D02*
Y190732D01*
X439264Y9189D02*
X489736D01*
X439264D02*
Y37732D01*
X489736D01*
Y9189D02*
Y37732D01*
X439264Y162189D02*
X489736D01*
X439264D02*
Y190732D01*
X489736D01*
Y162189D02*
Y190732D01*
X333717Y357842D02*
X348284D01*
Y338158D02*
Y357842D01*
X333717Y338158D02*
X348284D01*
X333717D02*
Y357842D01*
X326532Y357941D02*
X332339D01*
X85000Y65833D02*
Y85000D01*
Y55000D02*
Y85000D01*
X65000Y55000D02*
Y85000D01*
Y55000D02*
X85000D01*
X65000Y85000D02*
X85000D01*
X30945Y288173D02*
X49055D01*
Y259827D02*
Y288173D01*
X30945Y259827D02*
X49055D01*
X30945D02*
Y288173D01*
X22480Y287779D02*
X29567D01*
X137472Y212913D02*
Y237717D01*
Y212913D02*
X162276D01*
Y237717D01*
X137472D02*
X162276D01*
X198705Y303748D02*
X199295D01*
Y292252D02*
Y303748D01*
X198705Y292252D02*
X199295D01*
X198705D02*
Y303748D01*
X192405Y303925D02*
X197327D01*
X269705Y303748D02*
X270295D01*
Y292252D02*
Y303748D01*
X269705Y292252D02*
X270295D01*
X269705D02*
Y303748D01*
X263405Y303925D02*
X268327D01*
X415705Y303748D02*
X416295D01*
Y292252D02*
Y303748D01*
X415705Y292252D02*
X416295D01*
X415705D02*
Y303748D01*
X409406Y303925D02*
X414327D01*
X343705Y303748D02*
X344295D01*
Y292252D02*
Y303748D01*
X343705Y292252D02*
X344295D01*
X343705D02*
Y303748D01*
X337405Y303925D02*
X342327D01*
X198705Y150748D02*
X199295D01*
Y139252D02*
Y150748D01*
X198705Y139252D02*
X199295D01*
X198705D02*
Y150748D01*
X192405Y150925D02*
X197327D01*
X269705Y150748D02*
X270295D01*
Y139252D02*
Y150748D01*
X269705Y139252D02*
X270295D01*
X269705D02*
Y150748D01*
X263405Y150925D02*
X268327D01*
X415705Y150748D02*
X416295D01*
Y139252D02*
Y150748D01*
X415705Y139252D02*
X416295D01*
X415705D02*
Y150748D01*
X409406Y150925D02*
X414327D01*
X343705Y150748D02*
X344295D01*
Y139252D02*
Y150748D01*
X343705Y139252D02*
X344295D01*
X343705D02*
Y150748D01*
X337405Y150925D02*
X342327D01*
D15*
X79000Y48000D02*
X80666D01*
X79833D01*
Y52998D01*
X79000Y52165D01*
X71332Y48000D02*
X68000D01*
X71332Y51332D01*
Y52165D01*
X70499Y52998D01*
X68833D01*
X68000Y52165D01*
X82332Y91998D02*
X79000D01*
Y89499D01*
X80666Y90332D01*
X81499D01*
X82332Y89499D01*
Y87833D01*
X81499Y87000D01*
X79833D01*
X79000Y87833D01*
X72332Y91998D02*
X70666Y91165D01*
X69000Y89499D01*
Y87833D01*
X69833Y87000D01*
X71499D01*
X72332Y87833D01*
Y88666D01*
X71499Y89499D01*
X69000D01*
M02*
