G04*
G04 #@! TF.GenerationSoftware,Altium Limited,Altium Designer,22.3.1 (43)*
G04*
G04 Layer_Color=32896*
%FSLAX25Y25*%
%MOIN*%
G70*
G04*
G04 #@! TF.SameCoordinates,DE08D283-0CB9-458E-8042-9F6044BD937B*
G04*
G04*
G04 #@! TF.FilePolarity,Positive*
G04*
G01*
G75*
%ADD10C,0.00394*%
%ADD65C,0.00197*%
D10*
X214126Y205677D02*
X282630D01*
Y288354D01*
X214126D02*
X282630D01*
X214126Y205677D02*
Y288354D01*
X286126Y205677D02*
Y288354D01*
X354630D01*
Y205677D02*
Y288354D01*
X286126Y205677D02*
X354630D01*
X358126D02*
X426630D01*
Y288354D01*
X358126D02*
X426630D01*
X358126Y205677D02*
Y288354D01*
X430126Y205677D02*
Y288354D01*
X498630D01*
Y205677D02*
Y288354D01*
X430126Y205677D02*
X498630D01*
X214126Y52677D02*
X282630D01*
Y135354D01*
X214126D02*
X282630D01*
X214126Y52677D02*
Y135354D01*
X286126Y52677D02*
Y135354D01*
X354630D01*
Y52677D02*
Y135354D01*
X286126Y52677D02*
X354630D01*
X358126D02*
X426630D01*
Y135354D01*
X358126D02*
X426630D01*
X358126Y52677D02*
Y135354D01*
X430126Y52677D02*
Y135354D01*
X498630D01*
Y52677D02*
Y135354D01*
X430126Y52677D02*
X498630D01*
D65*
X385953Y139291D02*
Y150709D01*
X380047Y139291D02*
X385953D01*
X380047D02*
Y150709D01*
X385953D01*
X238953Y139291D02*
Y150709D01*
X233047Y139291D02*
X238953D01*
X233047D02*
Y150709D01*
X238953D01*
X186953Y125291D02*
Y136709D01*
X181047Y125291D02*
X186953D01*
X181047D02*
Y136709D01*
X186953D01*
X192047Y166291D02*
Y177709D01*
X197953D01*
Y166291D02*
Y177709D01*
X192047Y166291D02*
X197953D01*
X313953Y293142D02*
Y304559D01*
X308047Y293142D02*
X313953D01*
X308047D02*
Y304559D01*
X313953D01*
X238953Y292291D02*
Y303709D01*
X233047Y292291D02*
X238953D01*
X233047D02*
Y303709D01*
X238953D01*
X192047Y263291D02*
Y274709D01*
X197953D01*
Y263291D02*
Y274709D01*
X192047Y263291D02*
X197953D01*
X380291Y308047D02*
X391709D01*
X380291D02*
Y313953D01*
X391709D01*
Y308047D02*
Y313953D01*
X380709Y358047D02*
Y363953D01*
X369291D02*
X380709D01*
X369291Y358047D02*
Y363953D01*
Y358047D02*
X380709D01*
X325547Y359024D02*
X356453D01*
Y336976D02*
Y359024D01*
X325547Y336976D02*
X356453D01*
X325547D02*
Y359024D01*
X257047Y343209D02*
X262953D01*
Y331791D02*
Y343209D01*
X257047Y331791D02*
X262953D01*
X257047D02*
Y343209D01*
X237047D02*
X242953D01*
Y331791D02*
Y343209D01*
X237047Y331791D02*
X242953D01*
X237047D02*
Y343209D01*
X205047Y332291D02*
Y343709D01*
Y332291D02*
X210953D01*
Y343709D01*
X205047D02*
X210953D01*
X217047Y332291D02*
Y343709D01*
Y332291D02*
X222953D01*
Y343709D01*
X217047D02*
X222953D01*
X160547Y331791D02*
Y343209D01*
Y331791D02*
X166453D01*
Y343209D01*
X160547D02*
X166453D01*
X174547Y331791D02*
Y343209D01*
Y331791D02*
X180453D01*
Y343209D01*
X174547D02*
X180453D01*
X189047Y331791D02*
Y343209D01*
Y331791D02*
X194953D01*
Y343209D01*
X189047D02*
X194953D01*
X137291Y217047D02*
Y222953D01*
X148709D01*
Y217047D02*
Y222953D01*
X137291Y217047D02*
X148709D01*
X160709Y223547D02*
Y229453D01*
X149291Y223547D02*
X160709D01*
X149291D02*
Y229453D01*
X160709D01*
X137291Y223547D02*
Y229453D01*
X148709D01*
Y223547D02*
Y229453D01*
X137291Y223547D02*
X148709D01*
X160709Y217047D02*
Y222953D01*
X149291Y217047D02*
X160709D01*
X149291D02*
Y222953D01*
X160709D01*
X137291Y230047D02*
Y235953D01*
X148709D01*
Y230047D02*
Y235953D01*
X137291Y230047D02*
X148709D01*
X160709D02*
Y235953D01*
X149291Y230047D02*
X160709D01*
X149291D02*
Y235953D01*
X160709D01*
X113047Y331791D02*
Y343209D01*
Y331791D02*
X118953D01*
Y343209D01*
X113047D02*
X118953D01*
X83047Y331791D02*
Y343209D01*
Y331791D02*
X88953D01*
Y343209D01*
X83047D02*
X88953D01*
X73047Y331791D02*
Y343209D01*
Y331791D02*
X78953D01*
Y343209D01*
X73047D02*
X78953D01*
X93047Y331791D02*
Y343209D01*
Y331791D02*
X98953D01*
Y343209D01*
X93047D02*
X98953D01*
X103047Y331791D02*
Y343209D01*
Y331791D02*
X108953D01*
Y343209D01*
X103047D02*
X108953D01*
X123047Y331791D02*
Y343209D01*
Y331791D02*
X128953D01*
Y343209D01*
X123047D02*
X128953D01*
X133047Y331791D02*
Y343209D01*
Y331791D02*
X138953D01*
Y343209D01*
X133047D02*
X138953D01*
X143047Y331791D02*
Y343209D01*
Y331791D02*
X148953D01*
Y343209D01*
X143047D02*
X148953D01*
X21496Y289748D02*
X58504D01*
Y258252D02*
Y289748D01*
X21496Y258252D02*
X58504D01*
X21496D02*
Y289748D01*
X221547Y187291D02*
Y198709D01*
Y187291D02*
X227453D01*
Y198709D01*
X221547D02*
X227453D01*
X294047Y187291D02*
Y198709D01*
Y187291D02*
X299953D01*
Y198709D01*
X294047D02*
X299953D01*
X366047Y187291D02*
Y198709D01*
Y187291D02*
X371953D01*
Y198709D01*
X366047D02*
X371953D01*
X438047Y187291D02*
Y198709D01*
Y187291D02*
X443953D01*
Y198709D01*
X438047D02*
X443953D01*
X366047Y34291D02*
Y45709D01*
Y34291D02*
X371953D01*
Y45709D01*
X366047D02*
X371953D01*
X221547Y34291D02*
Y45709D01*
Y34291D02*
X227453D01*
Y45709D01*
X221547D02*
X227453D01*
X294047Y34291D02*
Y45709D01*
Y34291D02*
X299953D01*
Y45709D01*
X294047D02*
X299953D01*
X438047Y34291D02*
Y45709D01*
Y34291D02*
X443953D01*
Y45709D01*
X438047D02*
X443953D01*
X426047Y292791D02*
Y304209D01*
X431953D01*
Y292791D02*
Y304209D01*
X426047Y292791D02*
X431953D01*
X282047D02*
Y304209D01*
X287953D01*
Y292791D02*
Y304209D01*
X282047Y292791D02*
X287953D01*
X354047D02*
Y304209D01*
X359953D01*
Y292791D02*
Y304209D01*
X354047Y292791D02*
X359953D01*
X426047Y139791D02*
Y151209D01*
X431953D01*
Y139791D02*
Y151209D01*
X426047Y139791D02*
X431953D01*
X281047D02*
Y151209D01*
X286953D01*
Y139791D02*
Y151209D01*
X281047Y139791D02*
X286953D01*
X210047Y139291D02*
Y150709D01*
X215953D01*
Y139291D02*
Y150709D01*
X210047Y139291D02*
X215953D01*
X354047Y139791D02*
Y151209D01*
X359953D01*
Y139791D02*
Y151209D01*
X354047Y139791D02*
X359953D01*
X210047Y292791D02*
Y304209D01*
X215953D01*
Y292791D02*
Y304209D01*
X210047Y292791D02*
X215953D01*
X191421Y304969D02*
X206579D01*
Y291032D02*
Y304969D01*
X191421Y291032D02*
X206579D01*
X191421D02*
Y304969D01*
X262421D02*
X277579D01*
Y291032D02*
Y304969D01*
X262421Y291032D02*
X277579D01*
X262421D02*
Y304969D01*
X408421D02*
X423579D01*
Y291032D02*
Y304969D01*
X408421Y291032D02*
X423579D01*
X408421D02*
Y304969D01*
X336421D02*
X351579D01*
Y291032D02*
Y304969D01*
X336421Y291032D02*
X351579D01*
X336421D02*
Y304969D01*
X191421Y151969D02*
X206579D01*
Y138031D02*
Y151969D01*
X191421Y138031D02*
X206579D01*
X191421D02*
Y151969D01*
X262421D02*
X277579D01*
Y138031D02*
Y151969D01*
X262421Y138031D02*
X277579D01*
X262421D02*
Y151969D01*
X408421D02*
X423579D01*
Y138031D02*
Y151969D01*
X408421Y138031D02*
X423579D01*
X408421D02*
Y151969D01*
X336421D02*
X351579D01*
Y138031D02*
Y151969D01*
X336421Y138031D02*
X351579D01*
X336421D02*
Y151969D01*
X153047Y316291D02*
Y327709D01*
X158953D01*
Y316291D02*
Y327709D01*
X153047Y316291D02*
X158953D01*
X167047D02*
Y327709D01*
X172953D01*
Y316291D02*
Y327709D01*
X167047Y316291D02*
X172953D01*
X181047D02*
Y327709D01*
X186953D01*
Y316291D02*
Y327709D01*
X181047Y316291D02*
X186953D01*
X307291Y359953D02*
X318709D01*
Y354047D02*
Y359953D01*
X307291Y354047D02*
X318709D01*
X307291D02*
Y359953D01*
Y335047D02*
X318709D01*
X307291D02*
Y340953D01*
X318709D01*
Y335047D02*
Y340953D01*
X307291Y347953D02*
X318709D01*
Y342047D02*
Y347953D01*
X307291Y342047D02*
X318709D01*
X307291D02*
Y347953D01*
X369291Y333953D02*
X380709D01*
Y328047D02*
Y333953D01*
X369291Y328047D02*
X380709D01*
X369291D02*
Y333953D01*
Y334047D02*
X380709D01*
X369291D02*
Y339953D01*
X380709D01*
Y334047D02*
Y339953D01*
X369291Y345953D02*
X380709D01*
Y340047D02*
Y345953D01*
X369291Y340047D02*
X380709D01*
X369291D02*
Y345953D01*
Y346047D02*
X380709D01*
X369291D02*
Y351953D01*
X380709D01*
Y346047D02*
Y351953D01*
X369291Y357953D02*
X380709D01*
Y352047D02*
Y357953D01*
X369291Y352047D02*
X380709D01*
X369291D02*
Y357953D01*
X94291Y57047D02*
X105709D01*
X94291D02*
Y62953D01*
X105709D01*
Y57047D02*
Y62953D01*
X64291Y187047D02*
X75709D01*
X64291D02*
Y192953D01*
X75709D01*
Y187047D02*
Y192953D01*
X46291Y67047D02*
X57709D01*
X46291D02*
Y72953D01*
X57709D01*
Y67047D02*
Y72953D01*
X94291Y67047D02*
X105709D01*
X94291D02*
Y72953D01*
X105709D01*
Y67047D02*
Y72953D01*
X64291Y177047D02*
X75709D01*
X64291D02*
Y182953D01*
X75709D01*
Y177047D02*
Y182953D01*
X94291Y77047D02*
X105709D01*
X94291D02*
Y82953D01*
X105709D01*
Y77047D02*
Y82953D01*
X94291Y167953D02*
X105709D01*
Y162047D02*
Y167953D01*
X94291Y162047D02*
X105709D01*
X94291D02*
Y167953D01*
X64291Y167047D02*
X75709D01*
X64291D02*
Y172953D01*
X75709D01*
Y167047D02*
Y172953D01*
X94291Y157953D02*
X105709D01*
Y152047D02*
Y157953D01*
X94291Y152047D02*
X105709D01*
X94291D02*
Y157953D01*
X64291Y157047D02*
X75709D01*
X64291D02*
Y162953D01*
X75709D01*
Y157047D02*
Y162953D01*
X94291Y147953D02*
X105709D01*
Y142047D02*
Y147953D01*
X94291Y142047D02*
X105709D01*
X94291D02*
Y147953D01*
X64291Y147047D02*
X75709D01*
X64291D02*
Y152953D01*
X75709D01*
Y147047D02*
Y152953D01*
X94291Y137953D02*
X105709D01*
Y132047D02*
Y137953D01*
X94291Y132047D02*
X105709D01*
X94291D02*
Y137953D01*
X64291Y137047D02*
X75709D01*
X64291D02*
Y142953D01*
X75709D01*
Y137047D02*
Y142953D01*
X64291Y127047D02*
X75709D01*
X64291D02*
Y132953D01*
X75709D01*
Y127047D02*
Y132953D01*
X166047Y263291D02*
Y274709D01*
X171953D01*
Y263291D02*
Y274709D01*
X166047Y263291D02*
X171953D01*
X142953D02*
Y274709D01*
X137047Y263291D02*
X142953D01*
X137047D02*
Y274709D01*
X142953D01*
X64291Y117047D02*
X75709D01*
X64291D02*
Y122953D01*
X75709D01*
Y117047D02*
Y122953D01*
X172047Y263291D02*
Y274709D01*
X177953D01*
Y263291D02*
Y274709D01*
X172047Y263291D02*
X177953D01*
X136953D02*
Y274709D01*
X131047Y263291D02*
X136953D01*
X131047D02*
Y274709D01*
X136953D01*
X178047Y263291D02*
Y274709D01*
X183953D01*
Y263291D02*
Y274709D01*
X178047Y263291D02*
X183953D01*
X130953D02*
Y274709D01*
X125047Y263291D02*
X130953D01*
X125047D02*
Y274709D01*
X130953D01*
X181291Y249953D02*
X192709D01*
Y244047D02*
Y249953D01*
X181291Y244047D02*
X192709D01*
X181291D02*
Y249953D01*
X99291Y253953D02*
X110709D01*
Y248047D02*
Y253953D01*
X99291Y248047D02*
X110709D01*
X99291D02*
Y253953D01*
X181291Y243953D02*
X192709D01*
Y238047D02*
Y243953D01*
X181291Y238047D02*
X192709D01*
X181291D02*
Y243953D01*
X99291Y247953D02*
X110709D01*
Y242047D02*
Y247953D01*
X99291Y242047D02*
X110709D01*
X99291D02*
Y247953D01*
X181291Y237953D02*
X192709D01*
Y232047D02*
Y237953D01*
X181291Y232047D02*
X192709D01*
X181291D02*
Y237953D01*
X99291Y241953D02*
X110709D01*
Y236047D02*
Y241953D01*
X99291Y236047D02*
X110709D01*
X99291D02*
Y241953D01*
X181291Y231953D02*
X192709D01*
Y226047D02*
Y231953D01*
X181291Y226047D02*
X192709D01*
X181291D02*
Y231953D01*
X99291Y235953D02*
X110709D01*
Y230047D02*
Y235953D01*
X99291Y230047D02*
X110709D01*
X99291D02*
Y235953D01*
X181291Y225953D02*
X192709D01*
Y220047D02*
Y225953D01*
X181291Y220047D02*
X192709D01*
X181291D02*
Y225953D01*
X99291Y229953D02*
X110709D01*
Y224047D02*
Y229953D01*
X99291Y224047D02*
X110709D01*
X99291D02*
Y229953D01*
X181291Y204953D02*
X192709D01*
Y199047D02*
Y204953D01*
X181291Y199047D02*
X192709D01*
X181291D02*
Y204953D01*
X171953Y184291D02*
Y195709D01*
X166047Y184291D02*
X171953D01*
X166047D02*
Y195709D01*
X171953D01*
X99291Y223953D02*
X110709D01*
Y218047D02*
Y223953D01*
X99291Y218047D02*
X110709D01*
X99291D02*
Y223953D01*
X165953Y184291D02*
Y195709D01*
X160047Y184291D02*
X165953D01*
X160047D02*
Y195709D01*
X165953D01*
X99291Y217953D02*
X110709D01*
Y212047D02*
Y217953D01*
X99291Y212047D02*
X110709D01*
X99291D02*
Y217953D01*
X159953Y184291D02*
Y195709D01*
X154047Y184291D02*
X159953D01*
X154047D02*
Y195709D01*
X159953D01*
X99291Y211953D02*
X110709D01*
Y206047D02*
Y211953D01*
X99291Y206047D02*
X110709D01*
X99291D02*
Y211953D01*
X153953Y184291D02*
Y195709D01*
X148047Y184291D02*
X153953D01*
X148047D02*
Y195709D01*
X153953D01*
X130047Y184291D02*
Y195709D01*
X135953D01*
Y184291D02*
Y195709D01*
X130047Y184291D02*
X135953D01*
X147953Y184441D02*
Y195858D01*
X142047Y184441D02*
X147953D01*
X142047D02*
Y195858D01*
X147953D01*
X141953Y184291D02*
Y195709D01*
X136047Y184291D02*
X141953D01*
X136047D02*
Y195709D01*
X141953D01*
M02*
