M48
;Layer_Color=9474304
;FILE_FORMAT=2:5
INCH,LZ
;TYPE=PLATED
T1F00S00C0.02800
T2F00S00C0.03150
T3F00S00C0.03543
T4F00S00C0.17000
;TYPE=NON_PLATED
T5F00S00C0.03543
%
T01
X005Y001
X006
X007
X008
X009
X01
X011
X012
X013
X014
X015
Y002
X014
X013
X012
X011
X01
X009
X008
X007
X006
X005
Y003
X006
X007
X008
X009
X01
X011
X012
X013
X014
X015
Y004
X014
X013
X012
X011
X01
X009
X008
X007
X006
X005
Y005
X006
X007
X008
X009
X01
X011
X012
X013
X014
X015
Y006
X014
X013
X012
X011
X01
X009
X008
X007
X006
X005
Y007
Y008
Y009
X006
X007
X008
X009
X01
X011
X012
X013
X014
X015
Y008
X014
X013
X012
X011
X01
X009
X008
X007
X006
Y007
X007
X008
X009
X01
X011
X012
X013
X014
X015
X011809Y012299
X0074Y0114
X016Y009
X017
X018
X019
X02
X021
Y008
Y007
X022
X023
X024
X025
X026
X027
X028
X029
X03
X031
Y006
X03
X029
X028
X027
X026
X025
X024
X023
X022
X021
Y005
X022
X023
X024
X025
X026
X027
X028
X029
X03
X031
Y004
X03
X029
X028
X027
X026
X025
X024
X023
X022
X021
Y003
X022
X023
X024
X025
X026
X027
X028
X029
X03
X031
Y002
X03
X029
X028
X027
X026
X025
X024
X023
X022
X021
Y001
X022
X023
X024
X025
X026
X027
X028
X029
X03
X031
Y008
X03
X029
X028
X027
X026
X025
X024
X023
X022
Y009
X023
X024
X025
X026
X027
X028
X029
X03
X031
X02649Y01415
X02426Y01367
X0197Y01245
X01897Y0142
X01938Y01464
X017235Y013355
X017Y008
X018
X019
X02
Y007
Y006
Y005
Y004
Y003
Y002
Y001
X019
X018
X017
X016
Y002
X017
X018
X019
Y003
X018
X017
X016
Y004
X017
X018
X019
Y005
X018
X017
X016
Y006
X017
X018
X019
Y007
X018
X017
X016
Y008
X032
Y007
X033
X034
X035
X036
X037
Y008
Y009
X038
X039
X04
X041
X042
X043
X044
X045
X046
Y008
X045
X044
X043
X042
X041
X04
X039
X038
Y007
Y006
Y005
Y004
Y003
Y002
Y001
X037
Y002
Y003
Y004
Y005
Y006
X036
X035
X034
X033
X032
Y005
X033
X034
X035
X036
Y004
X035
X034
X033
X032
Y003
X033
X034
X035
X036
Y002
X035
X034
X033
X032
Y001
X033
X034
X035
X036
X039
X04
X041
X042
X043
X044
X045
X046
Y002
X045
X044
X043
X042
X041
X04
X039
Y003
X04
X041
X042
X043
X044
X045
X046
Y004
X045
X044
X043
X042
X041
X04
X039
Y005
X04
X041
X042
X043
X044
X045
X046
Y006
X045
X044
X043
X042
X041
X04
X039
Y007
X04
X041
X042
X043
X044
X045
X046
X036Y008
X035
X034
X033
Y009
X032
X034
X035
X036
X047
Y008
Y007
X048
X049
X05
X051
Y006
X05
X049
X048
X047
Y005
X048
X049
X05
X051
Y004
X05
X049
X048
X047
Y003
X048
X049
X05
X051
Y002
X05
X049
X048
X047
Y001
X048
X049
X05
X051
Y008
X05
X049
X048
Y009
X049
X05
X051
X0503Y0186
X04939Y02304
X0509Y0244
X0484Y025
X04758Y02563
X0471Y0271
X047Y0285
X04718Y02982
X04724Y03106
X04809Y03121
X04984Y02817
X0518Y0276
X0525Y0281
X05247Y0294
X0533Y0302
X05455Y03064
X04244Y0294
X0415Y031
X04305Y0273
X04257Y0253
X0421Y023
Y022
X02803Y02343
X0271Y0226
X02725Y02525
X027Y027
X0254Y0271
X026Y0281
X0273918Y029
X0235Y0289
X022Y0291
X0205Y0298
X01904Y02591
X0198Y02495
X0208Y0241
X0213Y02246
X0209Y0216
X02343Y02096
Y0226
X0248408Y0236
X02557Y01938
X02645Y0188
X0225Y0171
X0228Y0157
X01669Y0168
X01674Y0178
X01647Y01847
X017Y02
X01934Y01949
X01647Y02255
X0163Y02628
Y02674
X0141591Y02656
X0147Y0254
X014Y0249
X0152Y0247
X01Y0229
X0091Y0231
X0081Y0235
X008Y0242
X0072Y0229
X0075Y0215
X006Y0202
X01164Y02096
X01056Y0178
X0087Y0268
X0108Y0324
X0112Y0375
X0102
X0093
X0083
X0122
X0132
X0142
X0152
X0167
X0181
X0196
X0209
X0225
X0245
X0263
X0286
X0307
X0292Y0338
X02498Y03284
X0162Y0324
X0333Y032
X0334059Y03432
X0326Y0375
X0349
X0427059Y03354
X0456059
X0502Y0344
X0506Y0317
X0494Y0318
X0515Y0322
X0535079Y0318819
X054089Y0359858
T02
X002Y012
X003
Y013
Y014
Y015
X002
Y014
Y013
Y016
X003
Y017
Y018
Y019
X002
Y018
Y017
T03
X0015Y0055
X003
Y007
X0015
X0305Y0155
X032
X0335
X035
X0365
X038
X0525Y0071
X0541
Y0053
X0526
X051Y02
X0495
X048
Y022
X0495
X051
X0525
X0465
X045
X0435
Y02
X045
X0465
X04115Y0199
X04015
Y0209
X04115
Y0219
X04015
X0345Y0215
Y0197
X035Y0175
X0335
X032
X0365
X038
X0345Y0235
X0305Y0175
X0051Y0235
X0379Y0329
T04
X002Y002
X054
X002Y038
X054
T05
X0537Y0327677
Y0345
M30
