G04*
G04 #@! TF.GenerationSoftware,Altium Limited,Altium Designer,22.3.1 (43)*
G04*
G04 Layer_Physical_Order=4*
G04 Layer_Color=16711680*
%FSLAX25Y25*%
%MOIN*%
G70*
G04*
G04 #@! TF.SameCoordinates,C488EDB3-D5C6-4A86-98F8-C412E4F75817*
G04*
G04*
G04 #@! TF.FilePolarity,Positive*
G04*
G01*
G75*
%ADD11C,0.01000*%
%ADD15R,0.03740X0.03150*%
%ADD19R,0.03150X0.03740*%
%ADD40R,0.10000X0.06000*%
%ADD41O,0.10000X0.06000*%
%ADD42C,0.06000*%
%ADD43R,0.06000X0.06000*%
%ADD44R,0.05906X0.05906*%
%ADD45C,0.05906*%
%ADD46R,0.05906X0.05906*%
%ADD47R,0.07087X0.07087*%
%ADD48C,0.07087*%
%ADD49C,0.20000*%
%ADD50C,0.05000*%
G36*
X560000D02*
X0D01*
Y400000D01*
X560000D01*
Y0D01*
D02*
G37*
%LPC*%
G36*
X540826Y390500D02*
X539174D01*
X537541Y390242D01*
X535969Y389731D01*
X534497Y388980D01*
X533160Y388009D01*
X531991Y386840D01*
X531020Y385503D01*
X530269Y384031D01*
X529759Y382459D01*
X529500Y380826D01*
Y379174D01*
X529759Y377541D01*
X530269Y375969D01*
X531020Y374497D01*
X531991Y373160D01*
X533160Y371991D01*
X534497Y371020D01*
X535969Y370269D01*
X537541Y369759D01*
X539174Y369500D01*
X540826D01*
X542459Y369759D01*
X544031Y370269D01*
X545503Y371020D01*
X546840Y371991D01*
X548009Y373160D01*
X548980Y374497D01*
X549731Y375969D01*
X550242Y377541D01*
X550500Y379174D01*
Y380826D01*
X550242Y382459D01*
X549731Y384031D01*
X548980Y385503D01*
X548009Y386840D01*
X546840Y388009D01*
X545503Y388980D01*
X544031Y389731D01*
X542459Y390242D01*
X540826Y390500D01*
D02*
G37*
G36*
X20826D02*
X19174D01*
X17541Y390242D01*
X15969Y389731D01*
X14497Y388980D01*
X13160Y388009D01*
X11991Y386840D01*
X11020Y385503D01*
X10269Y384031D01*
X9759Y382459D01*
X9500Y380826D01*
Y379174D01*
X9759Y377541D01*
X10269Y375969D01*
X11020Y374497D01*
X11991Y373160D01*
X13160Y371991D01*
X14497Y371020D01*
X15969Y370269D01*
X17541Y369759D01*
X19174Y369500D01*
X20826D01*
X22459Y369759D01*
X24031Y370269D01*
X25503Y371020D01*
X26840Y371991D01*
X28009Y373160D01*
X28980Y374497D01*
X29731Y375969D01*
X30242Y377541D01*
X30500Y379174D01*
Y380826D01*
X30242Y382459D01*
X29731Y384031D01*
X28980Y385503D01*
X28009Y386840D01*
X26840Y388009D01*
X25503Y388980D01*
X24031Y389731D01*
X22459Y390242D01*
X20826Y390500D01*
D02*
G37*
G36*
X363414Y361020D02*
X344586D01*
X344196Y360942D01*
X343865Y360721D01*
X343279Y360135D01*
X343058Y359804D01*
X342980Y359414D01*
Y340586D01*
X343058Y340196D01*
X343279Y339865D01*
X343865Y339279D01*
X344196Y339058D01*
X344586Y338980D01*
X347280D01*
X347368Y338649D01*
X347829Y337851D01*
X348481Y337199D01*
X349279Y336738D01*
X350169Y336500D01*
X351091D01*
X351981Y336738D01*
X352779Y337199D01*
X353431Y337851D01*
X353891Y338649D01*
X354130Y339539D01*
Y340461D01*
X353891Y341351D01*
X353431Y342149D01*
X352779Y342801D01*
X351981Y343262D01*
X351091Y343500D01*
X350169D01*
X349279Y343262D01*
X348481Y342801D01*
X347829Y342149D01*
X347368Y341351D01*
X347280Y341020D01*
X345020D01*
Y358980D01*
X362980D01*
Y350583D01*
X362480Y350376D01*
X362135Y350721D01*
X361804Y350942D01*
X361414Y351020D01*
X354130D01*
Y353500D01*
X347130D01*
Y346500D01*
X354130D01*
Y348980D01*
X360980D01*
Y297422D01*
X353279Y289721D01*
X353058Y289390D01*
X352980Y289000D01*
Y246586D01*
X353058Y246196D01*
X353279Y245865D01*
X353865Y245279D01*
X354196Y245058D01*
X354586Y244980D01*
X409980D01*
Y244149D01*
X409480Y243882D01*
X409390Y243942D01*
X409000Y244020D01*
X351649D01*
Y296650D01*
X351981Y296739D01*
X352779Y297199D01*
X353431Y297851D01*
X353891Y298649D01*
X354130Y299539D01*
Y300461D01*
X353891Y301351D01*
X353431Y302149D01*
X352779Y302801D01*
X351981Y303261D01*
X351091Y303500D01*
X350169D01*
X349279Y303261D01*
X348481Y302801D01*
X347829Y302149D01*
X347368Y301351D01*
X347130Y300461D01*
Y299539D01*
X347368Y298649D01*
X347829Y297851D01*
X348481Y297199D01*
X349279Y296739D01*
X349610Y296650D01*
Y243586D01*
X349688Y243196D01*
X349909Y242865D01*
X350495Y242279D01*
X350826Y242058D01*
X351216Y241980D01*
X407980D01*
Y111000D01*
X408058Y110610D01*
X408279Y110279D01*
X408610Y110058D01*
X409000Y109980D01*
X459578D01*
X465279Y104279D01*
X465610Y104058D01*
X466000Y103980D01*
X471589D01*
X471622Y103480D01*
X471086Y103410D01*
X470235Y103057D01*
X469504Y102496D01*
X468943Y101765D01*
X468590Y100914D01*
X468470Y100000D01*
X468590Y99086D01*
X468943Y98235D01*
X469504Y97504D01*
X470235Y96943D01*
X471086Y96590D01*
X472000Y96470D01*
X476000D01*
X476914Y96590D01*
X477765Y96943D01*
X478496Y97504D01*
X479057Y98235D01*
X479410Y99086D01*
X479530Y100000D01*
X479410Y100914D01*
X479057Y101765D01*
X478496Y102496D01*
X477765Y103057D01*
X476914Y103410D01*
X476378Y103480D01*
X476411Y103980D01*
X509980D01*
Y102833D01*
X509842Y102796D01*
X509158Y102401D01*
X508599Y101842D01*
X508204Y101158D01*
X508000Y100395D01*
Y99605D01*
X508204Y98842D01*
X508599Y98158D01*
X509158Y97599D01*
X509842Y97204D01*
X510605Y97000D01*
X511395D01*
X512158Y97204D01*
X512842Y97599D01*
X513401Y98158D01*
X513796Y98842D01*
X514000Y99605D01*
Y100395D01*
X513796Y101158D01*
X513401Y101842D01*
X512842Y102401D01*
X512158Y102796D01*
X512020Y102833D01*
Y104414D01*
X511942Y104804D01*
X511721Y105135D01*
X511135Y105721D01*
X510804Y105942D01*
X510414Y106020D01*
X476411D01*
X476378Y106520D01*
X476914Y106590D01*
X477765Y106943D01*
X478496Y107504D01*
X479057Y108235D01*
X479410Y109086D01*
X479530Y110000D01*
X479410Y110914D01*
X479057Y111765D01*
X478496Y112496D01*
X477765Y113057D01*
X476914Y113410D01*
X476378Y113480D01*
X476411Y113980D01*
X509980D01*
Y112833D01*
X509842Y112796D01*
X509158Y112401D01*
X508599Y111842D01*
X508204Y111158D01*
X508000Y110395D01*
Y109605D01*
X508204Y108842D01*
X508599Y108158D01*
X509158Y107599D01*
X509842Y107204D01*
X510605Y107000D01*
X511395D01*
X512158Y107204D01*
X512842Y107599D01*
X513401Y108158D01*
X513796Y108842D01*
X514000Y109605D01*
Y110395D01*
X513796Y111158D01*
X513401Y111842D01*
X512842Y112401D01*
X512158Y112796D01*
X512020Y112833D01*
Y114414D01*
X511942Y114804D01*
X511721Y115135D01*
X511135Y115721D01*
X510804Y115942D01*
X510414Y116020D01*
X476411D01*
X476378Y116520D01*
X476914Y116590D01*
X477765Y116943D01*
X478496Y117504D01*
X479057Y118235D01*
X479410Y119086D01*
X479530Y120000D01*
X479410Y120914D01*
X479057Y121765D01*
X478496Y122496D01*
X477765Y123057D01*
X476914Y123410D01*
X476378Y123480D01*
X476411Y123980D01*
X508167D01*
X508204Y123842D01*
X508599Y123158D01*
X509158Y122599D01*
X509842Y122204D01*
X510605Y122000D01*
X511395D01*
X512158Y122204D01*
X512842Y122599D01*
X513401Y123158D01*
X513796Y123842D01*
X514000Y124605D01*
Y125395D01*
X513796Y126158D01*
X513401Y126842D01*
X512842Y127401D01*
X512158Y127796D01*
X511395Y128000D01*
X510605D01*
X509842Y127796D01*
X509158Y127401D01*
X508599Y126842D01*
X508204Y126158D01*
X508167Y126020D01*
X476411D01*
X476378Y126520D01*
X476914Y126590D01*
X477765Y126943D01*
X478496Y127504D01*
X479057Y128235D01*
X479410Y129086D01*
X479530Y130000D01*
X479410Y130914D01*
X479057Y131765D01*
X478496Y132496D01*
X477765Y133057D01*
X476914Y133410D01*
X476000Y133530D01*
X472000D01*
X471086Y133410D01*
X470235Y133057D01*
X469504Y132496D01*
X468943Y131765D01*
X468590Y130914D01*
X468470Y130000D01*
X468590Y129086D01*
X468943Y128235D01*
X469504Y127504D01*
X470235Y126943D01*
X471086Y126590D01*
X471622Y126520D01*
X471589Y126020D01*
X462422D01*
X458020Y130422D01*
Y138414D01*
X457942Y138804D01*
X457721Y139135D01*
X457135Y139721D01*
X456804Y139942D01*
X456414Y140020D01*
X413520D01*
Y246914D01*
X413442Y247304D01*
X413221Y247635D01*
X412135Y248721D01*
X411804Y248942D01*
X411414Y249020D01*
X357020D01*
Y286984D01*
X357390Y287058D01*
X357721Y287279D01*
X364721Y294279D01*
X364942Y294610D01*
X365020Y295000D01*
Y359414D01*
X364942Y359804D01*
X364721Y360135D01*
X364135Y360721D01*
X363804Y360942D01*
X363414Y361020D01*
D02*
G37*
G36*
X460461Y353500D02*
X459539D01*
X458649Y353261D01*
X457851Y352801D01*
X457199Y352149D01*
X456739Y351351D01*
X456500Y350461D01*
Y349539D01*
X456739Y348649D01*
X457199Y347851D01*
X457851Y347199D01*
X458649Y346739D01*
X459539Y346500D01*
X460461D01*
X461351Y346739D01*
X462149Y347199D01*
X462801Y347851D01*
X463262Y348649D01*
X463500Y349539D01*
Y350461D01*
X463262Y351351D01*
X462801Y352149D01*
X462149Y352801D01*
X461351Y353261D01*
X460461Y353500D01*
D02*
G37*
G36*
X424130D02*
X417130D01*
Y346500D01*
X424130D01*
Y353500D01*
D02*
G37*
G36*
X390461D02*
X389539D01*
X388649Y353261D01*
X387851Y352801D01*
X387199Y352149D01*
X386738Y351351D01*
X386500Y350461D01*
Y349539D01*
X386738Y348649D01*
X387199Y347851D01*
X387851Y347199D01*
X388649Y346739D01*
X389539Y346500D01*
X390461D01*
X391351Y346739D01*
X392149Y347199D01*
X392801Y347851D01*
X393262Y348649D01*
X393500Y349539D01*
Y350461D01*
X393262Y351351D01*
X392801Y352149D01*
X392149Y352801D01*
X391351Y353261D01*
X390461Y353500D01*
D02*
G37*
G36*
X269395Y351000D02*
X268605D01*
X267842Y350796D01*
X267158Y350401D01*
X266599Y349842D01*
X266204Y349158D01*
X266000Y348395D01*
Y347605D01*
X266204Y346842D01*
X266599Y346158D01*
X267158Y345599D01*
X267842Y345204D01*
X267980Y345167D01*
Y342724D01*
X266630D01*
Y338575D01*
X271370D01*
Y342724D01*
X270020D01*
Y345167D01*
X270158Y345204D01*
X270842Y345599D01*
X271401Y346158D01*
X271796Y346842D01*
X272000Y347605D01*
Y348395D01*
X271796Y349158D01*
X271401Y349842D01*
X270842Y350401D01*
X270158Y350796D01*
X269395Y351000D01*
D02*
G37*
G36*
X245395D02*
X244605D01*
X243842Y350796D01*
X243158Y350401D01*
X242599Y349842D01*
X242204Y349158D01*
X242000Y348395D01*
Y347605D01*
X242204Y346842D01*
X242599Y346158D01*
X243158Y345599D01*
X243842Y345204D01*
X243980Y345167D01*
Y342724D01*
X242630D01*
Y338575D01*
X247370D01*
Y342724D01*
X246020D01*
Y345167D01*
X246158Y345204D01*
X246842Y345599D01*
X247401Y346158D01*
X247796Y346842D01*
X248000Y347605D01*
Y348395D01*
X247796Y349158D01*
X247401Y349842D01*
X246842Y350401D01*
X246158Y350796D01*
X245395Y351000D01*
D02*
G37*
G36*
X220895D02*
X220105D01*
X219342Y350796D01*
X218658Y350401D01*
X218099Y349842D01*
X217704Y349158D01*
X217500Y348395D01*
Y347605D01*
X217704Y346842D01*
X218099Y346158D01*
X218658Y345599D01*
X219342Y345204D01*
X219480Y345167D01*
Y342724D01*
X218130D01*
Y338575D01*
X222870D01*
Y342724D01*
X221520D01*
Y345167D01*
X221658Y345204D01*
X222342Y345599D01*
X222901Y346158D01*
X223296Y346842D01*
X223500Y347605D01*
Y348395D01*
X223296Y349158D01*
X222901Y349842D01*
X222342Y350401D01*
X221658Y350796D01*
X220895Y351000D01*
D02*
G37*
G36*
X208395D02*
X207605D01*
X206842Y350796D01*
X206158Y350401D01*
X205599Y349842D01*
X205204Y349158D01*
X205000Y348395D01*
Y347605D01*
X205204Y346842D01*
X205599Y346158D01*
X206158Y345599D01*
X206842Y345204D01*
X206980Y345167D01*
Y342724D01*
X205630D01*
Y338575D01*
X210370D01*
Y342724D01*
X209020D01*
Y345167D01*
X209158Y345204D01*
X209842Y345599D01*
X210401Y346158D01*
X210796Y346842D01*
X211000Y347605D01*
Y348395D01*
X210796Y349158D01*
X210401Y349842D01*
X209842Y350401D01*
X209158Y350796D01*
X208395Y351000D01*
D02*
G37*
G36*
X193395D02*
X192605D01*
X191842Y350796D01*
X191158Y350401D01*
X190599Y349842D01*
X190204Y349158D01*
X190000Y348395D01*
Y347605D01*
X190204Y346842D01*
X190599Y346158D01*
X191158Y345599D01*
X191842Y345204D01*
X191980Y345167D01*
Y342724D01*
X190630D01*
Y338575D01*
X195370D01*
Y342724D01*
X194020D01*
Y345167D01*
X194158Y345204D01*
X194842Y345599D01*
X195401Y346158D01*
X195796Y346842D01*
X196000Y347605D01*
Y348395D01*
X195796Y349158D01*
X195401Y349842D01*
X194842Y350401D01*
X194158Y350796D01*
X193395Y351000D01*
D02*
G37*
G36*
X179395D02*
X178605D01*
X177842Y350796D01*
X177158Y350401D01*
X176599Y349842D01*
X176204Y349158D01*
X176000Y348395D01*
Y347605D01*
X176204Y346842D01*
X176599Y346158D01*
X177158Y345599D01*
X177842Y345204D01*
X177980Y345167D01*
Y342724D01*
X176630D01*
Y338575D01*
X181370D01*
Y342724D01*
X180020D01*
Y345167D01*
X180158Y345204D01*
X180842Y345599D01*
X181401Y346158D01*
X181796Y346842D01*
X182000Y347605D01*
Y348395D01*
X181796Y349158D01*
X181401Y349842D01*
X180842Y350401D01*
X180158Y350796D01*
X179395Y351000D01*
D02*
G37*
G36*
X164395D02*
X163605D01*
X162842Y350796D01*
X162158Y350401D01*
X161599Y349842D01*
X161204Y349158D01*
X161000Y348395D01*
Y347605D01*
X161204Y346842D01*
X161599Y346158D01*
X162158Y345599D01*
X162842Y345204D01*
X162980Y345167D01*
Y342724D01*
X161630D01*
Y338575D01*
X166370D01*
Y342724D01*
X165020D01*
Y345167D01*
X165158Y345204D01*
X165842Y345599D01*
X166401Y346158D01*
X166796Y346842D01*
X167000Y347605D01*
Y348395D01*
X166796Y349158D01*
X166401Y349842D01*
X165842Y350401D01*
X165158Y350796D01*
X164395Y351000D01*
D02*
G37*
G36*
X146395D02*
X145605D01*
X144842Y350796D01*
X144158Y350401D01*
X143599Y349842D01*
X143204Y349158D01*
X143000Y348395D01*
Y347605D01*
X143204Y346842D01*
X143599Y346158D01*
X144158Y345599D01*
X144842Y345204D01*
X144980Y345167D01*
Y342724D01*
X143630D01*
Y338575D01*
X148370D01*
Y342724D01*
X147020D01*
Y345167D01*
X147158Y345204D01*
X147842Y345599D01*
X148401Y346158D01*
X148796Y346842D01*
X149000Y347605D01*
Y348395D01*
X148796Y349158D01*
X148401Y349842D01*
X147842Y350401D01*
X147158Y350796D01*
X146395Y351000D01*
D02*
G37*
G36*
X136395D02*
X135605D01*
X134842Y350796D01*
X134158Y350401D01*
X133599Y349842D01*
X133204Y349158D01*
X133000Y348395D01*
Y347605D01*
X133204Y346842D01*
X133599Y346158D01*
X134158Y345599D01*
X134842Y345204D01*
X134980Y345167D01*
Y342724D01*
X133630D01*
Y338575D01*
X138370D01*
Y342724D01*
X137020D01*
Y345167D01*
X137158Y345204D01*
X137842Y345599D01*
X138401Y346158D01*
X138796Y346842D01*
X139000Y347605D01*
Y348395D01*
X138796Y349158D01*
X138401Y349842D01*
X137842Y350401D01*
X137158Y350796D01*
X136395Y351000D01*
D02*
G37*
G36*
X126395D02*
X125605D01*
X124842Y350796D01*
X124158Y350401D01*
X123599Y349842D01*
X123204Y349158D01*
X123000Y348395D01*
Y347605D01*
X123204Y346842D01*
X123599Y346158D01*
X124158Y345599D01*
X124842Y345204D01*
X124980Y345167D01*
Y342724D01*
X123630D01*
Y338575D01*
X128370D01*
Y342724D01*
X127020D01*
Y345167D01*
X127158Y345204D01*
X127842Y345599D01*
X128401Y346158D01*
X128796Y346842D01*
X129000Y347605D01*
Y348395D01*
X128796Y349158D01*
X128401Y349842D01*
X127842Y350401D01*
X127158Y350796D01*
X126395Y351000D01*
D02*
G37*
G36*
X116395D02*
X115605D01*
X114842Y350796D01*
X114158Y350401D01*
X113599Y349842D01*
X113204Y349158D01*
X113000Y348395D01*
Y347605D01*
X113204Y346842D01*
X113599Y346158D01*
X114158Y345599D01*
X114842Y345204D01*
X114980Y345167D01*
Y342724D01*
X113630D01*
Y338575D01*
X118370D01*
Y342724D01*
X117020D01*
Y345167D01*
X117158Y345204D01*
X117842Y345599D01*
X118401Y346158D01*
X118796Y346842D01*
X119000Y347605D01*
Y348395D01*
X118796Y349158D01*
X118401Y349842D01*
X117842Y350401D01*
X117158Y350796D01*
X116395Y351000D01*
D02*
G37*
G36*
X106395D02*
X105605D01*
X104842Y350796D01*
X104158Y350401D01*
X103599Y349842D01*
X103204Y349158D01*
X103000Y348395D01*
Y347605D01*
X103204Y346842D01*
X103599Y346158D01*
X104158Y345599D01*
X104842Y345204D01*
X104980Y345167D01*
Y342724D01*
X103630D01*
Y338575D01*
X108370D01*
Y342724D01*
X107020D01*
Y345167D01*
X107158Y345204D01*
X107842Y345599D01*
X108401Y346158D01*
X108796Y346842D01*
X109000Y347605D01*
Y348395D01*
X108796Y349158D01*
X108401Y349842D01*
X107842Y350401D01*
X107158Y350796D01*
X106395Y351000D01*
D02*
G37*
G36*
X96395D02*
X95605D01*
X94842Y350796D01*
X94158Y350401D01*
X93599Y349842D01*
X93204Y349158D01*
X93000Y348395D01*
Y347605D01*
X93204Y346842D01*
X93599Y346158D01*
X94158Y345599D01*
X94842Y345204D01*
X94980Y345167D01*
Y342724D01*
X93630D01*
Y338575D01*
X98370D01*
Y342724D01*
X97020D01*
Y345167D01*
X97158Y345204D01*
X97842Y345599D01*
X98401Y346158D01*
X98796Y346842D01*
X99000Y347605D01*
Y348395D01*
X98796Y349158D01*
X98401Y349842D01*
X97842Y350401D01*
X97158Y350796D01*
X96395Y351000D01*
D02*
G37*
G36*
X86395D02*
X85605D01*
X84842Y350796D01*
X84158Y350401D01*
X83599Y349842D01*
X83204Y349158D01*
X83000Y348395D01*
Y347605D01*
X83204Y346842D01*
X83599Y346158D01*
X84158Y345599D01*
X84842Y345204D01*
X84980Y345167D01*
Y342724D01*
X83630D01*
Y338575D01*
X88370D01*
Y342724D01*
X87020D01*
Y345167D01*
X87158Y345204D01*
X87842Y345599D01*
X88401Y346158D01*
X88796Y346842D01*
X89000Y347605D01*
Y348395D01*
X88796Y349158D01*
X88401Y349842D01*
X87842Y350401D01*
X87158Y350796D01*
X86395Y351000D01*
D02*
G37*
G36*
X76395D02*
X75605D01*
X74842Y350796D01*
X74158Y350401D01*
X73599Y349842D01*
X73204Y349158D01*
X73000Y348395D01*
Y347605D01*
X73204Y346842D01*
X73599Y346158D01*
X74158Y345599D01*
X74842Y345204D01*
X74980Y345167D01*
Y342724D01*
X73630D01*
Y338575D01*
X78370D01*
Y342724D01*
X77020D01*
Y345167D01*
X77158Y345204D01*
X77842Y345599D01*
X78401Y346158D01*
X78796Y346842D01*
X79000Y347605D01*
Y348395D01*
X78796Y349158D01*
X78401Y349842D01*
X77842Y350401D01*
X77158Y350796D01*
X76395Y351000D01*
D02*
G37*
G36*
X460461Y343500D02*
X459539D01*
X458649Y343262D01*
X457851Y342801D01*
X457199Y342149D01*
X456739Y341351D01*
X456500Y340461D01*
Y339539D01*
X456739Y338649D01*
X457199Y337851D01*
X457851Y337199D01*
X458649Y336738D01*
X459539Y336500D01*
X460461D01*
X461351Y336738D01*
X462149Y337199D01*
X462801Y337851D01*
X463262Y338649D01*
X463350Y338980D01*
X488167D01*
X488204Y338842D01*
X488599Y338158D01*
X489158Y337599D01*
X489842Y337204D01*
X490605Y337000D01*
X491395D01*
X492158Y337204D01*
X492842Y337599D01*
X493401Y338158D01*
X493796Y338842D01*
X494000Y339605D01*
Y340395D01*
X493796Y341158D01*
X493401Y341842D01*
X492842Y342401D01*
X492158Y342796D01*
X491395Y343000D01*
X490605D01*
X489842Y342796D01*
X489158Y342401D01*
X488599Y341842D01*
X488204Y341158D01*
X488167Y341020D01*
X463350D01*
X463262Y341351D01*
X462801Y342149D01*
X462149Y342801D01*
X461351Y343262D01*
X460461Y343500D01*
D02*
G37*
G36*
X421091D02*
X420169D01*
X419279Y343262D01*
X418481Y342801D01*
X417829Y342149D01*
X417368Y341351D01*
X417130Y340461D01*
Y339539D01*
X417368Y338649D01*
X417829Y337851D01*
X418481Y337199D01*
X419279Y336738D01*
X420169Y336500D01*
X421091D01*
X421981Y336738D01*
X422779Y337199D01*
X423431Y337851D01*
X423891Y338649D01*
X424130Y339539D01*
Y340461D01*
X423891Y341351D01*
X423431Y342149D01*
X422779Y342801D01*
X421981Y343262D01*
X421091Y343500D01*
D02*
G37*
G36*
X390461D02*
X389539D01*
X388649Y343262D01*
X387851Y342801D01*
X387199Y342149D01*
X386738Y341351D01*
X386500Y340461D01*
Y339539D01*
X386738Y338649D01*
X387199Y337851D01*
X387851Y337199D01*
X388649Y336738D01*
X389539Y336500D01*
X390461D01*
X391351Y336738D01*
X392149Y337199D01*
X392801Y337851D01*
X393262Y338649D01*
X393500Y339539D01*
Y340461D01*
X393262Y341351D01*
X392801Y342149D01*
X392149Y342801D01*
X391351Y343262D01*
X390461Y343500D01*
D02*
G37*
G36*
X281395Y337000D02*
X280605D01*
X279842Y336796D01*
X279158Y336401D01*
X278599Y335842D01*
X278327Y335370D01*
X271370D01*
Y336425D01*
X266630D01*
Y332276D01*
X271370D01*
Y333331D01*
X278074D01*
X278204Y332842D01*
X278599Y332158D01*
X279158Y331599D01*
X279842Y331204D01*
X280605Y331000D01*
X281395D01*
X282158Y331204D01*
X282842Y331599D01*
X283401Y332158D01*
X283796Y332842D01*
X284000Y333605D01*
Y334395D01*
X283796Y335158D01*
X283401Y335842D01*
X282842Y336401D01*
X282158Y336796D01*
X281395Y337000D01*
D02*
G37*
G36*
X260453Y338453D02*
X253547D01*
Y335370D01*
X247370D01*
Y336425D01*
X242630D01*
Y332276D01*
X247370D01*
Y333331D01*
X253547D01*
Y331547D01*
X255980D01*
Y325586D01*
X256058Y325196D01*
X256279Y324865D01*
X256865Y324279D01*
X257196Y324058D01*
X257586Y323980D01*
X338414D01*
X338804Y324058D01*
X339135Y324279D01*
X339721Y324865D01*
X339942Y325196D01*
X340020Y325586D01*
Y328980D01*
X347280D01*
X347368Y328649D01*
X347829Y327851D01*
X348481Y327199D01*
X349279Y326739D01*
X350169Y326500D01*
X351091D01*
X351981Y326739D01*
X352779Y327199D01*
X353431Y327851D01*
X353891Y328649D01*
X354130Y329539D01*
Y330461D01*
X353891Y331351D01*
X353431Y332149D01*
X352779Y332801D01*
X351981Y333261D01*
X351091Y333500D01*
X350169D01*
X349279Y333261D01*
X348481Y332801D01*
X347829Y332149D01*
X347368Y331351D01*
X347280Y331020D01*
X339586D01*
X339196Y330942D01*
X338865Y330721D01*
X338279Y330135D01*
X338058Y329804D01*
X337980Y329414D01*
Y326020D01*
X258020D01*
Y331547D01*
X260453D01*
Y338453D01*
D02*
G37*
G36*
X222870Y336425D02*
X218130D01*
Y335370D01*
X210370D01*
Y336425D01*
X205630D01*
Y335370D01*
X195370D01*
Y336425D01*
X190630D01*
Y335370D01*
X181370D01*
Y336425D01*
X176630D01*
Y335370D01*
X166370D01*
Y336425D01*
X161630D01*
Y335370D01*
X154586D01*
X154196Y335292D01*
X154000Y335162D01*
X153804Y335292D01*
X153414Y335370D01*
X148370D01*
Y336425D01*
X143630D01*
Y335370D01*
X138370D01*
Y336425D01*
X133630D01*
Y335370D01*
X128370D01*
Y336425D01*
X123630D01*
Y335370D01*
X118370D01*
Y336425D01*
X113630D01*
Y335370D01*
X108370D01*
Y336425D01*
X103630D01*
Y335370D01*
X98370D01*
Y336425D01*
X93630D01*
Y335370D01*
X88370D01*
Y336425D01*
X83630D01*
Y335370D01*
X78370D01*
Y336425D01*
X73630D01*
Y332276D01*
X78370D01*
Y333331D01*
X83630D01*
Y332276D01*
X88370D01*
Y333331D01*
X93630D01*
Y332276D01*
X98370D01*
Y333331D01*
X103630D01*
Y332276D01*
X108370D01*
Y333331D01*
X113630D01*
Y332276D01*
X118370D01*
Y333331D01*
X123630D01*
Y332276D01*
X128370D01*
Y333331D01*
X133630D01*
Y332276D01*
X138370D01*
Y333331D01*
X143630D01*
Y332276D01*
X148370D01*
Y333331D01*
X152980D01*
Y324833D01*
X152842Y324796D01*
X152158Y324401D01*
X151599Y323842D01*
X151204Y323158D01*
X151000Y322395D01*
Y321605D01*
X151204Y320842D01*
X151599Y320158D01*
X152158Y319599D01*
X152842Y319204D01*
X153605Y319000D01*
X154395D01*
X155158Y319204D01*
X155842Y319599D01*
X156401Y320158D01*
X156796Y320842D01*
X157000Y321605D01*
Y322395D01*
X156796Y323158D01*
X156401Y323842D01*
X155842Y324401D01*
X155158Y324796D01*
X155020Y324833D01*
Y333331D01*
X161630D01*
Y332276D01*
X166370D01*
Y333331D01*
X176630D01*
Y332276D01*
X181370D01*
Y333331D01*
X190630D01*
Y332276D01*
X195370D01*
Y333331D01*
X205630D01*
Y332276D01*
X210370D01*
Y333331D01*
X218130D01*
Y332276D01*
X222870D01*
Y336425D01*
D02*
G37*
G36*
X233395Y338000D02*
X232605D01*
X231842Y337796D01*
X231158Y337401D01*
X230599Y336842D01*
X230204Y336158D01*
X230000Y335395D01*
Y334605D01*
X230204Y333842D01*
X230599Y333158D01*
X231158Y332599D01*
X231842Y332204D01*
X232605Y332000D01*
X233395D01*
X234158Y332204D01*
X234842Y332599D01*
X235401Y333158D01*
X235796Y333842D01*
X236000Y334605D01*
Y335395D01*
X235796Y336158D01*
X235401Y336842D01*
X234842Y337401D01*
X234158Y337796D01*
X233395Y338000D01*
D02*
G37*
G36*
X460461Y333500D02*
X459539D01*
X458649Y333261D01*
X457851Y332801D01*
X457199Y332149D01*
X456739Y331351D01*
X456500Y330461D01*
Y329539D01*
X456739Y328649D01*
X457199Y327851D01*
X457851Y327199D01*
X458649Y326739D01*
X459539Y326500D01*
X460461D01*
X461351Y326739D01*
X462149Y327199D01*
X462801Y327851D01*
X463262Y328649D01*
X463500Y329539D01*
Y330461D01*
X463262Y331351D01*
X462801Y332149D01*
X462149Y332801D01*
X461351Y333261D01*
X460461Y333500D01*
D02*
G37*
G36*
X390461D02*
X389539D01*
X388649Y333261D01*
X387851Y332801D01*
X387199Y332149D01*
X386738Y331351D01*
X386500Y330461D01*
Y329539D01*
X386738Y328649D01*
X387199Y327851D01*
X387851Y327199D01*
X388649Y326739D01*
X389539Y326500D01*
X390461D01*
X391351Y326739D01*
X392149Y327199D01*
X392801Y327851D01*
X393262Y328649D01*
X393500Y329539D01*
Y330461D01*
X393262Y331351D01*
X392801Y332149D01*
X392149Y332801D01*
X391351Y333261D01*
X390461Y333500D01*
D02*
G37*
G36*
X220395Y326000D02*
X219605D01*
X218842Y325796D01*
X218158Y325401D01*
X217599Y324842D01*
X217204Y324158D01*
X217167Y324020D01*
X205833D01*
X205796Y324158D01*
X205401Y324842D01*
X204842Y325401D01*
X204158Y325796D01*
X203395Y326000D01*
X202605D01*
X201842Y325796D01*
X201158Y325401D01*
X200599Y324842D01*
X200204Y324158D01*
X200000Y323395D01*
Y322605D01*
X200204Y321842D01*
X200599Y321158D01*
X201158Y320599D01*
X201842Y320204D01*
X202605Y320000D01*
X203395D01*
X204158Y320204D01*
X204842Y320599D01*
X205401Y321158D01*
X205796Y321842D01*
X205833Y321980D01*
X217167D01*
X217204Y321842D01*
X217599Y321158D01*
X218158Y320599D01*
X218842Y320204D01*
X219605Y320000D01*
X220395D01*
X221158Y320204D01*
X221842Y320599D01*
X222401Y321158D01*
X222796Y321842D01*
X223000Y322605D01*
Y323395D01*
X222796Y324158D01*
X222401Y324842D01*
X221842Y325401D01*
X221158Y325796D01*
X220395Y326000D01*
D02*
G37*
G36*
X269395Y323000D02*
X268605D01*
X267842Y322796D01*
X267158Y322401D01*
X266599Y321842D01*
X266204Y321158D01*
X266000Y320395D01*
Y319605D01*
X266204Y318842D01*
X266599Y318158D01*
X267158Y317599D01*
X267842Y317204D01*
X268605Y317000D01*
X269395D01*
X270158Y317204D01*
X270842Y317599D01*
X271401Y318158D01*
X271796Y318842D01*
X272000Y319605D01*
Y320395D01*
X271796Y321158D01*
X271401Y321842D01*
X270842Y322401D01*
X270158Y322796D01*
X269395Y323000D01*
D02*
G37*
G36*
X460461Y323500D02*
X459539D01*
X458649Y323261D01*
X457851Y322801D01*
X457199Y322149D01*
X456739Y321351D01*
X456500Y320461D01*
Y319539D01*
X456739Y318649D01*
X457199Y317851D01*
X457851Y317199D01*
X458649Y316739D01*
X459539Y316500D01*
X460461D01*
X461351Y316739D01*
X462149Y317199D01*
X462801Y317851D01*
X463262Y318649D01*
X463500Y319539D01*
Y320461D01*
X463262Y321351D01*
X462801Y322149D01*
X462149Y322801D01*
X461351Y323261D01*
X460461Y323500D01*
D02*
G37*
G36*
X421091D02*
X420169D01*
X419279Y323261D01*
X418481Y322801D01*
X417829Y322149D01*
X417368Y321351D01*
X417130Y320461D01*
Y319539D01*
X417368Y318649D01*
X417829Y317851D01*
X418481Y317199D01*
X419279Y316739D01*
X420169Y316500D01*
X421091D01*
X421981Y316739D01*
X422779Y317199D01*
X423431Y317851D01*
X423891Y318649D01*
X424130Y319539D01*
Y320461D01*
X423891Y321351D01*
X423431Y322149D01*
X422779Y322801D01*
X421981Y323261D01*
X421091Y323500D01*
D02*
G37*
G36*
X390461D02*
X389539D01*
X388649Y323261D01*
X387851Y322801D01*
X387199Y322149D01*
X386738Y321351D01*
X386500Y320461D01*
Y319539D01*
X386738Y318649D01*
X387199Y317851D01*
X387851Y317199D01*
X388649Y316739D01*
X389539Y316500D01*
X390461D01*
X391351Y316739D01*
X392149Y317199D01*
X392801Y317851D01*
X393262Y318649D01*
X393500Y319539D01*
Y320461D01*
X393262Y321351D01*
X392801Y322149D01*
X392149Y322801D01*
X391351Y323261D01*
X390461Y323500D01*
D02*
G37*
G36*
X351091D02*
X350169D01*
X349279Y323261D01*
X348481Y322801D01*
X347829Y322149D01*
X347368Y321351D01*
X347130Y320461D01*
Y319539D01*
X347368Y318649D01*
X347829Y317851D01*
X348481Y317199D01*
X349279Y316739D01*
X350169Y316500D01*
X351091D01*
X351981Y316739D01*
X352779Y317199D01*
X353431Y317851D01*
X353891Y318649D01*
X354130Y319539D01*
Y320461D01*
X353891Y321351D01*
X353431Y322149D01*
X352779Y322801D01*
X351981Y323261D01*
X351091Y323500D01*
D02*
G37*
G36*
X460461Y313500D02*
X459539D01*
X458649Y313262D01*
X457851Y312801D01*
X457199Y312149D01*
X456739Y311351D01*
X456500Y310461D01*
Y309539D01*
X456739Y308649D01*
X457199Y307851D01*
X457851Y307199D01*
X458649Y306738D01*
X459539Y306500D01*
X460461D01*
X461351Y306738D01*
X462149Y307199D01*
X462801Y307851D01*
X463262Y308649D01*
X463350Y308980D01*
X491167D01*
X491204Y308842D01*
X491599Y308158D01*
X492158Y307599D01*
X492842Y307204D01*
X493605Y307000D01*
X494395D01*
X495158Y307204D01*
X495842Y307599D01*
X496401Y308158D01*
X496796Y308842D01*
X497000Y309605D01*
Y310395D01*
X496796Y311158D01*
X496401Y311842D01*
X495842Y312401D01*
X495158Y312796D01*
X494395Y313000D01*
X493605D01*
X492842Y312796D01*
X492158Y312401D01*
X491599Y311842D01*
X491204Y311158D01*
X491167Y311020D01*
X463350D01*
X463262Y311351D01*
X462801Y312149D01*
X462149Y312801D01*
X461351Y313262D01*
X460461Y313500D01*
D02*
G37*
G36*
X421091D02*
X420169D01*
X419279Y313262D01*
X418481Y312801D01*
X417829Y312149D01*
X417368Y311351D01*
X417130Y310461D01*
Y309539D01*
X417368Y308649D01*
X417829Y307851D01*
X418481Y307199D01*
X419279Y306738D01*
X420169Y306500D01*
X421091D01*
X421981Y306738D01*
X422779Y307199D01*
X423431Y307851D01*
X423891Y308649D01*
X424130Y309539D01*
Y310461D01*
X423891Y311351D01*
X423431Y312149D01*
X422779Y312801D01*
X421981Y313262D01*
X421091Y313500D01*
D02*
G37*
G36*
X390461D02*
X389539D01*
X388649Y313262D01*
X387851Y312801D01*
X387199Y312149D01*
X386738Y311351D01*
X386500Y310461D01*
Y309539D01*
X386738Y308649D01*
X387199Y307851D01*
X387851Y307199D01*
X388649Y306738D01*
X389539Y306500D01*
X390461D01*
X391351Y306738D01*
X392149Y307199D01*
X392801Y307851D01*
X393262Y308649D01*
X393500Y309539D01*
Y310461D01*
X393262Y311351D01*
X392801Y312149D01*
X392149Y312801D01*
X391351Y313262D01*
X390461Y313500D01*
D02*
G37*
G36*
X351091D02*
X350169D01*
X349279Y313262D01*
X348481Y312801D01*
X347829Y312149D01*
X347368Y311351D01*
X347280Y311020D01*
X344000D01*
X343610Y310942D01*
X343279Y310721D01*
X342279Y309721D01*
X342058Y309390D01*
X341980Y309000D01*
Y153586D01*
X342058Y153196D01*
X342279Y152865D01*
X342491Y152653D01*
X342204Y152158D01*
X342000Y151395D01*
Y150605D01*
X342204Y149842D01*
X342599Y149158D01*
X343158Y148599D01*
X343842Y148204D01*
X344605Y148000D01*
X345395D01*
X346158Y148204D01*
X346842Y148599D01*
X347401Y149158D01*
X347796Y149842D01*
X348000Y150605D01*
Y151395D01*
X347796Y152158D01*
X347401Y152842D01*
X346842Y153401D01*
X346158Y153796D01*
X345395Y154000D01*
X344605D01*
X344505Y153973D01*
X344020Y154360D01*
Y308578D01*
X344422Y308980D01*
X347280D01*
X347368Y308649D01*
X347829Y307851D01*
X348481Y307199D01*
X349279Y306738D01*
X350169Y306500D01*
X351091D01*
X351981Y306738D01*
X352779Y307199D01*
X353431Y307851D01*
X353891Y308649D01*
X354130Y309539D01*
Y310461D01*
X353891Y311351D01*
X353431Y312149D01*
X352779Y312801D01*
X351981Y313262D01*
X351091Y313500D01*
D02*
G37*
G36*
X460461Y303500D02*
X459539D01*
X458649Y303261D01*
X457851Y302801D01*
X457199Y302149D01*
X456739Y301351D01*
X456500Y300461D01*
Y299539D01*
X456739Y298649D01*
X457199Y297851D01*
X457851Y297199D01*
X458649Y296739D01*
X459539Y296500D01*
X460461D01*
X461351Y296739D01*
X462149Y297199D01*
X462801Y297851D01*
X463262Y298649D01*
X463350Y298980D01*
X491167D01*
X491204Y298842D01*
X491599Y298158D01*
X492158Y297599D01*
X492842Y297204D01*
X493605Y297000D01*
X494395D01*
X495158Y297204D01*
X495842Y297599D01*
X496401Y298158D01*
X496796Y298842D01*
X497000Y299605D01*
Y300395D01*
X496796Y301158D01*
X496401Y301842D01*
X495842Y302401D01*
X495158Y302796D01*
X494395Y303000D01*
X493605D01*
X492842Y302796D01*
X492158Y302401D01*
X491599Y301842D01*
X491204Y301158D01*
X491167Y301020D01*
X463350D01*
X463262Y301351D01*
X462801Y302149D01*
X462149Y302801D01*
X461351Y303261D01*
X460461Y303500D01*
D02*
G37*
G36*
X421091D02*
X420169D01*
X419279Y303261D01*
X418481Y302801D01*
X417829Y302149D01*
X417368Y301351D01*
X417130Y300461D01*
Y299539D01*
X417368Y298649D01*
X417829Y297851D01*
X418481Y297199D01*
X419279Y296739D01*
X420169Y296500D01*
X421091D01*
X421981Y296739D01*
X422779Y297199D01*
X423431Y297851D01*
X423891Y298649D01*
X424130Y299539D01*
Y300461D01*
X423891Y301351D01*
X423431Y302149D01*
X422779Y302801D01*
X421981Y303261D01*
X421091Y303500D01*
D02*
G37*
G36*
X390461D02*
X389539D01*
X388649Y303261D01*
X387851Y302801D01*
X387199Y302149D01*
X386738Y301351D01*
X386500Y300461D01*
Y299539D01*
X386738Y298649D01*
X387199Y297851D01*
X387851Y297199D01*
X388649Y296739D01*
X389539Y296500D01*
X390461D01*
X391351Y296739D01*
X392149Y297199D01*
X392801Y297851D01*
X393262Y298649D01*
X393500Y299539D01*
Y300461D01*
X393262Y301351D01*
X392801Y302149D01*
X392149Y302801D01*
X391351Y303261D01*
X390461Y303500D01*
D02*
G37*
G36*
X128395Y295000D02*
X127605D01*
X126842Y294796D01*
X126158Y294401D01*
X125599Y293842D01*
X125204Y293158D01*
X125167Y293020D01*
X67586D01*
X67196Y292942D01*
X66865Y292721D01*
X66279Y292135D01*
X66058Y291804D01*
X65980Y291414D01*
Y237000D01*
X66058Y236610D01*
X66279Y236279D01*
X67279Y235279D01*
X67610Y235058D01*
X68000Y234980D01*
X79167D01*
X79204Y234842D01*
X79599Y234158D01*
X80158Y233599D01*
X80842Y233204D01*
X81605Y233000D01*
X82395D01*
X83158Y233204D01*
X83842Y233599D01*
X84401Y234158D01*
X84796Y234842D01*
X85000Y235605D01*
Y236395D01*
X84796Y237158D01*
X84401Y237842D01*
X83842Y238401D01*
X83158Y238796D01*
X82395Y239000D01*
X81605D01*
X80842Y238796D01*
X80158Y238401D01*
X79599Y237842D01*
X79204Y237158D01*
X79167Y237020D01*
X68422D01*
X68020Y237422D01*
Y290980D01*
X125167D01*
X125204Y290842D01*
X125599Y290158D01*
X126158Y289599D01*
X126842Y289204D01*
X127605Y289000D01*
X128395D01*
X129158Y289204D01*
X129842Y289599D01*
X130401Y290158D01*
X130796Y290842D01*
X131000Y291605D01*
Y292395D01*
X130796Y293158D01*
X130401Y293842D01*
X129842Y294401D01*
X129158Y294796D01*
X128395Y295000D01*
D02*
G37*
G36*
X540532Y294043D02*
X539468D01*
X538439Y293768D01*
X537517Y293235D01*
X536764Y292483D01*
X536232Y291561D01*
X535957Y290532D01*
Y289468D01*
X536232Y288439D01*
X536764Y287517D01*
X537517Y286765D01*
X538439Y286232D01*
X539468Y285957D01*
X540532D01*
X541561Y286232D01*
X542483Y286765D01*
X543235Y287517D01*
X543768Y288439D01*
X544043Y289468D01*
Y290532D01*
X543768Y291561D01*
X543235Y292483D01*
X542483Y293235D01*
X541561Y293768D01*
X540532Y294043D01*
D02*
G37*
G36*
X530532D02*
X529468D01*
X528439Y293768D01*
X527517Y293235D01*
X526764Y292483D01*
X526232Y291561D01*
X525957Y290532D01*
Y289468D01*
X526232Y288439D01*
X526764Y287517D01*
X527517Y286765D01*
X528439Y286232D01*
X529468Y285957D01*
X530532D01*
X531561Y286232D01*
X532483Y286765D01*
X533236Y287517D01*
X533768Y288439D01*
X534043Y289468D01*
Y290532D01*
X533768Y291561D01*
X533236Y292483D01*
X532483Y293235D01*
X531561Y293768D01*
X530532Y294043D01*
D02*
G37*
G36*
X298453Y283453D02*
X291547D01*
Y276547D01*
X298453D01*
Y283453D01*
D02*
G37*
G36*
X540532Y284043D02*
X539468D01*
X538439Y283768D01*
X537517Y283235D01*
X536764Y282483D01*
X536232Y281561D01*
X535957Y280532D01*
Y279468D01*
X536232Y278439D01*
X536764Y277517D01*
X537517Y276765D01*
X538439Y276232D01*
X539468Y275957D01*
X540532D01*
X541561Y276232D01*
X542483Y276765D01*
X543235Y277517D01*
X543768Y278439D01*
X544043Y279468D01*
Y280532D01*
X543768Y281561D01*
X543235Y282483D01*
X542483Y283235D01*
X541561Y283768D01*
X540532Y284043D01*
D02*
G37*
G36*
X530532D02*
X529468D01*
X528439Y283768D01*
X527517Y283235D01*
X526764Y282483D01*
X526232Y281561D01*
X525957Y280532D01*
Y279468D01*
X526232Y278439D01*
X526764Y277517D01*
X527517Y276765D01*
X528439Y276232D01*
X529468Y275957D01*
X530532D01*
X531561Y276232D01*
X532483Y276765D01*
X533236Y277517D01*
X533768Y278439D01*
X534043Y279468D01*
Y280532D01*
X533768Y281561D01*
X533236Y282483D01*
X532483Y283235D01*
X531561Y283768D01*
X530532Y284043D01*
D02*
G37*
G36*
X138395Y276000D02*
X137605D01*
X136842Y275796D01*
X136158Y275401D01*
X135599Y274842D01*
X135204Y274158D01*
X135000Y273395D01*
Y272605D01*
X135204Y271842D01*
X135599Y271158D01*
X136158Y270599D01*
X136842Y270204D01*
X137605Y270000D01*
X138395D01*
X139158Y270204D01*
X139842Y270599D01*
X140401Y271158D01*
X140796Y271842D01*
X141000Y272605D01*
Y273395D01*
X140796Y274158D01*
X140401Y274842D01*
X139842Y275401D01*
X139158Y275796D01*
X138395Y276000D01*
D02*
G37*
G36*
X95395Y273000D02*
X94605D01*
X93842Y272796D01*
X93158Y272401D01*
X92599Y271842D01*
X92204Y271158D01*
X92000Y270395D01*
Y269605D01*
X92204Y268842D01*
X92599Y268158D01*
X93158Y267599D01*
X93842Y267204D01*
X94605Y267000D01*
X95395D01*
X96158Y267204D01*
X96842Y267599D01*
X97401Y268158D01*
X97796Y268842D01*
X98000Y269605D01*
Y270395D01*
X97796Y271158D01*
X97401Y271842D01*
X96842Y272401D01*
X96158Y272796D01*
X95395Y273000D01*
D02*
G37*
G36*
X318453Y273453D02*
X311547D01*
Y266547D01*
X318453D01*
Y273453D01*
D02*
G37*
G36*
X540532Y274043D02*
X539468D01*
X538439Y273768D01*
X537517Y273235D01*
X536764Y272483D01*
X536232Y271561D01*
X535957Y270532D01*
Y269468D01*
X536232Y268439D01*
X536764Y267517D01*
X537517Y266765D01*
X538439Y266232D01*
X539468Y265957D01*
X540532D01*
X541561Y266232D01*
X542483Y266765D01*
X543235Y267517D01*
X543768Y268439D01*
X544043Y269468D01*
Y270532D01*
X543768Y271561D01*
X543235Y272483D01*
X542483Y273235D01*
X541561Y273768D01*
X540532Y274043D01*
D02*
G37*
G36*
X530532D02*
X529468D01*
X528439Y273768D01*
X527517Y273235D01*
X526764Y272483D01*
X526232Y271561D01*
X525957Y270532D01*
Y269468D01*
X526232Y268439D01*
X526764Y267517D01*
X527517Y266765D01*
X528439Y266232D01*
X529468Y265957D01*
X530532D01*
X531561Y266232D01*
X532483Y266765D01*
X533236Y267517D01*
X533768Y268439D01*
X534043Y269468D01*
Y270532D01*
X533768Y271561D01*
X533236Y272483D01*
X532483Y273235D01*
X531561Y273768D01*
X530532Y274043D01*
D02*
G37*
G36*
X225395Y269000D02*
X224605D01*
X223842Y268796D01*
X223158Y268401D01*
X222599Y267842D01*
X222204Y267158D01*
X222000Y266395D01*
Y265605D01*
X222204Y264842D01*
X222599Y264158D01*
X223158Y263599D01*
X223842Y263204D01*
X224605Y263000D01*
X225395D01*
X226158Y263204D01*
X226842Y263599D01*
X227401Y264158D01*
X227796Y264842D01*
X228000Y265605D01*
Y266395D01*
X227796Y267158D01*
X227401Y267842D01*
X226842Y268401D01*
X226158Y268796D01*
X225395Y269000D01*
D02*
G37*
G36*
X143395Y264000D02*
X142605D01*
X141842Y263796D01*
X141158Y263401D01*
X140599Y262842D01*
X140204Y262158D01*
X140000Y261395D01*
Y260605D01*
X140204Y259842D01*
X140599Y259158D01*
X141158Y258599D01*
X141842Y258204D01*
X142605Y258000D01*
X143395D01*
X144158Y258204D01*
X144842Y258599D01*
X145401Y259158D01*
X145796Y259842D01*
X146000Y260605D01*
Y261395D01*
X145796Y262158D01*
X145401Y262842D01*
X144842Y263401D01*
X144158Y263796D01*
X143395Y264000D01*
D02*
G37*
G36*
X298453Y263453D02*
X291547D01*
Y256547D01*
X298453D01*
Y263453D01*
D02*
G37*
G36*
X167453D02*
X160547D01*
Y256547D01*
X167453D01*
Y263453D01*
D02*
G37*
G36*
X540532Y264043D02*
X539468D01*
X538439Y263768D01*
X537517Y263235D01*
X536764Y262483D01*
X536232Y261561D01*
X535957Y260532D01*
Y259468D01*
X536232Y258439D01*
X536764Y257517D01*
X537517Y256765D01*
X538439Y256232D01*
X539468Y255957D01*
X540532D01*
X541561Y256232D01*
X542483Y256765D01*
X543235Y257517D01*
X543768Y258439D01*
X544043Y259468D01*
Y260532D01*
X543768Y261561D01*
X543235Y262483D01*
X542483Y263235D01*
X541561Y263768D01*
X540532Y264043D01*
D02*
G37*
G36*
X530532D02*
X529468D01*
X528439Y263768D01*
X527517Y263235D01*
X526764Y262483D01*
X526232Y261561D01*
X525957Y260532D01*
Y259468D01*
X526232Y258439D01*
X526764Y257517D01*
X527517Y256765D01*
X528439Y256232D01*
X529468Y255957D01*
X530532D01*
X531561Y256232D01*
X532483Y256765D01*
X533236Y257517D01*
X533768Y258439D01*
X534043Y259468D01*
Y260532D01*
X533768Y261561D01*
X533236Y262483D01*
X532483Y263235D01*
X531561Y263768D01*
X530532Y264043D01*
D02*
G37*
G36*
X225395Y259000D02*
X224605D01*
X223842Y258796D01*
X223158Y258401D01*
X222599Y257842D01*
X222204Y257158D01*
X222000Y256395D01*
Y255605D01*
X222204Y254842D01*
X222599Y254158D01*
X223158Y253599D01*
X223842Y253204D01*
X224605Y253000D01*
X225395D01*
X226158Y253204D01*
X226842Y253599D01*
X227401Y254158D01*
X227796Y254842D01*
X228000Y255605D01*
Y256395D01*
X227796Y257158D01*
X227401Y257842D01*
X226842Y258401D01*
X226158Y258796D01*
X225395Y259000D01*
D02*
G37*
G36*
X318453Y253453D02*
X311547D01*
Y246547D01*
X318453D01*
Y253453D01*
D02*
G37*
G36*
X540532Y254043D02*
X539468D01*
X538439Y253768D01*
X537517Y253235D01*
X536764Y252483D01*
X536232Y251561D01*
X535957Y250532D01*
Y249468D01*
X536232Y248439D01*
X536764Y247517D01*
X537517Y246765D01*
X538439Y246232D01*
X539468Y245957D01*
X540532D01*
X541561Y246232D01*
X542483Y246765D01*
X543235Y247517D01*
X543768Y248439D01*
X544043Y249468D01*
Y250532D01*
X543768Y251561D01*
X543235Y252483D01*
X542483Y253235D01*
X541561Y253768D01*
X540532Y254043D01*
D02*
G37*
G36*
X530532D02*
X529468D01*
X528439Y253768D01*
X527517Y253235D01*
X526764Y252483D01*
X526232Y251561D01*
X525957Y250532D01*
Y249468D01*
X526232Y248439D01*
X526764Y247517D01*
X527517Y246765D01*
X528439Y246232D01*
X529468Y245957D01*
X530532D01*
X531561Y246232D01*
X532483Y246765D01*
X533236Y247517D01*
X533768Y248439D01*
X534043Y249468D01*
Y250532D01*
X533768Y251561D01*
X533236Y252483D01*
X532483Y253235D01*
X531561Y253768D01*
X530532Y254043D01*
D02*
G37*
G36*
X298453Y243453D02*
X291547D01*
Y236547D01*
X298453D01*
Y243453D01*
D02*
G37*
G36*
X167453D02*
X160547D01*
Y236547D01*
X167453D01*
Y243453D01*
D02*
G37*
G36*
X540532Y244043D02*
X539468D01*
X538439Y243768D01*
X537517Y243235D01*
X536764Y242483D01*
X536232Y241561D01*
X535957Y240532D01*
Y239468D01*
X536232Y238439D01*
X536764Y237517D01*
X537517Y236765D01*
X538439Y236232D01*
X539468Y235957D01*
X540532D01*
X541561Y236232D01*
X542483Y236765D01*
X543235Y237517D01*
X543768Y238439D01*
X544043Y239468D01*
Y240532D01*
X543768Y241561D01*
X543235Y242483D01*
X542483Y243235D01*
X541561Y243768D01*
X540532Y244043D01*
D02*
G37*
G36*
X530532D02*
X529468D01*
X528439Y243768D01*
X527517Y243235D01*
X526764Y242483D01*
X526232Y241561D01*
X525957Y240532D01*
Y239468D01*
X526232Y238439D01*
X526764Y237517D01*
X527517Y236765D01*
X528439Y236232D01*
X529468Y235957D01*
X530532D01*
X531561Y236232D01*
X532483Y236765D01*
X533236Y237517D01*
X533768Y238439D01*
X534043Y239468D01*
Y240532D01*
X533768Y241561D01*
X533236Y242483D01*
X532483Y243235D01*
X531561Y243768D01*
X530532Y244043D01*
D02*
G37*
G36*
X163395Y233000D02*
X162605D01*
X161842Y232796D01*
X161158Y232401D01*
X160599Y231842D01*
X160204Y231158D01*
X160167Y231020D01*
X145833D01*
X145796Y231158D01*
X145401Y231842D01*
X144842Y232401D01*
X144158Y232796D01*
X143395Y233000D01*
X142605D01*
X141842Y232796D01*
X141158Y232401D01*
X140599Y231842D01*
X140204Y231158D01*
X140000Y230395D01*
Y229605D01*
X140204Y228842D01*
X140599Y228158D01*
X141158Y227599D01*
X141842Y227204D01*
X142605Y227000D01*
X143395D01*
X144158Y227204D01*
X144842Y227599D01*
X145401Y228158D01*
X145796Y228842D01*
X145801Y228864D01*
X145976Y228980D01*
X160167D01*
X160204Y228842D01*
X160599Y228158D01*
X161158Y227599D01*
X161842Y227204D01*
X162605Y227000D01*
X163395D01*
X164158Y227204D01*
X164842Y227599D01*
X165401Y228158D01*
X165796Y228842D01*
X166000Y229605D01*
Y230395D01*
X165796Y231158D01*
X165401Y231842D01*
X164842Y232401D01*
X164158Y232796D01*
X163395Y233000D01*
D02*
G37*
G36*
X179395Y296000D02*
X178605D01*
X177842Y295796D01*
X177158Y295401D01*
X176599Y294842D01*
X176204Y294158D01*
X176000Y293395D01*
Y292605D01*
X176204Y291842D01*
X176599Y291158D01*
X177158Y290599D01*
X177842Y290204D01*
X178605Y290000D01*
X179395D01*
X180158Y290204D01*
X180282Y290276D01*
X192980Y277578D01*
Y236833D01*
X192842Y236796D01*
X192158Y236401D01*
X191599Y235842D01*
X191204Y235158D01*
X191000Y234395D01*
Y233605D01*
X191204Y232842D01*
X191599Y232158D01*
X192158Y231599D01*
X192842Y231204D01*
X193605Y231000D01*
X194395D01*
X195158Y231204D01*
X195842Y231599D01*
X196401Y232158D01*
X196796Y232842D01*
X197000Y233605D01*
Y234395D01*
X196796Y235158D01*
X196401Y235842D01*
X195842Y236401D01*
X195158Y236796D01*
X195020Y236833D01*
Y278000D01*
X194942Y278390D01*
X194721Y278721D01*
X181724Y291718D01*
X181796Y291842D01*
X182000Y292605D01*
Y293395D01*
X181796Y294158D01*
X181401Y294842D01*
X180842Y295401D01*
X180158Y295796D01*
X179395Y296000D01*
D02*
G37*
G36*
X318453Y233453D02*
X311547D01*
Y226547D01*
X318453D01*
Y233453D01*
D02*
G37*
G36*
X107395Y232000D02*
X106605D01*
X105842Y231796D01*
X105158Y231401D01*
X104599Y230842D01*
X104204Y230158D01*
X104000Y229395D01*
Y228605D01*
X104204Y227842D01*
X104599Y227158D01*
X105158Y226599D01*
X105842Y226204D01*
X106605Y226000D01*
X107395D01*
X108158Y226204D01*
X108842Y226599D01*
X109401Y227158D01*
X109796Y227842D01*
X110000Y228605D01*
Y229395D01*
X109796Y230158D01*
X109401Y230842D01*
X108842Y231401D01*
X108158Y231796D01*
X107395Y232000D01*
D02*
G37*
G36*
X540532Y234043D02*
X539468D01*
X538439Y233768D01*
X537517Y233235D01*
X536764Y232483D01*
X536232Y231561D01*
X535957Y230532D01*
Y229468D01*
X536232Y228439D01*
X536764Y227517D01*
X537517Y226765D01*
X538439Y226232D01*
X539468Y225957D01*
X540532D01*
X541561Y226232D01*
X542483Y226765D01*
X543235Y227517D01*
X543768Y228439D01*
X544043Y229468D01*
Y230532D01*
X543768Y231561D01*
X543235Y232483D01*
X542483Y233235D01*
X541561Y233768D01*
X540532Y234043D01*
D02*
G37*
G36*
X530532D02*
X529468D01*
X528439Y233768D01*
X527517Y233235D01*
X526764Y232483D01*
X526232Y231561D01*
X525957Y230532D01*
Y229468D01*
X526232Y228439D01*
X526764Y227517D01*
X527517Y226765D01*
X528439Y226232D01*
X529468Y225957D01*
X530532D01*
X531561Y226232D01*
X532483Y226765D01*
X533236Y227517D01*
X533768Y228439D01*
X534043Y229468D01*
Y230532D01*
X533768Y231561D01*
X533236Y232483D01*
X532483Y233235D01*
X531561Y233768D01*
X530532Y234043D01*
D02*
G37*
G36*
X88395Y261957D02*
X87605D01*
X86842Y261752D01*
X86158Y261357D01*
X85599Y260799D01*
X85204Y260115D01*
X85000Y259352D01*
Y258562D01*
X85204Y257799D01*
X85599Y257115D01*
X86158Y256556D01*
X86842Y256161D01*
X87605Y255957D01*
X88395D01*
X89158Y256161D01*
X89842Y256556D01*
X90401Y257115D01*
X90796Y257799D01*
X90833Y257937D01*
X130207D01*
X136279Y251865D01*
X136610Y251644D01*
X137000Y251566D01*
X175980D01*
Y230833D01*
X175842Y230796D01*
X175158Y230401D01*
X174599Y229842D01*
X174204Y229158D01*
X174000Y228395D01*
Y227605D01*
X174204Y226842D01*
X174599Y226158D01*
X175158Y225599D01*
X175842Y225204D01*
X176605Y225000D01*
X177395D01*
X178158Y225204D01*
X178842Y225599D01*
X179401Y226158D01*
X179796Y226842D01*
X180000Y227605D01*
Y228395D01*
X179796Y229158D01*
X179401Y229842D01*
X178842Y230401D01*
X178158Y230796D01*
X178020Y230833D01*
Y252000D01*
X177942Y252390D01*
X177721Y252721D01*
X177135Y253307D01*
X176804Y253528D01*
X176414Y253605D01*
X137422D01*
X131350Y259678D01*
X131019Y259899D01*
X130629Y259976D01*
X90833D01*
X90796Y260115D01*
X90401Y260799D01*
X89842Y261357D01*
X89158Y261752D01*
X88395Y261957D01*
D02*
G37*
G36*
X163395Y225000D02*
X162605D01*
X161842Y224796D01*
X161158Y224401D01*
X160777Y224020D01*
X145223D01*
X144842Y224401D01*
X144158Y224796D01*
X143395Y225000D01*
X142605D01*
X141842Y224796D01*
X141158Y224401D01*
X140599Y223842D01*
X140204Y223158D01*
X140000Y222395D01*
Y221605D01*
X140204Y220842D01*
X140599Y220158D01*
X141158Y219599D01*
X141842Y219204D01*
X142605Y219000D01*
X143395D01*
X144158Y219204D01*
X144842Y219599D01*
X145401Y220158D01*
X145796Y220842D01*
X146000Y221605D01*
Y221980D01*
X160000D01*
Y221605D01*
X160204Y220842D01*
X160599Y220158D01*
X161158Y219599D01*
X161842Y219204D01*
X162605Y219000D01*
X163395D01*
X164158Y219204D01*
X164842Y219599D01*
X165401Y220158D01*
X165796Y220842D01*
X166000Y221605D01*
Y222395D01*
X165796Y223158D01*
X165401Y223842D01*
X164842Y224401D01*
X164158Y224796D01*
X163395Y225000D01*
D02*
G37*
G36*
X499414Y357020D02*
X432000D01*
X431610Y356942D01*
X431279Y356721D01*
X430279Y355721D01*
X430058Y355390D01*
X429980Y355000D01*
Y332422D01*
X428578Y331020D01*
X423980D01*
X423891Y331351D01*
X423431Y332149D01*
X422779Y332801D01*
X421981Y333261D01*
X421091Y333500D01*
X420169D01*
X419279Y333261D01*
X418481Y332801D01*
X417829Y332149D01*
X417368Y331351D01*
X417130Y330461D01*
Y329539D01*
X417368Y328649D01*
X417829Y327851D01*
X418481Y327199D01*
X419279Y326739D01*
X420169Y326500D01*
X421091D01*
X421981Y326739D01*
X422779Y327199D01*
X423431Y327851D01*
X423891Y328649D01*
X423980Y328980D01*
X429000D01*
X429390Y329058D01*
X429721Y329279D01*
X431721Y331279D01*
X431942Y331610D01*
X432020Y332000D01*
Y354578D01*
X432422Y354980D01*
X498980D01*
Y332586D01*
X499058Y332196D01*
X499279Y331865D01*
X499865Y331279D01*
X500196Y331058D01*
X500586Y330980D01*
X550578D01*
X550980Y330578D01*
Y221020D01*
X544043D01*
Y224043D01*
X535957D01*
Y215957D01*
X538980D01*
Y51020D01*
X479366D01*
X479057Y51765D01*
X478496Y52496D01*
X477765Y53057D01*
X476914Y53410D01*
X476000Y53530D01*
X472000D01*
X471086Y53410D01*
X470235Y53057D01*
X469504Y52496D01*
X468943Y51765D01*
X468590Y50914D01*
X468470Y50000D01*
X468590Y49086D01*
X468943Y48235D01*
X469504Y47504D01*
X470235Y46943D01*
X471086Y46590D01*
X472000Y46470D01*
X476000D01*
X476914Y46590D01*
X477765Y46943D01*
X478496Y47504D01*
X479057Y48235D01*
X479366Y48980D01*
X539414D01*
X539804Y49058D01*
X540135Y49279D01*
X540721Y49865D01*
X540942Y50196D01*
X541020Y50586D01*
Y215957D01*
X544043D01*
Y218980D01*
X551414D01*
X551804Y219058D01*
X552135Y219279D01*
X552721Y219865D01*
X552942Y220196D01*
X553020Y220586D01*
Y331000D01*
X552942Y331390D01*
X552721Y331721D01*
X551721Y332721D01*
X551390Y332942D01*
X551000Y333020D01*
X501020D01*
Y355414D01*
X500942Y355804D01*
X500721Y356135D01*
X500135Y356721D01*
X499804Y356942D01*
X499414Y357020D01*
D02*
G37*
G36*
X530532Y224043D02*
X529468D01*
X528439Y223768D01*
X527517Y223235D01*
X526764Y222483D01*
X526232Y221561D01*
X525957Y220532D01*
Y219468D01*
X526232Y218439D01*
X526764Y217517D01*
X527517Y216765D01*
X528439Y216232D01*
X529468Y215957D01*
X530532D01*
X531561Y216232D01*
X532483Y216765D01*
X533236Y217517D01*
X533768Y218439D01*
X534043Y219468D01*
Y220532D01*
X533768Y221561D01*
X533236Y222483D01*
X532483Y223235D01*
X531561Y223768D01*
X530532Y224043D01*
D02*
G37*
G36*
X210395Y231000D02*
X209605D01*
X208842Y230796D01*
X208158Y230401D01*
X207599Y229842D01*
X207204Y229158D01*
X207000Y228395D01*
Y227605D01*
X207204Y226842D01*
X207599Y226158D01*
X208158Y225599D01*
X208842Y225204D01*
X208980Y225167D01*
Y219833D01*
X208842Y219796D01*
X208158Y219401D01*
X207599Y218842D01*
X207204Y218158D01*
X207000Y217395D01*
Y216605D01*
X207204Y215842D01*
X207599Y215158D01*
X208158Y214599D01*
X208842Y214204D01*
X209605Y214000D01*
X210395D01*
X211158Y214204D01*
X211842Y214599D01*
X212401Y215158D01*
X212796Y215842D01*
X213000Y216605D01*
Y217395D01*
X212796Y218158D01*
X212401Y218842D01*
X211842Y219401D01*
X211158Y219796D01*
X211020Y219833D01*
Y225167D01*
X211158Y225204D01*
X211842Y225599D01*
X212401Y226158D01*
X212796Y226842D01*
X213000Y227605D01*
Y228395D01*
X212796Y229158D01*
X212401Y229842D01*
X211842Y230401D01*
X211158Y230796D01*
X210395Y231000D01*
D02*
G37*
G36*
X77395Y257000D02*
X76605D01*
X75842Y256796D01*
X75158Y256401D01*
X74599Y255842D01*
X74204Y255158D01*
X74000Y254395D01*
Y253605D01*
X74204Y252842D01*
X74599Y252158D01*
X75158Y251599D01*
X75842Y251204D01*
X76605Y251000D01*
X77395D01*
X78158Y251204D01*
X78842Y251599D01*
X79401Y252158D01*
X79587Y252480D01*
X87466D01*
X87532Y251980D01*
X86842Y251796D01*
X86158Y251401D01*
X85599Y250842D01*
X85204Y250158D01*
X85000Y249395D01*
Y248605D01*
X85204Y247842D01*
X85599Y247158D01*
X86158Y246599D01*
X86842Y246204D01*
X87605Y246000D01*
X88395D01*
X89158Y246204D01*
X89842Y246599D01*
X90401Y247158D01*
X90796Y247842D01*
X90833Y247980D01*
X116578D01*
X116980Y247578D01*
Y212586D01*
X117058Y212196D01*
X117279Y211865D01*
X117865Y211279D01*
X118196Y211058D01*
X118586Y210980D01*
X160167D01*
X160204Y210842D01*
X160599Y210158D01*
X161158Y209599D01*
X161842Y209204D01*
X162605Y209000D01*
X163395D01*
X164158Y209204D01*
X164842Y209599D01*
X165401Y210158D01*
X165796Y210842D01*
X166000Y211605D01*
Y212395D01*
X165796Y213158D01*
X165401Y213842D01*
X164842Y214401D01*
X164158Y214796D01*
X163395Y215000D01*
X162605D01*
X161842Y214796D01*
X161158Y214401D01*
X160599Y213842D01*
X160204Y213158D01*
X160167Y213020D01*
X119020D01*
Y215831D01*
X119520Y216038D01*
X119865Y215693D01*
X120196Y215472D01*
X120586Y215395D01*
X121414D01*
X121804Y215472D01*
X122135Y215693D01*
X122422Y215980D01*
X169167D01*
X169204Y215842D01*
X169599Y215158D01*
X170158Y214599D01*
X170842Y214204D01*
X171605Y214000D01*
X172395D01*
X173158Y214204D01*
X173842Y214599D01*
X174401Y215158D01*
X174796Y215842D01*
X175000Y216605D01*
Y217395D01*
X174796Y218158D01*
X174401Y218842D01*
X173842Y219401D01*
X173158Y219796D01*
X172395Y220000D01*
X171605D01*
X170842Y219796D01*
X170158Y219401D01*
X169599Y218842D01*
X169204Y218158D01*
X169167Y218020D01*
X122000D01*
X121610Y217942D01*
X121520Y217882D01*
X121020Y218149D01*
Y253000D01*
X120942Y253390D01*
X120721Y253721D01*
X120221Y254221D01*
X119890Y254442D01*
X119500Y254520D01*
X79967D01*
X79796Y255158D01*
X79401Y255842D01*
X78842Y256401D01*
X78158Y256796D01*
X77395Y257000D01*
D02*
G37*
G36*
X459395Y258000D02*
X458605D01*
X457842Y257796D01*
X457158Y257401D01*
X456599Y256842D01*
X456204Y256158D01*
X456000Y255395D01*
Y254605D01*
X456204Y253842D01*
X456599Y253158D01*
X457158Y252599D01*
X457842Y252204D01*
X457980Y252167D01*
Y213833D01*
X457842Y213796D01*
X457158Y213401D01*
X456599Y212842D01*
X456204Y212158D01*
X456000Y211395D01*
Y210605D01*
X456204Y209842D01*
X456599Y209158D01*
X457158Y208599D01*
X457842Y208204D01*
X458605Y208000D01*
X459395D01*
X460158Y208204D01*
X460842Y208599D01*
X461401Y209158D01*
X461796Y209842D01*
X462000Y210605D01*
Y211395D01*
X461796Y212158D01*
X461401Y212842D01*
X460842Y213401D01*
X460158Y213796D01*
X460020Y213833D01*
Y252167D01*
X460158Y252204D01*
X460842Y252599D01*
X461401Y253158D01*
X461796Y253842D01*
X462000Y254605D01*
Y255395D01*
X461796Y256158D01*
X461401Y256842D01*
X460842Y257401D01*
X460158Y257796D01*
X459395Y258000D01*
D02*
G37*
G36*
X389500Y213500D02*
X378500D01*
Y206500D01*
X389500D01*
Y213500D01*
D02*
G37*
G36*
X476000Y213530D02*
X472000D01*
X471086Y213410D01*
X470235Y213057D01*
X469504Y212496D01*
X468943Y211765D01*
X468590Y210914D01*
X468470Y210000D01*
X468590Y209086D01*
X468943Y208235D01*
X469504Y207504D01*
X470235Y206943D01*
X471086Y206590D01*
X472000Y206470D01*
X476000D01*
X476914Y206590D01*
X477765Y206943D01*
X478496Y207504D01*
X479057Y208235D01*
X479410Y209086D01*
X479530Y210000D01*
X479410Y210914D01*
X479057Y211765D01*
X478496Y212496D01*
X477765Y213057D01*
X476914Y213410D01*
X476000Y213530D01*
D02*
G37*
G36*
X465395Y249000D02*
X464605D01*
X463842Y248796D01*
X463158Y248401D01*
X462599Y247842D01*
X462204Y247158D01*
X462000Y246395D01*
Y245605D01*
X462204Y244842D01*
X462599Y244158D01*
X463158Y243599D01*
X463842Y243204D01*
X464605Y243000D01*
X464980D01*
Y207833D01*
X464842Y207796D01*
X464158Y207401D01*
X463599Y206842D01*
X463204Y206158D01*
X463000Y205395D01*
Y204605D01*
X463204Y203842D01*
X463599Y203158D01*
X464158Y202599D01*
X464842Y202204D01*
X465605Y202000D01*
X466395D01*
X467158Y202204D01*
X467842Y202599D01*
X468401Y203158D01*
X468796Y203842D01*
X469000Y204605D01*
Y205395D01*
X468796Y206158D01*
X468401Y206842D01*
X467842Y207401D01*
X467158Y207796D01*
X467020Y207833D01*
Y243777D01*
X467401Y244158D01*
X467796Y244842D01*
X468000Y245605D01*
Y246395D01*
X467796Y247158D01*
X467401Y247842D01*
X466842Y248401D01*
X466158Y248796D01*
X465395Y249000D01*
D02*
G37*
G36*
X263453Y208453D02*
X256547D01*
Y201547D01*
X263453D01*
Y208453D01*
D02*
G37*
G36*
X476000Y203530D02*
X472000D01*
X471086Y203410D01*
X470235Y203057D01*
X469504Y202496D01*
X468943Y201765D01*
X468590Y200914D01*
X468470Y200000D01*
X468590Y199086D01*
X468943Y198235D01*
X469504Y197504D01*
X470235Y196943D01*
X471086Y196590D01*
X472000Y196470D01*
X476000D01*
X476914Y196590D01*
X477765Y196943D01*
X478496Y197504D01*
X479057Y198235D01*
X479410Y199086D01*
X479530Y200000D01*
X479410Y200914D01*
X479057Y201765D01*
X478496Y202496D01*
X477765Y203057D01*
X476914Y203410D01*
X476000Y203530D01*
D02*
G37*
G36*
X386000D02*
X382000D01*
X381086Y203410D01*
X380235Y203057D01*
X379504Y202496D01*
X378943Y201765D01*
X378590Y200914D01*
X378470Y200000D01*
X378590Y199086D01*
X378943Y198235D01*
X379504Y197504D01*
X380235Y196943D01*
X381086Y196590D01*
X382000Y196470D01*
X386000D01*
X386914Y196590D01*
X387765Y196943D01*
X388496Y197504D01*
X389057Y198235D01*
X389410Y199086D01*
X389530Y200000D01*
X389410Y200914D01*
X389057Y201765D01*
X388496Y202496D01*
X387765Y203057D01*
X386914Y203410D01*
X386000Y203530D01*
D02*
G37*
G36*
X174395Y201000D02*
X173605D01*
X172842Y200796D01*
X172158Y200401D01*
X171599Y199842D01*
X171204Y199158D01*
X171167Y199020D01*
X81000D01*
X80610Y198942D01*
X80279Y198721D01*
X78279Y196721D01*
X78058Y196390D01*
X77980Y196000D01*
Y181833D01*
X77842Y181796D01*
X77158Y181401D01*
X76599Y180842D01*
X76204Y180158D01*
X76000Y179395D01*
Y178605D01*
X76204Y177842D01*
X76599Y177158D01*
X77158Y176599D01*
X77842Y176204D01*
X77980Y176167D01*
Y162833D01*
X77842Y162796D01*
X77158Y162401D01*
X76599Y161842D01*
X76204Y161158D01*
X76000Y160395D01*
Y159605D01*
X76204Y158842D01*
X76599Y158158D01*
X77158Y157599D01*
X77842Y157204D01*
X78605Y157000D01*
X79395D01*
X80158Y157204D01*
X80842Y157599D01*
X81401Y158158D01*
X81796Y158842D01*
X82000Y159605D01*
Y160395D01*
X81796Y161158D01*
X81401Y161842D01*
X80842Y162401D01*
X80158Y162796D01*
X80020Y162833D01*
Y176167D01*
X80158Y176204D01*
X80842Y176599D01*
X81401Y177158D01*
X81796Y177842D01*
X82000Y178605D01*
Y179395D01*
X81796Y180158D01*
X81401Y180842D01*
X80842Y181401D01*
X80158Y181796D01*
X80020Y181833D01*
Y195578D01*
X81422Y196980D01*
X171167D01*
X171204Y196842D01*
X171599Y196158D01*
X172158Y195599D01*
X172842Y195204D01*
X173605Y195000D01*
X174395D01*
X175158Y195204D01*
X175842Y195599D01*
X176401Y196158D01*
X176796Y196842D01*
X177000Y197605D01*
Y198395D01*
X176796Y199158D01*
X176401Y199842D01*
X175842Y200401D01*
X175158Y200796D01*
X174395Y201000D01*
D02*
G37*
G36*
X307453Y193453D02*
X300547D01*
Y186547D01*
X307453D01*
Y193453D01*
D02*
G37*
G36*
X30461Y193500D02*
X29539D01*
X28649Y193262D01*
X27851Y192801D01*
X27199Y192149D01*
X26739Y191351D01*
X26500Y190461D01*
Y189539D01*
X26739Y188649D01*
X27199Y187851D01*
X27851Y187199D01*
X28649Y186739D01*
X29539Y186500D01*
X30461D01*
X31351Y186739D01*
X32149Y187199D01*
X32801Y187851D01*
X33261Y188649D01*
X33500Y189539D01*
Y190461D01*
X33261Y191351D01*
X32801Y192149D01*
X32149Y192801D01*
X31351Y193262D01*
X30461Y193500D01*
D02*
G37*
G36*
X23500D02*
X16500D01*
Y186500D01*
X23500D01*
Y193500D01*
D02*
G37*
G36*
X476000Y193530D02*
X472000D01*
X471086Y193410D01*
X470235Y193057D01*
X469504Y192496D01*
X468943Y191765D01*
X468590Y190914D01*
X468470Y190000D01*
X468590Y189086D01*
X468943Y188235D01*
X469504Y187504D01*
X470235Y186943D01*
X471086Y186590D01*
X472000Y186470D01*
X476000D01*
X476914Y186590D01*
X477765Y186943D01*
X478496Y187504D01*
X479057Y188235D01*
X479410Y189086D01*
X479530Y190000D01*
X479410Y190914D01*
X479057Y191765D01*
X478496Y192496D01*
X477765Y193057D01*
X476914Y193410D01*
X476000Y193530D01*
D02*
G37*
G36*
X386000D02*
X382000D01*
X381086Y193410D01*
X380235Y193057D01*
X379504Y192496D01*
X378943Y191765D01*
X378590Y190914D01*
X378470Y190000D01*
X378590Y189086D01*
X378943Y188235D01*
X379504Y187504D01*
X380235Y186943D01*
X381086Y186590D01*
X382000Y186470D01*
X386000D01*
X386914Y186590D01*
X387765Y186943D01*
X388496Y187504D01*
X389057Y188235D01*
X389410Y189086D01*
X389530Y190000D01*
X389410Y190914D01*
X389057Y191765D01*
X388496Y192496D01*
X387765Y193057D01*
X386914Y193410D01*
X386000Y193530D01*
D02*
G37*
G36*
X162395Y184000D02*
X161605D01*
X160842Y183796D01*
X160158Y183401D01*
X159599Y182842D01*
X159204Y182158D01*
X159105Y181785D01*
X142395D01*
X142296Y182158D01*
X141901Y182842D01*
X141342Y183401D01*
X140658Y183796D01*
X139895Y184000D01*
X139105D01*
X138342Y183796D01*
X137658Y183401D01*
X137099Y182842D01*
X136704Y182158D01*
X136667Y182020D01*
X113833D01*
X113796Y182158D01*
X113401Y182842D01*
X112842Y183401D01*
X112158Y183796D01*
X111395Y184000D01*
X110605D01*
X109842Y183796D01*
X109158Y183401D01*
X108599Y182842D01*
X108204Y182158D01*
X108000Y181395D01*
Y180605D01*
X108204Y179842D01*
X108599Y179158D01*
X109158Y178599D01*
X109842Y178204D01*
X110605Y178000D01*
X111395D01*
X112158Y178204D01*
X112842Y178599D01*
X113401Y179158D01*
X113796Y179842D01*
X113833Y179980D01*
X136667D01*
X136704Y179842D01*
X137099Y179158D01*
X137658Y178599D01*
X138342Y178204D01*
X139105Y178000D01*
X139895D01*
X140658Y178204D01*
X141342Y178599D01*
X141901Y179158D01*
X142240Y179746D01*
X159260D01*
X159599Y179158D01*
X160158Y178599D01*
X160842Y178204D01*
X161605Y178000D01*
X162395D01*
X163158Y178204D01*
X163842Y178599D01*
X164401Y179158D01*
X164796Y179842D01*
X165000Y180605D01*
Y181395D01*
X164796Y182158D01*
X164401Y182842D01*
X163842Y183401D01*
X163158Y183796D01*
X162395Y184000D01*
D02*
G37*
G36*
X30461Y183500D02*
X29539D01*
X28649Y183262D01*
X27851Y182801D01*
X27199Y182149D01*
X26739Y181351D01*
X26500Y180461D01*
Y179539D01*
X26739Y178649D01*
X27199Y177851D01*
X27851Y177199D01*
X28649Y176739D01*
X29539Y176500D01*
X30461D01*
X31351Y176739D01*
X32149Y177199D01*
X32801Y177851D01*
X33261Y178649D01*
X33500Y179539D01*
Y180461D01*
X33261Y181351D01*
X32801Y182149D01*
X32149Y182801D01*
X31351Y183262D01*
X30461Y183500D01*
D02*
G37*
G36*
X20461D02*
X19539D01*
X18649Y183262D01*
X17851Y182801D01*
X17199Y182149D01*
X16738Y181351D01*
X16500Y180461D01*
Y179539D01*
X16738Y178649D01*
X17199Y177851D01*
X17851Y177199D01*
X18649Y176739D01*
X19539Y176500D01*
X20461D01*
X21351Y176739D01*
X22149Y177199D01*
X22801Y177851D01*
X23261Y178649D01*
X23500Y179539D01*
Y180461D01*
X23261Y181351D01*
X22801Y182149D01*
X22149Y182801D01*
X21351Y183262D01*
X20461Y183500D01*
D02*
G37*
G36*
X476000Y183530D02*
X472000D01*
X471086Y183410D01*
X470235Y183057D01*
X469504Y182496D01*
X468943Y181765D01*
X468590Y180914D01*
X468470Y180000D01*
X468590Y179086D01*
X468943Y178235D01*
X469504Y177504D01*
X470235Y176943D01*
X471086Y176590D01*
X472000Y176470D01*
X476000D01*
X476914Y176590D01*
X477765Y176943D01*
X478496Y177504D01*
X479057Y178235D01*
X479410Y179086D01*
X479530Y180000D01*
X479410Y180914D01*
X479057Y181765D01*
X478496Y182496D01*
X477765Y183057D01*
X476914Y183410D01*
X476000Y183530D01*
D02*
G37*
G36*
X386000D02*
X382000D01*
X381086Y183410D01*
X380235Y183057D01*
X379504Y182496D01*
X378943Y181765D01*
X378590Y180914D01*
X378470Y180000D01*
X378590Y179086D01*
X378943Y178235D01*
X379504Y177504D01*
X380235Y176943D01*
X381086Y176590D01*
X382000Y176470D01*
X386000D01*
X386914Y176590D01*
X387765Y176943D01*
X388496Y177504D01*
X389057Y178235D01*
X389410Y179086D01*
X389530Y180000D01*
X389410Y180914D01*
X389057Y181765D01*
X388496Y182496D01*
X387765Y183057D01*
X386914Y183410D01*
X386000Y183530D01*
D02*
G37*
G36*
X167395Y177000D02*
X166605D01*
X165842Y176796D01*
X165158Y176401D01*
X164599Y175842D01*
X164204Y175158D01*
X164000Y174395D01*
Y174020D01*
X149000D01*
Y174395D01*
X148796Y175158D01*
X148401Y175842D01*
X147842Y176401D01*
X147158Y176796D01*
X146395Y177000D01*
X145605D01*
X144842Y176796D01*
X144158Y176401D01*
X143599Y175842D01*
X143204Y175158D01*
X143167Y175020D01*
X121586D01*
X121196Y174942D01*
X120865Y174721D01*
X120279Y174135D01*
X120058Y173804D01*
X119980Y173414D01*
Y142020D01*
X112833D01*
X112796Y142158D01*
X112401Y142842D01*
X111842Y143401D01*
X111158Y143796D01*
X110395Y144000D01*
X109605D01*
X108842Y143796D01*
X108158Y143401D01*
X107599Y142842D01*
X107204Y142158D01*
X107000Y141395D01*
Y140605D01*
X107204Y139842D01*
X107599Y139158D01*
X108158Y138599D01*
X108842Y138204D01*
X109605Y138000D01*
X110395D01*
X111158Y138204D01*
X111842Y138599D01*
X112401Y139158D01*
X112796Y139842D01*
X112833Y139980D01*
X120414D01*
X120804Y140058D01*
X121135Y140279D01*
X121721Y140865D01*
X121942Y141196D01*
X122020Y141586D01*
Y172980D01*
X143167D01*
X143204Y172842D01*
X143599Y172158D01*
X144158Y171599D01*
X144842Y171204D01*
X145605Y171000D01*
X146395D01*
X147158Y171204D01*
X147842Y171599D01*
X148223Y171980D01*
X164777D01*
X165158Y171599D01*
X165842Y171204D01*
X166605Y171000D01*
X167395D01*
X168158Y171204D01*
X168842Y171599D01*
X169401Y172158D01*
X169796Y172842D01*
X170000Y173605D01*
Y174395D01*
X169796Y175158D01*
X169401Y175842D01*
X168842Y176401D01*
X168158Y176796D01*
X167395Y177000D01*
D02*
G37*
G36*
X224925Y174370D02*
X220776D01*
Y173020D01*
X219224D01*
Y174370D01*
X215075D01*
Y169630D01*
X216130D01*
Y168370D01*
X215075D01*
Y163630D01*
X216130D01*
Y160572D01*
X215400Y159842D01*
X214842Y160401D01*
X214158Y160796D01*
X213395Y161000D01*
X212605D01*
X211842Y160796D01*
X211158Y160401D01*
X210599Y159842D01*
X210204Y159158D01*
X210000Y158395D01*
Y157605D01*
X210204Y156842D01*
X210599Y156158D01*
X211158Y155599D01*
X211842Y155204D01*
X212605Y155000D01*
X213395D01*
X214158Y155204D01*
X214842Y155599D01*
X215401Y156158D01*
X215796Y156842D01*
X215983Y157541D01*
X217871Y159429D01*
X218092Y159759D01*
X218169Y160150D01*
Y163630D01*
X219224D01*
Y164980D01*
X220776D01*
Y163630D01*
X221831D01*
Y162370D01*
X220776D01*
Y157630D01*
X224925D01*
Y162370D01*
X223870D01*
Y163630D01*
X224925D01*
Y168370D01*
X220776D01*
Y167020D01*
X219224D01*
Y168370D01*
X218169D01*
Y169630D01*
X219224D01*
Y170980D01*
X220776D01*
Y169630D01*
X224925D01*
Y174370D01*
D02*
G37*
G36*
X162395Y171000D02*
X161605D01*
X160842Y170796D01*
X160158Y170401D01*
X159599Y169842D01*
X159204Y169158D01*
X159167Y169020D01*
X148586D01*
X148196Y168942D01*
X148055Y168848D01*
X145586D01*
X145269Y168785D01*
X143895D01*
X143796Y169158D01*
X143401Y169842D01*
X142842Y170401D01*
X142158Y170796D01*
X141395Y171000D01*
X140605D01*
X139842Y170796D01*
X139158Y170401D01*
X138599Y169842D01*
X138204Y169158D01*
X138000Y168395D01*
Y167605D01*
X138204Y166842D01*
X138599Y166158D01*
X139158Y165599D01*
X139842Y165204D01*
X139980Y165167D01*
Y131020D01*
X111833D01*
X111796Y131158D01*
X111401Y131842D01*
X110842Y132401D01*
X110158Y132796D01*
X109395Y133000D01*
X108605D01*
X107842Y132796D01*
X107158Y132401D01*
X106599Y131842D01*
X106204Y131158D01*
X106000Y130395D01*
Y129605D01*
X106204Y128842D01*
X106599Y128158D01*
X107158Y127599D01*
X107842Y127204D01*
X108605Y127000D01*
X109395D01*
X110158Y127204D01*
X110842Y127599D01*
X111401Y128158D01*
X111796Y128842D01*
X111833Y128980D01*
X140414D01*
X140804Y129058D01*
X141135Y129279D01*
X141721Y129865D01*
X141942Y130196D01*
X142020Y130586D01*
Y165167D01*
X142158Y165204D01*
X142842Y165599D01*
X143401Y166158D01*
X143740Y166746D01*
X145523D01*
X145840Y166809D01*
X148414D01*
X148804Y166886D01*
X148945Y166980D01*
X159167D01*
X159204Y166842D01*
X159599Y166158D01*
X160158Y165599D01*
X160842Y165204D01*
X161605Y165000D01*
X162395D01*
X163158Y165204D01*
X163842Y165599D01*
X164401Y166158D01*
X164796Y166842D01*
X165000Y167605D01*
Y168395D01*
X164796Y169158D01*
X164401Y169842D01*
X163842Y170401D01*
X163158Y170796D01*
X162395Y171000D01*
D02*
G37*
G36*
X307453Y175453D02*
X300547D01*
Y168547D01*
X307453D01*
Y175453D01*
D02*
G37*
G36*
X30461Y173500D02*
X29539D01*
X28649Y173261D01*
X27851Y172801D01*
X27199Y172149D01*
X26739Y171351D01*
X26500Y170461D01*
Y169539D01*
X26739Y168649D01*
X27199Y167851D01*
X27851Y167199D01*
X28649Y166738D01*
X29539Y166500D01*
X30461D01*
X31351Y166738D01*
X32149Y167199D01*
X32801Y167851D01*
X33261Y168649D01*
X33500Y169539D01*
Y170461D01*
X33261Y171351D01*
X32801Y172149D01*
X32149Y172801D01*
X31351Y173261D01*
X30461Y173500D01*
D02*
G37*
G36*
X20461D02*
X19539D01*
X18649Y173261D01*
X17851Y172801D01*
X17199Y172149D01*
X16738Y171351D01*
X16500Y170461D01*
Y169539D01*
X16738Y168649D01*
X17199Y167851D01*
X17851Y167199D01*
X18649Y166738D01*
X19539Y166500D01*
X20461D01*
X21351Y166738D01*
X22149Y167199D01*
X22801Y167851D01*
X23261Y168649D01*
X23500Y169539D01*
Y170461D01*
X23261Y171351D01*
X22801Y172149D01*
X22149Y172801D01*
X21351Y173261D01*
X20461Y173500D01*
D02*
G37*
G36*
X476000Y173530D02*
X472000D01*
X471086Y173410D01*
X470235Y173057D01*
X469504Y172496D01*
X468943Y171765D01*
X468590Y170914D01*
X468470Y170000D01*
X468590Y169086D01*
X468943Y168235D01*
X469504Y167504D01*
X470235Y166943D01*
X471086Y166590D01*
X472000Y166470D01*
X476000D01*
X476914Y166590D01*
X477765Y166943D01*
X478496Y167504D01*
X479057Y168235D01*
X479410Y169086D01*
X479530Y170000D01*
X479410Y170914D01*
X479057Y171765D01*
X478496Y172496D01*
X477765Y173057D01*
X476914Y173410D01*
X476000Y173530D01*
D02*
G37*
G36*
X386000D02*
X382000D01*
X381086Y173410D01*
X380235Y173057D01*
X379504Y172496D01*
X378943Y171765D01*
X378590Y170914D01*
X378470Y170000D01*
X378590Y169086D01*
X378943Y168235D01*
X379504Y167504D01*
X380235Y166943D01*
X381086Y166590D01*
X382000Y166470D01*
X386000D01*
X386914Y166590D01*
X387765Y166943D01*
X388496Y167504D01*
X389057Y168235D01*
X389410Y169086D01*
X389530Y170000D01*
X389410Y170914D01*
X389057Y171765D01*
X388496Y172496D01*
X387765Y173057D01*
X386914Y173410D01*
X386000Y173530D01*
D02*
G37*
G36*
X133453Y169453D02*
X126547D01*
Y162547D01*
X133453D01*
Y169453D01*
D02*
G37*
G36*
X168395Y287000D02*
X167605D01*
X166842Y286796D01*
X166158Y286401D01*
X165599Y285842D01*
X165204Y285158D01*
X165000Y284395D01*
Y283605D01*
X165204Y282842D01*
X165599Y282158D01*
X166158Y281599D01*
X166842Y281204D01*
X167605Y281000D01*
X168395D01*
X169158Y281204D01*
X169842Y281599D01*
X170401Y282158D01*
X170796Y282842D01*
X170833Y282980D01*
X175980D01*
Y264586D01*
X176058Y264196D01*
X176279Y263865D01*
X176865Y263279D01*
X177196Y263058D01*
X177586Y262980D01*
X181480D01*
Y260922D01*
X181279Y260721D01*
X181058Y260390D01*
X180980Y260000D01*
Y106020D01*
X92020D01*
Y143980D01*
X100414D01*
X100717Y144041D01*
X101158Y143599D01*
X101842Y143204D01*
X102605Y143000D01*
X103395D01*
X104158Y143204D01*
X104842Y143599D01*
X105401Y144158D01*
X105796Y144842D01*
X106000Y145605D01*
Y146395D01*
X105796Y147158D01*
X105401Y147842D01*
X104842Y148401D01*
X104158Y148796D01*
X103395Y149000D01*
X102605D01*
X101842Y148796D01*
X101158Y148401D01*
X100599Y147842D01*
X100204Y147158D01*
X100000Y146395D01*
Y146020D01*
X91586D01*
X91196Y145942D01*
X90865Y145721D01*
X90279Y145135D01*
X90058Y144804D01*
X89980Y144414D01*
Y105586D01*
X90058Y105196D01*
X90279Y104865D01*
X90865Y104279D01*
X91196Y104058D01*
X91586Y103980D01*
X221167D01*
X221204Y103842D01*
X221599Y103158D01*
X222158Y102599D01*
X222842Y102204D01*
X223605Y102000D01*
X224395D01*
X225158Y102204D01*
X225842Y102599D01*
X226401Y103158D01*
X226796Y103842D01*
X227000Y104605D01*
Y105395D01*
X226796Y106158D01*
X226401Y106842D01*
X225842Y107401D01*
X225158Y107796D01*
X224395Y108000D01*
X223605D01*
X222842Y107796D01*
X222158Y107401D01*
X221599Y106842D01*
X221204Y106158D01*
X221167Y106020D01*
X183422D01*
X183020Y106422D01*
Y109417D01*
X183520Y109624D01*
X183865Y109279D01*
X184196Y109058D01*
X184586Y108980D01*
X215167D01*
X215204Y108842D01*
X215599Y108158D01*
X216158Y107599D01*
X216842Y107204D01*
X217605Y107000D01*
X218395D01*
X219158Y107204D01*
X219842Y107599D01*
X220401Y108158D01*
X220796Y108842D01*
X221000Y109605D01*
Y110395D01*
X220796Y111158D01*
X220401Y111842D01*
X219842Y112401D01*
X219158Y112796D01*
X219020Y112833D01*
Y116980D01*
X229980D01*
Y100422D01*
X228578Y99020D01*
X89020D01*
Y153980D01*
X100414D01*
X100717Y154041D01*
X101158Y153599D01*
X101842Y153204D01*
X102605Y153000D01*
X103395D01*
X104158Y153204D01*
X104842Y153599D01*
X105401Y154158D01*
X105796Y154842D01*
X106000Y155605D01*
Y156395D01*
X105796Y157158D01*
X105401Y157842D01*
X104842Y158401D01*
X104158Y158796D01*
X103395Y159000D01*
X102605D01*
X101842Y158796D01*
X101158Y158401D01*
X100599Y157842D01*
X100204Y157158D01*
X100000Y156395D01*
Y156020D01*
X88586D01*
X88196Y155942D01*
X87865Y155721D01*
X87520Y155376D01*
X87020Y155583D01*
Y163980D01*
X100167D01*
X100204Y163842D01*
X100599Y163158D01*
X101158Y162599D01*
X101842Y162204D01*
X102605Y162000D01*
X103395D01*
X104158Y162204D01*
X104842Y162599D01*
X105401Y163158D01*
X105796Y163842D01*
X106000Y164605D01*
Y165395D01*
X105796Y166158D01*
X105401Y166842D01*
X104842Y167401D01*
X104158Y167796D01*
X103395Y168000D01*
X102605D01*
X101842Y167796D01*
X101158Y167401D01*
X100599Y166842D01*
X100204Y166158D01*
X100167Y166020D01*
X86586D01*
X86196Y165942D01*
X85865Y165721D01*
X85279Y165135D01*
X85058Y164804D01*
X84980Y164414D01*
Y95000D01*
X85058Y94610D01*
X85279Y94279D01*
X86326Y93232D01*
X86657Y93011D01*
X87047Y92933D01*
X106547D01*
Y86547D01*
X113453D01*
Y92933D01*
X117343D01*
X117550Y92433D01*
X117237Y92120D01*
X116782Y91333D01*
X116547Y90455D01*
Y89545D01*
X116782Y88667D01*
X117237Y87880D01*
X117880Y87237D01*
X118667Y86783D01*
X119545Y86547D01*
X120455D01*
X121333Y86783D01*
X122120Y87237D01*
X122763Y87880D01*
X123217Y88667D01*
X123453Y89545D01*
Y90455D01*
X123428Y90548D01*
X123829Y90980D01*
X209167D01*
X209204Y90842D01*
X209599Y90158D01*
X210158Y89599D01*
X210842Y89204D01*
X211605Y89000D01*
X212395D01*
X213158Y89204D01*
X213842Y89599D01*
X214401Y90158D01*
X214796Y90842D01*
X215000Y91605D01*
Y92395D01*
X214796Y93158D01*
X214401Y93842D01*
X213842Y94401D01*
X213158Y94796D01*
X212395Y95000D01*
X211605D01*
X210842Y94796D01*
X210158Y94401D01*
X209599Y93842D01*
X209204Y93158D01*
X209167Y93020D01*
X124012D01*
X122358Y94674D01*
X122028Y94895D01*
X121637Y94972D01*
X87470D01*
X87020Y95422D01*
Y97417D01*
X87520Y97624D01*
X87865Y97279D01*
X88196Y97058D01*
X88586Y96980D01*
X229000D01*
X229390Y97058D01*
X229721Y97279D01*
X231721Y99279D01*
X231942Y99610D01*
X232020Y100000D01*
Y117414D01*
X231942Y117804D01*
X231721Y118135D01*
X231135Y118721D01*
X230804Y118942D01*
X230414Y119020D01*
X218586D01*
X218196Y118942D01*
X217865Y118721D01*
X217279Y118135D01*
X217058Y117804D01*
X216980Y117414D01*
Y112833D01*
X216842Y112796D01*
X216158Y112401D01*
X215599Y111842D01*
X215204Y111158D01*
X215167Y111020D01*
X185020D01*
Y271414D01*
X184959Y271717D01*
X185401Y272158D01*
X185796Y272842D01*
X186000Y273605D01*
Y274395D01*
X185796Y275158D01*
X185401Y275842D01*
X184842Y276401D01*
X184158Y276796D01*
X183395Y277000D01*
X182605D01*
X181842Y276796D01*
X181158Y276401D01*
X180599Y275842D01*
X180204Y275158D01*
X180000Y274395D01*
Y273605D01*
X180204Y272842D01*
X180599Y272158D01*
X181158Y271599D01*
X181842Y271204D01*
X182605Y271000D01*
X182980D01*
Y265149D01*
X182480Y264882D01*
X182390Y264942D01*
X182000Y265020D01*
X178020D01*
Y283414D01*
X177942Y283804D01*
X177721Y284135D01*
X177135Y284721D01*
X176804Y284942D01*
X176414Y285020D01*
X170833D01*
X170796Y285158D01*
X170401Y285842D01*
X169842Y286401D01*
X169158Y286796D01*
X168395Y287000D01*
D02*
G37*
G36*
X515395Y164000D02*
X514605D01*
X513842Y163796D01*
X513158Y163401D01*
X512599Y162842D01*
X512204Y162158D01*
X512000Y161395D01*
Y160605D01*
X512204Y159842D01*
X512599Y159158D01*
X513158Y158599D01*
X513842Y158204D01*
X514605Y158000D01*
X515395D01*
X516158Y158204D01*
X516842Y158599D01*
X517401Y159158D01*
X517796Y159842D01*
X518000Y160605D01*
Y161395D01*
X517796Y162158D01*
X517401Y162842D01*
X516842Y163401D01*
X516158Y163796D01*
X515395Y164000D01*
D02*
G37*
G36*
X220395Y195000D02*
X219605D01*
X218842Y194796D01*
X218158Y194401D01*
X217599Y193842D01*
X217204Y193158D01*
X217000Y192395D01*
Y191605D01*
X217204Y190842D01*
X217599Y190158D01*
X218158Y189599D01*
X218842Y189204D01*
X218980Y189167D01*
Y182020D01*
X211586D01*
X211196Y181942D01*
X210865Y181721D01*
X210279Y181135D01*
X210058Y180804D01*
X209980Y180414D01*
Y174370D01*
X208776D01*
Y169630D01*
X209980D01*
Y168370D01*
X208776D01*
Y163630D01*
X212925D01*
Y168370D01*
X212020D01*
Y169630D01*
X212925D01*
Y174370D01*
X212020D01*
Y179980D01*
X227578D01*
X228130Y179428D01*
Y174370D01*
X227075D01*
Y169630D01*
X228130D01*
Y168370D01*
X227075D01*
Y163630D01*
X228130D01*
Y162370D01*
X227075D01*
Y157630D01*
X231224D01*
Y162370D01*
X230169D01*
Y163630D01*
X231224D01*
Y168370D01*
X230169D01*
Y169630D01*
X231224D01*
Y174370D01*
X230169D01*
Y179850D01*
X230092Y180241D01*
X229871Y180571D01*
X228721Y181721D01*
X228390Y181942D01*
X228000Y182020D01*
X221020D01*
Y189167D01*
X221158Y189204D01*
X221842Y189599D01*
X222401Y190158D01*
X222796Y190842D01*
X223000Y191605D01*
Y192395D01*
X222796Y193158D01*
X222401Y193842D01*
X221842Y194401D01*
X221158Y194796D01*
X220395Y195000D01*
D02*
G37*
G36*
X30461Y163500D02*
X29539D01*
X28649Y163261D01*
X27851Y162801D01*
X27199Y162149D01*
X26739Y161351D01*
X26500Y160461D01*
Y159539D01*
X26739Y158649D01*
X27199Y157851D01*
X27851Y157199D01*
X28649Y156738D01*
X29539Y156500D01*
X30461D01*
X31351Y156738D01*
X32149Y157199D01*
X32801Y157851D01*
X33261Y158649D01*
X33500Y159539D01*
Y160461D01*
X33261Y161351D01*
X32801Y162149D01*
X32149Y162801D01*
X31351Y163261D01*
X30461Y163500D01*
D02*
G37*
G36*
X20461D02*
X19539D01*
X18649Y163261D01*
X17851Y162801D01*
X17199Y162149D01*
X16738Y161351D01*
X16500Y160461D01*
Y159539D01*
X16738Y158649D01*
X17199Y157851D01*
X17851Y157199D01*
X18649Y156738D01*
X19539Y156500D01*
X20461D01*
X21351Y156738D01*
X22149Y157199D01*
X22801Y157851D01*
X23261Y158649D01*
X23500Y159539D01*
Y160461D01*
X23261Y161351D01*
X22801Y162149D01*
X22149Y162801D01*
X21351Y163261D01*
X20461Y163500D01*
D02*
G37*
G36*
X476000Y163530D02*
X472000D01*
X471086Y163410D01*
X470235Y163057D01*
X469504Y162496D01*
X468943Y161765D01*
X468590Y160914D01*
X468470Y160000D01*
X468590Y159086D01*
X468943Y158235D01*
X469504Y157504D01*
X470235Y156943D01*
X471086Y156590D01*
X472000Y156470D01*
X476000D01*
X476914Y156590D01*
X477765Y156943D01*
X478496Y157504D01*
X479057Y158235D01*
X479410Y159086D01*
X479530Y160000D01*
X479410Y160914D01*
X479057Y161765D01*
X478496Y162496D01*
X477765Y163057D01*
X476914Y163410D01*
X476000Y163530D01*
D02*
G37*
G36*
X386000D02*
X382000D01*
X381086Y163410D01*
X380235Y163057D01*
X379504Y162496D01*
X378943Y161765D01*
X378590Y160914D01*
X378470Y160000D01*
X378590Y159086D01*
X378943Y158235D01*
X379504Y157504D01*
X380235Y156943D01*
X381086Y156590D01*
X382000Y156470D01*
X386000D01*
X386914Y156590D01*
X387765Y156943D01*
X388496Y157504D01*
X389057Y158235D01*
X389410Y159086D01*
X389530Y160000D01*
X389410Y160914D01*
X389057Y161765D01*
X388496Y162496D01*
X387765Y163057D01*
X386914Y163410D01*
X386000Y163530D01*
D02*
G37*
G36*
X307453Y157453D02*
X300547D01*
Y150547D01*
X307453D01*
Y157453D01*
D02*
G37*
G36*
X30461Y153500D02*
X29539D01*
X28649Y153261D01*
X27851Y152801D01*
X27199Y152149D01*
X26739Y151351D01*
X26500Y150461D01*
Y149539D01*
X26739Y148649D01*
X27199Y147851D01*
X27851Y147199D01*
X28649Y146739D01*
X29539Y146500D01*
X30461D01*
X31351Y146739D01*
X32149Y147199D01*
X32801Y147851D01*
X33261Y148649D01*
X33500Y149539D01*
Y150461D01*
X33261Y151351D01*
X32801Y152149D01*
X32149Y152801D01*
X31351Y153261D01*
X30461Y153500D01*
D02*
G37*
G36*
X20461D02*
X19539D01*
X18649Y153261D01*
X17851Y152801D01*
X17199Y152149D01*
X16738Y151351D01*
X16500Y150461D01*
Y149539D01*
X16738Y148649D01*
X17199Y147851D01*
X17851Y147199D01*
X18649Y146739D01*
X19539Y146500D01*
X20461D01*
X21351Y146739D01*
X22149Y147199D01*
X22801Y147851D01*
X23261Y148649D01*
X23500Y149539D01*
Y150461D01*
X23261Y151351D01*
X22801Y152149D01*
X22149Y152801D01*
X21351Y153261D01*
X20461Y153500D01*
D02*
G37*
G36*
X476000Y153530D02*
X472000D01*
X471086Y153410D01*
X470235Y153057D01*
X469504Y152496D01*
X468943Y151765D01*
X468590Y150914D01*
X468470Y150000D01*
X468590Y149086D01*
X468943Y148235D01*
X469504Y147504D01*
X470235Y146943D01*
X471086Y146590D01*
X472000Y146470D01*
X476000D01*
X476914Y146590D01*
X477765Y146943D01*
X478496Y147504D01*
X479057Y148235D01*
X479410Y149086D01*
X479530Y150000D01*
X479410Y150914D01*
X479057Y151765D01*
X478496Y152496D01*
X477765Y153057D01*
X476914Y153410D01*
X476000Y153530D01*
D02*
G37*
G36*
X386000D02*
X382000D01*
X381086Y153410D01*
X380235Y153057D01*
X379504Y152496D01*
X378943Y151765D01*
X378590Y150914D01*
X378470Y150000D01*
X378590Y149086D01*
X378943Y148235D01*
X379504Y147504D01*
X380235Y146943D01*
X381086Y146590D01*
X382000Y146470D01*
X386000D01*
X386914Y146590D01*
X387765Y146943D01*
X388496Y147504D01*
X389057Y148235D01*
X389410Y149086D01*
X389530Y150000D01*
X389410Y150914D01*
X389057Y151765D01*
X388496Y152496D01*
X387765Y153057D01*
X386914Y153410D01*
X386000Y153530D01*
D02*
G37*
G36*
X252395Y151000D02*
X251605D01*
X250842Y150796D01*
X250158Y150401D01*
X249599Y149842D01*
X249204Y149158D01*
X249000Y148395D01*
Y147605D01*
X249204Y146842D01*
X249599Y146158D01*
X250158Y145599D01*
X250842Y145204D01*
X251605Y145000D01*
X252395D01*
X253158Y145204D01*
X253842Y145599D01*
X254401Y146158D01*
X254796Y146842D01*
X255000Y147605D01*
Y148395D01*
X254796Y149158D01*
X254401Y149842D01*
X253842Y150401D01*
X253158Y150796D01*
X252395Y151000D01*
D02*
G37*
G36*
X133453Y151453D02*
X126547D01*
Y144547D01*
X133453D01*
Y151453D01*
D02*
G37*
G36*
X30461Y143500D02*
X29539D01*
X28649Y143262D01*
X27851Y142801D01*
X27199Y142149D01*
X26739Y141351D01*
X26500Y140461D01*
Y139539D01*
X26739Y138649D01*
X27199Y137851D01*
X27851Y137199D01*
X28649Y136739D01*
X29539Y136500D01*
X30461D01*
X31351Y136739D01*
X32149Y137199D01*
X32801Y137851D01*
X33261Y138649D01*
X33500Y139539D01*
Y140461D01*
X33261Y141351D01*
X32801Y142149D01*
X32149Y142801D01*
X31351Y143262D01*
X30461Y143500D01*
D02*
G37*
G36*
X20461D02*
X19539D01*
X18649Y143262D01*
X17851Y142801D01*
X17199Y142149D01*
X16738Y141351D01*
X16500Y140461D01*
Y139539D01*
X16738Y138649D01*
X17199Y137851D01*
X17851Y137199D01*
X18649Y136739D01*
X19539Y136500D01*
X20461D01*
X21351Y136739D01*
X22149Y137199D01*
X22801Y137851D01*
X23261Y138649D01*
X23500Y139539D01*
Y140461D01*
X23261Y141351D01*
X22801Y142149D01*
X22149Y142801D01*
X21351Y143262D01*
X20461Y143500D01*
D02*
G37*
G36*
X476000Y143530D02*
X472000D01*
X471086Y143410D01*
X470235Y143057D01*
X469504Y142496D01*
X468943Y141765D01*
X468590Y140914D01*
X468470Y140000D01*
X468590Y139086D01*
X468943Y138235D01*
X469504Y137504D01*
X470235Y136943D01*
X471086Y136590D01*
X472000Y136470D01*
X476000D01*
X476914Y136590D01*
X477765Y136943D01*
X478496Y137504D01*
X479057Y138235D01*
X479410Y139086D01*
X479530Y140000D01*
X479410Y140914D01*
X479057Y141765D01*
X478496Y142496D01*
X477765Y143057D01*
X476914Y143410D01*
X476000Y143530D01*
D02*
G37*
G36*
X386000D02*
X382000D01*
X381086Y143410D01*
X380235Y143057D01*
X379504Y142496D01*
X378943Y141765D01*
X378590Y140914D01*
X378470Y140000D01*
X378590Y139086D01*
X378943Y138235D01*
X379504Y137504D01*
X380235Y136943D01*
X381086Y136590D01*
X382000Y136470D01*
X386000D01*
X386914Y136590D01*
X387765Y136943D01*
X388496Y137504D01*
X389057Y138235D01*
X389410Y139086D01*
X389530Y140000D01*
X389410Y140914D01*
X389057Y141765D01*
X388496Y142496D01*
X387765Y143057D01*
X386914Y143410D01*
X386000Y143530D01*
D02*
G37*
G36*
X307453Y139453D02*
X300547D01*
Y132547D01*
X307453D01*
Y139453D01*
D02*
G37*
G36*
X30461Y133500D02*
X29539D01*
X28649Y133262D01*
X27851Y132801D01*
X27199Y132149D01*
X26739Y131351D01*
X26500Y130461D01*
Y129539D01*
X26739Y128649D01*
X27199Y127851D01*
X27851Y127199D01*
X28649Y126739D01*
X29539Y126500D01*
X30461D01*
X31351Y126739D01*
X32149Y127199D01*
X32801Y127851D01*
X33261Y128649D01*
X33500Y129539D01*
Y130461D01*
X33261Y131351D01*
X32801Y132149D01*
X32149Y132801D01*
X31351Y133262D01*
X30461Y133500D01*
D02*
G37*
G36*
X20461D02*
X19539D01*
X18649Y133262D01*
X17851Y132801D01*
X17199Y132149D01*
X16738Y131351D01*
X16500Y130461D01*
Y129539D01*
X16738Y128649D01*
X17199Y127851D01*
X17851Y127199D01*
X18649Y126739D01*
X19539Y126500D01*
X20461D01*
X21351Y126739D01*
X22149Y127199D01*
X22801Y127851D01*
X23261Y128649D01*
X23500Y129539D01*
Y130461D01*
X23261Y131351D01*
X22801Y132149D01*
X22149Y132801D01*
X21351Y133262D01*
X20461Y133500D01*
D02*
G37*
G36*
X386000Y133530D02*
X382000D01*
X381086Y133410D01*
X380235Y133057D01*
X379504Y132496D01*
X378943Y131765D01*
X378590Y130914D01*
X378470Y130000D01*
X378590Y129086D01*
X378943Y128235D01*
X379504Y127504D01*
X380235Y126943D01*
X381086Y126590D01*
X382000Y126470D01*
X386000D01*
X386914Y126590D01*
X387765Y126943D01*
X388496Y127504D01*
X389057Y128235D01*
X389410Y129086D01*
X389530Y130000D01*
X389410Y130914D01*
X389057Y131765D01*
X388496Y132496D01*
X387765Y133057D01*
X386914Y133410D01*
X386000Y133530D01*
D02*
G37*
G36*
X156395Y166000D02*
X155605D01*
X154842Y165796D01*
X154158Y165401D01*
X153599Y164842D01*
X153204Y164158D01*
X153000Y163395D01*
Y162605D01*
X153204Y161842D01*
X153599Y161158D01*
X154158Y160599D01*
X154842Y160204D01*
X154980Y160167D01*
Y121020D01*
X106833D01*
X106796Y121158D01*
X106401Y121842D01*
X105842Y122401D01*
X105158Y122796D01*
X104395Y123000D01*
X103605D01*
X102842Y122796D01*
X102158Y122401D01*
X101599Y121842D01*
X101204Y121158D01*
X101000Y120395D01*
Y119605D01*
X101204Y118842D01*
X101599Y118158D01*
X102158Y117599D01*
X102842Y117204D01*
X103605Y117000D01*
X104395D01*
X105158Y117204D01*
X105842Y117599D01*
X106401Y118158D01*
X106796Y118842D01*
X106833Y118980D01*
X155414D01*
X155804Y119058D01*
X156135Y119279D01*
X156721Y119865D01*
X156942Y120196D01*
X157020Y120586D01*
Y160167D01*
X157158Y160204D01*
X157842Y160599D01*
X158401Y161158D01*
X158796Y161842D01*
X159000Y162605D01*
Y163395D01*
X158796Y164158D01*
X158401Y164842D01*
X157842Y165401D01*
X157158Y165796D01*
X156395Y166000D01*
D02*
G37*
G36*
X30461Y123500D02*
X29539D01*
X28649Y123261D01*
X27851Y122801D01*
X27199Y122149D01*
X26739Y121351D01*
X26500Y120461D01*
Y119539D01*
X26739Y118649D01*
X27199Y117851D01*
X27851Y117199D01*
X28649Y116738D01*
X29539Y116500D01*
X30461D01*
X31351Y116738D01*
X32149Y117199D01*
X32801Y117851D01*
X33261Y118649D01*
X33500Y119539D01*
Y120461D01*
X33261Y121351D01*
X32801Y122149D01*
X32149Y122801D01*
X31351Y123261D01*
X30461Y123500D01*
D02*
G37*
G36*
X20461D02*
X19539D01*
X18649Y123261D01*
X17851Y122801D01*
X17199Y122149D01*
X16738Y121351D01*
X16500Y120461D01*
Y119539D01*
X16738Y118649D01*
X17199Y117851D01*
X17851Y117199D01*
X18649Y116738D01*
X19539Y116500D01*
X20461D01*
X21351Y116738D01*
X22149Y117199D01*
X22801Y117851D01*
X23261Y118649D01*
X23500Y119539D01*
Y120461D01*
X23261Y121351D01*
X22801Y122149D01*
X22149Y122801D01*
X21351Y123261D01*
X20461Y123500D01*
D02*
G37*
G36*
X386000Y123530D02*
X382000D01*
X381086Y123410D01*
X380235Y123057D01*
X379504Y122496D01*
X378943Y121765D01*
X378590Y120914D01*
X378470Y120000D01*
X378590Y119086D01*
X378943Y118235D01*
X379504Y117504D01*
X380235Y116943D01*
X381086Y116590D01*
X382000Y116470D01*
X386000D01*
X386914Y116590D01*
X387765Y116943D01*
X388496Y117504D01*
X389057Y118235D01*
X389410Y119086D01*
X389530Y120000D01*
X389410Y120914D01*
X389057Y121765D01*
X388496Y122496D01*
X387765Y123057D01*
X386914Y123410D01*
X386000Y123530D01*
D02*
G37*
G36*
X300395Y114000D02*
X299605D01*
X298842Y113796D01*
X298158Y113401D01*
X297599Y112842D01*
X297204Y112158D01*
X297167Y112020D01*
X292586D01*
X292196Y111942D01*
X291865Y111721D01*
X291279Y111135D01*
X291058Y110804D01*
X290980Y110414D01*
Y101422D01*
X290578Y101020D01*
X282833D01*
X282796Y101158D01*
X282401Y101842D01*
X281842Y102401D01*
X281158Y102796D01*
X280395Y103000D01*
X279605D01*
X278842Y102796D01*
X278158Y102401D01*
X277599Y101842D01*
X277204Y101158D01*
X277000Y100395D01*
Y99605D01*
X277204Y98842D01*
X277599Y98158D01*
X278158Y97599D01*
X278842Y97204D01*
X279605Y97000D01*
X280395D01*
X281158Y97204D01*
X281842Y97599D01*
X282401Y98158D01*
X282796Y98842D01*
X282833Y98980D01*
X291000D01*
X291390Y99058D01*
X291721Y99279D01*
X292721Y100279D01*
X292942Y100610D01*
X293020Y101000D01*
Y109980D01*
X297167D01*
X297204Y109842D01*
X297599Y109158D01*
X298158Y108599D01*
X298842Y108204D01*
X299605Y108000D01*
X300395D01*
X301158Y108204D01*
X301842Y108599D01*
X302401Y109158D01*
X302796Y109842D01*
X303000Y110605D01*
Y111395D01*
X302796Y112158D01*
X302401Y112842D01*
X301842Y113401D01*
X301158Y113796D01*
X300395Y114000D01*
D02*
G37*
G36*
X280395Y124000D02*
X279605D01*
X278842Y123796D01*
X278158Y123401D01*
X277599Y122842D01*
X277204Y122158D01*
X277000Y121395D01*
Y120605D01*
X277204Y119842D01*
X277599Y119158D01*
X278158Y118599D01*
X278842Y118204D01*
X279605Y118000D01*
X280395D01*
X281158Y118204D01*
X281842Y118599D01*
X282401Y119158D01*
X282796Y119842D01*
X282833Y119980D01*
X346980D01*
Y112833D01*
X346842Y112796D01*
X346158Y112401D01*
X345599Y111842D01*
X345204Y111158D01*
X345000Y110395D01*
Y109605D01*
X345204Y108842D01*
X345599Y108158D01*
X346158Y107599D01*
X346842Y107204D01*
X347605Y107000D01*
X348395D01*
X349158Y107204D01*
X349842Y107599D01*
X350401Y108158D01*
X350796Y108842D01*
X351000Y109605D01*
Y110395D01*
X350796Y111158D01*
X350401Y111842D01*
X349842Y112401D01*
X349158Y112796D01*
X349020Y112833D01*
Y120414D01*
X348942Y120804D01*
X348721Y121135D01*
X348135Y121721D01*
X347804Y121942D01*
X347414Y122020D01*
X282833D01*
X282796Y122158D01*
X282401Y122842D01*
X281842Y123401D01*
X281158Y123796D01*
X280395Y124000D01*
D02*
G37*
G36*
X386000Y113530D02*
X382000D01*
X381086Y113410D01*
X380235Y113057D01*
X379504Y112496D01*
X378943Y111765D01*
X378590Y110914D01*
X378470Y110000D01*
X378590Y109086D01*
X378943Y108235D01*
X379504Y107504D01*
X380235Y106943D01*
X381086Y106590D01*
X382000Y106470D01*
X386000D01*
X386914Y106590D01*
X387765Y106943D01*
X388496Y107504D01*
X389057Y108235D01*
X389410Y109086D01*
X389530Y110000D01*
X389410Y110914D01*
X389057Y111765D01*
X388496Y112496D01*
X387765Y113057D01*
X386914Y113410D01*
X386000Y113530D01*
D02*
G37*
G36*
Y103530D02*
X382000D01*
X381086Y103410D01*
X380235Y103057D01*
X379504Y102496D01*
X378943Y101765D01*
X378590Y100914D01*
X378470Y100000D01*
X378590Y99086D01*
X378943Y98235D01*
X379504Y97504D01*
X380235Y96943D01*
X381086Y96590D01*
X382000Y96470D01*
X386000D01*
X386914Y96590D01*
X387765Y96943D01*
X388496Y97504D01*
X389057Y98235D01*
X389410Y99086D01*
X389530Y100000D01*
X389410Y100914D01*
X389057Y101765D01*
X388496Y102496D01*
X387765Y103057D01*
X386914Y103410D01*
X386000Y103530D01*
D02*
G37*
G36*
X265395Y107000D02*
X264605D01*
X263842Y106796D01*
X263158Y106401D01*
X262599Y105842D01*
X262204Y105158D01*
X262000Y104395D01*
Y103605D01*
X262204Y102842D01*
X262599Y102158D01*
X263158Y101599D01*
X263842Y101204D01*
X263980Y101167D01*
Y96000D01*
X264058Y95610D01*
X264279Y95279D01*
X266279Y93279D01*
X266610Y93058D01*
X267000Y92980D01*
X297414D01*
X297717Y93041D01*
X298158Y92599D01*
X298842Y92204D01*
X299605Y92000D01*
X300395D01*
X301158Y92204D01*
X301842Y92599D01*
X302401Y93158D01*
X302796Y93842D01*
X303000Y94605D01*
Y95395D01*
X302796Y96158D01*
X302401Y96842D01*
X301842Y97401D01*
X301158Y97796D01*
X300395Y98000D01*
X299605D01*
X298842Y97796D01*
X298158Y97401D01*
X297599Y96842D01*
X297204Y96158D01*
X297000Y95395D01*
Y95020D01*
X267422D01*
X266020Y96422D01*
Y101167D01*
X266158Y101204D01*
X266842Y101599D01*
X267401Y102158D01*
X267796Y102842D01*
X268000Y103605D01*
Y104395D01*
X267796Y105158D01*
X267401Y105842D01*
X266842Y106401D01*
X266158Y106796D01*
X265395Y107000D01*
D02*
G37*
G36*
X476000Y93530D02*
X472000D01*
X471086Y93410D01*
X470235Y93057D01*
X469504Y92496D01*
X468943Y91765D01*
X468590Y90914D01*
X468470Y90000D01*
X468590Y89086D01*
X468943Y88235D01*
X469504Y87504D01*
X470235Y86943D01*
X471086Y86590D01*
X472000Y86470D01*
X476000D01*
X476914Y86590D01*
X477765Y86943D01*
X478496Y87504D01*
X479057Y88235D01*
X479410Y89086D01*
X479530Y90000D01*
X479410Y90914D01*
X479057Y91765D01*
X478496Y92496D01*
X477765Y93057D01*
X476914Y93410D01*
X476000Y93530D01*
D02*
G37*
G36*
X386000D02*
X382000D01*
X381086Y93410D01*
X380235Y93057D01*
X379504Y92496D01*
X378943Y91765D01*
X378590Y90914D01*
X378470Y90000D01*
X378590Y89086D01*
X378943Y88235D01*
X379504Y87504D01*
X380235Y86943D01*
X381086Y86590D01*
X382000Y86470D01*
X386000D01*
X386914Y86590D01*
X387765Y86943D01*
X388496Y87504D01*
X389057Y88235D01*
X389410Y89086D01*
X389530Y90000D01*
X389410Y90914D01*
X389057Y91765D01*
X388496Y92496D01*
X387765Y93057D01*
X386914Y93410D01*
X386000Y93530D01*
D02*
G37*
G36*
X452395Y105000D02*
X451605D01*
X450842Y104796D01*
X450158Y104401D01*
X449599Y103842D01*
X449204Y103158D01*
X449000Y102395D01*
Y101605D01*
X449204Y100842D01*
X449599Y100158D01*
X450158Y99599D01*
X450842Y99204D01*
X451605Y99000D01*
X452395D01*
X453158Y99204D01*
X453842Y99599D01*
X454401Y100158D01*
X454796Y100842D01*
X454833Y100980D01*
X463980D01*
Y86020D01*
X434833D01*
X434796Y86158D01*
X434401Y86842D01*
X433842Y87401D01*
X433158Y87796D01*
X432395Y88000D01*
X431605D01*
X430842Y87796D01*
X430158Y87401D01*
X429599Y86842D01*
X429204Y86158D01*
X429000Y85395D01*
Y84605D01*
X429204Y83842D01*
X429599Y83158D01*
X430158Y82599D01*
X430842Y82204D01*
X431605Y82000D01*
X432395D01*
X433158Y82204D01*
X433842Y82599D01*
X434401Y83158D01*
X434796Y83842D01*
X434833Y83980D01*
X464414D01*
X464804Y84058D01*
X465135Y84279D01*
X465721Y84865D01*
X465942Y85196D01*
X466020Y85586D01*
Y101414D01*
X465942Y101804D01*
X465721Y102135D01*
X465135Y102721D01*
X464804Y102942D01*
X464414Y103020D01*
X454833D01*
X454796Y103158D01*
X454401Y103842D01*
X453842Y104401D01*
X453158Y104796D01*
X452395Y105000D01*
D02*
G37*
G36*
X265395Y91000D02*
X264605D01*
X263842Y90796D01*
X263158Y90401D01*
X262599Y89842D01*
X262204Y89158D01*
X262000Y88395D01*
Y87605D01*
X262204Y86842D01*
X262599Y86158D01*
X263158Y85599D01*
X263842Y85204D01*
X264605Y85000D01*
X265395D01*
X266158Y85204D01*
X266842Y85599D01*
X267401Y86158D01*
X267796Y86842D01*
X267833Y86980D01*
X297000D01*
Y86605D01*
X297204Y85842D01*
X297599Y85158D01*
X298158Y84599D01*
X298842Y84204D01*
X299605Y84000D01*
X300395D01*
X301158Y84204D01*
X301842Y84599D01*
X302401Y85158D01*
X302796Y85842D01*
X303000Y86605D01*
Y87395D01*
X302796Y88158D01*
X302401Y88842D01*
X301842Y89401D01*
X301158Y89796D01*
X300395Y90000D01*
X299605D01*
X298842Y89796D01*
X298158Y89401D01*
X297777Y89020D01*
X267833D01*
X267796Y89158D01*
X267401Y89842D01*
X266842Y90401D01*
X266158Y90796D01*
X265395Y91000D01*
D02*
G37*
G36*
X62453Y88453D02*
X55547D01*
Y81547D01*
X62453D01*
Y88453D01*
D02*
G37*
G36*
X311414Y119020D02*
X288000D01*
X287610Y118942D01*
X287279Y118721D01*
X286279Y117721D01*
X286058Y117390D01*
X285980Y117000D01*
Y111422D01*
X285578Y111020D01*
X282833D01*
X282796Y111158D01*
X282401Y111842D01*
X281842Y112401D01*
X281158Y112796D01*
X280395Y113000D01*
X279605D01*
X278842Y112796D01*
X278158Y112401D01*
X277599Y111842D01*
X277204Y111158D01*
X277000Y110395D01*
Y109605D01*
X277204Y108842D01*
X277599Y108158D01*
X278158Y107599D01*
X278842Y107204D01*
X279605Y107000D01*
X280395D01*
X281158Y107204D01*
X281842Y107599D01*
X282401Y108158D01*
X282444Y108234D01*
X282741Y108293D01*
X283072Y108514D01*
X283293Y108844D01*
X283320Y108980D01*
X286000D01*
X286390Y109058D01*
X286721Y109279D01*
X287721Y110279D01*
X287942Y110610D01*
X288020Y111000D01*
Y116578D01*
X288422Y116980D01*
X310980D01*
Y79020D01*
X302833D01*
X302796Y79158D01*
X302401Y79842D01*
X301842Y80401D01*
X301158Y80796D01*
X300395Y81000D01*
X299605D01*
X298842Y80796D01*
X298158Y80401D01*
X297599Y79842D01*
X297204Y79158D01*
X297000Y78395D01*
Y77605D01*
X297204Y76842D01*
X297599Y76158D01*
X298158Y75599D01*
X298842Y75204D01*
X299605Y75000D01*
X300395D01*
X301158Y75204D01*
X301842Y75599D01*
X302401Y76158D01*
X302796Y76842D01*
X302833Y76980D01*
X311414D01*
X311804Y77058D01*
X312135Y77279D01*
X312721Y77865D01*
X312942Y78196D01*
X313020Y78586D01*
Y117414D01*
X312942Y117804D01*
X312721Y118135D01*
X312135Y118721D01*
X311804Y118942D01*
X311414Y119020D01*
D02*
G37*
G36*
X168453Y83453D02*
X161547D01*
Y76547D01*
X168453D01*
Y83453D01*
D02*
G37*
G36*
X120455D02*
X119545D01*
X118667Y83217D01*
X117880Y82763D01*
X117237Y82120D01*
X116782Y81333D01*
X116547Y80455D01*
Y79545D01*
X116782Y78667D01*
X117237Y77880D01*
X117880Y77237D01*
X118667Y76783D01*
X119545Y76547D01*
X120455D01*
X121333Y76783D01*
X122120Y77237D01*
X122763Y77880D01*
X123217Y78667D01*
X123453Y79545D01*
Y80455D01*
X123217Y81333D01*
X122763Y82120D01*
X122120Y82763D01*
X121333Y83217D01*
X120455Y83453D01*
D02*
G37*
G36*
X110455D02*
X109545D01*
X108667Y83217D01*
X107880Y82763D01*
X107237Y82120D01*
X106782Y81333D01*
X106547Y80455D01*
Y79545D01*
X106782Y78667D01*
X107237Y77880D01*
X107880Y77237D01*
X108667Y76783D01*
X109545Y76547D01*
X110455D01*
X111333Y76783D01*
X112120Y77237D01*
X112763Y77880D01*
X113217Y78667D01*
X113453Y79545D01*
Y80455D01*
X113217Y81333D01*
X112763Y82120D01*
X112120Y82763D01*
X111333Y83217D01*
X110455Y83453D01*
D02*
G37*
G36*
X476000Y83530D02*
X472000D01*
X471086Y83410D01*
X470235Y83057D01*
X469504Y82496D01*
X468943Y81765D01*
X468590Y80914D01*
X468470Y80000D01*
X468590Y79086D01*
X468943Y78235D01*
X469504Y77504D01*
X470235Y76943D01*
X471086Y76590D01*
X472000Y76470D01*
X476000D01*
X476914Y76590D01*
X477765Y76943D01*
X478496Y77504D01*
X479057Y78235D01*
X479410Y79086D01*
X479530Y80000D01*
X479410Y80914D01*
X479057Y81765D01*
X478496Y82496D01*
X477765Y83057D01*
X476914Y83410D01*
X476000Y83530D01*
D02*
G37*
G36*
X386000D02*
X382000D01*
X381086Y83410D01*
X380235Y83057D01*
X379504Y82496D01*
X378943Y81765D01*
X378590Y80914D01*
X378470Y80000D01*
X378590Y79086D01*
X378943Y78235D01*
X379504Y77504D01*
X380235Y76943D01*
X381086Y76590D01*
X382000Y76470D01*
X386000D01*
X386914Y76590D01*
X387765Y76943D01*
X388496Y77504D01*
X389057Y78235D01*
X389410Y79086D01*
X389530Y80000D01*
X389410Y80914D01*
X389057Y81765D01*
X388496Y82496D01*
X387765Y83057D01*
X386914Y83410D01*
X386000Y83530D01*
D02*
G37*
G36*
X321395Y107000D02*
X320605D01*
X319842Y106796D01*
X319158Y106401D01*
X318599Y105842D01*
X318204Y105158D01*
X318000Y104395D01*
Y103605D01*
X318204Y102842D01*
X318599Y102158D01*
X319158Y101599D01*
X319842Y101204D01*
X319980Y101167D01*
Y70020D01*
X287020D01*
Y71167D01*
X287158Y71204D01*
X287842Y71599D01*
X288401Y72158D01*
X288796Y72842D01*
X289000Y73605D01*
Y74395D01*
X288796Y75158D01*
X288401Y75842D01*
X287842Y76401D01*
X287158Y76796D01*
X287020Y76833D01*
Y78414D01*
X286942Y78804D01*
X286721Y79135D01*
X286135Y79721D01*
X285804Y79942D01*
X285414Y80020D01*
X267833D01*
X267796Y80158D01*
X267401Y80842D01*
X266842Y81401D01*
X266158Y81796D01*
X265395Y82000D01*
X264605D01*
X263842Y81796D01*
X263158Y81401D01*
X262599Y80842D01*
X262204Y80158D01*
X262000Y79395D01*
Y78605D01*
X262204Y77842D01*
X262599Y77158D01*
X263158Y76599D01*
X263842Y76204D01*
X264605Y76000D01*
X265395D01*
X266158Y76204D01*
X266842Y76599D01*
X267401Y77158D01*
X267796Y77842D01*
X267833Y77980D01*
X284980D01*
Y76833D01*
X284842Y76796D01*
X284158Y76401D01*
X283599Y75842D01*
X283204Y75158D01*
X283000Y74395D01*
Y73605D01*
X283204Y72842D01*
X283599Y72158D01*
X284158Y71599D01*
X284842Y71204D01*
X284980Y71167D01*
Y69586D01*
X285058Y69196D01*
X285279Y68865D01*
X285865Y68279D01*
X286196Y68058D01*
X286586Y67980D01*
X320414D01*
X320804Y68058D01*
X321135Y68279D01*
X321721Y68865D01*
X321942Y69196D01*
X322020Y69586D01*
Y101167D01*
X322158Y101204D01*
X322842Y101599D01*
X323401Y102158D01*
X323796Y102842D01*
X324000Y103605D01*
Y104395D01*
X323796Y105158D01*
X323401Y105842D01*
X322842Y106401D01*
X322158Y106796D01*
X321395Y107000D01*
D02*
G37*
G36*
X120455Y73453D02*
X119545D01*
X118667Y73217D01*
X117880Y72763D01*
X117237Y72120D01*
X116782Y71333D01*
X116547Y70455D01*
Y69545D01*
X116782Y68667D01*
X117237Y67880D01*
X117880Y67237D01*
X118667Y66783D01*
X119545Y66547D01*
X120455D01*
X121333Y66783D01*
X122120Y67237D01*
X122763Y67880D01*
X123217Y68667D01*
X123453Y69545D01*
Y70455D01*
X123217Y71333D01*
X122763Y72120D01*
X122120Y72763D01*
X121333Y73217D01*
X120455Y73453D01*
D02*
G37*
G36*
X110455D02*
X109545D01*
X108667Y73217D01*
X107880Y72763D01*
X107237Y72120D01*
X106782Y71333D01*
X106547Y70455D01*
Y69545D01*
X106782Y68667D01*
X107237Y67880D01*
X107880Y67237D01*
X108667Y66783D01*
X109545Y66547D01*
X110455D01*
X111333Y66783D01*
X112120Y67237D01*
X112763Y67880D01*
X113217Y68667D01*
X113453Y69545D01*
Y70455D01*
X113217Y71333D01*
X112763Y72120D01*
X112120Y72763D01*
X111333Y73217D01*
X110455Y73453D01*
D02*
G37*
G36*
X476000Y73530D02*
X472000D01*
X471086Y73410D01*
X470235Y73057D01*
X469504Y72496D01*
X468943Y71765D01*
X468590Y70914D01*
X468470Y70000D01*
X468590Y69086D01*
X468943Y68235D01*
X469504Y67504D01*
X470235Y66943D01*
X471086Y66590D01*
X472000Y66470D01*
X476000D01*
X476914Y66590D01*
X477765Y66943D01*
X478496Y67504D01*
X479057Y68235D01*
X479410Y69086D01*
X479530Y70000D01*
X479410Y70914D01*
X479057Y71765D01*
X478496Y72496D01*
X477765Y73057D01*
X476914Y73410D01*
X476000Y73530D01*
D02*
G37*
G36*
X386000D02*
X382000D01*
X381086Y73410D01*
X380235Y73057D01*
X379504Y72496D01*
X378943Y71765D01*
X378590Y70914D01*
X378470Y70000D01*
X378590Y69086D01*
X378943Y68235D01*
X379504Y67504D01*
X380235Y66943D01*
X381086Y66590D01*
X382000Y66470D01*
X386000D01*
X386914Y66590D01*
X387765Y66943D01*
X388496Y67504D01*
X389057Y68235D01*
X389410Y69086D01*
X389530Y70000D01*
X389410Y70914D01*
X389057Y71765D01*
X388496Y72496D01*
X387765Y73057D01*
X386914Y73410D01*
X386000Y73530D01*
D02*
G37*
G36*
X62453Y68453D02*
X55547D01*
Y61547D01*
X62453D01*
Y68453D01*
D02*
G37*
G36*
X476000Y63530D02*
X472000D01*
X471086Y63410D01*
X470235Y63057D01*
X469504Y62496D01*
X468943Y61765D01*
X468590Y60914D01*
X468470Y60000D01*
X468590Y59086D01*
X468943Y58235D01*
X469504Y57504D01*
X470235Y56943D01*
X471086Y56590D01*
X472000Y56470D01*
X476000D01*
X476914Y56590D01*
X477765Y56943D01*
X478496Y57504D01*
X479057Y58235D01*
X479410Y59086D01*
X479530Y60000D01*
X479410Y60914D01*
X479057Y61765D01*
X478496Y62496D01*
X477765Y63057D01*
X476914Y63410D01*
X476000Y63530D01*
D02*
G37*
G36*
X386000D02*
X382000D01*
X381086Y63410D01*
X380235Y63057D01*
X379504Y62496D01*
X378943Y61765D01*
X378590Y60914D01*
X378470Y60000D01*
X378590Y59086D01*
X378943Y58235D01*
X379504Y57504D01*
X380235Y56943D01*
X381086Y56590D01*
X382000Y56470D01*
X386000D01*
X386914Y56590D01*
X387765Y56943D01*
X388496Y57504D01*
X389057Y58235D01*
X389410Y59086D01*
X389530Y60000D01*
X389410Y60914D01*
X389057Y61765D01*
X388496Y62496D01*
X387765Y63057D01*
X386914Y63410D01*
X386000Y63530D01*
D02*
G37*
G36*
Y53530D02*
X382000D01*
X381086Y53410D01*
X380235Y53057D01*
X379504Y52496D01*
X378943Y51765D01*
X378590Y50914D01*
X378492Y50169D01*
X377370D01*
Y51224D01*
X372630D01*
Y50169D01*
X371370D01*
Y51224D01*
X366630D01*
Y47075D01*
X371370D01*
Y48130D01*
X372630D01*
Y47075D01*
X377370D01*
Y48130D01*
X378914D01*
X379009Y48149D01*
X379504Y47504D01*
X380235Y46943D01*
X381086Y46590D01*
X382000Y46470D01*
X386000D01*
X386914Y46590D01*
X387765Y46943D01*
X388496Y47504D01*
X389057Y48235D01*
X389410Y49086D01*
X389530Y50000D01*
X389410Y50914D01*
X389057Y51765D01*
X388496Y52496D01*
X387765Y53057D01*
X386914Y53410D01*
X386000Y53530D01*
D02*
G37*
G36*
X377370Y44925D02*
X372630D01*
Y43870D01*
X371370D01*
Y44925D01*
X366630D01*
Y40776D01*
X371370D01*
Y41831D01*
X372630D01*
Y40776D01*
X375638D01*
X375649Y40759D01*
X377129Y39279D01*
X377460Y39058D01*
X377850Y38980D01*
X378634D01*
X378943Y38235D01*
X379504Y37504D01*
X380235Y36943D01*
X381086Y36590D01*
X382000Y36470D01*
X386000D01*
X386914Y36590D01*
X387765Y36943D01*
X388496Y37504D01*
X389057Y38235D01*
X389410Y39086D01*
X389530Y40000D01*
X389410Y40914D01*
X389057Y41765D01*
X388496Y42496D01*
X387765Y43057D01*
X386914Y43410D01*
X386000Y43530D01*
X382000D01*
X381086Y43410D01*
X380235Y43057D01*
X379504Y42496D01*
X378943Y41765D01*
X378703Y41187D01*
X378172Y41120D01*
X377370Y41922D01*
Y44925D01*
D02*
G37*
G36*
X476000Y43530D02*
X472000D01*
X471086Y43410D01*
X470235Y43057D01*
X469504Y42496D01*
X468943Y41765D01*
X468590Y40914D01*
X468470Y40000D01*
X468590Y39086D01*
X468943Y38235D01*
X469504Y37504D01*
X470235Y36943D01*
X471086Y36590D01*
X472000Y36470D01*
X476000D01*
X476914Y36590D01*
X477765Y36943D01*
X478496Y37504D01*
X479057Y38235D01*
X479410Y39086D01*
X479530Y40000D01*
X479410Y40914D01*
X479057Y41765D01*
X478496Y42496D01*
X477765Y43057D01*
X476914Y43410D01*
X476000Y43530D01*
D02*
G37*
G36*
X287395Y38000D02*
X286605D01*
X285842Y37796D01*
X285158Y37401D01*
X284599Y36842D01*
X284204Y36158D01*
X284000Y35395D01*
Y34605D01*
X284204Y33842D01*
X284599Y33158D01*
X285158Y32599D01*
X285842Y32204D01*
X286605Y32000D01*
X287395D01*
X288158Y32204D01*
X288842Y32599D01*
X289401Y33158D01*
X289796Y33842D01*
X290000Y34605D01*
Y35395D01*
X289796Y36158D01*
X289401Y36842D01*
X288842Y37401D01*
X288158Y37796D01*
X287395Y38000D01*
D02*
G37*
G36*
X540826Y30500D02*
X539174D01*
X537541Y30242D01*
X535969Y29731D01*
X534497Y28980D01*
X533160Y28009D01*
X531991Y26840D01*
X531020Y25503D01*
X530269Y24031D01*
X529759Y22459D01*
X529500Y20826D01*
Y19174D01*
X529759Y17541D01*
X530269Y15969D01*
X531020Y14497D01*
X531991Y13160D01*
X533160Y11991D01*
X534497Y11020D01*
X535969Y10269D01*
X537541Y9759D01*
X539174Y9500D01*
X540826D01*
X542459Y9759D01*
X544031Y10269D01*
X545503Y11020D01*
X546840Y11991D01*
X548009Y13160D01*
X548980Y14497D01*
X549731Y15969D01*
X550242Y17541D01*
X550500Y19174D01*
Y20826D01*
X550242Y22459D01*
X549731Y24031D01*
X548980Y25503D01*
X548009Y26840D01*
X546840Y28009D01*
X545503Y28980D01*
X544031Y29731D01*
X542459Y30242D01*
X540826Y30500D01*
D02*
G37*
G36*
X20826D02*
X19174D01*
X17541Y30242D01*
X15969Y29731D01*
X14497Y28980D01*
X13160Y28009D01*
X11991Y26840D01*
X11020Y25503D01*
X10269Y24031D01*
X9759Y22459D01*
X9500Y20826D01*
Y19174D01*
X9759Y17541D01*
X10269Y15969D01*
X11020Y14497D01*
X11991Y13160D01*
X13160Y11991D01*
X14497Y11020D01*
X15969Y10269D01*
X17541Y9759D01*
X19174Y9500D01*
X20826D01*
X22459Y9759D01*
X24031Y10269D01*
X25503Y11020D01*
X26840Y11991D01*
X28009Y13160D01*
X28980Y14497D01*
X29731Y15969D01*
X30242Y17541D01*
X30500Y19174D01*
Y20826D01*
X30242Y22459D01*
X29731Y24031D01*
X28980Y25503D01*
X28009Y26840D01*
X26840Y28009D01*
X25503Y28980D01*
X24031Y29731D01*
X22459Y30242D01*
X20826Y30500D01*
D02*
G37*
%LPD*%
G36*
X412696Y138058D02*
X413086Y137980D01*
X455980D01*
Y130000D01*
X456058Y129610D01*
X456279Y129279D01*
X461279Y124279D01*
X461610Y124058D01*
X462000Y123980D01*
X471589D01*
X471622Y123480D01*
X471086Y123410D01*
X470235Y123057D01*
X469504Y122496D01*
X468943Y121765D01*
X468590Y120914D01*
X468470Y120000D01*
X468590Y119086D01*
X468943Y118235D01*
X469504Y117504D01*
X470235Y116943D01*
X471086Y116590D01*
X471622Y116520D01*
X471589Y116020D01*
X412020D01*
Y137964D01*
X412520Y138176D01*
X412696Y138058D01*
D02*
G37*
G36*
X410865Y114279D02*
X411196Y114058D01*
X411586Y113980D01*
X471589D01*
X471622Y113480D01*
X471086Y113410D01*
X470235Y113057D01*
X469504Y112496D01*
X468943Y111765D01*
X468590Y110914D01*
X468470Y110000D01*
X468590Y109086D01*
X468943Y108235D01*
X469504Y107504D01*
X470235Y106943D01*
X471086Y106590D01*
X471622Y106520D01*
X471589Y106020D01*
X466422D01*
X460721Y111721D01*
X460390Y111942D01*
X460000Y112020D01*
X410020D01*
Y114417D01*
X410520Y114624D01*
X410865Y114279D01*
D02*
G37*
%LPC*%
G36*
X448395Y128000D02*
X447605D01*
X446842Y127796D01*
X446158Y127401D01*
X445599Y126842D01*
X445204Y126158D01*
X445167Y126020D01*
X433833D01*
X433796Y126158D01*
X433401Y126842D01*
X432842Y127401D01*
X432158Y127796D01*
X431395Y128000D01*
X430605D01*
X429842Y127796D01*
X429158Y127401D01*
X428599Y126842D01*
X428204Y126158D01*
X428000Y125395D01*
Y124605D01*
X428204Y123842D01*
X428599Y123158D01*
X429158Y122599D01*
X429842Y122204D01*
X430605Y122000D01*
X431395D01*
X432158Y122204D01*
X432842Y122599D01*
X433401Y123158D01*
X433796Y123842D01*
X433833Y123980D01*
X445167D01*
X445204Y123842D01*
X445599Y123158D01*
X446158Y122599D01*
X446842Y122204D01*
X447605Y122000D01*
X448395D01*
X449158Y122204D01*
X449842Y122599D01*
X450401Y123158D01*
X450796Y123842D01*
X451000Y124605D01*
Y125395D01*
X450796Y126158D01*
X450401Y126842D01*
X449842Y127401D01*
X449158Y127796D01*
X448395Y128000D01*
D02*
G37*
%LPD*%
G36*
X118980Y249169D02*
X118480Y248961D01*
X117721Y249721D01*
X117390Y249942D01*
X117000Y250020D01*
X90833D01*
X90796Y250158D01*
X90401Y250842D01*
X89842Y251401D01*
X89158Y251796D01*
X88468Y251980D01*
X88534Y252480D01*
X118980D01*
Y249169D01*
D02*
G37*
D11*
X286000Y74000D02*
Y78414D01*
Y69586D02*
Y74000D01*
X139500Y181000D02*
X139735Y180765D01*
X161765D02*
X162000Y181000D01*
X139735Y180765D02*
X161765D01*
X111000Y181000D02*
X139500D01*
X91000Y105586D02*
X91586Y105000D01*
X91000Y105586D02*
Y144414D01*
X91586Y105000D02*
X183000D01*
X184000D01*
X224000D01*
X87047Y93953D02*
X121637D01*
X86000Y95000D02*
Y164414D01*
Y95000D02*
X87047Y93953D01*
X88000Y98586D02*
X88586Y98000D01*
X229000D01*
X231000Y100000D01*
X88000Y98586D02*
Y154414D01*
X123590Y92000D02*
X212000D01*
X121637Y93953D02*
X123590Y92000D01*
X88000Y154414D02*
X88586Y155000D01*
X100414D01*
X86000Y164414D02*
X86586Y165000D01*
X218586Y118000D02*
X230414D01*
X231000Y117414D01*
Y100000D02*
Y117414D01*
X218000D02*
X218586Y118000D01*
X218000Y110000D02*
Y117414D01*
X100649Y155235D02*
X102235D01*
X100414Y155000D02*
X100649Y155235D01*
X102235D02*
X103000Y156000D01*
X100414Y145000D02*
X100649Y145235D01*
X91586Y145000D02*
X100414D01*
X91000Y144414D02*
X91586Y145000D01*
X102235Y145235D02*
X103000Y146000D01*
X100649Y145235D02*
X102235D01*
X86586Y165000D02*
X103000D01*
X121586Y174000D02*
X146000D01*
X110000Y141000D02*
X120414D01*
X121000Y141586D02*
Y173414D01*
X120414Y141000D02*
X121000Y141586D01*
Y173414D02*
X121586Y174000D01*
X146000Y173000D02*
X164918D01*
X79000Y179000D02*
Y196000D01*
X81000Y198000D02*
X174000D01*
X79000Y196000D02*
X81000Y198000D01*
X137000Y252586D02*
X176414D01*
X130629Y258957D02*
X137000Y252586D01*
X176414D02*
X177000Y252000D01*
Y228000D02*
Y252000D01*
X194000Y234000D02*
Y278000D01*
X179000Y293000D02*
X194000Y278000D01*
X210000Y217000D02*
Y228000D01*
X182000Y106000D02*
Y260000D01*
Y106000D02*
X183000Y105000D01*
X184000Y110586D02*
Y271414D01*
X183765Y271649D02*
X184000Y271414D01*
X183765Y271649D02*
Y273235D01*
X183000Y274000D02*
X183765Y273235D01*
X184000Y110586D02*
X184586Y110000D01*
X218000D01*
X182000Y260000D02*
X182500Y260500D01*
Y263500D01*
X88000Y258957D02*
X130629D01*
X122000Y217000D02*
X172000D01*
X119500Y253500D02*
X120000Y253000D01*
X77000Y254000D02*
X77500Y253500D01*
X119500D01*
X68000Y236000D02*
X82000D01*
X67000Y237000D02*
Y291414D01*
Y237000D02*
X68000Y236000D01*
X67586Y292000D02*
X128000D01*
X67000Y291414D02*
X67586Y292000D01*
X120586Y216414D02*
X121414D01*
X120000Y217000D02*
X120586Y216414D01*
X120000Y217000D02*
Y253000D01*
X121414Y216414D02*
X122000Y217000D01*
X168000Y284000D02*
X176414D01*
X177000Y264586D02*
Y283414D01*
Y264586D02*
X177586Y264000D01*
X182000D01*
X176414Y284000D02*
X177000Y283414D01*
X182000Y264000D02*
X182500Y263500D01*
X118000Y212586D02*
Y248000D01*
X118586Y212000D02*
X162108D01*
X118000Y212586D02*
X118586Y212000D01*
X143000Y229000D02*
X143765Y229765D01*
X145351D01*
X145586Y230000D01*
X163000D01*
X109000Y130000D02*
X140414D01*
X156000Y120586D02*
Y163000D01*
X104000Y120000D02*
X155414D01*
X156000Y120586D01*
X142000Y167000D02*
X142765Y167765D01*
X140414Y130000D02*
X141000Y130586D01*
Y168000D01*
X88000Y249000D02*
X117000D01*
X118000Y248000D01*
X256350Y334350D02*
X257000Y335000D01*
X245000Y334350D02*
X256350D01*
X320414Y69000D02*
X321000Y69586D01*
Y104000D01*
X286586Y69000D02*
X320414D01*
X265000Y79000D02*
X285414D01*
X286000Y69586D02*
X286586Y69000D01*
X285414Y79000D02*
X286000Y78414D01*
X299235Y94235D02*
X300000Y95000D01*
X297414Y94000D02*
X297649Y94235D01*
X267000Y94000D02*
X297414D01*
X265000Y96000D02*
X267000Y94000D01*
X297649Y94235D02*
X299235D01*
X265000Y96000D02*
Y104000D01*
X266000Y88000D02*
X297918D01*
X298918Y87000D02*
X300000D01*
X297918Y88000D02*
X298918Y87000D01*
X291000Y100000D02*
X292000Y101000D01*
X279976Y100000D02*
X291000D01*
X292000Y101000D02*
Y110414D01*
X292586Y111000D02*
X300000D01*
X292000Y110414D02*
X292586Y111000D01*
X280000Y110000D02*
X286000D01*
X287000Y111000D02*
Y117000D01*
X286000Y110000D02*
X287000Y111000D01*
X311414Y118000D02*
X312000Y117414D01*
Y78586D02*
Y117414D01*
X288000Y118000D02*
X311414D01*
X287000Y117000D02*
X288000Y118000D01*
X300000Y78000D02*
X311414D01*
X312000Y78586D01*
X348000Y110000D02*
Y120414D01*
X347414Y121000D02*
X348000Y120414D01*
X280000Y121000D02*
X347414D01*
X280765Y109235D02*
X282351D01*
X280000Y110000D02*
X280765Y109235D01*
X344000Y310000D02*
X350630D01*
X343000Y309000D02*
X344000Y310000D01*
X343000Y153586D02*
Y309000D01*
Y153586D02*
X345000Y151586D01*
Y151000D02*
Y151586D01*
X219086Y323086D02*
X219914D01*
X220000Y323000D01*
X219000D02*
X219086Y323086D01*
X203000Y323000D02*
X219000D01*
X143000Y223000D02*
X162000D01*
X339000Y325586D02*
Y329414D01*
X339586Y330000D02*
X350630D01*
X339000Y329414D02*
X339586Y330000D01*
X257586Y325000D02*
X338414D01*
X339000Y325586D01*
X257000D02*
X257586Y325000D01*
X257000Y325586D02*
Y335000D01*
X462000Y125000D02*
X511000D01*
X457000Y130000D02*
X462000Y125000D01*
X413086Y139000D02*
X456414D01*
X457000Y138414D01*
Y130000D02*
Y138414D01*
X412500Y139586D02*
X413086Y139000D01*
X412500Y139586D02*
Y246914D01*
X411414Y248000D02*
X412500Y246914D01*
X356586Y248000D02*
X411414D01*
X354586Y246000D02*
X411000D01*
X351216Y243000D02*
X409000D01*
X350630Y243586D02*
X351216Y243000D01*
X409000Y111000D02*
Y243000D01*
X411000Y115586D02*
Y246000D01*
X409000Y111000D02*
X460000D01*
X411000Y115586D02*
X411586Y115000D01*
X460000Y111000D02*
X466000Y105000D01*
X356000Y248586D02*
Y287414D01*
Y248586D02*
X356586Y248000D01*
X356000Y287414D02*
X356586Y288000D01*
X357000D01*
X354000Y246586D02*
X354586Y246000D01*
X354000Y246586D02*
Y289000D01*
X350630Y243586D02*
Y300000D01*
X357000Y288000D02*
X364000Y295000D01*
Y359414D01*
X344586Y360000D02*
X363414D01*
X364000Y359414D01*
X344000Y340586D02*
Y359414D01*
X344586Y360000D01*
X344000Y340586D02*
X344586Y340000D01*
X350630D01*
X362000Y297000D02*
Y349414D01*
X354000Y289000D02*
X362000Y297000D01*
X411586Y115000D02*
X510414D01*
X361414Y350000D02*
X362000Y349414D01*
X350630Y350000D02*
X361414D01*
X510414Y115000D02*
X511000Y114414D01*
Y110000D02*
Y114414D01*
Y100000D02*
Y104414D01*
X466000Y105000D02*
X510414D01*
X511000Y104414D01*
X465000Y85586D02*
Y101414D01*
X452000Y102000D02*
X464414D01*
X465000Y101414D01*
X464414Y85000D02*
X465000Y85586D01*
X432000Y85000D02*
X464414D01*
X459000Y211000D02*
Y255000D01*
X466000Y205000D02*
Y243918D01*
X431000Y125000D02*
X448000D01*
X474000Y50000D02*
X539414D01*
X540000Y50586D01*
X465000Y244918D02*
X466000Y243918D01*
X465000Y244918D02*
Y246000D01*
X540000Y50586D02*
Y220000D01*
X420630Y330000D02*
X429000D01*
X431000Y332000D01*
Y355000D01*
X432000Y356000D01*
X500000Y332586D02*
Y355414D01*
X499414Y356000D02*
X500000Y355414D01*
X432000Y356000D02*
X499414D01*
X500000Y332586D02*
X500586Y332000D01*
X551000D01*
X552000Y220586D02*
Y331000D01*
X551000Y332000D02*
X552000Y331000D01*
X540000Y220000D02*
X551414D01*
X552000Y220586D01*
X460000Y300000D02*
X494000D01*
X493000Y310000D02*
X493086Y309914D01*
X493914D01*
X494000Y310000D01*
X460000D02*
X493000D01*
X460000Y340000D02*
X491000D01*
X146000Y334350D02*
X153414D01*
X154000Y333765D01*
X136000Y334350D02*
X146000D01*
X126000D02*
X136000D01*
X116000D02*
X126000D01*
X106000D02*
X116000D01*
X96000D02*
X106000D01*
X86000D02*
X96000D01*
X76000D02*
X86000D01*
X154000Y333765D02*
X154586Y334350D01*
X164000D01*
X154000Y322000D02*
Y333765D01*
X208000Y334350D02*
X220500D01*
X193000D02*
X208000D01*
X179000D02*
X193000D01*
X164000D02*
X179000D01*
X269000D02*
X280650D01*
X281000Y334000D01*
X164918Y173000D02*
X165918Y174000D01*
X167000D01*
X142765Y167765D02*
X145523D01*
X145586Y167828D02*
X148414D01*
X145523Y167765D02*
X145586Y167828D01*
X148414D02*
X148586Y168000D01*
X162000D01*
X79000Y160000D02*
Y179000D01*
X375295Y42850D02*
X376370Y41776D01*
Y41480D02*
Y41776D01*
Y41480D02*
X377850Y40000D01*
X375000Y42850D02*
X375295D01*
X377850Y40000D02*
X384000D01*
X369000Y42850D02*
X375000D01*
Y49150D02*
X378914D01*
X369000D02*
X375000D01*
X383235Y49235D02*
X384000Y50000D01*
X378999Y49235D02*
X383235D01*
X378914Y49150D02*
X378999Y49235D01*
X220000Y181150D02*
X220150Y181000D01*
X229150Y172000D02*
Y179850D01*
X220150Y181000D02*
X228000D01*
X211586D02*
X220150D01*
X211000Y166150D02*
Y180414D01*
X210850Y166000D02*
X211000Y166150D01*
Y180414D02*
X211586Y181000D01*
X228000D02*
X229150Y179850D01*
Y166000D02*
Y172000D01*
Y160000D02*
Y166000D01*
X220000Y181150D02*
Y192000D01*
X215000Y158000D02*
X217150Y160150D01*
Y166000D01*
X213000Y158000D02*
X215000D01*
X217150Y166000D02*
X222850D01*
X217150Y172000D02*
X222850D01*
X217150Y166000D02*
Y172000D01*
X222850Y160000D02*
Y166000D01*
X269000Y340650D02*
Y348000D01*
X245000Y340650D02*
Y349000D01*
X193000Y340650D02*
Y348000D01*
X220500Y340650D02*
Y347500D01*
X208000Y340650D02*
Y348000D01*
X179000Y340650D02*
Y348000D01*
X164000Y340650D02*
Y348000D01*
X146000Y340650D02*
Y348000D01*
X136000Y340650D02*
Y348000D01*
X126000Y340650D02*
Y348000D01*
X116000Y340650D02*
Y348000D01*
X106000Y340650D02*
Y348000D01*
X96000Y340650D02*
Y348000D01*
X86000Y340650D02*
Y348000D01*
X76000Y340650D02*
Y348000D01*
D15*
X375000Y42850D02*
D03*
Y49150D02*
D03*
X369000Y42850D02*
D03*
Y49150D02*
D03*
X245000Y334350D02*
D03*
Y340650D02*
D03*
X269000Y334350D02*
D03*
Y340650D02*
D03*
X220500Y334350D02*
D03*
Y340650D02*
D03*
X208000Y334350D02*
D03*
Y340650D02*
D03*
X193000Y334350D02*
D03*
Y340650D02*
D03*
X164000Y334350D02*
D03*
Y340650D02*
D03*
X179000Y334350D02*
D03*
Y340650D02*
D03*
X86000Y334350D02*
D03*
Y340650D02*
D03*
X96000Y334350D02*
D03*
Y340650D02*
D03*
X76000Y334350D02*
D03*
Y340650D02*
D03*
X126000Y334350D02*
D03*
Y340650D02*
D03*
X106000Y334350D02*
D03*
Y340650D02*
D03*
X116000Y334350D02*
D03*
Y340650D02*
D03*
X136000Y334350D02*
D03*
Y340650D02*
D03*
X146000Y334350D02*
D03*
Y340650D02*
D03*
D19*
X217150Y172000D02*
D03*
X210850D02*
D03*
X222850D02*
D03*
X229150D02*
D03*
X217150Y166000D02*
D03*
X210850D02*
D03*
X222850D02*
D03*
X229150D02*
D03*
X222850Y160000D02*
D03*
X229150D02*
D03*
D40*
X384000Y210000D02*
D03*
D41*
Y200000D02*
D03*
Y190000D02*
D03*
Y180000D02*
D03*
Y170000D02*
D03*
Y160000D02*
D03*
Y150000D02*
D03*
Y140000D02*
D03*
Y130000D02*
D03*
Y120000D02*
D03*
Y110000D02*
D03*
Y100000D02*
D03*
Y90000D02*
D03*
Y80000D02*
D03*
Y70000D02*
D03*
Y60000D02*
D03*
Y50000D02*
D03*
Y40000D02*
D03*
X474000Y210000D02*
D03*
Y200000D02*
D03*
Y190000D02*
D03*
Y180000D02*
D03*
Y170000D02*
D03*
Y160000D02*
D03*
Y150000D02*
D03*
Y140000D02*
D03*
Y130000D02*
D03*
Y120000D02*
D03*
Y110000D02*
D03*
Y100000D02*
D03*
Y90000D02*
D03*
Y80000D02*
D03*
Y70000D02*
D03*
Y60000D02*
D03*
Y50000D02*
D03*
Y40000D02*
D03*
D42*
X30000Y120000D02*
D03*
Y130000D02*
D03*
Y140000D02*
D03*
Y150000D02*
D03*
Y160000D02*
D03*
Y170000D02*
D03*
Y180000D02*
D03*
X20000Y120000D02*
D03*
Y130000D02*
D03*
Y140000D02*
D03*
Y150000D02*
D03*
Y160000D02*
D03*
Y170000D02*
D03*
X30000Y190000D02*
D03*
X20000Y180000D02*
D03*
X390000Y300000D02*
D03*
Y310000D02*
D03*
Y320000D02*
D03*
Y330000D02*
D03*
Y340000D02*
D03*
Y350000D02*
D03*
X350630Y300000D02*
D03*
Y310000D02*
D03*
Y320000D02*
D03*
Y330000D02*
D03*
Y340000D02*
D03*
X460000Y300000D02*
D03*
Y310000D02*
D03*
Y320000D02*
D03*
Y330000D02*
D03*
Y340000D02*
D03*
Y350000D02*
D03*
X420630Y300000D02*
D03*
Y310000D02*
D03*
Y320000D02*
D03*
Y330000D02*
D03*
Y340000D02*
D03*
D43*
X20000Y190000D02*
D03*
X350630Y350000D02*
D03*
X420630D02*
D03*
D44*
X110000Y90000D02*
D03*
D45*
X120000D02*
D03*
X110000Y80000D02*
D03*
X120000D02*
D03*
X110000Y70000D02*
D03*
X120000D02*
D03*
D46*
X257000Y335000D02*
D03*
X59000Y85000D02*
D03*
X165000Y80000D02*
D03*
X59000Y65000D02*
D03*
X260000Y205000D02*
D03*
X304000Y190000D02*
D03*
Y172000D02*
D03*
Y154000D02*
D03*
Y136000D02*
D03*
X130000Y166000D02*
D03*
Y148000D02*
D03*
X164000Y260000D02*
D03*
Y240000D02*
D03*
X295000D02*
D03*
X315000Y230000D02*
D03*
X295000Y260000D02*
D03*
X315000Y250000D02*
D03*
X295000Y280000D02*
D03*
X315000Y270000D02*
D03*
D47*
X540000Y220000D02*
D03*
D48*
X530000D02*
D03*
X540000Y230000D02*
D03*
X530000D02*
D03*
X540000Y240000D02*
D03*
X530000D02*
D03*
X540000Y250000D02*
D03*
X530000D02*
D03*
X540000Y260000D02*
D03*
X530000D02*
D03*
X540000Y270000D02*
D03*
X530000D02*
D03*
X540000Y280000D02*
D03*
X530000D02*
D03*
X540000Y290000D02*
D03*
X530000D02*
D03*
D49*
X540000Y380000D02*
D03*
Y20000D02*
D03*
X20000Y380000D02*
D03*
Y20000D02*
D03*
D50*
X287000Y35000D02*
D03*
X286000Y74000D02*
D03*
X111000Y181000D02*
D03*
X212000Y92000D02*
D03*
X103000Y146000D02*
D03*
Y156000D02*
D03*
Y165000D02*
D03*
X110000Y141000D02*
D03*
X174000Y198000D02*
D03*
X177000Y228000D02*
D03*
X194000Y234000D02*
D03*
X210000Y228000D02*
D03*
Y217000D02*
D03*
X88000Y258957D02*
D03*
X172000Y217000D02*
D03*
X77000Y254000D02*
D03*
X82000Y236000D02*
D03*
X128000Y292000D02*
D03*
X163000Y230000D02*
D03*
X143000D02*
D03*
X109000Y130000D02*
D03*
X156000Y163000D02*
D03*
X104000Y120000D02*
D03*
X88000Y249000D02*
D03*
X163000Y212000D02*
D03*
X321000Y104000D02*
D03*
X300000Y78000D02*
D03*
Y95000D02*
D03*
Y111000D02*
D03*
X265000Y79000D02*
D03*
Y88000D02*
D03*
X280000Y100000D02*
D03*
Y110000D02*
D03*
X265000Y104000D02*
D03*
X345000Y151000D02*
D03*
X300000Y87000D02*
D03*
X280000Y121000D02*
D03*
X348000Y110000D02*
D03*
X179000Y293000D02*
D03*
X168000Y284000D02*
D03*
X224000Y105000D02*
D03*
X218000Y110000D02*
D03*
X183000Y274000D02*
D03*
X220000Y323000D02*
D03*
X203000D02*
D03*
X163000Y222000D02*
D03*
X139500Y181000D02*
D03*
X143000Y222000D02*
D03*
X515000Y161000D02*
D03*
X511000Y125000D02*
D03*
Y110000D02*
D03*
X452000Y102000D02*
D03*
X459000Y211000D02*
D03*
X466000Y205000D02*
D03*
X448000Y125000D02*
D03*
X511000Y100000D02*
D03*
X432000Y85000D02*
D03*
X431000Y125000D02*
D03*
X465000Y246000D02*
D03*
X459000Y255000D02*
D03*
X494000Y300000D02*
D03*
Y310000D02*
D03*
X491000Y340000D02*
D03*
X225000Y266000D02*
D03*
Y256000D02*
D03*
X154000Y322000D02*
D03*
X269000Y320000D02*
D03*
X281000Y334000D02*
D03*
X233000Y335000D02*
D03*
X146000Y174000D02*
D03*
X141000Y168000D02*
D03*
X162000Y181000D02*
D03*
X167000Y174000D02*
D03*
X162000Y168000D02*
D03*
X79000Y160000D02*
D03*
Y179000D02*
D03*
X107000Y229000D02*
D03*
X143000Y261000D02*
D03*
X138000Y273000D02*
D03*
X95000Y270000D02*
D03*
X252000Y148000D02*
D03*
X220000Y192000D02*
D03*
X213000Y158000D02*
D03*
X269000Y348000D02*
D03*
X245000D02*
D03*
X193000D02*
D03*
X220500D02*
D03*
X208000D02*
D03*
X179000D02*
D03*
X164000D02*
D03*
X146000D02*
D03*
X136000D02*
D03*
X126000D02*
D03*
X116000D02*
D03*
X106000D02*
D03*
X96000D02*
D03*
X86000D02*
D03*
X76000D02*
D03*
M02*
