G04*
G04 #@! TF.GenerationSoftware,Altium Limited,Altium Designer,22.3.1 (43)*
G04*
G04 Layer_Color=16711935*
%FSLAX25Y25*%
%MOIN*%
G70*
G04*
G04 #@! TF.SameCoordinates,C488EDB3-D5C6-4A86-98F8-C412E4F75817*
G04*
G04*
G04 #@! TF.FilePolarity,Negative*
G04*
G01*
G75*
%ADD22R,0.04540X0.03950*%
%ADD26R,0.03950X0.04540*%
%ADD29R,0.10800X0.06800*%
%ADD30O,0.10800X0.06800*%
%ADD31C,0.06800*%
%ADD32R,0.06800X0.06800*%
%ADD33R,0.06706X0.06706*%
%ADD34C,0.06706*%
%ADD35R,0.06706X0.06706*%
%ADD36R,0.07887X0.07887*%
%ADD37C,0.07887*%
%ADD38C,0.20800*%
%ADD39C,0.05800*%
D22*
X375000Y42850D02*
D03*
Y49150D02*
D03*
X369000Y42850D02*
D03*
Y49150D02*
D03*
X245000Y334350D02*
D03*
Y340650D02*
D03*
X269000Y334350D02*
D03*
Y340650D02*
D03*
X220500Y334350D02*
D03*
Y340650D02*
D03*
X208000Y334350D02*
D03*
Y340650D02*
D03*
X193000Y334350D02*
D03*
Y340650D02*
D03*
X164000Y334350D02*
D03*
Y340650D02*
D03*
X179000Y334350D02*
D03*
Y340650D02*
D03*
X86000Y334350D02*
D03*
Y340650D02*
D03*
X96000Y334350D02*
D03*
Y340650D02*
D03*
X76000Y334350D02*
D03*
Y340650D02*
D03*
X126000Y334350D02*
D03*
Y340650D02*
D03*
X106000Y334350D02*
D03*
Y340650D02*
D03*
X116000Y334350D02*
D03*
Y340650D02*
D03*
X136000Y334350D02*
D03*
Y340650D02*
D03*
X146000Y334350D02*
D03*
Y340650D02*
D03*
D26*
X217150Y172000D02*
D03*
X210850D02*
D03*
X222850D02*
D03*
X229150D02*
D03*
X217150Y166000D02*
D03*
X210850D02*
D03*
X222850D02*
D03*
X229150D02*
D03*
X222850Y160000D02*
D03*
X229150D02*
D03*
D29*
X384000Y210000D02*
D03*
D30*
Y200000D02*
D03*
Y190000D02*
D03*
Y180000D02*
D03*
Y170000D02*
D03*
Y160000D02*
D03*
Y150000D02*
D03*
Y140000D02*
D03*
Y130000D02*
D03*
Y120000D02*
D03*
Y110000D02*
D03*
Y100000D02*
D03*
Y90000D02*
D03*
Y80000D02*
D03*
Y70000D02*
D03*
Y60000D02*
D03*
Y50000D02*
D03*
Y40000D02*
D03*
X474000Y210000D02*
D03*
Y200000D02*
D03*
Y190000D02*
D03*
Y180000D02*
D03*
Y170000D02*
D03*
Y160000D02*
D03*
Y150000D02*
D03*
Y140000D02*
D03*
Y130000D02*
D03*
Y120000D02*
D03*
Y110000D02*
D03*
Y100000D02*
D03*
Y90000D02*
D03*
Y80000D02*
D03*
Y70000D02*
D03*
Y60000D02*
D03*
Y50000D02*
D03*
Y40000D02*
D03*
D31*
X30000Y120000D02*
D03*
Y130000D02*
D03*
Y140000D02*
D03*
Y150000D02*
D03*
Y160000D02*
D03*
Y170000D02*
D03*
Y180000D02*
D03*
X20000Y120000D02*
D03*
Y130000D02*
D03*
Y140000D02*
D03*
Y150000D02*
D03*
Y160000D02*
D03*
Y170000D02*
D03*
X30000Y190000D02*
D03*
X20000Y180000D02*
D03*
X390000Y300000D02*
D03*
Y310000D02*
D03*
Y320000D02*
D03*
Y330000D02*
D03*
Y340000D02*
D03*
Y350000D02*
D03*
X350630Y300000D02*
D03*
Y310000D02*
D03*
Y320000D02*
D03*
Y330000D02*
D03*
Y340000D02*
D03*
X460000Y300000D02*
D03*
Y310000D02*
D03*
Y320000D02*
D03*
Y330000D02*
D03*
Y340000D02*
D03*
Y350000D02*
D03*
X420630Y300000D02*
D03*
Y310000D02*
D03*
Y320000D02*
D03*
Y330000D02*
D03*
Y340000D02*
D03*
D32*
X20000Y190000D02*
D03*
X350630Y350000D02*
D03*
X420630D02*
D03*
D33*
X110000Y90000D02*
D03*
D34*
X120000D02*
D03*
X110000Y80000D02*
D03*
X120000D02*
D03*
X110000Y70000D02*
D03*
X120000D02*
D03*
D35*
X257000Y335000D02*
D03*
X59000Y85000D02*
D03*
X165000Y80000D02*
D03*
X59000Y65000D02*
D03*
X260000Y205000D02*
D03*
X304000Y190000D02*
D03*
Y172000D02*
D03*
Y154000D02*
D03*
Y136000D02*
D03*
X130000Y166000D02*
D03*
Y148000D02*
D03*
X164000Y260000D02*
D03*
Y240000D02*
D03*
X295000D02*
D03*
X315000Y230000D02*
D03*
X295000Y260000D02*
D03*
X315000Y250000D02*
D03*
X295000Y280000D02*
D03*
X315000Y270000D02*
D03*
D36*
X540000Y220000D02*
D03*
D37*
X530000D02*
D03*
X540000Y230000D02*
D03*
X530000D02*
D03*
X540000Y240000D02*
D03*
X530000D02*
D03*
X540000Y250000D02*
D03*
X530000D02*
D03*
X540000Y260000D02*
D03*
X530000D02*
D03*
X540000Y270000D02*
D03*
X530000D02*
D03*
X540000Y280000D02*
D03*
X530000D02*
D03*
X540000Y290000D02*
D03*
X530000D02*
D03*
D38*
X540000Y380000D02*
D03*
Y20000D02*
D03*
X20000Y380000D02*
D03*
Y20000D02*
D03*
D39*
X287000Y35000D02*
D03*
X286000Y74000D02*
D03*
X111000Y181000D02*
D03*
X212000Y92000D02*
D03*
X103000Y146000D02*
D03*
Y156000D02*
D03*
Y165000D02*
D03*
X110000Y141000D02*
D03*
X174000Y198000D02*
D03*
X177000Y228000D02*
D03*
X194000Y234000D02*
D03*
X210000Y228000D02*
D03*
Y217000D02*
D03*
X88000Y258957D02*
D03*
X172000Y217000D02*
D03*
X77000Y254000D02*
D03*
X82000Y236000D02*
D03*
X128000Y292000D02*
D03*
X163000Y230000D02*
D03*
X143000D02*
D03*
X109000Y130000D02*
D03*
X156000Y163000D02*
D03*
X104000Y120000D02*
D03*
X88000Y249000D02*
D03*
X163000Y212000D02*
D03*
X321000Y104000D02*
D03*
X300000Y78000D02*
D03*
Y95000D02*
D03*
Y111000D02*
D03*
X265000Y79000D02*
D03*
Y88000D02*
D03*
X280000Y100000D02*
D03*
Y110000D02*
D03*
X265000Y104000D02*
D03*
X345000Y151000D02*
D03*
X300000Y87000D02*
D03*
X280000Y121000D02*
D03*
X348000Y110000D02*
D03*
X179000Y293000D02*
D03*
X168000Y284000D02*
D03*
X224000Y105000D02*
D03*
X218000Y110000D02*
D03*
X183000Y274000D02*
D03*
X220000Y323000D02*
D03*
X203000D02*
D03*
X163000Y222000D02*
D03*
X139500Y181000D02*
D03*
X143000Y222000D02*
D03*
X515000Y161000D02*
D03*
X511000Y125000D02*
D03*
Y110000D02*
D03*
X452000Y102000D02*
D03*
X459000Y211000D02*
D03*
X466000Y205000D02*
D03*
X448000Y125000D02*
D03*
X511000Y100000D02*
D03*
X432000Y85000D02*
D03*
X431000Y125000D02*
D03*
X465000Y246000D02*
D03*
X459000Y255000D02*
D03*
X494000Y300000D02*
D03*
Y310000D02*
D03*
X491000Y340000D02*
D03*
X225000Y266000D02*
D03*
Y256000D02*
D03*
X154000Y322000D02*
D03*
X269000Y320000D02*
D03*
X281000Y334000D02*
D03*
X233000Y335000D02*
D03*
X146000Y174000D02*
D03*
X141000Y168000D02*
D03*
X162000Y181000D02*
D03*
X167000Y174000D02*
D03*
X162000Y168000D02*
D03*
X79000Y160000D02*
D03*
Y179000D02*
D03*
X107000Y229000D02*
D03*
X143000Y261000D02*
D03*
X138000Y273000D02*
D03*
X95000Y270000D02*
D03*
X252000Y148000D02*
D03*
X220000Y192000D02*
D03*
X213000Y158000D02*
D03*
X269000Y348000D02*
D03*
X245000D02*
D03*
X193000D02*
D03*
X220500D02*
D03*
X208000D02*
D03*
X179000D02*
D03*
X164000D02*
D03*
X146000D02*
D03*
X136000D02*
D03*
X126000D02*
D03*
X116000D02*
D03*
X106000D02*
D03*
X96000D02*
D03*
X86000D02*
D03*
X76000D02*
D03*
M02*
