G04*
G04 #@! TF.GenerationSoftware,Altium Limited,Altium Designer,22.3.1 (43)*
G04*
G04 Layer_Color=65535*
%FSLAX25Y25*%
%MOIN*%
G70*
G04*
G04 #@! TF.SameCoordinates,C488EDB3-D5C6-4A86-98F8-C412E4F75817*
G04*
G04*
G04 #@! TF.FilePolarity,Positive*
G04*
G01*
G75*
%ADD10C,0.01575*%
%ADD11C,0.01000*%
%ADD12C,0.00500*%
%ADD13C,0.00787*%
%ADD14C,0.00800*%
D10*
X202776Y179748D02*
G03*
X202776Y179748I-787J0D01*
G01*
D11*
X231000Y348000D02*
X281000D01*
X231000Y358000D02*
X281000D01*
Y348000D02*
Y358000D01*
X231000Y348000D02*
Y358000D01*
Y359500D02*
X281000D01*
X231000Y369500D02*
X281000D01*
Y359500D02*
Y369500D01*
X231000Y359500D02*
Y369500D01*
X71750Y359500D02*
X229250D01*
X71750Y369500D02*
X229250D01*
Y359500D02*
Y369500D01*
X71750Y359500D02*
Y369500D01*
X154200Y348000D02*
X229200D01*
X154200Y358000D02*
X229200D01*
Y348000D02*
Y358000D01*
X154200Y348000D02*
Y358000D01*
X71700Y348000D02*
X152700D01*
X71700Y358000D02*
X152700D01*
Y348000D02*
Y358000D01*
X71700Y348000D02*
Y358000D01*
X522000Y133150D02*
Y149150D01*
X529500D01*
Y133150D02*
Y149150D01*
X522000Y133150D02*
X529500D01*
X523500Y134650D02*
X528000D01*
X160000Y329500D02*
Y345500D01*
X167500D01*
Y329500D02*
Y345500D01*
X160000Y329500D02*
X167500D01*
X161500Y331000D02*
X166000D01*
X175000Y329500D02*
Y345500D01*
X182500D01*
Y329500D02*
Y345500D01*
X175000Y329500D02*
X182500D01*
X176500Y331000D02*
X181000D01*
X189000Y329500D02*
Y345500D01*
X196500D01*
Y329500D02*
Y345500D01*
X189000Y329500D02*
X196500D01*
X190500Y331000D02*
X195000D01*
X265000Y329500D02*
Y345500D01*
X272500D01*
Y329500D02*
Y345500D01*
X265000Y329500D02*
X272500D01*
X266500Y331000D02*
X271000D01*
X241000Y329500D02*
Y345500D01*
X248500D01*
Y329500D02*
Y345500D01*
X241000Y329500D02*
X248500D01*
X242500Y331000D02*
X247000D01*
X142000Y329500D02*
Y345500D01*
X149500D01*
Y329500D02*
Y345500D01*
X142000Y329500D02*
X149500D01*
X143500Y331000D02*
X148000D01*
X132000Y329500D02*
Y345500D01*
X139500D01*
Y329500D02*
Y345500D01*
X132000Y329500D02*
X139500D01*
X133500Y331000D02*
X138000D01*
X122000Y329500D02*
Y345500D01*
X129500D01*
Y329500D02*
Y345500D01*
X122000Y329500D02*
X129500D01*
X123500Y331000D02*
X128000D01*
X112000Y329500D02*
Y345500D01*
X119500D01*
Y329500D02*
Y345500D01*
X112000Y329500D02*
X119500D01*
X113500Y331000D02*
X118000D01*
X102000Y329500D02*
Y345500D01*
X109500D01*
Y329500D02*
Y345500D01*
X102000Y329500D02*
X109500D01*
X103500Y331000D02*
X108000D01*
X92000Y329500D02*
Y345500D01*
X99500D01*
Y329500D02*
Y345500D01*
X92000Y329500D02*
X99500D01*
X93500Y331000D02*
X98000D01*
X82000Y329500D02*
Y345500D01*
X89500D01*
Y329500D02*
Y345500D01*
X82000Y329500D02*
X89500D01*
X83500Y331000D02*
X88000D01*
X72000Y329500D02*
Y345500D01*
X79500D01*
Y329500D02*
Y345500D01*
X72000Y329500D02*
X79500D01*
X73500Y331000D02*
X78000D01*
X204000Y329500D02*
Y345500D01*
X211500D01*
Y329500D02*
Y345500D01*
X204000Y329500D02*
X211500D01*
X205500Y331000D02*
X210000D01*
X216500Y329500D02*
Y345500D01*
X224000D01*
Y329500D02*
Y345500D01*
X216500Y329500D02*
X224000D01*
X218000Y331000D02*
X222500D01*
X444000Y35000D02*
X465000D01*
X392500Y215000D02*
X409000D01*
X449000D02*
X465500D01*
Y35000D02*
Y215000D01*
X392500Y35000D02*
Y215000D01*
X414000Y220000D02*
X444000D01*
X409000Y215000D02*
X414000Y220000D01*
X444000D02*
X449000Y215000D01*
X415000Y35000D02*
X420000Y40000D01*
X439000D01*
X444000Y35000D01*
X393000D02*
X415000D01*
X11000Y165000D02*
Y169000D01*
X7000D02*
X11000D01*
X7000Y210000D02*
X43000D01*
Y100000D02*
Y210000D01*
X7000Y100000D02*
X43000D01*
X7000D02*
Y145000D01*
Y169000D02*
Y210000D01*
Y145000D02*
X11000D01*
Y165000D01*
X262000Y330000D02*
Y340000D01*
X252000Y330000D02*
X262000D01*
X252000D02*
Y340000D01*
X262000D01*
X260000Y330000D02*
X262000D01*
X64000Y80000D02*
Y90000D01*
X54000Y80000D02*
X64000D01*
X54000D02*
Y90000D01*
X64000D01*
X62000Y80000D02*
X64000D01*
X170000Y75000D02*
Y85000D01*
X160000Y75000D02*
X170000D01*
X160000D02*
Y85000D01*
X170000D01*
X168000Y75000D02*
X170000D01*
X64000Y60000D02*
Y70000D01*
X54000Y60000D02*
X64000D01*
X54000D02*
Y70000D01*
X64000D01*
X62000Y60000D02*
X64000D01*
X265000Y200000D02*
Y210000D01*
X255000Y200000D02*
X265000D01*
X255000D02*
Y210000D01*
X265000D01*
X263000Y200000D02*
X265000D01*
X309000Y185000D02*
Y195000D01*
X299000Y185000D02*
X309000D01*
X299000D02*
Y195000D01*
X309000D01*
X307000Y185000D02*
X309000D01*
Y167000D02*
Y177000D01*
X299000Y167000D02*
X309000D01*
X299000D02*
Y177000D01*
X309000D01*
X307000Y167000D02*
X309000D01*
Y149000D02*
Y159000D01*
X299000Y149000D02*
X309000D01*
X299000D02*
Y159000D01*
X309000D01*
X307000Y149000D02*
X309000D01*
Y131000D02*
Y141000D01*
X299000Y131000D02*
X309000D01*
X299000D02*
Y141000D01*
X309000D01*
X307000Y131000D02*
X309000D01*
X135000Y161000D02*
Y171000D01*
X125000Y161000D02*
X135000D01*
X125000D02*
Y171000D01*
X135000D01*
X133000Y161000D02*
X135000D01*
Y143000D02*
Y153000D01*
X125000Y143000D02*
X135000D01*
X125000D02*
Y153000D01*
X135000D01*
X133000Y143000D02*
X135000D01*
X169000Y255000D02*
Y265000D01*
X159000Y255000D02*
X169000D01*
X159000D02*
Y265000D01*
X169000D01*
X167000Y255000D02*
X169000D01*
Y235000D02*
Y245000D01*
X159000Y235000D02*
X169000D01*
X159000D02*
Y245000D01*
X169000D01*
X167000Y235000D02*
X169000D01*
X300000D02*
Y245000D01*
X290000Y235000D02*
X300000D01*
X290000D02*
Y245000D01*
X300000D01*
X298000Y235000D02*
X300000D01*
X320000Y225000D02*
Y235000D01*
X310000Y225000D02*
X320000D01*
X310000D02*
Y235000D01*
X320000D01*
X318000Y225000D02*
X320000D01*
X300000Y255000D02*
Y265000D01*
X290000Y255000D02*
X300000D01*
X290000D02*
Y265000D01*
X300000D01*
X298000Y255000D02*
X300000D01*
X320000Y245000D02*
Y255000D01*
X310000Y245000D02*
X320000D01*
X310000D02*
Y255000D01*
X320000D01*
X318000Y245000D02*
X320000D01*
X300000Y275000D02*
Y285000D01*
X290000Y275000D02*
X300000D01*
X290000D02*
Y285000D01*
X300000D01*
X298000Y275000D02*
X300000D01*
X320000Y265000D02*
Y275000D01*
X310000Y265000D02*
X320000D01*
X310000D02*
Y275000D01*
X320000D01*
X318000Y265000D02*
X320000D01*
X344130Y295000D02*
Y355000D01*
Y295000D02*
X397130D01*
Y355000D01*
X344130D02*
X397130D01*
X414130Y295000D02*
Y355000D01*
Y295000D02*
X467130D01*
Y355000D01*
X414130D02*
X467130D01*
X291000Y11000D02*
Y16998D01*
X293999D01*
X294999Y15998D01*
Y13999D01*
X293999Y12999D01*
X291000D01*
X296998Y11000D02*
X300997Y14999D01*
X302996Y11000D02*
Y16998D01*
X306995Y11000D01*
Y16998D01*
X314992D02*
Y11000D01*
X316992Y12999D01*
X318991Y11000D01*
Y16998D01*
X320990Y11000D02*
X322990D01*
X321990D01*
Y14999D01*
X320990D01*
X326988Y11000D02*
Y15998D01*
Y13999D01*
X325989D01*
X327988D01*
X326988D01*
Y15998D01*
X327988Y16998D01*
X330987Y11000D02*
X332986D01*
X331987D01*
Y14999D01*
X330987D01*
X335985Y13999D02*
X339984D01*
X347982Y15998D02*
X348981Y16998D01*
X350981D01*
X351980Y15998D01*
Y14999D01*
X350981Y13999D01*
X349981D01*
X350981D01*
X351980Y12999D01*
Y12000D01*
X350981Y11000D01*
X348981D01*
X347982Y12000D01*
X357978Y11000D02*
X353980D01*
X357978Y14999D01*
Y15998D01*
X356979Y16998D01*
X354979D01*
X353980Y15998D01*
X359978Y12000D02*
X360977Y11000D01*
X362977D01*
X363976Y12000D01*
Y15998D01*
X362977Y16998D01*
X360977D01*
X359978Y15998D01*
Y14999D01*
X360977Y13999D01*
X363976D01*
X369974Y16998D02*
X365976D01*
Y13999D01*
X367975Y14999D01*
X368975D01*
X369974Y13999D01*
Y12000D01*
X368975Y11000D01*
X366975D01*
X365976Y12000D01*
X371974Y15998D02*
X372973Y16998D01*
X374973D01*
X375973Y15998D01*
Y14999D01*
X374973Y13999D01*
X375973Y12999D01*
Y12000D01*
X374973Y11000D01*
X372973D01*
X371974Y12000D01*
Y12999D01*
X372973Y13999D01*
X371974Y14999D01*
Y15998D01*
X372973Y13999D02*
X374973D01*
X391000Y16998D02*
Y12999D01*
X392999Y11000D01*
X394999Y12999D01*
Y16998D01*
X399997Y11000D02*
X397998D01*
X396998Y12000D01*
Y13999D01*
X397998Y14999D01*
X399997D01*
X400997Y13999D01*
Y12999D01*
X396998D01*
X402996Y14999D02*
Y11000D01*
Y12999D01*
X403996Y13999D01*
X404995Y14999D01*
X405995D01*
X408994Y11000D02*
X411993D01*
X412993Y12000D01*
X411993Y12999D01*
X409994D01*
X408994Y13999D01*
X409994Y14999D01*
X412993D01*
X414992Y11000D02*
X416992D01*
X415992D01*
Y14999D01*
X414992D01*
X420990Y11000D02*
X422990D01*
X423989Y12000D01*
Y13999D01*
X422990Y14999D01*
X420990D01*
X419991Y13999D01*
Y12000D01*
X420990Y11000D01*
X425989D02*
Y14999D01*
X428988D01*
X429987Y13999D01*
Y11000D01*
X437985D02*
X439984D01*
X438984D01*
Y16998D01*
X437985Y15998D01*
X442983Y11000D02*
Y12000D01*
X443983D01*
Y11000D01*
X442983D01*
X447982D02*
X449981D01*
X448981D01*
Y16998D01*
X447982Y15998D01*
X141000Y382999D02*
Y386998D01*
X142999Y388997D01*
X144999Y386998D01*
Y382999D01*
Y385998D01*
X141000D01*
X146998Y388997D02*
Y382999D01*
X149997D01*
X150997Y383999D01*
Y384999D01*
X149997Y385998D01*
X146998D01*
X149997D01*
X150997Y386998D01*
Y387998D01*
X149997Y388997D01*
X146998D01*
X156995Y387998D02*
X155995Y388997D01*
X153996D01*
X152996Y387998D01*
Y386998D01*
X153996Y385998D01*
X155995D01*
X156995Y384999D01*
Y383999D01*
X155995Y382999D01*
X153996D01*
X152996Y383999D01*
X164992Y388997D02*
Y382999D01*
X167991D01*
X168991Y383999D01*
Y387998D01*
X167991Y388997D01*
X164992D01*
X171990Y386998D02*
X173989D01*
X174989Y385998D01*
Y382999D01*
X171990D01*
X170990Y383999D01*
X171990Y384999D01*
X174989D01*
X177988Y387998D02*
Y386998D01*
X176988D01*
X178988D01*
X177988D01*
Y383999D01*
X178988Y382999D01*
X182986Y386998D02*
X184986D01*
X185985Y385998D01*
Y382999D01*
X182986D01*
X181987Y383999D01*
X182986Y384999D01*
X185985D01*
X197982Y387998D02*
X196982Y388997D01*
X194983D01*
X193983Y387998D01*
Y386998D01*
X194983Y385998D01*
X196982D01*
X197982Y384999D01*
Y383999D01*
X196982Y382999D01*
X194983D01*
X193983Y383999D01*
X199981Y386998D02*
Y383999D01*
X200981Y382999D01*
X203980D01*
Y382000D01*
X202980Y381000D01*
X201980D01*
X203980Y382999D02*
Y386998D01*
X205979Y382999D02*
X208978D01*
X209978Y383999D01*
X208978Y384999D01*
X206979D01*
X205979Y385998D01*
X206979Y386998D01*
X209978D01*
X212977Y387998D02*
Y386998D01*
X211977D01*
X213976D01*
X212977D01*
Y383999D01*
X213976Y382999D01*
X219974D02*
X217975D01*
X216975Y383999D01*
Y385998D01*
X217975Y386998D01*
X219974D01*
X220974Y385998D01*
Y384999D01*
X216975D01*
X222973Y382999D02*
Y386998D01*
X223973D01*
X224973Y385998D01*
Y382999D01*
Y385998D01*
X225973Y386998D01*
X226972Y385998D01*
Y382999D01*
X228972D02*
X231971D01*
X232970Y383999D01*
X231971Y384999D01*
X229971D01*
X228972Y385998D01*
X229971Y386998D01*
X232970D01*
X235969Y382000D02*
X236969Y382999D01*
Y383999D01*
X235969D01*
Y382999D01*
X236969D01*
X235969Y382000D01*
X234970Y381000D01*
X246966Y388997D02*
X248965D01*
X247965D01*
Y382999D01*
X246966D01*
X248965D01*
X251964D02*
Y386998D01*
X254963D01*
X255963Y385998D01*
Y382999D01*
X261961Y386998D02*
X258962D01*
X257962Y385998D01*
Y383999D01*
X258962Y382999D01*
X261961D01*
X264960Y382000D02*
X265960Y382999D01*
Y383999D01*
X264960D01*
Y382999D01*
X265960D01*
X264960Y382000D01*
X263960Y381000D01*
X277956Y382999D02*
X275956Y384999D01*
Y386998D01*
X277956Y388997D01*
X284953Y386998D02*
X281954D01*
X280955Y385998D01*
Y383999D01*
X281954Y382999D01*
X284953D01*
X286953D02*
X288952Y384999D01*
Y386998D01*
X286953Y388997D01*
X301948Y387998D02*
X300948Y388997D01*
X298949D01*
X297949Y387998D01*
Y383999D01*
X298949Y382999D01*
X300948D01*
X301948Y383999D01*
X304947Y382999D02*
X306946D01*
X307946Y383999D01*
Y385998D01*
X306946Y386998D01*
X304947D01*
X303947Y385998D01*
Y383999D01*
X304947Y382999D01*
X309945Y381000D02*
Y386998D01*
X312944D01*
X313944Y385998D01*
Y383999D01*
X312944Y382999D01*
X309945D01*
X315943Y386998D02*
Y383999D01*
X316943Y382999D01*
X319942D01*
Y382000D01*
X318942Y381000D01*
X317943D01*
X319942Y382999D02*
Y386998D01*
X321941D02*
Y382999D01*
Y384999D01*
X322941Y385998D01*
X323941Y386998D01*
X324940D01*
X327940Y382999D02*
X329939D01*
X328939D01*
Y386998D01*
X327940D01*
X334937Y381000D02*
X335937D01*
X336937Y382000D01*
Y386998D01*
X333938D01*
X332938Y385998D01*
Y383999D01*
X333938Y382999D01*
X336937D01*
X338936Y388997D02*
Y382999D01*
Y385998D01*
X339936Y386998D01*
X341935D01*
X342935Y385998D01*
Y382999D01*
X345934Y387998D02*
Y386998D01*
X344934D01*
X346933D01*
X345934D01*
Y383999D01*
X346933Y382999D01*
X359929D02*
X355930D01*
X359929Y386998D01*
Y387998D01*
X358929Y388997D01*
X356930D01*
X355930Y387998D01*
X361929D02*
X362928Y388997D01*
X364928D01*
X365927Y387998D01*
Y383999D01*
X364928Y382999D01*
X362928D01*
X361929Y383999D01*
Y387998D01*
X371925Y382999D02*
X367927D01*
X371925Y386998D01*
Y387998D01*
X370926Y388997D01*
X368926D01*
X367927Y387998D01*
X377923Y388997D02*
X373925D01*
Y385998D01*
X375924Y386998D01*
X376924D01*
X377923Y385998D01*
Y383999D01*
X376924Y382999D01*
X374924D01*
X373925Y383999D01*
X123500Y354999D02*
Y351000D01*
X125499D01*
X126166Y351666D01*
Y354332D01*
X125499Y354999D01*
X123500D01*
X130165Y351000D02*
X127499D01*
X130165Y353666D01*
Y354332D01*
X129498Y354999D01*
X128165D01*
X127499Y354332D01*
X217500Y354999D02*
Y351000D01*
X218833Y352333D01*
X220166Y351000D01*
Y354999D01*
X221499Y351000D02*
Y354999D01*
X223498D01*
X224165Y354332D01*
Y352999D01*
X223498Y352333D01*
X221499D01*
X222832D02*
X224165Y351000D01*
X133500Y354999D02*
Y351000D01*
X135499D01*
X136166Y351666D01*
Y354332D01*
X135499Y354999D01*
X133500D01*
X137499Y351000D02*
X138832D01*
X138165D01*
Y354999D01*
X137499Y354332D01*
X143500Y354999D02*
Y351000D01*
X145499D01*
X146166Y351666D01*
Y354332D01*
X145499Y354999D01*
X143500D01*
X147499Y354332D02*
X148165Y354999D01*
X149498D01*
X150164Y354332D01*
Y351666D01*
X149498Y351000D01*
X148165D01*
X147499Y351666D01*
Y354332D01*
X159500Y355148D02*
X160833D01*
X160167D01*
Y351150D01*
X159500D01*
X160833D01*
X162832D02*
Y353815D01*
X164832D01*
X165498Y353149D01*
Y351150D01*
X167497Y354482D02*
Y353815D01*
X166831D01*
X168164D01*
X167497D01*
Y351816D01*
X168164Y351150D01*
X173500Y351000D02*
Y354999D01*
X175499D01*
X176166Y354332D01*
Y352999D01*
X175499Y352333D01*
X173500D01*
X174833D02*
X176166Y351000D01*
X177499D02*
X179498D01*
X180165Y351666D01*
X179498Y352333D01*
X178165D01*
X177499Y352999D01*
X178165Y353666D01*
X180165D01*
X182164Y354332D02*
Y353666D01*
X181497D01*
X182830D01*
X182164D01*
Y351666D01*
X182830Y351000D01*
X192166Y354332D02*
X191499Y354999D01*
X190166D01*
X189500Y354332D01*
Y351666D01*
X190166Y351000D01*
X191499D01*
X192166Y351666D01*
X196165Y354332D02*
X195498Y354999D01*
X194165D01*
X193499Y354332D01*
Y353666D01*
X194165Y352999D01*
X195498D01*
X196165Y352333D01*
Y351666D01*
X195498Y351000D01*
X194165D01*
X193499Y351666D01*
X121666Y366332D02*
X120999Y366999D01*
X119667D01*
X119000Y366332D01*
Y363666D01*
X119667Y363000D01*
X120999D01*
X121666Y363666D01*
X122999Y363000D02*
Y366999D01*
X124998D01*
X125664Y366332D01*
Y364999D01*
X124998Y364333D01*
X122999D01*
X126997Y366999D02*
Y363666D01*
X127664Y363000D01*
X128997D01*
X129663Y363666D01*
Y366999D01*
X134995D02*
Y363000D01*
X136994D01*
X137661Y363666D01*
Y364333D01*
X136994Y364999D01*
X134995D01*
X136994D01*
X137661Y365666D01*
Y366332D01*
X136994Y366999D01*
X134995D01*
X138994Y365666D02*
Y363666D01*
X139660Y363000D01*
X141659D01*
Y365666D01*
X142992Y363000D02*
X144992D01*
X145658Y363666D01*
X144992Y364333D01*
X143659D01*
X142992Y364999D01*
X143659Y365666D01*
X145658D01*
X151656D02*
X152989D01*
X153656Y364999D01*
Y363000D01*
X151656D01*
X150990Y363666D01*
X151656Y364333D01*
X153656D01*
X154988Y363000D02*
Y365666D01*
X156988D01*
X157654Y364999D01*
Y363000D01*
X161653Y366999D02*
Y363000D01*
X159653D01*
X158987Y363666D01*
Y364999D01*
X159653Y365666D01*
X161653D01*
X169650Y366332D02*
X168984Y366999D01*
X167651D01*
X166984Y366332D01*
Y363666D01*
X167651Y363000D01*
X168984D01*
X169650Y363666D01*
X171650Y363000D02*
X172983D01*
X173649Y363666D01*
Y364999D01*
X172983Y365666D01*
X171650D01*
X170983Y364999D01*
Y363666D01*
X171650Y363000D01*
X174982D02*
Y365666D01*
X176981D01*
X177648Y364999D01*
Y363000D01*
X179647Y366332D02*
Y365666D01*
X178981D01*
X180314D01*
X179647D01*
Y363666D01*
X180314Y363000D01*
X182313Y365666D02*
Y363000D01*
Y364333D01*
X182979Y364999D01*
X183646Y365666D01*
X184312D01*
X186978Y363000D02*
X188311D01*
X188977Y363666D01*
Y364999D01*
X188311Y365666D01*
X186978D01*
X186312Y364999D01*
Y363666D01*
X186978Y363000D01*
X190310D02*
X191643D01*
X190977D01*
Y366999D01*
X190310D01*
X93500Y354999D02*
Y351000D01*
X95499D01*
X96166Y351666D01*
Y354332D01*
X95499Y354999D01*
X93500D01*
X100164D02*
X97499D01*
Y352999D01*
X98832Y353666D01*
X99498D01*
X100164Y352999D01*
Y351666D01*
X99498Y351000D01*
X98165D01*
X97499Y351666D01*
X83500Y354999D02*
Y351000D01*
X85499D01*
X86166Y351666D01*
Y354332D01*
X85499Y354999D01*
X83500D01*
X90165D02*
X88832Y354332D01*
X87499Y352999D01*
Y351666D01*
X88165Y351000D01*
X89498D01*
X90165Y351666D01*
Y352333D01*
X89498Y352999D01*
X87499D01*
X73500Y354999D02*
Y351000D01*
X75499D01*
X76166Y351666D01*
Y354332D01*
X75499Y354999D01*
X73500D01*
X77499D02*
X80164D01*
Y354332D01*
X77499Y351666D01*
Y351000D01*
X103500Y354999D02*
Y351000D01*
X105499D01*
X106166Y351666D01*
Y354332D01*
X105499Y354999D01*
X103500D01*
X109498Y351000D02*
Y354999D01*
X107499Y352999D01*
X110164D01*
X113500Y354999D02*
Y351000D01*
X115499D01*
X116166Y351666D01*
Y354332D01*
X115499Y354999D01*
X113500D01*
X117499Y354332D02*
X118165Y354999D01*
X119498D01*
X120165Y354332D01*
Y353666D01*
X119498Y352999D01*
X118832D01*
X119498D01*
X120165Y352333D01*
Y351666D01*
X119498Y351000D01*
X118165D01*
X117499Y351666D01*
X205000Y351000D02*
Y354999D01*
X206999D01*
X207666Y354332D01*
Y352999D01*
X206999Y352333D01*
X205000D01*
X206333D02*
X207666Y351000D01*
X208999Y354999D02*
Y351000D01*
X210998D01*
X211665Y351666D01*
Y354332D01*
X210998Y354999D01*
X208999D01*
X247000Y362000D02*
Y365999D01*
X248999D01*
X249666Y365332D01*
Y363999D01*
X248999Y363333D01*
X247000D01*
X251665Y362000D02*
X252998D01*
X253664Y362666D01*
Y363999D01*
X252998Y364666D01*
X251665D01*
X250999Y363999D01*
Y362666D01*
X251665Y362000D01*
X254997Y364666D02*
Y362666D01*
X255664Y362000D01*
X256330Y362666D01*
X256997Y362000D01*
X257663Y362666D01*
Y364666D01*
X260996Y362000D02*
X259663D01*
X258996Y362666D01*
Y363999D01*
X259663Y364666D01*
X260996D01*
X261662Y363999D01*
Y363333D01*
X258996D01*
X262995Y364666D02*
Y362000D01*
Y363333D01*
X263661Y363999D01*
X264328Y364666D01*
X264994D01*
X268244Y355148D02*
X265578D01*
Y353149D01*
X266911Y353815D01*
X267578D01*
X268244Y353149D01*
Y351816D01*
X267578Y351150D01*
X266245D01*
X265578Y351816D01*
X269577Y355148D02*
Y352483D01*
X270910Y351150D01*
X272243Y352483D01*
Y355148D01*
X239500Y354482D02*
X240166Y355148D01*
X241499D01*
X242166Y354482D01*
Y353815D01*
X241499Y353149D01*
X240833D01*
X241499D01*
X242166Y352483D01*
Y351816D01*
X241499Y351150D01*
X240166D01*
X239500Y351816D01*
X243499Y351150D02*
Y351816D01*
X244165D01*
Y351150D01*
X243499D01*
X246831Y354482D02*
X247497Y355148D01*
X248830D01*
X249497Y354482D01*
Y353815D01*
X248830Y353149D01*
X248164D01*
X248830D01*
X249497Y352483D01*
Y351816D01*
X248830Y351150D01*
X247497D01*
X246831Y351816D01*
X250830Y355148D02*
Y352483D01*
X252163Y351150D01*
X253496Y352483D01*
Y355148D01*
X274999Y45668D02*
X271001D01*
Y47668D01*
X271667Y48334D01*
X273000D01*
X273666Y47668D01*
Y45668D01*
Y47001D02*
X274999Y48334D01*
Y51666D02*
X271001D01*
X273000Y49667D01*
Y52333D01*
X271001Y56332D02*
Y53666D01*
X273000D01*
X272334Y54999D01*
Y55665D01*
X273000Y56332D01*
X274333D01*
X274999Y55665D01*
Y54332D01*
X274333Y53666D01*
X289999Y45668D02*
X286001D01*
Y47668D01*
X286667Y48334D01*
X288000D01*
X288666Y47668D01*
Y45668D01*
Y47001D02*
X289999Y48334D01*
Y51666D02*
X286001D01*
X288000Y49667D01*
Y52333D01*
X289999Y55665D02*
X286001D01*
X288000Y53666D01*
Y56332D01*
X383982Y234348D02*
Y231016D01*
X384648Y230350D01*
X385981D01*
X386648Y231016D01*
Y234348D01*
X387981Y230350D02*
X389314D01*
X388647D01*
Y234348D01*
X387981Y233682D01*
X212116Y280148D02*
Y276816D01*
X212783Y276150D01*
X214116D01*
X214782Y276816D01*
Y280148D01*
X216115Y279482D02*
X216781Y280148D01*
X218114D01*
X218781Y279482D01*
Y278816D01*
X218114Y278149D01*
X217448D01*
X218114D01*
X218781Y277483D01*
Y276816D01*
X218114Y276150D01*
X216781D01*
X216115Y276816D01*
X98016Y273848D02*
Y270516D01*
X98683Y269850D01*
X100016D01*
X100682Y270516D01*
Y273848D01*
X104681Y269850D02*
X102015D01*
X104681Y272516D01*
Y273182D01*
X104015Y273848D01*
X102682D01*
X102015Y273182D01*
X309752Y279500D02*
X311751D01*
X310751D01*
Y276501D01*
X312751D02*
Y279500D01*
X314250D01*
X314750Y279000D01*
Y278000D01*
X314250Y277500D01*
X312751D01*
X315750Y276501D02*
X316749D01*
X316250D01*
Y279500D01*
X315750Y279000D01*
X318249Y277000D02*
X318749Y276501D01*
X319748D01*
X320248Y277000D01*
Y279000D01*
X319748Y279500D01*
X318749D01*
X318249Y279000D01*
Y278500D01*
X318749Y278000D01*
X320248D01*
X288752Y290499D02*
X290751D01*
X289751D01*
Y287501D01*
X291751D02*
Y290499D01*
X293250D01*
X293750Y290000D01*
Y289000D01*
X293250Y288500D01*
X291751D01*
X294750Y287501D02*
X295749D01*
X295250D01*
Y290499D01*
X294750Y290000D01*
X297249D02*
X297749Y290499D01*
X298748D01*
X299248Y290000D01*
Y289500D01*
X298748Y289000D01*
X299248Y288500D01*
Y288000D01*
X298748Y287501D01*
X297749D01*
X297249Y288000D01*
Y288500D01*
X297749Y289000D01*
X297249Y289500D01*
Y290000D01*
X297749Y289000D02*
X298748D01*
X308752Y259500D02*
X310751D01*
X309751D01*
Y256501D01*
X311751D02*
Y259500D01*
X313250D01*
X313750Y259000D01*
Y258000D01*
X313250Y257500D01*
X311751D01*
X314750Y256501D02*
X315749D01*
X315250D01*
Y259500D01*
X314750Y259000D01*
X317249Y259500D02*
X319248D01*
Y259000D01*
X317249Y257000D01*
Y256501D01*
X288752Y269499D02*
X290751D01*
X289751D01*
Y266500D01*
X291751D02*
Y269499D01*
X293250D01*
X293750Y269000D01*
Y268000D01*
X293250Y267500D01*
X291751D01*
X294750Y266500D02*
X295749D01*
X295250D01*
Y269499D01*
X294750Y269000D01*
X299248Y269499D02*
X298249Y269000D01*
X297249Y268000D01*
Y267000D01*
X297749Y266500D01*
X298748D01*
X299248Y267000D01*
Y267500D01*
X298748Y268000D01*
X297249D01*
X309752Y239499D02*
X311751D01*
X310751D01*
Y236501D01*
X312751D02*
Y239499D01*
X314250D01*
X314750Y239000D01*
Y238000D01*
X314250Y237500D01*
X312751D01*
X315750Y236501D02*
X316749D01*
X316250D01*
Y239499D01*
X315750Y239000D01*
X320248Y239499D02*
X318249D01*
Y238000D01*
X319249Y238500D01*
X319748D01*
X320248Y238000D01*
Y237000D01*
X319748Y236501D01*
X318749D01*
X318249Y237000D01*
X288752Y249500D02*
X290751D01*
X289751D01*
Y246500D01*
X291751D02*
Y249500D01*
X293250D01*
X293750Y249000D01*
Y248000D01*
X293250Y247500D01*
X291751D01*
X294750Y246500D02*
X295749D01*
X295250D01*
Y249500D01*
X294750Y249000D01*
X298748Y246500D02*
Y249500D01*
X297249Y248000D01*
X299248D01*
X157752Y249500D02*
X159751D01*
X158751D01*
Y246500D01*
X160751D02*
Y249500D01*
X162250D01*
X162750Y249000D01*
Y248000D01*
X162250Y247500D01*
X160751D01*
X163750Y246500D02*
X164749D01*
X164250D01*
Y249500D01*
X163750Y249000D01*
X166249D02*
X166749Y249500D01*
X167748D01*
X168248Y249000D01*
Y248500D01*
X167748Y248000D01*
X167249D01*
X167748D01*
X168248Y247500D01*
Y247000D01*
X167748Y246500D01*
X166749D01*
X166249Y247000D01*
X158752Y269499D02*
X160751D01*
X159751D01*
Y266500D01*
X161751D02*
Y269499D01*
X163250D01*
X163750Y269000D01*
Y268000D01*
X163250Y267500D01*
X161751D01*
X164750Y266500D02*
X165749D01*
X165250D01*
Y269499D01*
X164750Y269000D01*
X169248Y266500D02*
X167249D01*
X169248Y268500D01*
Y269000D01*
X168748Y269499D01*
X167749D01*
X167249Y269000D01*
X124251Y157500D02*
X126251D01*
X125251D01*
Y154500D01*
X127251D02*
Y157500D01*
X128750D01*
X129250Y157000D01*
Y156000D01*
X128750Y155500D01*
X127251D01*
X130250Y154500D02*
X131249D01*
X130749D01*
Y157500D01*
X130250Y157000D01*
X132749Y154500D02*
X133748D01*
X133249D01*
Y157500D01*
X132749Y157000D01*
X123752Y175499D02*
X125751D01*
X124751D01*
Y172501D01*
X126751D02*
Y175499D01*
X128250D01*
X128750Y175000D01*
Y174000D01*
X128250Y173500D01*
X126751D01*
X129750Y172501D02*
X130749D01*
X130250D01*
Y175499D01*
X129750Y175000D01*
X132249D02*
X132749Y175499D01*
X133748D01*
X134248Y175000D01*
Y173000D01*
X133748Y172501D01*
X132749D01*
X132249Y173000D01*
Y175000D01*
X298001Y146500D02*
X300001D01*
X299001D01*
Y143500D01*
X301000D02*
Y146500D01*
X302500D01*
X303000Y146000D01*
Y145000D01*
X302500Y144500D01*
X301000D01*
X303999Y144000D02*
X304499Y143500D01*
X305499D01*
X305999Y144000D01*
Y146000D01*
X305499Y146500D01*
X304499D01*
X303999Y146000D01*
Y145500D01*
X304499Y145000D01*
X305999D01*
X298001Y164499D02*
X300001D01*
X299001D01*
Y161501D01*
X301000D02*
Y164499D01*
X302500D01*
X303000Y164000D01*
Y163000D01*
X302500Y162500D01*
X301000D01*
X303999Y164000D02*
X304499Y164499D01*
X305499D01*
X305999Y164000D01*
Y163500D01*
X305499Y163000D01*
X305999Y162500D01*
Y162000D01*
X305499Y161501D01*
X304499D01*
X303999Y162000D01*
Y162500D01*
X304499Y163000D01*
X303999Y163500D01*
Y164000D01*
X304499Y163000D02*
X305499D01*
X298001Y182500D02*
X300001D01*
X299001D01*
Y179500D01*
X301000D02*
Y182500D01*
X302500D01*
X303000Y182000D01*
Y181000D01*
X302500Y180500D01*
X301000D01*
X303999Y182500D02*
X305999D01*
Y182000D01*
X303999Y180000D01*
Y179500D01*
X298001Y200500D02*
X300001D01*
X299001D01*
Y197501D01*
X301000D02*
Y200500D01*
X302500D01*
X303000Y200000D01*
Y199000D01*
X302500Y198500D01*
X301000D01*
X305999Y200500D02*
X304999Y200000D01*
X303999Y199000D01*
Y198000D01*
X304499Y197501D01*
X305499D01*
X305999Y198000D01*
Y198500D01*
X305499Y199000D01*
X303999D01*
X254001Y215499D02*
X256001D01*
X255001D01*
Y212501D01*
X257000D02*
Y215499D01*
X258500D01*
X259000Y215000D01*
Y214000D01*
X258500Y213500D01*
X257000D01*
X261999Y215499D02*
X259999D01*
Y214000D01*
X260999Y214500D01*
X261499D01*
X261999Y214000D01*
Y213000D01*
X261499Y212501D01*
X260499D01*
X259999Y213000D01*
X54001Y74499D02*
X56001D01*
X55001D01*
Y71500D01*
X57000D02*
Y74499D01*
X58500D01*
X59000Y74000D01*
Y73000D01*
X58500Y72500D01*
X57000D01*
X61499Y71500D02*
Y74499D01*
X59999Y73000D01*
X61999D01*
X159001Y89499D02*
X161001D01*
X160001D01*
Y86501D01*
X162000D02*
Y89499D01*
X163500D01*
X164000Y89000D01*
Y88000D01*
X163500Y87500D01*
X162000D01*
X164999Y89000D02*
X165499Y89499D01*
X166499D01*
X166999Y89000D01*
Y88500D01*
X166499Y88000D01*
X165999D01*
X166499D01*
X166999Y87500D01*
Y87000D01*
X166499Y86501D01*
X165499D01*
X164999Y87000D01*
X53001Y94499D02*
X55001D01*
X54001D01*
Y91501D01*
X56000D02*
Y94499D01*
X57500D01*
X58000Y94000D01*
Y93000D01*
X57500Y92500D01*
X56000D01*
X60999Y91501D02*
X58999D01*
X60999Y93500D01*
Y94000D01*
X60499Y94499D01*
X59499D01*
X58999Y94000D01*
X253501Y326500D02*
X255501D01*
X254501D01*
Y323500D01*
X256500D02*
Y326500D01*
X258000D01*
X258500Y326000D01*
Y325000D01*
X258000Y324500D01*
X256500D01*
X259499Y323500D02*
X260499D01*
X259999D01*
Y326500D01*
X259499Y326000D01*
X266669Y268001D02*
Y271999D01*
X268668D01*
X269335Y271333D01*
Y270000D01*
X268668Y269334D01*
X266669D01*
X268002D02*
X269335Y268001D01*
X270667D02*
X272000D01*
X271334D01*
Y271999D01*
X270667Y271333D01*
X274000D02*
X274666Y271999D01*
X275999D01*
X276665Y271333D01*
Y268667D01*
X275999Y268001D01*
X274666D01*
X274000Y268667D01*
Y271333D01*
X277998Y268001D02*
X279331D01*
X278665D01*
Y271999D01*
X277998Y271333D01*
X266000Y275001D02*
Y278999D01*
X267999D01*
X268666Y278333D01*
Y277000D01*
X267999Y276334D01*
X266000D01*
X267333D02*
X268666Y275001D01*
X269999D02*
X271332D01*
X270665D01*
Y278999D01*
X269999Y278333D01*
X273331D02*
X273997Y278999D01*
X275330D01*
X275997Y278333D01*
Y275667D01*
X275330Y275001D01*
X273997D01*
X273331Y275667D01*
Y278333D01*
X277330D02*
X277996Y278999D01*
X279329D01*
X279995Y278333D01*
Y275667D01*
X279329Y275001D01*
X277996D01*
X277330Y275667D01*
Y278333D01*
X266668Y256001D02*
Y259999D01*
X268668D01*
X269334Y259333D01*
Y258000D01*
X268668Y257334D01*
X266668D01*
X268001D02*
X269334Y256001D01*
X270667Y256667D02*
X271334Y256001D01*
X272666D01*
X273333Y256667D01*
Y259333D01*
X272666Y259999D01*
X271334D01*
X270667Y259333D01*
Y258666D01*
X271334Y258000D01*
X273333D01*
X274666Y256667D02*
X275332Y256001D01*
X276665D01*
X277332Y256667D01*
Y259333D01*
X276665Y259999D01*
X275332D01*
X274666Y259333D01*
Y258666D01*
X275332Y258000D01*
X277332D01*
X267000Y262001D02*
Y265999D01*
X268999D01*
X269666Y265333D01*
Y264000D01*
X268999Y263334D01*
X267000D01*
X268333D02*
X269666Y262001D01*
X270999Y262667D02*
X271665Y262001D01*
X272998D01*
X273664Y262667D01*
Y265333D01*
X272998Y265999D01*
X271665D01*
X270999Y265333D01*
Y264666D01*
X271665Y264000D01*
X273664D01*
X274997Y265333D02*
X275664Y265999D01*
X276997D01*
X277663Y265333D01*
Y264666D01*
X276997Y264000D01*
X277663Y263334D01*
Y262667D01*
X276997Y262001D01*
X275664D01*
X274997Y262667D01*
Y263334D01*
X275664Y264000D01*
X274997Y264666D01*
Y265333D01*
X275664Y264000D02*
X276997D01*
X266668Y244001D02*
Y247999D01*
X268668D01*
X269334Y247333D01*
Y246000D01*
X268668Y245334D01*
X266668D01*
X268001D02*
X269334Y244001D01*
X270667Y244667D02*
X271334Y244001D01*
X272666D01*
X273333Y244667D01*
Y247333D01*
X272666Y247999D01*
X271334D01*
X270667Y247333D01*
Y246666D01*
X271334Y246000D01*
X273333D01*
X274666Y247999D02*
X277332D01*
Y247333D01*
X274666Y244667D01*
Y244001D01*
X266668Y250001D02*
Y253999D01*
X268668D01*
X269334Y253333D01*
Y252000D01*
X268668Y251334D01*
X266668D01*
X268001D02*
X269334Y250001D01*
X270667Y250667D02*
X271334Y250001D01*
X272666D01*
X273333Y250667D01*
Y253333D01*
X272666Y253999D01*
X271334D01*
X270667Y253333D01*
Y252666D01*
X271334Y252000D01*
X273333D01*
X277332Y253999D02*
X275999Y253333D01*
X274666Y252000D01*
Y250667D01*
X275332Y250001D01*
X276665D01*
X277332Y250667D01*
Y251334D01*
X276665Y252000D01*
X274666D01*
X176668Y248001D02*
Y251999D01*
X178668D01*
X179334Y251333D01*
Y250000D01*
X178668Y249334D01*
X176668D01*
X178001D02*
X179334Y248001D01*
X180667Y248667D02*
X181333Y248001D01*
X182667D01*
X183333Y248667D01*
Y251333D01*
X182667Y251999D01*
X181333D01*
X180667Y251333D01*
Y250666D01*
X181333Y250000D01*
X183333D01*
X187332Y251999D02*
X184666D01*
Y250000D01*
X185999Y250666D01*
X186665D01*
X187332Y250000D01*
Y248667D01*
X186665Y248001D01*
X185332D01*
X184666Y248667D01*
X176668Y258001D02*
Y261999D01*
X178668D01*
X179334Y261333D01*
Y260000D01*
X178668Y259334D01*
X176668D01*
X178001D02*
X179334Y258001D01*
X180667Y258667D02*
X181333Y258001D01*
X182667D01*
X183333Y258667D01*
Y261333D01*
X182667Y261999D01*
X181333D01*
X180667Y261333D01*
Y260666D01*
X181333Y260000D01*
X183333D01*
X186665Y258001D02*
Y261999D01*
X184666Y260000D01*
X187332D01*
X177668Y268001D02*
Y271999D01*
X179668D01*
X180334Y271333D01*
Y270000D01*
X179668Y269334D01*
X177668D01*
X179001D02*
X180334Y268001D01*
X181667Y268667D02*
X182334Y268001D01*
X183667D01*
X184333Y268667D01*
Y271333D01*
X183667Y271999D01*
X182334D01*
X181667Y271333D01*
Y270666D01*
X182334Y270000D01*
X184333D01*
X185666Y271333D02*
X186332Y271999D01*
X187665D01*
X188332Y271333D01*
Y270666D01*
X187665Y270000D01*
X186999D01*
X187665D01*
X188332Y269334D01*
Y268667D01*
X187665Y268001D01*
X186332D01*
X185666Y268667D01*
X194999Y287519D02*
X191001D01*
Y289518D01*
X191667Y290185D01*
X193000D01*
X193667Y289518D01*
Y287519D01*
Y288852D02*
X194999Y290185D01*
X194333Y291517D02*
X194999Y292184D01*
Y293517D01*
X194333Y294183D01*
X191667D01*
X191001Y293517D01*
Y292184D01*
X191667Y291517D01*
X192333D01*
X193000Y292184D01*
Y294183D01*
X191667Y295516D02*
X191001Y296183D01*
Y297516D01*
X191667Y298182D01*
X194333D01*
X194999Y297516D01*
Y296183D01*
X194333Y295516D01*
X191667D01*
X180999Y286668D02*
X177001D01*
Y288668D01*
X177667Y289334D01*
X179000D01*
X179666Y288668D01*
Y286668D01*
Y288001D02*
X180999Y289334D01*
X177667Y290667D02*
X177001Y291334D01*
Y292666D01*
X177667Y293333D01*
X178333D01*
X179000Y292666D01*
X179666Y293333D01*
X180333D01*
X180999Y292666D01*
Y291334D01*
X180333Y290667D01*
X179666D01*
X179000Y291334D01*
X178333Y290667D01*
X177667D01*
X179000Y291334D02*
Y292666D01*
X180333Y294666D02*
X180999Y295332D01*
Y296665D01*
X180333Y297332D01*
X177667D01*
X177001Y296665D01*
Y295332D01*
X177667Y294666D01*
X178333D01*
X179000Y295332D01*
Y297332D01*
X165999Y287668D02*
X162001D01*
Y289668D01*
X162667Y290334D01*
X164000D01*
X164666Y289668D01*
Y287668D01*
Y289001D02*
X165999Y290334D01*
X162667Y291667D02*
X162001Y292334D01*
Y293666D01*
X162667Y294333D01*
X163333D01*
X164000Y293666D01*
X164666Y294333D01*
X165333D01*
X165999Y293666D01*
Y292334D01*
X165333Y291667D01*
X164666D01*
X164000Y292334D01*
X163333Y291667D01*
X162667D01*
X164000Y292334D02*
Y293666D01*
X162667Y295666D02*
X162001Y296332D01*
Y297665D01*
X162667Y298332D01*
X163333D01*
X164000Y297665D01*
X164666Y298332D01*
X165333D01*
X165999Y297665D01*
Y296332D01*
X165333Y295666D01*
X164666D01*
X164000Y296332D01*
X163333Y295666D01*
X162667D01*
X164000Y296332D02*
Y297665D01*
X507519Y68001D02*
Y71999D01*
X509518D01*
X510185Y71333D01*
Y70000D01*
X509518Y69334D01*
X507519D01*
X508852D02*
X510185Y68001D01*
X511517Y71999D02*
X514183D01*
Y71333D01*
X511517Y68667D01*
Y68001D01*
X517516D02*
Y71999D01*
X515516Y70000D01*
X518182D01*
X342668Y118001D02*
Y121999D01*
X344668D01*
X345334Y121333D01*
Y120000D01*
X344668Y119334D01*
X342668D01*
X344001D02*
X345334Y118001D01*
X346667Y121999D02*
X349333D01*
Y121333D01*
X346667Y118667D01*
Y118001D01*
X350666Y121333D02*
X351332Y121999D01*
X352665D01*
X353332Y121333D01*
Y120667D01*
X352665Y120000D01*
X351999D01*
X352665D01*
X353332Y119334D01*
Y118667D01*
X352665Y118001D01*
X351332D01*
X350666Y118667D01*
X507668Y128001D02*
Y131999D01*
X509668D01*
X510334Y131333D01*
Y130000D01*
X509668Y129333D01*
X507668D01*
X509001D02*
X510334Y128001D01*
X511667Y131999D02*
X514333D01*
Y131333D01*
X511667Y128667D01*
Y128001D01*
X518332D02*
X515666D01*
X518332Y130666D01*
Y131333D01*
X517665Y131999D01*
X516332D01*
X515666Y131333D01*
X480984Y288001D02*
Y291999D01*
X482984D01*
X483650Y291333D01*
Y290000D01*
X482984Y289334D01*
X480984D01*
X482317D02*
X483650Y288001D01*
X484983Y291999D02*
X487649D01*
Y291333D01*
X484983Y288667D01*
Y288001D01*
X488982D02*
X490315D01*
X489648D01*
Y291999D01*
X488982Y291333D01*
X342668Y78001D02*
Y81999D01*
X344668D01*
X345334Y81333D01*
Y80000D01*
X344668Y79334D01*
X342668D01*
X344001D02*
X345334Y78001D01*
X346667Y81999D02*
X349333D01*
Y81333D01*
X346667Y78667D01*
Y78001D01*
X350666Y81333D02*
X351332Y81999D01*
X352665D01*
X353332Y81333D01*
Y78667D01*
X352665Y78001D01*
X351332D01*
X350666Y78667D01*
Y81333D01*
X484019Y278001D02*
Y281999D01*
X486018D01*
X486685Y281333D01*
Y280000D01*
X486018Y279334D01*
X484019D01*
X485352D02*
X486685Y278001D01*
X490683Y281999D02*
X489350Y281333D01*
X488018Y280000D01*
Y278667D01*
X488684Y278001D01*
X490017D01*
X490683Y278667D01*
Y279334D01*
X490017Y280000D01*
X488018D01*
X492016Y278667D02*
X492683Y278001D01*
X494016D01*
X494682Y278667D01*
Y281333D01*
X494016Y281999D01*
X492683D01*
X492016Y281333D01*
Y280666D01*
X492683Y280000D01*
X494682D01*
X342519Y88001D02*
Y91999D01*
X344518D01*
X345185Y91333D01*
Y90000D01*
X344518Y89334D01*
X342519D01*
X343852D02*
X345185Y88001D01*
X349183Y91999D02*
X347850Y91333D01*
X346517Y90000D01*
Y88667D01*
X347184Y88001D01*
X348517D01*
X349183Y88667D01*
Y89334D01*
X348517Y90000D01*
X346517D01*
X350516Y91333D02*
X351183Y91999D01*
X352516D01*
X353182Y91333D01*
Y90666D01*
X352516Y90000D01*
X353182Y89334D01*
Y88667D01*
X352516Y88001D01*
X351183D01*
X350516Y88667D01*
Y89334D01*
X351183Y90000D01*
X350516Y90666D01*
Y91333D01*
X351183Y90000D02*
X352516D01*
X341818Y108001D02*
Y111999D01*
X343817D01*
X344484Y111333D01*
Y110000D01*
X343817Y109334D01*
X341818D01*
X343151D02*
X344484Y108001D01*
X348482Y111999D02*
X347150Y111333D01*
X345817Y110000D01*
Y108667D01*
X346483Y108001D01*
X347816D01*
X348482Y108667D01*
Y109334D01*
X347816Y110000D01*
X345817D01*
X349815Y111999D02*
X352481D01*
Y111333D01*
X349815Y108667D01*
Y108001D01*
X480318Y268001D02*
Y271999D01*
X482317D01*
X482984Y271333D01*
Y270000D01*
X482317Y269334D01*
X480318D01*
X481651D02*
X482984Y268001D01*
X486982Y271999D02*
X485650Y271333D01*
X484317Y270000D01*
Y268667D01*
X484983Y268001D01*
X486316D01*
X486982Y268667D01*
Y269334D01*
X486316Y270000D01*
X484317D01*
X490981Y271999D02*
X489648Y271333D01*
X488315Y270000D01*
Y268667D01*
X488982Y268001D01*
X490315D01*
X490981Y268667D01*
Y269334D01*
X490315Y270000D01*
X488315D01*
X341668Y158001D02*
Y161999D01*
X343668D01*
X344334Y161333D01*
Y160000D01*
X343668Y159334D01*
X341668D01*
X343001D02*
X344334Y158001D01*
X348333Y161999D02*
X347000Y161333D01*
X345667Y160000D01*
Y158667D01*
X346334Y158001D01*
X347666D01*
X348333Y158667D01*
Y159334D01*
X347666Y160000D01*
X345667D01*
X352332Y161999D02*
X349666D01*
Y160000D01*
X350999Y160667D01*
X351665D01*
X352332Y160000D01*
Y158667D01*
X351665Y158001D01*
X350332D01*
X349666Y158667D01*
X341668Y168001D02*
Y171999D01*
X343668D01*
X344334Y171333D01*
Y170000D01*
X343668Y169334D01*
X341668D01*
X343001D02*
X344334Y168001D01*
X348333Y171999D02*
X347000Y171333D01*
X345667Y170000D01*
Y168667D01*
X346334Y168001D01*
X347666D01*
X348333Y168667D01*
Y169334D01*
X347666Y170000D01*
X345667D01*
X351665Y168001D02*
Y171999D01*
X349666Y170000D01*
X352332D01*
X484019Y258001D02*
Y261999D01*
X486018D01*
X486685Y261333D01*
Y260000D01*
X486018Y259334D01*
X484019D01*
X485352D02*
X486685Y258001D01*
X490683Y261999D02*
X489350Y261333D01*
X488018Y260000D01*
Y258667D01*
X488684Y258001D01*
X490017D01*
X490683Y258667D01*
Y259334D01*
X490017Y260000D01*
X488018D01*
X492016Y261333D02*
X492683Y261999D01*
X494016D01*
X494682Y261333D01*
Y260666D01*
X494016Y260000D01*
X493349D01*
X494016D01*
X494682Y259334D01*
Y258667D01*
X494016Y258001D01*
X492683D01*
X492016Y258667D01*
X507668Y88001D02*
Y91999D01*
X509668D01*
X510334Y91333D01*
Y90000D01*
X509668Y89334D01*
X507668D01*
X509001D02*
X510334Y88001D01*
X514333Y91999D02*
X513000Y91333D01*
X511667Y90000D01*
Y88667D01*
X512334Y88001D01*
X513666D01*
X514333Y88667D01*
Y89334D01*
X513666Y90000D01*
X511667D01*
X518332Y88001D02*
X515666D01*
X518332Y90666D01*
Y91333D01*
X517665Y91999D01*
X516332D01*
X515666Y91333D01*
X342335Y178001D02*
Y181999D01*
X344334D01*
X345001Y181333D01*
Y180000D01*
X344334Y179333D01*
X342335D01*
X343668D02*
X345001Y178001D01*
X348999Y181999D02*
X347666Y181333D01*
X346334Y180000D01*
Y178667D01*
X347000Y178001D01*
X348333D01*
X348999Y178667D01*
Y179333D01*
X348333Y180000D01*
X346334D01*
X350332Y178001D02*
X351665D01*
X350999D01*
Y181999D01*
X350332Y181333D01*
X454668Y253001D02*
Y256999D01*
X456668D01*
X457334Y256333D01*
Y255000D01*
X456668Y254334D01*
X454668D01*
X456001D02*
X457334Y253001D01*
X461333Y256999D02*
X460000Y256333D01*
X458667Y255000D01*
Y253667D01*
X459334Y253001D01*
X460666D01*
X461333Y253667D01*
Y254334D01*
X460666Y255000D01*
X458667D01*
X462666Y256333D02*
X463332Y256999D01*
X464665D01*
X465332Y256333D01*
Y253667D01*
X464665Y253001D01*
X463332D01*
X462666Y253667D01*
Y256333D01*
X484019Y248001D02*
Y251999D01*
X486018D01*
X486685Y251333D01*
Y250000D01*
X486018Y249334D01*
X484019D01*
X485352D02*
X486685Y248001D01*
X490683Y251999D02*
X488018D01*
Y250000D01*
X489350Y250666D01*
X490017D01*
X490683Y250000D01*
Y248667D01*
X490017Y248001D01*
X488684D01*
X488018Y248667D01*
X492016D02*
X492683Y248001D01*
X494016D01*
X494682Y248667D01*
Y251333D01*
X494016Y251999D01*
X492683D01*
X492016Y251333D01*
Y250666D01*
X492683Y250000D01*
X494682D01*
X507668Y78001D02*
Y81999D01*
X509668D01*
X510334Y81333D01*
Y80000D01*
X509668Y79334D01*
X507668D01*
X509001D02*
X510334Y78001D01*
X514333Y81999D02*
X511667D01*
Y80000D01*
X513000Y80666D01*
X513666D01*
X514333Y80000D01*
Y78667D01*
X513666Y78001D01*
X512334D01*
X511667Y78667D01*
X515666Y81333D02*
X516332Y81999D01*
X517665D01*
X518332Y81333D01*
Y80666D01*
X517665Y80000D01*
X518332Y79334D01*
Y78667D01*
X517665Y78001D01*
X516332D01*
X515666Y78667D01*
Y79334D01*
X516332Y80000D01*
X515666Y80666D01*
Y81333D01*
X516332Y80000D02*
X517665D01*
X341668Y188001D02*
Y191999D01*
X343668D01*
X344334Y191333D01*
Y190000D01*
X343668Y189333D01*
X341668D01*
X343001D02*
X344334Y188001D01*
X348333Y191999D02*
X345667D01*
Y190000D01*
X347000Y190666D01*
X347666D01*
X348333Y190000D01*
Y188667D01*
X347666Y188001D01*
X346334D01*
X345667Y188667D01*
X349666Y191999D02*
X352332D01*
Y191333D01*
X349666Y188667D01*
Y188001D01*
X454668Y243001D02*
Y246999D01*
X456668D01*
X457334Y246333D01*
Y245000D01*
X456668Y244334D01*
X454668D01*
X456001D02*
X457334Y243001D01*
X461333Y246999D02*
X458667D01*
Y245000D01*
X460000Y245666D01*
X460666D01*
X461333Y245000D01*
Y243667D01*
X460666Y243001D01*
X459334D01*
X458667Y243667D01*
X465332Y246999D02*
X463999Y246333D01*
X462666Y245000D01*
Y243667D01*
X463332Y243001D01*
X464665D01*
X465332Y243667D01*
Y244334D01*
X464665Y245000D01*
X462666D01*
X484019Y238001D02*
Y241999D01*
X486018D01*
X486685Y241333D01*
Y240000D01*
X486018Y239334D01*
X484019D01*
X485352D02*
X486685Y238001D01*
X490683Y241999D02*
X488018D01*
Y240000D01*
X489350Y240666D01*
X490017D01*
X490683Y240000D01*
Y238667D01*
X490017Y238001D01*
X488684D01*
X488018Y238667D01*
X494682Y241999D02*
X492016D01*
Y240000D01*
X493349Y240666D01*
X494016D01*
X494682Y240000D01*
Y238667D01*
X494016Y238001D01*
X492683D01*
X492016Y238667D01*
X507668Y98001D02*
Y101999D01*
X509668D01*
X510334Y101333D01*
Y100000D01*
X509668Y99334D01*
X507668D01*
X509001D02*
X510334Y98001D01*
X514333Y101999D02*
X511667D01*
Y100000D01*
X513000Y100666D01*
X513666D01*
X514333Y100000D01*
Y98667D01*
X513666Y98001D01*
X512334D01*
X511667Y98667D01*
X517665Y98001D02*
Y101999D01*
X515666Y100000D01*
X518332D01*
X484019Y228001D02*
Y231999D01*
X486018D01*
X486685Y231333D01*
Y230000D01*
X486018Y229334D01*
X484019D01*
X485352D02*
X486685Y228001D01*
X490683Y231999D02*
X488018D01*
Y230000D01*
X489350Y230666D01*
X490017D01*
X490683Y230000D01*
Y228667D01*
X490017Y228001D01*
X488684D01*
X488018Y228667D01*
X492016Y231333D02*
X492683Y231999D01*
X494016D01*
X494682Y231333D01*
Y230666D01*
X494016Y230000D01*
X493349D01*
X494016D01*
X494682Y229334D01*
Y228667D01*
X494016Y228001D01*
X492683D01*
X492016Y228667D01*
X341668Y148001D02*
Y151999D01*
X343668D01*
X344334Y151333D01*
Y150000D01*
X343668Y149334D01*
X341668D01*
X343001D02*
X344334Y148001D01*
X348333Y151999D02*
X345667D01*
Y150000D01*
X347000Y150666D01*
X347666D01*
X348333Y150000D01*
Y148667D01*
X347666Y148001D01*
X346334D01*
X345667Y148667D01*
X352332Y148001D02*
X349666D01*
X352332Y150666D01*
Y151333D01*
X351665Y151999D01*
X350332D01*
X349666Y151333D01*
X484335Y218001D02*
Y221999D01*
X486334D01*
X487001Y221333D01*
Y220000D01*
X486334Y219334D01*
X484335D01*
X485668D02*
X487001Y218001D01*
X490999Y221999D02*
X488334D01*
Y220000D01*
X489666Y220666D01*
X490333D01*
X490999Y220000D01*
Y218667D01*
X490333Y218001D01*
X489000D01*
X488334Y218667D01*
X492332Y218001D02*
X493665D01*
X492999D01*
Y221999D01*
X492332Y221333D01*
X507668Y118001D02*
Y121999D01*
X509668D01*
X510334Y121333D01*
Y120000D01*
X509668Y119334D01*
X507668D01*
X509001D02*
X510334Y118001D01*
X514333Y121999D02*
X511667D01*
Y120000D01*
X513000Y120667D01*
X513666D01*
X514333Y120000D01*
Y118667D01*
X513666Y118001D01*
X512334D01*
X511667Y118667D01*
X515666Y121333D02*
X516332Y121999D01*
X517665D01*
X518332Y121333D01*
Y118667D01*
X517665Y118001D01*
X516332D01*
X515666Y118667D01*
Y121333D01*
X341668Y198001D02*
Y201999D01*
X343668D01*
X344334Y201333D01*
Y200000D01*
X343668Y199334D01*
X341668D01*
X343001D02*
X344334Y198001D01*
X347666D02*
Y201999D01*
X345667Y200000D01*
X348333D01*
X349666Y198667D02*
X350332Y198001D01*
X351665D01*
X352332Y198667D01*
Y201333D01*
X351665Y201999D01*
X350332D01*
X349666Y201333D01*
Y200666D01*
X350332Y200000D01*
X352332D01*
X507668Y108001D02*
Y111999D01*
X509668D01*
X510334Y111333D01*
Y110000D01*
X509668Y109334D01*
X507668D01*
X509001D02*
X510334Y108001D01*
X513666D02*
Y111999D01*
X511667Y110000D01*
X514333D01*
X515666Y111333D02*
X516332Y111999D01*
X517665D01*
X518332Y111333D01*
Y110667D01*
X517665Y110000D01*
X518332Y109334D01*
Y108667D01*
X517665Y108001D01*
X516332D01*
X515666Y108667D01*
Y109334D01*
X516332Y110000D01*
X515666Y110667D01*
Y111333D01*
X516332Y110000D02*
X517665D01*
X341668Y208001D02*
Y211999D01*
X343668D01*
X344334Y211333D01*
Y210000D01*
X343668Y209334D01*
X341668D01*
X343001D02*
X344334Y208001D01*
X347666D02*
Y211999D01*
X345667Y210000D01*
X348333D01*
X349666Y211999D02*
X352332D01*
Y211333D01*
X349666Y208667D01*
Y208001D01*
X527999Y165668D02*
X524001D01*
Y167668D01*
X524667Y168334D01*
X526000D01*
X526666Y167668D01*
Y165668D01*
Y167001D02*
X527999Y168334D01*
Y171667D02*
X524001D01*
X526000Y169667D01*
Y172333D01*
X524001Y176332D02*
X524667Y174999D01*
X526000Y173666D01*
X527333D01*
X527999Y174332D01*
Y175665D01*
X527333Y176332D01*
X526666D01*
X526000Y175665D01*
Y173666D01*
X213999Y101668D02*
X210001D01*
Y103668D01*
X210667Y104334D01*
X212000D01*
X212666Y103668D01*
Y101668D01*
Y103001D02*
X213999Y104334D01*
Y107667D02*
X210001D01*
X212000Y105667D01*
Y108333D01*
X210667Y109666D02*
X210001Y110332D01*
Y111665D01*
X210667Y112332D01*
X211333D01*
X212000Y111665D01*
Y110999D01*
Y111665D01*
X212666Y112332D01*
X213333D01*
X213999Y111665D01*
Y110332D01*
X213333Y109666D01*
X219999Y101668D02*
X216001D01*
Y103668D01*
X216667Y104334D01*
X218000D01*
X218666Y103668D01*
Y101668D01*
Y103001D02*
X219999Y104334D01*
Y107667D02*
X216001D01*
X218000Y105667D01*
Y108333D01*
X219999Y112332D02*
Y109666D01*
X217334Y112332D01*
X216667D01*
X216001Y111665D01*
Y110332D01*
X216667Y109666D01*
X225999Y101668D02*
X222001D01*
Y103668D01*
X222667Y104334D01*
X224000D01*
X224666Y103668D01*
Y101668D01*
Y103001D02*
X225999Y104334D01*
Y107667D02*
X222001D01*
X224000Y105667D01*
Y108333D01*
X225999Y109666D02*
Y110999D01*
Y110332D01*
X222001D01*
X222667Y109666D01*
X207999Y101668D02*
X204001D01*
Y103668D01*
X204667Y104334D01*
X206000D01*
X206666Y103668D01*
Y101668D01*
Y103001D02*
X207999Y104334D01*
Y107667D02*
X204001D01*
X206000Y105667D01*
Y108333D01*
X204667Y109666D02*
X204001Y110332D01*
Y111665D01*
X204667Y112332D01*
X207333D01*
X207999Y111665D01*
Y110332D01*
X207333Y109666D01*
X204667D01*
X231999Y101668D02*
X228001D01*
Y103668D01*
X228667Y104334D01*
X230000D01*
X230666Y103668D01*
Y101668D01*
Y103001D02*
X231999Y104334D01*
X228667Y105667D02*
X228001Y106334D01*
Y107667D01*
X228667Y108333D01*
X229333D01*
X230000Y107667D01*
Y107000D01*
Y107667D01*
X230666Y108333D01*
X231333D01*
X231999Y107667D01*
Y106334D01*
X231333Y105667D01*
Y109666D02*
X231999Y110332D01*
Y111665D01*
X231333Y112332D01*
X228667D01*
X228001Y111665D01*
Y110332D01*
X228667Y109666D01*
X229333D01*
X230000Y110332D01*
Y112332D01*
X158168Y142001D02*
Y145999D01*
X160168D01*
X160834Y145333D01*
Y144000D01*
X160168Y143333D01*
X158168D01*
X159501D02*
X160834Y142001D01*
X162167Y145333D02*
X162833Y145999D01*
X164166D01*
X164833Y145333D01*
Y144667D01*
X164166Y144000D01*
X163500D01*
X164166D01*
X164833Y143333D01*
Y142667D01*
X164166Y142001D01*
X162833D01*
X162167Y142667D01*
X166166Y145333D02*
X166832Y145999D01*
X168165D01*
X168832Y145333D01*
Y144667D01*
X168165Y144000D01*
X168832Y143333D01*
Y142667D01*
X168165Y142001D01*
X166832D01*
X166166Y142667D01*
Y143333D01*
X166832Y144000D01*
X166166Y144667D01*
Y145333D01*
X166832Y144000D02*
X168165D01*
X237999Y101668D02*
X234001D01*
Y103668D01*
X234667Y104334D01*
X236000D01*
X236666Y103668D01*
Y101668D01*
Y103001D02*
X237999Y104334D01*
X234667Y105667D02*
X234001Y106333D01*
Y107667D01*
X234667Y108333D01*
X235334D01*
X236000Y107667D01*
Y107000D01*
Y107667D01*
X236666Y108333D01*
X237333D01*
X237999Y107667D01*
Y106333D01*
X237333Y105667D01*
X234001Y109666D02*
Y112332D01*
X234667D01*
X237333Y109666D01*
X237999D01*
X158668Y148001D02*
Y151999D01*
X160668D01*
X161334Y151333D01*
Y150000D01*
X160668Y149334D01*
X158668D01*
X160001D02*
X161334Y148001D01*
X162667Y151333D02*
X163333Y151999D01*
X164666D01*
X165333Y151333D01*
Y150666D01*
X164666Y150000D01*
X164000D01*
X164666D01*
X165333Y149334D01*
Y148667D01*
X164666Y148001D01*
X163333D01*
X162667Y148667D01*
X169332Y151999D02*
X167999Y151333D01*
X166666Y150000D01*
Y148667D01*
X167332Y148001D01*
X168665D01*
X169332Y148667D01*
Y149334D01*
X168665Y150000D01*
X166666D01*
X243999Y101668D02*
X240001D01*
Y103668D01*
X240667Y104334D01*
X242000D01*
X242666Y103668D01*
Y101668D01*
Y103001D02*
X243999Y104334D01*
X240667Y105667D02*
X240001Y106334D01*
Y107667D01*
X240667Y108333D01*
X241334D01*
X242000Y107667D01*
Y107000D01*
Y107667D01*
X242666Y108333D01*
X243333D01*
X243999Y107667D01*
Y106334D01*
X243333Y105667D01*
X240001Y112332D02*
Y109666D01*
X242000D01*
X241334Y110999D01*
Y111665D01*
X242000Y112332D01*
X243333D01*
X243999Y111665D01*
Y110332D01*
X243333Y109666D01*
X158168Y154001D02*
Y157999D01*
X160168D01*
X160834Y157333D01*
Y156000D01*
X160168Y155333D01*
X158168D01*
X159501D02*
X160834Y154001D01*
X162167Y157333D02*
X162833Y157999D01*
X164166D01*
X164833Y157333D01*
Y156667D01*
X164166Y156000D01*
X163500D01*
X164166D01*
X164833Y155333D01*
Y154667D01*
X164166Y154001D01*
X162833D01*
X162167Y154667D01*
X168165Y154001D02*
Y157999D01*
X166166Y156000D01*
X168832D01*
X266668Y138001D02*
Y141999D01*
X268668D01*
X269334Y141333D01*
Y140000D01*
X268668Y139333D01*
X266668D01*
X268001D02*
X269334Y138001D01*
X270667Y141333D02*
X271334Y141999D01*
X272666D01*
X273333Y141333D01*
Y140666D01*
X272666Y140000D01*
X272000D01*
X272666D01*
X273333Y139333D01*
Y138667D01*
X272666Y138001D01*
X271334D01*
X270667Y138667D01*
X274666Y141333D02*
X275332Y141999D01*
X276665D01*
X277332Y141333D01*
Y140666D01*
X276665Y140000D01*
X275999D01*
X276665D01*
X277332Y139333D01*
Y138667D01*
X276665Y138001D01*
X275332D01*
X274666Y138667D01*
X266668Y155001D02*
Y158999D01*
X268668D01*
X269334Y158333D01*
Y157000D01*
X268668Y156333D01*
X266668D01*
X268001D02*
X269334Y155001D01*
X270667Y158333D02*
X271334Y158999D01*
X272666D01*
X273333Y158333D01*
Y157667D01*
X272666Y157000D01*
X272000D01*
X272666D01*
X273333Y156333D01*
Y155667D01*
X272666Y155001D01*
X271334D01*
X270667Y155667D01*
X277332Y155001D02*
X274666D01*
X277332Y157667D01*
Y158333D01*
X276665Y158999D01*
X275332D01*
X274666Y158333D01*
X158168Y160001D02*
Y163999D01*
X160168D01*
X160834Y163333D01*
Y162000D01*
X160168Y161334D01*
X158168D01*
X159501D02*
X160834Y160001D01*
X162167Y163333D02*
X162833Y163999D01*
X164166D01*
X164833Y163333D01*
Y162666D01*
X164166Y162000D01*
X163500D01*
X164166D01*
X164833Y161334D01*
Y160667D01*
X164166Y160001D01*
X162833D01*
X162167Y160667D01*
X166166Y160001D02*
X167499D01*
X166832D01*
Y163999D01*
X166166Y163333D01*
X266668Y161001D02*
Y164999D01*
X268668D01*
X269334Y164333D01*
Y163000D01*
X268668Y162334D01*
X266668D01*
X268001D02*
X269334Y161001D01*
X270667Y164333D02*
X271334Y164999D01*
X272666D01*
X273333Y164333D01*
Y163666D01*
X272666Y163000D01*
X272000D01*
X272666D01*
X273333Y162334D01*
Y161667D01*
X272666Y161001D01*
X271334D01*
X270667Y161667D01*
X274666Y164333D02*
X275332Y164999D01*
X276665D01*
X277332Y164333D01*
Y161667D01*
X276665Y161001D01*
X275332D01*
X274666Y161667D01*
Y164333D01*
X158168Y166001D02*
Y169999D01*
X160168D01*
X160834Y169333D01*
Y168000D01*
X160168Y167333D01*
X158168D01*
X159501D02*
X160834Y166001D01*
X164833D02*
X162167D01*
X164833Y168667D01*
Y169333D01*
X164166Y169999D01*
X162833D01*
X162167Y169333D01*
X166166Y166667D02*
X166832Y166001D01*
X168165D01*
X168832Y166667D01*
Y169333D01*
X168165Y169999D01*
X166832D01*
X166166Y169333D01*
Y168667D01*
X166832Y168000D01*
X168832D01*
X266668Y167001D02*
Y170999D01*
X268668D01*
X269334Y170333D01*
Y169000D01*
X268668Y168333D01*
X266668D01*
X268001D02*
X269334Y167001D01*
X273333D02*
X270667D01*
X273333Y169667D01*
Y170333D01*
X272666Y170999D01*
X271334D01*
X270667Y170333D01*
X274666D02*
X275332Y170999D01*
X276665D01*
X277332Y170333D01*
Y169667D01*
X276665Y169000D01*
X277332Y168333D01*
Y167667D01*
X276665Y167001D01*
X275332D01*
X274666Y167667D01*
Y168333D01*
X275332Y169000D01*
X274666Y169667D01*
Y170333D01*
X275332Y169000D02*
X276665D01*
X158168Y172001D02*
Y175999D01*
X160168D01*
X160834Y175333D01*
Y174000D01*
X160168Y173334D01*
X158168D01*
X159501D02*
X160834Y172001D01*
X164833D02*
X162167D01*
X164833Y174667D01*
Y175333D01*
X164166Y175999D01*
X162833D01*
X162167Y175333D01*
X166166Y175999D02*
X168832D01*
Y175333D01*
X166166Y172667D01*
Y172001D01*
X266668Y173001D02*
Y176999D01*
X268668D01*
X269334Y176333D01*
Y175000D01*
X268668Y174334D01*
X266668D01*
X268001D02*
X269334Y173001D01*
X273333D02*
X270667D01*
X273333Y175666D01*
Y176333D01*
X272666Y176999D01*
X271334D01*
X270667Y176333D01*
X277332Y176999D02*
X275999Y176333D01*
X274666Y175000D01*
Y173667D01*
X275332Y173001D01*
X276665D01*
X277332Y173667D01*
Y174334D01*
X276665Y175000D01*
X274666D01*
X158168Y178001D02*
Y181999D01*
X160168D01*
X160834Y181333D01*
Y180000D01*
X160168Y179333D01*
X158168D01*
X159501D02*
X160834Y178001D01*
X164833D02*
X162167D01*
X164833Y180666D01*
Y181333D01*
X164166Y181999D01*
X162833D01*
X162167Y181333D01*
X168832Y181999D02*
X166166D01*
Y180000D01*
X167499Y180666D01*
X168165D01*
X168832Y180000D01*
Y178667D01*
X168165Y178001D01*
X166832D01*
X166166Y178667D01*
X266519Y179001D02*
Y182999D01*
X268518D01*
X269185Y182333D01*
Y181000D01*
X268518Y180333D01*
X266519D01*
X267852D02*
X269185Y179001D01*
X273183D02*
X270517D01*
X273183Y181667D01*
Y182333D01*
X272517Y182999D01*
X271184D01*
X270517Y182333D01*
X276516Y179001D02*
Y182999D01*
X274516Y181000D01*
X277182D01*
X158168Y184001D02*
Y187999D01*
X160168D01*
X160834Y187333D01*
Y186000D01*
X160168Y185334D01*
X158168D01*
X159501D02*
X160834Y184001D01*
X164833D02*
X162167D01*
X164833Y186667D01*
Y187333D01*
X164166Y187999D01*
X162833D01*
X162167Y187333D01*
X166166D02*
X166832Y187999D01*
X168165D01*
X168832Y187333D01*
Y186667D01*
X168165Y186000D01*
X167499D01*
X168165D01*
X168832Y185334D01*
Y184667D01*
X168165Y184001D01*
X166832D01*
X166166Y184667D01*
X240999Y209668D02*
X237001D01*
Y211668D01*
X237667Y212334D01*
X239000D01*
X239666Y211668D01*
Y209668D01*
Y211001D02*
X240999Y212334D01*
Y216333D02*
Y213667D01*
X238334Y216333D01*
X237667D01*
X237001Y215667D01*
Y214334D01*
X237667Y213667D01*
X240999Y220332D02*
Y217666D01*
X238334Y220332D01*
X237667D01*
X237001Y219665D01*
Y218332D01*
X237667Y217666D01*
X199999Y210335D02*
X196001D01*
Y212334D01*
X196667Y213001D01*
X198000D01*
X198666Y212334D01*
Y210335D01*
Y211668D02*
X199999Y213001D01*
Y216999D02*
Y214334D01*
X197334Y216999D01*
X196667D01*
X196001Y216333D01*
Y215000D01*
X196667Y214334D01*
X199999Y218332D02*
Y219665D01*
Y218999D01*
X196001D01*
X196667Y218332D01*
X234999Y209668D02*
X231001D01*
Y211668D01*
X231667Y212334D01*
X233000D01*
X233666Y211668D01*
Y209668D01*
Y211001D02*
X234999Y212334D01*
Y216333D02*
Y213667D01*
X232333Y216333D01*
X231667D01*
X231001Y215667D01*
Y214334D01*
X231667Y213667D01*
Y217666D02*
X231001Y218332D01*
Y219665D01*
X231667Y220332D01*
X234333D01*
X234999Y219665D01*
Y218332D01*
X234333Y217666D01*
X231667D01*
X205999Y210002D02*
X202001D01*
Y212001D01*
X202667Y212667D01*
X204000D01*
X204666Y212001D01*
Y210002D01*
Y211334D02*
X205999Y212667D01*
Y214000D02*
Y215333D01*
Y214667D01*
X202001D01*
X202667Y214000D01*
X205333Y217333D02*
X205999Y217999D01*
Y219332D01*
X205333Y219998D01*
X202667D01*
X202001Y219332D01*
Y217999D01*
X202667Y217333D01*
X203333D01*
X204000Y217999D01*
Y219998D01*
X228999Y210002D02*
X225001D01*
Y212001D01*
X225667Y212667D01*
X227000D01*
X227666Y212001D01*
Y210002D01*
Y211334D02*
X228999Y212667D01*
Y214000D02*
Y215333D01*
Y214667D01*
X225001D01*
X225667Y214000D01*
Y217333D02*
X225001Y217999D01*
Y219332D01*
X225667Y219998D01*
X226334D01*
X227000Y219332D01*
X227666Y219998D01*
X228333D01*
X228999Y219332D01*
Y217999D01*
X228333Y217333D01*
X227666D01*
X227000Y217999D01*
X226334Y217333D01*
X225667D01*
X227000Y217999D02*
Y219332D01*
X211999Y210002D02*
X208001D01*
Y212001D01*
X208667Y212667D01*
X210000D01*
X210666Y212001D01*
Y210002D01*
Y211334D02*
X211999Y212667D01*
Y214000D02*
Y215333D01*
Y214667D01*
X208001D01*
X208667Y214000D01*
X208001Y217333D02*
Y219998D01*
X208667D01*
X211333Y217333D01*
X211999D01*
X68002Y118001D02*
Y121999D01*
X70001D01*
X70667Y121333D01*
Y120000D01*
X70001Y119334D01*
X68002D01*
X69335D02*
X70667Y118001D01*
X72000D02*
X73333D01*
X72667D01*
Y121999D01*
X72000Y121333D01*
X77998Y121999D02*
X76666Y121333D01*
X75333Y120000D01*
Y118667D01*
X75999Y118001D01*
X77332D01*
X77998Y118667D01*
Y119334D01*
X77332Y120000D01*
X75333D01*
X68002Y128001D02*
Y131999D01*
X70001D01*
X70667Y131333D01*
Y130000D01*
X70001Y129333D01*
X68002D01*
X69335D02*
X70667Y128001D01*
X72000D02*
X73333D01*
X72667D01*
Y131999D01*
X72000Y131333D01*
X77998Y131999D02*
X75333D01*
Y130000D01*
X76666Y130666D01*
X77332D01*
X77998Y130000D01*
Y128667D01*
X77332Y128001D01*
X75999D01*
X75333Y128667D01*
X98002Y133001D02*
Y136999D01*
X100001D01*
X100667Y136333D01*
Y135000D01*
X100001Y134334D01*
X98002D01*
X99335D02*
X100667Y133001D01*
X102000D02*
X103333D01*
X102667D01*
Y136999D01*
X102000Y136333D01*
X107332Y133001D02*
Y136999D01*
X105333Y135000D01*
X107998D01*
X68002Y138001D02*
Y141999D01*
X70001D01*
X70667Y141333D01*
Y140000D01*
X70001Y139333D01*
X68002D01*
X69335D02*
X70667Y138001D01*
X72000D02*
X73333D01*
X72667D01*
Y141999D01*
X72000Y141333D01*
X75333D02*
X75999Y141999D01*
X77332D01*
X77998Y141333D01*
Y140666D01*
X77332Y140000D01*
X76666D01*
X77332D01*
X77998Y139333D01*
Y138667D01*
X77332Y138001D01*
X75999D01*
X75333Y138667D01*
X98002Y143001D02*
Y146999D01*
X100001D01*
X100667Y146333D01*
Y145000D01*
X100001Y144334D01*
X98002D01*
X99335D02*
X100667Y143001D01*
X102000D02*
X103333D01*
X102667D01*
Y146999D01*
X102000Y146333D01*
X107998Y143001D02*
X105333D01*
X107998Y145667D01*
Y146333D01*
X107332Y146999D01*
X105999D01*
X105333Y146333D01*
X67668Y148001D02*
Y151999D01*
X69667D01*
X70334Y151333D01*
Y150000D01*
X69667Y149334D01*
X67668D01*
X69001D02*
X70334Y148001D01*
X71667D02*
X73000D01*
X72333D01*
Y151999D01*
X71667Y151333D01*
X74999Y148001D02*
X76332D01*
X75665D01*
Y151999D01*
X74999Y151333D01*
X98002Y153001D02*
Y156999D01*
X100001D01*
X100667Y156333D01*
Y155000D01*
X100001Y154333D01*
X98002D01*
X99335D02*
X100667Y153001D01*
X102000D02*
X103333D01*
X102667D01*
Y156999D01*
X102000Y156333D01*
X105333D02*
X105999Y156999D01*
X107332D01*
X107998Y156333D01*
Y153667D01*
X107332Y153001D01*
X105999D01*
X105333Y153667D01*
Y156333D01*
X67668Y158001D02*
Y161999D01*
X69667D01*
X70334Y161333D01*
Y160000D01*
X69667Y159334D01*
X67668D01*
X69001D02*
X70334Y158001D01*
X71667Y158667D02*
X72333Y158001D01*
X73666D01*
X74332Y158667D01*
Y161333D01*
X73666Y161999D01*
X72333D01*
X71667Y161333D01*
Y160667D01*
X72333Y160000D01*
X74332D01*
X73668Y68001D02*
Y71999D01*
X75667D01*
X76334Y71333D01*
Y70000D01*
X75667Y69334D01*
X73668D01*
X75001D02*
X76334Y68001D01*
X77666Y71333D02*
X78333Y71999D01*
X79666D01*
X80332Y71333D01*
Y70666D01*
X79666Y70000D01*
X80332Y69334D01*
Y68667D01*
X79666Y68001D01*
X78333D01*
X77666Y68667D01*
Y69334D01*
X78333Y70000D01*
X77666Y70666D01*
Y71333D01*
X78333Y70000D02*
X79666D01*
X97668Y163001D02*
Y166999D01*
X99667D01*
X100334Y166333D01*
Y165000D01*
X99667Y164333D01*
X97668D01*
X99001D02*
X100334Y163001D01*
X101666Y166999D02*
X104332D01*
Y166333D01*
X101666Y163667D01*
Y163001D01*
X68668Y168001D02*
Y171999D01*
X70667D01*
X71334Y171333D01*
Y170000D01*
X70667Y169334D01*
X68668D01*
X70001D02*
X71334Y168001D01*
X75332Y171999D02*
X73999Y171333D01*
X72667Y170000D01*
Y168667D01*
X73333Y168001D01*
X74666D01*
X75332Y168667D01*
Y169334D01*
X74666Y170000D01*
X72667D01*
X137816Y87050D02*
Y91048D01*
X139815D01*
X140482Y90382D01*
Y89049D01*
X139815Y88383D01*
X137816D01*
X139149D02*
X140482Y87050D01*
X144481Y91048D02*
X141815D01*
Y89049D01*
X143148Y89715D01*
X143814D01*
X144481Y89049D01*
Y87716D01*
X143814Y87050D01*
X142481D01*
X141815Y87716D01*
X72668Y78001D02*
Y81999D01*
X74667D01*
X75334Y81333D01*
Y80000D01*
X74667Y79334D01*
X72668D01*
X74001D02*
X75334Y78001D01*
X78666D02*
Y81999D01*
X76666Y80000D01*
X79332D01*
X68668Y177501D02*
Y181499D01*
X70667D01*
X71334Y180833D01*
Y179500D01*
X70667Y178833D01*
X68668D01*
X70001D02*
X71334Y177501D01*
X72667Y180833D02*
X73333Y181499D01*
X74666D01*
X75332Y180833D01*
Y180166D01*
X74666Y179500D01*
X73999D01*
X74666D01*
X75332Y178833D01*
Y178167D01*
X74666Y177501D01*
X73333D01*
X72667Y178167D01*
X72668Y88001D02*
Y91999D01*
X74667D01*
X75334Y91333D01*
Y90000D01*
X74667Y89334D01*
X72668D01*
X74001D02*
X75334Y88001D01*
X79332D02*
X76666D01*
X79332Y90666D01*
Y91333D01*
X78666Y91999D01*
X77333D01*
X76666Y91333D01*
X69334Y188001D02*
Y191999D01*
X71334D01*
X72000Y191333D01*
Y190000D01*
X71334Y189333D01*
X69334D01*
X70667D02*
X72000Y188001D01*
X73333D02*
X74666D01*
X73999D01*
Y191999D01*
X73333Y191333D01*
X414680Y358450D02*
Y364448D01*
X416679Y362449D01*
X418679Y364448D01*
Y358450D01*
X424677D02*
X420678D01*
X424677Y362449D01*
Y363448D01*
X423677Y364448D01*
X421678D01*
X420678Y363448D01*
X344680Y358450D02*
Y364448D01*
X346679Y362449D01*
X348679Y364448D01*
Y358450D01*
X350678D02*
X352677D01*
X351678D01*
Y364448D01*
X350678Y363448D01*
X217501Y309503D02*
X221499D01*
Y312169D01*
X217501Y316167D02*
Y313502D01*
X221499D01*
Y316167D01*
X219500Y313502D02*
Y314834D01*
X217501Y317500D02*
X221499D01*
Y319500D01*
X220833Y320166D01*
X218167D01*
X217501Y319500D01*
Y317500D01*
X221499Y321499D02*
Y322832D01*
Y322165D01*
X217501D01*
X218167Y321499D01*
X217501Y327497D02*
X218167Y326164D01*
X219500Y324831D01*
X220833D01*
X221499Y325498D01*
Y326831D01*
X220833Y327497D01*
X220166D01*
X219500Y326831D01*
Y324831D01*
X206001Y309503D02*
X209999D01*
Y312169D01*
X206001Y316167D02*
Y313502D01*
X209999D01*
Y316167D01*
X208000Y313502D02*
Y314834D01*
X206001Y317500D02*
X209999D01*
Y319500D01*
X209333Y320166D01*
X206667D01*
X206001Y319500D01*
Y317500D01*
X209999Y321499D02*
Y322832D01*
Y322165D01*
X206001D01*
X206667Y321499D01*
X206001Y327497D02*
Y324831D01*
X208000D01*
X207334Y326164D01*
Y326831D01*
X208000Y327497D01*
X209333D01*
X209999Y326831D01*
Y325498D01*
X209333Y324831D01*
X74001Y309503D02*
X77999D01*
Y312169D01*
X74001Y316167D02*
Y313502D01*
X77999D01*
Y316167D01*
X76000Y313502D02*
Y314834D01*
X74001Y317500D02*
X77999D01*
Y319500D01*
X77333Y320166D01*
X74667D01*
X74001Y319500D01*
Y317500D01*
X77999Y321499D02*
Y322832D01*
Y322165D01*
X74001D01*
X74667Y321499D01*
X77999Y326831D02*
X74001D01*
X76000Y324831D01*
Y327497D01*
X84001Y309503D02*
X87999D01*
Y312169D01*
X84001Y316167D02*
Y313502D01*
X87999D01*
Y316167D01*
X86000Y313502D02*
Y314834D01*
X84001Y317500D02*
X87999D01*
Y319500D01*
X87333Y320166D01*
X84667D01*
X84001Y319500D01*
Y317500D01*
X87999Y321499D02*
Y322832D01*
Y322165D01*
X84001D01*
X84667Y321499D01*
Y324831D02*
X84001Y325498D01*
Y326831D01*
X84667Y327497D01*
X85334D01*
X86000Y326831D01*
Y326164D01*
Y326831D01*
X86666Y327497D01*
X87333D01*
X87999Y326831D01*
Y325498D01*
X87333Y324831D01*
X94001Y309503D02*
X97999D01*
Y312169D01*
X94001Y316167D02*
Y313502D01*
X97999D01*
Y316167D01*
X96000Y313502D02*
Y314834D01*
X94001Y317500D02*
X97999D01*
Y319500D01*
X97333Y320166D01*
X94667D01*
X94001Y319500D01*
Y317500D01*
X97999Y321499D02*
Y322832D01*
Y322165D01*
X94001D01*
X94667Y321499D01*
X97999Y327497D02*
Y324831D01*
X95334Y327497D01*
X94667D01*
X94001Y326831D01*
Y325498D01*
X94667Y324831D01*
X104001Y311169D02*
X107999D01*
Y313835D01*
X104001Y317834D02*
Y315168D01*
X107999D01*
Y317834D01*
X106000Y315168D02*
Y316501D01*
X104001Y319167D02*
X107999D01*
Y321166D01*
X107333Y321833D01*
X104667D01*
X104001Y321166D01*
Y319167D01*
X107999Y323165D02*
Y324498D01*
Y323832D01*
X104001D01*
X104667Y323165D01*
X107999Y326498D02*
Y327831D01*
Y327164D01*
X104001D01*
X104667Y326498D01*
X114001Y308503D02*
X117999D01*
Y311169D01*
X114001Y315167D02*
Y312502D01*
X117999D01*
Y315167D01*
X116000Y312502D02*
Y313835D01*
X114001Y316500D02*
X117999D01*
Y318500D01*
X117333Y319166D01*
X114667D01*
X114001Y318500D01*
Y316500D01*
X117999Y320499D02*
Y321832D01*
Y321165D01*
X114001D01*
X114667Y320499D01*
Y323831D02*
X114001Y324498D01*
Y325831D01*
X114667Y326497D01*
X117333D01*
X117999Y325831D01*
Y324498D01*
X117333Y323831D01*
X114667D01*
X124001Y312169D02*
X127999D01*
Y314835D01*
X124001Y318834D02*
Y316168D01*
X127999D01*
Y318834D01*
X126000Y316168D02*
Y317501D01*
X124001Y320166D02*
X127999D01*
Y322166D01*
X127333Y322832D01*
X124667D01*
X124001Y322166D01*
Y320166D01*
X127333Y324165D02*
X127999Y324832D01*
Y326165D01*
X127333Y326831D01*
X124667D01*
X124001Y326165D01*
Y324832D01*
X124667Y324165D01*
X125333D01*
X126000Y324832D01*
Y326831D01*
X134001Y312169D02*
X137999D01*
Y314835D01*
X134001Y318834D02*
Y316168D01*
X137999D01*
Y318834D01*
X136000Y316168D02*
Y317501D01*
X134001Y320166D02*
X137999D01*
Y322166D01*
X137333Y322832D01*
X134667D01*
X134001Y322166D01*
Y320166D01*
X134667Y324165D02*
X134001Y324832D01*
Y326165D01*
X134667Y326831D01*
X135334D01*
X136000Y326165D01*
X136667Y326831D01*
X137333D01*
X137999Y326165D01*
Y324832D01*
X137333Y324165D01*
X136667D01*
X136000Y324832D01*
X135334Y324165D01*
X134667D01*
X136000Y324832D02*
Y326165D01*
X144001Y312169D02*
X147999D01*
Y314835D01*
X144001Y318834D02*
Y316168D01*
X147999D01*
Y318834D01*
X146000Y316168D02*
Y317501D01*
X144001Y320166D02*
X147999D01*
Y322166D01*
X147333Y322832D01*
X144667D01*
X144001Y322166D01*
Y320166D01*
Y324165D02*
Y326831D01*
X144667D01*
X147333Y324165D01*
X147999D01*
X243001Y312669D02*
X246999D01*
Y315335D01*
X243001Y319334D02*
Y316668D01*
X246999D01*
Y319334D01*
X245000Y316668D02*
Y318001D01*
X243001Y320667D02*
X246999D01*
Y322666D01*
X246333Y323332D01*
X243667D01*
X243001Y322666D01*
Y320667D01*
Y327331D02*
X243667Y325998D01*
X245000Y324665D01*
X246333D01*
X246999Y325332D01*
Y326664D01*
X246333Y327331D01*
X245666D01*
X245000Y326664D01*
Y324665D01*
X267001Y312669D02*
X270999D01*
Y315335D01*
X267001Y319334D02*
Y316668D01*
X270999D01*
Y319334D01*
X269000Y316668D02*
Y318001D01*
X267001Y320667D02*
X270999D01*
Y322666D01*
X270333Y323332D01*
X267667D01*
X267001Y322666D01*
Y320667D01*
Y327331D02*
Y324665D01*
X269000D01*
X268334Y325998D01*
Y326664D01*
X269000Y327331D01*
X270333D01*
X270999Y326664D01*
Y325332D01*
X270333Y324665D01*
X191001Y313319D02*
X194999D01*
Y315985D01*
X191001Y319983D02*
Y317317D01*
X194999D01*
Y319983D01*
X193000Y317317D02*
Y318650D01*
X191001Y321316D02*
X194999D01*
Y323315D01*
X194333Y323982D01*
X191667D01*
X191001Y323315D01*
Y321316D01*
X194999Y327314D02*
X191001D01*
X193000Y325315D01*
Y327981D01*
X177001Y313169D02*
X180999D01*
Y315835D01*
X177001Y319834D02*
Y317168D01*
X180999D01*
Y319834D01*
X179000Y317168D02*
Y318501D01*
X177001Y321166D02*
X180999D01*
Y323166D01*
X180333Y323832D01*
X177667D01*
X177001Y323166D01*
Y321166D01*
X177667Y325165D02*
X177001Y325832D01*
Y327165D01*
X177667Y327831D01*
X178333D01*
X179000Y327165D01*
Y326498D01*
Y327165D01*
X179666Y327831D01*
X180333D01*
X180999Y327165D01*
Y325832D01*
X180333Y325165D01*
X162001Y312319D02*
X165999D01*
Y314984D01*
X162001Y318983D02*
Y316317D01*
X165999D01*
Y318983D01*
X164000Y316317D02*
Y317650D01*
X162001Y320316D02*
X165999D01*
Y322315D01*
X165333Y322982D01*
X162667D01*
X162001Y322315D01*
Y320316D01*
X165999Y326981D02*
Y324315D01*
X163333Y326981D01*
X162667D01*
X162001Y326314D01*
Y324981D01*
X162667Y324315D01*
X524001Y118335D02*
X527999D01*
Y121001D01*
X524001Y125000D02*
Y122334D01*
X527999D01*
Y125000D01*
X526000Y122334D02*
Y123667D01*
X524001Y126333D02*
X527999D01*
Y128332D01*
X527333Y128999D01*
X524667D01*
X524001Y128332D01*
Y126333D01*
X527999Y130332D02*
Y131665D01*
Y130998D01*
X524001D01*
X524667Y130332D01*
X521449Y319048D02*
X520116D01*
X520782D01*
Y315716D01*
X520116Y315050D01*
X519449D01*
X518783Y315716D01*
X522782Y315050D02*
X524115D01*
X523448D01*
Y319048D01*
X522782Y318382D01*
X202516Y192648D02*
X203849D01*
X203182D01*
Y188650D01*
X202516D01*
X203849D01*
X208514Y191982D02*
X207848Y192648D01*
X206515D01*
X205848Y191982D01*
Y189316D01*
X206515Y188650D01*
X207848D01*
X208514Y189316D01*
X209847Y188650D02*
X211180D01*
X210513D01*
Y192648D01*
X209847Y191982D01*
X98668Y101999D02*
Y98001D01*
Y100000D01*
X101334D01*
Y101999D01*
Y98001D01*
X105332D02*
X102666D01*
X105332Y100666D01*
Y101333D01*
X104666Y101999D01*
X103333D01*
X102666Y101333D01*
X7450Y219448D02*
Y213450D01*
Y216449D01*
X11449D01*
Y219448D01*
Y213450D01*
X13448D02*
X15447D01*
X14448D01*
Y219448D01*
X13448Y218448D01*
D12*
X277500Y45600D02*
Y49700D01*
Y45600D02*
X282500D01*
Y49800D01*
Y52300D02*
Y56400D01*
X277500D02*
X282500D01*
X277500Y52300D02*
Y56400D01*
X291500Y45600D02*
Y49700D01*
Y45600D02*
X296500D01*
Y49800D01*
Y52300D02*
Y56400D01*
X291500D02*
X296500D01*
X291500Y52300D02*
Y56400D01*
X253600Y137500D02*
X257700D01*
X253600D02*
Y142500D01*
X257700D01*
X260200D02*
X264400D01*
Y137500D02*
Y142500D01*
X260300Y137500D02*
X264400D01*
X166500Y306300D02*
Y310400D01*
X161500D02*
X166500D01*
X161500Y306200D02*
Y310400D01*
Y299600D02*
Y303700D01*
Y299600D02*
X166500D01*
Y303700D01*
X181500Y306300D02*
Y310400D01*
X176500D02*
X181500D01*
X176500Y306200D02*
Y310400D01*
Y299600D02*
Y303700D01*
Y299600D02*
X181500D01*
Y303700D01*
X195500Y306300D02*
Y310400D01*
X190500D02*
X195500D01*
X190500Y306200D02*
Y310400D01*
Y299600D02*
Y303700D01*
Y299600D02*
X195500D01*
Y303700D01*
X196300Y267500D02*
X200400D01*
Y272500D01*
X196200D02*
X200400D01*
X189600D02*
X193700D01*
X189600Y267500D02*
Y272500D01*
Y267500D02*
X193700D01*
X189600Y252500D02*
X193700D01*
X189600Y247500D02*
Y252500D01*
Y247500D02*
X193800D01*
X196300D02*
X200400D01*
Y252500D01*
X196300D02*
X200400D01*
X196300Y257500D02*
X200400D01*
Y262500D01*
X196200D02*
X200400D01*
X189600D02*
X193700D01*
X189600Y257500D02*
Y262500D01*
Y257500D02*
X193700D01*
X260300Y243500D02*
X264400D01*
Y248500D01*
X260200D02*
X264400D01*
X253600D02*
X257700D01*
X253600Y243500D02*
Y248500D01*
Y243500D02*
X257700D01*
X253600Y254500D02*
X257700D01*
X253600Y249500D02*
Y254500D01*
Y249500D02*
X257800D01*
X260300D02*
X264400D01*
Y254500D01*
X260300D02*
X264400D01*
X260300Y255500D02*
X264400D01*
Y260500D01*
X260200D02*
X264400D01*
X253600D02*
X257700D01*
X253600Y255500D02*
Y260500D01*
Y255500D02*
X257700D01*
X253600Y266500D02*
X257700D01*
X253600Y261500D02*
Y266500D01*
Y261500D02*
X257800D01*
X260300D02*
X264400D01*
Y266500D01*
X260300D02*
X264400D01*
X260300Y267500D02*
X264400D01*
Y272500D01*
X260200D02*
X264400D01*
X253600D02*
X257700D01*
X253600Y267500D02*
Y272500D01*
Y267500D02*
X257700D01*
X253600Y278500D02*
X257700D01*
X253600Y273500D02*
Y278500D01*
Y273500D02*
X257800D01*
X260300D02*
X264400D01*
Y278500D01*
X260300D02*
X264400D01*
X88300Y87500D02*
X92400D01*
Y92500D01*
X88200D02*
X92400D01*
X81600D02*
X85700D01*
X81600Y87500D02*
Y92500D01*
Y87500D02*
X85700D01*
X54600Y192500D02*
X58700D01*
X54600Y187500D02*
Y192500D01*
Y187500D02*
X58800D01*
X61300D02*
X65400D01*
Y192500D01*
X61300D02*
X65400D01*
X142300Y77500D02*
X146400D01*
Y82500D01*
X142200D02*
X146400D01*
X135600D02*
X139700D01*
X135600Y77500D02*
Y82500D01*
Y77500D02*
X139700D01*
X88300D02*
X92400D01*
Y82500D01*
X88200D02*
X92400D01*
X81600D02*
X85700D01*
X81600Y77500D02*
Y82500D01*
Y77500D02*
X85700D01*
X54600Y182500D02*
X58700D01*
X54600Y177500D02*
Y182500D01*
Y177500D02*
X58800D01*
X61300D02*
X65400D01*
Y182500D01*
X61300D02*
X65400D01*
X88300Y67500D02*
X92400D01*
Y72500D01*
X88200D02*
X92400D01*
X81600D02*
X85700D01*
X81600Y67500D02*
Y72500D01*
Y67500D02*
X85700D01*
X91300Y162500D02*
X95400D01*
Y167500D01*
X91200D02*
X95400D01*
X84600D02*
X88700D01*
X84600Y162500D02*
Y167500D01*
Y162500D02*
X88700D01*
X54600Y172500D02*
X58700D01*
X54600Y167500D02*
Y172500D01*
Y167500D02*
X58800D01*
X61300D02*
X65400D01*
Y172500D01*
X61300D02*
X65400D01*
X91300Y152500D02*
X95400D01*
Y157500D01*
X91200D02*
X95400D01*
X84600D02*
X88700D01*
X84600Y152500D02*
Y157500D01*
Y152500D02*
X88700D01*
X54600Y162500D02*
X58700D01*
X54600Y157500D02*
Y162500D01*
Y157500D02*
X58800D01*
X61300D02*
X65400D01*
Y162500D01*
X61300D02*
X65400D01*
X91300Y142500D02*
X95400D01*
Y147500D01*
X91200D02*
X95400D01*
X84600D02*
X88700D01*
X84600Y142500D02*
Y147500D01*
Y142500D02*
X88700D01*
X54600Y152500D02*
X58700D01*
X54600Y147500D02*
Y152500D01*
Y147500D02*
X58800D01*
X61300D02*
X65400D01*
Y152500D01*
X61300D02*
X65400D01*
X91300Y132500D02*
X95400D01*
Y137500D01*
X91200D02*
X95400D01*
X84600D02*
X88700D01*
X84600Y132500D02*
Y137500D01*
Y132500D02*
X88700D01*
X54600Y142500D02*
X58700D01*
X54600Y137500D02*
Y142500D01*
Y137500D02*
X58800D01*
X61300D02*
X65400D01*
Y142500D01*
X61300D02*
X65400D01*
X54600Y132500D02*
X58700D01*
X54600Y127500D02*
Y132500D01*
Y127500D02*
X58800D01*
X61300D02*
X65400D01*
Y132500D01*
X61300D02*
X65400D01*
X229500Y203300D02*
Y207400D01*
X224500D02*
X229500D01*
X224500Y203200D02*
Y207400D01*
Y196600D02*
Y200700D01*
Y196600D02*
X229500D01*
Y200700D01*
X207500Y196600D02*
Y200700D01*
Y196600D02*
X212500D01*
Y200800D01*
Y203300D02*
Y207400D01*
X207500D02*
X212500D01*
X207500Y203300D02*
Y207400D01*
X54600Y122500D02*
X58700D01*
X54600Y117500D02*
Y122500D01*
Y117500D02*
X58800D01*
X61300D02*
X65400D01*
Y122500D01*
X61300D02*
X65400D01*
X235500Y203300D02*
Y207400D01*
X230500D02*
X235500D01*
X230500Y203200D02*
Y207400D01*
Y196600D02*
Y200700D01*
Y196600D02*
X235500D01*
Y200700D01*
X201500Y196600D02*
Y200700D01*
Y196600D02*
X206500D01*
Y200800D01*
Y203300D02*
Y207400D01*
X201500D02*
X206500D01*
X201500Y203300D02*
Y207400D01*
X241500Y203300D02*
Y207400D01*
X236500D02*
X241500D01*
X236500Y203200D02*
Y207400D01*
Y196600D02*
Y200700D01*
Y196600D02*
X241500D01*
Y200700D01*
X195500Y196600D02*
Y200700D01*
Y196600D02*
X200500D01*
Y200800D01*
Y203300D02*
Y207400D01*
X195500D02*
X200500D01*
X195500Y203300D02*
Y207400D01*
X260300Y178500D02*
X264400D01*
Y183500D01*
X260200D02*
X264400D01*
X253600D02*
X257700D01*
X253600Y178500D02*
Y183500D01*
Y178500D02*
X257700D01*
X178800Y183500D02*
X182900D01*
Y188500D01*
X178700D02*
X182900D01*
X172100D02*
X176200D01*
X172100Y183500D02*
Y188500D01*
Y183500D02*
X176200D01*
X260300Y172500D02*
X264400D01*
Y177500D01*
X260200D02*
X264400D01*
X253600D02*
X257700D01*
X253600Y172500D02*
Y177500D01*
Y172500D02*
X257700D01*
X178800Y177500D02*
X182900D01*
Y182500D01*
X178700D02*
X182900D01*
X172100D02*
X176200D01*
X172100Y177500D02*
Y182500D01*
Y177500D02*
X176200D01*
X260300Y166500D02*
X264400D01*
Y171500D01*
X260200D02*
X264400D01*
X253600D02*
X257700D01*
X253600Y166500D02*
Y171500D01*
Y166500D02*
X257700D01*
X178800Y171500D02*
X182900D01*
Y176500D01*
X178700D02*
X182900D01*
X172100D02*
X176200D01*
X172100Y171500D02*
Y176500D01*
Y171500D02*
X176200D01*
X260300Y160500D02*
X264400D01*
Y165500D01*
X260200D02*
X264400D01*
X253600D02*
X257700D01*
X253600Y160500D02*
Y165500D01*
Y160500D02*
X257700D01*
X178800Y165500D02*
X182900D01*
Y170500D01*
X178700D02*
X182900D01*
X172100D02*
X176200D01*
X172100Y165500D02*
Y170500D01*
Y165500D02*
X176200D01*
X260300Y154500D02*
X264400D01*
Y159500D01*
X260200D02*
X264400D01*
X253600D02*
X257700D01*
X253600Y154500D02*
Y159500D01*
Y154500D02*
X257700D01*
X178800Y159500D02*
X182900D01*
Y164500D01*
X178700D02*
X182900D01*
X172100D02*
X176200D01*
X172100Y159500D02*
Y164500D01*
Y159500D02*
X176200D01*
X239500Y115600D02*
Y119700D01*
Y115600D02*
X244500D01*
Y119800D01*
Y122300D02*
Y126400D01*
X239500D02*
X244500D01*
X239500Y122300D02*
Y126400D01*
X178800Y153500D02*
X182900D01*
Y158500D01*
X178700D02*
X182900D01*
X172100D02*
X176200D01*
X172100Y153500D02*
Y158500D01*
Y153500D02*
X176200D01*
X233500Y115600D02*
Y119700D01*
Y115600D02*
X238500D01*
Y119800D01*
Y122300D02*
Y126400D01*
X233500D02*
X238500D01*
X233500Y122300D02*
Y126400D01*
X178800Y147500D02*
X182900D01*
Y152500D01*
X178700D02*
X182900D01*
X172100D02*
X176200D01*
X172100Y147500D02*
Y152500D01*
Y147500D02*
X176200D01*
X227500Y115600D02*
Y119700D01*
Y115600D02*
X232500D01*
Y119800D01*
Y122300D02*
Y126400D01*
X227500D02*
X232500D01*
X227500Y122300D02*
Y126400D01*
X178800Y141500D02*
X182900D01*
Y146500D01*
X178700D02*
X182900D01*
X172100D02*
X176200D01*
X172100Y141500D02*
Y146500D01*
Y141500D02*
X176200D01*
X221500Y115600D02*
Y119700D01*
Y115600D02*
X226500D01*
Y119800D01*
Y122300D02*
Y126400D01*
X221500D02*
X226500D01*
X221500Y122300D02*
Y126400D01*
X208500Y122300D02*
Y126400D01*
X203500D02*
X208500D01*
X203500Y122200D02*
Y126400D01*
Y115600D02*
Y119700D01*
Y115600D02*
X208500D01*
Y119700D01*
X215500Y115600D02*
Y119700D01*
Y115600D02*
X220500D01*
Y119800D01*
Y122300D02*
Y126400D01*
X215500D02*
X220500D01*
X215500Y122300D02*
Y126400D01*
X209500Y115600D02*
Y119700D01*
Y115600D02*
X214500D01*
Y119800D01*
Y122300D02*
Y126400D01*
X209500D02*
X214500D01*
X209500Y122300D02*
Y126400D01*
X528500Y159300D02*
Y163400D01*
X523500D02*
X528500D01*
X523500Y159200D02*
Y163400D01*
Y152600D02*
Y156700D01*
Y152600D02*
X528500D01*
Y156700D01*
X501300Y107500D02*
X505400D01*
Y112500D01*
X501200D02*
X505400D01*
X494600D02*
X498700D01*
X494600Y107500D02*
Y112500D01*
Y107500D02*
X498700D01*
X361300Y207500D02*
X365400D01*
Y212500D01*
X361200D02*
X365400D01*
X354600D02*
X358700D01*
X354600Y207500D02*
Y212500D01*
Y207500D02*
X358700D01*
X503800Y217500D02*
X507900D01*
Y222500D01*
X503700D02*
X507900D01*
X497100D02*
X501200D01*
X497100Y217500D02*
Y222500D01*
Y217500D02*
X501200D01*
X501300Y117500D02*
X505400D01*
Y122500D01*
X501200D02*
X505400D01*
X494600D02*
X498700D01*
X494600Y117500D02*
Y122500D01*
Y117500D02*
X498700D01*
X361300Y197500D02*
X365400D01*
Y202500D01*
X361200D02*
X365400D01*
X354600D02*
X358700D01*
X354600Y197500D02*
Y202500D01*
Y197500D02*
X358700D01*
X503800Y227500D02*
X507900D01*
Y232500D01*
X503700D02*
X507900D01*
X497100D02*
X501200D01*
X497100Y227500D02*
Y232500D01*
Y227500D02*
X501200D01*
X354600Y152500D02*
X358700D01*
X354600Y147500D02*
Y152500D01*
Y147500D02*
X358800D01*
X361300D02*
X365400D01*
Y152500D01*
X361300D02*
X365400D01*
X471450Y247500D02*
X475550D01*
X471450Y242500D02*
Y247500D01*
Y242500D02*
X475650D01*
X478150D02*
X482250D01*
Y247500D01*
X478150D02*
X482250D01*
X503800Y237500D02*
X507900D01*
Y242500D01*
X503700D02*
X507900D01*
X497100D02*
X501200D01*
X497100Y237500D02*
Y242500D01*
Y237500D02*
X501200D01*
X501300Y97500D02*
X505400D01*
Y102500D01*
X501200D02*
X505400D01*
X494600D02*
X498700D01*
X494600Y97500D02*
Y102500D01*
Y97500D02*
X498700D01*
X471450Y257500D02*
X475550D01*
X471450Y252500D02*
Y257500D01*
Y252500D02*
X475650D01*
X478150D02*
X482250D01*
Y257500D01*
X478150D02*
X482250D01*
X503800Y247500D02*
X507900D01*
Y252500D01*
X503700D02*
X507900D01*
X497100D02*
X501200D01*
X497100Y247500D02*
Y252500D01*
Y247500D02*
X501200D01*
X501300Y77500D02*
X505400D01*
Y82500D01*
X501200D02*
X505400D01*
X494600D02*
X498700D01*
X494600Y77500D02*
Y82500D01*
Y77500D02*
X498700D01*
X361300Y187500D02*
X365400D01*
Y192500D01*
X361200D02*
X365400D01*
X354600D02*
X358700D01*
X354600Y187500D02*
Y192500D01*
Y187500D02*
X358700D01*
X503800Y257500D02*
X507900D01*
Y262500D01*
X503700D02*
X507900D01*
X497100D02*
X501200D01*
X497100Y257500D02*
Y262500D01*
Y257500D02*
X501200D01*
X501300Y87500D02*
X505400D01*
Y92500D01*
X501200D02*
X505400D01*
X494600D02*
X498700D01*
X494600Y87500D02*
Y92500D01*
Y87500D02*
X498700D01*
X361300Y177500D02*
X365400D01*
Y182500D01*
X361200D02*
X365400D01*
X354600D02*
X358700D01*
X354600Y177500D02*
Y182500D01*
Y177500D02*
X358700D01*
X503800Y267500D02*
X507900D01*
Y272500D01*
X503700D02*
X507900D01*
X497100D02*
X501200D01*
X497100Y267500D02*
Y272500D01*
Y267500D02*
X501200D01*
X354600Y162500D02*
X358700D01*
X354600Y157500D02*
Y162500D01*
Y157500D02*
X358800D01*
X361300D02*
X365400D01*
Y162500D01*
X361300D02*
X365400D01*
X361300Y167500D02*
X365400D01*
Y172500D01*
X361200D02*
X365400D01*
X354600D02*
X358700D01*
X354600Y167500D02*
Y172500D01*
Y167500D02*
X358700D01*
X503800Y277500D02*
X507900D01*
Y282500D01*
X503700D02*
X507900D01*
X497100D02*
X501200D01*
X497100Y277500D02*
Y282500D01*
Y277500D02*
X501200D01*
X354600Y92500D02*
X358700D01*
X354600Y87500D02*
Y92500D01*
Y87500D02*
X358800D01*
X361300D02*
X365400D01*
Y92500D01*
X361300D02*
X365400D01*
X361300Y107500D02*
X365400D01*
Y112500D01*
X361200D02*
X365400D01*
X354600D02*
X358700D01*
X354600Y107500D02*
Y112500D01*
Y107500D02*
X358700D01*
X503800Y287500D02*
X507900D01*
Y292500D01*
X503700D02*
X507900D01*
X497100D02*
X501200D01*
X497100Y287500D02*
Y292500D01*
Y287500D02*
X501200D01*
X354600Y82500D02*
X358700D01*
X354600Y77500D02*
Y82500D01*
Y77500D02*
X358800D01*
X361300D02*
X365400D01*
Y82500D01*
X361300D02*
X365400D01*
X354600Y122500D02*
X358700D01*
X354600Y117500D02*
Y122500D01*
Y117500D02*
X358800D01*
X361300D02*
X365400D01*
Y122500D01*
X361300D02*
X365400D01*
X494600Y132500D02*
X498700D01*
X494600Y127500D02*
Y132500D01*
Y127500D02*
X498800D01*
X501300D02*
X505400D01*
Y132500D01*
X501300D02*
X505400D01*
X494600Y72500D02*
X498700D01*
X494600Y67500D02*
Y72500D01*
Y67500D02*
X498800D01*
X501300D02*
X505400D01*
Y72500D01*
X501300D02*
X505400D01*
D13*
X105000Y65000D02*
X125000D01*
X105000Y95000D02*
X125000D01*
Y65000D02*
Y95000D01*
X105000Y65000D02*
Y95000D01*
Y65000D02*
Y84167D01*
X552500Y220000D02*
Y310000D01*
X517500D02*
X552500D01*
X517500Y200000D02*
Y310000D01*
Y200000D02*
X540000D01*
X105945Y264173D02*
X124055D01*
Y235827D02*
Y264173D01*
X105945Y235827D02*
X124055D01*
X105945D02*
Y264173D01*
X97480Y263779D02*
X104567D01*
X217717Y270843D02*
X232283D01*
Y251157D02*
Y270843D01*
X217717Y251157D02*
X232283D01*
X217717D02*
Y270843D01*
X210531Y270941D02*
X216339D01*
X207598Y151598D02*
Y176402D01*
Y151598D02*
X232402D01*
Y176402D01*
X207598D02*
X232402D01*
D14*
X122998Y59668D02*
X122165Y61334D01*
X120499Y63000D01*
X118833D01*
X118000Y62167D01*
Y60501D01*
X118833Y59668D01*
X119666D01*
X120499Y60501D01*
Y63000D01*
X112998Y59668D02*
Y63000D01*
X110499D01*
X111332Y61334D01*
Y60501D01*
X110499Y59668D01*
X108833D01*
X108000Y60501D01*
Y62167D01*
X108833Y63000D01*
X118000Y96668D02*
Y100000D01*
X121332Y96668D01*
X122165D01*
X122998Y97501D01*
Y99167D01*
X122165Y100000D01*
X108000Y98000D02*
Y96334D01*
Y97167D01*
X112998D01*
X112165Y98000D01*
M02*
