G04*
G04 #@! TF.GenerationSoftware,Altium Limited,Altium Designer,22.3.1 (43)*
G04*
G04 Layer_Color=255*
%FSLAX25Y25*%
%MOIN*%
G70*
G04*
G04 #@! TF.SameCoordinates,C488EDB3-D5C6-4A86-98F8-C412E4F75817*
G04*
G04*
G04 #@! TF.FilePolarity,Positive*
G04*
G01*
G75*
%ADD15R,0.03740X0.03150*%
%ADD19R,0.03150X0.03740*%
%ADD40R,0.10000X0.06000*%
%ADD41O,0.10000X0.06000*%
%ADD42C,0.06000*%
%ADD43R,0.06000X0.06000*%
%ADD44R,0.05906X0.05906*%
%ADD45C,0.05906*%
%ADD46R,0.05906X0.05906*%
%ADD47R,0.07087X0.07087*%
%ADD48C,0.07087*%
%ADD49C,0.20000*%
D15*
X375000Y42850D02*
D03*
Y49150D02*
D03*
X369000Y42850D02*
D03*
Y49150D02*
D03*
X245000Y334350D02*
D03*
Y340650D02*
D03*
X269000Y334350D02*
D03*
Y340650D02*
D03*
X220500Y334350D02*
D03*
Y340650D02*
D03*
X208000Y334350D02*
D03*
Y340650D02*
D03*
X193000Y334350D02*
D03*
Y340650D02*
D03*
X164000Y334350D02*
D03*
Y340650D02*
D03*
X179000Y334350D02*
D03*
Y340650D02*
D03*
X86000Y334350D02*
D03*
Y340650D02*
D03*
X96000Y334350D02*
D03*
Y340650D02*
D03*
X76000Y334350D02*
D03*
Y340650D02*
D03*
X126000Y334350D02*
D03*
Y340650D02*
D03*
X106000Y334350D02*
D03*
Y340650D02*
D03*
X116000Y334350D02*
D03*
Y340650D02*
D03*
X136000Y334350D02*
D03*
Y340650D02*
D03*
X146000Y334350D02*
D03*
Y340650D02*
D03*
D19*
X217150Y172000D02*
D03*
X210850D02*
D03*
X222850D02*
D03*
X229150D02*
D03*
X217150Y166000D02*
D03*
X210850D02*
D03*
X222850D02*
D03*
X229150D02*
D03*
X222850Y160000D02*
D03*
X229150D02*
D03*
D40*
X384000Y210000D02*
D03*
D41*
Y200000D02*
D03*
Y190000D02*
D03*
Y180000D02*
D03*
Y170000D02*
D03*
Y160000D02*
D03*
Y150000D02*
D03*
Y140000D02*
D03*
Y130000D02*
D03*
Y120000D02*
D03*
Y110000D02*
D03*
Y100000D02*
D03*
Y90000D02*
D03*
Y80000D02*
D03*
Y70000D02*
D03*
Y60000D02*
D03*
Y50000D02*
D03*
Y40000D02*
D03*
X474000Y210000D02*
D03*
Y200000D02*
D03*
Y190000D02*
D03*
Y180000D02*
D03*
Y170000D02*
D03*
Y160000D02*
D03*
Y150000D02*
D03*
Y140000D02*
D03*
Y130000D02*
D03*
Y120000D02*
D03*
Y110000D02*
D03*
Y100000D02*
D03*
Y90000D02*
D03*
Y80000D02*
D03*
Y70000D02*
D03*
Y60000D02*
D03*
Y50000D02*
D03*
Y40000D02*
D03*
D42*
X30000Y120000D02*
D03*
Y130000D02*
D03*
Y140000D02*
D03*
Y150000D02*
D03*
Y160000D02*
D03*
Y170000D02*
D03*
Y180000D02*
D03*
X20000Y120000D02*
D03*
Y130000D02*
D03*
Y140000D02*
D03*
Y150000D02*
D03*
Y160000D02*
D03*
Y170000D02*
D03*
X30000Y190000D02*
D03*
X20000Y180000D02*
D03*
X390000Y300000D02*
D03*
Y310000D02*
D03*
Y320000D02*
D03*
Y330000D02*
D03*
Y340000D02*
D03*
Y350000D02*
D03*
X350630Y300000D02*
D03*
Y310000D02*
D03*
Y320000D02*
D03*
Y330000D02*
D03*
Y340000D02*
D03*
X460000Y300000D02*
D03*
Y310000D02*
D03*
Y320000D02*
D03*
Y330000D02*
D03*
Y340000D02*
D03*
Y350000D02*
D03*
X420630Y300000D02*
D03*
Y310000D02*
D03*
Y320000D02*
D03*
Y330000D02*
D03*
Y340000D02*
D03*
D43*
X20000Y190000D02*
D03*
X350630Y350000D02*
D03*
X420630D02*
D03*
D44*
X110000Y90000D02*
D03*
D45*
X120000D02*
D03*
X110000Y80000D02*
D03*
X120000D02*
D03*
X110000Y70000D02*
D03*
X120000D02*
D03*
D46*
X257000Y335000D02*
D03*
X59000Y85000D02*
D03*
X165000Y80000D02*
D03*
X59000Y65000D02*
D03*
X260000Y205000D02*
D03*
X304000Y190000D02*
D03*
Y172000D02*
D03*
Y154000D02*
D03*
Y136000D02*
D03*
X130000Y166000D02*
D03*
Y148000D02*
D03*
X164000Y260000D02*
D03*
Y240000D02*
D03*
X295000D02*
D03*
X315000Y230000D02*
D03*
X295000Y260000D02*
D03*
X315000Y250000D02*
D03*
X295000Y280000D02*
D03*
X315000Y270000D02*
D03*
D47*
X540000Y220000D02*
D03*
D48*
X530000D02*
D03*
X540000Y230000D02*
D03*
X530000D02*
D03*
X540000Y240000D02*
D03*
X530000D02*
D03*
X540000Y250000D02*
D03*
X530000D02*
D03*
X540000Y260000D02*
D03*
X530000D02*
D03*
X540000Y270000D02*
D03*
X530000D02*
D03*
X540000Y280000D02*
D03*
X530000D02*
D03*
X540000Y290000D02*
D03*
X530000D02*
D03*
D49*
X540000Y380000D02*
D03*
Y20000D02*
D03*
X20000Y380000D02*
D03*
Y20000D02*
D03*
M02*
