G04*
G04 #@! TF.GenerationSoftware,Altium Limited,Altium Designer,22.3.1 (43)*
G04*
G04 Layer_Color=32896*
%FSLAX25Y25*%
%MOIN*%
G70*
G04*
G04 #@! TF.SameCoordinates,C488EDB3-D5C6-4A86-98F8-C412E4F75817*
G04*
G04*
G04 #@! TF.FilePolarity,Positive*
G04*
G01*
G75*
%ADD63C,0.00197*%
D63*
X282953Y45291D02*
Y56709D01*
X277047Y45291D02*
X282953D01*
X277047D02*
Y56709D01*
X282953D01*
X296953Y45291D02*
Y56709D01*
X291047Y45291D02*
X296953D01*
X291047D02*
Y56709D01*
X296953D01*
X516516Y199016D02*
X553484D01*
X516516D02*
Y310984D01*
X553484D01*
Y199016D02*
Y310984D01*
X96496Y265748D02*
X133504D01*
Y234252D02*
Y265748D01*
X96496Y234252D02*
X133504D01*
X96496D02*
Y265748D01*
X209547Y272024D02*
X240453D01*
Y249976D02*
Y272024D01*
X209547Y249976D02*
X240453D01*
X209547D02*
Y272024D01*
X372047Y51709D02*
X377953D01*
Y40291D02*
Y51709D01*
X372047Y40291D02*
X377953D01*
X372047D02*
Y51709D01*
X366047D02*
X371953D01*
Y40291D02*
Y51709D01*
X366047Y40291D02*
X371953D01*
X366047D02*
Y51709D01*
X253291Y137047D02*
Y142953D01*
Y137047D02*
X264709D01*
Y142953D01*
X253291D02*
X264709D01*
X208291Y169047D02*
Y174953D01*
X219709D01*
Y169047D02*
Y174953D01*
X208291Y169047D02*
X219709D01*
X231709D02*
Y174953D01*
X220291Y169047D02*
X231709D01*
X220291D02*
Y174953D01*
X231709D01*
X208291Y163047D02*
Y168953D01*
X219709D01*
Y163047D02*
Y168953D01*
X208291Y163047D02*
X219709D01*
X231709D02*
Y168953D01*
X220291Y163047D02*
X231709D01*
X220291D02*
Y168953D01*
X231709D01*
Y157047D02*
Y162953D01*
X220291Y157047D02*
X231709D01*
X220291D02*
Y162953D01*
X231709D01*
X242047Y343209D02*
X247953D01*
Y331791D02*
Y343209D01*
X242047Y331791D02*
X247953D01*
X242047D02*
Y343209D01*
X266047D02*
X271953D01*
Y331791D02*
Y343209D01*
X266047Y331791D02*
X271953D01*
X266047D02*
Y343209D01*
X217547D02*
X223453D01*
Y331791D02*
Y343209D01*
X217547Y331791D02*
X223453D01*
X217547D02*
Y343209D01*
X205047D02*
X210953D01*
Y331791D02*
Y343209D01*
X205047Y331791D02*
X210953D01*
X205047D02*
Y343209D01*
X190047D02*
X195953D01*
Y331791D02*
Y343209D01*
X190047Y331791D02*
X195953D01*
X190047D02*
Y343209D01*
X161047D02*
X166953D01*
Y331791D02*
Y343209D01*
X161047Y331791D02*
X166953D01*
X161047D02*
Y343209D01*
X176047D02*
X181953D01*
Y331791D02*
Y343209D01*
X176047Y331791D02*
X181953D01*
X176047D02*
Y343209D01*
X83047D02*
X88953D01*
Y331791D02*
Y343209D01*
X83047Y331791D02*
X88953D01*
X83047D02*
Y343209D01*
X93047D02*
X98953D01*
Y331791D02*
Y343209D01*
X93047Y331791D02*
X98953D01*
X93047D02*
Y343209D01*
X73047D02*
X78953D01*
Y331791D02*
Y343209D01*
X73047Y331791D02*
X78953D01*
X73047D02*
Y343209D01*
X123047D02*
X128953D01*
Y331791D02*
Y343209D01*
X123047Y331791D02*
X128953D01*
X123047D02*
Y343209D01*
X103047D02*
X108953D01*
Y331791D02*
Y343209D01*
X103047Y331791D02*
X108953D01*
X103047D02*
Y343209D01*
X113047D02*
X118953D01*
Y331791D02*
Y343209D01*
X113047Y331791D02*
X118953D01*
X113047D02*
Y343209D01*
X133047D02*
X138953D01*
Y331791D02*
Y343209D01*
X133047Y331791D02*
X138953D01*
X133047D02*
Y343209D01*
X143047D02*
X148953D01*
Y331791D02*
Y343209D01*
X143047Y331791D02*
X148953D01*
X143047D02*
Y343209D01*
X161047Y299291D02*
Y310709D01*
X166953D01*
Y299291D02*
Y310709D01*
X161047Y299291D02*
X166953D01*
X176047D02*
Y310709D01*
X181953D01*
Y299291D02*
Y310709D01*
X176047Y299291D02*
X181953D01*
X190047D02*
Y310709D01*
X195953D01*
Y299291D02*
Y310709D01*
X190047Y299291D02*
X195953D01*
X189291Y272953D02*
X200709D01*
Y267047D02*
Y272953D01*
X189291Y267047D02*
X200709D01*
X189291D02*
Y272953D01*
Y247047D02*
X200709D01*
X189291D02*
Y252953D01*
X200709D01*
Y247047D02*
Y252953D01*
X189291Y262953D02*
X200709D01*
Y257047D02*
Y262953D01*
X189291Y257047D02*
X200709D01*
X189291D02*
Y262953D01*
X253291Y248953D02*
X264709D01*
Y243047D02*
Y248953D01*
X253291Y243047D02*
X264709D01*
X253291D02*
Y248953D01*
Y249047D02*
X264709D01*
X253291D02*
Y254953D01*
X264709D01*
Y249047D02*
Y254953D01*
X253291Y260953D02*
X264709D01*
Y255047D02*
Y260953D01*
X253291Y255047D02*
X264709D01*
X253291D02*
Y260953D01*
Y261047D02*
X264709D01*
X253291D02*
Y266953D01*
X264709D01*
Y261047D02*
Y266953D01*
X253291Y272953D02*
X264709D01*
Y267047D02*
Y272953D01*
X253291Y267047D02*
X264709D01*
X253291D02*
Y272953D01*
Y273047D02*
X264709D01*
X253291D02*
Y278953D01*
X264709D01*
Y273047D02*
Y278953D01*
X81291Y92953D02*
X92709D01*
Y87047D02*
Y92953D01*
X81291Y87047D02*
X92709D01*
X81291D02*
Y92953D01*
X54291Y187047D02*
X65709D01*
X54291D02*
Y192953D01*
X65709D01*
Y187047D02*
Y192953D01*
X135291Y82953D02*
X146709D01*
Y77047D02*
Y82953D01*
X135291Y77047D02*
X146709D01*
X135291D02*
Y82953D01*
X81291D02*
X92709D01*
Y77047D02*
Y82953D01*
X81291Y77047D02*
X92709D01*
X81291D02*
Y82953D01*
X54291Y177047D02*
X65709D01*
X54291D02*
Y182953D01*
X65709D01*
Y177047D02*
Y182953D01*
X81291Y72953D02*
X92709D01*
Y67047D02*
Y72953D01*
X81291Y67047D02*
X92709D01*
X81291D02*
Y72953D01*
X84291Y167953D02*
X95709D01*
Y162047D02*
Y167953D01*
X84291Y162047D02*
X95709D01*
X84291D02*
Y167953D01*
X54291Y167047D02*
X65709D01*
X54291D02*
Y172953D01*
X65709D01*
Y167047D02*
Y172953D01*
X84291Y157953D02*
X95709D01*
Y152047D02*
Y157953D01*
X84291Y152047D02*
X95709D01*
X84291D02*
Y157953D01*
X54291Y157047D02*
X65709D01*
X54291D02*
Y162953D01*
X65709D01*
Y157047D02*
Y162953D01*
X84291Y147953D02*
X95709D01*
Y142047D02*
Y147953D01*
X84291Y142047D02*
X95709D01*
X84291D02*
Y147953D01*
X54291Y147047D02*
X65709D01*
X54291D02*
Y152953D01*
X65709D01*
Y147047D02*
Y152953D01*
X84291Y137953D02*
X95709D01*
Y132047D02*
Y137953D01*
X84291Y132047D02*
X95709D01*
X84291D02*
Y137953D01*
X54291Y137047D02*
X65709D01*
X54291D02*
Y142953D01*
X65709D01*
Y137047D02*
Y142953D01*
X54291Y127047D02*
X65709D01*
X54291D02*
Y132953D01*
X65709D01*
Y127047D02*
Y132953D01*
X224047Y196291D02*
Y207709D01*
X229953D01*
Y196291D02*
Y207709D01*
X224047Y196291D02*
X229953D01*
X212953D02*
Y207709D01*
X207047Y196291D02*
X212953D01*
X207047D02*
Y207709D01*
X212953D01*
X54291Y117047D02*
X65709D01*
X54291D02*
Y122953D01*
X65709D01*
Y117047D02*
Y122953D01*
X230047Y196291D02*
Y207709D01*
X235953D01*
Y196291D02*
Y207709D01*
X230047Y196291D02*
X235953D01*
X206953D02*
Y207709D01*
X201047Y196291D02*
X206953D01*
X201047D02*
Y207709D01*
X206953D01*
X236047Y196291D02*
Y207709D01*
X241953D01*
Y196291D02*
Y207709D01*
X236047Y196291D02*
X241953D01*
X200953D02*
Y207709D01*
X195047Y196291D02*
X200953D01*
X195047D02*
Y207709D01*
X200953D01*
X253291Y183953D02*
X264709D01*
Y178047D02*
Y183953D01*
X253291Y178047D02*
X264709D01*
X253291D02*
Y183953D01*
X171791Y188953D02*
X183209D01*
Y183047D02*
Y188953D01*
X171791Y183047D02*
X183209D01*
X171791D02*
Y188953D01*
X253291Y177953D02*
X264709D01*
Y172047D02*
Y177953D01*
X253291Y172047D02*
X264709D01*
X253291D02*
Y177953D01*
X171791Y182953D02*
X183209D01*
Y177047D02*
Y182953D01*
X171791Y177047D02*
X183209D01*
X171791D02*
Y182953D01*
X253291Y171953D02*
X264709D01*
Y166047D02*
Y171953D01*
X253291Y166047D02*
X264709D01*
X253291D02*
Y171953D01*
X171791Y176953D02*
X183209D01*
Y171047D02*
Y176953D01*
X171791Y171047D02*
X183209D01*
X171791D02*
Y176953D01*
X253291Y165953D02*
X264709D01*
Y160047D02*
Y165953D01*
X253291Y160047D02*
X264709D01*
X253291D02*
Y165953D01*
X171791Y170953D02*
X183209D01*
Y165047D02*
Y170953D01*
X171791Y165047D02*
X183209D01*
X171791D02*
Y170953D01*
X253291Y159953D02*
X264709D01*
Y154047D02*
Y159953D01*
X253291Y154047D02*
X264709D01*
X253291D02*
Y159953D01*
X171791Y164953D02*
X183209D01*
Y159047D02*
Y164953D01*
X171791Y159047D02*
X183209D01*
X171791D02*
Y164953D01*
X244953Y115291D02*
Y126709D01*
X239047Y115291D02*
X244953D01*
X239047D02*
Y126709D01*
X244953D01*
X171791Y158953D02*
X183209D01*
Y153047D02*
Y158953D01*
X171791Y153047D02*
X183209D01*
X171791D02*
Y158953D01*
X238953Y115291D02*
Y126709D01*
X233047Y115291D02*
X238953D01*
X233047D02*
Y126709D01*
X238953D01*
X171791Y152953D02*
X183209D01*
Y147047D02*
Y152953D01*
X171791Y147047D02*
X183209D01*
X171791D02*
Y152953D01*
X232953Y115291D02*
Y126709D01*
X227047Y115291D02*
X232953D01*
X227047D02*
Y126709D01*
X232953D01*
X171791Y146953D02*
X183209D01*
Y141047D02*
Y146953D01*
X171791Y141047D02*
X183209D01*
X171791D02*
Y146953D01*
X226953Y115291D02*
Y126709D01*
X221047Y115291D02*
X226953D01*
X221047D02*
Y126709D01*
X226953D01*
X203047Y115291D02*
Y126709D01*
X208953D01*
Y115291D02*
Y126709D01*
X203047Y115291D02*
X208953D01*
X220953D02*
Y126709D01*
X215047Y115291D02*
X220953D01*
X215047D02*
Y126709D01*
X220953D01*
X214953Y115291D02*
Y126709D01*
X209047Y115291D02*
X214953D01*
X209047D02*
Y126709D01*
X214953D01*
X523047Y152291D02*
Y163709D01*
X528953D01*
Y152291D02*
Y163709D01*
X523047Y152291D02*
X528953D01*
X494291Y112953D02*
X505709D01*
Y107047D02*
Y112953D01*
X494291Y107047D02*
X505709D01*
X494291D02*
Y112953D01*
X354291Y212953D02*
X365709D01*
Y207047D02*
Y212953D01*
X354291Y207047D02*
X365709D01*
X354291D02*
Y212953D01*
X496791Y222953D02*
X508209D01*
Y217047D02*
Y222953D01*
X496791Y217047D02*
X508209D01*
X496791D02*
Y222953D01*
X494291Y122953D02*
X505709D01*
Y117047D02*
Y122953D01*
X494291Y117047D02*
X505709D01*
X494291D02*
Y122953D01*
X354291Y202953D02*
X365709D01*
Y197047D02*
Y202953D01*
X354291Y197047D02*
X365709D01*
X354291D02*
Y202953D01*
X496791Y232953D02*
X508209D01*
Y227047D02*
Y232953D01*
X496791Y227047D02*
X508209D01*
X496791D02*
Y232953D01*
X354291Y147047D02*
X365709D01*
X354291D02*
Y152953D01*
X365709D01*
Y147047D02*
Y152953D01*
X471142Y242047D02*
X482559D01*
X471142D02*
Y247953D01*
X482559D01*
Y242047D02*
Y247953D01*
X496791Y242953D02*
X508209D01*
Y237047D02*
Y242953D01*
X496791Y237047D02*
X508209D01*
X496791D02*
Y242953D01*
X494291Y102953D02*
X505709D01*
Y97047D02*
Y102953D01*
X494291Y97047D02*
X505709D01*
X494291D02*
Y102953D01*
X471142Y252047D02*
X482559D01*
X471142D02*
Y257953D01*
X482559D01*
Y252047D02*
Y257953D01*
X496791Y252953D02*
X508209D01*
Y247047D02*
Y252953D01*
X496791Y247047D02*
X508209D01*
X496791D02*
Y252953D01*
X494291Y82953D02*
X505709D01*
Y77047D02*
Y82953D01*
X494291Y77047D02*
X505709D01*
X494291D02*
Y82953D01*
X354291Y192953D02*
X365709D01*
Y187047D02*
Y192953D01*
X354291Y187047D02*
X365709D01*
X354291D02*
Y192953D01*
X496791Y262953D02*
X508209D01*
Y257047D02*
Y262953D01*
X496791Y257047D02*
X508209D01*
X496791D02*
Y262953D01*
X494291Y92953D02*
X505709D01*
Y87047D02*
Y92953D01*
X494291Y87047D02*
X505709D01*
X494291D02*
Y92953D01*
X354291Y182953D02*
X365709D01*
Y177047D02*
Y182953D01*
X354291Y177047D02*
X365709D01*
X354291D02*
Y182953D01*
X496791Y272953D02*
X508209D01*
Y267047D02*
Y272953D01*
X496791Y267047D02*
X508209D01*
X496791D02*
Y272953D01*
X354291Y157047D02*
X365709D01*
X354291D02*
Y162953D01*
X365709D01*
Y157047D02*
Y162953D01*
X354291Y172953D02*
X365709D01*
Y167047D02*
Y172953D01*
X354291Y167047D02*
X365709D01*
X354291D02*
Y172953D01*
X496791Y282953D02*
X508209D01*
Y277047D02*
Y282953D01*
X496791Y277047D02*
X508209D01*
X496791D02*
Y282953D01*
X354291Y87047D02*
X365709D01*
X354291D02*
Y92953D01*
X365709D01*
Y87047D02*
Y92953D01*
X354291Y112953D02*
X365709D01*
Y107047D02*
Y112953D01*
X354291Y107047D02*
X365709D01*
X354291D02*
Y112953D01*
X496791Y292953D02*
X508209D01*
Y287047D02*
Y292953D01*
X496791Y287047D02*
X508209D01*
X496791D02*
Y292953D01*
X354291Y77047D02*
X365709D01*
X354291D02*
Y82953D01*
X365709D01*
Y77047D02*
Y82953D01*
X354291Y117047D02*
X365709D01*
X354291D02*
Y122953D01*
X365709D01*
Y117047D02*
Y122953D01*
X494291Y127047D02*
X505709D01*
X494291D02*
Y132953D01*
X505709D01*
Y127047D02*
Y132953D01*
X494291Y67047D02*
X505709D01*
X494291D02*
Y72953D01*
X505709D01*
Y67047D02*
Y72953D01*
M02*
