G04*
G04 #@! TF.GenerationSoftware,Altium Limited,Altium Designer,22.3.1 (43)*
G04*
G04 Layer_Color=32768*
%FSLAX25Y25*%
%MOIN*%
G70*
G04*
G04 #@! TF.SameCoordinates,C488EDB3-D5C6-4A86-98F8-C412E4F75817*
G04*
G04*
G04 #@! TF.FilePolarity,Positive*
G04*
G01*
G75*
%ADD62C,0.00394*%
%ADD63C,0.00197*%
D62*
X281575Y47850D02*
Y54150D01*
X278425Y47850D02*
X281575D01*
X278425D02*
Y54150D01*
X281575D01*
X295575Y47850D02*
Y54150D01*
X292425Y47850D02*
X295575D01*
X292425D02*
Y54150D01*
X295575D01*
X517500Y200000D02*
X553000D01*
X517500D02*
Y310000D01*
X553000D01*
Y200000D02*
Y310000D01*
X104567Y264173D02*
X125433D01*
Y235827D02*
Y264173D01*
X104567Y235827D02*
X125433D01*
X104567D02*
Y264173D01*
Y261614D02*
X107126Y264173D01*
X216339Y270843D02*
X233661D01*
Y251157D02*
Y270843D01*
X216339Y251157D02*
X233661D01*
X216339D02*
Y270843D01*
Y268284D02*
X218898Y270843D01*
X373425Y49150D02*
X376575D01*
Y42850D02*
Y49150D01*
X373425Y42850D02*
X376575D01*
X373425D02*
Y49150D01*
X367425D02*
X370575D01*
Y42850D02*
Y49150D01*
X367425Y42850D02*
X370575D01*
X367425D02*
Y49150D01*
X255850Y138425D02*
Y141575D01*
Y138425D02*
X262150D01*
Y141575D01*
X255850D02*
X262150D01*
X210850Y170425D02*
Y173575D01*
X217150D01*
Y170425D02*
Y173575D01*
X210850Y170425D02*
X217150D01*
X229150D02*
Y173575D01*
X222850Y170425D02*
X229150D01*
X222850D02*
Y173575D01*
X229150D01*
X210850Y164425D02*
Y167575D01*
X217150D01*
Y164425D02*
Y167575D01*
X210850Y164425D02*
X217150D01*
X229150D02*
Y167575D01*
X222850Y164425D02*
X229150D01*
X222850D02*
Y167575D01*
X229150D01*
Y158425D02*
Y161575D01*
X222850Y158425D02*
X229150D01*
X222850D02*
Y161575D01*
X229150D01*
X243425Y340650D02*
X246575D01*
Y334350D02*
Y340650D01*
X243425Y334350D02*
X246575D01*
X243425D02*
Y340650D01*
X267425D02*
X270575D01*
Y334350D02*
Y340650D01*
X267425Y334350D02*
X270575D01*
X267425D02*
Y340650D01*
X218925D02*
X222075D01*
Y334350D02*
Y340650D01*
X218925Y334350D02*
X222075D01*
X218925D02*
Y340650D01*
X206425D02*
X209575D01*
Y334350D02*
Y340650D01*
X206425Y334350D02*
X209575D01*
X206425D02*
Y340650D01*
X191425D02*
X194575D01*
Y334350D02*
Y340650D01*
X191425Y334350D02*
X194575D01*
X191425D02*
Y340650D01*
X162425D02*
X165575D01*
Y334350D02*
Y340650D01*
X162425Y334350D02*
X165575D01*
X162425D02*
Y340650D01*
X177425D02*
X180575D01*
Y334350D02*
Y340650D01*
X177425Y334350D02*
X180575D01*
X177425D02*
Y340650D01*
X84425D02*
X87575D01*
Y334350D02*
Y340650D01*
X84425Y334350D02*
X87575D01*
X84425D02*
Y340650D01*
X94425D02*
X97575D01*
Y334350D02*
Y340650D01*
X94425Y334350D02*
X97575D01*
X94425D02*
Y340650D01*
X74425D02*
X77575D01*
Y334350D02*
Y340650D01*
X74425Y334350D02*
X77575D01*
X74425D02*
Y340650D01*
X124425D02*
X127575D01*
Y334350D02*
Y340650D01*
X124425Y334350D02*
X127575D01*
X124425D02*
Y340650D01*
X104425D02*
X107575D01*
Y334350D02*
Y340650D01*
X104425Y334350D02*
X107575D01*
X104425D02*
Y340650D01*
X114425D02*
X117575D01*
Y334350D02*
Y340650D01*
X114425Y334350D02*
X117575D01*
X114425D02*
Y340650D01*
X134425D02*
X137575D01*
Y334350D02*
Y340650D01*
X134425Y334350D02*
X137575D01*
X134425D02*
Y340650D01*
X144425D02*
X147575D01*
Y334350D02*
Y340650D01*
X144425Y334350D02*
X147575D01*
X144425D02*
Y340650D01*
X162425Y301850D02*
Y308150D01*
X165575D01*
Y301850D02*
Y308150D01*
X162425Y301850D02*
X165575D01*
X177425D02*
Y308150D01*
X180575D01*
Y301850D02*
Y308150D01*
X177425Y301850D02*
X180575D01*
X191425D02*
Y308150D01*
X194575D01*
Y301850D02*
Y308150D01*
X191425Y301850D02*
X194575D01*
X191850Y271575D02*
X198150D01*
Y268425D02*
Y271575D01*
X191850Y268425D02*
X198150D01*
X191850D02*
Y271575D01*
Y248425D02*
X198150D01*
X191850D02*
Y251575D01*
X198150D01*
Y248425D02*
Y251575D01*
X191850Y261575D02*
X198150D01*
Y258425D02*
Y261575D01*
X191850Y258425D02*
X198150D01*
X191850D02*
Y261575D01*
X255850Y247575D02*
X262150D01*
Y244425D02*
Y247575D01*
X255850Y244425D02*
X262150D01*
X255850D02*
Y247575D01*
Y250425D02*
X262150D01*
X255850D02*
Y253575D01*
X262150D01*
Y250425D02*
Y253575D01*
X255850Y259575D02*
X262150D01*
Y256425D02*
Y259575D01*
X255850Y256425D02*
X262150D01*
X255850D02*
Y259575D01*
Y262425D02*
X262150D01*
X255850D02*
Y265575D01*
X262150D01*
Y262425D02*
Y265575D01*
X255850Y271575D02*
X262150D01*
Y268425D02*
Y271575D01*
X255850Y268425D02*
X262150D01*
X255850D02*
Y271575D01*
Y274425D02*
X262150D01*
X255850D02*
Y277575D01*
X262150D01*
Y274425D02*
Y277575D01*
X83850Y91575D02*
X90150D01*
Y88425D02*
Y91575D01*
X83850Y88425D02*
X90150D01*
X83850D02*
Y91575D01*
X56850Y188425D02*
X63150D01*
X56850D02*
Y191575D01*
X63150D01*
Y188425D02*
Y191575D01*
X137850Y81575D02*
X144150D01*
Y78425D02*
Y81575D01*
X137850Y78425D02*
X144150D01*
X137850D02*
Y81575D01*
X83850D02*
X90150D01*
Y78425D02*
Y81575D01*
X83850Y78425D02*
X90150D01*
X83850D02*
Y81575D01*
X56850Y178425D02*
X63150D01*
X56850D02*
Y181575D01*
X63150D01*
Y178425D02*
Y181575D01*
X83850Y71575D02*
X90150D01*
Y68425D02*
Y71575D01*
X83850Y68425D02*
X90150D01*
X83850D02*
Y71575D01*
X86850Y166575D02*
X93150D01*
Y163425D02*
Y166575D01*
X86850Y163425D02*
X93150D01*
X86850D02*
Y166575D01*
X56850Y168425D02*
X63150D01*
X56850D02*
Y171575D01*
X63150D01*
Y168425D02*
Y171575D01*
X86850Y156575D02*
X93150D01*
Y153425D02*
Y156575D01*
X86850Y153425D02*
X93150D01*
X86850D02*
Y156575D01*
X56850Y158425D02*
X63150D01*
X56850D02*
Y161575D01*
X63150D01*
Y158425D02*
Y161575D01*
X86850Y146575D02*
X93150D01*
Y143425D02*
Y146575D01*
X86850Y143425D02*
X93150D01*
X86850D02*
Y146575D01*
X56850Y148425D02*
X63150D01*
X56850D02*
Y151575D01*
X63150D01*
Y148425D02*
Y151575D01*
X86850Y136575D02*
X93150D01*
Y133425D02*
Y136575D01*
X86850Y133425D02*
X93150D01*
X86850D02*
Y136575D01*
X56850Y138425D02*
X63150D01*
X56850D02*
Y141575D01*
X63150D01*
Y138425D02*
Y141575D01*
X56850Y128425D02*
X63150D01*
X56850D02*
Y131575D01*
X63150D01*
Y128425D02*
Y131575D01*
X225425Y198850D02*
Y205150D01*
X228575D01*
Y198850D02*
Y205150D01*
X225425Y198850D02*
X228575D01*
X211575D02*
Y205150D01*
X208425Y198850D02*
X211575D01*
X208425D02*
Y205150D01*
X211575D01*
X56850Y118425D02*
X63150D01*
X56850D02*
Y121575D01*
X63150D01*
Y118425D02*
Y121575D01*
X231425Y198850D02*
Y205150D01*
X234575D01*
Y198850D02*
Y205150D01*
X231425Y198850D02*
X234575D01*
X205575D02*
Y205150D01*
X202425Y198850D02*
X205575D01*
X202425D02*
Y205150D01*
X205575D01*
X237425Y198850D02*
Y205150D01*
X240575D01*
Y198850D02*
Y205150D01*
X237425Y198850D02*
X240575D01*
X199575D02*
Y205150D01*
X196425Y198850D02*
X199575D01*
X196425D02*
Y205150D01*
X199575D01*
X255850Y182575D02*
X262150D01*
Y179425D02*
Y182575D01*
X255850Y179425D02*
X262150D01*
X255850D02*
Y182575D01*
X174350Y187575D02*
X180650D01*
Y184425D02*
Y187575D01*
X174350Y184425D02*
X180650D01*
X174350D02*
Y187575D01*
X255850Y176575D02*
X262150D01*
Y173425D02*
Y176575D01*
X255850Y173425D02*
X262150D01*
X255850D02*
Y176575D01*
X174350Y181575D02*
X180650D01*
Y178425D02*
Y181575D01*
X174350Y178425D02*
X180650D01*
X174350D02*
Y181575D01*
X255850Y170575D02*
X262150D01*
Y167425D02*
Y170575D01*
X255850Y167425D02*
X262150D01*
X255850D02*
Y170575D01*
X174350Y175575D02*
X180650D01*
Y172425D02*
Y175575D01*
X174350Y172425D02*
X180650D01*
X174350D02*
Y175575D01*
X255850Y164575D02*
X262150D01*
Y161425D02*
Y164575D01*
X255850Y161425D02*
X262150D01*
X255850D02*
Y164575D01*
X174350Y169575D02*
X180650D01*
Y166425D02*
Y169575D01*
X174350Y166425D02*
X180650D01*
X174350D02*
Y169575D01*
X255850Y158575D02*
X262150D01*
Y155425D02*
Y158575D01*
X255850Y155425D02*
X262150D01*
X255850D02*
Y158575D01*
X174350Y163575D02*
X180650D01*
Y160425D02*
Y163575D01*
X174350Y160425D02*
X180650D01*
X174350D02*
Y163575D01*
X243575Y117850D02*
Y124150D01*
X240425Y117850D02*
X243575D01*
X240425D02*
Y124150D01*
X243575D01*
X174350Y157575D02*
X180650D01*
Y154425D02*
Y157575D01*
X174350Y154425D02*
X180650D01*
X174350D02*
Y157575D01*
X237575Y117850D02*
Y124150D01*
X234425Y117850D02*
X237575D01*
X234425D02*
Y124150D01*
X237575D01*
X174350Y151575D02*
X180650D01*
Y148425D02*
Y151575D01*
X174350Y148425D02*
X180650D01*
X174350D02*
Y151575D01*
X231575Y117850D02*
Y124150D01*
X228425Y117850D02*
X231575D01*
X228425D02*
Y124150D01*
X231575D01*
X174350Y145575D02*
X180650D01*
Y142425D02*
Y145575D01*
X174350Y142425D02*
X180650D01*
X174350D02*
Y145575D01*
X225575Y117850D02*
Y124150D01*
X222425Y117850D02*
X225575D01*
X222425D02*
Y124150D01*
X225575D01*
X204425Y117850D02*
Y124150D01*
X207575D01*
Y117850D02*
Y124150D01*
X204425Y117850D02*
X207575D01*
X219575D02*
Y124150D01*
X216425Y117850D02*
X219575D01*
X216425D02*
Y124150D01*
X219575D01*
X213575Y117850D02*
Y124150D01*
X210425Y117850D02*
X213575D01*
X210425D02*
Y124150D01*
X213575D01*
X524425Y154850D02*
Y161150D01*
X527575D01*
Y154850D02*
Y161150D01*
X524425Y154850D02*
X527575D01*
X496850Y111575D02*
X503150D01*
Y108425D02*
Y111575D01*
X496850Y108425D02*
X503150D01*
X496850D02*
Y111575D01*
X356850Y211575D02*
X363150D01*
Y208425D02*
Y211575D01*
X356850Y208425D02*
X363150D01*
X356850D02*
Y211575D01*
X499350Y221575D02*
X505650D01*
Y218425D02*
Y221575D01*
X499350Y218425D02*
X505650D01*
X499350D02*
Y221575D01*
X496850Y121575D02*
X503150D01*
Y118425D02*
Y121575D01*
X496850Y118425D02*
X503150D01*
X496850D02*
Y121575D01*
X356850Y201575D02*
X363150D01*
Y198425D02*
Y201575D01*
X356850Y198425D02*
X363150D01*
X356850D02*
Y201575D01*
X499350Y231575D02*
X505650D01*
Y228425D02*
Y231575D01*
X499350Y228425D02*
X505650D01*
X499350D02*
Y231575D01*
X356850Y148425D02*
X363150D01*
X356850D02*
Y151575D01*
X363150D01*
Y148425D02*
Y151575D01*
X473701Y243425D02*
X480000D01*
X473701D02*
Y246575D01*
X480000D01*
Y243425D02*
Y246575D01*
X499350Y241575D02*
X505650D01*
Y238425D02*
Y241575D01*
X499350Y238425D02*
X505650D01*
X499350D02*
Y241575D01*
X496850Y101575D02*
X503150D01*
Y98425D02*
Y101575D01*
X496850Y98425D02*
X503150D01*
X496850D02*
Y101575D01*
X473701Y253425D02*
X480000D01*
X473701D02*
Y256575D01*
X480000D01*
Y253425D02*
Y256575D01*
X499350Y251575D02*
X505650D01*
Y248425D02*
Y251575D01*
X499350Y248425D02*
X505650D01*
X499350D02*
Y251575D01*
X496850Y81575D02*
X503150D01*
Y78425D02*
Y81575D01*
X496850Y78425D02*
X503150D01*
X496850D02*
Y81575D01*
X356850Y191575D02*
X363150D01*
Y188425D02*
Y191575D01*
X356850Y188425D02*
X363150D01*
X356850D02*
Y191575D01*
X499350Y261575D02*
X505650D01*
Y258425D02*
Y261575D01*
X499350Y258425D02*
X505650D01*
X499350D02*
Y261575D01*
X496850Y91575D02*
X503150D01*
Y88425D02*
Y91575D01*
X496850Y88425D02*
X503150D01*
X496850D02*
Y91575D01*
X356850Y181575D02*
X363150D01*
Y178425D02*
Y181575D01*
X356850Y178425D02*
X363150D01*
X356850D02*
Y181575D01*
X499350Y271575D02*
X505650D01*
Y268425D02*
Y271575D01*
X499350Y268425D02*
X505650D01*
X499350D02*
Y271575D01*
X356850Y158425D02*
X363150D01*
X356850D02*
Y161575D01*
X363150D01*
Y158425D02*
Y161575D01*
X356850Y171575D02*
X363150D01*
Y168425D02*
Y171575D01*
X356850Y168425D02*
X363150D01*
X356850D02*
Y171575D01*
X499350Y281575D02*
X505650D01*
Y278425D02*
Y281575D01*
X499350Y278425D02*
X505650D01*
X499350D02*
Y281575D01*
X356850Y88425D02*
X363150D01*
X356850D02*
Y91575D01*
X363150D01*
Y88425D02*
Y91575D01*
X356850Y111575D02*
X363150D01*
Y108425D02*
Y111575D01*
X356850Y108425D02*
X363150D01*
X356850D02*
Y111575D01*
X499350Y291575D02*
X505650D01*
Y288425D02*
Y291575D01*
X499350Y288425D02*
X505650D01*
X499350D02*
Y291575D01*
X356850Y78425D02*
X363150D01*
X356850D02*
Y81575D01*
X363150D01*
Y78425D02*
Y81575D01*
X356850Y118425D02*
X363150D01*
X356850D02*
Y121575D01*
X363150D01*
Y118425D02*
Y121575D01*
X496850Y128425D02*
X503150D01*
X496850D02*
Y131575D01*
X503150D01*
Y128425D02*
Y131575D01*
X496850Y68425D02*
X503150D01*
X496850D02*
Y71575D01*
X503150D01*
Y68425D02*
Y71575D01*
D63*
X199429Y143429D02*
Y184571D01*
Y143429D02*
X240571D01*
Y184571D01*
X199429D02*
X240571D01*
M02*
