G04*
G04 #@! TF.GenerationSoftware,Altium Limited,Altium Designer,22.3.1 (43)*
G04*
G04 Layer_Color=32896*
%FSLAX25Y25*%
%MOIN*%
G70*
G04*
G04 #@! TF.SameCoordinates,6E346DA1-06B3-48DF-BE1B-420114EF1470*
G04*
G04*
G04 #@! TF.FilePolarity,Positive*
G04*
G01*
G75*
%ADD11C,0.01000*%
%ADD12C,0.00500*%
D11*
X325499Y357832D02*
X321501D01*
Y355832D01*
X322167Y355166D01*
X323500D01*
X324166Y355832D01*
Y357832D01*
Y356499D02*
X325499Y355166D01*
X321501Y353833D02*
Y351167D01*
X322167D01*
X324833Y353833D01*
X325499D01*
Y347835D02*
X321501D01*
X323500Y349834D01*
Y347168D01*
X292099Y357832D02*
X288101D01*
Y355832D01*
X288767Y355166D01*
X290100D01*
X290766Y355832D01*
Y357832D01*
Y356499D02*
X292099Y355166D01*
X288101Y351167D02*
Y353833D01*
X290100D01*
X289434Y352500D01*
Y351834D01*
X290100Y351167D01*
X291433D01*
X292099Y351834D01*
Y353167D01*
X291433Y353833D01*
X288101Y347168D02*
Y349834D01*
X290100D01*
X289434Y348501D01*
Y347835D01*
X290100Y347168D01*
X291433D01*
X292099Y347835D01*
Y349168D01*
X291433Y349834D01*
X308799Y357832D02*
X304801D01*
Y355832D01*
X305467Y355166D01*
X306800D01*
X307466Y355832D01*
Y357832D01*
Y356499D02*
X308799Y355166D01*
X304801Y351167D02*
Y353833D01*
X306800D01*
X306134Y352500D01*
Y351834D01*
X306800Y351167D01*
X308133D01*
X308799Y351834D01*
Y353166D01*
X308133Y353833D01*
X308799Y347835D02*
X304801D01*
X306800Y349834D01*
Y347168D01*
X274699Y357332D02*
X270701D01*
Y355332D01*
X271367Y354666D01*
X272700D01*
X273366Y355332D01*
Y357332D01*
Y355999D02*
X274699Y354666D01*
X270701Y350667D02*
Y353333D01*
X272700D01*
X272034Y352000D01*
Y351334D01*
X272700Y350667D01*
X274033D01*
X274699Y351334D01*
Y352666D01*
X274033Y353333D01*
X271367Y349334D02*
X270701Y348668D01*
Y347335D01*
X271367Y346668D01*
X274033D01*
X274699Y347335D01*
Y348668D01*
X274033Y349334D01*
X271367D01*
X259299Y357332D02*
X255301D01*
Y355332D01*
X255967Y354666D01*
X257300D01*
X257966Y355332D01*
Y357332D01*
Y355999D02*
X259299Y354666D01*
Y351334D02*
X255301D01*
X257300Y353333D01*
Y350667D01*
X258633Y349334D02*
X259299Y348668D01*
Y347335D01*
X258633Y346668D01*
X255967D01*
X255301Y347335D01*
Y348668D01*
X255967Y349334D01*
X256633D01*
X257300Y348668D01*
Y346668D01*
X167099Y356665D02*
X163101D01*
Y354666D01*
X163767Y353999D01*
X165100D01*
X165766Y354666D01*
Y356665D01*
Y355332D02*
X167099Y353999D01*
X163767Y352666D02*
X163101Y352000D01*
Y350667D01*
X163767Y350001D01*
X164434D01*
X165100Y350667D01*
X165766Y350001D01*
X166433D01*
X167099Y350667D01*
Y352000D01*
X166433Y352666D01*
X165766D01*
X165100Y352000D01*
X164434Y352666D01*
X163767D01*
X165100Y352000D02*
Y350667D01*
X167099Y348668D02*
Y347335D01*
Y348001D01*
X163101D01*
X163767Y348668D01*
X180599Y357332D02*
X176601D01*
Y355332D01*
X177267Y354666D01*
X178600D01*
X179266Y355332D01*
Y357332D01*
Y355999D02*
X180599Y354666D01*
X177267Y353333D02*
X176601Y352666D01*
Y351334D01*
X177267Y350667D01*
X177934D01*
X178600Y351334D01*
X179266Y350667D01*
X179933D01*
X180599Y351334D01*
Y352666D01*
X179933Y353333D01*
X179266D01*
X178600Y352666D01*
X177934Y353333D01*
X177267D01*
X178600Y352666D02*
Y351334D01*
X177267Y349334D02*
X176601Y348668D01*
Y347335D01*
X177267Y346668D01*
X179933D01*
X180599Y347335D01*
Y348668D01*
X179933Y349334D01*
X177267D01*
X195649Y357332D02*
X191651D01*
Y355332D01*
X192317Y354666D01*
X193650D01*
X194316Y355332D01*
Y357332D01*
Y355999D02*
X195649Y354666D01*
X191651Y353333D02*
Y350667D01*
X192317D01*
X194983Y353333D01*
X195649D01*
X194983Y349334D02*
X195649Y348668D01*
Y347335D01*
X194983Y346668D01*
X192317D01*
X191651Y347335D01*
Y348668D01*
X192317Y349334D01*
X192983D01*
X193650Y348668D01*
Y346668D01*
X356499Y357832D02*
X352501D01*
Y355832D01*
X353167Y355166D01*
X354500D01*
X355166Y355832D01*
Y357832D01*
Y356499D02*
X356499Y355166D01*
X352501Y353833D02*
Y351167D01*
X353167D01*
X355833Y353833D01*
X356499D01*
X353167Y349834D02*
X352501Y349168D01*
Y347835D01*
X353167Y347168D01*
X353834D01*
X354500Y347835D01*
X355166Y347168D01*
X355833D01*
X356499Y347835D01*
Y349168D01*
X355833Y349834D01*
X355166D01*
X354500Y349168D01*
X353834Y349834D01*
X353167D01*
X354500Y349168D02*
Y347835D01*
X370999Y357832D02*
X367001D01*
Y355832D01*
X367667Y355166D01*
X369000D01*
X369666Y355832D01*
Y357832D01*
Y356499D02*
X370999Y355166D01*
X367001Y353833D02*
Y351167D01*
X367667D01*
X370333Y353833D01*
X370999D01*
X367001Y349834D02*
Y347168D01*
X367667D01*
X370333Y349834D01*
X370999D01*
X384999Y357832D02*
X381001D01*
Y355832D01*
X381667Y355166D01*
X383000D01*
X383666Y355832D01*
Y357832D01*
Y356499D02*
X384999Y355166D01*
X381001Y353833D02*
Y351167D01*
X381667D01*
X384333Y353833D01*
X384999D01*
X381001Y347168D02*
X381667Y348501D01*
X383000Y349834D01*
X384333D01*
X384999Y349168D01*
Y347835D01*
X384333Y347168D01*
X383666D01*
X383000Y347835D01*
Y349834D01*
X398999Y357832D02*
X395001D01*
Y355832D01*
X395667Y355166D01*
X397000D01*
X397666Y355832D01*
Y357832D01*
Y356499D02*
X398999Y355166D01*
X395001Y353833D02*
Y351167D01*
X395667D01*
X398333Y353833D01*
X398999D01*
X395001Y347168D02*
Y349834D01*
X397000D01*
X396334Y348501D01*
Y347835D01*
X397000Y347168D01*
X398333D01*
X398999Y347835D01*
Y349168D01*
X398333Y349834D01*
X340999Y357832D02*
X337001D01*
Y355832D01*
X337667Y355166D01*
X339000D01*
X339666Y355832D01*
Y357832D01*
Y356499D02*
X340999Y355166D01*
X337001Y353833D02*
Y351167D01*
X337667D01*
X340333Y353833D01*
X340999D01*
X337667Y349834D02*
X337001Y349168D01*
Y347835D01*
X337667Y347168D01*
X338334D01*
X339000Y347835D01*
Y348501D01*
Y347835D01*
X339666Y347168D01*
X340333D01*
X340999Y347835D01*
Y349168D01*
X340333Y349834D01*
X76999Y354832D02*
X73001D01*
Y352832D01*
X73667Y352166D01*
X75000D01*
X75666Y352832D01*
Y354832D01*
Y353499D02*
X76999Y352166D01*
X73001Y348167D02*
X73667Y349500D01*
X75000Y350833D01*
X76333D01*
X76999Y350167D01*
Y348834D01*
X76333Y348167D01*
X75666D01*
X75000Y348834D01*
Y350833D01*
X73001Y344168D02*
Y346834D01*
X75000D01*
X74334Y345501D01*
Y344835D01*
X75000Y344168D01*
X76333D01*
X76999Y344835D01*
Y346168D01*
X76333Y346834D01*
X86999Y354832D02*
X83001D01*
Y352832D01*
X83667Y352166D01*
X85000D01*
X85666Y352832D01*
Y354832D01*
Y353499D02*
X86999Y352166D01*
X83001Y348167D02*
X83667Y349500D01*
X85000Y350833D01*
X86333D01*
X86999Y350166D01*
Y348834D01*
X86333Y348167D01*
X85666D01*
X85000Y348834D01*
Y350833D01*
X86999Y344835D02*
X83001D01*
X85000Y346834D01*
Y344168D01*
X96999Y354832D02*
X93001D01*
Y352832D01*
X93667Y352166D01*
X95000D01*
X95666Y352832D01*
Y354832D01*
Y353499D02*
X96999Y352166D01*
X93001Y348167D02*
X93667Y349500D01*
X95000Y350833D01*
X96333D01*
X96999Y350167D01*
Y348834D01*
X96333Y348167D01*
X95666D01*
X95000Y348834D01*
Y350833D01*
X93667Y346834D02*
X93001Y346168D01*
Y344835D01*
X93667Y344168D01*
X94333D01*
X95000Y344835D01*
Y345501D01*
Y344835D01*
X95666Y344168D01*
X96333D01*
X96999Y344835D01*
Y346168D01*
X96333Y346834D01*
X106999Y354832D02*
X103001D01*
Y352832D01*
X103667Y352166D01*
X105000D01*
X105666Y352832D01*
Y354832D01*
Y353499D02*
X106999Y352166D01*
X103001Y348167D02*
X103667Y349500D01*
X105000Y350833D01*
X106333D01*
X106999Y350166D01*
Y348834D01*
X106333Y348167D01*
X105666D01*
X105000Y348834D01*
Y350833D01*
X106999Y344168D02*
Y346834D01*
X104333Y344168D01*
X103667D01*
X103001Y344835D01*
Y346168D01*
X103667Y346834D01*
X116999Y354165D02*
X113001D01*
Y352166D01*
X113667Y351499D01*
X115000D01*
X115666Y352166D01*
Y354165D01*
Y352832D02*
X116999Y351499D01*
X113001Y347501D02*
X113667Y348834D01*
X115000Y350166D01*
X116333D01*
X116999Y349500D01*
Y348167D01*
X116333Y347501D01*
X115666D01*
X115000Y348167D01*
Y350166D01*
X116999Y346168D02*
Y344835D01*
Y345501D01*
X113001D01*
X113667Y346168D01*
X126999Y354832D02*
X123001D01*
Y352832D01*
X123667Y352166D01*
X125000D01*
X125666Y352832D01*
Y354832D01*
Y353499D02*
X126999Y352166D01*
X123001Y348167D02*
X123667Y349500D01*
X125000Y350833D01*
X126333D01*
X126999Y350166D01*
Y348834D01*
X126333Y348167D01*
X125666D01*
X125000Y348834D01*
Y350833D01*
X123667Y346834D02*
X123001Y346168D01*
Y344835D01*
X123667Y344168D01*
X126333D01*
X126999Y344835D01*
Y346168D01*
X126333Y346834D01*
X123667D01*
X136999Y354832D02*
X133001D01*
Y352832D01*
X133667Y352166D01*
X135000D01*
X135666Y352832D01*
Y354832D01*
Y353499D02*
X136999Y352166D01*
X133001Y348167D02*
Y350833D01*
X135000D01*
X134334Y349500D01*
Y348834D01*
X135000Y348167D01*
X136333D01*
X136999Y348834D01*
Y350166D01*
X136333Y350833D01*
Y346834D02*
X136999Y346168D01*
Y344835D01*
X136333Y344168D01*
X133667D01*
X133001Y344835D01*
Y346168D01*
X133667Y346834D01*
X134334D01*
X135000Y346168D01*
Y344168D01*
X146999Y354832D02*
X143001D01*
Y352832D01*
X143667Y352166D01*
X145000D01*
X145666Y352832D01*
Y354832D01*
Y353499D02*
X146999Y352166D01*
X143001Y348167D02*
Y350833D01*
X145000D01*
X144334Y349500D01*
Y348834D01*
X145000Y348167D01*
X146333D01*
X146999Y348834D01*
Y350166D01*
X146333Y350833D01*
X143667Y346834D02*
X143001Y346168D01*
Y344835D01*
X143667Y344168D01*
X144334D01*
X145000Y344835D01*
X145666Y344168D01*
X146333D01*
X146999Y344835D01*
Y346168D01*
X146333Y346834D01*
X145666D01*
X145000Y346168D01*
X144334Y346834D01*
X143667D01*
X145000Y346168D02*
Y344835D01*
X422199Y357832D02*
X418201D01*
Y355832D01*
X418867Y355166D01*
X420200D01*
X420866Y355832D01*
Y357832D01*
Y356499D02*
X422199Y355166D01*
X418201Y351167D02*
Y353833D01*
X420200D01*
X419534Y352500D01*
Y351834D01*
X420200Y351167D01*
X421533D01*
X422199Y351834D01*
Y353166D01*
X421533Y353833D01*
X418201Y349834D02*
Y347168D01*
X418867D01*
X421533Y349834D01*
X422199D01*
X440999Y357832D02*
X437001D01*
Y355832D01*
X437667Y355166D01*
X439000D01*
X439666Y355832D01*
Y357832D01*
Y356499D02*
X440999Y355166D01*
X437001Y351167D02*
Y353833D01*
X439000D01*
X438334Y352500D01*
Y351834D01*
X439000Y351167D01*
X440333D01*
X440999Y351834D01*
Y353166D01*
X440333Y353833D01*
X437001Y347168D02*
X437667Y348501D01*
X439000Y349834D01*
X440333D01*
X440999Y349168D01*
Y347835D01*
X440333Y347168D01*
X439666D01*
X439000Y347835D01*
Y349834D01*
X223999Y357332D02*
X220001D01*
Y355332D01*
X220667Y354666D01*
X222000D01*
X222666Y355332D01*
Y357332D01*
Y355999D02*
X223999Y354666D01*
X220001Y350667D02*
Y353333D01*
X222000D01*
X221334Y352000D01*
Y351334D01*
X222000Y350667D01*
X223333D01*
X223999Y351334D01*
Y352666D01*
X223333Y353333D01*
X220667Y349334D02*
X220001Y348668D01*
Y347335D01*
X220667Y346668D01*
X221334D01*
X222000Y347335D01*
Y348001D01*
Y347335D01*
X222666Y346668D01*
X223333D01*
X223999Y347335D01*
Y348668D01*
X223333Y349334D01*
X210899Y357332D02*
X206901D01*
Y355332D01*
X207567Y354666D01*
X208900D01*
X209566Y355332D01*
Y357332D01*
Y355999D02*
X210899Y354666D01*
X206901Y350667D02*
Y353333D01*
X208900D01*
X208233Y352000D01*
Y351334D01*
X208900Y350667D01*
X210233D01*
X210899Y351334D01*
Y352666D01*
X210233Y353333D01*
X210899Y346668D02*
Y349334D01*
X208233Y346668D01*
X207567D01*
X206901Y347335D01*
Y348668D01*
X207567Y349334D01*
X240099Y356665D02*
X236101D01*
Y354666D01*
X236767Y353999D01*
X238100D01*
X238766Y354666D01*
Y356665D01*
Y355332D02*
X240099Y353999D01*
X236101Y350001D02*
Y352666D01*
X238100D01*
X237434Y351334D01*
Y350667D01*
X238100Y350001D01*
X239433D01*
X240099Y350667D01*
Y352000D01*
X239433Y352666D01*
X240099Y348668D02*
Y347335D01*
Y348001D01*
X236101D01*
X236767Y348668D01*
X215067Y139333D02*
X214401Y139999D01*
Y141332D01*
X215067Y141998D01*
X217733D01*
X218399Y141332D01*
Y139999D01*
X217733Y139333D01*
X218399Y138000D02*
Y136667D01*
Y137333D01*
X214401D01*
X215067Y138000D01*
Y134667D02*
X214401Y134001D01*
Y132668D01*
X215067Y132002D01*
X215734D01*
X216400Y132668D01*
X217066Y132002D01*
X217733D01*
X218399Y132668D01*
Y134001D01*
X217733Y134667D01*
X217066D01*
X216400Y134001D01*
X215734Y134667D01*
X215067D01*
X216400Y134001D02*
Y132668D01*
X208667Y139333D02*
X208001Y139999D01*
Y141332D01*
X208667Y141998D01*
X211333D01*
X211999Y141332D01*
Y139999D01*
X211333Y139333D01*
X211999Y138000D02*
Y136667D01*
Y137333D01*
X208001D01*
X208667Y138000D01*
X208001Y134667D02*
Y132002D01*
X208667D01*
X211333Y134667D01*
X211999D01*
X216167Y176533D02*
X215501Y177199D01*
Y178532D01*
X216167Y179198D01*
X218833D01*
X219499Y178532D01*
Y177199D01*
X218833Y176533D01*
X219499Y175200D02*
Y173867D01*
Y174533D01*
X215501D01*
X216167Y175200D01*
X215501Y169202D02*
X216167Y170535D01*
X217500Y171867D01*
X218833D01*
X219499Y171201D01*
Y169868D01*
X218833Y169202D01*
X218166D01*
X217500Y169868D01*
Y171867D01*
X221867Y176433D02*
X221201Y177099D01*
Y178432D01*
X221867Y179098D01*
X224533D01*
X225199Y178432D01*
Y177099D01*
X224533Y176433D01*
X225199Y175100D02*
Y173767D01*
Y174433D01*
X221201D01*
X221867Y175100D01*
X221201Y169102D02*
Y171767D01*
X223200D01*
X222534Y170434D01*
Y169768D01*
X223200Y169102D01*
X224533D01*
X225199Y169768D01*
Y171101D01*
X224533Y171767D01*
X227767Y139433D02*
X227101Y140099D01*
Y141432D01*
X227767Y142098D01*
X230433D01*
X231099Y141432D01*
Y140099D01*
X230433Y139433D01*
X231099Y138100D02*
Y136767D01*
Y137433D01*
X227101D01*
X227767Y138100D01*
X231099Y132768D02*
X227101D01*
X229100Y134767D01*
Y132102D01*
X221167Y139333D02*
X220501Y139999D01*
Y141332D01*
X221167Y141998D01*
X223833D01*
X224499Y141332D01*
Y139999D01*
X223833Y139333D01*
X224499Y138000D02*
Y136667D01*
Y137333D01*
X220501D01*
X221167Y138000D01*
Y134667D02*
X220501Y134001D01*
Y132668D01*
X221167Y132002D01*
X221834D01*
X222500Y132668D01*
Y133335D01*
Y132668D01*
X223166Y132002D01*
X223833D01*
X224499Y132668D01*
Y134001D01*
X223833Y134667D01*
X356833Y56333D02*
X357499Y56999D01*
X358832D01*
X359498Y56333D01*
Y53667D01*
X358832Y53001D01*
X357499D01*
X356833Y53667D01*
X355500Y53001D02*
X354167D01*
X354833D01*
Y56999D01*
X355500Y56333D01*
X349502Y53001D02*
X352167D01*
X349502Y55666D01*
Y56333D01*
X350168Y56999D01*
X351501D01*
X352167Y56333D01*
X245666D02*
X246333Y56999D01*
X247666D01*
X248332Y56333D01*
Y53667D01*
X247666Y53001D01*
X246333D01*
X245666Y53667D01*
X244333Y53001D02*
X243000D01*
X243667D01*
Y56999D01*
X244333Y56333D01*
X241001Y53001D02*
X239668D01*
X240335D01*
Y56999D01*
X241001Y56333D01*
X356333Y86833D02*
X356999Y87499D01*
X358332D01*
X358998Y86833D01*
Y84167D01*
X358332Y83501D01*
X356999D01*
X356333Y84167D01*
X355000Y83501D02*
X353667D01*
X354333D01*
Y87499D01*
X355000Y86833D01*
X351667D02*
X351001Y87499D01*
X349668D01*
X349002Y86833D01*
Y84167D01*
X349668Y83501D01*
X351001D01*
X351667Y84167D01*
Y86833D01*
X244666Y86333D02*
X245333Y86999D01*
X246666D01*
X247332Y86333D01*
Y83667D01*
X246666Y83001D01*
X245333D01*
X244666Y83667D01*
X243334D02*
X242667Y83001D01*
X241334D01*
X240668Y83667D01*
Y86333D01*
X241334Y86999D01*
X242667D01*
X243334Y86333D01*
Y85666D01*
X242667Y85000D01*
X240668D01*
X422166Y124333D02*
X422833Y124999D01*
X424166D01*
X424832Y124333D01*
Y121667D01*
X424166Y121001D01*
X422833D01*
X422166Y121667D01*
X420833Y124333D02*
X420167Y124999D01*
X418834D01*
X418168Y124333D01*
Y123667D01*
X418834Y123000D01*
X418168Y122334D01*
Y121667D01*
X418834Y121001D01*
X420167D01*
X420833Y121667D01*
Y122334D01*
X420167Y123000D01*
X420833Y123667D01*
Y124333D01*
X420167Y123000D02*
X418834D01*
X412666Y124333D02*
X413333Y124999D01*
X414666D01*
X415332Y124333D01*
Y121667D01*
X414666Y121001D01*
X413333D01*
X412666Y121667D01*
X411334Y124999D02*
X408668D01*
Y124333D01*
X411334Y121667D01*
Y121001D01*
X345666Y124333D02*
X346333Y124999D01*
X347666D01*
X348332Y124333D01*
Y121667D01*
X347666Y121001D01*
X346333D01*
X345666Y121667D01*
X341668Y124999D02*
X343001Y124333D01*
X344334Y123000D01*
Y121667D01*
X343667Y121001D01*
X342334D01*
X341668Y121667D01*
Y122334D01*
X342334Y123000D01*
X344334D01*
X337166Y124333D02*
X337833Y124999D01*
X339166D01*
X339832Y124333D01*
Y121667D01*
X339166Y121001D01*
X337833D01*
X337166Y121667D01*
X333168Y124999D02*
X335834D01*
Y123000D01*
X334501Y123667D01*
X333834D01*
X333168Y123000D01*
Y121667D01*
X333834Y121001D01*
X335167D01*
X335834Y121667D01*
X382166Y124333D02*
X382833Y124999D01*
X384166D01*
X384832Y124333D01*
Y121667D01*
X384166Y121001D01*
X382833D01*
X382166Y121667D01*
X378834Y121001D02*
Y124999D01*
X380834Y123000D01*
X378168D01*
X373666Y124333D02*
X374333Y124999D01*
X375666D01*
X376332Y124333D01*
Y121667D01*
X375666Y121001D01*
X374333D01*
X373666Y121667D01*
X372334Y124333D02*
X371667Y124999D01*
X370334D01*
X369668Y124333D01*
Y123667D01*
X370334Y123000D01*
X371001D01*
X370334D01*
X369668Y122334D01*
Y121667D01*
X370334Y121001D01*
X371667D01*
X372334Y121667D01*
X312366Y124333D02*
X313033Y124999D01*
X314366D01*
X315032Y124333D01*
Y121667D01*
X314366Y121001D01*
X313033D01*
X312366Y121667D01*
X308368Y121001D02*
X311034D01*
X308368Y123667D01*
Y124333D01*
X309034Y124999D01*
X310367D01*
X311034Y124333D01*
X303400D02*
X304066Y124999D01*
X305399D01*
X306066Y124333D01*
Y121667D01*
X305399Y121001D01*
X304066D01*
X303400Y121667D01*
X302067Y121001D02*
X300734D01*
X301401D01*
Y124999D01*
X302067Y124333D01*
D12*
X441500Y341300D02*
Y345400D01*
X436500D02*
X441500D01*
X436500Y341300D02*
Y345400D01*
Y334600D02*
Y338800D01*
Y334600D02*
X441500D01*
Y338700D01*
X417500Y334600D02*
Y338700D01*
Y334600D02*
X422500D01*
Y338700D01*
Y341200D02*
Y345400D01*
X417500D02*
X422500D01*
X417500Y341300D02*
Y345400D01*
X357500Y341300D02*
Y345400D01*
X352500D02*
X357500D01*
X352500Y341300D02*
Y345400D01*
Y334600D02*
Y338800D01*
Y334600D02*
X357500D01*
Y338700D01*
X371600Y341300D02*
Y345400D01*
X366600D02*
X371600D01*
X366600Y341300D02*
Y345400D01*
Y334600D02*
Y338800D01*
Y334600D02*
X371600D01*
Y338700D01*
X400000Y341300D02*
Y345400D01*
X395000D02*
X400000D01*
X395000Y341300D02*
Y345400D01*
Y334600D02*
Y338800D01*
Y334600D02*
X400000D01*
Y338700D01*
X386000Y341300D02*
Y345400D01*
X381000D02*
X386000D01*
X381000Y341300D02*
Y345400D01*
Y334600D02*
Y338800D01*
Y334600D02*
X386000D01*
Y338700D01*
X326000Y334600D02*
Y338700D01*
X321000Y334600D02*
X326000D01*
X321000D02*
Y338800D01*
Y341300D02*
Y345400D01*
X326000D01*
Y341300D02*
Y345400D01*
X292500Y341300D02*
Y345400D01*
X287500D02*
X292500D01*
X287500Y341300D02*
Y345400D01*
Y334600D02*
Y338800D01*
Y334600D02*
X292500D01*
Y338700D01*
X309000Y334600D02*
Y338700D01*
X304000Y334600D02*
X309000D01*
X304000D02*
Y338800D01*
Y341300D02*
Y345400D01*
X309000D01*
Y341300D02*
Y345400D01*
X275000Y334600D02*
Y338700D01*
X270000Y334600D02*
X275000D01*
X270000D02*
Y338800D01*
Y341300D02*
Y345400D01*
X275000D01*
Y341300D02*
Y345400D01*
X259000Y334600D02*
Y338700D01*
X254000Y334600D02*
X259000D01*
X254000D02*
Y338800D01*
Y341300D02*
Y345400D01*
X259000D01*
Y341300D02*
Y345400D01*
X341500Y341300D02*
Y345400D01*
X336500D02*
X341500D01*
X336500Y341300D02*
Y345400D01*
Y334600D02*
Y338800D01*
Y334600D02*
X341500D01*
Y338700D01*
X211000Y334600D02*
Y338700D01*
X206000Y334600D02*
X211000D01*
X206000D02*
Y338800D01*
Y341300D02*
Y345400D01*
X211000D01*
Y341300D02*
Y345400D01*
X196500Y341300D02*
Y345400D01*
X191500D02*
X196500D01*
X191500Y341300D02*
Y345400D01*
Y334600D02*
Y338800D01*
Y334600D02*
X196500D01*
Y338700D01*
X176500Y334600D02*
Y338700D01*
Y334600D02*
X181500D01*
Y338700D01*
Y341200D02*
Y345400D01*
X176500D02*
X181500D01*
X176500Y341300D02*
Y345400D01*
X167500Y341300D02*
Y345400D01*
X162500D02*
X167500D01*
X162500Y341300D02*
Y345400D01*
Y334600D02*
Y338800D01*
Y334600D02*
X167500D01*
Y338700D01*
X240500Y341300D02*
Y345400D01*
X235500D02*
X240500D01*
X235500Y341300D02*
Y345400D01*
Y334600D02*
Y338800D01*
Y334600D02*
X240500D01*
Y338700D01*
X224000Y341300D02*
Y345400D01*
X219000D02*
X224000D01*
X219000Y341300D02*
Y345400D01*
Y334600D02*
Y338800D01*
Y334600D02*
X224000D01*
Y338700D01*
X87500Y338800D02*
Y342900D01*
X82500D02*
X87500D01*
X82500Y338800D02*
Y342900D01*
Y332100D02*
Y336300D01*
Y332100D02*
X87500D01*
Y336200D01*
X147500Y338800D02*
Y342900D01*
X142500D02*
X147500D01*
X142500Y338800D02*
Y342900D01*
Y332100D02*
Y336300D01*
Y332100D02*
X147500D01*
Y336200D01*
X137500Y338800D02*
Y342900D01*
X132500D02*
X137500D01*
X132500Y338800D02*
Y342900D01*
Y332100D02*
Y336300D01*
Y332100D02*
X137500D01*
Y336200D01*
X127500Y338800D02*
Y342900D01*
X122500D02*
X127500D01*
X122500Y338800D02*
Y342900D01*
Y332100D02*
Y336300D01*
Y332100D02*
X127500D01*
Y336200D01*
X117500Y338800D02*
Y342900D01*
X112500D02*
X117500D01*
X112500Y338800D02*
Y342900D01*
Y332100D02*
Y336300D01*
Y332100D02*
X117500D01*
Y336200D01*
X107500Y338800D02*
Y342900D01*
X102500D02*
X107500D01*
X102500Y338800D02*
Y342900D01*
Y332100D02*
Y336300D01*
Y332100D02*
X107500D01*
Y336200D01*
X97500Y338800D02*
Y342900D01*
X92500D02*
X97500D01*
X92500Y338800D02*
Y342900D01*
Y332100D02*
Y336300D01*
Y332100D02*
X97500D01*
Y336200D01*
X77500Y338800D02*
Y342900D01*
X72500D02*
X77500D01*
X72500Y338800D02*
Y342900D01*
Y332100D02*
Y336300D01*
Y332100D02*
X77500D01*
Y336200D01*
X309000Y108500D02*
Y112600D01*
Y108500D02*
X314000D01*
Y112600D01*
Y115100D02*
Y119300D01*
X309000D02*
X314000D01*
X309000Y115200D02*
Y119300D01*
X410000Y108600D02*
Y112700D01*
Y108600D02*
X415000D01*
Y112700D01*
Y115200D02*
Y119400D01*
X410000D02*
X415000D01*
X410000Y115300D02*
Y119400D01*
X351500Y71100D02*
Y75200D01*
Y71100D02*
X356500D01*
Y75200D01*
Y77700D02*
Y81900D01*
X351500D02*
X356500D01*
X351500Y77800D02*
Y81900D01*
X241500Y70600D02*
Y74700D01*
Y70600D02*
X246500D01*
Y74700D01*
Y77200D02*
Y81400D01*
X241500D02*
X246500D01*
X241500Y77300D02*
Y81400D01*
X370500Y108600D02*
Y112700D01*
Y108600D02*
X375500D01*
Y112700D01*
Y115200D02*
Y119400D01*
X370500D02*
X375500D01*
X370500Y115300D02*
Y119400D01*
X379000Y108600D02*
Y112700D01*
Y108600D02*
X384000D01*
Y112700D01*
Y115200D02*
Y119400D01*
X379000D02*
X384000D01*
X379000Y115300D02*
Y119400D01*
X300800Y108400D02*
Y112500D01*
Y108400D02*
X305800D01*
Y112500D01*
Y115000D02*
Y119200D01*
X300800D02*
X305800D01*
X300800Y115100D02*
Y119200D01*
X343500Y108600D02*
Y112700D01*
Y108600D02*
X348500D01*
Y112700D01*
Y115200D02*
Y119400D01*
X343500D02*
X348500D01*
X343500Y115300D02*
Y119400D01*
X334000Y108600D02*
Y112700D01*
Y108600D02*
X339000D01*
Y112700D01*
Y115200D02*
Y119400D01*
X334000D02*
X339000D01*
X334000Y115300D02*
Y119400D01*
X419000Y108600D02*
Y112700D01*
Y108600D02*
X424000D01*
Y112700D01*
Y115200D02*
Y119400D01*
X419000D02*
X424000D01*
X419000Y115300D02*
Y119400D01*
X351500Y40600D02*
Y44700D01*
Y40600D02*
X356500D01*
Y44700D01*
Y47200D02*
Y51400D01*
X351500D02*
X356500D01*
X351500Y47300D02*
Y51400D01*
X242000Y40600D02*
Y44700D01*
Y40600D02*
X247000D01*
Y44700D01*
Y47200D02*
Y51400D01*
X242000D02*
X247000D01*
X242000Y47300D02*
Y51400D01*
X225500Y162900D02*
Y167000D01*
X220500D02*
X225500D01*
X220500Y162900D02*
Y167000D01*
Y156200D02*
Y160400D01*
Y156200D02*
X225500D01*
Y160300D01*
X214500Y144600D02*
Y148700D01*
Y144600D02*
X219500D01*
Y148700D01*
Y151200D02*
Y155400D01*
X214500D02*
X219500D01*
X214500Y151300D02*
Y155400D01*
X219500Y162900D02*
Y167000D01*
X214500D02*
X219500D01*
X214500Y162900D02*
Y167000D01*
Y156200D02*
Y160400D01*
Y156200D02*
X219500D01*
Y160300D01*
X208500Y144600D02*
Y148700D01*
Y144600D02*
X213500D01*
Y148700D01*
Y151200D02*
Y155400D01*
X208500D02*
X213500D01*
X208500Y151300D02*
Y155400D01*
X220500Y151300D02*
Y155400D01*
X225500D01*
Y151200D02*
Y155400D01*
Y144600D02*
Y148700D01*
X220500Y144600D02*
X225500D01*
X220500D02*
Y148700D01*
X226500Y151300D02*
Y155400D01*
X231500D01*
Y151200D02*
Y155400D01*
Y144600D02*
Y148700D01*
X226500Y144600D02*
X231500D01*
X226500D02*
Y148700D01*
M02*
