G04*
G04 #@! TF.GenerationSoftware,Altium Limited,Altium Designer,22.3.1 (43)*
G04*
G04 Layer_Physical_Order=4*
G04 Layer_Color=16711680*
%FSLAX25Y25*%
%MOIN*%
G70*
G04*
G04 #@! TF.SameCoordinates,6E346DA1-06B3-48DF-BE1B-420114EF1470*
G04*
G04*
G04 #@! TF.FilePolarity,Positive*
G04*
G01*
G75*
%ADD11C,0.01000*%
%ADD18R,0.03740X0.03150*%
%ADD43C,0.20000*%
%ADD44R,0.05906X0.05906*%
%ADD45C,0.06000*%
%ADD46R,0.06000X0.06000*%
%ADD47C,0.05906*%
%ADD48R,0.05906X0.05906*%
%ADD49C,0.05000*%
G36*
X560000D02*
X0D01*
Y400000D01*
X560000D01*
Y0D01*
D02*
G37*
%LPC*%
G36*
X540826Y390500D02*
X539174D01*
X537541Y390242D01*
X535969Y389731D01*
X534497Y388980D01*
X533160Y388009D01*
X531991Y386840D01*
X531020Y385503D01*
X530269Y384031D01*
X529759Y382459D01*
X529500Y380826D01*
Y379174D01*
X529759Y377541D01*
X530269Y375969D01*
X531020Y374497D01*
X531991Y373160D01*
X533160Y371991D01*
X534497Y371020D01*
X535969Y370269D01*
X537541Y369759D01*
X539174Y369500D01*
X540826D01*
X542459Y369759D01*
X544031Y370269D01*
X545503Y371020D01*
X546840Y371991D01*
X548009Y373160D01*
X548980Y374497D01*
X549731Y375969D01*
X550242Y377541D01*
X550500Y379174D01*
Y380826D01*
X550242Y382459D01*
X549731Y384031D01*
X548980Y385503D01*
X548009Y386840D01*
X546840Y388009D01*
X545503Y388980D01*
X544031Y389731D01*
X542459Y390242D01*
X540826Y390500D01*
D02*
G37*
G36*
X20826D02*
X19174D01*
X17541Y390242D01*
X15969Y389731D01*
X14497Y388980D01*
X13160Y388009D01*
X11991Y386840D01*
X11020Y385503D01*
X10269Y384031D01*
X9759Y382459D01*
X9500Y380826D01*
Y379174D01*
X9759Y377541D01*
X10269Y375969D01*
X11020Y374497D01*
X11991Y373160D01*
X13160Y371991D01*
X14497Y371020D01*
X15969Y370269D01*
X17541Y369759D01*
X19174Y369500D01*
X20826D01*
X22459Y369759D01*
X24031Y370269D01*
X25503Y371020D01*
X26840Y371991D01*
X28009Y373160D01*
X28980Y374497D01*
X29731Y375969D01*
X30242Y377541D01*
X30500Y379174D01*
Y380826D01*
X30242Y382459D01*
X29731Y384031D01*
X28980Y385503D01*
X28009Y386840D01*
X26840Y388009D01*
X25503Y388980D01*
X24031Y389731D01*
X22459Y390242D01*
X20826Y390500D01*
D02*
G37*
G36*
X510895Y368000D02*
X510105D01*
X509342Y367796D01*
X508658Y367401D01*
X508099Y366842D01*
X507704Y366158D01*
X507500Y365395D01*
Y364605D01*
X507704Y363842D01*
X508099Y363158D01*
X508658Y362599D01*
X509342Y362204D01*
X510105Y362000D01*
X510895D01*
X511658Y362204D01*
X512342Y362599D01*
X512901Y363158D01*
X513296Y363842D01*
X513500Y364605D01*
Y365395D01*
X513296Y366158D01*
X512901Y366842D01*
X512342Y367401D01*
X511658Y367796D01*
X510895Y368000D01*
D02*
G37*
G36*
X439395Y378000D02*
X438605D01*
X437842Y377796D01*
X437158Y377401D01*
X436599Y376842D01*
X436204Y376158D01*
X436000Y375395D01*
Y374605D01*
X436204Y373842D01*
X436599Y373158D01*
X437158Y372599D01*
X437842Y372204D01*
X437980Y372167D01*
Y345224D01*
X436630D01*
Y341075D01*
X441370D01*
Y345224D01*
X440020D01*
Y372167D01*
X440158Y372204D01*
X440842Y372599D01*
X441401Y373158D01*
X441796Y373842D01*
X442000Y374605D01*
Y375395D01*
X441796Y376158D01*
X441401Y376842D01*
X440842Y377401D01*
X440158Y377796D01*
X439395Y378000D01*
D02*
G37*
G36*
X420395D02*
X419605D01*
X418842Y377796D01*
X418158Y377401D01*
X417599Y376842D01*
X417204Y376158D01*
X417000Y375395D01*
Y374605D01*
X417204Y373842D01*
X417599Y373158D01*
X418158Y372599D01*
X418842Y372204D01*
X418980Y372167D01*
Y345224D01*
X417630D01*
Y341075D01*
X422370D01*
Y345224D01*
X421020D01*
Y372167D01*
X421158Y372204D01*
X421842Y372599D01*
X422401Y373158D01*
X422796Y373842D01*
X423000Y374605D01*
Y375395D01*
X422796Y376158D01*
X422401Y376842D01*
X421842Y377401D01*
X421158Y377796D01*
X420395Y378000D01*
D02*
G37*
G36*
X397395D02*
X396605D01*
X395842Y377796D01*
X395158Y377401D01*
X394599Y376842D01*
X394204Y376158D01*
X394000Y375395D01*
Y374605D01*
X394204Y373842D01*
X394599Y373158D01*
X395158Y372599D01*
X395842Y372204D01*
X395980Y372167D01*
Y345224D01*
X395130D01*
Y341075D01*
X399870D01*
Y345224D01*
X398020D01*
Y372167D01*
X398158Y372204D01*
X398842Y372599D01*
X399401Y373158D01*
X399796Y373842D01*
X400000Y374605D01*
Y375395D01*
X399796Y376158D01*
X399401Y376842D01*
X398842Y377401D01*
X398158Y377796D01*
X397395Y378000D01*
D02*
G37*
G36*
X383395D02*
X382605D01*
X381842Y377796D01*
X381158Y377401D01*
X380599Y376842D01*
X380204Y376158D01*
X380000Y375395D01*
Y374605D01*
X380204Y373842D01*
X380599Y373158D01*
X381158Y372599D01*
X381842Y372204D01*
X382480Y372033D01*
Y345224D01*
X381130D01*
Y341075D01*
X385870D01*
Y345224D01*
X384520D01*
Y372413D01*
X384842Y372599D01*
X385401Y373158D01*
X385796Y373842D01*
X386000Y374605D01*
Y375395D01*
X385796Y376158D01*
X385401Y376842D01*
X384842Y377401D01*
X384158Y377796D01*
X383395Y378000D01*
D02*
G37*
G36*
X369395D02*
X368605D01*
X367842Y377796D01*
X367158Y377401D01*
X366599Y376842D01*
X366204Y376158D01*
X366000Y375395D01*
Y374605D01*
X366204Y373842D01*
X366599Y373158D01*
X367158Y372599D01*
X367842Y372204D01*
X367980Y372167D01*
Y345224D01*
X366730D01*
Y341075D01*
X371470D01*
Y345224D01*
X370020D01*
Y372167D01*
X370158Y372204D01*
X370842Y372599D01*
X371401Y373158D01*
X371796Y373842D01*
X372000Y374605D01*
Y375395D01*
X371796Y376158D01*
X371401Y376842D01*
X370842Y377401D01*
X370158Y377796D01*
X369395Y378000D01*
D02*
G37*
G36*
X355395D02*
X354605D01*
X353842Y377796D01*
X353158Y377401D01*
X352599Y376842D01*
X352204Y376158D01*
X352000Y375395D01*
Y374605D01*
X352204Y373842D01*
X352599Y373158D01*
X353158Y372599D01*
X353842Y372204D01*
X353980Y372167D01*
Y345224D01*
X352630D01*
Y341075D01*
X357370D01*
Y345224D01*
X356020D01*
Y372167D01*
X356158Y372204D01*
X356842Y372599D01*
X357401Y373158D01*
X357796Y373842D01*
X358000Y374605D01*
Y375395D01*
X357796Y376158D01*
X357401Y376842D01*
X356842Y377401D01*
X356158Y377796D01*
X355395Y378000D01*
D02*
G37*
G36*
X339395D02*
X338605D01*
X337842Y377796D01*
X337158Y377401D01*
X336599Y376842D01*
X336204Y376158D01*
X336000Y375395D01*
Y374605D01*
X336204Y373842D01*
X336599Y373158D01*
X337158Y372599D01*
X337842Y372204D01*
X337980Y372167D01*
Y345224D01*
X336630D01*
Y341075D01*
X341370D01*
Y345224D01*
X340020D01*
Y372167D01*
X340158Y372204D01*
X340842Y372599D01*
X341401Y373158D01*
X341796Y373842D01*
X342000Y374605D01*
Y375395D01*
X341796Y376158D01*
X341401Y376842D01*
X340842Y377401D01*
X340158Y377796D01*
X339395Y378000D01*
D02*
G37*
G36*
X323395D02*
X322605D01*
X321842Y377796D01*
X321158Y377401D01*
X320599Y376842D01*
X320204Y376158D01*
X320000Y375395D01*
Y374605D01*
X320204Y373842D01*
X320599Y373158D01*
X321158Y372599D01*
X321842Y372204D01*
X322480Y372033D01*
Y345224D01*
X321130D01*
Y341075D01*
X325870D01*
Y345224D01*
X324520D01*
Y372413D01*
X324842Y372599D01*
X325401Y373158D01*
X325796Y373842D01*
X326000Y374605D01*
Y375395D01*
X325796Y376158D01*
X325401Y376842D01*
X324842Y377401D01*
X324158Y377796D01*
X323395Y378000D01*
D02*
G37*
G36*
X307395D02*
X306605D01*
X305842Y377796D01*
X305158Y377401D01*
X304599Y376842D01*
X304204Y376158D01*
X304000Y375395D01*
Y374605D01*
X304204Y373842D01*
X304599Y373158D01*
X305158Y372599D01*
X305842Y372204D01*
X305980Y372167D01*
Y345224D01*
X304130D01*
Y341075D01*
X308870D01*
Y345224D01*
X308020D01*
Y372167D01*
X308158Y372204D01*
X308842Y372599D01*
X309401Y373158D01*
X309796Y373842D01*
X310000Y374605D01*
Y375395D01*
X309796Y376158D01*
X309401Y376842D01*
X308842Y377401D01*
X308158Y377796D01*
X307395Y378000D01*
D02*
G37*
G36*
X290395D02*
X289605D01*
X288842Y377796D01*
X288158Y377401D01*
X287599Y376842D01*
X287204Y376158D01*
X287000Y375395D01*
Y374605D01*
X287204Y373842D01*
X287599Y373158D01*
X288158Y372599D01*
X288842Y372204D01*
X288980Y372167D01*
Y345224D01*
X287630D01*
Y341075D01*
X292370D01*
Y345224D01*
X291020D01*
Y372167D01*
X291158Y372204D01*
X291842Y372599D01*
X292401Y373158D01*
X292796Y373842D01*
X293000Y374605D01*
Y375395D01*
X292796Y376158D01*
X292401Y376842D01*
X291842Y377401D01*
X291158Y377796D01*
X290395Y378000D01*
D02*
G37*
G36*
X272395D02*
X271605D01*
X270842Y377796D01*
X270158Y377401D01*
X269599Y376842D01*
X269204Y376158D01*
X269000Y375395D01*
Y374605D01*
X269204Y373842D01*
X269599Y373158D01*
X270158Y372599D01*
X270842Y372204D01*
X270980Y372167D01*
Y345224D01*
X270130D01*
Y341075D01*
X274870D01*
Y345224D01*
X273020D01*
Y372167D01*
X273158Y372204D01*
X273842Y372599D01*
X274401Y373158D01*
X274796Y373842D01*
X275000Y374605D01*
Y375395D01*
X274796Y376158D01*
X274401Y376842D01*
X273842Y377401D01*
X273158Y377796D01*
X272395Y378000D01*
D02*
G37*
G36*
X257395D02*
X256605D01*
X255842Y377796D01*
X255158Y377401D01*
X254599Y376842D01*
X254204Y376158D01*
X254000Y375395D01*
Y374605D01*
X254204Y373842D01*
X254599Y373158D01*
X255158Y372599D01*
X255842Y372204D01*
X255980Y372167D01*
Y345224D01*
X254130D01*
Y341075D01*
X258870D01*
Y345224D01*
X258020D01*
Y372167D01*
X258158Y372204D01*
X258842Y372599D01*
X259401Y373158D01*
X259796Y373842D01*
X260000Y374605D01*
Y375395D01*
X259796Y376158D01*
X259401Y376842D01*
X258842Y377401D01*
X258158Y377796D01*
X257395Y378000D01*
D02*
G37*
G36*
X238395D02*
X237605D01*
X236842Y377796D01*
X236158Y377401D01*
X235599Y376842D01*
X235204Y376158D01*
X235000Y375395D01*
Y374605D01*
X235204Y373842D01*
X235599Y373158D01*
X236158Y372599D01*
X236842Y372204D01*
X236980Y372167D01*
Y345224D01*
X235630D01*
Y341075D01*
X240370D01*
Y345224D01*
X239020D01*
Y372167D01*
X239158Y372204D01*
X239842Y372599D01*
X240401Y373158D01*
X240796Y373842D01*
X241000Y374605D01*
Y375395D01*
X240796Y376158D01*
X240401Y376842D01*
X239842Y377401D01*
X239158Y377796D01*
X238395Y378000D01*
D02*
G37*
G36*
X221895D02*
X221105D01*
X220342Y377796D01*
X219658Y377401D01*
X219099Y376842D01*
X218704Y376158D01*
X218500Y375395D01*
Y374605D01*
X218704Y373842D01*
X219099Y373158D01*
X219658Y372599D01*
X220342Y372204D01*
X220480Y372167D01*
Y345224D01*
X219130D01*
Y341075D01*
X223870D01*
Y345224D01*
X222520D01*
Y372167D01*
X222658Y372204D01*
X223342Y372599D01*
X223901Y373158D01*
X224296Y373842D01*
X224500Y374605D01*
Y375395D01*
X224296Y376158D01*
X223901Y376842D01*
X223342Y377401D01*
X222658Y377796D01*
X221895Y378000D01*
D02*
G37*
G36*
X209395D02*
X208605D01*
X207842Y377796D01*
X207158Y377401D01*
X206599Y376842D01*
X206204Y376158D01*
X206000Y375395D01*
Y374605D01*
X206204Y373842D01*
X206599Y373158D01*
X207158Y372599D01*
X207842Y372204D01*
X207980Y372167D01*
Y345224D01*
X206130D01*
Y341075D01*
X210870D01*
Y345224D01*
X210020D01*
Y372167D01*
X210158Y372204D01*
X210842Y372599D01*
X211401Y373158D01*
X211796Y373842D01*
X212000Y374605D01*
Y375395D01*
X211796Y376158D01*
X211401Y376842D01*
X210842Y377401D01*
X210158Y377796D01*
X209395Y378000D01*
D02*
G37*
G36*
X194395D02*
X193605D01*
X192842Y377796D01*
X192158Y377401D01*
X191599Y376842D01*
X191204Y376158D01*
X191000Y375395D01*
Y374605D01*
X191204Y373842D01*
X191599Y373158D01*
X192158Y372599D01*
X192842Y372204D01*
X192980Y372167D01*
Y345224D01*
X191630D01*
Y341075D01*
X196370D01*
Y345224D01*
X195020D01*
Y372167D01*
X195158Y372204D01*
X195842Y372599D01*
X196401Y373158D01*
X196796Y373842D01*
X197000Y374605D01*
Y375395D01*
X196796Y376158D01*
X196401Y376842D01*
X195842Y377401D01*
X195158Y377796D01*
X194395Y378000D01*
D02*
G37*
G36*
X179395D02*
X178605D01*
X177842Y377796D01*
X177158Y377401D01*
X176599Y376842D01*
X176204Y376158D01*
X176000Y375395D01*
Y374605D01*
X176204Y373842D01*
X176599Y373158D01*
X177158Y372599D01*
X177842Y372204D01*
X177980Y372167D01*
Y345224D01*
X176630D01*
Y341075D01*
X181370D01*
Y345224D01*
X180020D01*
Y372167D01*
X180158Y372204D01*
X180842Y372599D01*
X181401Y373158D01*
X181796Y373842D01*
X182000Y374605D01*
Y375395D01*
X181796Y376158D01*
X181401Y376842D01*
X180842Y377401D01*
X180158Y377796D01*
X179395Y378000D01*
D02*
G37*
G36*
X165395D02*
X164605D01*
X163842Y377796D01*
X163158Y377401D01*
X162599Y376842D01*
X162204Y376158D01*
X162000Y375395D01*
Y374605D01*
X162204Y373842D01*
X162599Y373158D01*
X163158Y372599D01*
X163842Y372204D01*
X163980Y372167D01*
Y345224D01*
X162630D01*
Y341075D01*
X167370D01*
Y345224D01*
X166020D01*
Y372167D01*
X166158Y372204D01*
X166842Y372599D01*
X167401Y373158D01*
X167796Y373842D01*
X168000Y374605D01*
Y375395D01*
X167796Y376158D01*
X167401Y376842D01*
X166842Y377401D01*
X166158Y377796D01*
X165395Y378000D01*
D02*
G37*
G36*
X429395Y345000D02*
X428605D01*
X427842Y344796D01*
X427158Y344401D01*
X426599Y343842D01*
X426204Y343158D01*
X426000Y342395D01*
Y341605D01*
X426204Y340842D01*
X426599Y340158D01*
X427158Y339599D01*
X427842Y339204D01*
X428605Y339000D01*
X429395D01*
X430158Y339204D01*
X430842Y339599D01*
X431401Y340158D01*
X431796Y340842D01*
X432000Y341605D01*
Y342395D01*
X431796Y343158D01*
X431401Y343842D01*
X430842Y344401D01*
X430158Y344796D01*
X429395Y345000D01*
D02*
G37*
G36*
X145395Y378000D02*
X144605D01*
X143842Y377796D01*
X143158Y377401D01*
X142599Y376842D01*
X142204Y376158D01*
X142000Y375395D01*
Y374605D01*
X142204Y373842D01*
X142599Y373158D01*
X143158Y372599D01*
X143842Y372204D01*
X143980Y372167D01*
Y342724D01*
X142630D01*
Y338575D01*
X147370D01*
Y342724D01*
X146020D01*
Y372167D01*
X146158Y372204D01*
X146842Y372599D01*
X147401Y373158D01*
X147796Y373842D01*
X148000Y374605D01*
Y375395D01*
X147796Y376158D01*
X147401Y376842D01*
X146842Y377401D01*
X146158Y377796D01*
X145395Y378000D01*
D02*
G37*
G36*
X135395D02*
X134605D01*
X133842Y377796D01*
X133158Y377401D01*
X132599Y376842D01*
X132204Y376158D01*
X132000Y375395D01*
Y374605D01*
X132204Y373842D01*
X132599Y373158D01*
X133158Y372599D01*
X133842Y372204D01*
X133980Y372167D01*
Y342724D01*
X132630D01*
Y338575D01*
X137370D01*
Y342724D01*
X136020D01*
Y372167D01*
X136158Y372204D01*
X136842Y372599D01*
X137401Y373158D01*
X137796Y373842D01*
X138000Y374605D01*
Y375395D01*
X137796Y376158D01*
X137401Y376842D01*
X136842Y377401D01*
X136158Y377796D01*
X135395Y378000D01*
D02*
G37*
G36*
X125395D02*
X124605D01*
X123842Y377796D01*
X123158Y377401D01*
X122599Y376842D01*
X122204Y376158D01*
X122000Y375395D01*
Y374605D01*
X122204Y373842D01*
X122599Y373158D01*
X123158Y372599D01*
X123842Y372204D01*
X123980Y372167D01*
Y342724D01*
X122630D01*
Y338575D01*
X127370D01*
Y342724D01*
X126020D01*
Y372167D01*
X126158Y372204D01*
X126842Y372599D01*
X127401Y373158D01*
X127796Y373842D01*
X128000Y374605D01*
Y375395D01*
X127796Y376158D01*
X127401Y376842D01*
X126842Y377401D01*
X126158Y377796D01*
X125395Y378000D01*
D02*
G37*
G36*
X115395D02*
X114605D01*
X113842Y377796D01*
X113158Y377401D01*
X112599Y376842D01*
X112204Y376158D01*
X112000Y375395D01*
Y374605D01*
X112204Y373842D01*
X112599Y373158D01*
X113158Y372599D01*
X113842Y372204D01*
X113980Y372167D01*
Y342724D01*
X112630D01*
Y338575D01*
X117370D01*
Y342724D01*
X116020D01*
Y372167D01*
X116158Y372204D01*
X116842Y372599D01*
X117401Y373158D01*
X117796Y373842D01*
X118000Y374605D01*
Y375395D01*
X117796Y376158D01*
X117401Y376842D01*
X116842Y377401D01*
X116158Y377796D01*
X115395Y378000D01*
D02*
G37*
G36*
X105395D02*
X104605D01*
X103842Y377796D01*
X103158Y377401D01*
X102599Y376842D01*
X102204Y376158D01*
X102000Y375395D01*
Y374605D01*
X102204Y373842D01*
X102599Y373158D01*
X103158Y372599D01*
X103842Y372204D01*
X103980Y372167D01*
Y342724D01*
X102630D01*
Y338575D01*
X107370D01*
Y342724D01*
X106020D01*
Y372167D01*
X106158Y372204D01*
X106842Y372599D01*
X107401Y373158D01*
X107796Y373842D01*
X108000Y374605D01*
Y375395D01*
X107796Y376158D01*
X107401Y376842D01*
X106842Y377401D01*
X106158Y377796D01*
X105395Y378000D01*
D02*
G37*
G36*
X95395D02*
X94605D01*
X93842Y377796D01*
X93158Y377401D01*
X92599Y376842D01*
X92204Y376158D01*
X92000Y375395D01*
Y374605D01*
X92204Y373842D01*
X92599Y373158D01*
X93158Y372599D01*
X93842Y372204D01*
X93980Y372167D01*
Y342724D01*
X92630D01*
Y338575D01*
X97370D01*
Y342724D01*
X96020D01*
Y372167D01*
X96158Y372204D01*
X96842Y372599D01*
X97401Y373158D01*
X97796Y373842D01*
X98000Y374605D01*
Y375395D01*
X97796Y376158D01*
X97401Y376842D01*
X96842Y377401D01*
X96158Y377796D01*
X95395Y378000D01*
D02*
G37*
G36*
X85395D02*
X84605D01*
X83842Y377796D01*
X83158Y377401D01*
X82599Y376842D01*
X82204Y376158D01*
X82000Y375395D01*
Y374605D01*
X82204Y373842D01*
X82599Y373158D01*
X83158Y372599D01*
X83842Y372204D01*
X83980Y372167D01*
Y342724D01*
X82630D01*
Y338575D01*
X87370D01*
Y342724D01*
X86020D01*
Y372167D01*
X86158Y372204D01*
X86842Y372599D01*
X87401Y373158D01*
X87796Y373842D01*
X88000Y374605D01*
Y375395D01*
X87796Y376158D01*
X87401Y376842D01*
X86842Y377401D01*
X86158Y377796D01*
X85395Y378000D01*
D02*
G37*
G36*
X75395D02*
X74605D01*
X73842Y377796D01*
X73158Y377401D01*
X72599Y376842D01*
X72204Y376158D01*
X72000Y375395D01*
Y374605D01*
X72204Y373842D01*
X72599Y373158D01*
X73158Y372599D01*
X73842Y372204D01*
X73980Y372167D01*
Y342724D01*
X72630D01*
Y338575D01*
X77370D01*
Y342724D01*
X76020D01*
Y372167D01*
X76158Y372204D01*
X76842Y372599D01*
X77401Y373158D01*
X77796Y373842D01*
X78000Y374605D01*
Y375395D01*
X77796Y376158D01*
X77401Y376842D01*
X76842Y377401D01*
X76158Y377796D01*
X75395Y378000D01*
D02*
G37*
G36*
X399870Y338925D02*
X395130D01*
Y337870D01*
X385870D01*
Y338925D01*
X381130D01*
Y337870D01*
X371470D01*
Y338925D01*
X366730D01*
Y337870D01*
X357370D01*
Y338925D01*
X352630D01*
Y337870D01*
X341370D01*
Y338925D01*
X336630D01*
Y337870D01*
X325870D01*
Y338925D01*
X321130D01*
Y337870D01*
X308870D01*
Y338925D01*
X304130D01*
Y337870D01*
X292370D01*
Y338925D01*
X287630D01*
Y337870D01*
X274870D01*
Y338925D01*
X270130D01*
Y337870D01*
X258870D01*
Y338925D01*
X254130D01*
Y337870D01*
X240370D01*
Y338925D01*
X235630D01*
Y337870D01*
X223870D01*
Y338925D01*
X219130D01*
Y337870D01*
X210870D01*
Y338925D01*
X206130D01*
Y337870D01*
X196370D01*
Y338925D01*
X191630D01*
Y337870D01*
X181370D01*
Y338925D01*
X176630D01*
Y337870D01*
X167370D01*
Y338925D01*
X162630D01*
Y337870D01*
X158850D01*
X158460Y337792D01*
X158129Y337571D01*
X156282Y335724D01*
X156158Y335796D01*
X155395Y336000D01*
X154605D01*
X153842Y335796D01*
X153158Y335401D01*
X152599Y334842D01*
X152204Y334158D01*
X152000Y333395D01*
Y332605D01*
X152204Y331842D01*
X152599Y331158D01*
X153158Y330599D01*
X153842Y330204D01*
X154605Y330000D01*
X155395D01*
X156158Y330204D01*
X156842Y330599D01*
X157401Y331158D01*
X157796Y331842D01*
X158000Y332605D01*
Y333395D01*
X157796Y334158D01*
X157724Y334282D01*
X159273Y335831D01*
X162630D01*
Y334776D01*
X167370D01*
Y335831D01*
X176630D01*
Y334776D01*
X181370D01*
Y335831D01*
X191630D01*
Y334776D01*
X196370D01*
Y335831D01*
X206130D01*
Y334776D01*
X210870D01*
Y335831D01*
X219130D01*
Y334776D01*
X223870D01*
Y335831D01*
X235630D01*
Y334776D01*
X240370D01*
Y335831D01*
X254130D01*
Y334776D01*
X258870D01*
Y335831D01*
X270130D01*
Y334776D01*
X274870D01*
Y335831D01*
X287630D01*
Y334776D01*
X292370D01*
Y335831D01*
X304130D01*
Y334776D01*
X308870D01*
Y335831D01*
X321130D01*
Y334776D01*
X325870D01*
Y335831D01*
X336630D01*
Y334776D01*
X341370D01*
Y335831D01*
X352630D01*
Y334776D01*
X357370D01*
Y335831D01*
X366730D01*
Y334776D01*
X371470D01*
Y335831D01*
X381130D01*
Y334776D01*
X385870D01*
Y335831D01*
X395130D01*
Y334776D01*
X399870D01*
Y338925D01*
D02*
G37*
G36*
X422370D02*
X417630D01*
Y337870D01*
X410586D01*
X410196Y337792D01*
X409865Y337571D01*
X409748Y337455D01*
X409158Y337796D01*
X408395Y338000D01*
X407605D01*
X406842Y337796D01*
X406158Y337401D01*
X405599Y336842D01*
X405204Y336158D01*
X405000Y335395D01*
Y334605D01*
X405204Y333842D01*
X405599Y333158D01*
X406158Y332599D01*
X406842Y332204D01*
X407605Y332000D01*
X408395D01*
X409158Y332204D01*
X409842Y332599D01*
X410401Y333158D01*
X410796Y333842D01*
X411000Y334605D01*
Y335395D01*
X411401Y335831D01*
X417630D01*
Y334776D01*
X422370D01*
Y338925D01*
D02*
G37*
G36*
X441370D02*
X436630D01*
Y337870D01*
X431850D01*
X431460Y337792D01*
X431129Y337571D01*
X428279Y334721D01*
X428058Y334390D01*
X427980Y334000D01*
Y326833D01*
X427842Y326796D01*
X427158Y326401D01*
X426599Y325842D01*
X426204Y325158D01*
X426000Y324395D01*
Y323605D01*
X426204Y322842D01*
X426599Y322158D01*
X427158Y321599D01*
X427842Y321204D01*
X428605Y321000D01*
X429395D01*
X430158Y321204D01*
X430842Y321599D01*
X431401Y322158D01*
X431796Y322842D01*
X432000Y323605D01*
Y324395D01*
X431796Y325158D01*
X431401Y325842D01*
X430842Y326401D01*
X430158Y326796D01*
X430020Y326833D01*
Y333578D01*
X432273Y335831D01*
X436630D01*
Y334776D01*
X441370D01*
Y338925D01*
D02*
G37*
G36*
X63395Y337000D02*
X62605D01*
X61842Y336796D01*
X61158Y336401D01*
X60599Y335842D01*
X60204Y335158D01*
X60000Y334395D01*
Y333605D01*
X60204Y332842D01*
X60599Y332158D01*
X61158Y331599D01*
X61842Y331204D01*
X62605Y331000D01*
X63395D01*
X64158Y331204D01*
X64842Y331599D01*
X65401Y332158D01*
X65796Y332842D01*
X65926Y333331D01*
X72630D01*
Y332276D01*
X77370D01*
Y333331D01*
X82630D01*
Y332276D01*
X87370D01*
Y333331D01*
X92630D01*
Y332276D01*
X97370D01*
Y333331D01*
X102630D01*
Y332276D01*
X107370D01*
Y333331D01*
X112630D01*
Y332276D01*
X117370D01*
Y333331D01*
X122630D01*
Y332276D01*
X127370D01*
Y333331D01*
X132630D01*
Y332276D01*
X137370D01*
Y333331D01*
X142630D01*
Y332276D01*
X147370D01*
Y336425D01*
X142630D01*
Y335370D01*
X137370D01*
Y336425D01*
X132630D01*
Y335370D01*
X127370D01*
Y336425D01*
X122630D01*
Y335370D01*
X117370D01*
Y336425D01*
X112630D01*
Y335370D01*
X107370D01*
Y336425D01*
X102630D01*
Y335370D01*
X97370D01*
Y336425D01*
X92630D01*
Y335370D01*
X87370D01*
Y336425D01*
X82630D01*
Y335370D01*
X77370D01*
Y336425D01*
X72630D01*
Y335370D01*
X65673D01*
X65401Y335842D01*
X64842Y336401D01*
X64158Y336796D01*
X63395Y337000D01*
D02*
G37*
G36*
X491395Y336000D02*
X490605D01*
X489842Y335796D01*
X489158Y335401D01*
X488599Y334842D01*
X488204Y334158D01*
X488000Y333395D01*
Y332605D01*
X488204Y331842D01*
X488599Y331158D01*
X489158Y330599D01*
X489842Y330204D01*
X490605Y330000D01*
X491395D01*
X492158Y330204D01*
X492842Y330599D01*
X493401Y331158D01*
X493796Y331842D01*
X494000Y332605D01*
Y333395D01*
X493796Y334158D01*
X493401Y334842D01*
X492842Y335401D01*
X492158Y335796D01*
X491395Y336000D01*
D02*
G37*
G36*
X469395Y327000D02*
X468605D01*
X467842Y326796D01*
X467158Y326401D01*
X466599Y325842D01*
X466204Y325158D01*
X466000Y324395D01*
Y323605D01*
X466204Y322842D01*
X466276Y322718D01*
X457578Y314020D01*
X334223D01*
X333842Y314401D01*
X333158Y314796D01*
X332395Y315000D01*
X331605D01*
X330842Y314796D01*
X330158Y314401D01*
X329599Y313842D01*
X329204Y313158D01*
X329000Y312395D01*
Y311605D01*
X329204Y310842D01*
X329599Y310158D01*
X330158Y309599D01*
X330842Y309204D01*
X331605Y309000D01*
X332395D01*
X333158Y309204D01*
X333842Y309599D01*
X334401Y310158D01*
X334796Y310842D01*
X335000Y311605D01*
Y311980D01*
X458000D01*
X458390Y312058D01*
X458721Y312279D01*
X467718Y321276D01*
X467842Y321204D01*
X468605Y321000D01*
X469395D01*
X470158Y321204D01*
X470842Y321599D01*
X471401Y322158D01*
X471796Y322842D01*
X472000Y323605D01*
Y324395D01*
X471796Y325158D01*
X471401Y325842D01*
X470842Y326401D01*
X470158Y326796D01*
X469395Y327000D01*
D02*
G37*
G36*
X461395Y331000D02*
X460605D01*
X459842Y330796D01*
X459158Y330401D01*
X458599Y329842D01*
X458204Y329158D01*
X458000Y328395D01*
Y327605D01*
X458204Y326842D01*
X458276Y326718D01*
X448578Y317020D01*
X347020D01*
Y320167D01*
X347158Y320204D01*
X347842Y320599D01*
X348401Y321158D01*
X348796Y321842D01*
X349000Y322605D01*
Y323395D01*
X348796Y324158D01*
X348401Y324842D01*
X347842Y325401D01*
X347158Y325796D01*
X346395Y326000D01*
X345605D01*
X344842Y325796D01*
X344158Y325401D01*
X343599Y324842D01*
X343204Y324158D01*
X343000Y323395D01*
Y322605D01*
X343204Y321842D01*
X343599Y321158D01*
X344158Y320599D01*
X344842Y320204D01*
X344980Y320167D01*
Y316586D01*
X345058Y316196D01*
X345279Y315865D01*
X345865Y315279D01*
X346196Y315058D01*
X346586Y314980D01*
X449000D01*
X449390Y315058D01*
X449721Y315279D01*
X459718Y325276D01*
X459842Y325204D01*
X460605Y325000D01*
X461395D01*
X462158Y325204D01*
X462842Y325599D01*
X463401Y326158D01*
X463796Y326842D01*
X464000Y327605D01*
Y328395D01*
X463796Y329158D01*
X463401Y329842D01*
X462842Y330401D01*
X462158Y330796D01*
X461395Y331000D01*
D02*
G37*
G36*
X546395Y320700D02*
X545605D01*
X544842Y320496D01*
X544158Y320101D01*
X543599Y319542D01*
X543204Y318858D01*
X543000Y318095D01*
Y317305D01*
X543204Y316542D01*
X543276Y316418D01*
X451779Y224921D01*
X451558Y224590D01*
X451480Y224200D01*
Y210000D01*
X451558Y209610D01*
X451779Y209279D01*
X454143Y206915D01*
X453952Y206453D01*
X453047D01*
Y199547D01*
X459953D01*
Y206453D01*
X457400D01*
X457221Y206721D01*
X453520Y210422D01*
Y217047D01*
X459953D01*
Y223953D01*
X454348D01*
X454157Y224415D01*
X544718Y314976D01*
X544842Y314904D01*
X545605Y314700D01*
X546395D01*
X547158Y314904D01*
X547842Y315299D01*
X548401Y315858D01*
X548796Y316542D01*
X549000Y317305D01*
Y318095D01*
X548796Y318858D01*
X548401Y319542D01*
X547842Y320101D01*
X547158Y320496D01*
X546395Y320700D01*
D02*
G37*
G36*
X252895Y302000D02*
X252105D01*
X251342Y301796D01*
X250658Y301401D01*
X250099Y300842D01*
X249704Y300158D01*
X249667Y300020D01*
X240833D01*
X240796Y300158D01*
X240401Y300842D01*
X239842Y301401D01*
X239158Y301796D01*
X238395Y302000D01*
X237605D01*
X236842Y301796D01*
X236158Y301401D01*
X235599Y300842D01*
X235204Y300158D01*
X235000Y299395D01*
Y298605D01*
X235204Y297842D01*
X235599Y297158D01*
X236158Y296599D01*
X236842Y296204D01*
X237605Y296000D01*
X238395D01*
X239158Y296204D01*
X239842Y296599D01*
X240401Y297158D01*
X240796Y297842D01*
X240833Y297980D01*
X249667D01*
X249704Y297842D01*
X250099Y297158D01*
X250658Y296599D01*
X251342Y296204D01*
X252105Y296000D01*
X252895D01*
X253658Y296204D01*
X254342Y296599D01*
X254901Y297158D01*
X255296Y297842D01*
X255500Y298605D01*
Y299395D01*
X255296Y300158D01*
X254901Y300842D01*
X254342Y301401D01*
X253658Y301796D01*
X252895Y302000D01*
D02*
G37*
G36*
X408395Y298000D02*
X407605D01*
X406842Y297796D01*
X406158Y297401D01*
X405599Y296842D01*
X405204Y296158D01*
X405000Y295395D01*
Y294605D01*
X405204Y293842D01*
X405276Y293718D01*
X310713Y199155D01*
X185505D01*
X185298Y199655D01*
X185501Y199858D01*
X185896Y200542D01*
X186100Y201305D01*
Y202095D01*
X185896Y202858D01*
X185501Y203542D01*
X184942Y204101D01*
X184258Y204496D01*
X183941Y204580D01*
X184007Y205080D01*
X191950D01*
Y204755D01*
X192155Y203992D01*
X192550Y203308D01*
X193108Y202749D01*
X193792Y202354D01*
X194555Y202150D01*
X195345D01*
X196108Y202354D01*
X196792Y202749D01*
X197351Y203308D01*
X197746Y203992D01*
X197950Y204755D01*
Y205545D01*
X197746Y206308D01*
X197351Y206992D01*
X196792Y207550D01*
X196108Y207945D01*
X195345Y208150D01*
X194555D01*
X193792Y207945D01*
X193108Y207550D01*
X192678Y207120D01*
X180600D01*
X180210Y207042D01*
X180176Y207020D01*
X78500D01*
X78110Y206942D01*
X77779Y206721D01*
X49524Y178465D01*
X49395Y178500D01*
X48605D01*
X47842Y178296D01*
X47158Y177901D01*
X46599Y177342D01*
X46204Y176658D01*
X46020Y175968D01*
X45520Y176034D01*
Y192778D01*
X64222Y211480D01*
X170000D01*
Y211105D01*
X170204Y210342D01*
X170599Y209658D01*
X171158Y209099D01*
X171842Y208704D01*
X172605Y208500D01*
X173395D01*
X174158Y208704D01*
X174842Y209099D01*
X175401Y209658D01*
X175796Y210342D01*
X176000Y211105D01*
Y211895D01*
X175796Y212658D01*
X175401Y213342D01*
X174842Y213901D01*
X174158Y214296D01*
X173395Y214500D01*
X172605D01*
X171842Y214296D01*
X171158Y213901D01*
X170717Y213459D01*
X170414Y213520D01*
X143620D01*
Y239414D01*
X143542Y239804D01*
X143321Y240135D01*
X142735Y240721D01*
X142404Y240942D01*
X142014Y241020D01*
X93086D01*
X92783Y240959D01*
X92342Y241401D01*
X92204Y241480D01*
X92338Y241980D01*
X143500D01*
X143890Y242058D01*
X144221Y242279D01*
X149221Y247279D01*
X149442Y247610D01*
X149520Y248000D01*
Y251500D01*
X149442Y251890D01*
X149221Y252221D01*
X148224Y253218D01*
X148296Y253342D01*
X148500Y254105D01*
Y254895D01*
X148296Y255658D01*
X147901Y256342D01*
X147342Y256901D01*
X146658Y257296D01*
X145968Y257480D01*
X146034Y257980D01*
X149278D01*
X183376Y223882D01*
X183304Y223758D01*
X183100Y222995D01*
Y222205D01*
X183304Y221442D01*
X183699Y220758D01*
X184258Y220199D01*
X184942Y219804D01*
X185705Y219600D01*
X186495D01*
X187258Y219804D01*
X187942Y220199D01*
X188501Y220758D01*
X188896Y221442D01*
X189100Y222205D01*
Y222995D01*
X188896Y223758D01*
X188501Y224442D01*
X187942Y225001D01*
X187258Y225396D01*
X186495Y225600D01*
X185705D01*
X184942Y225396D01*
X184818Y225324D01*
X150421Y259721D01*
X150090Y259942D01*
X149700Y260020D01*
X137989D01*
X137782Y260520D01*
X137920Y260658D01*
X138315Y261342D01*
X138520Y262105D01*
Y262895D01*
X138315Y263658D01*
X137920Y264342D01*
X137362Y264901D01*
X136678Y265296D01*
X135915Y265500D01*
X135125D01*
X134362Y265296D01*
X133678Y264901D01*
X133119Y264342D01*
X132724Y263658D01*
X132520Y262895D01*
Y262105D01*
X132724Y261342D01*
X133119Y260658D01*
X133258Y260520D01*
X133051Y260020D01*
X89586D01*
X89196Y259942D01*
X88865Y259721D01*
X88653Y259509D01*
X88158Y259796D01*
X87395Y260000D01*
X86605D01*
X85842Y259796D01*
X85158Y259401D01*
X84599Y258842D01*
X84204Y258158D01*
X84000Y257395D01*
Y256605D01*
X84204Y255842D01*
X84599Y255158D01*
X85158Y254599D01*
X85842Y254204D01*
X86605Y254000D01*
X87395D01*
X88158Y254204D01*
X88842Y254599D01*
X89401Y255158D01*
X89796Y255842D01*
X90000Y256605D01*
Y257395D01*
X89973Y257495D01*
X90360Y257980D01*
X144966D01*
X145032Y257480D01*
X144342Y257296D01*
X143658Y256901D01*
X143099Y256342D01*
X142704Y255658D01*
X142500Y254895D01*
Y254105D01*
X142704Y253342D01*
X143099Y252658D01*
X143658Y252099D01*
X144342Y251704D01*
X145105Y251500D01*
X145895D01*
X146658Y251704D01*
X146782Y251776D01*
X147480Y251078D01*
Y248422D01*
X143078Y244020D01*
X57500D01*
X57110Y243942D01*
X56779Y243721D01*
X42279Y229221D01*
X42058Y228890D01*
X41980Y228500D01*
Y142100D01*
X42058Y141710D01*
X42279Y141379D01*
X47279Y136379D01*
X47610Y136158D01*
X48000Y136080D01*
X62678D01*
X69380Y129378D01*
Y122833D01*
X69242Y122796D01*
X68558Y122401D01*
X67999Y121842D01*
X67604Y121158D01*
X67400Y120395D01*
Y119605D01*
X67604Y118842D01*
X67999Y118158D01*
X68558Y117599D01*
X69242Y117204D01*
X70005Y117000D01*
X70795D01*
X71558Y117204D01*
X72242Y117599D01*
X72801Y118158D01*
X73196Y118842D01*
X73400Y119605D01*
Y120395D01*
X73196Y121158D01*
X72801Y121842D01*
X72242Y122401D01*
X71558Y122796D01*
X71420Y122833D01*
Y129101D01*
X71882Y129292D01*
X84894Y116279D01*
X85225Y116058D01*
X85615Y115980D01*
X154167D01*
X154204Y115842D01*
X154599Y115158D01*
X155158Y114599D01*
X155842Y114204D01*
X156605Y114000D01*
X157395D01*
X158158Y114204D01*
X158842Y114599D01*
X159401Y115158D01*
X159796Y115842D01*
X160000Y116605D01*
Y117395D01*
X159796Y118158D01*
X159401Y118842D01*
X158842Y119401D01*
X158158Y119796D01*
X157395Y120000D01*
X156605D01*
X155842Y119796D01*
X155158Y119401D01*
X154599Y118842D01*
X154204Y118158D01*
X154167Y118020D01*
X86038D01*
X68820Y135238D01*
Y137167D01*
X68958Y137204D01*
X69642Y137599D01*
X70201Y138158D01*
X70596Y138842D01*
X70800Y139605D01*
Y140395D01*
X70596Y141158D01*
X70201Y141842D01*
X69642Y142401D01*
X68958Y142796D01*
X68820Y142833D01*
Y180178D01*
X86922Y198280D01*
X94500D01*
Y197605D01*
X94704Y196842D01*
X95099Y196158D01*
X95658Y195599D01*
X96342Y195204D01*
X97105Y195000D01*
X97895D01*
X98658Y195204D01*
X99342Y195599D01*
X99901Y196158D01*
X100296Y196842D01*
X100500Y197605D01*
Y198395D01*
X100296Y199158D01*
X99901Y199842D01*
X99342Y200401D01*
X98658Y200796D01*
X97895Y201000D01*
X97105D01*
X96342Y200796D01*
X95658Y200401D01*
X95501Y200243D01*
X95118Y200320D01*
X86500D01*
X86110Y200242D01*
X85779Y200021D01*
X67079Y181321D01*
X66858Y180990D01*
X66780Y180600D01*
Y142833D01*
X66642Y142796D01*
X65958Y142401D01*
X65399Y141842D01*
X65004Y141158D01*
X64800Y140395D01*
Y139605D01*
X65004Y138842D01*
X65399Y138158D01*
X65958Y137599D01*
X66642Y137204D01*
X66780Y137167D01*
Y135515D01*
X66319Y135324D01*
X63821Y137821D01*
X63490Y138042D01*
X63100Y138120D01*
X48422D01*
X44020Y142522D01*
Y153162D01*
X44520Y153296D01*
X44599Y153158D01*
X45158Y152599D01*
X45842Y152204D01*
X46605Y152000D01*
X47395D01*
X48158Y152204D01*
X48842Y152599D01*
X49401Y153158D01*
X49796Y153842D01*
X50000Y154605D01*
Y155395D01*
X49796Y156158D01*
X49401Y156842D01*
X48842Y157401D01*
X48158Y157796D01*
X47395Y158000D01*
X46605D01*
X45983Y157833D01*
X45618Y158067D01*
X45520Y158187D01*
Y174966D01*
X46020Y175032D01*
X46204Y174342D01*
X46599Y173658D01*
X47158Y173099D01*
X47842Y172704D01*
X48605Y172500D01*
X49395D01*
X50158Y172704D01*
X50842Y173099D01*
X51401Y173658D01*
X51796Y174342D01*
X52000Y175105D01*
Y175895D01*
X51796Y176658D01*
X51401Y177342D01*
X51342Y177400D01*
X77574Y203632D01*
X77974Y203325D01*
X77704Y202858D01*
X77500Y202095D01*
Y201305D01*
X77704Y200542D01*
X78099Y199858D01*
X78658Y199299D01*
X79342Y198904D01*
X80105Y198700D01*
X80895D01*
X81658Y198904D01*
X82342Y199299D01*
X82901Y199858D01*
X83296Y200542D01*
X83500Y201305D01*
Y202095D01*
X83464Y202229D01*
X84247Y203012D01*
X84532D01*
X84922Y203090D01*
X85253Y203311D01*
X85422Y203480D01*
X110578D01*
X113279Y200779D01*
X113610Y200558D01*
X114000Y200480D01*
X178121D01*
X178512Y200558D01*
X178695Y200680D01*
X180267D01*
X180304Y200542D01*
X180699Y199858D01*
X180902Y199655D01*
X180695Y199155D01*
X113136D01*
X112745Y199078D01*
X112415Y198857D01*
X92011Y178453D01*
X87020D01*
Y179278D01*
X104218Y196476D01*
X104342Y196404D01*
X105105Y196200D01*
X105895D01*
X106658Y196404D01*
X107342Y196799D01*
X107901Y197358D01*
X108296Y198042D01*
X108500Y198805D01*
Y199595D01*
X108296Y200358D01*
X107901Y201042D01*
X107342Y201601D01*
X106658Y201996D01*
X105895Y202200D01*
X105105D01*
X104342Y201996D01*
X103658Y201601D01*
X103099Y201042D01*
X102704Y200358D01*
X102500Y199595D01*
Y198805D01*
X102704Y198042D01*
X102776Y197918D01*
X85279Y180421D01*
X85058Y180090D01*
X84980Y179700D01*
Y158400D01*
X85058Y158010D01*
X85279Y157679D01*
X94957Y148001D01*
X94816Y147758D01*
X94612Y146995D01*
Y146205D01*
X94816Y145442D01*
X95211Y144758D01*
X95770Y144199D01*
X96454Y143804D01*
X97217Y143600D01*
X98007D01*
X98770Y143804D01*
X99013Y143945D01*
X114679Y128279D01*
X115010Y128058D01*
X115400Y127980D01*
X180678D01*
X200676Y107982D01*
X200604Y107858D01*
X200400Y107095D01*
Y106305D01*
X200604Y105542D01*
X200999Y104858D01*
X201558Y104299D01*
X202242Y103904D01*
X203005Y103700D01*
X203795D01*
X204558Y103904D01*
X205242Y104299D01*
X205801Y104858D01*
X206196Y105542D01*
X206400Y106305D01*
Y107095D01*
X206196Y107858D01*
X205801Y108542D01*
X205242Y109101D01*
X204558Y109496D01*
X203795Y109700D01*
X203005D01*
X202242Y109496D01*
X202118Y109424D01*
X181821Y129721D01*
X181490Y129942D01*
X181100Y130020D01*
X115822D01*
X100405Y145437D01*
X100407Y145442D01*
X100612Y146205D01*
Y146995D01*
X100407Y147758D01*
X100012Y148442D01*
X99454Y149001D01*
X98770Y149396D01*
X98007Y149600D01*
X97217D01*
X96454Y149396D01*
X96449Y149393D01*
X87020Y158822D01*
Y171547D01*
X93453D01*
Y177011D01*
X113558Y197116D01*
X261731D01*
X261938Y196616D01*
X261799Y196478D01*
X261420Y195820D01*
X156800D01*
X156410Y195742D01*
X156079Y195521D01*
X152678Y192120D01*
X129833D01*
X129796Y192258D01*
X129401Y192942D01*
X128842Y193501D01*
X128158Y193896D01*
X127395Y194100D01*
X126605D01*
X125842Y193896D01*
X125158Y193501D01*
X124599Y192942D01*
X124204Y192258D01*
X124000Y191495D01*
Y190705D01*
X124204Y189942D01*
X124599Y189258D01*
X125158Y188699D01*
X125842Y188304D01*
X126605Y188100D01*
X127395D01*
X128158Y188304D01*
X128842Y188699D01*
X129401Y189258D01*
X129796Y189942D01*
X129833Y190080D01*
X153100D01*
X153490Y190158D01*
X153821Y190379D01*
X157222Y193780D01*
X261323D01*
X261404Y193478D01*
X261799Y192794D01*
X262358Y192235D01*
X263042Y191840D01*
X263805Y191636D01*
X264595D01*
X265358Y191840D01*
X266042Y192235D01*
X266601Y192794D01*
X266996Y193478D01*
X267200Y194241D01*
Y195031D01*
X266996Y195794D01*
X266601Y196478D01*
X266462Y196616D01*
X266669Y197116D01*
X310142D01*
X310333Y196654D01*
X288299Y174620D01*
X284269D01*
X284062Y175120D01*
X284301Y175358D01*
X284696Y176042D01*
X284900Y176805D01*
Y177595D01*
X284696Y178358D01*
X284301Y179042D01*
X283742Y179601D01*
X283058Y179996D01*
X282295Y180200D01*
X281505D01*
X280742Y179996D01*
X280618Y179924D01*
X271045Y189497D01*
X270714Y189718D01*
X270324Y189796D01*
X169509D01*
X169472Y189934D01*
X169077Y190618D01*
X168518Y191177D01*
X167834Y191572D01*
X167071Y191776D01*
X166281D01*
X165518Y191572D01*
X164834Y191177D01*
X164275Y190618D01*
X163880Y189934D01*
X163676Y189171D01*
Y188381D01*
X163880Y187618D01*
X164275Y186934D01*
X164834Y186375D01*
X165518Y185980D01*
X166281Y185776D01*
X167071D01*
X167834Y185980D01*
X168518Y186375D01*
X169077Y186934D01*
X169472Y187618D01*
X169509Y187756D01*
X269902D01*
X279176Y178482D01*
X279104Y178358D01*
X278900Y177595D01*
Y176805D01*
X279104Y176042D01*
X279499Y175358D01*
X279738Y175120D01*
X279531Y174620D01*
X276422D01*
X271921Y179121D01*
X271590Y179342D01*
X271200Y179420D01*
X191000D01*
X190610Y179342D01*
X190279Y179121D01*
X171182Y160024D01*
X171058Y160096D01*
X170295Y160300D01*
X169505D01*
X168742Y160096D01*
X168620Y160025D01*
X168120Y160313D01*
Y177167D01*
X168258Y177204D01*
X168942Y177599D01*
X169501Y178158D01*
X169896Y178842D01*
X170100Y179605D01*
Y180395D01*
X169896Y181158D01*
X169501Y181842D01*
X168942Y182401D01*
X168258Y182796D01*
X167495Y183000D01*
X166705D01*
X165942Y182796D01*
X165258Y182401D01*
X164699Y181842D01*
X164304Y181158D01*
X164100Y180395D01*
Y179605D01*
X164304Y178842D01*
X164699Y178158D01*
X165258Y177599D01*
X165942Y177204D01*
X166080Y177167D01*
Y164269D01*
X165580Y164062D01*
X165442Y164201D01*
X164758Y164596D01*
X163995Y164800D01*
X163205D01*
X162442Y164596D01*
X162318Y164524D01*
X147721Y179121D01*
X147390Y179342D01*
X147000Y179420D01*
X106133D01*
X106096Y179558D01*
X105701Y180242D01*
X105142Y180801D01*
X104458Y181196D01*
X103695Y181400D01*
X102905D01*
X102142Y181196D01*
X101458Y180801D01*
X100899Y180242D01*
X100504Y179558D01*
X100300Y178795D01*
Y178005D01*
X100504Y177242D01*
X100899Y176558D01*
X101458Y175999D01*
X102142Y175604D01*
X102905Y175400D01*
X103695D01*
X104458Y175604D01*
X105142Y175999D01*
X105701Y176558D01*
X106096Y177242D01*
X106133Y177380D01*
X146578D01*
X160876Y163082D01*
X160804Y162958D01*
X160600Y162195D01*
Y161405D01*
X160804Y160642D01*
X161199Y159958D01*
X161338Y159820D01*
X161131Y159320D01*
X130622D01*
X117921Y172021D01*
X117590Y172242D01*
X117200Y172320D01*
X99900D01*
X99510Y172242D01*
X99179Y172021D01*
X91772Y164614D01*
X91551Y164283D01*
X91473Y163893D01*
Y163064D01*
X91551Y162674D01*
X91772Y162343D01*
X95236Y158879D01*
X95567Y158658D01*
X95957Y158580D01*
X97567D01*
X97604Y158442D01*
X97999Y157758D01*
X98558Y157199D01*
X99242Y156804D01*
X100005Y156600D01*
X100795D01*
X101558Y156804D01*
X102242Y157199D01*
X102801Y157758D01*
X103196Y158442D01*
X103400Y159205D01*
Y159995D01*
X103196Y160758D01*
X102801Y161442D01*
X102242Y162001D01*
X101558Y162396D01*
X100795Y162600D01*
X100005D01*
X99242Y162396D01*
X98558Y162001D01*
X97999Y161442D01*
X97604Y160758D01*
X97567Y160620D01*
X96379D01*
X93520Y163478D01*
X100322Y170280D01*
X116778D01*
X129479Y157579D01*
X129810Y157358D01*
X130200Y157280D01*
X165400D01*
X165790Y157358D01*
X166121Y157579D01*
X166436Y157894D01*
X166793Y157741D01*
X166900Y157651D01*
Y156905D01*
X167104Y156142D01*
X167499Y155458D01*
X168058Y154899D01*
X168742Y154504D01*
X169505Y154300D01*
X170295D01*
X171058Y154504D01*
X171742Y154899D01*
X172301Y155458D01*
X172696Y156142D01*
X172900Y156905D01*
Y157695D01*
X172696Y158458D01*
X172624Y158582D01*
X191422Y177380D01*
X267431D01*
X267638Y176880D01*
X267399Y176642D01*
X267004Y175958D01*
X266800Y175195D01*
Y174405D01*
X267004Y173642D01*
X267076Y173518D01*
X244878Y151320D01*
X231370D01*
Y155224D01*
X226630D01*
Y154319D01*
X225370D01*
Y155224D01*
X224020D01*
Y156376D01*
X225370D01*
Y160525D01*
X220630D01*
Y159470D01*
X219370D01*
Y160525D01*
X214630D01*
Y160058D01*
X212020D01*
Y168600D01*
X212295D01*
X213058Y168804D01*
X213742Y169199D01*
X214301Y169758D01*
X214696Y170442D01*
X214900Y171205D01*
Y171995D01*
X214696Y172758D01*
X214301Y173442D01*
X213742Y174001D01*
X213058Y174396D01*
X212295Y174600D01*
X211505D01*
X210742Y174396D01*
X210058Y174001D01*
X209499Y173442D01*
X209104Y172758D01*
X208900Y171995D01*
Y171205D01*
X209104Y170442D01*
X209499Y169758D01*
X210024Y169233D01*
X209980Y169014D01*
Y159500D01*
Y155224D01*
X208630D01*
Y151320D01*
X116833D01*
X116796Y151458D01*
X116401Y152142D01*
X115842Y152701D01*
X115158Y153096D01*
X114395Y153300D01*
X113605D01*
X112842Y153096D01*
X112158Y152701D01*
X111599Y152142D01*
X111204Y151458D01*
X111000Y150695D01*
Y149905D01*
X111204Y149142D01*
X111599Y148458D01*
X112158Y147899D01*
X112842Y147504D01*
X113605Y147300D01*
X114395D01*
X115158Y147504D01*
X115842Y147899D01*
X116401Y148458D01*
X116796Y149142D01*
X116833Y149280D01*
X208280D01*
X208630Y148925D01*
X208630Y148780D01*
Y144776D01*
X209980D01*
Y144022D01*
X204382Y138424D01*
X204258Y138496D01*
X203495Y138700D01*
X202705D01*
X201942Y138496D01*
X201258Y138101D01*
X200699Y137542D01*
X200304Y136858D01*
X200100Y136095D01*
Y135305D01*
X200304Y134542D01*
X200699Y133858D01*
X201258Y133299D01*
X201942Y132904D01*
X202705Y132700D01*
X203495D01*
X204258Y132904D01*
X204942Y133299D01*
X205501Y133858D01*
X205896Y134542D01*
X206100Y135305D01*
Y136095D01*
X205896Y136858D01*
X205824Y136982D01*
X211721Y142879D01*
X211942Y143210D01*
X212020Y143600D01*
Y144776D01*
X213370D01*
Y145831D01*
X214630D01*
Y144776D01*
X219370D01*
Y145831D01*
X220630D01*
Y144776D01*
X225370D01*
Y145831D01*
X226630D01*
Y144776D01*
X231370D01*
Y148780D01*
X231370Y148925D01*
X231720Y149280D01*
X245300D01*
X245464Y149313D01*
X245710Y148852D01*
X215578Y118720D01*
X204133D01*
X204096Y118858D01*
X203701Y119542D01*
X203142Y120101D01*
X202458Y120496D01*
X201695Y120700D01*
X200905D01*
X200142Y120496D01*
X199458Y120101D01*
X198899Y119542D01*
X198504Y118858D01*
X198300Y118095D01*
Y117305D01*
X198504Y116542D01*
X198899Y115858D01*
X199458Y115299D01*
X200142Y114904D01*
X200905Y114700D01*
X201695D01*
X202458Y114904D01*
X203142Y115299D01*
X203701Y115858D01*
X204096Y116542D01*
X204133Y116680D01*
X216000D01*
X216390Y116758D01*
X216721Y116979D01*
X267022Y167280D01*
X303700D01*
X304090Y167358D01*
X304421Y167579D01*
X323200Y186358D01*
X338451Y171107D01*
X338781Y170886D01*
X339172Y170809D01*
X366579D01*
X366704Y170342D01*
X367099Y169658D01*
X367658Y169099D01*
X368342Y168704D01*
X369105Y168500D01*
X369895D01*
X370658Y168704D01*
X371342Y169099D01*
X371901Y169658D01*
X372296Y170342D01*
X372500Y171105D01*
Y171895D01*
X372296Y172658D01*
X371901Y173342D01*
X371342Y173901D01*
X370658Y174296D01*
X369895Y174500D01*
X369105D01*
X368342Y174296D01*
X367658Y173901D01*
X367099Y173342D01*
X366814Y172848D01*
X339594D01*
X324642Y187800D01*
X336221Y199379D01*
X336442Y199710D01*
X336520Y200100D01*
Y208167D01*
X336658Y208204D01*
X337342Y208599D01*
X337901Y209158D01*
X338296Y209842D01*
X338500Y210605D01*
Y211395D01*
X338296Y212158D01*
X337901Y212842D01*
X337342Y213401D01*
X336658Y213796D01*
X335895Y214000D01*
X335105D01*
X334342Y213796D01*
X333658Y213401D01*
X333099Y212842D01*
X332704Y212158D01*
X332500Y211395D01*
Y210605D01*
X332704Y209842D01*
X333099Y209158D01*
X333658Y208599D01*
X334342Y208204D01*
X334480Y208167D01*
Y200522D01*
X322479Y188521D01*
X303278Y169320D01*
X266600D01*
X266436Y169287D01*
X266190Y169748D01*
X268518Y172076D01*
X268642Y172004D01*
X269405Y171800D01*
X270195D01*
X270958Y172004D01*
X271642Y172399D01*
X272201Y172958D01*
X272596Y173642D01*
X272800Y174405D01*
Y174651D01*
X273300Y174858D01*
X275279Y172879D01*
X275610Y172658D01*
X276000Y172580D01*
X288721D01*
X289111Y172658D01*
X289442Y172879D01*
X368444Y251880D01*
X385067D01*
X385104Y251742D01*
X385499Y251058D01*
X386058Y250499D01*
X386742Y250104D01*
X387505Y249900D01*
X388295D01*
X389058Y250104D01*
X389742Y250499D01*
X390301Y251058D01*
X390696Y251742D01*
X390900Y252505D01*
Y253295D01*
X390696Y254058D01*
X390301Y254742D01*
X389742Y255301D01*
X389058Y255696D01*
X388295Y255900D01*
X387505D01*
X386742Y255696D01*
X386058Y255301D01*
X385499Y254742D01*
X385104Y254058D01*
X385067Y253920D01*
X369015D01*
X368824Y254381D01*
X406718Y292276D01*
X406842Y292204D01*
X407605Y292000D01*
X408395D01*
X409158Y292204D01*
X409842Y292599D01*
X410401Y293158D01*
X410796Y293842D01*
X411000Y294605D01*
Y295395D01*
X410796Y296158D01*
X410401Y296842D01*
X409842Y297401D01*
X409158Y297796D01*
X408395Y298000D01*
D02*
G37*
G36*
X542461Y297500D02*
X541539D01*
X540649Y297262D01*
X539851Y296801D01*
X539199Y296149D01*
X538738Y295351D01*
X538500Y294461D01*
Y293539D01*
X538738Y292649D01*
X539199Y291851D01*
X539851Y291199D01*
X540649Y290739D01*
X541539Y290500D01*
X542461D01*
X543351Y290739D01*
X544149Y291199D01*
X544801Y291851D01*
X545261Y292649D01*
X545500Y293539D01*
Y294461D01*
X545261Y295351D01*
X544801Y296149D01*
X544149Y296801D01*
X543351Y297262D01*
X542461Y297500D01*
D02*
G37*
G36*
X535500D02*
X528500D01*
Y290500D01*
X535500D01*
Y297500D01*
D02*
G37*
G36*
X208895Y294000D02*
X208105D01*
X207342Y293796D01*
X206658Y293401D01*
X206099Y292842D01*
X205704Y292158D01*
X205500Y291395D01*
Y290605D01*
X205704Y289842D01*
X206099Y289158D01*
X206658Y288599D01*
X207342Y288204D01*
X208105Y288000D01*
X208895D01*
X209658Y288204D01*
X210136Y288480D01*
X247845D01*
X247882Y288342D01*
X248277Y287658D01*
X248835Y287099D01*
X249519Y286704D01*
X250282Y286500D01*
X251072D01*
X251835Y286704D01*
X252519Y287099D01*
X253078Y287658D01*
X253473Y288342D01*
X253677Y289105D01*
Y289895D01*
X253473Y290658D01*
X253078Y291342D01*
X252519Y291901D01*
X251835Y292296D01*
X251072Y292500D01*
X250282D01*
X249519Y292296D01*
X248835Y291901D01*
X248277Y291342D01*
X247882Y290658D01*
X247845Y290520D01*
X211566D01*
X211500Y290605D01*
Y291395D01*
X211296Y292158D01*
X210901Y292842D01*
X210342Y293401D01*
X209658Y293796D01*
X208895Y294000D01*
D02*
G37*
G36*
X542461Y287500D02*
X541539D01*
X540649Y287262D01*
X539851Y286801D01*
X539199Y286149D01*
X538738Y285351D01*
X538500Y284461D01*
Y283539D01*
X538738Y282649D01*
X539199Y281851D01*
X539851Y281199D01*
X540649Y280738D01*
X541539Y280500D01*
X542461D01*
X543351Y280738D01*
X544149Y281199D01*
X544801Y281851D01*
X545261Y282649D01*
X545500Y283539D01*
Y284461D01*
X545261Y285351D01*
X544801Y286149D01*
X544149Y286801D01*
X543351Y287262D01*
X542461Y287500D01*
D02*
G37*
G36*
X532461D02*
X531539D01*
X530649Y287262D01*
X529851Y286801D01*
X529199Y286149D01*
X528738Y285351D01*
X528500Y284461D01*
Y283539D01*
X528738Y282649D01*
X529199Y281851D01*
X529851Y281199D01*
X530649Y280738D01*
X531539Y280500D01*
X532461D01*
X533351Y280738D01*
X534149Y281199D01*
X534801Y281851D01*
X535261Y282649D01*
X535500Y283539D01*
Y284461D01*
X535261Y285351D01*
X534801Y286149D01*
X534149Y286801D01*
X533351Y287262D01*
X532461Y287500D01*
D02*
G37*
G36*
X273895Y282000D02*
X273105D01*
X272342Y281796D01*
X271658Y281401D01*
X271099Y280842D01*
X270704Y280158D01*
X270667Y280020D01*
X224333D01*
X224296Y280158D01*
X223901Y280842D01*
X223342Y281401D01*
X222658Y281796D01*
X221895Y282000D01*
X221105D01*
X220342Y281796D01*
X219658Y281401D01*
X219099Y280842D01*
X218704Y280158D01*
X218500Y279395D01*
Y278605D01*
X218704Y277842D01*
X219099Y277158D01*
X219658Y276599D01*
X220342Y276204D01*
X221105Y276000D01*
X221895D01*
X222658Y276204D01*
X223342Y276599D01*
X223901Y277158D01*
X224296Y277842D01*
X224333Y277980D01*
X270667D01*
X270704Y277842D01*
X271099Y277158D01*
X271658Y276599D01*
X272342Y276204D01*
X273105Y276000D01*
X273895D01*
X274658Y276204D01*
X275342Y276599D01*
X275901Y277158D01*
X276296Y277842D01*
X276500Y278605D01*
Y279395D01*
X276296Y280158D01*
X275901Y280842D01*
X275342Y281401D01*
X274658Y281796D01*
X273895Y282000D01*
D02*
G37*
G36*
X542461Y277500D02*
X541539D01*
X540649Y277261D01*
X539851Y276801D01*
X539199Y276149D01*
X538738Y275351D01*
X538500Y274461D01*
Y273539D01*
X538738Y272649D01*
X539199Y271851D01*
X539851Y271199D01*
X540649Y270739D01*
X541539Y270500D01*
X542461D01*
X543351Y270739D01*
X544149Y271199D01*
X544801Y271851D01*
X545261Y272649D01*
X545500Y273539D01*
Y274461D01*
X545261Y275351D01*
X544801Y276149D01*
X544149Y276801D01*
X543351Y277261D01*
X542461Y277500D01*
D02*
G37*
G36*
X532461D02*
X531539D01*
X530649Y277261D01*
X529851Y276801D01*
X529199Y276149D01*
X528738Y275351D01*
X528500Y274461D01*
Y273539D01*
X528738Y272649D01*
X529199Y271851D01*
X529851Y271199D01*
X530649Y270739D01*
X531539Y270500D01*
X532461D01*
X533351Y270739D01*
X534149Y271199D01*
X534801Y271851D01*
X535261Y272649D01*
X535500Y273539D01*
Y274461D01*
X535261Y275351D01*
X534801Y276149D01*
X534149Y276801D01*
X533351Y277261D01*
X532461Y277500D01*
D02*
G37*
G36*
X270395Y273000D02*
X269605D01*
X268842Y272796D01*
X268158Y272401D01*
X267599Y271842D01*
X267204Y271158D01*
X267000Y270395D01*
Y269605D01*
X267204Y268842D01*
X267599Y268158D01*
X268158Y267599D01*
X268842Y267204D01*
X269605Y267000D01*
X270395D01*
X271158Y267204D01*
X271842Y267599D01*
X272401Y268158D01*
X272796Y268842D01*
X273000Y269605D01*
Y270395D01*
X272796Y271158D01*
X272401Y271842D01*
X271842Y272401D01*
X271158Y272796D01*
X270395Y273000D01*
D02*
G37*
G36*
X149195Y272000D02*
X148405D01*
X147642Y271796D01*
X146958Y271401D01*
X146399Y270842D01*
X146004Y270158D01*
X145800Y269395D01*
Y268605D01*
X146004Y267842D01*
X146399Y267158D01*
X146958Y266599D01*
X147642Y266204D01*
X148405Y266000D01*
X149195D01*
X149958Y266204D01*
X150642Y266599D01*
X151201Y267158D01*
X151596Y267842D01*
X151800Y268605D01*
Y269395D01*
X151596Y270158D01*
X151201Y270842D01*
X150642Y271401D01*
X149958Y271796D01*
X149195Y272000D01*
D02*
G37*
G36*
X542461Y267500D02*
X541539D01*
X540649Y267262D01*
X539851Y266801D01*
X539199Y266149D01*
X538738Y265351D01*
X538500Y264461D01*
Y263539D01*
X538738Y262649D01*
X539199Y261851D01*
X539851Y261199D01*
X540649Y260738D01*
X541539Y260500D01*
X542461D01*
X543351Y260738D01*
X544149Y261199D01*
X544801Y261851D01*
X545261Y262649D01*
X545500Y263539D01*
Y264461D01*
X545261Y265351D01*
X544801Y266149D01*
X544149Y266801D01*
X543351Y267262D01*
X542461Y267500D01*
D02*
G37*
G36*
X532461D02*
X531539D01*
X530649Y267262D01*
X529851Y266801D01*
X529199Y266149D01*
X528738Y265351D01*
X528500Y264461D01*
Y263539D01*
X528738Y262649D01*
X529199Y261851D01*
X529851Y261199D01*
X530649Y260738D01*
X531539Y260500D01*
X532461D01*
X533351Y260738D01*
X534149Y261199D01*
X534801Y261851D01*
X535261Y262649D01*
X535500Y263539D01*
Y264461D01*
X535261Y265351D01*
X534801Y266149D01*
X534149Y266801D01*
X533351Y267262D01*
X532461Y267500D01*
D02*
G37*
G36*
X77395Y258000D02*
X76605D01*
X75842Y257796D01*
X75158Y257401D01*
X74599Y256842D01*
X74204Y256158D01*
X74000Y255395D01*
Y254605D01*
X74204Y253842D01*
X74599Y253158D01*
X75158Y252599D01*
X75842Y252204D01*
X76605Y252000D01*
X77395D01*
X78158Y252204D01*
X78842Y252599D01*
X79401Y253158D01*
X79796Y253842D01*
X80000Y254605D01*
Y255395D01*
X79796Y256158D01*
X79401Y256842D01*
X78842Y257401D01*
X78158Y257796D01*
X77395Y258000D01*
D02*
G37*
G36*
X542461Y257500D02*
X541539D01*
X540649Y257261D01*
X539851Y256801D01*
X539199Y256149D01*
X538738Y255351D01*
X538500Y254461D01*
Y253539D01*
X538738Y252649D01*
X539199Y251851D01*
X539851Y251199D01*
X540649Y250739D01*
X541539Y250500D01*
X542461D01*
X543351Y250739D01*
X544149Y251199D01*
X544801Y251851D01*
X545261Y252649D01*
X545500Y253539D01*
Y254461D01*
X545261Y255351D01*
X544801Y256149D01*
X544149Y256801D01*
X543351Y257261D01*
X542461Y257500D01*
D02*
G37*
G36*
X532461D02*
X531539D01*
X530649Y257261D01*
X529851Y256801D01*
X529199Y256149D01*
X528738Y255351D01*
X528500Y254461D01*
Y253539D01*
X528738Y252649D01*
X529199Y251851D01*
X529851Y251199D01*
X530649Y250739D01*
X531539Y250500D01*
X532461D01*
X533351Y250739D01*
X534149Y251199D01*
X534801Y251851D01*
X535261Y252649D01*
X535500Y253539D01*
Y254461D01*
X535261Y255351D01*
X534801Y256149D01*
X534149Y256801D01*
X533351Y257261D01*
X532461Y257500D01*
D02*
G37*
G36*
X140395Y251000D02*
X139605D01*
X138842Y250796D01*
X138158Y250401D01*
X137717Y249959D01*
X137414Y250020D01*
X56200D01*
X55810Y249942D01*
X55479Y249721D01*
X24279Y218521D01*
X24058Y218190D01*
X23980Y217800D01*
Y193547D01*
X23500Y193500D01*
X23480Y193500D01*
X16500D01*
Y186500D01*
X23480D01*
X23500Y186500D01*
X23980Y186453D01*
Y180600D01*
X23480Y180534D01*
X23261Y181351D01*
X22801Y182149D01*
X22149Y182801D01*
X21351Y183262D01*
X20461Y183500D01*
X19539D01*
X18649Y183262D01*
X17851Y182801D01*
X17199Y182149D01*
X16738Y181351D01*
X16500Y180461D01*
Y179539D01*
X16738Y178649D01*
X17199Y177851D01*
X17851Y177199D01*
X18649Y176739D01*
X19539Y176500D01*
X20461D01*
X21351Y176739D01*
X22149Y177199D01*
X22801Y177851D01*
X23261Y178649D01*
X23480Y179466D01*
X23980Y179400D01*
Y170600D01*
X23480Y170534D01*
X23261Y171351D01*
X22801Y172149D01*
X22149Y172801D01*
X21351Y173261D01*
X20461Y173500D01*
X19539D01*
X18649Y173261D01*
X17851Y172801D01*
X17199Y172149D01*
X16738Y171351D01*
X16500Y170461D01*
Y169539D01*
X16738Y168649D01*
X17199Y167851D01*
X17851Y167199D01*
X18649Y166738D01*
X19539Y166500D01*
X20461D01*
X21351Y166738D01*
X22149Y167199D01*
X22801Y167851D01*
X23261Y168649D01*
X23480Y169466D01*
X23980Y169400D01*
Y160600D01*
X23480Y160534D01*
X23261Y161351D01*
X22801Y162149D01*
X22149Y162801D01*
X21351Y163261D01*
X20461Y163500D01*
X19539D01*
X18649Y163261D01*
X17851Y162801D01*
X17199Y162149D01*
X16738Y161351D01*
X16500Y160461D01*
Y159539D01*
X16738Y158649D01*
X17199Y157851D01*
X17851Y157199D01*
X18649Y156738D01*
X19539Y156500D01*
X20461D01*
X21351Y156738D01*
X22149Y157199D01*
X22801Y157851D01*
X23261Y158649D01*
X23480Y159466D01*
X23980Y159400D01*
Y150600D01*
X23480Y150534D01*
X23261Y151351D01*
X22801Y152149D01*
X22149Y152801D01*
X21351Y153261D01*
X20461Y153500D01*
X19539D01*
X18649Y153261D01*
X17851Y152801D01*
X17199Y152149D01*
X16738Y151351D01*
X16500Y150461D01*
Y149539D01*
X16738Y148649D01*
X17199Y147851D01*
X17851Y147199D01*
X18649Y146739D01*
X19539Y146500D01*
X20461D01*
X21351Y146739D01*
X22149Y147199D01*
X22801Y147851D01*
X23261Y148649D01*
X23480Y149466D01*
X23980Y149400D01*
Y140600D01*
X23480Y140534D01*
X23261Y141351D01*
X22801Y142149D01*
X22149Y142801D01*
X21351Y143262D01*
X20461Y143500D01*
X19539D01*
X18649Y143262D01*
X17851Y142801D01*
X17199Y142149D01*
X16738Y141351D01*
X16500Y140461D01*
Y139539D01*
X16738Y138649D01*
X17199Y137851D01*
X17851Y137199D01*
X18649Y136739D01*
X19539Y136500D01*
X20461D01*
X21351Y136739D01*
X22149Y137199D01*
X22801Y137851D01*
X23261Y138649D01*
X23480Y139466D01*
X23980Y139400D01*
Y137100D01*
X24058Y136710D01*
X24279Y136379D01*
X26279Y134379D01*
X26610Y134158D01*
X27000Y134080D01*
X44278D01*
X48880Y129478D01*
Y127233D01*
X48742Y127196D01*
X48058Y126801D01*
X47499Y126242D01*
X47104Y125558D01*
X46900Y124795D01*
Y124005D01*
X47104Y123242D01*
X47499Y122558D01*
X48058Y121999D01*
X48742Y121604D01*
X49505Y121400D01*
X50295D01*
X51058Y121604D01*
X51742Y121999D01*
X52301Y122558D01*
X52696Y123242D01*
X52900Y124005D01*
Y124795D01*
X52696Y125558D01*
X52301Y126242D01*
X51742Y126801D01*
X51058Y127196D01*
X50920Y127233D01*
Y129900D01*
X50842Y130290D01*
X50621Y130621D01*
X45421Y135821D01*
X45090Y136042D01*
X44700Y136120D01*
X30973D01*
X30907Y136620D01*
X31351Y136739D01*
X32149Y137199D01*
X32801Y137851D01*
X33261Y138649D01*
X33500Y139539D01*
Y140461D01*
X33261Y141351D01*
X32801Y142149D01*
X32149Y142801D01*
X31351Y143262D01*
X30461Y143500D01*
X29539D01*
X28649Y143262D01*
X27851Y142801D01*
X27199Y142149D01*
X26739Y141351D01*
X26520Y140534D01*
X26020Y140600D01*
Y149400D01*
X26520Y149466D01*
X26739Y148649D01*
X27199Y147851D01*
X27851Y147199D01*
X28649Y146739D01*
X29539Y146500D01*
X30461D01*
X31351Y146739D01*
X32149Y147199D01*
X32801Y147851D01*
X33261Y148649D01*
X33500Y149539D01*
Y150461D01*
X33261Y151351D01*
X32801Y152149D01*
X32149Y152801D01*
X31351Y153261D01*
X30461Y153500D01*
X29539D01*
X28649Y153261D01*
X27851Y152801D01*
X27199Y152149D01*
X26739Y151351D01*
X26520Y150534D01*
X26020Y150600D01*
Y159400D01*
X26520Y159466D01*
X26739Y158649D01*
X27199Y157851D01*
X27851Y157199D01*
X28649Y156738D01*
X29539Y156500D01*
X30461D01*
X31351Y156738D01*
X32149Y157199D01*
X32801Y157851D01*
X33261Y158649D01*
X33500Y159539D01*
Y160461D01*
X33261Y161351D01*
X32801Y162149D01*
X32149Y162801D01*
X31351Y163261D01*
X30461Y163500D01*
X29539D01*
X28649Y163261D01*
X27851Y162801D01*
X27199Y162149D01*
X26739Y161351D01*
X26520Y160534D01*
X26020Y160600D01*
Y169400D01*
X26520Y169466D01*
X26739Y168649D01*
X27199Y167851D01*
X27851Y167199D01*
X28649Y166738D01*
X29539Y166500D01*
X30461D01*
X31351Y166738D01*
X32149Y167199D01*
X32801Y167851D01*
X33261Y168649D01*
X33500Y169539D01*
Y170461D01*
X33261Y171351D01*
X32801Y172149D01*
X32149Y172801D01*
X31351Y173261D01*
X30461Y173500D01*
X29539D01*
X28649Y173261D01*
X27851Y172801D01*
X27199Y172149D01*
X26739Y171351D01*
X26520Y170534D01*
X26020Y170600D01*
Y179400D01*
X26520Y179466D01*
X26739Y178649D01*
X27199Y177851D01*
X27851Y177199D01*
X28649Y176739D01*
X29539Y176500D01*
X30461D01*
X31351Y176739D01*
X32149Y177199D01*
X32801Y177851D01*
X33261Y178649D01*
X33500Y179539D01*
Y180461D01*
X33261Y181351D01*
X32801Y182149D01*
X32149Y182801D01*
X31351Y183262D01*
X30461Y183500D01*
X29539D01*
X28649Y183262D01*
X27851Y182801D01*
X27199Y182149D01*
X26739Y181351D01*
X26520Y180534D01*
X26020Y180600D01*
Y189400D01*
X26520Y189466D01*
X26739Y188649D01*
X27199Y187851D01*
X27851Y187199D01*
X28649Y186739D01*
X29539Y186500D01*
X30461D01*
X31351Y186739D01*
X32149Y187199D01*
X32801Y187851D01*
X33261Y188649D01*
X33500Y189539D01*
Y190461D01*
X33261Y191351D01*
X32801Y192149D01*
X32149Y192801D01*
X31351Y193262D01*
X30461Y193500D01*
X29539D01*
X28649Y193262D01*
X27851Y192801D01*
X27199Y192149D01*
X26739Y191351D01*
X26520Y190534D01*
X26020Y190600D01*
Y217378D01*
X56622Y247980D01*
X137000D01*
Y247605D01*
X137204Y246842D01*
X137599Y246158D01*
X138158Y245599D01*
X138842Y245204D01*
X139605Y245000D01*
X140395D01*
X141158Y245204D01*
X141842Y245599D01*
X142401Y246158D01*
X142796Y246842D01*
X143000Y247605D01*
Y248395D01*
X142796Y249158D01*
X142401Y249842D01*
X141842Y250401D01*
X141158Y250796D01*
X140395Y251000D01*
D02*
G37*
G36*
X244389Y247800D02*
X243599D01*
X242836Y247596D01*
X242151Y247201D01*
X241593Y246642D01*
X241198Y245958D01*
X240994Y245195D01*
Y244405D01*
X241198Y243642D01*
X241593Y242958D01*
X242151Y242399D01*
X242836Y242004D01*
X243599Y241800D01*
X244389D01*
X245152Y242004D01*
X245836Y242399D01*
X246394Y242958D01*
X246789Y243642D01*
X246994Y244405D01*
Y245195D01*
X246789Y245958D01*
X246394Y246642D01*
X245836Y247201D01*
X245152Y247596D01*
X244389Y247800D01*
D02*
G37*
G36*
X542461Y247500D02*
X541539D01*
X540649Y247262D01*
X539851Y246801D01*
X539199Y246149D01*
X538738Y245351D01*
X538500Y244461D01*
Y243539D01*
X538738Y242649D01*
X539199Y241851D01*
X539851Y241199D01*
X540649Y240739D01*
X541539Y240500D01*
X542461D01*
X543351Y240739D01*
X544149Y241199D01*
X544801Y241851D01*
X545261Y242649D01*
X545500Y243539D01*
Y244461D01*
X545261Y245351D01*
X544801Y246149D01*
X544149Y246801D01*
X543351Y247262D01*
X542461Y247500D01*
D02*
G37*
G36*
X532461D02*
X531539D01*
X530649Y247262D01*
X529851Y246801D01*
X529199Y246149D01*
X528738Y245351D01*
X528500Y244461D01*
Y243539D01*
X528738Y242649D01*
X529199Y241851D01*
X529851Y241199D01*
X530649Y240739D01*
X531539Y240500D01*
X532461D01*
X533351Y240739D01*
X534149Y241199D01*
X534801Y241851D01*
X535261Y242649D01*
X535500Y243539D01*
Y244461D01*
X535261Y245351D01*
X534801Y246149D01*
X534149Y246801D01*
X533351Y247262D01*
X532461Y247500D01*
D02*
G37*
G36*
X301395Y246200D02*
X300605D01*
X299842Y245996D01*
X299158Y245601D01*
X298599Y245042D01*
X298204Y244358D01*
X298000Y243595D01*
Y242805D01*
X298204Y242042D01*
X298276Y241918D01*
X279678Y223320D01*
X216422D01*
X215524Y224218D01*
X215596Y224342D01*
X215800Y225105D01*
Y225895D01*
X215596Y226658D01*
X215201Y227342D01*
X214642Y227901D01*
X213958Y228296D01*
X213195Y228500D01*
X212405D01*
X211642Y228296D01*
X210958Y227901D01*
X210399Y227342D01*
X210004Y226658D01*
X209800Y225895D01*
Y225105D01*
X210004Y224342D01*
X210399Y223658D01*
X210958Y223099D01*
X211642Y222704D01*
X212405Y222500D01*
X213195D01*
X213958Y222704D01*
X214082Y222776D01*
X215279Y221579D01*
X215610Y221358D01*
X216000Y221280D01*
X280100D01*
X280490Y221358D01*
X280821Y221579D01*
X299718Y240476D01*
X299842Y240404D01*
X300605Y240200D01*
X301395D01*
X302158Y240404D01*
X302842Y240799D01*
X303401Y241358D01*
X303796Y242042D01*
X304000Y242805D01*
Y243595D01*
X303796Y244358D01*
X303401Y245042D01*
X302842Y245601D01*
X302158Y245996D01*
X301395Y246200D01*
D02*
G37*
G36*
X382195Y242600D02*
X381405D01*
X380642Y242396D01*
X379958Y242001D01*
X379399Y241442D01*
X379004Y240758D01*
X378800Y239995D01*
Y239205D01*
X379004Y238442D01*
X379076Y238318D01*
X375279Y234521D01*
X375058Y234190D01*
X374980Y233800D01*
Y170122D01*
X371178Y166320D01*
X269000D01*
X268610Y166242D01*
X268279Y166021D01*
X187778Y85520D01*
X179333D01*
X179296Y85658D01*
X178901Y86342D01*
X178342Y86901D01*
X177658Y87296D01*
X176895Y87500D01*
X176105D01*
X175342Y87296D01*
X174658Y86901D01*
X174099Y86342D01*
X173704Y85658D01*
X173500Y84895D01*
Y84105D01*
X173704Y83342D01*
X174099Y82658D01*
X174658Y82099D01*
X175342Y81704D01*
X176105Y81500D01*
X176895D01*
X177658Y81704D01*
X178342Y82099D01*
X178901Y82658D01*
X179296Y83342D01*
X179333Y83480D01*
X188200D01*
X188590Y83558D01*
X188921Y83779D01*
X269422Y164280D01*
X285940D01*
X286139Y163780D01*
X204603Y82245D01*
X204479Y82317D01*
X203716Y82521D01*
X202926D01*
X202163Y82317D01*
X201479Y81922D01*
X200921Y81363D01*
X200526Y80679D01*
X200321Y79916D01*
Y79126D01*
X200526Y78363D01*
X200921Y77679D01*
X201479Y77121D01*
X202163Y76726D01*
X202926Y76521D01*
X203716D01*
X204479Y76726D01*
X205163Y77121D01*
X205722Y77679D01*
X206117Y78363D01*
X206321Y79126D01*
Y79916D01*
X206117Y80679D01*
X206045Y80803D01*
X287422Y162180D01*
X481700D01*
X482090Y162258D01*
X482421Y162479D01*
X486643Y166701D01*
X486843Y167000D01*
X487395D01*
X488158Y167204D01*
X488842Y167599D01*
X489401Y168158D01*
X489796Y168842D01*
X490000Y169605D01*
Y170395D01*
X489796Y171158D01*
X489401Y171842D01*
X488842Y172401D01*
X488158Y172796D01*
X487395Y173000D01*
X486605D01*
X485842Y172796D01*
X485158Y172401D01*
X484599Y171842D01*
X484204Y171158D01*
X484000Y170395D01*
Y169605D01*
X484204Y168842D01*
X484599Y168158D01*
X484905Y167853D01*
X484903Y167845D01*
X481278Y164220D01*
X372660D01*
X372462Y164720D01*
X376721Y168979D01*
X376942Y169310D01*
X377020Y169700D01*
Y233378D01*
X380518Y236876D01*
X380642Y236804D01*
X381405Y236600D01*
X382195D01*
X382958Y236804D01*
X383642Y237199D01*
X384201Y237758D01*
X384596Y238442D01*
X384800Y239205D01*
Y239995D01*
X384596Y240758D01*
X384201Y241442D01*
X383642Y242001D01*
X382958Y242396D01*
X382195Y242600D01*
D02*
G37*
G36*
X459953Y241453D02*
X453047D01*
Y234547D01*
X459953D01*
Y241453D01*
D02*
G37*
G36*
X447453D02*
X440547D01*
Y234547D01*
X447453D01*
Y241453D01*
D02*
G37*
G36*
X232495Y249400D02*
X231705D01*
X230942Y249196D01*
X230258Y248801D01*
X229699Y248242D01*
X229304Y247558D01*
X229100Y246795D01*
Y246005D01*
X229304Y245242D01*
X229699Y244558D01*
X230258Y243999D01*
X230942Y243604D01*
X231705Y243400D01*
X232495D01*
X233258Y243604D01*
X233382Y243676D01*
X244179Y232879D01*
X244510Y232658D01*
X244900Y232580D01*
X266367D01*
X266404Y232442D01*
X266799Y231758D01*
X267358Y231199D01*
X268042Y230804D01*
X268805Y230600D01*
X269595D01*
X270358Y230804D01*
X271042Y231199D01*
X271601Y231758D01*
X271996Y232442D01*
X272200Y233205D01*
Y233995D01*
X271996Y234758D01*
X271601Y235442D01*
X271042Y236001D01*
X270358Y236396D01*
X269595Y236600D01*
X268805D01*
X268042Y236396D01*
X267358Y236001D01*
X266799Y235442D01*
X266404Y234758D01*
X266367Y234620D01*
X245322D01*
X234824Y245118D01*
X234896Y245242D01*
X235100Y246005D01*
Y246795D01*
X234896Y247558D01*
X234501Y248242D01*
X233942Y248801D01*
X233258Y249196D01*
X232495Y249400D01*
D02*
G37*
G36*
X542461Y237500D02*
X541539D01*
X540649Y237262D01*
X539851Y236801D01*
X539199Y236149D01*
X538738Y235351D01*
X538500Y234461D01*
Y233539D01*
X538738Y232649D01*
X539199Y231851D01*
X539851Y231199D01*
X540649Y230738D01*
X541539Y230500D01*
X542461D01*
X543351Y230738D01*
X544149Y231199D01*
X544801Y231851D01*
X545261Y232649D01*
X545500Y233539D01*
Y234461D01*
X545261Y235351D01*
X544801Y236149D01*
X544149Y236801D01*
X543351Y237262D01*
X542461Y237500D01*
D02*
G37*
G36*
X532461D02*
X531539D01*
X530649Y237262D01*
X529851Y236801D01*
X529199Y236149D01*
X528738Y235351D01*
X528500Y234461D01*
Y233539D01*
X528738Y232649D01*
X529199Y231851D01*
X529851Y231199D01*
X530649Y230738D01*
X531539Y230500D01*
X532461D01*
X533351Y230738D01*
X534149Y231199D01*
X534801Y231851D01*
X535261Y232649D01*
X535500Y233539D01*
Y234461D01*
X535261Y235351D01*
X534801Y236149D01*
X534149Y236801D01*
X533351Y237262D01*
X532461Y237500D01*
D02*
G37*
G36*
X180395Y259000D02*
X179605D01*
X178842Y258796D01*
X178158Y258401D01*
X177599Y257842D01*
X177204Y257158D01*
X177000Y256395D01*
Y255605D01*
X177204Y254842D01*
X177599Y254158D01*
X178158Y253599D01*
X178842Y253204D01*
X179605Y253000D01*
X180395D01*
X181158Y253204D01*
X181842Y253599D01*
X182401Y254158D01*
X182796Y254842D01*
X182833Y254980D01*
X208078D01*
X234535Y228524D01*
X234500Y228395D01*
Y227605D01*
X234704Y226842D01*
X235099Y226158D01*
X235658Y225599D01*
X236342Y225204D01*
X237105Y225000D01*
X237895D01*
X238658Y225204D01*
X239342Y225599D01*
X239901Y226158D01*
X240296Y226842D01*
X240500Y227605D01*
Y228395D01*
X240296Y229158D01*
X239901Y229842D01*
X239342Y230401D01*
X238658Y230796D01*
X237895Y231000D01*
X237105D01*
X236342Y230796D01*
X235658Y230401D01*
X235600Y230342D01*
X209221Y256721D01*
X208890Y256942D01*
X208500Y257020D01*
X182833D01*
X182796Y257158D01*
X182401Y257842D01*
X181842Y258401D01*
X181158Y258796D01*
X180395Y259000D01*
D02*
G37*
G36*
X542461Y227500D02*
X541539D01*
X540649Y227261D01*
X539851Y226801D01*
X539199Y226149D01*
X538738Y225351D01*
X538500Y224461D01*
Y223539D01*
X538738Y222649D01*
X539199Y221851D01*
X539851Y221199D01*
X540649Y220739D01*
X541539Y220500D01*
X542461D01*
X543351Y220739D01*
X544149Y221199D01*
X544801Y221851D01*
X545261Y222649D01*
X545500Y223539D01*
Y224461D01*
X545261Y225351D01*
X544801Y226149D01*
X544149Y226801D01*
X543351Y227261D01*
X542461Y227500D01*
D02*
G37*
G36*
X532461D02*
X531539D01*
X530649Y227261D01*
X529851Y226801D01*
X529199Y226149D01*
X528738Y225351D01*
X528500Y224461D01*
Y223539D01*
X528738Y222649D01*
X529199Y221851D01*
X529851Y221199D01*
X530649Y220739D01*
X531539Y220500D01*
X532461D01*
X533351Y220739D01*
X534149Y221199D01*
X534801Y221851D01*
X535261Y222649D01*
X535500Y223539D01*
Y224461D01*
X535261Y225351D01*
X534801Y226149D01*
X534149Y226801D01*
X533351Y227261D01*
X532461Y227500D01*
D02*
G37*
G36*
X447453Y223953D02*
X440547D01*
Y217047D01*
X447453D01*
Y223953D01*
D02*
G37*
G36*
X353453Y223453D02*
X346547D01*
Y216547D01*
X353453D01*
Y223453D01*
D02*
G37*
G36*
X411955Y222453D02*
X411045D01*
X410167Y222217D01*
X409380Y221763D01*
X408737Y221120D01*
X408283Y220333D01*
X408047Y219455D01*
Y218545D01*
X408283Y217667D01*
X408737Y216880D01*
X409380Y216237D01*
X410167Y215782D01*
X411045Y215547D01*
X411955D01*
X412833Y215782D01*
X413620Y216237D01*
X414263Y216880D01*
X414717Y217667D01*
X414953Y218545D01*
Y219455D01*
X414717Y220333D01*
X414263Y221120D01*
X413620Y221763D01*
X412833Y222217D01*
X411955Y222453D01*
D02*
G37*
G36*
X404953D02*
X398047D01*
Y215547D01*
X404953D01*
Y222453D01*
D02*
G37*
G36*
X411955Y212453D02*
X411045D01*
X410167Y212217D01*
X409380Y211763D01*
X408737Y211120D01*
X408283Y210333D01*
X408047Y209455D01*
Y208545D01*
X408283Y207667D01*
X408737Y206880D01*
X409380Y206237D01*
X410167Y205783D01*
X411045Y205547D01*
X411955D01*
X412833Y205783D01*
X413620Y206237D01*
X414263Y206880D01*
X414717Y207667D01*
X414953Y208545D01*
Y209455D01*
X414717Y210333D01*
X414263Y211120D01*
X413620Y211763D01*
X412833Y212217D01*
X411955Y212453D01*
D02*
G37*
G36*
X401955D02*
X401045D01*
X400167Y212217D01*
X399380Y211763D01*
X398737Y211120D01*
X398283Y210333D01*
X398047Y209455D01*
Y208545D01*
X398283Y207667D01*
X398737Y206880D01*
X399380Y206237D01*
X400167Y205783D01*
X401045Y205547D01*
X401955D01*
X402833Y205783D01*
X403620Y206237D01*
X404263Y206880D01*
X404717Y207667D01*
X404953Y208545D01*
Y209455D01*
X404717Y210333D01*
X404263Y211120D01*
X403620Y211763D01*
X402833Y212217D01*
X401955Y212453D01*
D02*
G37*
G36*
X254453Y208453D02*
X247547D01*
Y201547D01*
X254453D01*
Y208453D01*
D02*
G37*
G36*
X447453Y206453D02*
X440547D01*
Y199547D01*
X447453D01*
Y206453D01*
D02*
G37*
G36*
X353453Y203453D02*
X346547D01*
Y196547D01*
X353453D01*
Y203453D01*
D02*
G37*
G36*
X447453Y188953D02*
X440547D01*
Y182047D01*
X447453D01*
Y188953D01*
D02*
G37*
G36*
X380795Y251000D02*
X380005D01*
X379242Y250796D01*
X378558Y250401D01*
X377999Y249842D01*
X377604Y249158D01*
X377400Y248395D01*
Y247605D01*
X377604Y246842D01*
X377999Y246158D01*
X378558Y245599D01*
X379242Y245204D01*
X380005Y245000D01*
X380795D01*
X381558Y245204D01*
X381682Y245276D01*
X392480Y234478D01*
Y197600D01*
X392558Y197210D01*
X392779Y196879D01*
X396079Y193579D01*
X396410Y193358D01*
X396800Y193280D01*
X485778D01*
X493480Y185578D01*
Y177746D01*
X492980Y177697D01*
X492942Y177890D01*
X492721Y178221D01*
X489221Y181721D01*
X488890Y181942D01*
X488500Y182020D01*
X478086D01*
X477783Y181959D01*
X477342Y182401D01*
X476658Y182796D01*
X475895Y183000D01*
X475105D01*
X474342Y182796D01*
X473658Y182401D01*
X473099Y181842D01*
X472704Y181158D01*
X472500Y180395D01*
Y179605D01*
X472704Y178842D01*
X473099Y178158D01*
X473658Y177599D01*
X474342Y177204D01*
X475105Y177000D01*
X475895D01*
X476658Y177204D01*
X477342Y177599D01*
X477901Y178158D01*
X478296Y178842D01*
X478500Y179605D01*
Y179980D01*
X488078D01*
X490980Y177078D01*
Y160922D01*
X469078Y139020D01*
X367833D01*
X367796Y139158D01*
X367401Y139842D01*
X366842Y140401D01*
X366158Y140796D01*
X365395Y141000D01*
X364605D01*
X363842Y140796D01*
X363158Y140401D01*
X362599Y139842D01*
X362204Y139158D01*
X362000Y138395D01*
Y137605D01*
X362204Y136842D01*
X362599Y136158D01*
X363158Y135599D01*
X363842Y135204D01*
X364605Y135000D01*
X365395D01*
X366158Y135204D01*
X366842Y135599D01*
X367401Y136158D01*
X367796Y136842D01*
X367833Y136980D01*
X370331D01*
X370538Y136480D01*
X366978Y132920D01*
X359533D01*
X359496Y133058D01*
X359101Y133742D01*
X358542Y134301D01*
X357858Y134696D01*
X357095Y134900D01*
X356305D01*
X355542Y134696D01*
X354858Y134301D01*
X354299Y133742D01*
X353904Y133058D01*
X353700Y132295D01*
Y131505D01*
X353904Y130742D01*
X354299Y130058D01*
X354858Y129499D01*
X355542Y129104D01*
X356305Y128900D01*
X357095D01*
X357858Y129104D01*
X358542Y129499D01*
X359101Y130058D01*
X359496Y130742D01*
X359533Y130880D01*
X367400D01*
X367790Y130958D01*
X368121Y131179D01*
X371922Y134980D01*
X444023D01*
X444500Y134895D01*
Y134105D01*
X444704Y133342D01*
X445099Y132658D01*
X445658Y132099D01*
X446342Y131704D01*
X447105Y131500D01*
X447895D01*
X448658Y131704D01*
X449342Y132099D01*
X449901Y132658D01*
X450296Y133342D01*
X450500Y134105D01*
Y134895D01*
X450296Y135658D01*
X449901Y136342D01*
X449762Y136480D01*
X449969Y136980D01*
X469500D01*
X469890Y137058D01*
X470221Y137279D01*
X492721Y159779D01*
X492942Y160110D01*
X492980Y160303D01*
X493480Y160254D01*
Y159622D01*
X398878Y65020D01*
X397333D01*
X397296Y65158D01*
X396901Y65842D01*
X396342Y66401D01*
X395658Y66796D01*
X394895Y67000D01*
X394105D01*
X393342Y66796D01*
X392658Y66401D01*
X392099Y65842D01*
X391704Y65158D01*
X391500Y64395D01*
Y63605D01*
X391611Y63190D01*
X356541Y28120D01*
X185833D01*
X185796Y28258D01*
X185401Y28942D01*
X184842Y29501D01*
X184158Y29896D01*
X183395Y30100D01*
X182605D01*
X181842Y29896D01*
X181158Y29501D01*
X180599Y28942D01*
X180204Y28258D01*
X180000Y27495D01*
Y26705D01*
X180204Y25942D01*
X180599Y25258D01*
X181158Y24699D01*
X181842Y24304D01*
X182605Y24100D01*
X183395D01*
X184158Y24304D01*
X184842Y24699D01*
X185401Y25258D01*
X185796Y25942D01*
X185833Y26080D01*
X356963D01*
X357353Y26158D01*
X357684Y26379D01*
X392814Y61509D01*
X393342Y61204D01*
X394105Y61000D01*
X394895D01*
X395658Y61204D01*
X396342Y61599D01*
X396901Y62158D01*
X397296Y62842D01*
X397333Y62980D01*
X399300D01*
X399690Y63058D01*
X400021Y63279D01*
X495221Y158479D01*
X495442Y158810D01*
X495520Y159200D01*
Y186000D01*
X495442Y186390D01*
X495221Y186721D01*
X486921Y195021D01*
X486590Y195242D01*
X486200Y195320D01*
X413238D01*
X413175Y195403D01*
X413310Y196058D01*
X413620Y196237D01*
X414263Y196880D01*
X414717Y197667D01*
X414953Y198545D01*
Y199455D01*
X414717Y200333D01*
X414263Y201120D01*
X413620Y201763D01*
X412833Y202218D01*
X411955Y202453D01*
X411045D01*
X410167Y202218D01*
X409380Y201763D01*
X408737Y201120D01*
X408283Y200333D01*
X408047Y199455D01*
Y198545D01*
X408283Y197667D01*
X408737Y196880D01*
X409380Y196237D01*
X409690Y196058D01*
X409825Y195403D01*
X409762Y195320D01*
X403238D01*
X403175Y195403D01*
X403310Y196058D01*
X403620Y196237D01*
X404263Y196880D01*
X404717Y197667D01*
X404953Y198545D01*
Y199455D01*
X404717Y200333D01*
X404263Y201120D01*
X403620Y201763D01*
X402833Y202218D01*
X401955Y202453D01*
X401045D01*
X400167Y202218D01*
X399380Y201763D01*
X398737Y201120D01*
X398283Y200333D01*
X398047Y199455D01*
Y198545D01*
X398283Y197667D01*
X398737Y196880D01*
X399380Y196237D01*
X399690Y196058D01*
X399825Y195403D01*
X399762Y195320D01*
X397222D01*
X394520Y198022D01*
Y234900D01*
X394442Y235290D01*
X394221Y235621D01*
X383124Y246718D01*
X383196Y246842D01*
X383400Y247605D01*
Y248395D01*
X383196Y249158D01*
X382801Y249842D01*
X382242Y250401D01*
X381558Y250796D01*
X380795Y251000D01*
D02*
G37*
G36*
X353453Y183453D02*
X346547D01*
Y176547D01*
X353453D01*
Y183453D01*
D02*
G37*
G36*
X227395Y176000D02*
X226605D01*
X225842Y175796D01*
X225158Y175401D01*
X224599Y174842D01*
X224204Y174158D01*
X224000Y173395D01*
Y173020D01*
X220800D01*
X220410Y172942D01*
X220079Y172721D01*
X216279Y168921D01*
X216058Y168590D01*
X215980Y168200D01*
Y166824D01*
X214630D01*
Y162675D01*
X219370D01*
Y163730D01*
X220630D01*
Y162675D01*
X225370D01*
Y166824D01*
X220630D01*
Y165769D01*
X219370D01*
Y166824D01*
X218020D01*
Y167778D01*
X221222Y170980D01*
X224414D01*
X224717Y171041D01*
X225158Y170599D01*
X225842Y170204D01*
X226605Y170000D01*
X227395D01*
X228158Y170204D01*
X228842Y170599D01*
X229401Y171158D01*
X229796Y171842D01*
X230000Y172605D01*
Y173395D01*
X229796Y174158D01*
X229401Y174842D01*
X228842Y175401D01*
X228158Y175796D01*
X227395Y176000D01*
D02*
G37*
G36*
X459953Y188953D02*
X453047D01*
Y182047D01*
X455480D01*
Y169500D01*
X455558Y169110D01*
X455779Y168779D01*
X456951Y167607D01*
X457281Y167386D01*
X457672Y167309D01*
X474079D01*
X474204Y166842D01*
X474599Y166158D01*
X475158Y165599D01*
X475842Y165204D01*
X476605Y165000D01*
X477395D01*
X478158Y165204D01*
X478842Y165599D01*
X479401Y166158D01*
X479796Y166842D01*
X480000Y167605D01*
Y168395D01*
X479796Y169158D01*
X479401Y169842D01*
X478842Y170401D01*
X478158Y170796D01*
X477395Y171000D01*
X476605D01*
X475842Y170796D01*
X475158Y170401D01*
X474599Y169842D01*
X474314Y169348D01*
X458094D01*
X457520Y169922D01*
Y182047D01*
X459953D01*
Y188953D01*
D02*
G37*
G36*
X273095Y162400D02*
X272305D01*
X271542Y162196D01*
X270858Y161801D01*
X270299Y161242D01*
X269904Y160558D01*
X269700Y159795D01*
Y159005D01*
X269904Y158242D01*
X269976Y158118D01*
X189878Y78020D01*
X149333D01*
X149296Y78158D01*
X148901Y78842D01*
X148342Y79401D01*
X147658Y79796D01*
X146895Y80000D01*
X146105D01*
X145342Y79796D01*
X144658Y79401D01*
X144099Y78842D01*
X143704Y78158D01*
X143500Y77395D01*
Y76605D01*
X143704Y75842D01*
X144099Y75158D01*
X144658Y74599D01*
X145342Y74204D01*
X146105Y74000D01*
X146895D01*
X147658Y74204D01*
X148342Y74599D01*
X148901Y75158D01*
X149296Y75842D01*
X149333Y75980D01*
X190300D01*
X190690Y76058D01*
X191021Y76279D01*
X271418Y156676D01*
X271542Y156604D01*
X272305Y156400D01*
X273095D01*
X273858Y156604D01*
X274542Y156999D01*
X275101Y157558D01*
X275496Y158242D01*
X275700Y159005D01*
Y159795D01*
X275496Y160558D01*
X275101Y161242D01*
X274542Y161801D01*
X273858Y162196D01*
X273095Y162400D01*
D02*
G37*
G36*
X465000Y160520D02*
X372500D01*
X372110Y160442D01*
X371779Y160221D01*
X348282Y136724D01*
X348158Y136796D01*
X347395Y137000D01*
X346605D01*
X345842Y136796D01*
X345158Y136401D01*
X344599Y135842D01*
X344204Y135158D01*
X344000Y134395D01*
Y133605D01*
X344204Y132842D01*
X344599Y132158D01*
X345158Y131599D01*
X345842Y131204D01*
X346605Y131000D01*
X347395D01*
X348158Y131204D01*
X348842Y131599D01*
X349401Y132158D01*
X349796Y132842D01*
X350000Y133605D01*
Y134395D01*
X349796Y135158D01*
X349724Y135282D01*
X372922Y158480D01*
X464578D01*
X466776Y156282D01*
X466704Y156158D01*
X466500Y155395D01*
Y154605D01*
X466704Y153842D01*
X467099Y153158D01*
X467658Y152599D01*
X468342Y152204D01*
X469105Y152000D01*
X469895D01*
X470658Y152204D01*
X471342Y152599D01*
X471901Y153158D01*
X472296Y153842D01*
X472500Y154605D01*
Y155395D01*
X472296Y156158D01*
X471901Y156842D01*
X471342Y157401D01*
X470658Y157796D01*
X469895Y158000D01*
X469105D01*
X468342Y157796D01*
X468218Y157724D01*
X465721Y160221D01*
X465390Y160442D01*
X465000Y160520D01*
D02*
G37*
G36*
X294453Y154453D02*
X287547D01*
Y147547D01*
X294453D01*
Y154453D01*
D02*
G37*
G36*
X337395Y142000D02*
X336605D01*
X335842Y141796D01*
X335158Y141401D01*
X334599Y140842D01*
X334204Y140158D01*
X334167Y140020D01*
X303128D01*
X302738Y139942D01*
X302407Y139721D01*
X274805Y112120D01*
X248533D01*
X248496Y112258D01*
X248101Y112942D01*
X247542Y113501D01*
X246858Y113896D01*
X246095Y114100D01*
X245305D01*
X244542Y113896D01*
X243858Y113501D01*
X243299Y112942D01*
X242904Y112258D01*
X242700Y111495D01*
Y110705D01*
X242904Y109942D01*
X243299Y109258D01*
X243858Y108699D01*
X244542Y108304D01*
X245305Y108100D01*
X246095D01*
X246858Y108304D01*
X247542Y108699D01*
X248101Y109258D01*
X248496Y109942D01*
X248533Y110080D01*
X282007D01*
X282204Y109342D01*
X282599Y108658D01*
X283158Y108099D01*
X283842Y107704D01*
X284605Y107500D01*
X285395D01*
X286158Y107704D01*
X286842Y108099D01*
X287401Y108658D01*
X287796Y109342D01*
X288000Y110105D01*
Y110895D01*
X287796Y111658D01*
X287401Y112342D01*
X286842Y112901D01*
X286158Y113296D01*
X285395Y113500D01*
X284605D01*
X283842Y113296D01*
X283158Y112901D01*
X282599Y112342D01*
X282471Y112120D01*
X278343D01*
X278151Y112582D01*
X303550Y137980D01*
X334167D01*
X334204Y137842D01*
X334599Y137158D01*
X335158Y136599D01*
X335842Y136204D01*
X336605Y136000D01*
X337395D01*
X338158Y136204D01*
X338842Y136599D01*
X339401Y137158D01*
X339796Y137842D01*
X340000Y138605D01*
Y139395D01*
X339796Y140158D01*
X339401Y140842D01*
X338842Y141401D01*
X338158Y141796D01*
X337395Y142000D01*
D02*
G37*
G36*
X105495Y168000D02*
X104705D01*
X103942Y167796D01*
X103258Y167401D01*
X102699Y166842D01*
X102304Y166158D01*
X102100Y165395D01*
Y164605D01*
X102304Y163842D01*
X102699Y163158D01*
X103258Y162599D01*
X103942Y162204D01*
X104080Y162167D01*
Y144800D01*
X104158Y144410D01*
X104379Y144079D01*
X111379Y137079D01*
X111710Y136858D01*
X112100Y136780D01*
X180867D01*
X180904Y136642D01*
X181299Y135958D01*
X181858Y135399D01*
X182542Y135004D01*
X183305Y134800D01*
X184095D01*
X184858Y135004D01*
X185542Y135399D01*
X186101Y135958D01*
X186496Y136642D01*
X186700Y137405D01*
Y138195D01*
X186496Y138958D01*
X186101Y139642D01*
X185542Y140201D01*
X184858Y140596D01*
X184095Y140800D01*
X183305D01*
X182542Y140596D01*
X181858Y140201D01*
X181299Y139642D01*
X180904Y138958D01*
X180867Y138820D01*
X112522D01*
X106120Y145222D01*
Y162167D01*
X106258Y162204D01*
X106942Y162599D01*
X107501Y163158D01*
X107896Y163842D01*
X108100Y164605D01*
Y165395D01*
X107896Y166158D01*
X107501Y166842D01*
X106942Y167401D01*
X106258Y167796D01*
X105495Y168000D01*
D02*
G37*
G36*
X415395Y133000D02*
X414605D01*
X413842Y132796D01*
X413158Y132401D01*
X412599Y131842D01*
X412204Y131158D01*
X412000Y130395D01*
Y129605D01*
X412204Y128842D01*
X412213Y128827D01*
X411779Y128393D01*
X411558Y128062D01*
X411480Y127672D01*
Y119224D01*
X410130D01*
Y115075D01*
X414870D01*
Y119224D01*
X413520D01*
Y126813D01*
X413608Y126920D01*
X414020Y127157D01*
X414605Y127000D01*
X415395D01*
X416158Y127204D01*
X416842Y127599D01*
X417401Y128158D01*
X417796Y128842D01*
X418000Y129605D01*
Y130395D01*
X417796Y131158D01*
X417401Y131842D01*
X416842Y132401D01*
X416158Y132796D01*
X415395Y133000D01*
D02*
G37*
G36*
X375695D02*
X374905D01*
X374142Y132796D01*
X373458Y132401D01*
X372899Y131842D01*
X372504Y131158D01*
X372300Y130395D01*
Y129605D01*
X372504Y128842D01*
X372660Y128573D01*
X372279Y128192D01*
X372058Y127862D01*
X371980Y127472D01*
Y119224D01*
X370630D01*
Y115520D01*
X348370D01*
Y119224D01*
X348020D01*
Y120640D01*
X348505Y121027D01*
X348605Y121000D01*
X349395D01*
X350158Y121204D01*
X350842Y121599D01*
X351401Y122158D01*
X351796Y122842D01*
X352000Y123605D01*
Y124395D01*
X351796Y125158D01*
X351401Y125842D01*
X350842Y126401D01*
X350158Y126796D01*
X349395Y127000D01*
X348605D01*
X347842Y126796D01*
X347158Y126401D01*
X346599Y125842D01*
X346204Y125158D01*
X346000Y124395D01*
Y123605D01*
X346204Y122842D01*
X346491Y122347D01*
X346279Y122135D01*
X346058Y121804D01*
X345980Y121414D01*
Y119224D01*
X343630D01*
Y115520D01*
X338870D01*
Y119224D01*
X337520D01*
Y126878D01*
X337918Y127276D01*
X338042Y127204D01*
X338805Y127000D01*
X339595D01*
X340358Y127204D01*
X341042Y127599D01*
X341601Y128158D01*
X341996Y128842D01*
X342200Y129605D01*
Y130395D01*
X341996Y131158D01*
X341601Y131842D01*
X341042Y132401D01*
X340358Y132796D01*
X339595Y133000D01*
X338805D01*
X338042Y132796D01*
X337358Y132401D01*
X336799Y131842D01*
X336404Y131158D01*
X336200Y130395D01*
Y129605D01*
X336404Y128842D01*
X336476Y128718D01*
X335779Y128021D01*
X335558Y127690D01*
X335480Y127300D01*
Y119224D01*
X334130D01*
Y115520D01*
X329300D01*
X328910Y115442D01*
X328579Y115221D01*
X291798Y78440D01*
X285201D01*
X285067Y78940D01*
X285342Y79099D01*
X285901Y79658D01*
X286296Y80342D01*
X286500Y81105D01*
Y81895D01*
X286296Y82658D01*
X285901Y83342D01*
X285342Y83901D01*
X284658Y84296D01*
X284520Y84333D01*
Y91500D01*
X284442Y91890D01*
X284221Y92221D01*
X281221Y95221D01*
X280890Y95442D01*
X280500Y95520D01*
X272534D01*
X272468Y96020D01*
X273158Y96204D01*
X273842Y96599D01*
X274401Y97158D01*
X274796Y97842D01*
X274833Y97980D01*
X283078D01*
X284459Y96599D01*
X284204Y96158D01*
X284000Y95395D01*
Y94605D01*
X284204Y93842D01*
X284599Y93158D01*
X285158Y92599D01*
X285842Y92204D01*
X286605Y92000D01*
X287395D01*
X288158Y92204D01*
X288842Y92599D01*
X289401Y93158D01*
X289796Y93842D01*
X290000Y94605D01*
Y95395D01*
X289796Y96158D01*
X289401Y96842D01*
X288842Y97401D01*
X288158Y97796D01*
X287395Y98000D01*
X286605D01*
X286082Y97860D01*
X284221Y99721D01*
X283890Y99942D01*
X283500Y100020D01*
X274833D01*
X274796Y100158D01*
X274401Y100842D01*
X273842Y101401D01*
X273158Y101796D01*
X272395Y102000D01*
X271605D01*
X270842Y101796D01*
X270158Y101401D01*
X269599Y100842D01*
X269204Y100158D01*
X269000Y99395D01*
Y98605D01*
X269204Y97842D01*
X269599Y97158D01*
X270158Y96599D01*
X270842Y96204D01*
X271532Y96020D01*
X271466Y95520D01*
X236200D01*
X235810Y95442D01*
X235479Y95221D01*
X207278Y67020D01*
X172833D01*
X172796Y67158D01*
X172401Y67842D01*
X171842Y68401D01*
X171158Y68796D01*
X170395Y69000D01*
X169605D01*
X168842Y68796D01*
X168158Y68401D01*
X167599Y67842D01*
X167204Y67158D01*
X167000Y66395D01*
Y65605D01*
X167204Y64842D01*
X167599Y64158D01*
X168158Y63599D01*
X168842Y63204D01*
X169605Y63000D01*
X170395D01*
X171158Y63204D01*
X171842Y63599D01*
X172401Y64158D01*
X172796Y64842D01*
X172833Y64980D01*
X207700D01*
X208090Y65058D01*
X208421Y65279D01*
X236622Y93480D01*
X280078D01*
X282480Y91078D01*
Y84333D01*
X282342Y84296D01*
X281658Y83901D01*
X281099Y83342D01*
X280704Y82658D01*
X280500Y81895D01*
Y81105D01*
X280704Y80342D01*
X281099Y79658D01*
X281658Y79099D01*
X281933Y78940D01*
X281799Y78440D01*
X270721D01*
X270331Y78363D01*
X270000Y78142D01*
X254579Y62721D01*
X254358Y62390D01*
X254336Y62278D01*
X251078Y59020D01*
X243836D01*
X236635Y66221D01*
X236304Y66442D01*
X235914Y66520D01*
X223500D01*
X223110Y66442D01*
X222779Y66221D01*
X219779Y63221D01*
X219558Y62890D01*
X219480Y62500D01*
Y59020D01*
X171922D01*
X170421Y60521D01*
X170090Y60742D01*
X169700Y60820D01*
X162733D01*
X162696Y60958D01*
X162301Y61642D01*
X161742Y62201D01*
X161058Y62596D01*
X160295Y62800D01*
X159505D01*
X158742Y62596D01*
X158058Y62201D01*
X157499Y61642D01*
X157104Y60958D01*
X156900Y60195D01*
Y59405D01*
X157104Y58642D01*
X157499Y57958D01*
X158058Y57399D01*
X158742Y57004D01*
X159505Y56800D01*
X160295D01*
X161058Y57004D01*
X161742Y57399D01*
X162301Y57958D01*
X162696Y58642D01*
X162733Y58780D01*
X169278D01*
X170779Y57279D01*
X171110Y57058D01*
X171500Y56980D01*
X219914D01*
X220304Y57058D01*
X220635Y57279D01*
X221221Y57865D01*
X221442Y58196D01*
X221520Y58586D01*
Y62078D01*
X223922Y64480D01*
X235492D01*
X242693Y57279D01*
X243024Y57058D01*
X243414Y56980D01*
X251500D01*
X251734Y57027D01*
X251817Y56981D01*
X252080Y56717D01*
X252127Y56634D01*
X252080Y56400D01*
Y47522D01*
X251578Y47020D01*
X247347D01*
X246870Y47075D01*
X246870Y47520D01*
Y51224D01*
X242130D01*
Y50169D01*
X232773D01*
X231785Y51157D01*
Y57466D01*
X231842Y57499D01*
X232401Y58058D01*
X232796Y58742D01*
X233000Y59505D01*
Y60295D01*
X232796Y61058D01*
X232401Y61742D01*
X231842Y62301D01*
X231158Y62696D01*
X230395Y62900D01*
X229605D01*
X228842Y62696D01*
X228158Y62301D01*
X227599Y61742D01*
X227204Y61058D01*
X227000Y60295D01*
Y59505D01*
X227204Y58742D01*
X227599Y58058D01*
X228158Y57499D01*
X228842Y57104D01*
X229605Y56900D01*
X229746D01*
Y50735D01*
X229823Y50345D01*
X230044Y50014D01*
X231629Y48429D01*
X231960Y48208D01*
X232350Y48130D01*
X241776D01*
X242130Y47776D01*
X242130Y47075D01*
X241653Y47020D01*
X207602D01*
X200400Y54221D01*
X200070Y54442D01*
X199680Y54520D01*
X71500D01*
Y54995D01*
X71296Y55758D01*
X70901Y56442D01*
X70342Y57001D01*
X69658Y57396D01*
X68895Y57600D01*
X68105D01*
X67342Y57396D01*
X66658Y57001D01*
X66099Y56442D01*
X65704Y55758D01*
X65500Y54995D01*
Y54205D01*
X65704Y53442D01*
X66099Y52758D01*
X66658Y52199D01*
X67342Y51804D01*
X68105Y51600D01*
X68895D01*
X69658Y51804D01*
X70342Y52199D01*
X70633Y52490D01*
X70682Y52480D01*
X199257D01*
X206459Y45279D01*
X206789Y45058D01*
X207180Y44980D01*
X241653D01*
X242130Y44925D01*
X242130Y44480D01*
Y40776D01*
X243480D01*
Y36000D01*
X243558Y35610D01*
X243779Y35279D01*
X244276Y34782D01*
X244204Y34658D01*
X244000Y33895D01*
Y33105D01*
X244204Y32342D01*
X244599Y31658D01*
X245158Y31099D01*
X245842Y30704D01*
X246605Y30500D01*
X247395D01*
X248158Y30704D01*
X248842Y31099D01*
X249401Y31658D01*
X249796Y32342D01*
X250000Y33105D01*
Y33895D01*
X249796Y34658D01*
X249401Y35342D01*
X248842Y35901D01*
X248158Y36296D01*
X247395Y36500D01*
X246605D01*
X245983Y36333D01*
X245618Y36567D01*
X245520Y36687D01*
Y40776D01*
X246870D01*
X246870Y44925D01*
X247347Y44980D01*
X252000D01*
X252390Y45058D01*
X252721Y45279D01*
X253821Y46379D01*
X254042Y46710D01*
X254120Y47100D01*
Y55978D01*
X273043Y74901D01*
X338071D01*
X338461Y74979D01*
X338463Y74980D01*
X351630D01*
Y71276D01*
X354587D01*
X357908Y67457D01*
X357947Y67427D01*
X357978Y67380D01*
X359703Y65654D01*
X359500Y64895D01*
Y64105D01*
X359704Y63342D01*
X360099Y62658D01*
X360658Y62099D01*
X361342Y61704D01*
X362105Y61500D01*
X362895D01*
X363658Y61704D01*
X364342Y62099D01*
X364901Y62658D01*
X365296Y63342D01*
X365500Y64105D01*
Y64895D01*
X365296Y65658D01*
X364901Y66342D01*
X364342Y66901D01*
X363658Y67296D01*
X362895Y67500D01*
X362105D01*
X361342Y67296D01*
X361091Y67151D01*
X359445Y68797D01*
X356370Y72332D01*
Y74980D01*
X403600D01*
X403990Y75058D01*
X404321Y75279D01*
X406596Y77554D01*
X407158Y77704D01*
X407842Y78099D01*
X408401Y78658D01*
X408796Y79342D01*
X408946Y79904D01*
X425121Y96079D01*
X425342Y96410D01*
X425420Y96800D01*
Y98900D01*
Y117150D01*
X425342Y117540D01*
X425121Y117871D01*
X424790Y118092D01*
X424400Y118169D01*
X423870D01*
Y119224D01*
X419130D01*
Y115075D01*
X423380D01*
Y112925D01*
X419130D01*
Y111870D01*
X414870D01*
Y112925D01*
X410130D01*
Y108776D01*
X411480D01*
Y103400D01*
X411558Y103010D01*
X411779Y102679D01*
X412476Y101982D01*
X412404Y101858D01*
X412200Y101095D01*
Y100305D01*
X412404Y99542D01*
X412799Y98858D01*
X413358Y98299D01*
X414042Y97904D01*
X414805Y97700D01*
X415595D01*
X416358Y97904D01*
X417042Y98299D01*
X417601Y98858D01*
X417996Y99542D01*
X418200Y100305D01*
Y101095D01*
X417996Y101858D01*
X417601Y102542D01*
X417042Y103101D01*
X416358Y103496D01*
X415595Y103700D01*
X414805D01*
X414042Y103496D01*
X413918Y103424D01*
X413520Y103822D01*
Y108776D01*
X414870D01*
Y109831D01*
X419130D01*
Y108776D01*
X423380D01*
Y99322D01*
X407282Y83224D01*
X407158Y83296D01*
X406395Y83500D01*
X405605D01*
X404842Y83296D01*
X404158Y82901D01*
X403599Y82342D01*
X403204Y81658D01*
X403000Y80895D01*
Y80105D01*
X403204Y79342D01*
X403599Y78658D01*
X403854Y78403D01*
X403875Y77717D01*
X403178Y77020D01*
X338150D01*
X337760Y76942D01*
X337757Y76940D01*
X293836D01*
X293644Y77402D01*
X329722Y113480D01*
X361580D01*
Y107644D01*
X361158Y107401D01*
X360599Y106842D01*
X360204Y106158D01*
X360000Y105395D01*
Y104605D01*
X360204Y103842D01*
X360599Y103158D01*
X361158Y102599D01*
X361842Y102204D01*
X362605Y102000D01*
X363395D01*
X364158Y102204D01*
X364842Y102599D01*
X365401Y103158D01*
X365796Y103842D01*
X366000Y104605D01*
Y105395D01*
X365796Y106158D01*
X365401Y106842D01*
X364842Y107401D01*
X364158Y107796D01*
X363620Y107940D01*
Y113480D01*
X381500D01*
X381890Y113558D01*
X382221Y113779D01*
X382442Y114110D01*
X382520Y114500D01*
Y115075D01*
X383870D01*
Y119224D01*
X379130D01*
Y115520D01*
X375370D01*
Y119224D01*
X374020D01*
Y126729D01*
X374494Y127110D01*
X374905Y127000D01*
X375695D01*
X376458Y127204D01*
X377142Y127599D01*
X377701Y128158D01*
X378096Y128842D01*
X378300Y129605D01*
Y130395D01*
X378096Y131158D01*
X377701Y131842D01*
X377142Y132401D01*
X376458Y132796D01*
X375695Y133000D01*
D02*
G37*
G36*
X30461Y133500D02*
X29539D01*
X28649Y133262D01*
X27851Y132801D01*
X27199Y132149D01*
X26739Y131351D01*
X26500Y130461D01*
Y129539D01*
X26739Y128649D01*
X27199Y127851D01*
X27851Y127199D01*
X28649Y126739D01*
X29539Y126500D01*
X30461D01*
X31351Y126739D01*
X32149Y127199D01*
X32801Y127851D01*
X33261Y128649D01*
X33500Y129539D01*
Y130461D01*
X33261Y131351D01*
X32801Y132149D01*
X32149Y132801D01*
X31351Y133262D01*
X30461Y133500D01*
D02*
G37*
G36*
X20461D02*
X19539D01*
X18649Y133262D01*
X17851Y132801D01*
X17199Y132149D01*
X16738Y131351D01*
X16500Y130461D01*
Y129539D01*
X16738Y128649D01*
X17199Y127851D01*
X17851Y127199D01*
X18649Y126739D01*
X19539Y126500D01*
X20461D01*
X21351Y126739D01*
X22149Y127199D01*
X22801Y127851D01*
X23261Y128649D01*
X23500Y129539D01*
Y130461D01*
X23261Y131351D01*
X22801Y132149D01*
X22149Y132801D01*
X21351Y133262D01*
X20461Y133500D01*
D02*
G37*
G36*
X80695Y133000D02*
X79905D01*
X79142Y132796D01*
X78458Y132401D01*
X77899Y131842D01*
X77504Y131158D01*
X77300Y130395D01*
Y129605D01*
X77504Y128842D01*
X77899Y128158D01*
X78458Y127599D01*
X79142Y127204D01*
X79905Y127000D01*
X80695D01*
X81458Y127204D01*
X81582Y127276D01*
X86379Y122479D01*
X86710Y122258D01*
X87100Y122180D01*
X161196D01*
X161392Y121841D01*
X161951Y121282D01*
X162635Y120887D01*
X163398Y120683D01*
X164188D01*
X164951Y120887D01*
X165635Y121282D01*
X166194Y121841D01*
X166589Y122525D01*
X166793Y123288D01*
Y124078D01*
X166589Y124841D01*
X166194Y125525D01*
X165635Y126083D01*
X164951Y126478D01*
X164188Y126683D01*
X163398D01*
X162635Y126478D01*
X161951Y126083D01*
X161392Y125525D01*
X160997Y124841D01*
X160831Y124220D01*
X87522D01*
X83024Y128718D01*
X83096Y128842D01*
X83300Y129605D01*
Y130395D01*
X83096Y131158D01*
X82701Y131842D01*
X82142Y132401D01*
X81458Y132796D01*
X80695Y133000D01*
D02*
G37*
G36*
X30461Y123500D02*
X29539D01*
X28649Y123261D01*
X27851Y122801D01*
X27199Y122149D01*
X26739Y121351D01*
X26500Y120461D01*
Y119539D01*
X26739Y118649D01*
X27199Y117851D01*
X27851Y117199D01*
X28649Y116738D01*
X29539Y116500D01*
X30461D01*
X31351Y116738D01*
X32149Y117199D01*
X32801Y117851D01*
X33261Y118649D01*
X33500Y119539D01*
Y120461D01*
X33261Y121351D01*
X32801Y122149D01*
X32149Y122801D01*
X31351Y123261D01*
X30461Y123500D01*
D02*
G37*
G36*
X20461D02*
X19539D01*
X18649Y123261D01*
X17851Y122801D01*
X17199Y122149D01*
X16738Y121351D01*
X16500Y120461D01*
Y119539D01*
X16738Y118649D01*
X17199Y117851D01*
X17851Y117199D01*
X18649Y116738D01*
X19539Y116500D01*
X20461D01*
X21351Y116738D01*
X22149Y117199D01*
X22801Y117851D01*
X23261Y118649D01*
X23500Y119539D01*
Y120461D01*
X23261Y121351D01*
X22801Y122149D01*
X22149Y122801D01*
X21351Y123261D01*
X20461Y123500D01*
D02*
G37*
G36*
X263453Y121453D02*
X256547D01*
Y114547D01*
X263453D01*
Y121453D01*
D02*
G37*
G36*
X383870Y112925D02*
X379130D01*
Y111870D01*
X375370D01*
Y112925D01*
X370630D01*
Y108776D01*
X371980D01*
Y100413D01*
X372058Y100023D01*
X372279Y99692D01*
X372427Y99544D01*
X372204Y99158D01*
X372000Y98395D01*
Y97605D01*
X372204Y96842D01*
X372599Y96158D01*
X373158Y95599D01*
X373842Y95204D01*
X374605Y95000D01*
X375395D01*
X376158Y95204D01*
X376842Y95599D01*
X377401Y96158D01*
X377796Y96842D01*
X378000Y97605D01*
Y98395D01*
X377796Y99158D01*
X377401Y99842D01*
X376842Y100401D01*
X376158Y100796D01*
X375395Y101000D01*
X374605D01*
X374416Y100949D01*
X374020Y101254D01*
Y108776D01*
X375370D01*
Y109831D01*
X379130D01*
Y108776D01*
X383870D01*
Y112925D01*
D02*
G37*
G36*
X348370D02*
X343630D01*
Y111845D01*
X341244Y111820D01*
X338870D01*
Y112925D01*
X334130D01*
Y108776D01*
X335480D01*
Y102833D01*
X335342Y102796D01*
X334658Y102401D01*
X334099Y101842D01*
X333704Y101158D01*
X333500Y100395D01*
Y99605D01*
X333704Y98842D01*
X334099Y98158D01*
X334658Y97599D01*
X335342Y97204D01*
X336105Y97000D01*
X336895D01*
X337658Y97204D01*
X338342Y97599D01*
X338901Y98158D01*
X339296Y98842D01*
X339500Y99605D01*
Y100395D01*
X339296Y101158D01*
X338901Y101842D01*
X338342Y102401D01*
X337658Y102796D01*
X337520Y102833D01*
Y108776D01*
X338870D01*
Y109780D01*
X341250D01*
X341255Y109782D01*
X341260Y109781D01*
X343274Y109802D01*
X343630Y109450D01*
Y108776D01*
X348370D01*
Y112925D01*
D02*
G37*
G36*
X303895Y131500D02*
X303105D01*
X302342Y131296D01*
X301658Y130901D01*
X301099Y130342D01*
X300704Y129658D01*
X300500Y128895D01*
Y128105D01*
X300704Y127342D01*
X301099Y126658D01*
X301658Y126099D01*
X302342Y125704D01*
X302480Y125667D01*
Y119024D01*
X300930D01*
Y115020D01*
X298500D01*
X298110Y114942D01*
X297779Y114721D01*
X289357Y106299D01*
X289157Y106000D01*
X288605D01*
X287842Y105796D01*
X287158Y105401D01*
X286599Y104842D01*
X286558Y104770D01*
X240361D01*
X239971Y104692D01*
X239640Y104471D01*
X208691Y73522D01*
X169248D01*
X168858Y73445D01*
X168527Y73224D01*
X167996Y72693D01*
X142822D01*
X141803Y73712D01*
Y80361D01*
X144218Y82776D01*
X144342Y82704D01*
X145105Y82500D01*
X145895D01*
X146658Y82704D01*
X147342Y83099D01*
X147901Y83658D01*
X148296Y84342D01*
X148500Y85105D01*
Y85895D01*
X148296Y86658D01*
X147901Y87342D01*
X147342Y87901D01*
X146658Y88296D01*
X145895Y88500D01*
X145105D01*
X144342Y88296D01*
X143658Y87901D01*
X143099Y87342D01*
X142704Y86658D01*
X142500Y85895D01*
Y85105D01*
X142704Y84342D01*
X142776Y84218D01*
X140062Y81504D01*
X139841Y81173D01*
X139764Y80783D01*
Y73290D01*
X139841Y72900D01*
X140062Y72569D01*
X141679Y70952D01*
X142010Y70731D01*
X142400Y70654D01*
X168419D01*
X168809Y70731D01*
X169140Y70952D01*
X169670Y71483D01*
X209114D01*
X209504Y71561D01*
X209835Y71782D01*
X240783Y102730D01*
X286000D01*
Y102605D01*
X286204Y101842D01*
X286599Y101158D01*
X287158Y100599D01*
X287842Y100204D01*
X288605Y100000D01*
X289395D01*
X290158Y100204D01*
X290842Y100599D01*
X291401Y101158D01*
X291796Y101842D01*
X292000Y102605D01*
Y103395D01*
X291796Y104158D01*
X291401Y104842D01*
X291445Y105503D01*
X298922Y112980D01*
X300536D01*
X300930Y112725D01*
X300930Y112480D01*
Y108576D01*
X302280D01*
Y101000D01*
X302105D01*
X301342Y100796D01*
X300658Y100401D01*
X300099Y99842D01*
X299704Y99158D01*
X299500Y98395D01*
Y97605D01*
X299704Y96842D01*
X300099Y96158D01*
X300658Y95599D01*
X301342Y95204D01*
X302105Y95000D01*
X302895D01*
X303658Y95204D01*
X304342Y95599D01*
X304901Y96158D01*
X305296Y96842D01*
X305500Y97605D01*
Y98395D01*
X305296Y99158D01*
X304901Y99842D01*
X304342Y100401D01*
X304320Y100414D01*
Y108576D01*
X305670D01*
Y109731D01*
X309130D01*
Y108676D01*
X313870D01*
Y112825D01*
X310753D01*
X310604Y113132D01*
X310579Y113325D01*
X311119Y113865D01*
X311340Y114196D01*
X311417Y114586D01*
Y114975D01*
X313870D01*
Y119124D01*
X309130D01*
Y115020D01*
X305670D01*
Y119024D01*
X304520D01*
Y125667D01*
X304658Y125704D01*
X305342Y126099D01*
X305901Y126658D01*
X306296Y127342D01*
X306500Y128105D01*
Y128895D01*
X306296Y129658D01*
X305901Y130342D01*
X305342Y130901D01*
X304658Y131296D01*
X303895Y131500D01*
D02*
G37*
G36*
X63545Y116200D02*
X62755D01*
X61992Y115996D01*
X61308Y115601D01*
X60749Y115042D01*
X60354Y114358D01*
X60150Y113595D01*
Y112805D01*
X60354Y112042D01*
X60749Y111358D01*
X61308Y110799D01*
X61992Y110404D01*
X62755Y110200D01*
X63545D01*
X64308Y110404D01*
X64432Y110476D01*
X65129Y109779D01*
X65459Y109558D01*
X65850Y109480D01*
X161667D01*
X161704Y109342D01*
X162099Y108658D01*
X162658Y108099D01*
X163342Y107704D01*
X164105Y107500D01*
X164895D01*
X165658Y107704D01*
X166342Y108099D01*
X166901Y108658D01*
X167296Y109342D01*
X167500Y110105D01*
Y110895D01*
X167296Y111658D01*
X166901Y112342D01*
X166342Y112901D01*
X165658Y113296D01*
X164895Y113500D01*
X164105D01*
X163342Y113296D01*
X162658Y112901D01*
X162099Y112342D01*
X161704Y111658D01*
X161667Y111520D01*
X66272D01*
X65873Y111918D01*
X65945Y112042D01*
X66150Y112805D01*
Y113595D01*
X65945Y114358D01*
X65550Y115042D01*
X64992Y115601D01*
X64308Y115996D01*
X63545Y116200D01*
D02*
G37*
G36*
X91895Y97500D02*
X91105D01*
X90342Y97296D01*
X89658Y96901D01*
X89099Y96342D01*
X88704Y95658D01*
X88500Y94895D01*
Y94105D01*
X88704Y93342D01*
X89099Y92658D01*
X89658Y92099D01*
X90342Y91704D01*
X91105Y91500D01*
X91895D01*
X92658Y91704D01*
X93342Y92099D01*
X93901Y92658D01*
X94296Y93342D01*
X94500Y94105D01*
Y94895D01*
X94296Y95658D01*
X93901Y96342D01*
X93342Y96901D01*
X92658Y97296D01*
X91895Y97500D01*
D02*
G37*
G36*
X105490Y91720D02*
X104700D01*
X103937Y91516D01*
X103252Y91121D01*
X102694Y90562D01*
X102299Y89878D01*
X102095Y89115D01*
Y88325D01*
X102299Y87562D01*
X102694Y86878D01*
X103252Y86320D01*
X103937Y85925D01*
X104700Y85720D01*
X105490D01*
X106253Y85925D01*
X106937Y86320D01*
X107495Y86878D01*
X107890Y87562D01*
X108095Y88325D01*
Y89115D01*
X107890Y89878D01*
X107495Y90562D01*
X106937Y91121D01*
X106253Y91516D01*
X105490Y91720D01*
D02*
G37*
G36*
X352109Y91714D02*
X351319D01*
X350556Y91510D01*
X349872Y91115D01*
X349314Y90556D01*
X348919Y89872D01*
X348714Y89109D01*
Y88319D01*
X348919Y87556D01*
X349314Y86872D01*
X349872Y86314D01*
X350556Y85919D01*
X351319Y85714D01*
X352109D01*
X352480Y85814D01*
X352980Y85430D01*
Y81724D01*
X351630D01*
Y77575D01*
X356370D01*
Y81724D01*
X355020D01*
Y86514D01*
X354942Y86904D01*
X354721Y87235D01*
X354469Y87487D01*
X354510Y87556D01*
X354714Y88319D01*
Y89109D01*
X354510Y89872D01*
X354115Y90556D01*
X353556Y91115D01*
X352872Y91510D01*
X352109Y91714D01*
D02*
G37*
G36*
X243945Y91750D02*
X243155D01*
X242392Y91546D01*
X241708Y91151D01*
X241149Y90592D01*
X240754Y89908D01*
X240550Y89145D01*
Y88355D01*
X240754Y87592D01*
X241149Y86908D01*
X241708Y86349D01*
X242392Y85954D01*
X242980Y85797D01*
Y81224D01*
X241630D01*
Y77075D01*
X246370D01*
Y81224D01*
X245020D01*
Y86134D01*
X245392Y86349D01*
X245951Y86908D01*
X246346Y87592D01*
X246550Y88355D01*
Y89145D01*
X246346Y89908D01*
X245951Y90592D01*
X245392Y91151D01*
X244708Y91546D01*
X243945Y91750D01*
D02*
G37*
G36*
X246370Y74925D02*
X241630D01*
Y70776D01*
X244381D01*
X244428Y70540D01*
X244649Y70209D01*
X248203Y66654D01*
X248000Y65895D01*
Y65105D01*
X248204Y64342D01*
X248599Y63658D01*
X249158Y63099D01*
X249842Y62704D01*
X250605Y62500D01*
X251395D01*
X252158Y62704D01*
X252842Y63099D01*
X253401Y63658D01*
X253796Y64342D01*
X254000Y65105D01*
Y65895D01*
X253796Y66658D01*
X253401Y67342D01*
X252842Y67901D01*
X252158Y68296D01*
X251395Y68500D01*
X250605D01*
X249842Y68296D01*
X249591Y68151D01*
X246390Y71352D01*
Y71776D01*
X246370Y71874D01*
Y74925D01*
D02*
G37*
G36*
X91395Y67500D02*
X90605D01*
X89842Y67296D01*
X89158Y66901D01*
X88599Y66342D01*
X88204Y65658D01*
X88000Y64895D01*
Y64105D01*
X88204Y63342D01*
X88599Y62658D01*
X89158Y62099D01*
X89842Y61704D01*
X90605Y61500D01*
X91395D01*
X92158Y61704D01*
X92842Y62099D01*
X93401Y62658D01*
X93796Y63342D01*
X94000Y64105D01*
Y64895D01*
X93796Y65658D01*
X93401Y66342D01*
X92842Y66901D01*
X92158Y67296D01*
X91395Y67500D01*
D02*
G37*
G36*
X371395Y68000D02*
X370605D01*
X369842Y67796D01*
X369158Y67401D01*
X368599Y66842D01*
X368204Y66158D01*
X368000Y65395D01*
Y64605D01*
X368204Y63842D01*
X368599Y63158D01*
X369158Y62599D01*
X369680Y62298D01*
X369784Y61826D01*
X369765Y61707D01*
X367578Y59520D01*
X355922D01*
X350521Y64921D01*
X350190Y65142D01*
X349800Y65220D01*
X303800D01*
X303410Y65142D01*
X303079Y64921D01*
X284882Y46724D01*
X284758Y46796D01*
X283995Y47000D01*
X283205D01*
X282442Y46796D01*
X281758Y46401D01*
X281199Y45842D01*
X280804Y45158D01*
X280600Y44395D01*
Y43605D01*
X280804Y42842D01*
X281199Y42158D01*
X281758Y41599D01*
X282442Y41204D01*
X283205Y41000D01*
X283995D01*
X284758Y41204D01*
X285442Y41599D01*
X286001Y42158D01*
X286396Y42842D01*
X286600Y43605D01*
Y44395D01*
X286396Y45158D01*
X286324Y45282D01*
X304222Y63180D01*
X349378D01*
X354066Y58492D01*
X353747Y58104D01*
X353690Y58142D01*
X353300Y58220D01*
X350833D01*
X350796Y58358D01*
X350401Y59042D01*
X349842Y59601D01*
X349158Y59996D01*
X348395Y60200D01*
X347605D01*
X346842Y59996D01*
X346158Y59601D01*
X345599Y59042D01*
X345204Y58358D01*
X345000Y57595D01*
Y56805D01*
X345204Y56042D01*
X345599Y55358D01*
X346158Y54799D01*
X346842Y54404D01*
X347605Y54200D01*
X348395D01*
X349158Y54404D01*
X349842Y54799D01*
X350401Y55358D01*
X350796Y56042D01*
X350833Y56180D01*
X352878D01*
X352980Y56078D01*
Y51224D01*
X351630D01*
Y47075D01*
X356370D01*
Y51224D01*
X355020D01*
Y56500D01*
X354942Y56890D01*
X354721Y57221D01*
X355053Y57596D01*
X355110Y57558D01*
X355500Y57480D01*
X368000D01*
X368390Y57558D01*
X368721Y57779D01*
X371721Y60779D01*
X371942Y61110D01*
X372020Y61500D01*
Y62167D01*
X372158Y62204D01*
X372842Y62599D01*
X373401Y63158D01*
X373796Y63842D01*
X374000Y64605D01*
Y65395D01*
X373796Y66158D01*
X373401Y66842D01*
X372842Y67401D01*
X372158Y67796D01*
X371395Y68000D01*
D02*
G37*
G36*
X105490Y61720D02*
X104700D01*
X103937Y61516D01*
X103252Y61121D01*
X102694Y60562D01*
X102299Y59878D01*
X102095Y59115D01*
Y58325D01*
X102299Y57562D01*
X102694Y56878D01*
X103252Y56320D01*
X103937Y55925D01*
X104700Y55720D01*
X105490D01*
X106253Y55925D01*
X106937Y56320D01*
X107495Y56878D01*
X107890Y57562D01*
X108095Y58325D01*
Y59115D01*
X107890Y59878D01*
X107495Y60562D01*
X106937Y61121D01*
X106253Y61516D01*
X105490Y61720D01*
D02*
G37*
G36*
X319668Y53800D02*
X318878D01*
X318115Y53596D01*
X317431Y53201D01*
X316872Y52642D01*
X316477Y51958D01*
X316273Y51195D01*
Y50405D01*
X316477Y49642D01*
X316872Y48958D01*
X317431Y48399D01*
X318115Y48004D01*
X318878Y47800D01*
X319631D01*
X325302Y42129D01*
X325632Y41908D01*
X326023Y41831D01*
X351630D01*
Y40776D01*
X356370D01*
Y44925D01*
X351630D01*
Y43870D01*
X326445D01*
X321515Y48800D01*
X321674Y48958D01*
X322069Y49642D01*
X322273Y50405D01*
Y51195D01*
X322069Y51958D01*
X321674Y52642D01*
X321115Y53201D01*
X320431Y53596D01*
X319668Y53800D01*
D02*
G37*
G36*
X540826Y30500D02*
X539174D01*
X537541Y30242D01*
X535969Y29731D01*
X534497Y28980D01*
X533160Y28009D01*
X531991Y26840D01*
X531020Y25503D01*
X530269Y24031D01*
X529759Y22459D01*
X529500Y20826D01*
Y19174D01*
X529759Y17541D01*
X530269Y15969D01*
X531020Y14497D01*
X531991Y13160D01*
X533160Y11991D01*
X534497Y11020D01*
X535969Y10269D01*
X537541Y9759D01*
X539174Y9500D01*
X540826D01*
X542459Y9759D01*
X544031Y10269D01*
X545503Y11020D01*
X546840Y11991D01*
X548009Y13160D01*
X548980Y14497D01*
X549731Y15969D01*
X550242Y17541D01*
X550500Y19174D01*
Y20826D01*
X550242Y22459D01*
X549731Y24031D01*
X548980Y25503D01*
X548009Y26840D01*
X546840Y28009D01*
X545503Y28980D01*
X544031Y29731D01*
X542459Y30242D01*
X540826Y30500D01*
D02*
G37*
G36*
X20826D02*
X19174D01*
X17541Y30242D01*
X15969Y29731D01*
X14497Y28980D01*
X13160Y28009D01*
X11991Y26840D01*
X11020Y25503D01*
X10269Y24031D01*
X9759Y22459D01*
X9500Y20826D01*
Y19174D01*
X9759Y17541D01*
X10269Y15969D01*
X11020Y14497D01*
X11991Y13160D01*
X13160Y11991D01*
X14497Y11020D01*
X15969Y10269D01*
X17541Y9759D01*
X19174Y9500D01*
X20826D01*
X22459Y9759D01*
X24031Y10269D01*
X25503Y11020D01*
X26840Y11991D01*
X28009Y13160D01*
X28980Y14497D01*
X29731Y15969D01*
X30242Y17541D01*
X30500Y19174D01*
Y20826D01*
X30242Y22459D01*
X29731Y24031D01*
X28980Y25503D01*
X28009Y26840D01*
X26840Y28009D01*
X25503Y28980D01*
X24031Y29731D01*
X22459Y30242D01*
X20826Y30500D01*
D02*
G37*
%LPD*%
G36*
X182259Y204580D02*
X181942Y204496D01*
X181258Y204101D01*
X180699Y203542D01*
X180304Y202858D01*
X180267Y202720D01*
X178321D01*
X177931Y202642D01*
X177748Y202520D01*
X114422D01*
X112424Y204519D01*
X112615Y204980D01*
X180500D01*
X180890Y205058D01*
X180924Y205080D01*
X182193D01*
X182259Y204580D01*
D02*
G37*
G36*
X88796Y241480D02*
X88658Y241401D01*
X88099Y240842D01*
X87704Y240158D01*
X87500Y239395D01*
Y238605D01*
X87704Y237842D01*
X88099Y237158D01*
X88658Y236599D01*
X89342Y236204D01*
X90105Y236000D01*
X90895D01*
X91658Y236204D01*
X92342Y236599D01*
X92901Y237158D01*
X93296Y237842D01*
X93500Y238605D01*
Y238980D01*
X141580D01*
Y213520D01*
X63800D01*
X63410Y213442D01*
X63079Y213221D01*
X44482Y194623D01*
X44020Y194815D01*
Y228078D01*
X57922Y241980D01*
X88662D01*
X88796Y241480D01*
D02*
G37*
%LPC*%
G36*
X94395Y232000D02*
X93605D01*
X92842Y231796D01*
X92158Y231401D01*
X91599Y230842D01*
X91204Y230158D01*
X91000Y229395D01*
Y228605D01*
X91204Y227842D01*
X91599Y227158D01*
X92158Y226599D01*
X92842Y226204D01*
X93605Y226000D01*
X94395D01*
X95158Y226204D01*
X95842Y226599D01*
X96401Y227158D01*
X96796Y227842D01*
X97000Y228605D01*
Y229395D01*
X96796Y230158D01*
X96401Y230842D01*
X95842Y231401D01*
X95158Y231796D01*
X94395Y232000D01*
D02*
G37*
%LPD*%
D11*
X346586Y316000D02*
X449000D01*
X346000Y316586D02*
X346586Y316000D01*
X346000Y316586D02*
Y323000D01*
X449000Y316000D02*
X461000Y328000D01*
X332000Y312414D02*
X332586Y313000D01*
X332000Y312000D02*
Y312414D01*
X458000Y313000D02*
X469000Y324000D01*
X332586Y313000D02*
X458000D01*
X311136Y198136D02*
X408000Y295000D01*
Y335000D02*
X408735D01*
X145000Y375000D02*
X145000Y375000D01*
X145000Y340650D02*
Y375000D01*
X429000Y324000D02*
Y334000D01*
X431850Y336850D02*
X439000D01*
X429000Y334000D02*
X431850Y336850D01*
X439000Y343150D02*
Y375000D01*
X439000Y343150D02*
X439000Y343150D01*
X420000Y343150D02*
Y375000D01*
X408735Y335000D02*
X410586Y336850D01*
X420000D01*
X383500D02*
X397500D01*
X369100D02*
X383500D01*
X355000D02*
X369100D01*
X339000D02*
X355000D01*
X397000Y343650D02*
X397500Y343150D01*
X397000Y343650D02*
Y375000D01*
X383500Y343150D02*
Y374500D01*
X383000Y375000D02*
X383500Y374500D01*
X369000Y343250D02*
X369100Y343150D01*
X369000Y343250D02*
Y375000D01*
X355000Y375000D02*
X355000Y375000D01*
X355000Y343150D02*
Y375000D01*
X288721Y173600D02*
X368021Y252900D01*
X387900D01*
X156800Y194800D02*
X264036D01*
X113136Y198136D02*
X311136D01*
X276000Y173600D02*
X288721D01*
X264036Y194800D02*
X264200Y194636D01*
X323500Y336850D02*
X339000D01*
X306500D02*
X323500D01*
X290000D02*
X306500D01*
X272500D02*
X290000D01*
X256500D02*
X272500D01*
X238000D02*
X256500D01*
X339000Y343650D02*
Y376500D01*
X339000Y343150D02*
X339000Y343150D01*
X323000Y375500D02*
Y376500D01*
X323500Y343150D02*
Y374500D01*
X323000Y375500D02*
X323500Y375000D01*
X307000Y344150D02*
Y375500D01*
X306500Y343150D02*
X307000Y343650D01*
X290000Y375500D02*
X290000Y375500D01*
X290000Y343650D02*
Y375500D01*
X272000Y344150D02*
Y375500D01*
Y343650D02*
X272500Y343150D01*
X257000Y344150D02*
Y375500D01*
X256500Y343150D02*
X257000Y343650D01*
X155000Y333000D02*
X158850Y336850D01*
X179000D01*
X221500D02*
X238000D01*
X208500D02*
X221500D01*
X194000D02*
X208500D01*
X179000D02*
X194000D01*
X165000Y343150D02*
Y375000D01*
X165000Y375000D01*
X179000Y343150D02*
Y375000D01*
X194000Y375500D02*
X194000Y375500D01*
X194000Y343650D02*
Y375500D01*
X208500Y343150D02*
X209000Y343650D01*
Y344150D02*
Y375500D01*
X221000D02*
X221500Y375000D01*
Y343150D02*
Y374500D01*
X238000Y343150D02*
X238000Y343150D01*
Y343650D02*
Y375000D01*
X63350Y334350D02*
X75000D01*
X63000Y334000D02*
X63350Y334350D01*
X135000D02*
X145000D01*
X125000D02*
X135000D01*
X115000D02*
X125000D01*
X105000D02*
X115000D01*
X95000D02*
X105000D01*
X85000D02*
X95000D01*
X75000D02*
X85000D01*
X135000Y375000D02*
X135000Y375000D01*
X135000Y340650D02*
Y375000D01*
X125000Y340650D02*
Y375000D01*
X125000Y340650D02*
X125000Y340650D01*
X115000Y375000D02*
X115000Y375000D01*
X115000Y340650D02*
Y375000D01*
X105000Y340650D02*
X105000Y340650D01*
Y375000D01*
X95000Y375000D02*
X95000Y375000D01*
X95000Y340650D02*
Y375000D01*
X85000Y340650D02*
X85000Y340650D01*
Y375000D01*
X75000Y340650D02*
X75000Y340650D01*
Y375000D01*
X336500Y110800D02*
X341250D01*
X303300Y110750D02*
X311500D01*
X218901Y153299D02*
X223000D01*
X216561Y158450D02*
Y159039D01*
X216759Y154027D02*
X218173D01*
X223000Y153299D02*
X228000D01*
X211000D02*
X217000D01*
X211000D02*
Y159500D01*
Y153150D02*
Y153299D01*
X217000Y164750D02*
Y168200D01*
Y164150D02*
Y164750D01*
X217450Y164299D02*
X217901Y164750D01*
X223000D01*
X217000Y158450D02*
X223000D01*
X223000Y158450D01*
X211000Y159500D02*
Y169014D01*
X211461Y159039D02*
X216561D01*
X211000Y159500D02*
X211461Y159039D01*
X218173Y154027D02*
X218901Y153299D01*
X211000Y169014D02*
X211135Y169149D01*
Y170835D02*
X211900Y171600D01*
X211135Y169149D02*
Y170835D01*
X92493Y163064D02*
Y163893D01*
X95957Y159600D02*
X100400D01*
X92493Y163064D02*
X95957Y159600D01*
X92493Y163893D02*
X99900Y171300D01*
X105100Y144800D02*
Y165000D01*
Y144800D02*
X112100Y137800D01*
X86000Y158400D02*
X97612Y146788D01*
Y146600D02*
Y146788D01*
X115400Y129000D01*
X117200Y171300D02*
X130200Y158300D01*
X99900Y171300D02*
X117200D01*
X130200Y158300D02*
X165400D01*
X103300Y178400D02*
X147000D01*
X163600Y161800D01*
X380400Y248000D02*
X393500Y234900D01*
Y197600D02*
Y234900D01*
X27000Y135100D02*
X44700D01*
X25000Y137100D02*
Y217800D01*
Y137100D02*
X27000Y135100D01*
X25000Y217800D02*
X56200Y249000D01*
X44700Y135100D02*
X49900Y129900D01*
Y124400D02*
Y129900D01*
X275228Y111100D02*
X284400D01*
X285000Y110500D01*
X209114Y72503D02*
X240361Y103750D01*
X288668D01*
X298500Y114000D02*
X309812D01*
X288250Y103750D02*
X289000Y103000D01*
X288668Y103750D02*
X290078Y105161D01*
Y105578D01*
X298500Y114000D01*
X272000Y99000D02*
X283500D01*
X287000Y95500D01*
X236200Y94500D02*
X280500D01*
X207700Y66000D02*
X236200Y94500D01*
X280500D02*
X283500Y91500D01*
X287000Y95000D02*
Y95500D01*
X283500Y81500D02*
Y91500D01*
X238000Y299000D02*
X252500D01*
X180000Y256000D02*
X208500D01*
X235500Y229000D01*
X217000Y168200D02*
X220800Y172000D01*
X224370D01*
X223000Y153299D02*
Y158450D01*
Y153150D02*
Y153299D01*
X226235Y172235D02*
X227000Y173000D01*
X224649Y172235D02*
X226235D01*
X224414Y172000D02*
X224649Y172235D01*
X224370Y172000D02*
X224414D01*
X336500Y110800D02*
Y110850D01*
Y100000D02*
Y110800D01*
X253100Y47100D02*
Y56400D01*
X207180Y46000D02*
X252000D01*
X253100Y47100D01*
X199680Y53500D02*
X207180Y46000D01*
X244500Y36000D02*
Y42850D01*
Y36000D02*
X247000Y33500D01*
X372500Y159500D02*
X465000D01*
X469500Y155000D01*
X456500Y169500D02*
Y185500D01*
X457672Y168328D02*
X476672D01*
X456500Y169500D02*
X457672Y168328D01*
X481700Y163200D02*
X485922Y167422D01*
X487000Y168918D02*
Y170000D01*
X485922Y167839D02*
X487000Y168918D01*
X485922Y167422D02*
Y167839D01*
X365000Y138000D02*
X469500D01*
X492000Y160500D01*
Y177500D01*
X478086Y181000D02*
X488500D01*
X492000Y177500D01*
X475500Y180000D02*
X476265Y180765D01*
X477851D02*
X478086Y181000D01*
X476265Y180765D02*
X477851D01*
X494500Y159200D02*
Y186000D01*
X486200Y194300D02*
X494500Y186000D01*
X396800Y194300D02*
X486200D01*
X399300Y64000D02*
X494500Y159200D01*
X476672Y168328D02*
X477000Y168000D01*
X287000Y163200D02*
X481700D01*
X303700Y168300D02*
X323200Y187800D01*
X335500Y200100D02*
Y211000D01*
X339172Y171828D02*
X369172D01*
X323200Y187800D02*
X339172Y171828D01*
X323200Y187800D02*
X335500Y200100D01*
X369172Y171828D02*
X369500Y171500D01*
X376000Y169700D02*
Y233800D01*
X371600Y165300D02*
X376000Y169700D01*
Y233800D02*
X381800Y239600D01*
X266600Y168300D02*
X303700D01*
X373000Y117150D02*
Y127472D01*
X375300Y129772D02*
Y130000D01*
X373000Y127472D02*
X375300Y129772D01*
X227850Y146850D02*
X229000Y148000D01*
X336500Y127300D02*
X339200Y130000D01*
X371000Y61500D02*
Y65000D01*
X368000Y58500D02*
X371000Y61500D01*
X355500Y58500D02*
X368000D01*
X349800Y64200D02*
X355500Y58500D01*
X412500Y103400D02*
X415200Y100700D01*
X412500Y103400D02*
Y110850D01*
X303300Y110650D02*
Y110750D01*
Y99882D02*
Y110650D01*
X393863Y64000D02*
X399300D01*
X356963Y27100D02*
X393863Y64000D01*
X358699Y68101D02*
X362300Y64500D01*
X362500D01*
X354133Y73350D02*
X358677Y68126D01*
X373000Y110850D02*
X381500D01*
X373000Y100413D02*
Y110850D01*
X373900Y99100D02*
Y99513D01*
X373000Y100413D02*
X373900Y99513D01*
Y99100D02*
X375000Y98000D01*
X362600Y105400D02*
X363000Y105000D01*
X362600Y105400D02*
Y114500D01*
X444918Y136000D02*
X446418Y134500D01*
X371500Y136000D02*
X444918D01*
X367400Y131900D02*
X371500Y136000D01*
X446418Y134500D02*
X447500D01*
X356700Y131900D02*
X367400D01*
X347000Y118150D02*
Y121414D01*
X346000Y117150D02*
X347000Y118150D01*
Y121414D02*
X349000Y123414D01*
Y124000D01*
X347000Y134000D02*
X372500Y159500D01*
X303128Y139000D02*
X337000D01*
X275228Y111100D02*
X303128Y139000D01*
X245700Y111100D02*
X275228D01*
X303500Y117150D02*
Y128500D01*
X303300Y116950D02*
X303500Y117150D01*
X311472Y117050D02*
X311500D01*
X310398Y115975D02*
X311472Y117050D01*
X310398Y114586D02*
Y115975D01*
X309812Y114000D02*
X310398Y114586D01*
X338150Y76000D02*
X403600D01*
X272621Y75921D02*
X338071D01*
X292221Y77421D02*
X329300Y114500D01*
X255300Y62000D02*
X270721Y77421D01*
X292221D01*
X338071Y75921D02*
X338150Y76000D01*
X253100Y56400D02*
X272621Y75921D01*
X302500Y99082D02*
X303300Y99882D01*
X302500Y98000D02*
X303000Y97500D01*
X302500Y98000D02*
Y99082D01*
X303000Y97500D02*
X304400D01*
X170000Y66000D02*
X207700D01*
X176500Y84500D02*
X188200D01*
X269000Y165300D01*
X171500Y58000D02*
X219914D01*
X159900Y59800D02*
X169700D01*
X171500Y58000D01*
X235914Y65500D02*
X243414Y58000D01*
X220500Y62500D02*
X223500Y65500D01*
X235914D01*
X243414Y58000D02*
X251500D01*
X255300Y61800D01*
X220500Y58586D02*
Y62500D01*
X219914Y58000D02*
X220500Y58586D01*
X255300Y61800D02*
Y62000D01*
X232350Y49150D02*
X244500D01*
X230765Y50735D02*
X232350Y49150D01*
X230765Y50735D02*
Y59135D01*
X70682Y53500D02*
X199680D01*
X230000Y59900D02*
X230765Y59135D01*
X250800Y65500D02*
X251000D01*
X245370Y70930D02*
X250800Y65500D01*
X244000Y72850D02*
X244295D01*
X245370Y71776D01*
Y70930D02*
Y71776D01*
X139235Y248765D02*
X140000Y248000D01*
X137649Y248765D02*
X139235D01*
X137414Y249000D02*
X137649Y248765D01*
X56200Y249000D02*
X137414D01*
X148500Y248000D02*
Y251500D01*
X143500Y243000D02*
X148500Y248000D01*
X57500Y243000D02*
X143500D01*
X43000Y228500D02*
X57500Y243000D01*
X90500Y239000D02*
X91265Y239765D01*
X92851D01*
X93086Y240000D01*
X142600Y212900D02*
Y239414D01*
X93086Y240000D02*
X142014D01*
X142600Y239414D01*
X145500Y254500D02*
X148500Y251500D01*
X63800Y212500D02*
X142600D01*
X143000D01*
X170414D01*
X142600Y212900D02*
X143000Y212500D01*
X170649Y212265D02*
X172235D01*
X44500Y193200D02*
X63800Y212500D01*
X172235Y212265D02*
X173000Y211500D01*
X170414Y212500D02*
X170649Y212265D01*
X78500Y206000D02*
X180500D01*
X180600Y206100D01*
X178121Y201500D02*
X178321Y201700D01*
X180600Y206100D02*
X194000D01*
X114000Y201500D02*
X178121D01*
X178321Y201700D02*
X183100D01*
X111000Y204500D02*
X114000Y201500D01*
X49000Y176500D02*
X78500Y206000D01*
X89586Y259000D02*
X149700D01*
X87000Y257000D02*
X87586D01*
X89586Y259000D01*
X81493Y201700D02*
X83825Y204032D01*
X84532D01*
X80500Y201700D02*
X81493D01*
X84532Y204032D02*
X85000Y204500D01*
X43000Y142100D02*
Y228500D01*
X149700Y259000D02*
X186100Y222600D01*
X181100Y129000D02*
X203400Y106700D01*
X115400Y129000D02*
X181100D01*
X85615Y117000D02*
X157000D01*
X67800Y134815D02*
X85615Y117000D01*
X63150Y113200D02*
X65850Y110500D01*
X164500D01*
X190300Y77000D02*
X272700Y159400D01*
X146500Y77000D02*
X190300D01*
X140783Y73290D02*
Y80783D01*
X145500Y85500D01*
X163310Y123200D02*
X163793Y123683D01*
X87100Y123200D02*
X163310D01*
X69582Y54600D02*
X70682Y53500D01*
X68500Y54600D02*
X69582D01*
X44500Y157500D02*
X47000Y155000D01*
X44500Y157500D02*
Y193200D01*
X49000Y175500D02*
Y176500D01*
X43000Y142100D02*
X48000Y137100D01*
X85000Y204500D02*
X111000D01*
X96418Y198000D02*
X97500D01*
X86500Y199300D02*
X95118D01*
X96418Y198000D01*
X67800Y180600D02*
X86500Y199300D01*
X86000Y179700D02*
X105500Y199200D01*
X351714Y88714D02*
X351800D01*
X362600Y114500D02*
X381500D01*
X329300D02*
X362600D01*
X424400Y96800D02*
Y98900D01*
X403600Y76000D02*
X424400Y96800D01*
X217000Y153150D02*
Y153299D01*
X90000Y175000D02*
X113136Y198136D01*
X243550Y88750D02*
X244000Y88300D01*
Y79150D02*
Y88300D01*
X351800Y88714D02*
X354000Y86514D01*
Y79650D02*
Y86514D01*
X412500Y117150D02*
Y127672D01*
X414828Y130000D01*
X245300Y150300D02*
X269800Y174800D01*
X114000Y150300D02*
X245300D01*
X127000Y191100D02*
X153100D01*
X156800Y194800D01*
X166676Y188776D02*
X270324D01*
X281900Y177200D01*
X212800Y225500D02*
X216000Y222300D01*
X280100D01*
X301000Y243200D01*
X169248Y72503D02*
X209114D01*
X168419Y71673D02*
X169248Y72503D01*
X142400Y71673D02*
X168419D01*
X140783Y73290D02*
X142400Y71673D01*
X381500Y114500D02*
Y117150D01*
X203321Y79521D02*
X287000Y163200D01*
X421500Y117150D02*
X424400D01*
X86000Y158400D02*
Y179700D01*
X67800Y134815D02*
Y140000D01*
X80300Y130000D02*
X87100Y123200D01*
X70400Y120000D02*
Y129800D01*
X63100Y137100D02*
X70400Y129800D01*
X48000Y137100D02*
X63100D01*
X112100Y137800D02*
X183700D01*
X269000Y165300D02*
X371600D01*
X183000Y27100D02*
X356963D01*
X393500Y197600D02*
X396800Y194300D01*
X201300Y117700D02*
X216000D01*
X266600Y168300D01*
X341250Y110800D02*
X346000Y110850D01*
X354000Y73350D02*
X354133D01*
X208500Y291000D02*
X210000Y289500D01*
X250677D01*
X456500Y203000D02*
Y206000D01*
X452500Y210000D02*
X456500Y206000D01*
X452500Y210000D02*
Y224200D01*
X546000Y317700D01*
X191000Y178400D02*
X271200D01*
X276000Y173600D01*
X169900Y157300D02*
X191000Y178400D01*
X303800Y64200D02*
X349800D01*
X283600Y44000D02*
X303800Y64200D01*
X165400Y158300D02*
X167100Y160000D01*
Y180000D01*
X67800Y140000D02*
Y180600D01*
X194000Y206100D02*
X194950Y205150D01*
X336500Y117150D02*
Y127300D01*
X406000Y80500D02*
X424400Y98900D01*
Y117150D01*
X319273Y49600D02*
Y50800D01*
Y49600D02*
X326023Y42850D01*
X354000D01*
X232100Y246400D02*
X244900Y233600D01*
X269200D01*
X412500Y110850D02*
X421500D01*
X203100Y135700D02*
X211000Y143600D01*
Y146850D01*
X221500Y279000D02*
X273500D01*
X348000Y57200D02*
X353300D01*
X354000Y56500D01*
Y49150D02*
Y56500D01*
X217000Y164150D02*
X217150Y164299D01*
X223000Y146850D02*
X227850D01*
X217000D02*
X223000D01*
X211000D02*
X217000D01*
D18*
X439000Y336850D02*
D03*
Y343150D02*
D03*
X420000D02*
D03*
Y336850D02*
D03*
X355000D02*
D03*
Y343150D02*
D03*
X369100Y336850D02*
D03*
Y343150D02*
D03*
X397500Y336850D02*
D03*
Y343150D02*
D03*
X383500Y336850D02*
D03*
Y343150D02*
D03*
X323500D02*
D03*
Y336850D02*
D03*
X290000D02*
D03*
Y343150D02*
D03*
X306500D02*
D03*
Y336850D02*
D03*
X272500Y343150D02*
D03*
Y336850D02*
D03*
X256500Y343150D02*
D03*
Y336850D02*
D03*
X339000D02*
D03*
Y343150D02*
D03*
X208500D02*
D03*
Y336850D02*
D03*
X194000D02*
D03*
Y343150D02*
D03*
X179000D02*
D03*
Y336850D02*
D03*
X165000D02*
D03*
Y343150D02*
D03*
X238000Y336850D02*
D03*
Y343150D02*
D03*
X221500Y336850D02*
D03*
Y343150D02*
D03*
X85000Y334350D02*
D03*
Y340650D02*
D03*
X145000Y334350D02*
D03*
Y340650D02*
D03*
X135000Y334350D02*
D03*
Y340650D02*
D03*
X125000Y334350D02*
D03*
Y340650D02*
D03*
X115000Y334350D02*
D03*
Y340650D02*
D03*
X105000Y334350D02*
D03*
Y340650D02*
D03*
X95000Y334350D02*
D03*
Y340650D02*
D03*
X75000Y334350D02*
D03*
Y340650D02*
D03*
X311500Y117050D02*
D03*
Y110750D02*
D03*
X412500Y117150D02*
D03*
Y110850D02*
D03*
X354000Y79650D02*
D03*
Y73350D02*
D03*
X244000Y79150D02*
D03*
Y72850D02*
D03*
X373000Y117150D02*
D03*
Y110850D02*
D03*
X381500Y117150D02*
D03*
Y110850D02*
D03*
X303300Y116950D02*
D03*
Y110650D02*
D03*
X346000Y117150D02*
D03*
Y110850D02*
D03*
X336500Y117150D02*
D03*
Y110850D02*
D03*
X421500Y117150D02*
D03*
Y110850D02*
D03*
X354000Y49150D02*
D03*
Y42850D02*
D03*
X244500Y49150D02*
D03*
Y42850D02*
D03*
X223000Y158450D02*
D03*
Y164750D02*
D03*
X217000Y153150D02*
D03*
Y146850D02*
D03*
Y158450D02*
D03*
Y164750D02*
D03*
X211000Y153150D02*
D03*
Y146850D02*
D03*
X223000D02*
D03*
Y153150D02*
D03*
X229000Y146850D02*
D03*
Y153150D02*
D03*
D43*
X20000Y20000D02*
D03*
Y380000D02*
D03*
X540000D02*
D03*
Y20000D02*
D03*
D44*
X456500Y238000D02*
D03*
X444000D02*
D03*
X456500Y220500D02*
D03*
X444000D02*
D03*
X456500Y203000D02*
D03*
X444000D02*
D03*
X456500Y185500D02*
D03*
X444000D02*
D03*
X350000Y180000D02*
D03*
Y220000D02*
D03*
X90000Y175000D02*
D03*
X350000Y200000D02*
D03*
X251000Y205000D02*
D03*
X291000Y151000D02*
D03*
X260000Y118000D02*
D03*
D45*
X542000Y224000D02*
D03*
Y234000D02*
D03*
Y244000D02*
D03*
Y254000D02*
D03*
Y264000D02*
D03*
Y274000D02*
D03*
Y284000D02*
D03*
X532000Y224000D02*
D03*
Y234000D02*
D03*
Y244000D02*
D03*
Y254000D02*
D03*
Y264000D02*
D03*
Y274000D02*
D03*
X542000Y294000D02*
D03*
X532000Y284000D02*
D03*
X30000Y120000D02*
D03*
Y130000D02*
D03*
Y140000D02*
D03*
Y150000D02*
D03*
Y160000D02*
D03*
Y170000D02*
D03*
Y180000D02*
D03*
X20000Y120000D02*
D03*
Y130000D02*
D03*
Y140000D02*
D03*
Y150000D02*
D03*
Y160000D02*
D03*
Y170000D02*
D03*
X30000Y190000D02*
D03*
X20000Y180000D02*
D03*
D46*
X532000Y294000D02*
D03*
X20000Y190000D02*
D03*
D47*
X411500Y199000D02*
D03*
X401500D02*
D03*
X411500Y209000D02*
D03*
X401500D02*
D03*
X411500Y219000D02*
D03*
D48*
X401500D02*
D03*
D49*
X408000Y295000D02*
D03*
X346000Y323000D02*
D03*
X461000Y328000D02*
D03*
X332000Y312000D02*
D03*
X469000Y324000D02*
D03*
X491000Y333000D02*
D03*
X429000Y342000D02*
D03*
Y324000D02*
D03*
X439000Y375000D02*
D03*
X420000D02*
D03*
X408000Y335000D02*
D03*
X397000Y375000D02*
D03*
X383000D02*
D03*
X369000D02*
D03*
X355000D02*
D03*
X264200Y194636D02*
D03*
X339000Y375000D02*
D03*
X323000D02*
D03*
X307000D02*
D03*
X290000D02*
D03*
X272000D02*
D03*
X257000D02*
D03*
X155000Y333000D02*
D03*
X165000Y375000D02*
D03*
X179000D02*
D03*
X194000D02*
D03*
X209000D02*
D03*
X221500D02*
D03*
X238000D02*
D03*
X63000Y334000D02*
D03*
X145000Y375000D02*
D03*
X135000D02*
D03*
X125000D02*
D03*
X115000D02*
D03*
X105000D02*
D03*
X95000D02*
D03*
X85000D02*
D03*
X75000D02*
D03*
X227000Y173000D02*
D03*
X211900Y171600D02*
D03*
X100400Y159600D02*
D03*
X105100Y165000D02*
D03*
X97612Y146600D02*
D03*
X103300Y178400D02*
D03*
X380400Y248000D02*
D03*
X387900Y252900D02*
D03*
X49900Y124400D02*
D03*
X285000Y110500D02*
D03*
X289000Y103000D02*
D03*
X272000Y99000D02*
D03*
X287000Y95000D02*
D03*
X283500Y81500D02*
D03*
X252500Y299000D02*
D03*
X238000D02*
D03*
X237500Y228000D02*
D03*
X208500Y291000D02*
D03*
X247000Y33500D02*
D03*
X510500Y365000D02*
D03*
X469500Y155000D02*
D03*
X487000Y170000D02*
D03*
X477000Y168000D02*
D03*
X475500Y180000D02*
D03*
X369500Y171500D02*
D03*
X335500Y211000D02*
D03*
X336500Y100000D02*
D03*
X394500Y64000D02*
D03*
X371000Y65000D02*
D03*
X362500Y64500D02*
D03*
X375000Y98000D02*
D03*
X363000Y105000D02*
D03*
X356700Y131900D02*
D03*
X447500Y134500D02*
D03*
X365000Y138000D02*
D03*
X349000Y124000D02*
D03*
X347000Y134000D02*
D03*
X337000Y139000D02*
D03*
X303500Y128500D02*
D03*
X302500Y98000D02*
D03*
X170000Y66000D02*
D03*
X176500Y84500D02*
D03*
X230000Y59900D02*
D03*
X243550Y88750D02*
D03*
X251000Y65500D02*
D03*
X140000Y248000D02*
D03*
X145500Y254500D02*
D03*
X94000Y229000D02*
D03*
X173000Y211500D02*
D03*
X87000Y257000D02*
D03*
X77000Y255000D02*
D03*
X90500Y239000D02*
D03*
X80500Y201700D02*
D03*
X135520Y262500D02*
D03*
X157000Y117000D02*
D03*
X164500Y110500D02*
D03*
X146500Y77000D02*
D03*
X145500Y85500D02*
D03*
X163793Y123683D02*
D03*
X91000Y64500D02*
D03*
X91500Y94500D02*
D03*
X47000Y155000D02*
D03*
X49000Y175500D02*
D03*
X97500Y198000D02*
D03*
X105500Y199200D02*
D03*
X351714Y88714D02*
D03*
X269800Y174800D02*
D03*
X114000Y150300D02*
D03*
X127000Y191100D02*
D03*
X166676Y188776D02*
D03*
X281900Y177200D02*
D03*
X212800Y225500D02*
D03*
X301000Y243200D02*
D03*
X159900Y59800D02*
D03*
X203321Y79521D02*
D03*
X68500Y54600D02*
D03*
X186100Y222600D02*
D03*
X183100Y201700D02*
D03*
X80300Y130000D02*
D03*
X70400Y120000D02*
D03*
X183700Y137800D02*
D03*
X180000Y256000D02*
D03*
X163600Y161800D02*
D03*
X381800Y239600D02*
D03*
X183000Y27100D02*
D03*
X201300Y117700D02*
D03*
X245700Y111100D02*
D03*
X415200Y100700D02*
D03*
X250677Y289500D02*
D03*
X546000Y317700D02*
D03*
X203400Y106700D02*
D03*
X169900Y157300D02*
D03*
X272700Y159400D02*
D03*
X63150Y113200D02*
D03*
X283600Y44000D02*
D03*
X167100Y180000D02*
D03*
X67800Y140000D02*
D03*
X194950Y205150D02*
D03*
X148800Y269000D02*
D03*
X339200Y130000D02*
D03*
X406000Y80500D02*
D03*
X319273Y50800D02*
D03*
X375300Y130000D02*
D03*
X232100Y246400D02*
D03*
X269200Y233600D02*
D03*
X203100Y135700D02*
D03*
X348000Y57200D02*
D03*
X221500Y279000D02*
D03*
X273500D02*
D03*
X270000Y270000D02*
D03*
X415000Y130000D02*
D03*
X105095Y58720D02*
D03*
Y88720D02*
D03*
X243994Y244800D02*
D03*
M02*
