G04*
G04 #@! TF.GenerationSoftware,Altium Limited,Altium Designer,22.3.1 (43)*
G04*
G04 Layer_Color=8388736*
%FSLAX25Y25*%
%MOIN*%
G70*
G04*
G04 #@! TF.SameCoordinates,6E346DA1-06B3-48DF-BE1B-420114EF1470*
G04*
G04*
G04 #@! TF.FilePolarity,Negative*
G04*
G01*
G75*
%ADD25R,0.03950X0.04540*%
%ADD26R,0.06607X0.02572*%
%ADD27R,0.03950X0.03950*%
%ADD28R,0.04540X0.03950*%
%ADD29R,0.07887X0.02572*%
%ADD30R,0.06312X0.02572*%
%ADD31R,0.05721X0.03162*%
%ADD32R,0.06312X0.01981*%
%ADD33R,0.03162X0.06607*%
%ADD34R,0.06607X0.03162*%
%ADD35C,0.20800*%
%ADD36R,0.06706X0.06706*%
%ADD37C,0.06800*%
%ADD38R,0.06800X0.06800*%
%ADD39C,0.06706*%
%ADD40R,0.06706X0.06706*%
%ADD41C,0.05800*%
D25*
X76850Y94000D02*
D03*
X83150D02*
D03*
X130850Y80000D02*
D03*
X137150D02*
D03*
Y86000D02*
D03*
X130850D02*
D03*
X76850D02*
D03*
X83150D02*
D03*
X137150Y92000D02*
D03*
X130850D02*
D03*
X137150Y98000D02*
D03*
X130850D02*
D03*
X76850Y64000D02*
D03*
X83150D02*
D03*
X130850Y50000D02*
D03*
X137150D02*
D03*
Y56000D02*
D03*
X130850D02*
D03*
X83150D02*
D03*
X76850D02*
D03*
X137150Y62000D02*
D03*
X130850D02*
D03*
X137150Y68000D02*
D03*
X130850D02*
D03*
X219850Y272000D02*
D03*
X226150D02*
D03*
X219850Y261500D02*
D03*
X226150D02*
D03*
X219850Y251000D02*
D03*
X226150D02*
D03*
X276150Y255000D02*
D03*
X269850D02*
D03*
X276150Y262500D02*
D03*
X269850D02*
D03*
X471350Y358500D02*
D03*
X477650D02*
D03*
X471350Y351500D02*
D03*
X477650D02*
D03*
Y337500D02*
D03*
X471350D02*
D03*
Y344500D02*
D03*
X477650D02*
D03*
X527350Y329500D02*
D03*
X533650D02*
D03*
Y335500D02*
D03*
X527350D02*
D03*
Y341500D02*
D03*
X533650D02*
D03*
Y347500D02*
D03*
X527350D02*
D03*
Y353500D02*
D03*
X533650D02*
D03*
Y359500D02*
D03*
X527350D02*
D03*
X500850Y294000D02*
D03*
X507150D02*
D03*
X500850Y284000D02*
D03*
X507150D02*
D03*
X500850Y274000D02*
D03*
X507150D02*
D03*
X500850Y264000D02*
D03*
X507150D02*
D03*
X500850Y254000D02*
D03*
X507150D02*
D03*
X387150Y68000D02*
D03*
X380850D02*
D03*
X275150D02*
D03*
X268850D02*
D03*
X500850Y244000D02*
D03*
X507150D02*
D03*
X500850Y234000D02*
D03*
X507150D02*
D03*
X500850Y224000D02*
D03*
X507150D02*
D03*
X331150Y80000D02*
D03*
X324850D02*
D03*
X221150D02*
D03*
X214850D02*
D03*
X331150Y72000D02*
D03*
X324850D02*
D03*
X387150Y74000D02*
D03*
X380850D02*
D03*
X221150Y72000D02*
D03*
X214850D02*
D03*
X275150Y74000D02*
D03*
X268850D02*
D03*
X387150Y80000D02*
D03*
X380850D02*
D03*
X275150D02*
D03*
X268850D02*
D03*
X387150Y86000D02*
D03*
X380850D02*
D03*
X275150D02*
D03*
X268850D02*
D03*
X275150Y38000D02*
D03*
X268850D02*
D03*
X387150D02*
D03*
X380850D02*
D03*
X221150Y50000D02*
D03*
X214850D02*
D03*
X331150Y52000D02*
D03*
X324850D02*
D03*
X221150Y42000D02*
D03*
X214850D02*
D03*
X275150Y44000D02*
D03*
X268850D02*
D03*
X331150D02*
D03*
X324850D02*
D03*
X387150D02*
D03*
X380850D02*
D03*
X275150Y50000D02*
D03*
X268850D02*
D03*
X387150D02*
D03*
X380850D02*
D03*
X275150Y56000D02*
D03*
X268850D02*
D03*
X387150D02*
D03*
X380850D02*
D03*
X378350Y219000D02*
D03*
X384650D02*
D03*
X63150Y190000D02*
D03*
X56850D02*
D03*
X384650Y189000D02*
D03*
X378350D02*
D03*
Y209000D02*
D03*
X384650D02*
D03*
X63150Y180000D02*
D03*
X56850D02*
D03*
X378350Y199000D02*
D03*
X384650D02*
D03*
X86850Y165000D02*
D03*
X93150D02*
D03*
X63150Y170000D02*
D03*
X56850D02*
D03*
X86850Y155000D02*
D03*
X93150D02*
D03*
X63150Y160000D02*
D03*
X56850D02*
D03*
X86850Y145000D02*
D03*
X93150D02*
D03*
X63150Y150000D02*
D03*
X56850D02*
D03*
X86850Y135000D02*
D03*
X93150D02*
D03*
X63150Y140000D02*
D03*
X56850D02*
D03*
X63150Y130000D02*
D03*
X56850D02*
D03*
X63150Y120000D02*
D03*
X56850D02*
D03*
X255850Y181000D02*
D03*
X262150D02*
D03*
X174350Y186000D02*
D03*
X180650D02*
D03*
X255850Y175000D02*
D03*
X262150D02*
D03*
X174350Y180000D02*
D03*
X180650D02*
D03*
X255850Y169000D02*
D03*
X262150D02*
D03*
X174350Y174000D02*
D03*
X180650D02*
D03*
X255850Y163000D02*
D03*
X262150D02*
D03*
X174350Y168000D02*
D03*
X180650D02*
D03*
X255850Y157000D02*
D03*
X262150D02*
D03*
X174350Y162000D02*
D03*
X180650D02*
D03*
X255850Y151000D02*
D03*
X262150D02*
D03*
X174350Y156000D02*
D03*
X180650D02*
D03*
X174350Y150000D02*
D03*
X180650D02*
D03*
X174350Y144000D02*
D03*
X180650D02*
D03*
D26*
X258567Y266677D02*
D03*
Y264118D02*
D03*
Y261559D02*
D03*
Y259000D02*
D03*
Y256441D02*
D03*
Y253882D02*
D03*
Y251323D02*
D03*
X235433D02*
D03*
Y253882D02*
D03*
Y256441D02*
D03*
Y259000D02*
D03*
Y261559D02*
D03*
Y264118D02*
D03*
Y266677D02*
D03*
X490933Y355177D02*
D03*
Y352618D02*
D03*
Y350059D02*
D03*
Y347500D02*
D03*
Y344941D02*
D03*
Y342382D02*
D03*
Y339823D02*
D03*
X514067D02*
D03*
Y342382D02*
D03*
Y344941D02*
D03*
Y347500D02*
D03*
Y350059D02*
D03*
Y352618D02*
D03*
Y355177D02*
D03*
D27*
X290000Y334350D02*
D03*
Y340650D02*
D03*
X306500D02*
D03*
Y334350D02*
D03*
X208500Y340650D02*
D03*
Y334350D02*
D03*
X238000Y340650D02*
D03*
Y334350D02*
D03*
X272500Y340650D02*
D03*
Y334350D02*
D03*
X256500Y340650D02*
D03*
Y334350D02*
D03*
X420000Y340650D02*
D03*
Y334350D02*
D03*
X439000Y340650D02*
D03*
Y334350D02*
D03*
X221500Y340650D02*
D03*
Y334350D02*
D03*
X75000Y340650D02*
D03*
Y334350D02*
D03*
X85000Y340650D02*
D03*
Y334350D02*
D03*
X95000Y340650D02*
D03*
Y334350D02*
D03*
X105000Y340650D02*
D03*
Y334350D02*
D03*
X115000Y340650D02*
D03*
Y334350D02*
D03*
X125000Y340650D02*
D03*
Y334350D02*
D03*
X135000Y340650D02*
D03*
Y334350D02*
D03*
X145000Y340650D02*
D03*
Y334350D02*
D03*
X323500Y340650D02*
D03*
Y334350D02*
D03*
X339000Y340650D02*
D03*
Y334350D02*
D03*
X355000Y340650D02*
D03*
Y334350D02*
D03*
X369100Y340650D02*
D03*
Y334350D02*
D03*
X383500Y340650D02*
D03*
Y334350D02*
D03*
X397500Y340650D02*
D03*
Y334350D02*
D03*
X165000Y340650D02*
D03*
Y334350D02*
D03*
X179000Y340650D02*
D03*
Y334350D02*
D03*
X194000Y340650D02*
D03*
Y334350D02*
D03*
D28*
X290000Y277150D02*
D03*
Y270850D02*
D03*
X215000Y205150D02*
D03*
Y198850D02*
D03*
X306500Y270850D02*
D03*
Y277150D02*
D03*
X194000Y270850D02*
D03*
Y277150D02*
D03*
X179000Y270850D02*
D03*
Y277150D02*
D03*
X165000Y270850D02*
D03*
Y277150D02*
D03*
X397500Y270850D02*
D03*
Y277150D02*
D03*
X383500Y270850D02*
D03*
Y277150D02*
D03*
X369100Y270850D02*
D03*
Y277150D02*
D03*
X355000Y270850D02*
D03*
Y277150D02*
D03*
X366000Y120150D02*
D03*
Y113850D02*
D03*
X294000Y120150D02*
D03*
Y113850D02*
D03*
X406000Y120150D02*
D03*
Y113850D02*
D03*
X330000Y120150D02*
D03*
Y113850D02*
D03*
X227000Y198850D02*
D03*
Y205150D02*
D03*
X233000Y198850D02*
D03*
Y205150D02*
D03*
X209000D02*
D03*
Y198850D02*
D03*
X239000D02*
D03*
Y205150D02*
D03*
X203000D02*
D03*
Y198850D02*
D03*
X242000Y124150D02*
D03*
Y117850D02*
D03*
X236000Y124150D02*
D03*
Y117850D02*
D03*
X230000Y124150D02*
D03*
Y117850D02*
D03*
X224000Y124150D02*
D03*
Y117850D02*
D03*
X206000D02*
D03*
Y124150D02*
D03*
X218000D02*
D03*
Y117850D02*
D03*
X212000Y124150D02*
D03*
Y117850D02*
D03*
D29*
X101024Y261516D02*
D03*
Y258957D02*
D03*
Y256398D02*
D03*
Y253839D02*
D03*
Y251280D02*
D03*
Y248720D02*
D03*
Y246161D02*
D03*
Y243602D02*
D03*
Y241043D02*
D03*
Y238484D02*
D03*
X128976D02*
D03*
Y241043D02*
D03*
Y243602D02*
D03*
Y246161D02*
D03*
Y248720D02*
D03*
Y251280D02*
D03*
Y253839D02*
D03*
Y256398D02*
D03*
Y258957D02*
D03*
Y261516D02*
D03*
D30*
X116661Y93839D02*
D03*
Y91280D02*
D03*
Y88720D02*
D03*
Y86161D02*
D03*
X99339D02*
D03*
Y88720D02*
D03*
Y91280D02*
D03*
Y93839D02*
D03*
X116661Y63839D02*
D03*
Y61280D02*
D03*
Y58720D02*
D03*
Y56161D02*
D03*
X99339D02*
D03*
Y58720D02*
D03*
Y61280D02*
D03*
Y63839D02*
D03*
D31*
X386134Y110000D02*
D03*
X377866Y106260D02*
D03*
Y113740D02*
D03*
X314134Y110000D02*
D03*
X305866Y106260D02*
D03*
Y113740D02*
D03*
X426134Y110000D02*
D03*
X417866Y106260D02*
D03*
Y113740D02*
D03*
X350134Y110000D02*
D03*
X341866Y106260D02*
D03*
Y113740D02*
D03*
D32*
X345339Y79937D02*
D03*
Y77969D02*
D03*
Y76000D02*
D03*
Y74032D02*
D03*
Y72063D02*
D03*
X362661D02*
D03*
Y74032D02*
D03*
Y76000D02*
D03*
Y77969D02*
D03*
Y79937D02*
D03*
X235339D02*
D03*
Y77969D02*
D03*
Y76000D02*
D03*
Y74032D02*
D03*
Y72063D02*
D03*
X252661D02*
D03*
Y74032D02*
D03*
Y76000D02*
D03*
Y77969D02*
D03*
Y79937D02*
D03*
X235339Y49937D02*
D03*
Y47969D02*
D03*
Y46000D02*
D03*
Y44032D02*
D03*
Y42063D02*
D03*
X252661D02*
D03*
Y44032D02*
D03*
Y46000D02*
D03*
Y47969D02*
D03*
Y49937D02*
D03*
X345339D02*
D03*
Y47969D02*
D03*
Y46000D02*
D03*
Y44032D02*
D03*
Y42063D02*
D03*
X362661D02*
D03*
Y44032D02*
D03*
Y46000D02*
D03*
Y47969D02*
D03*
Y49937D02*
D03*
D33*
X208308Y180685D02*
D03*
X211458D02*
D03*
X214607D02*
D03*
X217757D02*
D03*
X220906D02*
D03*
X224056D02*
D03*
X227206D02*
D03*
X230355D02*
D03*
Y147315D02*
D03*
X227206D02*
D03*
X224056D02*
D03*
X220906D02*
D03*
X217757D02*
D03*
X214607D02*
D03*
X211458D02*
D03*
X208308D02*
D03*
D34*
X236017Y175024D02*
D03*
Y171874D02*
D03*
Y168724D02*
D03*
Y165575D02*
D03*
Y162425D02*
D03*
Y159276D02*
D03*
Y156126D02*
D03*
Y152976D02*
D03*
X202647D02*
D03*
Y156126D02*
D03*
Y159276D02*
D03*
Y162425D02*
D03*
Y165575D02*
D03*
Y168724D02*
D03*
Y171874D02*
D03*
Y175024D02*
D03*
D35*
X20000Y20000D02*
D03*
Y380000D02*
D03*
X540000D02*
D03*
Y20000D02*
D03*
D36*
X456500Y238000D02*
D03*
X444000D02*
D03*
X456500Y220500D02*
D03*
X444000D02*
D03*
X456500Y203000D02*
D03*
X444000D02*
D03*
X456500Y185500D02*
D03*
X444000D02*
D03*
X350000Y180000D02*
D03*
Y220000D02*
D03*
X90000Y175000D02*
D03*
X350000Y200000D02*
D03*
X251000Y205000D02*
D03*
X291000Y151000D02*
D03*
X260000Y118000D02*
D03*
D37*
X542000Y224000D02*
D03*
Y234000D02*
D03*
Y244000D02*
D03*
Y254000D02*
D03*
Y264000D02*
D03*
Y274000D02*
D03*
Y284000D02*
D03*
X532000Y224000D02*
D03*
Y234000D02*
D03*
Y244000D02*
D03*
Y254000D02*
D03*
Y264000D02*
D03*
Y274000D02*
D03*
X542000Y294000D02*
D03*
X532000Y284000D02*
D03*
X30000Y120000D02*
D03*
Y130000D02*
D03*
Y140000D02*
D03*
Y150000D02*
D03*
Y160000D02*
D03*
Y170000D02*
D03*
Y180000D02*
D03*
X20000Y120000D02*
D03*
Y130000D02*
D03*
Y140000D02*
D03*
Y150000D02*
D03*
Y160000D02*
D03*
Y170000D02*
D03*
X30000Y190000D02*
D03*
X20000Y180000D02*
D03*
D38*
X532000Y294000D02*
D03*
X20000Y190000D02*
D03*
D39*
X411500Y199000D02*
D03*
X401500D02*
D03*
X411500Y209000D02*
D03*
X401500D02*
D03*
X411500Y219000D02*
D03*
D40*
X401500D02*
D03*
D41*
X408000Y295000D02*
D03*
X346000Y323000D02*
D03*
X461000Y328000D02*
D03*
X332000Y312000D02*
D03*
X469000Y324000D02*
D03*
X491000Y333000D02*
D03*
X429000Y342000D02*
D03*
Y324000D02*
D03*
X439000Y375000D02*
D03*
X420000D02*
D03*
X408000Y335000D02*
D03*
X397000Y375000D02*
D03*
X383000D02*
D03*
X369000D02*
D03*
X355000D02*
D03*
X264200Y194636D02*
D03*
X339000Y375000D02*
D03*
X323000D02*
D03*
X307000D02*
D03*
X290000D02*
D03*
X272000D02*
D03*
X257000D02*
D03*
X155000Y333000D02*
D03*
X165000Y375000D02*
D03*
X179000D02*
D03*
X194000D02*
D03*
X209000D02*
D03*
X221500D02*
D03*
X238000D02*
D03*
X63000Y334000D02*
D03*
X145000Y375000D02*
D03*
X135000D02*
D03*
X125000D02*
D03*
X115000D02*
D03*
X105000D02*
D03*
X95000D02*
D03*
X85000D02*
D03*
X75000D02*
D03*
X227000Y173000D02*
D03*
X211900Y171600D02*
D03*
X100400Y159600D02*
D03*
X105100Y165000D02*
D03*
X97612Y146600D02*
D03*
X103300Y178400D02*
D03*
X380400Y248000D02*
D03*
X387900Y252900D02*
D03*
X49900Y124400D02*
D03*
X285000Y110500D02*
D03*
X289000Y103000D02*
D03*
X272000Y99000D02*
D03*
X287000Y95000D02*
D03*
X283500Y81500D02*
D03*
X252500Y299000D02*
D03*
X238000D02*
D03*
X237500Y228000D02*
D03*
X208500Y291000D02*
D03*
X247000Y33500D02*
D03*
X510500Y365000D02*
D03*
X469500Y155000D02*
D03*
X487000Y170000D02*
D03*
X477000Y168000D02*
D03*
X475500Y180000D02*
D03*
X369500Y171500D02*
D03*
X335500Y211000D02*
D03*
X336500Y100000D02*
D03*
X394500Y64000D02*
D03*
X371000Y65000D02*
D03*
X362500Y64500D02*
D03*
X375000Y98000D02*
D03*
X363000Y105000D02*
D03*
X356700Y131900D02*
D03*
X447500Y134500D02*
D03*
X365000Y138000D02*
D03*
X349000Y124000D02*
D03*
X347000Y134000D02*
D03*
X337000Y139000D02*
D03*
X303500Y128500D02*
D03*
X302500Y98000D02*
D03*
X170000Y66000D02*
D03*
X176500Y84500D02*
D03*
X230000Y59900D02*
D03*
X243550Y88750D02*
D03*
X251000Y65500D02*
D03*
X140000Y248000D02*
D03*
X145500Y254500D02*
D03*
X94000Y229000D02*
D03*
X173000Y211500D02*
D03*
X87000Y257000D02*
D03*
X77000Y255000D02*
D03*
X90500Y239000D02*
D03*
X80500Y201700D02*
D03*
X135520Y262500D02*
D03*
X157000Y117000D02*
D03*
X164500Y110500D02*
D03*
X146500Y77000D02*
D03*
X145500Y85500D02*
D03*
X163793Y123683D02*
D03*
X91000Y64500D02*
D03*
X91500Y94500D02*
D03*
X47000Y155000D02*
D03*
X49000Y175500D02*
D03*
X97500Y198000D02*
D03*
X105500Y199200D02*
D03*
X351714Y88714D02*
D03*
X269800Y174800D02*
D03*
X114000Y150300D02*
D03*
X127000Y191100D02*
D03*
X166676Y188776D02*
D03*
X281900Y177200D02*
D03*
X212800Y225500D02*
D03*
X301000Y243200D02*
D03*
X159900Y59800D02*
D03*
X203321Y79521D02*
D03*
X68500Y54600D02*
D03*
X186100Y222600D02*
D03*
X183100Y201700D02*
D03*
X80300Y130000D02*
D03*
X70400Y120000D02*
D03*
X183700Y137800D02*
D03*
X180000Y256000D02*
D03*
X163600Y161800D02*
D03*
X381800Y239600D02*
D03*
X183000Y27100D02*
D03*
X201300Y117700D02*
D03*
X245700Y111100D02*
D03*
X415200Y100700D02*
D03*
X250677Y289500D02*
D03*
X546000Y317700D02*
D03*
X203400Y106700D02*
D03*
X169900Y157300D02*
D03*
X272700Y159400D02*
D03*
X63150Y113200D02*
D03*
X283600Y44000D02*
D03*
X167100Y180000D02*
D03*
X67800Y140000D02*
D03*
X194950Y205150D02*
D03*
X148800Y269000D02*
D03*
X339200Y130000D02*
D03*
X406000Y80500D02*
D03*
X319273Y50800D02*
D03*
X375300Y130000D02*
D03*
X232100Y246400D02*
D03*
X269200Y233600D02*
D03*
X203100Y135700D02*
D03*
X348000Y57200D02*
D03*
X221500Y279000D02*
D03*
X273500D02*
D03*
X270000Y270000D02*
D03*
X415000Y130000D02*
D03*
X105095Y58720D02*
D03*
Y88720D02*
D03*
X243994Y244800D02*
D03*
M02*
