G04*
G04 #@! TF.GenerationSoftware,Altium Limited,Altium Designer,22.3.1 (43)*
G04*
G04 Layer_Color=16711935*
%FSLAX25Y25*%
%MOIN*%
G70*
G04*
G04 #@! TF.SameCoordinates,6E346DA1-06B3-48DF-BE1B-420114EF1470*
G04*
G04*
G04 #@! TF.FilePolarity,Negative*
G04*
G01*
G75*
%ADD28R,0.04540X0.03950*%
%ADD35C,0.20800*%
%ADD36R,0.06706X0.06706*%
%ADD37C,0.06800*%
%ADD38R,0.06800X0.06800*%
%ADD39C,0.06706*%
%ADD40R,0.06706X0.06706*%
%ADD41C,0.05800*%
D28*
X439000Y336850D02*
D03*
Y343150D02*
D03*
X420000D02*
D03*
Y336850D02*
D03*
X355000D02*
D03*
Y343150D02*
D03*
X369100Y336850D02*
D03*
Y343150D02*
D03*
X397500Y336850D02*
D03*
Y343150D02*
D03*
X383500Y336850D02*
D03*
Y343150D02*
D03*
X323500D02*
D03*
Y336850D02*
D03*
X290000D02*
D03*
Y343150D02*
D03*
X306500D02*
D03*
Y336850D02*
D03*
X272500Y343150D02*
D03*
Y336850D02*
D03*
X256500Y343150D02*
D03*
Y336850D02*
D03*
X339000D02*
D03*
Y343150D02*
D03*
X208500D02*
D03*
Y336850D02*
D03*
X194000D02*
D03*
Y343150D02*
D03*
X179000D02*
D03*
Y336850D02*
D03*
X165000D02*
D03*
Y343150D02*
D03*
X238000Y336850D02*
D03*
Y343150D02*
D03*
X221500Y336850D02*
D03*
Y343150D02*
D03*
X85000Y334350D02*
D03*
Y340650D02*
D03*
X145000Y334350D02*
D03*
Y340650D02*
D03*
X135000Y334350D02*
D03*
Y340650D02*
D03*
X125000Y334350D02*
D03*
Y340650D02*
D03*
X115000Y334350D02*
D03*
Y340650D02*
D03*
X105000Y334350D02*
D03*
Y340650D02*
D03*
X95000Y334350D02*
D03*
Y340650D02*
D03*
X75000Y334350D02*
D03*
Y340650D02*
D03*
X311500Y117050D02*
D03*
Y110750D02*
D03*
X412500Y117150D02*
D03*
Y110850D02*
D03*
X354000Y79650D02*
D03*
Y73350D02*
D03*
X244000Y79150D02*
D03*
Y72850D02*
D03*
X373000Y117150D02*
D03*
Y110850D02*
D03*
X381500Y117150D02*
D03*
Y110850D02*
D03*
X303300Y116950D02*
D03*
Y110650D02*
D03*
X346000Y117150D02*
D03*
Y110850D02*
D03*
X336500Y117150D02*
D03*
Y110850D02*
D03*
X421500Y117150D02*
D03*
Y110850D02*
D03*
X354000Y49150D02*
D03*
Y42850D02*
D03*
X244500Y49150D02*
D03*
Y42850D02*
D03*
X223000Y158450D02*
D03*
Y164750D02*
D03*
X217000Y153150D02*
D03*
Y146850D02*
D03*
Y158450D02*
D03*
Y164750D02*
D03*
X211000Y153150D02*
D03*
Y146850D02*
D03*
X223000D02*
D03*
Y153150D02*
D03*
X229000Y146850D02*
D03*
Y153150D02*
D03*
D35*
X20000Y20000D02*
D03*
Y380000D02*
D03*
X540000D02*
D03*
Y20000D02*
D03*
D36*
X456500Y238000D02*
D03*
X444000D02*
D03*
X456500Y220500D02*
D03*
X444000D02*
D03*
X456500Y203000D02*
D03*
X444000D02*
D03*
X456500Y185500D02*
D03*
X444000D02*
D03*
X350000Y180000D02*
D03*
Y220000D02*
D03*
X90000Y175000D02*
D03*
X350000Y200000D02*
D03*
X251000Y205000D02*
D03*
X291000Y151000D02*
D03*
X260000Y118000D02*
D03*
D37*
X542000Y224000D02*
D03*
Y234000D02*
D03*
Y244000D02*
D03*
Y254000D02*
D03*
Y264000D02*
D03*
Y274000D02*
D03*
Y284000D02*
D03*
X532000Y224000D02*
D03*
Y234000D02*
D03*
Y244000D02*
D03*
Y254000D02*
D03*
Y264000D02*
D03*
Y274000D02*
D03*
X542000Y294000D02*
D03*
X532000Y284000D02*
D03*
X30000Y120000D02*
D03*
Y130000D02*
D03*
Y140000D02*
D03*
Y150000D02*
D03*
Y160000D02*
D03*
Y170000D02*
D03*
Y180000D02*
D03*
X20000Y120000D02*
D03*
Y130000D02*
D03*
Y140000D02*
D03*
Y150000D02*
D03*
Y160000D02*
D03*
Y170000D02*
D03*
X30000Y190000D02*
D03*
X20000Y180000D02*
D03*
D38*
X532000Y294000D02*
D03*
X20000Y190000D02*
D03*
D39*
X411500Y199000D02*
D03*
X401500D02*
D03*
X411500Y209000D02*
D03*
X401500D02*
D03*
X411500Y219000D02*
D03*
D40*
X401500D02*
D03*
D41*
X408000Y295000D02*
D03*
X346000Y323000D02*
D03*
X461000Y328000D02*
D03*
X332000Y312000D02*
D03*
X469000Y324000D02*
D03*
X491000Y333000D02*
D03*
X429000Y342000D02*
D03*
Y324000D02*
D03*
X439000Y375000D02*
D03*
X420000D02*
D03*
X408000Y335000D02*
D03*
X397000Y375000D02*
D03*
X383000D02*
D03*
X369000D02*
D03*
X355000D02*
D03*
X264200Y194636D02*
D03*
X339000Y375000D02*
D03*
X323000D02*
D03*
X307000D02*
D03*
X290000D02*
D03*
X272000D02*
D03*
X257000D02*
D03*
X155000Y333000D02*
D03*
X165000Y375000D02*
D03*
X179000D02*
D03*
X194000D02*
D03*
X209000D02*
D03*
X221500D02*
D03*
X238000D02*
D03*
X63000Y334000D02*
D03*
X145000Y375000D02*
D03*
X135000D02*
D03*
X125000D02*
D03*
X115000D02*
D03*
X105000D02*
D03*
X95000D02*
D03*
X85000D02*
D03*
X75000D02*
D03*
X227000Y173000D02*
D03*
X211900Y171600D02*
D03*
X100400Y159600D02*
D03*
X105100Y165000D02*
D03*
X97612Y146600D02*
D03*
X103300Y178400D02*
D03*
X380400Y248000D02*
D03*
X387900Y252900D02*
D03*
X49900Y124400D02*
D03*
X285000Y110500D02*
D03*
X289000Y103000D02*
D03*
X272000Y99000D02*
D03*
X287000Y95000D02*
D03*
X283500Y81500D02*
D03*
X252500Y299000D02*
D03*
X238000D02*
D03*
X237500Y228000D02*
D03*
X208500Y291000D02*
D03*
X247000Y33500D02*
D03*
X510500Y365000D02*
D03*
X469500Y155000D02*
D03*
X487000Y170000D02*
D03*
X477000Y168000D02*
D03*
X475500Y180000D02*
D03*
X369500Y171500D02*
D03*
X335500Y211000D02*
D03*
X336500Y100000D02*
D03*
X394500Y64000D02*
D03*
X371000Y65000D02*
D03*
X362500Y64500D02*
D03*
X375000Y98000D02*
D03*
X363000Y105000D02*
D03*
X356700Y131900D02*
D03*
X447500Y134500D02*
D03*
X365000Y138000D02*
D03*
X349000Y124000D02*
D03*
X347000Y134000D02*
D03*
X337000Y139000D02*
D03*
X303500Y128500D02*
D03*
X302500Y98000D02*
D03*
X170000Y66000D02*
D03*
X176500Y84500D02*
D03*
X230000Y59900D02*
D03*
X243550Y88750D02*
D03*
X251000Y65500D02*
D03*
X140000Y248000D02*
D03*
X145500Y254500D02*
D03*
X94000Y229000D02*
D03*
X173000Y211500D02*
D03*
X87000Y257000D02*
D03*
X77000Y255000D02*
D03*
X90500Y239000D02*
D03*
X80500Y201700D02*
D03*
X135520Y262500D02*
D03*
X157000Y117000D02*
D03*
X164500Y110500D02*
D03*
X146500Y77000D02*
D03*
X145500Y85500D02*
D03*
X163793Y123683D02*
D03*
X91000Y64500D02*
D03*
X91500Y94500D02*
D03*
X47000Y155000D02*
D03*
X49000Y175500D02*
D03*
X97500Y198000D02*
D03*
X105500Y199200D02*
D03*
X351714Y88714D02*
D03*
X269800Y174800D02*
D03*
X114000Y150300D02*
D03*
X127000Y191100D02*
D03*
X166676Y188776D02*
D03*
X281900Y177200D02*
D03*
X212800Y225500D02*
D03*
X301000Y243200D02*
D03*
X159900Y59800D02*
D03*
X203321Y79521D02*
D03*
X68500Y54600D02*
D03*
X186100Y222600D02*
D03*
X183100Y201700D02*
D03*
X80300Y130000D02*
D03*
X70400Y120000D02*
D03*
X183700Y137800D02*
D03*
X180000Y256000D02*
D03*
X163600Y161800D02*
D03*
X381800Y239600D02*
D03*
X183000Y27100D02*
D03*
X201300Y117700D02*
D03*
X245700Y111100D02*
D03*
X415200Y100700D02*
D03*
X250677Y289500D02*
D03*
X546000Y317700D02*
D03*
X203400Y106700D02*
D03*
X169900Y157300D02*
D03*
X272700Y159400D02*
D03*
X63150Y113200D02*
D03*
X283600Y44000D02*
D03*
X167100Y180000D02*
D03*
X67800Y140000D02*
D03*
X194950Y205150D02*
D03*
X148800Y269000D02*
D03*
X339200Y130000D02*
D03*
X406000Y80500D02*
D03*
X319273Y50800D02*
D03*
X375300Y130000D02*
D03*
X232100Y246400D02*
D03*
X269200Y233600D02*
D03*
X203100Y135700D02*
D03*
X348000Y57200D02*
D03*
X221500Y279000D02*
D03*
X273500D02*
D03*
X270000Y270000D02*
D03*
X415000Y130000D02*
D03*
X105095Y58720D02*
D03*
Y88720D02*
D03*
X243994Y244800D02*
D03*
M02*
