G04*
G04 #@! TF.GenerationSoftware,Altium Limited,Altium Designer,22.3.1 (43)*
G04*
G04 Layer_Color=12632256*
%FSLAX25Y25*%
%MOIN*%
G70*
G04*
G04 #@! TF.SameCoordinates,6E346DA1-06B3-48DF-BE1B-420114EF1470*
G04*
G04*
G04 #@! TF.FilePolarity,Positive*
G04*
G01*
G75*
%ADD43C,0.20000*%
%ADD44R,0.05906X0.05906*%
%ADD45C,0.06000*%
%ADD46R,0.06000X0.06000*%
%ADD47C,0.05906*%
%ADD48R,0.05906X0.05906*%
D43*
X20000Y20000D02*
D03*
Y380000D02*
D03*
X540000D02*
D03*
Y20000D02*
D03*
D44*
X456500Y238000D02*
D03*
X444000D02*
D03*
X456500Y220500D02*
D03*
X444000D02*
D03*
X456500Y203000D02*
D03*
X444000D02*
D03*
X456500Y185500D02*
D03*
X444000D02*
D03*
X350000Y180000D02*
D03*
Y220000D02*
D03*
X90000Y175000D02*
D03*
X350000Y200000D02*
D03*
X251000Y205000D02*
D03*
X291000Y151000D02*
D03*
X260000Y118000D02*
D03*
D45*
X542000Y224000D02*
D03*
Y234000D02*
D03*
Y244000D02*
D03*
Y254000D02*
D03*
Y264000D02*
D03*
Y274000D02*
D03*
Y284000D02*
D03*
X532000Y224000D02*
D03*
Y234000D02*
D03*
Y244000D02*
D03*
Y254000D02*
D03*
Y264000D02*
D03*
Y274000D02*
D03*
X542000Y294000D02*
D03*
X532000Y284000D02*
D03*
X30000Y120000D02*
D03*
Y130000D02*
D03*
Y140000D02*
D03*
Y150000D02*
D03*
Y160000D02*
D03*
Y170000D02*
D03*
Y180000D02*
D03*
X20000Y120000D02*
D03*
Y130000D02*
D03*
Y140000D02*
D03*
Y150000D02*
D03*
Y160000D02*
D03*
Y170000D02*
D03*
X30000Y190000D02*
D03*
X20000Y180000D02*
D03*
D46*
X532000Y294000D02*
D03*
X20000Y190000D02*
D03*
D47*
X411500Y199000D02*
D03*
X401500D02*
D03*
X411500Y209000D02*
D03*
X401500D02*
D03*
X411500Y219000D02*
D03*
D48*
X401500D02*
D03*
M02*
