M48
;Layer_Color=9474304
;FILE_FORMAT=2:5
INCH,LZ
;TYPE=PLATED
T1F00S00C0.02800
T2F00S00C0.03150
T3F00S00C0.03543
T4F00S00C0.04000
T5F00S00C0.17000
%
T01
X0104Y012
X0109Y013
X011Y0141
X0103Y0146
Y0156
X0252Y0148
X028Y0121
Y011
Y01
X0265Y0104
Y0088
Y0079
X0286Y0074
X03Y0078
Y0087
Y0095
Y0111
X0224Y0105
X0218Y011
X0212Y0092
X0287Y0035
X0321Y0104
X0348Y011
X0345Y0151
X0431Y0125
X0448
X0452Y0102
X0432Y0085
X0511Y01
Y011
Y0125
X0515Y0161
X0494Y03
Y031
X0459Y0255
X0465Y0246
X0459Y0211
X0466Y0205
X022Y0192
X021Y0217
Y0228
X0194Y0234
X0177Y0228
X0172Y0217
X0163Y0212
Y0222
Y023
X0174Y0198
X0162Y0181
X0167Y0174
X0162Y0168
X0213Y0158
X0225Y0256
Y0266
X0183Y0274
X0179Y0293
X0168Y0284
X0138Y0273
X0143Y0261
Y023
Y0222
X0107Y0229
X0082Y0236
X0088Y0249
Y0258957
X0077Y0254
X0095Y027
X0128Y0292
X01395Y0181
X0146Y0174
X0141Y0168
X0156Y0163
X0103Y0165
X0111Y0181
X0079Y0179
Y016
X0076Y0348
X0086
X0096
X0106
X0116
X0126
X0136
X0146
X0154Y0322
X0164Y0348
X0179
X0193
X0208
X02205
X0245
X0269
X0281Y0334
X0269Y032
X0233Y0335
X022Y0323
X0203
X0491Y034
T02
X002Y012
X003
Y013
Y014
Y015
X002
Y014
Y013
Y016
X003
Y017
Y018
Y019
X002
Y018
Y017
T03
X0059Y0065
Y0085
X011Y009
X012
Y008
X011
Y007
X012
X013Y0148
X0165Y008
X0304Y0136
Y0154
X0384Y015
Y014
Y013
Y012
Y011
Y01
Y009
Y008
Y007
Y006
Y005
Y004
X0474
Y005
Y006
Y007
Y008
Y009
Y01
Y011
Y012
Y013
Y014
Y015
Y016
Y017
Y018
Y019
Y02
Y021
X0384
Y02
Y019
Y018
Y017
Y016
X0315Y023
Y025
Y027
X035063Y03
Y031
X039
Y03
X042063
Y031
X046
Y03
X0295Y028
Y026
Y024
X0304Y019
Y0172
X026Y0205
X0164Y024
Y026
X013Y0166
X0257Y0335
X035063Y033
Y032
Y034
Y035
X039
Y034
Y033
Y032
X042063
Y033
Y034
Y035
X046
Y034
Y033
Y032
T04
X053Y022
X054
Y023
X053
Y024
X054
Y025
X053
Y026
X054
Y027
X053
Y028
X054
Y029
X053
T05
X002Y002
X054
X002Y038
X054
M30
