G04*
G04 #@! TF.GenerationSoftware,Altium Limited,Altium Designer,22.3.1 (43)*
G04*
G04 Layer_Physical_Order=4*
G04 Layer_Color=16711680*
%FSLAX25Y25*%
%MOIN*%
G70*
G04*
G04 #@! TF.SameCoordinates,D3354991-DD5C-4E6D-8F59-54D9BE61E837*
G04*
G04*
G04 #@! TF.FilePolarity,Positive*
G04*
G01*
G75*
%ADD11C,0.01000*%
%ADD16R,0.03740X0.03150*%
%ADD18R,0.03150X0.03740*%
%ADD48C,0.20000*%
%ADD49R,0.05906X0.05906*%
%ADD50C,0.06000*%
%ADD51R,0.06000X0.06000*%
%ADD52C,0.05906*%
%ADD53R,0.05906X0.05906*%
%ADD54C,0.05000*%
G36*
X560000D02*
X0D01*
Y400000D01*
X560000D01*
Y0D01*
D02*
G37*
%LPC*%
G36*
X540826Y390500D02*
X539174D01*
X537541Y390242D01*
X535969Y389731D01*
X534497Y388980D01*
X533160Y388009D01*
X531991Y386840D01*
X531020Y385503D01*
X530269Y384031D01*
X529759Y382459D01*
X529500Y380826D01*
Y379174D01*
X529759Y377541D01*
X530269Y375969D01*
X531020Y374497D01*
X531991Y373160D01*
X533160Y371991D01*
X534497Y371020D01*
X535969Y370269D01*
X537541Y369759D01*
X539174Y369500D01*
X540826D01*
X542459Y369759D01*
X544031Y370269D01*
X545503Y371020D01*
X546840Y371991D01*
X548009Y373160D01*
X548980Y374497D01*
X549731Y375969D01*
X550242Y377541D01*
X550500Y379174D01*
Y380826D01*
X550242Y382459D01*
X549731Y384031D01*
X548980Y385503D01*
X548009Y386840D01*
X546840Y388009D01*
X545503Y388980D01*
X544031Y389731D01*
X542459Y390242D01*
X540826Y390500D01*
D02*
G37*
G36*
X20826D02*
X19174D01*
X17541Y390242D01*
X15969Y389731D01*
X14497Y388980D01*
X13160Y388009D01*
X11991Y386840D01*
X11020Y385503D01*
X10269Y384031D01*
X9759Y382459D01*
X9500Y380826D01*
Y379174D01*
X9759Y377541D01*
X10269Y375969D01*
X11020Y374497D01*
X11991Y373160D01*
X13160Y371991D01*
X14497Y371020D01*
X15969Y370269D01*
X17541Y369759D01*
X19174Y369500D01*
X20826D01*
X22459Y369759D01*
X24031Y370269D01*
X25503Y371020D01*
X26840Y371991D01*
X28009Y373160D01*
X28980Y374497D01*
X29731Y375969D01*
X30242Y377541D01*
X30500Y379174D01*
Y380826D01*
X30242Y382459D01*
X29731Y384031D01*
X28980Y385503D01*
X28009Y386840D01*
X26840Y388009D01*
X25503Y388980D01*
X24031Y389731D01*
X22459Y390242D01*
X20826Y390500D01*
D02*
G37*
G36*
X519000Y355020D02*
X498000D01*
X497610Y354942D01*
X497279Y354721D01*
X497058Y354390D01*
X497027Y354234D01*
X494235Y351442D01*
X490956Y354721D01*
X490625Y354942D01*
X490235Y355020D01*
X13000D01*
X12610Y354942D01*
X12279Y354721D01*
X9279Y351721D01*
X9058Y351390D01*
X8980Y351000D01*
Y180586D01*
X9058Y180196D01*
X9279Y179865D01*
X9865Y179279D01*
X10196Y179058D01*
X10586Y178980D01*
X16650D01*
X16738Y178649D01*
X17199Y177851D01*
X17851Y177199D01*
X18649Y176739D01*
X19539Y176500D01*
X20461D01*
X21351Y176739D01*
X22149Y177199D01*
X22801Y177851D01*
X23261Y178649D01*
X23500Y179539D01*
Y180461D01*
X23261Y181351D01*
X22801Y182149D01*
X22149Y182801D01*
X21351Y183262D01*
X20461Y183500D01*
X19539D01*
X18649Y183262D01*
X17851Y182801D01*
X17199Y182149D01*
X16738Y181351D01*
X16650Y181020D01*
X11020D01*
Y350578D01*
X13422Y352980D01*
X489812D01*
X493215Y349578D01*
Y335370D01*
X488370D01*
Y336425D01*
X483630D01*
Y332276D01*
X488370D01*
Y333331D01*
X493649D01*
X494039Y333408D01*
X494370Y333629D01*
X494956Y334215D01*
X495177Y334546D01*
X495254Y334936D01*
Y349578D01*
X498657Y352980D01*
X518578D01*
X519980Y351578D01*
Y344453D01*
X517547D01*
Y337547D01*
X524453D01*
Y344453D01*
X522020D01*
Y352000D01*
X521942Y352390D01*
X521721Y352721D01*
X519721Y354721D01*
X519390Y354942D01*
X519000Y355020D01*
D02*
G37*
G36*
X504395Y350000D02*
X503605D01*
X502842Y349796D01*
X502158Y349401D01*
X501599Y348842D01*
X501204Y348158D01*
X501000Y347395D01*
Y346605D01*
X501204Y345842D01*
X501599Y345158D01*
X502158Y344599D01*
X502842Y344204D01*
X502980Y344167D01*
Y342724D01*
X501630D01*
Y338575D01*
X506370D01*
Y342724D01*
X505020D01*
Y344167D01*
X505158Y344204D01*
X505842Y344599D01*
X506401Y345158D01*
X506796Y345842D01*
X507000Y346605D01*
Y347395D01*
X506796Y348158D01*
X506401Y348842D01*
X505842Y349401D01*
X505158Y349796D01*
X504395Y350000D01*
D02*
G37*
G36*
X486395D02*
X485605D01*
X484842Y349796D01*
X484158Y349401D01*
X483599Y348842D01*
X483204Y348158D01*
X483000Y347395D01*
Y346605D01*
X483204Y345842D01*
X483599Y345158D01*
X484158Y344599D01*
X484842Y344204D01*
X484980Y344167D01*
Y342724D01*
X483630D01*
Y338575D01*
X488370D01*
Y342724D01*
X487020D01*
Y344167D01*
X487158Y344204D01*
X487842Y344599D01*
X488401Y345158D01*
X488796Y345842D01*
X489000Y346605D01*
Y347395D01*
X488796Y348158D01*
X488401Y348842D01*
X487842Y349401D01*
X487158Y349796D01*
X486395Y350000D01*
D02*
G37*
G36*
X466395D02*
X465605D01*
X464842Y349796D01*
X464158Y349401D01*
X463599Y348842D01*
X463204Y348158D01*
X463000Y347395D01*
Y346605D01*
X463204Y345842D01*
X463599Y345158D01*
X464158Y344599D01*
X464842Y344204D01*
X464980Y344167D01*
Y342724D01*
X463630D01*
Y338575D01*
X468370D01*
Y342724D01*
X467020D01*
Y344167D01*
X467158Y344204D01*
X467842Y344599D01*
X468401Y345158D01*
X468796Y345842D01*
X469000Y346605D01*
Y347395D01*
X468796Y348158D01*
X468401Y348842D01*
X467842Y349401D01*
X467158Y349796D01*
X466395Y350000D01*
D02*
G37*
G36*
X446395D02*
X445605D01*
X444842Y349796D01*
X444158Y349401D01*
X443599Y348842D01*
X443204Y348158D01*
X443000Y347395D01*
Y346605D01*
X443204Y345842D01*
X443599Y345158D01*
X444158Y344599D01*
X444842Y344204D01*
X444980Y344167D01*
Y342724D01*
X443630D01*
Y338575D01*
X448370D01*
Y342724D01*
X447020D01*
Y344167D01*
X447158Y344204D01*
X447842Y344599D01*
X448401Y345158D01*
X448796Y345842D01*
X449000Y346605D01*
Y347395D01*
X448796Y348158D01*
X448401Y348842D01*
X447842Y349401D01*
X447158Y349796D01*
X446395Y350000D01*
D02*
G37*
G36*
X432395D02*
X431605D01*
X430842Y349796D01*
X430158Y349401D01*
X429599Y348842D01*
X429204Y348158D01*
X429000Y347395D01*
Y346605D01*
X429204Y345842D01*
X429599Y345158D01*
X430158Y344599D01*
X430842Y344204D01*
X430980Y344167D01*
Y342724D01*
X429630D01*
Y338575D01*
X434370D01*
Y342724D01*
X433020D01*
Y344167D01*
X433158Y344204D01*
X433842Y344599D01*
X434401Y345158D01*
X434796Y345842D01*
X435000Y346605D01*
Y347395D01*
X434796Y348158D01*
X434401Y348842D01*
X433842Y349401D01*
X433158Y349796D01*
X432395Y350000D01*
D02*
G37*
G36*
X417395D02*
X416605D01*
X415842Y349796D01*
X415158Y349401D01*
X414599Y348842D01*
X414204Y348158D01*
X414000Y347395D01*
Y346605D01*
X414204Y345842D01*
X414599Y345158D01*
X415158Y344599D01*
X415842Y344204D01*
X415980Y344167D01*
Y342724D01*
X414630D01*
Y338575D01*
X419370D01*
Y342724D01*
X418020D01*
Y344167D01*
X418158Y344204D01*
X418842Y344599D01*
X419401Y345158D01*
X419796Y345842D01*
X420000Y346605D01*
Y347395D01*
X419796Y348158D01*
X419401Y348842D01*
X418842Y349401D01*
X418158Y349796D01*
X417395Y350000D01*
D02*
G37*
G36*
X402395D02*
X401605D01*
X400842Y349796D01*
X400158Y349401D01*
X399599Y348842D01*
X399204Y348158D01*
X399000Y347395D01*
Y346605D01*
X399204Y345842D01*
X399599Y345158D01*
X400158Y344599D01*
X400842Y344204D01*
X400980Y344167D01*
Y342724D01*
X399630D01*
Y338575D01*
X404370D01*
Y342724D01*
X403020D01*
Y344167D01*
X403158Y344204D01*
X403842Y344599D01*
X404401Y345158D01*
X404796Y345842D01*
X405000Y346605D01*
Y347395D01*
X404796Y348158D01*
X404401Y348842D01*
X403842Y349401D01*
X403158Y349796D01*
X402395Y350000D01*
D02*
G37*
G36*
X385395D02*
X384605D01*
X383842Y349796D01*
X383158Y349401D01*
X382599Y348842D01*
X382204Y348158D01*
X382000Y347395D01*
Y346605D01*
X382204Y345842D01*
X382599Y345158D01*
X383158Y344599D01*
X383842Y344204D01*
X383980Y344167D01*
Y342724D01*
X382630D01*
Y338575D01*
X387370D01*
Y342724D01*
X386020D01*
Y344167D01*
X386158Y344204D01*
X386842Y344599D01*
X387401Y345158D01*
X387796Y345842D01*
X388000Y346605D01*
Y347395D01*
X387796Y348158D01*
X387401Y348842D01*
X386842Y349401D01*
X386158Y349796D01*
X385395Y350000D01*
D02*
G37*
G36*
X370395D02*
X369605D01*
X368842Y349796D01*
X368158Y349401D01*
X367599Y348842D01*
X367204Y348158D01*
X367000Y347395D01*
Y346605D01*
X367204Y345842D01*
X367599Y345158D01*
X368158Y344599D01*
X368842Y344204D01*
X368980Y344167D01*
Y342724D01*
X367630D01*
Y338575D01*
X372370D01*
Y342724D01*
X371020D01*
Y344167D01*
X371158Y344204D01*
X371842Y344599D01*
X372401Y345158D01*
X372796Y345842D01*
X373000Y346605D01*
Y347395D01*
X372796Y348158D01*
X372401Y348842D01*
X371842Y349401D01*
X371158Y349796D01*
X370395Y350000D01*
D02*
G37*
G36*
X356395D02*
X355605D01*
X354842Y349796D01*
X354158Y349401D01*
X353599Y348842D01*
X353204Y348158D01*
X353000Y347395D01*
Y346605D01*
X353204Y345842D01*
X353599Y345158D01*
X354158Y344599D01*
X354842Y344204D01*
X354980Y344167D01*
Y342724D01*
X353630D01*
Y338575D01*
X358370D01*
Y342724D01*
X357020D01*
Y344167D01*
X357158Y344204D01*
X357842Y344599D01*
X358401Y345158D01*
X358796Y345842D01*
X359000Y346605D01*
Y347395D01*
X358796Y348158D01*
X358401Y348842D01*
X357842Y349401D01*
X357158Y349796D01*
X356395Y350000D01*
D02*
G37*
G36*
X341395D02*
X340605D01*
X339842Y349796D01*
X339158Y349401D01*
X338599Y348842D01*
X338204Y348158D01*
X338000Y347395D01*
Y346605D01*
X338204Y345842D01*
X338599Y345158D01*
X339158Y344599D01*
X339842Y344204D01*
X339980Y344167D01*
Y342724D01*
X338630D01*
Y338575D01*
X343370D01*
Y342724D01*
X342020D01*
Y344167D01*
X342158Y344204D01*
X342842Y344599D01*
X343401Y345158D01*
X343796Y345842D01*
X344000Y346605D01*
Y347395D01*
X343796Y348158D01*
X343401Y348842D01*
X342842Y349401D01*
X342158Y349796D01*
X341395Y350000D01*
D02*
G37*
G36*
X316395D02*
X315605D01*
X314842Y349796D01*
X314158Y349401D01*
X313599Y348842D01*
X313204Y348158D01*
X313000Y347395D01*
Y346605D01*
X313204Y345842D01*
X313599Y345158D01*
X314158Y344599D01*
X314842Y344204D01*
X314980Y344167D01*
Y342724D01*
X313630D01*
Y338575D01*
X318370D01*
Y342724D01*
X317020D01*
Y344167D01*
X317158Y344204D01*
X317842Y344599D01*
X318401Y345158D01*
X318796Y345842D01*
X319000Y346605D01*
Y347395D01*
X318796Y348158D01*
X318401Y348842D01*
X317842Y349401D01*
X317158Y349796D01*
X316395Y350000D01*
D02*
G37*
G36*
X295395D02*
X294605D01*
X293842Y349796D01*
X293158Y349401D01*
X292599Y348842D01*
X292204Y348158D01*
X292000Y347395D01*
Y346605D01*
X292204Y345842D01*
X292599Y345158D01*
X293158Y344599D01*
X293842Y344204D01*
X293980Y344167D01*
Y342724D01*
X292630D01*
Y338575D01*
X297370D01*
Y342724D01*
X296020D01*
Y344167D01*
X296158Y344204D01*
X296842Y344599D01*
X297401Y345158D01*
X297796Y345842D01*
X298000Y346605D01*
Y347395D01*
X297796Y348158D01*
X297401Y348842D01*
X296842Y349401D01*
X296158Y349796D01*
X295395Y350000D01*
D02*
G37*
G36*
X273395D02*
X272605D01*
X271842Y349796D01*
X271158Y349401D01*
X270599Y348842D01*
X270204Y348158D01*
X270000Y347395D01*
Y346605D01*
X270204Y345842D01*
X270599Y345158D01*
X271158Y344599D01*
X271842Y344204D01*
X271980Y344167D01*
Y342724D01*
X270630D01*
Y338575D01*
X275370D01*
Y342724D01*
X274020D01*
Y344167D01*
X274158Y344204D01*
X274842Y344599D01*
X275401Y345158D01*
X275796Y345842D01*
X276000Y346605D01*
Y347395D01*
X275796Y348158D01*
X275401Y348842D01*
X274842Y349401D01*
X274158Y349796D01*
X273395Y350000D01*
D02*
G37*
G36*
X257395D02*
X256605D01*
X255842Y349796D01*
X255158Y349401D01*
X254599Y348842D01*
X254204Y348158D01*
X254000Y347395D01*
Y346605D01*
X254204Y345842D01*
X254599Y345158D01*
X255158Y344599D01*
X255842Y344204D01*
X255980Y344167D01*
Y342724D01*
X254630D01*
Y338575D01*
X259370D01*
Y342724D01*
X258020D01*
Y344167D01*
X258158Y344204D01*
X258842Y344599D01*
X259401Y345158D01*
X259796Y345842D01*
X260000Y346605D01*
Y347395D01*
X259796Y348158D01*
X259401Y348842D01*
X258842Y349401D01*
X258158Y349796D01*
X257395Y350000D01*
D02*
G37*
G36*
X241395D02*
X240605D01*
X239842Y349796D01*
X239158Y349401D01*
X238599Y348842D01*
X238204Y348158D01*
X238000Y347395D01*
Y346605D01*
X238204Y345842D01*
X238599Y345158D01*
X239158Y344599D01*
X239842Y344204D01*
X239980Y344167D01*
Y342724D01*
X238630D01*
Y338575D01*
X243370D01*
Y342724D01*
X242020D01*
Y344167D01*
X242158Y344204D01*
X242842Y344599D01*
X243401Y345158D01*
X243796Y345842D01*
X244000Y346605D01*
Y347395D01*
X243796Y348158D01*
X243401Y348842D01*
X242842Y349401D01*
X242158Y349796D01*
X241395Y350000D01*
D02*
G37*
G36*
X221395D02*
X220605D01*
X219842Y349796D01*
X219158Y349401D01*
X218599Y348842D01*
X218204Y348158D01*
X218000Y347395D01*
Y346605D01*
X218204Y345842D01*
X218599Y345158D01*
X219158Y344599D01*
X219842Y344204D01*
X219980Y344167D01*
Y342724D01*
X218630D01*
Y338575D01*
X223370D01*
Y342724D01*
X222020D01*
Y344167D01*
X222158Y344204D01*
X222842Y344599D01*
X223401Y345158D01*
X223796Y345842D01*
X224000Y346605D01*
Y347395D01*
X223796Y348158D01*
X223401Y348842D01*
X222842Y349401D01*
X222158Y349796D01*
X221395Y350000D01*
D02*
G37*
G36*
X209395D02*
X208605D01*
X207842Y349796D01*
X207158Y349401D01*
X206599Y348842D01*
X206204Y348158D01*
X206000Y347395D01*
Y346605D01*
X206204Y345842D01*
X206599Y345158D01*
X207158Y344599D01*
X207842Y344204D01*
X207980Y344167D01*
Y342724D01*
X206630D01*
Y338575D01*
X211370D01*
Y342724D01*
X210020D01*
Y344167D01*
X210158Y344204D01*
X210842Y344599D01*
X211401Y345158D01*
X211796Y345842D01*
X212000Y346605D01*
Y347395D01*
X211796Y348158D01*
X211401Y348842D01*
X210842Y349401D01*
X210158Y349796D01*
X209395Y350000D01*
D02*
G37*
G36*
X193395D02*
X192605D01*
X191842Y349796D01*
X191158Y349401D01*
X190599Y348842D01*
X190204Y348158D01*
X190000Y347395D01*
Y346605D01*
X190204Y345842D01*
X190599Y345158D01*
X191158Y344599D01*
X191842Y344204D01*
X191980Y344167D01*
Y342724D01*
X190630D01*
Y338575D01*
X195370D01*
Y342724D01*
X194020D01*
Y344167D01*
X194158Y344204D01*
X194842Y344599D01*
X195401Y345158D01*
X195796Y345842D01*
X196000Y346605D01*
Y347395D01*
X195796Y348158D01*
X195401Y348842D01*
X194842Y349401D01*
X194158Y349796D01*
X193395Y350000D01*
D02*
G37*
G36*
X178395D02*
X177605D01*
X176842Y349796D01*
X176158Y349401D01*
X175599Y348842D01*
X175204Y348158D01*
X175000Y347395D01*
Y346605D01*
X175204Y345842D01*
X175599Y345158D01*
X176158Y344599D01*
X176842Y344204D01*
X176980Y344167D01*
Y342724D01*
X175630D01*
Y338575D01*
X180370D01*
Y342724D01*
X179020D01*
Y344167D01*
X179158Y344204D01*
X179842Y344599D01*
X180401Y345158D01*
X180796Y345842D01*
X181000Y346605D01*
Y347395D01*
X180796Y348158D01*
X180401Y348842D01*
X179842Y349401D01*
X179158Y349796D01*
X178395Y350000D01*
D02*
G37*
G36*
X164395D02*
X163605D01*
X162842Y349796D01*
X162158Y349401D01*
X161599Y348842D01*
X161204Y348158D01*
X161000Y347395D01*
Y346605D01*
X161204Y345842D01*
X161599Y345158D01*
X162158Y344599D01*
X162842Y344204D01*
X162980Y344167D01*
Y342724D01*
X161630D01*
Y338575D01*
X166370D01*
Y342724D01*
X165020D01*
Y344167D01*
X165158Y344204D01*
X165842Y344599D01*
X166401Y345158D01*
X166796Y345842D01*
X167000Y346605D01*
Y347395D01*
X166796Y348158D01*
X166401Y348842D01*
X165842Y349401D01*
X165158Y349796D01*
X164395Y350000D01*
D02*
G37*
G36*
X147395D02*
X146605D01*
X145842Y349796D01*
X145158Y349401D01*
X144599Y348842D01*
X144204Y348158D01*
X144000Y347395D01*
Y346605D01*
X144204Y345842D01*
X144599Y345158D01*
X145158Y344599D01*
X145842Y344204D01*
X145980Y344167D01*
Y342724D01*
X144630D01*
Y338575D01*
X149370D01*
Y342724D01*
X148020D01*
Y344167D01*
X148158Y344204D01*
X148842Y344599D01*
X149401Y345158D01*
X149796Y345842D01*
X150000Y346605D01*
Y347395D01*
X149796Y348158D01*
X149401Y348842D01*
X148842Y349401D01*
X148158Y349796D01*
X147395Y350000D01*
D02*
G37*
G36*
X137395D02*
X136605D01*
X135842Y349796D01*
X135158Y349401D01*
X134599Y348842D01*
X134204Y348158D01*
X134000Y347395D01*
Y346605D01*
X134204Y345842D01*
X134599Y345158D01*
X135158Y344599D01*
X135842Y344204D01*
X135980Y344167D01*
Y342724D01*
X134630D01*
Y338575D01*
X139370D01*
Y342724D01*
X138020D01*
Y344167D01*
X138158Y344204D01*
X138842Y344599D01*
X139401Y345158D01*
X139796Y345842D01*
X140000Y346605D01*
Y347395D01*
X139796Y348158D01*
X139401Y348842D01*
X138842Y349401D01*
X138158Y349796D01*
X137395Y350000D01*
D02*
G37*
G36*
X127395D02*
X126605D01*
X125842Y349796D01*
X125158Y349401D01*
X124599Y348842D01*
X124204Y348158D01*
X124000Y347395D01*
Y346605D01*
X124204Y345842D01*
X124599Y345158D01*
X125158Y344599D01*
X125842Y344204D01*
X125980Y344167D01*
Y342724D01*
X124630D01*
Y338575D01*
X129370D01*
Y342724D01*
X128020D01*
Y344167D01*
X128158Y344204D01*
X128842Y344599D01*
X129401Y345158D01*
X129796Y345842D01*
X130000Y346605D01*
Y347395D01*
X129796Y348158D01*
X129401Y348842D01*
X128842Y349401D01*
X128158Y349796D01*
X127395Y350000D01*
D02*
G37*
G36*
X117395D02*
X116605D01*
X115842Y349796D01*
X115158Y349401D01*
X114599Y348842D01*
X114204Y348158D01*
X114000Y347395D01*
Y346605D01*
X114204Y345842D01*
X114599Y345158D01*
X115158Y344599D01*
X115842Y344204D01*
X115980Y344167D01*
Y342724D01*
X114630D01*
Y338575D01*
X119370D01*
Y342724D01*
X118020D01*
Y344167D01*
X118158Y344204D01*
X118842Y344599D01*
X119401Y345158D01*
X119796Y345842D01*
X120000Y346605D01*
Y347395D01*
X119796Y348158D01*
X119401Y348842D01*
X118842Y349401D01*
X118158Y349796D01*
X117395Y350000D01*
D02*
G37*
G36*
X107395D02*
X106605D01*
X105842Y349796D01*
X105158Y349401D01*
X104599Y348842D01*
X104204Y348158D01*
X104000Y347395D01*
Y346605D01*
X104204Y345842D01*
X104599Y345158D01*
X105158Y344599D01*
X105842Y344204D01*
X105980Y344167D01*
Y342724D01*
X104630D01*
Y338575D01*
X109370D01*
Y342724D01*
X108020D01*
Y344167D01*
X108158Y344204D01*
X108842Y344599D01*
X109401Y345158D01*
X109796Y345842D01*
X110000Y346605D01*
Y347395D01*
X109796Y348158D01*
X109401Y348842D01*
X108842Y349401D01*
X108158Y349796D01*
X107395Y350000D01*
D02*
G37*
G36*
X97395D02*
X96605D01*
X95842Y349796D01*
X95158Y349401D01*
X94599Y348842D01*
X94204Y348158D01*
X94000Y347395D01*
Y346605D01*
X94204Y345842D01*
X94599Y345158D01*
X95158Y344599D01*
X95842Y344204D01*
X95980Y344167D01*
Y342724D01*
X94630D01*
Y338575D01*
X99370D01*
Y342724D01*
X98020D01*
Y344167D01*
X98158Y344204D01*
X98842Y344599D01*
X99401Y345158D01*
X99796Y345842D01*
X100000Y346605D01*
Y347395D01*
X99796Y348158D01*
X99401Y348842D01*
X98842Y349401D01*
X98158Y349796D01*
X97395Y350000D01*
D02*
G37*
G36*
X87395D02*
X86605D01*
X85842Y349796D01*
X85158Y349401D01*
X84599Y348842D01*
X84204Y348158D01*
X84000Y347395D01*
Y346605D01*
X84204Y345842D01*
X84599Y345158D01*
X85158Y344599D01*
X85842Y344204D01*
X85980Y344167D01*
Y342724D01*
X84630D01*
Y338575D01*
X89370D01*
Y342724D01*
X88020D01*
Y344167D01*
X88158Y344204D01*
X88842Y344599D01*
X89401Y345158D01*
X89796Y345842D01*
X90000Y346605D01*
Y347395D01*
X89796Y348158D01*
X89401Y348842D01*
X88842Y349401D01*
X88158Y349796D01*
X87395Y350000D01*
D02*
G37*
G36*
X77795D02*
X77005D01*
X76242Y349796D01*
X75558Y349401D01*
X74999Y348842D01*
X74604Y348158D01*
X74400Y347395D01*
Y346605D01*
X74604Y345842D01*
X74999Y345158D01*
X75558Y344599D01*
X75980Y344356D01*
Y342724D01*
X74630D01*
Y338575D01*
X79370D01*
Y342724D01*
X78020D01*
Y344060D01*
X78558Y344204D01*
X79242Y344599D01*
X79801Y345158D01*
X80196Y345842D01*
X80400Y346605D01*
Y347395D01*
X80196Y348158D01*
X79801Y348842D01*
X79242Y349401D01*
X78558Y349796D01*
X77795Y350000D01*
D02*
G37*
G36*
X284395Y338000D02*
X283605D01*
X282842Y337796D01*
X282158Y337401D01*
X281599Y336842D01*
X281204Y336158D01*
X281000Y335395D01*
Y335370D01*
X275370D01*
Y336425D01*
X270630D01*
Y335370D01*
X259370D01*
Y336425D01*
X254630D01*
Y335370D01*
X243370D01*
Y336425D01*
X238630D01*
Y335370D01*
X223370D01*
Y336425D01*
X218630D01*
Y335370D01*
X211370D01*
Y336425D01*
X206630D01*
Y335370D01*
X195370D01*
Y336425D01*
X190630D01*
Y335370D01*
X180370D01*
Y336425D01*
X175630D01*
Y335370D01*
X166370D01*
Y336425D01*
X161630D01*
Y332276D01*
X166370D01*
Y333331D01*
X175630D01*
Y332276D01*
X180370D01*
Y333331D01*
X190630D01*
Y332276D01*
X195370D01*
Y333331D01*
X206630D01*
Y332276D01*
X211370D01*
Y333331D01*
X218630D01*
Y332276D01*
X223370D01*
Y333331D01*
X238630D01*
Y332276D01*
X243370D01*
Y333331D01*
X254630D01*
Y332276D01*
X259370D01*
Y333331D01*
X270630D01*
Y332276D01*
X275370D01*
Y333331D01*
X281500D01*
X281599Y333158D01*
X282158Y332599D01*
X282842Y332204D01*
X283605Y332000D01*
X284395D01*
X285158Y332204D01*
X285842Y332599D01*
X286401Y333158D01*
X286500Y333331D01*
X292630D01*
Y332276D01*
X297370D01*
Y336425D01*
X292630D01*
Y335370D01*
X287000D01*
Y335395D01*
X286796Y336158D01*
X286401Y336842D01*
X285842Y337401D01*
X285158Y337796D01*
X284395Y338000D01*
D02*
G37*
G36*
X330395D02*
X329605D01*
X328842Y337796D01*
X328158Y337401D01*
X327599Y336842D01*
X327204Y336158D01*
X327000Y335395D01*
Y334605D01*
X327204Y333842D01*
X327599Y333158D01*
X328158Y332599D01*
X328842Y332204D01*
X329605Y332000D01*
X330395D01*
X331158Y332204D01*
X331842Y332599D01*
X332401Y333158D01*
X332500Y333331D01*
X338630D01*
Y332276D01*
X343370D01*
Y333331D01*
X353630D01*
Y332276D01*
X358370D01*
Y333331D01*
X367630D01*
Y332276D01*
X372370D01*
Y333331D01*
X382630D01*
Y332276D01*
X387370D01*
Y333331D01*
X399630D01*
Y332276D01*
X404370D01*
Y333331D01*
X414630D01*
Y332276D01*
X419370D01*
Y333331D01*
X429630D01*
Y332276D01*
X434370D01*
Y333331D01*
X443630D01*
Y332276D01*
X448370D01*
Y333331D01*
X463630D01*
Y332276D01*
X468370D01*
Y336425D01*
X463630D01*
Y335370D01*
X448370D01*
Y336425D01*
X443630D01*
Y335370D01*
X434370D01*
Y336425D01*
X429630D01*
Y335370D01*
X419370D01*
Y336425D01*
X414630D01*
Y335370D01*
X404370D01*
Y336425D01*
X399630D01*
Y335370D01*
X387370D01*
Y336425D01*
X382630D01*
Y335370D01*
X372370D01*
Y336425D01*
X367630D01*
Y335370D01*
X358370D01*
Y336425D01*
X353630D01*
Y335370D01*
X343370D01*
Y336425D01*
X338630D01*
Y335370D01*
X333000D01*
Y335395D01*
X332796Y336158D01*
X332401Y336842D01*
X331842Y337401D01*
X331158Y337796D01*
X330395Y338000D01*
D02*
G37*
G36*
X307395D02*
X306605D01*
X305842Y337796D01*
X305158Y337401D01*
X304599Y336842D01*
X304204Y336158D01*
X304000Y335395D01*
Y334605D01*
X304204Y333842D01*
X304599Y333158D01*
X305158Y332599D01*
X305842Y332204D01*
X306605Y332000D01*
X307395D01*
X308158Y332204D01*
X308842Y332599D01*
X309401Y333158D01*
X309500Y333331D01*
X313630D01*
Y332276D01*
X318370D01*
Y336425D01*
X313630D01*
Y335370D01*
X310000D01*
Y335395D01*
X309796Y336158D01*
X309401Y336842D01*
X308842Y337401D01*
X308158Y337796D01*
X307395Y338000D01*
D02*
G37*
G36*
X67745Y337350D02*
X66955D01*
X66192Y337146D01*
X65508Y336751D01*
X64950Y336192D01*
X64555Y335508D01*
X64350Y334745D01*
Y333955D01*
X64555Y333192D01*
X64950Y332508D01*
X65508Y331950D01*
X66192Y331555D01*
X66955Y331350D01*
X67745D01*
X68508Y331555D01*
X69192Y331950D01*
X69751Y332508D01*
X70146Y333192D01*
X70183Y333331D01*
X74630D01*
Y332276D01*
X79370D01*
Y333331D01*
X84630D01*
Y332276D01*
X89370D01*
Y333331D01*
X94630D01*
Y332276D01*
X99370D01*
Y333331D01*
X104630D01*
Y332276D01*
X109370D01*
Y333331D01*
X114630D01*
Y332276D01*
X119370D01*
Y333331D01*
X124630D01*
Y332276D01*
X129370D01*
Y333331D01*
X134630D01*
Y332276D01*
X139370D01*
Y333331D01*
X144630D01*
Y332276D01*
X149370D01*
Y336425D01*
X144630D01*
Y335370D01*
X139370D01*
Y336425D01*
X134630D01*
Y335370D01*
X129370D01*
Y336425D01*
X124630D01*
Y335370D01*
X119370D01*
Y336425D01*
X114630D01*
Y335370D01*
X109370D01*
Y336425D01*
X104630D01*
Y335370D01*
X99370D01*
Y336425D01*
X94630D01*
Y335370D01*
X89370D01*
Y336425D01*
X84630D01*
Y335370D01*
X79370D01*
Y336425D01*
X74630D01*
Y335370D01*
X70183D01*
X70146Y335508D01*
X69751Y336192D01*
X69192Y336751D01*
X68508Y337146D01*
X67745Y337350D01*
D02*
G37*
G36*
X506370Y336425D02*
X501630D01*
Y332276D01*
X502980D01*
Y326833D01*
X502842Y326796D01*
X502158Y326401D01*
X501599Y325842D01*
X501204Y325158D01*
X501000Y324395D01*
Y323605D01*
X501204Y322842D01*
X501599Y322158D01*
X502158Y321599D01*
X502842Y321204D01*
X503605Y321000D01*
X504395D01*
X505158Y321204D01*
X505842Y321599D01*
X506401Y322158D01*
X506796Y322842D01*
X507000Y323605D01*
Y324395D01*
X506796Y325158D01*
X506401Y325842D01*
X505842Y326401D01*
X505158Y326796D01*
X505020Y326833D01*
Y332276D01*
X506370D01*
Y336425D01*
D02*
G37*
G36*
X486395Y327000D02*
X485605D01*
X484842Y326796D01*
X484158Y326401D01*
X483599Y325842D01*
X483204Y325158D01*
X483000Y324395D01*
Y323605D01*
X483204Y322842D01*
X483599Y322158D01*
X484158Y321599D01*
X484842Y321204D01*
X485605Y321000D01*
X486395D01*
X487158Y321204D01*
X487842Y321599D01*
X488401Y322158D01*
X488796Y322842D01*
X489000Y323605D01*
Y324395D01*
X488796Y325158D01*
X488401Y325842D01*
X487842Y326401D01*
X487158Y326796D01*
X486395Y327000D01*
D02*
G37*
G36*
X369414Y326020D02*
X352586D01*
X352196Y325942D01*
X351865Y325721D01*
X344433Y318289D01*
X343985Y318548D01*
X344000Y318605D01*
Y319395D01*
X343796Y320158D01*
X343401Y320842D01*
X342842Y321401D01*
X342158Y321796D01*
X342020Y321833D01*
Y324414D01*
X341942Y324804D01*
X341721Y325135D01*
X341135Y325721D01*
X340804Y325942D01*
X340414Y326020D01*
X287000D01*
X286610Y325942D01*
X286279Y325721D01*
X281279Y320721D01*
X281058Y320390D01*
X280980Y320000D01*
Y202020D01*
X272586D01*
X272196Y201942D01*
X271865Y201721D01*
X271279Y201135D01*
X271058Y200804D01*
X270980Y200414D01*
Y154020D01*
X254833D01*
X254796Y154158D01*
X254401Y154842D01*
X253842Y155401D01*
X253158Y155796D01*
X252395Y156000D01*
X251605D01*
X250842Y155796D01*
X250158Y155401D01*
X249599Y154842D01*
X249204Y154158D01*
X249000Y153395D01*
Y152605D01*
X249204Y151842D01*
X249599Y151158D01*
X250158Y150599D01*
X250842Y150204D01*
X251605Y150000D01*
X252395D01*
X253158Y150204D01*
X253842Y150599D01*
X254401Y151158D01*
X254796Y151842D01*
X254833Y151980D01*
X271414D01*
X271804Y152058D01*
X272135Y152279D01*
X272480Y152624D01*
X272980Y152417D01*
Y151422D01*
X269578Y148020D01*
X261833D01*
X261796Y148158D01*
X261401Y148842D01*
X260842Y149401D01*
X260158Y149796D01*
X259395Y150000D01*
X258605D01*
X257842Y149796D01*
X257158Y149401D01*
X256599Y148842D01*
X256204Y148158D01*
X256000Y147395D01*
Y146605D01*
X256204Y145842D01*
X256599Y145158D01*
X257158Y144599D01*
X257842Y144204D01*
X258605Y144000D01*
X259395D01*
X260158Y144204D01*
X260842Y144599D01*
X261401Y145158D01*
X261796Y145842D01*
X261833Y145980D01*
X270000D01*
X270390Y146058D01*
X270721Y146279D01*
X274480Y150039D01*
X274980Y149831D01*
Y148422D01*
X268578Y142020D01*
X254833D01*
X254796Y142158D01*
X254401Y142842D01*
X253842Y143401D01*
X253158Y143796D01*
X252395Y144000D01*
X251605D01*
X250842Y143796D01*
X250158Y143401D01*
X249599Y142842D01*
X249204Y142158D01*
X249000Y141395D01*
Y140605D01*
X249204Y139842D01*
X249599Y139158D01*
X250158Y138599D01*
X250842Y138204D01*
X251605Y138000D01*
X251980D01*
Y100833D01*
X251842Y100796D01*
X251158Y100401D01*
X250599Y99842D01*
X250204Y99158D01*
X250000Y98395D01*
Y97605D01*
X250204Y96842D01*
X250599Y96158D01*
X251158Y95599D01*
X251842Y95204D01*
X252605Y95000D01*
X253395D01*
X254158Y95204D01*
X254842Y95599D01*
X255401Y96158D01*
X255796Y96842D01*
X256000Y97605D01*
Y98395D01*
X255796Y99158D01*
X255401Y99842D01*
X254842Y100401D01*
X254158Y100796D01*
X254020Y100833D01*
Y138414D01*
X253959Y138717D01*
X254401Y139158D01*
X254796Y139842D01*
X254833Y139980D01*
X269000D01*
X269390Y140058D01*
X269721Y140279D01*
X276019Y146576D01*
X276480Y146385D01*
Y133922D01*
X263282Y120724D01*
X263158Y120796D01*
X262395Y121000D01*
X261605D01*
X260842Y120796D01*
X260158Y120401D01*
X259599Y119842D01*
X259204Y119158D01*
X259000Y118395D01*
Y117605D01*
X259204Y116842D01*
X259599Y116158D01*
X260158Y115599D01*
X260842Y115204D01*
X261605Y115000D01*
X262395D01*
X263158Y115204D01*
X263842Y115599D01*
X264401Y116158D01*
X264796Y116842D01*
X265000Y117605D01*
Y118395D01*
X264796Y119158D01*
X264724Y119282D01*
X278221Y132779D01*
X278442Y133110D01*
X278520Y133500D01*
Y152531D01*
X279020Y152738D01*
X279158Y152599D01*
X279842Y152204D01*
X279980Y152167D01*
Y125422D01*
X269524Y114965D01*
X269395Y115000D01*
X268605D01*
X267842Y114796D01*
X267158Y114401D01*
X266599Y113842D01*
X266204Y113158D01*
X266000Y112395D01*
Y111605D01*
X266204Y110842D01*
X266599Y110158D01*
X267158Y109599D01*
X267842Y109204D01*
X268605Y109000D01*
X269395D01*
X270158Y109204D01*
X270842Y109599D01*
X271401Y110158D01*
X271796Y110842D01*
X272000Y111605D01*
Y112395D01*
X271796Y113158D01*
X271401Y113842D01*
X271342Y113900D01*
X281721Y124279D01*
X281942Y124610D01*
X282020Y125000D01*
Y152167D01*
X282158Y152204D01*
X282842Y152599D01*
X283401Y153158D01*
X283796Y153842D01*
X283833Y153980D01*
X323000D01*
X323390Y154058D01*
X323480Y154118D01*
X323980Y153851D01*
Y125422D01*
X323578Y125020D01*
X311000D01*
Y125395D01*
X310796Y126158D01*
X310401Y126842D01*
X309842Y127401D01*
X309158Y127796D01*
X308395Y128000D01*
X307605D01*
X306842Y127796D01*
X306158Y127401D01*
X305599Y126842D01*
X305204Y126158D01*
X305000Y125395D01*
Y124605D01*
X305204Y123842D01*
X305599Y123158D01*
X306158Y122599D01*
X306842Y122204D01*
X307605Y122000D01*
X308395D01*
X309158Y122204D01*
X309842Y122599D01*
X310283Y123041D01*
X310586Y122980D01*
X324000D01*
X324390Y123058D01*
X324721Y123279D01*
X325721Y124279D01*
X325942Y124610D01*
X326020Y125000D01*
Y179578D01*
X328422Y181980D01*
X338000D01*
X338480Y181566D01*
Y178020D01*
X333586D01*
X333283Y177959D01*
X332842Y178401D01*
X332158Y178796D01*
X331395Y179000D01*
X330605D01*
X329842Y178796D01*
X329158Y178401D01*
X328599Y177842D01*
X328204Y177158D01*
X328000Y176395D01*
Y175605D01*
X328204Y174842D01*
X328599Y174158D01*
X329158Y173599D01*
X329842Y173204D01*
X330605Y173000D01*
X331395D01*
X332158Y173204D01*
X332842Y173599D01*
X333401Y174158D01*
X333796Y174842D01*
X334000Y175605D01*
Y175980D01*
X338480D01*
Y45020D01*
X273833D01*
X273796Y45158D01*
X273401Y45842D01*
X272842Y46401D01*
X272158Y46796D01*
X271395Y47000D01*
X270605D01*
X269842Y46796D01*
X269158Y46401D01*
X268599Y45842D01*
X268204Y45158D01*
X268000Y44395D01*
Y43605D01*
X268204Y42842D01*
X268599Y42158D01*
X269158Y41599D01*
X269842Y41204D01*
X270605Y41000D01*
X271395D01*
X272158Y41204D01*
X272842Y41599D01*
X273401Y42158D01*
X273796Y42842D01*
X273833Y42980D01*
X338914D01*
X339304Y43058D01*
X339635Y43279D01*
X340221Y43865D01*
X340442Y44196D01*
X340520Y44586D01*
Y77385D01*
X340982Y77577D01*
X342279Y76279D01*
X342610Y76058D01*
X343000Y75980D01*
X352167D01*
X352204Y75842D01*
X352599Y75158D01*
X353158Y74599D01*
X353842Y74204D01*
X354605Y74000D01*
X355395D01*
X356158Y74204D01*
X356842Y74599D01*
X357401Y75158D01*
X357796Y75842D01*
X358000Y76605D01*
Y77395D01*
X357796Y78158D01*
X357401Y78842D01*
X356842Y79401D01*
X356158Y79796D01*
X355395Y80000D01*
X354605D01*
X353842Y79796D01*
X353158Y79401D01*
X352599Y78842D01*
X352204Y78158D01*
X352167Y78020D01*
X343422D01*
X342020Y79422D01*
Y177980D01*
X373578D01*
X377276Y174282D01*
X377204Y174158D01*
X377000Y173395D01*
Y172605D01*
X377204Y171842D01*
X377599Y171158D01*
X378158Y170599D01*
X378842Y170204D01*
X379605Y170000D01*
X380395D01*
X381158Y170204D01*
X381842Y170599D01*
X382401Y171158D01*
X382796Y171842D01*
X383000Y172605D01*
Y173395D01*
X382796Y174158D01*
X382401Y174842D01*
X381842Y175401D01*
X381158Y175796D01*
X380395Y176000D01*
X379605D01*
X378842Y175796D01*
X378718Y175724D01*
X374721Y179721D01*
X374390Y179942D01*
X374000Y180020D01*
X342020D01*
Y303578D01*
X354718Y316276D01*
X354842Y316204D01*
X355605Y316000D01*
X356395D01*
X357158Y316204D01*
X357842Y316599D01*
X358401Y317158D01*
X358796Y317842D01*
X359000Y318605D01*
Y319395D01*
X358796Y320158D01*
X358401Y320842D01*
X357842Y321401D01*
X357158Y321796D01*
X356395Y322000D01*
X355605D01*
X354842Y321796D01*
X354158Y321401D01*
X353599Y320842D01*
X353204Y320158D01*
X353000Y319395D01*
Y318605D01*
X353204Y317842D01*
X353276Y317718D01*
X340982Y305423D01*
X340520Y305615D01*
Y311492D01*
X353008Y323980D01*
X368980D01*
Y321833D01*
X368842Y321796D01*
X368158Y321401D01*
X367599Y320842D01*
X367204Y320158D01*
X367000Y319395D01*
Y318605D01*
X367204Y317842D01*
X367599Y317158D01*
X368158Y316599D01*
X368842Y316204D01*
X369605Y316000D01*
X370395D01*
X371158Y316204D01*
X371842Y316599D01*
X372401Y317158D01*
X372796Y317842D01*
X373000Y318605D01*
Y319395D01*
X372796Y320158D01*
X372401Y320842D01*
X371842Y321401D01*
X371158Y321796D01*
X371020Y321833D01*
Y324414D01*
X370942Y324804D01*
X370721Y325135D01*
X370135Y325721D01*
X369804Y325942D01*
X369414Y326020D01*
D02*
G37*
G36*
X446395Y319000D02*
X445605D01*
X444842Y318796D01*
X444158Y318401D01*
X443599Y317842D01*
X443204Y317158D01*
X443000Y316395D01*
Y315605D01*
X443204Y314842D01*
X443276Y314718D01*
X431279Y302721D01*
X431058Y302390D01*
X430980Y302000D01*
Y261020D01*
X410000D01*
Y261395D01*
X409796Y262158D01*
X409401Y262842D01*
X408842Y263401D01*
X408158Y263796D01*
X407395Y264000D01*
X406605D01*
X405842Y263796D01*
X405158Y263401D01*
X404599Y262842D01*
X404204Y262158D01*
X404000Y261395D01*
Y260605D01*
X404204Y259842D01*
X404599Y259158D01*
X405158Y258599D01*
X405842Y258204D01*
X406605Y258000D01*
X407395D01*
X408158Y258204D01*
X408842Y258599D01*
X409283Y259041D01*
X409586Y258980D01*
X430980D01*
Y145000D01*
X430605D01*
X429842Y144796D01*
X429158Y144401D01*
X428599Y143842D01*
X428204Y143158D01*
X428000Y142395D01*
Y141605D01*
X428204Y140842D01*
X428599Y140158D01*
X429158Y139599D01*
X429842Y139204D01*
X430605Y139000D01*
X431395D01*
X432158Y139204D01*
X432842Y139599D01*
X433401Y140158D01*
X433796Y140842D01*
X434000Y141605D01*
Y142395D01*
X433796Y143158D01*
X433401Y143842D01*
X432959Y144283D01*
X433020Y144586D01*
Y260000D01*
Y301578D01*
X444718Y313276D01*
X444842Y313204D01*
X445605Y313000D01*
X446395D01*
X447158Y313204D01*
X447842Y313599D01*
X448401Y314158D01*
X448796Y314842D01*
X449000Y315605D01*
Y316395D01*
X448796Y317158D01*
X448401Y317842D01*
X447842Y318401D01*
X447158Y318796D01*
X446395Y319000D01*
D02*
G37*
G36*
X27395Y315000D02*
X26605D01*
X25842Y314796D01*
X25158Y314401D01*
X24599Y313842D01*
X24204Y313158D01*
X24000Y312395D01*
Y311605D01*
X24204Y310842D01*
X24599Y310158D01*
X25158Y309599D01*
X25842Y309204D01*
X26605Y309000D01*
X27395D01*
X28158Y309204D01*
X28842Y309599D01*
X29401Y310158D01*
X29796Y310842D01*
X30000Y311605D01*
Y312395D01*
X29796Y313158D01*
X29401Y313842D01*
X28842Y314401D01*
X28158Y314796D01*
X27395Y315000D01*
D02*
G37*
G36*
X172395Y320000D02*
X171605D01*
X170842Y319796D01*
X170158Y319401D01*
X169599Y318842D01*
X169204Y318158D01*
X169000Y317395D01*
Y316605D01*
X169204Y315842D01*
X169599Y315158D01*
X170158Y314599D01*
X170842Y314204D01*
X171605Y314000D01*
X172395D01*
X173158Y314204D01*
X173842Y314599D01*
X174401Y315158D01*
X174796Y315842D01*
X174833Y315980D01*
X262980D01*
Y310833D01*
X262842Y310796D01*
X262158Y310401D01*
X261599Y309842D01*
X261204Y309158D01*
X261000Y308395D01*
Y307605D01*
X261204Y306842D01*
X261599Y306158D01*
X262158Y305599D01*
X262842Y305204D01*
X263605Y305000D01*
X264395D01*
X265158Y305204D01*
X265842Y305599D01*
X266401Y306158D01*
X266796Y306842D01*
X267000Y307605D01*
Y308395D01*
X266796Y309158D01*
X266401Y309842D01*
X265842Y310401D01*
X265158Y310796D01*
X265020Y310833D01*
Y316414D01*
X264942Y316804D01*
X264721Y317135D01*
X264135Y317721D01*
X263804Y317942D01*
X263414Y318020D01*
X174833D01*
X174796Y318158D01*
X174401Y318842D01*
X173842Y319401D01*
X173158Y319796D01*
X172395Y320000D01*
D02*
G37*
G36*
X89395Y306000D02*
X88605D01*
X87842Y305796D01*
X87158Y305401D01*
X86599Y304842D01*
X86204Y304158D01*
X86000Y303395D01*
Y302605D01*
X86204Y301842D01*
X86599Y301158D01*
X87158Y300599D01*
X87842Y300204D01*
X88605Y300000D01*
X89395D01*
X90158Y300204D01*
X90842Y300599D01*
X91401Y301158D01*
X91796Y301842D01*
X92000Y302605D01*
Y303395D01*
X91796Y304158D01*
X91401Y304842D01*
X90842Y305401D01*
X90158Y305796D01*
X89395Y306000D01*
D02*
G37*
G36*
X269395Y300000D02*
X268605D01*
X267842Y299796D01*
X267158Y299401D01*
X266599Y298842D01*
X266204Y298158D01*
X266000Y297395D01*
Y296605D01*
X266204Y295842D01*
X266599Y295158D01*
X267158Y294599D01*
X267842Y294204D01*
X268605Y294000D01*
X269395D01*
X270158Y294204D01*
X270842Y294599D01*
X271401Y295158D01*
X271796Y295842D01*
X272000Y296605D01*
Y297395D01*
X271796Y298158D01*
X271401Y298842D01*
X270842Y299401D01*
X270158Y299796D01*
X269395Y300000D01*
D02*
G37*
G36*
X82395Y297000D02*
X81605D01*
X80842Y296796D01*
X80158Y296401D01*
X79599Y295842D01*
X79204Y295158D01*
X79000Y294395D01*
Y293605D01*
X79204Y292842D01*
X79599Y292158D01*
X80158Y291599D01*
X80842Y291204D01*
X81605Y291000D01*
X82395D01*
X83158Y291204D01*
X83842Y291599D01*
X84401Y292158D01*
X84796Y292842D01*
X85000Y293605D01*
Y294395D01*
X84796Y295158D01*
X84401Y295842D01*
X83842Y296401D01*
X83158Y296796D01*
X82395Y297000D01*
D02*
G37*
G36*
X540455Y293453D02*
X539545D01*
X538667Y293217D01*
X537880Y292763D01*
X537237Y292120D01*
X536783Y291333D01*
X536547Y290455D01*
Y289545D01*
X536783Y288667D01*
X537237Y287880D01*
X537880Y287237D01*
X538667Y286783D01*
X539545Y286547D01*
X540455D01*
X541333Y286783D01*
X542120Y287237D01*
X542763Y287880D01*
X543218Y288667D01*
X543453Y289545D01*
Y290455D01*
X543218Y291333D01*
X542763Y292120D01*
X542120Y292763D01*
X541333Y293217D01*
X540455Y293453D01*
D02*
G37*
G36*
X533453D02*
X526547D01*
Y286547D01*
X533453D01*
Y293453D01*
D02*
G37*
G36*
X164395Y290000D02*
X163605D01*
X162842Y289796D01*
X162158Y289401D01*
X161599Y288842D01*
X161204Y288158D01*
X161167Y288020D01*
X112000D01*
X111610Y287942D01*
X111279Y287721D01*
X109044Y285486D01*
X108823Y285156D01*
X108746Y284765D01*
Y182067D01*
X108607Y182030D01*
X107923Y181635D01*
X107365Y181077D01*
X106970Y180393D01*
X106765Y179630D01*
Y178840D01*
X106970Y178077D01*
X107365Y177393D01*
X107923Y176834D01*
X108607Y176439D01*
X109370Y176235D01*
X110160D01*
X110923Y176439D01*
X111607Y176834D01*
X112166Y177393D01*
X112561Y178077D01*
X112765Y178840D01*
Y179630D01*
X112561Y180393D01*
X112166Y181077D01*
X111607Y181635D01*
X110923Y182030D01*
X110785Y182067D01*
Y284343D01*
X112422Y285980D01*
X161167D01*
X161204Y285842D01*
X161599Y285158D01*
X162158Y284599D01*
X162842Y284204D01*
X163605Y284000D01*
X164395D01*
X165158Y284204D01*
X165842Y284599D01*
X166401Y285158D01*
X166796Y285842D01*
X167000Y286605D01*
Y287395D01*
X166796Y288158D01*
X166401Y288842D01*
X165842Y289401D01*
X165158Y289796D01*
X164395Y290000D01*
D02*
G37*
G36*
X540455Y283453D02*
X539545D01*
X538667Y283218D01*
X537880Y282763D01*
X537237Y282120D01*
X536783Y281333D01*
X536547Y280455D01*
Y279545D01*
X536783Y278667D01*
X537237Y277880D01*
X537880Y277237D01*
X538667Y276782D01*
X539545Y276547D01*
X540455D01*
X541333Y276782D01*
X542120Y277237D01*
X542763Y277880D01*
X543218Y278667D01*
X543453Y279545D01*
Y280455D01*
X543218Y281333D01*
X542763Y282120D01*
X542120Y282763D01*
X541333Y283218D01*
X540455Y283453D01*
D02*
G37*
G36*
X530455D02*
X529545D01*
X528667Y283218D01*
X527880Y282763D01*
X527237Y282120D01*
X526783Y281333D01*
X526547Y280455D01*
Y279545D01*
X526783Y278667D01*
X527237Y277880D01*
X527880Y277237D01*
X528667Y276782D01*
X529545Y276547D01*
X530455D01*
X531333Y276782D01*
X532120Y277237D01*
X532763Y277880D01*
X533217Y278667D01*
X533453Y279545D01*
Y280455D01*
X533217Y281333D01*
X532763Y282120D01*
X532120Y282763D01*
X531333Y283218D01*
X530455Y283453D01*
D02*
G37*
G36*
X52395Y278000D02*
X51605D01*
X50842Y277796D01*
X50158Y277401D01*
X49599Y276842D01*
X49204Y276158D01*
X49000Y275395D01*
Y274605D01*
X49204Y273842D01*
X49599Y273158D01*
X50158Y272599D01*
X50842Y272204D01*
X51605Y272000D01*
X52395D01*
X53158Y272204D01*
X53842Y272599D01*
X54401Y273158D01*
X54796Y273842D01*
X55000Y274605D01*
Y275395D01*
X54796Y276158D01*
X54401Y276842D01*
X53842Y277401D01*
X53158Y277796D01*
X52395Y278000D01*
D02*
G37*
G36*
X540455Y273453D02*
X539545D01*
X538667Y273218D01*
X537880Y272763D01*
X537237Y272120D01*
X536783Y271333D01*
X536547Y270455D01*
Y269545D01*
X536783Y268667D01*
X537237Y267880D01*
X537880Y267237D01*
X538667Y266782D01*
X539545Y266547D01*
X540455D01*
X541333Y266782D01*
X542120Y267237D01*
X542763Y267880D01*
X543218Y268667D01*
X543453Y269545D01*
Y270455D01*
X543218Y271333D01*
X542763Y272120D01*
X542120Y272763D01*
X541333Y273218D01*
X540455Y273453D01*
D02*
G37*
G36*
X530455D02*
X529545D01*
X528667Y273218D01*
X527880Y272763D01*
X527237Y272120D01*
X526783Y271333D01*
X526547Y270455D01*
Y269545D01*
X526783Y268667D01*
X527237Y267880D01*
X527880Y267237D01*
X528667Y266782D01*
X529545Y266547D01*
X530455D01*
X531333Y266782D01*
X532120Y267237D01*
X532763Y267880D01*
X533217Y268667D01*
X533453Y269545D01*
Y270455D01*
X533217Y271333D01*
X532763Y272120D01*
X532120Y272763D01*
X531333Y273218D01*
X530455Y273453D01*
D02*
G37*
G36*
X252395Y266000D02*
X251605D01*
X250842Y265796D01*
X250158Y265401D01*
X249599Y264842D01*
X249204Y264158D01*
X249000Y263395D01*
Y262605D01*
X249204Y261842D01*
X249599Y261158D01*
X250158Y260599D01*
X250842Y260204D01*
X251605Y260000D01*
X252395D01*
X253158Y260204D01*
X253842Y260599D01*
X254401Y261158D01*
X254796Y261842D01*
X255000Y262605D01*
Y263395D01*
X254796Y264158D01*
X254401Y264842D01*
X253842Y265401D01*
X253158Y265796D01*
X252395Y266000D01*
D02*
G37*
G36*
X229395Y293000D02*
X228605D01*
X227842Y292796D01*
X227158Y292401D01*
X226599Y291842D01*
X226204Y291158D01*
X226000Y290395D01*
Y289605D01*
X226204Y288842D01*
X226599Y288158D01*
X227158Y287599D01*
X227842Y287204D01*
X227980Y287167D01*
Y265833D01*
X227842Y265796D01*
X227158Y265401D01*
X226599Y264842D01*
X226204Y264158D01*
X226000Y263395D01*
Y262605D01*
X226204Y261842D01*
X226599Y261158D01*
X227158Y260599D01*
X227842Y260204D01*
X228605Y260000D01*
X229395D01*
X230158Y260204D01*
X230842Y260599D01*
X231401Y261158D01*
X231796Y261842D01*
X232000Y262605D01*
Y263395D01*
X231796Y264158D01*
X231401Y264842D01*
X230842Y265401D01*
X230158Y265796D01*
X230020Y265833D01*
Y287167D01*
X230158Y287204D01*
X230842Y287599D01*
X231401Y288158D01*
X231796Y288842D01*
X232000Y289605D01*
Y290395D01*
X231796Y291158D01*
X231401Y291842D01*
X230842Y292401D01*
X230158Y292796D01*
X229395Y293000D01*
D02*
G37*
G36*
X125395Y266000D02*
X124605D01*
X123842Y265796D01*
X123158Y265401D01*
X122599Y264842D01*
X122204Y264158D01*
X122000Y263395D01*
Y262605D01*
X122204Y261842D01*
X122599Y261158D01*
X123158Y260599D01*
X123842Y260204D01*
X124605Y260000D01*
X125395D01*
X126158Y260204D01*
X126842Y260599D01*
X127401Y261158D01*
X127796Y261842D01*
X128000Y262605D01*
Y263395D01*
X127796Y264158D01*
X127401Y264842D01*
X126842Y265401D01*
X126158Y265796D01*
X125395Y266000D01*
D02*
G37*
G36*
X540455Y263453D02*
X539545D01*
X538667Y263217D01*
X537880Y262763D01*
X537237Y262120D01*
X536783Y261333D01*
X536547Y260455D01*
Y259545D01*
X536783Y258667D01*
X537237Y257880D01*
X537880Y257237D01*
X538667Y256783D01*
X539545Y256547D01*
X540455D01*
X541333Y256783D01*
X542120Y257237D01*
X542763Y257880D01*
X543218Y258667D01*
X543453Y259545D01*
Y260455D01*
X543218Y261333D01*
X542763Y262120D01*
X542120Y262763D01*
X541333Y263217D01*
X540455Y263453D01*
D02*
G37*
G36*
X530455D02*
X529545D01*
X528667Y263217D01*
X527880Y262763D01*
X527237Y262120D01*
X526783Y261333D01*
X526547Y260455D01*
Y259545D01*
X526783Y258667D01*
X527237Y257880D01*
X527880Y257237D01*
X528667Y256783D01*
X529545Y256547D01*
X530455D01*
X531333Y256783D01*
X532120Y257237D01*
X532763Y257880D01*
X533217Y258667D01*
X533453Y259545D01*
Y260455D01*
X533217Y261333D01*
X532763Y262120D01*
X532120Y262763D01*
X531333Y263217D01*
X530455Y263453D01*
D02*
G37*
G36*
X276521Y311215D02*
X275731D01*
X274968Y311011D01*
X274284Y310616D01*
X273725Y310057D01*
X273330Y309373D01*
X273126Y308610D01*
Y307820D01*
X273330Y307057D01*
X273725Y306373D01*
X274284Y305815D01*
X274968Y305420D01*
X274980Y305416D01*
Y249836D01*
X273986Y248842D01*
X273395Y249000D01*
X272605D01*
X271842Y248796D01*
X271158Y248401D01*
X270599Y247842D01*
X270204Y247158D01*
X270000Y246395D01*
Y245605D01*
X270204Y244842D01*
X270599Y244158D01*
X271158Y243599D01*
X271842Y243204D01*
X271980Y243167D01*
Y205422D01*
X270578Y204020D01*
X239586D01*
X239196Y203942D01*
X238865Y203721D01*
X238279Y203135D01*
X238058Y202804D01*
X237980Y202414D01*
Y100000D01*
X238058Y99610D01*
X238279Y99279D01*
X246980Y90578D01*
Y79833D01*
X246842Y79796D01*
X246158Y79401D01*
X245599Y78842D01*
X245204Y78158D01*
X245000Y77395D01*
Y76605D01*
X245204Y75842D01*
X245599Y75158D01*
X246158Y74599D01*
X246842Y74204D01*
X247605Y74000D01*
X248395D01*
X249158Y74204D01*
X249842Y74599D01*
X250401Y75158D01*
X250796Y75842D01*
X251000Y76605D01*
Y77395D01*
X250796Y78158D01*
X250401Y78842D01*
X249842Y79401D01*
X249158Y79796D01*
X249020Y79833D01*
Y91000D01*
X248942Y91390D01*
X248721Y91721D01*
X240020Y100422D01*
Y201980D01*
X271000D01*
X271390Y202058D01*
X271721Y202279D01*
X273721Y204279D01*
X273942Y204610D01*
X274020Y205000D01*
Y243167D01*
X274158Y243204D01*
X274842Y243599D01*
X275401Y244158D01*
X275796Y244842D01*
X276000Y245605D01*
Y246395D01*
X275796Y247158D01*
X275572Y247545D01*
X276721Y248693D01*
X276942Y249024D01*
X277020Y249414D01*
Y305349D01*
X277284Y305420D01*
X277968Y305815D01*
X278526Y306373D01*
X278922Y307057D01*
X279126Y307820D01*
Y308610D01*
X278922Y309373D01*
X278526Y310057D01*
X277968Y310616D01*
X277284Y311011D01*
X276521Y311215D01*
D02*
G37*
G36*
X411453Y255453D02*
X404547D01*
Y248547D01*
X411453D01*
Y255453D01*
D02*
G37*
G36*
X354395Y249000D02*
X353605D01*
X352842Y248796D01*
X352158Y248401D01*
X351599Y247842D01*
X351204Y247158D01*
X351000Y246395D01*
Y245605D01*
X351204Y244842D01*
X351599Y244158D01*
X352158Y243599D01*
X352842Y243204D01*
X353605Y243000D01*
X354395D01*
X355158Y243204D01*
X355842Y243599D01*
X356401Y244158D01*
X356796Y244842D01*
X357000Y245605D01*
Y246395D01*
X356796Y247158D01*
X356401Y247842D01*
X355842Y248401D01*
X355158Y248796D01*
X354395Y249000D01*
D02*
G37*
G36*
X128395Y255000D02*
X127605D01*
X126842Y254796D01*
X126158Y254401D01*
X125599Y253842D01*
X125204Y253158D01*
X125000Y252395D01*
Y251605D01*
X125204Y250842D01*
X125599Y250158D01*
X126158Y249599D01*
X126842Y249204D01*
X127605Y249000D01*
X128395D01*
X129158Y249204D01*
X129842Y249599D01*
X130401Y250158D01*
X130796Y250842D01*
X130833Y250980D01*
X171980D01*
Y243833D01*
X171842Y243796D01*
X171158Y243401D01*
X170599Y242842D01*
X170204Y242158D01*
X170000Y241395D01*
Y240605D01*
X170204Y239842D01*
X170599Y239158D01*
X171158Y238599D01*
X171842Y238204D01*
X172605Y238000D01*
X173395D01*
X174158Y238204D01*
X174842Y238599D01*
X175401Y239158D01*
X175796Y239842D01*
X176000Y240605D01*
Y241395D01*
X175796Y242158D01*
X175401Y242842D01*
X174842Y243401D01*
X174158Y243796D01*
X174020Y243833D01*
Y251414D01*
X173942Y251804D01*
X173721Y252135D01*
X173135Y252721D01*
X172804Y252942D01*
X172414Y253020D01*
X130833D01*
X130796Y253158D01*
X130401Y253842D01*
X129842Y254401D01*
X129158Y254796D01*
X128395Y255000D01*
D02*
G37*
G36*
X125395Y244000D02*
X124605D01*
X123842Y243796D01*
X123158Y243401D01*
X122599Y242842D01*
X122204Y242158D01*
X122000Y241395D01*
Y240605D01*
X122204Y239842D01*
X122599Y239158D01*
X123158Y238599D01*
X123842Y238204D01*
X124605Y238000D01*
X125395D01*
X126158Y238204D01*
X126842Y238599D01*
X127401Y239158D01*
X127796Y239842D01*
X128000Y240605D01*
Y241395D01*
X127796Y242158D01*
X127401Y242842D01*
X126842Y243401D01*
X126158Y243796D01*
X125395Y244000D01*
D02*
G37*
G36*
X253453Y242453D02*
X246547D01*
Y235547D01*
X253453D01*
Y242453D01*
D02*
G37*
G36*
X538395Y241000D02*
X537605D01*
X536842Y240796D01*
X536158Y240401D01*
X535599Y239842D01*
X535204Y239158D01*
X535000Y238395D01*
Y237605D01*
X535204Y236842D01*
X535599Y236158D01*
X536158Y235599D01*
X536842Y235204D01*
X537605Y235000D01*
X538395D01*
X539158Y235204D01*
X539842Y235599D01*
X540401Y236158D01*
X540796Y236842D01*
X541000Y237605D01*
Y238395D01*
X540796Y239158D01*
X540401Y239842D01*
X539842Y240401D01*
X539158Y240796D01*
X538395Y241000D01*
D02*
G37*
G36*
X354395Y233000D02*
X353605D01*
X352842Y232796D01*
X352158Y232401D01*
X351599Y231842D01*
X351204Y231158D01*
X351000Y230395D01*
Y229605D01*
X351204Y228842D01*
X351599Y228158D01*
X352158Y227599D01*
X352842Y227204D01*
X353605Y227000D01*
X354395D01*
X355158Y227204D01*
X355842Y227599D01*
X356401Y228158D01*
X356796Y228842D01*
X357000Y229605D01*
Y230395D01*
X356796Y231158D01*
X356401Y231842D01*
X355842Y232401D01*
X355158Y232796D01*
X354395Y233000D01*
D02*
G37*
G36*
X451453Y226453D02*
X444547D01*
Y219547D01*
X451453D01*
Y226453D01*
D02*
G37*
G36*
X249455Y223453D02*
X248545D01*
X247667Y223218D01*
X246880Y222763D01*
X246237Y222120D01*
X245782Y221333D01*
X245547Y220455D01*
Y219545D01*
X245782Y218667D01*
X246237Y217880D01*
X246880Y217237D01*
X247667Y216782D01*
X248545Y216547D01*
X249455D01*
X250333Y216782D01*
X251120Y217237D01*
X251763Y217880D01*
X252218Y218667D01*
X252453Y219545D01*
Y220455D01*
X252218Y221333D01*
X251763Y222120D01*
X251120Y222763D01*
X250333Y223218D01*
X249455Y223453D01*
D02*
G37*
G36*
X239455D02*
X238545D01*
X237667Y223218D01*
X236880Y222763D01*
X236237Y222120D01*
X235783Y221333D01*
X235547Y220455D01*
Y219545D01*
X235783Y218667D01*
X236237Y217880D01*
X236880Y217237D01*
X237667Y216782D01*
X238545Y216547D01*
X239455D01*
X240333Y216782D01*
X241120Y217237D01*
X241763Y217880D01*
X242217Y218667D01*
X242453Y219545D01*
Y220455D01*
X242217Y221333D01*
X241763Y222120D01*
X241120Y222763D01*
X240333Y223218D01*
X239455Y223453D01*
D02*
G37*
G36*
X229455D02*
X228545D01*
X227667Y223218D01*
X226880Y222763D01*
X226237Y222120D01*
X225782Y221333D01*
X225547Y220455D01*
Y219545D01*
X225782Y218667D01*
X226237Y217880D01*
X226880Y217237D01*
X227667Y216782D01*
X228545Y216547D01*
X229455D01*
X230333Y216782D01*
X231120Y217237D01*
X231763Y217880D01*
X232218Y218667D01*
X232453Y219545D01*
Y220455D01*
X232218Y221333D01*
X231763Y222120D01*
X231120Y222763D01*
X230333Y223218D01*
X229455Y223453D01*
D02*
G37*
G36*
X40395Y243000D02*
X39605D01*
X38842Y242796D01*
X38158Y242401D01*
X37599Y241842D01*
X37204Y241158D01*
X37000Y240395D01*
Y239605D01*
X37204Y238842D01*
X37276Y238718D01*
X36279Y237721D01*
X36058Y237390D01*
X35980Y237000D01*
Y225000D01*
X36058Y224610D01*
X36279Y224279D01*
X41980Y218578D01*
Y216169D01*
X41480Y215962D01*
X33020Y224422D01*
Y237167D01*
X33158Y237204D01*
X33842Y237599D01*
X34401Y238158D01*
X34796Y238842D01*
X35000Y239605D01*
Y240395D01*
X34796Y241158D01*
X34401Y241842D01*
X33842Y242401D01*
X33158Y242796D01*
X32395Y243000D01*
X31605D01*
X30842Y242796D01*
X30158Y242401D01*
X29599Y241842D01*
X29204Y241158D01*
X29000Y240395D01*
Y239605D01*
X29204Y238842D01*
X29599Y238158D01*
X30158Y237599D01*
X30842Y237204D01*
X30980Y237167D01*
Y224000D01*
X31058Y223610D01*
X31279Y223279D01*
X39980Y214578D01*
Y120586D01*
X40058Y120196D01*
X40279Y119865D01*
X40865Y119279D01*
X41196Y119058D01*
X41586Y118980D01*
X77167D01*
X77204Y118842D01*
X77599Y118158D01*
X78158Y117599D01*
X78842Y117204D01*
X79605Y117000D01*
X80395D01*
X81158Y117204D01*
X81842Y117599D01*
X82401Y118158D01*
X82796Y118842D01*
X82833Y118980D01*
X106000D01*
X106390Y119058D01*
X106721Y119279D01*
X106942Y119610D01*
X107020Y120000D01*
Y142578D01*
X107422Y142980D01*
X127167D01*
X127204Y142842D01*
X127599Y142158D01*
X128158Y141599D01*
X128842Y141204D01*
X129605Y141000D01*
X130395D01*
X131158Y141204D01*
X131842Y141599D01*
X132401Y142158D01*
X132796Y142842D01*
X133000Y143605D01*
Y144395D01*
X132796Y145158D01*
X132401Y145842D01*
X131842Y146401D01*
X131158Y146796D01*
X130395Y147000D01*
X129605D01*
X128842Y146796D01*
X128158Y146401D01*
X127599Y145842D01*
X127204Y145158D01*
X127167Y145020D01*
X107000D01*
X106610Y144942D01*
X106279Y144721D01*
X105520Y143962D01*
X105020Y144169D01*
Y148578D01*
X105422Y148980D01*
X120167D01*
X120204Y148842D01*
X120599Y148158D01*
X121158Y147599D01*
X121842Y147204D01*
X122605Y147000D01*
X123395D01*
X124158Y147204D01*
X124842Y147599D01*
X125401Y148158D01*
X125796Y148842D01*
X126000Y149605D01*
Y150395D01*
X125796Y151158D01*
X125401Y151842D01*
X124842Y152401D01*
X124158Y152796D01*
X123395Y153000D01*
X122605D01*
X121842Y152796D01*
X121158Y152401D01*
X120599Y151842D01*
X120204Y151158D01*
X120167Y151020D01*
X105000D01*
X104610Y150942D01*
X104279Y150721D01*
X103520Y149961D01*
X103020Y150169D01*
Y154980D01*
X127000D01*
Y154605D01*
X127204Y153842D01*
X127599Y153158D01*
X128158Y152599D01*
X128842Y152204D01*
X129605Y152000D01*
X130395D01*
X131158Y152204D01*
X131842Y152599D01*
X132401Y153158D01*
X132796Y153842D01*
X133000Y154605D01*
Y155395D01*
X132796Y156158D01*
X132401Y156842D01*
X131842Y157401D01*
X131158Y157796D01*
X130395Y158000D01*
X129605D01*
X128842Y157796D01*
X128158Y157401D01*
X127717Y156959D01*
X127414Y157020D01*
X102586D01*
X102196Y156942D01*
X101865Y156721D01*
X101520Y156376D01*
X101020Y156583D01*
Y160578D01*
X101422Y160980D01*
X120167D01*
X120204Y160842D01*
X120599Y160158D01*
X121158Y159599D01*
X121842Y159204D01*
X122605Y159000D01*
X123395D01*
X124158Y159204D01*
X124842Y159599D01*
X125401Y160158D01*
X125796Y160842D01*
X126000Y161605D01*
Y162395D01*
X125796Y163158D01*
X125401Y163842D01*
X124842Y164401D01*
X124158Y164796D01*
X123395Y165000D01*
X122605D01*
X121842Y164796D01*
X121158Y164401D01*
X120599Y163842D01*
X120204Y163158D01*
X120167Y163020D01*
X101000D01*
X100610Y162942D01*
X100279Y162721D01*
X99279Y161721D01*
X99058Y161390D01*
X98980Y161000D01*
Y151422D01*
X98578Y151020D01*
X74833D01*
X74796Y151158D01*
X74401Y151842D01*
X73842Y152401D01*
X73158Y152796D01*
X72395Y153000D01*
X71605D01*
X70842Y152796D01*
X70158Y152401D01*
X69599Y151842D01*
X69204Y151158D01*
X69167Y151020D01*
X56020D01*
Y228167D01*
X56158Y228204D01*
X56842Y228599D01*
X57401Y229158D01*
X57796Y229842D01*
X58000Y230605D01*
Y231395D01*
X57796Y232158D01*
X57401Y232842D01*
X56842Y233401D01*
X56158Y233796D01*
X55395Y234000D01*
X54605D01*
X53842Y233796D01*
X53158Y233401D01*
X52599Y232842D01*
X52204Y232158D01*
X52000Y231395D01*
Y230605D01*
X52204Y229842D01*
X52599Y229158D01*
X53158Y228599D01*
X53842Y228204D01*
X53980Y228167D01*
Y150586D01*
X54058Y150196D01*
X54279Y149865D01*
X54865Y149279D01*
X55196Y149058D01*
X55586Y148980D01*
X69167D01*
X69204Y148842D01*
X69599Y148158D01*
X70158Y147599D01*
X70842Y147204D01*
X71605Y147000D01*
X72395D01*
X73158Y147204D01*
X73842Y147599D01*
X74401Y148158D01*
X74796Y148842D01*
X74833Y148980D01*
X99000D01*
X99390Y149058D01*
X99721Y149279D01*
X100480Y150039D01*
X100980Y149831D01*
Y141020D01*
X82833D01*
X82796Y141158D01*
X82401Y141842D01*
X81842Y142401D01*
X81158Y142796D01*
X80395Y143000D01*
X79605D01*
X78842Y142796D01*
X78158Y142401D01*
X77599Y141842D01*
X77204Y141158D01*
X77167Y141020D01*
X46422D01*
X46020Y141422D01*
Y229167D01*
X46158Y229204D01*
X46842Y229599D01*
X47401Y230158D01*
X47796Y230842D01*
X48000Y231605D01*
Y232395D01*
X47796Y233158D01*
X47401Y233842D01*
X46842Y234401D01*
X46158Y234796D01*
X45395Y235000D01*
X44605D01*
X43842Y234796D01*
X43158Y234401D01*
X42599Y233842D01*
X42204Y233158D01*
X42000Y232395D01*
Y231605D01*
X42204Y230842D01*
X42599Y230158D01*
X43158Y229599D01*
X43842Y229204D01*
X43980Y229167D01*
Y220169D01*
X43480Y219962D01*
X38020Y225422D01*
Y236578D01*
X38718Y237276D01*
X38842Y237204D01*
X39605Y237000D01*
X40395D01*
X41158Y237204D01*
X41842Y237599D01*
X42401Y238158D01*
X42796Y238842D01*
X43000Y239605D01*
Y240395D01*
X42796Y241158D01*
X42401Y241842D01*
X41842Y242401D01*
X41158Y242796D01*
X40395Y243000D01*
D02*
G37*
G36*
X193395Y291000D02*
X192605D01*
X191842Y290796D01*
X191158Y290401D01*
X190599Y289842D01*
X190204Y289158D01*
X190000Y288395D01*
Y287605D01*
X190204Y286842D01*
X190599Y286158D01*
X191158Y285599D01*
X191842Y285204D01*
X192605Y285000D01*
X193395D01*
X194158Y285204D01*
X194842Y285599D01*
X195401Y286158D01*
X195796Y286842D01*
X195833Y286980D01*
X199980D01*
Y217887D01*
X193113Y211020D01*
X192169D01*
X191962Y211520D01*
X198721Y218279D01*
X198942Y218610D01*
X199020Y219000D01*
Y271414D01*
X198942Y271804D01*
X198721Y272135D01*
X198135Y272721D01*
X197804Y272942D01*
X197414Y273020D01*
X188000D01*
Y273395D01*
X187796Y274158D01*
X187401Y274842D01*
X186842Y275401D01*
X186158Y275796D01*
X185395Y276000D01*
X184605D01*
X183842Y275796D01*
X183158Y275401D01*
X182599Y274842D01*
X182204Y274158D01*
X182000Y273395D01*
Y272605D01*
X182204Y271842D01*
X182599Y271158D01*
X183158Y270599D01*
X183842Y270204D01*
X184605Y270000D01*
X185395D01*
X186158Y270204D01*
X186842Y270599D01*
X187283Y271041D01*
X187586Y270980D01*
X196980D01*
Y219422D01*
X190578Y213020D01*
X189169D01*
X188962Y213520D01*
X191721Y216279D01*
X191942Y216610D01*
X192020Y217000D01*
Y248167D01*
X192158Y248204D01*
X192842Y248599D01*
X193401Y249158D01*
X193796Y249842D01*
X194000Y250605D01*
Y251395D01*
X193796Y252158D01*
X193401Y252842D01*
X192842Y253401D01*
X192158Y253796D01*
X191395Y254000D01*
X190605D01*
X189842Y253796D01*
X189158Y253401D01*
X188599Y252842D01*
X188204Y252158D01*
X188000Y251395D01*
Y250605D01*
X188204Y249842D01*
X188599Y249158D01*
X189158Y248599D01*
X189842Y248204D01*
X189980Y248167D01*
Y217422D01*
X187578Y215020D01*
X170000D01*
X169610Y214942D01*
X169279Y214721D01*
X157279Y202721D01*
X157058Y202390D01*
X156980Y202000D01*
Y110020D01*
X132000D01*
X131610Y109942D01*
X131279Y109721D01*
X130279Y108721D01*
X130058Y108390D01*
X129980Y108000D01*
Y91833D01*
X129842Y91796D01*
X129158Y91401D01*
X128599Y90842D01*
X128204Y90158D01*
X128000Y89395D01*
Y88605D01*
X128204Y87842D01*
X128599Y87158D01*
X129158Y86599D01*
X129842Y86204D01*
X129980Y86167D01*
Y40086D01*
X130058Y39696D01*
X130279Y39365D01*
X130865Y38779D01*
X131196Y38558D01*
X131586Y38480D01*
X151966D01*
X152032Y37980D01*
X151342Y37796D01*
X150658Y37401D01*
X150099Y36842D01*
X149704Y36158D01*
X149500Y35395D01*
Y34605D01*
X149704Y33842D01*
X150099Y33158D01*
X150658Y32599D01*
X151342Y32204D01*
X151480Y32167D01*
Y29586D01*
X151558Y29196D01*
X151779Y28865D01*
X152365Y28279D01*
X152696Y28058D01*
X153086Y27980D01*
X173578D01*
X176980Y24578D01*
Y9586D01*
X177058Y9196D01*
X177279Y8865D01*
X177624Y8520D01*
X177417Y8020D01*
X153520D01*
Y10167D01*
X153658Y10204D01*
X154342Y10599D01*
X154901Y11158D01*
X155296Y11842D01*
X155500Y12605D01*
Y13395D01*
X155296Y14158D01*
X154901Y14842D01*
X154342Y15401D01*
X153658Y15796D01*
X152895Y16000D01*
X152105D01*
X151342Y15796D01*
X150658Y15401D01*
X150099Y14842D01*
X149704Y14158D01*
X149500Y13395D01*
Y12605D01*
X149704Y11842D01*
X150099Y11158D01*
X150658Y10599D01*
X151342Y10204D01*
X151480Y10167D01*
Y7586D01*
X151558Y7196D01*
X151779Y6865D01*
X152365Y6279D01*
X152696Y6058D01*
X153086Y5980D01*
X278000D01*
X278390Y6058D01*
X278721Y6279D01*
X279721Y7279D01*
X279942Y7610D01*
X280020Y8000D01*
Y13445D01*
X379464D01*
X379855Y13522D01*
X380185Y13744D01*
X384422Y17980D01*
X388000D01*
X388390Y18058D01*
X388721Y18279D01*
X388942Y18610D01*
X389020Y19000D01*
Y27980D01*
X423167D01*
X423204Y27842D01*
X423599Y27158D01*
X424158Y26599D01*
X424842Y26204D01*
X425605Y26000D01*
X426395D01*
X427158Y26204D01*
X427842Y26599D01*
X428401Y27158D01*
X428796Y27842D01*
X429000Y28605D01*
Y29395D01*
X428796Y30158D01*
X428401Y30842D01*
X427842Y31401D01*
X427158Y31796D01*
X426395Y32000D01*
X425605D01*
X424842Y31796D01*
X424158Y31401D01*
X423599Y30842D01*
X423204Y30158D01*
X423167Y30020D01*
X388586D01*
X388196Y29942D01*
X387865Y29721D01*
X387279Y29135D01*
X387058Y28804D01*
X386980Y28414D01*
Y20020D01*
X384000D01*
X383610Y19942D01*
X383279Y19721D01*
X379042Y15484D01*
X378579D01*
X378388Y15946D01*
X381721Y19279D01*
X381942Y19610D01*
X382020Y20000D01*
Y72578D01*
X382422Y72980D01*
X422000D01*
Y72605D01*
X422204Y71842D01*
X422599Y71158D01*
X423158Y70599D01*
X423842Y70204D01*
X424605Y70000D01*
X425395D01*
X426158Y70204D01*
X426842Y70599D01*
X427401Y71158D01*
X427796Y71842D01*
X428000Y72605D01*
Y73395D01*
X427796Y74158D01*
X427401Y74842D01*
X426842Y75401D01*
X426158Y75796D01*
X425395Y76000D01*
X424605D01*
X423842Y75796D01*
X423158Y75401D01*
X422717Y74959D01*
X422414Y75020D01*
X382000D01*
X381610Y74942D01*
X381279Y74721D01*
X380279Y73721D01*
X380058Y73390D01*
X379980Y73000D01*
Y20422D01*
X376578Y17020D01*
X277000D01*
X276610Y16942D01*
X276279Y16721D01*
X276058Y16390D01*
X275980Y16000D01*
Y10422D01*
X275578Y10020D01*
X179020D01*
Y25000D01*
X178942Y25390D01*
X178721Y25721D01*
X174721Y29721D01*
X174390Y29942D01*
X174000Y30020D01*
X153520D01*
Y32167D01*
X153658Y32204D01*
X154342Y32599D01*
X154901Y33158D01*
X155296Y33842D01*
X155500Y34605D01*
Y35395D01*
X155296Y36158D01*
X154901Y36842D01*
X154342Y37401D01*
X153658Y37796D01*
X152968Y37980D01*
X153034Y38480D01*
X159414D01*
X159804Y38558D01*
X160135Y38779D01*
X160721Y39365D01*
X160942Y39696D01*
X161020Y40086D01*
Y47578D01*
X166422Y52980D01*
X210000D01*
Y52605D01*
X210204Y51842D01*
X210276Y51718D01*
X209279Y50721D01*
X209058Y50390D01*
X208980Y50000D01*
Y25586D01*
X209058Y25196D01*
X209279Y24865D01*
X213865Y20279D01*
X214196Y20058D01*
X214586Y19980D01*
X225167D01*
X225204Y19842D01*
X225599Y19158D01*
X226158Y18599D01*
X226842Y18204D01*
X227605Y18000D01*
X228395D01*
X229158Y18204D01*
X229842Y18599D01*
X230401Y19158D01*
X230796Y19842D01*
X231000Y20605D01*
Y21395D01*
X230796Y22158D01*
X230401Y22842D01*
X229842Y23401D01*
X229158Y23796D01*
X228395Y24000D01*
X227605D01*
X226842Y23796D01*
X226158Y23401D01*
X225599Y22842D01*
X225204Y22158D01*
X225167Y22020D01*
X215008D01*
X211020Y26008D01*
Y49578D01*
X211718Y50276D01*
X211842Y50204D01*
X212605Y50000D01*
X213395D01*
X214158Y50204D01*
X214842Y50599D01*
X215401Y51158D01*
X215796Y51842D01*
X216000Y52605D01*
Y53395D01*
X215796Y54158D01*
X215401Y54842D01*
X214842Y55401D01*
X214158Y55796D01*
X213395Y56000D01*
X212605D01*
X211842Y55796D01*
X211158Y55401D01*
X210717Y54959D01*
X210414Y55020D01*
X166000D01*
X165610Y54942D01*
X165279Y54721D01*
X159279Y48721D01*
X159058Y48390D01*
X158980Y48000D01*
Y40520D01*
X153034D01*
X152968Y41020D01*
X153658Y41204D01*
X154342Y41599D01*
X154901Y42158D01*
X155296Y42842D01*
X155500Y43605D01*
Y44395D01*
X155296Y45158D01*
X154901Y45842D01*
X154342Y46401D01*
X153658Y46796D01*
X153520Y46833D01*
Y57078D01*
X153922Y57480D01*
X254980D01*
Y29586D01*
X255058Y29196D01*
X255279Y28865D01*
X255865Y28279D01*
X256196Y28058D01*
X256586Y27980D01*
X325167D01*
X325204Y27842D01*
X325599Y27158D01*
X326158Y26599D01*
X326296Y26520D01*
X326162Y26020D01*
X255422D01*
X254020Y27422D01*
Y45414D01*
X253942Y45804D01*
X253721Y46135D01*
X253135Y46721D01*
X252804Y46942D01*
X252414Y47020D01*
X238000D01*
X237610Y46942D01*
X237279Y46721D01*
X235279Y44721D01*
X235058Y44390D01*
X234980Y44000D01*
Y35833D01*
X234842Y35796D01*
X234158Y35401D01*
X233599Y34842D01*
X233204Y34158D01*
X233167Y34020D01*
X219907D01*
X219870Y34158D01*
X219475Y34842D01*
X218917Y35401D01*
X218233Y35796D01*
X217470Y36000D01*
X216680D01*
X215917Y35796D01*
X215233Y35401D01*
X214674Y34842D01*
X214279Y34158D01*
X214075Y33395D01*
Y32605D01*
X214279Y31842D01*
X214674Y31158D01*
X215233Y30599D01*
X215917Y30204D01*
X216680Y30000D01*
X217470D01*
X218233Y30204D01*
X218917Y30599D01*
X219475Y31158D01*
X219870Y31842D01*
X219907Y31980D01*
X233167D01*
X233204Y31842D01*
X233599Y31158D01*
X234158Y30599D01*
X234842Y30204D01*
X235605Y30000D01*
X236395D01*
X237158Y30204D01*
X237842Y30599D01*
X238401Y31158D01*
X238796Y31842D01*
X239000Y32605D01*
Y33395D01*
X238796Y34158D01*
X238401Y34842D01*
X237842Y35401D01*
X237158Y35796D01*
X237020Y35833D01*
Y43578D01*
X238422Y44980D01*
X251980D01*
Y27000D01*
X252058Y26610D01*
X252279Y26279D01*
X254279Y24279D01*
X254610Y24058D01*
X255000Y23980D01*
X339000D01*
X339390Y24058D01*
X339721Y24279D01*
X345422Y29980D01*
X349167D01*
X349204Y29842D01*
X349599Y29158D01*
X350158Y28599D01*
X350842Y28204D01*
X351605Y28000D01*
X352395D01*
X353158Y28204D01*
X353842Y28599D01*
X354401Y29158D01*
X354796Y29842D01*
X355000Y30605D01*
Y31395D01*
X354928Y31664D01*
X355336Y32072D01*
X355605Y32000D01*
X356395D01*
X357158Y32204D01*
X357842Y32599D01*
X358401Y33158D01*
X358796Y33842D01*
X358833Y33980D01*
X366414D01*
X366804Y34058D01*
X367135Y34279D01*
X367721Y34865D01*
X367942Y35196D01*
X368020Y35586D01*
Y171102D01*
X368520Y171391D01*
X368842Y171204D01*
X369605Y171000D01*
X370395D01*
X371158Y171204D01*
X371842Y171599D01*
X372401Y172158D01*
X372796Y172842D01*
X373000Y173605D01*
Y174395D01*
X372796Y175158D01*
X372401Y175842D01*
X371842Y176401D01*
X371158Y176796D01*
X370395Y177000D01*
X369605D01*
X368842Y176796D01*
X368158Y176401D01*
X367599Y175842D01*
X367204Y175158D01*
X367000Y174395D01*
Y173605D01*
X367035Y173476D01*
X366279Y172721D01*
X366058Y172390D01*
X365980Y172000D01*
Y36020D01*
X358833D01*
X358796Y36158D01*
X358401Y36842D01*
X357842Y37401D01*
X357158Y37796D01*
X356395Y38000D01*
X355605D01*
X354842Y37796D01*
X354158Y37401D01*
X353599Y36842D01*
X353204Y36158D01*
X353000Y35395D01*
Y34605D01*
X353072Y34336D01*
X352664Y33928D01*
X352395Y34000D01*
X351605D01*
X350842Y33796D01*
X350158Y33401D01*
X349599Y32842D01*
X349204Y32158D01*
X349167Y32020D01*
X345000D01*
X344610Y31942D01*
X344279Y31721D01*
X338578Y26020D01*
X329838D01*
X329704Y26520D01*
X329842Y26599D01*
X330401Y27158D01*
X330796Y27842D01*
X331000Y28605D01*
Y29395D01*
X330796Y30158D01*
X330401Y30842D01*
X329842Y31401D01*
X329158Y31796D01*
X328395Y32000D01*
X327605D01*
X326842Y31796D01*
X326158Y31401D01*
X325599Y30842D01*
X325204Y30158D01*
X325167Y30020D01*
X257020D01*
Y57914D01*
X256942Y58304D01*
X256824Y58480D01*
X257036Y58980D01*
X286414D01*
X286804Y59058D01*
X287135Y59279D01*
X287721Y59865D01*
X287942Y60196D01*
X288020Y60586D01*
Y67578D01*
X291422Y70980D01*
X323167D01*
X323204Y70842D01*
X323599Y70158D01*
X324158Y69599D01*
X324842Y69204D01*
X325605Y69000D01*
X326395D01*
X327158Y69204D01*
X327842Y69599D01*
X328401Y70158D01*
X328796Y70842D01*
X329000Y71605D01*
Y72395D01*
X328796Y73158D01*
X328401Y73842D01*
X327842Y74401D01*
X327158Y74796D01*
X326395Y75000D01*
X325605D01*
X324842Y74796D01*
X324158Y74401D01*
X323599Y73842D01*
X323204Y73158D01*
X323167Y73020D01*
X291000D01*
X290610Y72942D01*
X290279Y72721D01*
X286279Y68721D01*
X286058Y68390D01*
X285980Y68000D01*
Y61020D01*
X269115D01*
X268923Y61481D01*
X271721Y64279D01*
X271942Y64610D01*
X272020Y65000D01*
Y84167D01*
X272158Y84204D01*
X272842Y84599D01*
X273401Y85158D01*
X273796Y85842D01*
X274000Y86605D01*
Y87395D01*
X273796Y88158D01*
X273401Y88842D01*
X272842Y89401D01*
X272158Y89796D01*
X271395Y90000D01*
X270605D01*
X269842Y89796D01*
X269158Y89401D01*
X268599Y88842D01*
X268204Y88158D01*
X268000Y87395D01*
Y86605D01*
X268204Y85842D01*
X268599Y85158D01*
X269158Y84599D01*
X269842Y84204D01*
X269980Y84167D01*
Y65422D01*
X267078Y62520D01*
X234246D01*
X234197Y63020D01*
X234390Y63058D01*
X234721Y63279D01*
X236721Y65279D01*
X236942Y65610D01*
X237020Y66000D01*
Y68010D01*
X237744Y68204D01*
X238428Y68599D01*
X238986Y69158D01*
X239381Y69842D01*
X239586Y70605D01*
Y71395D01*
X239381Y72158D01*
X238986Y72842D01*
X238428Y73401D01*
X237744Y73796D01*
X236981Y74000D01*
X236191D01*
X235428Y73796D01*
X234744Y73401D01*
X234185Y72842D01*
X233790Y72158D01*
X233586Y71395D01*
Y70605D01*
X233790Y69842D01*
X234185Y69158D01*
X234744Y68599D01*
X234980Y68463D01*
Y66422D01*
X233578Y65020D01*
X222964D01*
X222262Y65721D01*
X221931Y65942D01*
X221541Y66020D01*
X211833D01*
X211796Y66158D01*
X211401Y66842D01*
X210842Y67401D01*
X210158Y67796D01*
X209395Y68000D01*
X208605D01*
X207842Y67796D01*
X207158Y67401D01*
X206599Y66842D01*
X206204Y66158D01*
X206000Y65395D01*
Y64605D01*
X206204Y63842D01*
X206599Y63158D01*
X206738Y63020D01*
X206531Y62520D01*
X184922D01*
X184020Y63422D01*
Y76000D01*
X183942Y76390D01*
X183721Y76721D01*
X182721Y77721D01*
X182390Y77942D01*
X182000Y78020D01*
X153422D01*
X152020Y79422D01*
Y90167D01*
X152158Y90204D01*
X152842Y90599D01*
X153401Y91158D01*
X153796Y91842D01*
X154000Y92605D01*
Y93395D01*
X153796Y94158D01*
X153401Y94842D01*
X152842Y95401D01*
X152158Y95796D01*
X151395Y96000D01*
X150605D01*
X149842Y95796D01*
X149158Y95401D01*
X148599Y94842D01*
X148204Y94158D01*
X148000Y93395D01*
Y92605D01*
X148204Y91842D01*
X148599Y91158D01*
X149158Y90599D01*
X149842Y90204D01*
X149980Y90167D01*
Y79000D01*
X150058Y78610D01*
X150279Y78279D01*
X152279Y76279D01*
X152610Y76058D01*
X153000Y75980D01*
X181578D01*
X181980Y75578D01*
Y63000D01*
X182058Y62610D01*
X182279Y62279D01*
X183077Y61481D01*
X182885Y61020D01*
X153434D01*
Y63144D01*
X153658Y63204D01*
X154342Y63599D01*
X154901Y64158D01*
X155296Y64842D01*
X155500Y65605D01*
Y66395D01*
X155296Y67158D01*
X154901Y67842D01*
X154342Y68401D01*
X153658Y68796D01*
X152895Y69000D01*
X152105D01*
X151342Y68796D01*
X150658Y68401D01*
X150099Y67842D01*
X149704Y67158D01*
X149500Y66395D01*
Y65605D01*
X149704Y64842D01*
X150099Y64158D01*
X150658Y63599D01*
X151342Y63204D01*
X151395Y63190D01*
Y60586D01*
X151472Y60196D01*
X151693Y59865D01*
X152279Y59279D01*
X152253Y58695D01*
X151779Y58221D01*
X151558Y57890D01*
X151480Y57500D01*
Y46833D01*
X151342Y46796D01*
X150658Y46401D01*
X150099Y45842D01*
X149704Y45158D01*
X149500Y44395D01*
Y43605D01*
X149704Y42842D01*
X150099Y42158D01*
X150658Y41599D01*
X151342Y41204D01*
X152032Y41020D01*
X151966Y40520D01*
X132020D01*
Y86167D01*
X132158Y86204D01*
X132842Y86599D01*
X133401Y87158D01*
X133796Y87842D01*
X134000Y88605D01*
Y89395D01*
X133796Y90158D01*
X133401Y90842D01*
X132842Y91401D01*
X132158Y91796D01*
X132020Y91833D01*
Y107578D01*
X132422Y107980D01*
X158000D01*
X158390Y108058D01*
X158721Y108279D01*
X158942Y108610D01*
X159020Y109000D01*
Y201578D01*
X170422Y212980D01*
X172831D01*
X173038Y212480D01*
X170279Y209721D01*
X170058Y209390D01*
X169980Y209000D01*
Y116000D01*
X170058Y115610D01*
X170279Y115279D01*
X171279Y114279D01*
X171610Y114058D01*
X172000Y113980D01*
X183980D01*
Y95833D01*
X183842Y95796D01*
X183158Y95401D01*
X182599Y94842D01*
X182204Y94158D01*
X182000Y93395D01*
Y92605D01*
X182204Y91842D01*
X182599Y91158D01*
X183158Y90599D01*
X183842Y90204D01*
X184605Y90000D01*
X185395D01*
X186158Y90204D01*
X186842Y90599D01*
X187401Y91158D01*
X187796Y91842D01*
X188000Y92605D01*
Y93395D01*
X187796Y94158D01*
X187401Y94842D01*
X186842Y95401D01*
X186158Y95796D01*
X186020Y95833D01*
Y114414D01*
X185942Y114804D01*
X185721Y115135D01*
X185135Y115721D01*
X184804Y115942D01*
X184414Y116020D01*
X172422D01*
X172020Y116422D01*
Y119831D01*
X172520Y120038D01*
X173279Y119279D01*
X173610Y119058D01*
X174000Y118980D01*
X189980D01*
Y104833D01*
X189842Y104796D01*
X189158Y104401D01*
X188599Y103842D01*
X188204Y103158D01*
X188000Y102395D01*
Y101605D01*
X188204Y100842D01*
X188599Y100158D01*
X189158Y99599D01*
X189842Y99204D01*
X190605Y99000D01*
X191395D01*
X192158Y99204D01*
X192842Y99599D01*
X193401Y100158D01*
X193796Y100842D01*
X194000Y101605D01*
Y102395D01*
X193796Y103158D01*
X193401Y103842D01*
X192842Y104401D01*
X192158Y104796D01*
X192020Y104833D01*
Y119414D01*
X191942Y119804D01*
X191721Y120135D01*
X191135Y120721D01*
X190804Y120942D01*
X190414Y121020D01*
X174422D01*
X174020Y121422D01*
Y205578D01*
X177422Y208980D01*
X193535D01*
X193926Y209058D01*
X194256Y209279D01*
X201721Y216743D01*
X201942Y217074D01*
X202020Y217464D01*
Y287414D01*
X201942Y287804D01*
X201721Y288135D01*
X201135Y288721D01*
X200804Y288942D01*
X200414Y289020D01*
X195833D01*
X195796Y289158D01*
X195401Y289842D01*
X194842Y290401D01*
X194158Y290796D01*
X193395Y291000D01*
D02*
G37*
G36*
X411453Y215453D02*
X404547D01*
Y208547D01*
X411453D01*
Y215453D01*
D02*
G37*
G36*
X249455Y213453D02*
X248545D01*
X247667Y213217D01*
X246880Y212763D01*
X246237Y212120D01*
X245782Y211333D01*
X245547Y210455D01*
Y209545D01*
X245782Y208667D01*
X246237Y207880D01*
X246880Y207237D01*
X247667Y206783D01*
X248545Y206547D01*
X249455D01*
X250333Y206783D01*
X251120Y207237D01*
X251763Y207880D01*
X252218Y208667D01*
X252453Y209545D01*
Y210455D01*
X252218Y211333D01*
X251763Y212120D01*
X251120Y212763D01*
X250333Y213217D01*
X249455Y213453D01*
D02*
G37*
G36*
X239455D02*
X238545D01*
X237667Y213217D01*
X236880Y212763D01*
X236237Y212120D01*
X235783Y211333D01*
X235547Y210455D01*
Y209545D01*
X235783Y208667D01*
X236237Y207880D01*
X236880Y207237D01*
X237667Y206783D01*
X238545Y206547D01*
X239455D01*
X240333Y206783D01*
X241120Y207237D01*
X241763Y207880D01*
X242217Y208667D01*
X242453Y209545D01*
Y210455D01*
X242217Y211333D01*
X241763Y212120D01*
X241120Y212763D01*
X240333Y213217D01*
X239455Y213453D01*
D02*
G37*
G36*
X232453D02*
X225547D01*
Y206547D01*
X232453D01*
Y213453D01*
D02*
G37*
G36*
X354395Y209000D02*
X353605D01*
X352842Y208796D01*
X352158Y208401D01*
X351599Y207842D01*
X351204Y207158D01*
X351000Y206395D01*
Y205605D01*
X351204Y204842D01*
X351599Y204158D01*
X352158Y203599D01*
X352842Y203204D01*
X353605Y203000D01*
X354395D01*
X355158Y203204D01*
X355842Y203599D01*
X356401Y204158D01*
X356796Y204842D01*
X357000Y205605D01*
Y206395D01*
X356796Y207158D01*
X356401Y207842D01*
X355842Y208401D01*
X355158Y208796D01*
X354395Y209000D01*
D02*
G37*
G36*
X477395Y206000D02*
X476605D01*
X475842Y205796D01*
X475158Y205401D01*
X474599Y204842D01*
X474204Y204158D01*
X474000Y203395D01*
Y202605D01*
X474204Y201842D01*
X474599Y201158D01*
X475158Y200599D01*
X475842Y200204D01*
X476605Y200000D01*
X477395D01*
X478158Y200204D01*
X478842Y200599D01*
X479401Y201158D01*
X479796Y201842D01*
X480000Y202605D01*
Y203395D01*
X479796Y204158D01*
X479401Y204842D01*
X478842Y205401D01*
X478158Y205796D01*
X477395Y206000D01*
D02*
G37*
G36*
X465453Y205453D02*
X458547D01*
Y198547D01*
X465453D01*
Y205453D01*
D02*
G37*
G36*
X451453D02*
X444547D01*
Y198547D01*
X451453D01*
Y205453D01*
D02*
G37*
G36*
X191395Y202000D02*
X190605D01*
X189842Y201796D01*
X189158Y201401D01*
X188599Y200842D01*
X188204Y200158D01*
X188000Y199395D01*
Y198605D01*
X188204Y197842D01*
X188599Y197158D01*
X189158Y196599D01*
X189842Y196204D01*
X190605Y196000D01*
X191395D01*
X192158Y196204D01*
X192842Y196599D01*
X193401Y197158D01*
X193796Y197842D01*
X194000Y198605D01*
Y199395D01*
X193796Y200158D01*
X193401Y200842D01*
X192842Y201401D01*
X192158Y201796D01*
X191395Y202000D01*
D02*
G37*
G36*
X269453Y195453D02*
X262547D01*
Y188547D01*
X269453D01*
Y195453D01*
D02*
G37*
G36*
X354395Y193000D02*
X353605D01*
X352842Y192796D01*
X352158Y192401D01*
X351599Y191842D01*
X351204Y191158D01*
X351000Y190395D01*
Y189605D01*
X351204Y188842D01*
X351599Y188158D01*
X352158Y187599D01*
X352842Y187204D01*
X353605Y187000D01*
X354395D01*
X355158Y187204D01*
X355842Y187599D01*
X356401Y188158D01*
X356796Y188842D01*
X357000Y189605D01*
Y190395D01*
X356796Y191158D01*
X356401Y191842D01*
X355842Y192401D01*
X355158Y192796D01*
X354395Y193000D01*
D02*
G37*
G36*
X30461Y193500D02*
X29539D01*
X28649Y193262D01*
X27851Y192801D01*
X27199Y192149D01*
X26739Y191351D01*
X26500Y190461D01*
Y189539D01*
X26739Y188649D01*
X27199Y187851D01*
X27851Y187199D01*
X28649Y186739D01*
X29539Y186500D01*
X30461D01*
X31351Y186739D01*
X32149Y187199D01*
X32801Y187851D01*
X33261Y188649D01*
X33500Y189539D01*
Y190461D01*
X33261Y191351D01*
X32801Y192149D01*
X32149Y192801D01*
X31351Y193262D01*
X30461Y193500D01*
D02*
G37*
G36*
X23500D02*
X16500D01*
Y186500D01*
X23500D01*
Y193500D01*
D02*
G37*
G36*
X194395Y189000D02*
X193605D01*
X192842Y188796D01*
X192158Y188401D01*
X191599Y187842D01*
X191204Y187158D01*
X191000Y186395D01*
Y185605D01*
X191204Y184842D01*
X191276Y184718D01*
X190279Y183721D01*
X190058Y183390D01*
X189980Y183000D01*
Y158020D01*
X186810D01*
X186420Y157942D01*
X186089Y157721D01*
X185503Y157135D01*
X185282Y156804D01*
X185205Y156414D01*
Y154370D01*
X183075D01*
Y149630D01*
X187224D01*
Y152976D01*
X187244Y153075D01*
Y155980D01*
X189980D01*
Y155116D01*
X189914Y154784D01*
Y154370D01*
X188776D01*
Y149630D01*
X189980D01*
Y148370D01*
X188925D01*
Y147020D01*
X187075D01*
Y148370D01*
X182925D01*
Y143630D01*
X184130D01*
Y142370D01*
X183075D01*
Y137630D01*
X187224D01*
Y138980D01*
X188776D01*
Y137630D01*
X192925D01*
Y142370D01*
X192020D01*
Y143630D01*
X193075D01*
Y148370D01*
X192020D01*
Y149630D01*
X192925D01*
Y154370D01*
X192410D01*
X192020Y154850D01*
Y157000D01*
Y182578D01*
X192718Y183276D01*
X192842Y183204D01*
X193605Y183000D01*
X194395D01*
X195158Y183204D01*
X195842Y183599D01*
X196401Y184158D01*
X196796Y184842D01*
X197000Y185605D01*
Y186395D01*
X196796Y187158D01*
X196401Y187842D01*
X195842Y188401D01*
X195158Y188796D01*
X194395Y189000D01*
D02*
G37*
G36*
X86395Y208000D02*
X85605D01*
X84842Y207796D01*
X84158Y207401D01*
X83599Y206842D01*
X83204Y206158D01*
X83167Y206020D01*
X75586D01*
X75196Y205942D01*
X74865Y205721D01*
X74279Y205135D01*
X74058Y204804D01*
X73980Y204414D01*
Y181838D01*
X73480Y181704D01*
X73401Y181842D01*
X72842Y182401D01*
X72158Y182796D01*
X72020Y182833D01*
Y198000D01*
X71942Y198390D01*
X71721Y198721D01*
X69724Y200718D01*
X69796Y200842D01*
X70000Y201605D01*
Y202395D01*
X69796Y203158D01*
X69401Y203842D01*
X68842Y204401D01*
X68158Y204796D01*
X67395Y205000D01*
X66605D01*
X65842Y204796D01*
X65158Y204401D01*
X64599Y203842D01*
X64204Y203158D01*
X64000Y202395D01*
Y201605D01*
X64204Y200842D01*
X64599Y200158D01*
X65158Y199599D01*
X65842Y199204D01*
X66605Y199000D01*
X67395D01*
X68158Y199204D01*
X68282Y199276D01*
X69980Y197578D01*
Y182833D01*
X69842Y182796D01*
X69158Y182401D01*
X68599Y181842D01*
X68204Y181158D01*
X68000Y180395D01*
Y179605D01*
X68204Y178842D01*
X68599Y178158D01*
X69158Y177599D01*
X69842Y177204D01*
X70605Y177000D01*
X71395D01*
X72158Y177204D01*
X72842Y177599D01*
X73401Y178158D01*
X73480Y178296D01*
X73980Y178162D01*
Y161000D01*
X74058Y160610D01*
X74279Y160279D01*
X75279Y159279D01*
X75610Y159058D01*
X76000Y158980D01*
X77167D01*
X77204Y158842D01*
X77599Y158158D01*
X78158Y157599D01*
X78842Y157204D01*
X79605Y157000D01*
X80395D01*
X81158Y157204D01*
X81842Y157599D01*
X82401Y158158D01*
X82796Y158842D01*
X82833Y158980D01*
X96414D01*
X96804Y159058D01*
X97135Y159279D01*
X97721Y159865D01*
X97942Y160196D01*
X98020Y160586D01*
Y165980D01*
X127167D01*
X127204Y165842D01*
X127599Y165158D01*
X128158Y164599D01*
X128842Y164204D01*
X129605Y164000D01*
X130395D01*
X131158Y164204D01*
X131842Y164599D01*
X132401Y165158D01*
X132796Y165842D01*
X133000Y166605D01*
Y167395D01*
X132796Y168158D01*
X132401Y168842D01*
X131842Y169401D01*
X131158Y169796D01*
X130395Y170000D01*
X129605D01*
X128842Y169796D01*
X128158Y169401D01*
X127599Y168842D01*
X127204Y168158D01*
X127167Y168020D01*
X97586D01*
X97196Y167942D01*
X96865Y167721D01*
X96279Y167135D01*
X96058Y166804D01*
X95980Y166414D01*
Y161020D01*
X82833D01*
X82796Y161158D01*
X82401Y161842D01*
X81842Y162401D01*
X81158Y162796D01*
X80395Y163000D01*
X79605D01*
X78842Y162796D01*
X78158Y162401D01*
X77599Y161842D01*
X77204Y161158D01*
X77167Y161020D01*
X76422D01*
X76020Y161422D01*
Y203980D01*
X83167D01*
X83204Y203842D01*
X83599Y203158D01*
X84158Y202599D01*
X84842Y202204D01*
X85605Y202000D01*
X86395D01*
X87158Y202204D01*
X87842Y202599D01*
X88401Y203158D01*
X88796Y203842D01*
X89000Y204605D01*
Y205395D01*
X88796Y206158D01*
X88401Y206842D01*
X87842Y207401D01*
X87158Y207796D01*
X86395Y208000D01*
D02*
G37*
G36*
X544395Y186000D02*
X543605D01*
X542842Y185796D01*
X542158Y185401D01*
X541599Y184842D01*
X541204Y184158D01*
X541000Y183395D01*
Y182605D01*
X541204Y181842D01*
X541599Y181158D01*
X542158Y180599D01*
X542842Y180204D01*
X543605Y180000D01*
X544395D01*
X545158Y180204D01*
X545842Y180599D01*
X546401Y181158D01*
X546796Y181842D01*
X547000Y182605D01*
Y183395D01*
X546796Y184158D01*
X546401Y184842D01*
X545842Y185401D01*
X545158Y185796D01*
X544395Y186000D01*
D02*
G37*
G36*
X200395Y206000D02*
X199605D01*
X198842Y205796D01*
X198158Y205401D01*
X197599Y204842D01*
X197204Y204158D01*
X197000Y203395D01*
Y202605D01*
X197204Y201842D01*
X197599Y201158D01*
X198158Y200599D01*
X198842Y200204D01*
X199605Y200000D01*
X200395D01*
X201158Y200204D01*
X201480Y200391D01*
X201980Y200102D01*
Y182586D01*
X202058Y182196D01*
X202279Y181865D01*
X202865Y181279D01*
X203196Y181058D01*
X203586Y180980D01*
X226167D01*
X226204Y180842D01*
X226599Y180158D01*
X227158Y179599D01*
X227842Y179204D01*
X228605Y179000D01*
X229395D01*
X230158Y179204D01*
X230842Y179599D01*
X231401Y180158D01*
X231796Y180842D01*
X232000Y181605D01*
Y182395D01*
X231796Y183158D01*
X231401Y183842D01*
X230842Y184401D01*
X230158Y184796D01*
X229395Y185000D01*
X228605D01*
X227842Y184796D01*
X227158Y184401D01*
X226599Y183842D01*
X226204Y183158D01*
X226167Y183020D01*
X204020D01*
Y201172D01*
X203942Y201562D01*
X203721Y201892D01*
X203135Y202478D01*
X202992Y202574D01*
X203000Y202605D01*
Y203395D01*
X202796Y204158D01*
X202401Y204842D01*
X201842Y205401D01*
X201158Y205796D01*
X200395Y206000D01*
D02*
G37*
G36*
X495395Y183000D02*
X494605D01*
X493842Y182796D01*
X493158Y182401D01*
X492599Y181842D01*
X492204Y181158D01*
X492000Y180395D01*
Y179605D01*
X492204Y178842D01*
X492599Y178158D01*
X493158Y177599D01*
X493842Y177204D01*
X494605Y177000D01*
X495395D01*
X496158Y177204D01*
X496842Y177599D01*
X497401Y178158D01*
X497796Y178842D01*
X498000Y179605D01*
Y180395D01*
X497796Y181158D01*
X497401Y181842D01*
X496842Y182401D01*
X496158Y182796D01*
X495395Y183000D01*
D02*
G37*
G36*
X30461Y183500D02*
X29539D01*
X28649Y183262D01*
X27851Y182801D01*
X27199Y182149D01*
X26739Y181351D01*
X26500Y180461D01*
Y179539D01*
X26739Y178649D01*
X27199Y177851D01*
X27851Y177199D01*
X28649Y176739D01*
X29539Y176500D01*
X30461D01*
X31351Y176739D01*
X32149Y177199D01*
X32801Y177851D01*
X33261Y178649D01*
X33500Y179539D01*
Y180461D01*
X33261Y181351D01*
X32801Y182149D01*
X32149Y182801D01*
X31351Y183262D01*
X30461Y183500D01*
D02*
G37*
G36*
X451453Y177453D02*
X444547D01*
Y170547D01*
X451453D01*
Y177453D01*
D02*
G37*
G36*
X411453Y175453D02*
X404547D01*
Y168547D01*
X411453D01*
Y175453D01*
D02*
G37*
G36*
X80395Y200000D02*
X79605D01*
X78842Y199796D01*
X78158Y199401D01*
X77599Y198842D01*
X77204Y198158D01*
X77000Y197395D01*
Y196605D01*
X77204Y195842D01*
X77599Y195158D01*
X78158Y194599D01*
X78842Y194204D01*
X78980Y194167D01*
Y172833D01*
X78842Y172796D01*
X78158Y172401D01*
X77599Y171842D01*
X77204Y171158D01*
X77000Y170395D01*
Y169605D01*
X77204Y168842D01*
X77599Y168158D01*
X78158Y167599D01*
X78842Y167204D01*
X79605Y167000D01*
X80395D01*
X81158Y167204D01*
X81842Y167599D01*
X82401Y168158D01*
X82796Y168842D01*
X83000Y169605D01*
Y170395D01*
X82796Y171158D01*
X82401Y171842D01*
X81842Y172401D01*
X81158Y172796D01*
X81020Y172833D01*
Y194167D01*
X81158Y194204D01*
X81842Y194599D01*
X82401Y195158D01*
X82796Y195842D01*
X83000Y196605D01*
Y197395D01*
X82796Y198158D01*
X82401Y198842D01*
X81842Y199401D01*
X81158Y199796D01*
X80395Y200000D01*
D02*
G37*
G36*
X30461Y173500D02*
X29539D01*
X28649Y173261D01*
X27851Y172801D01*
X27199Y172149D01*
X26739Y171351D01*
X26500Y170461D01*
Y169539D01*
X26739Y168649D01*
X27199Y167851D01*
X27851Y167199D01*
X28649Y166738D01*
X29539Y166500D01*
X30461D01*
X31351Y166738D01*
X32149Y167199D01*
X32801Y167851D01*
X33261Y168649D01*
X33500Y169539D01*
Y170461D01*
X33261Y171351D01*
X32801Y172149D01*
X32149Y172801D01*
X31351Y173261D01*
X30461Y173500D01*
D02*
G37*
G36*
X20461D02*
X19539D01*
X18649Y173261D01*
X17851Y172801D01*
X17199Y172149D01*
X16738Y171351D01*
X16500Y170461D01*
Y169539D01*
X16738Y168649D01*
X17199Y167851D01*
X17851Y167199D01*
X18649Y166738D01*
X19539Y166500D01*
X20461D01*
X21351Y166738D01*
X22149Y167199D01*
X22801Y167851D01*
X23261Y168649D01*
X23500Y169539D01*
Y170461D01*
X23261Y171351D01*
X22801Y172149D01*
X22149Y172801D01*
X21351Y173261D01*
X20461Y173500D01*
D02*
G37*
G36*
X354395Y169000D02*
X353605D01*
X352842Y168796D01*
X352158Y168401D01*
X351599Y167842D01*
X351204Y167158D01*
X351000Y166395D01*
Y165605D01*
X351204Y164842D01*
X351599Y164158D01*
X352158Y163599D01*
X352842Y163204D01*
X353605Y163000D01*
X354395D01*
X355158Y163204D01*
X355842Y163599D01*
X356401Y164158D01*
X356796Y164842D01*
X357000Y165605D01*
Y166395D01*
X356796Y167158D01*
X356401Y167842D01*
X355842Y168401D01*
X355158Y168796D01*
X354395Y169000D01*
D02*
G37*
G36*
X30461Y163500D02*
X29539D01*
X28649Y163261D01*
X27851Y162801D01*
X27199Y162149D01*
X26739Y161351D01*
X26500Y160461D01*
Y159539D01*
X26739Y158649D01*
X27199Y157851D01*
X27851Y157199D01*
X28649Y156738D01*
X29539Y156500D01*
X30461D01*
X31351Y156738D01*
X32149Y157199D01*
X32801Y157851D01*
X33261Y158649D01*
X33500Y159539D01*
Y160461D01*
X33261Y161351D01*
X32801Y162149D01*
X32149Y162801D01*
X31351Y163261D01*
X30461Y163500D01*
D02*
G37*
G36*
X20461D02*
X19539D01*
X18649Y163261D01*
X17851Y162801D01*
X17199Y162149D01*
X16738Y161351D01*
X16500Y160461D01*
Y159539D01*
X16738Y158649D01*
X17199Y157851D01*
X17851Y157199D01*
X18649Y156738D01*
X19539Y156500D01*
X20461D01*
X21351Y156738D01*
X22149Y157199D01*
X22801Y157851D01*
X23261Y158649D01*
X23500Y159539D01*
Y160461D01*
X23261Y161351D01*
X22801Y162149D01*
X22149Y162801D01*
X21351Y163261D01*
X20461Y163500D01*
D02*
G37*
G36*
X477395Y156000D02*
X476605D01*
X475842Y155796D01*
X475158Y155401D01*
X474599Y154842D01*
X474204Y154158D01*
X474000Y153395D01*
Y152605D01*
X474204Y151842D01*
X474599Y151158D01*
X475158Y150599D01*
X475842Y150204D01*
X476605Y150000D01*
X477395D01*
X478158Y150204D01*
X478842Y150599D01*
X479401Y151158D01*
X479796Y151842D01*
X480000Y152605D01*
Y153395D01*
X479796Y154158D01*
X479401Y154842D01*
X478842Y155401D01*
X478158Y155796D01*
X477395Y156000D01*
D02*
G37*
G36*
X465453Y155453D02*
X458547D01*
Y148547D01*
X465453D01*
Y155453D01*
D02*
G37*
G36*
X451453D02*
X444547D01*
Y148547D01*
X451453D01*
Y155453D01*
D02*
G37*
G36*
X30461Y153500D02*
X29539D01*
X28649Y153261D01*
X27851Y152801D01*
X27199Y152149D01*
X26739Y151351D01*
X26500Y150461D01*
Y149539D01*
X26739Y148649D01*
X27199Y147851D01*
X27851Y147199D01*
X28649Y146739D01*
X29539Y146500D01*
X30461D01*
X31351Y146739D01*
X32149Y147199D01*
X32801Y147851D01*
X33261Y148649D01*
X33500Y149539D01*
Y150461D01*
X33261Y151351D01*
X32801Y152149D01*
X32149Y152801D01*
X31351Y153261D01*
X30461Y153500D01*
D02*
G37*
G36*
X20461D02*
X19539D01*
X18649Y153261D01*
X17851Y152801D01*
X17199Y152149D01*
X16738Y151351D01*
X16500Y150461D01*
Y149539D01*
X16738Y148649D01*
X17199Y147851D01*
X17851Y147199D01*
X18649Y146739D01*
X19539Y146500D01*
X20461D01*
X21351Y146739D01*
X22149Y147199D01*
X22801Y147851D01*
X23261Y148649D01*
X23500Y149539D01*
Y150461D01*
X23261Y151351D01*
X22801Y152149D01*
X22149Y152801D01*
X21351Y153261D01*
X20461Y153500D01*
D02*
G37*
G36*
X354395Y152000D02*
X353605D01*
X352842Y151796D01*
X352158Y151401D01*
X351599Y150842D01*
X351204Y150158D01*
X351000Y149395D01*
Y148605D01*
X351204Y147842D01*
X351599Y147158D01*
X352158Y146599D01*
X352842Y146204D01*
X353605Y146000D01*
X354395D01*
X355158Y146204D01*
X355842Y146599D01*
X356401Y147158D01*
X356796Y147842D01*
X357000Y148605D01*
Y149395D01*
X356796Y150158D01*
X356401Y150842D01*
X355842Y151401D01*
X355158Y151796D01*
X354395Y152000D01*
D02*
G37*
G36*
X298453Y149453D02*
X291547D01*
Y142547D01*
X298453D01*
Y149453D01*
D02*
G37*
G36*
X142395Y211000D02*
X141605D01*
X140842Y210796D01*
X140158Y210401D01*
X139599Y209842D01*
X139204Y209158D01*
X139000Y208395D01*
Y207605D01*
X139204Y206842D01*
X139599Y206158D01*
X140158Y205599D01*
X140842Y205204D01*
X140980Y205167D01*
Y139020D01*
X125833D01*
X125796Y139158D01*
X125401Y139842D01*
X124842Y140401D01*
X124158Y140796D01*
X123395Y141000D01*
X122605D01*
X121842Y140796D01*
X121158Y140401D01*
X120599Y139842D01*
X120204Y139158D01*
X120000Y138395D01*
Y137605D01*
X120204Y136842D01*
X120599Y136158D01*
X121158Y135599D01*
X121842Y135204D01*
X122605Y135000D01*
X123395D01*
X124158Y135204D01*
X124842Y135599D01*
X125401Y136158D01*
X125796Y136842D01*
X125833Y136980D01*
X141414D01*
X141804Y137058D01*
X142135Y137279D01*
X142721Y137865D01*
X142942Y138196D01*
X143020Y138586D01*
Y205167D01*
X143158Y205204D01*
X143842Y205599D01*
X144401Y206158D01*
X144796Y206842D01*
X145000Y207605D01*
Y208395D01*
X144796Y209158D01*
X144401Y209842D01*
X143842Y210401D01*
X143158Y210796D01*
X142395Y211000D01*
D02*
G37*
G36*
X30461Y143500D02*
X29539D01*
X28649Y143262D01*
X27851Y142801D01*
X27199Y142149D01*
X26739Y141351D01*
X26500Y140461D01*
Y139539D01*
X26739Y138649D01*
X27199Y137851D01*
X27851Y137199D01*
X28649Y136739D01*
X29539Y136500D01*
X30461D01*
X31351Y136739D01*
X32149Y137199D01*
X32801Y137851D01*
X33261Y138649D01*
X33500Y139539D01*
Y140461D01*
X33261Y141351D01*
X32801Y142149D01*
X32149Y142801D01*
X31351Y143262D01*
X30461Y143500D01*
D02*
G37*
G36*
X20461D02*
X19539D01*
X18649Y143262D01*
X17851Y142801D01*
X17199Y142149D01*
X16738Y141351D01*
X16500Y140461D01*
Y139539D01*
X16738Y138649D01*
X17199Y137851D01*
X17851Y137199D01*
X18649Y136739D01*
X19539Y136500D01*
X20461D01*
X21351Y136739D01*
X22149Y137199D01*
X22801Y137851D01*
X23261Y138649D01*
X23500Y139539D01*
Y140461D01*
X23261Y141351D01*
X22801Y142149D01*
X22149Y142801D01*
X21351Y143262D01*
X20461Y143500D01*
D02*
G37*
G36*
X199224Y154370D02*
X195075D01*
Y149630D01*
X196130D01*
Y148370D01*
X195224D01*
Y143630D01*
X196130D01*
Y142370D01*
X195075D01*
Y137630D01*
X196130D01*
Y136020D01*
X179870D01*
Y137630D01*
X180925D01*
Y142370D01*
X179870D01*
Y143630D01*
X180776D01*
Y148370D01*
X179870D01*
Y149630D01*
X180925D01*
Y154370D01*
X176776D01*
Y149630D01*
X177831D01*
Y148370D01*
X176626D01*
Y143630D01*
X177831D01*
Y142370D01*
X176776D01*
Y137630D01*
X177831D01*
Y135586D01*
X177908Y135196D01*
X178129Y134865D01*
X178715Y134279D01*
X179046Y134058D01*
X179436Y133980D01*
X196564D01*
X196954Y134058D01*
X197285Y134279D01*
X197871Y134865D01*
X198092Y135196D01*
X198169Y135586D01*
Y137630D01*
X199224D01*
Y138980D01*
X215578D01*
X215980Y138578D01*
Y136833D01*
X215842Y136796D01*
X215158Y136401D01*
X214599Y135842D01*
X214204Y135158D01*
X214000Y134395D01*
Y133605D01*
X214204Y132842D01*
X214599Y132158D01*
X215158Y131599D01*
X215842Y131204D01*
X216605Y131000D01*
X217395D01*
X218158Y131204D01*
X218842Y131599D01*
X219401Y132158D01*
X219796Y132842D01*
X220000Y133605D01*
Y134395D01*
X219796Y135158D01*
X219401Y135842D01*
X218842Y136401D01*
X218158Y136796D01*
X218020Y136833D01*
Y139000D01*
X217942Y139390D01*
X217721Y139721D01*
X216721Y140721D01*
X216390Y140942D01*
X216000Y141020D01*
X199224D01*
Y142370D01*
X198169D01*
Y143630D01*
X199374D01*
Y148370D01*
X198169D01*
Y149630D01*
X199224D01*
Y154370D01*
D02*
G37*
G36*
X544395Y136000D02*
X543605D01*
X542842Y135796D01*
X542158Y135401D01*
X541599Y134842D01*
X541204Y134158D01*
X541000Y133395D01*
Y132605D01*
X541204Y131842D01*
X541599Y131158D01*
X542158Y130599D01*
X542842Y130204D01*
X543605Y130000D01*
X544395D01*
X545158Y130204D01*
X545842Y130599D01*
X546401Y131158D01*
X546796Y131842D01*
X547000Y132605D01*
Y133395D01*
X546796Y134158D01*
X546401Y134842D01*
X545842Y135401D01*
X545158Y135796D01*
X544395Y136000D01*
D02*
G37*
G36*
X411453Y134453D02*
X404547D01*
Y127547D01*
X411453D01*
Y134453D01*
D02*
G37*
G36*
X495395Y133000D02*
X494605D01*
X493842Y132796D01*
X493158Y132401D01*
X492599Y131842D01*
X492204Y131158D01*
X492000Y130395D01*
Y129605D01*
X492204Y128842D01*
X492599Y128158D01*
X493158Y127599D01*
X493842Y127204D01*
X494605Y127000D01*
X495395D01*
X496158Y127204D01*
X496842Y127599D01*
X497401Y128158D01*
X497796Y128842D01*
X498000Y129605D01*
Y130395D01*
X497796Y131158D01*
X497401Y131842D01*
X496842Y132401D01*
X496158Y132796D01*
X495395Y133000D01*
D02*
G37*
G36*
X30461Y133500D02*
X29539D01*
X28649Y133262D01*
X27851Y132801D01*
X27199Y132149D01*
X26739Y131351D01*
X26500Y130461D01*
Y129539D01*
X26739Y128649D01*
X27199Y127851D01*
X27851Y127199D01*
X28649Y126739D01*
X29539Y126500D01*
X30461D01*
X31351Y126739D01*
X32149Y127199D01*
X32801Y127851D01*
X33261Y128649D01*
X33500Y129539D01*
Y130461D01*
X33261Y131351D01*
X32801Y132149D01*
X32149Y132801D01*
X31351Y133262D01*
X30461Y133500D01*
D02*
G37*
G36*
X20461D02*
X19539D01*
X18649Y133262D01*
X17851Y132801D01*
X17199Y132149D01*
X16738Y131351D01*
X16500Y130461D01*
Y129539D01*
X16738Y128649D01*
X17199Y127851D01*
X17851Y127199D01*
X18649Y126739D01*
X19539Y126500D01*
X20461D01*
X21351Y126739D01*
X22149Y127199D01*
X22801Y127851D01*
X23261Y128649D01*
X23500Y129539D01*
Y130461D01*
X23261Y131351D01*
X22801Y132149D01*
X22149Y132801D01*
X21351Y133262D01*
X20461Y133500D01*
D02*
G37*
G36*
X354395Y129000D02*
X353605D01*
X352842Y128796D01*
X352158Y128401D01*
X351599Y127842D01*
X351204Y127158D01*
X351000Y126395D01*
Y125605D01*
X351204Y124842D01*
X351599Y124158D01*
X352158Y123599D01*
X352842Y123204D01*
X353605Y123000D01*
X354395D01*
X355158Y123204D01*
X355842Y123599D01*
X356401Y124158D01*
X356796Y124842D01*
X357000Y125605D01*
Y126395D01*
X356796Y127158D01*
X356401Y127842D01*
X355842Y128401D01*
X355158Y128796D01*
X354395Y129000D01*
D02*
G37*
G36*
X451453Y127453D02*
X444547D01*
Y120547D01*
X451453D01*
Y127453D01*
D02*
G37*
G36*
X30461Y123500D02*
X29539D01*
X28649Y123261D01*
X27851Y122801D01*
X27199Y122149D01*
X26739Y121351D01*
X26500Y120461D01*
Y119539D01*
X26739Y118649D01*
X27199Y117851D01*
X27851Y117199D01*
X28649Y116738D01*
X29539Y116500D01*
X30461D01*
X31351Y116738D01*
X32149Y117199D01*
X32801Y117851D01*
X33261Y118649D01*
X33500Y119539D01*
Y120461D01*
X33261Y121351D01*
X32801Y122149D01*
X32149Y122801D01*
X31351Y123261D01*
X30461Y123500D01*
D02*
G37*
G36*
X20461D02*
X19539D01*
X18649Y123261D01*
X17851Y122801D01*
X17199Y122149D01*
X16738Y121351D01*
X16500Y120461D01*
Y119539D01*
X16738Y118649D01*
X17199Y117851D01*
X17851Y117199D01*
X18649Y116738D01*
X19539Y116500D01*
X20461D01*
X21351Y116738D01*
X22149Y117199D01*
X22801Y117851D01*
X23261Y118649D01*
X23500Y119539D01*
Y120461D01*
X23261Y121351D01*
X22801Y122149D01*
X22149Y122801D01*
X21351Y123261D01*
X20461Y123500D01*
D02*
G37*
G36*
X288545Y138150D02*
X287755D01*
X286992Y137945D01*
X286308Y137550D01*
X285749Y136992D01*
X285354Y136308D01*
X285150Y135545D01*
Y134755D01*
X285354Y133992D01*
X285749Y133308D01*
X286308Y132749D01*
X286992Y132354D01*
X287130Y132317D01*
Y121873D01*
X286842Y121796D01*
X286158Y121401D01*
X285599Y120842D01*
X285204Y120158D01*
X285000Y119395D01*
Y118605D01*
X285204Y117842D01*
X285599Y117158D01*
X286158Y116599D01*
X286842Y116204D01*
X287605Y116000D01*
X288395D01*
X289158Y116204D01*
X289842Y116599D01*
X290401Y117158D01*
X290796Y117842D01*
X291000Y118605D01*
Y119395D01*
X290796Y120158D01*
X290401Y120842D01*
X289842Y121401D01*
X289169Y121789D01*
Y132317D01*
X289308Y132354D01*
X289992Y132749D01*
X290550Y133308D01*
X290945Y133992D01*
X291150Y134755D01*
Y135545D01*
X290945Y136308D01*
X290550Y136992D01*
X289992Y137550D01*
X289308Y137945D01*
X288545Y138150D01*
D02*
G37*
G36*
X391395Y268000D02*
X390605D01*
X389842Y267796D01*
X389158Y267401D01*
X388599Y266842D01*
X388204Y266158D01*
X388000Y265395D01*
Y264605D01*
X388204Y263842D01*
X388599Y263158D01*
X389158Y262599D01*
X389842Y262204D01*
X390605Y262000D01*
X391395D01*
X391495Y262027D01*
X391980Y261640D01*
Y233833D01*
X391842Y233796D01*
X391158Y233401D01*
X390599Y232842D01*
X390204Y232158D01*
X390000Y231395D01*
Y230605D01*
X390204Y229842D01*
X390599Y229158D01*
X391158Y228599D01*
X391842Y228204D01*
X391980Y228167D01*
Y191833D01*
X391842Y191796D01*
X391158Y191401D01*
X390599Y190842D01*
X390204Y190158D01*
X390000Y189395D01*
Y188605D01*
X390204Y187842D01*
X390599Y187158D01*
X391158Y186599D01*
X391842Y186204D01*
X391980Y186167D01*
Y151833D01*
X391842Y151796D01*
X391158Y151401D01*
X390599Y150842D01*
X390204Y150158D01*
X390000Y149395D01*
Y148605D01*
X390204Y147842D01*
X390599Y147158D01*
X391158Y146599D01*
X391842Y146204D01*
X391980Y146167D01*
Y111833D01*
X391842Y111796D01*
X391158Y111401D01*
X390599Y110842D01*
X390204Y110158D01*
X390000Y109395D01*
Y108605D01*
X390204Y107842D01*
X390599Y107158D01*
X391158Y106599D01*
X391842Y106204D01*
X392605Y106000D01*
X393395D01*
X394158Y106204D01*
X394842Y106599D01*
X395401Y107158D01*
X395796Y107842D01*
X396000Y108605D01*
Y109395D01*
X395796Y110158D01*
X395401Y110842D01*
X394842Y111401D01*
X394158Y111796D01*
X394020Y111833D01*
Y146167D01*
X394158Y146204D01*
X394842Y146599D01*
X395401Y147158D01*
X395796Y147842D01*
X396000Y148605D01*
Y149395D01*
X395796Y150158D01*
X395401Y150842D01*
X394842Y151401D01*
X394158Y151796D01*
X394020Y151833D01*
Y186167D01*
X394158Y186204D01*
X394842Y186599D01*
X395401Y187158D01*
X395796Y187842D01*
X396000Y188605D01*
Y189395D01*
X395796Y190158D01*
X395401Y190842D01*
X394842Y191401D01*
X394158Y191796D01*
X394020Y191833D01*
Y228167D01*
X394158Y228204D01*
X394842Y228599D01*
X395401Y229158D01*
X395796Y229842D01*
X396000Y230605D01*
Y231395D01*
X395796Y232158D01*
X395401Y232842D01*
X394842Y233401D01*
X394158Y233796D01*
X394020Y233833D01*
Y262414D01*
X393942Y262804D01*
X393721Y263135D01*
X393510Y263347D01*
X393796Y263842D01*
X394000Y264605D01*
Y265395D01*
X393796Y266158D01*
X393401Y266842D01*
X392842Y267401D01*
X392158Y267796D01*
X391395Y268000D01*
D02*
G37*
G36*
X354395Y112000D02*
X353605D01*
X352842Y111796D01*
X352158Y111401D01*
X351599Y110842D01*
X351204Y110158D01*
X351000Y109395D01*
Y108605D01*
X351204Y107842D01*
X351599Y107158D01*
X352158Y106599D01*
X352842Y106204D01*
X353605Y106000D01*
X354395D01*
X355158Y106204D01*
X355842Y106599D01*
X356401Y107158D01*
X356796Y107842D01*
X357000Y108605D01*
Y109395D01*
X356796Y110158D01*
X356401Y110842D01*
X355842Y111401D01*
X355158Y111796D01*
X354395Y112000D01*
D02*
G37*
G36*
X298453Y107453D02*
X291547D01*
Y100547D01*
X298453D01*
Y107453D01*
D02*
G37*
G36*
X477395Y106000D02*
X476605D01*
X475842Y105796D01*
X475158Y105401D01*
X474599Y104842D01*
X474204Y104158D01*
X474000Y103395D01*
Y102605D01*
X474204Y101842D01*
X474599Y101158D01*
X475158Y100599D01*
X475842Y100204D01*
X476605Y100000D01*
X477395D01*
X478158Y100204D01*
X478842Y100599D01*
X479401Y101158D01*
X479796Y101842D01*
X480000Y102605D01*
Y103395D01*
X479796Y104158D01*
X479401Y104842D01*
X478842Y105401D01*
X478158Y105796D01*
X477395Y106000D01*
D02*
G37*
G36*
X465453Y105453D02*
X458547D01*
Y98547D01*
X465453D01*
Y105453D01*
D02*
G37*
G36*
X451453D02*
X444547D01*
Y98547D01*
X451453D01*
Y105453D01*
D02*
G37*
G36*
X172395Y103000D02*
X171605D01*
X170842Y102796D01*
X170158Y102401D01*
X169599Y101842D01*
X169204Y101158D01*
X169000Y100395D01*
Y99605D01*
X169204Y98842D01*
X169599Y98158D01*
X170158Y97599D01*
X170842Y97204D01*
X171605Y97000D01*
X172395D01*
X173158Y97204D01*
X173842Y97599D01*
X174401Y98158D01*
X174796Y98842D01*
X175000Y99605D01*
Y100395D01*
X174796Y101158D01*
X174401Y101842D01*
X173842Y102401D01*
X173158Y102796D01*
X172395Y103000D01*
D02*
G37*
G36*
X207000Y312020D02*
X178586D01*
X178196Y311942D01*
X177865Y311721D01*
X177279Y311135D01*
X177058Y310804D01*
X176980Y310414D01*
Y289833D01*
X176842Y289796D01*
X176158Y289401D01*
X175599Y288842D01*
X175204Y288158D01*
X175000Y287395D01*
Y286605D01*
X175204Y285842D01*
X175599Y285158D01*
X176158Y284599D01*
X176842Y284204D01*
X177605Y284000D01*
X178395D01*
X179158Y284204D01*
X179842Y284599D01*
X180401Y285158D01*
X180796Y285842D01*
X181000Y286605D01*
Y287395D01*
X180796Y288158D01*
X180401Y288842D01*
X179842Y289401D01*
X179158Y289796D01*
X179020Y289833D01*
Y309980D01*
X206578D01*
X207980Y308578D01*
Y205833D01*
X207842Y205796D01*
X207158Y205401D01*
X206599Y204842D01*
X206204Y204158D01*
X206000Y203395D01*
Y202605D01*
X206204Y201842D01*
X206599Y201158D01*
X207158Y200599D01*
X207842Y200204D01*
X208605Y200000D01*
X209395D01*
X210158Y200204D01*
X210842Y200599D01*
X211401Y201158D01*
X211796Y201842D01*
X211833Y201980D01*
X232992D01*
X233980Y200992D01*
Y94833D01*
X233842Y94796D01*
X233158Y94401D01*
X232599Y93842D01*
X232204Y93158D01*
X232000Y92395D01*
Y91605D01*
X232204Y90842D01*
X232599Y90158D01*
X233158Y89599D01*
X233842Y89204D01*
X234605Y89000D01*
X235395D01*
X236158Y89204D01*
X236842Y89599D01*
X237401Y90158D01*
X237796Y90842D01*
X238000Y91605D01*
Y92395D01*
X237796Y93158D01*
X237401Y93842D01*
X236842Y94401D01*
X236158Y94796D01*
X236020Y94833D01*
Y201414D01*
X235942Y201804D01*
X235721Y202135D01*
X234135Y203721D01*
X233804Y203942D01*
X233414Y204020D01*
X211833D01*
X211796Y204158D01*
X211401Y204842D01*
X210842Y205401D01*
X210158Y205796D01*
X210020Y205833D01*
Y309000D01*
X209942Y309390D01*
X209721Y309721D01*
X207721Y311721D01*
X207390Y311942D01*
X207000Y312020D01*
D02*
G37*
G36*
X398395Y273000D02*
X397605D01*
X396842Y272796D01*
X396158Y272401D01*
X395599Y271842D01*
X395204Y271158D01*
X395000Y270395D01*
Y269605D01*
X395204Y268842D01*
X395599Y268158D01*
X396158Y267599D01*
X396842Y267204D01*
X396980Y267167D01*
Y239833D01*
X396842Y239796D01*
X396158Y239401D01*
X395599Y238842D01*
X395204Y238158D01*
X395000Y237395D01*
Y236605D01*
X395204Y235842D01*
X395599Y235158D01*
X396158Y234599D01*
X396842Y234204D01*
X396980Y234167D01*
Y197833D01*
X396842Y197796D01*
X396158Y197401D01*
X395599Y196842D01*
X395204Y196158D01*
X395000Y195395D01*
Y194605D01*
X395204Y193842D01*
X395599Y193158D01*
X396158Y192599D01*
X396842Y192204D01*
X396980Y192167D01*
Y158833D01*
X396842Y158796D01*
X396158Y158401D01*
X395599Y157842D01*
X395204Y157158D01*
X395000Y156395D01*
Y155605D01*
X395204Y154842D01*
X395599Y154158D01*
X396158Y153599D01*
X396842Y153204D01*
X396980Y153167D01*
Y117833D01*
X396842Y117796D01*
X396158Y117401D01*
X395599Y116842D01*
X395204Y116158D01*
X395000Y115395D01*
Y114605D01*
X395204Y113842D01*
X395599Y113158D01*
X396158Y112599D01*
X396842Y112204D01*
X397605Y112000D01*
X398395D01*
X399158Y112204D01*
X399842Y112599D01*
X400401Y113158D01*
X400796Y113842D01*
X400833Y113980D01*
X410980D01*
Y93586D01*
X411041Y93283D01*
X410599Y92842D01*
X410204Y92158D01*
X410000Y91395D01*
Y90605D01*
X410204Y89842D01*
X410599Y89158D01*
X411158Y88599D01*
X411842Y88204D01*
X412605Y88000D01*
X413395D01*
X414158Y88204D01*
X414842Y88599D01*
X415401Y89158D01*
X415796Y89842D01*
X416000Y90605D01*
Y91395D01*
X415796Y92158D01*
X415401Y92842D01*
X414842Y93401D01*
X414158Y93796D01*
X413395Y94000D01*
X413020D01*
Y114414D01*
X412942Y114804D01*
X412721Y115135D01*
X412135Y115721D01*
X411804Y115942D01*
X411414Y116020D01*
X400833D01*
X400796Y116158D01*
X400401Y116842D01*
X399842Y117401D01*
X399158Y117796D01*
X399020Y117833D01*
Y153167D01*
X399158Y153204D01*
X399842Y153599D01*
X400401Y154158D01*
X400796Y154842D01*
X401000Y155605D01*
Y156395D01*
X400796Y157158D01*
X400401Y157842D01*
X399842Y158401D01*
X399158Y158796D01*
X399020Y158833D01*
Y192167D01*
X399158Y192204D01*
X399842Y192599D01*
X400401Y193158D01*
X400796Y193842D01*
X401000Y194605D01*
Y195395D01*
X400796Y196158D01*
X400401Y196842D01*
X399842Y197401D01*
X399158Y197796D01*
X399020Y197833D01*
Y234167D01*
X399158Y234204D01*
X399842Y234599D01*
X400401Y235158D01*
X400796Y235842D01*
X401000Y236605D01*
Y237395D01*
X400796Y238158D01*
X400401Y238842D01*
X399842Y239401D01*
X399158Y239796D01*
X399020Y239833D01*
Y267167D01*
X399158Y267204D01*
X399842Y267599D01*
X400401Y268158D01*
X400796Y268842D01*
X401000Y269605D01*
Y270395D01*
X400796Y271158D01*
X400401Y271842D01*
X399842Y272401D01*
X399158Y272796D01*
X398395Y273000D01*
D02*
G37*
G36*
X164395Y94000D02*
X163605D01*
X162842Y93796D01*
X162158Y93401D01*
X161599Y92842D01*
X161204Y92158D01*
X161000Y91395D01*
Y90605D01*
X161204Y89842D01*
X161599Y89158D01*
X162158Y88599D01*
X162842Y88204D01*
X163605Y88000D01*
X164229D01*
X164400Y87744D01*
X165865Y86279D01*
X166196Y86058D01*
X166586Y85980D01*
X202167D01*
X202204Y85842D01*
X202599Y85158D01*
X203158Y84599D01*
X203842Y84204D01*
X204605Y84000D01*
X205395D01*
X206158Y84204D01*
X206842Y84599D01*
X207401Y85158D01*
X207796Y85842D01*
X208000Y86605D01*
Y87395D01*
X207796Y88158D01*
X207401Y88842D01*
X206842Y89401D01*
X206158Y89796D01*
X205395Y90000D01*
X204605D01*
X203842Y89796D01*
X203158Y89401D01*
X202599Y88842D01*
X202204Y88158D01*
X202167Y88020D01*
X167008D01*
X166135Y88893D01*
X166401Y89158D01*
X166796Y89842D01*
X167000Y90605D01*
Y91395D01*
X166796Y92158D01*
X166401Y92842D01*
X165842Y93401D01*
X165158Y93796D01*
X164395Y94000D01*
D02*
G37*
G36*
X391395Y89000D02*
X390605D01*
X389842Y88796D01*
X389158Y88401D01*
X388599Y87842D01*
X388204Y87158D01*
X388000Y86395D01*
Y85605D01*
X388204Y84842D01*
X388599Y84158D01*
X389158Y83599D01*
X389842Y83204D01*
X390605Y83000D01*
X391395D01*
X392158Y83204D01*
X392842Y83599D01*
X393401Y84158D01*
X393796Y84842D01*
X394000Y85605D01*
Y86395D01*
X393796Y87158D01*
X393401Y87842D01*
X392842Y88401D01*
X392158Y88796D01*
X391395Y89000D01*
D02*
G37*
G36*
X297395Y88000D02*
X296605D01*
X295842Y87796D01*
X295158Y87401D01*
X294599Y86842D01*
X294204Y86158D01*
X294000Y85395D01*
Y84605D01*
X294204Y83842D01*
X294599Y83158D01*
X295158Y82599D01*
X295842Y82204D01*
X296605Y82000D01*
X297395D01*
X298158Y82204D01*
X298842Y82599D01*
X299401Y83158D01*
X299796Y83842D01*
X300000Y84605D01*
Y85395D01*
X299796Y86158D01*
X299401Y86842D01*
X298842Y87401D01*
X298158Y87796D01*
X297395Y88000D01*
D02*
G37*
G36*
X544395Y87000D02*
X543605D01*
X542842Y86796D01*
X542158Y86401D01*
X541599Y85842D01*
X541204Y85158D01*
X541000Y84395D01*
Y83605D01*
X541204Y82842D01*
X541599Y82158D01*
X542158Y81599D01*
X542842Y81204D01*
X543605Y81000D01*
X544395D01*
X545158Y81204D01*
X545842Y81599D01*
X546401Y82158D01*
X546796Y82842D01*
X547000Y83605D01*
Y84395D01*
X546796Y85158D01*
X546401Y85842D01*
X545842Y86401D01*
X545158Y86796D01*
X544395Y87000D01*
D02*
G37*
G36*
X226395Y101000D02*
X225605D01*
X224842Y100796D01*
X224158Y100401D01*
X223599Y99842D01*
X223204Y99158D01*
X223000Y98395D01*
Y97605D01*
X223204Y96842D01*
X223599Y96158D01*
X224158Y95599D01*
X224842Y95204D01*
X224980Y95167D01*
Y83833D01*
X224842Y83796D01*
X224158Y83401D01*
X223599Y82842D01*
X223204Y82158D01*
X223000Y81395D01*
Y80605D01*
X223204Y79842D01*
X223599Y79158D01*
X224158Y78599D01*
X224842Y78204D01*
X225605Y78000D01*
X226395D01*
X227158Y78204D01*
X227842Y78599D01*
X228401Y79158D01*
X228796Y79842D01*
X229000Y80605D01*
Y81395D01*
X228796Y82158D01*
X228401Y82842D01*
X227842Y83401D01*
X227158Y83796D01*
X227020Y83833D01*
Y95167D01*
X227158Y95204D01*
X227842Y95599D01*
X228401Y96158D01*
X228796Y96842D01*
X229000Y97605D01*
Y98395D01*
X228796Y99158D01*
X228401Y99842D01*
X227842Y100401D01*
X227158Y100796D01*
X226395Y101000D01*
D02*
G37*
G36*
X495395Y83000D02*
X494605D01*
X493842Y82796D01*
X493158Y82401D01*
X492599Y81842D01*
X492204Y81158D01*
X492000Y80395D01*
Y79605D01*
X492204Y78842D01*
X492599Y78158D01*
X493158Y77599D01*
X493842Y77204D01*
X494605Y77000D01*
X495395D01*
X496158Y77204D01*
X496842Y77599D01*
X497401Y78158D01*
X497796Y78842D01*
X498000Y79605D01*
Y80395D01*
X497796Y81158D01*
X497401Y81842D01*
X496842Y82401D01*
X496158Y82796D01*
X495395Y83000D01*
D02*
G37*
G36*
X226395Y137000D02*
X225605D01*
X224842Y136796D01*
X224158Y136401D01*
X223599Y135842D01*
X223204Y135158D01*
X223000Y134395D01*
Y133605D01*
X223204Y132842D01*
X223599Y132158D01*
X224158Y131599D01*
X224842Y131204D01*
X224980Y131167D01*
Y123422D01*
X216279Y114721D01*
X216058Y114390D01*
X215980Y114000D01*
Y78422D01*
X213400Y75842D01*
X212842Y76401D01*
X212158Y76796D01*
X211395Y77000D01*
X210605D01*
X209842Y76796D01*
X209158Y76401D01*
X208599Y75842D01*
X208204Y75158D01*
X208000Y74395D01*
Y73605D01*
X208204Y72842D01*
X208599Y72158D01*
X209158Y71599D01*
X209842Y71204D01*
X210605Y71000D01*
X211395D01*
X212158Y71204D01*
X212842Y71599D01*
X213401Y72158D01*
X213796Y72842D01*
X214000Y73605D01*
Y73792D01*
X214156Y73823D01*
X214486Y74044D01*
X217721Y77279D01*
X217942Y77610D01*
X218020Y78000D01*
Y113578D01*
X226721Y122279D01*
X226942Y122610D01*
X227020Y123000D01*
Y131167D01*
X227158Y131204D01*
X227842Y131599D01*
X228401Y132158D01*
X228796Y132842D01*
X229000Y133605D01*
Y134395D01*
X228796Y135158D01*
X228401Y135842D01*
X227842Y136401D01*
X227158Y136796D01*
X226395Y137000D01*
D02*
G37*
G36*
X451453Y77453D02*
X444547D01*
Y70547D01*
X451453D01*
Y77453D01*
D02*
G37*
G36*
X169895Y71400D02*
X169105D01*
X168342Y71196D01*
X167658Y70801D01*
X167099Y70242D01*
X166704Y69558D01*
X166500Y68795D01*
Y68005D01*
X166704Y67242D01*
X167099Y66558D01*
X167658Y65999D01*
X168342Y65604D01*
X169105Y65400D01*
X169895D01*
X170658Y65604D01*
X171342Y65999D01*
X171901Y66558D01*
X172296Y67242D01*
X172500Y68005D01*
Y68795D01*
X172296Y69558D01*
X171901Y70242D01*
X171342Y70801D01*
X170658Y71196D01*
X169895Y71400D01*
D02*
G37*
G36*
X39395Y64000D02*
X38605D01*
X37842Y63796D01*
X37158Y63401D01*
X36599Y62842D01*
X36204Y62158D01*
X36000Y61395D01*
Y60605D01*
X36204Y59842D01*
X36599Y59158D01*
X37158Y58599D01*
X37842Y58204D01*
X38605Y58000D01*
X39395D01*
X40158Y58204D01*
X40842Y58599D01*
X41401Y59158D01*
X41796Y59842D01*
X42000Y60605D01*
Y61395D01*
X41796Y62158D01*
X41401Y62842D01*
X40842Y63401D01*
X40158Y63796D01*
X39395Y64000D01*
D02*
G37*
G36*
X347395Y74000D02*
X346605D01*
X345842Y73796D01*
X345158Y73401D01*
X344599Y72842D01*
X344204Y72158D01*
X344000Y71395D01*
Y70605D01*
X344204Y69842D01*
X344599Y69158D01*
X345158Y68599D01*
X345842Y68204D01*
X346605Y68000D01*
X347395D01*
X348158Y68204D01*
X348842Y68599D01*
X349401Y69158D01*
X349523Y69370D01*
X350123Y69435D01*
X350980Y68578D01*
Y60833D01*
X350842Y60796D01*
X350158Y60401D01*
X349599Y59842D01*
X349204Y59158D01*
X349000Y58395D01*
Y57605D01*
X349204Y56842D01*
X349599Y56158D01*
X350158Y55599D01*
X350842Y55204D01*
X351605Y55000D01*
X352395D01*
X353158Y55204D01*
X353842Y55599D01*
X354401Y56158D01*
X354796Y56842D01*
X355000Y57605D01*
Y58395D01*
X354796Y59158D01*
X354401Y59842D01*
X353842Y60401D01*
X353158Y60796D01*
X353020Y60833D01*
Y69000D01*
X352942Y69390D01*
X352721Y69721D01*
X351049Y71393D01*
X350719Y71614D01*
X350328Y71691D01*
X349921D01*
X349796Y72158D01*
X349401Y72842D01*
X348842Y73401D01*
X348158Y73796D01*
X347395Y74000D01*
D02*
G37*
G36*
X391395Y57000D02*
X390605D01*
X389842Y56796D01*
X389158Y56401D01*
X388599Y55842D01*
X388204Y55158D01*
X388000Y54395D01*
Y53605D01*
X388204Y52842D01*
X388599Y52158D01*
X389158Y51599D01*
X389842Y51204D01*
X390605Y51000D01*
X391395D01*
X392158Y51204D01*
X392842Y51599D01*
X393401Y52158D01*
X393796Y52842D01*
X394000Y53605D01*
Y54395D01*
X393796Y55158D01*
X393401Y55842D01*
X392842Y56401D01*
X392158Y56796D01*
X391395Y57000D01*
D02*
G37*
G36*
X75395D02*
X74605D01*
X73842Y56796D01*
X73158Y56401D01*
X72599Y55842D01*
X72204Y55158D01*
X72000Y54395D01*
Y53605D01*
X72204Y52842D01*
X72599Y52158D01*
X73158Y51599D01*
X73842Y51204D01*
X74605Y51000D01*
X75395D01*
X76158Y51204D01*
X76842Y51599D01*
X77401Y52158D01*
X77796Y52842D01*
X78000Y53605D01*
Y54395D01*
X77796Y55158D01*
X77401Y55842D01*
X76842Y56401D01*
X76158Y56796D01*
X75395Y57000D01*
D02*
G37*
G36*
X477395Y56000D02*
X476605D01*
X475842Y55796D01*
X475158Y55401D01*
X474599Y54842D01*
X474204Y54158D01*
X474000Y53395D01*
Y52605D01*
X474204Y51842D01*
X474599Y51158D01*
X475158Y50599D01*
X475842Y50204D01*
X476605Y50000D01*
X477395D01*
X478158Y50204D01*
X478842Y50599D01*
X479401Y51158D01*
X479796Y51842D01*
X480000Y52605D01*
Y53395D01*
X479796Y54158D01*
X479401Y54842D01*
X478842Y55401D01*
X478158Y55796D01*
X477395Y56000D01*
D02*
G37*
G36*
X465453Y55453D02*
X458547D01*
Y48547D01*
X465453D01*
Y55453D01*
D02*
G37*
G36*
X451453D02*
X444547D01*
Y48547D01*
X451453D01*
Y55453D01*
D02*
G37*
G36*
X290395Y54000D02*
X289605D01*
X288842Y53796D01*
X288158Y53401D01*
X287599Y52842D01*
X287204Y52158D01*
X287000Y51395D01*
Y50605D01*
X287204Y49842D01*
X287599Y49158D01*
X288158Y48599D01*
X288842Y48204D01*
X289605Y48000D01*
X290395D01*
X291158Y48204D01*
X291842Y48599D01*
X292401Y49158D01*
X292796Y49842D01*
X293000Y50605D01*
Y51395D01*
X292796Y52158D01*
X292401Y52842D01*
X291842Y53401D01*
X291158Y53796D01*
X290395Y54000D01*
D02*
G37*
G36*
X391395Y45000D02*
X390605D01*
X389842Y44796D01*
X389158Y44401D01*
X388599Y43842D01*
X388204Y43158D01*
X388000Y42395D01*
Y41605D01*
X388204Y40842D01*
X388599Y40158D01*
X389158Y39599D01*
X389842Y39204D01*
X390605Y39000D01*
X391395D01*
X392158Y39204D01*
X392842Y39599D01*
X393401Y40158D01*
X393796Y40842D01*
X394000Y41605D01*
Y42395D01*
X393796Y43158D01*
X393401Y43842D01*
X392842Y44401D01*
X392158Y44796D01*
X391395Y45000D01*
D02*
G37*
G36*
X183395Y43000D02*
X182605D01*
X181842Y42796D01*
X181158Y42401D01*
X180599Y41842D01*
X180204Y41158D01*
X180000Y40395D01*
Y39605D01*
X180204Y38842D01*
X180599Y38158D01*
X181158Y37599D01*
X181842Y37204D01*
X182605Y37000D01*
X183395D01*
X184158Y37204D01*
X184842Y37599D01*
X185401Y38158D01*
X185796Y38842D01*
X186000Y39605D01*
Y40395D01*
X185796Y41158D01*
X185401Y41842D01*
X184842Y42401D01*
X184158Y42796D01*
X183395Y43000D01*
D02*
G37*
G36*
X169895D02*
X169105D01*
X168342Y42796D01*
X167658Y42401D01*
X167099Y41842D01*
X166704Y41158D01*
X166500Y40395D01*
Y39605D01*
X166704Y38842D01*
X167099Y38158D01*
X167658Y37599D01*
X168342Y37204D01*
X169105Y37000D01*
X169895D01*
X170658Y37204D01*
X171342Y37599D01*
X171901Y38158D01*
X172296Y38842D01*
X172500Y39605D01*
Y40395D01*
X172296Y41158D01*
X171901Y41842D01*
X171342Y42401D01*
X170658Y42796D01*
X169895Y43000D01*
D02*
G37*
G36*
X310395Y41000D02*
X309605D01*
X308842Y40796D01*
X308158Y40401D01*
X307599Y39842D01*
X307204Y39158D01*
X307000Y38395D01*
Y37605D01*
X307204Y36842D01*
X307599Y36158D01*
X308158Y35599D01*
X308842Y35204D01*
X309605Y35000D01*
X310395D01*
X311158Y35204D01*
X311842Y35599D01*
X312401Y36158D01*
X312796Y36842D01*
X313000Y37605D01*
Y38395D01*
X312796Y39158D01*
X312401Y39842D01*
X311842Y40401D01*
X311158Y40796D01*
X310395Y41000D01*
D02*
G37*
G36*
X38395Y34000D02*
X37605D01*
X36842Y33796D01*
X36158Y33401D01*
X35599Y32842D01*
X35204Y32158D01*
X35000Y31395D01*
Y30605D01*
X35204Y29842D01*
X35599Y29158D01*
X36158Y28599D01*
X36842Y28204D01*
X37605Y28000D01*
X38395D01*
X39158Y28204D01*
X39842Y28599D01*
X40401Y29158D01*
X40796Y29842D01*
X41000Y30605D01*
Y31395D01*
X40796Y32158D01*
X40401Y32842D01*
X39842Y33401D01*
X39158Y33796D01*
X38395Y34000D01*
D02*
G37*
G36*
X495395Y33000D02*
X494605D01*
X493842Y32796D01*
X493158Y32401D01*
X492599Y31842D01*
X492204Y31158D01*
X492000Y30395D01*
Y29605D01*
X492204Y28842D01*
X492599Y28158D01*
X493158Y27599D01*
X493842Y27204D01*
X494605Y27000D01*
X495395D01*
X496158Y27204D01*
X496842Y27599D01*
X497401Y28158D01*
X497796Y28842D01*
X498000Y29605D01*
Y30395D01*
X497796Y31158D01*
X497401Y31842D01*
X496842Y32401D01*
X496158Y32796D01*
X495395Y33000D01*
D02*
G37*
G36*
X75395Y27000D02*
X74605D01*
X73842Y26796D01*
X73158Y26401D01*
X72599Y25842D01*
X72204Y25158D01*
X72000Y24395D01*
Y23605D01*
X72204Y22842D01*
X72599Y22158D01*
X73158Y21599D01*
X73842Y21204D01*
X74605Y21000D01*
X75395D01*
X76158Y21204D01*
X76842Y21599D01*
X77401Y22158D01*
X77796Y22842D01*
X78000Y23605D01*
Y24395D01*
X77796Y25158D01*
X77401Y25842D01*
X76842Y26401D01*
X76158Y26796D01*
X75395Y27000D01*
D02*
G37*
G36*
X248395Y42000D02*
X247605D01*
X246842Y41796D01*
X246158Y41401D01*
X245599Y40842D01*
X245204Y40158D01*
X245000Y39395D01*
Y38605D01*
X245204Y37842D01*
X245599Y37158D01*
X246158Y36599D01*
X246842Y36204D01*
X246980Y36167D01*
Y23833D01*
X246842Y23796D01*
X246158Y23401D01*
X245599Y22842D01*
X245204Y22158D01*
X245000Y21395D01*
Y20605D01*
X245204Y19842D01*
X245599Y19158D01*
X246158Y18599D01*
X246842Y18204D01*
X247605Y18000D01*
X248395D01*
X249158Y18204D01*
X249842Y18599D01*
X250401Y19158D01*
X250796Y19842D01*
X250833Y19980D01*
X307414D01*
X307804Y20058D01*
X308135Y20279D01*
X308837Y20980D01*
X342167D01*
X342204Y20842D01*
X342599Y20158D01*
X343158Y19599D01*
X343842Y19204D01*
X344605Y19000D01*
X345395D01*
X346158Y19204D01*
X346842Y19599D01*
X347401Y20158D01*
X347796Y20842D01*
X348000Y21605D01*
Y22395D01*
X347796Y23158D01*
X347401Y23842D01*
X346842Y24401D01*
X346158Y24796D01*
X345395Y25000D01*
X344605D01*
X343842Y24796D01*
X343158Y24401D01*
X342599Y23842D01*
X342204Y23158D01*
X342167Y23020D01*
X308414D01*
X308024Y22942D01*
X307693Y22721D01*
X306992Y22020D01*
X250833D01*
X250796Y22158D01*
X250401Y22842D01*
X249842Y23401D01*
X249158Y23796D01*
X249020Y23833D01*
Y36167D01*
X249158Y36204D01*
X249842Y36599D01*
X250401Y37158D01*
X250796Y37842D01*
X251000Y38605D01*
Y39395D01*
X250796Y40158D01*
X250401Y40842D01*
X249842Y41401D01*
X249158Y41796D01*
X248395Y42000D01*
D02*
G37*
G36*
X169895Y16000D02*
X169105D01*
X168342Y15796D01*
X167658Y15401D01*
X167099Y14842D01*
X166704Y14158D01*
X166500Y13395D01*
Y12605D01*
X166704Y11842D01*
X167099Y11158D01*
X167658Y10599D01*
X168342Y10204D01*
X169105Y10000D01*
X169895D01*
X170658Y10204D01*
X171342Y10599D01*
X171901Y11158D01*
X172296Y11842D01*
X172500Y12605D01*
Y13395D01*
X172296Y14158D01*
X171901Y14842D01*
X171342Y15401D01*
X170658Y15796D01*
X169895Y16000D01*
D02*
G37*
G36*
X540826Y30500D02*
X539174D01*
X537541Y30242D01*
X535969Y29731D01*
X534497Y28980D01*
X533160Y28009D01*
X531991Y26840D01*
X531020Y25503D01*
X530269Y24031D01*
X529759Y22459D01*
X529500Y20826D01*
Y19174D01*
X529759Y17541D01*
X530269Y15969D01*
X531020Y14497D01*
X531991Y13160D01*
X533160Y11991D01*
X534497Y11020D01*
X535969Y10269D01*
X537541Y9759D01*
X539174Y9500D01*
X540826D01*
X542459Y9759D01*
X544031Y10269D01*
X545503Y11020D01*
X546840Y11991D01*
X548009Y13160D01*
X548980Y14497D01*
X549731Y15969D01*
X550242Y17541D01*
X550500Y19174D01*
Y20826D01*
X550242Y22459D01*
X549731Y24031D01*
X548980Y25503D01*
X548009Y26840D01*
X546840Y28009D01*
X545503Y28980D01*
X544031Y29731D01*
X542459Y30242D01*
X540826Y30500D01*
D02*
G37*
G36*
X20826D02*
X19174D01*
X17541Y30242D01*
X15969Y29731D01*
X14497Y28980D01*
X13160Y28009D01*
X11991Y26840D01*
X11020Y25503D01*
X10269Y24031D01*
X9759Y22459D01*
X9500Y20826D01*
Y19174D01*
X9759Y17541D01*
X10269Y15969D01*
X11020Y14497D01*
X11991Y13160D01*
X13160Y11991D01*
X14497Y11020D01*
X15969Y10269D01*
X17541Y9759D01*
X19174Y9500D01*
X20826D01*
X22459Y9759D01*
X24031Y10269D01*
X25503Y11020D01*
X26840Y11991D01*
X28009Y13160D01*
X28980Y14497D01*
X29731Y15969D01*
X30242Y17541D01*
X30500Y19174D01*
Y20826D01*
X30242Y22459D01*
X29731Y24031D01*
X28980Y25503D01*
X28009Y26840D01*
X26840Y28009D01*
X25503Y28980D01*
X24031Y29731D01*
X22459Y30242D01*
X20826Y30500D01*
D02*
G37*
G36*
X391395Y15000D02*
X390605D01*
X389842Y14796D01*
X389158Y14401D01*
X388599Y13842D01*
X388204Y13158D01*
X388000Y12395D01*
Y11605D01*
X388204Y10842D01*
X388599Y10158D01*
X389158Y9599D01*
X389842Y9204D01*
X390605Y9000D01*
X391395D01*
X392158Y9204D01*
X392842Y9599D01*
X393401Y10158D01*
X393796Y10842D01*
X394000Y11605D01*
Y12395D01*
X393796Y13158D01*
X393401Y13842D01*
X392842Y14401D01*
X392158Y14796D01*
X391395Y15000D01*
D02*
G37*
G36*
X289395Y11000D02*
X288605D01*
X287842Y10796D01*
X287158Y10401D01*
X286599Y9842D01*
X286204Y9158D01*
X286000Y8395D01*
Y7605D01*
X286204Y6842D01*
X286599Y6158D01*
X287158Y5599D01*
X287842Y5204D01*
X288605Y5000D01*
X289395D01*
X290158Y5204D01*
X290842Y5599D01*
X291401Y6158D01*
X291796Y6842D01*
X292000Y7605D01*
Y8395D01*
X291796Y9158D01*
X291401Y9842D01*
X290842Y10401D01*
X290158Y10796D01*
X289395Y11000D01*
D02*
G37*
%LPD*%
G36*
X339980Y321833D02*
X339842Y321796D01*
X339158Y321401D01*
X338599Y320842D01*
X338204Y320158D01*
X338000Y319395D01*
Y318605D01*
X338204Y317842D01*
X338599Y317158D01*
X339158Y316599D01*
X339842Y316204D01*
X340605Y316000D01*
X341395D01*
X341452Y316015D01*
X341711Y315567D01*
X338779Y312635D01*
X338558Y312304D01*
X338480Y311914D01*
Y302534D01*
X337980Y302468D01*
X337796Y303158D01*
X337401Y303842D01*
X336842Y304401D01*
X336158Y304796D01*
X335395Y305000D01*
X334605D01*
X333842Y304796D01*
X333158Y304401D01*
X332599Y303842D01*
X332204Y303158D01*
X332000Y302395D01*
Y301605D01*
X332204Y300842D01*
X332599Y300158D01*
X333158Y299599D01*
X333842Y299204D01*
X333980Y299167D01*
Y297621D01*
X334058Y297231D01*
X334279Y296900D01*
X336980Y294199D01*
Y293115D01*
X336519Y292923D01*
X328724Y300718D01*
X328796Y300842D01*
X329000Y301605D01*
Y302395D01*
X328796Y303158D01*
X328401Y303842D01*
X327842Y304401D01*
X327158Y304796D01*
X326395Y305000D01*
X325605D01*
X324842Y304796D01*
X324158Y304401D01*
X323599Y303842D01*
X323204Y303158D01*
X323000Y302395D01*
Y301605D01*
X323204Y300842D01*
X323599Y300158D01*
X324158Y299599D01*
X324842Y299204D01*
X325605Y299000D01*
X326395D01*
X327158Y299204D01*
X327282Y299276D01*
X335480Y291078D01*
Y289615D01*
X335018Y289423D01*
X334049Y290392D01*
X333719Y290614D01*
X333328Y290691D01*
X329921D01*
X329796Y291158D01*
X329401Y291842D01*
X328842Y292401D01*
X328158Y292796D01*
X327395Y293000D01*
X326605D01*
X325842Y292796D01*
X325158Y292401D01*
X324599Y291842D01*
X324204Y291158D01*
X324000Y290395D01*
Y289605D01*
X324204Y288842D01*
X324599Y288158D01*
X325158Y287599D01*
X325842Y287204D01*
X326605Y287000D01*
X327395D01*
X328158Y287204D01*
X328842Y287599D01*
X329401Y288158D01*
X329686Y288652D01*
X332906D01*
X333980Y287578D01*
Y207020D01*
X313833D01*
X313796Y207158D01*
X313401Y207842D01*
X312842Y208401D01*
X312158Y208796D01*
X311395Y209000D01*
X310605D01*
X309842Y208796D01*
X309158Y208401D01*
X308599Y207842D01*
X308204Y207158D01*
X308167Y207020D01*
X289000D01*
X288610Y206942D01*
X288279Y206721D01*
X287520Y205961D01*
X287020Y206169D01*
Y315578D01*
X289422Y317980D01*
X292167D01*
X292204Y317842D01*
X292599Y317158D01*
X293158Y316599D01*
X293842Y316204D01*
X294605Y316000D01*
X295395D01*
X296158Y316204D01*
X296842Y316599D01*
X297401Y317158D01*
X297796Y317842D01*
X298000Y318605D01*
Y319395D01*
X297796Y320158D01*
X297401Y320842D01*
X296842Y321401D01*
X296704Y321480D01*
X296838Y321980D01*
X313808D01*
X314160Y321625D01*
X314158Y321401D01*
X313599Y320842D01*
X313204Y320158D01*
X313000Y319395D01*
Y318605D01*
X313204Y317842D01*
X313599Y317158D01*
X314158Y316599D01*
X314842Y316204D01*
X315605Y316000D01*
X316395D01*
X317158Y316204D01*
X317842Y316599D01*
X318401Y317158D01*
X318796Y317842D01*
X319000Y318605D01*
Y319395D01*
X318796Y320158D01*
X318401Y320842D01*
X317842Y321401D01*
X317158Y321796D01*
X316484Y321976D01*
Y322121D01*
X316406Y322512D01*
X316185Y322842D01*
X315547Y323480D01*
X315754Y323980D01*
X339980D01*
Y321833D01*
D02*
G37*
G36*
X335480Y204964D02*
Y186020D01*
X327000D01*
X326610Y185942D01*
X326279Y185721D01*
X322279Y181721D01*
X322058Y181390D01*
X321980Y181000D01*
Y156020D01*
X283833D01*
X283796Y156158D01*
X283401Y156842D01*
X282842Y157401D01*
X282158Y157796D01*
X281395Y158000D01*
X280605D01*
X279842Y157796D01*
X279158Y157401D01*
X279020Y157262D01*
X278520Y157469D01*
Y177980D01*
X287414D01*
X287804Y178058D01*
X288135Y178279D01*
X288721Y178865D01*
X288942Y179196D01*
X289020Y179586D01*
Y204578D01*
X289422Y204980D01*
X308167D01*
X308204Y204842D01*
X308599Y204158D01*
X309158Y203599D01*
X309842Y203204D01*
X310605Y203000D01*
X311395D01*
X312158Y203204D01*
X312842Y203599D01*
X313401Y204158D01*
X313796Y204842D01*
X313833Y204980D01*
X334414D01*
X334804Y205058D01*
X334980Y205176D01*
X335480Y204964D01*
D02*
G37*
G36*
X282980Y200417D02*
Y185020D01*
X274586D01*
X274196Y184942D01*
X273865Y184721D01*
X273520Y184376D01*
X273020Y184583D01*
Y199980D01*
X281414D01*
X281804Y200058D01*
X282135Y200279D01*
X282480Y200624D01*
X282980Y200417D01*
D02*
G37*
%LPC*%
G36*
X320453Y290453D02*
X313547D01*
Y283547D01*
X320453D01*
Y290453D01*
D02*
G37*
G36*
Y271453D02*
X313547D01*
Y264547D01*
X320453D01*
Y271453D01*
D02*
G37*
G36*
X305395Y305000D02*
X304605D01*
X303842Y304796D01*
X303158Y304401D01*
X302599Y303842D01*
X302204Y303158D01*
X302000Y302395D01*
Y301605D01*
X302204Y300842D01*
X302599Y300158D01*
X303158Y299599D01*
X303842Y299204D01*
X303980Y299167D01*
Y264833D01*
X303842Y264796D01*
X303158Y264401D01*
X302599Y263842D01*
X302204Y263158D01*
X302000Y262395D01*
Y261605D01*
X302204Y260842D01*
X302599Y260158D01*
X303158Y259599D01*
X303842Y259204D01*
X304605Y259000D01*
X305395D01*
X306158Y259204D01*
X306842Y259599D01*
X307401Y260158D01*
X307796Y260842D01*
X308000Y261605D01*
Y262395D01*
X307796Y263158D01*
X307401Y263842D01*
X306842Y264401D01*
X306158Y264796D01*
X306020Y264833D01*
Y299167D01*
X306158Y299204D01*
X306842Y299599D01*
X307401Y300158D01*
X307796Y300842D01*
X308000Y301605D01*
Y302395D01*
X307796Y303158D01*
X307401Y303842D01*
X306842Y304401D01*
X306158Y304796D01*
X305395Y305000D01*
D02*
G37*
G36*
X296395Y269000D02*
X295605D01*
X294842Y268796D01*
X294158Y268401D01*
X293599Y267842D01*
X293204Y267158D01*
X293000Y266395D01*
Y265605D01*
X293204Y264842D01*
X293599Y264158D01*
X294158Y263599D01*
X294842Y263204D01*
X294980Y263167D01*
Y259833D01*
X294842Y259796D01*
X294158Y259401D01*
X293599Y258842D01*
X293204Y258158D01*
X293000Y257395D01*
Y256605D01*
X293204Y255842D01*
X293599Y255158D01*
X294158Y254599D01*
X294842Y254204D01*
X294980Y254167D01*
Y242798D01*
X295003Y242688D01*
Y242646D01*
X294945Y242613D01*
X294387Y242055D01*
X293992Y241371D01*
X293787Y240608D01*
Y239818D01*
X293992Y239055D01*
X294387Y238371D01*
X294945Y237812D01*
X295629Y237417D01*
X296392Y237213D01*
X297182D01*
X297945Y237417D01*
X298629Y237812D01*
X299188Y238371D01*
X299583Y239055D01*
X299787Y239818D01*
Y240608D01*
X299583Y241371D01*
X299188Y242055D01*
X298629Y242613D01*
X297945Y243008D01*
X297182Y243213D01*
X297020D01*
Y254167D01*
X297158Y254204D01*
X297842Y254599D01*
X298401Y255158D01*
X298796Y255842D01*
X299000Y256605D01*
Y257395D01*
X298796Y258158D01*
X298401Y258842D01*
X297842Y259401D01*
X297158Y259796D01*
X297020Y259833D01*
Y263167D01*
X297158Y263204D01*
X297842Y263599D01*
X298401Y264158D01*
X298796Y264842D01*
X299000Y265605D01*
Y266395D01*
X298796Y267158D01*
X298401Y267842D01*
X297842Y268401D01*
X297158Y268796D01*
X296395Y269000D01*
D02*
G37*
G36*
X298453Y227453D02*
X291547D01*
Y220547D01*
X298453D01*
Y227453D01*
D02*
G37*
G36*
Y187453D02*
X291547D01*
Y180547D01*
X298453D01*
Y187453D01*
D02*
G37*
G36*
X308395Y202000D02*
X307605D01*
X306842Y201796D01*
X306158Y201401D01*
X305599Y200842D01*
X305204Y200158D01*
X305000Y199395D01*
Y198605D01*
X305204Y197842D01*
X305599Y197158D01*
X306158Y196599D01*
X306842Y196204D01*
X306980Y196167D01*
Y162833D01*
X306842Y162796D01*
X306158Y162401D01*
X305599Y161842D01*
X305204Y161158D01*
X305000Y160395D01*
Y159605D01*
X305204Y158842D01*
X305599Y158158D01*
X306158Y157599D01*
X306842Y157204D01*
X307605Y157000D01*
X308395D01*
X309158Y157204D01*
X309842Y157599D01*
X310401Y158158D01*
X310796Y158842D01*
X311000Y159605D01*
Y160395D01*
X310796Y161158D01*
X310401Y161842D01*
X309842Y162401D01*
X309158Y162796D01*
X309020Y162833D01*
Y196167D01*
X309158Y196204D01*
X309842Y196599D01*
X310401Y197158D01*
X310796Y197842D01*
X311000Y198605D01*
Y199395D01*
X310796Y200158D01*
X310401Y200842D01*
X309842Y201401D01*
X309158Y201796D01*
X308395Y202000D01*
D02*
G37*
G36*
X281453Y195453D02*
X274547D01*
Y188547D01*
X281453D01*
Y195453D01*
D02*
G37*
%LPD*%
G36*
X45279Y139279D02*
X45610Y139058D01*
X46000Y138980D01*
X77167D01*
X77204Y138842D01*
X77599Y138158D01*
X78158Y137599D01*
X78842Y137204D01*
X79605Y137000D01*
X80395D01*
X81158Y137204D01*
X81842Y137599D01*
X82401Y138158D01*
X82796Y138842D01*
X82833Y138980D01*
X101414D01*
X101804Y139058D01*
X102135Y139279D01*
X102480Y139624D01*
X102980Y139417D01*
Y131020D01*
X74833D01*
X74796Y131158D01*
X74401Y131842D01*
X73842Y132401D01*
X73158Y132796D01*
X72395Y133000D01*
X71605D01*
X70842Y132796D01*
X70158Y132401D01*
X69599Y131842D01*
X69204Y131158D01*
X69167Y131020D01*
X44020D01*
Y139831D01*
X44520Y140039D01*
X45279Y139279D01*
D02*
G37*
G36*
X42865Y129279D02*
X43196Y129058D01*
X43586Y128980D01*
X69167D01*
X69204Y128842D01*
X69599Y128158D01*
X70158Y127599D01*
X70842Y127204D01*
X71605Y127000D01*
X72395D01*
X73158Y127204D01*
X73842Y127599D01*
X74401Y128158D01*
X74796Y128842D01*
X74833Y128980D01*
X103414D01*
X103804Y129058D01*
X104135Y129279D01*
X104480Y129624D01*
X104980Y129417D01*
Y121020D01*
X82833D01*
X82796Y121158D01*
X82401Y121842D01*
X81842Y122401D01*
X81158Y122796D01*
X80395Y123000D01*
X79605D01*
X78842Y122796D01*
X78158Y122401D01*
X77599Y121842D01*
X77204Y121158D01*
X77167Y121020D01*
X42020D01*
Y129417D01*
X42520Y129624D01*
X42865Y129279D01*
D02*
G37*
D11*
X183000Y63000D02*
Y76000D01*
X153000Y77000D02*
X182000D01*
X183000Y76000D01*
X151000Y79000D02*
X153000Y77000D01*
X151000Y79000D02*
Y93000D01*
X158000Y109000D02*
Y202000D01*
X131000Y89000D02*
Y108000D01*
X132000Y109000D02*
X158000D01*
X131000Y108000D02*
X132000Y109000D01*
X211000Y74000D02*
X211765Y74765D01*
X213765D01*
X217000Y78000D01*
X183000Y63000D02*
X184500Y61500D01*
X222541Y64000D02*
X234000D01*
X221541Y65000D02*
X222541Y64000D01*
X209000Y65000D02*
X221541D01*
X184500Y61500D02*
X267500D01*
X152500Y44000D02*
Y57500D01*
X153500Y58500D01*
X256000Y29586D02*
Y57914D01*
X255414Y58500D02*
X256000Y57914D01*
X153500Y58500D02*
X255414D01*
X166000Y54000D02*
X210414D01*
X210649Y53765D01*
X212235D01*
X160000Y48000D02*
X166000Y54000D01*
X212235Y53765D02*
X213000Y53000D01*
X210000Y50000D02*
X213000Y53000D01*
X267500Y61500D02*
X271000Y65000D01*
Y87000D01*
X197150Y140000D02*
Y152000D01*
X217000Y134000D02*
Y139000D01*
X216000Y140000D02*
X217000Y139000D01*
X197150Y140000D02*
X216000D01*
X339500Y177000D02*
Y311914D01*
Y44586D02*
Y177000D01*
X333351Y176765D02*
X333586Y177000D01*
X339500D01*
X331000Y176000D02*
X331765Y176765D01*
X333351D01*
X310586Y124000D02*
X324000D01*
X338000Y183000D02*
Y294621D01*
X324000Y124000D02*
X325000Y125000D01*
Y180000D01*
X328000Y183000D01*
X338000D01*
X281000Y155000D02*
X323000D01*
X336500Y185000D02*
Y291500D01*
X323000Y155000D02*
Y181000D01*
X327000Y185000D02*
X336500D01*
X323000Y181000D02*
X327000Y185000D01*
X341000Y179000D02*
X374000D01*
X380000Y173000D01*
X341000Y179000D02*
Y304000D01*
Y79000D02*
Y179000D01*
X398000Y115000D02*
X411414D01*
X412000Y114414D01*
Y93586D02*
Y114414D01*
X412235Y91765D02*
Y93351D01*
X412000Y93586D02*
X412235Y93351D01*
Y91765D02*
X413000Y91000D01*
X347000Y71000D02*
X347328Y70672D01*
X350328D01*
X352000Y58000D02*
Y69000D01*
X350328Y70672D02*
X352000Y69000D01*
X367000Y172000D02*
X369000Y174000D01*
X370000D01*
X367000Y35586D02*
Y172000D01*
X281000Y125000D02*
Y155000D01*
X269000Y113000D02*
X281000Y125000D01*
X308000Y160000D02*
Y199000D01*
X239000Y100000D02*
Y202414D01*
Y100000D02*
X248000Y91000D01*
Y77000D02*
Y91000D01*
X239586Y203000D02*
X271000D01*
X273000Y205000D01*
X239000Y202414D02*
X239586Y203000D01*
X273000Y205000D02*
Y246000D01*
X296022Y240978D02*
Y242776D01*
X296000Y242798D02*
X296022Y242776D01*
X296000Y242798D02*
Y266000D01*
X296022Y240978D02*
X296787Y240213D01*
X229000Y263000D02*
Y290000D01*
X391000Y264414D02*
Y265000D01*
Y264414D02*
X393000Y262414D01*
Y189000D02*
Y262414D01*
X398000Y195000D02*
Y270000D01*
X409351Y260235D02*
X409586Y260000D01*
X407765Y260235D02*
X409351D01*
X409586Y260000D02*
X432000D01*
X407000Y261000D02*
X407765Y260235D01*
X356000Y35000D02*
X366414D01*
X367000Y35586D01*
X217000Y114000D02*
X226000Y123000D01*
Y134000D01*
X217000Y78000D02*
Y114000D01*
X398000Y156000D02*
Y195000D01*
Y115000D02*
Y156000D01*
X393000Y109000D02*
Y149000D01*
Y189000D01*
X269000Y112000D02*
Y113000D01*
X253000Y98000D02*
Y138414D01*
X226000Y81000D02*
Y98000D01*
X277500Y133500D02*
Y178414D01*
X262000Y118000D02*
X277500Y133500D01*
X287414Y179000D02*
X288000Y179586D01*
Y205000D01*
X278086Y179000D02*
X287414D01*
X277500Y178414D02*
X278086Y179000D01*
X289000Y206000D02*
X311000D01*
X288000Y205000D02*
X289000Y206000D01*
X286000Y182000D02*
Y316000D01*
X269000Y141000D02*
X276000Y148000D01*
X252000Y141000D02*
X269000D01*
X270000Y147000D02*
X274000Y151000D01*
Y183414D01*
X259000Y147000D02*
X270000D01*
X276586Y182000D02*
X286000D01*
X276000Y181414D02*
X276586Y182000D01*
X276000Y148000D02*
Y181414D01*
X284000Y184000D02*
Y319000D01*
X274586Y184000D02*
X284000D01*
X274000Y183414D02*
X274586Y184000D01*
X252000Y153000D02*
X271414D01*
X272000Y153586D02*
Y200414D01*
X271414Y153000D02*
X272000Y153586D01*
Y200414D02*
X272586Y201000D01*
X207000Y311000D02*
X209000Y309000D01*
X178586Y311000D02*
X207000D01*
X209000Y203000D02*
Y309000D01*
X200414Y288000D02*
X201000Y287414D01*
X193000Y288000D02*
X200414D01*
X201000Y217464D02*
Y287414D01*
X187351Y272235D02*
X187586Y272000D01*
X197414D01*
X198000Y271414D01*
Y219000D02*
Y271414D01*
X185000Y273000D02*
X185765Y272235D01*
X187351D01*
X273000Y246414D02*
X276000Y249414D01*
Y308089D01*
X273000Y246000D02*
Y246414D01*
X305000Y262000D02*
Y302000D01*
X264000Y308000D02*
Y316414D01*
X263414Y317000D02*
X264000Y316414D01*
X172000Y317000D02*
X263414D01*
X276000Y308089D02*
X276126Y308215D01*
X191000Y217000D02*
Y251000D01*
X188000Y214000D02*
X191000Y217000D01*
X170000Y214000D02*
X188000D01*
X191000Y212000D02*
X198000Y219000D01*
X174000Y212000D02*
X191000D01*
X177000Y210000D02*
X193535D01*
X201000Y217464D01*
X171000Y209000D02*
X174000Y212000D01*
X173000Y206000D02*
X177000Y210000D01*
X173000Y121000D02*
Y206000D01*
X171000Y116000D02*
Y209000D01*
Y116000D02*
X172000Y115000D01*
X185000Y93000D02*
Y114414D01*
X184414Y115000D02*
X185000Y114414D01*
X172000Y115000D02*
X184414D01*
X178000Y310414D02*
X178586Y311000D01*
X178000Y287000D02*
Y310414D01*
X158000Y202000D02*
X170000Y214000D01*
X174000Y120000D02*
X190414D01*
X173000Y121000D02*
X174000Y120000D01*
X190414D02*
X191000Y119414D01*
Y102000D02*
Y119414D01*
X255000Y25000D02*
X339000D01*
X345000Y31000D01*
X352000D01*
X253000Y27000D02*
X255000Y25000D01*
X238000Y46000D02*
X252414D01*
X253000Y45414D01*
Y27000D02*
Y45414D01*
X236000Y44000D02*
X238000Y46000D01*
X236000Y33000D02*
Y44000D01*
X308414Y22000D02*
X345000D01*
X307414Y21000D02*
X308414Y22000D01*
X277000Y16000D02*
X377000D01*
X381000Y20000D01*
Y73000D01*
X379464Y14464D02*
X384000Y19000D01*
X388000D02*
Y28414D01*
X384000Y19000D02*
X388000D01*
X279000Y14464D02*
X379464D01*
X248000Y21000D02*
X307414D01*
X271000Y44000D02*
X338914D01*
X339500Y44586D01*
X343000Y77000D02*
X355000D01*
X341000Y79000D02*
X343000Y77000D01*
X164000Y89918D02*
Y91000D01*
X165121Y88464D02*
Y88796D01*
X164000Y89918D02*
X165121Y88796D01*
Y88464D02*
X166586Y87000D01*
X205000D01*
X252765Y138649D02*
X253000Y138414D01*
X252765Y138649D02*
Y140235D01*
X252000Y141000D02*
X252765Y140235D01*
X217075Y33000D02*
X236000D01*
X210000Y25586D02*
Y50000D01*
Y25586D02*
X214586Y21000D01*
X228000D01*
X109765Y179235D02*
Y284765D01*
X112000Y287000D01*
X164000D01*
X123000Y138000D02*
X141414D01*
X142000Y138586D01*
Y208000D01*
X160000Y40086D02*
Y48000D01*
X131000Y40086D02*
X131586Y39500D01*
X131000Y40086D02*
Y89000D01*
X159414Y39500D02*
X160000Y40086D01*
X131586Y39500D02*
X159414D01*
X153086Y29000D02*
X174000D01*
X178000Y9586D02*
Y25000D01*
X174000Y29000D02*
X178000Y25000D01*
X178586Y9000D02*
X276000D01*
X178000Y9586D02*
X178586Y9000D01*
X276000D02*
X277000Y10000D01*
Y16000D01*
X279000Y8000D02*
Y14464D01*
X152500Y7586D02*
X153086Y7000D01*
X278000D01*
X152500Y7586D02*
Y13000D01*
X278000Y7000D02*
X279000Y8000D01*
X256586Y29000D02*
X328000D01*
X256000Y29586D02*
X256586Y29000D01*
X388000Y28414D02*
X388586Y29000D01*
X248000Y21000D02*
Y39000D01*
X234000Y64000D02*
X236000Y66000D01*
Y70414D02*
X236586Y71000D01*
X236000Y66000D02*
Y70414D01*
X288150Y119150D02*
Y135150D01*
X288000Y119000D02*
X288150Y119150D01*
X335000Y297621D02*
Y302000D01*
Y297621D02*
X338000Y294621D01*
X335000Y206586D02*
Y288000D01*
X333328Y289672D02*
X335000Y288000D01*
X327328Y289672D02*
X333328D01*
X327000Y290000D02*
X327328Y289672D01*
X326000Y302000D02*
X336500Y291500D01*
X341000Y304000D02*
X356000Y319000D01*
X339500Y311914D02*
X352586Y325000D01*
X334414Y206000D02*
X335000Y206586D01*
X311000Y206000D02*
X334414D01*
X432000Y260000D02*
Y302000D01*
Y144586D02*
Y260000D01*
X431765Y142765D02*
Y144351D01*
X432000Y302000D02*
X446000Y316000D01*
X431000Y142000D02*
X431765Y142765D01*
Y144351D02*
X432000Y144586D01*
X308765Y124235D02*
X310351D01*
X310586Y124000D01*
X308000Y125000D02*
X308765Y124235D01*
X370000Y319000D02*
Y324414D01*
X369414Y325000D02*
X370000Y324414D01*
X352586Y325000D02*
X369414D01*
X272586Y201000D02*
X281414D01*
X282000Y201586D01*
Y320000D01*
X287000Y325000D01*
X340414D01*
X288000Y323000D02*
X314586D01*
X284000Y319000D02*
X288000Y323000D01*
X341000Y319000D02*
Y324414D01*
X340414Y325000D02*
X341000Y324414D01*
X314586Y323000D02*
X315464Y322121D01*
Y319535D02*
Y322121D01*
Y319535D02*
X316000Y319000D01*
X286000Y316000D02*
X289000Y319000D01*
X295000D01*
X498000Y354000D02*
X519000D01*
X494235Y350000D02*
X498000Y353765D01*
Y354000D01*
X519000D02*
X521000Y352000D01*
Y341000D02*
Y352000D01*
X494235Y334936D02*
Y350000D01*
X490235Y354000D02*
X494235Y350000D01*
X13000Y354000D02*
X490235D01*
X10000Y351000D02*
X13000Y354000D01*
X10000Y180586D02*
Y351000D01*
X10586Y180000D02*
X20000D01*
X10000Y180586D02*
X10586Y180000D01*
X486000Y334350D02*
X493649D01*
X494235Y334936D01*
X486000Y340650D02*
Y347000D01*
X388586Y29000D02*
X426000D01*
X381000Y73000D02*
X382000Y74000D01*
X424235Y73765D02*
X425000Y73000D01*
X422649Y73765D02*
X424235D01*
X382000Y74000D02*
X422414D01*
X422649Y73765D01*
X287000Y68000D02*
X291000Y72000D01*
X238000Y60000D02*
X286414D01*
X287000Y60586D01*
Y68000D01*
X291000Y72000D02*
X326000D01*
X185150Y140000D02*
Y146000D01*
X152500Y29586D02*
X153086Y29000D01*
X152500Y29586D02*
Y35000D01*
X152414Y60586D02*
Y66000D01*
X153000Y60000D02*
X238000D01*
X152414Y60586D02*
X153000Y60000D01*
X235000Y92000D02*
Y201414D01*
X173000Y241000D02*
Y251414D01*
X128000Y252000D02*
X172414D01*
X173000Y251414D01*
X504000Y324000D02*
Y334350D01*
X330000Y334936D02*
X330586Y334350D01*
X341000D01*
X330000Y334936D02*
Y335000D01*
X446000Y334350D02*
X466000D01*
X432000D02*
X446000D01*
X417000D02*
X432000D01*
X402000D02*
X417000D01*
X385000D02*
X402000D01*
X370000D02*
X385000D01*
X356000D02*
X370000D01*
X341000D02*
X356000D01*
X307000Y334936D02*
Y335000D01*
X307586Y334350D02*
X316000D01*
X307000Y334936D02*
X307586Y334350D01*
X284650D02*
X295000D01*
X284000Y335000D02*
X284650Y334350D01*
X283000Y335000D02*
X284000D01*
X273000Y334350D02*
X282350D01*
X283000Y335000D01*
X257000Y334350D02*
X273000D01*
X241000D02*
X257000D01*
X221000D02*
X241000D01*
X209000D02*
X221000D01*
X193000D02*
X209000D01*
X178000D02*
X193000D01*
X164000D02*
X178000D01*
X504000Y340650D02*
Y347000D01*
X466000Y340650D02*
Y347000D01*
X446000Y340650D02*
Y347000D01*
X432000Y340650D02*
Y347000D01*
X417000Y340650D02*
Y347000D01*
X402000Y340650D02*
Y347000D01*
X385000Y340650D02*
Y347000D01*
X370000Y340650D02*
Y347000D01*
X356000Y340650D02*
Y347000D01*
X341000Y340650D02*
Y347000D01*
X316000Y340650D02*
Y347000D01*
X295000Y340650D02*
Y347000D01*
X273000Y340650D02*
Y347000D01*
X257000Y340650D02*
Y347000D01*
X241000Y340650D02*
Y347000D01*
X193000Y340650D02*
Y347000D01*
X178000Y340650D02*
Y347000D01*
X164000Y340650D02*
Y347000D01*
X221000Y340650D02*
Y347000D01*
X209000Y340650D02*
Y347000D01*
X32000Y224000D02*
X41000Y215000D01*
Y120586D02*
Y215000D01*
Y120586D02*
X41586Y120000D01*
X80000D01*
X46000Y140000D02*
X80000D01*
X43000Y130586D02*
Y219000D01*
Y130586D02*
X43586Y130000D01*
X45000Y141000D02*
X46000Y140000D01*
X43586Y130000D02*
X72000D01*
X80000Y140000D02*
X101414D01*
X45000Y141000D02*
Y232000D01*
X37000Y225000D02*
X43000Y219000D01*
X32000Y224000D02*
Y240000D01*
X37000Y225000D02*
Y237000D01*
X40000Y240000D01*
X55586Y150000D02*
X99000D01*
X55000Y150586D02*
Y231000D01*
Y150586D02*
X55586Y150000D01*
X67000Y202000D02*
X71000Y198000D01*
Y180000D02*
Y198000D01*
X75000Y161000D02*
Y204414D01*
X75586Y205000D01*
X86000D01*
X75000Y161000D02*
X76000Y160000D01*
X80000D01*
X99000Y150000D02*
X100000Y151000D01*
X80000Y170000D02*
Y197000D01*
X67350Y334350D02*
X77000D01*
X137000D02*
X147000D01*
X127000D02*
X137000D01*
X117000D02*
X127000D01*
X107000D02*
X117000D01*
X97000D02*
X107000D01*
X87000D02*
X97000D01*
X77000D02*
X87000D01*
X97000Y166414D02*
X97586Y167000D01*
X97000Y160586D02*
Y166414D01*
X97586Y167000D02*
X130000D01*
X96414Y160000D02*
X97000Y160586D01*
X80000Y160000D02*
X96414D01*
X101000Y162000D02*
X123000D01*
X100000Y161000D02*
X101000Y162000D01*
X100000Y151000D02*
Y161000D01*
X127414Y156000D02*
X127649Y155765D01*
X102000Y155414D02*
X102586Y156000D01*
X127649Y155765D02*
X129235D01*
X102000Y140586D02*
Y155414D01*
X129235Y155765D02*
X130000Y155000D01*
X102586Y156000D02*
X127414D01*
X101414Y140000D02*
X102000Y140586D01*
X104000Y149000D02*
X105000Y150000D01*
X123000D01*
X104000Y130586D02*
Y149000D01*
X72000Y130000D02*
X103414D01*
X104000Y130586D01*
X107000Y144000D02*
X130000D01*
X106000Y143000D02*
X107000Y144000D01*
X106000Y120000D02*
Y143000D01*
X80000Y120000D02*
X106000D01*
X233414Y203000D02*
X235000Y201414D01*
X209000Y203000D02*
X233414D01*
X191000Y157000D02*
Y183000D01*
X194000Y186000D01*
X186810Y157000D02*
X191000D01*
Y154850D02*
Y157000D01*
X186224Y153075D02*
Y156414D01*
X186810Y157000D01*
X190850Y152000D02*
X190934Y152084D01*
X185150Y152000D02*
X186224Y153075D01*
X190934Y152084D02*
Y154784D01*
X191000Y154850D01*
X178850Y140000D02*
Y152000D01*
Y135586D02*
Y140000D01*
Y135586D02*
X179436Y135000D01*
X196564D01*
X197150Y135586D02*
Y140000D01*
X196564Y135000D02*
X197150Y135586D01*
X190850Y140000D02*
X190850Y140000D01*
X185150Y140000D02*
X190850D01*
X185150Y146000D02*
X185150Y146000D01*
X191000D01*
Y151850D01*
Y140150D02*
Y146000D01*
X190850Y152000D02*
X191000Y151850D01*
X190850Y140000D02*
X191000Y140150D01*
X201082Y203000D02*
X202325Y201757D01*
X200000Y203000D02*
X201082D01*
X202325Y201757D02*
X202414D01*
X203000Y182586D02*
Y201172D01*
X202414Y201757D02*
X203000Y201172D01*
Y182586D02*
X203586Y182000D01*
X229000D01*
X147000Y340650D02*
Y347000D01*
X137000Y340650D02*
Y347000D01*
X127000Y340650D02*
Y347000D01*
X117000Y340650D02*
Y347000D01*
X107000Y340650D02*
Y347000D01*
X97000Y340650D02*
Y347000D01*
X87000Y340650D02*
Y348000D01*
X77000Y347300D02*
X77400Y347700D01*
X77000Y340650D02*
Y347300D01*
D16*
X486000Y334350D02*
D03*
Y340650D02*
D03*
X504000D02*
D03*
Y334350D02*
D03*
X466000Y340650D02*
D03*
Y334350D02*
D03*
X446000Y340650D02*
D03*
Y334350D02*
D03*
X417000Y340650D02*
D03*
Y334350D02*
D03*
X402000Y340650D02*
D03*
Y334350D02*
D03*
X432000Y340650D02*
D03*
Y334350D02*
D03*
X385000Y340650D02*
D03*
Y334350D02*
D03*
X370000Y340650D02*
D03*
Y334350D02*
D03*
X356000Y340650D02*
D03*
Y334350D02*
D03*
X341000Y340650D02*
D03*
Y334350D02*
D03*
X316000Y340650D02*
D03*
Y334350D02*
D03*
X295000Y340650D02*
D03*
Y334350D02*
D03*
X257000D02*
D03*
Y340650D02*
D03*
X273000Y334350D02*
D03*
Y340650D02*
D03*
X241000Y334350D02*
D03*
Y340650D02*
D03*
X209000Y334350D02*
D03*
Y340650D02*
D03*
X221000Y334350D02*
D03*
Y340650D02*
D03*
X193000Y334350D02*
D03*
Y340650D02*
D03*
X178000Y334350D02*
D03*
Y340650D02*
D03*
X164000Y334350D02*
D03*
Y340650D02*
D03*
X147000Y334350D02*
D03*
Y340650D02*
D03*
X137000Y334350D02*
D03*
Y340650D02*
D03*
X127000Y334350D02*
D03*
Y340650D02*
D03*
X117000Y334350D02*
D03*
Y340650D02*
D03*
X107000Y334350D02*
D03*
Y340650D02*
D03*
X97000Y334350D02*
D03*
Y340650D02*
D03*
X87000Y334350D02*
D03*
Y340650D02*
D03*
X77000Y334350D02*
D03*
Y340650D02*
D03*
D18*
X197299Y146000D02*
D03*
X191000D02*
D03*
X197150Y152000D02*
D03*
X190850D02*
D03*
X178701Y146000D02*
D03*
X185000D02*
D03*
X178850Y152000D02*
D03*
X185150D02*
D03*
X197150Y140000D02*
D03*
X190850D02*
D03*
X178850Y140000D02*
D03*
X185150D02*
D03*
D48*
X20000Y380000D02*
D03*
X540000Y20000D02*
D03*
X20000D02*
D03*
X540000Y380000D02*
D03*
D49*
X408000Y212000D02*
D03*
X229000Y210000D02*
D03*
X317000Y268000D02*
D03*
X462000Y152000D02*
D03*
X521000Y341000D02*
D03*
X295000Y224000D02*
D03*
X250000Y239000D02*
D03*
X448000Y152000D02*
D03*
X462000Y202000D02*
D03*
X448000Y102000D02*
D03*
X266000Y192000D02*
D03*
X448000Y52000D02*
D03*
X317000Y287000D02*
D03*
X278000Y192000D02*
D03*
X448000Y124000D02*
D03*
X295000Y184000D02*
D03*
X448000Y223000D02*
D03*
X462000Y52000D02*
D03*
Y102000D02*
D03*
X408000Y172000D02*
D03*
X448000Y174000D02*
D03*
X408000Y131000D02*
D03*
X448000Y74000D02*
D03*
X408000Y252000D02*
D03*
X295000Y104000D02*
D03*
X448000Y202000D02*
D03*
X295000Y146000D02*
D03*
D50*
X20000Y180000D02*
D03*
X30000Y190000D02*
D03*
X20000Y170000D02*
D03*
Y160000D02*
D03*
Y150000D02*
D03*
Y140000D02*
D03*
Y130000D02*
D03*
Y120000D02*
D03*
X30000Y180000D02*
D03*
Y170000D02*
D03*
Y160000D02*
D03*
Y150000D02*
D03*
Y140000D02*
D03*
Y130000D02*
D03*
Y120000D02*
D03*
D51*
X20000Y190000D02*
D03*
D52*
X229000Y220000D02*
D03*
X239000Y210000D02*
D03*
Y220000D02*
D03*
X249000Y210000D02*
D03*
Y220000D02*
D03*
X540000Y290000D02*
D03*
X530000Y280000D02*
D03*
X540000D02*
D03*
X530000Y270000D02*
D03*
X540000D02*
D03*
X530000Y260000D02*
D03*
X540000D02*
D03*
D53*
X530000Y290000D02*
D03*
D54*
X151000Y93000D02*
D03*
X211000Y74000D02*
D03*
X209000Y65000D02*
D03*
X213000Y53000D02*
D03*
X271000Y87000D02*
D03*
X331000Y176000D02*
D03*
X380000Y173000D02*
D03*
X413000Y91000D02*
D03*
X347000Y71000D02*
D03*
X370000Y174000D02*
D03*
X308000Y160000D02*
D03*
X281000Y155000D02*
D03*
X308000Y199000D02*
D03*
X248000Y77000D02*
D03*
X296000Y257000D02*
D03*
X229000Y263000D02*
D03*
X391000Y265000D02*
D03*
X398000Y270000D02*
D03*
X407000Y261000D02*
D03*
X252000Y263000D02*
D03*
X296787Y240213D02*
D03*
X296000Y266000D02*
D03*
X356000Y35000D02*
D03*
X226000Y134000D02*
D03*
X217000D02*
D03*
X398000Y237000D02*
D03*
Y195000D02*
D03*
Y156000D02*
D03*
Y115000D02*
D03*
X393000Y109000D02*
D03*
Y149000D02*
D03*
Y189000D02*
D03*
Y231000D02*
D03*
X269000Y112000D02*
D03*
X253000Y98000D02*
D03*
X226000D02*
D03*
X262000Y118000D02*
D03*
X185000Y273000D02*
D03*
X229000Y290000D02*
D03*
X273000Y246000D02*
D03*
X305000Y262000D02*
D03*
Y302000D02*
D03*
X276126Y308215D02*
D03*
X264000Y308000D02*
D03*
X172000Y317000D02*
D03*
X191000Y251000D02*
D03*
X185000Y93000D02*
D03*
X178000Y287000D02*
D03*
X193000Y288000D02*
D03*
X191000Y102000D02*
D03*
X352000Y31000D02*
D03*
X345000Y22000D02*
D03*
X352000Y58000D02*
D03*
X164000Y91000D02*
D03*
X226000Y81000D02*
D03*
X236000Y33000D02*
D03*
X228000Y21000D02*
D03*
X217075Y33000D02*
D03*
X205000Y87000D02*
D03*
X109765Y179235D02*
D03*
X164000Y287000D02*
D03*
X142000Y208000D02*
D03*
X123000Y138000D02*
D03*
X131000Y89000D02*
D03*
X38000Y31000D02*
D03*
X39000Y61000D02*
D03*
X290000Y51000D02*
D03*
X271000Y44000D02*
D03*
X328000Y29000D02*
D03*
X289000Y8000D02*
D03*
X310000Y38000D02*
D03*
X297000Y85000D02*
D03*
X248000Y21000D02*
D03*
Y39000D02*
D03*
X236586Y71000D02*
D03*
X288150Y135150D02*
D03*
X288000Y119000D02*
D03*
X327000Y290000D02*
D03*
X326000Y302000D02*
D03*
X335000D02*
D03*
X446000Y316000D02*
D03*
X431000Y142000D02*
D03*
X311000Y206000D02*
D03*
X308000Y125000D02*
D03*
X370000Y319000D02*
D03*
X355000Y77000D02*
D03*
X356000Y319000D02*
D03*
X252000Y153000D02*
D03*
X341000Y319000D02*
D03*
X259000Y147000D02*
D03*
X316000Y319000D02*
D03*
X252000Y141000D02*
D03*
X295000Y319000D02*
D03*
X486000Y347000D02*
D03*
X425000Y73000D02*
D03*
X426000Y29000D02*
D03*
X326000Y72000D02*
D03*
X391000Y12000D02*
D03*
Y42000D02*
D03*
Y54000D02*
D03*
Y86000D02*
D03*
X169500Y40000D02*
D03*
Y13000D02*
D03*
X152500D02*
D03*
Y35000D02*
D03*
X183000Y40000D02*
D03*
X152500Y66000D02*
D03*
Y44000D02*
D03*
X235000Y92000D02*
D03*
X169500Y68400D02*
D03*
X75000Y54000D02*
D03*
Y24000D02*
D03*
X173000Y241000D02*
D03*
X128000Y252000D02*
D03*
X125000Y263000D02*
D03*
Y241000D02*
D03*
X486000Y324000D02*
D03*
X504000D02*
D03*
X330000Y335000D02*
D03*
X307000D02*
D03*
X284000D02*
D03*
X477000Y203000D02*
D03*
X495000Y180000D02*
D03*
X477000Y153000D02*
D03*
X495000Y130000D02*
D03*
Y30000D02*
D03*
Y80000D02*
D03*
X477000Y103000D02*
D03*
Y53000D02*
D03*
X544000Y183000D02*
D03*
X538000Y238000D02*
D03*
X544000Y133000D02*
D03*
Y84000D02*
D03*
X354000Y109000D02*
D03*
Y126000D02*
D03*
Y149000D02*
D03*
Y166000D02*
D03*
Y230000D02*
D03*
Y190000D02*
D03*
Y206000D02*
D03*
Y246000D02*
D03*
X269000Y297000D02*
D03*
X504000Y347000D02*
D03*
X466000D02*
D03*
X446000D02*
D03*
X432000D02*
D03*
X417000D02*
D03*
X402000D02*
D03*
X385000D02*
D03*
X370000D02*
D03*
X356000D02*
D03*
X341000D02*
D03*
X316000D02*
D03*
X295000D02*
D03*
X273000D02*
D03*
X257000D02*
D03*
X241000D02*
D03*
X193000D02*
D03*
X178000D02*
D03*
X164000D02*
D03*
X221000D02*
D03*
X209000D02*
D03*
X45000Y232000D02*
D03*
X40000Y240000D02*
D03*
X32000D02*
D03*
X82000Y294000D02*
D03*
X89000Y303000D02*
D03*
X55000Y231000D02*
D03*
X67000Y202000D02*
D03*
X72000Y150000D02*
D03*
X86000Y205000D02*
D03*
X80000Y197000D02*
D03*
Y170000D02*
D03*
X71000Y180000D02*
D03*
X52000Y275000D02*
D03*
X27000Y312000D02*
D03*
X67350Y334350D02*
D03*
X130000Y167000D02*
D03*
X80000Y160000D02*
D03*
X123000Y162000D02*
D03*
X130000Y155000D02*
D03*
X80000Y140000D02*
D03*
X123000Y150000D02*
D03*
X72000Y130000D02*
D03*
X80000Y120000D02*
D03*
X130000Y144000D02*
D03*
X209000Y203000D02*
D03*
X191000Y199000D02*
D03*
X194000Y186000D02*
D03*
X229000Y182000D02*
D03*
X200000Y203000D02*
D03*
X172000Y100000D02*
D03*
X147000Y347000D02*
D03*
X137000D02*
D03*
X127000D02*
D03*
X117000D02*
D03*
X107000D02*
D03*
X97000D02*
D03*
X87000D02*
D03*
X77400D02*
D03*
M02*
