G04*
G04 #@! TF.GenerationSoftware,Altium Limited,Altium Designer,22.3.1 (43)*
G04*
G04 Layer_Color=65535*
%FSLAX25Y25*%
%MOIN*%
G70*
G04*
G04 #@! TF.SameCoordinates,D3354991-DD5C-4E6D-8F59-54D9BE61E837*
G04*
G04*
G04 #@! TF.FilePolarity,Positive*
G04*
G01*
G75*
%ADD10C,0.01575*%
%ADD11C,0.01000*%
%ADD12C,0.00787*%
%ADD13C,0.00500*%
%ADD14C,0.00800*%
D10*
X170776Y164748D02*
G03*
X170776Y164748I-787J0D01*
G01*
D11*
X477600Y359700D02*
X512600D01*
X477600Y369700D02*
X512600D01*
Y359700D02*
Y369700D01*
X477600Y359700D02*
Y369700D01*
X230200Y359700D02*
X283200D01*
X230200Y369700D02*
X283200D01*
Y359700D02*
Y369700D01*
X230200Y359700D02*
Y369700D01*
X332500Y359700D02*
X392500D01*
X332500Y369700D02*
X392500D01*
Y359700D02*
Y369700D01*
X332500Y359700D02*
Y369700D01*
X456100Y347700D02*
X475900D01*
X456100Y357700D02*
X475900D01*
Y347700D02*
Y357700D01*
X456100Y347700D02*
Y357700D01*
X230200Y347700D02*
X283200D01*
X230200Y357700D02*
X283200D01*
Y347700D02*
Y357700D01*
X230200Y347700D02*
Y357700D01*
X71750Y359500D02*
X228250D01*
X71750Y369500D02*
X228250D01*
Y359500D02*
Y369500D01*
X71750Y359500D02*
Y369500D01*
X154200Y347600D02*
X228200D01*
X154200Y357600D02*
X228200D01*
Y347600D02*
Y357600D01*
X154200Y347600D02*
Y357600D01*
X332500Y347700D02*
X392500D01*
X332500Y357700D02*
X392500D01*
Y347700D02*
Y357700D01*
X332500Y347700D02*
Y357700D01*
X71700Y347600D02*
X152700D01*
X71700Y357600D02*
X152700D01*
Y347600D02*
Y357600D01*
X71700Y347600D02*
Y357600D01*
X394500Y359700D02*
X454500D01*
X394500Y369700D02*
X454500D01*
Y359700D02*
Y369700D01*
X394500Y359700D02*
Y369700D01*
X456100Y359700D02*
X475900D01*
X456100Y369700D02*
X475900D01*
Y359700D02*
Y369700D01*
X456100Y359700D02*
Y369700D01*
X394500Y347700D02*
X454500D01*
X394500Y357700D02*
X454500D01*
Y347700D02*
Y357700D01*
X394500Y347700D02*
Y357700D01*
X477600Y347700D02*
X512600D01*
X477600Y357700D02*
X512600D01*
Y347700D02*
Y357700D01*
X477600Y347700D02*
Y357700D01*
X285200Y347700D02*
X330200D01*
X285200Y357700D02*
X330200D01*
Y347700D02*
Y357700D01*
X285200Y347700D02*
Y357700D01*
Y359700D02*
X330200D01*
X285200Y369700D02*
X330200D01*
Y359700D02*
Y369700D01*
X285200Y359700D02*
Y369700D01*
X413000Y207000D02*
Y217000D01*
X403000Y207000D02*
X413000D01*
X403000D02*
Y217000D01*
X413000D01*
X411000Y207000D02*
X413000D01*
X74500Y331000D02*
X79000D01*
X73000Y329500D02*
X80500D01*
Y345500D01*
X73000D02*
X80500D01*
X73000Y329500D02*
Y345500D01*
X463500Y331000D02*
X468000D01*
X462000Y329500D02*
X469500D01*
Y345500D01*
X462000D02*
X469500D01*
X462000Y329500D02*
Y345500D01*
X353500Y331000D02*
X358000D01*
X352000Y329500D02*
X359500D01*
Y345500D01*
X352000D02*
X359500D01*
X352000Y329500D02*
Y345500D01*
X313500Y331000D02*
X318000D01*
X312000Y329500D02*
X319500D01*
Y345500D01*
X312000D02*
X319500D01*
X312000Y329500D02*
Y345500D01*
X429500Y331000D02*
X434000D01*
X428000Y329500D02*
X435500D01*
Y345500D01*
X428000D02*
X435500D01*
X428000Y329500D02*
Y345500D01*
X104500Y331000D02*
X109000D01*
X103000Y329500D02*
X110500D01*
Y345500D01*
X103000D02*
X110500D01*
X103000Y329500D02*
Y345500D01*
X11000Y145000D02*
Y165000D01*
X7000Y145000D02*
X11000D01*
X7000Y169000D02*
Y210000D01*
Y100000D02*
Y145000D01*
Y100000D02*
X43000D01*
Y210000D01*
X7000D02*
X43000D01*
X7000Y169000D02*
X11000D01*
Y165000D02*
Y169000D01*
X367500Y331000D02*
X372000D01*
X366000Y329500D02*
X373500D01*
Y345500D01*
X366000D02*
X373500D01*
X366000Y329500D02*
Y345500D01*
X124500Y331000D02*
X129000D01*
X123000Y329500D02*
X130500D01*
Y345500D01*
X123000D02*
X130500D01*
X123000Y329500D02*
Y345500D01*
X144500Y331000D02*
X149000D01*
X143000Y329500D02*
X150500D01*
Y345500D01*
X143000D02*
X150500D01*
X143000Y329500D02*
Y345500D01*
X134500Y331000D02*
X139000D01*
X133000Y329500D02*
X140500D01*
Y345500D01*
X133000D02*
X140500D01*
X133000Y329500D02*
Y345500D01*
X175500Y331000D02*
X180000D01*
X174000Y329500D02*
X181500D01*
Y345500D01*
X174000D02*
X181500D01*
X174000Y329500D02*
Y345500D01*
X206500Y331000D02*
X211000D01*
X205000Y329500D02*
X212500D01*
Y345500D01*
X205000D02*
X212500D01*
X205000Y329500D02*
Y345500D01*
X501500Y331000D02*
X506000D01*
X500000Y329500D02*
X507500D01*
Y345500D01*
X500000D02*
X507500D01*
X500000Y329500D02*
Y345500D01*
X190500Y331000D02*
X195000D01*
X189000Y329500D02*
X196500D01*
Y345500D01*
X189000D02*
X196500D01*
X189000Y329500D02*
Y345500D01*
X84500Y331000D02*
X89000D01*
X83000Y329500D02*
X90500D01*
Y345500D01*
X83000D02*
X90500D01*
X83000Y329500D02*
Y345500D01*
X414500Y331000D02*
X419000D01*
X413000Y329500D02*
X420500D01*
Y345500D01*
X413000D02*
X420500D01*
X413000Y329500D02*
Y345500D01*
X270500Y331000D02*
X275000D01*
X269000Y329500D02*
X276500D01*
Y345500D01*
X269000D02*
X276500D01*
X269000Y329500D02*
Y345500D01*
X382500Y331000D02*
X387000D01*
X381000Y329500D02*
X388500D01*
Y345500D01*
X381000D02*
X388500D01*
X381000Y329500D02*
Y345500D01*
X483500Y331000D02*
X488000D01*
X482000Y329500D02*
X489500D01*
Y345500D01*
X482000D02*
X489500D01*
X482000Y329500D02*
Y345500D01*
X94500Y331000D02*
X99000D01*
X93000Y329500D02*
X100500D01*
Y345500D01*
X93000D02*
X100500D01*
X93000Y329500D02*
Y345500D01*
X292500Y331000D02*
X297000D01*
X291000Y329500D02*
X298500D01*
Y345500D01*
X291000D02*
X298500D01*
X291000Y329500D02*
Y345500D01*
X161500Y331000D02*
X166000D01*
X160000Y329500D02*
X167500D01*
Y345500D01*
X160000D02*
X167500D01*
X160000Y329500D02*
Y345500D01*
X399500Y331000D02*
X404000D01*
X398000Y329500D02*
X405500D01*
Y345500D01*
X398000D02*
X405500D01*
X398000Y329500D02*
Y345500D01*
X254500Y331000D02*
X259000D01*
X253000Y329500D02*
X260500D01*
Y345500D01*
X253000D02*
X260500D01*
X253000Y329500D02*
Y345500D01*
X238500Y331000D02*
X243000D01*
X237000Y329500D02*
X244500D01*
Y345500D01*
X237000D02*
X244500D01*
X237000Y329500D02*
Y345500D01*
X114500Y331000D02*
X119000D01*
X113000Y329500D02*
X120500D01*
Y345500D01*
X113000D02*
X120500D01*
X113000Y329500D02*
Y345500D01*
X443500Y331000D02*
X448000D01*
X442000Y329500D02*
X449500D01*
Y345500D01*
X442000D02*
X449500D01*
X442000Y329500D02*
Y345500D01*
X338500Y331000D02*
X343000D01*
X337000Y329500D02*
X344500D01*
Y345500D01*
X337000D02*
X344500D01*
X337000Y329500D02*
Y345500D01*
X218500Y331000D02*
X223000D01*
X217000Y329500D02*
X224500D01*
Y345500D01*
X217000D02*
X224500D01*
X217000Y329500D02*
Y345500D01*
X320000Y263000D02*
X322000D01*
X312000Y273000D02*
X322000D01*
X312000Y263000D02*
Y273000D01*
Y263000D02*
X322000D01*
Y273000D01*
X465000Y147000D02*
X467000D01*
X457000Y157000D02*
X467000D01*
X457000Y147000D02*
Y157000D01*
Y147000D02*
X467000D01*
Y157000D01*
X524000Y336000D02*
X526000D01*
X516000Y346000D02*
X526000D01*
X516000Y336000D02*
Y346000D01*
Y336000D02*
X526000D01*
Y346000D01*
X298000Y219000D02*
X300000D01*
X290000Y229000D02*
X300000D01*
X290000Y219000D02*
Y229000D01*
Y219000D02*
X300000D01*
Y229000D01*
X253000Y234000D02*
X255000D01*
X245000Y244000D02*
X255000D01*
X245000Y234000D02*
Y244000D01*
Y234000D02*
X255000D01*
Y244000D01*
X451000Y147000D02*
X453000D01*
X443000Y157000D02*
X453000D01*
X443000Y147000D02*
Y157000D01*
Y147000D02*
X453000D01*
Y157000D01*
X465000Y197000D02*
X467000D01*
X457000Y207000D02*
X467000D01*
X457000Y197000D02*
Y207000D01*
Y197000D02*
X467000D01*
Y207000D01*
X451000Y97000D02*
X453000D01*
X443000Y107000D02*
X453000D01*
X443000Y97000D02*
Y107000D01*
Y97000D02*
X453000D01*
Y107000D01*
X269000Y187000D02*
X271000D01*
X261000Y197000D02*
X271000D01*
X261000Y187000D02*
Y197000D01*
Y187000D02*
X271000D01*
Y197000D01*
X451000Y47000D02*
X453000D01*
X443000Y57000D02*
X453000D01*
X443000Y47000D02*
Y57000D01*
Y47000D02*
X453000D01*
Y57000D01*
X320000Y282000D02*
X322000D01*
X312000Y292000D02*
X322000D01*
X312000Y282000D02*
Y292000D01*
Y282000D02*
X322000D01*
Y292000D01*
X281000Y187000D02*
X283000D01*
X273000Y197000D02*
X283000D01*
X273000Y187000D02*
Y197000D01*
Y187000D02*
X283000D01*
Y197000D01*
X451000Y119000D02*
X453000D01*
X443000Y129000D02*
X453000D01*
X443000Y119000D02*
Y129000D01*
Y119000D02*
X453000D01*
Y129000D01*
X298000Y179000D02*
X300000D01*
X290000Y189000D02*
X300000D01*
X290000Y179000D02*
Y189000D01*
Y179000D02*
X300000D01*
Y189000D01*
X451000Y218000D02*
X453000D01*
X443000Y228000D02*
X453000D01*
X443000Y218000D02*
Y228000D01*
Y218000D02*
X453000D01*
Y228000D01*
X465000Y47000D02*
X467000D01*
X457000Y57000D02*
X467000D01*
X457000Y47000D02*
Y57000D01*
Y47000D02*
X467000D01*
Y57000D01*
X465000Y97000D02*
X467000D01*
X457000Y107000D02*
X467000D01*
X457000Y97000D02*
Y107000D01*
Y97000D02*
X467000D01*
Y107000D01*
X411000Y167000D02*
X413000D01*
X403000Y177000D02*
X413000D01*
X403000Y167000D02*
Y177000D01*
Y167000D02*
X413000D01*
Y177000D01*
X451000Y169000D02*
X453000D01*
X443000Y179000D02*
X453000D01*
X443000Y169000D02*
Y179000D01*
Y169000D02*
X453000D01*
Y179000D01*
X411000Y126000D02*
X413000D01*
X403000Y136000D02*
X413000D01*
X403000Y126000D02*
Y136000D01*
Y126000D02*
X413000D01*
Y136000D01*
X451000Y69000D02*
X453000D01*
X443000Y79000D02*
X453000D01*
X443000Y69000D02*
Y79000D01*
Y69000D02*
X453000D01*
Y79000D01*
X411000Y247000D02*
X413000D01*
X403000Y257000D02*
X413000D01*
X403000Y247000D02*
Y257000D01*
Y247000D02*
X413000D01*
Y257000D01*
X298000Y99000D02*
X300000D01*
X290000Y109000D02*
X300000D01*
X290000Y99000D02*
Y109000D01*
Y99000D02*
X300000D01*
Y109000D01*
X451000Y197000D02*
X453000D01*
X443000Y207000D02*
X453000D01*
X443000Y197000D02*
Y207000D01*
Y197000D02*
X453000D01*
Y207000D01*
X298000Y141000D02*
X300000D01*
X290000Y151000D02*
X300000D01*
X290000Y141000D02*
Y151000D01*
Y141000D02*
X300000D01*
Y151000D01*
X454000Y11000D02*
Y14999D01*
X455999D01*
X456666Y14332D01*
Y12999D01*
X455999Y12333D01*
X454000D01*
X457999Y11000D02*
X460665Y13666D01*
X461997Y11000D02*
Y14999D01*
X464663Y11000D01*
Y14999D01*
X472661Y14332D02*
X471994Y14999D01*
X470661D01*
X469995Y14332D01*
Y13666D01*
X470661Y12999D01*
X471994D01*
X472661Y12333D01*
Y11666D01*
X471994Y11000D01*
X470661D01*
X469995Y11666D01*
X474660Y11000D02*
X475993D01*
X476659Y11666D01*
Y12999D01*
X475993Y13666D01*
X474660D01*
X473993Y12999D01*
Y11666D01*
X474660Y11000D01*
X477992Y13666D02*
Y11666D01*
X478659Y11000D01*
X480658D01*
Y13666D01*
X481991Y11000D02*
Y13666D01*
X483990D01*
X484657Y12999D01*
Y11000D01*
X488656Y14999D02*
Y11000D01*
X486656D01*
X485990Y11666D01*
Y12999D01*
X486656Y13666D01*
X488656D01*
X489988Y12999D02*
X492654D01*
X493987Y14332D02*
X494654Y14999D01*
X495986D01*
X496653Y14332D01*
Y13666D01*
X495986Y12999D01*
X495320D01*
X495986D01*
X496653Y12333D01*
Y11666D01*
X495986Y11000D01*
X494654D01*
X493987Y11666D01*
X500652Y11000D02*
X497986D01*
X500652Y13666D01*
Y14332D01*
X499985Y14999D01*
X498652D01*
X497986Y14332D01*
X501985Y11666D02*
X502651Y11000D01*
X503984D01*
X504650Y11666D01*
Y14332D01*
X503984Y14999D01*
X502651D01*
X501985Y14332D01*
Y13666D01*
X502651Y12999D01*
X504650D01*
X508649Y14999D02*
X505983D01*
Y12999D01*
X507316Y13666D01*
X507983D01*
X508649Y12999D01*
Y11666D01*
X507983Y11000D01*
X506650D01*
X505983Y11666D01*
X509982Y14332D02*
X510648Y14999D01*
X511981D01*
X512648Y14332D01*
Y13666D01*
X511981Y12999D01*
X512648Y12333D01*
Y11666D01*
X511981Y11000D01*
X510648D01*
X509982Y11666D01*
Y12333D01*
X510648Y12999D01*
X509982Y13666D01*
Y14332D01*
X510648Y12999D02*
X511981D01*
X503666Y354499D02*
X501000D01*
Y352499D01*
X502333Y353166D01*
X502999D01*
X503666Y352499D01*
Y351166D01*
X502999Y350500D01*
X501666D01*
X501000Y351166D01*
X504999Y354499D02*
Y351833D01*
X506332Y350500D01*
X507664Y351833D01*
Y354499D01*
X481000Y353832D02*
X481666Y354499D01*
X482999D01*
X483666Y353832D01*
Y353166D01*
X482999Y352499D01*
X482333D01*
X482999D01*
X483666Y351833D01*
Y351166D01*
X482999Y350500D01*
X481666D01*
X481000Y351166D01*
X484999Y350500D02*
Y351166D01*
X485665D01*
Y350500D01*
X484999D01*
X488331Y353832D02*
X488997Y354499D01*
X490330D01*
X490997Y353832D01*
Y353166D01*
X490330Y352499D01*
X489664D01*
X490330D01*
X490997Y351833D01*
Y351166D01*
X490330Y350500D01*
X488997D01*
X488331Y351166D01*
X492330Y354499D02*
Y351833D01*
X493663Y350500D01*
X494995Y351833D01*
Y354499D01*
X430221Y353832D02*
X429555Y354499D01*
X428222D01*
X427555Y353832D01*
Y351166D01*
X428222Y350500D01*
X429555D01*
X430221Y351166D01*
X434220Y353832D02*
X433553Y354499D01*
X432220D01*
X431554Y353832D01*
Y353166D01*
X432220Y352499D01*
X433553D01*
X434220Y351833D01*
Y351166D01*
X433553Y350500D01*
X432220D01*
X431554Y351166D01*
X435553Y350500D02*
X436886D01*
X436219D01*
Y354499D01*
X435553Y353832D01*
X414943D02*
X414277Y354499D01*
X412944D01*
X412278Y353832D01*
Y351166D01*
X412944Y350500D01*
X414277D01*
X414943Y351166D01*
X418942Y353832D02*
X418276Y354499D01*
X416943D01*
X416276Y353832D01*
Y353166D01*
X416943Y352499D01*
X418276D01*
X418942Y351833D01*
Y351166D01*
X418276Y350500D01*
X416943D01*
X416276Y351166D01*
X422941Y350500D02*
X420275D01*
X422941Y353166D01*
Y353832D01*
X422274Y354499D01*
X420941D01*
X420275Y353832D01*
X399666D02*
X398999Y354499D01*
X397666D01*
X397000Y353832D01*
Y351166D01*
X397666Y350500D01*
X398999D01*
X399666Y351166D01*
X403664Y353832D02*
X402998Y354499D01*
X401665D01*
X400999Y353832D01*
Y353166D01*
X401665Y352499D01*
X402998D01*
X403664Y351833D01*
Y351166D01*
X402998Y350500D01*
X401665D01*
X400999Y351166D01*
X404997Y353832D02*
X405664Y354499D01*
X406997D01*
X407663Y353832D01*
Y353166D01*
X406997Y352499D01*
X406330D01*
X406997D01*
X407663Y351833D01*
Y351166D01*
X406997Y350500D01*
X405664D01*
X404997Y351166D01*
X444166Y353832D02*
X443499Y354499D01*
X442166D01*
X441500Y353832D01*
Y351166D01*
X442166Y350500D01*
X443499D01*
X444166Y351166D01*
X448165Y353832D02*
X447498Y354499D01*
X446165D01*
X445499Y353832D01*
Y353166D01*
X446165Y352499D01*
X447498D01*
X448165Y351833D01*
Y351166D01*
X447498Y350500D01*
X446165D01*
X445499Y351166D01*
X449497Y353832D02*
X450164Y354499D01*
X451497D01*
X452163Y353832D01*
Y351166D01*
X451497Y350500D01*
X450164D01*
X449497Y351166D01*
Y353832D01*
X289300Y366499D02*
Y362500D01*
X291299D01*
X291966Y363166D01*
Y365832D01*
X291299Y366499D01*
X289300D01*
X293299Y362500D02*
Y365166D01*
X294632Y366499D01*
X295965Y365166D01*
Y362500D01*
Y364499D01*
X293299D01*
X299963Y365832D02*
X299297Y366499D01*
X297964D01*
X297297Y365832D01*
Y363166D01*
X297964Y362500D01*
X299297D01*
X299963Y363166D01*
X307961Y365832D02*
X307294Y366499D01*
X305961D01*
X305295Y365832D01*
Y365166D01*
X305961Y364499D01*
X307294D01*
X307961Y363833D01*
Y363166D01*
X307294Y362500D01*
X305961D01*
X305295Y363166D01*
X311293Y362500D02*
X309960D01*
X309294Y363166D01*
Y364499D01*
X309960Y365166D01*
X311293D01*
X311959Y364499D01*
Y363833D01*
X309294D01*
X313292Y362500D02*
X314625D01*
X313959D01*
Y366499D01*
X313292D01*
X318624Y362500D02*
X317291D01*
X316624Y363166D01*
Y364499D01*
X317291Y365166D01*
X318624D01*
X319290Y364499D01*
Y363833D01*
X316624D01*
X323289Y365166D02*
X321290D01*
X320623Y364499D01*
Y363166D01*
X321290Y362500D01*
X323289D01*
X325288Y365832D02*
Y365166D01*
X324622D01*
X325955D01*
X325288D01*
Y363166D01*
X325955Y362500D01*
X486000D02*
Y366499D01*
X487999D01*
X488666Y365832D01*
Y364499D01*
X487999Y363833D01*
X486000D01*
X490665Y362500D02*
X491998D01*
X492664Y363166D01*
Y364499D01*
X491998Y365166D01*
X490665D01*
X489999Y364499D01*
Y363166D01*
X490665Y362500D01*
X493997Y365166D02*
Y363166D01*
X494664Y362500D01*
X495330Y363166D01*
X495997Y362500D01*
X496663Y363166D01*
Y365166D01*
X499996Y362500D02*
X498663D01*
X497996Y363166D01*
Y364499D01*
X498663Y365166D01*
X499996D01*
X500662Y364499D01*
Y363833D01*
X497996D01*
X501995Y365166D02*
Y362500D01*
Y363833D01*
X502661Y364499D01*
X503328Y365166D01*
X503994D01*
X461000Y362500D02*
Y365166D01*
X462333Y366499D01*
X463666Y365166D01*
Y362500D01*
Y364499D01*
X461000D01*
X464999Y366499D02*
Y362500D01*
X466998D01*
X467664Y363166D01*
Y365832D01*
X466998Y366499D01*
X464999D01*
X471663Y365832D02*
X470997Y366499D01*
X469664D01*
X468997Y365832D01*
Y363166D01*
X469664Y362500D01*
X470997D01*
X471663Y363166D01*
X406666Y365832D02*
X405999Y366499D01*
X404666D01*
X404000Y365832D01*
Y365166D01*
X404666Y364499D01*
X405999D01*
X406666Y363833D01*
Y363166D01*
X405999Y362500D01*
X404666D01*
X404000Y363166D01*
X407999Y362500D02*
Y366499D01*
X409998D01*
X410665Y365832D01*
Y364499D01*
X409998Y363833D01*
X407999D01*
X409332D02*
X410665Y362500D01*
X411997D02*
Y365166D01*
X413330Y366499D01*
X414663Y365166D01*
Y362500D01*
Y364499D01*
X411997D01*
X415996Y362500D02*
Y366499D01*
X417329Y365166D01*
X418662Y366499D01*
Y362500D01*
X426659Y365832D02*
X425993Y366499D01*
X424660D01*
X423993Y365832D01*
Y365166D01*
X424660Y364499D01*
X425993D01*
X426659Y363833D01*
Y363166D01*
X425993Y362500D01*
X424660D01*
X423993Y363166D01*
X429992Y362500D02*
X428659D01*
X427992Y363166D01*
Y364499D01*
X428659Y365166D01*
X429992D01*
X430658Y364499D01*
Y363833D01*
X427992D01*
X431991Y362500D02*
X433324D01*
X432657D01*
Y366499D01*
X431991D01*
X437323Y362500D02*
X435990D01*
X435323Y363166D01*
Y364499D01*
X435990Y365166D01*
X437323D01*
X437989Y364499D01*
Y363833D01*
X435323D01*
X441988Y365166D02*
X439988D01*
X439322Y364499D01*
Y363166D01*
X439988Y362500D01*
X441988D01*
X443987Y365832D02*
Y365166D01*
X443321D01*
X444654D01*
X443987D01*
Y363166D01*
X444654Y362500D01*
X344500Y366499D02*
Y363833D01*
X345833Y362500D01*
X347166Y363833D01*
Y366499D01*
X349165Y362500D02*
X350498D01*
X351165Y363166D01*
Y364499D01*
X350498Y365166D01*
X349165D01*
X348499Y364499D01*
Y363166D01*
X349165Y362500D01*
X352497D02*
X353830D01*
X353164D01*
Y366499D01*
X352497D01*
X362494Y365832D02*
X361828Y366499D01*
X360495D01*
X359828Y365832D01*
Y365166D01*
X360495Y364499D01*
X361828D01*
X362494Y363833D01*
Y363166D01*
X361828Y362500D01*
X360495D01*
X359828Y363166D01*
X365827Y362500D02*
X364494D01*
X363827Y363166D01*
Y364499D01*
X364494Y365166D01*
X365827D01*
X366493Y364499D01*
Y363833D01*
X363827D01*
X367826Y362500D02*
X369159D01*
X368492D01*
Y366499D01*
X367826D01*
X373157Y362500D02*
X371825D01*
X371158Y363166D01*
Y364499D01*
X371825Y365166D01*
X373157D01*
X373824Y364499D01*
Y363833D01*
X371158D01*
X377823Y365166D02*
X375823D01*
X375157Y364499D01*
Y363166D01*
X375823Y362500D01*
X377823D01*
X379822Y365832D02*
Y365166D01*
X379155D01*
X380488D01*
X379822D01*
Y363166D01*
X380488Y362500D01*
X246666Y365832D02*
X245999Y366499D01*
X244666D01*
X244000Y365832D01*
Y363166D01*
X244666Y362500D01*
X245999D01*
X246666Y363166D01*
X248665Y362500D02*
X249998D01*
X250664Y363166D01*
Y364499D01*
X249998Y365166D01*
X248665D01*
X247999Y364499D01*
Y363166D01*
X248665Y362500D01*
X251997D02*
Y365166D01*
X253997D01*
X254663Y364499D01*
Y362500D01*
X256663Y365832D02*
Y365166D01*
X255996D01*
X257329D01*
X256663D01*
Y363166D01*
X257329Y362500D01*
X259328Y365166D02*
Y362500D01*
Y363833D01*
X259995Y364499D01*
X260661Y365166D01*
X261328D01*
X263994Y362500D02*
X265326D01*
X265993Y363166D01*
Y364499D01*
X265326Y365166D01*
X263994D01*
X263327Y364499D01*
Y363166D01*
X263994Y362500D01*
X267326D02*
X268659D01*
X267992D01*
Y366499D01*
X267326D01*
X382166Y353832D02*
X381499Y354499D01*
X380166D01*
X379500Y353832D01*
Y351166D01*
X380166Y350500D01*
X381499D01*
X382166Y351166D01*
X386164Y353832D02*
X385498Y354499D01*
X384165D01*
X383499Y353832D01*
Y353166D01*
X384165Y352499D01*
X385498D01*
X386164Y351833D01*
Y351166D01*
X385498Y350500D01*
X384165D01*
X383499Y351166D01*
X387497Y353832D02*
X388164Y354499D01*
X389497D01*
X390163Y353832D01*
Y351166D01*
X389497Y350500D01*
X388164D01*
X387497Y351166D01*
Y353832D01*
X465666D02*
X464999Y354499D01*
X463666D01*
X463000Y353832D01*
Y351166D01*
X463666Y350500D01*
X464999D01*
X465666Y351166D01*
X469664Y353832D02*
X468998Y354499D01*
X467665D01*
X466999Y353832D01*
Y353166D01*
X467665Y352499D01*
X468998D01*
X469664Y351833D01*
Y351166D01*
X468998Y350500D01*
X467665D01*
X466999Y351166D01*
X337666Y353832D02*
X336999Y354499D01*
X335666D01*
X335000Y353832D01*
Y351166D01*
X335666Y350500D01*
X336999D01*
X337666Y351166D01*
X341665Y353832D02*
X340998Y354499D01*
X339665D01*
X338999Y353832D01*
Y353166D01*
X339665Y352499D01*
X340998D01*
X341665Y351833D01*
Y351166D01*
X340998Y350500D01*
X339665D01*
X338999Y351166D01*
X342997Y353832D02*
X343664Y354499D01*
X344997D01*
X345663Y353832D01*
Y353166D01*
X344997Y352499D01*
X344330D01*
X344997D01*
X345663Y351833D01*
Y351166D01*
X344997Y350500D01*
X343664D01*
X342997Y351166D01*
X352943Y353832D02*
X352277Y354499D01*
X350944D01*
X350278Y353832D01*
Y351166D01*
X350944Y350500D01*
X352277D01*
X352943Y351166D01*
X356942Y353832D02*
X356276Y354499D01*
X354943D01*
X354276Y353832D01*
Y353166D01*
X354943Y352499D01*
X356276D01*
X356942Y351833D01*
Y351166D01*
X356276Y350500D01*
X354943D01*
X354276Y351166D01*
X360941Y350500D02*
X358275D01*
X360941Y353166D01*
Y353832D01*
X360274Y354499D01*
X358942D01*
X358275Y353832D01*
X368221D02*
X367555Y354499D01*
X366222D01*
X365555Y353832D01*
Y351166D01*
X366222Y350500D01*
X367555D01*
X368221Y351166D01*
X372220Y353832D02*
X371553Y354499D01*
X370220D01*
X369554Y353832D01*
Y353166D01*
X370220Y352499D01*
X371553D01*
X372220Y351833D01*
Y351166D01*
X371553Y350500D01*
X370220D01*
X369554Y351166D01*
X373553Y350500D02*
X374886D01*
X374219D01*
Y354499D01*
X373553Y353832D01*
X293666D02*
X292999Y354499D01*
X291666D01*
X291000Y353832D01*
Y351166D01*
X291666Y350500D01*
X292999D01*
X293666Y351166D01*
X297664Y353832D02*
X296998Y354499D01*
X295665D01*
X294999Y353832D01*
Y353166D01*
X295665Y352499D01*
X296998D01*
X297664Y351833D01*
Y351166D01*
X296998Y350500D01*
X295665D01*
X294999Y351166D01*
X298997Y350500D02*
X300330D01*
X299664D01*
Y354499D01*
X298997Y353832D01*
X312666D02*
X311999Y354499D01*
X310666D01*
X310000Y353832D01*
Y351166D01*
X310666Y350500D01*
X311999D01*
X312666Y351166D01*
X316665Y353832D02*
X315998Y354499D01*
X314665D01*
X313999Y353832D01*
Y353166D01*
X314665Y352499D01*
X315998D01*
X316665Y351833D01*
Y351166D01*
X315998Y350500D01*
X314665D01*
X313999Y351166D01*
X317997Y353832D02*
X318664Y354499D01*
X319997D01*
X320663Y353832D01*
Y351166D01*
X319997Y350500D01*
X318664D01*
X317997Y351166D01*
Y353832D01*
X235500Y354499D02*
Y350500D01*
X237499D01*
X238166Y351166D01*
Y353832D01*
X237499Y354499D01*
X235500D01*
X239499Y350500D02*
X240832D01*
X240165D01*
Y353166D01*
X239499D01*
X242831Y350500D02*
Y353166D01*
X244830D01*
X245497Y352499D01*
Y350500D01*
X249500Y354499D02*
Y350500D01*
X251499D01*
X252166Y351166D01*
Y353832D01*
X251499Y354499D01*
X249500D01*
X254165Y350500D02*
X255498D01*
X256165Y351166D01*
Y352499D01*
X255498Y353166D01*
X254165D01*
X253499Y352499D01*
Y351166D01*
X254165Y350500D01*
X257497Y353166D02*
Y351166D01*
X258164Y350500D01*
X260163D01*
Y353166D01*
X262163Y353832D02*
Y353166D01*
X261496D01*
X262829D01*
X262163D01*
Y351166D01*
X262829Y350500D01*
X268166Y353832D02*
X267499Y354499D01*
X266166D01*
X265500Y353832D01*
Y353166D01*
X266166Y352499D01*
X267499D01*
X268166Y351833D01*
Y351166D01*
X267499Y350500D01*
X266166D01*
X265500Y351166D01*
X272165Y353166D02*
X270165D01*
X269499Y352499D01*
Y351166D01*
X270165Y350500D01*
X272165D01*
X273497D02*
X274830D01*
X274164D01*
Y354499D01*
X273497D01*
X276830Y350500D02*
Y354499D01*
Y351833D02*
X278829Y353166D01*
X276830Y351833D02*
X278829Y350500D01*
X141000Y382999D02*
Y386998D01*
X142999Y388997D01*
X144999Y386998D01*
Y382999D01*
Y385998D01*
X141000D01*
X146998Y388997D02*
Y382999D01*
X149997D01*
X150997Y383999D01*
Y384999D01*
X149997Y385998D01*
X146998D01*
X149997D01*
X150997Y386998D01*
Y387998D01*
X149997Y388997D01*
X146998D01*
X156995Y387998D02*
X155995Y388997D01*
X153996D01*
X152996Y387998D01*
Y386998D01*
X153996Y385998D01*
X155995D01*
X156995Y384999D01*
Y383999D01*
X155995Y382999D01*
X153996D01*
X152996Y383999D01*
X164992Y388997D02*
Y382999D01*
X167991D01*
X168991Y383999D01*
Y387998D01*
X167991Y388997D01*
X164992D01*
X171990Y386998D02*
X173989D01*
X174989Y385998D01*
Y382999D01*
X171990D01*
X170990Y383999D01*
X171990Y384999D01*
X174989D01*
X177988Y387998D02*
Y386998D01*
X176988D01*
X178988D01*
X177988D01*
Y383999D01*
X178988Y382999D01*
X182986Y386998D02*
X184986D01*
X185985Y385998D01*
Y382999D01*
X182986D01*
X181987Y383999D01*
X182986Y384999D01*
X185985D01*
X197982Y387998D02*
X196982Y388997D01*
X194983D01*
X193983Y387998D01*
Y386998D01*
X194983Y385998D01*
X196982D01*
X197982Y384999D01*
Y383999D01*
X196982Y382999D01*
X194983D01*
X193983Y383999D01*
X199981Y386998D02*
Y383999D01*
X200981Y382999D01*
X203980D01*
Y382000D01*
X202980Y381000D01*
X201980D01*
X203980Y382999D02*
Y386998D01*
X205979Y382999D02*
X208978D01*
X209978Y383999D01*
X208978Y384999D01*
X206979D01*
X205979Y385998D01*
X206979Y386998D01*
X209978D01*
X212977Y387998D02*
Y386998D01*
X211977D01*
X213976D01*
X212977D01*
Y383999D01*
X213976Y382999D01*
X219974D02*
X217975D01*
X216975Y383999D01*
Y385998D01*
X217975Y386998D01*
X219974D01*
X220974Y385998D01*
Y384999D01*
X216975D01*
X222973Y382999D02*
Y386998D01*
X223973D01*
X224973Y385998D01*
Y382999D01*
Y385998D01*
X225973Y386998D01*
X226972Y385998D01*
Y382999D01*
X228972D02*
X231971D01*
X232970Y383999D01*
X231971Y384999D01*
X229971D01*
X228972Y385998D01*
X229971Y386998D01*
X232970D01*
X235969Y382000D02*
X236969Y382999D01*
Y383999D01*
X235969D01*
Y382999D01*
X236969D01*
X235969Y382000D01*
X234970Y381000D01*
X246966Y388997D02*
X248965D01*
X247965D01*
Y382999D01*
X246966D01*
X248965D01*
X251964D02*
Y386998D01*
X254963D01*
X255963Y385998D01*
Y382999D01*
X261961Y386998D02*
X258962D01*
X257962Y385998D01*
Y383999D01*
X258962Y382999D01*
X261961D01*
X264960Y382000D02*
X265960Y382999D01*
Y383999D01*
X264960D01*
Y382999D01*
X265960D01*
X264960Y382000D01*
X263960Y381000D01*
X277956Y382999D02*
X275956Y384999D01*
Y386998D01*
X277956Y388997D01*
X284953Y386998D02*
X281954D01*
X280955Y385998D01*
Y383999D01*
X281954Y382999D01*
X284953D01*
X286953D02*
X288952Y384999D01*
Y386998D01*
X286953Y388997D01*
X301948Y387998D02*
X300948Y388997D01*
X298949D01*
X297949Y387998D01*
Y383999D01*
X298949Y382999D01*
X300948D01*
X301948Y383999D01*
X304947Y382999D02*
X306946D01*
X307946Y383999D01*
Y385998D01*
X306946Y386998D01*
X304947D01*
X303947Y385998D01*
Y383999D01*
X304947Y382999D01*
X309945Y381000D02*
Y386998D01*
X312944D01*
X313944Y385998D01*
Y383999D01*
X312944Y382999D01*
X309945D01*
X315943Y386998D02*
Y383999D01*
X316943Y382999D01*
X319942D01*
Y382000D01*
X318942Y381000D01*
X317943D01*
X319942Y382999D02*
Y386998D01*
X321941D02*
Y382999D01*
Y384999D01*
X322941Y385998D01*
X323941Y386998D01*
X324940D01*
X327940Y382999D02*
X329939D01*
X328939D01*
Y386998D01*
X327940D01*
X334937Y381000D02*
X335937D01*
X336937Y382000D01*
Y386998D01*
X333938D01*
X332938Y385998D01*
Y383999D01*
X333938Y382999D01*
X336937D01*
X338936Y388997D02*
Y382999D01*
Y385998D01*
X339936Y386998D01*
X341935D01*
X342935Y385998D01*
Y382999D01*
X345934Y387998D02*
Y386998D01*
X344934D01*
X346933D01*
X345934D01*
Y383999D01*
X346933Y382999D01*
X359929D02*
X355930D01*
X359929Y386998D01*
Y387998D01*
X358929Y388997D01*
X356930D01*
X355930Y387998D01*
X361929D02*
X362928Y388997D01*
X364928D01*
X365927Y387998D01*
Y383999D01*
X364928Y382999D01*
X362928D01*
X361929Y383999D01*
Y387998D01*
X371925Y382999D02*
X367927D01*
X371925Y386998D01*
Y387998D01*
X370926Y388997D01*
X368926D01*
X367927Y387998D01*
X373925D02*
X374924Y388997D01*
X376924D01*
X377923Y387998D01*
Y386998D01*
X376924Y385998D01*
X375924D01*
X376924D01*
X377923Y384999D01*
Y383999D01*
X376924Y382999D01*
X374924D01*
X373925Y383999D01*
X123500Y354499D02*
Y350500D01*
X125499D01*
X126166Y351166D01*
Y353832D01*
X125499Y354499D01*
X123500D01*
X130165Y350500D02*
X127499D01*
X130165Y353166D01*
Y353832D01*
X129498Y354499D01*
X128165D01*
X127499Y353832D01*
X217500Y354499D02*
Y350500D01*
X218833Y351833D01*
X220166Y350500D01*
Y354499D01*
X221499Y350500D02*
Y354499D01*
X223498D01*
X224165Y353832D01*
Y352499D01*
X223498Y351833D01*
X221499D01*
X222832D02*
X224165Y350500D01*
X133500Y354499D02*
Y350500D01*
X135499D01*
X136166Y351166D01*
Y353832D01*
X135499Y354499D01*
X133500D01*
X137499Y350500D02*
X138832D01*
X138165D01*
Y354499D01*
X137499Y353832D01*
X143500Y354499D02*
Y350500D01*
X145499D01*
X146166Y351166D01*
Y353832D01*
X145499Y354499D01*
X143500D01*
X147499Y353832D02*
X148165Y354499D01*
X149498D01*
X150164Y353832D01*
Y351166D01*
X149498Y350500D01*
X148165D01*
X147499Y351166D01*
Y353832D01*
X159500Y354499D02*
X160833D01*
X160167D01*
Y350500D01*
X159500D01*
X160833D01*
X162832D02*
Y353166D01*
X164832D01*
X165498Y352499D01*
Y350500D01*
X167497Y353832D02*
Y353166D01*
X166831D01*
X168164D01*
X167497D01*
Y351166D01*
X168164Y350500D01*
X173500D02*
Y354499D01*
X175499D01*
X176166Y353832D01*
Y352499D01*
X175499Y351833D01*
X173500D01*
X174833D02*
X176166Y350500D01*
X177499D02*
X179498D01*
X180165Y351166D01*
X179498Y351833D01*
X178165D01*
X177499Y352499D01*
X178165Y353166D01*
X180165D01*
X182164Y353832D02*
Y353166D01*
X181497D01*
X182830D01*
X182164D01*
Y351166D01*
X182830Y350500D01*
X192166Y353832D02*
X191499Y354499D01*
X190166D01*
X189500Y353832D01*
Y351166D01*
X190166Y350500D01*
X191499D01*
X192166Y351166D01*
X196165Y353832D02*
X195498Y354499D01*
X194165D01*
X193499Y353832D01*
Y353166D01*
X194165Y352499D01*
X195498D01*
X196165Y351833D01*
Y351166D01*
X195498Y350500D01*
X194165D01*
X193499Y351166D01*
X120166Y365832D02*
X119499Y366499D01*
X118166D01*
X117500Y365832D01*
Y363166D01*
X118166Y362500D01*
X119499D01*
X120166Y363166D01*
X121499Y362500D02*
Y366499D01*
X123498D01*
X124164Y365832D01*
Y364499D01*
X123498Y363833D01*
X121499D01*
X125497Y366499D02*
Y363166D01*
X126164Y362500D01*
X127497D01*
X128163Y363166D01*
Y366499D01*
X133495D02*
Y362500D01*
X135494D01*
X136161Y363166D01*
Y363833D01*
X135494Y364499D01*
X133495D01*
X135494D01*
X136161Y365166D01*
Y365832D01*
X135494Y366499D01*
X133495D01*
X137494Y365166D02*
Y363166D01*
X138160Y362500D01*
X140159D01*
Y365166D01*
X141492Y362500D02*
X143492D01*
X144158Y363166D01*
X143492Y363833D01*
X142159D01*
X141492Y364499D01*
X142159Y365166D01*
X144158D01*
X150156D02*
X151489D01*
X152155Y364499D01*
Y362500D01*
X150156D01*
X149490Y363166D01*
X150156Y363833D01*
X152155D01*
X153488Y362500D02*
Y365166D01*
X155488D01*
X156154Y364499D01*
Y362500D01*
X160153Y366499D02*
Y362500D01*
X158153D01*
X157487Y363166D01*
Y364499D01*
X158153Y365166D01*
X160153D01*
X168150Y365832D02*
X167484Y366499D01*
X166151D01*
X165484Y365832D01*
Y363166D01*
X166151Y362500D01*
X167484D01*
X168150Y363166D01*
X170150Y362500D02*
X171483D01*
X172149Y363166D01*
Y364499D01*
X171483Y365166D01*
X170150D01*
X169483Y364499D01*
Y363166D01*
X170150Y362500D01*
X173482D02*
Y365166D01*
X175481D01*
X176148Y364499D01*
Y362500D01*
X178147Y365832D02*
Y365166D01*
X177481D01*
X178814D01*
X178147D01*
Y363166D01*
X178814Y362500D01*
X180813Y365166D02*
Y362500D01*
Y363833D01*
X181479Y364499D01*
X182146Y365166D01*
X182812D01*
X185478Y362500D02*
X186811D01*
X187477Y363166D01*
Y364499D01*
X186811Y365166D01*
X185478D01*
X184812Y364499D01*
Y363166D01*
X185478Y362500D01*
X188810D02*
X190143D01*
X189477D01*
Y366499D01*
X188810D01*
X93500Y354499D02*
Y350500D01*
X95499D01*
X96166Y351166D01*
Y353832D01*
X95499Y354499D01*
X93500D01*
X100164D02*
X97499D01*
Y352499D01*
X98832Y353166D01*
X99498D01*
X100164Y352499D01*
Y351166D01*
X99498Y350500D01*
X98165D01*
X97499Y351166D01*
X83500Y354499D02*
Y350500D01*
X85499D01*
X86166Y351166D01*
Y353832D01*
X85499Y354499D01*
X83500D01*
X90165D02*
X88832Y353832D01*
X87499Y352499D01*
Y351166D01*
X88165Y350500D01*
X89498D01*
X90165Y351166D01*
Y351833D01*
X89498Y352499D01*
X87499D01*
X73500Y354499D02*
Y350500D01*
X75499D01*
X76166Y351166D01*
Y353832D01*
X75499Y354499D01*
X73500D01*
X77499D02*
X80164D01*
Y353832D01*
X77499Y351166D01*
Y350500D01*
X103500Y354499D02*
Y350500D01*
X105499D01*
X106166Y351166D01*
Y353832D01*
X105499Y354499D01*
X103500D01*
X109498Y350500D02*
Y354499D01*
X107499Y352499D01*
X110164D01*
X113500Y354499D02*
Y350500D01*
X115499D01*
X116166Y351166D01*
Y353832D01*
X115499Y354499D01*
X113500D01*
X117499Y353832D02*
X118165Y354499D01*
X119498D01*
X120165Y353832D01*
Y353166D01*
X119498Y352499D01*
X118832D01*
X119498D01*
X120165Y351833D01*
Y351166D01*
X119498Y350500D01*
X118165D01*
X117499Y351166D01*
X205000Y350500D02*
Y354499D01*
X206999D01*
X207666Y353832D01*
Y352499D01*
X206999Y351833D01*
X205000D01*
X206333D02*
X207666Y350500D01*
X208999Y354499D02*
Y350500D01*
X210998D01*
X211665Y351166D01*
Y353832D01*
X210998Y354499D01*
X208999D01*
X479668Y72001D02*
Y75999D01*
X481668D01*
X482334Y75333D01*
Y74000D01*
X481668Y73334D01*
X479668D01*
X481001D02*
X482334Y72001D01*
X483667Y75333D02*
X484334Y75999D01*
X485666D01*
X486333Y75333D01*
Y74666D01*
X485666Y74000D01*
X486333Y73334D01*
Y72667D01*
X485666Y72001D01*
X484334D01*
X483667Y72667D01*
Y73334D01*
X484334Y74000D01*
X483667Y74666D01*
Y75333D01*
X484334Y74000D02*
X485666D01*
X487666Y72667D02*
X488332Y72001D01*
X489665D01*
X490332Y72667D01*
Y75333D01*
X489665Y75999D01*
X488332D01*
X487666Y75333D01*
Y74666D01*
X488332Y74000D01*
X490332D01*
X32668Y309999D02*
Y306667D01*
X33334Y306001D01*
X34667D01*
X35334Y306667D01*
Y309999D01*
X39332Y306001D02*
X36667D01*
X39332Y308666D01*
Y309333D01*
X38666Y309999D01*
X37333D01*
X36667Y309333D01*
X238334Y292999D02*
Y289667D01*
X239001Y289001D01*
X240334D01*
X241000Y289667D01*
Y292999D01*
X242333Y289001D02*
X243666D01*
X242999D01*
Y292999D01*
X242333Y292333D01*
X310502Y277500D02*
X312501D01*
X311502D01*
Y274500D01*
X313501D02*
Y277500D01*
X315000D01*
X315500Y277000D01*
Y276000D01*
X315000Y275500D01*
X313501D01*
X318499Y274500D02*
X316500D01*
X318499Y276500D01*
Y277000D01*
X317999Y277500D01*
X317000D01*
X316500Y277000D01*
X321498Y277500D02*
X320498Y277000D01*
X319499Y276000D01*
Y275000D01*
X319999Y274500D01*
X320998D01*
X321498Y275000D01*
Y275500D01*
X320998Y276000D01*
X319499D01*
X311502Y296499D02*
X313501D01*
X312502D01*
Y293500D01*
X314501D02*
Y296499D01*
X316000D01*
X316500Y296000D01*
Y295000D01*
X316000Y294500D01*
X314501D01*
X319499Y293500D02*
X317500D01*
X319499Y295500D01*
Y296000D01*
X318999Y296499D01*
X318000D01*
X317500Y296000D01*
X322498Y296499D02*
X320499D01*
Y295000D01*
X321498Y295500D01*
X321998D01*
X322498Y295000D01*
Y294000D01*
X321998Y293500D01*
X320999D01*
X320499Y294000D01*
X289502Y113499D02*
X291501D01*
X290501D01*
Y110501D01*
X292501D02*
Y113499D01*
X294000D01*
X294500Y113000D01*
Y112000D01*
X294000Y111500D01*
X292501D01*
X297499Y110501D02*
X295500D01*
X297499Y112500D01*
Y113000D01*
X296999Y113499D01*
X296000D01*
X295500Y113000D01*
X299998Y110501D02*
Y113499D01*
X298499Y112000D01*
X300498D01*
X289502Y194500D02*
X291501D01*
X290501D01*
Y191500D01*
X292501D02*
Y194500D01*
X294000D01*
X294500Y194000D01*
Y193000D01*
X294000Y192500D01*
X292501D01*
X297499Y191500D02*
X295500D01*
X297499Y193500D01*
Y194000D01*
X296999Y194500D01*
X296000D01*
X295500Y194000D01*
X298499D02*
X298999Y194500D01*
X299998D01*
X300498Y194000D01*
Y193500D01*
X299998Y193000D01*
X299499D01*
X299998D01*
X300498Y192500D01*
Y192000D01*
X299998Y191500D01*
X298999D01*
X298499Y192000D01*
X402502Y141499D02*
X404501D01*
X403502D01*
Y138500D01*
X405501D02*
Y141499D01*
X407000D01*
X407500Y141000D01*
Y140000D01*
X407000Y139500D01*
X405501D01*
X410499Y138500D02*
X408500D01*
X410499Y140500D01*
Y141000D01*
X409999Y141499D01*
X409000D01*
X408500Y141000D01*
X413498Y138500D02*
X411499D01*
X413498Y140500D01*
Y141000D01*
X412998Y141499D01*
X411999D01*
X411499Y141000D01*
X402002Y222499D02*
X404001D01*
X403001D01*
Y219500D01*
X405001D02*
Y222499D01*
X406500D01*
X407000Y222000D01*
Y221000D01*
X406500Y220500D01*
X405001D01*
X409999Y219500D02*
X408000D01*
X409999Y221500D01*
Y222000D01*
X409499Y222499D01*
X408499D01*
X408000Y222000D01*
X410999Y219500D02*
X411998D01*
X411498D01*
Y222499D01*
X410999Y222000D01*
X289502Y155499D02*
X291501D01*
X290501D01*
Y152500D01*
X292501D02*
Y155499D01*
X294000D01*
X294500Y155000D01*
Y154000D01*
X294000Y153500D01*
X292501D01*
X297499Y152500D02*
X295500D01*
X297499Y154500D01*
Y155000D01*
X296999Y155499D01*
X296000D01*
X295500Y155000D01*
X298499D02*
X298999Y155499D01*
X299998D01*
X300498Y155000D01*
Y153000D01*
X299998Y152500D01*
X298999D01*
X298499Y153000D01*
Y155000D01*
X289752Y233500D02*
X291751D01*
X290751D01*
Y230501D01*
X292751D02*
Y233500D01*
X294250D01*
X294750Y233000D01*
Y232000D01*
X294250Y231500D01*
X292751D01*
X295750Y230501D02*
X296749D01*
X296250D01*
Y233500D01*
X295750Y233000D01*
X298249Y231000D02*
X298749Y230501D01*
X299748D01*
X300248Y231000D01*
Y233000D01*
X299748Y233500D01*
X298749D01*
X298249Y233000D01*
Y232500D01*
X298749Y232000D01*
X300248D01*
X401752Y181500D02*
X403751D01*
X402751D01*
Y178500D01*
X404751D02*
Y181500D01*
X406250D01*
X406750Y181000D01*
Y180000D01*
X406250Y179500D01*
X404751D01*
X407750Y178500D02*
X408749D01*
X408250D01*
Y181500D01*
X407750Y181000D01*
X410249D02*
X410749Y181500D01*
X411749D01*
X412248Y181000D01*
Y180500D01*
X411749Y180000D01*
X412248Y179500D01*
Y179000D01*
X411749Y178500D01*
X410749D01*
X410249Y179000D01*
Y179500D01*
X410749Y180000D01*
X410249Y180500D01*
Y181000D01*
X410749Y180000D02*
X411749D01*
X402752Y262499D02*
X404751D01*
X403751D01*
Y259501D01*
X405751D02*
Y262499D01*
X407250D01*
X407750Y262000D01*
Y261000D01*
X407250Y260500D01*
X405751D01*
X408750Y259501D02*
X409749D01*
X409250D01*
Y262499D01*
X408750Y262000D01*
X411249Y262499D02*
X413248D01*
Y262000D01*
X411249Y260000D01*
Y259501D01*
X442752Y61500D02*
X444751D01*
X443751D01*
Y58500D01*
X445751D02*
Y61500D01*
X447250D01*
X447750Y61000D01*
Y60000D01*
X447250Y59500D01*
X445751D01*
X448750Y58500D02*
X449749D01*
X449250D01*
Y61500D01*
X448750Y61000D01*
X453248Y61500D02*
X452249Y61000D01*
X451249Y60000D01*
Y59000D01*
X451749Y58500D01*
X452748D01*
X453248Y59000D01*
Y59500D01*
X452748Y60000D01*
X451249D01*
X442752Y161500D02*
X444751D01*
X443751D01*
Y158501D01*
X445751D02*
Y161500D01*
X447250D01*
X447750Y161000D01*
Y160000D01*
X447250Y159500D01*
X445751D01*
X448750Y158501D02*
X449749D01*
X449250D01*
Y161500D01*
X448750Y161000D01*
X453248Y161500D02*
X451249D01*
Y160000D01*
X452249Y160500D01*
X452748D01*
X453248Y160000D01*
Y159000D01*
X452748Y158501D01*
X451749D01*
X451249Y159000D01*
X456752Y61500D02*
X458751D01*
X457751D01*
Y58500D01*
X459751D02*
Y61500D01*
X461250D01*
X461750Y61000D01*
Y60000D01*
X461250Y59500D01*
X459751D01*
X462750Y58500D02*
X463749D01*
X463250D01*
Y61500D01*
X462750Y61000D01*
X466749Y58500D02*
Y61500D01*
X465249Y60000D01*
X467248D01*
X456752Y161500D02*
X458751D01*
X457751D01*
Y158501D01*
X459751D02*
Y161500D01*
X461250D01*
X461750Y161000D01*
Y160000D01*
X461250Y159500D01*
X459751D01*
X462750Y158501D02*
X463749D01*
X463250D01*
Y161500D01*
X462750Y161000D01*
X465249D02*
X465749Y161500D01*
X466749D01*
X467248Y161000D01*
Y160500D01*
X466749Y160000D01*
X466249D01*
X466749D01*
X467248Y159500D01*
Y159000D01*
X466749Y158501D01*
X465749D01*
X465249Y159000D01*
X441752Y83499D02*
X443751D01*
X442751D01*
Y80501D01*
X444751D02*
Y83499D01*
X446250D01*
X446750Y83000D01*
Y82000D01*
X446250Y81500D01*
X444751D01*
X447750Y80501D02*
X448749D01*
X448250D01*
Y83499D01*
X447750Y83000D01*
X452248Y80501D02*
X450249D01*
X452248Y82500D01*
Y83000D01*
X451749Y83499D01*
X450749D01*
X450249Y83000D01*
X443252Y183500D02*
X445251D01*
X444251D01*
Y180500D01*
X446251D02*
Y183500D01*
X447750D01*
X448250Y183000D01*
Y182000D01*
X447750Y181500D01*
X446251D01*
X449250Y180500D02*
X450249D01*
X449749D01*
Y183500D01*
X449250Y183000D01*
X451749Y180500D02*
X452748D01*
X452249D01*
Y183500D01*
X451749Y183000D01*
X441752Y111500D02*
X443751D01*
X442751D01*
Y108501D01*
X444751D02*
Y111500D01*
X446250D01*
X446750Y111000D01*
Y110000D01*
X446250Y109500D01*
X444751D01*
X447750Y108501D02*
X448749D01*
X448250D01*
Y111500D01*
X447750Y111000D01*
X450249D02*
X450749Y111500D01*
X451749D01*
X452248Y111000D01*
Y109000D01*
X451749Y108501D01*
X450749D01*
X450249Y109000D01*
Y111000D01*
X443001Y211500D02*
X445001D01*
X444001D01*
Y208501D01*
X446000D02*
Y211500D01*
X447500D01*
X448000Y211000D01*
Y210000D01*
X447500Y209500D01*
X446000D01*
X448999Y209000D02*
X449499Y208501D01*
X450499D01*
X450999Y209000D01*
Y211000D01*
X450499Y211500D01*
X449499D01*
X448999Y211000D01*
Y210500D01*
X449499Y210000D01*
X450999D01*
X457001Y111500D02*
X459001D01*
X458001D01*
Y108501D01*
X460000D02*
Y111500D01*
X461500D01*
X462000Y111000D01*
Y110000D01*
X461500Y109500D01*
X460000D01*
X462999Y111000D02*
X463499Y111500D01*
X464499D01*
X464999Y111000D01*
Y110500D01*
X464499Y110000D01*
X464999Y109500D01*
Y109000D01*
X464499Y108501D01*
X463499D01*
X462999Y109000D01*
Y109500D01*
X463499Y110000D01*
X462999Y110500D01*
Y111000D01*
X463499Y110000D02*
X464499D01*
X457001Y211500D02*
X459001D01*
X458001D01*
Y208501D01*
X460000D02*
Y211500D01*
X461500D01*
X462000Y211000D01*
Y210000D01*
X461500Y209500D01*
X460000D01*
X462999Y211500D02*
X464999D01*
Y211000D01*
X462999Y209000D01*
Y208501D01*
X443001Y133500D02*
X445001D01*
X444001D01*
Y130500D01*
X446000D02*
Y133500D01*
X447500D01*
X448000Y133000D01*
Y132000D01*
X447500Y131500D01*
X446000D01*
X450999Y133500D02*
X449999Y133000D01*
X448999Y132000D01*
Y131000D01*
X449499Y130500D01*
X450499D01*
X450999Y131000D01*
Y131500D01*
X450499Y132000D01*
X448999D01*
X442001Y232500D02*
X444001D01*
X443001D01*
Y229501D01*
X445000D02*
Y232500D01*
X446500D01*
X447000Y232000D01*
Y231000D01*
X446500Y230500D01*
X445000D01*
X449999Y232500D02*
X447999D01*
Y231000D01*
X448999Y231500D01*
X449499D01*
X449999Y231000D01*
Y230000D01*
X449499Y229501D01*
X448499D01*
X447999Y230000D01*
X260001Y201500D02*
X262001D01*
X261001D01*
Y198501D01*
X263000D02*
Y201500D01*
X264500D01*
X265000Y201000D01*
Y200000D01*
X264500Y199500D01*
X263000D01*
X267499Y198501D02*
Y201500D01*
X265999Y200000D01*
X267999D01*
X245001Y248499D02*
X247001D01*
X246001D01*
Y245500D01*
X248000D02*
Y248499D01*
X249500D01*
X250000Y248000D01*
Y247000D01*
X249500Y246500D01*
X248000D01*
X250999Y248000D02*
X251499Y248499D01*
X252499D01*
X252999Y248000D01*
Y247500D01*
X252499Y247000D01*
X251999D01*
X252499D01*
X252999Y246500D01*
Y246000D01*
X252499Y245500D01*
X251499D01*
X250999Y246000D01*
X273001Y201500D02*
X275001D01*
X274001D01*
Y198501D01*
X276000D02*
Y201500D01*
X277500D01*
X278000Y201000D01*
Y200000D01*
X277500Y199500D01*
X276000D01*
X280999Y198501D02*
X278999D01*
X280999Y200500D01*
Y201000D01*
X280499Y201500D01*
X279499D01*
X278999Y201000D01*
X515501Y350500D02*
X517500D01*
X516501D01*
Y347500D01*
X518500D02*
Y350500D01*
X520000D01*
X520500Y350000D01*
Y349000D01*
X520000Y348500D01*
X518500D01*
X521499Y347500D02*
X522499D01*
X521999D01*
Y350500D01*
X521499Y350000D01*
X194999Y280002D02*
X191001D01*
Y282002D01*
X191667Y282668D01*
X193000D01*
X193666Y282002D01*
Y280002D01*
Y281335D02*
X194999Y282668D01*
Y284001D02*
Y285334D01*
Y284667D01*
X191001D01*
X191667Y284001D01*
X191001Y289999D02*
Y287333D01*
X193000D01*
X192333Y288666D01*
Y289333D01*
X193000Y289999D01*
X194333D01*
X194999Y289333D01*
Y288000D01*
X194333Y287333D01*
X191001Y293998D02*
X191667Y292665D01*
X193000Y291332D01*
X194333D01*
X194999Y291998D01*
Y293331D01*
X194333Y293998D01*
X193666D01*
X193000Y293331D01*
Y291332D01*
X179999Y280002D02*
X176001D01*
Y282002D01*
X176667Y282668D01*
X178000D01*
X178666Y282002D01*
Y280002D01*
Y281335D02*
X179999Y282668D01*
Y284001D02*
Y285334D01*
Y284667D01*
X176001D01*
X176667Y284001D01*
X176001Y289999D02*
Y287333D01*
X178000D01*
X177333Y288666D01*
Y289333D01*
X178000Y289999D01*
X179333D01*
X179999Y289333D01*
Y288000D01*
X179333Y287333D01*
X176001Y293998D02*
Y291332D01*
X178000D01*
X177333Y292665D01*
Y293331D01*
X178000Y293998D01*
X179333D01*
X179999Y293331D01*
Y291998D01*
X179333Y291332D01*
X165999Y280002D02*
X162001D01*
Y282002D01*
X162667Y282668D01*
X164000D01*
X164666Y282002D01*
Y280002D01*
Y281335D02*
X165999Y282668D01*
Y284001D02*
Y285334D01*
Y284667D01*
X162001D01*
X162667Y284001D01*
X162001Y289999D02*
Y287333D01*
X164000D01*
X163333Y288666D01*
Y289333D01*
X164000Y289999D01*
X165333D01*
X165999Y289333D01*
Y288000D01*
X165333Y287333D01*
X165999Y293331D02*
X162001D01*
X164000Y291332D01*
Y293998D01*
X292152Y278001D02*
Y281999D01*
X294151D01*
X294818Y281333D01*
Y280000D01*
X294151Y279334D01*
X292152D01*
X293485D02*
X294818Y278001D01*
X296151D02*
X297483D01*
X296817D01*
Y281999D01*
X296151Y281333D01*
X302149Y281999D02*
X299483D01*
Y280000D01*
X300816Y280666D01*
X301482D01*
X302149Y280000D01*
Y278667D01*
X301482Y278001D01*
X300149D01*
X299483Y278667D01*
X303482Y281333D02*
X304148Y281999D01*
X305481D01*
X306147Y281333D01*
Y280666D01*
X305481Y280000D01*
X304814D01*
X305481D01*
X306147Y279334D01*
Y278667D01*
X305481Y278001D01*
X304148D01*
X303482Y278667D01*
X292002Y285001D02*
Y288999D01*
X294002D01*
X294668Y288333D01*
Y287000D01*
X294002Y286334D01*
X292002D01*
X293335D02*
X294668Y285001D01*
X296001D02*
X297334D01*
X296667D01*
Y288999D01*
X296001Y288333D01*
X301999Y288999D02*
X299333D01*
Y287000D01*
X300666Y287666D01*
X301333D01*
X301999Y287000D01*
Y285667D01*
X301333Y285001D01*
X300000D01*
X299333Y285667D01*
X305998Y285001D02*
X303332D01*
X305998Y287666D01*
Y288333D01*
X305331Y288999D01*
X303998D01*
X303332Y288333D01*
X292669Y271001D02*
Y274999D01*
X294668D01*
X295335Y274333D01*
Y273000D01*
X294668Y272334D01*
X292669D01*
X294002D02*
X295335Y271001D01*
X296667D02*
X298000D01*
X297334D01*
Y274999D01*
X296667Y274333D01*
X302665Y274999D02*
X300000D01*
Y273000D01*
X301333Y273666D01*
X301999D01*
X302665Y273000D01*
Y271667D01*
X301999Y271001D01*
X300666D01*
X300000Y271667D01*
X303998Y271001D02*
X305331D01*
X304665D01*
Y274999D01*
X303998Y274333D01*
X293002Y264001D02*
Y267999D01*
X295002D01*
X295668Y267333D01*
Y266000D01*
X295002Y265334D01*
X293002D01*
X294335D02*
X295668Y264001D01*
X297001D02*
X298334D01*
X297667D01*
Y267999D01*
X297001Y267333D01*
X302999Y267999D02*
X300333D01*
Y266000D01*
X301666Y266666D01*
X302333D01*
X302999Y266000D01*
Y264667D01*
X302333Y264001D01*
X301000D01*
X300333Y264667D01*
X304332Y267333D02*
X304998Y267999D01*
X306331D01*
X306998Y267333D01*
Y264667D01*
X306331Y264001D01*
X304998D01*
X304332Y264667D01*
Y267333D01*
X199002Y272001D02*
Y275999D01*
X201002D01*
X201668Y275333D01*
Y274000D01*
X201002Y273334D01*
X199002D01*
X200335D02*
X201668Y272001D01*
X203001D02*
X204334D01*
X203667D01*
Y275999D01*
X203001Y275333D01*
X208333Y272001D02*
Y275999D01*
X206333Y274000D01*
X208999D01*
X210332Y272667D02*
X210998Y272001D01*
X212331D01*
X212998Y272667D01*
Y275333D01*
X212331Y275999D01*
X210998D01*
X210332Y275333D01*
Y274666D01*
X210998Y274000D01*
X212998D01*
X199002Y282001D02*
Y285999D01*
X201002D01*
X201668Y285333D01*
Y284000D01*
X201002Y283334D01*
X199002D01*
X200335D02*
X201668Y282001D01*
X203001D02*
X204334D01*
X203667D01*
Y285999D01*
X203001Y285333D01*
X208333Y282001D02*
Y285999D01*
X206333Y284000D01*
X208999D01*
X210332Y285333D02*
X210998Y285999D01*
X212331D01*
X212998Y285333D01*
Y284666D01*
X212331Y284000D01*
X212998Y283334D01*
Y282667D01*
X212331Y282001D01*
X210998D01*
X210332Y282667D01*
Y283334D01*
X210998Y284000D01*
X210332Y284666D01*
Y285333D01*
X210998Y284000D02*
X212331D01*
X302002Y111001D02*
Y114999D01*
X304002D01*
X304668Y114333D01*
Y113000D01*
X304002Y112334D01*
X302002D01*
X303335D02*
X304668Y111001D01*
X306001D02*
X307334D01*
X306667D01*
Y114999D01*
X306001Y114333D01*
X311999Y111001D02*
X309333D01*
X311999Y113666D01*
Y114333D01*
X311333Y114999D01*
X310000D01*
X309333Y114333D01*
X313332Y111667D02*
X313998Y111001D01*
X315331D01*
X315998Y111667D01*
Y114333D01*
X315331Y114999D01*
X313998D01*
X313332Y114333D01*
Y113666D01*
X313998Y113000D01*
X315998D01*
X389002Y113001D02*
Y116999D01*
X391002D01*
X391668Y116333D01*
Y115000D01*
X391002Y114333D01*
X389002D01*
X390335D02*
X391668Y113001D01*
X393001D02*
X394334D01*
X393667D01*
Y116999D01*
X393001Y116333D01*
X398999Y113001D02*
X396333D01*
X398999Y115666D01*
Y116333D01*
X398333Y116999D01*
X397000D01*
X396333Y116333D01*
X400332D02*
X400998Y116999D01*
X402331D01*
X402998Y116333D01*
Y115666D01*
X402331Y115000D01*
X402998Y114333D01*
Y113667D01*
X402331Y113001D01*
X400998D01*
X400332Y113667D01*
Y114333D01*
X400998Y115000D01*
X400332Y115666D01*
Y116333D01*
X400998Y115000D02*
X402331D01*
X302002Y192001D02*
Y195999D01*
X304002D01*
X304668Y195333D01*
Y194000D01*
X304002Y193333D01*
X302002D01*
X303335D02*
X304668Y192001D01*
X306001D02*
X307334D01*
X306667D01*
Y195999D01*
X306001Y195333D01*
X311999Y192001D02*
X309333D01*
X311999Y194667D01*
Y195333D01*
X311333Y195999D01*
X310000D01*
X309333Y195333D01*
X313332Y195999D02*
X315998D01*
Y195333D01*
X313332Y192667D01*
Y192001D01*
X390002Y193001D02*
Y196999D01*
X392002D01*
X392668Y196333D01*
Y195000D01*
X392002Y194334D01*
X390002D01*
X391335D02*
X392668Y193001D01*
X394001D02*
X395334D01*
X394667D01*
Y196999D01*
X394001Y196333D01*
X399999Y193001D02*
X397333D01*
X399999Y195667D01*
Y196333D01*
X399333Y196999D01*
X398000D01*
X397333Y196333D01*
X403998Y196999D02*
X402665Y196333D01*
X401332Y195000D01*
Y193667D01*
X401998Y193001D01*
X403331D01*
X403998Y193667D01*
Y194334D01*
X403331Y195000D01*
X401332D01*
X389002Y119001D02*
Y122999D01*
X391002D01*
X391668Y122333D01*
Y121000D01*
X391002Y120334D01*
X389002D01*
X390335D02*
X391668Y119001D01*
X393001D02*
X394334D01*
X393667D01*
Y122999D01*
X393001Y122333D01*
X398999Y119001D02*
X396333D01*
X398999Y121667D01*
Y122333D01*
X398333Y122999D01*
X397000D01*
X396333Y122333D01*
X402998Y122999D02*
X400332D01*
Y121000D01*
X401665Y121667D01*
X402331D01*
X402998Y121000D01*
Y119667D01*
X402331Y119001D01*
X400998D01*
X400332Y119667D01*
X389002Y107001D02*
Y110999D01*
X391002D01*
X391668Y110333D01*
Y109000D01*
X391002Y108334D01*
X389002D01*
X390335D02*
X391668Y107001D01*
X393001D02*
X394334D01*
X393667D01*
Y110999D01*
X393001Y110333D01*
X398999Y107001D02*
X396333D01*
X398999Y109667D01*
Y110333D01*
X398333Y110999D01*
X397000D01*
X396333Y110333D01*
X402331Y107001D02*
Y110999D01*
X400332Y109000D01*
X402998D01*
X390002Y199001D02*
Y202999D01*
X392002D01*
X392668Y202333D01*
Y201000D01*
X392002Y200333D01*
X390002D01*
X391335D02*
X392668Y199001D01*
X394001D02*
X395334D01*
X394667D01*
Y202999D01*
X394001Y202333D01*
X399999Y199001D02*
X397333D01*
X399999Y201666D01*
Y202333D01*
X399333Y202999D01*
X398000D01*
X397333Y202333D01*
X401332D02*
X401998Y202999D01*
X403331D01*
X403998Y202333D01*
Y201666D01*
X403331Y201000D01*
X402665D01*
X403331D01*
X403998Y200333D01*
Y199667D01*
X403331Y199001D01*
X401998D01*
X401332Y199667D01*
X390002Y187001D02*
Y190999D01*
X392002D01*
X392668Y190333D01*
Y189000D01*
X392002Y188333D01*
X390002D01*
X391335D02*
X392668Y187001D01*
X394001D02*
X395334D01*
X394667D01*
Y190999D01*
X394001Y190333D01*
X399999Y187001D02*
X397333D01*
X399999Y189666D01*
Y190333D01*
X399333Y190999D01*
X398000D01*
X397333Y190333D01*
X403998Y187001D02*
X401332D01*
X403998Y189666D01*
Y190333D01*
X403331Y190999D01*
X401998D01*
X401332Y190333D01*
X302669Y117001D02*
Y120999D01*
X304668D01*
X305334Y120333D01*
Y119000D01*
X304668Y118333D01*
X302669D01*
X304002D02*
X305334Y117001D01*
X306667D02*
X308000D01*
X307334D01*
Y120999D01*
X306667Y120333D01*
X312666Y117001D02*
X310000D01*
X312666Y119667D01*
Y120333D01*
X311999Y120999D01*
X310666D01*
X310000Y120333D01*
X313998Y117001D02*
X315331D01*
X314665D01*
Y120999D01*
X313998Y120333D01*
X302002Y198001D02*
Y201999D01*
X304002D01*
X304668Y201333D01*
Y200000D01*
X304002Y199334D01*
X302002D01*
X303335D02*
X304668Y198001D01*
X306001D02*
X307334D01*
X306667D01*
Y201999D01*
X306001Y201333D01*
X311999Y198001D02*
X309333D01*
X311999Y200666D01*
Y201333D01*
X311333Y201999D01*
X310000D01*
X309333Y201333D01*
X313332D02*
X313998Y201999D01*
X315331D01*
X315998Y201333D01*
Y198667D01*
X315331Y198001D01*
X313998D01*
X313332Y198667D01*
Y201333D01*
X302336Y123001D02*
Y126999D01*
X304335D01*
X305001Y126333D01*
Y125000D01*
X304335Y124334D01*
X302336D01*
X303668D02*
X305001Y123001D01*
X306334D02*
X307667D01*
X307001D01*
Y126999D01*
X306334Y126333D01*
X309666Y123001D02*
X310999D01*
X310333D01*
Y126999D01*
X309666Y126333D01*
X312999Y123667D02*
X313665Y123001D01*
X314998D01*
X315665Y123667D01*
Y126333D01*
X314998Y126999D01*
X313665D01*
X312999Y126333D01*
Y125666D01*
X313665Y125000D01*
X315665D01*
X302336Y204001D02*
Y207999D01*
X304335D01*
X305001Y207333D01*
Y206000D01*
X304335Y205334D01*
X302336D01*
X303668D02*
X305001Y204001D01*
X306334D02*
X307667D01*
X307001D01*
Y207999D01*
X306334Y207333D01*
X309666Y204001D02*
X310999D01*
X310333D01*
Y207999D01*
X309666Y207333D01*
X312999D02*
X313665Y207999D01*
X314998D01*
X315665Y207333D01*
Y206666D01*
X314998Y206000D01*
X315665Y205334D01*
Y204667D01*
X314998Y204001D01*
X313665D01*
X312999Y204667D01*
Y205334D01*
X313665Y206000D01*
X312999Y206666D01*
Y207333D01*
X313665Y206000D02*
X314998D01*
X302336Y152001D02*
Y155999D01*
X304335D01*
X305001Y155333D01*
Y154000D01*
X304335Y153333D01*
X302336D01*
X303668D02*
X305001Y152001D01*
X306334D02*
X307667D01*
X307001D01*
Y155999D01*
X306334Y155333D01*
X309666Y152001D02*
X310999D01*
X310333D01*
Y155999D01*
X309666Y155333D01*
X312999Y155999D02*
X315665D01*
Y155333D01*
X312999Y152667D01*
Y152001D01*
X389335Y153001D02*
Y156999D01*
X391335D01*
X392001Y156333D01*
Y155000D01*
X391335Y154333D01*
X389335D01*
X390668D02*
X392001Y153001D01*
X393334D02*
X394667D01*
X394001D01*
Y156999D01*
X393334Y156333D01*
X396667Y153001D02*
X397999D01*
X397333D01*
Y156999D01*
X396667Y156333D01*
X402665Y156999D02*
X401332Y156333D01*
X399999Y155000D01*
Y153667D01*
X400665Y153001D01*
X401998D01*
X402665Y153667D01*
Y154333D01*
X401998Y155000D01*
X399999D01*
X302336Y231001D02*
Y234999D01*
X304335D01*
X305001Y234333D01*
Y233000D01*
X304335Y232334D01*
X302336D01*
X303668D02*
X305001Y231001D01*
X306334D02*
X307667D01*
X307001D01*
Y234999D01*
X306334Y234333D01*
X309666Y231001D02*
X310999D01*
X310333D01*
Y234999D01*
X309666Y234333D01*
X315665Y234999D02*
X312999D01*
Y233000D01*
X314332Y233666D01*
X314998D01*
X315665Y233000D01*
Y231667D01*
X314998Y231001D01*
X313665D01*
X312999Y231667D01*
X389335Y235001D02*
Y238999D01*
X391335D01*
X392001Y238333D01*
Y237000D01*
X391335Y236334D01*
X389335D01*
X390668D02*
X392001Y235001D01*
X393334D02*
X394667D01*
X394001D01*
Y238999D01*
X393334Y238333D01*
X396667Y235001D02*
X397999D01*
X397333D01*
Y238999D01*
X396667Y238333D01*
X401998Y235001D02*
Y238999D01*
X399999Y237000D01*
X402665D01*
X389335Y159001D02*
Y162999D01*
X391335D01*
X392001Y162333D01*
Y161000D01*
X391335Y160334D01*
X389335D01*
X390668D02*
X392001Y159001D01*
X393334D02*
X394667D01*
X394001D01*
Y162999D01*
X393334Y162333D01*
X396667Y159001D02*
X397999D01*
X397333D01*
Y162999D01*
X396667Y162333D01*
X399999D02*
X400665Y162999D01*
X401998D01*
X402665Y162333D01*
Y161667D01*
X401998Y161000D01*
X401332D01*
X401998D01*
X402665Y160334D01*
Y159667D01*
X401998Y159001D01*
X400665D01*
X399999Y159667D01*
X389335Y147001D02*
Y150999D01*
X391335D01*
X392001Y150333D01*
Y149000D01*
X391335Y148334D01*
X389335D01*
X390668D02*
X392001Y147001D01*
X393334D02*
X394667D01*
X394001D01*
Y150999D01*
X393334Y150333D01*
X396667Y147001D02*
X397999D01*
X397333D01*
Y150999D01*
X396667Y150333D01*
X402665Y147001D02*
X399999D01*
X402665Y149667D01*
Y150333D01*
X401998Y150999D01*
X400665D01*
X399999Y150333D01*
X389002Y241001D02*
Y244999D01*
X391001D01*
X391668Y244333D01*
Y243000D01*
X391001Y242334D01*
X389002D01*
X390335D02*
X391668Y241001D01*
X393001D02*
X394334D01*
X393667D01*
Y244999D01*
X393001Y244333D01*
X396333Y241001D02*
X397666D01*
X396999D01*
Y244999D01*
X396333Y244333D01*
X399665Y241001D02*
X400998D01*
X400332D01*
Y244999D01*
X399665Y244333D01*
X389335Y229001D02*
Y232999D01*
X391335D01*
X392001Y232333D01*
Y231000D01*
X391335Y230334D01*
X389335D01*
X390668D02*
X392001Y229001D01*
X393334D02*
X394667D01*
X394001D01*
Y232999D01*
X393334Y232333D01*
X396667Y229001D02*
X397999D01*
X397333D01*
Y232999D01*
X396667Y232333D01*
X399999D02*
X400665Y232999D01*
X401998D01*
X402665Y232333D01*
Y229667D01*
X401998Y229001D01*
X400665D01*
X399999Y229667D01*
Y232333D01*
X302002Y158001D02*
Y161999D01*
X304002D01*
X304668Y161333D01*
Y160000D01*
X304002Y159334D01*
X302002D01*
X303335D02*
X304668Y158001D01*
X306001D02*
X307334D01*
X306667D01*
Y161999D01*
X306001Y161333D01*
X309333D02*
X310000Y161999D01*
X311333D01*
X311999Y161333D01*
Y158667D01*
X311333Y158001D01*
X310000D01*
X309333Y158667D01*
Y161333D01*
X313332Y158667D02*
X313998Y158001D01*
X315331D01*
X315998Y158667D01*
Y161333D01*
X315331Y161999D01*
X313998D01*
X313332Y161333D01*
Y160667D01*
X313998Y160000D01*
X315998D01*
X302002Y237001D02*
Y240999D01*
X304002D01*
X304668Y240333D01*
Y239000D01*
X304002Y238334D01*
X302002D01*
X303335D02*
X304668Y237001D01*
X306001D02*
X307334D01*
X306667D01*
Y240999D01*
X306001Y240333D01*
X309333D02*
X310000Y240999D01*
X311333D01*
X311999Y240333D01*
Y237667D01*
X311333Y237001D01*
X310000D01*
X309333Y237667D01*
Y240333D01*
X313332D02*
X313998Y240999D01*
X315331D01*
X315998Y240333D01*
Y239666D01*
X315331Y239000D01*
X315998Y238334D01*
Y237667D01*
X315331Y237001D01*
X313998D01*
X313332Y237667D01*
Y238334D01*
X313998Y239000D01*
X313332Y239666D01*
Y240333D01*
X313998Y239000D02*
X315331D01*
X302002Y164001D02*
Y167999D01*
X304002D01*
X304668Y167333D01*
Y166000D01*
X304002Y165333D01*
X302002D01*
X303335D02*
X304668Y164001D01*
X306001D02*
X307334D01*
X306667D01*
Y167999D01*
X306001Y167333D01*
X309333D02*
X310000Y167999D01*
X311333D01*
X311999Y167333D01*
Y164667D01*
X311333Y164001D01*
X310000D01*
X309333Y164667D01*
Y167333D01*
X313332Y167999D02*
X315998D01*
Y167333D01*
X313332Y164667D01*
Y164001D01*
X302002Y243001D02*
Y246999D01*
X304002D01*
X304668Y246333D01*
Y245000D01*
X304002Y244334D01*
X302002D01*
X303335D02*
X304668Y243001D01*
X306001D02*
X307334D01*
X306667D01*
Y246999D01*
X306001Y246333D01*
X309333D02*
X310000Y246999D01*
X311333D01*
X311999Y246333D01*
Y243667D01*
X311333Y243001D01*
X310000D01*
X309333Y243667D01*
Y246333D01*
X315998Y246999D02*
X314665Y246333D01*
X313332Y245000D01*
Y243667D01*
X313998Y243001D01*
X315331D01*
X315998Y243667D01*
Y244334D01*
X315331Y245000D01*
X313332D01*
X345002Y20001D02*
Y23999D01*
X347002D01*
X347668Y23333D01*
Y22000D01*
X347002Y21334D01*
X345002D01*
X346335D02*
X347668Y20001D01*
X349001D02*
X350334D01*
X349667D01*
Y23999D01*
X349001Y23333D01*
X352333D02*
X353000Y23999D01*
X354333D01*
X354999Y23333D01*
Y20667D01*
X354333Y20001D01*
X353000D01*
X352333Y20667D01*
Y23333D01*
X358998Y23999D02*
X356332D01*
Y22000D01*
X357665Y22667D01*
X358331D01*
X358998Y22000D01*
Y20667D01*
X358331Y20001D01*
X356998D01*
X356332Y20667D01*
X242002Y20001D02*
Y23999D01*
X244002D01*
X244668Y23333D01*
Y22000D01*
X244002Y21334D01*
X242002D01*
X243335D02*
X244668Y20001D01*
X246001D02*
X247334D01*
X246667D01*
Y23999D01*
X246001Y23333D01*
X249333D02*
X250000Y23999D01*
X251333D01*
X251999Y23333D01*
Y20667D01*
X251333Y20001D01*
X250000D01*
X249333Y20667D01*
Y23333D01*
X255331Y20001D02*
Y23999D01*
X253332Y22000D01*
X255998D01*
X421002Y21001D02*
Y24999D01*
X423002D01*
X423668Y24333D01*
Y23000D01*
X423002Y22333D01*
X421002D01*
X422335D02*
X423668Y21001D01*
X425001D02*
X426334D01*
X425667D01*
Y24999D01*
X425001Y24333D01*
X428333D02*
X429000Y24999D01*
X430333D01*
X430999Y24333D01*
Y21667D01*
X430333Y21001D01*
X429000D01*
X428333Y21667D01*
Y24333D01*
X432332D02*
X432998Y24999D01*
X434331D01*
X434998Y24333D01*
Y23666D01*
X434331Y23000D01*
X433665D01*
X434331D01*
X434998Y22333D01*
Y21667D01*
X434331Y21001D01*
X432998D01*
X432332Y21667D01*
X345002Y26001D02*
Y29999D01*
X347002D01*
X347668Y29333D01*
Y28000D01*
X347002Y27334D01*
X345002D01*
X346335D02*
X347668Y26001D01*
X349001D02*
X350334D01*
X349667D01*
Y29999D01*
X349001Y29333D01*
X352333D02*
X353000Y29999D01*
X354333D01*
X354999Y29333D01*
Y26667D01*
X354333Y26001D01*
X353000D01*
X352333Y26667D01*
Y29333D01*
X358998Y26001D02*
X356332D01*
X358998Y28666D01*
Y29333D01*
X358331Y29999D01*
X356998D01*
X356332Y29333D01*
X322669Y21001D02*
Y24999D01*
X324668D01*
X325335Y24333D01*
Y23000D01*
X324668Y22333D01*
X322669D01*
X324002D02*
X325335Y21001D01*
X326667D02*
X328000D01*
X327334D01*
Y24999D01*
X326667Y24333D01*
X330000D02*
X330666Y24999D01*
X331999D01*
X332665Y24333D01*
Y21667D01*
X331999Y21001D01*
X330666D01*
X330000Y21667D01*
Y24333D01*
X333998Y21001D02*
X335331D01*
X334665D01*
Y24999D01*
X333998Y24333D01*
X242002Y27001D02*
Y30999D01*
X244002D01*
X244668Y30333D01*
Y29000D01*
X244002Y28334D01*
X242002D01*
X243335D02*
X244668Y27001D01*
X246001D02*
X247334D01*
X246667D01*
Y30999D01*
X246001Y30333D01*
X249333D02*
X250000Y30999D01*
X251333D01*
X251999Y30333D01*
Y27667D01*
X251333Y27001D01*
X250000D01*
X249333Y27667D01*
Y30333D01*
X253332D02*
X253998Y30999D01*
X255331D01*
X255998Y30333D01*
Y27667D01*
X255331Y27001D01*
X253998D01*
X253332Y27667D01*
Y30333D01*
X420668Y27001D02*
Y30999D01*
X422668D01*
X423334Y30333D01*
Y29000D01*
X422668Y28334D01*
X420668D01*
X422001D02*
X423334Y27001D01*
X424667Y27667D02*
X425334Y27001D01*
X426666D01*
X427333Y27667D01*
Y30333D01*
X426666Y30999D01*
X425334D01*
X424667Y30333D01*
Y29666D01*
X425334Y29000D01*
X427333D01*
X428666Y27667D02*
X429332Y27001D01*
X430665D01*
X431332Y27667D01*
Y30333D01*
X430665Y30999D01*
X429332D01*
X428666Y30333D01*
Y29666D01*
X429332Y29000D01*
X431332D01*
X347668Y32001D02*
Y35999D01*
X349668D01*
X350334Y35333D01*
Y34000D01*
X349668Y33334D01*
X347668D01*
X349001D02*
X350334Y32001D01*
X351667Y32667D02*
X352334Y32001D01*
X353666D01*
X354333Y32667D01*
Y35333D01*
X353666Y35999D01*
X352334D01*
X351667Y35333D01*
Y34666D01*
X352334Y34000D01*
X354333D01*
X355666Y35333D02*
X356332Y35999D01*
X357665D01*
X358332Y35333D01*
Y34666D01*
X357665Y34000D01*
X358332Y33334D01*
Y32667D01*
X357665Y32001D01*
X356332D01*
X355666Y32667D01*
Y33334D01*
X356332Y34000D01*
X355666Y34666D01*
Y35333D01*
X356332Y34000D02*
X357665D01*
X322668Y27001D02*
Y30999D01*
X324668D01*
X325334Y30333D01*
Y29000D01*
X324668Y28334D01*
X322668D01*
X324001D02*
X325334Y27001D01*
X326667Y27667D02*
X327334Y27001D01*
X328666D01*
X329333Y27667D01*
Y30333D01*
X328666Y30999D01*
X327334D01*
X326667Y30333D01*
Y29666D01*
X327334Y29000D01*
X329333D01*
X330666Y30999D02*
X333332D01*
Y30333D01*
X330666Y27667D01*
Y27001D01*
X243668Y33001D02*
Y36999D01*
X245668D01*
X246334Y36333D01*
Y35000D01*
X245668Y34334D01*
X243668D01*
X245001D02*
X246334Y33001D01*
X247667Y33667D02*
X248334Y33001D01*
X249666D01*
X250333Y33667D01*
Y36333D01*
X249666Y36999D01*
X248334D01*
X247667Y36333D01*
Y35666D01*
X248334Y35000D01*
X250333D01*
X254332Y36999D02*
X252999Y36333D01*
X251666Y35000D01*
Y33667D01*
X252332Y33001D01*
X253665D01*
X254332Y33667D01*
Y34334D01*
X253665Y35000D01*
X251666D01*
X534668Y81001D02*
Y84999D01*
X536668D01*
X537334Y84333D01*
Y83000D01*
X536668Y82334D01*
X534668D01*
X536001D02*
X537334Y81001D01*
X538667Y81667D02*
X539334Y81001D01*
X540666D01*
X541333Y81667D01*
Y84333D01*
X540666Y84999D01*
X539334D01*
X538667Y84333D01*
Y83666D01*
X539334Y83000D01*
X541333D01*
X545332Y84999D02*
X542666D01*
Y83000D01*
X543999Y83666D01*
X544665D01*
X545332Y83000D01*
Y81667D01*
X544665Y81001D01*
X543332D01*
X542666Y81667D01*
X535668Y181001D02*
Y184999D01*
X537668D01*
X538334Y184333D01*
Y183000D01*
X537668Y182334D01*
X535668D01*
X537001D02*
X538334Y181001D01*
X539667Y181667D02*
X540334Y181001D01*
X541666D01*
X542333Y181667D01*
Y184333D01*
X541666Y184999D01*
X540334D01*
X539667Y184333D01*
Y183667D01*
X540334Y183000D01*
X542333D01*
X545665Y181001D02*
Y184999D01*
X543666Y183000D01*
X546332D01*
X479668Y66001D02*
Y69999D01*
X481668D01*
X482334Y69333D01*
Y68000D01*
X481668Y67334D01*
X479668D01*
X481001D02*
X482334Y66001D01*
X483667Y66667D02*
X484334Y66001D01*
X485666D01*
X486333Y66667D01*
Y69333D01*
X485666Y69999D01*
X484334D01*
X483667Y69333D01*
Y68666D01*
X484334Y68000D01*
X486333D01*
X487666Y69333D02*
X488332Y69999D01*
X489665D01*
X490332Y69333D01*
Y68666D01*
X489665Y68000D01*
X488999D01*
X489665D01*
X490332Y67334D01*
Y66667D01*
X489665Y66001D01*
X488332D01*
X487666Y66667D01*
X457668Y166001D02*
Y169999D01*
X459668D01*
X460334Y169333D01*
Y168000D01*
X459668Y167333D01*
X457668D01*
X459001D02*
X460334Y166001D01*
X461667Y166667D02*
X462334Y166001D01*
X463666D01*
X464333Y166667D01*
Y169333D01*
X463666Y169999D01*
X462334D01*
X461667Y169333D01*
Y168667D01*
X462334Y168000D01*
X464333D01*
X468332Y166001D02*
X465666D01*
X468332Y168667D01*
Y169333D01*
X467665Y169999D01*
X466332D01*
X465666Y169333D01*
X458185Y41001D02*
Y44999D01*
X460185D01*
X460851Y44333D01*
Y43000D01*
X460185Y42334D01*
X458185D01*
X459518D02*
X460851Y41001D01*
X462184Y41667D02*
X462850Y41001D01*
X464183D01*
X464850Y41667D01*
Y44333D01*
X464183Y44999D01*
X462850D01*
X462184Y44333D01*
Y43666D01*
X462850Y43000D01*
X464850D01*
X466183Y41001D02*
X467516D01*
X466849D01*
Y44999D01*
X466183Y44333D01*
X456668Y141001D02*
Y144999D01*
X458668D01*
X459334Y144333D01*
Y143000D01*
X458668Y142333D01*
X456668D01*
X458001D02*
X459334Y141001D01*
X460667Y141667D02*
X461334Y141001D01*
X462666D01*
X463333Y141667D01*
Y144333D01*
X462666Y144999D01*
X461334D01*
X460667Y144333D01*
Y143667D01*
X461334Y143000D01*
X463333D01*
X464666Y144333D02*
X465332Y144999D01*
X466665D01*
X467332Y144333D01*
Y141667D01*
X466665Y141001D01*
X465332D01*
X464666Y141667D01*
Y144333D01*
X457668Y172001D02*
Y175999D01*
X459668D01*
X460334Y175333D01*
Y174000D01*
X459668Y173334D01*
X457668D01*
X459001D02*
X460334Y172001D01*
X461667Y175333D02*
X462334Y175999D01*
X463666D01*
X464333Y175333D01*
Y174667D01*
X463666Y174000D01*
X464333Y173334D01*
Y172667D01*
X463666Y172001D01*
X462334D01*
X461667Y172667D01*
Y173334D01*
X462334Y174000D01*
X461667Y174667D01*
Y175333D01*
X462334Y174000D02*
X463666D01*
X465666Y175333D02*
X466332Y175999D01*
X467665D01*
X468332Y175333D01*
Y174667D01*
X467665Y174000D01*
X468332Y173334D01*
Y172667D01*
X467665Y172001D01*
X466332D01*
X465666Y172667D01*
Y173334D01*
X466332Y174000D01*
X465666Y174667D01*
Y175333D01*
X466332Y174000D02*
X467665D01*
X457668Y35001D02*
Y38999D01*
X459668D01*
X460334Y38333D01*
Y37000D01*
X459668Y36334D01*
X457668D01*
X459001D02*
X460334Y35001D01*
X461667Y38333D02*
X462334Y38999D01*
X463666D01*
X464333Y38333D01*
Y37666D01*
X463666Y37000D01*
X464333Y36334D01*
Y35667D01*
X463666Y35001D01*
X462334D01*
X461667Y35667D01*
Y36334D01*
X462334Y37000D01*
X461667Y37666D01*
Y38333D01*
X462334Y37000D02*
X463666D01*
X465666Y38999D02*
X468332D01*
Y38333D01*
X465666Y35667D01*
Y35001D01*
X456668Y135001D02*
Y138999D01*
X458668D01*
X459334Y138333D01*
Y137000D01*
X458668Y136334D01*
X456668D01*
X458001D02*
X459334Y135001D01*
X460667Y138333D02*
X461334Y138999D01*
X462666D01*
X463333Y138333D01*
Y137666D01*
X462666Y137000D01*
X463333Y136334D01*
Y135667D01*
X462666Y135001D01*
X461334D01*
X460667Y135667D01*
Y136334D01*
X461334Y137000D01*
X460667Y137666D01*
Y138333D01*
X461334Y137000D02*
X462666D01*
X467332Y138999D02*
X465999Y138333D01*
X464666Y137000D01*
Y135667D01*
X465332Y135001D01*
X466665D01*
X467332Y135667D01*
Y136334D01*
X466665Y137000D01*
X464666D01*
X348668Y63001D02*
Y66999D01*
X350668D01*
X351334Y66333D01*
Y65000D01*
X350668Y64334D01*
X348668D01*
X350001D02*
X351334Y63001D01*
X352667Y66333D02*
X353334Y66999D01*
X354666D01*
X355333Y66333D01*
Y65666D01*
X354666Y65000D01*
X355333Y64334D01*
Y63667D01*
X354666Y63001D01*
X353334D01*
X352667Y63667D01*
Y64334D01*
X353334Y65000D01*
X352667Y65666D01*
Y66333D01*
X353334Y65000D02*
X354666D01*
X359332Y66999D02*
X356666D01*
Y65000D01*
X357999Y65666D01*
X358665D01*
X359332Y65000D01*
Y63667D01*
X358665Y63001D01*
X357332D01*
X356666Y63667D01*
X244668Y63001D02*
Y66999D01*
X246668D01*
X247334Y66333D01*
Y65000D01*
X246668Y64334D01*
X244668D01*
X246001D02*
X247334Y63001D01*
X248667Y66333D02*
X249334Y66999D01*
X250666D01*
X251333Y66333D01*
Y65666D01*
X250666Y65000D01*
X251333Y64334D01*
Y63667D01*
X250666Y63001D01*
X249334D01*
X248667Y63667D01*
Y64334D01*
X249334Y65000D01*
X248667Y65666D01*
Y66333D01*
X249334Y65000D02*
X250666D01*
X254665Y63001D02*
Y66999D01*
X252666Y65000D01*
X255332D01*
X421668Y64001D02*
Y67999D01*
X423668D01*
X424334Y67333D01*
Y66000D01*
X423668Y65334D01*
X421668D01*
X423001D02*
X424334Y64001D01*
X425667Y67333D02*
X426334Y67999D01*
X427666D01*
X428333Y67333D01*
Y66666D01*
X427666Y66000D01*
X428333Y65334D01*
Y64667D01*
X427666Y64001D01*
X426334D01*
X425667Y64667D01*
Y65334D01*
X426334Y66000D01*
X425667Y66666D01*
Y67333D01*
X426334Y66000D02*
X427666D01*
X429666Y67333D02*
X430332Y67999D01*
X431665D01*
X432332Y67333D01*
Y66666D01*
X431665Y66000D01*
X430999D01*
X431665D01*
X432332Y65334D01*
Y64667D01*
X431665Y64001D01*
X430332D01*
X429666Y64667D01*
X348668Y69001D02*
Y72999D01*
X350668D01*
X351334Y72333D01*
Y71000D01*
X350668Y70334D01*
X348668D01*
X350001D02*
X351334Y69001D01*
X352667Y72333D02*
X353334Y72999D01*
X354666D01*
X355333Y72333D01*
Y71666D01*
X354666Y71000D01*
X355333Y70334D01*
Y69667D01*
X354666Y69001D01*
X353334D01*
X352667Y69667D01*
Y70334D01*
X353334Y71000D01*
X352667Y71666D01*
Y72333D01*
X353334Y71000D02*
X354666D01*
X359332Y69001D02*
X356666D01*
X359332Y71666D01*
Y72333D01*
X358665Y72999D01*
X357332D01*
X356666Y72333D01*
X323185Y64001D02*
Y67999D01*
X325185D01*
X325851Y67333D01*
Y66000D01*
X325185Y65334D01*
X323185D01*
X324518D02*
X325851Y64001D01*
X327184Y67333D02*
X327850Y67999D01*
X329183D01*
X329850Y67333D01*
Y66666D01*
X329183Y66000D01*
X329850Y65334D01*
Y64667D01*
X329183Y64001D01*
X327850D01*
X327184Y64667D01*
Y65334D01*
X327850Y66000D01*
X327184Y66666D01*
Y67333D01*
X327850Y66000D02*
X329183D01*
X331183Y64001D02*
X332516D01*
X331849D01*
Y67999D01*
X331183Y67333D01*
X244668Y69001D02*
Y72999D01*
X246668D01*
X247334Y72333D01*
Y71000D01*
X246668Y70334D01*
X244668D01*
X246001D02*
X247334Y69001D01*
X248667Y72333D02*
X249334Y72999D01*
X250666D01*
X251333Y72333D01*
Y71666D01*
X250666Y71000D01*
X251333Y70334D01*
Y69667D01*
X250666Y69001D01*
X249334D01*
X248667Y69667D01*
Y70334D01*
X249334Y71000D01*
X248667Y71666D01*
Y72333D01*
X249334Y71000D02*
X250666D01*
X252666Y72333D02*
X253332Y72999D01*
X254665D01*
X255332Y72333D01*
Y69667D01*
X254665Y69001D01*
X253332D01*
X252666Y69667D01*
Y72333D01*
X421668Y71001D02*
Y74999D01*
X423668D01*
X424334Y74333D01*
Y73000D01*
X423668Y72334D01*
X421668D01*
X423001D02*
X424334Y71001D01*
X425667Y74999D02*
X428333D01*
Y74333D01*
X425667Y71667D01*
Y71001D01*
X429666Y71667D02*
X430332Y71001D01*
X431665D01*
X432332Y71667D01*
Y74333D01*
X431665Y74999D01*
X430332D01*
X429666Y74333D01*
Y73666D01*
X430332Y73000D01*
X432332D01*
X348668Y75001D02*
Y78999D01*
X350668D01*
X351334Y78333D01*
Y77000D01*
X350668Y76334D01*
X348668D01*
X350001D02*
X351334Y75001D01*
X352667Y78999D02*
X355333D01*
Y78333D01*
X352667Y75667D01*
Y75001D01*
X356666Y78333D02*
X357332Y78999D01*
X358665D01*
X359332Y78333D01*
Y77666D01*
X358665Y77000D01*
X359332Y76334D01*
Y75667D01*
X358665Y75001D01*
X357332D01*
X356666Y75667D01*
Y76334D01*
X357332Y77000D01*
X356666Y77666D01*
Y78333D01*
X357332Y77000D02*
X358665D01*
X322668Y70001D02*
Y73999D01*
X324668D01*
X325334Y73333D01*
Y72000D01*
X324668Y71334D01*
X322668D01*
X324001D02*
X325334Y70001D01*
X326667Y73999D02*
X329333D01*
Y73333D01*
X326667Y70667D01*
Y70001D01*
X330666Y73999D02*
X333332D01*
Y73333D01*
X330666Y70667D01*
Y70001D01*
X244668Y75001D02*
Y78999D01*
X246668D01*
X247334Y78333D01*
Y77000D01*
X246668Y76334D01*
X244668D01*
X246001D02*
X247334Y75001D01*
X248667Y78999D02*
X251333D01*
Y78333D01*
X248667Y75667D01*
Y75001D01*
X255332Y78999D02*
X253999Y78333D01*
X252666Y77000D01*
Y75667D01*
X253332Y75001D01*
X254665D01*
X255332Y75667D01*
Y76334D01*
X254665Y77000D01*
X252666D01*
X535668Y131001D02*
Y134999D01*
X537668D01*
X538334Y134333D01*
Y133000D01*
X537668Y132334D01*
X535668D01*
X537001D02*
X538334Y131001D01*
X539667Y134999D02*
X542333D01*
Y134333D01*
X539667Y131667D01*
Y131001D01*
X546332Y134999D02*
X543666D01*
Y133000D01*
X544999Y133667D01*
X545665D01*
X546332Y133000D01*
Y131667D01*
X545665Y131001D01*
X544332D01*
X543666Y131667D01*
X535668Y231001D02*
Y234999D01*
X537668D01*
X538334Y234333D01*
Y233000D01*
X537668Y232334D01*
X535668D01*
X537001D02*
X538334Y231001D01*
X539667Y234999D02*
X542333D01*
Y234333D01*
X539667Y231667D01*
Y231001D01*
X545665D02*
Y234999D01*
X543666Y233000D01*
X546332D01*
X456668Y116001D02*
Y119999D01*
X458668D01*
X459334Y119333D01*
Y118000D01*
X458668Y117333D01*
X456668D01*
X458001D02*
X459334Y116001D01*
X460667Y119999D02*
X463333D01*
Y119333D01*
X460667Y116667D01*
Y116001D01*
X464666Y119333D02*
X465332Y119999D01*
X466665D01*
X467332Y119333D01*
Y118667D01*
X466665Y118000D01*
X465999D01*
X466665D01*
X467332Y117333D01*
Y116667D01*
X466665Y116001D01*
X465332D01*
X464666Y116667D01*
X456668Y216001D02*
Y219999D01*
X458668D01*
X459334Y219333D01*
Y218000D01*
X458668Y217334D01*
X456668D01*
X458001D02*
X459334Y216001D01*
X460667Y219999D02*
X463333D01*
Y219333D01*
X460667Y216667D01*
Y216001D01*
X467332D02*
X464666D01*
X467332Y218666D01*
Y219333D01*
X466665Y219999D01*
X465332D01*
X464666Y219333D01*
X457335Y91001D02*
Y94999D01*
X459334D01*
X460001Y94333D01*
Y93000D01*
X459334Y92334D01*
X457335D01*
X458668D02*
X460001Y91001D01*
X461334Y94999D02*
X463999D01*
Y94333D01*
X461334Y91667D01*
Y91001D01*
X465332D02*
X466665D01*
X465999D01*
Y94999D01*
X465332Y94333D01*
X456668Y191001D02*
Y194999D01*
X458668D01*
X459334Y194333D01*
Y193000D01*
X458668Y192333D01*
X456668D01*
X458001D02*
X459334Y191001D01*
X460667Y194999D02*
X463333D01*
Y194333D01*
X460667Y191667D01*
Y191001D01*
X464666Y194333D02*
X465332Y194999D01*
X466665D01*
X467332Y194333D01*
Y191667D01*
X466665Y191001D01*
X465332D01*
X464666Y191667D01*
Y194333D01*
X456668Y122001D02*
Y125999D01*
X458668D01*
X459334Y125333D01*
Y124000D01*
X458668Y123334D01*
X456668D01*
X458001D02*
X459334Y122001D01*
X463333Y125999D02*
X462000Y125333D01*
X460667Y124000D01*
Y122667D01*
X461334Y122001D01*
X462666D01*
X463333Y122667D01*
Y123334D01*
X462666Y124000D01*
X460667D01*
X464666Y122667D02*
X465332Y122001D01*
X466665D01*
X467332Y122667D01*
Y125333D01*
X466665Y125999D01*
X465332D01*
X464666Y125333D01*
Y124667D01*
X465332Y124000D01*
X467332D01*
X456668Y222001D02*
Y225999D01*
X458668D01*
X459334Y225333D01*
Y224000D01*
X458668Y223334D01*
X456668D01*
X458001D02*
X459334Y222001D01*
X463333Y225999D02*
X462000Y225333D01*
X460667Y224000D01*
Y222667D01*
X461334Y222001D01*
X462666D01*
X463333Y222667D01*
Y223334D01*
X462666Y224000D01*
X460667D01*
X464666Y225333D02*
X465332Y225999D01*
X466665D01*
X467332Y225333D01*
Y224666D01*
X466665Y224000D01*
X467332Y223334D01*
Y222667D01*
X466665Y222001D01*
X465332D01*
X464666Y222667D01*
Y223334D01*
X465332Y224000D01*
X464666Y224666D01*
Y225333D01*
X465332Y224000D02*
X466665D01*
X457668Y84001D02*
Y87999D01*
X459668D01*
X460334Y87333D01*
Y86000D01*
X459668Y85334D01*
X457668D01*
X459001D02*
X460334Y84001D01*
X464333Y87999D02*
X463000Y87333D01*
X461667Y86000D01*
Y84667D01*
X462334Y84001D01*
X463666D01*
X464333Y84667D01*
Y85334D01*
X463666Y86000D01*
X461667D01*
X465666Y87999D02*
X468332D01*
Y87333D01*
X465666Y84667D01*
Y84001D01*
X457668Y185001D02*
Y188999D01*
X459668D01*
X460334Y188333D01*
Y187000D01*
X459668Y186334D01*
X457668D01*
X459001D02*
X460334Y185001D01*
X464333Y188999D02*
X463000Y188333D01*
X461667Y187000D01*
Y185667D01*
X462334Y185001D01*
X463666D01*
X464333Y185667D01*
Y186334D01*
X463666Y187000D01*
X461667D01*
X468332Y188999D02*
X466999Y188333D01*
X465666Y187000D01*
Y185667D01*
X466332Y185001D01*
X467665D01*
X468332Y185667D01*
Y186334D01*
X467665Y187000D01*
X465666D01*
X203668Y32001D02*
Y35999D01*
X205668D01*
X206334Y35333D01*
Y34000D01*
X205668Y33334D01*
X203668D01*
X205001D02*
X206334Y32001D01*
X210333Y35999D02*
X209000Y35333D01*
X207667Y34000D01*
Y32667D01*
X208334Y32001D01*
X209666D01*
X210333Y32667D01*
Y33334D01*
X209666Y34000D01*
X207667D01*
X214332Y35999D02*
X211666D01*
Y34000D01*
X212999Y34666D01*
X213665D01*
X214332Y34000D01*
Y32667D01*
X213665Y32001D01*
X212332D01*
X211666Y32667D01*
X203668Y25001D02*
Y28999D01*
X205668D01*
X206334Y28333D01*
Y27000D01*
X205668Y26334D01*
X203668D01*
X205001D02*
X206334Y25001D01*
X210333Y28999D02*
X209000Y28333D01*
X207667Y27000D01*
Y25667D01*
X208334Y25001D01*
X209666D01*
X210333Y25667D01*
Y26334D01*
X209666Y27000D01*
X207667D01*
X213665Y25001D02*
Y28999D01*
X211666Y27000D01*
X214332D01*
X120668Y19001D02*
Y22999D01*
X122668D01*
X123334Y22333D01*
Y21000D01*
X122668Y20334D01*
X120668D01*
X122001D02*
X123334Y19001D01*
X127333Y22999D02*
X126000Y22333D01*
X124667Y21000D01*
Y19667D01*
X125333Y19001D01*
X126666D01*
X127333Y19667D01*
Y20334D01*
X126666Y21000D01*
X124667D01*
X128666Y22333D02*
X129332Y22999D01*
X130665D01*
X131332Y22333D01*
Y21666D01*
X130665Y21000D01*
X129999D01*
X130665D01*
X131332Y20334D01*
Y19667D01*
X130665Y19001D01*
X129332D01*
X128666Y19667D01*
X203668Y19001D02*
Y22999D01*
X205668D01*
X206334Y22333D01*
Y21000D01*
X205668Y20334D01*
X203668D01*
X205001D02*
X206334Y19001D01*
X210333Y22999D02*
X209000Y22333D01*
X207667Y21000D01*
Y19667D01*
X208334Y19001D01*
X209666D01*
X210333Y19667D01*
Y20334D01*
X209666Y21000D01*
X207667D01*
X214332Y19001D02*
X211666D01*
X214332Y21666D01*
Y22333D01*
X213665Y22999D01*
X212332D01*
X211666Y22333D01*
X122335Y25001D02*
Y28999D01*
X124334D01*
X125001Y28333D01*
Y27000D01*
X124334Y26334D01*
X122335D01*
X123668D02*
X125001Y25001D01*
X128999Y28999D02*
X127666Y28333D01*
X126333Y27000D01*
Y25667D01*
X127000Y25001D01*
X128333D01*
X128999Y25667D01*
Y26334D01*
X128333Y27000D01*
X126333D01*
X130332Y25001D02*
X131665D01*
X130999D01*
Y28999D01*
X130332Y28333D01*
X203668Y13001D02*
Y16999D01*
X205668D01*
X206334Y16333D01*
Y15000D01*
X205668Y14333D01*
X203668D01*
X205001D02*
X206334Y13001D01*
X210333Y16999D02*
X209000Y16333D01*
X207667Y15000D01*
Y13667D01*
X208334Y13001D01*
X209666D01*
X210333Y13667D01*
Y14333D01*
X209666Y15000D01*
X207667D01*
X211666Y16333D02*
X212332Y16999D01*
X213665D01*
X214332Y16333D01*
Y13667D01*
X213665Y13001D01*
X212332D01*
X211666Y13667D01*
Y16333D01*
X93999Y58668D02*
X90001D01*
Y60668D01*
X90667Y61334D01*
X92000D01*
X92666Y60668D01*
Y58668D01*
Y60001D02*
X93999Y61334D01*
X90001Y65333D02*
Y62667D01*
X92000D01*
X91334Y64000D01*
Y64666D01*
X92000Y65333D01*
X93333D01*
X93999Y64666D01*
Y63334D01*
X93333Y62667D01*
Y66666D02*
X93999Y67332D01*
Y68665D01*
X93333Y69332D01*
X90667D01*
X90001Y68665D01*
Y67332D01*
X90667Y66666D01*
X91334D01*
X92000Y67332D01*
Y69332D01*
X203668Y63001D02*
Y66999D01*
X205668D01*
X206334Y66333D01*
Y65000D01*
X205668Y64334D01*
X203668D01*
X205001D02*
X206334Y63001D01*
X210333Y66999D02*
X207667D01*
Y65000D01*
X209000Y65666D01*
X209666D01*
X210333Y65000D01*
Y63667D01*
X209666Y63001D01*
X208334D01*
X207667Y63667D01*
X211666Y66333D02*
X212332Y66999D01*
X213665D01*
X214332Y66333D01*
Y65666D01*
X213665Y65000D01*
X214332Y64334D01*
Y63667D01*
X213665Y63001D01*
X212332D01*
X211666Y63667D01*
Y64334D01*
X212332Y65000D01*
X211666Y65666D01*
Y66333D01*
X212332Y65000D02*
X213665D01*
X203668Y57001D02*
Y60999D01*
X205668D01*
X206334Y60333D01*
Y59000D01*
X205668Y58334D01*
X203668D01*
X205001D02*
X206334Y57001D01*
X210333Y60999D02*
X207667D01*
Y59000D01*
X209000Y59666D01*
X209666D01*
X210333Y59000D01*
Y57667D01*
X209666Y57001D01*
X208334D01*
X207667Y57667D01*
X211666Y60999D02*
X214332D01*
Y60333D01*
X211666Y57667D01*
Y57001D01*
X120668Y50001D02*
Y53999D01*
X122668D01*
X123334Y53333D01*
Y52000D01*
X122668Y51334D01*
X120668D01*
X122001D02*
X123334Y50001D01*
X127333Y53999D02*
X124667D01*
Y52000D01*
X126000Y52666D01*
X126666D01*
X127333Y52000D01*
Y50667D01*
X126666Y50001D01*
X125333D01*
X124667Y50667D01*
X131332Y53999D02*
X129999Y53333D01*
X128666Y52000D01*
Y50667D01*
X129332Y50001D01*
X130665D01*
X131332Y50667D01*
Y51334D01*
X130665Y52000D01*
X128666D01*
X203818Y51001D02*
Y54999D01*
X205817D01*
X206484Y54333D01*
Y53000D01*
X205817Y52334D01*
X203818D01*
X205151D02*
X206484Y51001D01*
X210483Y54999D02*
X207817D01*
Y53000D01*
X209150Y53666D01*
X209816D01*
X210483Y53000D01*
Y51667D01*
X209816Y51001D01*
X208483D01*
X207817Y51667D01*
X214481Y54999D02*
X211815D01*
Y53000D01*
X213148Y53666D01*
X213815D01*
X214481Y53000D01*
Y51667D01*
X213815Y51001D01*
X212482D01*
X211815Y51667D01*
X120668Y56001D02*
Y59999D01*
X122668D01*
X123334Y59333D01*
Y58000D01*
X122668Y57334D01*
X120668D01*
X122001D02*
X123334Y56001D01*
X127333Y59999D02*
X124667D01*
Y58000D01*
X126000Y58666D01*
X126666D01*
X127333Y58000D01*
Y56667D01*
X126666Y56001D01*
X125333D01*
X124667Y56667D01*
X130665Y56001D02*
Y59999D01*
X128666Y58000D01*
X131332D01*
X56999Y64668D02*
X53001D01*
Y66668D01*
X53667Y67334D01*
X55000D01*
X55666Y66668D01*
Y64668D01*
Y66001D02*
X56999Y67334D01*
X53001Y71333D02*
Y68667D01*
X55000D01*
X54334Y70000D01*
Y70666D01*
X55000Y71333D01*
X56333D01*
X56999Y70666D01*
Y69334D01*
X56333Y68667D01*
X53667Y72666D02*
X53001Y73332D01*
Y74665D01*
X53667Y75332D01*
X54334D01*
X55000Y74665D01*
Y73999D01*
Y74665D01*
X55666Y75332D01*
X56333D01*
X56999Y74665D01*
Y73332D01*
X56333Y72666D01*
X203668Y45001D02*
Y48999D01*
X205668D01*
X206334Y48333D01*
Y47000D01*
X205668Y46334D01*
X203668D01*
X205001D02*
X206334Y45001D01*
X210333Y48999D02*
X207667D01*
Y47000D01*
X209000Y47666D01*
X209666D01*
X210333Y47000D01*
Y45667D01*
X209666Y45001D01*
X208334D01*
X207667Y45667D01*
X214332Y45001D02*
X211666D01*
X214332Y47666D01*
Y48333D01*
X213665Y48999D01*
X212332D01*
X211666Y48333D01*
X494485Y258001D02*
Y261999D01*
X496484D01*
X497150Y261333D01*
Y260000D01*
X496484Y259334D01*
X494485D01*
X495817D02*
X497150Y258001D01*
X501149Y261999D02*
X498483D01*
Y260000D01*
X499816Y260666D01*
X500483D01*
X501149Y260000D01*
Y258667D01*
X500483Y258001D01*
X499150D01*
X498483Y258667D01*
X502482Y258001D02*
X503815D01*
X503148D01*
Y261999D01*
X502482Y261333D01*
X493818Y268001D02*
Y271999D01*
X495817D01*
X496484Y271333D01*
Y270000D01*
X495817Y269334D01*
X493818D01*
X495151D02*
X496484Y268001D01*
X500483Y271999D02*
X497817D01*
Y270000D01*
X499150Y270666D01*
X499816D01*
X500483Y270000D01*
Y268667D01*
X499816Y268001D01*
X498483D01*
X497817Y268667D01*
X501815Y271333D02*
X502482Y271999D01*
X503815D01*
X504481Y271333D01*
Y268667D01*
X503815Y268001D01*
X502482D01*
X501815Y268667D01*
Y271333D01*
X494818Y278001D02*
Y281999D01*
X496817D01*
X497484Y281333D01*
Y280000D01*
X496817Y279334D01*
X494818D01*
X496151D02*
X497484Y278001D01*
X500816D02*
Y281999D01*
X498817Y280000D01*
X501482D01*
X502815Y278667D02*
X503482Y278001D01*
X504815D01*
X505481Y278667D01*
Y281333D01*
X504815Y281999D01*
X503482D01*
X502815Y281333D01*
Y280666D01*
X503482Y280000D01*
X505481D01*
X493818Y288001D02*
Y291999D01*
X495817D01*
X496484Y291333D01*
Y290000D01*
X495817Y289334D01*
X493818D01*
X495151D02*
X496484Y288001D01*
X499816D02*
Y291999D01*
X497817Y290000D01*
X500483D01*
X501815Y291333D02*
X502482Y291999D01*
X503815D01*
X504481Y291333D01*
Y290666D01*
X503815Y290000D01*
X504481Y289334D01*
Y288667D01*
X503815Y288001D01*
X502482D01*
X501815Y288667D01*
Y289334D01*
X502482Y290000D01*
X501815Y290666D01*
Y291333D01*
X502482Y290000D02*
X503815D01*
X180999Y95668D02*
X177001D01*
Y97668D01*
X177667Y98334D01*
X179000D01*
X179666Y97668D01*
Y95668D01*
Y97001D02*
X180999Y98334D01*
Y101666D02*
X177001D01*
X179000Y99667D01*
Y102333D01*
X177001Y103666D02*
Y106332D01*
X177667D01*
X180333Y103666D01*
X180999D01*
X186999Y95668D02*
X183001D01*
Y97668D01*
X183667Y98334D01*
X185000D01*
X185666Y97668D01*
Y95668D01*
Y97001D02*
X186999Y98334D01*
Y101666D02*
X183001D01*
X185000Y99667D01*
Y102333D01*
X183001Y106332D02*
X183667Y104999D01*
X185000Y103666D01*
X186333D01*
X186999Y104332D01*
Y105665D01*
X186333Y106332D01*
X185666D01*
X185000Y105665D01*
Y103666D01*
X192999Y95668D02*
X189001D01*
Y97668D01*
X189667Y98334D01*
X191000D01*
X191666Y97668D01*
Y95668D01*
Y97001D02*
X192999Y98334D01*
Y101666D02*
X189001D01*
X191000Y99667D01*
Y102333D01*
X189001Y106332D02*
Y103666D01*
X191000D01*
X190333Y104999D01*
Y105665D01*
X191000Y106332D01*
X192333D01*
X192999Y105665D01*
Y104332D01*
X192333Y103666D01*
X165999Y95668D02*
X162001D01*
Y97668D01*
X162667Y98334D01*
X164000D01*
X164666Y97668D01*
Y95668D01*
Y97001D02*
X165999Y98334D01*
Y101666D02*
X162001D01*
X164000Y99667D01*
Y102333D01*
X165999Y105665D02*
X162001D01*
X164000Y103666D01*
Y106332D01*
X198999Y95668D02*
X195001D01*
Y97668D01*
X195667Y98334D01*
X197000D01*
X197667Y97668D01*
Y95668D01*
Y97001D02*
X198999Y98334D01*
Y101666D02*
X195001D01*
X197000Y99667D01*
Y102333D01*
X195667Y103666D02*
X195001Y104332D01*
Y105665D01*
X195667Y106332D01*
X196334D01*
X197000Y105665D01*
Y104999D01*
Y105665D01*
X197667Y106332D01*
X198333D01*
X198999Y105665D01*
Y104332D01*
X198333Y103666D01*
X123668Y124001D02*
Y127999D01*
X125668D01*
X126334Y127333D01*
Y126000D01*
X125668Y125333D01*
X123668D01*
X125001D02*
X126334Y124001D01*
X129666D02*
Y127999D01*
X127667Y126000D01*
X130333D01*
X134332Y124001D02*
X131666D01*
X134332Y126666D01*
Y127333D01*
X133665Y127999D01*
X132332D01*
X131666Y127333D01*
X204999Y95668D02*
X201001D01*
Y97668D01*
X201667Y98334D01*
X203000D01*
X203666Y97668D01*
Y95668D01*
Y97001D02*
X204999Y98334D01*
Y101666D02*
X201001D01*
X203000Y99667D01*
Y102333D01*
X204999Y103666D02*
Y104999D01*
Y104332D01*
X201001D01*
X201667Y103666D01*
X123668Y130001D02*
Y133999D01*
X125668D01*
X126334Y133333D01*
Y132000D01*
X125668Y131333D01*
X123668D01*
X125001D02*
X126334Y130001D01*
X129666D02*
Y133999D01*
X127667Y132000D01*
X130333D01*
X131666Y133333D02*
X132332Y133999D01*
X133665D01*
X134332Y133333D01*
Y130667D01*
X133665Y130001D01*
X132332D01*
X131666Y130667D01*
Y133333D01*
X144999Y225668D02*
X141001D01*
Y227668D01*
X141667Y228334D01*
X143000D01*
X143667Y227668D01*
Y225668D01*
Y227001D02*
X144999Y228334D01*
X141667Y229667D02*
X141001Y230334D01*
Y231666D01*
X141667Y232333D01*
X142333D01*
X143000Y231666D01*
Y231000D01*
Y231666D01*
X143667Y232333D01*
X144333D01*
X144999Y231666D01*
Y230334D01*
X144333Y229667D01*
Y233666D02*
X144999Y234332D01*
Y235665D01*
X144333Y236332D01*
X141667D01*
X141001Y235665D01*
Y234332D01*
X141667Y233666D01*
X142333D01*
X143000Y234332D01*
Y236332D01*
X137999Y225668D02*
X134001D01*
Y227668D01*
X134667Y228334D01*
X136000D01*
X136666Y227668D01*
Y225668D01*
Y227001D02*
X137999Y228334D01*
X134667Y229667D02*
X134001Y230334D01*
Y231666D01*
X134667Y232333D01*
X135334D01*
X136000Y231666D01*
Y231000D01*
Y231666D01*
X136666Y232333D01*
X137333D01*
X137999Y231666D01*
Y230334D01*
X137333Y229667D01*
X134667Y233666D02*
X134001Y234332D01*
Y235665D01*
X134667Y236332D01*
X135334D01*
X136000Y235665D01*
X136666Y236332D01*
X137333D01*
X137999Y235665D01*
Y234332D01*
X137333Y233666D01*
X136666D01*
X136000Y234332D01*
X135334Y233666D01*
X134667D01*
X136000Y234332D02*
Y235665D01*
X211999Y95668D02*
X208001D01*
Y97668D01*
X208667Y98334D01*
X210000D01*
X210666Y97668D01*
Y95668D01*
Y97001D02*
X211999Y98334D01*
X208667Y99667D02*
X208001Y100334D01*
Y101666D01*
X208667Y102333D01*
X209333D01*
X210000Y101666D01*
Y101000D01*
Y101666D01*
X210666Y102333D01*
X211333D01*
X211999Y101666D01*
Y100334D01*
X211333Y99667D01*
X208001Y103666D02*
Y106332D01*
X208667D01*
X211333Y103666D01*
X211999D01*
X123668Y136001D02*
Y139999D01*
X125668D01*
X126334Y139333D01*
Y138000D01*
X125668Y137334D01*
X123668D01*
X125001D02*
X126334Y136001D01*
X127667Y139333D02*
X128333Y139999D01*
X129666D01*
X130333Y139333D01*
Y138666D01*
X129666Y138000D01*
X129000D01*
X129666D01*
X130333Y137334D01*
Y136667D01*
X129666Y136001D01*
X128333D01*
X127667Y136667D01*
X134332Y139999D02*
X132999Y139333D01*
X131666Y138000D01*
Y136667D01*
X132332Y136001D01*
X133665D01*
X134332Y136667D01*
Y137334D01*
X133665Y138000D01*
X131666D01*
X241668Y127001D02*
Y130999D01*
X243668D01*
X244334Y130333D01*
Y129000D01*
X243668Y128333D01*
X241668D01*
X243001D02*
X244334Y127001D01*
X245667Y130333D02*
X246334Y130999D01*
X247666D01*
X248333Y130333D01*
Y129666D01*
X247666Y129000D01*
X247000D01*
X247666D01*
X248333Y128333D01*
Y127667D01*
X247666Y127001D01*
X246334D01*
X245667Y127667D01*
X252332Y130999D02*
X249666D01*
Y129000D01*
X250999Y129666D01*
X251665D01*
X252332Y129000D01*
Y127667D01*
X251665Y127001D01*
X250332D01*
X249666Y127667D01*
X241668Y139001D02*
Y142999D01*
X243668D01*
X244334Y142333D01*
Y141000D01*
X243668Y140333D01*
X241668D01*
X243001D02*
X244334Y139001D01*
X245667Y142333D02*
X246334Y142999D01*
X247666D01*
X248333Y142333D01*
Y141666D01*
X247666Y141000D01*
X247000D01*
X247666D01*
X248333Y140333D01*
Y139667D01*
X247666Y139001D01*
X246334D01*
X245667Y139667D01*
X251665Y139001D02*
Y142999D01*
X249666Y141000D01*
X252332D01*
X123668Y142001D02*
Y145999D01*
X125668D01*
X126334Y145333D01*
Y144000D01*
X125668Y143333D01*
X123668D01*
X125001D02*
X126334Y142001D01*
X127667Y145333D02*
X128333Y145999D01*
X129666D01*
X130333Y145333D01*
Y144667D01*
X129666Y144000D01*
X129000D01*
X129666D01*
X130333Y143333D01*
Y142667D01*
X129666Y142001D01*
X128333D01*
X127667Y142667D01*
X131666Y145333D02*
X132332Y145999D01*
X133665D01*
X134332Y145333D01*
Y144667D01*
X133665Y144000D01*
X132999D01*
X133665D01*
X134332Y143333D01*
Y142667D01*
X133665Y142001D01*
X132332D01*
X131666Y142667D01*
X241668Y145001D02*
Y148999D01*
X243668D01*
X244334Y148333D01*
Y147000D01*
X243668Y146334D01*
X241668D01*
X243001D02*
X244334Y145001D01*
X245667Y148333D02*
X246334Y148999D01*
X247666D01*
X248333Y148333D01*
Y147667D01*
X247666Y147000D01*
X247000D01*
X247666D01*
X248333Y146334D01*
Y145667D01*
X247666Y145001D01*
X246334D01*
X245667Y145667D01*
X252332Y145001D02*
X249666D01*
X252332Y147667D01*
Y148333D01*
X251665Y148999D01*
X250332D01*
X249666Y148333D01*
X123668Y148001D02*
Y151999D01*
X125668D01*
X126334Y151333D01*
Y150000D01*
X125668Y149334D01*
X123668D01*
X125001D02*
X126334Y148001D01*
X127667Y151333D02*
X128333Y151999D01*
X129666D01*
X130333Y151333D01*
Y150666D01*
X129666Y150000D01*
X129000D01*
X129666D01*
X130333Y149334D01*
Y148667D01*
X129666Y148001D01*
X128333D01*
X127667Y148667D01*
X131666Y148001D02*
X132999D01*
X132332D01*
Y151999D01*
X131666Y151333D01*
X241668Y151001D02*
Y154999D01*
X243668D01*
X244334Y154333D01*
Y153000D01*
X243668Y152333D01*
X241668D01*
X243001D02*
X244334Y151001D01*
X245667Y154333D02*
X246334Y154999D01*
X247666D01*
X248333Y154333D01*
Y153666D01*
X247666Y153000D01*
X247000D01*
X247666D01*
X248333Y152333D01*
Y151667D01*
X247666Y151001D01*
X246334D01*
X245667Y151667D01*
X249666Y154333D02*
X250332Y154999D01*
X251665D01*
X252332Y154333D01*
Y151667D01*
X251665Y151001D01*
X250332D01*
X249666Y151667D01*
Y154333D01*
X123668Y154001D02*
Y157999D01*
X125668D01*
X126334Y157333D01*
Y156000D01*
X125668Y155333D01*
X123668D01*
X125001D02*
X126334Y154001D01*
X130333D02*
X127667D01*
X130333Y156667D01*
Y157333D01*
X129666Y157999D01*
X128333D01*
X127667Y157333D01*
X131666Y154667D02*
X132332Y154001D01*
X133665D01*
X134332Y154667D01*
Y157333D01*
X133665Y157999D01*
X132332D01*
X131666Y157333D01*
Y156667D01*
X132332Y156000D01*
X134332D01*
X241668Y157001D02*
Y160999D01*
X243668D01*
X244334Y160333D01*
Y159000D01*
X243668Y158334D01*
X241668D01*
X243001D02*
X244334Y157001D01*
X248333D02*
X245667D01*
X248333Y159667D01*
Y160333D01*
X247666Y160999D01*
X246334D01*
X245667Y160333D01*
X249666D02*
X250332Y160999D01*
X251665D01*
X252332Y160333D01*
Y159667D01*
X251665Y159000D01*
X252332Y158334D01*
Y157667D01*
X251665Y157001D01*
X250332D01*
X249666Y157667D01*
Y158334D01*
X250332Y159000D01*
X249666Y159667D01*
Y160333D01*
X250332Y159000D02*
X251665D01*
X123668Y160001D02*
Y163999D01*
X125668D01*
X126334Y163333D01*
Y162000D01*
X125668Y161334D01*
X123668D01*
X125001D02*
X126334Y160001D01*
X130333D02*
X127667D01*
X130333Y162666D01*
Y163333D01*
X129666Y163999D01*
X128333D01*
X127667Y163333D01*
X131666Y163999D02*
X134332D01*
Y163333D01*
X131666Y160667D01*
Y160001D01*
X144999Y267668D02*
X141001D01*
Y269668D01*
X141667Y270334D01*
X143000D01*
X143666Y269668D01*
Y267668D01*
Y269001D02*
X144999Y270334D01*
Y274333D02*
Y271667D01*
X142333Y274333D01*
X141667D01*
X141001Y273667D01*
Y272334D01*
X141667Y271667D01*
X141001Y278332D02*
X141667Y276999D01*
X143000Y275666D01*
X144333D01*
X144999Y276332D01*
Y277665D01*
X144333Y278332D01*
X143666D01*
X143000Y277665D01*
Y275666D01*
X137999Y267668D02*
X134001D01*
Y269668D01*
X134667Y270334D01*
X136000D01*
X136666Y269668D01*
Y267668D01*
Y269001D02*
X137999Y270334D01*
Y274333D02*
Y271667D01*
X135334Y274333D01*
X134667D01*
X134001Y273667D01*
Y272334D01*
X134667Y271667D01*
X134001Y278332D02*
Y275666D01*
X136000D01*
X135334Y276999D01*
Y277665D01*
X136000Y278332D01*
X137333D01*
X137999Y277665D01*
Y276332D01*
X137333Y275666D01*
X241668Y163001D02*
Y166999D01*
X243668D01*
X244334Y166333D01*
Y165000D01*
X243668Y164333D01*
X241668D01*
X243001D02*
X244334Y163001D01*
X248333D02*
X245667D01*
X248333Y165666D01*
Y166333D01*
X247666Y166999D01*
X246334D01*
X245667Y166333D01*
X251665Y163001D02*
Y166999D01*
X249666Y165000D01*
X252332D01*
X123668Y166001D02*
Y169999D01*
X125668D01*
X126334Y169333D01*
Y168000D01*
X125668Y167333D01*
X123668D01*
X125001D02*
X126334Y166001D01*
X130333D02*
X127667D01*
X130333Y168667D01*
Y169333D01*
X129666Y169999D01*
X128333D01*
X127667Y169333D01*
X131666D02*
X132332Y169999D01*
X133665D01*
X134332Y169333D01*
Y168667D01*
X133665Y168000D01*
X132999D01*
X133665D01*
X134332Y167333D01*
Y166667D01*
X133665Y166001D01*
X132332D01*
X131666Y166667D01*
X216999Y196668D02*
X213001D01*
Y198668D01*
X213667Y199334D01*
X215000D01*
X215666Y198668D01*
Y196668D01*
Y198001D02*
X216999Y199334D01*
Y203333D02*
Y200667D01*
X214334Y203333D01*
X213667D01*
X213001Y202666D01*
Y201334D01*
X213667Y200667D01*
X216999Y207332D02*
Y204666D01*
X214334Y207332D01*
X213667D01*
X213001Y206665D01*
Y205332D01*
X213667Y204666D01*
X170999Y196335D02*
X167001D01*
Y198334D01*
X167667Y199001D01*
X169000D01*
X169666Y198334D01*
Y196335D01*
Y197668D02*
X170999Y199001D01*
Y202999D02*
Y200334D01*
X168333Y202999D01*
X167667D01*
X167001Y202333D01*
Y201000D01*
X167667Y200334D01*
X170999Y204332D02*
Y205665D01*
Y204999D01*
X167001D01*
X167667Y204332D01*
X210999Y196519D02*
X207001D01*
Y198518D01*
X207667Y199185D01*
X209000D01*
X209666Y198518D01*
Y196519D01*
Y197852D02*
X210999Y199185D01*
Y203183D02*
Y200518D01*
X208334Y203183D01*
X207667D01*
X207001Y202517D01*
Y201184D01*
X207667Y200518D01*
Y204516D02*
X207001Y205183D01*
Y206516D01*
X207667Y207182D01*
X210333D01*
X210999Y206516D01*
Y205183D01*
X210333Y204516D01*
X207667D01*
X176999Y196002D02*
X173001D01*
Y198001D01*
X173667Y198667D01*
X175000D01*
X175666Y198001D01*
Y196002D01*
Y197335D02*
X176999Y198667D01*
Y200000D02*
Y201333D01*
Y200667D01*
X173001D01*
X173667Y200000D01*
X176333Y203333D02*
X176999Y203999D01*
Y205332D01*
X176333Y205998D01*
X173667D01*
X173001Y205332D01*
Y203999D01*
X173667Y203333D01*
X174334D01*
X175000Y203999D01*
Y205998D01*
X204999Y197002D02*
X201001D01*
Y199001D01*
X201667Y199667D01*
X203000D01*
X203666Y199001D01*
Y197002D01*
Y198335D02*
X204999Y199667D01*
Y201000D02*
Y202333D01*
Y201667D01*
X201001D01*
X201667Y201000D01*
Y204333D02*
X201001Y204999D01*
Y206332D01*
X201667Y206998D01*
X202333D01*
X203000Y206332D01*
X203666Y206998D01*
X204333D01*
X204999Y206332D01*
Y204999D01*
X204333Y204333D01*
X203666D01*
X203000Y204999D01*
X202333Y204333D01*
X201667D01*
X203000Y204999D02*
Y206332D01*
X182999Y195852D02*
X179001D01*
Y197851D01*
X179667Y198518D01*
X181000D01*
X181667Y197851D01*
Y195852D01*
Y197185D02*
X182999Y198518D01*
Y199851D02*
Y201184D01*
Y200517D01*
X179001D01*
X179667Y199851D01*
X179001Y203183D02*
Y205849D01*
X179667D01*
X182333Y203183D01*
X182999D01*
X66668Y118001D02*
Y121999D01*
X68667D01*
X69334Y121333D01*
Y120000D01*
X68667Y119334D01*
X66668D01*
X68001D02*
X69334Y118001D01*
X70666D02*
X71999D01*
X71333D01*
Y121999D01*
X70666Y121333D01*
X76665Y121999D02*
X75332Y121333D01*
X73999Y120000D01*
Y118667D01*
X74665Y118001D01*
X75998D01*
X76665Y118667D01*
Y119334D01*
X75998Y120000D01*
X73999D01*
X66668Y128001D02*
Y131999D01*
X68667D01*
X69334Y131333D01*
Y130000D01*
X68667Y129333D01*
X66668D01*
X68001D02*
X69334Y128001D01*
X70666D02*
X71999D01*
X71333D01*
Y131999D01*
X70666Y131333D01*
X76665Y131999D02*
X73999D01*
Y130000D01*
X75332Y130666D01*
X75998D01*
X76665Y130000D01*
Y128667D01*
X75998Y128001D01*
X74665D01*
X73999Y128667D01*
X97002Y133001D02*
Y136999D01*
X99001D01*
X99667Y136333D01*
Y135000D01*
X99001Y134334D01*
X97002D01*
X98334D02*
X99667Y133001D01*
X101000D02*
X102333D01*
X101667D01*
Y136999D01*
X101000Y136333D01*
X106332Y133001D02*
Y136999D01*
X104333Y135000D01*
X106998D01*
X66668Y138001D02*
Y141999D01*
X68667D01*
X69334Y141333D01*
Y140000D01*
X68667Y139333D01*
X66668D01*
X68001D02*
X69334Y138001D01*
X70666D02*
X71999D01*
X71333D01*
Y141999D01*
X70666Y141333D01*
X73999D02*
X74665Y141999D01*
X75998D01*
X76665Y141333D01*
Y140666D01*
X75998Y140000D01*
X75332D01*
X75998D01*
X76665Y139333D01*
Y138667D01*
X75998Y138001D01*
X74665D01*
X73999Y138667D01*
X97002Y143001D02*
Y146999D01*
X99001D01*
X99667Y146333D01*
Y145000D01*
X99001Y144334D01*
X97002D01*
X98334D02*
X99667Y143001D01*
X101000D02*
X102333D01*
X101667D01*
Y146999D01*
X101000Y146333D01*
X106998Y143001D02*
X104333D01*
X106998Y145667D01*
Y146333D01*
X106332Y146999D01*
X104999D01*
X104333Y146333D01*
X66668Y148001D02*
Y151999D01*
X68667D01*
X69334Y151333D01*
Y150000D01*
X68667Y149334D01*
X66668D01*
X68001D02*
X69334Y148001D01*
X70666D02*
X71999D01*
X71333D01*
Y151999D01*
X70666Y151333D01*
X73999Y148001D02*
X75332D01*
X74665D01*
Y151999D01*
X73999Y151333D01*
X97002Y153001D02*
Y156999D01*
X99001D01*
X99667Y156333D01*
Y155000D01*
X99001Y154333D01*
X97002D01*
X98334D02*
X99667Y153001D01*
X101000D02*
X102333D01*
X101667D01*
Y156999D01*
X101000Y156333D01*
X104333D02*
X104999Y156999D01*
X106332D01*
X106998Y156333D01*
Y153667D01*
X106332Y153001D01*
X104999D01*
X104333Y153667D01*
Y156333D01*
X66668Y158001D02*
Y161999D01*
X68667D01*
X69334Y161333D01*
Y160000D01*
X68667Y159334D01*
X66668D01*
X68001D02*
X69334Y158001D01*
X70666Y158667D02*
X71333Y158001D01*
X72666D01*
X73332Y158667D01*
Y161333D01*
X72666Y161999D01*
X71333D01*
X70666Y161333D01*
Y160667D01*
X71333Y160000D01*
X73332D01*
X250999Y180668D02*
X247001D01*
Y182667D01*
X247667Y183334D01*
X249000D01*
X249666Y182667D01*
Y180668D01*
Y182001D02*
X250999Y183334D01*
X247667Y184667D02*
X247001Y185333D01*
Y186666D01*
X247667Y187332D01*
X248334D01*
X249000Y186666D01*
X249666Y187332D01*
X250333D01*
X250999Y186666D01*
Y185333D01*
X250333Y184667D01*
X249666D01*
X249000Y185333D01*
X248334Y184667D01*
X247667D01*
X249000Y185333D02*
Y186666D01*
X96668Y163001D02*
Y166999D01*
X98667D01*
X99334Y166333D01*
Y165000D01*
X98667Y164333D01*
X96668D01*
X98001D02*
X99334Y163001D01*
X100666Y166999D02*
X103332D01*
Y166333D01*
X100666Y163667D01*
Y163001D01*
X66668Y168001D02*
Y171999D01*
X68667D01*
X69334Y171333D01*
Y170000D01*
X68667Y169334D01*
X66668D01*
X68001D02*
X69334Y168001D01*
X73332Y171999D02*
X71999Y171333D01*
X70666Y170000D01*
Y168667D01*
X71333Y168001D01*
X72666D01*
X73332Y168667D01*
Y169334D01*
X72666Y170000D01*
X70666D01*
X240999Y243668D02*
X237001D01*
Y245667D01*
X237667Y246334D01*
X239000D01*
X239666Y245667D01*
Y243668D01*
Y245001D02*
X240999Y246334D01*
X237001Y250332D02*
Y247667D01*
X239000D01*
X238334Y248999D01*
Y249666D01*
X239000Y250332D01*
X240333D01*
X240999Y249666D01*
Y248333D01*
X240333Y247667D01*
X240999Y181518D02*
X237001D01*
Y183518D01*
X237667Y184184D01*
X239000D01*
X239666Y183518D01*
Y181518D01*
Y182851D02*
X240999Y184184D01*
Y187516D02*
X237001D01*
X239000Y185517D01*
Y188183D01*
X66668Y178001D02*
Y181999D01*
X68667D01*
X69334Y181333D01*
Y180000D01*
X68667Y179333D01*
X66668D01*
X68001D02*
X69334Y178001D01*
X70666Y181333D02*
X71333Y181999D01*
X72666D01*
X73332Y181333D01*
Y180666D01*
X72666Y180000D01*
X71999D01*
X72666D01*
X73332Y179333D01*
Y178667D01*
X72666Y178001D01*
X71333D01*
X70666Y178667D01*
X230999Y180817D02*
X227001D01*
Y182817D01*
X227667Y183483D01*
X229000D01*
X229666Y182817D01*
Y180817D01*
Y182150D02*
X230999Y183483D01*
Y187482D02*
Y184816D01*
X228334Y187482D01*
X227667D01*
X227001Y186815D01*
Y185483D01*
X227667Y184816D01*
X66668Y188001D02*
Y191999D01*
X68667D01*
X69334Y191333D01*
Y190000D01*
X68667Y189333D01*
X66668D01*
X68001D02*
X69334Y188001D01*
X70666D02*
X71999D01*
X71333D01*
Y191999D01*
X70666Y191333D01*
X464001Y308170D02*
X467999D01*
Y310836D01*
X464001Y314834D02*
Y312168D01*
X467999D01*
Y314834D01*
X466000Y312168D02*
Y313501D01*
X464001Y316167D02*
X467999D01*
Y318166D01*
X467333Y318833D01*
X464667D01*
X464001Y318166D01*
Y316167D01*
X467999Y322832D02*
Y320166D01*
X465334Y322832D01*
X464667D01*
X464001Y322165D01*
Y320832D01*
X464667Y320166D01*
X467333Y324165D02*
X467999Y324831D01*
Y326164D01*
X467333Y326830D01*
X464667D01*
X464001Y326164D01*
Y324831D01*
X464667Y324165D01*
X465334D01*
X466000Y324831D01*
Y326830D01*
X400001Y308170D02*
X403999D01*
Y310836D01*
X400001Y314834D02*
Y312168D01*
X403999D01*
Y314834D01*
X402000Y312168D02*
Y313501D01*
X400001Y316167D02*
X403999D01*
Y318166D01*
X403333Y318833D01*
X400667D01*
X400001Y318166D01*
Y316167D01*
X403999Y322832D02*
Y320166D01*
X401334Y322832D01*
X400667D01*
X400001Y322165D01*
Y320832D01*
X400667Y320166D01*
Y324165D02*
X400001Y324831D01*
Y326164D01*
X400667Y326830D01*
X401334D01*
X402000Y326164D01*
X402666Y326830D01*
X403333D01*
X403999Y326164D01*
Y324831D01*
X403333Y324165D01*
X402666D01*
X402000Y324831D01*
X401334Y324165D01*
X400667D01*
X402000Y324831D02*
Y326164D01*
X415001Y309170D02*
X418999D01*
Y311836D01*
X415001Y315834D02*
Y313168D01*
X418999D01*
Y315834D01*
X417000Y313168D02*
Y314501D01*
X415001Y317167D02*
X418999D01*
Y319166D01*
X418333Y319833D01*
X415667D01*
X415001Y319166D01*
Y317167D01*
X418999Y323832D02*
Y321166D01*
X416333Y323832D01*
X415667D01*
X415001Y323165D01*
Y321832D01*
X415667Y321166D01*
X415001Y325165D02*
Y327830D01*
X415667D01*
X418333Y325165D01*
X418999D01*
X430001Y309170D02*
X433999D01*
Y311836D01*
X430001Y315834D02*
Y313168D01*
X433999D01*
Y315834D01*
X432000Y313168D02*
Y314501D01*
X430001Y317167D02*
X433999D01*
Y319166D01*
X433333Y319833D01*
X430667D01*
X430001Y319166D01*
Y317167D01*
X433999Y323832D02*
Y321166D01*
X431334Y323832D01*
X430667D01*
X430001Y323165D01*
Y321832D01*
X430667Y321166D01*
X430001Y327830D02*
X430667Y326497D01*
X432000Y325165D01*
X433333D01*
X433999Y325831D01*
Y327164D01*
X433333Y327830D01*
X432666D01*
X432000Y327164D01*
Y325165D01*
X444001Y308170D02*
X447999D01*
Y310836D01*
X444001Y314834D02*
Y312168D01*
X447999D01*
Y314834D01*
X446000Y312168D02*
Y313501D01*
X444001Y316167D02*
X447999D01*
Y318166D01*
X447333Y318833D01*
X444667D01*
X444001Y318166D01*
Y316167D01*
X447999Y322832D02*
Y320166D01*
X445334Y322832D01*
X444667D01*
X444001Y322165D01*
Y320832D01*
X444667Y320166D01*
X444001Y326830D02*
Y324165D01*
X446000D01*
X445334Y325497D01*
Y326164D01*
X446000Y326830D01*
X447333D01*
X447999Y326164D01*
Y324831D01*
X447333Y324165D01*
X293001Y307470D02*
X296999D01*
Y310136D01*
X293001Y314134D02*
Y311468D01*
X296999D01*
Y314134D01*
X295000Y311468D02*
Y312801D01*
X293001Y315467D02*
X296999D01*
Y317466D01*
X296333Y318133D01*
X293667D01*
X293001Y317466D01*
Y315467D01*
X296999Y322132D02*
Y319466D01*
X294334Y322132D01*
X293667D01*
X293001Y321465D01*
Y320132D01*
X293667Y319466D01*
X296999Y325464D02*
X293001D01*
X295000Y323464D01*
Y326130D01*
X313301Y307970D02*
X317299D01*
Y310635D01*
X313301Y314634D02*
Y311968D01*
X317299D01*
Y314634D01*
X315300Y311968D02*
Y313301D01*
X313301Y315967D02*
X317299D01*
Y317967D01*
X316633Y318633D01*
X313967D01*
X313301Y317967D01*
Y315967D01*
X317299Y322632D02*
Y319966D01*
X314633Y322632D01*
X313967D01*
X313301Y321965D01*
Y320632D01*
X313967Y319966D01*
Y323965D02*
X313301Y324631D01*
Y325964D01*
X313967Y326630D01*
X314633D01*
X315300Y325964D01*
Y325297D01*
Y325964D01*
X315966Y326630D01*
X316633D01*
X317299Y325964D01*
Y324631D01*
X316633Y323965D01*
X339001Y308670D02*
X342999D01*
Y311335D01*
X339001Y315334D02*
Y312668D01*
X342999D01*
Y315334D01*
X341000Y312668D02*
Y314001D01*
X339001Y316667D02*
X342999D01*
Y318667D01*
X342333Y319333D01*
X339667D01*
X339001Y318667D01*
Y316667D01*
X342999Y323332D02*
Y320666D01*
X340334Y323332D01*
X339667D01*
X339001Y322665D01*
Y321332D01*
X339667Y320666D01*
X342999Y327330D02*
Y324664D01*
X340334Y327330D01*
X339667D01*
X339001Y326664D01*
Y325331D01*
X339667Y324664D01*
X354001Y310136D02*
X357999D01*
Y312802D01*
X354001Y316801D02*
Y314135D01*
X357999D01*
Y316801D01*
X356000Y314135D02*
Y315468D01*
X354001Y318134D02*
X357999D01*
Y320133D01*
X357333Y320799D01*
X354667D01*
X354001Y320133D01*
Y318134D01*
X357999Y324798D02*
Y322132D01*
X355334Y324798D01*
X354667D01*
X354001Y324132D01*
Y322799D01*
X354667Y322132D01*
X357999Y326131D02*
Y327464D01*
Y326797D01*
X354001D01*
X354667Y326131D01*
X368001Y309270D02*
X371999D01*
Y311935D01*
X368001Y315934D02*
Y313268D01*
X371999D01*
Y315934D01*
X370000Y313268D02*
Y314601D01*
X368001Y317267D02*
X371999D01*
Y319266D01*
X371333Y319933D01*
X368667D01*
X368001Y319266D01*
Y317267D01*
X371999Y323932D02*
Y321266D01*
X369334Y323932D01*
X368667D01*
X368001Y323265D01*
Y321932D01*
X368667Y321266D01*
Y325265D02*
X368001Y325931D01*
Y327264D01*
X368667Y327930D01*
X371333D01*
X371999Y327264D01*
Y325931D01*
X371333Y325265D01*
X368667D01*
X383001Y309603D02*
X386999D01*
Y312269D01*
X383001Y316267D02*
Y313602D01*
X386999D01*
Y316267D01*
X385000Y313602D02*
Y314934D01*
X383001Y317600D02*
X386999D01*
Y319600D01*
X386333Y320266D01*
X383667D01*
X383001Y319600D01*
Y317600D01*
X386999Y321599D02*
Y322932D01*
Y322266D01*
X383001D01*
X383667Y321599D01*
X386333Y324931D02*
X386999Y325598D01*
Y326931D01*
X386333Y327597D01*
X383667D01*
X383001Y326931D01*
Y325598D01*
X383667Y324931D01*
X384334D01*
X385000Y325598D01*
Y327597D01*
X484001Y308503D02*
X487999D01*
Y311169D01*
X484001Y315167D02*
Y312502D01*
X487999D01*
Y315167D01*
X486000Y312502D02*
Y313835D01*
X484001Y316500D02*
X487999D01*
Y318500D01*
X487333Y319166D01*
X484667D01*
X484001Y318500D01*
Y316500D01*
X487999Y320499D02*
Y321832D01*
Y321165D01*
X484001D01*
X484667Y320499D01*
Y323831D02*
X484001Y324498D01*
Y325831D01*
X484667Y326497D01*
X485334D01*
X486000Y325831D01*
X486666Y326497D01*
X487333D01*
X487999Y325831D01*
Y324498D01*
X487333Y323831D01*
X486666D01*
X486000Y324498D01*
X485334Y323831D01*
X484667D01*
X486000Y324498D02*
Y325831D01*
X503001Y309503D02*
X506999D01*
Y312169D01*
X503001Y316167D02*
Y313502D01*
X506999D01*
Y316167D01*
X505000Y313502D02*
Y314834D01*
X503001Y317500D02*
X506999D01*
Y319500D01*
X506333Y320166D01*
X503667D01*
X503001Y319500D01*
Y317500D01*
X506999Y321499D02*
Y322832D01*
Y322165D01*
X503001D01*
X503667Y321499D01*
X503001Y324831D02*
Y327497D01*
X503667D01*
X506333Y324831D01*
X506999D01*
X191001Y310003D02*
X194999D01*
Y312669D01*
X191001Y316667D02*
Y314002D01*
X194999D01*
Y316667D01*
X193000Y314002D02*
Y315335D01*
X191001Y318000D02*
X194999D01*
Y320000D01*
X194333Y320666D01*
X191667D01*
X191001Y320000D01*
Y318000D01*
X194999Y321999D02*
Y323332D01*
Y322666D01*
X191001D01*
X191667Y321999D01*
X191001Y327997D02*
X191667Y326664D01*
X193000Y325331D01*
X194333D01*
X194999Y325998D01*
Y327331D01*
X194333Y327997D01*
X193667D01*
X193000Y327331D01*
Y325331D01*
X176001Y310003D02*
X179999D01*
Y312669D01*
X176001Y316667D02*
Y314002D01*
X179999D01*
Y316667D01*
X178000Y314002D02*
Y315335D01*
X176001Y318000D02*
X179999D01*
Y320000D01*
X179333Y320666D01*
X176667D01*
X176001Y320000D01*
Y318000D01*
X179999Y321999D02*
Y323332D01*
Y322666D01*
X176001D01*
X176667Y321999D01*
X176001Y327997D02*
Y325331D01*
X178000D01*
X177333Y326664D01*
Y327331D01*
X178000Y327997D01*
X179333D01*
X179999Y327331D01*
Y325998D01*
X179333Y325331D01*
X162001Y309353D02*
X165999D01*
Y312019D01*
X162001Y316018D02*
Y313352D01*
X165999D01*
Y316018D01*
X164000Y313352D02*
Y314685D01*
X162001Y317351D02*
X165999D01*
Y319350D01*
X165333Y320017D01*
X162667D01*
X162001Y319350D01*
Y317351D01*
X165999Y321349D02*
Y322682D01*
Y322016D01*
X162001D01*
X162667Y321349D01*
X165999Y326681D02*
X162001D01*
X164000Y324682D01*
Y327347D01*
X75001Y309503D02*
X78999D01*
Y312169D01*
X75001Y316167D02*
Y313502D01*
X78999D01*
Y316167D01*
X77000Y313502D02*
Y314834D01*
X75001Y317500D02*
X78999D01*
Y319500D01*
X78333Y320166D01*
X75667D01*
X75001Y319500D01*
Y317500D01*
X78999Y321499D02*
Y322832D01*
Y322165D01*
X75001D01*
X75667Y321499D01*
Y324831D02*
X75001Y325498D01*
Y326831D01*
X75667Y327497D01*
X76334D01*
X77000Y326831D01*
Y326164D01*
Y326831D01*
X77666Y327497D01*
X78333D01*
X78999Y326831D01*
Y325498D01*
X78333Y324831D01*
X85001Y309503D02*
X88999D01*
Y312169D01*
X85001Y316167D02*
Y313502D01*
X88999D01*
Y316167D01*
X87000Y313502D02*
Y314834D01*
X85001Y317500D02*
X88999D01*
Y319500D01*
X88333Y320166D01*
X85667D01*
X85001Y319500D01*
Y317500D01*
X88999Y321499D02*
Y322832D01*
Y322165D01*
X85001D01*
X85667Y321499D01*
X88999Y327497D02*
Y324831D01*
X86334Y327497D01*
X85667D01*
X85001Y326831D01*
Y325498D01*
X85667Y324831D01*
X95001Y311169D02*
X98999D01*
Y313835D01*
X95001Y317834D02*
Y315168D01*
X98999D01*
Y317834D01*
X97000Y315168D02*
Y316501D01*
X95001Y319167D02*
X98999D01*
Y321166D01*
X98333Y321833D01*
X95667D01*
X95001Y321166D01*
Y319167D01*
X98999Y323165D02*
Y324498D01*
Y323832D01*
X95001D01*
X95667Y323165D01*
X98999Y326498D02*
Y327831D01*
Y327164D01*
X95001D01*
X95667Y326498D01*
X105001Y309503D02*
X108999D01*
Y312169D01*
X105001Y316167D02*
Y313502D01*
X108999D01*
Y316167D01*
X107000Y313502D02*
Y314834D01*
X105001Y317500D02*
X108999D01*
Y319500D01*
X108333Y320166D01*
X105667D01*
X105001Y319500D01*
Y317500D01*
X108999Y321499D02*
Y322832D01*
Y322165D01*
X105001D01*
X105667Y321499D01*
Y324831D02*
X105001Y325498D01*
Y326831D01*
X105667Y327497D01*
X108333D01*
X108999Y326831D01*
Y325498D01*
X108333Y324831D01*
X105667D01*
X115001Y313169D02*
X118999D01*
Y315835D01*
X115001Y319834D02*
Y317168D01*
X118999D01*
Y319834D01*
X117000Y317168D02*
Y318501D01*
X115001Y321166D02*
X118999D01*
Y323166D01*
X118333Y323832D01*
X115667D01*
X115001Y323166D01*
Y321166D01*
X118333Y325165D02*
X118999Y325832D01*
Y327165D01*
X118333Y327831D01*
X115667D01*
X115001Y327165D01*
Y325832D01*
X115667Y325165D01*
X116333D01*
X117000Y325832D01*
Y327831D01*
X125001Y312169D02*
X128999D01*
Y314835D01*
X125001Y318834D02*
Y316168D01*
X128999D01*
Y318834D01*
X127000Y316168D02*
Y317501D01*
X125001Y320166D02*
X128999D01*
Y322166D01*
X128333Y322832D01*
X125667D01*
X125001Y322166D01*
Y320166D01*
X125667Y324165D02*
X125001Y324832D01*
Y326165D01*
X125667Y326831D01*
X126333D01*
X127000Y326165D01*
X127666Y326831D01*
X128333D01*
X128999Y326165D01*
Y324832D01*
X128333Y324165D01*
X127666D01*
X127000Y324832D01*
X126333Y324165D01*
X125667D01*
X127000Y324832D02*
Y326165D01*
X135001Y313169D02*
X138999D01*
Y315835D01*
X135001Y319834D02*
Y317168D01*
X138999D01*
Y319834D01*
X137000Y317168D02*
Y318501D01*
X135001Y321166D02*
X138999D01*
Y323166D01*
X138333Y323832D01*
X135667D01*
X135001Y323166D01*
Y321166D01*
Y325165D02*
Y327831D01*
X135667D01*
X138333Y325165D01*
X138999D01*
X145001Y313169D02*
X148999D01*
Y315835D01*
X145001Y319834D02*
Y317168D01*
X148999D01*
Y319834D01*
X147000Y317168D02*
Y318501D01*
X145001Y321166D02*
X148999D01*
Y323166D01*
X148333Y323832D01*
X145667D01*
X145001Y323166D01*
Y321166D01*
Y327831D02*
X145667Y326498D01*
X147000Y325165D01*
X148333D01*
X148999Y325832D01*
Y327165D01*
X148333Y327831D01*
X147667D01*
X147000Y327165D01*
Y325165D01*
X219001Y313169D02*
X222999D01*
Y315835D01*
X219001Y319834D02*
Y317168D01*
X222999D01*
Y319834D01*
X221000Y317168D02*
Y318501D01*
X219001Y321166D02*
X222999D01*
Y323166D01*
X222333Y323832D01*
X219667D01*
X219001Y323166D01*
Y321166D01*
Y327831D02*
Y325165D01*
X221000D01*
X220334Y326498D01*
Y327165D01*
X221000Y327831D01*
X222333D01*
X222999Y327165D01*
Y325832D01*
X222333Y325165D01*
X271001Y313169D02*
X274999D01*
Y315835D01*
X271001Y319834D02*
Y317168D01*
X274999D01*
Y319834D01*
X273000Y317168D02*
Y318501D01*
X271001Y321166D02*
X274999D01*
Y323166D01*
X274333Y323832D01*
X271667D01*
X271001Y323166D01*
Y321166D01*
X274999Y327165D02*
X271001D01*
X273000Y325165D01*
Y327831D01*
X255001Y313319D02*
X258999D01*
Y315985D01*
X255001Y319983D02*
Y317317D01*
X258999D01*
Y319983D01*
X257000Y317317D02*
Y318650D01*
X255001Y321316D02*
X258999D01*
Y323315D01*
X258333Y323982D01*
X255667D01*
X255001Y323315D01*
Y321316D01*
X255667Y325315D02*
X255001Y325981D01*
Y327314D01*
X255667Y327981D01*
X256334D01*
X257000Y327314D01*
Y326648D01*
Y327314D01*
X257666Y327981D01*
X258333D01*
X258999Y327314D01*
Y325981D01*
X258333Y325315D01*
X239001Y313169D02*
X242999D01*
Y315835D01*
X239001Y319834D02*
Y317168D01*
X242999D01*
Y319834D01*
X241000Y317168D02*
Y318501D01*
X239001Y321166D02*
X242999D01*
Y323166D01*
X242333Y323832D01*
X239667D01*
X239001Y323166D01*
Y321166D01*
X242999Y327831D02*
Y325165D01*
X240334Y327831D01*
X239667D01*
X239001Y327165D01*
Y325832D01*
X239667Y325165D01*
X207001Y314335D02*
X210999D01*
Y317001D01*
X207001Y321000D02*
Y318334D01*
X210999D01*
Y321000D01*
X209000Y318334D02*
Y319667D01*
X207001Y322333D02*
X210999D01*
Y324332D01*
X210333Y324999D01*
X207667D01*
X207001Y324332D01*
Y322333D01*
X210999Y326332D02*
Y327664D01*
Y326998D01*
X207001D01*
X207667Y326332D01*
X170516Y177648D02*
X171849D01*
X171182D01*
Y173650D01*
X170516D01*
X171849D01*
X176514Y176982D02*
X175848Y177648D01*
X174515D01*
X173848Y176982D01*
Y174316D01*
X174515Y173650D01*
X175848D01*
X176514Y174316D01*
X177847Y173650D02*
X179180D01*
X178513D01*
Y177648D01*
X177847Y176982D01*
X525668Y307999D02*
Y304001D01*
Y306000D01*
X528334D01*
Y307999D01*
Y304001D01*
X529667Y307333D02*
X530333Y307999D01*
X531666D01*
X532332Y307333D01*
Y306666D01*
X531666Y306000D01*
X530999D01*
X531666D01*
X532332Y305334D01*
Y304667D01*
X531666Y304001D01*
X530333D01*
X529667Y304667D01*
X224668Y230999D02*
Y227001D01*
Y229000D01*
X227334D01*
Y230999D01*
Y227001D01*
X231332D02*
X228666D01*
X231332Y229666D01*
Y230333D01*
X230666Y230999D01*
X229333D01*
X228666Y230333D01*
X8783Y218448D02*
Y214450D01*
Y216449D01*
X11449D01*
Y218448D01*
Y214450D01*
X12782D02*
X14115D01*
X13448D01*
Y218448D01*
X12782Y217782D01*
X499334Y84333D02*
X498668Y84999D01*
X497335D01*
X496668Y84333D01*
Y81667D01*
X497335Y81001D01*
X498668D01*
X499334Y81667D01*
X503333Y81001D02*
X500667D01*
X503333Y83666D01*
Y84333D01*
X502666Y84999D01*
X501334D01*
X500667Y84333D01*
X504666D02*
X505332Y84999D01*
X506665D01*
X507332Y84333D01*
Y83666D01*
X506665Y83000D01*
X505999D01*
X506665D01*
X507332Y82334D01*
Y81667D01*
X506665Y81001D01*
X505332D01*
X504666Y81667D01*
X499334Y184333D02*
X498668Y184999D01*
X497335D01*
X496668Y184333D01*
Y181667D01*
X497335Y181001D01*
X498668D01*
X499334Y181667D01*
X503333Y181001D02*
X500667D01*
X503333Y183667D01*
Y184333D01*
X502666Y184999D01*
X501334D01*
X500667Y184333D01*
X507332Y181001D02*
X504666D01*
X507332Y183667D01*
Y184333D01*
X506665Y184999D01*
X505332D01*
X504666Y184333D01*
X548667Y43001D02*
X548001Y42334D01*
Y41001D01*
X548667Y40335D01*
X551333D01*
X551999Y41001D01*
Y42334D01*
X551333Y43001D01*
X551999Y46999D02*
Y44334D01*
X549334Y46999D01*
X548667D01*
X548001Y46333D01*
Y45000D01*
X548667Y44334D01*
X551999Y48332D02*
Y49665D01*
Y48999D01*
X548001D01*
X548667Y48332D01*
Y143334D02*
X548001Y142668D01*
Y141335D01*
X548667Y140668D01*
X551333D01*
X551999Y141335D01*
Y142668D01*
X551333Y143334D01*
X551999Y147333D02*
Y144667D01*
X549334Y147333D01*
X548667D01*
X548001Y146667D01*
Y145334D01*
X548667Y144667D01*
Y148666D02*
X548001Y149332D01*
Y150665D01*
X548667Y151332D01*
X551333D01*
X551999Y150665D01*
Y149332D01*
X551333Y148666D01*
X548667D01*
X499667Y134333D02*
X499001Y134999D01*
X497668D01*
X497002Y134333D01*
Y131667D01*
X497668Y131001D01*
X499001D01*
X499667Y131667D01*
X501000Y131001D02*
X502333D01*
X501667D01*
Y134999D01*
X501000Y134333D01*
X504333Y131667D02*
X504999Y131001D01*
X506332D01*
X506998Y131667D01*
Y134333D01*
X506332Y134999D01*
X504999D01*
X504333Y134333D01*
Y133667D01*
X504999Y133000D01*
X506998D01*
X499667Y234333D02*
X499001Y234999D01*
X497668D01*
X497002Y234333D01*
Y231667D01*
X497668Y231001D01*
X499001D01*
X499667Y231667D01*
X501000Y231001D02*
X502333D01*
X501667D01*
Y234999D01*
X501000Y234333D01*
X504333D02*
X504999Y234999D01*
X506332D01*
X506998Y234333D01*
Y233666D01*
X506332Y233000D01*
X506998Y232334D01*
Y231667D01*
X506332Y231001D01*
X504999D01*
X504333Y231667D01*
Y232334D01*
X504999Y233000D01*
X504333Y233666D01*
Y234333D01*
X504999Y233000D02*
X506332D01*
X548667Y92667D02*
X548001Y92001D01*
Y90668D01*
X548667Y90002D01*
X551333D01*
X551999Y90668D01*
Y92001D01*
X551333Y92667D01*
X551999Y94000D02*
Y95333D01*
Y94667D01*
X548001D01*
X548667Y94000D01*
X548001Y97333D02*
Y99998D01*
X548667D01*
X551333Y97333D01*
X551999D01*
X547667Y192667D02*
X547001Y192001D01*
Y190668D01*
X547667Y190002D01*
X550333D01*
X550999Y190668D01*
Y192001D01*
X550333Y192667D01*
X550999Y194000D02*
Y195333D01*
Y194667D01*
X547001D01*
X547667Y194000D01*
X547001Y199998D02*
X547667Y198665D01*
X549000Y197333D01*
X550333D01*
X550999Y197999D01*
Y199332D01*
X550333Y199998D01*
X549666D01*
X549000Y199332D01*
Y197333D01*
X127333Y14333D02*
X126667Y14999D01*
X125334D01*
X124668Y14333D01*
Y11667D01*
X125334Y11001D01*
X126667D01*
X127333Y11667D01*
X128666Y14333D02*
X129333Y14999D01*
X130666D01*
X131332Y14333D01*
Y13667D01*
X130666Y13000D01*
X131332Y12333D01*
Y11667D01*
X130666Y11001D01*
X129333D01*
X128666Y11667D01*
Y12333D01*
X129333Y13000D01*
X128666Y13667D01*
Y14333D01*
X129333Y13000D02*
X130666D01*
X127333Y36333D02*
X126667Y36999D01*
X125334D01*
X124668Y36333D01*
Y33667D01*
X125334Y33001D01*
X126667D01*
X127333Y33667D01*
X128666Y36999D02*
X131332D01*
Y36333D01*
X128666Y33667D01*
Y33001D01*
X90667Y21334D02*
X90001Y20667D01*
Y19334D01*
X90667Y18668D01*
X93333D01*
X93999Y19334D01*
Y20667D01*
X93333Y21334D01*
X90001Y25332D02*
X90667Y23999D01*
X92000Y22667D01*
X93333D01*
X93999Y23333D01*
Y24666D01*
X93333Y25332D01*
X92666D01*
X92000Y24666D01*
Y22667D01*
X83667Y21334D02*
X83001Y20667D01*
Y19334D01*
X83667Y18668D01*
X86333D01*
X86999Y19334D01*
Y20667D01*
X86333Y21334D01*
X83001Y25332D02*
Y22667D01*
X85000D01*
X84334Y23999D01*
Y24666D01*
X85000Y25332D01*
X86333D01*
X86999Y24666D01*
Y23333D01*
X86333Y22667D01*
X126333Y45333D02*
X125667Y45999D01*
X124334D01*
X123668Y45333D01*
Y42667D01*
X124334Y42001D01*
X125667D01*
X126333Y42667D01*
X129666Y42001D02*
Y45999D01*
X127666Y44000D01*
X130332D01*
X52667Y25333D02*
X52001Y24667D01*
Y23334D01*
X52667Y22668D01*
X55333D01*
X55999Y23334D01*
Y24667D01*
X55333Y25333D01*
X52667Y26667D02*
X52001Y27333D01*
Y28666D01*
X52667Y29332D01*
X53334D01*
X54000Y28666D01*
Y27999D01*
Y28666D01*
X54666Y29332D01*
X55333D01*
X55999Y28666D01*
Y27333D01*
X55333Y26667D01*
X46667Y25333D02*
X46001Y24667D01*
Y23334D01*
X46667Y22668D01*
X49333D01*
X49999Y23334D01*
Y24667D01*
X49333Y25333D01*
X49999Y29332D02*
Y26667D01*
X47334Y29332D01*
X46667D01*
X46001Y28666D01*
Y27333D01*
X46667Y26667D01*
X129000Y67333D02*
X128333Y67999D01*
X127001D01*
X126334Y67333D01*
Y64667D01*
X127001Y64001D01*
X128333D01*
X129000Y64667D01*
X130333Y64001D02*
X131666D01*
X130999D01*
Y67999D01*
X130333Y67333D01*
X340002Y133999D02*
Y130001D01*
X342001D01*
X342667Y130667D01*
Y131333D01*
X342001Y132000D01*
X340002D01*
X342001D01*
X342667Y132667D01*
Y133333D01*
X342001Y133999D01*
X340002D01*
X344000Y130001D02*
X345333D01*
X344667D01*
Y133999D01*
X344000Y133333D01*
X347333Y133999D02*
X349998D01*
Y133333D01*
X347333Y130667D01*
Y130001D01*
X341002Y213999D02*
Y210001D01*
X343001D01*
X343667Y210667D01*
Y211334D01*
X343001Y212000D01*
X341002D01*
X343001D01*
X343667Y212666D01*
Y213333D01*
X343001Y213999D01*
X341002D01*
X345000Y210001D02*
X346333D01*
X345667D01*
Y213999D01*
X345000Y213333D01*
X350998Y213999D02*
X349665Y213333D01*
X348333Y212000D01*
Y210667D01*
X348999Y210001D01*
X350332D01*
X350998Y210667D01*
Y211334D01*
X350332Y212000D01*
X348333D01*
X340002Y173999D02*
Y170001D01*
X342001D01*
X342667Y170667D01*
Y171334D01*
X342001Y172000D01*
X340002D01*
X342001D01*
X342667Y172667D01*
Y173333D01*
X342001Y173999D01*
X340002D01*
X344000Y170001D02*
X345333D01*
X344667D01*
Y173999D01*
X344000Y173333D01*
X349998Y173999D02*
X347333D01*
Y172000D01*
X348665Y172667D01*
X349332D01*
X349998Y172000D01*
Y170667D01*
X349332Y170001D01*
X347999D01*
X347333Y170667D01*
X341002Y253999D02*
Y250001D01*
X343001D01*
X343667Y250667D01*
Y251334D01*
X343001Y252000D01*
X341002D01*
X343001D01*
X343667Y252666D01*
Y253333D01*
X343001Y253999D01*
X341002D01*
X345000Y250001D02*
X346333D01*
X345667D01*
Y253999D01*
X345000Y253333D01*
X350332Y250001D02*
Y253999D01*
X348333Y252000D01*
X350998D01*
X377002Y41999D02*
Y38001D01*
X379001D01*
X379667Y38667D01*
Y39334D01*
X379001Y40000D01*
X377002D01*
X379001D01*
X379667Y40666D01*
Y41333D01*
X379001Y41999D01*
X377002D01*
X381000Y38001D02*
X382333D01*
X381667D01*
Y41999D01*
X381000Y41333D01*
X384333D02*
X384999Y41999D01*
X386332D01*
X386998Y41333D01*
Y40666D01*
X386332Y40000D01*
X385665D01*
X386332D01*
X386998Y39334D01*
Y38667D01*
X386332Y38001D01*
X384999D01*
X384333Y38667D01*
X277749Y44948D02*
Y40950D01*
X279749D01*
X280415Y41616D01*
Y42283D01*
X279749Y42949D01*
X277749D01*
X279749D01*
X280415Y43615D01*
Y44282D01*
X279749Y44948D01*
X277749D01*
X281748Y40950D02*
X283081D01*
X282414D01*
Y44948D01*
X281748Y44282D01*
X287746Y40950D02*
X285080D01*
X287746Y43615D01*
Y44282D01*
X287080Y44948D01*
X285747D01*
X285080Y44282D01*
X472668Y55999D02*
Y52001D01*
X474667D01*
X475334Y52667D01*
Y53334D01*
X474667Y54000D01*
X472668D01*
X474667D01*
X475334Y54666D01*
Y55333D01*
X474667Y55999D01*
X472668D01*
X476667Y52001D02*
X478000D01*
X477333D01*
Y55999D01*
X476667Y55333D01*
X479999Y52001D02*
X481332D01*
X480665D01*
Y55999D01*
X479999Y55333D01*
X472202Y153499D02*
Y149501D01*
X474201D01*
X474867Y150167D01*
Y150833D01*
X474201Y151500D01*
X472202D01*
X474201D01*
X474867Y152166D01*
Y152833D01*
X474201Y153499D01*
X472202D01*
X476200Y149501D02*
X477533D01*
X476867D01*
Y153499D01*
X476200Y152833D01*
X479533D02*
X480199Y153499D01*
X481532D01*
X482198Y152833D01*
Y150167D01*
X481532Y149501D01*
X480199D01*
X479533Y150167D01*
Y152833D01*
X377668Y84999D02*
Y81001D01*
X379667D01*
X380334Y81667D01*
Y82334D01*
X379667Y83000D01*
X377668D01*
X379667D01*
X380334Y83666D01*
Y84333D01*
X379667Y84999D01*
X377668D01*
X381666Y81667D02*
X382333Y81001D01*
X383666D01*
X384332Y81667D01*
Y84333D01*
X383666Y84999D01*
X382333D01*
X381666Y84333D01*
Y83666D01*
X382333Y83000D01*
X384332D01*
X276916Y87948D02*
Y83950D01*
X278916D01*
X279582Y84616D01*
Y85283D01*
X278916Y85949D01*
X276916D01*
X278916D01*
X279582Y86616D01*
Y87282D01*
X278916Y87948D01*
X276916D01*
X280915Y87282D02*
X281581Y87948D01*
X282914D01*
X283581Y87282D01*
Y86616D01*
X282914Y85949D01*
X283581Y85283D01*
Y84616D01*
X282914Y83950D01*
X281581D01*
X280915Y84616D01*
Y85283D01*
X281581Y85949D01*
X280915Y86616D01*
Y87282D01*
X281581Y85949D02*
X282914D01*
X475868Y103499D02*
Y99501D01*
X477867D01*
X478534Y100167D01*
Y100834D01*
X477867Y101500D01*
X475868D01*
X477867D01*
X478534Y102166D01*
Y102833D01*
X477867Y103499D01*
X475868D01*
X479867D02*
X482532D01*
Y102833D01*
X479867Y100167D01*
Y99501D01*
X476147Y203838D02*
Y199839D01*
X478147D01*
X478813Y200506D01*
Y201172D01*
X478147Y201839D01*
X476147D01*
X478147D01*
X478813Y202505D01*
Y203171D01*
X478147Y203838D01*
X476147D01*
X482812D02*
X481479Y203171D01*
X480146Y201839D01*
Y200506D01*
X480812Y199839D01*
X482145D01*
X482812Y200506D01*
Y201172D01*
X482145Y201839D01*
X480146D01*
X98668Y43999D02*
Y40001D01*
X100667D01*
X101334Y40667D01*
Y41334D01*
X100667Y42000D01*
X98668D01*
X100667D01*
X101334Y42666D01*
Y43333D01*
X100667Y43999D01*
X98668D01*
X105332D02*
X102666D01*
Y42000D01*
X103999Y42666D01*
X104666D01*
X105332Y42000D01*
Y40667D01*
X104666Y40001D01*
X103333D01*
X102666Y40667D01*
X157668Y37999D02*
Y34001D01*
X159667D01*
X160334Y34667D01*
Y35334D01*
X159667Y36000D01*
X157668D01*
X159667D01*
X160334Y36666D01*
Y37333D01*
X159667Y37999D01*
X157668D01*
X163666Y34001D02*
Y37999D01*
X161667Y36000D01*
X164332D01*
X64016Y53048D02*
Y49050D01*
X66015D01*
X66682Y49716D01*
Y50383D01*
X66015Y51049D01*
X64016D01*
X66015D01*
X66682Y51715D01*
Y52382D01*
X66015Y53048D01*
X64016D01*
X68015Y52382D02*
X68681Y53048D01*
X70014D01*
X70681Y52382D01*
Y51715D01*
X70014Y51049D01*
X69348D01*
X70014D01*
X70681Y50383D01*
Y49716D01*
X70014Y49050D01*
X68681D01*
X68015Y49716D01*
X158668Y67999D02*
Y64001D01*
X160667D01*
X161334Y64667D01*
Y65334D01*
X160667Y66000D01*
X158668D01*
X160667D01*
X161334Y66666D01*
Y67333D01*
X160667Y67999D01*
X158668D01*
X165332Y64001D02*
X162666D01*
X165332Y66666D01*
Y67333D01*
X164666Y67999D01*
X163333D01*
X162666Y67333D01*
X159334Y264999D02*
Y261001D01*
X161334D01*
X162000Y261667D01*
Y262334D01*
X161334Y263000D01*
X159334D01*
X161334D01*
X162000Y263666D01*
Y264333D01*
X161334Y264999D01*
X159334D01*
X163333Y261001D02*
X164666D01*
X163999D01*
Y264999D01*
X163333Y264333D01*
D12*
X62406Y43905D02*
X67327D01*
X68705Y32252D02*
Y43748D01*
Y32252D02*
X69295D01*
Y43748D01*
X68705D02*
X69295D01*
X485098Y41083D02*
Y46595D01*
X485294Y47972D02*
X497106D01*
Y57028D01*
X485294D02*
X497106D01*
X485294Y47972D02*
Y57028D01*
X515631Y42661D02*
X540139D01*
X503032Y75339D02*
X540139D01*
X515631Y92661D02*
X540139D01*
X503032Y125339D02*
X540139D01*
X175598Y161402D02*
X200402D01*
Y136598D02*
Y161402D01*
X175598Y136598D02*
X200402D01*
X175598D02*
Y161402D01*
X32480Y303780D02*
X39567D01*
X40945Y275827D02*
Y304173D01*
Y275827D02*
X59055D01*
Y304173D01*
X40945D02*
X59055D01*
X503032Y225339D02*
X540139D01*
X515631Y192661D02*
X540139D01*
X275319Y79158D02*
X281331D01*
X282709Y59346D02*
Y78654D01*
Y59346D02*
X295291D01*
Y78654D01*
X282709D02*
X295291D01*
X275319Y36158D02*
X281331D01*
X282709Y16346D02*
Y35653D01*
Y16346D02*
X295291D01*
Y35653D01*
X282709D02*
X295291D01*
X254000Y205000D02*
Y225000D01*
X224000Y205000D02*
Y225000D01*
X254000D01*
X224000Y205000D02*
X254000D01*
X234833D02*
X254000D01*
X340319Y208157D02*
X346331D01*
X347709Y188347D02*
Y207653D01*
Y188347D02*
X360291D01*
Y207653D01*
X347709D02*
X360291D01*
X158583Y61905D02*
X164094D01*
X165472Y50094D02*
Y61905D01*
Y50094D02*
X174528D01*
Y61905D01*
X165472D02*
X174528D01*
X503032Y175339D02*
X540139D01*
X515631Y142661D02*
X540139D01*
X377319Y36158D02*
X383331D01*
X384709Y16346D02*
Y35653D01*
Y16346D02*
X397291D01*
Y35653D01*
X384709D02*
X397291D01*
X157583Y31905D02*
X163094D01*
X164472Y20095D02*
Y31905D01*
Y20095D02*
X173528D01*
Y31905D01*
X164472D02*
X173528D01*
X104705Y37748D02*
X105295D01*
Y26252D02*
Y37748D01*
X104705Y26252D02*
X105295D01*
X104705D02*
Y37748D01*
X98405Y37905D02*
X103327D01*
X340319Y128157D02*
X346331D01*
X347709Y108346D02*
Y127654D01*
Y108346D02*
X360291D01*
Y127654D01*
X347709D02*
X360291D01*
X159472Y257906D02*
X168528D01*
Y246094D02*
Y257906D01*
X159472Y246094D02*
X168528D01*
X159472D02*
Y257906D01*
X152583Y258102D02*
X158095D01*
X485294Y197972D02*
Y207028D01*
X497106D01*
Y197972D02*
Y207028D01*
X485294Y197972D02*
X497106D01*
X485098Y191083D02*
Y196595D01*
X485294Y147972D02*
Y157028D01*
X497106D01*
Y147972D02*
Y157028D01*
X485294Y147972D02*
X497106D01*
X485098Y141083D02*
Y146595D01*
X525000Y253000D02*
X545000D01*
X525000Y295000D02*
X545000D01*
X525000Y253000D02*
Y295000D01*
X545000Y253000D02*
Y295000D01*
X340319Y248158D02*
X346331D01*
X347709Y228346D02*
Y247654D01*
Y228346D02*
X360291D01*
Y247654D01*
X347709D02*
X360291D01*
X377319Y79158D02*
X383331D01*
X384709Y59346D02*
Y78654D01*
Y59346D02*
X397291D01*
Y78654D01*
X384709D02*
X397291D01*
X340319Y168157D02*
X346331D01*
X347709Y148346D02*
Y167654D01*
Y148346D02*
X360291D01*
Y167654D01*
X347709D02*
X360291D01*
X485294Y97972D02*
Y107028D01*
X497106D01*
Y97972D02*
Y107028D01*
X485294Y97972D02*
X497106D01*
X485098Y91083D02*
Y96595D01*
X238531Y286941D02*
X244339D01*
X245717Y267158D02*
Y286842D01*
Y267158D02*
X260283D01*
Y286842D01*
X245717D02*
X260283D01*
D13*
X50500Y39300D02*
Y43400D01*
X45500D02*
X50500D01*
X45500Y39200D02*
Y43400D01*
Y32600D02*
Y36700D01*
Y32600D02*
X50500D01*
Y36700D01*
X52500Y52600D02*
Y56700D01*
Y52600D02*
X57500D01*
Y56800D01*
Y59300D02*
Y63400D01*
X52500D02*
X57500D01*
X52500Y59300D02*
Y63400D01*
X57500Y39300D02*
Y43400D01*
X52500D02*
X57500D01*
X52500Y39200D02*
Y43400D01*
Y32600D02*
Y36700D01*
Y32600D02*
X57500D01*
Y36700D01*
X473300Y76500D02*
X477400D01*
Y71500D02*
Y76500D01*
X473300Y71500D02*
X477400D01*
X466600D02*
X470800D01*
X466600D02*
Y76500D01*
X470700D01*
X229600Y144500D02*
X233700D01*
X229600D02*
Y149500D01*
X233700D01*
X236200D02*
X240400D01*
Y144500D02*
Y149500D01*
X236300Y144500D02*
X240400D01*
X229600Y150500D02*
X233700D01*
X229600D02*
Y155500D01*
X233700D01*
X236200D02*
X240400D01*
Y150500D02*
Y155500D01*
X236300Y150500D02*
X240400D01*
X229600Y156500D02*
X233700D01*
X229600D02*
Y161500D01*
X233700D01*
X236200D02*
X240400D01*
Y156500D02*
Y161500D01*
X236300Y156500D02*
X240400D01*
X229600Y138500D02*
X233700D01*
X229600D02*
Y143500D01*
X233700D01*
X236200D02*
X240400D01*
Y138500D02*
Y143500D01*
X236300Y138500D02*
X240400D01*
X229600Y126500D02*
X233700D01*
X229600D02*
Y131500D01*
X233700D01*
X236200D02*
X240400D01*
Y126500D02*
Y131500D01*
X236300Y126500D02*
X240400D01*
X61300Y142500D02*
X65400D01*
Y137500D02*
Y142500D01*
X61300Y137500D02*
X65400D01*
X54600D02*
X58800D01*
X54600D02*
Y142500D01*
X58700D01*
X61300Y182500D02*
X65400D01*
Y177500D02*
Y182500D01*
X61300Y177500D02*
X65400D01*
X54600D02*
X58800D01*
X54600D02*
Y182500D01*
X58700D01*
X200500Y115300D02*
Y119400D01*
X205500D01*
Y115300D02*
Y119400D01*
Y108600D02*
Y112800D01*
X200500Y108600D02*
X205500D01*
X200500D02*
Y112700D01*
X197300Y49500D02*
X201400D01*
Y44500D02*
Y49500D01*
X197300Y44500D02*
X201400D01*
X190600D02*
X194800D01*
X190600D02*
Y49500D01*
X194700D01*
X140300Y29500D02*
X144400D01*
Y24500D02*
Y29500D01*
X140300Y24500D02*
X144400D01*
X133600D02*
X137800D01*
X133600D02*
Y29500D01*
X137700D01*
X469600Y34500D02*
X473700D01*
X469600D02*
Y39500D01*
X473700D01*
X476200D02*
X480400D01*
Y34500D02*
Y39500D01*
X476300Y34500D02*
X480400D01*
X257600Y62500D02*
X261700D01*
X257600D02*
Y67500D01*
X261700D01*
X264200D02*
X268400D01*
Y62500D02*
Y67500D01*
X264300Y62500D02*
X268400D01*
X257600Y74500D02*
X261700D01*
X257600D02*
Y79500D01*
X261700D01*
X264200D02*
X268400D01*
Y74500D02*
Y79500D01*
X264300Y74500D02*
X268400D01*
X476300Y120500D02*
X480400D01*
Y115500D02*
Y120500D01*
X476300Y115500D02*
X480400D01*
X469600D02*
X473800D01*
X469600D02*
Y120500D01*
X473700D01*
X229600Y162500D02*
X233700D01*
X229600D02*
Y167500D01*
X233700D01*
X236200D02*
X240400D01*
Y162500D02*
Y167500D01*
X236300Y162500D02*
X240400D01*
X257600Y25500D02*
X261700D01*
X257600D02*
Y30500D01*
X261700D01*
X264200D02*
X268400D01*
Y25500D02*
Y30500D01*
X264300Y25500D02*
X268400D01*
X133500Y261300D02*
Y265400D01*
X138500D01*
Y261300D02*
Y265400D01*
Y254600D02*
Y258800D01*
X133500Y254600D02*
X138500D01*
X133500D02*
Y258700D01*
X138500Y238600D02*
Y242700D01*
X133500Y238600D02*
X138500D01*
X133500D02*
Y242700D01*
Y245200D02*
Y249400D01*
X138500D01*
Y245300D02*
Y249400D01*
X507750Y257500D02*
X511850D01*
X507750D02*
Y262500D01*
X511850D01*
X514350D02*
X518550D01*
Y257500D02*
Y262500D01*
X514450Y257500D02*
X518550D01*
X136600Y159500D02*
X140700D01*
X136600D02*
Y164500D01*
X140700D01*
X143200D02*
X147400D01*
Y159500D02*
Y164500D01*
X143300Y159500D02*
X147400D01*
X360600Y74500D02*
X364700D01*
X360600D02*
Y79500D01*
X364700D01*
X367200D02*
X371400D01*
Y74500D02*
Y79500D01*
X367300Y74500D02*
X371400D01*
X317600Y157500D02*
X321700D01*
X317600D02*
Y162500D01*
X321700D01*
X324200D02*
X328400D01*
Y157500D02*
Y162500D01*
X324300Y157500D02*
X328400D01*
X136600Y123500D02*
X140700D01*
X136600D02*
Y128500D01*
X140700D01*
X143200D02*
X147400D01*
Y123500D02*
Y128500D01*
X143300Y123500D02*
X147400D01*
X476300Y145500D02*
X480400D01*
Y140500D02*
Y145500D01*
X476300Y140500D02*
X480400D01*
X469600D02*
X473800D01*
X469600D02*
Y145500D01*
X473700D01*
X408600Y70500D02*
X412700D01*
X408600D02*
Y75500D01*
X412700D01*
X415200D02*
X419400D01*
Y70500D02*
Y75500D01*
X415300Y70500D02*
X419400D01*
X360600Y68500D02*
X364700D01*
X360600D02*
Y73500D01*
X364700D01*
X367200D02*
X371400D01*
Y68500D02*
Y73500D01*
X367300Y68500D02*
X371400D01*
X383300Y233500D02*
X387400D01*
Y228500D02*
Y233500D01*
X383300Y228500D02*
X387400D01*
X376600D02*
X380800D01*
X376600D02*
Y233500D01*
X380700D01*
X145500Y254600D02*
Y258700D01*
X140500Y254600D02*
X145500D01*
X140500D02*
Y258700D01*
Y261200D02*
Y265400D01*
X145500D01*
Y261300D02*
Y265400D01*
X197300Y67500D02*
X201400D01*
Y62500D02*
Y67500D01*
X197300Y62500D02*
X201400D01*
X190600D02*
X194800D01*
X190600D02*
Y67500D01*
X194700D01*
X473300Y70500D02*
X477400D01*
Y65500D02*
Y70500D01*
X473300Y65500D02*
X477400D01*
X466600D02*
X470800D01*
X466600D02*
Y70500D01*
X470700D01*
X136600Y141500D02*
X140700D01*
X136600D02*
Y146500D01*
X140700D01*
X143200D02*
X147400D01*
Y141500D02*
Y146500D01*
X143300Y141500D02*
X147400D01*
X476300Y176500D02*
X480400D01*
Y171500D02*
Y176500D01*
X476300Y171500D02*
X480400D01*
X469600D02*
X473800D01*
X469600D02*
Y176500D01*
X473700D01*
X476300Y226500D02*
X480400D01*
Y221500D02*
Y226500D01*
X476300Y221500D02*
X480400D01*
X469600D02*
X473800D01*
X469600D02*
Y226500D01*
X473700D01*
X317600Y242500D02*
X321700D01*
X317600D02*
Y247500D01*
X321700D01*
X324200D02*
X328400D01*
Y242500D02*
Y247500D01*
X324300Y242500D02*
X328400D01*
X257600Y68500D02*
X261700D01*
X257600D02*
Y73500D01*
X261700D01*
X264200D02*
X268400D01*
Y68500D02*
Y73500D01*
X264300Y68500D02*
X268400D01*
X408600Y26500D02*
X412700D01*
X408600D02*
Y31500D01*
X412700D01*
X415200D02*
X419400D01*
Y26500D02*
Y31500D01*
X415300Y26500D02*
X419400D01*
X317600Y163500D02*
X321700D01*
X317600D02*
Y168500D01*
X321700D01*
X324200D02*
X328400D01*
Y163500D02*
Y168500D01*
X324300Y163500D02*
X328400D01*
X408600Y64500D02*
X412700D01*
X408600D02*
Y69500D01*
X412700D01*
X415200D02*
X419400D01*
Y64500D02*
Y69500D01*
X415300Y64500D02*
X419400D01*
X529300Y135500D02*
X533400D01*
Y130500D02*
Y135500D01*
X529300Y130500D02*
X533400D01*
X522600D02*
X526800D01*
X522600D02*
Y135500D01*
X526700D01*
X197300Y55500D02*
X201400D01*
Y50500D02*
Y55500D01*
X197300Y50500D02*
X201400D01*
X190600D02*
X194800D01*
X190600D02*
Y55500D01*
X194700D01*
X360600Y31500D02*
X364700D01*
X360600D02*
Y36500D01*
X364700D01*
X367200D02*
X371400D01*
Y31500D02*
Y36500D01*
X367300Y31500D02*
X371400D01*
X317600Y236500D02*
X321700D01*
X317600D02*
Y241500D01*
X321700D01*
X324200D02*
X328400D01*
Y236500D02*
Y241500D01*
X324300Y236500D02*
X328400D01*
X136600Y147500D02*
X140700D01*
X136600D02*
Y152500D01*
X140700D01*
X143200D02*
X147400D01*
Y147500D02*
Y152500D01*
X143300Y147500D02*
X147400D01*
X360600Y62500D02*
X364700D01*
X360600D02*
Y67500D01*
X364700D01*
X367200D02*
X371400D01*
Y62500D02*
Y67500D01*
X367300Y62500D02*
X371400D01*
X507750Y287500D02*
X511850D01*
X507750D02*
Y292500D01*
X511850D01*
X514350D02*
X518550D01*
Y287500D02*
Y292500D01*
X514450Y287500D02*
X518550D01*
X197300Y23500D02*
X201400D01*
Y18500D02*
Y23500D01*
X197300Y18500D02*
X201400D01*
X190600D02*
X194800D01*
X190600D02*
Y23500D01*
X194700D01*
X469600Y134500D02*
X473700D01*
X469600D02*
Y139500D01*
X473700D01*
X476200D02*
X480400D01*
Y134500D02*
Y139500D01*
X476300Y134500D02*
X480400D01*
X197300Y61500D02*
X201400D01*
Y56500D02*
Y61500D01*
X197300Y56500D02*
X201400D01*
X190600D02*
X194800D01*
X190600D02*
Y61500D01*
X194700D01*
X309600Y20500D02*
X313700D01*
X309600D02*
Y25500D01*
X313700D01*
X316200D02*
X320400D01*
Y20500D02*
Y25500D01*
X316300Y20500D02*
X320400D01*
X206500Y115300D02*
Y119400D01*
X211500D01*
Y115300D02*
Y119400D01*
Y108600D02*
Y112800D01*
X206500Y108600D02*
X211500D01*
X206500D02*
Y112700D01*
X360600Y19500D02*
X364700D01*
X360600D02*
Y24500D01*
X364700D01*
X367200D02*
X371400D01*
Y19500D02*
Y24500D01*
X367300Y19500D02*
X371400D01*
X166500Y108600D02*
Y112700D01*
X161500Y108600D02*
X166500D01*
X161500D02*
Y112700D01*
Y115200D02*
Y119400D01*
X166500D01*
Y115300D02*
Y119400D01*
Y190300D02*
Y194400D01*
X171500D01*
Y190300D02*
Y194400D01*
Y183600D02*
Y187800D01*
X166500Y183600D02*
X171500D01*
X166500D02*
Y187700D01*
X89500Y53300D02*
Y57400D01*
X94500D01*
Y53300D02*
Y57400D01*
Y46600D02*
Y50800D01*
X89500Y46600D02*
X94500D01*
X89500D02*
Y50700D01*
X309600Y26500D02*
X313700D01*
X309600D02*
Y31500D01*
X313700D01*
X316200D02*
X320400D01*
Y26500D02*
Y31500D01*
X316300Y26500D02*
X320400D01*
X529300Y185500D02*
X533400D01*
Y180500D02*
Y185500D01*
X529300Y180500D02*
X533400D01*
X522600D02*
X526800D01*
X522600D02*
Y185500D01*
X526700D01*
X507750Y277500D02*
X511850D01*
X507750D02*
Y282500D01*
X511850D01*
X514350D02*
X518550D01*
Y277500D02*
Y282500D01*
X514450Y277500D02*
X518550D01*
X136600Y153500D02*
X140700D01*
X136600D02*
Y158500D01*
X140700D01*
X143200D02*
X147400D01*
Y153500D02*
Y158500D01*
X143300Y153500D02*
X147400D01*
X476300Y220500D02*
X480400D01*
Y215500D02*
Y220500D01*
X476300Y215500D02*
X480400D01*
X469600D02*
X473800D01*
X469600D02*
Y220500D01*
X473700D01*
X408600Y20500D02*
X412700D01*
X408600D02*
Y25500D01*
X412700D01*
X415200D02*
X419400D01*
Y20500D02*
Y25500D01*
X415300Y20500D02*
X419400D01*
X211500Y184450D02*
Y188550D01*
X206500Y184450D02*
X211500D01*
X206500D02*
Y188550D01*
Y191050D02*
Y195250D01*
X211500D01*
Y191150D02*
Y195250D01*
X140500Y245300D02*
Y249400D01*
X145500D01*
Y245300D02*
Y249400D01*
Y238600D02*
Y242800D01*
X140500Y238600D02*
X145500D01*
X140500D02*
Y242700D01*
X176500Y115300D02*
Y119400D01*
X181500D01*
Y115300D02*
Y119400D01*
Y108600D02*
Y112800D01*
X176500Y108600D02*
X181500D01*
X176500D02*
Y112700D01*
X476300Y170500D02*
X480400D01*
Y165500D02*
Y170500D01*
X476300Y165500D02*
X480400D01*
X469600D02*
X473800D01*
X469600D02*
Y170500D01*
X473700D01*
X507750Y267500D02*
X511850D01*
X507750D02*
Y272500D01*
X511850D01*
X514350D02*
X518550D01*
Y267500D02*
Y272500D01*
X514450Y267500D02*
X518550D01*
X217500Y184600D02*
Y188700D01*
X212500Y184600D02*
X217500D01*
X212500D02*
Y188700D01*
Y191200D02*
Y195400D01*
X217500D01*
Y191300D02*
Y195400D01*
X182500Y115300D02*
Y119400D01*
X187500D01*
Y115300D02*
Y119400D01*
Y108600D02*
Y112800D01*
X182500Y108600D02*
X187500D01*
X182500D02*
Y112700D01*
X469600Y184500D02*
X473700D01*
X469600D02*
Y189500D01*
X473700D01*
X476200D02*
X480400D01*
Y184500D02*
Y189500D01*
X476300Y184500D02*
X480400D01*
X376600Y240500D02*
X380700D01*
X376600D02*
Y245500D01*
X380700D01*
X383200D02*
X387400D01*
Y240500D02*
Y245500D01*
X383300Y240500D02*
X387400D01*
X140300Y60500D02*
X144400D01*
Y55500D02*
Y60500D01*
X140300Y55500D02*
X144400D01*
X133600D02*
X137800D01*
X133600D02*
Y60500D01*
X137700D01*
X140300Y23500D02*
X144400D01*
Y18500D02*
Y23500D01*
X140300Y18500D02*
X144400D01*
X133600D02*
X137800D01*
X133600D02*
Y23500D01*
X137700D01*
X136600Y135500D02*
X140700D01*
X136600D02*
Y140500D01*
X140700D01*
X143200D02*
X147400D01*
Y135500D02*
Y140500D01*
X143300Y135500D02*
X147400D01*
X136600Y165500D02*
X140700D01*
X136600D02*
Y170500D01*
X140700D01*
X143200D02*
X147400D01*
Y165500D02*
Y170500D01*
X143300Y165500D02*
X147400D01*
X257600Y31500D02*
X261700D01*
X257600D02*
Y36500D01*
X261700D01*
X264200D02*
X268400D01*
Y31500D02*
Y36500D01*
X264300Y31500D02*
X268400D01*
X469600Y84500D02*
X473700D01*
X469600D02*
Y89500D01*
X473700D01*
X476200D02*
X480400D01*
Y84500D02*
Y89500D01*
X476300Y84500D02*
X480400D01*
X197300Y29500D02*
X201400D01*
Y24500D02*
Y29500D01*
X197300Y24500D02*
X201400D01*
X190600D02*
X194800D01*
X190600D02*
Y29500D01*
X194700D01*
X257600Y19500D02*
X261700D01*
X257600D02*
Y24500D01*
X261700D01*
X264200D02*
X268400D01*
Y19500D02*
Y24500D01*
X264300Y19500D02*
X268400D01*
X194500Y115300D02*
Y119400D01*
X199500D01*
Y115300D02*
Y119400D01*
Y108600D02*
Y112800D01*
X194500Y108600D02*
X199500D01*
X194500D02*
Y112700D01*
X309600Y69500D02*
X313700D01*
X309600D02*
Y74500D01*
X313700D01*
X316200D02*
X320400D01*
Y69500D02*
Y74500D01*
X316300Y69500D02*
X320400D01*
X476300Y126500D02*
X480400D01*
Y121500D02*
Y126500D01*
X476300Y121500D02*
X480400D01*
X469600D02*
X473800D01*
X469600D02*
Y126500D01*
X473700D01*
X197300Y35500D02*
X201400D01*
Y30500D02*
Y35500D01*
X197300Y30500D02*
X201400D01*
X190600D02*
X194800D01*
X190600D02*
Y35500D01*
X194700D01*
X476300Y95500D02*
X480400D01*
Y90500D02*
Y95500D01*
X476300Y90500D02*
X480400D01*
X469600D02*
X473800D01*
X469600D02*
Y95500D01*
X473700D01*
X140300Y54500D02*
X144400D01*
Y49500D02*
Y54500D01*
X140300Y49500D02*
X144400D01*
X133600D02*
X137800D01*
X133600D02*
Y54500D01*
X137700D01*
X476300Y195500D02*
X480400D01*
Y190500D02*
Y195500D01*
X476300Y190500D02*
X480400D01*
X469600D02*
X473800D01*
X469600D02*
Y195500D01*
X473700D01*
X529300Y85500D02*
X533400D01*
Y80500D02*
Y85500D01*
X529300Y80500D02*
X533400D01*
X522600D02*
X526800D01*
X522600D02*
Y85500D01*
X526700D01*
X197300Y17500D02*
X201400D01*
Y12500D02*
Y17500D01*
X197300Y12500D02*
X201400D01*
X190600D02*
X194800D01*
X190600D02*
Y17500D01*
X194700D01*
X360600Y25500D02*
X364700D01*
X360600D02*
Y30500D01*
X364700D01*
X367200D02*
X371400D01*
Y25500D02*
Y30500D01*
X367300Y25500D02*
X371400D01*
X188500Y115300D02*
Y119400D01*
X193500D01*
Y115300D02*
Y119400D01*
Y108600D02*
Y112800D01*
X188500Y108600D02*
X193500D01*
X188500D02*
Y112700D01*
X529300Y235500D02*
X533400D01*
Y230500D02*
Y235500D01*
X529300Y230500D02*
X533400D01*
X522600D02*
X526800D01*
X522600D02*
Y235500D01*
X526700D01*
X136600Y129500D02*
X140700D01*
X136600D02*
Y134500D01*
X140700D01*
X143200D02*
X147400D01*
Y129500D02*
Y134500D01*
X143300Y129500D02*
X147400D01*
X309600Y63500D02*
X313700D01*
X309600D02*
Y68500D01*
X313700D01*
X316200D02*
X320400D01*
Y63500D02*
Y68500D01*
X316300Y63500D02*
X320400D01*
X476300Y45500D02*
X480400D01*
Y40500D02*
Y45500D01*
X476300Y40500D02*
X480400D01*
X469600D02*
X473800D01*
X469600D02*
Y45500D01*
X473700D01*
X133600Y32500D02*
X137700D01*
X133600D02*
Y37500D01*
X137700D01*
X140200D02*
X144400D01*
Y32500D02*
Y37500D01*
X140300Y32500D02*
X144400D01*
X133600Y10500D02*
X137700D01*
X133600D02*
Y15500D01*
X137700D01*
X140200D02*
X144400D01*
Y10500D02*
Y15500D01*
X140300Y10500D02*
X144400D01*
X241500Y189600D02*
Y193700D01*
X236500Y189600D02*
X241500D01*
X236500D02*
Y193700D01*
Y196200D02*
Y200400D01*
X241500D01*
Y196300D02*
Y200400D01*
X205500Y184600D02*
Y188700D01*
X200500Y184600D02*
X205500D01*
X200500D02*
Y188700D01*
Y191200D02*
Y195400D01*
X205500D01*
Y191300D02*
Y195400D01*
X508600Y80500D02*
X512700D01*
X508600D02*
Y85500D01*
X512700D01*
X515200D02*
X519400D01*
Y80500D02*
Y85500D01*
X515300Y80500D02*
X519400D01*
X133600Y41500D02*
X137700D01*
X133600D02*
Y46500D01*
X137700D01*
X140200D02*
X144400D01*
Y41500D02*
Y46500D01*
X140300Y41500D02*
X144400D01*
X61300Y172500D02*
X65400D01*
Y167500D02*
Y172500D01*
X61300Y167500D02*
X65400D01*
X54600D02*
X58800D01*
X54600D02*
Y172500D01*
X58700D01*
X61300Y152500D02*
X65400D01*
Y147500D02*
Y152500D01*
X61300Y147500D02*
X65400D01*
X54600D02*
X58800D01*
X54600D02*
Y152500D01*
X58700D01*
X508600Y130500D02*
X512700D01*
X508600D02*
Y135500D01*
X512700D01*
X515200D02*
X519400D01*
Y130500D02*
Y135500D01*
X515300Y130500D02*
X519400D01*
X61300Y132500D02*
X65400D01*
Y127500D02*
Y132500D01*
X61300Y127500D02*
X65400D01*
X54600D02*
X58800D01*
X54600D02*
Y132500D01*
X58700D01*
X84600Y162500D02*
X88700D01*
X84600D02*
Y167500D01*
X88700D01*
X91200D02*
X95400D01*
Y162500D02*
Y167500D01*
X91300Y162500D02*
X95400D01*
X84600Y152500D02*
X88700D01*
X84600D02*
Y157500D01*
X88700D01*
X91200D02*
X95400D01*
Y152500D02*
Y157500D01*
X91300Y152500D02*
X95400D01*
X84600Y142500D02*
X88700D01*
X84600D02*
Y147500D01*
X88700D01*
X91200D02*
X95400D01*
Y142500D02*
Y147500D01*
X91300Y142500D02*
X95400D01*
X231500Y189600D02*
Y193700D01*
X226500Y189600D02*
X231500D01*
X226500D02*
Y193700D01*
Y196200D02*
Y200400D01*
X231500D01*
Y196300D02*
Y200400D01*
X178500Y190150D02*
Y194250D01*
X183500D01*
Y190150D02*
Y194250D01*
Y183450D02*
Y187650D01*
X178500Y183450D02*
X183500D01*
X178500D02*
Y187550D01*
X172500Y190300D02*
Y194400D01*
X177500D01*
Y190300D02*
Y194400D01*
Y183600D02*
Y187800D01*
X172500Y183600D02*
X177500D01*
X172500D02*
Y187700D01*
X84600Y132500D02*
X88700D01*
X84600D02*
Y137500D01*
X88700D01*
X91200D02*
X95400D01*
Y132500D02*
Y137500D01*
X91300Y132500D02*
X95400D01*
X61300Y192500D02*
X65400D01*
Y187500D02*
Y192500D01*
X61300Y187500D02*
X65400D01*
X54600D02*
X58800D01*
X54600D02*
Y192500D01*
X58700D01*
X508600Y230500D02*
X512700D01*
X508600D02*
Y235500D01*
X512700D01*
X515200D02*
X519400D01*
Y230500D02*
Y235500D01*
X515300Y230500D02*
X519400D01*
X508600Y180500D02*
X512700D01*
X508600D02*
Y185500D01*
X512700D01*
X515200D02*
X519400D01*
Y180500D02*
Y185500D01*
X515300Y180500D02*
X519400D01*
X241500Y230450D02*
Y234550D01*
X236500Y230450D02*
X241500D01*
X236500D02*
Y234550D01*
Y237050D02*
Y241250D01*
X241500D01*
Y237150D02*
Y241250D01*
X251500Y189600D02*
Y193700D01*
X246500Y189600D02*
X251500D01*
X246500D02*
Y193700D01*
Y196200D02*
Y200400D01*
X251500D01*
Y196300D02*
Y200400D01*
X87500Y26600D02*
Y30700D01*
X82500Y26600D02*
X87500D01*
X82500D02*
Y30700D01*
Y33200D02*
Y37400D01*
X87500D01*
Y33300D02*
Y37400D01*
X133600Y63500D02*
X137700D01*
X133600D02*
Y68500D01*
X137700D01*
X140200D02*
X144400D01*
Y63500D02*
Y68500D01*
X140300Y63500D02*
X144400D01*
X61300Y162500D02*
X65400D01*
Y157500D02*
Y162500D01*
X61300Y157500D02*
X65400D01*
X54600D02*
X58800D01*
X54600D02*
Y162500D01*
X58700D01*
X61300Y122500D02*
X65400D01*
Y117500D02*
Y122500D01*
X61300Y117500D02*
X65400D01*
X54600D02*
X58800D01*
X54600D02*
Y122500D01*
X58700D01*
X94500Y26600D02*
Y30700D01*
X89500Y26600D02*
X94500D01*
X89500D02*
Y30700D01*
Y33200D02*
Y37400D01*
X94500D01*
Y33300D02*
Y37400D01*
X376600Y118500D02*
X380700D01*
X376600D02*
Y123500D01*
X380700D01*
X383200D02*
X387400D01*
Y118500D02*
Y123500D01*
X383300Y118500D02*
X387400D01*
X376600Y158500D02*
X380700D01*
X376600D02*
Y163500D01*
X380700D01*
X383200D02*
X387400D01*
Y158500D02*
Y163500D01*
X383300Y158500D02*
X387400D01*
X383300Y117500D02*
X387400D01*
Y112500D02*
Y117500D01*
X383300Y112500D02*
X387400D01*
X376600D02*
X380800D01*
X376600D02*
Y117500D01*
X380700D01*
X383300Y151500D02*
X387400D01*
Y146500D02*
Y151500D01*
X383300Y146500D02*
X387400D01*
X376600D02*
X380800D01*
X376600D02*
Y151500D01*
X380700D01*
X317600Y203500D02*
X321700D01*
X317600D02*
Y208500D01*
X321700D01*
X324200D02*
X328400D01*
Y203500D02*
Y208500D01*
X324300Y203500D02*
X328400D01*
X324300Y196500D02*
X328400D01*
Y191500D02*
Y196500D01*
X324300Y191500D02*
X328400D01*
X317600D02*
X321800D01*
X317600D02*
Y196500D01*
X321700D01*
X317600Y116500D02*
X321700D01*
X317600D02*
Y121500D01*
X321700D01*
X324200D02*
X328400D01*
Y116500D02*
Y121500D01*
X324300Y116500D02*
X328400D01*
X324300Y115500D02*
X328400D01*
Y110500D02*
Y115500D01*
X324300Y110500D02*
X328400D01*
X317600D02*
X321800D01*
X317600D02*
Y115500D01*
X321700D01*
X286300Y289500D02*
X290400D01*
Y284500D02*
Y289500D01*
X286300Y284500D02*
X290400D01*
X279600D02*
X283800D01*
X279600D02*
Y289500D01*
X283700D01*
X383300Y111500D02*
X387400D01*
Y106500D02*
Y111500D01*
X383300Y106500D02*
X387400D01*
X376600D02*
X380800D01*
X376600D02*
Y111500D01*
X380700D01*
X286300Y268500D02*
X290400D01*
Y263500D02*
Y268500D01*
X286300Y263500D02*
X290400D01*
X279600D02*
X283800D01*
X279600D02*
Y268500D01*
X283700D01*
X166500Y295600D02*
Y299700D01*
X161500Y295600D02*
X166500D01*
X161500D02*
Y299700D01*
Y302200D02*
Y306400D01*
X166500D01*
Y302300D02*
Y306400D01*
X195500Y295600D02*
Y299700D01*
X190500Y295600D02*
X195500D01*
X190500D02*
Y299700D01*
Y302200D02*
Y306400D01*
X195500D01*
Y302300D02*
Y306400D01*
X214600Y281500D02*
X218700D01*
X214600D02*
Y286500D01*
X218700D01*
X221200D02*
X225400D01*
Y281500D02*
Y286500D01*
X221300Y281500D02*
X225400D01*
X180500Y295600D02*
Y299700D01*
X175500Y295600D02*
X180500D01*
X175500D02*
Y299700D01*
Y302200D02*
Y306400D01*
X180500D01*
Y302300D02*
Y306400D01*
X376600Y198500D02*
X380700D01*
X376600D02*
Y203500D01*
X380700D01*
X383200D02*
X387400D01*
Y198500D02*
Y203500D01*
X383300Y198500D02*
X387400D01*
X383300Y197500D02*
X387400D01*
Y192500D02*
Y197500D01*
X383300Y192500D02*
X387400D01*
X376600D02*
X380800D01*
X376600D02*
Y197500D01*
X380700D01*
X324300Y235500D02*
X328400D01*
Y230500D02*
Y235500D01*
X324300Y230500D02*
X328400D01*
X317600D02*
X321800D01*
X317600D02*
Y235500D01*
X321700D01*
X286300Y275500D02*
X290400D01*
Y270500D02*
Y275500D01*
X286300Y270500D02*
X290400D01*
X279600D02*
X283800D01*
X279600D02*
Y275500D01*
X283700D01*
X324300Y156500D02*
X328400D01*
Y151500D02*
Y156500D01*
X324300Y151500D02*
X328400D01*
X317600D02*
X321800D01*
X317600D02*
Y156500D01*
X321700D01*
X383300Y191500D02*
X387400D01*
Y186500D02*
Y191500D01*
X383300Y186500D02*
X387400D01*
X376600D02*
X380800D01*
X376600D02*
Y191500D01*
X380700D01*
X214600Y271500D02*
X218700D01*
X214600D02*
Y276500D01*
X218700D01*
X221200D02*
X225400D01*
Y271500D02*
Y276500D01*
X221300Y271500D02*
X225400D01*
X317600Y197500D02*
X321700D01*
X317600D02*
Y202500D01*
X321700D01*
X324200D02*
X328400D01*
Y197500D02*
Y202500D01*
X324300Y197500D02*
X328400D01*
X317600Y122500D02*
X321700D01*
X317600D02*
Y127500D01*
X321700D01*
X324200D02*
X328400D01*
Y122500D02*
Y127500D01*
X324300Y122500D02*
X328400D01*
X383300Y239500D02*
X387400D01*
Y234500D02*
Y239500D01*
X383300Y234500D02*
X387400D01*
X376600D02*
X380800D01*
X376600D02*
Y239500D01*
X380700D01*
X279600Y277500D02*
X283700D01*
X279600D02*
Y282500D01*
X283700D01*
X286200D02*
X290400D01*
Y277500D02*
Y282500D01*
X286300Y277500D02*
X290400D01*
X383300Y157500D02*
X387400D01*
Y152500D02*
Y157500D01*
X383300Y152500D02*
X387400D01*
X376600D02*
X380800D01*
X376600D02*
Y157500D01*
X380700D01*
D14*
X258666Y222999D02*
X257333Y222332D01*
X256000Y220999D01*
Y219666D01*
X256666Y219000D01*
X257999D01*
X258666Y219666D01*
Y220333D01*
X257999Y220999D01*
X256000D01*
X258666Y213999D02*
X256000D01*
Y211999D01*
X257333Y212666D01*
X257999D01*
X258666Y211999D01*
Y210666D01*
X257999Y210000D01*
X256666D01*
X256000Y210666D01*
X221666Y218000D02*
X219000D01*
X221666Y220666D01*
Y221332D01*
X220999Y221999D01*
X219666D01*
X219000Y221332D01*
X221000Y208000D02*
X222333D01*
X221666D01*
Y211999D01*
X221000Y211332D01*
X542666Y297000D02*
X540000D01*
X542666Y299666D01*
Y300332D01*
X541999Y300999D01*
X540666D01*
X540000Y300332D01*
X530000Y297000D02*
X531333D01*
X530666D01*
Y300999D01*
X530000Y300332D01*
X529000Y250999D02*
X531666D01*
Y250332D01*
X529000Y247666D01*
Y247000D01*
X540000Y250332D02*
X540666Y250999D01*
X541999D01*
X542666Y250332D01*
Y249666D01*
X541999Y248999D01*
X542666Y248333D01*
Y247666D01*
X541999Y247000D01*
X540666D01*
X540000Y247666D01*
Y248333D01*
X540666Y248999D01*
X540000Y249666D01*
Y250332D01*
X540666Y248999D02*
X541999D01*
M02*
