G04*
G04 #@! TF.GenerationSoftware,Altium Limited,Altium Designer,22.3.1 (43)*
G04*
G04 Layer_Color=255*
%FSLAX25Y25*%
%MOIN*%
G70*
G04*
G04 #@! TF.SameCoordinates,D3354991-DD5C-4E6D-8F59-54D9BE61E837*
G04*
G04*
G04 #@! TF.FilePolarity,Positive*
G04*
G01*
G75*
%ADD16R,0.03740X0.03150*%
%ADD18R,0.03150X0.03740*%
%ADD48C,0.20000*%
%ADD49R,0.05906X0.05906*%
%ADD50C,0.06000*%
%ADD51R,0.06000X0.06000*%
%ADD52C,0.05906*%
%ADD53R,0.05906X0.05906*%
D16*
X486000Y334350D02*
D03*
Y340650D02*
D03*
X504000D02*
D03*
Y334350D02*
D03*
X466000Y340650D02*
D03*
Y334350D02*
D03*
X446000Y340650D02*
D03*
Y334350D02*
D03*
X417000Y340650D02*
D03*
Y334350D02*
D03*
X402000Y340650D02*
D03*
Y334350D02*
D03*
X432000Y340650D02*
D03*
Y334350D02*
D03*
X385000Y340650D02*
D03*
Y334350D02*
D03*
X370000Y340650D02*
D03*
Y334350D02*
D03*
X356000Y340650D02*
D03*
Y334350D02*
D03*
X341000Y340650D02*
D03*
Y334350D02*
D03*
X316000Y340650D02*
D03*
Y334350D02*
D03*
X295000Y340650D02*
D03*
Y334350D02*
D03*
X257000D02*
D03*
Y340650D02*
D03*
X273000Y334350D02*
D03*
Y340650D02*
D03*
X241000Y334350D02*
D03*
Y340650D02*
D03*
X209000Y334350D02*
D03*
Y340650D02*
D03*
X221000Y334350D02*
D03*
Y340650D02*
D03*
X193000Y334350D02*
D03*
Y340650D02*
D03*
X178000Y334350D02*
D03*
Y340650D02*
D03*
X164000Y334350D02*
D03*
Y340650D02*
D03*
X147000Y334350D02*
D03*
Y340650D02*
D03*
X137000Y334350D02*
D03*
Y340650D02*
D03*
X127000Y334350D02*
D03*
Y340650D02*
D03*
X117000Y334350D02*
D03*
Y340650D02*
D03*
X107000Y334350D02*
D03*
Y340650D02*
D03*
X97000Y334350D02*
D03*
Y340650D02*
D03*
X87000Y334350D02*
D03*
Y340650D02*
D03*
X77000Y334350D02*
D03*
Y340650D02*
D03*
D18*
X197299Y146000D02*
D03*
X191000D02*
D03*
X197150Y152000D02*
D03*
X190850D02*
D03*
X178701Y146000D02*
D03*
X185000D02*
D03*
X178850Y152000D02*
D03*
X185150D02*
D03*
X197150Y140000D02*
D03*
X190850D02*
D03*
X178850Y140000D02*
D03*
X185150D02*
D03*
D48*
X20000Y380000D02*
D03*
X540000Y20000D02*
D03*
X20000D02*
D03*
X540000Y380000D02*
D03*
D49*
X408000Y212000D02*
D03*
X229000Y210000D02*
D03*
X317000Y268000D02*
D03*
X462000Y152000D02*
D03*
X521000Y341000D02*
D03*
X295000Y224000D02*
D03*
X250000Y239000D02*
D03*
X448000Y152000D02*
D03*
X462000Y202000D02*
D03*
X448000Y102000D02*
D03*
X266000Y192000D02*
D03*
X448000Y52000D02*
D03*
X317000Y287000D02*
D03*
X278000Y192000D02*
D03*
X448000Y124000D02*
D03*
X295000Y184000D02*
D03*
X448000Y223000D02*
D03*
X462000Y52000D02*
D03*
Y102000D02*
D03*
X408000Y172000D02*
D03*
X448000Y174000D02*
D03*
X408000Y131000D02*
D03*
X448000Y74000D02*
D03*
X408000Y252000D02*
D03*
X295000Y104000D02*
D03*
X448000Y202000D02*
D03*
X295000Y146000D02*
D03*
D50*
X20000Y180000D02*
D03*
X30000Y190000D02*
D03*
X20000Y170000D02*
D03*
Y160000D02*
D03*
Y150000D02*
D03*
Y140000D02*
D03*
Y130000D02*
D03*
Y120000D02*
D03*
X30000Y180000D02*
D03*
Y170000D02*
D03*
Y160000D02*
D03*
Y150000D02*
D03*
Y140000D02*
D03*
Y130000D02*
D03*
Y120000D02*
D03*
D51*
X20000Y190000D02*
D03*
D52*
X229000Y220000D02*
D03*
X239000Y210000D02*
D03*
Y220000D02*
D03*
X249000Y210000D02*
D03*
Y220000D02*
D03*
X540000Y290000D02*
D03*
X530000Y280000D02*
D03*
X540000D02*
D03*
X530000Y270000D02*
D03*
X540000D02*
D03*
X530000Y260000D02*
D03*
X540000D02*
D03*
D53*
X530000Y290000D02*
D03*
M02*
