G04*
G04 #@! TF.GenerationSoftware,Altium Limited,Altium Designer,22.3.1 (43)*
G04*
G04 Layer_Color=32896*
%FSLAX25Y25*%
%MOIN*%
G70*
G04*
G04 #@! TF.SameCoordinates,D3354991-DD5C-4E6D-8F59-54D9BE61E837*
G04*
G04*
G04 #@! TF.FilePolarity,Positive*
G04*
G01*
G75*
%ADD63C,0.00197*%
D63*
X61421Y31032D02*
Y44969D01*
Y31032D02*
X76579D01*
Y44969D01*
X61421D02*
X76579D01*
X45047Y32291D02*
Y43709D01*
X50953D01*
Y32291D02*
Y43709D01*
X45047Y32291D02*
X50953D01*
X57953Y52291D02*
Y63709D01*
X52047Y52291D02*
X57953D01*
X52047D02*
Y63709D01*
X57953D01*
X52047Y32291D02*
Y43709D01*
X57953D01*
Y32291D02*
Y43709D01*
X52047Y32291D02*
X57953D01*
X484113Y40098D02*
X498287D01*
Y64902D01*
X484113D02*
X498287D01*
X484113Y40098D02*
Y64902D01*
X477709Y71047D02*
Y76953D01*
X466291D02*
X477709D01*
X466291Y71047D02*
Y76953D01*
Y71047D02*
X477709D01*
X501064Y40299D02*
Y77701D01*
Y40299D02*
X546536D01*
Y77701D01*
X501064D02*
X546536D01*
X501064Y90299D02*
Y127701D01*
Y90299D02*
X546536D01*
Y127701D01*
X501064D02*
X546536D01*
X488953Y331791D02*
Y343209D01*
X483047D02*
X488953D01*
X483047Y331791D02*
Y343209D01*
Y331791D02*
X488953D01*
X501047D02*
Y343209D01*
Y331791D02*
X506953D01*
Y343209D01*
X501047D02*
X506953D01*
X463047Y331791D02*
Y343209D01*
Y331791D02*
X468953D01*
Y343209D01*
X463047D02*
X468953D01*
X443047Y331791D02*
Y343209D01*
Y331791D02*
X448953D01*
Y343209D01*
X443047D02*
X448953D01*
X414047Y331791D02*
Y343209D01*
Y331791D02*
X419953D01*
Y343209D01*
X414047D02*
X419953D01*
X399047Y331791D02*
Y343209D01*
Y331791D02*
X404953D01*
Y343209D01*
X399047D02*
X404953D01*
X429047Y331791D02*
Y343209D01*
Y331791D02*
X434953D01*
Y343209D01*
X429047D02*
X434953D01*
X382047Y331791D02*
Y343209D01*
Y331791D02*
X387953D01*
Y343209D01*
X382047D02*
X387953D01*
X367047Y331791D02*
Y343209D01*
Y331791D02*
X372953D01*
Y343209D01*
X367047D02*
X372953D01*
X353047Y331791D02*
Y343209D01*
Y331791D02*
X358953D01*
Y343209D01*
X353047D02*
X358953D01*
X338047Y331791D02*
Y343209D01*
Y331791D02*
X343953D01*
Y343209D01*
X338047D02*
X343953D01*
X313047Y331791D02*
Y343209D01*
Y331791D02*
X318953D01*
Y343209D01*
X313047D02*
X318953D01*
X292047Y331791D02*
Y343209D01*
Y331791D02*
X297953D01*
Y343209D01*
X292047D02*
X297953D01*
X254047D02*
X259953D01*
Y331791D02*
Y343209D01*
X254047Y331791D02*
X259953D01*
X254047D02*
Y343209D01*
X270047D02*
X275953D01*
Y331791D02*
Y343209D01*
X270047Y331791D02*
X275953D01*
X270047D02*
Y343209D01*
X238047D02*
X243953D01*
Y331791D02*
Y343209D01*
X238047Y331791D02*
X243953D01*
X238047D02*
Y343209D01*
X206047D02*
X211953D01*
Y331791D02*
Y343209D01*
X206047Y331791D02*
X211953D01*
X206047D02*
Y343209D01*
X218047D02*
X223953D01*
Y331791D02*
Y343209D01*
X218047Y331791D02*
X223953D01*
X218047D02*
Y343209D01*
X190047D02*
X195953D01*
Y331791D02*
Y343209D01*
X190047Y331791D02*
X195953D01*
X190047D02*
Y343209D01*
X175047D02*
X180953D01*
Y331791D02*
Y343209D01*
X175047Y331791D02*
X180953D01*
X175047D02*
Y343209D01*
X161047D02*
X166953D01*
Y331791D02*
Y343209D01*
X161047Y331791D02*
X166953D01*
X161047D02*
Y343209D01*
X188441Y143047D02*
Y148953D01*
X199858D01*
Y143047D02*
Y148953D01*
X188441Y143047D02*
X199858D01*
X188291Y149047D02*
Y154953D01*
X199709D01*
Y149047D02*
Y154953D01*
X188291Y149047D02*
X199709D01*
X187559Y143047D02*
Y148953D01*
X176142Y143047D02*
X187559D01*
X176142D02*
Y148953D01*
X187559D01*
X187709Y149047D02*
Y154953D01*
X176291Y149047D02*
X187709D01*
X176291D02*
Y154953D01*
X187709D01*
X188291Y137047D02*
Y142953D01*
X199709D01*
Y137047D02*
Y142953D01*
X188291Y137047D02*
X199709D01*
X187709Y137047D02*
Y142953D01*
X176291Y137047D02*
X187709D01*
X176291D02*
Y142953D01*
X187709D01*
X229291Y144047D02*
Y149953D01*
Y144047D02*
X240709D01*
Y149953D01*
X229291D02*
X240709D01*
X229291Y150047D02*
Y155953D01*
Y150047D02*
X240709D01*
Y155953D01*
X229291D02*
X240709D01*
X229291Y156047D02*
Y161953D01*
Y156047D02*
X240709D01*
Y161953D01*
X229291D02*
X240709D01*
X229291Y138047D02*
Y143953D01*
Y138047D02*
X240709D01*
Y143953D01*
X229291D02*
X240709D01*
X229291Y126047D02*
Y131953D01*
Y126047D02*
X240709D01*
Y131953D01*
X229291D02*
X240709D01*
X65709Y137047D02*
Y142953D01*
X54291D02*
X65709D01*
X54291Y137047D02*
Y142953D01*
Y137047D02*
X65709D01*
Y177047D02*
Y182953D01*
X54291D02*
X65709D01*
X54291Y177047D02*
Y182953D01*
Y177047D02*
X65709D01*
X144047Y343209D02*
X149953D01*
Y331791D02*
Y343209D01*
X144047Y331791D02*
X149953D01*
X144047D02*
Y343209D01*
X134047D02*
X139953D01*
Y331791D02*
Y343209D01*
X134047Y331791D02*
X139953D01*
X134047D02*
Y343209D01*
X124047D02*
X129953D01*
Y331791D02*
Y343209D01*
X124047Y331791D02*
X129953D01*
X124047D02*
Y343209D01*
X114047D02*
X119953D01*
Y331791D02*
Y343209D01*
X114047Y331791D02*
X119953D01*
X114047D02*
Y343209D01*
X104047D02*
X109953D01*
Y331791D02*
Y343209D01*
X104047Y331791D02*
X109953D01*
X104047D02*
Y343209D01*
X94047D02*
X99953D01*
Y331791D02*
Y343209D01*
X94047Y331791D02*
X99953D01*
X94047D02*
Y343209D01*
X84047D02*
X89953D01*
Y331791D02*
Y343209D01*
X84047Y331791D02*
X89953D01*
X84047D02*
Y343209D01*
X74047D02*
X79953D01*
Y331791D02*
Y343209D01*
X74047Y331791D02*
X79953D01*
X74047D02*
Y343209D01*
X200047Y119709D02*
X205953D01*
X200047Y108291D02*
Y119709D01*
Y108291D02*
X205953D01*
Y119709D01*
X201709Y44047D02*
Y49953D01*
X190291D02*
X201709D01*
X190291Y44047D02*
Y49953D01*
Y44047D02*
X201709D01*
X144709Y24047D02*
Y29953D01*
X133291D02*
X144709D01*
X133291Y24047D02*
Y29953D01*
Y24047D02*
X144709D01*
X469291Y34047D02*
Y39953D01*
Y34047D02*
X480709D01*
Y39953D01*
X469291D02*
X480709D01*
X257291Y62047D02*
Y67953D01*
Y62047D02*
X268709D01*
Y67953D01*
X257291D02*
X268709D01*
X257291Y74047D02*
Y79953D01*
Y74047D02*
X268709D01*
Y79953D01*
X257291D02*
X268709D01*
X480709Y115047D02*
Y120953D01*
X469291D02*
X480709D01*
X469291Y115047D02*
Y120953D01*
Y115047D02*
X480709D01*
X229291Y162047D02*
Y167953D01*
Y162047D02*
X240709D01*
Y167953D01*
X229291D02*
X240709D01*
X257291Y25047D02*
Y30953D01*
Y25047D02*
X268709D01*
Y30953D01*
X257291D02*
X268709D01*
X133047Y265709D02*
X138953D01*
X133047Y254291D02*
Y265709D01*
Y254291D02*
X138953D01*
Y265709D01*
X133047Y238291D02*
X138953D01*
Y249709D01*
X133047D02*
X138953D01*
X133047Y238291D02*
Y249709D01*
X507441Y257047D02*
Y262953D01*
Y257047D02*
X518858D01*
Y262953D01*
X507441D02*
X518858D01*
X136291Y159047D02*
Y164953D01*
Y159047D02*
X147709D01*
Y164953D01*
X136291D02*
X147709D01*
X360291Y74047D02*
Y79953D01*
Y74047D02*
X371709D01*
Y79953D01*
X360291D02*
X371709D01*
X317291Y157047D02*
Y162953D01*
Y157047D02*
X328709D01*
Y162953D01*
X317291D02*
X328709D01*
X136291Y123047D02*
Y128953D01*
Y123047D02*
X147709D01*
Y128953D01*
X136291D02*
X147709D01*
X480709Y140047D02*
Y145953D01*
X469291D02*
X480709D01*
X469291Y140047D02*
Y145953D01*
Y140047D02*
X480709D01*
X408291Y70047D02*
Y75953D01*
Y70047D02*
X419709D01*
Y75953D01*
X408291D02*
X419709D01*
X360291Y68047D02*
Y73953D01*
Y68047D02*
X371709D01*
Y73953D01*
X360291D02*
X371709D01*
X387709Y228047D02*
Y233953D01*
X376291D02*
X387709D01*
X376291Y228047D02*
Y233953D01*
Y228047D02*
X387709D01*
X140047Y254291D02*
X145953D01*
Y265709D01*
X140047D02*
X145953D01*
X140047Y254291D02*
Y265709D01*
X201709Y62047D02*
Y67953D01*
X190291D02*
X201709D01*
X190291Y62047D02*
Y67953D01*
Y62047D02*
X201709D01*
X477709Y65047D02*
Y70953D01*
X466291D02*
X477709D01*
X466291Y65047D02*
Y70953D01*
Y65047D02*
X477709D01*
X136291Y141047D02*
Y146953D01*
Y141047D02*
X147709D01*
Y146953D01*
X136291D02*
X147709D01*
X480709Y171047D02*
Y176953D01*
X469291D02*
X480709D01*
X469291Y171047D02*
Y176953D01*
Y171047D02*
X480709D01*
Y221047D02*
Y226953D01*
X469291D02*
X480709D01*
X469291Y221047D02*
Y226953D01*
Y221047D02*
X480709D01*
X317291Y242047D02*
Y247953D01*
Y242047D02*
X328709D01*
Y247953D01*
X317291D02*
X328709D01*
X257291Y68047D02*
Y73953D01*
Y68047D02*
X268709D01*
Y73953D01*
X257291D02*
X268709D01*
X408291Y26047D02*
Y31953D01*
Y26047D02*
X419709D01*
Y31953D01*
X408291D02*
X419709D01*
X317291Y163047D02*
Y168953D01*
Y163047D02*
X328709D01*
Y168953D01*
X317291D02*
X328709D01*
X408291Y64047D02*
Y69953D01*
Y64047D02*
X419709D01*
Y69953D01*
X408291D02*
X419709D01*
X533709Y130047D02*
Y135953D01*
X522291D02*
X533709D01*
X522291Y130047D02*
Y135953D01*
Y130047D02*
X533709D01*
X201709Y50047D02*
Y55953D01*
X190291D02*
X201709D01*
X190291Y50047D02*
Y55953D01*
Y50047D02*
X201709D01*
X360291Y31047D02*
Y36953D01*
Y31047D02*
X371709D01*
Y36953D01*
X360291D02*
X371709D01*
X317291Y236047D02*
Y241953D01*
Y236047D02*
X328709D01*
Y241953D01*
X317291D02*
X328709D01*
X136291Y147047D02*
Y152953D01*
Y147047D02*
X147709D01*
Y152953D01*
X136291D02*
X147709D01*
X360291Y62047D02*
Y67953D01*
Y62047D02*
X371709D01*
Y67953D01*
X360291D02*
X371709D01*
X507441Y287047D02*
Y292953D01*
Y287047D02*
X518858D01*
Y292953D01*
X507441D02*
X518858D01*
X201709Y18047D02*
Y23953D01*
X190291D02*
X201709D01*
X190291Y18047D02*
Y23953D01*
Y18047D02*
X201709D01*
X469291Y134047D02*
Y139953D01*
Y134047D02*
X480709D01*
Y139953D01*
X469291D02*
X480709D01*
X201709Y56047D02*
Y61953D01*
X190291D02*
X201709D01*
X190291Y56047D02*
Y61953D01*
Y56047D02*
X201709D01*
X309291Y20047D02*
Y25953D01*
Y20047D02*
X320709D01*
Y25953D01*
X309291D02*
X320709D01*
X206047Y119709D02*
X211953D01*
X206047Y108291D02*
Y119709D01*
Y108291D02*
X211953D01*
Y119709D01*
X360291Y19047D02*
Y24953D01*
Y19047D02*
X371709D01*
Y24953D01*
X360291D02*
X371709D01*
X161047Y108291D02*
X166953D01*
Y119709D01*
X161047D02*
X166953D01*
X161047Y108291D02*
Y119709D01*
X166047Y194709D02*
X171953D01*
X166047Y183291D02*
Y194709D01*
Y183291D02*
X171953D01*
Y194709D01*
X89047Y57709D02*
X94953D01*
X89047Y46291D02*
Y57709D01*
Y46291D02*
X94953D01*
Y57709D01*
X309291Y26047D02*
Y31953D01*
Y26047D02*
X320709D01*
Y31953D01*
X309291D02*
X320709D01*
X533709Y180047D02*
Y185953D01*
X522291D02*
X533709D01*
X522291Y180047D02*
Y185953D01*
Y180047D02*
X533709D01*
X507441Y277047D02*
Y282953D01*
Y277047D02*
X518858D01*
Y282953D01*
X507441D02*
X518858D01*
X136291Y153047D02*
Y158953D01*
Y153047D02*
X147709D01*
Y158953D01*
X136291D02*
X147709D01*
X480709Y215047D02*
Y220953D01*
X469291D02*
X480709D01*
X469291Y215047D02*
Y220953D01*
Y215047D02*
X480709D01*
X408291Y20047D02*
Y25953D01*
Y20047D02*
X419709D01*
Y25953D01*
X408291D02*
X419709D01*
X206047Y184142D02*
X211953D01*
Y195559D01*
X206047D02*
X211953D01*
X206047Y184142D02*
Y195559D01*
X140047Y249709D02*
X145953D01*
X140047Y238291D02*
Y249709D01*
Y238291D02*
X145953D01*
Y249709D01*
X176047Y119709D02*
X181953D01*
X176047Y108291D02*
Y119709D01*
Y108291D02*
X181953D01*
Y119709D01*
X480709Y165047D02*
Y170953D01*
X469291D02*
X480709D01*
X469291Y165047D02*
Y170953D01*
Y165047D02*
X480709D01*
X507441Y267047D02*
Y272953D01*
Y267047D02*
X518858D01*
Y272953D01*
X507441D02*
X518858D01*
X212047Y184291D02*
X217953D01*
Y195709D01*
X212047D02*
X217953D01*
X212047Y184291D02*
Y195709D01*
X182047Y119709D02*
X187953D01*
X182047Y108291D02*
Y119709D01*
Y108291D02*
X187953D01*
Y119709D01*
X469291Y184047D02*
Y189953D01*
Y184047D02*
X480709D01*
Y189953D01*
X469291D02*
X480709D01*
X376291Y240047D02*
Y245953D01*
Y240047D02*
X387709D01*
Y245953D01*
X376291D02*
X387709D01*
X144709Y55047D02*
Y60953D01*
X133291D02*
X144709D01*
X133291Y55047D02*
Y60953D01*
Y55047D02*
X144709D01*
Y18047D02*
Y23953D01*
X133291D02*
X144709D01*
X133291Y18047D02*
Y23953D01*
Y18047D02*
X144709D01*
X136291Y135047D02*
Y140953D01*
Y135047D02*
X147709D01*
Y140953D01*
X136291D02*
X147709D01*
X136291Y165047D02*
Y170953D01*
Y165047D02*
X147709D01*
Y170953D01*
X136291D02*
X147709D01*
X257291Y31047D02*
Y36953D01*
Y31047D02*
X268709D01*
Y36953D01*
X257291D02*
X268709D01*
X469291Y84047D02*
Y89953D01*
Y84047D02*
X480709D01*
Y89953D01*
X469291D02*
X480709D01*
X201709Y24047D02*
Y29953D01*
X190291D02*
X201709D01*
X190291Y24047D02*
Y29953D01*
Y24047D02*
X201709D01*
X257291Y19047D02*
Y24953D01*
Y19047D02*
X268709D01*
Y24953D01*
X257291D02*
X268709D01*
X194047Y119709D02*
X199953D01*
X194047Y108291D02*
Y119709D01*
Y108291D02*
X199953D01*
Y119709D01*
X309291Y69047D02*
Y74953D01*
Y69047D02*
X320709D01*
Y74953D01*
X309291D02*
X320709D01*
X480709Y121047D02*
Y126953D01*
X469291D02*
X480709D01*
X469291Y121047D02*
Y126953D01*
Y121047D02*
X480709D01*
X201709Y30047D02*
Y35953D01*
X190291D02*
X201709D01*
X190291Y30047D02*
Y35953D01*
Y30047D02*
X201709D01*
X480709Y90047D02*
Y95953D01*
X469291D02*
X480709D01*
X469291Y90047D02*
Y95953D01*
Y90047D02*
X480709D01*
X144709Y49047D02*
Y54953D01*
X133291D02*
X144709D01*
X133291Y49047D02*
Y54953D01*
Y49047D02*
X144709D01*
X480709Y190047D02*
Y195953D01*
X469291D02*
X480709D01*
X469291Y190047D02*
Y195953D01*
Y190047D02*
X480709D01*
X533709Y80047D02*
Y85953D01*
X522291D02*
X533709D01*
X522291Y80047D02*
Y85953D01*
Y80047D02*
X533709D01*
X201709Y12047D02*
Y17953D01*
X190291D02*
X201709D01*
X190291Y12047D02*
Y17953D01*
Y12047D02*
X201709D01*
X360291Y25047D02*
Y30953D01*
Y25047D02*
X371709D01*
Y30953D01*
X360291D02*
X371709D01*
X188047Y119709D02*
X193953D01*
X188047Y108291D02*
Y119709D01*
Y108291D02*
X193953D01*
Y119709D01*
X533709Y230047D02*
Y235953D01*
X522291D02*
X533709D01*
X522291Y230047D02*
Y235953D01*
Y230047D02*
X533709D01*
X136291Y129047D02*
Y134953D01*
Y129047D02*
X147709D01*
Y134953D01*
X136291D02*
X147709D01*
X309291Y63047D02*
Y68953D01*
Y63047D02*
X320709D01*
Y68953D01*
X309291D02*
X320709D01*
X480709Y40047D02*
Y45953D01*
X469291D02*
X480709D01*
X469291Y40047D02*
Y45953D01*
Y40047D02*
X480709D01*
X31496Y274252D02*
Y305748D01*
Y274252D02*
X68504D01*
Y305748D01*
X31496D02*
X68504D01*
X133291Y32047D02*
Y37953D01*
Y32047D02*
X144709D01*
Y37953D01*
X133291D02*
X144709D01*
X501064Y227701D02*
X546536D01*
Y190299D02*
Y227701D01*
X501064Y190299D02*
X546536D01*
X501064D02*
Y227701D01*
X133291Y10047D02*
Y15953D01*
Y10047D02*
X144709D01*
Y15953D01*
X133291D02*
X144709D01*
X236047Y189291D02*
X241953D01*
Y200709D01*
X236047D02*
X241953D01*
X236047Y189291D02*
Y200709D01*
X200047Y184291D02*
X205953D01*
Y195709D01*
X200047D02*
X205953D01*
X200047Y184291D02*
Y195709D01*
X508291Y80047D02*
Y85953D01*
Y80047D02*
X519709D01*
Y85953D01*
X508291D02*
X519709D01*
X133291Y41047D02*
Y46953D01*
Y41047D02*
X144709D01*
Y46953D01*
X133291D02*
X144709D01*
X65709Y167047D02*
Y172953D01*
X54291D02*
X65709D01*
X54291Y167047D02*
Y172953D01*
Y167047D02*
X65709D01*
Y147047D02*
Y152953D01*
X54291D02*
X65709D01*
X54291Y147047D02*
Y152953D01*
Y147047D02*
X65709D01*
X508291Y130047D02*
Y135953D01*
Y130047D02*
X519709D01*
Y135953D01*
X508291D02*
X519709D01*
X65709Y127047D02*
Y132953D01*
X54291D02*
X65709D01*
X54291Y127047D02*
Y132953D01*
Y127047D02*
X65709D01*
X84291Y162047D02*
Y167953D01*
Y162047D02*
X95709D01*
Y167953D01*
X84291D02*
X95709D01*
X84291Y152047D02*
Y157953D01*
Y152047D02*
X95709D01*
Y157953D01*
X84291D02*
X95709D01*
X84291Y142047D02*
Y147953D01*
Y142047D02*
X95709D01*
Y147953D01*
X84291D02*
X95709D01*
X226047Y189291D02*
X231953D01*
Y200709D01*
X226047D02*
X231953D01*
X226047Y189291D02*
Y200709D01*
X178047Y194559D02*
X183953D01*
X178047Y183142D02*
Y194559D01*
Y183142D02*
X183953D01*
Y194559D01*
X172047Y194709D02*
X177953D01*
X172047Y183291D02*
Y194709D01*
Y183291D02*
X177953D01*
Y194709D01*
X84291Y132047D02*
Y137953D01*
Y132047D02*
X95709D01*
Y137953D01*
X84291D02*
X95709D01*
X157598Y48913D02*
Y63087D01*
Y48913D02*
X182402D01*
Y63087D01*
X157598D02*
X182402D01*
X501064Y177701D02*
X546536D01*
Y140299D02*
Y177701D01*
X501064Y140299D02*
X546536D01*
X501064D02*
Y177701D01*
X65709Y187047D02*
Y192953D01*
X54291D02*
X65709D01*
X54291Y187047D02*
Y192953D01*
Y187047D02*
X65709D01*
X508291Y230047D02*
Y235953D01*
Y230047D02*
X519709D01*
Y235953D01*
X508291D02*
X519709D01*
X156598Y18913D02*
Y33087D01*
Y18913D02*
X181402D01*
Y33087D01*
X156598D02*
X181402D01*
X97421Y38969D02*
X112579D01*
Y25032D02*
Y38969D01*
X97421Y25032D02*
X112579D01*
X97421D02*
Y38969D01*
X508291Y180047D02*
Y185953D01*
Y180047D02*
X519709D01*
Y185953D01*
X508291D02*
X519709D01*
X151598Y259087D02*
X176402D01*
Y244913D02*
Y259087D01*
X151598Y244913D02*
X176402D01*
X151598D02*
Y259087D01*
X236047Y230142D02*
X241953D01*
Y241559D01*
X236047D02*
X241953D01*
X236047Y230142D02*
Y241559D01*
X484113Y190098D02*
Y214902D01*
X498287D01*
Y190098D02*
Y214902D01*
X484113Y190098D02*
X498287D01*
X246047Y189291D02*
X251953D01*
Y200709D01*
X246047D02*
X251953D01*
X246047Y189291D02*
Y200709D01*
X82047Y26291D02*
X87953D01*
Y37709D01*
X82047D02*
X87953D01*
X82047Y26291D02*
Y37709D01*
X484113Y140098D02*
Y164902D01*
X498287D01*
Y140098D02*
Y164902D01*
X484113Y140098D02*
X498287D01*
X133291Y63047D02*
Y68953D01*
Y63047D02*
X144709D01*
Y68953D01*
X133291D02*
X144709D01*
X65709Y157047D02*
Y162953D01*
X54291D02*
X65709D01*
X54291Y157047D02*
Y162953D01*
Y157047D02*
X65709D01*
Y117047D02*
Y122953D01*
X54291D02*
X65709D01*
X54291Y117047D02*
Y122953D01*
Y117047D02*
X65709D01*
X484113Y90098D02*
Y114902D01*
X498287D01*
Y90098D02*
Y114902D01*
X484113Y90098D02*
X498287D01*
X89047Y26291D02*
X94953D01*
Y37709D01*
X89047D02*
X94953D01*
X89047Y26291D02*
Y37709D01*
X376291Y118047D02*
Y123953D01*
Y118047D02*
X387709D01*
Y123953D01*
X376291D02*
X387709D01*
X376291Y158047D02*
Y163953D01*
Y158047D02*
X387709D01*
Y163953D01*
X376291D02*
X387709D01*
Y112047D02*
Y117953D01*
X376291D02*
X387709D01*
X376291Y112047D02*
Y117953D01*
Y112047D02*
X387709D01*
Y146047D02*
Y151953D01*
X376291D02*
X387709D01*
X376291Y146047D02*
Y151953D01*
Y146047D02*
X387709D01*
X317291Y203047D02*
Y208953D01*
Y203047D02*
X328709D01*
Y208953D01*
X317291D02*
X328709D01*
Y191047D02*
Y196953D01*
X317291D02*
X328709D01*
X317291Y191047D02*
Y196953D01*
Y191047D02*
X328709D01*
X317291Y116047D02*
Y121953D01*
Y116047D02*
X328709D01*
Y121953D01*
X317291D02*
X328709D01*
Y110047D02*
Y115953D01*
X317291D02*
X328709D01*
X317291Y110047D02*
Y115953D01*
Y110047D02*
X328709D01*
X290709Y284047D02*
Y289953D01*
X279291D02*
X290709D01*
X279291Y284047D02*
Y289953D01*
Y284047D02*
X290709D01*
X387709Y106047D02*
Y111953D01*
X376291D02*
X387709D01*
X376291Y106047D02*
Y111953D01*
Y106047D02*
X387709D01*
X290709Y263047D02*
Y268953D01*
X279291D02*
X290709D01*
X279291Y263047D02*
Y268953D01*
Y263047D02*
X290709D01*
X161047Y295291D02*
X166953D01*
Y306709D01*
X161047D02*
X166953D01*
X161047Y295291D02*
Y306709D01*
X237547Y265976D02*
Y288024D01*
Y265976D02*
X268453D01*
Y288024D01*
X237547D02*
X268453D01*
X190047Y295291D02*
X195953D01*
Y306709D01*
X190047D02*
X195953D01*
X190047Y295291D02*
Y306709D01*
X214291Y281047D02*
Y286953D01*
Y281047D02*
X225709D01*
Y286953D01*
X214291D02*
X225709D01*
X175047Y295291D02*
X180953D01*
Y306709D01*
X175047D02*
X180953D01*
X175047Y295291D02*
Y306709D01*
X376291Y198047D02*
Y203953D01*
Y198047D02*
X387709D01*
Y203953D01*
X376291D02*
X387709D01*
Y192047D02*
Y197953D01*
X376291D02*
X387709D01*
X376291Y192047D02*
Y197953D01*
Y192047D02*
X387709D01*
X328709Y230047D02*
Y235953D01*
X317291D02*
X328709D01*
X317291Y230047D02*
Y235953D01*
Y230047D02*
X328709D01*
X290709Y270047D02*
Y275953D01*
X279291D02*
X290709D01*
X279291Y270047D02*
Y275953D01*
Y270047D02*
X290709D01*
X328709Y151047D02*
Y156953D01*
X317291D02*
X328709D01*
X317291Y151047D02*
Y156953D01*
Y151047D02*
X328709D01*
X387709Y186047D02*
Y191953D01*
X376291D02*
X387709D01*
X376291Y186047D02*
Y191953D01*
Y186047D02*
X387709D01*
X214291Y271047D02*
Y276953D01*
Y271047D02*
X225709D01*
Y276953D01*
X214291D02*
X225709D01*
X317291Y197047D02*
Y202953D01*
Y197047D02*
X328709D01*
Y202953D01*
X317291D02*
X328709D01*
X317291Y122047D02*
Y127953D01*
Y122047D02*
X328709D01*
Y127953D01*
X317291D02*
X328709D01*
X387709Y234047D02*
Y239953D01*
X376291D02*
X387709D01*
X376291Y234047D02*
Y239953D01*
Y234047D02*
X387709D01*
X279291Y277047D02*
Y282953D01*
Y277047D02*
X290709D01*
Y282953D01*
X279291D02*
X290709D01*
X387709Y152047D02*
Y157953D01*
X376291D02*
X387709D01*
X376291Y152047D02*
Y157953D01*
Y152047D02*
X387709D01*
M02*
