G04*
G04 #@! TF.GenerationSoftware,Altium Limited,Altium Designer,22.3.1 (43)*
G04*
G04 Layer_Color=16711935*
%FSLAX25Y25*%
%MOIN*%
G70*
G04*
G04 #@! TF.SameCoordinates,D3354991-DD5C-4E6D-8F59-54D9BE61E837*
G04*
G04*
G04 #@! TF.FilePolarity,Positive*
G04*
G01*
G75*
%ADD62C,0.00394*%
D62*
X174221Y162779D02*
X201780D01*
Y135221D02*
Y162779D01*
X174221Y135221D02*
X201780D01*
X174221D02*
Y162779D01*
Y159630D02*
X177370Y162779D01*
X281331Y73654D02*
X286331Y78654D01*
X281331Y59346D02*
Y78654D01*
Y59346D02*
X296669D01*
Y78654D01*
X281331D02*
X296669D01*
X281331Y30654D02*
X286331Y35653D01*
X281331Y16346D02*
Y35653D01*
Y16346D02*
X296669D01*
Y35653D01*
X281331D02*
X296669D01*
X346331Y202654D02*
X351331Y207653D01*
X346331Y188347D02*
Y207653D01*
Y188347D02*
X361669D01*
Y207653D01*
X346331D02*
X361669D01*
X383331Y30654D02*
X388331Y35653D01*
X383331Y16346D02*
Y35653D01*
Y16346D02*
X398669D01*
Y35653D01*
X383331D02*
X398669D01*
X346331Y122653D02*
X351331Y127654D01*
X346331Y108346D02*
Y127654D01*
Y108346D02*
X361669D01*
Y127654D01*
X346331D02*
X361669D01*
X346331Y242653D02*
X351331Y247654D01*
X346331Y228346D02*
Y247654D01*
Y228346D02*
X361669D01*
Y247654D01*
X346331D02*
X361669D01*
X383331Y73654D02*
X388331Y78654D01*
X383331Y59346D02*
Y78654D01*
Y59346D02*
X398669D01*
Y78654D01*
X383331D02*
X398669D01*
X346331Y162654D02*
X351331Y167654D01*
X346331Y148346D02*
Y167654D01*
Y148346D02*
X361669D01*
Y167654D01*
X346331D02*
X361669D01*
M02*
