G04*
G04 #@! TF.GenerationSoftware,Altium Limited,Altium Designer,22.3.1 (43)*
G04*
G04 Layer_Color=16711935*
%FSLAX25Y25*%
%MOIN*%
G70*
G04*
G04 #@! TF.SameCoordinates,D3354991-DD5C-4E6D-8F59-54D9BE61E837*
G04*
G04*
G04 #@! TF.FilePolarity,Negative*
G04*
G01*
G75*
%ADD29R,0.04540X0.03950*%
%ADD31R,0.03950X0.04540*%
%ADD41C,0.20800*%
%ADD42R,0.06706X0.06706*%
%ADD43C,0.06800*%
%ADD44R,0.06800X0.06800*%
%ADD45C,0.06706*%
%ADD46R,0.06706X0.06706*%
%ADD47C,0.05800*%
D29*
X486000Y334350D02*
D03*
Y340650D02*
D03*
X504000D02*
D03*
Y334350D02*
D03*
X466000Y340650D02*
D03*
Y334350D02*
D03*
X446000Y340650D02*
D03*
Y334350D02*
D03*
X417000Y340650D02*
D03*
Y334350D02*
D03*
X402000Y340650D02*
D03*
Y334350D02*
D03*
X432000Y340650D02*
D03*
Y334350D02*
D03*
X385000Y340650D02*
D03*
Y334350D02*
D03*
X370000Y340650D02*
D03*
Y334350D02*
D03*
X356000Y340650D02*
D03*
Y334350D02*
D03*
X341000Y340650D02*
D03*
Y334350D02*
D03*
X316000Y340650D02*
D03*
Y334350D02*
D03*
X295000Y340650D02*
D03*
Y334350D02*
D03*
X257000D02*
D03*
Y340650D02*
D03*
X273000Y334350D02*
D03*
Y340650D02*
D03*
X241000Y334350D02*
D03*
Y340650D02*
D03*
X209000Y334350D02*
D03*
Y340650D02*
D03*
X221000Y334350D02*
D03*
Y340650D02*
D03*
X193000Y334350D02*
D03*
Y340650D02*
D03*
X178000Y334350D02*
D03*
Y340650D02*
D03*
X164000Y334350D02*
D03*
Y340650D02*
D03*
X147000Y334350D02*
D03*
Y340650D02*
D03*
X137000Y334350D02*
D03*
Y340650D02*
D03*
X127000Y334350D02*
D03*
Y340650D02*
D03*
X117000Y334350D02*
D03*
Y340650D02*
D03*
X107000Y334350D02*
D03*
Y340650D02*
D03*
X97000Y334350D02*
D03*
Y340650D02*
D03*
X87000Y334350D02*
D03*
Y340650D02*
D03*
X77000Y334350D02*
D03*
Y340650D02*
D03*
D31*
X197299Y146000D02*
D03*
X191000D02*
D03*
X197150Y152000D02*
D03*
X190850D02*
D03*
X178701Y146000D02*
D03*
X185000D02*
D03*
X178850Y152000D02*
D03*
X185150D02*
D03*
X197150Y140000D02*
D03*
X190850D02*
D03*
X178850Y140000D02*
D03*
X185150D02*
D03*
D41*
X20000Y380000D02*
D03*
X540000Y20000D02*
D03*
X20000D02*
D03*
X540000Y380000D02*
D03*
D42*
X408000Y212000D02*
D03*
X229000Y210000D02*
D03*
X317000Y268000D02*
D03*
X462000Y152000D02*
D03*
X521000Y341000D02*
D03*
X295000Y224000D02*
D03*
X250000Y239000D02*
D03*
X448000Y152000D02*
D03*
X462000Y202000D02*
D03*
X448000Y102000D02*
D03*
X266000Y192000D02*
D03*
X448000Y52000D02*
D03*
X317000Y287000D02*
D03*
X278000Y192000D02*
D03*
X448000Y124000D02*
D03*
X295000Y184000D02*
D03*
X448000Y223000D02*
D03*
X462000Y52000D02*
D03*
Y102000D02*
D03*
X408000Y172000D02*
D03*
X448000Y174000D02*
D03*
X408000Y131000D02*
D03*
X448000Y74000D02*
D03*
X408000Y252000D02*
D03*
X295000Y104000D02*
D03*
X448000Y202000D02*
D03*
X295000Y146000D02*
D03*
D43*
X20000Y180000D02*
D03*
X30000Y190000D02*
D03*
X20000Y170000D02*
D03*
Y160000D02*
D03*
Y150000D02*
D03*
Y140000D02*
D03*
Y130000D02*
D03*
Y120000D02*
D03*
X30000Y180000D02*
D03*
Y170000D02*
D03*
Y160000D02*
D03*
Y150000D02*
D03*
Y140000D02*
D03*
Y130000D02*
D03*
Y120000D02*
D03*
D44*
X20000Y190000D02*
D03*
D45*
X229000Y220000D02*
D03*
X239000Y210000D02*
D03*
Y220000D02*
D03*
X249000Y210000D02*
D03*
Y220000D02*
D03*
X540000Y290000D02*
D03*
X530000Y280000D02*
D03*
X540000D02*
D03*
X530000Y270000D02*
D03*
X540000D02*
D03*
X530000Y260000D02*
D03*
X540000D02*
D03*
D46*
X530000Y290000D02*
D03*
D47*
X151000Y93000D02*
D03*
X211000Y74000D02*
D03*
X209000Y65000D02*
D03*
X213000Y53000D02*
D03*
X271000Y87000D02*
D03*
X331000Y176000D02*
D03*
X380000Y173000D02*
D03*
X413000Y91000D02*
D03*
X347000Y71000D02*
D03*
X370000Y174000D02*
D03*
X308000Y160000D02*
D03*
X281000Y155000D02*
D03*
X308000Y199000D02*
D03*
X248000Y77000D02*
D03*
X296000Y257000D02*
D03*
X229000Y263000D02*
D03*
X391000Y265000D02*
D03*
X398000Y270000D02*
D03*
X407000Y261000D02*
D03*
X252000Y263000D02*
D03*
X296787Y240213D02*
D03*
X296000Y266000D02*
D03*
X356000Y35000D02*
D03*
X226000Y134000D02*
D03*
X217000D02*
D03*
X398000Y237000D02*
D03*
Y195000D02*
D03*
Y156000D02*
D03*
Y115000D02*
D03*
X393000Y109000D02*
D03*
Y149000D02*
D03*
Y189000D02*
D03*
Y231000D02*
D03*
X269000Y112000D02*
D03*
X253000Y98000D02*
D03*
X226000D02*
D03*
X262000Y118000D02*
D03*
X185000Y273000D02*
D03*
X229000Y290000D02*
D03*
X273000Y246000D02*
D03*
X305000Y262000D02*
D03*
Y302000D02*
D03*
X276126Y308215D02*
D03*
X264000Y308000D02*
D03*
X172000Y317000D02*
D03*
X191000Y251000D02*
D03*
X185000Y93000D02*
D03*
X178000Y287000D02*
D03*
X193000Y288000D02*
D03*
X191000Y102000D02*
D03*
X352000Y31000D02*
D03*
X345000Y22000D02*
D03*
X352000Y58000D02*
D03*
X164000Y91000D02*
D03*
X226000Y81000D02*
D03*
X236000Y33000D02*
D03*
X228000Y21000D02*
D03*
X217075Y33000D02*
D03*
X205000Y87000D02*
D03*
X109765Y179235D02*
D03*
X164000Y287000D02*
D03*
X142000Y208000D02*
D03*
X123000Y138000D02*
D03*
X131000Y89000D02*
D03*
X38000Y31000D02*
D03*
X39000Y61000D02*
D03*
X290000Y51000D02*
D03*
X271000Y44000D02*
D03*
X328000Y29000D02*
D03*
X289000Y8000D02*
D03*
X310000Y38000D02*
D03*
X297000Y85000D02*
D03*
X248000Y21000D02*
D03*
Y39000D02*
D03*
X236586Y71000D02*
D03*
X288150Y135150D02*
D03*
X288000Y119000D02*
D03*
X327000Y290000D02*
D03*
X326000Y302000D02*
D03*
X335000D02*
D03*
X446000Y316000D02*
D03*
X431000Y142000D02*
D03*
X311000Y206000D02*
D03*
X308000Y125000D02*
D03*
X370000Y319000D02*
D03*
X355000Y77000D02*
D03*
X356000Y319000D02*
D03*
X252000Y153000D02*
D03*
X341000Y319000D02*
D03*
X259000Y147000D02*
D03*
X316000Y319000D02*
D03*
X252000Y141000D02*
D03*
X295000Y319000D02*
D03*
X486000Y347000D02*
D03*
X425000Y73000D02*
D03*
X426000Y29000D02*
D03*
X326000Y72000D02*
D03*
X391000Y12000D02*
D03*
Y42000D02*
D03*
Y54000D02*
D03*
Y86000D02*
D03*
X169500Y40000D02*
D03*
Y13000D02*
D03*
X152500D02*
D03*
Y35000D02*
D03*
X183000Y40000D02*
D03*
X152500Y66000D02*
D03*
Y44000D02*
D03*
X235000Y92000D02*
D03*
X169500Y68400D02*
D03*
X75000Y54000D02*
D03*
Y24000D02*
D03*
X173000Y241000D02*
D03*
X128000Y252000D02*
D03*
X125000Y263000D02*
D03*
Y241000D02*
D03*
X486000Y324000D02*
D03*
X504000D02*
D03*
X330000Y335000D02*
D03*
X307000D02*
D03*
X284000D02*
D03*
X477000Y203000D02*
D03*
X495000Y180000D02*
D03*
X477000Y153000D02*
D03*
X495000Y130000D02*
D03*
Y30000D02*
D03*
Y80000D02*
D03*
X477000Y103000D02*
D03*
Y53000D02*
D03*
X544000Y183000D02*
D03*
X538000Y238000D02*
D03*
X544000Y133000D02*
D03*
Y84000D02*
D03*
X354000Y109000D02*
D03*
Y126000D02*
D03*
Y149000D02*
D03*
Y166000D02*
D03*
Y230000D02*
D03*
Y190000D02*
D03*
Y206000D02*
D03*
Y246000D02*
D03*
X269000Y297000D02*
D03*
X504000Y347000D02*
D03*
X466000D02*
D03*
X446000D02*
D03*
X432000D02*
D03*
X417000D02*
D03*
X402000D02*
D03*
X385000D02*
D03*
X370000D02*
D03*
X356000D02*
D03*
X341000D02*
D03*
X316000D02*
D03*
X295000D02*
D03*
X273000D02*
D03*
X257000D02*
D03*
X241000D02*
D03*
X193000D02*
D03*
X178000D02*
D03*
X164000D02*
D03*
X221000D02*
D03*
X209000D02*
D03*
X45000Y232000D02*
D03*
X40000Y240000D02*
D03*
X32000D02*
D03*
X82000Y294000D02*
D03*
X89000Y303000D02*
D03*
X55000Y231000D02*
D03*
X67000Y202000D02*
D03*
X72000Y150000D02*
D03*
X86000Y205000D02*
D03*
X80000Y197000D02*
D03*
Y170000D02*
D03*
X71000Y180000D02*
D03*
X52000Y275000D02*
D03*
X27000Y312000D02*
D03*
X67350Y334350D02*
D03*
X130000Y167000D02*
D03*
X80000Y160000D02*
D03*
X123000Y162000D02*
D03*
X130000Y155000D02*
D03*
X80000Y140000D02*
D03*
X123000Y150000D02*
D03*
X72000Y130000D02*
D03*
X80000Y120000D02*
D03*
X130000Y144000D02*
D03*
X209000Y203000D02*
D03*
X191000Y199000D02*
D03*
X194000Y186000D02*
D03*
X229000Y182000D02*
D03*
X200000Y203000D02*
D03*
X172000Y100000D02*
D03*
X147000Y347000D02*
D03*
X137000D02*
D03*
X127000D02*
D03*
X117000D02*
D03*
X107000D02*
D03*
X97000D02*
D03*
X87000D02*
D03*
X77400D02*
D03*
M02*
