M48
;Layer_Color=9474304
;FILE_FORMAT=2:5
INCH,LZ
;TYPE=PLATED
T1F00S00C0.02800
T2F00S00C0.03150
T3F00S00C0.03543
T4F00S00C0.17000
%
T01
X00685Y00546
X0091Y00645
X0105095Y005872
Y008872
X00915Y00945
X00704Y012
X006315Y01132
X00499Y01244
X0047Y0155
X00678Y014
X00803Y013
X0097612Y01466
X0114Y01503
X01455Y00855
X01465Y0077
X01599Y00598
X017Y0066
X01765Y00845
X0203321Y0079521
X02034Y01067
X02013Y01177
X02031Y01357
X01837Y01378
X0163793Y0123683
X0157Y0117
X01645Y01105
X02457Y01111
X024355Y008875
X0251Y00655
X023Y00599
X0247Y00335
X02836Y0044
X02835Y00815
X0287Y0095
X0289Y0103
X0285Y01105
X0272Y0099
X03025Y0098
X03035Y01285
X0183Y00271
X0319273Y00508
X0348Y00572
X03625Y00645
X0371Y0065
X03945Y0064
X0406Y00805
X04152Y01007
X0415Y013
X04475Y01345
X03753Y013
X0365Y0138
X03567Y01319
X0347Y0134
X03392Y013
X0337Y0139
X0349Y0124
X0363Y0105
X0375Y0098
X0351714Y0088714
X03365Y01
X04695Y0155
X0477Y0168
X0487Y017
X04755Y018
X03695Y01715
X03355Y0211
X03818Y02396
X03804Y0248
X03879Y02529
X0408Y0295
X0332Y0312
X02735Y0279
X027Y027
X02692Y02336
X0243994Y02448
X02321Y02464
X02375Y0228
X02128Y02255
X01861Y02226
X01831Y02017
X019495Y020515
X0173Y02115
X0166676Y0188776
X01671Y018
X01636Y01618
X01699Y01573
X02119Y01716
X0227Y0173
X02698Y01748
X02819Y01772
X02727Y01594
X02642Y0194636
X0301Y02432
X0250677Y02895
X02525Y0299
X0238
X02215Y0279
X02085Y0291
X018Y0256
X01455Y02545
X014Y0248
X013552Y02625
X01488Y0269
X0087Y0257
X0077Y0255
X00905Y0239
X0094Y0229
X00975Y0198
X01055Y01992
X01033Y01784
X01051Y0165
X01004Y01596
X0127Y01911
X00805Y02017
X0049Y01755
X0063Y0334
X0075Y0375
X0085
X0095
X0105
X0115
X0125
X0135
X0145
X0155Y0333
X0165Y0375
X0179
X0194
X0209
X02215
X0238
X0257
X0272
X029
X0307
X0323
X0339
X0355
X0369
X0383
X0397
X042
X0439
X0429Y0342
Y0324
X0408Y0335
X0461Y0328
X0346Y0323
X0469Y0324
X0491Y0333
X05105Y0365
X0546Y03177
T02
X002Y012
X003
Y013
Y014
Y015
X002
Y014
Y013
X0532Y0224
X0542
Y0234
Y0244
Y0254
Y0264
Y0274
Y0284
Y0294
X0532
Y0284
Y0274
Y0264
Y0254
Y0244
Y0234
X003Y019
Y018
Y017
Y016
X002
Y017
Y018
Y019
T03
X026Y0118
X0291Y0151
X035Y018
Y02
Y022
X04015Y0219
Y0209
Y0199
X04115
Y0209
Y0219
X0444Y02205
X04565
Y0238
X0444
Y0203
X04565
Y01855
X0444
X0251Y0205
X009Y0175
T04
X002Y002
X054
X002Y038
X054
M30
