G04*
G04 #@! TF.GenerationSoftware,Altium Limited,Altium Designer,22.3.1 (43)*
G04*
G04 Layer_Color=255*
%FSLAX25Y25*%
%MOIN*%
G70*
G04*
G04 #@! TF.SameCoordinates,1903AC94-178F-402A-AE6A-EB822E6E4443*
G04*
G04*
G04 #@! TF.FilePolarity,Positive*
G04*
G01*
G75*
%ADD16R,0.07874X0.02756*%
%ADD17R,0.07874X0.07874*%
%ADD18R,0.12000X0.07000*%
%ADD19R,0.12000X0.07000*%
%ADD20R,0.03150X0.03740*%
%ADD21R,0.03150X0.03150*%
%ADD22R,0.07087X0.01772*%
%ADD23R,0.05807X0.01772*%
%ADD24R,0.03740X0.03150*%
%ADD25R,0.02362X0.05807*%
%ADD26R,0.05807X0.02362*%
%ADD47C,0.08000*%
%ADD48R,0.05906X0.05906*%
%ADD49R,0.05000X0.05000*%
%ADD50C,0.05000*%
%ADD51C,0.20000*%
%ADD52C,0.05906*%
%ADD53R,0.05906X0.05906*%
%ADD54C,0.06000*%
%ADD55R,0.06000X0.06000*%
D16*
X509152Y65500D02*
D03*
Y69808D02*
D03*
Y74139D02*
D03*
Y78470D02*
D03*
Y82800D02*
D03*
Y87131D02*
D03*
Y91462D02*
D03*
X509181Y100124D02*
D03*
Y95793D02*
D03*
D17*
X512348Y118000D02*
D03*
D18*
X511120Y58000D02*
D03*
D19*
X552348Y122000D02*
D03*
Y58000D02*
D03*
D20*
X311850Y196000D02*
D03*
X318150D02*
D03*
X161850Y270000D02*
D03*
X168150D02*
D03*
X161850Y260000D02*
D03*
X168150D02*
D03*
X161850Y250000D02*
D03*
X168150D02*
D03*
X238150D02*
D03*
X231850D02*
D03*
X238150Y260000D02*
D03*
X231850D02*
D03*
X238150Y270000D02*
D03*
X231850D02*
D03*
X396850D02*
D03*
X403150D02*
D03*
X276850D02*
D03*
X283150D02*
D03*
X396850Y260000D02*
D03*
X403150D02*
D03*
X276850D02*
D03*
X283150D02*
D03*
X396850Y250000D02*
D03*
X403150D02*
D03*
X276850D02*
D03*
X283150D02*
D03*
X473150D02*
D03*
X466850D02*
D03*
X353150D02*
D03*
X346850D02*
D03*
X473150Y260000D02*
D03*
X466850D02*
D03*
X353150D02*
D03*
X346850D02*
D03*
X473150Y270000D02*
D03*
X466850D02*
D03*
X353150D02*
D03*
X346850D02*
D03*
X311850Y210000D02*
D03*
X318150D02*
D03*
Y189000D02*
D03*
X311850D02*
D03*
Y203000D02*
D03*
X318150D02*
D03*
X63150Y190000D02*
D03*
X56850D02*
D03*
X63150Y180000D02*
D03*
X56850D02*
D03*
X96850Y165000D02*
D03*
X103150D02*
D03*
X63150Y170000D02*
D03*
X56850D02*
D03*
X96850Y155000D02*
D03*
X103150D02*
D03*
X63150Y160000D02*
D03*
X56850D02*
D03*
X96850Y145000D02*
D03*
X103150D02*
D03*
X63150Y150000D02*
D03*
X56850D02*
D03*
X96850Y135000D02*
D03*
X103150D02*
D03*
X63150Y140000D02*
D03*
X56850D02*
D03*
X63150Y130000D02*
D03*
X56850D02*
D03*
X63150Y120000D02*
D03*
X56850D02*
D03*
X255850Y181000D02*
D03*
X262150D02*
D03*
X174350Y186000D02*
D03*
X180650D02*
D03*
X255850Y175000D02*
D03*
X262150D02*
D03*
X174350Y180000D02*
D03*
X180650D02*
D03*
X255850Y169000D02*
D03*
X262150D02*
D03*
X174350Y174000D02*
D03*
X180650D02*
D03*
X255850Y163000D02*
D03*
X262150D02*
D03*
X174350Y168000D02*
D03*
X180650D02*
D03*
X255850Y157000D02*
D03*
X262150D02*
D03*
X174350Y162000D02*
D03*
X180650D02*
D03*
X255850Y151000D02*
D03*
X262150D02*
D03*
X174350Y156000D02*
D03*
X180650D02*
D03*
X174350Y150000D02*
D03*
X180650D02*
D03*
X174350Y144000D02*
D03*
X180650D02*
D03*
X483150Y40000D02*
D03*
X476850D02*
D03*
Y60000D02*
D03*
X483150D02*
D03*
X476850Y50000D02*
D03*
X483150D02*
D03*
D21*
X387000Y334350D02*
D03*
Y340650D02*
D03*
X205000Y334350D02*
D03*
Y340650D02*
D03*
X351000Y333850D02*
D03*
Y340150D02*
D03*
X263000Y334350D02*
D03*
Y340650D02*
D03*
X242000Y334350D02*
D03*
Y340650D02*
D03*
X522000Y334350D02*
D03*
Y340650D02*
D03*
X547000Y334350D02*
D03*
Y340650D02*
D03*
X218000Y334350D02*
D03*
Y340650D02*
D03*
X75000Y334350D02*
D03*
Y340650D02*
D03*
X85000Y334350D02*
D03*
Y340650D02*
D03*
X95000Y334350D02*
D03*
Y340650D02*
D03*
X105000Y334350D02*
D03*
Y340650D02*
D03*
X115000Y334350D02*
D03*
Y340650D02*
D03*
X125000Y334350D02*
D03*
Y340650D02*
D03*
X135000Y334350D02*
D03*
Y340650D02*
D03*
X145000Y334350D02*
D03*
Y340650D02*
D03*
X500500Y334350D02*
D03*
Y340650D02*
D03*
X192500Y334350D02*
D03*
Y340650D02*
D03*
X329000Y334350D02*
D03*
Y340650D02*
D03*
X177500Y334350D02*
D03*
Y340650D02*
D03*
X162500Y334350D02*
D03*
Y340650D02*
D03*
X416000Y334350D02*
D03*
Y340650D02*
D03*
X430000Y334350D02*
D03*
Y340650D02*
D03*
X486000Y334350D02*
D03*
Y340650D02*
D03*
X468000Y334350D02*
D03*
Y340650D02*
D03*
X450000Y334350D02*
D03*
Y340650D02*
D03*
X367000Y334350D02*
D03*
Y340650D02*
D03*
X305000Y334350D02*
D03*
Y340650D02*
D03*
X283000Y334350D02*
D03*
Y340650D02*
D03*
D22*
X101024Y261516D02*
D03*
Y258957D02*
D03*
Y256398D02*
D03*
Y253839D02*
D03*
Y251279D02*
D03*
Y248721D02*
D03*
Y246161D02*
D03*
Y243602D02*
D03*
Y241043D02*
D03*
Y238484D02*
D03*
X128976D02*
D03*
Y241043D02*
D03*
Y243602D02*
D03*
Y246161D02*
D03*
Y248721D02*
D03*
Y251279D02*
D03*
Y253839D02*
D03*
Y256398D02*
D03*
Y258957D02*
D03*
Y261516D02*
D03*
D23*
X188433Y267677D02*
D03*
Y265118D02*
D03*
Y262559D02*
D03*
Y260000D02*
D03*
Y257441D02*
D03*
Y254882D02*
D03*
Y252323D02*
D03*
X211567D02*
D03*
Y254882D02*
D03*
Y257441D02*
D03*
Y260000D02*
D03*
Y262559D02*
D03*
Y265118D02*
D03*
Y267677D02*
D03*
X423433D02*
D03*
Y265118D02*
D03*
Y262559D02*
D03*
Y260000D02*
D03*
Y257441D02*
D03*
Y254882D02*
D03*
Y252323D02*
D03*
X446567D02*
D03*
Y254882D02*
D03*
Y257441D02*
D03*
Y260000D02*
D03*
Y262559D02*
D03*
Y265118D02*
D03*
Y267677D02*
D03*
X303433D02*
D03*
Y265118D02*
D03*
Y262559D02*
D03*
Y260000D02*
D03*
Y257441D02*
D03*
Y254882D02*
D03*
Y252323D02*
D03*
X326567D02*
D03*
Y254882D02*
D03*
Y257441D02*
D03*
Y260000D02*
D03*
Y262559D02*
D03*
Y265118D02*
D03*
Y267677D02*
D03*
D24*
X162500Y297850D02*
D03*
Y304150D02*
D03*
X177500Y297850D02*
D03*
Y304150D02*
D03*
X329000Y297850D02*
D03*
Y304150D02*
D03*
X192500Y297850D02*
D03*
Y304150D02*
D03*
X500500Y298850D02*
D03*
Y305150D02*
D03*
X510000Y224850D02*
D03*
Y231150D02*
D03*
X490000Y224850D02*
D03*
Y231150D02*
D03*
X520000Y224850D02*
D03*
Y231150D02*
D03*
X530000D02*
D03*
Y224850D02*
D03*
X470000D02*
D03*
Y231150D02*
D03*
X500000Y224850D02*
D03*
Y231150D02*
D03*
X227000Y198850D02*
D03*
Y205150D02*
D03*
X215000Y205000D02*
D03*
Y198701D02*
D03*
X233000Y198850D02*
D03*
Y205150D02*
D03*
X209000Y205000D02*
D03*
Y198701D02*
D03*
X239000Y198850D02*
D03*
Y205150D02*
D03*
X203000D02*
D03*
Y198850D02*
D03*
X242000Y124150D02*
D03*
Y117850D02*
D03*
X236000Y124150D02*
D03*
Y117850D02*
D03*
X230000Y124150D02*
D03*
Y117850D02*
D03*
X224000Y124150D02*
D03*
Y117850D02*
D03*
X206000D02*
D03*
Y124150D02*
D03*
X218000D02*
D03*
Y117850D02*
D03*
X212000Y124150D02*
D03*
Y117850D02*
D03*
X410000Y33150D02*
D03*
Y26850D02*
D03*
Y118150D02*
D03*
Y111850D02*
D03*
X420000Y33150D02*
D03*
Y26850D02*
D03*
Y118150D02*
D03*
Y111850D02*
D03*
X450000Y118150D02*
D03*
Y111850D02*
D03*
X460000Y118150D02*
D03*
Y111850D02*
D03*
X400000Y166850D02*
D03*
Y173150D02*
D03*
X410000Y166850D02*
D03*
Y173150D02*
D03*
X420000Y166850D02*
D03*
Y173150D02*
D03*
X430000Y166850D02*
D03*
Y173150D02*
D03*
X440000Y166850D02*
D03*
Y173150D02*
D03*
X450000Y166850D02*
D03*
Y173150D02*
D03*
X290000Y66850D02*
D03*
Y73150D02*
D03*
X330000Y118150D02*
D03*
Y111850D02*
D03*
X275000Y66850D02*
D03*
Y73150D02*
D03*
X340000Y118150D02*
D03*
Y111850D02*
D03*
X260000Y66850D02*
D03*
Y73150D02*
D03*
X370000Y118150D02*
D03*
Y111850D02*
D03*
X245000Y66850D02*
D03*
Y73150D02*
D03*
X380000Y118150D02*
D03*
Y111850D02*
D03*
X290000Y43150D02*
D03*
Y36850D02*
D03*
X275000Y43150D02*
D03*
Y36850D02*
D03*
X260000Y43150D02*
D03*
Y36850D02*
D03*
X245000Y43150D02*
D03*
Y36850D02*
D03*
D25*
X207976Y180685D02*
D03*
X211126D02*
D03*
X214276D02*
D03*
X217425D02*
D03*
X220575D02*
D03*
X223724D02*
D03*
X226874D02*
D03*
X230024D02*
D03*
Y147315D02*
D03*
X226874D02*
D03*
X223724D02*
D03*
X220575D02*
D03*
X217425D02*
D03*
X214276D02*
D03*
X211126D02*
D03*
X207976D02*
D03*
D26*
X235685Y175024D02*
D03*
Y171874D02*
D03*
Y168724D02*
D03*
Y165575D02*
D03*
Y162425D02*
D03*
Y159276D02*
D03*
Y156126D02*
D03*
Y152976D02*
D03*
X202315D02*
D03*
Y156126D02*
D03*
Y159276D02*
D03*
Y162425D02*
D03*
Y165575D02*
D03*
Y168724D02*
D03*
Y171874D02*
D03*
Y175024D02*
D03*
D47*
X552848Y72500D02*
D03*
Y100000D02*
D03*
D48*
X440000Y290000D02*
D03*
X395000D02*
D03*
X380000D02*
D03*
X410000D02*
D03*
X485000D02*
D03*
X425000D02*
D03*
X470000D02*
D03*
X455000D02*
D03*
X290000Y183000D02*
D03*
Y218000D02*
D03*
Y201000D02*
D03*
X530000Y200000D02*
D03*
X510000D02*
D03*
X490000D02*
D03*
X470000D02*
D03*
X530000Y160000D02*
D03*
X510000D02*
D03*
X400000Y210000D02*
D03*
X397000Y26800D02*
D03*
Y119000D02*
D03*
X432000Y26800D02*
D03*
Y119000D02*
D03*
D49*
X410000Y50000D02*
D03*
X330000D02*
D03*
D50*
X420000D02*
D03*
X430000D02*
D03*
X440000D02*
D03*
X450000D02*
D03*
X460000D02*
D03*
X410000Y89370D02*
D03*
X420000D02*
D03*
X430000D02*
D03*
X440000D02*
D03*
X450000D02*
D03*
X460000D02*
D03*
X380000D02*
D03*
X370000D02*
D03*
X360000D02*
D03*
X350000D02*
D03*
X340000D02*
D03*
X330000D02*
D03*
X380000Y50000D02*
D03*
X370000D02*
D03*
X360000D02*
D03*
X350000D02*
D03*
X340000D02*
D03*
D51*
X20000Y20000D02*
D03*
X540000D02*
D03*
Y380000D02*
D03*
X20000D02*
D03*
D52*
X344500Y190000D02*
D03*
X334500D02*
D03*
X344500Y200000D02*
D03*
X334500D02*
D03*
X344500Y210000D02*
D03*
X530000Y190000D02*
D03*
X510000D02*
D03*
X490000D02*
D03*
X470000D02*
D03*
X530000Y150000D02*
D03*
X510000D02*
D03*
X400000Y220000D02*
D03*
X410000Y210000D02*
D03*
Y220000D02*
D03*
X420000Y210000D02*
D03*
Y220000D02*
D03*
X430000Y210000D02*
D03*
Y220000D02*
D03*
X440000Y210000D02*
D03*
Y220000D02*
D03*
D53*
X334500Y210000D02*
D03*
D54*
X30000Y120000D02*
D03*
Y130000D02*
D03*
Y140000D02*
D03*
Y150000D02*
D03*
Y160000D02*
D03*
Y170000D02*
D03*
Y180000D02*
D03*
X20000Y120000D02*
D03*
Y130000D02*
D03*
Y140000D02*
D03*
Y150000D02*
D03*
Y160000D02*
D03*
Y170000D02*
D03*
X30000Y190000D02*
D03*
X20000Y180000D02*
D03*
D55*
Y190000D02*
D03*
M02*
