G04*
G04 #@! TF.GenerationSoftware,Altium Limited,Altium Designer,22.3.1 (43)*
G04*
G04 Layer_Color=16711935*
%FSLAX25Y25*%
%MOIN*%
G70*
G04*
G04 #@! TF.SameCoordinates,1903AC94-178F-402A-AE6A-EB822E6E4443*
G04*
G04*
G04 #@! TF.FilePolarity,Negative*
G04*
G01*
G75*
%ADD31R,0.03950X0.04540*%
%ADD35R,0.04540X0.03950*%
%ADD38C,0.08800*%
%ADD39R,0.06706X0.06706*%
%ADD40R,0.05800X0.05800*%
%ADD41C,0.05800*%
%ADD42C,0.20800*%
%ADD43C,0.06706*%
%ADD44R,0.06706X0.06706*%
%ADD45C,0.06800*%
%ADD46R,0.06800X0.06800*%
D31*
X218850Y157000D02*
D03*
X225150D02*
D03*
X218850Y164000D02*
D03*
X225150D02*
D03*
X212150Y157000D02*
D03*
X205850D02*
D03*
X212150Y163000D02*
D03*
X205850D02*
D03*
X212150Y169000D02*
D03*
X205850D02*
D03*
X429850Y79000D02*
D03*
X436150D02*
D03*
X349850Y80000D02*
D03*
X356150D02*
D03*
X353850Y60000D02*
D03*
X360150D02*
D03*
X433850D02*
D03*
X440150D02*
D03*
D35*
X351000Y340650D02*
D03*
Y334350D02*
D03*
X547000Y340650D02*
D03*
Y334350D02*
D03*
X522000D02*
D03*
Y340650D02*
D03*
X387000D02*
D03*
Y334350D02*
D03*
X500500Y340650D02*
D03*
Y334350D02*
D03*
X329000Y340650D02*
D03*
Y334350D02*
D03*
X263000Y340650D02*
D03*
Y334350D02*
D03*
X242000Y340650D02*
D03*
Y334350D02*
D03*
X305000Y340650D02*
D03*
Y334350D02*
D03*
X283000Y340650D02*
D03*
Y334350D02*
D03*
X367000Y341150D02*
D03*
Y334850D02*
D03*
X486000Y340650D02*
D03*
Y334350D02*
D03*
X468000Y340650D02*
D03*
Y334350D02*
D03*
X450000Y340650D02*
D03*
Y334350D02*
D03*
X416000Y340650D02*
D03*
Y334350D02*
D03*
X430000Y340650D02*
D03*
Y334350D02*
D03*
X205000Y340650D02*
D03*
Y334350D02*
D03*
X218000Y340650D02*
D03*
Y334350D02*
D03*
X192500Y340650D02*
D03*
Y334350D02*
D03*
X177500D02*
D03*
Y340650D02*
D03*
X162500D02*
D03*
Y334350D02*
D03*
X125000Y340650D02*
D03*
Y334350D02*
D03*
X115000Y340650D02*
D03*
Y334350D02*
D03*
X105000Y340650D02*
D03*
Y334350D02*
D03*
X95000Y340650D02*
D03*
Y334350D02*
D03*
X145000Y340650D02*
D03*
Y334350D02*
D03*
X135000Y340650D02*
D03*
Y334350D02*
D03*
X85000Y340650D02*
D03*
Y334350D02*
D03*
X75000Y340650D02*
D03*
Y334350D02*
D03*
D38*
X552848Y72500D02*
D03*
Y100000D02*
D03*
D39*
X440000Y290000D02*
D03*
X395000D02*
D03*
X380000D02*
D03*
X410000D02*
D03*
X485000D02*
D03*
X425000D02*
D03*
X470000D02*
D03*
X455000D02*
D03*
X290000Y183000D02*
D03*
Y218000D02*
D03*
Y201000D02*
D03*
X530000Y200000D02*
D03*
X510000D02*
D03*
X490000D02*
D03*
X470000D02*
D03*
X530000Y160000D02*
D03*
X510000D02*
D03*
X400000Y210000D02*
D03*
X397000Y26800D02*
D03*
Y119000D02*
D03*
X432000Y26800D02*
D03*
Y119000D02*
D03*
D40*
X410000Y50000D02*
D03*
X330000D02*
D03*
D41*
X420000D02*
D03*
X430000D02*
D03*
X440000D02*
D03*
X450000D02*
D03*
X460000D02*
D03*
X410000Y89370D02*
D03*
X420000D02*
D03*
X430000D02*
D03*
X440000D02*
D03*
X450000D02*
D03*
X460000D02*
D03*
X380000D02*
D03*
X370000D02*
D03*
X360000D02*
D03*
X350000D02*
D03*
X340000D02*
D03*
X330000D02*
D03*
X380000Y50000D02*
D03*
X370000D02*
D03*
X360000D02*
D03*
X350000D02*
D03*
X340000D02*
D03*
X393000Y165000D02*
D03*
X405000Y191000D02*
D03*
Y183000D02*
D03*
X369000Y175000D02*
D03*
X275000Y187000D02*
D03*
X476000Y149000D02*
D03*
X389000Y93000D02*
D03*
X206000Y94000D02*
D03*
X500000Y70000D02*
D03*
X400000Y158000D02*
D03*
X483000Y96000D02*
D03*
X410000Y149000D02*
D03*
X420000Y157000D02*
D03*
X484000Y113000D02*
D03*
X476000Y70000D02*
D03*
X456000Y80000D02*
D03*
X489000Y81000D02*
D03*
X429000Y147000D02*
D03*
X469000Y134000D02*
D03*
X490000Y70000D02*
D03*
X491000Y89000D02*
D03*
X460000Y134000D02*
D03*
X353000Y131000D02*
D03*
X450000Y128000D02*
D03*
X330000Y131000D02*
D03*
X249000Y101000D02*
D03*
X255000Y108000D02*
D03*
X218000Y100000D02*
D03*
X246000Y138000D02*
D03*
X244000Y246000D02*
D03*
X254000Y138000D02*
D03*
X230000Y104000D02*
D03*
X253000Y250000D02*
D03*
X84000Y218000D02*
D03*
X63000D02*
D03*
X233000Y232414D02*
D03*
X293000Y248000D02*
D03*
X312000Y241000D02*
D03*
Y224000D02*
D03*
X357000Y166000D02*
D03*
X354000Y280000D02*
D03*
X338000Y224000D02*
D03*
X366000Y260000D02*
D03*
X375000Y183000D02*
D03*
X366000Y250000D02*
D03*
X375000Y191000D02*
D03*
Y200000D02*
D03*
X281000Y145000D02*
D03*
X277000Y138000D02*
D03*
X340000Y126000D02*
D03*
X166000Y121000D02*
D03*
X373000Y140000D02*
D03*
X387000D02*
D03*
Y150000D02*
D03*
X372000D02*
D03*
X387000Y159000D02*
D03*
X372000D02*
D03*
X522000Y318000D02*
D03*
X77000Y194000D02*
D03*
X151000Y225000D02*
D03*
X103000Y200000D02*
D03*
X48000Y185000D02*
D03*
X110000Y193000D02*
D03*
X111000Y183000D02*
D03*
X262000Y138000D02*
D03*
X237000Y279000D02*
D03*
X260000Y270000D02*
D03*
X266000Y260000D02*
D03*
X225000Y85000D02*
D03*
X212000Y77000D02*
D03*
X218000Y71000D02*
D03*
X116000Y156000D02*
D03*
X409000Y320000D02*
D03*
X404000Y314000D02*
D03*
X468000Y321000D02*
D03*
X314000Y317000D02*
D03*
X338000Y242000D02*
D03*
X397000Y325000D02*
D03*
X450000Y324000D02*
D03*
X486000Y320000D02*
D03*
X430000Y309000D02*
D03*
X416000Y272000D02*
D03*
X394000Y201000D02*
D03*
X388000Y270000D02*
D03*
X481000Y220000D02*
D03*
X458000Y240000D02*
D03*
X522000Y86000D02*
D03*
X233000Y303000D02*
D03*
X211000Y287000D02*
D03*
X219000Y284000D02*
D03*
X220000Y274000D02*
D03*
X218000Y322000D02*
D03*
X208000Y296000D02*
D03*
X201000Y322000D02*
D03*
X142000Y288000D02*
D03*
X120000Y145000D02*
D03*
X153000Y287000D02*
D03*
X117000Y165000D02*
D03*
X129000Y298000D02*
D03*
X139000Y174000D02*
D03*
X145000Y161000D02*
D03*
X156000Y230000D02*
D03*
X158000Y156000D02*
D03*
X151000Y168000D02*
D03*
X166000Y150000D02*
D03*
X165000Y230000D02*
D03*
X174000Y135000D02*
D03*
X171000Y236000D02*
D03*
X145000Y248000D02*
D03*
X139000Y243000D02*
D03*
X129000Y180000D02*
D03*
X131500Y272000D02*
D03*
X118000Y135000D02*
D03*
X129000Y231000D02*
D03*
X132000Y283000D02*
D03*
X81000Y160000D02*
D03*
X101000Y227000D02*
D03*
X91000Y269000D02*
D03*
X364000Y317000D02*
D03*
X343000Y325000D02*
D03*
X380000Y324000D02*
D03*
X183000Y242000D02*
D03*
X334000Y276000D02*
D03*
X448000Y277000D02*
D03*
X419000Y244000D02*
D03*
X544000Y139000D02*
D03*
X511120Y43120D02*
D03*
X468000Y30000D02*
D03*
X220000Y191000D02*
D03*
X224000Y172000D02*
D03*
X247000Y154000D02*
D03*
X209000Y136000D02*
D03*
X339000Y342000D02*
D03*
X351000Y375000D02*
D03*
X367000D02*
D03*
X535000Y322000D02*
D03*
X509000Y350000D02*
D03*
X228000Y349000D02*
D03*
X153000Y350000D02*
D03*
X535000Y341000D02*
D03*
X547000Y364000D02*
D03*
X522000Y375000D02*
D03*
X500500D02*
D03*
X486000D02*
D03*
X468000D02*
D03*
X450000D02*
D03*
X430000D02*
D03*
X416000D02*
D03*
X387000D02*
D03*
X329000D02*
D03*
X305000D02*
D03*
X283000D02*
D03*
X263000D02*
D03*
X242000D02*
D03*
X218000D02*
D03*
X205000D02*
D03*
X192500D02*
D03*
X177500D02*
D03*
X162500D02*
D03*
X145000D02*
D03*
X135000D02*
D03*
X125000D02*
D03*
X115000D02*
D03*
X105000D02*
D03*
X95000D02*
D03*
X85000D02*
D03*
X75000D02*
D03*
D42*
X20000Y20000D02*
D03*
X540000D02*
D03*
Y380000D02*
D03*
X20000D02*
D03*
D43*
X344500Y190000D02*
D03*
X334500D02*
D03*
X344500Y200000D02*
D03*
X334500D02*
D03*
X344500Y210000D02*
D03*
X530000Y190000D02*
D03*
X510000D02*
D03*
X490000D02*
D03*
X470000D02*
D03*
X530000Y150000D02*
D03*
X510000D02*
D03*
X400000Y220000D02*
D03*
X410000Y210000D02*
D03*
Y220000D02*
D03*
X420000Y210000D02*
D03*
Y220000D02*
D03*
X430000Y210000D02*
D03*
Y220000D02*
D03*
X440000Y210000D02*
D03*
Y220000D02*
D03*
D44*
X334500Y210000D02*
D03*
D45*
X30000Y120000D02*
D03*
Y130000D02*
D03*
Y140000D02*
D03*
Y150000D02*
D03*
Y160000D02*
D03*
Y170000D02*
D03*
Y180000D02*
D03*
X20000Y120000D02*
D03*
Y130000D02*
D03*
Y140000D02*
D03*
Y150000D02*
D03*
Y160000D02*
D03*
Y170000D02*
D03*
X30000Y190000D02*
D03*
X20000Y180000D02*
D03*
D46*
Y190000D02*
D03*
M02*
