G04*
G04 #@! TF.GenerationSoftware,Altium Limited,Altium Designer,22.3.1 (43)*
G04*
G04 Layer_Physical_Order=4*
G04 Layer_Color=16711680*
%FSLAX25Y25*%
%MOIN*%
G70*
G04*
G04 #@! TF.SameCoordinates,1903AC94-178F-402A-AE6A-EB822E6E4443*
G04*
G04*
G04 #@! TF.FilePolarity,Positive*
G04*
G01*
G75*
%ADD12C,0.01000*%
%ADD20R,0.03150X0.03740*%
%ADD24R,0.03740X0.03150*%
%ADD47C,0.08000*%
%ADD48R,0.05906X0.05906*%
%ADD49R,0.05000X0.05000*%
%ADD50C,0.05000*%
%ADD51C,0.20000*%
%ADD52C,0.05906*%
%ADD53R,0.05906X0.05906*%
%ADD54C,0.06000*%
%ADD55R,0.06000X0.06000*%
G36*
X560000D02*
X0D01*
Y400000D01*
X560000D01*
Y0D01*
D02*
G37*
%LPC*%
G36*
X540826Y390500D02*
X539174D01*
X537541Y390242D01*
X535969Y389731D01*
X534497Y388980D01*
X533160Y388009D01*
X531991Y386840D01*
X531020Y385503D01*
X530269Y384031D01*
X529759Y382459D01*
X529500Y380826D01*
Y379174D01*
X529759Y377541D01*
X530269Y375969D01*
X531020Y374497D01*
X531991Y373160D01*
X533160Y371991D01*
X534497Y371020D01*
X535969Y370269D01*
X537541Y369759D01*
X539174Y369500D01*
X540826D01*
X542459Y369759D01*
X544031Y370269D01*
X545503Y371020D01*
X546840Y371991D01*
X548009Y373160D01*
X548980Y374497D01*
X549731Y375969D01*
X550242Y377541D01*
X550500Y379174D01*
Y380826D01*
X550242Y382459D01*
X549731Y384031D01*
X548980Y385503D01*
X548009Y386840D01*
X546840Y388009D01*
X545503Y388980D01*
X544031Y389731D01*
X542459Y390242D01*
X540826Y390500D01*
D02*
G37*
G36*
X20826D02*
X19174D01*
X17541Y390242D01*
X15969Y389731D01*
X14497Y388980D01*
X13160Y388009D01*
X11991Y386840D01*
X11020Y385503D01*
X10269Y384031D01*
X9759Y382459D01*
X9500Y380826D01*
Y379174D01*
X9759Y377541D01*
X10269Y375969D01*
X11020Y374497D01*
X11991Y373160D01*
X13160Y371991D01*
X14497Y371020D01*
X15969Y370269D01*
X17541Y369759D01*
X19174Y369500D01*
X20826D01*
X22459Y369759D01*
X24031Y370269D01*
X25503Y371020D01*
X26840Y371991D01*
X28009Y373160D01*
X28980Y374497D01*
X29731Y375969D01*
X30242Y377541D01*
X30500Y379174D01*
Y380826D01*
X30242Y382459D01*
X29731Y384031D01*
X28980Y385503D01*
X28009Y386840D01*
X26840Y388009D01*
X25503Y388980D01*
X24031Y389731D01*
X22459Y390242D01*
X20826Y390500D01*
D02*
G37*
G36*
X367395Y378000D02*
X366605D01*
X365842Y377796D01*
X365158Y377401D01*
X364599Y376842D01*
X364204Y376158D01*
X364000Y375395D01*
Y374605D01*
X364204Y373842D01*
X364599Y373158D01*
X365158Y372599D01*
X365842Y372204D01*
X365980Y372167D01*
Y343224D01*
X364630D01*
Y339075D01*
X369370D01*
Y343224D01*
X368020D01*
Y372167D01*
X368158Y372204D01*
X368842Y372599D01*
X369401Y373158D01*
X369796Y373842D01*
X370000Y374605D01*
Y375395D01*
X369796Y376158D01*
X369401Y376842D01*
X368842Y377401D01*
X368158Y377796D01*
X367395Y378000D01*
D02*
G37*
G36*
X547395Y367000D02*
X546605D01*
X545842Y366796D01*
X545158Y366401D01*
X544599Y365842D01*
X544204Y365158D01*
X544000Y364395D01*
Y363605D01*
X544204Y362842D01*
X544599Y362158D01*
X545158Y361599D01*
X545842Y361204D01*
X545980Y361167D01*
Y342724D01*
X544630D01*
Y338575D01*
X549370D01*
Y342724D01*
X548020D01*
Y361167D01*
X548158Y361204D01*
X548842Y361599D01*
X549401Y362158D01*
X549796Y362842D01*
X550000Y363605D01*
Y364395D01*
X549796Y365158D01*
X549401Y365842D01*
X548842Y366401D01*
X548158Y366796D01*
X547395Y367000D01*
D02*
G37*
G36*
X522395Y378000D02*
X521605D01*
X520842Y377796D01*
X520158Y377401D01*
X519599Y376842D01*
X519204Y376158D01*
X519000Y375395D01*
Y374605D01*
X519204Y373842D01*
X519599Y373158D01*
X520158Y372599D01*
X520842Y372204D01*
X520980Y372167D01*
Y342724D01*
X519630D01*
Y338575D01*
X524370D01*
Y342724D01*
X523020D01*
Y372167D01*
X523158Y372204D01*
X523842Y372599D01*
X524401Y373158D01*
X524796Y373842D01*
X525000Y374605D01*
Y375395D01*
X524796Y376158D01*
X524401Y376842D01*
X523842Y377401D01*
X523158Y377796D01*
X522395Y378000D01*
D02*
G37*
G36*
X500895D02*
X500105D01*
X499342Y377796D01*
X498658Y377401D01*
X498099Y376842D01*
X497704Y376158D01*
X497500Y375395D01*
Y374605D01*
X497704Y373842D01*
X498099Y373158D01*
X498658Y372599D01*
X499342Y372204D01*
X499480Y372167D01*
Y342724D01*
X498130D01*
Y338575D01*
X502870D01*
Y342724D01*
X501520D01*
Y372167D01*
X501658Y372204D01*
X502342Y372599D01*
X502901Y373158D01*
X503296Y373842D01*
X503500Y374605D01*
Y375395D01*
X503296Y376158D01*
X502901Y376842D01*
X502342Y377401D01*
X501658Y377796D01*
X500895Y378000D01*
D02*
G37*
G36*
X486395D02*
X485605D01*
X484842Y377796D01*
X484158Y377401D01*
X483599Y376842D01*
X483204Y376158D01*
X483000Y375395D01*
Y374605D01*
X483204Y373842D01*
X483599Y373158D01*
X484158Y372599D01*
X484842Y372204D01*
X484980Y372167D01*
Y342724D01*
X483630D01*
Y338575D01*
X488370D01*
Y342724D01*
X487020D01*
Y372167D01*
X487158Y372204D01*
X487842Y372599D01*
X488401Y373158D01*
X488796Y373842D01*
X489000Y374605D01*
Y375395D01*
X488796Y376158D01*
X488401Y376842D01*
X487842Y377401D01*
X487158Y377796D01*
X486395Y378000D01*
D02*
G37*
G36*
X468395D02*
X467605D01*
X466842Y377796D01*
X466158Y377401D01*
X465599Y376842D01*
X465204Y376158D01*
X465000Y375395D01*
Y374605D01*
X465204Y373842D01*
X465599Y373158D01*
X466158Y372599D01*
X466842Y372204D01*
X466980Y372167D01*
Y342724D01*
X465630D01*
Y338575D01*
X470370D01*
Y342724D01*
X469020D01*
Y372167D01*
X469158Y372204D01*
X469842Y372599D01*
X470401Y373158D01*
X470796Y373842D01*
X471000Y374605D01*
Y375395D01*
X470796Y376158D01*
X470401Y376842D01*
X469842Y377401D01*
X469158Y377796D01*
X468395Y378000D01*
D02*
G37*
G36*
X450395D02*
X449605D01*
X448842Y377796D01*
X448158Y377401D01*
X447599Y376842D01*
X447204Y376158D01*
X447000Y375395D01*
Y374605D01*
X447204Y373842D01*
X447599Y373158D01*
X448158Y372599D01*
X448842Y372204D01*
X448980Y372167D01*
Y342724D01*
X447630D01*
Y338575D01*
X452370D01*
Y342724D01*
X451020D01*
Y372167D01*
X451158Y372204D01*
X451842Y372599D01*
X452401Y373158D01*
X452796Y373842D01*
X453000Y374605D01*
Y375395D01*
X452796Y376158D01*
X452401Y376842D01*
X451842Y377401D01*
X451158Y377796D01*
X450395Y378000D01*
D02*
G37*
G36*
X430395D02*
X429605D01*
X428842Y377796D01*
X428158Y377401D01*
X427599Y376842D01*
X427204Y376158D01*
X427000Y375395D01*
Y374605D01*
X427204Y373842D01*
X427599Y373158D01*
X428158Y372599D01*
X428842Y372204D01*
X428980Y372167D01*
Y342724D01*
X427630D01*
Y338575D01*
X432370D01*
Y342724D01*
X431020D01*
Y372167D01*
X431158Y372204D01*
X431842Y372599D01*
X432401Y373158D01*
X432796Y373842D01*
X433000Y374605D01*
Y375395D01*
X432796Y376158D01*
X432401Y376842D01*
X431842Y377401D01*
X431158Y377796D01*
X430395Y378000D01*
D02*
G37*
G36*
X416395D02*
X415605D01*
X414842Y377796D01*
X414158Y377401D01*
X413599Y376842D01*
X413204Y376158D01*
X413000Y375395D01*
Y374605D01*
X413204Y373842D01*
X413599Y373158D01*
X414158Y372599D01*
X414842Y372204D01*
X414980Y372167D01*
Y342724D01*
X413630D01*
Y338575D01*
X418370D01*
Y342724D01*
X417020D01*
Y372167D01*
X417158Y372204D01*
X417842Y372599D01*
X418401Y373158D01*
X418796Y373842D01*
X419000Y374605D01*
Y375395D01*
X418796Y376158D01*
X418401Y376842D01*
X417842Y377401D01*
X417158Y377796D01*
X416395Y378000D01*
D02*
G37*
G36*
X387395D02*
X386605D01*
X385842Y377796D01*
X385158Y377401D01*
X384599Y376842D01*
X384204Y376158D01*
X384000Y375395D01*
Y374605D01*
X384204Y373842D01*
X384599Y373158D01*
X385158Y372599D01*
X385842Y372204D01*
X385980Y372167D01*
Y342724D01*
X384630D01*
Y338575D01*
X389370D01*
Y342724D01*
X388020D01*
Y372167D01*
X388158Y372204D01*
X388842Y372599D01*
X389401Y373158D01*
X389796Y373842D01*
X390000Y374605D01*
Y375395D01*
X389796Y376158D01*
X389401Y376842D01*
X388842Y377401D01*
X388158Y377796D01*
X387395Y378000D01*
D02*
G37*
G36*
X351395D02*
X350605D01*
X349842Y377796D01*
X349158Y377401D01*
X348599Y376842D01*
X348204Y376158D01*
X348000Y375395D01*
Y374605D01*
X348204Y373842D01*
X348599Y373158D01*
X349158Y372599D01*
X349842Y372204D01*
X349980Y372167D01*
Y342724D01*
X348630D01*
Y338575D01*
X353370D01*
Y342724D01*
X352020D01*
Y372167D01*
X352158Y372204D01*
X352842Y372599D01*
X353401Y373158D01*
X353796Y373842D01*
X354000Y374605D01*
Y375395D01*
X353796Y376158D01*
X353401Y376842D01*
X352842Y377401D01*
X352158Y377796D01*
X351395Y378000D01*
D02*
G37*
G36*
X329395D02*
X328605D01*
X327842Y377796D01*
X327158Y377401D01*
X326599Y376842D01*
X326204Y376158D01*
X326000Y375395D01*
Y374605D01*
X326204Y373842D01*
X326599Y373158D01*
X327158Y372599D01*
X327842Y372204D01*
X327980Y372167D01*
Y342724D01*
X326630D01*
Y338575D01*
X331370D01*
Y342724D01*
X330020D01*
Y372167D01*
X330158Y372204D01*
X330842Y372599D01*
X331401Y373158D01*
X331796Y373842D01*
X332000Y374605D01*
Y375395D01*
X331796Y376158D01*
X331401Y376842D01*
X330842Y377401D01*
X330158Y377796D01*
X329395Y378000D01*
D02*
G37*
G36*
X305395D02*
X304605D01*
X303842Y377796D01*
X303158Y377401D01*
X302599Y376842D01*
X302204Y376158D01*
X302000Y375395D01*
Y374605D01*
X302204Y373842D01*
X302599Y373158D01*
X303158Y372599D01*
X303842Y372204D01*
X303980Y372167D01*
Y342724D01*
X302630D01*
Y338575D01*
X307370D01*
Y342724D01*
X306020D01*
Y372167D01*
X306158Y372204D01*
X306842Y372599D01*
X307401Y373158D01*
X307796Y373842D01*
X308000Y374605D01*
Y375395D01*
X307796Y376158D01*
X307401Y376842D01*
X306842Y377401D01*
X306158Y377796D01*
X305395Y378000D01*
D02*
G37*
G36*
X283395D02*
X282605D01*
X281842Y377796D01*
X281158Y377401D01*
X280599Y376842D01*
X280204Y376158D01*
X280000Y375395D01*
Y374605D01*
X280204Y373842D01*
X280599Y373158D01*
X281158Y372599D01*
X281842Y372204D01*
X281980Y372167D01*
Y342724D01*
X280630D01*
Y338575D01*
X285370D01*
Y342724D01*
X284020D01*
Y372167D01*
X284158Y372204D01*
X284842Y372599D01*
X285401Y373158D01*
X285796Y373842D01*
X286000Y374605D01*
Y375395D01*
X285796Y376158D01*
X285401Y376842D01*
X284842Y377401D01*
X284158Y377796D01*
X283395Y378000D01*
D02*
G37*
G36*
X263395D02*
X262605D01*
X261842Y377796D01*
X261158Y377401D01*
X260599Y376842D01*
X260204Y376158D01*
X260000Y375395D01*
Y374605D01*
X260204Y373842D01*
X260599Y373158D01*
X261158Y372599D01*
X261842Y372204D01*
X261980Y372167D01*
Y342724D01*
X260630D01*
Y338575D01*
X265370D01*
Y342724D01*
X264020D01*
Y372167D01*
X264158Y372204D01*
X264842Y372599D01*
X265401Y373158D01*
X265796Y373842D01*
X266000Y374605D01*
Y375395D01*
X265796Y376158D01*
X265401Y376842D01*
X264842Y377401D01*
X264158Y377796D01*
X263395Y378000D01*
D02*
G37*
G36*
X242395D02*
X241605D01*
X240842Y377796D01*
X240158Y377401D01*
X239599Y376842D01*
X239204Y376158D01*
X239000Y375395D01*
Y374605D01*
X239204Y373842D01*
X239599Y373158D01*
X240158Y372599D01*
X240842Y372204D01*
X240980Y372167D01*
Y342724D01*
X239630D01*
Y338575D01*
X244370D01*
Y342724D01*
X243020D01*
Y372167D01*
X243158Y372204D01*
X243842Y372599D01*
X244401Y373158D01*
X244796Y373842D01*
X245000Y374605D01*
Y375395D01*
X244796Y376158D01*
X244401Y376842D01*
X243842Y377401D01*
X243158Y377796D01*
X242395Y378000D01*
D02*
G37*
G36*
X218395D02*
X217605D01*
X216842Y377796D01*
X216158Y377401D01*
X215599Y376842D01*
X215204Y376158D01*
X215000Y375395D01*
Y374605D01*
X215204Y373842D01*
X215599Y373158D01*
X216158Y372599D01*
X216842Y372204D01*
X216980Y372167D01*
Y342724D01*
X215630D01*
Y338575D01*
X220370D01*
Y342724D01*
X219020D01*
Y372167D01*
X219158Y372204D01*
X219842Y372599D01*
X220401Y373158D01*
X220796Y373842D01*
X221000Y374605D01*
Y375395D01*
X220796Y376158D01*
X220401Y376842D01*
X219842Y377401D01*
X219158Y377796D01*
X218395Y378000D01*
D02*
G37*
G36*
X205395D02*
X204605D01*
X203842Y377796D01*
X203158Y377401D01*
X202599Y376842D01*
X202204Y376158D01*
X202000Y375395D01*
Y374605D01*
X202204Y373842D01*
X202599Y373158D01*
X203158Y372599D01*
X203842Y372204D01*
X203980Y372167D01*
Y342724D01*
X202630D01*
Y338575D01*
X207370D01*
Y342724D01*
X206020D01*
Y372167D01*
X206158Y372204D01*
X206842Y372599D01*
X207401Y373158D01*
X207796Y373842D01*
X208000Y374605D01*
Y375395D01*
X207796Y376158D01*
X207401Y376842D01*
X206842Y377401D01*
X206158Y377796D01*
X205395Y378000D01*
D02*
G37*
G36*
X192895D02*
X192105D01*
X191342Y377796D01*
X190658Y377401D01*
X190099Y376842D01*
X189704Y376158D01*
X189500Y375395D01*
Y374605D01*
X189704Y373842D01*
X190099Y373158D01*
X190658Y372599D01*
X191342Y372204D01*
X191480Y372167D01*
Y342724D01*
X190130D01*
Y338575D01*
X194870D01*
Y342724D01*
X193520D01*
Y372167D01*
X193658Y372204D01*
X194342Y372599D01*
X194901Y373158D01*
X195296Y373842D01*
X195500Y374605D01*
Y375395D01*
X195296Y376158D01*
X194901Y376842D01*
X194342Y377401D01*
X193658Y377796D01*
X192895Y378000D01*
D02*
G37*
G36*
X177895D02*
X177105D01*
X176342Y377796D01*
X175658Y377401D01*
X175099Y376842D01*
X174704Y376158D01*
X174500Y375395D01*
Y374605D01*
X174704Y373842D01*
X175099Y373158D01*
X175658Y372599D01*
X176342Y372204D01*
X176480Y372167D01*
Y342724D01*
X175130D01*
Y338575D01*
X179870D01*
Y342724D01*
X178520D01*
Y372167D01*
X178658Y372204D01*
X179342Y372599D01*
X179901Y373158D01*
X180296Y373842D01*
X180500Y374605D01*
Y375395D01*
X180296Y376158D01*
X179901Y376842D01*
X179342Y377401D01*
X178658Y377796D01*
X177895Y378000D01*
D02*
G37*
G36*
X162895D02*
X162105D01*
X161342Y377796D01*
X160658Y377401D01*
X160099Y376842D01*
X159704Y376158D01*
X159500Y375395D01*
Y374605D01*
X159704Y373842D01*
X160099Y373158D01*
X160658Y372599D01*
X161342Y372204D01*
X161480Y372167D01*
Y342724D01*
X160130D01*
Y338575D01*
X164870D01*
Y342724D01*
X163520D01*
Y372167D01*
X163658Y372204D01*
X164342Y372599D01*
X164901Y373158D01*
X165296Y373842D01*
X165500Y374605D01*
Y375395D01*
X165296Y376158D01*
X164901Y376842D01*
X164342Y377401D01*
X163658Y377796D01*
X162895Y378000D01*
D02*
G37*
G36*
X145395D02*
X144605D01*
X143842Y377796D01*
X143158Y377401D01*
X142599Y376842D01*
X142204Y376158D01*
X142000Y375395D01*
Y374605D01*
X142204Y373842D01*
X142599Y373158D01*
X143158Y372599D01*
X143842Y372204D01*
X143980Y372167D01*
Y342724D01*
X142630D01*
Y338575D01*
X147370D01*
Y342724D01*
X146020D01*
Y372167D01*
X146158Y372204D01*
X146842Y372599D01*
X147401Y373158D01*
X147796Y373842D01*
X148000Y374605D01*
Y375395D01*
X147796Y376158D01*
X147401Y376842D01*
X146842Y377401D01*
X146158Y377796D01*
X145395Y378000D01*
D02*
G37*
G36*
X135395D02*
X134605D01*
X133842Y377796D01*
X133158Y377401D01*
X132599Y376842D01*
X132204Y376158D01*
X132000Y375395D01*
Y374605D01*
X132204Y373842D01*
X132599Y373158D01*
X133158Y372599D01*
X133842Y372204D01*
X133980Y372167D01*
Y342724D01*
X132630D01*
Y338575D01*
X137370D01*
Y342724D01*
X136020D01*
Y372167D01*
X136158Y372204D01*
X136842Y372599D01*
X137401Y373158D01*
X137796Y373842D01*
X138000Y374605D01*
Y375395D01*
X137796Y376158D01*
X137401Y376842D01*
X136842Y377401D01*
X136158Y377796D01*
X135395Y378000D01*
D02*
G37*
G36*
X125395D02*
X124605D01*
X123842Y377796D01*
X123158Y377401D01*
X122599Y376842D01*
X122204Y376158D01*
X122000Y375395D01*
Y374605D01*
X122204Y373842D01*
X122599Y373158D01*
X123158Y372599D01*
X123842Y372204D01*
X123980Y372167D01*
Y342724D01*
X122630D01*
Y338575D01*
X127370D01*
Y342724D01*
X126020D01*
Y372167D01*
X126158Y372204D01*
X126842Y372599D01*
X127401Y373158D01*
X127796Y373842D01*
X128000Y374605D01*
Y375395D01*
X127796Y376158D01*
X127401Y376842D01*
X126842Y377401D01*
X126158Y377796D01*
X125395Y378000D01*
D02*
G37*
G36*
X115395D02*
X114605D01*
X113842Y377796D01*
X113158Y377401D01*
X112599Y376842D01*
X112204Y376158D01*
X112000Y375395D01*
Y374605D01*
X112204Y373842D01*
X112599Y373158D01*
X113158Y372599D01*
X113842Y372204D01*
X113980Y372167D01*
Y342724D01*
X112630D01*
Y338575D01*
X117370D01*
Y342724D01*
X116020D01*
Y372167D01*
X116158Y372204D01*
X116842Y372599D01*
X117401Y373158D01*
X117796Y373842D01*
X118000Y374605D01*
Y375395D01*
X117796Y376158D01*
X117401Y376842D01*
X116842Y377401D01*
X116158Y377796D01*
X115395Y378000D01*
D02*
G37*
G36*
X105395D02*
X104605D01*
X103842Y377796D01*
X103158Y377401D01*
X102599Y376842D01*
X102204Y376158D01*
X102000Y375395D01*
Y374605D01*
X102204Y373842D01*
X102599Y373158D01*
X103158Y372599D01*
X103842Y372204D01*
X103980Y372167D01*
Y342724D01*
X102630D01*
Y338575D01*
X107370D01*
Y342724D01*
X106020D01*
Y372167D01*
X106158Y372204D01*
X106842Y372599D01*
X107401Y373158D01*
X107796Y373842D01*
X108000Y374605D01*
Y375395D01*
X107796Y376158D01*
X107401Y376842D01*
X106842Y377401D01*
X106158Y377796D01*
X105395Y378000D01*
D02*
G37*
G36*
X95395D02*
X94605D01*
X93842Y377796D01*
X93158Y377401D01*
X92599Y376842D01*
X92204Y376158D01*
X92000Y375395D01*
Y374605D01*
X92204Y373842D01*
X92599Y373158D01*
X93158Y372599D01*
X93842Y372204D01*
X93980Y372167D01*
Y342724D01*
X92630D01*
Y338575D01*
X97370D01*
Y342724D01*
X96020D01*
Y372167D01*
X96158Y372204D01*
X96842Y372599D01*
X97401Y373158D01*
X97796Y373842D01*
X98000Y374605D01*
Y375395D01*
X97796Y376158D01*
X97401Y376842D01*
X96842Y377401D01*
X96158Y377796D01*
X95395Y378000D01*
D02*
G37*
G36*
X85395D02*
X84605D01*
X83842Y377796D01*
X83158Y377401D01*
X82599Y376842D01*
X82204Y376158D01*
X82000Y375395D01*
Y374605D01*
X82204Y373842D01*
X82599Y373158D01*
X83158Y372599D01*
X83842Y372204D01*
X83980Y372167D01*
Y342724D01*
X82630D01*
Y338575D01*
X87370D01*
Y342724D01*
X86020D01*
Y372167D01*
X86158Y372204D01*
X86842Y372599D01*
X87401Y373158D01*
X87796Y373842D01*
X88000Y374605D01*
Y375395D01*
X87796Y376158D01*
X87401Y376842D01*
X86842Y377401D01*
X86158Y377796D01*
X85395Y378000D01*
D02*
G37*
G36*
X75395D02*
X74605D01*
X73842Y377796D01*
X73158Y377401D01*
X72599Y376842D01*
X72204Y376158D01*
X72000Y375395D01*
Y374605D01*
X72204Y373842D01*
X72599Y373158D01*
X73158Y372599D01*
X73842Y372204D01*
X73980Y372167D01*
Y342724D01*
X72630D01*
Y338575D01*
X77370D01*
Y342724D01*
X76020D01*
Y372167D01*
X76158Y372204D01*
X76842Y372599D01*
X77401Y373158D01*
X77796Y373842D01*
X78000Y374605D01*
Y375395D01*
X77796Y376158D01*
X77401Y376842D01*
X76842Y377401D01*
X76158Y377796D01*
X75395Y378000D01*
D02*
G37*
G36*
X535395Y344000D02*
X534605D01*
X533842Y343796D01*
X533158Y343401D01*
X532599Y342842D01*
X532204Y342158D01*
X532000Y341395D01*
Y340605D01*
X532204Y339842D01*
X532599Y339158D01*
X533158Y338599D01*
X533842Y338204D01*
X534605Y338000D01*
X535395D01*
X536158Y338204D01*
X536842Y338599D01*
X537401Y339158D01*
X537796Y339842D01*
X538000Y340605D01*
Y341395D01*
X537796Y342158D01*
X537401Y342842D01*
X536842Y343401D01*
X536158Y343796D01*
X535395Y344000D01*
D02*
G37*
G36*
X509395Y353000D02*
X508605D01*
X507842Y352796D01*
X507158Y352401D01*
X506599Y351842D01*
X506204Y351158D01*
X506000Y350395D01*
Y349605D01*
X506204Y348842D01*
X506599Y348158D01*
X507158Y347599D01*
X507842Y347204D01*
X507980Y347167D01*
Y335422D01*
X507928Y335370D01*
X502870D01*
Y336425D01*
X498130D01*
Y335370D01*
X488370D01*
Y336425D01*
X483630D01*
Y335370D01*
X470370D01*
Y336425D01*
X465630D01*
Y335370D01*
X452370D01*
Y336425D01*
X447630D01*
Y335370D01*
X432370D01*
Y336425D01*
X427630D01*
Y335370D01*
X418370D01*
Y336425D01*
X413630D01*
Y332276D01*
X418370D01*
Y333331D01*
X427630D01*
Y332276D01*
X432370D01*
Y333331D01*
X447630D01*
Y332276D01*
X452370D01*
Y333331D01*
X465630D01*
Y332276D01*
X470370D01*
Y333331D01*
X483630D01*
Y332276D01*
X488370D01*
Y333331D01*
X498130D01*
Y332276D01*
X502870D01*
Y333331D01*
X508350D01*
X508741Y333408D01*
X509071Y333629D01*
X509721Y334279D01*
X509942Y334610D01*
X510020Y335000D01*
Y347167D01*
X510158Y347204D01*
X510842Y347599D01*
X511401Y348158D01*
X511796Y348842D01*
X512000Y349605D01*
Y350395D01*
X511796Y351158D01*
X511401Y351842D01*
X510842Y352401D01*
X510158Y352796D01*
X509395Y353000D01*
D02*
G37*
G36*
X339395Y345000D02*
X338605D01*
X337842Y344796D01*
X337158Y344401D01*
X336599Y343842D01*
X336204Y343158D01*
X336000Y342395D01*
Y341605D01*
X336204Y340842D01*
X336599Y340158D01*
X337158Y339599D01*
X337842Y339204D01*
X337980Y339167D01*
Y335370D01*
X331370D01*
Y336425D01*
X326630D01*
Y335370D01*
X307370D01*
Y336425D01*
X302630D01*
Y335370D01*
X285370D01*
Y336425D01*
X280630D01*
Y335370D01*
X265370D01*
Y336425D01*
X260630D01*
Y335370D01*
X244370D01*
Y336425D01*
X239630D01*
Y332276D01*
X244370D01*
Y333331D01*
X260630D01*
Y332276D01*
X265370D01*
Y333331D01*
X280630D01*
Y332276D01*
X285370D01*
Y333331D01*
X302630D01*
Y332276D01*
X307370D01*
Y333331D01*
X326630D01*
Y332276D01*
X331370D01*
Y333331D01*
X348630D01*
Y332276D01*
X353370D01*
Y333331D01*
X364630D01*
Y332776D01*
X369370D01*
Y333331D01*
X384630D01*
Y332276D01*
X389370D01*
Y336425D01*
X384630D01*
Y335370D01*
X369370D01*
Y336925D01*
X364630D01*
Y335370D01*
X353370D01*
Y336425D01*
X348630D01*
Y335370D01*
X340020D01*
Y339167D01*
X340158Y339204D01*
X340842Y339599D01*
X341401Y340158D01*
X341796Y340842D01*
X342000Y341605D01*
Y342395D01*
X341796Y343158D01*
X341401Y343842D01*
X340842Y344401D01*
X340158Y344796D01*
X339395Y345000D01*
D02*
G37*
G36*
X228395Y352000D02*
X227605D01*
X226842Y351796D01*
X226158Y351401D01*
X225599Y350842D01*
X225204Y350158D01*
X225000Y349395D01*
Y348605D01*
X225204Y347842D01*
X225599Y347158D01*
X226158Y346599D01*
X226842Y346204D01*
X226980Y346167D01*
Y336422D01*
X225928Y335370D01*
X220370D01*
Y336425D01*
X215630D01*
Y335370D01*
X207370D01*
Y336425D01*
X202630D01*
Y335370D01*
X194870D01*
Y336425D01*
X190130D01*
Y335370D01*
X179870D01*
Y336425D01*
X175130D01*
Y335370D01*
X164870D01*
Y336425D01*
X160130D01*
Y332276D01*
X164870D01*
Y333331D01*
X175130D01*
Y332276D01*
X179870D01*
Y333331D01*
X190130D01*
Y332276D01*
X194870D01*
Y333331D01*
X202630D01*
Y332276D01*
X207370D01*
Y333331D01*
X215630D01*
Y332276D01*
X220370D01*
Y333331D01*
X226350D01*
X226741Y333408D01*
X227071Y333629D01*
X228721Y335279D01*
X228942Y335610D01*
X229020Y336000D01*
Y346167D01*
X229158Y346204D01*
X229842Y346599D01*
X230401Y347158D01*
X230796Y347842D01*
X231000Y348605D01*
Y349395D01*
X230796Y350158D01*
X230401Y350842D01*
X229842Y351401D01*
X229158Y351796D01*
X228395Y352000D01*
D02*
G37*
G36*
X153395Y353000D02*
X152605D01*
X151842Y352796D01*
X151158Y352401D01*
X150599Y351842D01*
X150204Y351158D01*
X150000Y350395D01*
Y349605D01*
X150204Y348842D01*
X150599Y348158D01*
X151158Y347599D01*
X151842Y347204D01*
X151980Y347167D01*
Y335422D01*
X151928Y335370D01*
X147370D01*
Y336425D01*
X142630D01*
Y335370D01*
X137370D01*
Y336425D01*
X132630D01*
Y335370D01*
X127370D01*
Y336425D01*
X122630D01*
Y335370D01*
X117370D01*
Y336425D01*
X112630D01*
Y335370D01*
X107370D01*
Y336425D01*
X102630D01*
Y335370D01*
X97370D01*
Y336425D01*
X92630D01*
Y335370D01*
X87370D01*
Y336425D01*
X82630D01*
Y335370D01*
X77370D01*
Y336425D01*
X72630D01*
Y332276D01*
X77370D01*
Y333331D01*
X82630D01*
Y332276D01*
X87370D01*
Y333331D01*
X92630D01*
Y332276D01*
X97370D01*
Y333331D01*
X102630D01*
Y332276D01*
X107370D01*
Y333331D01*
X112630D01*
Y332276D01*
X117370D01*
Y333331D01*
X122630D01*
Y332276D01*
X127370D01*
Y333331D01*
X132630D01*
Y332276D01*
X137370D01*
Y333331D01*
X142630D01*
Y332276D01*
X147370D01*
Y333331D01*
X152350D01*
X152741Y333408D01*
X153071Y333629D01*
X153721Y334279D01*
X153942Y334610D01*
X154020Y335000D01*
Y347167D01*
X154158Y347204D01*
X154842Y347599D01*
X155401Y348158D01*
X155796Y348842D01*
X156000Y349605D01*
Y350395D01*
X155796Y351158D01*
X155401Y351842D01*
X154842Y352401D01*
X154158Y352796D01*
X153395Y353000D01*
D02*
G37*
G36*
X549370Y336425D02*
X544630D01*
Y335370D01*
X535586D01*
X535196Y335292D01*
X534865Y335071D01*
X534279Y334486D01*
X534058Y334155D01*
X533980Y333765D01*
Y324833D01*
X533842Y324796D01*
X533158Y324401D01*
X532599Y323842D01*
X532204Y323158D01*
X532000Y322395D01*
Y321605D01*
X532204Y320842D01*
X532599Y320158D01*
X533158Y319599D01*
X533842Y319204D01*
X534605Y319000D01*
X535395D01*
X536158Y319204D01*
X536842Y319599D01*
X537401Y320158D01*
X537796Y320842D01*
X538000Y321605D01*
Y322395D01*
X537796Y323158D01*
X537401Y323842D01*
X536842Y324401D01*
X536158Y324796D01*
X536020Y324833D01*
Y333331D01*
X544630D01*
Y332276D01*
X549370D01*
Y336425D01*
D02*
G37*
G36*
X397395Y328000D02*
X396605D01*
X395842Y327796D01*
X395158Y327401D01*
X394599Y326842D01*
X394204Y326158D01*
X394000Y325395D01*
Y324605D01*
X394204Y323842D01*
X394599Y323158D01*
X395158Y322599D01*
X395842Y322204D01*
X396605Y322000D01*
X397395D01*
X398158Y322204D01*
X398842Y322599D01*
X399401Y323158D01*
X399796Y323842D01*
X399833Y323980D01*
X447000D01*
Y323605D01*
X447204Y322842D01*
X447391Y322520D01*
X447102Y322020D01*
X413586D01*
X413196Y321942D01*
X412961Y321785D01*
X411434D01*
X411401Y321842D01*
X410842Y322401D01*
X410158Y322796D01*
X409395Y323000D01*
X408605D01*
X407842Y322796D01*
X407158Y322401D01*
X406599Y321842D01*
X406204Y321158D01*
X406000Y320395D01*
Y319605D01*
X406204Y318842D01*
X406599Y318158D01*
X407158Y317599D01*
X407842Y317204D01*
X408605Y317000D01*
X409395D01*
X410158Y317204D01*
X410842Y317599D01*
X411401Y318158D01*
X411796Y318842D01*
X412000Y319605D01*
Y319746D01*
X413351D01*
X413741Y319823D01*
X413976Y319980D01*
X447628D01*
X447829Y319779D01*
X448160Y319558D01*
X448550Y319480D01*
X465413D01*
X465599Y319158D01*
X466158Y318599D01*
X466842Y318204D01*
X467605Y318000D01*
X468395D01*
X469158Y318204D01*
X469842Y318599D01*
X470401Y319158D01*
X470796Y319842D01*
X471000Y320605D01*
Y321395D01*
X470796Y322158D01*
X470401Y322842D01*
X469842Y323401D01*
X469158Y323796D01*
X468395Y324000D01*
X467605D01*
X466842Y323796D01*
X466158Y323401D01*
X465599Y322842D01*
X465204Y322158D01*
X465033Y321520D01*
X452469D01*
X452262Y322020D01*
X452401Y322158D01*
X452796Y322842D01*
X453000Y323605D01*
Y324395D01*
X452796Y325158D01*
X452401Y325842D01*
X451842Y326401D01*
X451158Y326796D01*
X450395Y327000D01*
X449605D01*
X448842Y326796D01*
X448158Y326401D01*
X447717Y325959D01*
X447414Y326020D01*
X399833D01*
X399796Y326158D01*
X399401Y326842D01*
X398842Y327401D01*
X398158Y327796D01*
X397395Y328000D01*
D02*
G37*
G36*
X374130Y330890D02*
X238871D01*
X238480Y330813D01*
X238149Y330591D01*
X225279Y317721D01*
X225058Y317390D01*
X224980Y317000D01*
Y291422D01*
X220282Y286724D01*
X220158Y286796D01*
X219395Y287000D01*
X218605D01*
X217842Y286796D01*
X217158Y286401D01*
X216599Y285842D01*
X216204Y285158D01*
X216000Y284395D01*
Y283605D01*
X216204Y282842D01*
X216599Y282158D01*
X217158Y281599D01*
X217842Y281204D01*
X218605Y281000D01*
X219395D01*
X220158Y281204D01*
X220842Y281599D01*
X221401Y282158D01*
X221796Y282842D01*
X222000Y283605D01*
Y284395D01*
X221796Y285158D01*
X221724Y285282D01*
X226721Y290279D01*
X226942Y290610D01*
X227020Y291000D01*
Y316578D01*
X231264Y320822D01*
X231301Y320817D01*
X231746Y320597D01*
Y305740D01*
X231158Y305401D01*
X230599Y304842D01*
X230204Y304158D01*
X230000Y303395D01*
Y302605D01*
X230204Y301842D01*
X230599Y301158D01*
X231158Y300599D01*
X231842Y300204D01*
X232605Y300000D01*
X233395D01*
X234158Y300204D01*
X234842Y300599D01*
X235401Y301158D01*
X235796Y301842D01*
X236000Y302605D01*
Y303395D01*
X235796Y304158D01*
X235401Y304842D01*
X234842Y305401D01*
X234158Y305796D01*
X233785Y305895D01*
Y320343D01*
X240422Y326980D01*
X315578D01*
X318279Y324279D01*
X318610Y324058D01*
X319000Y323980D01*
X340167D01*
X340204Y323842D01*
X340599Y323158D01*
X341158Y322599D01*
X341842Y322204D01*
X342605Y322000D01*
X343395D01*
X344158Y322204D01*
X344842Y322599D01*
X345401Y323158D01*
X345796Y323842D01*
X346000Y324605D01*
Y325395D01*
X345796Y326158D01*
X345401Y326842D01*
X344842Y327401D01*
X344158Y327796D01*
X343395Y328000D01*
X342605D01*
X341842Y327796D01*
X341158Y327401D01*
X340599Y326842D01*
X340204Y326158D01*
X340167Y326020D01*
X319422D01*
X317091Y328351D01*
X317298Y328851D01*
X373707D01*
X377276Y325282D01*
X377204Y325158D01*
X377000Y324395D01*
Y323605D01*
X377204Y322842D01*
X377599Y322158D01*
X378158Y321599D01*
X378842Y321204D01*
X379605Y321000D01*
X380395D01*
X381158Y321204D01*
X381842Y321599D01*
X382401Y322158D01*
X382796Y322842D01*
X383000Y323605D01*
Y324395D01*
X382796Y325158D01*
X382401Y325842D01*
X381842Y326401D01*
X381158Y326796D01*
X380395Y327000D01*
X379605D01*
X378842Y326796D01*
X378718Y326724D01*
X374851Y330591D01*
X374520Y330813D01*
X374130Y330890D01*
D02*
G37*
G36*
X364395Y320000D02*
X363605D01*
X362842Y319796D01*
X362158Y319401D01*
X361599Y318842D01*
X361204Y318158D01*
X361167Y318020D01*
X316833D01*
X316796Y318158D01*
X316401Y318842D01*
X315842Y319401D01*
X315158Y319796D01*
X314395Y320000D01*
X313605D01*
X312842Y319796D01*
X312158Y319401D01*
X311599Y318842D01*
X311204Y318158D01*
X311000Y317395D01*
Y316605D01*
X311204Y315842D01*
X311599Y315158D01*
X312158Y314599D01*
X312842Y314204D01*
X313605Y314000D01*
X314395D01*
X315158Y314204D01*
X315842Y314599D01*
X316401Y315158D01*
X316796Y315842D01*
X316833Y315980D01*
X361167D01*
X361204Y315842D01*
X361599Y315158D01*
X362158Y314599D01*
X362842Y314204D01*
X363605Y314000D01*
X364395D01*
X365158Y314204D01*
X365842Y314599D01*
X366401Y315158D01*
X366796Y315842D01*
X367000Y316605D01*
Y317395D01*
X366796Y318158D01*
X366401Y318842D01*
X365842Y319401D01*
X365158Y319796D01*
X364395Y320000D01*
D02*
G37*
G36*
X486395Y323000D02*
X485605D01*
X484842Y322796D01*
X484158Y322401D01*
X483599Y321842D01*
X483204Y321158D01*
X483000Y320395D01*
Y319605D01*
X483204Y318842D01*
X483276Y318718D01*
X479578Y315020D01*
X406833D01*
X406796Y315158D01*
X406401Y315842D01*
X405842Y316401D01*
X405158Y316796D01*
X404395Y317000D01*
X403605D01*
X402842Y316796D01*
X402158Y316401D01*
X401599Y315842D01*
X401204Y315158D01*
X401000Y314395D01*
Y313605D01*
X401204Y312842D01*
X401599Y312158D01*
X402158Y311599D01*
X402842Y311204D01*
X403605Y311000D01*
X404395D01*
X405158Y311204D01*
X405842Y311599D01*
X406401Y312158D01*
X406796Y312842D01*
X406833Y312980D01*
X480000D01*
X480390Y313058D01*
X480721Y313279D01*
X484718Y317276D01*
X484842Y317204D01*
X485605Y317000D01*
X486395D01*
X487158Y317204D01*
X487842Y317599D01*
X488401Y318158D01*
X488796Y318842D01*
X489000Y319605D01*
Y320395D01*
X488796Y321158D01*
X488401Y321842D01*
X487842Y322401D01*
X487158Y322796D01*
X486395Y323000D01*
D02*
G37*
G36*
X430395Y312000D02*
X429605D01*
X428842Y311796D01*
X428158Y311401D01*
X427599Y310842D01*
X427204Y310158D01*
X427167Y310020D01*
X421000D01*
X420610Y309942D01*
X420279Y309721D01*
X417279Y306721D01*
X417058Y306390D01*
X416980Y306000D01*
Y275360D01*
X416495Y274973D01*
X416395Y275000D01*
X415605D01*
X414842Y274796D01*
X414158Y274401D01*
X413599Y273842D01*
X413204Y273158D01*
X413000Y272395D01*
Y271605D01*
X413204Y270842D01*
X413599Y270158D01*
X414158Y269599D01*
X414842Y269204D01*
X415605Y269000D01*
X416395D01*
X417158Y269204D01*
X417842Y269599D01*
X418401Y270158D01*
X418796Y270842D01*
X419000Y271605D01*
Y272395D01*
X418796Y273158D01*
X418509Y273653D01*
X418721Y273865D01*
X418942Y274196D01*
X419020Y274586D01*
Y305578D01*
X421422Y307980D01*
X427167D01*
X427204Y307842D01*
X427599Y307158D01*
X428158Y306599D01*
X428842Y306204D01*
X429605Y306000D01*
X430395D01*
X431158Y306204D01*
X431842Y306599D01*
X432401Y307158D01*
X432796Y307842D01*
X433000Y308605D01*
Y309395D01*
X432796Y310158D01*
X432401Y310842D01*
X431842Y311401D01*
X431158Y311796D01*
X430395Y312000D01*
D02*
G37*
G36*
X129395Y301000D02*
X128605D01*
X127842Y300796D01*
X127158Y300401D01*
X126599Y299842D01*
X126204Y299158D01*
X126000Y298395D01*
Y297605D01*
X126204Y296842D01*
X126276Y296718D01*
X116279Y286721D01*
X116058Y286390D01*
X115980Y286000D01*
Y167833D01*
X115842Y167796D01*
X115158Y167401D01*
X114599Y166842D01*
X114204Y166158D01*
X114000Y165395D01*
Y164605D01*
X114204Y163842D01*
X114599Y163158D01*
X115158Y162599D01*
X115842Y162204D01*
X116605Y162000D01*
X117395D01*
X118158Y162204D01*
X118282Y162276D01*
X121980Y158578D01*
Y152422D01*
X120578Y151020D01*
X103586D01*
X103196Y150942D01*
X102865Y150721D01*
X102279Y150135D01*
X102058Y149804D01*
X101980Y149414D01*
Y92000D01*
X102058Y91610D01*
X102279Y91279D01*
X117279Y76279D01*
X117610Y76058D01*
X118000Y75980D01*
X209167D01*
X209204Y75842D01*
X209599Y75158D01*
X210158Y74599D01*
X210842Y74204D01*
X211605Y74000D01*
X212395D01*
X213158Y74204D01*
X213842Y74599D01*
X214401Y75158D01*
X214796Y75842D01*
X215000Y76605D01*
Y77395D01*
X214796Y78158D01*
X214401Y78842D01*
X213842Y79401D01*
X213158Y79796D01*
X212395Y80000D01*
X211605D01*
X210842Y79796D01*
X210158Y79401D01*
X209599Y78842D01*
X209204Y78158D01*
X209167Y78020D01*
X118422D01*
X104020Y92422D01*
Y148980D01*
X121000D01*
X121390Y149058D01*
X121721Y149279D01*
X123721Y151279D01*
X123942Y151610D01*
X124020Y152000D01*
Y159000D01*
X123942Y159390D01*
X123721Y159721D01*
X119724Y163718D01*
X119796Y163842D01*
X120000Y164605D01*
Y165395D01*
X119796Y166158D01*
X119401Y166842D01*
X118842Y167401D01*
X118158Y167796D01*
X118020Y167833D01*
Y285578D01*
X118498Y286056D01*
X118535Y286052D01*
X118980Y285831D01*
Y171000D01*
X119058Y170610D01*
X119279Y170279D01*
X124980Y164578D01*
Y151422D01*
X121282Y147724D01*
X121158Y147796D01*
X120395Y148000D01*
X119605D01*
X118842Y147796D01*
X118158Y147401D01*
X117599Y146842D01*
X117204Y146158D01*
X117167Y146020D01*
X108586D01*
X108196Y145942D01*
X107865Y145721D01*
X107279Y145135D01*
X107058Y144804D01*
X106980Y144414D01*
Y94000D01*
X107058Y93610D01*
X107279Y93279D01*
X121279Y79279D01*
X121610Y79058D01*
X122000Y78980D01*
X197000D01*
X197390Y79058D01*
X197721Y79279D01*
X202422Y83980D01*
X222167D01*
X222204Y83842D01*
X222599Y83158D01*
X223158Y82599D01*
X223842Y82204D01*
X224605Y82000D01*
X225395D01*
X226158Y82204D01*
X226842Y82599D01*
X227401Y83158D01*
X227796Y83842D01*
X228000Y84605D01*
Y85395D01*
X227796Y86158D01*
X227401Y86842D01*
X226842Y87401D01*
X226158Y87796D01*
X225395Y88000D01*
X224605D01*
X223842Y87796D01*
X223158Y87401D01*
X222599Y86842D01*
X222204Y86158D01*
X222167Y86020D01*
X202000D01*
X201610Y85942D01*
X201279Y85721D01*
X196578Y81020D01*
X122422D01*
X109020Y94422D01*
Y143980D01*
X117167D01*
X117204Y143842D01*
X117599Y143158D01*
X118158Y142599D01*
X118842Y142204D01*
X119605Y142000D01*
X120395D01*
X121158Y142204D01*
X121842Y142599D01*
X122401Y143158D01*
X122796Y143842D01*
X123000Y144605D01*
Y145395D01*
X122796Y146158D01*
X122724Y146282D01*
X126721Y150279D01*
X126942Y150610D01*
X127020Y151000D01*
Y165000D01*
X126942Y165390D01*
X126721Y165721D01*
X121020Y171422D01*
Y285578D01*
X127422Y291980D01*
X140738D01*
Y290735D01*
X140158Y290401D01*
X139599Y289842D01*
X139204Y289158D01*
X139000Y288395D01*
Y287605D01*
X139204Y286842D01*
X139599Y286158D01*
X140158Y285599D01*
X140842Y285204D01*
X141605Y285000D01*
X142395D01*
X143158Y285204D01*
X143842Y285599D01*
X144401Y286158D01*
X144796Y286842D01*
X145000Y287605D01*
Y288395D01*
X144796Y289158D01*
X144401Y289842D01*
X143842Y290401D01*
X143158Y290796D01*
X142777Y290898D01*
Y292414D01*
X142699Y292804D01*
X142478Y293135D01*
X141893Y293721D01*
X141562Y293942D01*
X141172Y294020D01*
X127169D01*
X126948Y294465D01*
X126944Y294502D01*
X127718Y295276D01*
X127842Y295204D01*
X128605Y295000D01*
X129395D01*
X130158Y295204D01*
X130842Y295599D01*
X131401Y296158D01*
X131796Y296842D01*
X132000Y297605D01*
Y298395D01*
X131796Y299158D01*
X131401Y299842D01*
X130842Y300401D01*
X130158Y300796D01*
X129395Y301000D01*
D02*
G37*
G36*
X201395Y325000D02*
X200605D01*
X199842Y324796D01*
X199158Y324401D01*
X198599Y323842D01*
X198204Y323158D01*
X198000Y322395D01*
Y321605D01*
X198204Y320842D01*
X198599Y320158D01*
X199158Y319599D01*
X199842Y319204D01*
X199980Y319167D01*
Y303000D01*
X200058Y302610D01*
X200279Y302279D01*
X205276Y297282D01*
X205204Y297158D01*
X205000Y296395D01*
Y295605D01*
X205204Y294842D01*
X205599Y294158D01*
X206158Y293599D01*
X206842Y293204D01*
X207605Y293000D01*
X208395D01*
X209158Y293204D01*
X209842Y293599D01*
X210401Y294158D01*
X210796Y294842D01*
X211000Y295605D01*
Y296395D01*
X210796Y297158D01*
X210401Y297842D01*
X209842Y298401D01*
X209158Y298796D01*
X208395Y299000D01*
X207605D01*
X206842Y298796D01*
X206718Y298724D01*
X202020Y303422D01*
Y319167D01*
X202158Y319204D01*
X202842Y319599D01*
X203401Y320158D01*
X203796Y320842D01*
X204000Y321605D01*
Y322395D01*
X203796Y323158D01*
X203401Y323842D01*
X202842Y324401D01*
X202158Y324796D01*
X201395Y325000D01*
D02*
G37*
G36*
X218395D02*
X217605D01*
X216842Y324796D01*
X216158Y324401D01*
X215599Y323842D01*
X215204Y323158D01*
X215000Y322395D01*
Y321605D01*
X215204Y320842D01*
X215599Y320158D01*
X216158Y319599D01*
X216842Y319204D01*
X216980Y319167D01*
Y294422D01*
X212282Y289724D01*
X212158Y289796D01*
X211395Y290000D01*
X210605D01*
X209842Y289796D01*
X209158Y289401D01*
X208599Y288842D01*
X208204Y288158D01*
X208000Y287395D01*
Y286605D01*
X208204Y285842D01*
X208599Y285158D01*
X209158Y284599D01*
X209842Y284204D01*
X210605Y284000D01*
X211395D01*
X212158Y284204D01*
X212842Y284599D01*
X213401Y285158D01*
X213796Y285842D01*
X214000Y286605D01*
Y287395D01*
X213796Y288158D01*
X213724Y288282D01*
X218721Y293279D01*
X218942Y293610D01*
X219020Y294000D01*
Y319167D01*
X219158Y319204D01*
X219842Y319599D01*
X220401Y320158D01*
X220796Y320842D01*
X221000Y321605D01*
Y322395D01*
X220796Y323158D01*
X220401Y323842D01*
X219842Y324401D01*
X219158Y324796D01*
X218395Y325000D01*
D02*
G37*
G36*
X488453Y293453D02*
X481547D01*
Y286547D01*
X488453D01*
Y293453D01*
D02*
G37*
G36*
X473453D02*
X466547D01*
Y286547D01*
X473453D01*
Y293453D01*
D02*
G37*
G36*
X458453D02*
X451547D01*
Y286547D01*
X458453D01*
Y293453D01*
D02*
G37*
G36*
X443453D02*
X436547D01*
Y286547D01*
X443453D01*
Y293453D01*
D02*
G37*
G36*
X428453D02*
X421547D01*
Y286547D01*
X428453D01*
Y293453D01*
D02*
G37*
G36*
X413453D02*
X406547D01*
Y286547D01*
X413453D01*
Y293453D01*
D02*
G37*
G36*
X398453D02*
X391547D01*
Y286547D01*
X398453D01*
Y293453D01*
D02*
G37*
G36*
X383453D02*
X376547D01*
Y286547D01*
X383453D01*
Y293453D01*
D02*
G37*
G36*
X132395Y286000D02*
X131605D01*
X130842Y285796D01*
X130158Y285401D01*
X129599Y284842D01*
X129204Y284158D01*
X129000Y283395D01*
Y282605D01*
X129204Y281842D01*
X129599Y281158D01*
X130158Y280599D01*
X130842Y280204D01*
X131605Y280000D01*
X132395D01*
X133158Y280204D01*
X133842Y280599D01*
X134401Y281158D01*
X134796Y281842D01*
X135000Y282605D01*
Y283395D01*
X134796Y284158D01*
X134401Y284842D01*
X133842Y285401D01*
X133158Y285796D01*
X132395Y286000D01*
D02*
G37*
G36*
X448395Y280000D02*
X447605D01*
X446842Y279796D01*
X446158Y279401D01*
X445599Y278842D01*
X445204Y278158D01*
X445000Y277395D01*
Y276605D01*
X445204Y275842D01*
X445599Y275158D01*
X446158Y274599D01*
X446842Y274204D01*
X447605Y274000D01*
X448395D01*
X449158Y274204D01*
X449842Y274599D01*
X450401Y275158D01*
X450796Y275842D01*
X451000Y276605D01*
Y277395D01*
X450796Y278158D01*
X450401Y278842D01*
X449842Y279401D01*
X449158Y279796D01*
X448395Y280000D01*
D02*
G37*
G36*
X334395Y279000D02*
X333605D01*
X332842Y278796D01*
X332158Y278401D01*
X331599Y277842D01*
X331204Y277158D01*
X331000Y276395D01*
Y275605D01*
X331204Y274842D01*
X331599Y274158D01*
X332158Y273599D01*
X332842Y273204D01*
X333605Y273000D01*
X334395D01*
X335158Y273204D01*
X335842Y273599D01*
X336401Y274158D01*
X336796Y274842D01*
X337000Y275605D01*
Y276395D01*
X336796Y277158D01*
X336401Y277842D01*
X335842Y278401D01*
X335158Y278796D01*
X334395Y279000D01*
D02*
G37*
G36*
X220395Y277000D02*
X219605D01*
X218842Y276796D01*
X218158Y276401D01*
X217599Y275842D01*
X217204Y275158D01*
X217000Y274395D01*
Y273605D01*
X217204Y272842D01*
X217599Y272158D01*
X218158Y271599D01*
X218842Y271204D01*
X219605Y271000D01*
X220395D01*
X221158Y271204D01*
X221842Y271599D01*
X222401Y272158D01*
X222796Y272842D01*
X223000Y273605D01*
Y274395D01*
X222796Y275158D01*
X222401Y275842D01*
X221842Y276401D01*
X221158Y276796D01*
X220395Y277000D01*
D02*
G37*
G36*
X131895Y275000D02*
X131105D01*
X130342Y274796D01*
X129658Y274401D01*
X129099Y273842D01*
X128704Y273158D01*
X128500Y272395D01*
Y271605D01*
X128704Y270842D01*
X129099Y270158D01*
X129658Y269599D01*
X130342Y269204D01*
X131105Y269000D01*
X131895D01*
X132658Y269204D01*
X133342Y269599D01*
X133901Y270158D01*
X134296Y270842D01*
X134500Y271605D01*
Y272395D01*
X134296Y273158D01*
X133901Y273842D01*
X133342Y274401D01*
X132658Y274796D01*
X131895Y275000D01*
D02*
G37*
G36*
X91395Y272000D02*
X90605D01*
X89842Y271796D01*
X89158Y271401D01*
X88599Y270842D01*
X88204Y270158D01*
X88000Y269395D01*
Y268605D01*
X88204Y267842D01*
X88599Y267158D01*
X89158Y266599D01*
X89842Y266204D01*
X90605Y266000D01*
X91395D01*
X92158Y266204D01*
X92842Y266599D01*
X93401Y267158D01*
X93796Y267842D01*
X94000Y268605D01*
Y269395D01*
X93796Y270158D01*
X93401Y270842D01*
X92842Y271401D01*
X92158Y271796D01*
X91395Y272000D01*
D02*
G37*
G36*
X366395Y263000D02*
X365605D01*
X364842Y262796D01*
X364158Y262401D01*
X363599Y261842D01*
X363204Y261158D01*
X363167Y261020D01*
X360586D01*
X360196Y260942D01*
X359865Y260721D01*
X359279Y260135D01*
X359058Y259804D01*
X358980Y259414D01*
Y183586D01*
X359058Y183196D01*
X359279Y182865D01*
X359865Y182279D01*
X360196Y182058D01*
X360586Y181980D01*
X372167D01*
X372204Y181842D01*
X372599Y181158D01*
X373158Y180599D01*
X373842Y180204D01*
X374605Y180000D01*
X375395D01*
X376158Y180204D01*
X376842Y180599D01*
X377401Y181158D01*
X377796Y181842D01*
X377833Y181980D01*
X402167D01*
X402204Y181842D01*
X402599Y181158D01*
X403158Y180599D01*
X403842Y180204D01*
X404605Y180000D01*
X405395D01*
X406158Y180204D01*
X406842Y180599D01*
X407401Y181158D01*
X407796Y181842D01*
X408000Y182605D01*
Y183395D01*
X407796Y184158D01*
X407401Y184842D01*
X406842Y185401D01*
X406158Y185796D01*
X405395Y186000D01*
X404605D01*
X403842Y185796D01*
X403158Y185401D01*
X402599Y184842D01*
X402204Y184158D01*
X402167Y184020D01*
X377833D01*
X377796Y184158D01*
X377401Y184842D01*
X376842Y185401D01*
X376158Y185796D01*
X375395Y186000D01*
X374605D01*
X373842Y185796D01*
X373158Y185401D01*
X372599Y184842D01*
X372204Y184158D01*
X372167Y184020D01*
X361020D01*
Y258980D01*
X363167D01*
X363204Y258842D01*
X363599Y258158D01*
X364158Y257599D01*
X364842Y257204D01*
X365605Y257000D01*
X366395D01*
X367158Y257204D01*
X367842Y257599D01*
X368401Y258158D01*
X368796Y258842D01*
X369000Y259605D01*
Y260395D01*
X368796Y261158D01*
X368401Y261842D01*
X367842Y262401D01*
X367158Y262796D01*
X366395Y263000D01*
D02*
G37*
G36*
X237395Y282000D02*
X236605D01*
X235842Y281796D01*
X235158Y281401D01*
X234599Y280842D01*
X234204Y280158D01*
X234000Y279395D01*
Y278605D01*
X234204Y277842D01*
X234599Y277158D01*
X235158Y276599D01*
X235842Y276204D01*
X236605Y276000D01*
X237395D01*
X238158Y276204D01*
X238842Y276599D01*
X239401Y277158D01*
X239796Y277842D01*
X239833Y277980D01*
X250578D01*
X252480Y276078D01*
Y265500D01*
X252558Y265110D01*
X252779Y264779D01*
X255980Y261578D01*
Y251838D01*
X255480Y251704D01*
X255401Y251842D01*
X254842Y252401D01*
X254158Y252796D01*
X253395Y253000D01*
X252605D01*
X251842Y252796D01*
X251158Y252401D01*
X250599Y251842D01*
X250204Y251158D01*
X250000Y250395D01*
Y249605D01*
X250204Y248842D01*
X250599Y248158D01*
X251158Y247599D01*
X251842Y247204D01*
X251980Y247167D01*
Y242000D01*
X252058Y241610D01*
X252279Y241279D01*
X254480Y239078D01*
Y237615D01*
X254018Y237423D01*
X246724Y244718D01*
X246796Y244842D01*
X247000Y245605D01*
Y246395D01*
X246796Y247158D01*
X246401Y247842D01*
X245842Y248401D01*
X245158Y248796D01*
X244395Y249000D01*
X243605D01*
X242842Y248796D01*
X242158Y248401D01*
X241599Y247842D01*
X241204Y247158D01*
X241000Y246395D01*
Y245605D01*
X241204Y244842D01*
X241599Y244158D01*
X242158Y243599D01*
X242842Y243204D01*
X243605Y243000D01*
X244395D01*
X245158Y243204D01*
X245282Y243276D01*
X252980Y235578D01*
Y227379D01*
X253058Y226989D01*
X253279Y226658D01*
X258980Y220956D01*
Y170422D01*
X258279Y169721D01*
X258058Y169390D01*
X257980Y169000D01*
Y149544D01*
X256456Y148020D01*
X253000D01*
X252610Y147942D01*
X252279Y147721D01*
X245541Y140983D01*
X244842Y140796D01*
X244158Y140401D01*
X243599Y139842D01*
X243204Y139158D01*
X243000Y138395D01*
Y137605D01*
X243204Y136842D01*
X243599Y136158D01*
X244158Y135599D01*
X244842Y135204D01*
X245605Y135000D01*
X246395D01*
X247158Y135204D01*
X247842Y135599D01*
X248401Y136158D01*
X248796Y136842D01*
X249000Y137605D01*
Y138395D01*
X248796Y139158D01*
X248401Y139842D01*
X247842Y140400D01*
X253422Y145980D01*
X255885D01*
X256077Y145519D01*
X254279Y143721D01*
X254058Y143390D01*
X253980Y143000D01*
Y141976D01*
X253823Y141741D01*
X253746Y141351D01*
Y141000D01*
X253605D01*
X252842Y140796D01*
X252158Y140401D01*
X251599Y139842D01*
X251204Y139158D01*
X251000Y138395D01*
Y137605D01*
X251204Y136842D01*
X251599Y136158D01*
X252158Y135599D01*
X252842Y135204D01*
X253605Y135000D01*
X254395D01*
X255158Y135204D01*
X255842Y135599D01*
X256401Y136158D01*
X256796Y136842D01*
X257000Y137605D01*
Y138395D01*
X256796Y139158D01*
X256401Y139842D01*
X255842Y140401D01*
X255785Y140434D01*
Y140961D01*
X255942Y141196D01*
X256020Y141586D01*
Y142578D01*
X260519Y147076D01*
X260980Y146885D01*
Y140833D01*
X260842Y140796D01*
X260158Y140401D01*
X259599Y139842D01*
X259204Y139158D01*
X259000Y138395D01*
Y137605D01*
X259204Y136842D01*
X259599Y136158D01*
X260158Y135599D01*
X260842Y135204D01*
X261605Y135000D01*
X262395D01*
X263158Y135204D01*
X263842Y135599D01*
X264401Y136158D01*
X264796Y136842D01*
X265000Y137605D01*
Y138395D01*
X264796Y139158D01*
X264401Y139842D01*
X263842Y140401D01*
X263158Y140796D01*
X263020Y140833D01*
Y150254D01*
X263520Y150303D01*
X263558Y150110D01*
X263779Y149779D01*
X274276Y139282D01*
X274204Y139158D01*
X274000Y138395D01*
Y137605D01*
X274204Y136842D01*
X274599Y136158D01*
X275158Y135599D01*
X275842Y135204D01*
X276605Y135000D01*
X277395D01*
X278158Y135204D01*
X278282Y135276D01*
X280279Y133279D01*
X280610Y133058D01*
X281000Y132980D01*
X318000D01*
X318390Y133058D01*
X318721Y133279D01*
X324922Y139480D01*
X328754D01*
X328803Y138980D01*
X328610Y138942D01*
X328279Y138721D01*
X321578Y132020D01*
X178422D01*
X176724Y133718D01*
X176796Y133842D01*
X177000Y134605D01*
Y135395D01*
X176796Y136158D01*
X176401Y136842D01*
X175842Y137401D01*
X175158Y137796D01*
X175020Y137833D01*
Y233000D01*
X174942Y233390D01*
X174721Y233721D01*
X173724Y234718D01*
X173796Y234842D01*
X174000Y235605D01*
Y236395D01*
X173796Y237158D01*
X173401Y237842D01*
X172842Y238401D01*
X172158Y238796D01*
X171395Y239000D01*
X170605D01*
X169842Y238796D01*
X169158Y238401D01*
X168599Y237842D01*
X168204Y237158D01*
X168000Y236395D01*
Y235605D01*
X168204Y234842D01*
X168599Y234158D01*
X169158Y233599D01*
X169842Y233204D01*
X170605Y233000D01*
X171395D01*
X172158Y233204D01*
X172282Y233276D01*
X172980Y232578D01*
Y137833D01*
X172842Y137796D01*
X172158Y137401D01*
X171599Y136842D01*
X171204Y136158D01*
X171000Y135395D01*
Y134605D01*
X171204Y133842D01*
X171599Y133158D01*
X172158Y132599D01*
X172842Y132204D01*
X173605Y132000D01*
X174395D01*
X175158Y132204D01*
X175282Y132276D01*
X177279Y130279D01*
X177610Y130058D01*
X178000Y129980D01*
X322000D01*
X322390Y130058D01*
X322721Y130279D01*
X329422Y136980D01*
X344578D01*
X350034Y131524D01*
X350000Y131395D01*
Y130605D01*
X350204Y129842D01*
X350599Y129158D01*
X351158Y128599D01*
X351842Y128204D01*
X352605Y128000D01*
X353395D01*
X354158Y128204D01*
X354842Y128599D01*
X355401Y129158D01*
X355796Y129842D01*
X356000Y130605D01*
Y131395D01*
X355796Y132158D01*
X355401Y132842D01*
X354842Y133401D01*
X354158Y133796D01*
X353395Y134000D01*
X352605D01*
X351842Y133796D01*
X351158Y133401D01*
X351100Y133342D01*
X345721Y138721D01*
X345390Y138942D01*
X345197Y138980D01*
X345246Y139480D01*
X354078D01*
X365279Y128279D01*
X365610Y128058D01*
X366000Y127980D01*
X447000D01*
Y127605D01*
X447204Y126842D01*
X447599Y126158D01*
X448158Y125599D01*
X448842Y125204D01*
X449605Y125000D01*
X450395D01*
X451158Y125204D01*
X451842Y125599D01*
X452401Y126158D01*
X452796Y126842D01*
X453000Y127605D01*
Y128395D01*
X452796Y129158D01*
X452401Y129842D01*
X451842Y130401D01*
X451158Y130796D01*
X450395Y131000D01*
X449605D01*
X448842Y130796D01*
X448158Y130401D01*
X447777Y130020D01*
X445169D01*
X444962Y130520D01*
X447422Y132980D01*
X457167D01*
X457204Y132842D01*
X457599Y132158D01*
X458158Y131599D01*
X458842Y131204D01*
X459605Y131000D01*
X460395D01*
X461158Y131204D01*
X461842Y131599D01*
X462401Y132158D01*
X462796Y132842D01*
X463000Y133605D01*
Y134395D01*
X462796Y135158D01*
X462401Y135842D01*
X461842Y136401D01*
X461158Y136796D01*
X460395Y137000D01*
X459605D01*
X458842Y136796D01*
X458158Y136401D01*
X457599Y135842D01*
X457204Y135158D01*
X457167Y135020D01*
X447000D01*
X446610Y134942D01*
X446279Y134721D01*
X443578Y132020D01*
X368422D01*
X357721Y142721D01*
X357390Y142942D01*
X357000Y143020D01*
X321000D01*
X320610Y142942D01*
X320279Y142721D01*
X314578Y137020D01*
X290422D01*
X283724Y143718D01*
X283796Y143842D01*
X284000Y144605D01*
Y145395D01*
X283796Y146158D01*
X283401Y146842D01*
X282842Y147401D01*
X282158Y147796D01*
X281395Y148000D01*
X280605D01*
X279842Y147796D01*
X279718Y147724D01*
X267020Y160422D01*
Y257167D01*
X267158Y257204D01*
X267842Y257599D01*
X268401Y258158D01*
X268796Y258842D01*
X269000Y259605D01*
Y260395D01*
X268796Y261158D01*
X268401Y261842D01*
X267842Y262401D01*
X267158Y262796D01*
X266395Y263000D01*
X265605D01*
X264842Y262796D01*
X264158Y262401D01*
X263599Y261842D01*
X263204Y261158D01*
X263000Y260395D01*
Y259605D01*
X263204Y258842D01*
X263599Y258158D01*
X264158Y257599D01*
X264842Y257204D01*
X264980Y257167D01*
Y225115D01*
X264518Y224923D01*
X261020Y228422D01*
Y267167D01*
X261158Y267204D01*
X261842Y267599D01*
X262401Y268158D01*
X262796Y268842D01*
X263000Y269605D01*
Y270395D01*
X262796Y271158D01*
X262401Y271842D01*
X261842Y272401D01*
X261158Y272796D01*
X260395Y273000D01*
X259605D01*
X258842Y272796D01*
X258158Y272401D01*
X257599Y271842D01*
X257204Y271158D01*
X257000Y270395D01*
Y269605D01*
X257204Y268842D01*
X257599Y268158D01*
X258158Y267599D01*
X258842Y267204D01*
X258980Y267167D01*
Y228736D01*
X258519Y228545D01*
X258020Y229044D01*
Y262000D01*
X257942Y262390D01*
X257721Y262721D01*
X254520Y265922D01*
Y276500D01*
X254442Y276890D01*
X254221Y277221D01*
X251721Y279721D01*
X251390Y279942D01*
X251000Y280020D01*
X239833D01*
X239796Y280158D01*
X239401Y280842D01*
X238842Y281401D01*
X238158Y281796D01*
X237395Y282000D01*
D02*
G37*
G36*
X293395Y251000D02*
X292605D01*
X291842Y250796D01*
X291158Y250401D01*
X290599Y249842D01*
X290204Y249158D01*
X290000Y248395D01*
Y247605D01*
X290204Y246842D01*
X290599Y246158D01*
X291158Y245599D01*
X291842Y245204D01*
X292605Y245000D01*
X293395D01*
X294158Y245204D01*
X294842Y245599D01*
X295401Y246158D01*
X295796Y246842D01*
X296000Y247605D01*
Y248395D01*
X295796Y249158D01*
X295401Y249842D01*
X294842Y250401D01*
X294158Y250796D01*
X293395Y251000D01*
D02*
G37*
G36*
X524370Y336425D02*
X519630D01*
Y332276D01*
X520980D01*
Y320833D01*
X520842Y320796D01*
X520158Y320401D01*
X519599Y319842D01*
X519204Y319158D01*
X519000Y318395D01*
Y317605D01*
X519204Y316842D01*
X519599Y316158D01*
X520158Y315599D01*
X520842Y315204D01*
X520980Y315167D01*
Y254008D01*
X518992Y252020D01*
X469000D01*
X468610Y251942D01*
X468279Y251721D01*
X459282Y242724D01*
X459158Y242796D01*
X458395Y243000D01*
X457605D01*
X456842Y242796D01*
X456158Y242401D01*
X455599Y241842D01*
X455204Y241158D01*
X455000Y240395D01*
Y239605D01*
X455204Y238842D01*
X455599Y238158D01*
X456158Y237599D01*
X456842Y237204D01*
X457605Y237000D01*
X458395D01*
X459158Y237204D01*
X459842Y237599D01*
X460401Y238158D01*
X460796Y238842D01*
X461000Y239605D01*
Y240395D01*
X460796Y241158D01*
X460724Y241282D01*
X469422Y249980D01*
X519414D01*
X519804Y250058D01*
X520135Y250279D01*
X522721Y252865D01*
X522942Y253196D01*
X523020Y253586D01*
Y315167D01*
X523158Y315204D01*
X523842Y315599D01*
X524401Y316158D01*
X524796Y316842D01*
X525000Y317605D01*
Y318395D01*
X524796Y319158D01*
X524401Y319842D01*
X523842Y320401D01*
X523158Y320796D01*
X523020Y320833D01*
Y332276D01*
X524370D01*
Y336425D01*
D02*
G37*
G36*
X419395Y247000D02*
X418605D01*
X417842Y246796D01*
X417158Y246401D01*
X416599Y245842D01*
X416204Y245158D01*
X416000Y244395D01*
Y243605D01*
X416204Y242842D01*
X416599Y242158D01*
X417158Y241599D01*
X417842Y241204D01*
X418605Y241000D01*
X419395D01*
X420158Y241204D01*
X420842Y241599D01*
X421401Y242158D01*
X421796Y242842D01*
X422000Y243605D01*
Y244395D01*
X421796Y245158D01*
X421401Y245842D01*
X420842Y246401D01*
X420158Y246796D01*
X419395Y247000D01*
D02*
G37*
G36*
X183395Y245000D02*
X182605D01*
X181842Y244796D01*
X181158Y244401D01*
X180599Y243842D01*
X180204Y243158D01*
X180000Y242395D01*
Y241605D01*
X180204Y240842D01*
X180599Y240158D01*
X181158Y239599D01*
X181842Y239204D01*
X182605Y239000D01*
X183395D01*
X184158Y239204D01*
X184842Y239599D01*
X185401Y240158D01*
X185796Y240842D01*
X186000Y241605D01*
Y242395D01*
X185796Y243158D01*
X185401Y243842D01*
X184842Y244401D01*
X184158Y244796D01*
X183395Y245000D01*
D02*
G37*
G36*
X153395Y290000D02*
X152605D01*
X151842Y289796D01*
X151158Y289401D01*
X150599Y288842D01*
X150204Y288158D01*
X150000Y287395D01*
Y286605D01*
X150204Y285842D01*
X150599Y285158D01*
X151158Y284599D01*
X151842Y284204D01*
X151980Y284167D01*
Y280422D01*
X133279Y261721D01*
X133058Y261390D01*
X132980Y261000D01*
Y141422D01*
X127578Y136020D01*
X120833D01*
X120796Y136158D01*
X120401Y136842D01*
X119842Y137401D01*
X119158Y137796D01*
X118395Y138000D01*
X117605D01*
X116842Y137796D01*
X116158Y137401D01*
X115599Y136842D01*
X115204Y136158D01*
X115000Y135395D01*
Y134605D01*
X115204Y133842D01*
X115599Y133158D01*
X116158Y132599D01*
X116842Y132204D01*
X117605Y132000D01*
X118395D01*
X119158Y132204D01*
X119842Y132599D01*
X120401Y133158D01*
X120796Y133842D01*
X120833Y133980D01*
X128000D01*
X128390Y134058D01*
X128721Y134279D01*
X134721Y140279D01*
X134942Y140610D01*
X135020Y141000D01*
Y260578D01*
X153721Y279279D01*
X153942Y279610D01*
X154020Y280000D01*
Y284167D01*
X154158Y284204D01*
X154842Y284599D01*
X155401Y285158D01*
X155796Y285842D01*
X155833Y285980D01*
X199980D01*
Y235828D01*
X200058Y235438D01*
X200279Y235107D01*
X203693Y231693D01*
X204024Y231472D01*
X204414Y231395D01*
X230167D01*
X230204Y231256D01*
X230599Y230572D01*
X231158Y230014D01*
X231842Y229619D01*
X232605Y229414D01*
X233395D01*
X234158Y229619D01*
X234842Y230014D01*
X235401Y230572D01*
X235796Y231256D01*
X236000Y232019D01*
Y232809D01*
X235796Y233572D01*
X235401Y234256D01*
X234842Y234815D01*
X234158Y235210D01*
X233395Y235414D01*
X232605D01*
X231842Y235210D01*
X231158Y234815D01*
X230599Y234256D01*
X230204Y233572D01*
X230167Y233434D01*
X204837D01*
X202020Y236251D01*
Y286414D01*
X201942Y286804D01*
X201721Y287135D01*
X201135Y287721D01*
X200804Y287942D01*
X200414Y288020D01*
X155833D01*
X155796Y288158D01*
X155401Y288842D01*
X154842Y289401D01*
X154158Y289796D01*
X153395Y290000D01*
D02*
G37*
G36*
X101395Y230000D02*
X100605D01*
X99842Y229796D01*
X99158Y229401D01*
X98599Y228842D01*
X98204Y228158D01*
X98000Y227395D01*
Y226605D01*
X98204Y225842D01*
X98599Y225158D01*
X99158Y224599D01*
X99842Y224204D01*
X100605Y224000D01*
X101395D01*
X102158Y224204D01*
X102842Y224599D01*
X103401Y225158D01*
X103796Y225842D01*
X104000Y226605D01*
Y227395D01*
X103796Y228158D01*
X103401Y228842D01*
X102842Y229401D01*
X102158Y229796D01*
X101395Y230000D01*
D02*
G37*
G36*
X338395Y245000D02*
X337605D01*
X336842Y244796D01*
X336158Y244401D01*
X335599Y243842D01*
X335204Y243158D01*
X335000Y242395D01*
Y241605D01*
X335204Y240842D01*
X335599Y240158D01*
X336158Y239599D01*
X336842Y239204D01*
X336980Y239167D01*
Y226833D01*
X336842Y226796D01*
X336158Y226401D01*
X335599Y225842D01*
X335204Y225158D01*
X335000Y224395D01*
Y223605D01*
X335204Y222842D01*
X335599Y222158D01*
X336158Y221599D01*
X336842Y221204D01*
X337605Y221000D01*
X338395D01*
X339158Y221204D01*
X339842Y221599D01*
X340401Y222158D01*
X340796Y222842D01*
X341000Y223605D01*
Y224395D01*
X340796Y225158D01*
X340401Y225842D01*
X339842Y226401D01*
X339158Y226796D01*
X339020Y226833D01*
Y239167D01*
X339158Y239204D01*
X339842Y239599D01*
X340401Y240158D01*
X340796Y240842D01*
X341000Y241605D01*
Y242395D01*
X340796Y243158D01*
X340401Y243842D01*
X339842Y244401D01*
X339158Y244796D01*
X338395Y245000D01*
D02*
G37*
G36*
X312395Y244000D02*
X311605D01*
X310842Y243796D01*
X310158Y243401D01*
X309599Y242842D01*
X309204Y242158D01*
X309000Y241395D01*
Y240605D01*
X309204Y239842D01*
X309599Y239158D01*
X310158Y238599D01*
X310842Y238204D01*
X310980Y238167D01*
Y226833D01*
X310842Y226796D01*
X310158Y226401D01*
X309599Y225842D01*
X309204Y225158D01*
X309000Y224395D01*
Y223605D01*
X309204Y222842D01*
X309599Y222158D01*
X310158Y221599D01*
X310842Y221204D01*
X311605Y221000D01*
X312395D01*
X313158Y221204D01*
X313842Y221599D01*
X314401Y222158D01*
X314796Y222842D01*
X315000Y223605D01*
Y224395D01*
X314796Y225158D01*
X314401Y225842D01*
X313842Y226401D01*
X313158Y226796D01*
X313020Y226833D01*
Y238167D01*
X313158Y238204D01*
X313842Y238599D01*
X314401Y239158D01*
X314796Y239842D01*
X315000Y240605D01*
Y241395D01*
X314796Y242158D01*
X314401Y242842D01*
X313842Y243401D01*
X313158Y243796D01*
X312395Y244000D01*
D02*
G37*
G36*
X84395Y221000D02*
X83605D01*
X82842Y220796D01*
X82158Y220401D01*
X81599Y219842D01*
X81204Y219158D01*
X81167Y219020D01*
X65833D01*
X65796Y219158D01*
X65401Y219842D01*
X64842Y220401D01*
X64158Y220796D01*
X63395Y221000D01*
X62605D01*
X61842Y220796D01*
X61158Y220401D01*
X60599Y219842D01*
X60204Y219158D01*
X60000Y218395D01*
Y217605D01*
X60204Y216842D01*
X60599Y216158D01*
X61158Y215599D01*
X61842Y215204D01*
X62605Y215000D01*
X63395D01*
X64158Y215204D01*
X64842Y215599D01*
X65401Y216158D01*
X65796Y216842D01*
X65833Y216980D01*
X81167D01*
X81204Y216842D01*
X81599Y216158D01*
X82158Y215599D01*
X82842Y215204D01*
X83605Y215000D01*
X84395D01*
X85158Y215204D01*
X85842Y215599D01*
X86401Y216158D01*
X86796Y216842D01*
X87000Y217605D01*
Y218395D01*
X86796Y219158D01*
X86401Y219842D01*
X85842Y220401D01*
X85158Y220796D01*
X84395Y221000D01*
D02*
G37*
G36*
X481395Y223000D02*
X480605D01*
X479842Y222796D01*
X479158Y222401D01*
X478599Y221842D01*
X478204Y221158D01*
X478000Y220395D01*
Y219605D01*
X478204Y218842D01*
X478599Y218158D01*
X479158Y217599D01*
X479842Y217204D01*
X480605Y217000D01*
X481395D01*
X482158Y217204D01*
X482842Y217599D01*
X483401Y218158D01*
X483796Y218842D01*
X484000Y219605D01*
Y220395D01*
X483796Y221158D01*
X483401Y221842D01*
X482842Y222401D01*
X482158Y222796D01*
X481395Y223000D01*
D02*
G37*
G36*
X156395Y233000D02*
X155605D01*
X154842Y232796D01*
X154158Y232401D01*
X153599Y231842D01*
X153204Y231158D01*
X153000Y230395D01*
Y229605D01*
X153204Y228842D01*
X153599Y228158D01*
X154158Y227599D01*
X154842Y227204D01*
X155605Y227000D01*
X156395D01*
X157158Y227204D01*
X157282Y227276D01*
X160980Y223578D01*
Y217169D01*
X160480Y216962D01*
X158486Y218956D01*
X158486Y218956D01*
X153724Y223718D01*
X153796Y223842D01*
X154000Y224605D01*
Y225395D01*
X153796Y226158D01*
X153401Y226842D01*
X152842Y227401D01*
X152158Y227796D01*
X151395Y228000D01*
X150605D01*
X149842Y227796D01*
X149158Y227401D01*
X148599Y226842D01*
X148204Y226158D01*
X148000Y225395D01*
Y224605D01*
X148204Y223842D01*
X148599Y223158D01*
X149158Y222599D01*
X149842Y222204D01*
X150605Y222000D01*
X151395D01*
X152158Y222204D01*
X152282Y222276D01*
X157044Y217514D01*
X157044Y217514D01*
X158980Y215578D01*
Y165422D01*
X156578Y163020D01*
X147586D01*
X147283Y162959D01*
X146842Y163401D01*
X146158Y163796D01*
X145395Y164000D01*
X144605D01*
X143842Y163796D01*
X143158Y163401D01*
X142599Y162842D01*
X142204Y162158D01*
X142000Y161395D01*
Y160605D01*
X142204Y159842D01*
X142599Y159158D01*
X143158Y158599D01*
X143842Y158204D01*
X144605Y158000D01*
X145395D01*
X146158Y158204D01*
X146842Y158599D01*
X147401Y159158D01*
X147796Y159842D01*
X148000Y160605D01*
Y160980D01*
X157000D01*
X157390Y161058D01*
X157721Y161279D01*
X160480Y164039D01*
X160980Y163831D01*
Y160422D01*
X159282Y158724D01*
X159158Y158796D01*
X158395Y159000D01*
X157605D01*
X156842Y158796D01*
X156158Y158401D01*
X155599Y157842D01*
X155204Y157158D01*
X155000Y156395D01*
Y155605D01*
X155204Y154842D01*
X155599Y154158D01*
X156158Y153599D01*
X156842Y153204D01*
X156980Y153167D01*
Y131000D01*
X157058Y130610D01*
X157279Y130279D01*
X160279Y127279D01*
X160610Y127058D01*
X161000Y126980D01*
X327000D01*
X327390Y127058D01*
X327721Y127279D01*
X328718Y128276D01*
X328842Y128204D01*
X329605Y128000D01*
X330395D01*
X331158Y128204D01*
X331842Y128599D01*
X332401Y129158D01*
X332796Y129842D01*
X333000Y130605D01*
Y131395D01*
X332796Y132158D01*
X332401Y132842D01*
X331842Y133401D01*
X331158Y133796D01*
X330395Y134000D01*
X329605D01*
X328842Y133796D01*
X328158Y133401D01*
X327599Y132842D01*
X327204Y132158D01*
X327000Y131395D01*
Y130605D01*
X327204Y129842D01*
X327276Y129718D01*
X326578Y129020D01*
X161422D01*
X159020Y131422D01*
Y153167D01*
X159158Y153204D01*
X159842Y153599D01*
X160401Y154158D01*
X160796Y154842D01*
X161000Y155605D01*
Y156395D01*
X160796Y157158D01*
X160724Y157282D01*
X162721Y159279D01*
X162942Y159610D01*
X163020Y160000D01*
Y224000D01*
X162942Y224390D01*
X162721Y224721D01*
X158724Y228718D01*
X158796Y228842D01*
X159000Y229605D01*
Y230395D01*
X158796Y231158D01*
X158401Y231842D01*
X157842Y232401D01*
X157158Y232796D01*
X156395Y233000D01*
D02*
G37*
G36*
X440455Y223453D02*
X439545D01*
X438667Y223218D01*
X437880Y222763D01*
X437237Y222120D01*
X436783Y221333D01*
X436547Y220455D01*
Y219545D01*
X436783Y218667D01*
X437237Y217880D01*
X437880Y217237D01*
X438667Y216782D01*
X439545Y216547D01*
X440455D01*
X441333Y216782D01*
X442120Y217237D01*
X442763Y217880D01*
X443218Y218667D01*
X443453Y219545D01*
Y220455D01*
X443218Y221333D01*
X442763Y222120D01*
X442120Y222763D01*
X441333Y223218D01*
X440455Y223453D01*
D02*
G37*
G36*
X430455D02*
X429545D01*
X428667Y223218D01*
X427880Y222763D01*
X427237Y222120D01*
X426783Y221333D01*
X426547Y220455D01*
Y219545D01*
X426783Y218667D01*
X427237Y217880D01*
X427880Y217237D01*
X428667Y216782D01*
X429545Y216547D01*
X430455D01*
X431333Y216782D01*
X432120Y217237D01*
X432763Y217880D01*
X433217Y218667D01*
X433453Y219545D01*
Y220455D01*
X433217Y221333D01*
X432763Y222120D01*
X432120Y222763D01*
X431333Y223218D01*
X430455Y223453D01*
D02*
G37*
G36*
X400455D02*
X399545D01*
X398667Y223218D01*
X397880Y222763D01*
X397237Y222120D01*
X396782Y221333D01*
X396547Y220455D01*
Y219545D01*
X396782Y218667D01*
X397237Y217880D01*
X397880Y217237D01*
X398667Y216782D01*
X399545Y216547D01*
X400455D01*
X401333Y216782D01*
X402120Y217237D01*
X402763Y217880D01*
X403218Y218667D01*
X403453Y219545D01*
Y220455D01*
X403218Y221333D01*
X402763Y222120D01*
X402120Y222763D01*
X401333Y223218D01*
X400455Y223453D01*
D02*
G37*
G36*
X293453Y221453D02*
X286547D01*
Y214547D01*
X293453D01*
Y221453D01*
D02*
G37*
G36*
X410455Y213453D02*
X409545D01*
X408667Y213217D01*
X407880Y212763D01*
X407237Y212120D01*
X406782Y211333D01*
X406547Y210455D01*
Y209545D01*
X406782Y208667D01*
X407237Y207880D01*
X407880Y207237D01*
X408667Y206783D01*
X409545Y206547D01*
X410455D01*
X411333Y206783D01*
X412120Y207237D01*
X412763Y207880D01*
X413217Y208667D01*
X413453Y209545D01*
Y210455D01*
X413217Y211333D01*
X412763Y212120D01*
X412120Y212763D01*
X411333Y213217D01*
X410455Y213453D01*
D02*
G37*
G36*
X403453D02*
X396547D01*
Y206547D01*
X403453D01*
Y213453D01*
D02*
G37*
G36*
X344955D02*
X344045D01*
X343167Y213217D01*
X342380Y212763D01*
X341737Y212120D01*
X341283Y211333D01*
X341047Y210455D01*
Y209545D01*
X341283Y208667D01*
X341737Y207880D01*
X342380Y207237D01*
X343167Y206783D01*
X344045Y206547D01*
X344955D01*
X345833Y206783D01*
X346620Y207237D01*
X347263Y207880D01*
X347717Y208667D01*
X347953Y209545D01*
Y210455D01*
X347717Y211333D01*
X347263Y212120D01*
X346620Y212763D01*
X345833Y213217D01*
X344955Y213453D01*
D02*
G37*
G36*
X337953D02*
X331047D01*
Y206547D01*
X337953D01*
Y213453D01*
D02*
G37*
G36*
X388395Y273000D02*
X387605D01*
X386842Y272796D01*
X386158Y272401D01*
X385599Y271842D01*
X385204Y271158D01*
X385000Y270395D01*
Y269605D01*
X385204Y268842D01*
X385599Y268158D01*
X386158Y267599D01*
X386842Y267204D01*
X386980Y267167D01*
Y207000D01*
X387058Y206610D01*
X387279Y206279D01*
X391276Y202282D01*
X391204Y202158D01*
X391000Y201395D01*
Y200605D01*
X391204Y199842D01*
X391599Y199158D01*
X392158Y198599D01*
X392842Y198204D01*
X393605Y198000D01*
X394395D01*
X395158Y198204D01*
X395842Y198599D01*
X396401Y199158D01*
X396796Y199842D01*
X397000Y200605D01*
Y201395D01*
X396796Y202158D01*
X396401Y202842D01*
X395842Y203401D01*
X395158Y203796D01*
X394395Y204000D01*
X393605D01*
X392842Y203796D01*
X392718Y203724D01*
X389020Y207422D01*
Y267167D01*
X389158Y267204D01*
X389842Y267599D01*
X390401Y268158D01*
X390796Y268842D01*
X391000Y269605D01*
Y270395D01*
X390796Y271158D01*
X390401Y271842D01*
X389842Y272401D01*
X389158Y272796D01*
X388395Y273000D01*
D02*
G37*
G36*
X293453Y204453D02*
X286547D01*
Y197547D01*
X293453D01*
Y204453D01*
D02*
G37*
G36*
X420455Y213453D02*
X419545D01*
X418667Y213217D01*
X417880Y212763D01*
X417237Y212120D01*
X416783Y211333D01*
X416547Y210455D01*
Y209545D01*
X416783Y208667D01*
X417237Y207880D01*
X417880Y207237D01*
X418667Y206783D01*
X418980Y206699D01*
Y197020D01*
X390422D01*
X386721Y200721D01*
X386390Y200942D01*
X386000Y201020D01*
X377833D01*
X377796Y201158D01*
X377401Y201842D01*
X376842Y202401D01*
X376158Y202796D01*
X375395Y203000D01*
X374605D01*
X373842Y202796D01*
X373158Y202401D01*
X372599Y201842D01*
X372204Y201158D01*
X372000Y200395D01*
Y199605D01*
X372204Y198842D01*
X372599Y198158D01*
X373158Y197599D01*
X373842Y197204D01*
X374605Y197000D01*
X375395D01*
X376158Y197204D01*
X376842Y197599D01*
X377401Y198158D01*
X377796Y198842D01*
X377833Y198980D01*
X385578D01*
X389279Y195279D01*
X389610Y195058D01*
X390000Y194980D01*
X419414D01*
X419804Y195058D01*
X420135Y195279D01*
X420721Y195865D01*
X420942Y196196D01*
X421020Y196586D01*
Y206699D01*
X421333Y206783D01*
X422120Y207237D01*
X422763Y207880D01*
X423217Y208667D01*
X423453Y209545D01*
Y210455D01*
X423217Y211333D01*
X422763Y212120D01*
X422120Y212763D01*
X421333Y213217D01*
X420455Y213453D01*
D02*
G37*
G36*
X103395Y203000D02*
X102605D01*
X101842Y202796D01*
X101158Y202401D01*
X100777Y202020D01*
X49000D01*
X48610Y201942D01*
X48279Y201721D01*
X47279Y200721D01*
X47058Y200390D01*
X46980Y200000D01*
Y187833D01*
X46842Y187796D01*
X46158Y187401D01*
X45599Y186842D01*
X45204Y186158D01*
X45000Y185395D01*
Y184605D01*
X45204Y183842D01*
X45599Y183158D01*
X46158Y182599D01*
X46842Y182204D01*
X47605Y182000D01*
X48395D01*
X49158Y182204D01*
X49842Y182599D01*
X50401Y183158D01*
X50796Y183842D01*
X51000Y184605D01*
Y185395D01*
X50796Y186158D01*
X50401Y186842D01*
X49842Y187401D01*
X49158Y187796D01*
X49020Y187833D01*
Y199578D01*
X49422Y199980D01*
X100000D01*
Y199605D01*
X100204Y198842D01*
X100599Y198158D01*
X101158Y197599D01*
X101842Y197204D01*
X102605Y197000D01*
X103395D01*
X104158Y197204D01*
X104842Y197599D01*
X105401Y198158D01*
X105796Y198842D01*
X106000Y199605D01*
Y200395D01*
X105796Y201158D01*
X105401Y201842D01*
X104842Y202401D01*
X104158Y202796D01*
X103395Y203000D01*
D02*
G37*
G36*
X533453Y203453D02*
X526547D01*
Y196547D01*
X533453D01*
Y203453D01*
D02*
G37*
G36*
X513453D02*
X506547D01*
Y196547D01*
X513453D01*
Y203453D01*
D02*
G37*
G36*
X493453D02*
X486547D01*
Y196547D01*
X493453D01*
Y203453D01*
D02*
G37*
G36*
X473453D02*
X466547D01*
Y196547D01*
X473453D01*
Y203453D01*
D02*
G37*
G36*
X344955D02*
X344045D01*
X343167Y203218D01*
X342380Y202763D01*
X341737Y202120D01*
X341283Y201333D01*
X341047Y200455D01*
Y199545D01*
X341283Y198667D01*
X341737Y197880D01*
X342380Y197237D01*
X343167Y196783D01*
X344045Y196547D01*
X344955D01*
X345833Y196783D01*
X346620Y197237D01*
X347263Y197880D01*
X347717Y198667D01*
X347953Y199545D01*
Y200455D01*
X347717Y201333D01*
X347263Y202120D01*
X346620Y202763D01*
X345833Y203218D01*
X344955Y203453D01*
D02*
G37*
G36*
X334955D02*
X334045D01*
X333167Y203218D01*
X332380Y202763D01*
X331737Y202120D01*
X331282Y201333D01*
X331047Y200455D01*
Y199545D01*
X331282Y198667D01*
X331737Y197880D01*
X332380Y197237D01*
X333167Y196783D01*
X334045Y196547D01*
X334955D01*
X335833Y196783D01*
X336620Y197237D01*
X337263Y197880D01*
X337718Y198667D01*
X337953Y199545D01*
Y200455D01*
X337718Y201333D01*
X337263Y202120D01*
X336620Y202763D01*
X335833Y203218D01*
X334955Y203453D01*
D02*
G37*
G36*
X366395Y253000D02*
X365605D01*
X364842Y252796D01*
X364158Y252401D01*
X363599Y251842D01*
X363204Y251158D01*
X363000Y250395D01*
Y249605D01*
X363204Y248842D01*
X363599Y248158D01*
X364158Y247599D01*
X364842Y247204D01*
X364980Y247167D01*
Y191586D01*
X365058Y191196D01*
X365279Y190865D01*
X365865Y190279D01*
X366196Y190058D01*
X366586Y189980D01*
X372167D01*
X372204Y189842D01*
X372599Y189158D01*
X373158Y188599D01*
X373842Y188204D01*
X374605Y188000D01*
X375395D01*
X376158Y188204D01*
X376842Y188599D01*
X377401Y189158D01*
X377796Y189842D01*
X377833Y189980D01*
X402167D01*
X402204Y189842D01*
X402599Y189158D01*
X403158Y188599D01*
X403842Y188204D01*
X404605Y188000D01*
X405395D01*
X406158Y188204D01*
X406842Y188599D01*
X407401Y189158D01*
X407796Y189842D01*
X408000Y190605D01*
Y191395D01*
X407796Y192158D01*
X407401Y192842D01*
X406842Y193401D01*
X406158Y193796D01*
X405395Y194000D01*
X404605D01*
X403842Y193796D01*
X403158Y193401D01*
X402599Y192842D01*
X402204Y192158D01*
X402167Y192020D01*
X377833D01*
X377796Y192158D01*
X377401Y192842D01*
X376842Y193401D01*
X376158Y193796D01*
X375395Y194000D01*
X374605D01*
X373842Y193796D01*
X373158Y193401D01*
X372599Y192842D01*
X372204Y192158D01*
X372167Y192020D01*
X367020D01*
Y247167D01*
X367158Y247204D01*
X367842Y247599D01*
X368401Y248158D01*
X368796Y248842D01*
X369000Y249605D01*
Y250395D01*
X368796Y251158D01*
X368401Y251842D01*
X367842Y252401D01*
X367158Y252796D01*
X366395Y253000D01*
D02*
G37*
G36*
X220395Y194000D02*
X219605D01*
X218842Y193796D01*
X218158Y193401D01*
X217599Y192842D01*
X217204Y192158D01*
X217000Y191395D01*
Y190771D01*
X216743Y190600D01*
X206279Y180135D01*
X206058Y179804D01*
X205980Y179414D01*
Y171370D01*
X203776D01*
Y166630D01*
X204831D01*
Y165370D01*
X203776D01*
Y160630D01*
X204831D01*
Y159370D01*
X203776D01*
Y154630D01*
X207925D01*
Y159370D01*
X206870D01*
Y160630D01*
X207925D01*
Y165370D01*
X206870D01*
Y166630D01*
X207925D01*
Y169976D01*
X207945Y170075D01*
Y170580D01*
X208020Y170956D01*
Y178992D01*
X217893Y188865D01*
X218158Y188599D01*
X218842Y188204D01*
X219605Y188000D01*
X220395D01*
X221158Y188204D01*
X221842Y188599D01*
X222401Y189158D01*
X222796Y189842D01*
X223000Y190605D01*
Y191395D01*
X222796Y192158D01*
X222401Y192842D01*
X221842Y193401D01*
X221158Y193796D01*
X220395Y194000D01*
D02*
G37*
G36*
X457414Y233020D02*
X411586D01*
X411196Y232942D01*
X410865Y232721D01*
X410279Y232135D01*
X410058Y231804D01*
X409980Y231414D01*
Y223453D01*
X409545D01*
X408667Y223218D01*
X407880Y222763D01*
X407237Y222120D01*
X406782Y221333D01*
X406547Y220455D01*
Y219545D01*
X406782Y218667D01*
X407237Y217880D01*
X407880Y217237D01*
X408667Y216782D01*
X409545Y216547D01*
X410455D01*
X411333Y216782D01*
X412120Y217237D01*
X412763Y217880D01*
X413217Y218667D01*
X413453Y219545D01*
Y220455D01*
X413217Y221333D01*
X412763Y222120D01*
X412120Y222763D01*
X411981Y222843D01*
X412020Y223039D01*
Y230980D01*
X456980D01*
Y214000D01*
X457058Y213610D01*
X457279Y213279D01*
X458279Y212279D01*
X458610Y212058D01*
X459000Y211980D01*
X498980D01*
Y192586D01*
X499058Y192196D01*
X499279Y191865D01*
X499865Y191279D01*
X500196Y191058D01*
X500586Y190980D01*
X506171D01*
X506556Y190487D01*
X506547Y190455D01*
Y189545D01*
X506782Y188667D01*
X507237Y187880D01*
X507880Y187237D01*
X508667Y186783D01*
X509545Y186547D01*
X510455D01*
X511333Y186783D01*
X512120Y187237D01*
X512763Y187880D01*
X513217Y188667D01*
X513453Y189545D01*
Y190455D01*
X513217Y191333D01*
X512763Y192120D01*
X512120Y192763D01*
X511333Y193218D01*
X510455Y193453D01*
X509545D01*
X508667Y193218D01*
X507880Y192763D01*
X507760Y192643D01*
X507682Y192721D01*
X507352Y192942D01*
X506961Y193020D01*
X501020D01*
Y212414D01*
X500942Y212804D01*
X500721Y213135D01*
X500135Y213721D01*
X499804Y213942D01*
X499414Y214020D01*
X459422D01*
X459020Y214422D01*
Y231414D01*
X458942Y231804D01*
X458721Y232135D01*
X458135Y232721D01*
X457804Y232942D01*
X457414Y233020D01*
D02*
G37*
G36*
X440455Y213453D02*
X439545D01*
X438667Y213217D01*
X437880Y212763D01*
X437237Y212120D01*
X436783Y211333D01*
X436547Y210455D01*
Y209545D01*
X436783Y208667D01*
X437237Y207880D01*
X437880Y207237D01*
X438667Y206783D01*
X438980Y206699D01*
Y197000D01*
X439058Y196610D01*
X439279Y196279D01*
X441279Y194279D01*
X441610Y194058D01*
X442000Y193980D01*
X482578D01*
X486340Y190218D01*
X486547Y190079D01*
Y189545D01*
X486783Y188667D01*
X487237Y187880D01*
X487880Y187237D01*
X488667Y186783D01*
X489545Y186547D01*
X490455D01*
X491333Y186783D01*
X492120Y187237D01*
X492763Y187880D01*
X493218Y188667D01*
X493453Y189545D01*
Y190455D01*
X493218Y191333D01*
X492763Y192120D01*
X492120Y192763D01*
X491333Y193218D01*
X490455Y193453D01*
X489545D01*
X488667Y193218D01*
X487880Y192763D01*
X487280Y192162D01*
X483721Y195721D01*
X483390Y195942D01*
X483000Y196020D01*
X442422D01*
X441020Y197422D01*
Y206699D01*
X441333Y206783D01*
X442120Y207237D01*
X442763Y207880D01*
X443218Y208667D01*
X443453Y209545D01*
Y210455D01*
X443218Y211333D01*
X442763Y212120D01*
X442120Y212763D01*
X441333Y213217D01*
X440455Y213453D01*
D02*
G37*
G36*
X344955Y193453D02*
X344045D01*
X343167Y193218D01*
X342380Y192763D01*
X341737Y192120D01*
X341283Y191333D01*
X341047Y190455D01*
Y189545D01*
X341283Y188667D01*
X341737Y187880D01*
X342380Y187237D01*
X343167Y186783D01*
X344045Y186547D01*
X344955D01*
X345833Y186783D01*
X346620Y187237D01*
X347263Y187880D01*
X347717Y188667D01*
X347953Y189545D01*
Y190455D01*
X347717Y191333D01*
X347263Y192120D01*
X346620Y192763D01*
X345833Y193218D01*
X344955Y193453D01*
D02*
G37*
G36*
X334955D02*
X334045D01*
X333167Y193218D01*
X332380Y192763D01*
X331737Y192120D01*
X331282Y191333D01*
X331047Y190455D01*
Y189545D01*
X331282Y188667D01*
X331737Y187880D01*
X332380Y187237D01*
X333167Y186783D01*
X334045Y186547D01*
X334955D01*
X335833Y186783D01*
X336620Y187237D01*
X337263Y187880D01*
X337718Y188667D01*
X337953Y189545D01*
Y190455D01*
X337718Y191333D01*
X337263Y192120D01*
X336620Y192763D01*
X335833Y193218D01*
X334955Y193453D01*
D02*
G37*
G36*
X30461Y193500D02*
X29539D01*
X28649Y193262D01*
X27851Y192801D01*
X27199Y192149D01*
X26739Y191351D01*
X26500Y190461D01*
Y189539D01*
X26739Y188649D01*
X27199Y187851D01*
X27851Y187199D01*
X28649Y186739D01*
X29539Y186500D01*
X30461D01*
X31351Y186739D01*
X32149Y187199D01*
X32801Y187851D01*
X33261Y188649D01*
X33500Y189539D01*
Y190461D01*
X33261Y191351D01*
X32801Y192149D01*
X32149Y192801D01*
X31351Y193262D01*
X30461Y193500D01*
D02*
G37*
G36*
X23500D02*
X16500D01*
Y186500D01*
X23500D01*
Y193500D01*
D02*
G37*
G36*
X110395Y196000D02*
X109605D01*
X108842Y195796D01*
X108158Y195401D01*
X107599Y194842D01*
X107204Y194158D01*
X107000Y193395D01*
Y192605D01*
X107204Y191842D01*
X107599Y191158D01*
X108158Y190599D01*
X108842Y190204D01*
X108980Y190167D01*
Y185586D01*
X109041Y185283D01*
X108599Y184842D01*
X108204Y184158D01*
X108000Y183395D01*
Y182605D01*
X108204Y181842D01*
X108599Y181158D01*
X109158Y180599D01*
X109842Y180204D01*
X110605Y180000D01*
X111395D01*
X112158Y180204D01*
X112842Y180599D01*
X113401Y181158D01*
X113796Y181842D01*
X114000Y182605D01*
Y183395D01*
X113796Y184158D01*
X113401Y184842D01*
X112842Y185401D01*
X112158Y185796D01*
X111395Y186000D01*
X111020D01*
Y190167D01*
X111158Y190204D01*
X111842Y190599D01*
X112401Y191158D01*
X112796Y191842D01*
X113000Y192605D01*
Y193395D01*
X112796Y194158D01*
X112401Y194842D01*
X111842Y195401D01*
X111158Y195796D01*
X110395Y196000D01*
D02*
G37*
G36*
X293453Y186453D02*
X286547D01*
Y179547D01*
X293453D01*
Y186453D01*
D02*
G37*
G36*
X129395Y234000D02*
X128605D01*
X127842Y233796D01*
X127158Y233401D01*
X126599Y232842D01*
X126204Y232158D01*
X126000Y231395D01*
Y230605D01*
X126204Y229842D01*
X126599Y229158D01*
X127158Y228599D01*
X127842Y228204D01*
X127980Y228167D01*
Y182833D01*
X127842Y182796D01*
X127158Y182401D01*
X126599Y181842D01*
X126204Y181158D01*
X126000Y180395D01*
Y179605D01*
X126204Y178842D01*
X126599Y178158D01*
X127158Y177599D01*
X127842Y177204D01*
X128605Y177000D01*
X129395D01*
X130158Y177204D01*
X130842Y177599D01*
X131401Y178158D01*
X131796Y178842D01*
X132000Y179605D01*
Y180395D01*
X131796Y181158D01*
X131401Y181842D01*
X130842Y182401D01*
X130158Y182796D01*
X130020Y182833D01*
Y228167D01*
X130158Y228204D01*
X130842Y228599D01*
X131401Y229158D01*
X131796Y229842D01*
X132000Y230605D01*
Y231395D01*
X131796Y232158D01*
X131401Y232842D01*
X130842Y233401D01*
X130158Y233796D01*
X129395Y234000D01*
D02*
G37*
G36*
X430455Y213453D02*
X429545D01*
X428667Y213217D01*
X427880Y212763D01*
X427237Y212120D01*
X426783Y211333D01*
X426547Y210455D01*
Y209545D01*
X426783Y208667D01*
X427237Y207880D01*
X427880Y207237D01*
X428667Y206783D01*
X428980Y206699D01*
Y186000D01*
X429058Y185610D01*
X429279Y185279D01*
X437279Y177279D01*
X437610Y177058D01*
X438000Y176980D01*
X468000D01*
X468390Y177058D01*
X468721Y177279D01*
X470721Y179279D01*
X470942Y179610D01*
X471020Y180000D01*
Y186699D01*
X471333Y186783D01*
X472120Y187237D01*
X472763Y187880D01*
X473217Y188667D01*
X473453Y189545D01*
Y190455D01*
X473217Y191333D01*
X472763Y192120D01*
X472120Y192763D01*
X471333Y193218D01*
X470455Y193453D01*
X469545D01*
X468667Y193218D01*
X467880Y192763D01*
X467237Y192120D01*
X466783Y191333D01*
X466547Y190455D01*
Y189545D01*
X466783Y188667D01*
X467237Y187880D01*
X467880Y187237D01*
X468667Y186783D01*
X468980Y186699D01*
Y180422D01*
X467578Y179020D01*
X438422D01*
X431020Y186422D01*
Y206699D01*
X431333Y206783D01*
X432120Y207237D01*
X432763Y207880D01*
X433217Y208667D01*
X433453Y209545D01*
Y210455D01*
X433217Y211333D01*
X432763Y212120D01*
X432120Y212763D01*
X431333Y213217D01*
X430455Y213453D01*
D02*
G37*
G36*
X30461Y183500D02*
X29539D01*
X28649Y183262D01*
X27851Y182801D01*
X27199Y182149D01*
X26739Y181351D01*
X26500Y180461D01*
Y179539D01*
X26739Y178649D01*
X27199Y177851D01*
X27851Y177199D01*
X28649Y176739D01*
X29539Y176500D01*
X30461D01*
X31351Y176739D01*
X32149Y177199D01*
X32801Y177851D01*
X33261Y178649D01*
X33500Y179539D01*
Y180461D01*
X33261Y181351D01*
X32801Y182149D01*
X32149Y182801D01*
X31351Y183262D01*
X30461Y183500D01*
D02*
G37*
G36*
X20461D02*
X19539D01*
X18649Y183262D01*
X17851Y182801D01*
X17199Y182149D01*
X16738Y181351D01*
X16650Y181020D01*
X11586D01*
X11196Y180942D01*
X10865Y180721D01*
X10279Y180135D01*
X10058Y179804D01*
X9980Y179414D01*
Y100586D01*
X10058Y100196D01*
X10279Y99865D01*
X10865Y99279D01*
X11196Y99058D01*
X11586Y98980D01*
X84578D01*
X96555Y87003D01*
X96558Y86989D01*
X96779Y86658D01*
X124158Y59279D01*
X124488Y59058D01*
X124879Y58980D01*
X348980D01*
Y52833D01*
X348842Y52796D01*
X348158Y52401D01*
X347599Y51842D01*
X347204Y51158D01*
X347000Y50395D01*
Y49605D01*
X347204Y48842D01*
X347599Y48158D01*
X348158Y47599D01*
X348842Y47204D01*
X349605Y47000D01*
X350395D01*
X351158Y47204D01*
X351842Y47599D01*
X352401Y48158D01*
X352796Y48842D01*
X353000Y49605D01*
Y50395D01*
X352796Y51158D01*
X352401Y51842D01*
X351842Y52401D01*
X351158Y52796D01*
X351020Y52833D01*
Y58980D01*
X351776D01*
Y57630D01*
X355925D01*
Y62370D01*
X351776D01*
Y61020D01*
X125301D01*
X116802Y69519D01*
X116993Y69980D01*
X215167D01*
X215204Y69842D01*
X215599Y69158D01*
X216158Y68599D01*
X216842Y68204D01*
X217605Y68000D01*
X218395D01*
X219158Y68204D01*
X219842Y68599D01*
X220401Y69158D01*
X220796Y69842D01*
X221000Y70605D01*
Y71395D01*
X220796Y72158D01*
X220401Y72842D01*
X219842Y73401D01*
X219158Y73796D01*
X218395Y74000D01*
X217605D01*
X216842Y73796D01*
X216158Y73401D01*
X215599Y72842D01*
X215204Y72158D01*
X215167Y72020D01*
X116422D01*
X100020Y88422D01*
Y154980D01*
X113167D01*
X113204Y154842D01*
X113599Y154158D01*
X114158Y153599D01*
X114842Y153204D01*
X115605Y153000D01*
X116395D01*
X117158Y153204D01*
X117842Y153599D01*
X118401Y154158D01*
X118796Y154842D01*
X119000Y155605D01*
Y156395D01*
X118796Y157158D01*
X118401Y157842D01*
X117842Y158401D01*
X117158Y158796D01*
X116395Y159000D01*
X115605D01*
X114842Y158796D01*
X114158Y158401D01*
X113599Y157842D01*
X113204Y157158D01*
X113167Y157020D01*
X99586D01*
X99196Y156942D01*
X98865Y156721D01*
X98279Y156135D01*
X98058Y155804D01*
X97980Y155414D01*
Y89115D01*
X97518Y88924D01*
X85721Y100721D01*
X85390Y100942D01*
X85000Y101020D01*
X12020D01*
Y178980D01*
X16650D01*
X16738Y178649D01*
X17199Y177851D01*
X17851Y177199D01*
X18649Y176739D01*
X19539Y176500D01*
X20461D01*
X21351Y176739D01*
X22149Y177199D01*
X22801Y177851D01*
X23261Y178649D01*
X23500Y179539D01*
Y180461D01*
X23261Y181351D01*
X22801Y182149D01*
X22149Y182801D01*
X21351Y183262D01*
X20461Y183500D01*
D02*
G37*
G36*
X354395Y283000D02*
X353605D01*
X352842Y282796D01*
X352158Y282401D01*
X351599Y281842D01*
X351204Y281158D01*
X351000Y280395D01*
Y279605D01*
X351204Y278842D01*
X351599Y278158D01*
X352158Y277599D01*
X352842Y277204D01*
X352980Y277167D01*
Y171586D01*
X353058Y171196D01*
X353279Y170865D01*
X353865Y170279D01*
X354196Y170058D01*
X354586Y169980D01*
X365000D01*
X365390Y170058D01*
X365721Y170279D01*
X367718Y172276D01*
X367842Y172204D01*
X368605Y172000D01*
X369395D01*
X370158Y172204D01*
X370842Y172599D01*
X371401Y173158D01*
X371796Y173842D01*
X372000Y174605D01*
Y175395D01*
X371796Y176158D01*
X371401Y176842D01*
X370842Y177401D01*
X370158Y177796D01*
X369395Y178000D01*
X368605D01*
X367842Y177796D01*
X367158Y177401D01*
X366599Y176842D01*
X366204Y176158D01*
X366000Y175395D01*
Y174605D01*
X366204Y173842D01*
X366276Y173718D01*
X364578Y172020D01*
X355020D01*
Y277167D01*
X355158Y277204D01*
X355842Y277599D01*
X356401Y278158D01*
X356796Y278842D01*
X357000Y279605D01*
Y280395D01*
X356796Y281158D01*
X356401Y281842D01*
X355842Y282401D01*
X355158Y282796D01*
X354395Y283000D01*
D02*
G37*
G36*
X139395Y246000D02*
X138605D01*
X137842Y245796D01*
X137158Y245401D01*
X136599Y244842D01*
X136204Y244158D01*
X136000Y243395D01*
Y242605D01*
X136204Y241842D01*
X136599Y241158D01*
X137158Y240599D01*
X137842Y240204D01*
X137980Y240167D01*
Y176833D01*
X137842Y176796D01*
X137158Y176401D01*
X136599Y175842D01*
X136204Y175158D01*
X136000Y174395D01*
Y173605D01*
X136204Y172842D01*
X136599Y172158D01*
X137158Y171599D01*
X137842Y171204D01*
X138605Y171000D01*
X139395D01*
X140158Y171204D01*
X140842Y171599D01*
X141401Y172158D01*
X141796Y172842D01*
X142000Y173605D01*
Y174395D01*
X141796Y175158D01*
X141401Y175842D01*
X140842Y176401D01*
X140158Y176796D01*
X140020Y176833D01*
Y240167D01*
X140158Y240204D01*
X140842Y240599D01*
X141401Y241158D01*
X141796Y241842D01*
X142000Y242605D01*
Y243395D01*
X141796Y244158D01*
X141401Y244842D01*
X140842Y245401D01*
X140158Y245796D01*
X139395Y246000D01*
D02*
G37*
G36*
X224395Y175000D02*
X223605D01*
X222842Y174796D01*
X222158Y174401D01*
X221599Y173842D01*
X221204Y173158D01*
X221000Y172395D01*
Y171605D01*
X221204Y170842D01*
X221276Y170718D01*
X220578Y170020D01*
X214224D01*
Y171370D01*
X210075D01*
Y166630D01*
X211130D01*
Y165370D01*
X210075D01*
Y160630D01*
X211130D01*
Y159370D01*
X210075D01*
Y154630D01*
X211130D01*
Y140654D01*
X209459Y138983D01*
X209395Y139000D01*
X208605D01*
X207842Y138796D01*
X207158Y138401D01*
X206599Y137842D01*
X206204Y137158D01*
X206000Y136395D01*
Y135605D01*
X206204Y134842D01*
X206599Y134158D01*
X207158Y133599D01*
X207842Y133204D01*
X208605Y133000D01*
X209395D01*
X210158Y133204D01*
X210842Y133599D01*
X211401Y134158D01*
X211796Y134842D01*
X212000Y135605D01*
Y136395D01*
X211796Y137158D01*
X211401Y137842D01*
X211301Y137942D01*
X212871Y139511D01*
X213092Y139842D01*
X213169Y140232D01*
Y154630D01*
X214224D01*
Y155980D01*
X216776D01*
Y154630D01*
X220925D01*
Y159370D01*
X219870D01*
Y161630D01*
X220925D01*
Y166370D01*
X219870D01*
Y167980D01*
X221000D01*
X221390Y168058D01*
X221721Y168279D01*
X222718Y169276D01*
X222842Y169204D01*
X223605Y169000D01*
X224395D01*
X225158Y169204D01*
X225842Y169599D01*
X226401Y170158D01*
X226796Y170842D01*
X227000Y171605D01*
Y172395D01*
X226796Y173158D01*
X226401Y173842D01*
X225842Y174401D01*
X225158Y174796D01*
X224395Y175000D01*
D02*
G37*
G36*
X420455Y223453D02*
X419545D01*
X418667Y223218D01*
X417880Y222763D01*
X417237Y222120D01*
X416783Y221333D01*
X416547Y220455D01*
Y219545D01*
X416783Y218667D01*
X417237Y217880D01*
X417880Y217237D01*
X418667Y216782D01*
X419545Y216547D01*
X420455D01*
X420893Y216665D01*
X423980Y213578D01*
Y186422D01*
X416578Y179020D01*
X380950D01*
X380560Y178942D01*
X380229Y178721D01*
X368527Y167020D01*
X359833D01*
X359796Y167158D01*
X359401Y167842D01*
X358842Y168401D01*
X358158Y168796D01*
X357395Y169000D01*
X356605D01*
X355842Y168796D01*
X355158Y168401D01*
X354599Y167842D01*
X354204Y167158D01*
X354000Y166395D01*
Y165605D01*
X354204Y164842D01*
X354599Y164158D01*
X355158Y163599D01*
X355842Y163204D01*
X356605Y163000D01*
X357395D01*
X358158Y163204D01*
X358842Y163599D01*
X359401Y164158D01*
X359796Y164842D01*
X359833Y164980D01*
X367956D01*
X368148Y164518D01*
X364649Y161020D01*
X278422D01*
X276020Y163422D01*
Y184167D01*
X276158Y184204D01*
X276842Y184599D01*
X277401Y185158D01*
X277796Y185842D01*
X278000Y186605D01*
Y187395D01*
X277796Y188158D01*
X277401Y188842D01*
X276842Y189401D01*
X276158Y189796D01*
X275395Y190000D01*
X274605D01*
X273842Y189796D01*
X273158Y189401D01*
X272599Y188842D01*
X272204Y188158D01*
X272000Y187395D01*
Y186605D01*
X272204Y185842D01*
X272599Y185158D01*
X273158Y184599D01*
X273842Y184204D01*
X273980Y184167D01*
Y163000D01*
X274058Y162610D01*
X274279Y162279D01*
X277279Y159279D01*
X277610Y159058D01*
X278000Y158980D01*
X365071D01*
X365461Y159058D01*
X365792Y159279D01*
X375493Y168980D01*
X491578D01*
X507326Y153232D01*
X507515Y153105D01*
X507633Y152636D01*
X507624Y152507D01*
X507237Y152120D01*
X507150Y151968D01*
X506541Y151901D01*
X492135Y166307D01*
X491804Y166528D01*
X491414Y166605D01*
X395537D01*
X395401Y166842D01*
X394842Y167401D01*
X394158Y167796D01*
X393395Y168000D01*
X392605D01*
X391842Y167796D01*
X391158Y167401D01*
X390599Y166842D01*
X390204Y166158D01*
X390000Y165395D01*
Y164605D01*
X390204Y163842D01*
X390599Y163158D01*
X391158Y162599D01*
X391842Y162204D01*
X392605Y162000D01*
X393395D01*
X394158Y162204D01*
X394842Y162599D01*
X395401Y163158D01*
X395796Y163842D01*
X395990Y164566D01*
X490992D01*
X505630Y149928D01*
X505961Y149707D01*
X506351Y149629D01*
X506547D01*
Y149545D01*
X506782Y148667D01*
X507237Y147880D01*
X507880Y147237D01*
X508667Y146783D01*
X509545Y146547D01*
X510455D01*
X511333Y146783D01*
X512120Y147237D01*
X512763Y147880D01*
X513217Y148667D01*
X513453Y149545D01*
Y149988D01*
X513953Y150195D01*
X514869Y149279D01*
X515200Y149058D01*
X515590Y148980D01*
X526699D01*
X526783Y148667D01*
X527237Y147880D01*
X527880Y147237D01*
X528667Y146783D01*
X529545Y146547D01*
X530455D01*
X531333Y146783D01*
X532120Y147237D01*
X532763Y147880D01*
X533217Y148667D01*
X533453Y149545D01*
Y150455D01*
X533217Y151333D01*
X532763Y152120D01*
X532120Y152763D01*
X531333Y153217D01*
X530455Y153453D01*
X529545D01*
X528667Y153217D01*
X527880Y152763D01*
X527237Y152120D01*
X526783Y151333D01*
X526699Y151020D01*
X516012D01*
X512358Y154674D01*
X512028Y154895D01*
X511637Y154972D01*
X508470D01*
X507357Y156085D01*
X507548Y156547D01*
X513453D01*
Y163453D01*
X506547D01*
Y157548D01*
X506085Y157357D01*
X492721Y170721D01*
X492390Y170942D01*
X492000Y171020D01*
X376064D01*
X375873Y171482D01*
X381372Y176980D01*
X417000D01*
X417390Y177058D01*
X417721Y177279D01*
X425000Y184558D01*
X436279Y173279D01*
X436610Y173058D01*
X437000Y172980D01*
X529414D01*
X529804Y173058D01*
X530135Y173279D01*
X530721Y173865D01*
X530942Y174196D01*
X531020Y174586D01*
Y186699D01*
X531333Y186783D01*
X532120Y187237D01*
X532763Y187880D01*
X533217Y188667D01*
X533453Y189545D01*
Y190455D01*
X533217Y191333D01*
X532763Y192120D01*
X532120Y192763D01*
X531333Y193218D01*
X530455Y193453D01*
X529545D01*
X528667Y193218D01*
X527880Y192763D01*
X527237Y192120D01*
X526783Y191333D01*
X526547Y190455D01*
Y189545D01*
X526783Y188667D01*
X527237Y187880D01*
X527880Y187237D01*
X528667Y186783D01*
X528980Y186699D01*
Y175020D01*
X437422D01*
X426020Y186422D01*
Y214000D01*
X425942Y214390D01*
X425721Y214721D01*
X422662Y217779D01*
X422763Y217880D01*
X423217Y218667D01*
X423453Y219545D01*
Y220455D01*
X423217Y221333D01*
X422763Y222120D01*
X422120Y222763D01*
X421333Y223218D01*
X420455Y223453D01*
D02*
G37*
G36*
X30461Y173500D02*
X29539D01*
X28649Y173261D01*
X27851Y172801D01*
X27199Y172149D01*
X26739Y171351D01*
X26500Y170461D01*
Y169539D01*
X26739Y168649D01*
X27199Y167851D01*
X27851Y167199D01*
X28649Y166738D01*
X29539Y166500D01*
X30461D01*
X31351Y166738D01*
X32149Y167199D01*
X32801Y167851D01*
X33261Y168649D01*
X33500Y169539D01*
Y170461D01*
X33261Y171351D01*
X32801Y172149D01*
X32149Y172801D01*
X31351Y173261D01*
X30461Y173500D01*
D02*
G37*
G36*
X20461D02*
X19539D01*
X18649Y173261D01*
X17851Y172801D01*
X17199Y172149D01*
X16738Y171351D01*
X16500Y170461D01*
Y169539D01*
X16738Y168649D01*
X17199Y167851D01*
X17851Y167199D01*
X18649Y166738D01*
X19539Y166500D01*
X20461D01*
X21351Y166738D01*
X22149Y167199D01*
X22801Y167851D01*
X23261Y168649D01*
X23500Y169539D01*
Y170461D01*
X23261Y171351D01*
X22801Y172149D01*
X22149Y172801D01*
X21351Y173261D01*
X20461Y173500D01*
D02*
G37*
G36*
X145395Y251000D02*
X144605D01*
X143842Y250796D01*
X143158Y250401D01*
X142599Y249842D01*
X142204Y249158D01*
X142000Y248395D01*
Y247605D01*
X142204Y246842D01*
X142599Y246158D01*
X143158Y245599D01*
X143842Y245204D01*
X144605Y245000D01*
X144980D01*
Y173000D01*
X145058Y172610D01*
X145279Y172279D01*
X148276Y169282D01*
X148204Y169158D01*
X148000Y168395D01*
Y167605D01*
X148204Y166842D01*
X148599Y166158D01*
X149158Y165599D01*
X149842Y165204D01*
X150605Y165000D01*
X151395D01*
X152158Y165204D01*
X152842Y165599D01*
X153401Y166158D01*
X153796Y166842D01*
X154000Y167605D01*
Y168395D01*
X153796Y169158D01*
X153401Y169842D01*
X152842Y170401D01*
X152158Y170796D01*
X151395Y171000D01*
X150605D01*
X149842Y170796D01*
X149718Y170724D01*
X147020Y173422D01*
Y245414D01*
X146959Y245717D01*
X147401Y246158D01*
X147796Y246842D01*
X148000Y247605D01*
Y248395D01*
X147796Y249158D01*
X147401Y249842D01*
X146842Y250401D01*
X146158Y250796D01*
X145395Y251000D01*
D02*
G37*
G36*
X488000Y163020D02*
X404000D01*
X403610Y162942D01*
X403279Y162721D01*
X401282Y160724D01*
X401158Y160796D01*
X400395Y161000D01*
X399605D01*
X398842Y160796D01*
X398158Y160401D01*
X397599Y159842D01*
X397204Y159158D01*
X397000Y158395D01*
Y157605D01*
X397204Y156842D01*
X397599Y156158D01*
X398158Y155599D01*
X398842Y155204D01*
X399605Y155000D01*
X400395D01*
X401158Y155204D01*
X401842Y155599D01*
X402401Y156158D01*
X402796Y156842D01*
X403000Y157605D01*
Y158395D01*
X402796Y159158D01*
X402724Y159282D01*
X404422Y160980D01*
X487578D01*
X498980Y149578D01*
Y72833D01*
X498842Y72796D01*
X498158Y72401D01*
X497599Y71842D01*
X497204Y71158D01*
X497000Y70395D01*
Y69605D01*
X497204Y68842D01*
X497599Y68158D01*
X498158Y67599D01*
X498842Y67204D01*
X499605Y67000D01*
X500395D01*
X501158Y67204D01*
X501842Y67599D01*
X502401Y68158D01*
X502796Y68842D01*
X503000Y69605D01*
Y70395D01*
X502796Y71158D01*
X502401Y71842D01*
X501842Y72401D01*
X501158Y72796D01*
X501020Y72833D01*
Y150000D01*
X500942Y150390D01*
X500721Y150721D01*
X488721Y162721D01*
X488390Y162942D01*
X488000Y163020D01*
D02*
G37*
G36*
X387395Y162000D02*
X386605D01*
X385842Y161796D01*
X385158Y161401D01*
X384599Y160842D01*
X384204Y160158D01*
X384167Y160020D01*
X374833D01*
X374796Y160158D01*
X374401Y160842D01*
X373842Y161401D01*
X373158Y161796D01*
X372395Y162000D01*
X371605D01*
X370842Y161796D01*
X370158Y161401D01*
X369599Y160842D01*
X369204Y160158D01*
X369000Y159395D01*
Y158605D01*
X369204Y157842D01*
X369599Y157158D01*
X370158Y156599D01*
X370842Y156204D01*
X371605Y156000D01*
X372395D01*
X373158Y156204D01*
X373842Y156599D01*
X374401Y157158D01*
X374796Y157842D01*
X374833Y157980D01*
X384167D01*
X384204Y157842D01*
X384599Y157158D01*
X385158Y156599D01*
X385842Y156204D01*
X386605Y156000D01*
X387395D01*
X388158Y156204D01*
X388842Y156599D01*
X389401Y157158D01*
X389796Y157842D01*
X390000Y158605D01*
Y159395D01*
X389796Y160158D01*
X389401Y160842D01*
X388842Y161401D01*
X388158Y161796D01*
X387395Y162000D01*
D02*
G37*
G36*
X77395Y197000D02*
X76605D01*
X75842Y196796D01*
X75158Y196401D01*
X74599Y195842D01*
X74204Y195158D01*
X74000Y194395D01*
Y193605D01*
X74204Y192842D01*
X74599Y192158D01*
X75158Y191599D01*
X75842Y191204D01*
X76223Y191102D01*
Y162757D01*
X76301Y162367D01*
X76522Y162036D01*
X78035Y160524D01*
X78000Y160395D01*
Y159605D01*
X78204Y158842D01*
X78599Y158158D01*
X79158Y157599D01*
X79842Y157204D01*
X80605Y157000D01*
X81395D01*
X82158Y157204D01*
X82842Y157599D01*
X83401Y158158D01*
X83796Y158842D01*
X84000Y159605D01*
Y160395D01*
X83796Y161158D01*
X83401Y161842D01*
X82842Y162401D01*
X82158Y162796D01*
X81395Y163000D01*
X80605D01*
X79842Y162796D01*
X79158Y162401D01*
X79100Y162342D01*
X78262Y163180D01*
Y191265D01*
X78842Y191599D01*
X79401Y192158D01*
X79796Y192842D01*
X80000Y193605D01*
Y194395D01*
X79796Y195158D01*
X79401Y195842D01*
X78842Y196401D01*
X78158Y196796D01*
X77395Y197000D01*
D02*
G37*
G36*
X533453Y163453D02*
X526547D01*
Y156547D01*
X533453D01*
Y163453D01*
D02*
G37*
G36*
X30461Y163500D02*
X29539D01*
X28649Y163261D01*
X27851Y162801D01*
X27199Y162149D01*
X26739Y161351D01*
X26500Y160461D01*
Y159539D01*
X26739Y158649D01*
X27199Y157851D01*
X27851Y157199D01*
X28649Y156738D01*
X29539Y156500D01*
X30461D01*
X31351Y156738D01*
X32149Y157199D01*
X32801Y157851D01*
X33261Y158649D01*
X33500Y159539D01*
Y160461D01*
X33261Y161351D01*
X32801Y162149D01*
X32149Y162801D01*
X31351Y163261D01*
X30461Y163500D01*
D02*
G37*
G36*
X20461D02*
X19539D01*
X18649Y163261D01*
X17851Y162801D01*
X17199Y162149D01*
X16738Y161351D01*
X16500Y160461D01*
Y159539D01*
X16738Y158649D01*
X17199Y157851D01*
X17851Y157199D01*
X18649Y156738D01*
X19539Y156500D01*
X20461D01*
X21351Y156738D01*
X22149Y157199D01*
X22801Y157851D01*
X23261Y158649D01*
X23500Y159539D01*
Y160461D01*
X23261Y161351D01*
X22801Y162149D01*
X22149Y162801D01*
X21351Y163261D01*
X20461Y163500D01*
D02*
G37*
G36*
X387395Y153000D02*
X386605D01*
X385842Y152796D01*
X385158Y152401D01*
X384599Y151842D01*
X384204Y151158D01*
X384167Y151020D01*
X374833D01*
X374796Y151158D01*
X374401Y151842D01*
X373842Y152401D01*
X373158Y152796D01*
X372395Y153000D01*
X371605D01*
X370842Y152796D01*
X370158Y152401D01*
X369599Y151842D01*
X369204Y151158D01*
X369000Y150395D01*
Y149605D01*
X369204Y148842D01*
X369599Y148158D01*
X370158Y147599D01*
X370842Y147204D01*
X371605Y147000D01*
X372395D01*
X373158Y147204D01*
X373842Y147599D01*
X374401Y148158D01*
X374796Y148842D01*
X374833Y148980D01*
X384167D01*
X384204Y148842D01*
X384599Y148158D01*
X385158Y147599D01*
X385842Y147204D01*
X386605Y147000D01*
X387395D01*
X388158Y147204D01*
X388842Y147599D01*
X389401Y148158D01*
X389796Y148842D01*
X390000Y149605D01*
Y150395D01*
X389796Y151158D01*
X389401Y151842D01*
X388842Y152401D01*
X388158Y152796D01*
X387395Y153000D01*
D02*
G37*
G36*
X227224Y166370D02*
X223075D01*
Y161630D01*
X224130D01*
Y159370D01*
X223075D01*
Y154630D01*
X226078D01*
X227429Y153279D01*
X227759Y153058D01*
X228150Y152980D01*
X244167D01*
X244204Y152842D01*
X244599Y152158D01*
X245158Y151599D01*
X245842Y151204D01*
X246605Y151000D01*
X247395D01*
X248158Y151204D01*
X248842Y151599D01*
X249401Y152158D01*
X249796Y152842D01*
X250000Y153605D01*
Y154395D01*
X249796Y155158D01*
X249401Y155842D01*
X248842Y156401D01*
X248158Y156796D01*
X247395Y157000D01*
X246605D01*
X245842Y156796D01*
X245158Y156401D01*
X244599Y155842D01*
X244204Y155158D01*
X244167Y155020D01*
X228572D01*
X227241Y156351D01*
X227224Y156362D01*
Y159370D01*
X226169D01*
Y161630D01*
X227224D01*
Y166370D01*
D02*
G37*
G36*
X165395Y233000D02*
X164605D01*
X163842Y232796D01*
X163158Y232401D01*
X162599Y231842D01*
X162204Y231158D01*
X162000Y230395D01*
Y229605D01*
X162204Y228842D01*
X162599Y228158D01*
X163158Y227599D01*
X163842Y227204D01*
X163980Y227167D01*
Y152586D01*
X164041Y152283D01*
X163599Y151842D01*
X163204Y151158D01*
X163000Y150395D01*
Y149605D01*
X163204Y148842D01*
X163599Y148158D01*
X164158Y147599D01*
X164842Y147204D01*
X165605Y147000D01*
X166395D01*
X167158Y147204D01*
X167842Y147599D01*
X168401Y148158D01*
X168796Y148842D01*
X169000Y149605D01*
Y150395D01*
X168796Y151158D01*
X168401Y151842D01*
X167842Y152401D01*
X167158Y152796D01*
X166395Y153000D01*
X166020D01*
Y227167D01*
X166158Y227204D01*
X166842Y227599D01*
X167401Y228158D01*
X167796Y228842D01*
X168000Y229605D01*
Y230395D01*
X167796Y231158D01*
X167401Y231842D01*
X166842Y232401D01*
X166158Y232796D01*
X165395Y233000D01*
D02*
G37*
G36*
X30461Y153500D02*
X29539D01*
X28649Y153261D01*
X27851Y152801D01*
X27199Y152149D01*
X26739Y151351D01*
X26500Y150461D01*
Y149539D01*
X26739Y148649D01*
X27199Y147851D01*
X27851Y147199D01*
X28649Y146739D01*
X29539Y146500D01*
X30461D01*
X31351Y146739D01*
X32149Y147199D01*
X32801Y147851D01*
X33261Y148649D01*
X33500Y149539D01*
Y150461D01*
X33261Y151351D01*
X32801Y152149D01*
X32149Y152801D01*
X31351Y153261D01*
X30461Y153500D01*
D02*
G37*
G36*
X20461D02*
X19539D01*
X18649Y153261D01*
X17851Y152801D01*
X17199Y152149D01*
X16738Y151351D01*
X16500Y150461D01*
Y149539D01*
X16738Y148649D01*
X17199Y147851D01*
X17851Y147199D01*
X18649Y146739D01*
X19539Y146500D01*
X20461D01*
X21351Y146739D01*
X22149Y147199D01*
X22801Y147851D01*
X23261Y148649D01*
X23500Y149539D01*
Y150461D01*
X23261Y151351D01*
X22801Y152149D01*
X22149Y152801D01*
X21351Y153261D01*
X20461Y153500D01*
D02*
G37*
G36*
X387395Y143000D02*
X386605D01*
X385842Y142796D01*
X385158Y142401D01*
X384717Y141959D01*
X384414Y142020D01*
X375586D01*
X375283Y141959D01*
X374842Y142401D01*
X374158Y142796D01*
X373395Y143000D01*
X372605D01*
X371842Y142796D01*
X371158Y142401D01*
X370599Y141842D01*
X370204Y141158D01*
X370000Y140395D01*
Y139605D01*
X370204Y138842D01*
X370599Y138158D01*
X371158Y137599D01*
X371842Y137204D01*
X372605Y137000D01*
X373395D01*
X374158Y137204D01*
X374842Y137599D01*
X375401Y138158D01*
X375796Y138842D01*
X376000Y139605D01*
Y139980D01*
X384000D01*
Y139605D01*
X384204Y138842D01*
X384599Y138158D01*
X385158Y137599D01*
X385842Y137204D01*
X386605Y137000D01*
X387395D01*
X388158Y137204D01*
X388842Y137599D01*
X389401Y138158D01*
X389796Y138842D01*
X390000Y139605D01*
Y140395D01*
X389796Y141158D01*
X389401Y141842D01*
X388842Y142401D01*
X388158Y142796D01*
X387395Y143000D01*
D02*
G37*
G36*
X30461Y143500D02*
X29539D01*
X28649Y143262D01*
X27851Y142801D01*
X27199Y142149D01*
X26739Y141351D01*
X26500Y140461D01*
Y139539D01*
X26739Y138649D01*
X27199Y137851D01*
X27851Y137199D01*
X28649Y136739D01*
X29539Y136500D01*
X30461D01*
X31351Y136739D01*
X32149Y137199D01*
X32801Y137851D01*
X33261Y138649D01*
X33500Y139539D01*
Y140461D01*
X33261Y141351D01*
X32801Y142149D01*
X32149Y142801D01*
X31351Y143262D01*
X30461Y143500D01*
D02*
G37*
G36*
X20461D02*
X19539D01*
X18649Y143262D01*
X17851Y142801D01*
X17199Y142149D01*
X16738Y141351D01*
X16500Y140461D01*
Y139539D01*
X16738Y138649D01*
X17199Y137851D01*
X17851Y137199D01*
X18649Y136739D01*
X19539Y136500D01*
X20461D01*
X21351Y136739D01*
X22149Y137199D01*
X22801Y137851D01*
X23261Y138649D01*
X23500Y139539D01*
Y140461D01*
X23261Y141351D01*
X22801Y142149D01*
X22149Y142801D01*
X21351Y143262D01*
X20461Y143500D01*
D02*
G37*
G36*
X544395Y142000D02*
X543605D01*
X542842Y141796D01*
X542158Y141401D01*
X541599Y140842D01*
X541204Y140158D01*
X541000Y139395D01*
Y138605D01*
X541204Y137842D01*
X541599Y137158D01*
X542158Y136599D01*
X542842Y136204D01*
X543605Y136000D01*
X544395D01*
X545158Y136204D01*
X545842Y136599D01*
X546401Y137158D01*
X546796Y137842D01*
X547000Y138605D01*
Y139395D01*
X546796Y140158D01*
X546401Y140842D01*
X545842Y141401D01*
X545158Y141796D01*
X544395Y142000D01*
D02*
G37*
G36*
X429395Y150000D02*
X428605D01*
X427842Y149796D01*
X427158Y149401D01*
X426599Y148842D01*
X426204Y148158D01*
X426000Y147395D01*
Y146605D01*
X426204Y145842D01*
X426599Y145158D01*
X427158Y144599D01*
X427842Y144204D01*
X428605Y144000D01*
X429395D01*
X429611Y144058D01*
X430000Y143980D01*
X467980D01*
Y136833D01*
X467842Y136796D01*
X467158Y136401D01*
X466599Y135842D01*
X466204Y135158D01*
X466000Y134395D01*
Y133605D01*
X466204Y132842D01*
X466599Y132158D01*
X467158Y131599D01*
X467842Y131204D01*
X468605Y131000D01*
X469395D01*
X470158Y131204D01*
X470842Y131599D01*
X471401Y132158D01*
X471796Y132842D01*
X472000Y133605D01*
Y134395D01*
X471796Y135158D01*
X471401Y135842D01*
X470842Y136401D01*
X470158Y136796D01*
X470020Y136833D01*
Y144414D01*
X469942Y144804D01*
X469721Y145135D01*
X469135Y145721D01*
X468804Y145942D01*
X468414Y146020D01*
X432254D01*
X431949Y146416D01*
X432000Y146605D01*
Y147395D01*
X431796Y148158D01*
X431401Y148842D01*
X430842Y149401D01*
X430158Y149796D01*
X429395Y150000D01*
D02*
G37*
G36*
X30461Y133500D02*
X29539D01*
X28649Y133262D01*
X27851Y132801D01*
X27199Y132149D01*
X26739Y131351D01*
X26500Y130461D01*
Y129539D01*
X26739Y128649D01*
X27199Y127851D01*
X27851Y127199D01*
X28649Y126739D01*
X29539Y126500D01*
X30461D01*
X31351Y126739D01*
X32149Y127199D01*
X32801Y127851D01*
X33261Y128649D01*
X33500Y129539D01*
Y130461D01*
X33261Y131351D01*
X32801Y132149D01*
X32149Y132801D01*
X31351Y133262D01*
X30461Y133500D01*
D02*
G37*
G36*
X20461D02*
X19539D01*
X18649Y133262D01*
X17851Y132801D01*
X17199Y132149D01*
X16738Y131351D01*
X16500Y130461D01*
Y129539D01*
X16738Y128649D01*
X17199Y127851D01*
X17851Y127199D01*
X18649Y126739D01*
X19539Y126500D01*
X20461D01*
X21351Y126739D01*
X22149Y127199D01*
X22801Y127851D01*
X23261Y128649D01*
X23500Y129539D01*
Y130461D01*
X23261Y131351D01*
X22801Y132149D01*
X22149Y132801D01*
X21351Y133262D01*
X20461Y133500D01*
D02*
G37*
G36*
X340395Y129000D02*
X339605D01*
X338842Y128796D01*
X338158Y128401D01*
X337599Y127842D01*
X337204Y127158D01*
X337000Y126395D01*
Y125605D01*
X337027Y125505D01*
X336640Y125020D01*
X169000D01*
X168610Y124942D01*
X168279Y124721D01*
X167282Y123724D01*
X167158Y123796D01*
X166395Y124000D01*
X165605D01*
X164842Y123796D01*
X164158Y123401D01*
X163599Y122842D01*
X163204Y122158D01*
X163000Y121395D01*
Y120605D01*
X163204Y119842D01*
X163599Y119158D01*
X164158Y118599D01*
X164842Y118204D01*
X165605Y118000D01*
X166395D01*
X167158Y118204D01*
X167842Y118599D01*
X168401Y119158D01*
X168796Y119842D01*
X169000Y120605D01*
Y121395D01*
X168796Y122158D01*
X168724Y122282D01*
X169422Y122980D01*
X337414D01*
X337804Y123058D01*
X338135Y123279D01*
X338347Y123491D01*
X338842Y123204D01*
X339605Y123000D01*
X340395D01*
X341158Y123204D01*
X341842Y123599D01*
X342401Y124158D01*
X342796Y124842D01*
X343000Y125605D01*
Y126395D01*
X342796Y127158D01*
X342401Y127842D01*
X341842Y128401D01*
X341158Y128796D01*
X340395Y129000D01*
D02*
G37*
G36*
X480414Y155020D02*
X425000D01*
X424610Y154942D01*
X424279Y154721D01*
X419578Y150020D01*
X412833D01*
X412796Y150158D01*
X412401Y150842D01*
X411842Y151401D01*
X411158Y151796D01*
X410395Y152000D01*
X409605D01*
X408842Y151796D01*
X408158Y151401D01*
X407599Y150842D01*
X407204Y150158D01*
X407000Y149395D01*
Y148605D01*
X407204Y147842D01*
X407599Y147158D01*
X408158Y146599D01*
X408842Y146204D01*
X409605Y146000D01*
X410395D01*
X411158Y146204D01*
X411842Y146599D01*
X412401Y147158D01*
X412796Y147842D01*
X412833Y147980D01*
X420000D01*
X420390Y148058D01*
X420721Y148279D01*
X425422Y152980D01*
X479980D01*
Y124422D01*
X477693Y122135D01*
X477520Y121875D01*
X477227Y121888D01*
X477020Y121958D01*
Y146167D01*
X477158Y146204D01*
X477842Y146599D01*
X478401Y147158D01*
X478796Y147842D01*
X479000Y148605D01*
Y149395D01*
X478796Y150158D01*
X478401Y150842D01*
X477842Y151401D01*
X477158Y151796D01*
X476395Y152000D01*
X475605D01*
X474842Y151796D01*
X474158Y151401D01*
X473599Y150842D01*
X473204Y150158D01*
X473000Y149395D01*
Y148605D01*
X473204Y147842D01*
X473599Y147158D01*
X474158Y146599D01*
X474842Y146204D01*
X474980Y146167D01*
Y89422D01*
X470578Y85020D01*
X460000D01*
X459610Y84942D01*
X459279Y84721D01*
X457282Y82724D01*
X457158Y82796D01*
X456395Y83000D01*
X455605D01*
X454842Y82796D01*
X454158Y82401D01*
X453599Y81842D01*
X453204Y81158D01*
X453000Y80395D01*
Y79605D01*
X453204Y78842D01*
X453599Y78158D01*
X454158Y77599D01*
X454842Y77204D01*
X455605Y77000D01*
X456395D01*
X457158Y77204D01*
X457842Y77599D01*
X458401Y78158D01*
X458796Y78842D01*
X459000Y79605D01*
Y80395D01*
X458796Y81158D01*
X458724Y81282D01*
X460422Y82980D01*
X471000D01*
X471390Y83058D01*
X471721Y83279D01*
X476422Y87980D01*
X488167D01*
X488204Y87842D01*
X488599Y87158D01*
X489158Y86599D01*
X489842Y86204D01*
X490605Y86000D01*
X491395D01*
X492158Y86204D01*
X492842Y86599D01*
X493401Y87158D01*
X493796Y87842D01*
X494000Y88605D01*
Y89395D01*
X493796Y90158D01*
X493401Y90842D01*
X492842Y91401D01*
X492158Y91796D01*
X491395Y92000D01*
X490605D01*
X489842Y91796D01*
X489158Y91401D01*
X488599Y90842D01*
X488204Y90158D01*
X488167Y90020D01*
X477020D01*
Y103042D01*
X477227Y103112D01*
X477520Y103125D01*
X477693Y102865D01*
X481501Y99057D01*
X481436Y98561D01*
X481158Y98401D01*
X480599Y97842D01*
X480204Y97158D01*
X480000Y96395D01*
Y95605D01*
X480204Y94842D01*
X480599Y94158D01*
X481158Y93599D01*
X481842Y93204D01*
X482605Y93000D01*
X483395D01*
X484158Y93204D01*
X484842Y93599D01*
X485401Y94158D01*
X485796Y94842D01*
X486000Y95605D01*
Y96395D01*
X485796Y97158D01*
X485401Y97842D01*
X484842Y98401D01*
X484158Y98796D01*
X484020Y98833D01*
Y99000D01*
X483942Y99390D01*
X483721Y99721D01*
X479434Y104008D01*
Y120992D01*
X481721Y123279D01*
X481942Y123610D01*
X482020Y124000D01*
Y153414D01*
X481942Y153804D01*
X481721Y154135D01*
X481135Y154721D01*
X480804Y154942D01*
X480414Y155020D01*
D02*
G37*
G36*
X30461Y123500D02*
X29539D01*
X28649Y123261D01*
X27851Y122801D01*
X27199Y122149D01*
X26739Y121351D01*
X26500Y120461D01*
Y119539D01*
X26739Y118649D01*
X27199Y117851D01*
X27851Y117199D01*
X28649Y116738D01*
X29539Y116500D01*
X30461D01*
X31351Y116738D01*
X32149Y117199D01*
X32801Y117851D01*
X33261Y118649D01*
X33500Y119539D01*
Y120461D01*
X33261Y121351D01*
X32801Y122149D01*
X32149Y122801D01*
X31351Y123261D01*
X30461Y123500D01*
D02*
G37*
G36*
X20461D02*
X19539D01*
X18649Y123261D01*
X17851Y122801D01*
X17199Y122149D01*
X16738Y121351D01*
X16500Y120461D01*
Y119539D01*
X16738Y118649D01*
X17199Y117851D01*
X17851Y117199D01*
X18649Y116738D01*
X19539Y116500D01*
X20461D01*
X21351Y116738D01*
X22149Y117199D01*
X22801Y117851D01*
X23261Y118649D01*
X23500Y119539D01*
Y120461D01*
X23261Y121351D01*
X22801Y122149D01*
X22149Y122801D01*
X21351Y123261D01*
X20461Y123500D01*
D02*
G37*
G36*
X435453Y122453D02*
X428547D01*
Y115547D01*
X435453D01*
Y122453D01*
D02*
G37*
G36*
X400453D02*
X393547D01*
Y115547D01*
X400453D01*
Y122453D01*
D02*
G37*
G36*
X420395Y160000D02*
X419605D01*
X418842Y159796D01*
X418158Y159401D01*
X417599Y158842D01*
X417204Y158158D01*
X417000Y157395D01*
Y156605D01*
X417204Y155842D01*
X417599Y155158D01*
X418158Y154599D01*
X418842Y154204D01*
X419605Y154000D01*
X420395D01*
X421158Y154204D01*
X421842Y154599D01*
X422401Y155158D01*
X422796Y155842D01*
X422833Y155980D01*
X482980D01*
Y115833D01*
X482842Y115796D01*
X482158Y115401D01*
X481599Y114842D01*
X481204Y114158D01*
X481000Y113395D01*
Y112605D01*
X481204Y111842D01*
X481599Y111158D01*
X482158Y110599D01*
X482842Y110204D01*
X483605Y110000D01*
X484395D01*
X485158Y110204D01*
X485842Y110599D01*
X486401Y111158D01*
X486796Y111842D01*
X487000Y112605D01*
Y113395D01*
X486796Y114158D01*
X486401Y114842D01*
X485842Y115401D01*
X485158Y115796D01*
X485020Y115833D01*
Y156414D01*
X484942Y156804D01*
X484721Y157135D01*
X484135Y157721D01*
X483804Y157942D01*
X483414Y158020D01*
X422833D01*
X422796Y158158D01*
X422401Y158842D01*
X421842Y159401D01*
X421158Y159796D01*
X420395Y160000D01*
D02*
G37*
G36*
X255395Y111000D02*
X254605D01*
X253842Y110796D01*
X253158Y110401D01*
X252599Y109842D01*
X252204Y109158D01*
X252167Y109020D01*
X234000D01*
X233610Y108942D01*
X233279Y108721D01*
X231282Y106724D01*
X231158Y106796D01*
X230395Y107000D01*
X229605D01*
X228842Y106796D01*
X228158Y106401D01*
X227599Y105842D01*
X227204Y105158D01*
X227000Y104395D01*
Y103605D01*
X227204Y102842D01*
X227599Y102158D01*
X228158Y101599D01*
X228296Y101520D01*
X228162Y101020D01*
X220833D01*
X220796Y101158D01*
X220401Y101842D01*
X219842Y102401D01*
X219158Y102796D01*
X218395Y103000D01*
X217605D01*
X216842Y102796D01*
X216158Y102401D01*
X215599Y101842D01*
X215204Y101158D01*
X215000Y100395D01*
Y99605D01*
X215204Y98842D01*
X215599Y98158D01*
X216158Y97599D01*
X216842Y97204D01*
X217605Y97000D01*
X218395D01*
X219158Y97204D01*
X219842Y97599D01*
X220401Y98158D01*
X220796Y98842D01*
X220833Y98980D01*
X246777D01*
X247158Y98599D01*
X247842Y98204D01*
X248605Y98000D01*
X249395D01*
X250158Y98204D01*
X250842Y98599D01*
X251401Y99158D01*
X251796Y99842D01*
X252000Y100605D01*
Y101395D01*
X251796Y102158D01*
X251401Y102842D01*
X250842Y103401D01*
X250158Y103796D01*
X249395Y104000D01*
X248605D01*
X247842Y103796D01*
X247158Y103401D01*
X246599Y102842D01*
X246204Y102158D01*
X246000Y101395D01*
Y101020D01*
X231838D01*
X231704Y101520D01*
X231842Y101599D01*
X232401Y102158D01*
X232796Y102842D01*
X233000Y103605D01*
Y104395D01*
X232796Y105158D01*
X232724Y105282D01*
X234422Y106980D01*
X252167D01*
X252204Y106842D01*
X252599Y106158D01*
X253158Y105599D01*
X253842Y105204D01*
X254605Y105000D01*
X255395D01*
X256158Y105204D01*
X256842Y105599D01*
X257401Y106158D01*
X257796Y106842D01*
X258000Y107605D01*
Y108395D01*
X257796Y109158D01*
X257401Y109842D01*
X256842Y110401D01*
X256158Y110796D01*
X255395Y111000D01*
D02*
G37*
G36*
X553441Y104500D02*
X552256D01*
X551112Y104193D01*
X550085Y103601D01*
X549248Y102763D01*
X548655Y101737D01*
X548348Y100592D01*
Y99408D01*
X548655Y98263D01*
X549248Y97237D01*
X550085Y96399D01*
X551112Y95807D01*
X552256Y95500D01*
X553441D01*
X554585Y95807D01*
X555612Y96399D01*
X556449Y97237D01*
X557042Y98263D01*
X557348Y99408D01*
Y100592D01*
X557042Y101737D01*
X556449Y102763D01*
X555612Y103601D01*
X554585Y104193D01*
X553441Y104500D01*
D02*
G37*
G36*
X460395Y92370D02*
X459605D01*
X458842Y92166D01*
X458158Y91771D01*
X457599Y91212D01*
X457204Y90528D01*
X457000Y89765D01*
Y88975D01*
X457204Y88212D01*
X457599Y87528D01*
X458158Y86970D01*
X458842Y86575D01*
X459605Y86370D01*
X460395D01*
X461158Y86575D01*
X461842Y86970D01*
X462401Y87528D01*
X462796Y88212D01*
X463000Y88975D01*
Y89765D01*
X462796Y90528D01*
X462401Y91212D01*
X461842Y91771D01*
X461158Y92166D01*
X460395Y92370D01*
D02*
G37*
G36*
X450395D02*
X449605D01*
X448842Y92166D01*
X448158Y91771D01*
X447599Y91212D01*
X447204Y90528D01*
X447000Y89765D01*
Y88975D01*
X447204Y88212D01*
X447599Y87528D01*
X448158Y86970D01*
X448842Y86575D01*
X449605Y86370D01*
X450395D01*
X451158Y86575D01*
X451842Y86970D01*
X452401Y87528D01*
X452796Y88212D01*
X453000Y88975D01*
Y89765D01*
X452796Y90528D01*
X452401Y91212D01*
X451842Y91771D01*
X451158Y92166D01*
X450395Y92370D01*
D02*
G37*
G36*
X420395D02*
X419605D01*
X418842Y92166D01*
X418158Y91771D01*
X417599Y91212D01*
X417204Y90528D01*
X417000Y89765D01*
Y88975D01*
X417204Y88212D01*
X417599Y87528D01*
X418158Y86970D01*
X418842Y86575D01*
X419605Y86370D01*
X420395D01*
X421158Y86575D01*
X421842Y86970D01*
X422401Y87528D01*
X422796Y88212D01*
X423000Y88975D01*
Y89765D01*
X422796Y90528D01*
X422401Y91212D01*
X421842Y91771D01*
X421158Y92166D01*
X420395Y92370D01*
D02*
G37*
G36*
X410395D02*
X409605D01*
X408842Y92166D01*
X408158Y91771D01*
X407599Y91212D01*
X407204Y90528D01*
X407000Y89765D01*
Y88975D01*
X407204Y88212D01*
X407599Y87528D01*
X408158Y86970D01*
X408842Y86575D01*
X409605Y86370D01*
X410395D01*
X411158Y86575D01*
X411842Y86970D01*
X412401Y87528D01*
X412796Y88212D01*
X413000Y88975D01*
Y89765D01*
X412796Y90528D01*
X412401Y91212D01*
X411842Y91771D01*
X411158Y92166D01*
X410395Y92370D01*
D02*
G37*
G36*
X380395D02*
X379605D01*
X378842Y92166D01*
X378158Y91771D01*
X377599Y91212D01*
X377204Y90528D01*
X377000Y89765D01*
Y88975D01*
X377204Y88212D01*
X377599Y87528D01*
X378158Y86970D01*
X378842Y86575D01*
X379605Y86370D01*
X380395D01*
X381158Y86575D01*
X381842Y86970D01*
X382401Y87528D01*
X382796Y88212D01*
X383000Y88975D01*
Y89765D01*
X382796Y90528D01*
X382401Y91212D01*
X381842Y91771D01*
X381158Y92166D01*
X380395Y92370D01*
D02*
G37*
G36*
X370395D02*
X369605D01*
X368842Y92166D01*
X368158Y91771D01*
X367599Y91212D01*
X367204Y90528D01*
X367000Y89765D01*
Y88975D01*
X367204Y88212D01*
X367599Y87528D01*
X368158Y86970D01*
X368842Y86575D01*
X369605Y86370D01*
X370395D01*
X371158Y86575D01*
X371842Y86970D01*
X372401Y87528D01*
X372796Y88212D01*
X373000Y88975D01*
Y89765D01*
X372796Y90528D01*
X372401Y91212D01*
X371842Y91771D01*
X371158Y92166D01*
X370395Y92370D01*
D02*
G37*
G36*
X340395D02*
X339605D01*
X338842Y92166D01*
X338158Y91771D01*
X337599Y91212D01*
X337204Y90528D01*
X337000Y89765D01*
Y88975D01*
X337204Y88212D01*
X337599Y87528D01*
X338158Y86970D01*
X338842Y86575D01*
X339605Y86370D01*
X340395D01*
X341158Y86575D01*
X341842Y86970D01*
X342401Y87528D01*
X342796Y88212D01*
X343000Y88975D01*
Y89765D01*
X342796Y90528D01*
X342401Y91212D01*
X341842Y91771D01*
X341158Y92166D01*
X340395Y92370D01*
D02*
G37*
G36*
X330395D02*
X329605D01*
X328842Y92166D01*
X328158Y91771D01*
X327599Y91212D01*
X327204Y90528D01*
X327000Y89765D01*
Y88975D01*
X327204Y88212D01*
X327599Y87528D01*
X328158Y86970D01*
X328842Y86575D01*
X329605Y86370D01*
X330395D01*
X331158Y86575D01*
X331842Y86970D01*
X332401Y87528D01*
X332796Y88212D01*
X333000Y88975D01*
Y89765D01*
X332796Y90528D01*
X332401Y91212D01*
X331842Y91771D01*
X331158Y92166D01*
X330395Y92370D01*
D02*
G37*
G36*
X522395Y89000D02*
X521605D01*
X520842Y88796D01*
X520158Y88401D01*
X519599Y87842D01*
X519204Y87158D01*
X519000Y86395D01*
Y85605D01*
X519204Y84842D01*
X519599Y84158D01*
X520158Y83599D01*
X520842Y83204D01*
X521605Y83000D01*
X522395D01*
X523158Y83204D01*
X523842Y83599D01*
X524401Y84158D01*
X524796Y84842D01*
X525000Y85605D01*
Y86395D01*
X524796Y87158D01*
X524401Y87842D01*
X523842Y88401D01*
X523158Y88796D01*
X522395Y89000D01*
D02*
G37*
G36*
X360395Y92370D02*
X359605D01*
X358842Y92166D01*
X358158Y91771D01*
X357599Y91212D01*
X357204Y90528D01*
X357000Y89765D01*
Y88975D01*
X357204Y88212D01*
X357599Y87528D01*
X358158Y86970D01*
X358842Y86575D01*
X358980Y86537D01*
Y81020D01*
X358224D01*
Y82370D01*
X354075D01*
Y77630D01*
X358224D01*
Y78980D01*
X359414D01*
X359804Y79058D01*
X360135Y79279D01*
X360721Y79865D01*
X360942Y80196D01*
X361020Y80586D01*
Y86537D01*
X361158Y86575D01*
X361842Y86970D01*
X362401Y87528D01*
X362796Y88212D01*
X363000Y88975D01*
Y89765D01*
X362796Y90528D01*
X362401Y91212D01*
X361842Y91771D01*
X361158Y92166D01*
X360395Y92370D01*
D02*
G37*
G36*
X440395D02*
X439605D01*
X438842Y92166D01*
X438158Y91771D01*
X437599Y91212D01*
X437204Y90528D01*
X437000Y89765D01*
Y88975D01*
X437204Y88212D01*
X437599Y87528D01*
X438158Y86970D01*
X438842Y86575D01*
X439605Y86370D01*
X439980D01*
Y80020D01*
X438224D01*
Y81370D01*
X434075D01*
Y76630D01*
X438224D01*
Y77980D01*
X440414D01*
X440804Y78058D01*
X441135Y78279D01*
X441721Y78865D01*
X441942Y79196D01*
X442020Y79586D01*
Y86784D01*
X441959Y87087D01*
X442401Y87528D01*
X442796Y88212D01*
X443000Y88975D01*
Y89765D01*
X442796Y90528D01*
X442401Y91212D01*
X441842Y91771D01*
X441158Y92166D01*
X440395Y92370D01*
D02*
G37*
G36*
X489395Y84000D02*
X488605D01*
X487842Y83796D01*
X487158Y83401D01*
X486599Y82842D01*
X486204Y82158D01*
X486167Y82020D01*
X473950D01*
X473560Y81942D01*
X473229Y81721D01*
X458527Y67020D01*
X430586D01*
X430196Y66942D01*
X429865Y66721D01*
X429279Y66135D01*
X429058Y65804D01*
X428980Y65414D01*
Y59414D01*
Y52833D01*
X428842Y52796D01*
X428158Y52401D01*
X427599Y51842D01*
X427204Y51158D01*
X427000Y50395D01*
Y49605D01*
X427204Y48842D01*
X427599Y48158D01*
X428158Y47599D01*
X428842Y47204D01*
X429605Y47000D01*
X430395D01*
X431158Y47204D01*
X431842Y47599D01*
X432401Y48158D01*
X432796Y48842D01*
X433000Y49605D01*
Y50395D01*
X432796Y51158D01*
X432401Y51842D01*
X431842Y52401D01*
X431158Y52796D01*
X431020Y52833D01*
Y58980D01*
X431776D01*
Y57630D01*
X435925D01*
Y62370D01*
X431776D01*
Y61020D01*
X431020D01*
Y64980D01*
X458950D01*
X459340Y65058D01*
X459671Y65279D01*
X474372Y79980D01*
X486167D01*
X486204Y79842D01*
X486599Y79158D01*
X487158Y78599D01*
X487842Y78204D01*
X488605Y78000D01*
X489395D01*
X490158Y78204D01*
X490842Y78599D01*
X491401Y79158D01*
X491796Y79842D01*
X492000Y80605D01*
Y81395D01*
X491796Y82158D01*
X491401Y82842D01*
X490842Y83401D01*
X490158Y83796D01*
X489395Y84000D01*
D02*
G37*
G36*
X350395Y92370D02*
X349605D01*
X348842Y92166D01*
X348158Y91771D01*
X347599Y91212D01*
X347204Y90528D01*
X347000Y89765D01*
Y88975D01*
X347204Y88212D01*
X347599Y87528D01*
X348158Y86970D01*
X348831Y86581D01*
Y82370D01*
X347776D01*
Y77630D01*
X351925D01*
Y82370D01*
X350870D01*
Y86497D01*
X351158Y86575D01*
X351842Y86970D01*
X352401Y87528D01*
X352796Y88212D01*
X353000Y88975D01*
Y89765D01*
X352796Y90528D01*
X352401Y91212D01*
X351842Y91771D01*
X351158Y92166D01*
X350395Y92370D01*
D02*
G37*
G36*
X430395D02*
X429605D01*
X428842Y92166D01*
X428158Y91771D01*
X427599Y91212D01*
X427204Y90528D01*
X427000Y89765D01*
Y88975D01*
X427204Y88212D01*
X427599Y87528D01*
X428158Y86970D01*
X428842Y86575D01*
X428980Y86537D01*
Y81370D01*
X427776D01*
Y76630D01*
X431925D01*
Y81370D01*
X431020D01*
Y86537D01*
X431158Y86575D01*
X431842Y86970D01*
X432401Y87528D01*
X432796Y88212D01*
X433000Y88975D01*
Y89765D01*
X432796Y90528D01*
X432401Y91212D01*
X431842Y91771D01*
X431158Y92166D01*
X430395Y92370D01*
D02*
G37*
G36*
X206395Y97000D02*
X205605D01*
X204842Y96796D01*
X204158Y96401D01*
X203599Y95842D01*
X203204Y95158D01*
X203000Y94395D01*
Y93605D01*
X203204Y92842D01*
X203599Y92158D01*
X204158Y91599D01*
X204842Y91204D01*
X205605Y91000D01*
X206395D01*
X207158Y91204D01*
X207842Y91599D01*
X208401Y92158D01*
X208796Y92842D01*
X208833Y92980D01*
X312578D01*
X330279Y75279D01*
X330610Y75058D01*
X331000Y74980D01*
X388414D01*
X388804Y75058D01*
X389135Y75279D01*
X389721Y75865D01*
X389942Y76196D01*
X390020Y76586D01*
Y90167D01*
X390158Y90204D01*
X390842Y90599D01*
X391401Y91158D01*
X391796Y91842D01*
X392000Y92605D01*
Y93395D01*
X391796Y94158D01*
X391401Y94842D01*
X390842Y95401D01*
X390158Y95796D01*
X389395Y96000D01*
X388605D01*
X387842Y95796D01*
X387158Y95401D01*
X386599Y94842D01*
X386204Y94158D01*
X386000Y93395D01*
Y92605D01*
X386204Y91842D01*
X386599Y91158D01*
X387158Y90599D01*
X387842Y90204D01*
X387980Y90167D01*
Y77020D01*
X331422D01*
X313721Y94721D01*
X313390Y94942D01*
X313000Y95020D01*
X208833D01*
X208796Y95158D01*
X208401Y95842D01*
X207842Y96401D01*
X207158Y96796D01*
X206395Y97000D01*
D02*
G37*
G36*
X490395Y73000D02*
X489605D01*
X488842Y72796D01*
X488158Y72401D01*
X487599Y71842D01*
X487204Y71158D01*
X487167Y71020D01*
X478857Y71020D01*
X478823Y71144D01*
X478791Y71306D01*
X478771Y71335D01*
X478762Y71369D01*
X478662Y71500D01*
X478570Y71637D01*
X478541Y71656D01*
X478520Y71684D01*
X478478Y71708D01*
X478401Y71842D01*
X477842Y72401D01*
X477158Y72796D01*
X476395Y73000D01*
X475605D01*
X474842Y72796D01*
X474158Y72401D01*
X473599Y71842D01*
X473204Y71158D01*
X473000Y70395D01*
Y69605D01*
X473204Y68842D01*
X473599Y68158D01*
X474158Y67599D01*
X474842Y67204D01*
X475605Y67000D01*
X476395D01*
X477158Y67204D01*
X477842Y67599D01*
X478401Y68158D01*
X478796Y68842D01*
X478833Y68980D01*
X487167Y68980D01*
X487204Y68842D01*
X487599Y68158D01*
X488158Y67599D01*
X488842Y67204D01*
X489605Y67000D01*
X490395D01*
X491158Y67204D01*
X491842Y67599D01*
X492401Y68158D01*
X492796Y68842D01*
X493000Y69605D01*
Y70395D01*
X492796Y71158D01*
X492401Y71842D01*
X491842Y72401D01*
X491158Y72796D01*
X490395Y73000D01*
D02*
G37*
G36*
X553441Y77000D02*
X552256D01*
X551112Y76693D01*
X550085Y76101D01*
X549248Y75263D01*
X548655Y74237D01*
X548348Y73092D01*
Y71908D01*
X548655Y70763D01*
X549248Y69737D01*
X550085Y68899D01*
X551112Y68307D01*
X552256Y68000D01*
X553441D01*
X554585Y68307D01*
X555612Y68899D01*
X556449Y69737D01*
X557042Y70763D01*
X557348Y71908D01*
Y73092D01*
X557042Y74237D01*
X556449Y75263D01*
X555612Y76101D01*
X554585Y76693D01*
X553441Y77000D01*
D02*
G37*
G36*
X460395Y53000D02*
X459605D01*
X458842Y52796D01*
X458158Y52401D01*
X457599Y51842D01*
X457204Y51158D01*
X457000Y50395D01*
Y49605D01*
X457204Y48842D01*
X457599Y48158D01*
X458158Y47599D01*
X458842Y47204D01*
X459605Y47000D01*
X460395D01*
X461158Y47204D01*
X461842Y47599D01*
X462401Y48158D01*
X462796Y48842D01*
X463000Y49605D01*
Y50395D01*
X462796Y51158D01*
X462401Y51842D01*
X461842Y52401D01*
X461158Y52796D01*
X460395Y53000D01*
D02*
G37*
G36*
X450395D02*
X449605D01*
X448842Y52796D01*
X448158Y52401D01*
X447599Y51842D01*
X447204Y51158D01*
X447000Y50395D01*
Y49605D01*
X447204Y48842D01*
X447599Y48158D01*
X448158Y47599D01*
X448842Y47204D01*
X449605Y47000D01*
X450395D01*
X451158Y47204D01*
X451842Y47599D01*
X452401Y48158D01*
X452796Y48842D01*
X453000Y49605D01*
Y50395D01*
X452796Y51158D01*
X452401Y51842D01*
X451842Y52401D01*
X451158Y52796D01*
X450395Y53000D01*
D02*
G37*
G36*
X442224Y62370D02*
X438075D01*
Y57630D01*
X438980D01*
Y52833D01*
X438842Y52796D01*
X438158Y52401D01*
X437599Y51842D01*
X437204Y51158D01*
X437000Y50395D01*
Y49605D01*
X437204Y48842D01*
X437599Y48158D01*
X438158Y47599D01*
X438842Y47204D01*
X439605Y47000D01*
X440395D01*
X441158Y47204D01*
X441842Y47599D01*
X442401Y48158D01*
X442796Y48842D01*
X443000Y49605D01*
Y50395D01*
X442796Y51158D01*
X442401Y51842D01*
X441842Y52401D01*
X441158Y52796D01*
X441020Y52833D01*
Y57630D01*
X442224D01*
Y62370D01*
D02*
G37*
G36*
X420395Y53000D02*
X419605D01*
X418842Y52796D01*
X418158Y52401D01*
X417599Y51842D01*
X417204Y51158D01*
X417000Y50395D01*
Y49605D01*
X417204Y48842D01*
X417599Y48158D01*
X418158Y47599D01*
X418842Y47204D01*
X419605Y47000D01*
X420395D01*
X421158Y47204D01*
X421842Y47599D01*
X422401Y48158D01*
X422796Y48842D01*
X423000Y49605D01*
Y50395D01*
X422796Y51158D01*
X422401Y51842D01*
X421842Y52401D01*
X421158Y52796D01*
X420395Y53000D01*
D02*
G37*
G36*
X413000D02*
X407000D01*
Y47000D01*
X413000D01*
Y53000D01*
D02*
G37*
G36*
X380395D02*
X379605D01*
X378842Y52796D01*
X378158Y52401D01*
X377599Y51842D01*
X377204Y51158D01*
X377000Y50395D01*
Y49605D01*
X377204Y48842D01*
X377599Y48158D01*
X378158Y47599D01*
X378842Y47204D01*
X379605Y47000D01*
X380395D01*
X381158Y47204D01*
X381842Y47599D01*
X382401Y48158D01*
X382796Y48842D01*
X383000Y49605D01*
Y50395D01*
X382796Y51158D01*
X382401Y51842D01*
X381842Y52401D01*
X381158Y52796D01*
X380395Y53000D01*
D02*
G37*
G36*
X370395D02*
X369605D01*
X368842Y52796D01*
X368158Y52401D01*
X367599Y51842D01*
X367204Y51158D01*
X367000Y50395D01*
Y49605D01*
X367204Y48842D01*
X367599Y48158D01*
X368158Y47599D01*
X368842Y47204D01*
X369605Y47000D01*
X370395D01*
X371158Y47204D01*
X371842Y47599D01*
X372401Y48158D01*
X372796Y48842D01*
X373000Y49605D01*
Y50395D01*
X372796Y51158D01*
X372401Y51842D01*
X371842Y52401D01*
X371158Y52796D01*
X370395Y53000D01*
D02*
G37*
G36*
X362224Y62370D02*
X358075D01*
Y57630D01*
X359130D01*
Y52873D01*
X358842Y52796D01*
X358158Y52401D01*
X357599Y51842D01*
X357204Y51158D01*
X357000Y50395D01*
Y49605D01*
X357204Y48842D01*
X357599Y48158D01*
X358158Y47599D01*
X358842Y47204D01*
X359605Y47000D01*
X360395D01*
X361158Y47204D01*
X361842Y47599D01*
X362401Y48158D01*
X362796Y48842D01*
X363000Y49605D01*
Y50395D01*
X362796Y51158D01*
X362401Y51842D01*
X361842Y52401D01*
X361169Y52789D01*
Y57630D01*
X362224D01*
Y62370D01*
D02*
G37*
G36*
X340395Y53000D02*
X339605D01*
X338842Y52796D01*
X338158Y52401D01*
X337599Y51842D01*
X337204Y51158D01*
X337000Y50395D01*
Y49605D01*
X337204Y48842D01*
X337599Y48158D01*
X338158Y47599D01*
X338842Y47204D01*
X339605Y47000D01*
X340395D01*
X341158Y47204D01*
X341842Y47599D01*
X342401Y48158D01*
X342796Y48842D01*
X343000Y49605D01*
Y50395D01*
X342796Y51158D01*
X342401Y51842D01*
X341842Y52401D01*
X341158Y52796D01*
X340395Y53000D01*
D02*
G37*
G36*
X333000D02*
X327000D01*
Y47000D01*
X333000D01*
Y53000D01*
D02*
G37*
G36*
X511515Y46120D02*
X510725D01*
X509962Y45916D01*
X509278Y45521D01*
X508719Y44962D01*
X508324Y44278D01*
X508120Y43515D01*
Y42725D01*
X508324Y41962D01*
X508719Y41278D01*
X509278Y40720D01*
X509962Y40325D01*
X510725Y40120D01*
X511515D01*
X512278Y40325D01*
X512962Y40720D01*
X513521Y41278D01*
X513916Y41962D01*
X514120Y42725D01*
Y43515D01*
X513916Y44278D01*
X513521Y44962D01*
X512962Y45521D01*
X512278Y45916D01*
X511515Y46120D01*
D02*
G37*
G36*
X468395Y33000D02*
X467605D01*
X466842Y32796D01*
X466158Y32401D01*
X465599Y31842D01*
X465204Y31158D01*
X465000Y30395D01*
Y29605D01*
X465204Y28842D01*
X465599Y28158D01*
X466158Y27599D01*
X466842Y27204D01*
X467605Y27000D01*
X468395D01*
X469158Y27204D01*
X469842Y27599D01*
X470401Y28158D01*
X470796Y28842D01*
X471000Y29605D01*
Y30395D01*
X470796Y31158D01*
X470401Y31842D01*
X469842Y32401D01*
X469158Y32796D01*
X468395Y33000D01*
D02*
G37*
G36*
X435453Y30253D02*
X428547D01*
Y23347D01*
X435453D01*
Y30253D01*
D02*
G37*
G36*
X400453D02*
X393547D01*
Y23347D01*
X400453D01*
Y30253D01*
D02*
G37*
G36*
X540826Y30500D02*
X539174D01*
X537541Y30242D01*
X535969Y29731D01*
X534497Y28980D01*
X533160Y28009D01*
X531991Y26840D01*
X531020Y25503D01*
X530269Y24031D01*
X529759Y22459D01*
X529500Y20826D01*
Y19174D01*
X529759Y17541D01*
X530269Y15969D01*
X531020Y14497D01*
X531991Y13160D01*
X533160Y11991D01*
X534497Y11020D01*
X535969Y10269D01*
X537541Y9759D01*
X539174Y9500D01*
X540826D01*
X542459Y9759D01*
X544031Y10269D01*
X545503Y11020D01*
X546840Y11991D01*
X548009Y13160D01*
X548980Y14497D01*
X549731Y15969D01*
X550242Y17541D01*
X550500Y19174D01*
Y20826D01*
X550242Y22459D01*
X549731Y24031D01*
X548980Y25503D01*
X548009Y26840D01*
X546840Y28009D01*
X545503Y28980D01*
X544031Y29731D01*
X542459Y30242D01*
X540826Y30500D01*
D02*
G37*
G36*
X20826D02*
X19174D01*
X17541Y30242D01*
X15969Y29731D01*
X14497Y28980D01*
X13160Y28009D01*
X11991Y26840D01*
X11020Y25503D01*
X10269Y24031D01*
X9759Y22459D01*
X9500Y20826D01*
Y19174D01*
X9759Y17541D01*
X10269Y15969D01*
X11020Y14497D01*
X11991Y13160D01*
X13160Y11991D01*
X14497Y11020D01*
X15969Y10269D01*
X17541Y9759D01*
X19174Y9500D01*
X20826D01*
X22459Y9759D01*
X24031Y10269D01*
X25503Y11020D01*
X26840Y11991D01*
X28009Y13160D01*
X28980Y14497D01*
X29731Y15969D01*
X30242Y17541D01*
X30500Y19174D01*
Y20826D01*
X30242Y22459D01*
X29731Y24031D01*
X28980Y25503D01*
X28009Y26840D01*
X26840Y28009D01*
X25503Y28980D01*
X24031Y29731D01*
X22459Y30242D01*
X20826Y30500D01*
D02*
G37*
%LPD*%
G36*
X278276Y146282D02*
X278204Y146158D01*
X278000Y145395D01*
Y144605D01*
X278204Y143842D01*
X278599Y143158D01*
X279158Y142599D01*
X279842Y142204D01*
X280605Y142000D01*
X281395D01*
X282158Y142204D01*
X282282Y142276D01*
X289038Y135520D01*
X288831Y135020D01*
X281422D01*
X279724Y136718D01*
X279796Y136842D01*
X280000Y137605D01*
Y138395D01*
X279796Y139158D01*
X279401Y139842D01*
X278842Y140401D01*
X278158Y140796D01*
X277395Y141000D01*
X276605D01*
X275842Y140796D01*
X275718Y140724D01*
X265520Y150922D01*
Y158385D01*
X265982Y158577D01*
X278276Y146282D01*
D02*
G37*
G36*
X217831Y166370D02*
X216776D01*
Y161630D01*
X217831D01*
Y159370D01*
X216776D01*
Y158020D01*
X214224D01*
Y159370D01*
X213169D01*
Y160630D01*
X214224D01*
Y165370D01*
X213169D01*
Y166630D01*
X214224D01*
Y167980D01*
X217831D01*
Y166370D01*
D02*
G37*
D12*
X448550Y320500D02*
X468000D01*
X124879Y60000D02*
X350000D01*
Y50000D02*
Y60000D01*
X353850D01*
X97500Y87379D02*
X124879Y60000D01*
X85000Y100000D02*
X97500Y87500D01*
Y87379D02*
Y87500D01*
X99000Y88000D02*
X116000Y71000D01*
X218000D01*
X99000Y88000D02*
Y155414D01*
X11000Y100586D02*
Y179414D01*
Y100586D02*
X11586Y100000D01*
X85000D01*
X103000Y92000D02*
Y149414D01*
X108000Y94000D02*
X122000Y80000D01*
X108586Y145000D02*
X120000D01*
X99000Y155414D02*
X99586Y156000D01*
X103586Y150000D02*
X121000D01*
X103000Y92000D02*
X118000Y77000D01*
X99586Y156000D02*
X116000D01*
X108000Y94000D02*
Y144414D01*
X108586Y145000D01*
X103000Y149414D02*
X103586Y150000D01*
X120000Y145000D02*
X126000Y151000D01*
X11000Y179414D02*
X11586Y180000D01*
X20000D01*
X491414Y165586D02*
X506351Y150649D01*
X393000Y165000D02*
X393586Y165586D01*
X491414D01*
X390000Y196000D02*
X419414D01*
X420000Y196586D01*
X386000Y200000D02*
X390000Y196000D01*
X420000Y196586D02*
Y210000D01*
X366586Y191000D02*
X405000D01*
X360586Y183000D02*
X405000D01*
X354586Y171000D02*
X365000D01*
X369000Y175000D01*
X368950Y166000D02*
X380950Y178000D01*
X278000Y160000D02*
X365071D01*
X380950Y178000D02*
X417000D01*
X365071Y160000D02*
X375071Y170000D01*
X492000D01*
X357000Y166000D02*
X368950D01*
X275000Y163000D02*
X278000Y160000D01*
X275000Y163000D02*
Y187000D01*
X509351Y150649D02*
X510000Y150000D01*
X506351Y150649D02*
X509351D01*
X500000Y70000D02*
Y150000D01*
X488000Y162000D02*
X500000Y150000D01*
X404000Y162000D02*
X488000D01*
X420000Y157000D02*
X483414D01*
X484000Y156414D01*
Y113000D02*
Y156414D01*
X476000Y89000D02*
Y149000D01*
X480414Y154000D02*
X481000Y153414D01*
Y124000D02*
Y153414D01*
X425000Y154000D02*
X480414D01*
X478414Y121414D02*
X481000Y124000D01*
X437000Y174000D02*
X529414D01*
X530000Y174586D02*
Y190000D01*
X529414Y174000D02*
X530000Y174586D01*
X425000Y186000D02*
X437000Y174000D01*
X492000Y170000D02*
X508047Y153953D01*
X511637D02*
X515590Y150000D01*
X508047Y153953D02*
X511637D01*
X515590Y150000D02*
X530000D01*
X389000Y76586D02*
Y93000D01*
X331000Y76000D02*
X388414D01*
X389000Y76586D01*
X313000Y94000D02*
X331000Y76000D01*
X206000Y94000D02*
X313000D01*
X400000Y158000D02*
X404000Y162000D01*
X478414Y103586D02*
Y121414D01*
Y103586D02*
X483000Y99000D01*
Y96000D02*
Y99000D01*
X420000Y149000D02*
X425000Y154000D01*
X410000Y149000D02*
X420000D01*
X430586Y66000D02*
X458950D01*
X430000Y59414D02*
Y65414D01*
X430586Y66000D01*
X458950D02*
X473950Y81000D01*
X489000D01*
X460000Y84000D02*
X471000D01*
X476000Y89000D01*
X477849Y70916D02*
X477849D01*
X476000Y70000D02*
X477849Y70916D01*
X476000Y70000D02*
X490000Y70000D01*
X456000Y80000D02*
X460000Y84000D01*
X429000Y146000D02*
Y147000D01*
X469000Y134000D02*
Y144414D01*
X468414Y145000D02*
X469000Y144414D01*
X430000Y145000D02*
X468414D01*
X429000Y146000D02*
X430000Y145000D01*
X476000Y89000D02*
X491000D01*
X447000Y134000D02*
X460000D01*
X444000Y131000D02*
X447000Y134000D01*
X368000Y131000D02*
X444000D01*
X357000Y142000D02*
X368000Y131000D01*
X315000Y136000D02*
X321000Y142000D01*
X357000D01*
X318000Y134000D02*
X324500Y140500D01*
X354500D02*
X366000Y129000D01*
X324500Y140500D02*
X354500D01*
X281000Y134000D02*
X318000D01*
X290000Y136000D02*
X315000D01*
X281000Y145000D02*
X290000Y136000D01*
X277000Y138000D02*
X281000Y134000D01*
X264500Y150500D02*
X277000Y138000D01*
X366000Y129000D02*
X449000D01*
X329000Y138000D02*
X345000D01*
X352000Y131000D02*
X353000D01*
X345000Y138000D02*
X352000Y131000D01*
X449000Y129000D02*
X450000Y128000D01*
X161000D02*
X327000D01*
X330000Y131000D01*
X322000D02*
X329000Y138000D01*
X174000Y135000D02*
X178000Y131000D01*
X322000D01*
X158000D02*
X161000Y128000D01*
X254000Y227379D02*
Y236000D01*
X244000Y246000D02*
X254000Y236000D01*
X246000Y140000D02*
X253000Y147000D01*
X256879D02*
X259000Y149121D01*
X253000Y147000D02*
X256879D01*
X247918Y101000D02*
X249000D01*
X246918Y100000D02*
X247918Y101000D01*
X218000Y100000D02*
X246918D01*
X234000Y108000D02*
X255000D01*
X230000Y104000D02*
X234000Y108000D01*
X246000Y139000D02*
Y140000D01*
X339414Y126000D02*
X340000D01*
X166000Y121000D02*
X169000Y124000D01*
X337414D01*
X339414Y126000D01*
X259000Y149121D02*
Y169000D01*
X260000Y170000D01*
X262000Y167757D02*
X263000Y168757D01*
X260500Y168379D02*
X261500Y169379D01*
X260500Y148500D02*
Y168379D01*
X263000Y168757D02*
Y222621D01*
X262000Y138000D02*
Y167757D01*
X255500Y228000D02*
X261500Y222000D01*
Y169379D02*
Y222000D01*
X260000Y170000D02*
Y221379D01*
X254000Y227379D02*
X260000Y221379D01*
Y228000D02*
Y270000D01*
X255500Y228000D02*
Y239500D01*
X257000Y228621D02*
X263000Y222621D01*
X260000Y228000D02*
X264500Y223500D01*
X257000Y228621D02*
Y262000D01*
X253000Y242000D02*
Y250000D01*
Y242000D02*
X255500Y239500D01*
X255000Y141586D02*
Y143000D01*
X260500Y148500D01*
X254000Y139000D02*
X254765Y139765D01*
Y141351D01*
X255000Y141586D01*
X253500Y265500D02*
X257000Y262000D01*
X251000Y279000D02*
X253500Y276500D01*
Y265500D02*
Y276500D01*
X63000Y218000D02*
X84000D01*
X201000Y235828D02*
X204414Y232414D01*
X201000Y235828D02*
Y286414D01*
X204414Y232414D02*
X233000D01*
X153000Y287000D02*
X200414D01*
X201000Y286414D01*
X312000Y224000D02*
Y241000D01*
X417000Y178000D02*
X425000Y186000D01*
Y214000D01*
X354000Y171586D02*
Y280000D01*
Y171586D02*
X354586Y171000D01*
X338000Y224000D02*
Y242000D01*
X360000Y183586D02*
X360586Y183000D01*
X360000Y183586D02*
Y259414D01*
X360586Y260000D01*
X366000D01*
X430000Y186000D02*
Y210000D01*
Y186000D02*
X438000Y178000D01*
X468000D01*
X366000Y191586D02*
Y250000D01*
Y191586D02*
X366586Y191000D01*
X375000Y200000D02*
X386000D01*
X266000Y160000D02*
X281000Y145000D01*
X266000Y160000D02*
Y260000D01*
X264500Y150500D02*
Y223500D01*
X158000Y131000D02*
Y156000D01*
X375586Y141000D02*
X384414D01*
X373765Y140765D02*
X375351D01*
X373000Y140000D02*
X373765Y140765D01*
X375351D02*
X375586Y141000D01*
X386235Y140765D02*
X387000Y140000D01*
X384649Y140765D02*
X386235D01*
X384414Y141000D02*
X384649Y140765D01*
X372000Y150000D02*
X387000D01*
X372000Y159000D02*
X387000D01*
X522000Y253586D02*
Y318000D01*
X519414Y251000D02*
X522000Y253586D01*
X522000Y318000D02*
X522000Y318000D01*
X522000Y318000D02*
Y334350D01*
X469000Y251000D02*
X519414D01*
X77000Y194000D02*
X77243Y193757D01*
Y162757D02*
Y193757D01*
X151000Y225000D02*
X157765Y218235D01*
X157765D01*
X151000Y225000D02*
Y225000D01*
X160000Y165000D02*
Y216000D01*
X157765Y218235D02*
X160000Y216000D01*
X102000Y201000D02*
X103000Y200000D01*
X49000Y201000D02*
X102000D01*
X120000Y171000D02*
Y286000D01*
X117000D02*
X129000Y298000D01*
X117000Y165000D02*
Y286000D01*
X120000Y171000D02*
X126000Y165000D01*
X120000Y286000D02*
X127000Y293000D01*
X126000Y151000D02*
Y165000D01*
X127000Y293000D02*
X141172D01*
X48000Y185000D02*
Y200000D01*
X49000Y201000D01*
X110000Y185586D02*
X110235Y185351D01*
X110000Y185586D02*
Y193000D01*
X110235Y183765D02*
X111000Y183000D01*
X110235Y183765D02*
Y185351D01*
X237000Y279000D02*
X251000D01*
X197000Y80000D02*
X202000Y85000D01*
X225000D01*
X122000Y80000D02*
X197000D01*
X118000Y77000D02*
X212000D01*
X123000Y152000D02*
Y159000D01*
X121000Y150000D02*
X123000Y152000D01*
X117000Y165000D02*
X123000Y159000D01*
X134000Y141000D02*
Y261000D01*
X128000Y135000D02*
X134000Y141000D01*
X118000Y135000D02*
X128000D01*
X409765Y320765D02*
X413351D01*
X409000Y320000D02*
X409765Y320765D01*
X404000Y314000D02*
X480000D01*
X486000Y320000D01*
X413351Y320765D02*
X413586Y321000D01*
X448050D01*
X448550Y320500D01*
X449235Y324765D02*
X450000Y324000D01*
X447649Y324765D02*
X449235D01*
X447414Y325000D02*
X447649Y324765D01*
X397000Y325000D02*
X447414D01*
X314000Y317000D02*
X364000D01*
X421000Y309000D02*
X430000D01*
X418000Y306000D02*
X421000Y309000D01*
X418000Y274586D02*
Y306000D01*
X416000Y272586D02*
X418000Y274586D01*
X416000Y272000D02*
Y272586D01*
X388000Y207000D02*
Y270000D01*
Y207000D02*
X394000Y201000D01*
X499414Y213000D02*
X500000Y212414D01*
X459000Y213000D02*
X499414D01*
X458000Y214000D02*
X459000Y213000D01*
X500000Y192586D02*
Y212414D01*
X411000Y223039D02*
Y231414D01*
X458000Y214000D02*
Y231414D01*
X457414Y232000D02*
X458000Y231414D01*
X411000D02*
X411586Y232000D01*
X457414D01*
X410939Y220939D02*
Y222977D01*
X410000Y220000D02*
X410939Y220939D01*
Y222977D02*
X411000Y223039D01*
X500000Y192586D02*
X500586Y192000D01*
X506961D01*
X508961Y190000D02*
X510000D01*
X506961Y192000D02*
X508961Y190000D01*
X440000Y197000D02*
X442000Y195000D01*
X440000Y197000D02*
Y210000D01*
X442000Y195000D02*
X483000D01*
X487061Y190939D02*
X489061D01*
X483000Y195000D02*
X487061Y190939D01*
X489061D02*
X490000Y190000D01*
X470000Y180000D02*
Y190000D01*
X468000Y178000D02*
X470000Y180000D01*
X420000Y219000D02*
X425000Y214000D01*
X420000Y219000D02*
Y220000D01*
X458000Y240000D02*
X469000Y251000D01*
X232765Y303235D02*
Y320765D01*
Y303235D02*
X233000Y303000D01*
X218000Y294000D02*
Y322000D01*
X211000Y287000D02*
X218000Y294000D01*
X226000Y291000D02*
Y317000D01*
X219000Y284000D02*
X226000Y291000D01*
Y317000D02*
X238871Y329871D01*
X201000Y303000D02*
Y322000D01*
Y303000D02*
X208000Y296000D01*
X238871Y329871D02*
X374130D01*
X232765Y320765D02*
X240000Y328000D01*
X316000D01*
X141172Y293000D02*
X141757Y292414D01*
Y288243D02*
Y292414D01*
Y288243D02*
X142000Y288000D01*
X153000Y280000D02*
Y287000D01*
X134000Y261000D02*
X153000Y280000D01*
X139000Y174000D02*
Y243000D01*
X145000Y248000D02*
X145765Y247235D01*
X146000Y173000D02*
X151000Y168000D01*
X145765Y245649D02*
X146000Y245414D01*
Y173000D02*
Y245414D01*
X145765Y245649D02*
Y247235D01*
X147351Y161765D02*
X147586Y162000D01*
X157000D02*
X160000Y165000D01*
X145000Y161000D02*
X145765Y161765D01*
X147351D01*
X147586Y162000D02*
X157000D01*
X162000Y160000D02*
Y224000D01*
X156000Y230000D02*
X162000Y224000D01*
X158000Y156000D02*
X162000Y160000D01*
X165235Y150765D02*
Y152351D01*
X165000Y152586D02*
X165235Y152351D01*
X165000Y152586D02*
Y230000D01*
X165235Y150765D02*
X166000Y150000D01*
X174000Y135000D02*
Y233000D01*
X171000Y236000D02*
X174000Y233000D01*
X129000Y180000D02*
Y231000D01*
X77243Y162757D02*
X80000Y160000D01*
X81000D01*
X90000Y269000D02*
X91000D01*
X316000Y328000D02*
X319000Y325000D01*
X343000D01*
X339000Y334350D02*
X351000D01*
X387000D01*
X374130Y329871D02*
X380000Y324000D01*
X511000Y43000D02*
X511120Y43120D01*
X217796Y189879D02*
X218918Y191000D01*
X220000D01*
X217464Y189879D02*
X217796D01*
X207000Y179414D02*
X217464Y189879D01*
X207000Y170956D02*
Y179414D01*
X205850Y169000D02*
X206925Y170075D01*
Y170881D01*
X207000Y170956D01*
X218850Y164000D02*
Y169000D01*
Y157000D02*
Y164000D01*
X221000Y169000D02*
X224000Y172000D01*
X218850Y169000D02*
X221000D01*
X212150D02*
X218850D01*
X212150Y163000D02*
Y169000D01*
X225150Y157000D02*
Y164000D01*
Y156705D02*
X226224Y155630D01*
X226520D01*
X228150Y154000D01*
X247000D01*
X225150Y156705D02*
Y157000D01*
X205850Y163000D02*
Y169000D01*
Y157000D02*
Y163000D01*
X212150Y140232D02*
Y157000D01*
X209000Y137082D02*
X212150Y140232D01*
X209000Y136000D02*
Y137082D01*
X212150Y157000D02*
X218850D01*
X212150D02*
Y163000D01*
X440000Y89370D02*
X440765Y88605D01*
Y87019D02*
X441000Y86784D01*
X440414Y79000D02*
X441000Y79586D01*
X436150Y79000D02*
X440414D01*
X440765Y87019D02*
Y88605D01*
X441000Y79586D02*
Y86784D01*
X429850Y79000D02*
X430000Y79150D01*
Y89370D01*
X359414Y80000D02*
X360000Y80586D01*
Y89370D01*
X356150Y80000D02*
X359414D01*
X349850Y89220D02*
X350000Y89370D01*
X349850Y80000D02*
Y89220D01*
X360150Y50150D02*
Y60000D01*
X360000Y50000D02*
X360150Y50150D01*
X430586Y60000D02*
X433850D01*
X430000Y59414D02*
X430586Y60000D01*
X430000Y50000D02*
Y59414D01*
X440000Y59850D02*
X440150Y60000D01*
X440000Y50000D02*
Y59850D01*
X329000Y334350D02*
X339000D01*
Y342000D01*
X351000Y340650D02*
Y375000D01*
X367000Y341150D02*
Y375000D01*
X535000Y322000D02*
Y333765D01*
X535586Y334350D01*
X547000D01*
X509000Y335000D02*
Y350000D01*
X500500Y334350D02*
X508350D01*
X509000Y335000D01*
X486000Y334350D02*
X500500D01*
X468000D02*
X486000D01*
X450000D02*
X468000D01*
X430000D02*
X450000D01*
X416000D02*
X430000D01*
X305000D02*
X329000D01*
X283000D02*
X305000D01*
X263000D02*
X283000D01*
X242000D02*
X263000D01*
X228000Y336000D02*
Y349000D01*
X226350Y334350D02*
X228000Y336000D01*
X218000Y334350D02*
X226350D01*
X205000D02*
X218000D01*
X192500D02*
X205000D01*
X177500D02*
X192500D01*
X162500D02*
X177500D01*
X153000Y335000D02*
Y350000D01*
X145000Y334350D02*
X152350D01*
X153000Y335000D01*
X135000Y334350D02*
X145000D01*
X125000D02*
X135000D01*
X115000D02*
X125000D01*
X105000D02*
X115000D01*
X95000D02*
X105000D01*
X85000D02*
X95000D01*
X75000D02*
X85000D01*
X547000Y340650D02*
Y364000D01*
X522000Y340650D02*
Y375000D01*
X522000Y340650D02*
X522000Y340650D01*
X500000Y375000D02*
X500500Y374500D01*
Y340650D02*
Y374500D01*
X486000Y340650D02*
Y375000D01*
X468000Y340650D02*
Y375000D01*
X450000Y340650D02*
Y375000D01*
X430000Y340650D02*
Y375000D01*
X416000Y340650D02*
Y375000D01*
X387000Y340650D02*
Y375000D01*
X329000Y375000D02*
X329000Y375000D01*
X329000Y340650D02*
Y375000D01*
X305000Y340650D02*
Y375000D01*
X283000Y340650D02*
Y375000D01*
X263000Y340650D02*
Y375000D01*
X242000Y340650D02*
Y375000D01*
X218000Y340650D02*
Y375000D01*
X205000Y340650D02*
Y375000D01*
X192500Y340650D02*
Y374500D01*
X193000Y375000D01*
X177500Y375000D02*
X177500Y375000D01*
X177500Y340650D02*
Y375000D01*
X162500Y340650D02*
Y375000D01*
X145000Y340650D02*
Y375000D01*
X135000Y340650D02*
Y375000D01*
X125000Y340650D02*
Y375000D01*
X115000Y340650D02*
Y375000D01*
X105000Y340650D02*
Y375000D01*
X95000Y340650D02*
Y375000D01*
X85000Y340650D02*
Y375000D01*
X75000Y340650D02*
Y375000D01*
D20*
X218850Y157000D02*
D03*
X225150D02*
D03*
X218850Y164000D02*
D03*
X225150D02*
D03*
X212150Y157000D02*
D03*
X205850D02*
D03*
X212150Y163000D02*
D03*
X205850D02*
D03*
X212150Y169000D02*
D03*
X205850D02*
D03*
X429850Y79000D02*
D03*
X436150D02*
D03*
X349850Y80000D02*
D03*
X356150D02*
D03*
X353850Y60000D02*
D03*
X360150D02*
D03*
X433850D02*
D03*
X440150D02*
D03*
D24*
X351000Y340650D02*
D03*
Y334350D02*
D03*
X547000Y340650D02*
D03*
Y334350D02*
D03*
X522000D02*
D03*
Y340650D02*
D03*
X387000D02*
D03*
Y334350D02*
D03*
X500500Y340650D02*
D03*
Y334350D02*
D03*
X329000Y340650D02*
D03*
Y334350D02*
D03*
X263000Y340650D02*
D03*
Y334350D02*
D03*
X242000Y340650D02*
D03*
Y334350D02*
D03*
X305000Y340650D02*
D03*
Y334350D02*
D03*
X283000Y340650D02*
D03*
Y334350D02*
D03*
X367000Y341150D02*
D03*
Y334850D02*
D03*
X486000Y340650D02*
D03*
Y334350D02*
D03*
X468000Y340650D02*
D03*
Y334350D02*
D03*
X450000Y340650D02*
D03*
Y334350D02*
D03*
X416000Y340650D02*
D03*
Y334350D02*
D03*
X430000Y340650D02*
D03*
Y334350D02*
D03*
X205000Y340650D02*
D03*
Y334350D02*
D03*
X218000Y340650D02*
D03*
Y334350D02*
D03*
X192500Y340650D02*
D03*
Y334350D02*
D03*
X177500D02*
D03*
Y340650D02*
D03*
X162500D02*
D03*
Y334350D02*
D03*
X125000Y340650D02*
D03*
Y334350D02*
D03*
X115000Y340650D02*
D03*
Y334350D02*
D03*
X105000Y340650D02*
D03*
Y334350D02*
D03*
X95000Y340650D02*
D03*
Y334350D02*
D03*
X145000Y340650D02*
D03*
Y334350D02*
D03*
X135000Y340650D02*
D03*
Y334350D02*
D03*
X85000Y340650D02*
D03*
Y334350D02*
D03*
X75000Y340650D02*
D03*
Y334350D02*
D03*
D47*
X552848Y72500D02*
D03*
Y100000D02*
D03*
D48*
X440000Y290000D02*
D03*
X395000D02*
D03*
X380000D02*
D03*
X410000D02*
D03*
X485000D02*
D03*
X425000D02*
D03*
X470000D02*
D03*
X455000D02*
D03*
X290000Y183000D02*
D03*
Y218000D02*
D03*
Y201000D02*
D03*
X530000Y200000D02*
D03*
X510000D02*
D03*
X490000D02*
D03*
X470000D02*
D03*
X530000Y160000D02*
D03*
X510000D02*
D03*
X400000Y210000D02*
D03*
X397000Y26800D02*
D03*
Y119000D02*
D03*
X432000Y26800D02*
D03*
Y119000D02*
D03*
D49*
X410000Y50000D02*
D03*
X330000D02*
D03*
D50*
X420000D02*
D03*
X430000D02*
D03*
X440000D02*
D03*
X450000D02*
D03*
X460000D02*
D03*
X410000Y89370D02*
D03*
X420000D02*
D03*
X430000D02*
D03*
X440000D02*
D03*
X450000D02*
D03*
X460000D02*
D03*
X380000D02*
D03*
X370000D02*
D03*
X360000D02*
D03*
X350000D02*
D03*
X340000D02*
D03*
X330000D02*
D03*
X380000Y50000D02*
D03*
X370000D02*
D03*
X360000D02*
D03*
X350000D02*
D03*
X340000D02*
D03*
X393000Y165000D02*
D03*
X405000Y191000D02*
D03*
Y183000D02*
D03*
X369000Y175000D02*
D03*
X275000Y187000D02*
D03*
X476000Y149000D02*
D03*
X389000Y93000D02*
D03*
X206000Y94000D02*
D03*
X500000Y70000D02*
D03*
X400000Y158000D02*
D03*
X483000Y96000D02*
D03*
X410000Y149000D02*
D03*
X420000Y157000D02*
D03*
X484000Y113000D02*
D03*
X476000Y70000D02*
D03*
X456000Y80000D02*
D03*
X489000Y81000D02*
D03*
X429000Y147000D02*
D03*
X469000Y134000D02*
D03*
X490000Y70000D02*
D03*
X491000Y89000D02*
D03*
X460000Y134000D02*
D03*
X353000Y131000D02*
D03*
X450000Y128000D02*
D03*
X330000Y131000D02*
D03*
X249000Y101000D02*
D03*
X255000Y108000D02*
D03*
X218000Y100000D02*
D03*
X246000Y138000D02*
D03*
X244000Y246000D02*
D03*
X254000Y138000D02*
D03*
X230000Y104000D02*
D03*
X253000Y250000D02*
D03*
X84000Y218000D02*
D03*
X63000D02*
D03*
X233000Y232414D02*
D03*
X293000Y248000D02*
D03*
X312000Y241000D02*
D03*
Y224000D02*
D03*
X357000Y166000D02*
D03*
X354000Y280000D02*
D03*
X338000Y224000D02*
D03*
X366000Y260000D02*
D03*
X375000Y183000D02*
D03*
X366000Y250000D02*
D03*
X375000Y191000D02*
D03*
Y200000D02*
D03*
X281000Y145000D02*
D03*
X277000Y138000D02*
D03*
X340000Y126000D02*
D03*
X166000Y121000D02*
D03*
X373000Y140000D02*
D03*
X387000D02*
D03*
Y150000D02*
D03*
X372000D02*
D03*
X387000Y159000D02*
D03*
X372000D02*
D03*
X522000Y318000D02*
D03*
X77000Y194000D02*
D03*
X151000Y225000D02*
D03*
X103000Y200000D02*
D03*
X48000Y185000D02*
D03*
X110000Y193000D02*
D03*
X111000Y183000D02*
D03*
X262000Y138000D02*
D03*
X237000Y279000D02*
D03*
X260000Y270000D02*
D03*
X266000Y260000D02*
D03*
X225000Y85000D02*
D03*
X212000Y77000D02*
D03*
X218000Y71000D02*
D03*
X116000Y156000D02*
D03*
X409000Y320000D02*
D03*
X404000Y314000D02*
D03*
X468000Y321000D02*
D03*
X314000Y317000D02*
D03*
X338000Y242000D02*
D03*
X397000Y325000D02*
D03*
X450000Y324000D02*
D03*
X486000Y320000D02*
D03*
X430000Y309000D02*
D03*
X416000Y272000D02*
D03*
X394000Y201000D02*
D03*
X388000Y270000D02*
D03*
X481000Y220000D02*
D03*
X458000Y240000D02*
D03*
X522000Y86000D02*
D03*
X233000Y303000D02*
D03*
X211000Y287000D02*
D03*
X219000Y284000D02*
D03*
X220000Y274000D02*
D03*
X218000Y322000D02*
D03*
X208000Y296000D02*
D03*
X201000Y322000D02*
D03*
X142000Y288000D02*
D03*
X120000Y145000D02*
D03*
X153000Y287000D02*
D03*
X117000Y165000D02*
D03*
X129000Y298000D02*
D03*
X139000Y174000D02*
D03*
X145000Y161000D02*
D03*
X156000Y230000D02*
D03*
X158000Y156000D02*
D03*
X151000Y168000D02*
D03*
X166000Y150000D02*
D03*
X165000Y230000D02*
D03*
X174000Y135000D02*
D03*
X171000Y236000D02*
D03*
X145000Y248000D02*
D03*
X139000Y243000D02*
D03*
X129000Y180000D02*
D03*
X131500Y272000D02*
D03*
X118000Y135000D02*
D03*
X129000Y231000D02*
D03*
X132000Y283000D02*
D03*
X81000Y160000D02*
D03*
X101000Y227000D02*
D03*
X91000Y269000D02*
D03*
X364000Y317000D02*
D03*
X343000Y325000D02*
D03*
X380000Y324000D02*
D03*
X183000Y242000D02*
D03*
X334000Y276000D02*
D03*
X448000Y277000D02*
D03*
X419000Y244000D02*
D03*
X544000Y139000D02*
D03*
X511120Y43120D02*
D03*
X468000Y30000D02*
D03*
X220000Y191000D02*
D03*
X224000Y172000D02*
D03*
X247000Y154000D02*
D03*
X209000Y136000D02*
D03*
X339000Y342000D02*
D03*
X351000Y375000D02*
D03*
X367000D02*
D03*
X535000Y322000D02*
D03*
X509000Y350000D02*
D03*
X228000Y349000D02*
D03*
X153000Y350000D02*
D03*
X535000Y341000D02*
D03*
X547000Y364000D02*
D03*
X522000Y375000D02*
D03*
X500500D02*
D03*
X486000D02*
D03*
X468000D02*
D03*
X450000D02*
D03*
X430000D02*
D03*
X416000D02*
D03*
X387000D02*
D03*
X329000D02*
D03*
X305000D02*
D03*
X283000D02*
D03*
X263000D02*
D03*
X242000D02*
D03*
X218000D02*
D03*
X205000D02*
D03*
X192500D02*
D03*
X177500D02*
D03*
X162500D02*
D03*
X145000D02*
D03*
X135000D02*
D03*
X125000D02*
D03*
X115000D02*
D03*
X105000D02*
D03*
X95000D02*
D03*
X85000D02*
D03*
X75000D02*
D03*
D51*
X20000Y20000D02*
D03*
X540000D02*
D03*
Y380000D02*
D03*
X20000D02*
D03*
D52*
X344500Y190000D02*
D03*
X334500D02*
D03*
X344500Y200000D02*
D03*
X334500D02*
D03*
X344500Y210000D02*
D03*
X530000Y190000D02*
D03*
X510000D02*
D03*
X490000D02*
D03*
X470000D02*
D03*
X530000Y150000D02*
D03*
X510000D02*
D03*
X400000Y220000D02*
D03*
X410000Y210000D02*
D03*
Y220000D02*
D03*
X420000Y210000D02*
D03*
Y220000D02*
D03*
X430000Y210000D02*
D03*
Y220000D02*
D03*
X440000Y210000D02*
D03*
Y220000D02*
D03*
D53*
X334500Y210000D02*
D03*
D54*
X30000Y120000D02*
D03*
Y130000D02*
D03*
Y140000D02*
D03*
Y150000D02*
D03*
Y160000D02*
D03*
Y170000D02*
D03*
Y180000D02*
D03*
X20000Y120000D02*
D03*
Y130000D02*
D03*
Y140000D02*
D03*
Y150000D02*
D03*
Y160000D02*
D03*
Y170000D02*
D03*
X30000Y190000D02*
D03*
X20000Y180000D02*
D03*
D55*
Y190000D02*
D03*
M02*
