G04*
G04 #@! TF.GenerationSoftware,Altium Limited,Altium Designer,22.3.1 (43)*
G04*
G04 Layer_Color=32768*
%FSLAX25Y25*%
%MOIN*%
G70*
G04*
G04 #@! TF.SameCoordinates,1903AC94-178F-402A-AE6A-EB822E6E4443*
G04*
G04*
G04 #@! TF.FilePolarity,Positive*
G04*
G01*
G75*
%ADD10C,0.00787*%
%ADD13C,0.00394*%
%ADD66C,0.00197*%
D10*
X506396Y119000D02*
X561907D01*
Y60500D02*
Y119000D01*
X506396Y60500D02*
Y119000D01*
Y60500D02*
X561907D01*
D13*
X218850Y155425D02*
X225150D01*
Y158575D01*
X218850D02*
X225150D01*
X218850Y155425D02*
Y158575D01*
Y162425D02*
X225150D01*
Y165575D01*
X218850D02*
X225150D01*
X218850Y162425D02*
Y165575D01*
X205850Y158575D02*
X212150D01*
X205850Y155425D02*
Y158575D01*
Y155425D02*
X212150D01*
Y158575D01*
X205850Y164575D02*
X212150D01*
X205850Y161425D02*
Y164575D01*
Y161425D02*
X212150D01*
Y164575D01*
X205850Y170575D02*
X212150D01*
X205850Y167425D02*
Y170575D01*
Y167425D02*
X212150D01*
Y170575D01*
X429850Y77425D02*
X436150D01*
Y80575D01*
X429850D02*
X436150D01*
X429850Y77425D02*
Y80575D01*
X349850Y78425D02*
X356150D01*
Y81575D01*
X349850D02*
X356150D01*
X349850Y78425D02*
Y81575D01*
X353850Y58425D02*
X360150D01*
Y61575D01*
X353850D02*
X360150D01*
X353850Y58425D02*
Y61575D01*
X433850Y58425D02*
X440150D01*
Y61575D01*
X433850D02*
X440150D01*
X433850Y58425D02*
Y61575D01*
X349425Y334350D02*
Y340650D01*
Y334350D02*
X352575D01*
Y340650D01*
X349425D02*
X352575D01*
X545425Y334350D02*
Y340650D01*
Y334350D02*
X548575D01*
Y340650D01*
X545425D02*
X548575D01*
X523575Y334350D02*
Y340650D01*
X520425D02*
X523575D01*
X520425Y334350D02*
Y340650D01*
Y334350D02*
X523575D01*
X385425D02*
Y340650D01*
Y334350D02*
X388575D01*
Y340650D01*
X385425D02*
X388575D01*
X498925Y334350D02*
Y340650D01*
Y334350D02*
X502075D01*
Y340650D01*
X498925D02*
X502075D01*
X327425Y334350D02*
Y340650D01*
Y334350D02*
X330575D01*
Y340650D01*
X327425D02*
X330575D01*
X261425Y334350D02*
Y340650D01*
Y334350D02*
X264575D01*
Y340650D01*
X261425D02*
X264575D01*
X240425Y334350D02*
Y340650D01*
Y334350D02*
X243575D01*
Y340650D01*
X240425D02*
X243575D01*
X303425Y334350D02*
Y340650D01*
Y334350D02*
X306575D01*
Y340650D01*
X303425D02*
X306575D01*
X281425Y334350D02*
Y340650D01*
Y334350D02*
X284575D01*
Y340650D01*
X281425D02*
X284575D01*
X365425Y334850D02*
Y341150D01*
Y334850D02*
X368575D01*
Y341150D01*
X365425D02*
X368575D01*
X484425Y334350D02*
Y340650D01*
Y334350D02*
X487575D01*
Y340650D01*
X484425D02*
X487575D01*
X466425Y334350D02*
Y340650D01*
Y334350D02*
X469575D01*
Y340650D01*
X466425D02*
X469575D01*
X448425Y334350D02*
Y340650D01*
Y334350D02*
X451575D01*
Y340650D01*
X448425D02*
X451575D01*
X414425Y334350D02*
Y340650D01*
Y334350D02*
X417575D01*
Y340650D01*
X414425D02*
X417575D01*
X428425Y334350D02*
Y340650D01*
Y334350D02*
X431575D01*
Y340650D01*
X428425D02*
X431575D01*
X203425Y334350D02*
Y340650D01*
Y334350D02*
X206575D01*
Y340650D01*
X203425D02*
X206575D01*
X216425Y334350D02*
Y340650D01*
Y334350D02*
X219575D01*
Y340650D01*
X216425D02*
X219575D01*
X190925Y334350D02*
Y340650D01*
Y334350D02*
X194075D01*
Y340650D01*
X190925D02*
X194075D01*
X179075Y334350D02*
Y340650D01*
X175925D02*
X179075D01*
X175925Y334350D02*
Y340650D01*
Y334350D02*
X179075D01*
X160925D02*
Y340650D01*
Y334350D02*
X164075D01*
Y340650D01*
X160925D02*
X164075D01*
X123425Y334350D02*
Y340650D01*
Y334350D02*
X126575D01*
Y340650D01*
X123425D02*
X126575D01*
X113425Y334350D02*
Y340650D01*
Y334350D02*
X116575D01*
Y340650D01*
X113425D02*
X116575D01*
X103425Y334350D02*
Y340650D01*
Y334350D02*
X106575D01*
Y340650D01*
X103425D02*
X106575D01*
X93425Y334350D02*
Y340650D01*
Y334350D02*
X96575D01*
Y340650D01*
X93425D02*
X96575D01*
X143425Y334350D02*
Y340650D01*
Y334350D02*
X146575D01*
Y340650D01*
X143425D02*
X146575D01*
X133425Y334350D02*
Y340650D01*
Y334350D02*
X136575D01*
Y340650D01*
X133425D02*
X136575D01*
X83425Y334350D02*
Y340650D01*
Y334350D02*
X86575D01*
Y340650D01*
X83425D02*
X86575D01*
X73425Y334350D02*
Y340650D01*
Y334350D02*
X76575D01*
Y340650D01*
X73425D02*
X76575D01*
X311850Y197575D02*
X318150D01*
Y194425D02*
Y197575D01*
X311850Y194425D02*
X318150D01*
X311850D02*
Y197575D01*
X104567Y264173D02*
X125433D01*
Y235827D02*
Y264173D01*
X104567Y235827D02*
X125433D01*
X104567D02*
Y264173D01*
Y261614D02*
X107126Y264173D01*
X191339Y269843D02*
X208661D01*
Y250157D02*
Y269843D01*
X191339Y250157D02*
X208661D01*
X191339D02*
Y269843D01*
Y267284D02*
X193898Y269843D01*
X161850Y271575D02*
X168150D01*
Y268425D02*
Y271575D01*
X161850Y268425D02*
X168150D01*
X161850D02*
Y271575D01*
Y261575D02*
X168150D01*
Y258425D02*
Y261575D01*
X161850Y258425D02*
X168150D01*
X161850D02*
Y261575D01*
Y251575D02*
X168150D01*
Y248425D02*
Y251575D01*
X161850Y248425D02*
X168150D01*
X161850D02*
Y251575D01*
X231850Y248425D02*
X238150D01*
X231850D02*
Y251575D01*
X238150D01*
Y248425D02*
Y251575D01*
X231850Y258425D02*
X238150D01*
X231850D02*
Y261575D01*
X238150D01*
Y258425D02*
Y261575D01*
X231850Y268425D02*
X238150D01*
X231850D02*
Y271575D01*
X238150D01*
Y268425D02*
Y271575D01*
X426339Y269843D02*
X443661D01*
Y250157D02*
Y269843D01*
X426339Y250157D02*
X443661D01*
X426339D02*
Y269843D01*
Y267284D02*
X428898Y269843D01*
X306339D02*
X323661D01*
Y250157D02*
Y269843D01*
X306339Y250157D02*
X323661D01*
X306339D02*
Y269843D01*
Y267284D02*
X308898Y269843D01*
X160925Y297850D02*
Y304150D01*
X164075D01*
Y297850D02*
Y304150D01*
X160925Y297850D02*
X164075D01*
X396850Y271575D02*
X403150D01*
Y268425D02*
Y271575D01*
X396850Y268425D02*
X403150D01*
X396850D02*
Y271575D01*
X276850D02*
X283150D01*
Y268425D02*
Y271575D01*
X276850Y268425D02*
X283150D01*
X276850D02*
Y271575D01*
X175925Y297850D02*
Y304150D01*
X179075D01*
Y297850D02*
Y304150D01*
X175925Y297850D02*
X179075D01*
X396850Y261575D02*
X403150D01*
Y258425D02*
Y261575D01*
X396850Y258425D02*
X403150D01*
X396850D02*
Y261575D01*
X276850D02*
X283150D01*
Y258425D02*
Y261575D01*
X276850Y258425D02*
X283150D01*
X276850D02*
Y261575D01*
X327425Y297850D02*
Y304150D01*
X330575D01*
Y297850D02*
Y304150D01*
X327425Y297850D02*
X330575D01*
X396850Y251575D02*
X403150D01*
Y248425D02*
Y251575D01*
X396850Y248425D02*
X403150D01*
X396850D02*
Y251575D01*
X276850D02*
X283150D01*
Y248425D02*
Y251575D01*
X276850Y248425D02*
X283150D01*
X276850D02*
Y251575D01*
X190925Y297850D02*
Y304150D01*
X194075D01*
Y297850D02*
Y304150D01*
X190925Y297850D02*
X194075D01*
X466850Y248425D02*
X473150D01*
X466850D02*
Y251575D01*
X473150D01*
Y248425D02*
Y251575D01*
X346850Y248425D02*
X353150D01*
X346850D02*
Y251575D01*
X353150D01*
Y248425D02*
Y251575D01*
X498925Y298850D02*
Y305150D01*
X502075D01*
Y298850D02*
Y305150D01*
X498925Y298850D02*
X502075D01*
X466850Y258425D02*
X473150D01*
X466850D02*
Y261575D01*
X473150D01*
Y258425D02*
Y261575D01*
X346850Y258425D02*
X353150D01*
X346850D02*
Y261575D01*
X353150D01*
Y258425D02*
Y261575D01*
X466850Y268425D02*
X473150D01*
X466850D02*
Y271575D01*
X473150D01*
Y268425D02*
Y271575D01*
X346850Y268425D02*
X353150D01*
X346850D02*
Y271575D01*
X353150D01*
Y268425D02*
Y271575D01*
X311850Y211575D02*
X318150D01*
Y208425D02*
Y211575D01*
X311850Y208425D02*
X318150D01*
X311850D02*
Y211575D01*
Y187425D02*
X318150D01*
X311850D02*
Y190575D01*
X318150D01*
Y187425D02*
Y190575D01*
X311850Y204575D02*
X318150D01*
Y201425D02*
Y204575D01*
X311850Y201425D02*
X318150D01*
X311850D02*
Y204575D01*
X56850Y188425D02*
X63150D01*
X56850D02*
Y191575D01*
X63150D01*
Y188425D02*
Y191575D01*
X56850Y178425D02*
X63150D01*
X56850D02*
Y181575D01*
X63150D01*
Y178425D02*
Y181575D01*
X96850Y166575D02*
X103150D01*
Y163425D02*
Y166575D01*
X96850Y163425D02*
X103150D01*
X96850D02*
Y166575D01*
X56850Y168425D02*
X63150D01*
X56850D02*
Y171575D01*
X63150D01*
Y168425D02*
Y171575D01*
X508425Y224850D02*
Y231150D01*
X511575D01*
Y224850D02*
Y231150D01*
X508425Y224850D02*
X511575D01*
X488425D02*
Y231150D01*
X491575D01*
Y224850D02*
Y231150D01*
X488425Y224850D02*
X491575D01*
X518425D02*
Y231150D01*
X521575D01*
Y224850D02*
Y231150D01*
X518425Y224850D02*
X521575D01*
X531575D02*
Y231150D01*
X528425Y224850D02*
X531575D01*
X528425D02*
Y231150D01*
X531575D01*
X468425Y224850D02*
Y231150D01*
X471575D01*
Y224850D02*
Y231150D01*
X468425Y224850D02*
X471575D01*
X498425D02*
Y231150D01*
X501575D01*
Y224850D02*
Y231150D01*
X498425Y224850D02*
X501575D01*
X96850Y156575D02*
X103150D01*
Y153425D02*
Y156575D01*
X96850Y153425D02*
X103150D01*
X96850D02*
Y156575D01*
X56850Y158425D02*
X63150D01*
X56850D02*
Y161575D01*
X63150D01*
Y158425D02*
Y161575D01*
X96850Y146575D02*
X103150D01*
Y143425D02*
Y146575D01*
X96850Y143425D02*
X103150D01*
X96850D02*
Y146575D01*
X56850Y148425D02*
X63150D01*
X56850D02*
Y151575D01*
X63150D01*
Y148425D02*
Y151575D01*
X96850Y136575D02*
X103150D01*
Y133425D02*
Y136575D01*
X96850Y133425D02*
X103150D01*
X96850D02*
Y136575D01*
X56850Y138425D02*
X63150D01*
X56850D02*
Y141575D01*
X63150D01*
Y138425D02*
Y141575D01*
X56850Y128425D02*
X63150D01*
X56850D02*
Y131575D01*
X63150D01*
Y128425D02*
Y131575D01*
X56850Y118425D02*
X63150D01*
X56850D02*
Y121575D01*
X63150D01*
Y118425D02*
Y121575D01*
X225425Y198850D02*
Y205150D01*
X228575D01*
Y198850D02*
Y205150D01*
X225425Y198850D02*
X228575D01*
X216575Y198701D02*
Y205000D01*
X213425Y198701D02*
X216575D01*
X213425D02*
Y205000D01*
X216575D01*
X231425Y198850D02*
Y205150D01*
X234575D01*
Y198850D02*
Y205150D01*
X231425Y198850D02*
X234575D01*
X210575Y198701D02*
Y205000D01*
X207425Y198701D02*
X210575D01*
X207425D02*
Y205000D01*
X210575D01*
X237425Y198850D02*
Y205150D01*
X240575D01*
Y198850D02*
Y205150D01*
X237425Y198850D02*
X240575D01*
X204575D02*
Y205150D01*
X201425Y198850D02*
X204575D01*
X201425D02*
Y205150D01*
X204575D01*
X255850Y182575D02*
X262150D01*
Y179425D02*
Y182575D01*
X255850Y179425D02*
X262150D01*
X255850D02*
Y182575D01*
X174350Y187575D02*
X180650D01*
Y184425D02*
Y187575D01*
X174350Y184425D02*
X180650D01*
X174350D02*
Y187575D01*
X255850Y176575D02*
X262150D01*
Y173425D02*
Y176575D01*
X255850Y173425D02*
X262150D01*
X255850D02*
Y176575D01*
X174350Y181575D02*
X180650D01*
Y178425D02*
Y181575D01*
X174350Y178425D02*
X180650D01*
X174350D02*
Y181575D01*
X255850Y170575D02*
X262150D01*
Y167425D02*
Y170575D01*
X255850Y167425D02*
X262150D01*
X255850D02*
Y170575D01*
X174350Y175575D02*
X180650D01*
Y172425D02*
Y175575D01*
X174350Y172425D02*
X180650D01*
X174350D02*
Y175575D01*
X255850Y164575D02*
X262150D01*
Y161425D02*
Y164575D01*
X255850Y161425D02*
X262150D01*
X255850D02*
Y164575D01*
X174350Y169575D02*
X180650D01*
Y166425D02*
Y169575D01*
X174350Y166425D02*
X180650D01*
X174350D02*
Y169575D01*
X255850Y158575D02*
X262150D01*
Y155425D02*
Y158575D01*
X255850Y155425D02*
X262150D01*
X255850D02*
Y158575D01*
X174350Y163575D02*
X180650D01*
Y160425D02*
Y163575D01*
X174350Y160425D02*
X180650D01*
X174350D02*
Y163575D01*
X255850Y152575D02*
X262150D01*
Y149425D02*
Y152575D01*
X255850Y149425D02*
X262150D01*
X255850D02*
Y152575D01*
X243575Y117850D02*
Y124150D01*
X240425Y117850D02*
X243575D01*
X240425D02*
Y124150D01*
X243575D01*
X174350Y157575D02*
X180650D01*
Y154425D02*
Y157575D01*
X174350Y154425D02*
X180650D01*
X174350D02*
Y157575D01*
X237575Y117850D02*
Y124150D01*
X234425Y117850D02*
X237575D01*
X234425D02*
Y124150D01*
X237575D01*
X174350Y151575D02*
X180650D01*
Y148425D02*
Y151575D01*
X174350Y148425D02*
X180650D01*
X174350D02*
Y151575D01*
X231575Y117850D02*
Y124150D01*
X228425Y117850D02*
X231575D01*
X228425D02*
Y124150D01*
X231575D01*
X174350Y145575D02*
X180650D01*
Y142425D02*
Y145575D01*
X174350Y142425D02*
X180650D01*
X174350D02*
Y145575D01*
X225575Y117850D02*
Y124150D01*
X222425Y117850D02*
X225575D01*
X222425D02*
Y124150D01*
X225575D01*
X204425Y117850D02*
Y124150D01*
X207575D01*
Y117850D02*
Y124150D01*
X204425Y117850D02*
X207575D01*
X219575D02*
Y124150D01*
X216425Y117850D02*
X219575D01*
X216425D02*
Y124150D01*
X219575D01*
X213575Y117850D02*
Y124150D01*
X210425Y117850D02*
X213575D01*
X210425D02*
Y124150D01*
X213575D01*
X411575Y26850D02*
Y33150D01*
X408425Y26850D02*
X411575D01*
X408425D02*
Y33150D01*
X411575D01*
Y111850D02*
Y118150D01*
X408425Y111850D02*
X411575D01*
X408425D02*
Y118150D01*
X411575D01*
X421575Y26850D02*
Y33150D01*
X418425Y26850D02*
X421575D01*
X418425D02*
Y33150D01*
X421575D01*
Y111850D02*
Y118150D01*
X418425Y111850D02*
X421575D01*
X418425D02*
Y118150D01*
X421575D01*
X451575Y111850D02*
Y118150D01*
X448425Y111850D02*
X451575D01*
X448425D02*
Y118150D01*
X451575D01*
X461575Y111850D02*
Y118150D01*
X458425Y111850D02*
X461575D01*
X458425D02*
Y118150D01*
X461575D01*
X398425Y166850D02*
Y173150D01*
X401575D01*
Y166850D02*
Y173150D01*
X398425Y166850D02*
X401575D01*
X408425D02*
Y173150D01*
X411575D01*
Y166850D02*
Y173150D01*
X408425Y166850D02*
X411575D01*
X418425D02*
Y173150D01*
X421575D01*
Y166850D02*
Y173150D01*
X418425Y166850D02*
X421575D01*
X428425D02*
Y173150D01*
X431575D01*
Y166850D02*
Y173150D01*
X428425Y166850D02*
X431575D01*
X438425D02*
Y173150D01*
X441575D01*
Y166850D02*
Y173150D01*
X438425Y166850D02*
X441575D01*
X448425D02*
Y173150D01*
X451575D01*
Y166850D02*
Y173150D01*
X448425Y166850D02*
X451575D01*
X476850Y38425D02*
X483150D01*
X476850D02*
Y41575D01*
X483150D01*
Y38425D02*
Y41575D01*
X476850Y61575D02*
X483150D01*
Y58425D02*
Y61575D01*
X476850Y58425D02*
X483150D01*
X476850D02*
Y61575D01*
Y51575D02*
X483150D01*
Y48425D02*
Y51575D01*
X476850Y48425D02*
X483150D01*
X476850D02*
Y51575D01*
X288425Y66850D02*
Y73150D01*
X291575D01*
Y66850D02*
Y73150D01*
X288425Y66850D02*
X291575D01*
X331575Y111850D02*
Y118150D01*
X328425Y111850D02*
X331575D01*
X328425D02*
Y118150D01*
X331575D01*
X273425Y66850D02*
Y73150D01*
X276575D01*
Y66850D02*
Y73150D01*
X273425Y66850D02*
X276575D01*
X341575Y111850D02*
Y118150D01*
X338425Y111850D02*
X341575D01*
X338425D02*
Y118150D01*
X341575D01*
X258425Y66850D02*
Y73150D01*
X261575D01*
Y66850D02*
Y73150D01*
X258425Y66850D02*
X261575D01*
X371575Y111850D02*
Y118150D01*
X368425Y111850D02*
X371575D01*
X368425D02*
Y118150D01*
X371575D01*
X243425Y66850D02*
Y73150D01*
X246575D01*
Y66850D02*
Y73150D01*
X243425Y66850D02*
X246575D01*
X381575Y111850D02*
Y118150D01*
X378425Y111850D02*
X381575D01*
X378425D02*
Y118150D01*
X381575D01*
X291575Y36850D02*
Y43150D01*
X288425Y36850D02*
X291575D01*
X288425D02*
Y43150D01*
X291575D01*
X276575Y36850D02*
Y43150D01*
X273425Y36850D02*
X276575D01*
X273425D02*
Y43150D01*
X276575D01*
X261575Y36850D02*
Y43150D01*
X258425Y36850D02*
X261575D01*
X258425D02*
Y43150D01*
X261575D01*
X246575Y36850D02*
Y43150D01*
X243425Y36850D02*
X246575D01*
X243425D02*
Y43150D01*
X246575D01*
D66*
X198429Y143429D02*
Y184571D01*
Y143429D02*
X239571D01*
Y184571D01*
X198429D02*
X239571D01*
M02*
