G04*
G04 #@! TF.GenerationSoftware,Altium Limited,Altium Designer,22.3.1 (43)*
G04*
G04 Layer_Color=255*
%FSLAX25Y25*%
%MOIN*%
G70*
G04*
G04 #@! TF.SameCoordinates,1903AC94-178F-402A-AE6A-EB822E6E4443*
G04*
G04*
G04 #@! TF.FilePolarity,Positive*
G04*
G01*
G75*
%ADD20R,0.03150X0.03740*%
%ADD24R,0.03740X0.03150*%
%ADD47C,0.08000*%
%ADD48R,0.05906X0.05906*%
%ADD49R,0.05000X0.05000*%
%ADD50C,0.05000*%
%ADD51C,0.20000*%
%ADD52C,0.05906*%
%ADD53R,0.05906X0.05906*%
%ADD54C,0.06000*%
%ADD55R,0.06000X0.06000*%
D20*
X218850Y157000D02*
D03*
X225150D02*
D03*
X218850Y164000D02*
D03*
X225150D02*
D03*
X212150Y157000D02*
D03*
X205850D02*
D03*
X212150Y163000D02*
D03*
X205850D02*
D03*
X212150Y169000D02*
D03*
X205850D02*
D03*
X429850Y79000D02*
D03*
X436150D02*
D03*
X349850Y80000D02*
D03*
X356150D02*
D03*
X353850Y60000D02*
D03*
X360150D02*
D03*
X433850D02*
D03*
X440150D02*
D03*
D24*
X351000Y340650D02*
D03*
Y334350D02*
D03*
X547000Y340650D02*
D03*
Y334350D02*
D03*
X522000D02*
D03*
Y340650D02*
D03*
X387000D02*
D03*
Y334350D02*
D03*
X500500Y340650D02*
D03*
Y334350D02*
D03*
X329000Y340650D02*
D03*
Y334350D02*
D03*
X263000Y340650D02*
D03*
Y334350D02*
D03*
X242000Y340650D02*
D03*
Y334350D02*
D03*
X305000Y340650D02*
D03*
Y334350D02*
D03*
X283000Y340650D02*
D03*
Y334350D02*
D03*
X367000Y341150D02*
D03*
Y334850D02*
D03*
X486000Y340650D02*
D03*
Y334350D02*
D03*
X468000Y340650D02*
D03*
Y334350D02*
D03*
X450000Y340650D02*
D03*
Y334350D02*
D03*
X416000Y340650D02*
D03*
Y334350D02*
D03*
X430000Y340650D02*
D03*
Y334350D02*
D03*
X205000Y340650D02*
D03*
Y334350D02*
D03*
X218000Y340650D02*
D03*
Y334350D02*
D03*
X192500Y340650D02*
D03*
Y334350D02*
D03*
X177500D02*
D03*
Y340650D02*
D03*
X162500D02*
D03*
Y334350D02*
D03*
X125000Y340650D02*
D03*
Y334350D02*
D03*
X115000Y340650D02*
D03*
Y334350D02*
D03*
X105000Y340650D02*
D03*
Y334350D02*
D03*
X95000Y340650D02*
D03*
Y334350D02*
D03*
X145000Y340650D02*
D03*
Y334350D02*
D03*
X135000Y340650D02*
D03*
Y334350D02*
D03*
X85000Y340650D02*
D03*
Y334350D02*
D03*
X75000Y340650D02*
D03*
Y334350D02*
D03*
D47*
X552848Y72500D02*
D03*
Y100000D02*
D03*
D48*
X440000Y290000D02*
D03*
X395000D02*
D03*
X380000D02*
D03*
X410000D02*
D03*
X485000D02*
D03*
X425000D02*
D03*
X470000D02*
D03*
X455000D02*
D03*
X290000Y183000D02*
D03*
Y218000D02*
D03*
Y201000D02*
D03*
X530000Y200000D02*
D03*
X510000D02*
D03*
X490000D02*
D03*
X470000D02*
D03*
X530000Y160000D02*
D03*
X510000D02*
D03*
X400000Y210000D02*
D03*
X397000Y26800D02*
D03*
Y119000D02*
D03*
X432000Y26800D02*
D03*
Y119000D02*
D03*
D49*
X410000Y50000D02*
D03*
X330000D02*
D03*
D50*
X420000D02*
D03*
X430000D02*
D03*
X440000D02*
D03*
X450000D02*
D03*
X460000D02*
D03*
X410000Y89370D02*
D03*
X420000D02*
D03*
X430000D02*
D03*
X440000D02*
D03*
X450000D02*
D03*
X460000D02*
D03*
X380000D02*
D03*
X370000D02*
D03*
X360000D02*
D03*
X350000D02*
D03*
X340000D02*
D03*
X330000D02*
D03*
X380000Y50000D02*
D03*
X370000D02*
D03*
X360000D02*
D03*
X350000D02*
D03*
X340000D02*
D03*
D51*
X20000Y20000D02*
D03*
X540000D02*
D03*
Y380000D02*
D03*
X20000D02*
D03*
D52*
X344500Y190000D02*
D03*
X334500D02*
D03*
X344500Y200000D02*
D03*
X334500D02*
D03*
X344500Y210000D02*
D03*
X530000Y190000D02*
D03*
X510000D02*
D03*
X490000D02*
D03*
X470000D02*
D03*
X530000Y150000D02*
D03*
X510000D02*
D03*
X400000Y220000D02*
D03*
X410000Y210000D02*
D03*
Y220000D02*
D03*
X420000Y210000D02*
D03*
Y220000D02*
D03*
X430000Y210000D02*
D03*
Y220000D02*
D03*
X440000Y210000D02*
D03*
Y220000D02*
D03*
D53*
X334500Y210000D02*
D03*
D54*
X30000Y120000D02*
D03*
Y130000D02*
D03*
Y140000D02*
D03*
Y150000D02*
D03*
Y160000D02*
D03*
Y170000D02*
D03*
Y180000D02*
D03*
X20000Y120000D02*
D03*
Y130000D02*
D03*
Y140000D02*
D03*
Y150000D02*
D03*
Y160000D02*
D03*
Y170000D02*
D03*
X30000Y190000D02*
D03*
X20000Y180000D02*
D03*
D55*
Y190000D02*
D03*
M02*
