G04*
G04 #@! TF.GenerationSoftware,Altium Limited,Altium Designer,22.3.1 (43)*
G04*
G04 Layer_Color=32896*
%FSLAX25Y25*%
%MOIN*%
G70*
G04*
G04 #@! TF.SameCoordinates,1903AC94-178F-402A-AE6A-EB822E6E4443*
G04*
G04*
G04 #@! TF.FilePolarity,Positive*
G04*
G01*
G75*
%ADD12C,0.01000*%
%ADD14C,0.00500*%
D12*
X414001Y318002D02*
X417999D01*
Y320001D01*
X417333Y320668D01*
X416000D01*
X415334Y320001D01*
Y318002D01*
Y319335D02*
X414001Y320668D01*
Y322001D02*
Y323334D01*
Y322667D01*
X417999D01*
X417333Y322001D01*
X414001Y325333D02*
Y326666D01*
Y325999D01*
X417999D01*
X417333Y325333D01*
X414001Y328665D02*
Y329998D01*
Y329332D01*
X417999D01*
X417333Y328665D01*
X428001Y317336D02*
X431999D01*
Y319335D01*
X431333Y320001D01*
X430000D01*
X429334Y319335D01*
Y317336D01*
Y318668D02*
X428001Y320001D01*
Y321334D02*
Y322667D01*
Y322001D01*
X431999D01*
X431333Y321334D01*
X428001Y324667D02*
Y325999D01*
Y325333D01*
X431999D01*
X431333Y324667D01*
Y327999D02*
X431999Y328665D01*
Y329998D01*
X431333Y330664D01*
X428667D01*
X428001Y329998D01*
Y328665D01*
X428667Y327999D01*
X431333D01*
X484001Y316502D02*
X487999D01*
Y318502D01*
X487333Y319168D01*
X486000D01*
X485333Y318502D01*
Y316502D01*
Y317835D02*
X484001Y319168D01*
Y320501D02*
Y321834D01*
Y321167D01*
X487999D01*
X487333Y320501D01*
Y323833D02*
X487999Y324500D01*
Y325833D01*
X487333Y326499D01*
X484667D01*
X484001Y325833D01*
Y324500D01*
X484667Y323833D01*
X487333D01*
X484667Y327832D02*
X484001Y328498D01*
Y329831D01*
X484667Y330498D01*
X487333D01*
X487999Y329831D01*
Y328498D01*
X487333Y327832D01*
X486666D01*
X486000Y328498D01*
Y330498D01*
X466001Y316502D02*
X469999D01*
Y318502D01*
X469333Y319168D01*
X468000D01*
X467334Y318502D01*
Y316502D01*
Y317835D02*
X466001Y319168D01*
Y320501D02*
Y321834D01*
Y321167D01*
X469999D01*
X469333Y320501D01*
Y323833D02*
X469999Y324500D01*
Y325833D01*
X469333Y326499D01*
X466667D01*
X466001Y325833D01*
Y324500D01*
X466667Y323833D01*
X469333D01*
Y327832D02*
X469999Y328498D01*
Y329831D01*
X469333Y330498D01*
X468666D01*
X468000Y329831D01*
X467334Y330498D01*
X466667D01*
X466001Y329831D01*
Y328498D01*
X466667Y327832D01*
X467334D01*
X468000Y328498D01*
X468666Y327832D01*
X469333D01*
X468000Y328498D02*
Y329831D01*
X447001Y315502D02*
X450999D01*
Y317502D01*
X450333Y318168D01*
X449000D01*
X448334Y317502D01*
Y315502D01*
Y316835D02*
X447001Y318168D01*
Y319501D02*
Y320834D01*
Y320167D01*
X450999D01*
X450333Y319501D01*
Y322833D02*
X450999Y323500D01*
Y324833D01*
X450333Y325499D01*
X447667D01*
X447001Y324833D01*
Y323500D01*
X447667Y322833D01*
X450333D01*
X450999Y326832D02*
Y329498D01*
X450333D01*
X447667Y326832D01*
X447001D01*
X365001Y317002D02*
X368999D01*
Y319002D01*
X368333Y319668D01*
X367000D01*
X366334Y319002D01*
Y317002D01*
Y318335D02*
X365001Y319668D01*
Y321001D02*
Y322334D01*
Y321667D01*
X368999D01*
X368333Y321001D01*
Y324333D02*
X368999Y325000D01*
Y326333D01*
X368333Y326999D01*
X365667D01*
X365001Y326333D01*
Y325000D01*
X365667Y324333D01*
X368333D01*
X368999Y330998D02*
X368333Y329665D01*
X367000Y328332D01*
X365667D01*
X365001Y328998D01*
Y330331D01*
X365667Y330998D01*
X366334D01*
X367000Y330331D01*
Y328332D01*
X303001Y316502D02*
X306999D01*
Y318502D01*
X306333Y319168D01*
X305000D01*
X304333Y318502D01*
Y316502D01*
Y317835D02*
X303001Y319168D01*
Y320501D02*
Y321834D01*
Y321167D01*
X306999D01*
X306333Y320501D01*
Y323833D02*
X306999Y324500D01*
Y325833D01*
X306333Y326499D01*
X303667D01*
X303001Y325833D01*
Y324500D01*
X303667Y323833D01*
X306333D01*
X306999Y330498D02*
Y327832D01*
X305000D01*
X305666Y329165D01*
Y329831D01*
X305000Y330498D01*
X303667D01*
X303001Y329831D01*
Y328498D01*
X303667Y327832D01*
X281001Y316502D02*
X284999D01*
Y318502D01*
X284333Y319168D01*
X283000D01*
X282333Y318502D01*
Y316502D01*
Y317835D02*
X281001Y319168D01*
Y320501D02*
Y321834D01*
Y321167D01*
X284999D01*
X284333Y320501D01*
Y323833D02*
X284999Y324500D01*
Y325833D01*
X284333Y326499D01*
X281667D01*
X281001Y325833D01*
Y324500D01*
X281667Y323833D01*
X284333D01*
X281001Y329831D02*
X284999D01*
X283000Y327832D01*
Y330498D01*
X498350Y314949D02*
X502348D01*
Y316948D01*
X501682Y317615D01*
X500349D01*
X499683Y316948D01*
Y314949D01*
Y316282D02*
X498350Y317615D01*
Y318948D02*
Y320281D01*
Y319614D01*
X502348D01*
X501682Y318948D01*
Y322280D02*
X502348Y322946D01*
Y324279D01*
X501682Y324946D01*
X499016D01*
X498350Y324279D01*
Y322946D01*
X499016Y322280D01*
X501682D01*
Y326278D02*
X502348Y326945D01*
Y328278D01*
X501682Y328944D01*
X501016D01*
X500349Y328278D01*
Y327611D01*
Y328278D01*
X499683Y328944D01*
X499016D01*
X498350Y328278D01*
Y326945D01*
X499016Y326278D01*
X190501Y316002D02*
X194499D01*
Y318002D01*
X193833Y318668D01*
X192500D01*
X191833Y318002D01*
Y316002D01*
Y317335D02*
X190501Y318668D01*
Y320001D02*
Y321334D01*
Y320667D01*
X194499D01*
X193833Y320001D01*
Y323333D02*
X194499Y324000D01*
Y325333D01*
X193833Y325999D01*
X191167D01*
X190501Y325333D01*
Y324000D01*
X191167Y323333D01*
X193833D01*
X190501Y329998D02*
Y327332D01*
X193166Y329998D01*
X193833D01*
X194499Y329331D01*
Y327998D01*
X193833Y327332D01*
X327001Y317669D02*
X330999D01*
Y319668D01*
X330333Y320335D01*
X329000D01*
X328334Y319668D01*
Y317669D01*
Y319002D02*
X327001Y320335D01*
Y321667D02*
Y323000D01*
Y322334D01*
X330999D01*
X330333Y321667D01*
Y325000D02*
X330999Y325666D01*
Y326999D01*
X330333Y327665D01*
X327667D01*
X327001Y326999D01*
Y325666D01*
X327667Y325000D01*
X330333D01*
X327001Y328998D02*
Y330331D01*
Y329665D01*
X330999D01*
X330333Y328998D01*
X175501Y316002D02*
X179499D01*
Y318002D01*
X178833Y318668D01*
X177500D01*
X176833Y318002D01*
Y316002D01*
Y317335D02*
X175501Y318668D01*
Y320001D02*
Y321334D01*
Y320667D01*
X179499D01*
X178833Y320001D01*
Y323333D02*
X179499Y324000D01*
Y325333D01*
X178833Y325999D01*
X176167D01*
X175501Y325333D01*
Y324000D01*
X176167Y323333D01*
X178833D01*
Y327332D02*
X179499Y327998D01*
Y329331D01*
X178833Y329998D01*
X176167D01*
X175501Y329331D01*
Y327998D01*
X176167Y327332D01*
X178833D01*
X160001Y318668D02*
X163999D01*
Y320668D01*
X163333Y321334D01*
X162000D01*
X161334Y320668D01*
Y318668D01*
Y320001D02*
X160001Y321334D01*
X160667Y322667D02*
X160001Y323334D01*
Y324666D01*
X160667Y325333D01*
X163333D01*
X163999Y324666D01*
Y323334D01*
X163333Y322667D01*
X162666D01*
X162000Y323334D01*
Y325333D01*
X160667Y326666D02*
X160001Y327332D01*
Y328665D01*
X160667Y329332D01*
X163333D01*
X163999Y328665D01*
Y327332D01*
X163333Y326666D01*
X162666D01*
X162000Y327332D01*
Y329332D01*
X73001Y319168D02*
X76999D01*
Y321168D01*
X76333Y321834D01*
X75000D01*
X74334Y321168D01*
Y319168D01*
Y320501D02*
X73001Y321834D01*
X73667Y323167D02*
X73001Y323833D01*
Y325166D01*
X73667Y325833D01*
X76333D01*
X76999Y325166D01*
Y323833D01*
X76333Y323167D01*
X75666D01*
X75000Y323833D01*
Y325833D01*
X73001Y329832D02*
Y327166D01*
X75666Y329832D01*
X76333D01*
X76999Y329165D01*
Y327832D01*
X76333Y327166D01*
X83001Y319168D02*
X86999D01*
Y321168D01*
X86333Y321834D01*
X85000D01*
X84333Y321168D01*
Y319168D01*
Y320501D02*
X83001Y321834D01*
X83667Y323167D02*
X83001Y323833D01*
Y325166D01*
X83667Y325833D01*
X86333D01*
X86999Y325166D01*
Y323833D01*
X86333Y323167D01*
X85666D01*
X85000Y323833D01*
Y325833D01*
X83001Y327166D02*
Y328499D01*
Y327832D01*
X86999D01*
X86333Y327166D01*
X93001Y319168D02*
X96999D01*
Y321168D01*
X96333Y321834D01*
X95000D01*
X94333Y321168D01*
Y319168D01*
Y320501D02*
X93001Y321834D01*
X93667Y323167D02*
X93001Y323833D01*
Y325166D01*
X93667Y325833D01*
X96333D01*
X96999Y325166D01*
Y323833D01*
X96333Y323167D01*
X95666D01*
X95000Y323833D01*
Y325833D01*
X96333Y327166D02*
X96999Y327832D01*
Y329165D01*
X96333Y329832D01*
X93667D01*
X93001Y329165D01*
Y327832D01*
X93667Y327166D01*
X96333D01*
X103001Y319168D02*
X106999D01*
Y321168D01*
X106333Y321834D01*
X105000D01*
X104333Y321168D01*
Y319168D01*
Y320501D02*
X103001Y321834D01*
X106333Y323167D02*
X106999Y323833D01*
Y325166D01*
X106333Y325833D01*
X105666D01*
X105000Y325166D01*
X104333Y325833D01*
X103667D01*
X103001Y325166D01*
Y323833D01*
X103667Y323167D01*
X104333D01*
X105000Y323833D01*
X105666Y323167D01*
X106333D01*
X105000Y323833D02*
Y325166D01*
X103667Y327166D02*
X103001Y327832D01*
Y329165D01*
X103667Y329832D01*
X106333D01*
X106999Y329165D01*
Y327832D01*
X106333Y327166D01*
X105666D01*
X105000Y327832D01*
Y329832D01*
X113001Y319168D02*
X116999D01*
Y321168D01*
X116333Y321834D01*
X115000D01*
X114333Y321168D01*
Y319168D01*
Y320501D02*
X113001Y321834D01*
X116333Y323167D02*
X116999Y323833D01*
Y325166D01*
X116333Y325833D01*
X115666D01*
X115000Y325166D01*
X114333Y325833D01*
X113667D01*
X113001Y325166D01*
Y323833D01*
X113667Y323167D01*
X114333D01*
X115000Y323833D01*
X115666Y323167D01*
X116333D01*
X115000Y323833D02*
Y325166D01*
X116333Y327166D02*
X116999Y327832D01*
Y329165D01*
X116333Y329832D01*
X115666D01*
X115000Y329165D01*
X114333Y329832D01*
X113667D01*
X113001Y329165D01*
Y327832D01*
X113667Y327166D01*
X114333D01*
X115000Y327832D01*
X115666Y327166D01*
X116333D01*
X115000Y327832D02*
Y329165D01*
X123001Y319168D02*
X126999D01*
Y321168D01*
X126333Y321834D01*
X125000D01*
X124334Y321168D01*
Y319168D01*
Y320501D02*
X123001Y321834D01*
X126333Y323167D02*
X126999Y323833D01*
Y325166D01*
X126333Y325833D01*
X125666D01*
X125000Y325166D01*
X124334Y325833D01*
X123667D01*
X123001Y325166D01*
Y323833D01*
X123667Y323167D01*
X124334D01*
X125000Y323833D01*
X125666Y323167D01*
X126333D01*
X125000Y323833D02*
Y325166D01*
X126999Y327166D02*
Y329832D01*
X126333D01*
X123667Y327166D01*
X123001D01*
X133001Y319168D02*
X136999D01*
Y321168D01*
X136333Y321834D01*
X135000D01*
X134334Y321168D01*
Y319168D01*
Y320501D02*
X133001Y321834D01*
X136333Y323167D02*
X136999Y323833D01*
Y325166D01*
X136333Y325833D01*
X135666D01*
X135000Y325166D01*
X134334Y325833D01*
X133667D01*
X133001Y325166D01*
Y323833D01*
X133667Y323167D01*
X134334D01*
X135000Y323833D01*
X135666Y323167D01*
X136333D01*
X135000Y323833D02*
Y325166D01*
X136999Y329832D02*
X136333Y328499D01*
X135000Y327166D01*
X133667D01*
X133001Y327832D01*
Y329165D01*
X133667Y329832D01*
X134334D01*
X135000Y329165D01*
Y327166D01*
X143001Y319168D02*
X146999D01*
Y321168D01*
X146333Y321834D01*
X145000D01*
X144334Y321168D01*
Y319168D01*
Y320501D02*
X143001Y321834D01*
X146333Y323167D02*
X146999Y323833D01*
Y325166D01*
X146333Y325833D01*
X145666D01*
X145000Y325166D01*
X144334Y325833D01*
X143667D01*
X143001Y325166D01*
Y323833D01*
X143667Y323167D01*
X144334D01*
X145000Y323833D01*
X145666Y323167D01*
X146333D01*
X145000Y323833D02*
Y325166D01*
X146999Y329832D02*
Y327166D01*
X145000D01*
X145666Y328499D01*
Y329165D01*
X145000Y329832D01*
X143667D01*
X143001Y329165D01*
Y327832D01*
X143667Y327166D01*
X520001Y319668D02*
X523999D01*
Y321668D01*
X523333Y322334D01*
X522000D01*
X521334Y321668D01*
Y319668D01*
Y321001D02*
X520001Y322334D01*
X523333Y323667D02*
X523999Y324334D01*
Y325666D01*
X523333Y326333D01*
X522666D01*
X522000Y325666D01*
X521334Y326333D01*
X520667D01*
X520001Y325666D01*
Y324334D01*
X520667Y323667D01*
X521334D01*
X522000Y324334D01*
X522666Y323667D01*
X523333D01*
X522000Y324334D02*
Y325666D01*
X520001Y329665D02*
X523999D01*
X522000Y327666D01*
Y330332D01*
X545001Y319668D02*
X548999D01*
Y321668D01*
X548333Y322334D01*
X547000D01*
X546334Y321668D01*
Y319668D01*
Y321001D02*
X545001Y322334D01*
X548333Y323667D02*
X548999Y324334D01*
Y325666D01*
X548333Y326333D01*
X547666D01*
X547000Y325666D01*
X546334Y326333D01*
X545667D01*
X545001Y325666D01*
Y324334D01*
X545667Y323667D01*
X546334D01*
X547000Y324334D01*
X547666Y323667D01*
X548333D01*
X547000Y324334D02*
Y325666D01*
X548333Y327666D02*
X548999Y328332D01*
Y329665D01*
X548333Y330332D01*
X547666D01*
X547000Y329665D01*
Y328999D01*
Y329665D01*
X546334Y330332D01*
X545667D01*
X545001Y329665D01*
Y328332D01*
X545667Y327666D01*
X385001Y319168D02*
X388999D01*
Y321168D01*
X388333Y321834D01*
X387000D01*
X386333Y321168D01*
Y319168D01*
Y320501D02*
X385001Y321834D01*
X388333Y323167D02*
X388999Y323833D01*
Y325166D01*
X388333Y325833D01*
X387666D01*
X387000Y325166D01*
X386333Y325833D01*
X385667D01*
X385001Y325166D01*
Y323833D01*
X385667Y323167D01*
X386333D01*
X387000Y323833D01*
X387666Y323167D01*
X388333D01*
X387000Y323833D02*
Y325166D01*
X385001Y329832D02*
Y327166D01*
X387666Y329832D01*
X388333D01*
X388999Y329165D01*
Y327832D01*
X388333Y327166D01*
X216001Y321335D02*
X219999D01*
Y323334D01*
X219333Y324001D01*
X218000D01*
X217334Y323334D01*
Y321335D01*
Y322668D02*
X216001Y324001D01*
X219333Y325334D02*
X219999Y326000D01*
Y327333D01*
X219333Y327999D01*
X218666D01*
X218000Y327333D01*
X217334Y327999D01*
X216667D01*
X216001Y327333D01*
Y326000D01*
X216667Y325334D01*
X217334D01*
X218000Y326000D01*
X218666Y325334D01*
X219333D01*
X218000Y326000D02*
Y327333D01*
X216001Y329332D02*
Y330665D01*
Y329999D01*
X219999D01*
X219333Y329332D01*
X203001Y320168D02*
X206999D01*
Y322168D01*
X206333Y322834D01*
X205000D01*
X204333Y322168D01*
Y320168D01*
Y321501D02*
X203001Y322834D01*
X206333Y324167D02*
X206999Y324833D01*
Y326166D01*
X206333Y326833D01*
X205666D01*
X205000Y326166D01*
X204333Y326833D01*
X203667D01*
X203001Y326166D01*
Y324833D01*
X203667Y324167D01*
X204333D01*
X205000Y324833D01*
X205666Y324167D01*
X206333D01*
X205000Y324833D02*
Y326166D01*
X206333Y328166D02*
X206999Y328832D01*
Y330165D01*
X206333Y330832D01*
X203667D01*
X203001Y330165D01*
Y328832D01*
X203667Y328166D01*
X206333D01*
X349001Y320168D02*
X352999D01*
Y322168D01*
X352333Y322834D01*
X351000D01*
X350334Y322168D01*
Y320168D01*
Y321501D02*
X349001Y322834D01*
X352999Y324167D02*
Y326833D01*
X352333D01*
X349667Y324167D01*
X349001D01*
X349667Y328166D02*
X349001Y328832D01*
Y330165D01*
X349667Y330832D01*
X352333D01*
X352999Y330165D01*
Y328832D01*
X352333Y328166D01*
X351666D01*
X351000Y328832D01*
Y330832D01*
X261001Y320168D02*
X264999D01*
Y322168D01*
X264333Y322834D01*
X263000D01*
X262333Y322168D01*
Y320168D01*
Y321501D02*
X261001Y322834D01*
X264999Y324167D02*
Y326833D01*
X264333D01*
X261667Y324167D01*
X261001D01*
X264333Y328166D02*
X264999Y328832D01*
Y330165D01*
X264333Y330832D01*
X263666D01*
X263000Y330165D01*
X262333Y330832D01*
X261667D01*
X261001Y330165D01*
Y328832D01*
X261667Y328166D01*
X262333D01*
X263000Y328832D01*
X263666Y328166D01*
X264333D01*
X263000Y328832D02*
Y330165D01*
X240001Y320168D02*
X243999D01*
Y322168D01*
X243333Y322834D01*
X242000D01*
X241334Y322168D01*
Y320168D01*
Y321501D02*
X240001Y322834D01*
X243999Y324167D02*
Y326833D01*
X243333D01*
X240667Y324167D01*
X240001D01*
X243999Y328166D02*
Y330832D01*
X243333D01*
X240667Y328166D01*
X240001D01*
X447666Y61333D02*
X448333Y61999D01*
X449666D01*
X450332Y61333D01*
Y58667D01*
X449666Y58001D01*
X448333D01*
X447666Y58667D01*
X446334D02*
X445667Y58001D01*
X444334D01*
X443668Y58667D01*
Y61333D01*
X444334Y61999D01*
X445667D01*
X446334Y61333D01*
Y60666D01*
X445667Y60000D01*
X443668D01*
X367666Y61333D02*
X368333Y61999D01*
X369666D01*
X370332Y61333D01*
Y58667D01*
X369666Y58001D01*
X368333D01*
X367666Y58667D01*
X366334Y61333D02*
X365667Y61999D01*
X364334D01*
X363668Y61333D01*
Y60666D01*
X364334Y60000D01*
X363668Y59334D01*
Y58667D01*
X364334Y58001D01*
X365667D01*
X366334Y58667D01*
Y59334D01*
X365667Y60000D01*
X366334Y60666D01*
Y61333D01*
X365667Y60000D02*
X364334D01*
X199667Y170333D02*
X200333Y170999D01*
X201666D01*
X202332Y170333D01*
Y167667D01*
X201666Y167001D01*
X200333D01*
X199667Y167667D01*
X198334Y170999D02*
X195668D01*
Y170333D01*
X198334Y167667D01*
Y167001D01*
X199667Y164333D02*
X200333Y164999D01*
X201666D01*
X202332Y164333D01*
Y161667D01*
X201666Y161001D01*
X200333D01*
X199667Y161667D01*
X195668Y164999D02*
X197001Y164333D01*
X198334Y163000D01*
Y161667D01*
X197667Y161001D01*
X196334D01*
X195668Y161667D01*
Y162334D01*
X196334Y163000D01*
X198334D01*
X199667Y157333D02*
X200333Y157999D01*
X201666D01*
X202332Y157333D01*
Y154667D01*
X201666Y154001D01*
X200333D01*
X199667Y154667D01*
X195668Y157999D02*
X198334D01*
Y156000D01*
X197001Y156667D01*
X196334D01*
X195668Y156000D01*
Y154667D01*
X196334Y154001D01*
X197667D01*
X198334Y154667D01*
X232816Y165333D02*
X233483Y165999D01*
X234815D01*
X235482Y165333D01*
Y162667D01*
X234815Y162001D01*
X233483D01*
X232816Y162667D01*
X229484Y162001D02*
Y165999D01*
X231483Y164000D01*
X228817D01*
X232666Y158333D02*
X233333Y158999D01*
X234666D01*
X235332Y158333D01*
Y155667D01*
X234666Y155001D01*
X233333D01*
X232666Y155667D01*
X231333Y158333D02*
X230667Y158999D01*
X229334D01*
X228668Y158333D01*
Y157667D01*
X229334Y157000D01*
X230001D01*
X229334D01*
X228668Y156333D01*
Y155667D01*
X229334Y155001D01*
X230667D01*
X231333Y155667D01*
X364666Y81333D02*
X365333Y81999D01*
X366666D01*
X367332Y81333D01*
Y78667D01*
X366666Y78001D01*
X365333D01*
X364666Y78667D01*
X360668Y78001D02*
X363334D01*
X360668Y80666D01*
Y81333D01*
X361334Y81999D01*
X362667D01*
X363334Y81333D01*
X443000Y80333D02*
X443666Y80999D01*
X444999D01*
X445666Y80333D01*
Y77667D01*
X444999Y77001D01*
X443666D01*
X443000Y77667D01*
X441667Y77001D02*
X440334D01*
X441001D01*
Y80999D01*
X441667Y80333D01*
D14*
X223300Y159500D02*
X227400D01*
Y154500D02*
Y159500D01*
X223200Y154500D02*
X227400D01*
X216600D02*
X220700D01*
X216600D02*
Y159500D01*
X220700D01*
X223300Y166500D02*
X227400D01*
Y161500D02*
Y166500D01*
X223200Y161500D02*
X227400D01*
X216600D02*
X220700D01*
X216600D02*
Y166500D01*
X220700D01*
X203600Y154500D02*
X207700D01*
X203600D02*
Y159500D01*
X207800D01*
X210300D02*
X214400D01*
Y154500D02*
Y159500D01*
X210300Y154500D02*
X214400D01*
X203600Y160500D02*
X207700D01*
X203600D02*
Y165500D01*
X207800D01*
X210300D02*
X214400D01*
Y160500D02*
Y165500D01*
X210300Y160500D02*
X214400D01*
X203600Y166500D02*
X207700D01*
X203600D02*
Y171500D01*
X207800D01*
X210300D02*
X214400D01*
Y166500D02*
Y171500D01*
X210300Y166500D02*
X214400D01*
X434300Y81500D02*
X438400D01*
Y76500D02*
Y81500D01*
X434200Y76500D02*
X438400D01*
X427600D02*
X431700D01*
X427600D02*
Y81500D01*
X431700D01*
X354300Y82500D02*
X358400D01*
Y77500D02*
Y82500D01*
X354200Y77500D02*
X358400D01*
X347600D02*
X351700D01*
X347600D02*
Y82500D01*
X351700D01*
X358300Y62500D02*
X362400D01*
Y57500D02*
Y62500D01*
X358200Y57500D02*
X362400D01*
X351600D02*
X355700D01*
X351600D02*
Y62500D01*
X355700D01*
X438300D02*
X442400D01*
Y57500D02*
Y62500D01*
X438200Y57500D02*
X442400D01*
X431600D02*
X435700D01*
X431600D02*
Y62500D01*
X435700D01*
X353500Y332100D02*
Y336200D01*
X348500Y332100D02*
X353500D01*
X348500D02*
Y336300D01*
Y338800D02*
Y342900D01*
X353500D01*
Y338800D02*
Y342900D01*
X549500Y332100D02*
Y336200D01*
X544500Y332100D02*
X549500D01*
X544500D02*
Y336300D01*
Y338800D02*
Y342900D01*
X549500D01*
Y338800D02*
Y342900D01*
X519500Y338800D02*
Y342900D01*
X524500D01*
Y338700D02*
Y342900D01*
Y332100D02*
Y336200D01*
X519500Y332100D02*
X524500D01*
X519500D02*
Y336200D01*
X389500Y332100D02*
Y336200D01*
X384500Y332100D02*
X389500D01*
X384500D02*
Y336300D01*
Y338800D02*
Y342900D01*
X389500D01*
Y338800D02*
Y342900D01*
X503000Y332100D02*
Y336200D01*
X498000Y332100D02*
X503000D01*
X498000D02*
Y336300D01*
Y338800D02*
Y342900D01*
X503000D01*
Y338800D02*
Y342900D01*
X331500Y332100D02*
Y336200D01*
X326500Y332100D02*
X331500D01*
X326500D02*
Y336300D01*
Y338800D02*
Y342900D01*
X331500D01*
Y338800D02*
Y342900D01*
X265500Y332100D02*
Y336200D01*
X260500Y332100D02*
X265500D01*
X260500D02*
Y336300D01*
Y338800D02*
Y342900D01*
X265500D01*
Y338800D02*
Y342900D01*
X244500Y332100D02*
Y336200D01*
X239500Y332100D02*
X244500D01*
X239500D02*
Y336300D01*
Y338800D02*
Y342900D01*
X244500D01*
Y338800D02*
Y342900D01*
X307500Y332100D02*
Y336200D01*
X302500Y332100D02*
X307500D01*
X302500D02*
Y336300D01*
Y338800D02*
Y342900D01*
X307500D01*
Y338800D02*
Y342900D01*
X285500Y332100D02*
Y336200D01*
X280500Y332100D02*
X285500D01*
X280500D02*
Y336300D01*
Y338800D02*
Y342900D01*
X285500D01*
Y338800D02*
Y342900D01*
X369500Y332600D02*
Y336700D01*
X364500Y332600D02*
X369500D01*
X364500D02*
Y336800D01*
Y339300D02*
Y343400D01*
X369500D01*
Y339300D02*
Y343400D01*
X488500Y332100D02*
Y336200D01*
X483500Y332100D02*
X488500D01*
X483500D02*
Y336300D01*
Y338800D02*
Y342900D01*
X488500D01*
Y338800D02*
Y342900D01*
X470500Y332100D02*
Y336200D01*
X465500Y332100D02*
X470500D01*
X465500D02*
Y336300D01*
Y338800D02*
Y342900D01*
X470500D01*
Y338800D02*
Y342900D01*
X452500Y332100D02*
Y336200D01*
X447500Y332100D02*
X452500D01*
X447500D02*
Y336300D01*
Y338800D02*
Y342900D01*
X452500D01*
Y338800D02*
Y342900D01*
X418500Y332100D02*
Y336200D01*
X413500Y332100D02*
X418500D01*
X413500D02*
Y336300D01*
Y338800D02*
Y342900D01*
X418500D01*
Y338800D02*
Y342900D01*
X432500Y332100D02*
Y336200D01*
X427500Y332100D02*
X432500D01*
X427500D02*
Y336300D01*
Y338800D02*
Y342900D01*
X432500D01*
Y338800D02*
Y342900D01*
X207500Y332100D02*
Y336200D01*
X202500Y332100D02*
X207500D01*
X202500D02*
Y336300D01*
Y338800D02*
Y342900D01*
X207500D01*
Y338800D02*
Y342900D01*
X220500Y332100D02*
Y336200D01*
X215500Y332100D02*
X220500D01*
X215500D02*
Y336300D01*
Y338800D02*
Y342900D01*
X220500D01*
Y338800D02*
Y342900D01*
X195000Y332100D02*
Y336200D01*
X190000Y332100D02*
X195000D01*
X190000D02*
Y336300D01*
Y338800D02*
Y342900D01*
X195000D01*
Y338800D02*
Y342900D01*
X175000Y338800D02*
Y342900D01*
X180000D01*
Y338700D02*
Y342900D01*
Y332100D02*
Y336200D01*
X175000Y332100D02*
X180000D01*
X175000D02*
Y336200D01*
X165000Y332100D02*
Y336200D01*
X160000Y332100D02*
X165000D01*
X160000D02*
Y336300D01*
Y338800D02*
Y342900D01*
X165000D01*
Y338800D02*
Y342900D01*
X127500Y332100D02*
Y336200D01*
X122500Y332100D02*
X127500D01*
X122500D02*
Y336300D01*
Y338800D02*
Y342900D01*
X127500D01*
Y338800D02*
Y342900D01*
X117500Y332100D02*
Y336200D01*
X112500Y332100D02*
X117500D01*
X112500D02*
Y336300D01*
Y338800D02*
Y342900D01*
X117500D01*
Y338800D02*
Y342900D01*
X107500Y332100D02*
Y336200D01*
X102500Y332100D02*
X107500D01*
X102500D02*
Y336300D01*
Y338800D02*
Y342900D01*
X107500D01*
Y338800D02*
Y342900D01*
X97500Y332100D02*
Y336200D01*
X92500Y332100D02*
X97500D01*
X92500D02*
Y336300D01*
Y338800D02*
Y342900D01*
X97500D01*
Y338800D02*
Y342900D01*
X147500Y332100D02*
Y336200D01*
X142500Y332100D02*
X147500D01*
X142500D02*
Y336300D01*
Y338800D02*
Y342900D01*
X147500D01*
Y338800D02*
Y342900D01*
X137500Y332100D02*
Y336200D01*
X132500Y332100D02*
X137500D01*
X132500D02*
Y336300D01*
Y338800D02*
Y342900D01*
X137500D01*
Y338800D02*
Y342900D01*
X87500Y332100D02*
Y336200D01*
X82500Y332100D02*
X87500D01*
X82500D02*
Y336300D01*
Y338800D02*
Y342900D01*
X87500D01*
Y338800D02*
Y342900D01*
X77500Y332100D02*
Y336200D01*
X72500Y332100D02*
X77500D01*
X72500D02*
Y336300D01*
Y338800D02*
Y342900D01*
X77500D01*
Y338800D02*
Y342900D01*
M02*
