G04*
G04 #@! TF.GenerationSoftware,Altium Limited,Altium Designer,22.3.1 (43)*
G04*
G04 Layer_Color=32896*
%FSLAX25Y25*%
%MOIN*%
G70*
G04*
G04 #@! TF.SameCoordinates,95171FB7-D515-428C-BD45-E7A15DE81ABC*
G04*
G04*
G04 #@! TF.FilePolarity,Positive*
G04*
G01*
G75*
%ADD12C,0.00394*%
%ADD61C,0.00197*%
D12*
X504055Y132331D02*
X562441D01*
X504055D02*
Y207433D01*
X562441D01*
Y132331D02*
Y207433D01*
X504055Y35331D02*
X562441D01*
X504055D02*
Y110433D01*
X562441D01*
Y35331D02*
Y110433D01*
D61*
X395047Y331791D02*
Y343209D01*
Y331791D02*
X400953D01*
Y343209D01*
X395047D02*
X400953D01*
X375953Y331791D02*
Y343209D01*
X370047D02*
X375953D01*
X370047Y331791D02*
Y343209D01*
Y331791D02*
X375953D01*
X312047D02*
Y343209D01*
Y331791D02*
X317953D01*
Y343209D01*
X312047D02*
X317953D01*
X342047Y331791D02*
Y343209D01*
Y331791D02*
X347953D01*
Y343209D01*
X342047D02*
X347953D01*
X246047Y331791D02*
Y343209D01*
Y331791D02*
X251953D01*
Y343209D01*
X246047D02*
X251953D01*
X275047Y331791D02*
Y343209D01*
Y331791D02*
X280953D01*
Y343209D01*
X275047D02*
X280953D01*
X216047Y331791D02*
Y343209D01*
Y331791D02*
X221953D01*
Y343209D01*
X216047D02*
X221953D01*
X205047Y331791D02*
Y343209D01*
Y331791D02*
X210953D01*
Y343209D01*
X205047D02*
X210953D01*
X160047Y331791D02*
Y343209D01*
Y331791D02*
X165953D01*
Y343209D01*
X160047D02*
X165953D01*
X180953Y331791D02*
Y343209D01*
X175047D02*
X180953D01*
X175047Y331791D02*
Y343209D01*
Y331791D02*
X180953D01*
X195953D02*
Y343209D01*
X190047D02*
X195953D01*
X190047Y331791D02*
Y343209D01*
Y331791D02*
X195953D01*
X132047D02*
Y343209D01*
Y331791D02*
X137953D01*
Y343209D01*
X132047D02*
X137953D01*
X142047Y331791D02*
Y343209D01*
Y331791D02*
X147953D01*
Y343209D01*
X142047D02*
X147953D01*
X122047Y331791D02*
Y343209D01*
Y331791D02*
X127953D01*
Y343209D01*
X122047D02*
X127953D01*
X92047Y331791D02*
Y343209D01*
Y331791D02*
X97953D01*
Y343209D01*
X92047D02*
X97953D01*
X82047Y331791D02*
Y343209D01*
Y331791D02*
X87953D01*
Y343209D01*
X82047D02*
X87953D01*
X72047Y331791D02*
Y343209D01*
Y331791D02*
X77953D01*
Y343209D01*
X72047D02*
X77953D01*
X102047Y331791D02*
Y343209D01*
Y331791D02*
X107953D01*
Y343209D01*
X102047D02*
X107953D01*
X112047Y331791D02*
Y343209D01*
Y331791D02*
X117953D01*
Y343209D01*
X112047D02*
X117953D01*
X375791Y211953D02*
X387209D01*
Y206047D02*
Y211953D01*
X375791Y206047D02*
X387209D01*
X375791D02*
Y211953D01*
X207441Y177953D02*
X218858D01*
X207441Y172047D02*
Y177953D01*
Y172047D02*
X218858D01*
Y177953D01*
X218441Y166047D02*
X229858D01*
Y171953D01*
X218441D02*
X229858D01*
X218441Y166047D02*
Y171953D01*
X207441D02*
X218858D01*
X207441Y166047D02*
Y171953D01*
Y166047D02*
X218858D01*
Y171953D01*
X218441Y172047D02*
X229858D01*
Y177953D01*
X218441D02*
X229858D01*
X218441Y172047D02*
Y177953D01*
X207441Y165953D02*
X218858D01*
X207441Y160047D02*
Y165953D01*
Y160047D02*
X218858D01*
Y165953D01*
X218441Y160047D02*
X229858D01*
Y165953D01*
X218441D02*
X229858D01*
X218441Y160047D02*
Y165953D01*
X96496Y265748D02*
X133504D01*
Y234252D02*
Y265748D01*
X96496Y234252D02*
X133504D01*
X96496D02*
Y265748D01*
X234547Y261024D02*
X265453D01*
Y238976D02*
Y261024D01*
X234547Y238976D02*
X265453D01*
X234547D02*
Y261024D01*
X207291Y263953D02*
X218709D01*
Y258047D02*
Y263953D01*
X207291Y258047D02*
X218709D01*
X207291D02*
Y263953D01*
Y255953D02*
X218709D01*
Y250047D02*
Y255953D01*
X207291Y250047D02*
X218709D01*
X207291D02*
Y255953D01*
Y247953D02*
X218709D01*
Y242047D02*
Y247953D01*
X207291Y242047D02*
X218709D01*
X207291D02*
Y247953D01*
X283291Y240047D02*
X294709D01*
X283291D02*
Y245953D01*
X294709D01*
Y240047D02*
Y245953D01*
X282791Y249547D02*
X294209D01*
X282791D02*
Y255453D01*
X294209D01*
Y249547D02*
Y255453D01*
X160047Y294291D02*
Y305709D01*
X165953D01*
Y294291D02*
Y305709D01*
X160047Y294291D02*
X165953D01*
X175047D02*
Y305709D01*
X180953D01*
Y294291D02*
Y305709D01*
X175047Y294291D02*
X180953D01*
X190047D02*
Y305709D01*
X195953D01*
Y294291D02*
Y305709D01*
X190047Y294291D02*
X195953D01*
X375791Y221953D02*
X387209D01*
Y216047D02*
Y221953D01*
X375791Y216047D02*
X387209D01*
X375791D02*
Y221953D01*
X64291Y187047D02*
X75709D01*
X64291D02*
Y192953D01*
X75709D01*
Y187047D02*
Y192953D01*
X375791Y186047D02*
X387209D01*
X375791D02*
Y191953D01*
X387209D01*
Y186047D02*
Y191953D01*
X64291Y177047D02*
X75709D01*
X64291D02*
Y182953D01*
X75709D01*
Y177047D02*
Y182953D01*
X375791Y201953D02*
X387209D01*
Y196047D02*
Y201953D01*
X375791Y196047D02*
X387209D01*
X375791D02*
Y201953D01*
X104291Y167953D02*
X115709D01*
Y162047D02*
Y167953D01*
X104291Y162047D02*
X115709D01*
X104291D02*
Y167953D01*
X64291Y167047D02*
X75709D01*
X64291D02*
Y172953D01*
X75709D01*
Y167047D02*
Y172953D01*
X104291Y157953D02*
X115709D01*
Y152047D02*
Y157953D01*
X104291Y152047D02*
X115709D01*
X104291D02*
Y157953D01*
X64291Y157047D02*
X75709D01*
X64291D02*
Y162953D01*
X75709D01*
Y157047D02*
Y162953D01*
X104291Y147953D02*
X115709D01*
Y142047D02*
Y147953D01*
X104291Y142047D02*
X115709D01*
X104291D02*
Y147953D01*
X64291Y147047D02*
X75709D01*
X64291D02*
Y152953D01*
X75709D01*
Y147047D02*
Y152953D01*
X104291Y137953D02*
X115709D01*
Y132047D02*
Y137953D01*
X104291Y132047D02*
X115709D01*
X104291D02*
Y137953D01*
X64291Y137047D02*
X75709D01*
X64291D02*
Y142953D01*
X75709D01*
Y137047D02*
Y142953D01*
X64291Y127047D02*
X75709D01*
X64291D02*
Y132953D01*
X75709D01*
Y127047D02*
Y132953D01*
X224047Y196291D02*
Y207709D01*
X229953D01*
Y196291D02*
Y207709D01*
X224047Y196291D02*
X229953D01*
X217953D02*
Y207709D01*
X212047Y196291D02*
X217953D01*
X212047D02*
Y207709D01*
X217953D01*
X64291Y117047D02*
X75709D01*
X64291D02*
Y122953D01*
X75709D01*
Y117047D02*
Y122953D01*
X230047Y196291D02*
Y207709D01*
X235953D01*
Y196291D02*
Y207709D01*
X230047Y196291D02*
X235953D01*
X211953D02*
Y207709D01*
X206047Y196291D02*
X211953D01*
X206047D02*
Y207709D01*
X211953D01*
X236047Y196291D02*
Y207709D01*
X241953D01*
Y196291D02*
Y207709D01*
X236047Y196291D02*
X241953D01*
X205953D02*
Y207709D01*
X200047Y196291D02*
X205953D01*
X200047D02*
Y207709D01*
X205953D01*
X253291Y183953D02*
X264709D01*
Y178047D02*
Y183953D01*
X253291Y178047D02*
X264709D01*
X253291D02*
Y183953D01*
X171791Y188953D02*
X183209D01*
Y183047D02*
Y188953D01*
X171791Y183047D02*
X183209D01*
X171791D02*
Y188953D01*
X253291Y177953D02*
X264709D01*
Y172047D02*
Y177953D01*
X253291Y172047D02*
X264709D01*
X253291D02*
Y177953D01*
X171791Y182953D02*
X183209D01*
Y177047D02*
Y182953D01*
X171791Y177047D02*
X183209D01*
X171791D02*
Y182953D01*
X253291Y171953D02*
X264709D01*
Y166047D02*
Y171953D01*
X253291Y166047D02*
X264709D01*
X253291D02*
Y171953D01*
X171791Y176953D02*
X183209D01*
Y171047D02*
Y176953D01*
X171791Y171047D02*
X183209D01*
X171791D02*
Y176953D01*
X253291Y165953D02*
X264709D01*
Y160047D02*
Y165953D01*
X253291Y160047D02*
X264709D01*
X253291D02*
Y165953D01*
X171791Y170953D02*
X183209D01*
Y165047D02*
Y170953D01*
X171791Y165047D02*
X183209D01*
X171791D02*
Y170953D01*
X253291Y159953D02*
X264709D01*
Y154047D02*
Y159953D01*
X253291Y154047D02*
X264709D01*
X253291D02*
Y159953D01*
X171791Y164953D02*
X183209D01*
Y159047D02*
Y164953D01*
X171791Y159047D02*
X183209D01*
X171791D02*
Y164953D01*
X488047Y189291D02*
Y200709D01*
X493953D01*
Y189291D02*
Y200709D01*
X488047Y189291D02*
X493953D01*
X481047D02*
Y200709D01*
X486953D01*
Y189291D02*
Y200709D01*
X481047Y189291D02*
X486953D01*
X253291Y153953D02*
X264709D01*
Y148047D02*
Y153953D01*
X253291Y148047D02*
X264709D01*
X253291D02*
Y153953D01*
X244953Y115291D02*
Y126709D01*
X239047Y115291D02*
X244953D01*
X239047D02*
Y126709D01*
X244953D01*
X171791Y158953D02*
X183209D01*
Y153047D02*
Y158953D01*
X171791Y153047D02*
X183209D01*
X171791D02*
Y158953D01*
X238953Y115291D02*
Y126709D01*
X233047Y115291D02*
X238953D01*
X233047D02*
Y126709D01*
X238953D01*
X171791Y152953D02*
X183209D01*
Y147047D02*
Y152953D01*
X171791Y147047D02*
X183209D01*
X171791D02*
Y152953D01*
X232953Y115291D02*
Y126709D01*
X227047Y115291D02*
X232953D01*
X227047D02*
Y126709D01*
X232953D01*
X171791Y146953D02*
X183209D01*
Y141047D02*
Y146953D01*
X171791Y141047D02*
X183209D01*
X171791D02*
Y146953D01*
X226953Y115291D02*
Y126709D01*
X221047Y115291D02*
X226953D01*
X221047D02*
Y126709D01*
X226953D01*
X203047Y115291D02*
Y126709D01*
X208953D01*
Y115291D02*
Y126709D01*
X203047Y115291D02*
X208953D01*
X482291Y177953D02*
X493709D01*
Y172047D02*
Y177953D01*
X482291Y172047D02*
X493709D01*
X482291D02*
Y177953D01*
X220953Y115291D02*
Y126709D01*
X215047Y115291D02*
X220953D01*
X215047D02*
Y126709D01*
X220953D01*
X482291Y185953D02*
X493709D01*
Y180047D02*
Y185953D01*
X482291Y180047D02*
X493709D01*
X482291D02*
Y185953D01*
X214953Y115291D02*
Y126709D01*
X209047Y115291D02*
X214953D01*
X209047D02*
Y126709D01*
X214953D01*
X483047Y91291D02*
Y102709D01*
X488953D01*
Y91291D02*
Y102709D01*
X483047Y91291D02*
X488953D01*
X476047D02*
Y102709D01*
X481953D01*
Y91291D02*
Y102709D01*
X476047Y91291D02*
X481953D01*
X476291Y80953D02*
X487709D01*
Y75047D02*
Y80953D01*
X476291Y75047D02*
X487709D01*
X476291D02*
Y80953D01*
Y88953D02*
X487709D01*
Y83047D02*
Y88953D01*
X476291Y83047D02*
X487709D01*
X476291D02*
Y88953D01*
M02*
