G04*
G04 #@! TF.GenerationSoftware,Altium Limited,Altium Designer,22.3.1 (43)*
G04*
G04 Layer_Color=32768*
%FSLAX25Y25*%
%MOIN*%
G70*
G04*
G04 #@! TF.SameCoordinates,95171FB7-D515-428C-BD45-E7A15DE81ABC*
G04*
G04*
G04 #@! TF.FilePolarity,Positive*
G04*
G01*
G75*
%ADD12C,0.00394*%
%ADD14C,0.00787*%
%ADD61C,0.00197*%
D12*
X396425Y334350D02*
Y340650D01*
Y334350D02*
X399575D01*
Y340650D01*
X396425D02*
X399575D01*
X374575Y334350D02*
Y340650D01*
X371425D02*
X374575D01*
X371425Y334350D02*
Y340650D01*
Y334350D02*
X374575D01*
X313425D02*
Y340650D01*
Y334350D02*
X316575D01*
Y340650D01*
X313425D02*
X316575D01*
X343425Y334350D02*
Y340650D01*
Y334350D02*
X346575D01*
Y340650D01*
X343425D02*
X346575D01*
X247425Y334350D02*
Y340650D01*
Y334350D02*
X250575D01*
Y340650D01*
X247425D02*
X250575D01*
X276425Y334350D02*
Y340650D01*
Y334350D02*
X279575D01*
Y340650D01*
X276425D02*
X279575D01*
X217425Y334350D02*
Y340650D01*
Y334350D02*
X220575D01*
Y340650D01*
X217425D02*
X220575D01*
X206425Y334350D02*
Y340650D01*
Y334350D02*
X209575D01*
Y340650D01*
X206425D02*
X209575D01*
X161425Y334350D02*
Y340650D01*
Y334350D02*
X164575D01*
Y340650D01*
X161425D02*
X164575D01*
X179575Y334350D02*
Y340650D01*
X176425D02*
X179575D01*
X176425Y334350D02*
Y340650D01*
Y334350D02*
X179575D01*
X194575D02*
Y340650D01*
X191425D02*
X194575D01*
X191425Y334350D02*
Y340650D01*
Y334350D02*
X194575D01*
X133425D02*
Y340650D01*
Y334350D02*
X136575D01*
Y340650D01*
X133425D02*
X136575D01*
X143425Y334350D02*
Y340650D01*
Y334350D02*
X146575D01*
Y340650D01*
X143425D02*
X146575D01*
X123425Y334350D02*
Y340650D01*
Y334350D02*
X126575D01*
Y340650D01*
X123425D02*
X126575D01*
X93425Y334350D02*
Y340650D01*
Y334350D02*
X96575D01*
Y340650D01*
X93425D02*
X96575D01*
X83425Y334350D02*
Y340650D01*
Y334350D02*
X86575D01*
Y340650D01*
X83425D02*
X86575D01*
X73425Y334350D02*
Y340650D01*
Y334350D02*
X76575D01*
Y340650D01*
X73425D02*
X76575D01*
X103425Y334350D02*
Y340650D01*
Y334350D02*
X106575D01*
Y340650D01*
X103425D02*
X106575D01*
X113425Y334350D02*
Y340650D01*
Y334350D02*
X116575D01*
Y340650D01*
X113425D02*
X116575D01*
X378350Y210575D02*
X384650D01*
Y207425D02*
Y210575D01*
X378350Y207425D02*
X384650D01*
X378350D02*
Y210575D01*
X210000Y176575D02*
X216299D01*
X210000Y173425D02*
Y176575D01*
Y173425D02*
X216299D01*
Y176575D01*
X221000Y167425D02*
X227299D01*
Y170575D01*
X221000D02*
X227299D01*
X221000Y167425D02*
Y170575D01*
X210000D02*
X216299D01*
X210000Y167425D02*
Y170575D01*
Y167425D02*
X216299D01*
Y170575D01*
X221000Y173425D02*
X227299D01*
Y176575D01*
X221000D02*
X227299D01*
X221000Y173425D02*
Y176575D01*
X210000Y164575D02*
X216299D01*
X210000Y161425D02*
Y164575D01*
Y161425D02*
X216299D01*
Y164575D01*
X221000Y161425D02*
X227299D01*
Y164575D01*
X221000D02*
X227299D01*
X221000Y161425D02*
Y164575D01*
X104567Y264173D02*
X125433D01*
Y235827D02*
Y264173D01*
X104567Y235827D02*
X125433D01*
X104567D02*
Y264173D01*
Y261614D02*
X107126Y264173D01*
X241339Y259842D02*
X258661D01*
Y240158D02*
Y259842D01*
X241339Y240158D02*
X258661D01*
X241339D02*
Y259842D01*
Y257283D02*
X243898Y259842D01*
X209850Y262575D02*
X216150D01*
Y259425D02*
Y262575D01*
X209850Y259425D02*
X216150D01*
X209850D02*
Y262575D01*
Y254575D02*
X216150D01*
Y251425D02*
Y254575D01*
X209850Y251425D02*
X216150D01*
X209850D02*
Y254575D01*
Y246575D02*
X216150D01*
Y243425D02*
Y246575D01*
X209850Y243425D02*
X216150D01*
X209850D02*
Y246575D01*
X285850Y241425D02*
X292150D01*
X285850D02*
Y244575D01*
X292150D01*
Y241425D02*
Y244575D01*
X285350Y250925D02*
X291650D01*
X285350D02*
Y254075D01*
X291650D01*
Y250925D02*
Y254075D01*
X161425Y296850D02*
Y303150D01*
X164575D01*
Y296850D02*
Y303150D01*
X161425Y296850D02*
X164575D01*
X176425D02*
Y303150D01*
X179575D01*
Y296850D02*
Y303150D01*
X176425Y296850D02*
X179575D01*
X191425D02*
Y303150D01*
X194575D01*
Y296850D02*
Y303150D01*
X191425Y296850D02*
X194575D01*
X378350Y220575D02*
X384650D01*
Y217425D02*
Y220575D01*
X378350Y217425D02*
X384650D01*
X378350D02*
Y220575D01*
X66850Y188425D02*
X73150D01*
X66850D02*
Y191575D01*
X73150D01*
Y188425D02*
Y191575D01*
X378350Y187425D02*
X384650D01*
X378350D02*
Y190575D01*
X384650D01*
Y187425D02*
Y190575D01*
X66850Y178425D02*
X73150D01*
X66850D02*
Y181575D01*
X73150D01*
Y178425D02*
Y181575D01*
X378350Y200575D02*
X384650D01*
Y197425D02*
Y200575D01*
X378350Y197425D02*
X384650D01*
X378350D02*
Y200575D01*
X106850Y166575D02*
X113150D01*
Y163425D02*
Y166575D01*
X106850Y163425D02*
X113150D01*
X106850D02*
Y166575D01*
X66850Y168425D02*
X73150D01*
X66850D02*
Y171575D01*
X73150D01*
Y168425D02*
Y171575D01*
X106850Y156575D02*
X113150D01*
Y153425D02*
Y156575D01*
X106850Y153425D02*
X113150D01*
X106850D02*
Y156575D01*
X66850Y158425D02*
X73150D01*
X66850D02*
Y161575D01*
X73150D01*
Y158425D02*
Y161575D01*
X106850Y146575D02*
X113150D01*
Y143425D02*
Y146575D01*
X106850Y143425D02*
X113150D01*
X106850D02*
Y146575D01*
X66850Y148425D02*
X73150D01*
X66850D02*
Y151575D01*
X73150D01*
Y148425D02*
Y151575D01*
X106850Y136575D02*
X113150D01*
Y133425D02*
Y136575D01*
X106850Y133425D02*
X113150D01*
X106850D02*
Y136575D01*
X66850Y138425D02*
X73150D01*
X66850D02*
Y141575D01*
X73150D01*
Y138425D02*
Y141575D01*
X66850Y128425D02*
X73150D01*
X66850D02*
Y131575D01*
X73150D01*
Y128425D02*
Y131575D01*
X225425Y198850D02*
Y205150D01*
X228575D01*
Y198850D02*
Y205150D01*
X225425Y198850D02*
X228575D01*
X216575D02*
Y205150D01*
X213425Y198850D02*
X216575D01*
X213425D02*
Y205150D01*
X216575D01*
X66850Y118425D02*
X73150D01*
X66850D02*
Y121575D01*
X73150D01*
Y118425D02*
Y121575D01*
X231425Y198850D02*
Y205150D01*
X234575D01*
Y198850D02*
Y205150D01*
X231425Y198850D02*
X234575D01*
X210575D02*
Y205150D01*
X207425Y198850D02*
X210575D01*
X207425D02*
Y205150D01*
X210575D01*
X237425Y198850D02*
Y205150D01*
X240575D01*
Y198850D02*
Y205150D01*
X237425Y198850D02*
X240575D01*
X204575D02*
Y205150D01*
X201425Y198850D02*
X204575D01*
X201425D02*
Y205150D01*
X204575D01*
X255850Y182575D02*
X262150D01*
Y179425D02*
Y182575D01*
X255850Y179425D02*
X262150D01*
X255850D02*
Y182575D01*
X174350Y187575D02*
X180650D01*
Y184425D02*
Y187575D01*
X174350Y184425D02*
X180650D01*
X174350D02*
Y187575D01*
X255850Y176575D02*
X262150D01*
Y173425D02*
Y176575D01*
X255850Y173425D02*
X262150D01*
X255850D02*
Y176575D01*
X174350Y181575D02*
X180650D01*
Y178425D02*
Y181575D01*
X174350Y178425D02*
X180650D01*
X174350D02*
Y181575D01*
X255850Y170575D02*
X262150D01*
Y167425D02*
Y170575D01*
X255850Y167425D02*
X262150D01*
X255850D02*
Y170575D01*
X174350Y175575D02*
X180650D01*
Y172425D02*
Y175575D01*
X174350Y172425D02*
X180650D01*
X174350D02*
Y175575D01*
X255850Y164575D02*
X262150D01*
Y161425D02*
Y164575D01*
X255850Y161425D02*
X262150D01*
X255850D02*
Y164575D01*
X174350Y169575D02*
X180650D01*
Y166425D02*
Y169575D01*
X174350Y166425D02*
X180650D01*
X174350D02*
Y169575D01*
X255850Y158575D02*
X262150D01*
Y155425D02*
Y158575D01*
X255850Y155425D02*
X262150D01*
X255850D02*
Y158575D01*
X174350Y163575D02*
X180650D01*
Y160425D02*
Y163575D01*
X174350Y160425D02*
X180650D01*
X174350D02*
Y163575D01*
X489425Y191850D02*
Y198150D01*
X492575D01*
Y191850D02*
Y198150D01*
X489425Y191850D02*
X492575D01*
X482425D02*
Y198150D01*
X485575D01*
Y191850D02*
Y198150D01*
X482425Y191850D02*
X485575D01*
X255850Y152575D02*
X262150D01*
Y149425D02*
Y152575D01*
X255850Y149425D02*
X262150D01*
X255850D02*
Y152575D01*
X243575Y117850D02*
Y124150D01*
X240425Y117850D02*
X243575D01*
X240425D02*
Y124150D01*
X243575D01*
X174350Y157575D02*
X180650D01*
Y154425D02*
Y157575D01*
X174350Y154425D02*
X180650D01*
X174350D02*
Y157575D01*
X237575Y117850D02*
Y124150D01*
X234425Y117850D02*
X237575D01*
X234425D02*
Y124150D01*
X237575D01*
X174350Y151575D02*
X180650D01*
Y148425D02*
Y151575D01*
X174350Y148425D02*
X180650D01*
X174350D02*
Y151575D01*
X231575Y117850D02*
Y124150D01*
X228425Y117850D02*
X231575D01*
X228425D02*
Y124150D01*
X231575D01*
X174350Y145575D02*
X180650D01*
Y142425D02*
Y145575D01*
X174350Y142425D02*
X180650D01*
X174350D02*
Y145575D01*
X225575Y117850D02*
Y124150D01*
X222425Y117850D02*
X225575D01*
X222425D02*
Y124150D01*
X225575D01*
X204425Y117850D02*
Y124150D01*
X207575D01*
Y117850D02*
Y124150D01*
X204425Y117850D02*
X207575D01*
X484850Y176575D02*
X491150D01*
Y173425D02*
Y176575D01*
X484850Y173425D02*
X491150D01*
X484850D02*
Y176575D01*
X219575Y117850D02*
Y124150D01*
X216425Y117850D02*
X219575D01*
X216425D02*
Y124150D01*
X219575D01*
X484850Y184575D02*
X491150D01*
Y181425D02*
Y184575D01*
X484850Y181425D02*
X491150D01*
X484850D02*
Y184575D01*
X213575Y117850D02*
Y124150D01*
X210425Y117850D02*
X213575D01*
X210425D02*
Y124150D01*
X213575D01*
X484425Y93850D02*
Y100150D01*
X487575D01*
Y93850D02*
Y100150D01*
X484425Y93850D02*
X487575D01*
X477425D02*
Y100150D01*
X480575D01*
Y93850D02*
Y100150D01*
X477425Y93850D02*
X480575D01*
X478850Y79575D02*
X485150D01*
Y76425D02*
Y79575D01*
X478850Y76425D02*
X485150D01*
X478850D02*
Y79575D01*
Y87575D02*
X485150D01*
Y84425D02*
Y87575D01*
X478850Y84425D02*
X485150D01*
X478850D02*
Y87575D01*
D14*
X507992Y142323D02*
X558504D01*
Y197441D01*
X507992D02*
X558504D01*
X507992Y142323D02*
Y197441D01*
Y45323D02*
X558504D01*
Y100441D01*
X507992D02*
X558504D01*
X507992Y45323D02*
Y100441D01*
D61*
X198929Y143429D02*
Y184571D01*
Y143429D02*
X240071D01*
Y184571D01*
X198929D02*
X240071D01*
M02*
