G04*
G04 #@! TF.GenerationSoftware,Altium Limited,Altium Designer,22.3.1 (43)*
G04*
G04 Layer_Color=12632256*
%FSLAX25Y25*%
%MOIN*%
G70*
G04*
G04 #@! TF.SameCoordinates,95171FB7-D515-428C-BD45-E7A15DE81ABC*
G04*
G04*
G04 #@! TF.FilePolarity,Positive*
G04*
G01*
G75*
%ADD40C,0.20000*%
%ADD41R,0.05906X0.05906*%
%ADD42C,0.13996*%
%ADD43C,0.05941*%
%ADD44R,0.05941X0.05941*%
%ADD45C,0.05906*%
%ADD46R,0.05906X0.05906*%
%ADD47C,0.06000*%
%ADD48R,0.06000X0.06000*%
D40*
X20000Y380000D02*
D03*
X540000D02*
D03*
X20000Y20000D02*
D03*
X540000D02*
D03*
D41*
X35000Y59000D02*
D03*
X18000Y79000D02*
D03*
Y59000D02*
D03*
X35000Y79000D02*
D03*
X484000Y30000D02*
D03*
X485000Y50000D02*
D03*
X470000Y30000D02*
D03*
Y50000D02*
D03*
X356000Y189000D02*
D03*
Y229000D02*
D03*
X385000Y310000D02*
D03*
X356000Y209000D02*
D03*
X315000Y115000D02*
D03*
X330000D02*
D03*
X345000D02*
D03*
X360000D02*
D03*
X375000D02*
D03*
X390000D02*
D03*
X405000D02*
D03*
X420000D02*
D03*
X435000D02*
D03*
X450000D02*
D03*
D42*
X536811Y196496D02*
D03*
Y143268D02*
D03*
X540000Y169882D02*
D03*
X536811Y99496D02*
D03*
Y46268D02*
D03*
X540000Y72882D02*
D03*
D43*
X515197Y156693D02*
D03*
Y183071D02*
D03*
X525000Y156693D02*
D03*
Y183071D02*
D03*
Y164764D02*
D03*
X515197Y59693D02*
D03*
Y86071D02*
D03*
X525000Y59693D02*
D03*
Y86071D02*
D03*
Y67764D02*
D03*
D44*
Y175000D02*
D03*
Y78000D02*
D03*
D45*
X411500Y199000D02*
D03*
X401500D02*
D03*
X411500Y209000D02*
D03*
X401500D02*
D03*
X411500Y219000D02*
D03*
D46*
X401500D02*
D03*
D47*
X30000Y120000D02*
D03*
Y130000D02*
D03*
Y140000D02*
D03*
Y150000D02*
D03*
Y160000D02*
D03*
Y170000D02*
D03*
Y180000D02*
D03*
X20000Y120000D02*
D03*
Y130000D02*
D03*
Y140000D02*
D03*
Y150000D02*
D03*
Y160000D02*
D03*
Y170000D02*
D03*
X30000Y190000D02*
D03*
X20000Y180000D02*
D03*
D48*
Y190000D02*
D03*
M02*
