G04*
G04 #@! TF.GenerationSoftware,Altium Limited,Altium Designer,22.3.1 (43)*
G04*
G04 Layer_Color=255*
%FSLAX25Y25*%
%MOIN*%
G70*
G04*
G04 #@! TF.SameCoordinates,95171FB7-D515-428C-BD45-E7A15DE81ABC*
G04*
G04*
G04 #@! TF.FilePolarity,Positive*
G04*
G01*
G75*
%ADD16R,0.03150X0.03150*%
%ADD17R,0.03150X0.03740*%
%ADD18R,0.07087X0.01772*%
%ADD19R,0.05807X0.01772*%
%ADD20R,0.03740X0.03150*%
%ADD21R,0.02362X0.05807*%
%ADD22R,0.05807X0.02362*%
%ADD40C,0.20000*%
%ADD41R,0.05906X0.05906*%
%ADD42C,0.13996*%
%ADD43C,0.05941*%
%ADD44R,0.05941X0.05941*%
%ADD45C,0.05906*%
%ADD46R,0.05906X0.05906*%
%ADD47C,0.06000*%
%ADD48R,0.06000X0.06000*%
D16*
X315000Y334350D02*
D03*
Y340650D02*
D03*
X219000Y334350D02*
D03*
Y340650D02*
D03*
X208000Y334350D02*
D03*
Y340650D02*
D03*
X345000Y334350D02*
D03*
Y340650D02*
D03*
X249000Y334350D02*
D03*
Y340650D02*
D03*
X278000Y334350D02*
D03*
Y340650D02*
D03*
X373000Y334350D02*
D03*
Y340650D02*
D03*
X398000Y334350D02*
D03*
Y340650D02*
D03*
X75000Y334350D02*
D03*
Y340650D02*
D03*
X85000Y334350D02*
D03*
Y340650D02*
D03*
X95000Y334350D02*
D03*
Y340650D02*
D03*
X105000Y334350D02*
D03*
Y340650D02*
D03*
X115000Y334350D02*
D03*
Y340650D02*
D03*
X125000Y334350D02*
D03*
Y340650D02*
D03*
X135000Y334350D02*
D03*
Y340650D02*
D03*
X145000Y334350D02*
D03*
Y340650D02*
D03*
X193000Y334350D02*
D03*
Y340650D02*
D03*
X178000Y334350D02*
D03*
Y340650D02*
D03*
X163000Y334350D02*
D03*
Y340650D02*
D03*
D17*
X378350Y209000D02*
D03*
X384650D02*
D03*
X209850Y261000D02*
D03*
X216150D02*
D03*
X209850Y253000D02*
D03*
X216150D02*
D03*
X209850Y245000D02*
D03*
X216150D02*
D03*
X292150Y243000D02*
D03*
X285850D02*
D03*
X291650Y252500D02*
D03*
X285350D02*
D03*
X378350Y219000D02*
D03*
X384650D02*
D03*
X73150Y190000D02*
D03*
X66850D02*
D03*
X384650Y189000D02*
D03*
X378350D02*
D03*
X73150Y180000D02*
D03*
X66850D02*
D03*
X378350Y199000D02*
D03*
X384650D02*
D03*
X106850Y165000D02*
D03*
X113150D02*
D03*
X73150Y170000D02*
D03*
X66850D02*
D03*
X106850Y155000D02*
D03*
X113150D02*
D03*
X73150Y160000D02*
D03*
X66850D02*
D03*
X106850Y145000D02*
D03*
X113150D02*
D03*
X73150Y150000D02*
D03*
X66850D02*
D03*
X106850Y135000D02*
D03*
X113150D02*
D03*
X73150Y140000D02*
D03*
X66850D02*
D03*
X73150Y130000D02*
D03*
X66850D02*
D03*
X73150Y120000D02*
D03*
X66850D02*
D03*
X255850Y181000D02*
D03*
X262150D02*
D03*
X174350Y186000D02*
D03*
X180650D02*
D03*
X255850Y175000D02*
D03*
X262150D02*
D03*
X174350Y180000D02*
D03*
X180650D02*
D03*
X255850Y169000D02*
D03*
X262150D02*
D03*
X174350Y174000D02*
D03*
X180650D02*
D03*
X255850Y163000D02*
D03*
X262150D02*
D03*
X174350Y168000D02*
D03*
X180650D02*
D03*
X255850Y157000D02*
D03*
X262150D02*
D03*
X174350Y162000D02*
D03*
X180650D02*
D03*
X255850Y151000D02*
D03*
X262150D02*
D03*
X174350Y156000D02*
D03*
X180650D02*
D03*
X174350Y150000D02*
D03*
X180650D02*
D03*
X174350Y144000D02*
D03*
X180650D02*
D03*
X484850Y175000D02*
D03*
X491150D02*
D03*
X484850Y183000D02*
D03*
X491150D02*
D03*
X478850Y78000D02*
D03*
X485150D02*
D03*
X478850Y86000D02*
D03*
X485150D02*
D03*
D18*
X101024Y261516D02*
D03*
Y258957D02*
D03*
Y256398D02*
D03*
Y253839D02*
D03*
Y251279D02*
D03*
Y248721D02*
D03*
Y246161D02*
D03*
Y243602D02*
D03*
Y241043D02*
D03*
Y238484D02*
D03*
X128976D02*
D03*
Y241043D02*
D03*
Y243602D02*
D03*
Y246161D02*
D03*
Y248721D02*
D03*
Y251279D02*
D03*
Y253839D02*
D03*
Y256398D02*
D03*
Y258957D02*
D03*
Y261516D02*
D03*
D19*
X238433Y257677D02*
D03*
Y255118D02*
D03*
Y252559D02*
D03*
Y250000D02*
D03*
Y247441D02*
D03*
Y244882D02*
D03*
Y242323D02*
D03*
X261567D02*
D03*
Y244882D02*
D03*
Y247441D02*
D03*
Y250000D02*
D03*
Y252559D02*
D03*
Y255118D02*
D03*
Y257677D02*
D03*
D20*
X163000Y296850D02*
D03*
Y303150D02*
D03*
X178000Y296850D02*
D03*
Y303150D02*
D03*
X193000Y296850D02*
D03*
Y303150D02*
D03*
X227000Y198850D02*
D03*
Y205150D02*
D03*
X215000D02*
D03*
Y198850D02*
D03*
X233000D02*
D03*
Y205150D02*
D03*
X209000D02*
D03*
Y198850D02*
D03*
X239000D02*
D03*
Y205150D02*
D03*
X203000D02*
D03*
Y198850D02*
D03*
X491000Y191850D02*
D03*
Y198150D02*
D03*
X484000Y191850D02*
D03*
Y198150D02*
D03*
X242000Y124150D02*
D03*
Y117850D02*
D03*
X236000Y124150D02*
D03*
Y117850D02*
D03*
X230000Y124150D02*
D03*
Y117850D02*
D03*
X224000Y124150D02*
D03*
Y117850D02*
D03*
X206000D02*
D03*
Y124150D02*
D03*
X218000D02*
D03*
Y117850D02*
D03*
X212000Y124150D02*
D03*
Y117850D02*
D03*
X486000Y93850D02*
D03*
Y100150D02*
D03*
X479000Y93850D02*
D03*
Y100150D02*
D03*
D21*
X208476Y180685D02*
D03*
X211626D02*
D03*
X214776D02*
D03*
X217925D02*
D03*
X221075D02*
D03*
X224224D02*
D03*
X227374D02*
D03*
X230524D02*
D03*
Y147315D02*
D03*
X227374D02*
D03*
X224224D02*
D03*
X221075D02*
D03*
X217925D02*
D03*
X214776D02*
D03*
X211626D02*
D03*
X208476D02*
D03*
D22*
X236185Y175024D02*
D03*
Y171874D02*
D03*
Y168724D02*
D03*
Y165575D02*
D03*
Y162425D02*
D03*
Y159276D02*
D03*
Y156126D02*
D03*
Y152976D02*
D03*
X202815D02*
D03*
Y156126D02*
D03*
Y159276D02*
D03*
Y162425D02*
D03*
Y165575D02*
D03*
Y168724D02*
D03*
Y171874D02*
D03*
Y175024D02*
D03*
D40*
X20000Y380000D02*
D03*
X540000D02*
D03*
X20000Y20000D02*
D03*
X540000D02*
D03*
D41*
X35000Y59000D02*
D03*
X18000Y79000D02*
D03*
Y59000D02*
D03*
X35000Y79000D02*
D03*
X484000Y30000D02*
D03*
X485000Y50000D02*
D03*
X470000Y30000D02*
D03*
Y50000D02*
D03*
X356000Y189000D02*
D03*
Y229000D02*
D03*
X385000Y310000D02*
D03*
X356000Y209000D02*
D03*
X315000Y115000D02*
D03*
X330000D02*
D03*
X345000D02*
D03*
X360000D02*
D03*
X375000D02*
D03*
X390000D02*
D03*
X405000D02*
D03*
X420000D02*
D03*
X435000D02*
D03*
X450000D02*
D03*
D42*
X536811Y196496D02*
D03*
Y143268D02*
D03*
X540000Y169882D02*
D03*
X536811Y99496D02*
D03*
Y46268D02*
D03*
X540000Y72882D02*
D03*
D43*
X515197Y156693D02*
D03*
Y183071D02*
D03*
X525000Y156693D02*
D03*
Y183071D02*
D03*
Y164764D02*
D03*
X515197Y59693D02*
D03*
Y86071D02*
D03*
X525000Y59693D02*
D03*
Y86071D02*
D03*
Y67764D02*
D03*
D44*
Y175000D02*
D03*
Y78000D02*
D03*
D45*
X411500Y199000D02*
D03*
X401500D02*
D03*
X411500Y209000D02*
D03*
X401500D02*
D03*
X411500Y219000D02*
D03*
D46*
X401500D02*
D03*
D47*
X30000Y120000D02*
D03*
Y130000D02*
D03*
Y140000D02*
D03*
Y150000D02*
D03*
Y160000D02*
D03*
Y170000D02*
D03*
Y180000D02*
D03*
X20000Y120000D02*
D03*
Y130000D02*
D03*
Y140000D02*
D03*
Y150000D02*
D03*
Y160000D02*
D03*
Y170000D02*
D03*
X30000Y190000D02*
D03*
X20000Y180000D02*
D03*
D48*
Y190000D02*
D03*
M02*
