G04*
G04 #@! TF.GenerationSoftware,Altium Limited,Altium Designer,22.3.1 (43)*
G04*
G04 Layer_Color=16711935*
%FSLAX25Y25*%
%MOIN*%
G70*
G04*
G04 #@! TF.SameCoordinates,95171FB7-D515-428C-BD45-E7A15DE81ABC*
G04*
G04*
G04 #@! TF.FilePolarity,Negative*
G04*
G01*
G75*
%ADD24R,0.03950X0.04540*%
%ADD27R,0.04540X0.03950*%
%ADD30C,0.20800*%
%ADD31R,0.06706X0.06706*%
%ADD32C,0.14796*%
%ADD33C,0.06741*%
%ADD34R,0.06741X0.06741*%
%ADD35C,0.06706*%
%ADD36R,0.06706X0.06706*%
%ADD37C,0.06800*%
%ADD38R,0.06800X0.06800*%
%ADD39C,0.05800*%
D24*
X216299Y175000D02*
D03*
X210000D02*
D03*
X221000Y169000D02*
D03*
X227299D02*
D03*
X216299D02*
D03*
X210000D02*
D03*
X221000Y175000D02*
D03*
X227299D02*
D03*
X216299Y163000D02*
D03*
X210000D02*
D03*
X221000D02*
D03*
X227299D02*
D03*
D27*
X398000Y340650D02*
D03*
Y334350D02*
D03*
X373000D02*
D03*
Y340650D02*
D03*
X315000D02*
D03*
Y334350D02*
D03*
X345000Y340650D02*
D03*
Y334350D02*
D03*
X249000Y340650D02*
D03*
Y334350D02*
D03*
X278000Y340650D02*
D03*
Y334350D02*
D03*
X219000Y340650D02*
D03*
Y334350D02*
D03*
X208000Y340650D02*
D03*
Y334350D02*
D03*
X163000Y340650D02*
D03*
Y334350D02*
D03*
X178000D02*
D03*
Y340650D02*
D03*
X193000Y334350D02*
D03*
Y340650D02*
D03*
X135000D02*
D03*
Y334350D02*
D03*
X145000Y340650D02*
D03*
Y334350D02*
D03*
X125000Y340650D02*
D03*
Y334350D02*
D03*
X95000Y340650D02*
D03*
Y334350D02*
D03*
X85000Y340650D02*
D03*
Y334350D02*
D03*
X75000Y340650D02*
D03*
Y334350D02*
D03*
X105000Y340650D02*
D03*
Y334350D02*
D03*
X115000Y340650D02*
D03*
Y334350D02*
D03*
D30*
X20000Y380000D02*
D03*
X540000D02*
D03*
X20000Y20000D02*
D03*
X540000D02*
D03*
D31*
X35000Y59000D02*
D03*
X18000Y79000D02*
D03*
Y59000D02*
D03*
X35000Y79000D02*
D03*
X484000Y30000D02*
D03*
X485000Y50000D02*
D03*
X470000Y30000D02*
D03*
Y50000D02*
D03*
X356000Y189000D02*
D03*
Y229000D02*
D03*
X385000Y310000D02*
D03*
X356000Y209000D02*
D03*
X315000Y115000D02*
D03*
X330000D02*
D03*
X345000D02*
D03*
X360000D02*
D03*
X375000D02*
D03*
X390000D02*
D03*
X405000D02*
D03*
X420000D02*
D03*
X435000D02*
D03*
X450000D02*
D03*
D32*
X536811Y196496D02*
D03*
Y143268D02*
D03*
X540000Y169882D02*
D03*
X536811Y99496D02*
D03*
Y46268D02*
D03*
X540000Y72882D02*
D03*
D33*
X515197Y156693D02*
D03*
Y183071D02*
D03*
X525000Y156693D02*
D03*
Y183071D02*
D03*
Y164764D02*
D03*
X515197Y59693D02*
D03*
Y86071D02*
D03*
X525000Y59693D02*
D03*
Y86071D02*
D03*
Y67764D02*
D03*
D34*
Y175000D02*
D03*
Y78000D02*
D03*
D35*
X411500Y199000D02*
D03*
X401500D02*
D03*
X411500Y209000D02*
D03*
X401500D02*
D03*
X411500Y219000D02*
D03*
D36*
X401500D02*
D03*
D37*
X30000Y120000D02*
D03*
Y130000D02*
D03*
Y140000D02*
D03*
Y150000D02*
D03*
Y160000D02*
D03*
Y170000D02*
D03*
Y180000D02*
D03*
X20000Y120000D02*
D03*
Y130000D02*
D03*
Y140000D02*
D03*
Y150000D02*
D03*
Y160000D02*
D03*
Y170000D02*
D03*
X30000Y190000D02*
D03*
X20000Y180000D02*
D03*
D38*
Y190000D02*
D03*
D39*
X297000Y141000D02*
D03*
X220000Y98000D02*
D03*
X218000Y106000D02*
D03*
X259000Y222000D02*
D03*
X201000Y253000D02*
D03*
X262000Y237500D02*
D03*
X457000Y96000D02*
D03*
X470000Y90000D02*
D03*
X469000Y118000D02*
D03*
Y183000D02*
D03*
X378000Y229000D02*
D03*
X224000Y215000D02*
D03*
X494000Y100000D02*
D03*
X228000Y240000D02*
D03*
X155000Y155000D02*
D03*
X195000Y261000D02*
D03*
X160000Y136000D02*
D03*
X210000Y235000D02*
D03*
X166000Y130000D02*
D03*
X247000Y105000D02*
D03*
X236000D02*
D03*
X230000Y98000D02*
D03*
X198000Y128000D02*
D03*
X181000Y109000D02*
D03*
X124000Y145000D02*
D03*
X126000Y159000D02*
D03*
X189000Y101000D02*
D03*
X214000Y225000D02*
D03*
X136000Y135000D02*
D03*
X155000Y197000D02*
D03*
X156500Y174000D02*
D03*
Y185379D02*
D03*
X141000Y206000D02*
D03*
X157000Y207000D02*
D03*
X149000Y214500D02*
D03*
X174000Y194000D02*
D03*
X127000Y176000D02*
D03*
X121000Y171000D02*
D03*
X144500Y191000D02*
D03*
X61000Y175000D02*
D03*
X56000Y185000D02*
D03*
X64000Y219000D02*
D03*
X143000D02*
D03*
X280000Y248000D02*
D03*
X276000Y260000D02*
D03*
X315000Y318000D02*
D03*
X338000Y323000D02*
D03*
X249000Y245000D02*
D03*
X386000Y340000D02*
D03*
X409000Y338000D02*
D03*
X331000Y342000D02*
D03*
X264000D02*
D03*
X246000Y283000D02*
D03*
Y256000D02*
D03*
X238000Y266000D02*
D03*
Y283000D02*
D03*
X230000D02*
D03*
Y270000D02*
D03*
X193000Y278000D02*
D03*
X233000Y221000D02*
D03*
X185000Y285000D02*
D03*
X149000Y162000D02*
D03*
X142000Y167000D02*
D03*
X93000Y160000D02*
D03*
Y171000D02*
D03*
X270000Y90000D02*
D03*
X280000D02*
D03*
X290000D02*
D03*
X300000D02*
D03*
X310000D02*
D03*
X320000D02*
D03*
X330000D02*
D03*
X340000D02*
D03*
X350000D02*
D03*
X360000D02*
D03*
X370000D02*
D03*
X380000D02*
D03*
X390000D02*
D03*
X400000D02*
D03*
X410000D02*
D03*
X420000D02*
D03*
X430000D02*
D03*
X440000D02*
D03*
X450000D02*
D03*
X260000D02*
D03*
X250000D02*
D03*
X240000D02*
D03*
X230000D02*
D03*
X220000D02*
D03*
X210000D02*
D03*
X200000D02*
D03*
X190000D02*
D03*
X180000D02*
D03*
X170000D02*
D03*
X160000D02*
D03*
X150000D02*
D03*
X140000D02*
D03*
X130000D02*
D03*
X120000D02*
D03*
X110000D02*
D03*
X90000D02*
D03*
X100000D02*
D03*
X80000D02*
D03*
X70000D02*
D03*
X50000D02*
D03*
X60000D02*
D03*
X270000Y20000D02*
D03*
X280000D02*
D03*
X290000D02*
D03*
X300000D02*
D03*
X310000D02*
D03*
X320000D02*
D03*
X330000D02*
D03*
X340000D02*
D03*
X350000D02*
D03*
X360000D02*
D03*
X370000D02*
D03*
X380000D02*
D03*
X390000D02*
D03*
X400000D02*
D03*
X410000D02*
D03*
X420000D02*
D03*
X430000D02*
D03*
X440000D02*
D03*
X450000D02*
D03*
X260000D02*
D03*
X250000D02*
D03*
X240000D02*
D03*
X230000D02*
D03*
X220000D02*
D03*
X210000D02*
D03*
X200000D02*
D03*
X190000D02*
D03*
X180000D02*
D03*
X170000D02*
D03*
X160000D02*
D03*
X150000D02*
D03*
X140000D02*
D03*
X130000D02*
D03*
X120000D02*
D03*
X110000D02*
D03*
X90000D02*
D03*
X100000D02*
D03*
X80000D02*
D03*
X70000D02*
D03*
X50000D02*
D03*
X60000D02*
D03*
X270000Y30000D02*
D03*
X280000D02*
D03*
X290000D02*
D03*
X300000D02*
D03*
X310000D02*
D03*
X320000D02*
D03*
X330000D02*
D03*
X340000D02*
D03*
X350000D02*
D03*
X360000D02*
D03*
X370000D02*
D03*
X380000D02*
D03*
X390000D02*
D03*
X400000D02*
D03*
X410000D02*
D03*
X420000D02*
D03*
X430000D02*
D03*
X440000D02*
D03*
X450000D02*
D03*
X260000D02*
D03*
X250000D02*
D03*
X240000D02*
D03*
X230000D02*
D03*
X220000D02*
D03*
X210000D02*
D03*
X200000D02*
D03*
X190000D02*
D03*
X180000D02*
D03*
X170000D02*
D03*
X160000D02*
D03*
X150000D02*
D03*
X140000D02*
D03*
X130000D02*
D03*
X120000D02*
D03*
X110000D02*
D03*
X90000D02*
D03*
X100000D02*
D03*
X80000D02*
D03*
X70000D02*
D03*
X50000D02*
D03*
X60000D02*
D03*
X270000Y40000D02*
D03*
X280000D02*
D03*
X290000D02*
D03*
X300000D02*
D03*
X310000D02*
D03*
X320000D02*
D03*
X330000D02*
D03*
X340000D02*
D03*
X350000D02*
D03*
X360000D02*
D03*
X370000D02*
D03*
X380000D02*
D03*
X390000D02*
D03*
X400000D02*
D03*
X410000D02*
D03*
X420000D02*
D03*
X430000D02*
D03*
X440000D02*
D03*
X450000D02*
D03*
X260000D02*
D03*
X250000D02*
D03*
X240000D02*
D03*
X230000D02*
D03*
X220000D02*
D03*
X210000D02*
D03*
X200000D02*
D03*
X190000D02*
D03*
X180000D02*
D03*
X170000D02*
D03*
X160000D02*
D03*
X150000D02*
D03*
X140000D02*
D03*
X130000D02*
D03*
X120000D02*
D03*
X110000D02*
D03*
X90000D02*
D03*
X100000D02*
D03*
X80000D02*
D03*
X70000D02*
D03*
X50000D02*
D03*
X60000D02*
D03*
X270000Y50000D02*
D03*
X280000D02*
D03*
X290000D02*
D03*
X300000D02*
D03*
X310000D02*
D03*
X320000D02*
D03*
X330000D02*
D03*
X340000D02*
D03*
X350000D02*
D03*
X360000D02*
D03*
X370000D02*
D03*
X380000D02*
D03*
X390000D02*
D03*
X400000D02*
D03*
X410000D02*
D03*
X420000D02*
D03*
X430000D02*
D03*
X440000D02*
D03*
X450000D02*
D03*
X260000D02*
D03*
X250000D02*
D03*
X240000D02*
D03*
X230000D02*
D03*
X220000D02*
D03*
X210000D02*
D03*
X200000D02*
D03*
X190000D02*
D03*
X180000D02*
D03*
X170000D02*
D03*
X160000D02*
D03*
X150000D02*
D03*
X140000D02*
D03*
X130000D02*
D03*
X120000D02*
D03*
X110000D02*
D03*
X90000D02*
D03*
X100000D02*
D03*
X80000D02*
D03*
X70000D02*
D03*
X50000D02*
D03*
X60000D02*
D03*
X270000Y70000D02*
D03*
X280000D02*
D03*
X290000D02*
D03*
X300000D02*
D03*
X310000D02*
D03*
X320000D02*
D03*
X330000D02*
D03*
X340000D02*
D03*
X350000D02*
D03*
X360000D02*
D03*
X370000D02*
D03*
X380000D02*
D03*
X390000D02*
D03*
X400000D02*
D03*
X410000D02*
D03*
X420000D02*
D03*
X430000D02*
D03*
X440000D02*
D03*
X450000D02*
D03*
X260000D02*
D03*
X250000D02*
D03*
X240000D02*
D03*
X230000D02*
D03*
X220000D02*
D03*
X210000D02*
D03*
X200000D02*
D03*
X190000D02*
D03*
X180000D02*
D03*
X170000D02*
D03*
X160000D02*
D03*
X150000D02*
D03*
X140000D02*
D03*
X130000D02*
D03*
X120000D02*
D03*
X110000D02*
D03*
X90000D02*
D03*
X100000D02*
D03*
X80000D02*
D03*
X70000D02*
D03*
X50000D02*
D03*
X60000D02*
D03*
X270000Y80000D02*
D03*
X280000D02*
D03*
X290000D02*
D03*
X300000D02*
D03*
X310000D02*
D03*
X320000D02*
D03*
X330000D02*
D03*
X340000D02*
D03*
X350000D02*
D03*
X360000D02*
D03*
X370000D02*
D03*
X380000D02*
D03*
X390000D02*
D03*
X400000D02*
D03*
X410000D02*
D03*
X420000D02*
D03*
X430000D02*
D03*
X440000D02*
D03*
X450000D02*
D03*
X260000D02*
D03*
X250000D02*
D03*
X240000D02*
D03*
X230000D02*
D03*
X220000D02*
D03*
X210000D02*
D03*
X200000D02*
D03*
X190000D02*
D03*
X180000D02*
D03*
X170000D02*
D03*
X160000D02*
D03*
X150000D02*
D03*
X140000D02*
D03*
X130000D02*
D03*
X120000D02*
D03*
X110000D02*
D03*
X90000D02*
D03*
X100000D02*
D03*
X80000D02*
D03*
X70000D02*
D03*
X50000D02*
D03*
X60000D02*
D03*
Y60000D02*
D03*
X50000D02*
D03*
X70000D02*
D03*
X80000D02*
D03*
X100000D02*
D03*
X90000D02*
D03*
X110000D02*
D03*
X120000D02*
D03*
X130000D02*
D03*
X140000D02*
D03*
X150000D02*
D03*
X160000D02*
D03*
X170000D02*
D03*
X180000D02*
D03*
X190000D02*
D03*
X200000D02*
D03*
X210000D02*
D03*
X220000D02*
D03*
X230000D02*
D03*
X240000D02*
D03*
X250000D02*
D03*
X260000D02*
D03*
X450000D02*
D03*
X440000D02*
D03*
X430000D02*
D03*
X420000D02*
D03*
X410000D02*
D03*
X400000D02*
D03*
X390000D02*
D03*
X380000D02*
D03*
X370000D02*
D03*
X360000D02*
D03*
X350000D02*
D03*
X340000D02*
D03*
X330000D02*
D03*
X320000D02*
D03*
X310000D02*
D03*
X300000D02*
D03*
X290000D02*
D03*
X280000D02*
D03*
X270000D02*
D03*
X269000Y268000D02*
D03*
X88000Y265000D02*
D03*
X96000Y226000D02*
D03*
X141000Y264000D02*
D03*
X133000Y270000D02*
D03*
X398000Y375000D02*
D03*
X373000D02*
D03*
X345000D02*
D03*
X315000D02*
D03*
X278000D02*
D03*
X249000D02*
D03*
X219000D02*
D03*
X208000D02*
D03*
X230000Y339000D02*
D03*
X66000Y338000D02*
D03*
X193000Y375000D02*
D03*
X178000D02*
D03*
X163000D02*
D03*
X145000D02*
D03*
X135000D02*
D03*
X125000D02*
D03*
X115000D02*
D03*
X105000D02*
D03*
X95000D02*
D03*
X85000D02*
D03*
X75000D02*
D03*
X480000Y69000D02*
D03*
X469000Y100000D02*
D03*
X486000Y166000D02*
D03*
X500000Y190000D02*
D03*
X473000Y198000D02*
D03*
X213000Y156000D02*
D03*
X246000Y155000D02*
D03*
X221000Y192000D02*
D03*
M02*
