G04*
G04 #@! TF.GenerationSoftware,Altium Limited,Altium Designer,22.3.1 (43)*
G04*
G04 Layer_Color=32896*
%FSLAX25Y25*%
%MOIN*%
G70*
G04*
G04 #@! TF.SameCoordinates,F15A7EA6-3F3C-4714-8FA7-CF7AF9E4284A*
G04*
G04*
G04 #@! TF.FilePolarity,Positive*
G04*
G01*
G75*
%ADD11C,0.00394*%
%ADD69C,0.00197*%
D11*
X524646Y323937D02*
X561063D01*
X524646Y276063D02*
Y323937D01*
Y276063D02*
X561063D01*
Y323937D01*
X518347Y364685D02*
X561654D01*
Y325299D02*
Y364685D01*
X518347Y325299D02*
X561654D01*
X518347D02*
Y364685D01*
D69*
X405047Y344709D02*
X410953D01*
Y333291D02*
Y344709D01*
X405047Y333291D02*
X410953D01*
X405047D02*
Y344709D01*
X434047Y294291D02*
X439953D01*
Y305709D01*
X434047D02*
X439953D01*
X434047Y294291D02*
Y305709D01*
X121209Y131047D02*
Y136953D01*
X109791D02*
X121209D01*
X109791Y131047D02*
Y136953D01*
Y131047D02*
X121209D01*
X152575Y72520D02*
Y137480D01*
Y72520D02*
X199425D01*
Y137480D01*
X152575D02*
X199425D01*
X151575Y169520D02*
X198425D01*
X151575D02*
Y234480D01*
X198425D01*
Y169520D02*
Y234480D01*
X229791Y226953D02*
X241209D01*
Y221047D02*
Y226953D01*
X229791Y221047D02*
X241209D01*
X229791D02*
Y226953D01*
Y232953D02*
X241209D01*
Y227047D02*
Y232953D01*
X229791Y227047D02*
X241209D01*
X229791D02*
Y232953D01*
Y220953D02*
X241209D01*
Y215047D02*
Y220953D01*
X229791Y215047D02*
X241209D01*
X229791D02*
Y220953D01*
Y238953D02*
X241209D01*
Y233047D02*
Y238953D01*
X229791Y233047D02*
X241209D01*
X229791D02*
Y238953D01*
Y244953D02*
X241209D01*
Y239047D02*
Y244953D01*
X229791Y239047D02*
X241209D01*
X229791D02*
Y244953D01*
X110291D02*
X121709D01*
Y239047D02*
Y244953D01*
X110291Y239047D02*
X121709D01*
X110291D02*
Y244953D01*
Y238953D02*
X121709D01*
Y233047D02*
Y238953D01*
X110291Y233047D02*
X121709D01*
X110291D02*
Y238953D01*
Y232953D02*
X121709D01*
Y227047D02*
Y232953D01*
X110291Y227047D02*
X121709D01*
X110291D02*
Y232953D01*
Y226953D02*
X121709D01*
Y221047D02*
Y226953D01*
X110291Y221047D02*
X121709D01*
X110291D02*
Y226953D01*
Y220953D02*
X121709D01*
Y215047D02*
Y220953D01*
X110291Y215047D02*
X121709D01*
X110291D02*
Y220953D01*
Y178953D02*
X121709D01*
Y173047D02*
Y178953D01*
X110291Y173047D02*
X121709D01*
X110291D02*
Y178953D01*
Y172953D02*
X121709D01*
Y167047D02*
Y172953D01*
X110291Y167047D02*
X121709D01*
X110291D02*
Y172953D01*
Y166953D02*
X121709D01*
Y161047D02*
Y166953D01*
X110291Y161047D02*
X121709D01*
X110291D02*
Y166953D01*
X229791D02*
X241209D01*
Y161047D02*
Y166953D01*
X229791Y161047D02*
X241209D01*
X229791D02*
Y166953D01*
Y172953D02*
X241209D01*
Y167047D02*
Y172953D01*
X229791Y167047D02*
X241209D01*
X229791D02*
Y172953D01*
Y160953D02*
X241209D01*
Y155047D02*
Y160953D01*
X229791Y155047D02*
X241209D01*
X229791D02*
Y160953D01*
X110291D02*
X121709D01*
Y155047D02*
Y160953D01*
X110291Y155047D02*
X121709D01*
X110291D02*
Y160953D01*
Y154953D02*
X121709D01*
Y149047D02*
Y154953D01*
X110291Y149047D02*
X121709D01*
X110291D02*
Y154953D01*
Y202953D02*
X121709D01*
Y197047D02*
Y202953D01*
X110291Y197047D02*
X121709D01*
X110291D02*
Y202953D01*
Y196953D02*
X121709D01*
Y191047D02*
Y196953D01*
X110291Y191047D02*
X121709D01*
X110291D02*
Y196953D01*
X229791Y154953D02*
X241209D01*
Y149047D02*
Y154953D01*
X229791Y149047D02*
X241209D01*
X229791D02*
Y154953D01*
Y196953D02*
X241209D01*
Y191047D02*
Y196953D01*
X229791Y191047D02*
X241209D01*
X229791D02*
Y196953D01*
Y214953D02*
X241209D01*
Y209047D02*
Y214953D01*
X229791Y209047D02*
X241209D01*
X229791D02*
Y214953D01*
Y208953D02*
X241209D01*
Y203047D02*
Y208953D01*
X229791Y203047D02*
X241209D01*
X229791D02*
Y208953D01*
Y202953D02*
X241209D01*
Y197047D02*
Y202953D01*
X229791Y197047D02*
X241209D01*
X229791D02*
Y202953D01*
X110291Y184953D02*
X121709D01*
Y179047D02*
Y184953D01*
X110291Y179047D02*
X121709D01*
X110291D02*
Y184953D01*
Y190953D02*
X121709D01*
Y185047D02*
Y190953D01*
X110291Y185047D02*
X121709D01*
X110291D02*
Y190953D01*
Y214953D02*
X121709D01*
Y209047D02*
Y214953D01*
X110291Y209047D02*
X121709D01*
X110291D02*
Y214953D01*
Y208953D02*
X121709D01*
Y203047D02*
Y208953D01*
X110291Y203047D02*
X121709D01*
X110291D02*
Y208953D01*
X229791Y190953D02*
X241209D01*
Y185047D02*
Y190953D01*
X229791Y185047D02*
X241209D01*
X229791D02*
Y190953D01*
Y184953D02*
X241209D01*
Y179047D02*
Y184953D01*
X229791Y179047D02*
X241209D01*
X229791D02*
Y184953D01*
Y178953D02*
X241209D01*
Y173047D02*
Y178953D01*
X229791Y173047D02*
X241209D01*
X229791D02*
Y178953D01*
X329547Y91024D02*
Y118976D01*
Y91024D02*
X360453D01*
Y118976D01*
X329547D02*
X360453D01*
X159016Y6516D02*
Y43484D01*
X270984D01*
Y6516D02*
Y43484D01*
X159016Y6516D02*
X270984D01*
X331496Y255252D02*
Y286748D01*
Y255252D02*
X368504D01*
Y286748D01*
X331496D02*
X368504D01*
X355047Y333291D02*
Y344709D01*
Y333291D02*
X360953D01*
Y344709D01*
X355047D02*
X360953D01*
X365047Y333291D02*
Y344709D01*
Y333291D02*
X370953D01*
Y344709D01*
X365047D02*
X370953D01*
X375047Y333291D02*
Y344709D01*
Y333291D02*
X380953D01*
Y344709D01*
X375047D02*
X380953D01*
X385047Y333291D02*
Y344709D01*
Y333291D02*
X390953D01*
Y344709D01*
X385047D02*
X390953D01*
X395047Y333291D02*
Y344709D01*
Y333291D02*
X400953D01*
Y344709D01*
X395047D02*
X400953D01*
X406047Y294291D02*
Y305709D01*
X411953D01*
Y294291D02*
Y305709D01*
X406047Y294291D02*
X411953D01*
X399047D02*
Y305709D01*
X404953D01*
Y294291D02*
Y305709D01*
X399047Y294291D02*
X404953D01*
X413047D02*
Y305709D01*
X418953D01*
Y294291D02*
Y305709D01*
X413047Y294291D02*
X418953D01*
X420047Y294441D02*
Y305858D01*
X425953D01*
Y294441D02*
Y305858D01*
X420047Y294441D02*
X425953D01*
X427047Y294291D02*
Y305709D01*
X432953D01*
Y294291D02*
Y305709D01*
X427047Y294291D02*
X432953D01*
X327047Y344709D02*
X332953D01*
Y333291D02*
Y344709D01*
X327047Y333291D02*
X332953D01*
X327047D02*
Y344709D01*
X307047D02*
X312953D01*
Y333291D02*
Y344709D01*
X307047Y333291D02*
X312953D01*
X307047D02*
Y344709D01*
X317047D02*
X322953D01*
Y333291D02*
Y344709D01*
X317047Y333291D02*
X322953D01*
X317047D02*
Y344709D01*
X287047D02*
X292953D01*
Y333291D02*
Y344709D01*
X287047Y333291D02*
X292953D01*
X287047D02*
Y344709D01*
X297047D02*
X302953D01*
Y333291D02*
Y344709D01*
X297047Y333291D02*
X302953D01*
X297047D02*
Y344709D01*
X270047D02*
X275953D01*
Y333291D02*
Y344709D01*
X270047Y333291D02*
X275953D01*
X270047D02*
Y344709D01*
X250047D02*
X255953D01*
Y333291D02*
Y344709D01*
X250047Y333291D02*
X255953D01*
X250047D02*
Y344709D01*
X220047D02*
X225953D01*
Y333291D02*
Y344709D01*
X220047Y333291D02*
X225953D01*
X220047D02*
Y344709D01*
X260047D02*
X265953D01*
Y333291D02*
Y344709D01*
X260047Y333291D02*
X265953D01*
X260047D02*
Y344709D01*
X240047D02*
X245953D01*
Y333291D02*
Y344709D01*
X240047Y333291D02*
X245953D01*
X240047D02*
Y344709D01*
X210047D02*
X215953D01*
Y333291D02*
Y344709D01*
X210047Y333291D02*
X215953D01*
X210047D02*
Y344709D01*
X200047D02*
X205953D01*
Y333291D02*
Y344709D01*
X200047Y333291D02*
X205953D01*
X200047D02*
Y344709D01*
X230047D02*
X235953D01*
Y333291D02*
Y344709D01*
X230047Y333291D02*
X235953D01*
X230047D02*
Y344709D01*
X152047D02*
X157953D01*
Y333291D02*
Y344709D01*
X152047Y333291D02*
X157953D01*
X152047D02*
Y344709D01*
X142047D02*
X147953D01*
Y333291D02*
Y344709D01*
X142047Y333291D02*
X147953D01*
X142047D02*
Y344709D01*
X162047D02*
X167953D01*
Y333291D02*
Y344709D01*
X162047Y333291D02*
X167953D01*
X162047D02*
Y344709D01*
X172047D02*
X177953D01*
Y333291D02*
Y344709D01*
X172047Y333291D02*
X177953D01*
X172047D02*
Y344709D01*
X182047D02*
X187953D01*
Y333291D02*
Y344709D01*
X182047Y333291D02*
X187953D01*
X182047D02*
Y344709D01*
X132047D02*
X137953D01*
Y333291D02*
Y344709D01*
X132047Y333291D02*
X137953D01*
X132047D02*
Y344709D01*
X122047D02*
X127953D01*
Y333291D02*
Y344709D01*
X122047Y333291D02*
X127953D01*
X122047D02*
Y344709D01*
X112047D02*
X117953D01*
Y333291D02*
Y344709D01*
X112047Y333291D02*
X117953D01*
X112047D02*
Y344709D01*
X52047D02*
X57953D01*
Y333291D02*
Y344709D01*
X52047Y333291D02*
X57953D01*
X52047D02*
Y344709D01*
X42047Y344559D02*
X47953D01*
Y333142D02*
Y344559D01*
X42047Y333142D02*
X47953D01*
X42047D02*
Y344559D01*
X62047Y344709D02*
X67953D01*
Y333291D02*
Y344709D01*
X62047Y333291D02*
X67953D01*
X62047D02*
Y344709D01*
X72047D02*
X77953D01*
Y333291D02*
Y344709D01*
X72047Y333291D02*
X77953D01*
X72047D02*
Y344709D01*
X82047Y344559D02*
X87953D01*
Y333142D02*
Y344559D01*
X82047Y333142D02*
X87953D01*
X82047D02*
Y344559D01*
X102047Y344709D02*
X107953D01*
Y333291D02*
Y344709D01*
X102047Y333291D02*
X107953D01*
X102047D02*
Y344709D01*
X92047D02*
X97953D01*
Y333291D02*
Y344709D01*
X92047Y333291D02*
X97953D01*
X92047D02*
Y344709D01*
X476291Y138047D02*
Y143953D01*
X487709D01*
Y138047D02*
Y143953D01*
X476291Y138047D02*
X487709D01*
X460047Y145291D02*
X465953D01*
X460047D02*
Y156709D01*
X465953D01*
Y145291D02*
Y156709D01*
X494047Y165709D02*
X499953D01*
Y154291D02*
Y165709D01*
X494047Y154291D02*
X499953D01*
X494047D02*
Y165709D01*
X479709Y171047D02*
Y176953D01*
X468291Y171047D02*
X479709D01*
X468291D02*
Y176953D01*
X479709D01*
X511953Y117291D02*
Y128709D01*
X506047Y117291D02*
X511953D01*
X506047D02*
Y128709D01*
X511953D01*
X505953Y117291D02*
Y128709D01*
X500047Y117291D02*
X505953D01*
X500047D02*
Y128709D01*
X505953D01*
X499953Y117291D02*
Y128709D01*
X494047Y117291D02*
X499953D01*
X494047D02*
Y128709D01*
X499953D01*
X493953Y117291D02*
Y128709D01*
X488047Y117291D02*
X493953D01*
X488047D02*
Y128709D01*
X493953D01*
X487953Y117291D02*
Y128709D01*
X482047Y117291D02*
X487953D01*
X482047D02*
Y128709D01*
X487953D01*
X481953Y117291D02*
Y128709D01*
X476047Y117291D02*
X481953D01*
X476047D02*
Y128709D01*
X481953D01*
X475953Y117291D02*
Y128709D01*
X470047Y117291D02*
X475953D01*
X470047D02*
Y128709D01*
X475953D01*
X464047Y117291D02*
Y128709D01*
X469953D01*
Y117291D02*
Y128709D01*
X464047Y117291D02*
X469953D01*
X229291Y59047D02*
X240709D01*
X229291D02*
Y64953D01*
X240709D01*
Y59047D02*
Y64953D01*
X109791Y59047D02*
X121209D01*
X109791D02*
Y64953D01*
X121209D01*
Y59047D02*
Y64953D01*
X482953Y54291D02*
Y65709D01*
X477047Y54291D02*
X482953D01*
X477047D02*
Y65709D01*
X482953D01*
X229291Y53047D02*
X240709D01*
X229291D02*
Y58953D01*
X240709D01*
Y53047D02*
Y58953D01*
X109791Y53047D02*
X121209D01*
X109791D02*
Y58953D01*
X121209D01*
Y53047D02*
Y58953D01*
X492953Y54291D02*
Y65709D01*
X487047Y54291D02*
X492953D01*
X487047D02*
Y65709D01*
X492953D01*
X229291Y77047D02*
X240709D01*
X229291D02*
Y82953D01*
X240709D01*
Y77047D02*
Y82953D01*
X109791Y71047D02*
X121209D01*
X109791D02*
Y76953D01*
X121209D01*
Y71047D02*
Y76953D01*
X109791Y77047D02*
X121209D01*
X109791D02*
Y82953D01*
X121209D01*
Y77047D02*
Y82953D01*
X229291Y83047D02*
X240709D01*
X229291D02*
Y88953D01*
X240709D01*
Y83047D02*
Y88953D01*
X109791Y65047D02*
X121209D01*
X109791D02*
Y70953D01*
X121209D01*
Y65047D02*
Y70953D01*
X433142Y142953D02*
X444559D01*
Y137047D02*
Y142953D01*
X433142Y137047D02*
X444559D01*
X433142D02*
Y142953D01*
X433291Y148953D02*
X444709D01*
Y143047D02*
Y148953D01*
X433291Y143047D02*
X444709D01*
X433291D02*
Y148953D01*
X229291Y71047D02*
X240709D01*
X229291D02*
Y76953D01*
X240709D01*
Y71047D02*
Y76953D01*
X229291Y65047D02*
X240709D01*
X229291D02*
Y70953D01*
X240709D01*
Y65047D02*
Y70953D01*
X458047Y117291D02*
Y128709D01*
X463953D01*
Y117291D02*
Y128709D01*
X458047Y117291D02*
X463953D01*
X539047Y155291D02*
Y166709D01*
X544953D01*
Y155291D02*
Y166709D01*
X539047Y155291D02*
X544953D01*
X433291Y160953D02*
X444709D01*
Y155047D02*
Y160953D01*
X433291Y155047D02*
X444709D01*
X433291D02*
Y160953D01*
X229291Y95047D02*
X240709D01*
X229291D02*
Y100953D01*
X240709D01*
Y95047D02*
Y100953D01*
X507291Y156953D02*
X518709D01*
Y151047D02*
Y156953D01*
X507291Y151047D02*
X518709D01*
X507291D02*
Y156953D01*
X433291Y154953D02*
X444709D01*
Y149047D02*
Y154953D01*
X433291Y149047D02*
X444709D01*
X433291D02*
Y154953D01*
X507291Y150953D02*
X518709D01*
Y145047D02*
Y150953D01*
X507291Y145047D02*
X518709D01*
X507291D02*
Y150953D01*
X496047Y187291D02*
Y198709D01*
X501953D01*
Y187291D02*
Y198709D01*
X496047Y187291D02*
X501953D01*
X109791Y119047D02*
X121209D01*
X109791D02*
Y124953D01*
X121209D01*
Y119047D02*
Y124953D01*
X507291Y168953D02*
X518709D01*
Y163047D02*
Y168953D01*
X507291Y163047D02*
X518709D01*
X507291D02*
Y168953D01*
X229291Y101047D02*
X240709D01*
X229291D02*
Y106953D01*
X240709D01*
Y101047D02*
Y106953D01*
X109791Y107047D02*
X121209D01*
X109791D02*
Y112953D01*
X121209D01*
Y107047D02*
Y112953D01*
X510291Y232953D02*
X521709D01*
Y227047D02*
Y232953D01*
X510291Y227047D02*
X521709D01*
X510291D02*
Y232953D01*
X229291Y125047D02*
X240709D01*
X229291D02*
Y130953D01*
X240709D01*
Y125047D02*
Y130953D01*
X109791Y113047D02*
X121209D01*
X109791D02*
Y118953D01*
X121209D01*
Y113047D02*
Y118953D01*
X109791Y101047D02*
X121209D01*
X109791D02*
Y106953D01*
X121209D01*
Y101047D02*
Y106953D01*
X460953Y187291D02*
Y198709D01*
X455047Y187291D02*
X460953D01*
X455047D02*
Y198709D01*
X460953D01*
X109791Y83047D02*
X121209D01*
X109791D02*
Y88953D01*
X121209D01*
Y83047D02*
Y88953D01*
X433291Y172953D02*
X444709D01*
Y167047D02*
Y172953D01*
X433291Y167047D02*
X444709D01*
X433291D02*
Y172953D01*
X109791Y89047D02*
X121209D01*
X109791D02*
Y94953D01*
X121209D01*
Y89047D02*
Y94953D01*
X533047Y155291D02*
Y166709D01*
X538953D01*
Y155291D02*
Y166709D01*
X533047Y155291D02*
X538953D01*
X229291Y131047D02*
X240709D01*
X229291D02*
Y136953D01*
X240709D01*
Y131047D02*
Y136953D01*
X109791Y95047D02*
X121209D01*
X109791D02*
Y100953D01*
X121209D01*
Y95047D02*
Y100953D01*
X109791Y125047D02*
X121209D01*
X109791D02*
Y130953D01*
X121209D01*
Y125047D02*
Y130953D01*
X507291Y162953D02*
X518709D01*
Y157047D02*
Y162953D01*
X507291Y157047D02*
X518709D01*
X507291D02*
Y162953D01*
X545047Y155291D02*
Y166709D01*
X550953D01*
Y155291D02*
Y166709D01*
X545047Y155291D02*
X550953D01*
X229291Y143047D02*
X240709D01*
X229291D02*
Y148953D01*
X240709D01*
Y143047D02*
Y148953D01*
X229291Y113047D02*
X240709D01*
X229291D02*
Y118953D01*
X240709D01*
Y113047D02*
Y118953D01*
X478953Y187291D02*
Y198709D01*
X473047Y187291D02*
X478953D01*
X473047D02*
Y198709D01*
X478953D01*
X109791Y143047D02*
X121209D01*
X109791D02*
Y148953D01*
X121209D01*
Y143047D02*
Y148953D01*
X109791Y137047D02*
X121209D01*
X109791D02*
Y142953D01*
X121209D01*
Y137047D02*
Y142953D01*
X466953Y187291D02*
Y198709D01*
X461047Y187291D02*
X466953D01*
X461047D02*
Y198709D01*
X466953D01*
X490047Y187291D02*
Y198709D01*
X495953D01*
Y187291D02*
Y198709D01*
X490047Y187291D02*
X495953D01*
X507291Y174953D02*
X518709D01*
Y169047D02*
Y174953D01*
X507291Y169047D02*
X518709D01*
X507291D02*
Y174953D01*
X433291Y166953D02*
X444709D01*
Y161047D02*
Y166953D01*
X433291Y161047D02*
X444709D01*
X433291D02*
Y166953D01*
X229291Y107047D02*
X240709D01*
X229291D02*
Y112953D01*
X240709D01*
Y107047D02*
Y112953D01*
X229291Y89047D02*
X240709D01*
X229291D02*
Y94953D01*
X240709D01*
Y89047D02*
Y94953D01*
X472953Y187291D02*
Y198709D01*
X467047Y187291D02*
X472953D01*
X467047D02*
Y198709D01*
X472953D01*
X229291Y137047D02*
X240709D01*
X229291D02*
Y142953D01*
X240709D01*
Y137047D02*
Y142953D01*
X229291Y119047D02*
X240709D01*
X229291D02*
Y124953D01*
X240709D01*
Y119047D02*
Y124953D01*
X29291Y194047D02*
X40709D01*
X29291D02*
Y199953D01*
X40709D01*
Y194047D02*
Y199953D01*
X44047Y188291D02*
Y199709D01*
X49953D01*
Y188291D02*
Y199709D01*
X44047Y188291D02*
X49953D01*
X38291Y58047D02*
X49709D01*
X38291D02*
Y63953D01*
X49709D01*
Y58047D02*
Y63953D01*
X33953Y204291D02*
Y215709D01*
X28047Y204291D02*
X33953D01*
X28047D02*
Y215709D01*
X33953D01*
X43953Y204291D02*
Y215709D01*
X38047Y204291D02*
X43953D01*
X38047D02*
Y215709D01*
X43953D01*
X279016Y6516D02*
X390984D01*
Y43484D01*
X279016D02*
X390984D01*
X279016Y6516D02*
Y43484D01*
X399016Y6516D02*
X510984D01*
Y43484D01*
X399016D02*
X510984D01*
X399016Y6516D02*
Y43484D01*
X329547Y180976D02*
X360453D01*
Y153024D02*
Y180976D01*
X329547Y153024D02*
X360453D01*
X329547D02*
Y180976D01*
X41496Y285748D02*
X78504D01*
Y254252D02*
Y285748D01*
X41496Y254252D02*
X78504D01*
X41496D02*
Y285748D01*
X221496D02*
X258504D01*
Y254252D02*
Y285748D01*
X221496Y254252D02*
X258504D01*
X221496D02*
Y285748D01*
X121496D02*
X158504D01*
Y254252D02*
Y285748D01*
X121496Y254252D02*
X158504D01*
X121496D02*
Y285748D01*
X39016Y6516D02*
X150984D01*
Y43484D01*
X39016D02*
X150984D01*
X39016Y6516D02*
Y43484D01*
M02*
