G04*
G04 #@! TF.GenerationSoftware,Altium Limited,Altium Designer,22.3.1 (43)*
G04*
G04 Layer_Color=32896*
%FSLAX25Y25*%
%MOIN*%
G70*
G04*
G04 #@! TF.SameCoordinates,F15A7EA6-3F3C-4714-8FA7-CF7AF9E4284A*
G04*
G04*
G04 #@! TF.FilePolarity,Positive*
G04*
G01*
G75*
%ADD12C,0.00787*%
%ADD14C,0.01000*%
%ADD15C,0.00500*%
D12*
X406819Y339000D02*
X409181D01*
D14*
X406001Y318002D02*
X409999D01*
Y320002D01*
X409333Y320668D01*
X408000D01*
X407334Y320002D01*
Y318002D01*
Y319335D02*
X406001Y320668D01*
Y322001D02*
Y323334D01*
Y322667D01*
X409999D01*
X409333Y322001D01*
X406001Y327333D02*
X409999D01*
X408000Y325333D01*
Y327999D01*
X409333Y329332D02*
X409999Y329998D01*
Y331331D01*
X409333Y331998D01*
X406667D01*
X406001Y331331D01*
Y329998D01*
X406667Y329332D01*
X409333D01*
X396001Y320668D02*
X399999D01*
Y322668D01*
X399333Y323334D01*
X398000D01*
X397334Y322668D01*
Y320668D01*
Y322001D02*
X396001Y323334D01*
X396667Y324667D02*
X396001Y325333D01*
Y326666D01*
X396667Y327333D01*
X399333D01*
X399999Y326666D01*
Y325333D01*
X399333Y324667D01*
X398666D01*
X398000Y325333D01*
Y327333D01*
X399333Y328666D02*
X399999Y329332D01*
Y330665D01*
X399333Y331332D01*
X398666D01*
X398000Y330665D01*
Y329999D01*
Y330665D01*
X397334Y331332D01*
X396667D01*
X396001Y330665D01*
Y329332D01*
X396667Y328666D01*
X386001Y320668D02*
X389999D01*
Y322668D01*
X389333Y323334D01*
X388000D01*
X387334Y322668D01*
Y320668D01*
Y322001D02*
X386001Y323334D01*
X386667Y324667D02*
X386001Y325334D01*
Y326666D01*
X386667Y327333D01*
X389333D01*
X389999Y326666D01*
Y325334D01*
X389333Y324667D01*
X388666D01*
X388000Y325334D01*
Y327333D01*
X386001Y331332D02*
Y328666D01*
X388666Y331332D01*
X389333D01*
X389999Y330665D01*
Y329332D01*
X389333Y328666D01*
X376001Y320519D02*
X379999D01*
Y322518D01*
X379333Y323185D01*
X378000D01*
X377333Y322518D01*
Y320519D01*
Y321852D02*
X376001Y323185D01*
X376667Y324517D02*
X376001Y325184D01*
Y326517D01*
X376667Y327183D01*
X379333D01*
X379999Y326517D01*
Y325184D01*
X379333Y324517D01*
X378666D01*
X378000Y325184D01*
Y327183D01*
X376001Y328516D02*
Y329849D01*
Y329183D01*
X379999D01*
X379333Y328516D01*
X356001Y320668D02*
X359999D01*
Y322668D01*
X359333Y323334D01*
X358000D01*
X357333Y322668D01*
Y320668D01*
Y322001D02*
X356001Y323334D01*
X356667Y324667D02*
X356001Y325333D01*
Y326666D01*
X356667Y327333D01*
X359333D01*
X359999Y326666D01*
Y325333D01*
X359333Y324667D01*
X358666D01*
X358000Y325333D01*
Y327333D01*
X359333Y328666D02*
X359999Y329332D01*
Y330665D01*
X359333Y331332D01*
X356667D01*
X356001Y330665D01*
Y329332D01*
X356667Y328666D01*
X359333D01*
X367001Y320668D02*
X370999D01*
Y322668D01*
X370333Y323334D01*
X369000D01*
X368334Y322668D01*
Y320668D01*
Y322001D02*
X367001Y323334D01*
X370333Y324667D02*
X370999Y325334D01*
Y326666D01*
X370333Y327333D01*
X369666D01*
X369000Y326666D01*
X368334Y327333D01*
X367667D01*
X367001Y326666D01*
Y325334D01*
X367667Y324667D01*
X368334D01*
X369000Y325334D01*
X369666Y324667D01*
X370333D01*
X369000Y325334D02*
Y326666D01*
X370999Y331332D02*
X370333Y329999D01*
X369000Y328666D01*
X367667D01*
X367001Y329332D01*
Y330665D01*
X367667Y331332D01*
X368334D01*
X369000Y330665D01*
Y328666D01*
X328001Y320668D02*
X331999D01*
Y322668D01*
X331333Y323334D01*
X330000D01*
X329333Y322668D01*
Y320668D01*
Y322001D02*
X328001Y323334D01*
X331333Y324667D02*
X331999Y325333D01*
Y326666D01*
X331333Y327333D01*
X330666D01*
X330000Y326666D01*
X329333Y327333D01*
X328667D01*
X328001Y326666D01*
Y325333D01*
X328667Y324667D01*
X329333D01*
X330000Y325333D01*
X330666Y324667D01*
X331333D01*
X330000Y325333D02*
Y326666D01*
X331999Y331332D02*
Y328666D01*
X330000D01*
X330666Y329999D01*
Y330665D01*
X330000Y331332D01*
X328667D01*
X328001Y330665D01*
Y329332D01*
X328667Y328666D01*
X318001Y321668D02*
X321999D01*
Y323668D01*
X321333Y324334D01*
X320000D01*
X319334Y323668D01*
Y321668D01*
Y323001D02*
X318001Y324334D01*
X321333Y325667D02*
X321999Y326333D01*
Y327666D01*
X321333Y328333D01*
X320666D01*
X320000Y327666D01*
X319334Y328333D01*
X318667D01*
X318001Y327666D01*
Y326333D01*
X318667Y325667D01*
X319334D01*
X320000Y326333D01*
X320666Y325667D01*
X321333D01*
X320000Y326333D02*
Y327666D01*
X318001Y331665D02*
X321999D01*
X320000Y329666D01*
Y332332D01*
X308001Y321668D02*
X311999D01*
Y323668D01*
X311333Y324334D01*
X310000D01*
X309334Y323668D01*
Y321668D01*
Y323001D02*
X308001Y324334D01*
X311333Y325667D02*
X311999Y326334D01*
Y327666D01*
X311333Y328333D01*
X310666D01*
X310000Y327666D01*
X309334Y328333D01*
X308667D01*
X308001Y327666D01*
Y326334D01*
X308667Y325667D01*
X309334D01*
X310000Y326334D01*
X310666Y325667D01*
X311333D01*
X310000Y326334D02*
Y327666D01*
X311333Y329666D02*
X311999Y330332D01*
Y331665D01*
X311333Y332332D01*
X310666D01*
X310000Y331665D01*
Y330999D01*
Y331665D01*
X309334Y332332D01*
X308667D01*
X308001Y331665D01*
Y330332D01*
X308667Y329666D01*
X298001Y321668D02*
X301999D01*
Y323668D01*
X301333Y324334D01*
X300000D01*
X299334Y323668D01*
Y321668D01*
Y323001D02*
X298001Y324334D01*
X301333Y325667D02*
X301999Y326333D01*
Y327666D01*
X301333Y328333D01*
X300666D01*
X300000Y327666D01*
X299334Y328333D01*
X298667D01*
X298001Y327666D01*
Y326333D01*
X298667Y325667D01*
X299334D01*
X300000Y326333D01*
X300666Y325667D01*
X301333D01*
X300000Y326333D02*
Y327666D01*
X298001Y332332D02*
Y329666D01*
X300666Y332332D01*
X301333D01*
X301999Y331665D01*
Y330332D01*
X301333Y329666D01*
X288001Y322335D02*
X291999D01*
Y324334D01*
X291333Y325001D01*
X290000D01*
X289334Y324334D01*
Y322335D01*
Y323668D02*
X288001Y325001D01*
X291333Y326334D02*
X291999Y327000D01*
Y328333D01*
X291333Y328999D01*
X290666D01*
X290000Y328333D01*
X289334Y328999D01*
X288667D01*
X288001Y328333D01*
Y327000D01*
X288667Y326334D01*
X289334D01*
X290000Y327000D01*
X290666Y326334D01*
X291333D01*
X290000Y327000D02*
Y328333D01*
X288001Y330332D02*
Y331665D01*
Y330999D01*
X291999D01*
X291333Y330332D01*
X43001Y320668D02*
X46999D01*
Y322668D01*
X46333Y323334D01*
X45000D01*
X44333Y322668D01*
Y320668D01*
Y322001D02*
X43001Y323334D01*
X46333Y324667D02*
X46999Y325333D01*
Y326666D01*
X46333Y327333D01*
X45666D01*
X45000Y326666D01*
X44333Y327333D01*
X43667D01*
X43001Y326666D01*
Y325333D01*
X43667Y324667D01*
X44333D01*
X45000Y325333D01*
X45666Y324667D01*
X46333D01*
X45000Y325333D02*
Y326666D01*
X46333Y328666D02*
X46999Y329332D01*
Y330665D01*
X46333Y331332D01*
X43667D01*
X43001Y330665D01*
Y329332D01*
X43667Y328666D01*
X46333D01*
X53001Y320668D02*
X56999D01*
Y322668D01*
X56333Y323334D01*
X55000D01*
X54334Y322668D01*
Y320668D01*
Y322001D02*
X53001Y323334D01*
X56999Y324667D02*
Y327333D01*
X56333D01*
X53667Y324667D01*
X53001D01*
X53667Y328666D02*
X53001Y329332D01*
Y330665D01*
X53667Y331332D01*
X56333D01*
X56999Y330665D01*
Y329332D01*
X56333Y328666D01*
X55666D01*
X55000Y329332D01*
Y331332D01*
X63001Y320668D02*
X66999D01*
Y322668D01*
X66333Y323334D01*
X65000D01*
X64333Y322668D01*
Y320668D01*
Y322001D02*
X63001Y323334D01*
X66999Y324667D02*
Y327333D01*
X66333D01*
X63667Y324667D01*
X63001D01*
X66333Y328666D02*
X66999Y329332D01*
Y330665D01*
X66333Y331332D01*
X65666D01*
X65000Y330665D01*
X64333Y331332D01*
X63667D01*
X63001Y330665D01*
Y329332D01*
X63667Y328666D01*
X64333D01*
X65000Y329332D01*
X65666Y328666D01*
X66333D01*
X65000Y329332D02*
Y330665D01*
X73001Y320668D02*
X76999D01*
Y322668D01*
X76333Y323334D01*
X75000D01*
X74334Y322668D01*
Y320668D01*
Y322001D02*
X73001Y323334D01*
X76999Y324667D02*
Y327333D01*
X76333D01*
X73667Y324667D01*
X73001D01*
X76999Y328666D02*
Y331332D01*
X76333D01*
X73667Y328666D01*
X73001D01*
X83001Y320668D02*
X86999D01*
Y322668D01*
X86333Y323334D01*
X85000D01*
X84333Y322668D01*
Y320668D01*
Y322001D02*
X83001Y323334D01*
X86999Y324667D02*
Y327333D01*
X86333D01*
X83667Y324667D01*
X83001D01*
X86999Y331332D02*
X86333Y329999D01*
X85000Y328666D01*
X83667D01*
X83001Y329332D01*
Y330665D01*
X83667Y331332D01*
X84333D01*
X85000Y330665D01*
Y328666D01*
X93001Y320668D02*
X96999D01*
Y322668D01*
X96333Y323334D01*
X95000D01*
X94333Y322668D01*
Y320668D01*
Y322001D02*
X93001Y323334D01*
X96999Y324667D02*
Y327333D01*
X96333D01*
X93667Y324667D01*
X93001D01*
X96999Y331332D02*
Y328666D01*
X95000D01*
X95666Y329999D01*
Y330665D01*
X95000Y331332D01*
X93667D01*
X93001Y330665D01*
Y329332D01*
X93667Y328666D01*
X103001Y320668D02*
X106999D01*
Y322668D01*
X106333Y323334D01*
X105000D01*
X104333Y322668D01*
Y320668D01*
Y322001D02*
X103001Y323334D01*
X106999Y324667D02*
Y327333D01*
X106333D01*
X103667Y324667D01*
X103001D01*
Y330665D02*
X106999D01*
X105000Y328666D01*
Y331332D01*
X201001Y320668D02*
X204999D01*
Y322668D01*
X204333Y323334D01*
X203000D01*
X202333Y322668D01*
Y320668D01*
Y322001D02*
X201001Y323334D01*
X204999Y324667D02*
Y327333D01*
X204333D01*
X201667Y324667D01*
X201001D01*
X204333Y328666D02*
X204999Y329332D01*
Y330665D01*
X204333Y331332D01*
X203666D01*
X203000Y330665D01*
Y329999D01*
Y330665D01*
X202333Y331332D01*
X201667D01*
X201001Y330665D01*
Y329332D01*
X201667Y328666D01*
X211001Y320668D02*
X214999D01*
Y322668D01*
X214333Y323334D01*
X213000D01*
X212334Y322668D01*
Y320668D01*
Y322001D02*
X211001Y323334D01*
X214999Y324667D02*
Y327333D01*
X214333D01*
X211667Y324667D01*
X211001D01*
Y331332D02*
Y328666D01*
X213666Y331332D01*
X214333D01*
X214999Y330665D01*
Y329332D01*
X214333Y328666D01*
X221001Y320668D02*
X224999D01*
Y322668D01*
X224333Y323334D01*
X223000D01*
X222334Y322668D01*
Y320668D01*
Y322001D02*
X221001Y323334D01*
X224999Y324667D02*
Y327333D01*
X224333D01*
X221667Y324667D01*
X221001D01*
Y328666D02*
Y329999D01*
Y329332D01*
X224999D01*
X224333Y328666D01*
X231001Y320668D02*
X234999D01*
Y322668D01*
X234333Y323334D01*
X233000D01*
X232334Y322668D01*
Y320668D01*
Y322001D02*
X231001Y323334D01*
X234999Y324667D02*
Y327333D01*
X234333D01*
X231667Y324667D01*
X231001D01*
X234333Y328666D02*
X234999Y329332D01*
Y330665D01*
X234333Y331332D01*
X231667D01*
X231001Y330665D01*
Y329332D01*
X231667Y328666D01*
X234333D01*
X241001Y320668D02*
X244999D01*
Y322668D01*
X244333Y323334D01*
X243000D01*
X242334Y322668D01*
Y320668D01*
Y322001D02*
X241001Y323334D01*
X244999Y327333D02*
X244333Y326000D01*
X243000Y324667D01*
X241667D01*
X241001Y325334D01*
Y326666D01*
X241667Y327333D01*
X242334D01*
X243000Y326666D01*
Y324667D01*
X241667Y328666D02*
X241001Y329332D01*
Y330665D01*
X241667Y331332D01*
X244333D01*
X244999Y330665D01*
Y329332D01*
X244333Y328666D01*
X243666D01*
X243000Y329332D01*
Y331332D01*
X251001Y320668D02*
X254999D01*
Y322668D01*
X254333Y323334D01*
X253000D01*
X252334Y322668D01*
Y320668D01*
Y322001D02*
X251001Y323334D01*
X254999Y327333D02*
X254333Y326000D01*
X253000Y324667D01*
X251667D01*
X251001Y325334D01*
Y326666D01*
X251667Y327333D01*
X252334D01*
X253000Y326666D01*
Y324667D01*
X254333Y328666D02*
X254999Y329332D01*
Y330665D01*
X254333Y331332D01*
X253666D01*
X253000Y330665D01*
X252334Y331332D01*
X251667D01*
X251001Y330665D01*
Y329332D01*
X251667Y328666D01*
X252334D01*
X253000Y329332D01*
X253666Y328666D01*
X254333D01*
X253000Y329332D02*
Y330665D01*
X261001Y320668D02*
X264999D01*
Y322668D01*
X264333Y323334D01*
X263000D01*
X262333Y322668D01*
Y320668D01*
Y322001D02*
X261001Y323334D01*
X264999Y327333D02*
X264333Y326000D01*
X263000Y324667D01*
X261667D01*
X261001Y325333D01*
Y326666D01*
X261667Y327333D01*
X262333D01*
X263000Y326666D01*
Y324667D01*
X264999Y328666D02*
Y331332D01*
X264333D01*
X261667Y328666D01*
X261001D01*
X271001Y320668D02*
X274999D01*
Y322668D01*
X274333Y323334D01*
X273000D01*
X272334Y322668D01*
Y320668D01*
Y322001D02*
X271001Y323334D01*
X274999Y327333D02*
X274333Y326000D01*
X273000Y324667D01*
X271667D01*
X271001Y325334D01*
Y326666D01*
X271667Y327333D01*
X272334D01*
X273000Y326666D01*
Y324667D01*
X274999Y331332D02*
X274333Y329999D01*
X273000Y328666D01*
X271667D01*
X271001Y329332D01*
Y330665D01*
X271667Y331332D01*
X272334D01*
X273000Y330665D01*
Y328666D01*
X113001Y320668D02*
X116999D01*
Y322668D01*
X116333Y323334D01*
X115000D01*
X114333Y322668D01*
Y320668D01*
Y322001D02*
X113001Y323334D01*
X116999Y327333D02*
X116333Y326000D01*
X115000Y324667D01*
X113667D01*
X113001Y325333D01*
Y326666D01*
X113667Y327333D01*
X114333D01*
X115000Y326666D01*
Y324667D01*
X116999Y331332D02*
Y328666D01*
X115000D01*
X115666Y329999D01*
Y330665D01*
X115000Y331332D01*
X113667D01*
X113001Y330665D01*
Y329332D01*
X113667Y328666D01*
X123001Y320668D02*
X126999D01*
Y322668D01*
X126333Y323334D01*
X125000D01*
X124334Y322668D01*
Y320668D01*
Y322001D02*
X123001Y323334D01*
X126999Y327333D02*
X126333Y326000D01*
X125000Y324667D01*
X123667D01*
X123001Y325334D01*
Y326666D01*
X123667Y327333D01*
X124334D01*
X125000Y326666D01*
Y324667D01*
X123001Y330665D02*
X126999D01*
X125000Y328666D01*
Y331332D01*
X133001Y320668D02*
X136999D01*
Y322668D01*
X136333Y323334D01*
X135000D01*
X134334Y322668D01*
Y320668D01*
Y322001D02*
X133001Y323334D01*
X136999Y327333D02*
X136333Y326000D01*
X135000Y324667D01*
X133667D01*
X133001Y325333D01*
Y326666D01*
X133667Y327333D01*
X134334D01*
X135000Y326666D01*
Y324667D01*
X136333Y328666D02*
X136999Y329332D01*
Y330665D01*
X136333Y331332D01*
X135666D01*
X135000Y330665D01*
Y329999D01*
Y330665D01*
X134334Y331332D01*
X133667D01*
X133001Y330665D01*
Y329332D01*
X133667Y328666D01*
X143001Y321668D02*
X146999D01*
Y323668D01*
X146333Y324334D01*
X145000D01*
X144334Y323668D01*
Y321668D01*
Y323001D02*
X143001Y324334D01*
X146999Y328333D02*
X146333Y327000D01*
X145000Y325667D01*
X143667D01*
X143001Y326333D01*
Y327666D01*
X143667Y328333D01*
X144334D01*
X145000Y327666D01*
Y325667D01*
X143001Y332332D02*
Y329666D01*
X145666Y332332D01*
X146333D01*
X146999Y331665D01*
Y330332D01*
X146333Y329666D01*
X153001Y321668D02*
X156999D01*
Y323668D01*
X156333Y324334D01*
X155000D01*
X154333Y323668D01*
Y321668D01*
Y323001D02*
X153001Y324334D01*
X156999Y328333D02*
X156333Y327000D01*
X155000Y325667D01*
X153667D01*
X153001Y326333D01*
Y327666D01*
X153667Y328333D01*
X154333D01*
X155000Y327666D01*
Y325667D01*
X153001Y329666D02*
Y330999D01*
Y330332D01*
X156999D01*
X156333Y329666D01*
X163001Y321668D02*
X166999D01*
Y323668D01*
X166333Y324334D01*
X165000D01*
X164333Y323668D01*
Y321668D01*
Y323001D02*
X163001Y324334D01*
X166999Y328333D02*
X166333Y327000D01*
X165000Y325667D01*
X163667D01*
X163001Y326334D01*
Y327666D01*
X163667Y328333D01*
X164333D01*
X165000Y327666D01*
Y325667D01*
X166333Y329666D02*
X166999Y330332D01*
Y331665D01*
X166333Y332332D01*
X163667D01*
X163001Y331665D01*
Y330332D01*
X163667Y329666D01*
X166333D01*
X173001Y321668D02*
X176999D01*
Y323668D01*
X176333Y324334D01*
X175000D01*
X174334Y323668D01*
Y321668D01*
Y323001D02*
X173001Y324334D01*
X176999Y328333D02*
Y325667D01*
X175000D01*
X175666Y327000D01*
Y327666D01*
X175000Y328333D01*
X173667D01*
X173001Y327666D01*
Y326333D01*
X173667Y325667D01*
Y329666D02*
X173001Y330332D01*
Y331665D01*
X173667Y332332D01*
X176333D01*
X176999Y331665D01*
Y330332D01*
X176333Y329666D01*
X175666D01*
X175000Y330332D01*
Y332332D01*
X183001Y321668D02*
X186999D01*
Y323668D01*
X186333Y324334D01*
X185000D01*
X184334Y323668D01*
Y321668D01*
Y323001D02*
X183001Y324334D01*
X186999Y328333D02*
Y325667D01*
X185000D01*
X185666Y327000D01*
Y327666D01*
X185000Y328333D01*
X183667D01*
X183001Y327666D01*
Y326333D01*
X183667Y325667D01*
X186333Y329666D02*
X186999Y330332D01*
Y331665D01*
X186333Y332332D01*
X185666D01*
X185000Y331665D01*
X184334Y332332D01*
X183667D01*
X183001Y331665D01*
Y330332D01*
X183667Y329666D01*
X184334D01*
X185000Y330332D01*
X185666Y329666D01*
X186333D01*
X185000Y330332D02*
Y331665D01*
X474666Y181333D02*
X475333Y181999D01*
X476665D01*
X477332Y181333D01*
Y178667D01*
X476665Y178001D01*
X475333D01*
X474666Y178667D01*
X473333Y178001D02*
X472000D01*
X472667D01*
Y181999D01*
X473333Y181333D01*
X470001Y178001D02*
X468668D01*
X469335D01*
Y181999D01*
X470001Y181333D01*
X465333Y143333D02*
X465999Y143999D01*
X467332D01*
X467998Y143333D01*
Y140667D01*
X467332Y140001D01*
X465999D01*
X465333Y140667D01*
X464000Y140001D02*
X462667D01*
X463333D01*
Y143999D01*
X464000Y143333D01*
X460667D02*
X460001Y143999D01*
X458668D01*
X458002Y143333D01*
Y140667D01*
X458668Y140001D01*
X460001D01*
X460667Y140667D01*
Y143333D01*
X483666Y136333D02*
X484333Y136999D01*
X485666D01*
X486332Y136333D01*
Y133667D01*
X485666Y133001D01*
X484333D01*
X483666Y133667D01*
X482334D02*
X481667Y133001D01*
X480334D01*
X479668Y133667D01*
Y136333D01*
X480334Y136999D01*
X481667D01*
X482334Y136333D01*
Y135667D01*
X481667Y135000D01*
X479668D01*
X496666Y170333D02*
X497333Y170999D01*
X498666D01*
X499332Y170333D01*
Y167667D01*
X498666Y167001D01*
X497333D01*
X496666Y167667D01*
X495333Y170333D02*
X494667Y170999D01*
X493334D01*
X492668Y170333D01*
Y169667D01*
X493334Y169000D01*
X492668Y168333D01*
Y167667D01*
X493334Y167001D01*
X494667D01*
X495333Y167667D01*
Y168333D01*
X494667Y169000D01*
X495333Y169667D01*
Y170333D01*
X494667Y169000D02*
X493334D01*
D15*
X360500Y333600D02*
Y337700D01*
X355500Y333600D02*
X360500D01*
X355500D02*
Y337800D01*
Y340300D02*
Y344400D01*
X360500D01*
Y340300D02*
Y344400D01*
X370500Y333600D02*
Y337700D01*
X365500Y333600D02*
X370500D01*
X365500D02*
Y337800D01*
Y340300D02*
Y344400D01*
X370500D01*
Y340300D02*
Y344400D01*
X380500Y333600D02*
Y337700D01*
X375500Y333600D02*
X380500D01*
X375500D02*
Y337800D01*
Y340300D02*
Y344400D01*
X380500D01*
Y340300D02*
Y344400D01*
X390500Y333600D02*
Y337700D01*
X385500Y333600D02*
X390500D01*
X385500D02*
Y337800D01*
Y340300D02*
Y344400D01*
X390500D01*
Y340300D02*
Y344400D01*
X400500Y333600D02*
Y337700D01*
X395500Y333600D02*
X400500D01*
X395500D02*
Y337800D01*
Y340300D02*
Y344400D01*
X400500D01*
Y340300D02*
Y344400D01*
X332500Y340300D02*
Y344400D01*
X327500D02*
X332500D01*
X327500Y340300D02*
Y344400D01*
Y333600D02*
Y337800D01*
Y333600D02*
X332500D01*
Y337700D01*
X312500Y340300D02*
Y344400D01*
X307500D02*
X312500D01*
X307500Y340300D02*
Y344400D01*
Y333600D02*
Y337800D01*
Y333600D02*
X312500D01*
Y337700D01*
X322500Y340300D02*
Y344400D01*
X317500D02*
X322500D01*
X317500Y340300D02*
Y344400D01*
Y333600D02*
Y337800D01*
Y333600D02*
X322500D01*
Y337700D01*
X292500Y340300D02*
Y344400D01*
X287500D02*
X292500D01*
X287500Y340300D02*
Y344400D01*
Y333600D02*
Y337800D01*
Y333600D02*
X292500D01*
Y337700D01*
X302500Y340300D02*
Y344400D01*
X297500D02*
X302500D01*
X297500Y340300D02*
Y344400D01*
Y333600D02*
Y337800D01*
Y333600D02*
X302500D01*
Y337700D01*
X275500Y340300D02*
Y344400D01*
X270500D02*
X275500D01*
X270500Y340300D02*
Y344400D01*
Y333600D02*
Y337800D01*
Y333600D02*
X275500D01*
Y337700D01*
X255500Y340300D02*
Y344400D01*
X250500D02*
X255500D01*
X250500Y340300D02*
Y344400D01*
Y333600D02*
Y337800D01*
Y333600D02*
X255500D01*
Y337700D01*
X225500Y340300D02*
Y344400D01*
X220500D02*
X225500D01*
X220500Y340300D02*
Y344400D01*
Y333600D02*
Y337800D01*
Y333600D02*
X225500D01*
Y337700D01*
X265500Y340300D02*
Y344400D01*
X260500D02*
X265500D01*
X260500Y340300D02*
Y344400D01*
Y333600D02*
Y337800D01*
Y333600D02*
X265500D01*
Y337700D01*
X245500Y340300D02*
Y344400D01*
X240500D02*
X245500D01*
X240500Y340300D02*
Y344400D01*
Y333600D02*
Y337800D01*
Y333600D02*
X245500D01*
Y337700D01*
X215500Y340300D02*
Y344400D01*
X210500D02*
X215500D01*
X210500Y340300D02*
Y344400D01*
Y333600D02*
Y337800D01*
Y333600D02*
X215500D01*
Y337700D01*
X205500Y340300D02*
Y344400D01*
X200500D02*
X205500D01*
X200500Y340300D02*
Y344400D01*
Y333600D02*
Y337800D01*
Y333600D02*
X205500D01*
Y337700D01*
X235500Y340300D02*
Y344400D01*
X230500D02*
X235500D01*
X230500Y340300D02*
Y344400D01*
Y333600D02*
Y337800D01*
Y333600D02*
X235500D01*
Y337700D01*
X157500Y340300D02*
Y344400D01*
X152500D02*
X157500D01*
X152500Y340300D02*
Y344400D01*
Y333600D02*
Y337800D01*
Y333600D02*
X157500D01*
Y337700D01*
X147500Y340300D02*
Y344400D01*
X142500D02*
X147500D01*
X142500Y340300D02*
Y344400D01*
Y333600D02*
Y337800D01*
Y333600D02*
X147500D01*
Y337700D01*
X167500Y340300D02*
Y344400D01*
X162500D02*
X167500D01*
X162500Y340300D02*
Y344400D01*
Y333600D02*
Y337800D01*
Y333600D02*
X167500D01*
Y337700D01*
X177500Y340300D02*
Y344400D01*
X172500D02*
X177500D01*
X172500Y340300D02*
Y344400D01*
Y333600D02*
Y337800D01*
Y333600D02*
X177500D01*
Y337700D01*
X187500Y340300D02*
Y344400D01*
X182500D02*
X187500D01*
X182500Y340300D02*
Y344400D01*
Y333600D02*
Y337800D01*
Y333600D02*
X187500D01*
Y337700D01*
X137500Y340300D02*
Y344400D01*
X132500D02*
X137500D01*
X132500Y340300D02*
Y344400D01*
Y333600D02*
Y337800D01*
Y333600D02*
X137500D01*
Y337700D01*
X127500Y340300D02*
Y344400D01*
X122500D02*
X127500D01*
X122500Y340300D02*
Y344400D01*
Y333600D02*
Y337800D01*
Y333600D02*
X127500D01*
Y337700D01*
X117500Y340300D02*
Y344400D01*
X112500D02*
X117500D01*
X112500Y340300D02*
Y344400D01*
Y333600D02*
Y337800D01*
Y333600D02*
X117500D01*
Y337700D01*
X57500Y340300D02*
Y344400D01*
X52500D02*
X57500D01*
X52500Y340300D02*
Y344400D01*
Y333600D02*
Y337800D01*
Y333600D02*
X57500D01*
Y337700D01*
X47500Y340150D02*
Y344250D01*
X42500D02*
X47500D01*
X42500Y340150D02*
Y344250D01*
Y333450D02*
Y337650D01*
Y333450D02*
X47500D01*
Y337550D01*
X67500Y340300D02*
Y344400D01*
X62500D02*
X67500D01*
X62500Y340300D02*
Y344400D01*
Y333600D02*
Y337800D01*
Y333600D02*
X67500D01*
Y337700D01*
X77500Y340300D02*
Y344400D01*
X72500D02*
X77500D01*
X72500Y340300D02*
Y344400D01*
Y333600D02*
Y337800D01*
Y333600D02*
X77500D01*
Y337700D01*
X87500Y340150D02*
Y344250D01*
X82500D02*
X87500D01*
X82500Y340150D02*
Y344250D01*
Y333450D02*
Y337650D01*
Y333450D02*
X87500D01*
Y337550D01*
X107500Y340300D02*
Y344400D01*
X102500D02*
X107500D01*
X102500Y340300D02*
Y344400D01*
Y333600D02*
Y337800D01*
Y333600D02*
X107500D01*
Y337700D01*
X97500Y340300D02*
Y344400D01*
X92500D02*
X97500D01*
X92500Y340300D02*
Y344400D01*
Y333600D02*
Y337800D01*
Y333600D02*
X97500D01*
Y337700D01*
X476600Y143500D02*
X480700D01*
X476600Y138500D02*
Y143500D01*
Y138500D02*
X480700D01*
X483200D02*
X487400D01*
Y143500D01*
X483300D02*
X487400D01*
X460500Y145600D02*
Y149700D01*
Y145600D02*
X465500D01*
Y149700D01*
Y152200D02*
Y156400D01*
X460500D02*
X465500D01*
X460500Y152300D02*
Y156400D01*
X499500Y161300D02*
Y165400D01*
X494500D02*
X499500D01*
X494500Y161300D02*
Y165400D01*
Y154600D02*
Y158800D01*
Y154600D02*
X499500D01*
Y158700D01*
X475300Y171500D02*
X479400D01*
Y176500D01*
X475300D02*
X479400D01*
X468600D02*
X472800D01*
X468600Y171500D02*
Y176500D01*
Y171500D02*
X472700D01*
M02*
