G04*
G04 #@! TF.GenerationSoftware,Altium Limited,Altium Designer,22.3.1 (43)*
G04*
G04 Layer_Physical_Order=1*
G04 Layer_Color=255*
%FSLAX25Y25*%
%MOIN*%
G70*
G04*
G04 #@! TF.SameCoordinates,F15A7EA6-3F3C-4714-8FA7-CF7AF9E4284A*
G04*
G04*
G04 #@! TF.FilePolarity,Positive*
G04*
G01*
G75*
%ADD14C,0.01000*%
%ADD17R,0.03150X0.03150*%
%ADD18R,0.03740X0.03150*%
%ADD19R,0.03150X0.03740*%
%ADD20R,0.07480X0.01713*%
%ADD21R,0.05807X0.01772*%
%ADD22R,0.06000X0.12000*%
%ADD23R,0.02362X0.05807*%
%ADD24R,0.05807X0.02362*%
%ADD25R,0.09055X0.01968*%
%ADD26R,0.09843X0.07874*%
%ADD27R,0.07087X0.01772*%
%ADD28R,0.06693X0.01772*%
%ADD29R,0.04724X0.09843*%
%ADD51C,0.04000*%
%ADD52C,0.07087*%
%ADD53R,0.07087X0.07087*%
%ADD54R,0.07087X0.07087*%
%ADD55C,0.05906*%
%ADD56R,0.05906X0.05906*%
%ADD57C,0.03543*%
%ADD58C,0.20000*%
%ADD59C,0.05000*%
D14*
X62597Y227000D02*
X71000D01*
X62011Y227586D02*
X62597Y227000D01*
X62011Y249914D02*
X62597Y250500D01*
X159414D01*
X62011Y227586D02*
Y249914D01*
X499000Y196150D02*
X510000D01*
X470000Y30000D02*
Y75000D01*
X475000Y80000D01*
X510000D01*
X431000Y104000D02*
X465000D01*
X473000Y112000D01*
Y119850D01*
X424000Y152000D02*
X435850D01*
X448000Y152586D02*
Y154839D01*
X448586Y155425D02*
X463315D01*
X448000Y154839D02*
X448586Y155425D01*
X402000Y282000D02*
Y296850D01*
X409000Y255086D02*
Y270000D01*
Y296850D01*
X408414Y254500D02*
X409000Y255086D01*
X437000Y265000D02*
Y296850D01*
X416000Y278000D02*
Y296850D01*
X516150Y166000D02*
X523000D01*
X526235Y121765D02*
X527000Y121000D01*
X524649Y121765D02*
X526235D01*
X524414Y122000D02*
X524649Y121765D01*
X518000Y121414D02*
X518586Y122000D01*
X524414D01*
X518000Y119749D02*
Y121414D01*
X516000Y172150D02*
Y180000D01*
Y172150D02*
X516150Y172000D01*
X490000Y63150D02*
X490150Y63000D01*
X499000D01*
X479000Y110000D02*
Y119850D01*
X472000Y103000D02*
X479000Y110000D01*
X440000Y30000D02*
Y84914D01*
X499495Y101243D02*
X518000Y119749D01*
X483621Y85500D02*
X499365Y101243D01*
X499495D01*
X513996Y119987D02*
Y134410D01*
X498874Y102743D02*
X516000Y119870D01*
Y126000D02*
X520000Y130000D01*
X516000Y119870D02*
Y126000D01*
X498252Y104244D02*
X513996Y119987D01*
Y134410D02*
X514586Y135000D01*
X433000Y87000D02*
X483000D01*
X440586Y85500D02*
X483621D01*
X440000Y84914D02*
X440586Y85500D01*
X520000Y130000D02*
X527000D01*
X498743Y102743D02*
X498874D01*
X483000Y87000D02*
X498743Y102743D01*
X498122Y104244D02*
X498252D01*
X482379Y88500D02*
X498122Y104244D01*
X424647Y88500D02*
X482379D01*
X430000Y84000D02*
X433000Y87000D01*
X430000Y30000D02*
Y84000D01*
X485000Y106000D02*
Y119850D01*
X482765Y103765D02*
X485000Y106000D01*
X480000Y103000D02*
X480765Y103765D01*
X482765D01*
X415000Y261000D02*
X421000D01*
X423000Y263000D02*
Y297000D01*
X421000Y261000D02*
X423000Y263000D01*
X393000Y268387D02*
Y313414D01*
X382812Y277398D02*
X388000Y282586D01*
X389414Y311000D02*
X390000Y310414D01*
X363976Y277398D02*
X382812D01*
X388000Y282586D02*
Y308914D01*
X321500Y312500D02*
X390914D01*
X386657Y262043D02*
X393000Y268387D01*
X391500Y272626D02*
Y311914D01*
X384279Y272280D02*
X390000Y278000D01*
Y310414D01*
X363976Y272280D02*
X384279D01*
X314000Y311000D02*
X389414D01*
X363976Y267161D02*
X386035D01*
X331000Y314000D02*
X392414D01*
X363976Y262043D02*
X386657D01*
X386035Y267161D02*
X391500Y272626D01*
X390914Y312500D02*
X391500Y311914D01*
X392414Y314000D02*
X393000Y313414D01*
X350586Y256000D02*
X403414D01*
X404000Y256586D01*
Y261000D01*
X350000Y256586D02*
X350586Y256000D01*
X350000Y256586D02*
Y278913D01*
X348957Y279957D02*
X350000Y278913D01*
X336024Y279957D02*
X348957D01*
X335862Y275000D02*
X336024Y274839D01*
X312000Y275000D02*
X335862D01*
X308000Y271000D02*
X312000Y275000D01*
X308000Y255086D02*
Y271000D01*
X308586Y254500D02*
X408414D01*
X308000Y255086D02*
X308586Y254500D01*
X305914Y265000D02*
X306500Y264414D01*
X270000Y265000D02*
X305914D01*
X306500Y253586D02*
Y264414D01*
X279000Y263000D02*
X304414D01*
X305000Y262414D01*
Y252964D02*
Y262414D01*
X437000Y303150D02*
Y328914D01*
X436414Y329500D02*
X437000Y328914D01*
X408586Y329500D02*
X436414D01*
X408000Y330086D02*
X408586Y329500D01*
X408000Y330086D02*
Y334850D01*
X430414Y328000D02*
X431000Y327414D01*
X399000Y328000D02*
X430414D01*
X431000Y304150D02*
Y327414D01*
X430000Y303150D02*
X431000Y304150D01*
X408000Y341150D02*
Y348000D01*
X40150Y207000D02*
X41000Y207850D01*
X10000Y207000D02*
X40150D01*
X315610Y269610D02*
X335913D01*
X336024Y269721D01*
X315500Y269500D02*
X315610Y269610D01*
X255614Y258484D02*
X256000Y258098D01*
Y250000D02*
Y258098D01*
X253976Y258484D02*
X255614D01*
X264000Y258000D02*
Y262205D01*
X262602Y263602D02*
X264000Y262205D01*
X253976Y263602D02*
X262602D01*
X264000Y271000D02*
X300000D01*
X253976Y268721D02*
X261720D01*
X264000Y271000D01*
X306821Y275820D02*
X307000Y276000D01*
X261002Y275820D02*
X306821D01*
X259020Y273839D02*
X261002Y275820D01*
X201000Y249000D02*
X250000D01*
X293215Y242914D02*
X294043D01*
X298129Y247000D02*
X380000D01*
X293129Y243000D02*
X293215Y242914D01*
X294043D02*
X298129Y247000D01*
X294250Y241000D02*
X298750Y245500D01*
X372000D01*
X376000Y241500D01*
X256000Y243000D02*
X293129D01*
X250000Y249000D02*
X256000Y243000D01*
X247500Y247500D02*
X254000Y241000D01*
X206500Y247500D02*
X247500D01*
X254000Y241000D02*
X294250D01*
X238650Y236000D02*
X348000D01*
X297000Y241000D02*
X307000D01*
X252000Y239000D02*
X295000D01*
X297000Y241000D01*
X307000Y240707D02*
X350207D01*
X253976Y273839D02*
X259020D01*
X260000Y218000D02*
X285000D01*
X238650D02*
X260000D01*
X205398Y263602D02*
X226024D01*
X205000Y264000D02*
X205398Y263602D01*
X257000Y230000D02*
X295000D01*
X238650D02*
X257000D01*
X265000Y224000D02*
X290000D01*
X238650D02*
X265000D01*
X215043Y278957D02*
X226024D01*
X210000Y284000D02*
X215043Y278957D01*
X263000Y206000D02*
X275000D01*
X238650D02*
X263000D01*
X225862Y274000D02*
X226024Y273839D01*
X209000Y274000D02*
X225862D01*
X253000Y212000D02*
X280000D01*
X238650D02*
X253000D01*
X195000Y269000D02*
X195140Y268860D01*
X225884D02*
X226024Y268721D01*
X195140Y268860D02*
X225884D01*
X195000Y172896D02*
X195356Y173252D01*
X195000Y163000D02*
Y172896D01*
X156299Y173252D02*
X196585D01*
X206586Y152000D02*
X232350D01*
X205414Y176000D02*
X206000Y175414D01*
Y152586D02*
X206586Y152000D01*
X206000Y152586D02*
Y175414D01*
X207414Y178252D02*
X208000Y177666D01*
X210586Y164000D02*
X232350D01*
X210000Y164586D02*
Y182666D01*
X208000Y158586D02*
Y177666D01*
X210000Y164586D02*
X210586Y164000D01*
X208586Y158000D02*
X232350D01*
X208000Y158586D02*
X208586Y158000D01*
X209414Y183252D02*
X210000Y182666D01*
X156299Y215748D02*
X170000D01*
X193701D01*
X194701Y133748D02*
X195000Y134047D01*
X481136Y91500D02*
X503000Y113364D01*
X479893Y94500D02*
X490000Y104607D01*
X424000Y90000D02*
X481757D01*
X480515Y93000D02*
X497000Y109485D01*
X403586Y91500D02*
X481136D01*
X481757Y90000D02*
X508000Y116243D01*
Y118850D02*
X509000Y119850D01*
X508000Y116243D02*
Y118850D01*
X420000Y93000D02*
X480515D01*
X423586Y94500D02*
X479893D01*
X490000Y104607D02*
Y118850D01*
X503000Y113364D02*
Y119850D01*
X497000Y109485D02*
Y119850D01*
X423500Y61500D02*
Y87353D01*
X424647Y88500D01*
X420000Y58000D02*
X423500Y61500D01*
X420000Y30000D02*
Y58000D01*
X550870Y139586D02*
Y176544D01*
X528000Y139000D02*
X550284D01*
X550870Y139586D01*
X524000Y135000D02*
X528000Y139000D01*
X423000Y95086D02*
X423586Y94500D01*
X403000Y92086D02*
X403586Y91500D01*
X416000Y97000D02*
X420000Y93000D01*
X403000Y92086D02*
Y97000D01*
X417000Y83000D02*
X424000Y90000D01*
X423000Y95086D02*
Y102000D01*
X514586Y135000D02*
X524000D01*
X527586Y85414D02*
X529172Y87000D01*
X544000D01*
X531000Y157850D02*
X536000D01*
X527150D02*
X531000D01*
X549914Y177500D02*
X550870Y176544D01*
X535500Y177500D02*
X549914D01*
X531000Y173000D02*
X535500Y177500D01*
X531000Y157850D02*
Y173000D01*
X535414Y153000D02*
X536000Y153586D01*
X531000Y153000D02*
X535414D01*
X536000Y153586D02*
Y157850D01*
X548000Y143586D02*
Y157850D01*
X547414Y143000D02*
X548000Y143586D01*
X525000Y143000D02*
X547414D01*
X516150Y148000D02*
X520000D01*
X525000Y143000D01*
X528000Y148000D02*
X540414D01*
X542235Y148235D02*
X543000Y149000D01*
X540414Y148000D02*
X540649Y148235D01*
X542235D01*
X522000Y154000D02*
X528000Y148000D01*
X542000Y157850D02*
X543000Y156850D01*
X542000Y150000D02*
X543000Y149000D01*
Y150848D02*
Y156850D01*
X542152Y150000D02*
X543000Y150848D01*
X96000Y121000D02*
X105082D01*
X94000Y123000D02*
X96000Y121000D01*
X80000Y249000D02*
X161414D01*
X76000Y245000D02*
X80000Y249000D01*
X78586Y239000D02*
X86379Y246793D01*
X162707D01*
X67000Y239000D02*
X78586D01*
X162707Y246793D02*
X164000Y248086D01*
X87000Y245293D02*
X165707D01*
X81950Y236000D02*
X112850D01*
X79000Y63000D02*
Y233050D01*
X77500Y233672D02*
X85828Y242000D01*
X77500Y61777D02*
Y233672D01*
X79000Y233050D02*
X81950Y236000D01*
X85828Y242000D02*
X112850D01*
X76000Y234293D02*
X87000Y245293D01*
X76000Y107000D02*
Y234293D01*
X165707Y245293D02*
X167000Y246586D01*
Y273000D01*
X164000Y248086D02*
Y268135D01*
X80000Y62000D02*
X87000D01*
X112350D01*
X99000Y116000D02*
X99082Y115918D01*
X98414Y116586D02*
X99000Y116000D01*
X73000Y104000D02*
X76000Y107000D01*
X72000Y104000D02*
X73000D01*
X159414Y250500D02*
X160000Y251086D01*
X162000Y249586D02*
Y263017D01*
X161414Y249000D02*
X162000Y249586D01*
X160000Y251086D02*
Y257898D01*
X139000Y255000D02*
Y255605D01*
X126024Y258484D02*
X136120D01*
X139000Y255605D01*
X159414Y258484D02*
X160000Y257898D01*
X153976Y258484D02*
X159414D01*
X153976Y263602D02*
X161414D01*
X162000Y263017D01*
X60414Y142484D02*
X61000Y141899D01*
Y134000D02*
Y141899D01*
X53780Y142484D02*
X60414D01*
X45586Y133000D02*
X60000D01*
X61000Y134000D01*
X39000Y160918D02*
Y161000D01*
X53780Y165516D02*
X61000D01*
Y163000D02*
Y165516D01*
X163414Y268721D02*
X164000Y268135D01*
X153976Y268721D02*
X163414D01*
X166161Y273839D02*
X167000Y273000D01*
X153976Y273839D02*
X166161D01*
X114140Y268860D02*
X125884D01*
X114000Y269000D02*
X114140Y268860D01*
X113000Y282000D02*
X116000Y279000D01*
X125862Y274000D02*
X126024Y273839D01*
X104000Y274000D02*
X125862D01*
X101000Y127000D02*
X101500Y127500D01*
X100235Y127765D02*
X101000Y127000D01*
X104000Y134000D02*
X112350D01*
X98586D02*
X104000D01*
X125884Y268860D02*
X126024Y268721D01*
X104000Y264000D02*
X104398Y263602D01*
X126024D01*
X119150Y242000D02*
X140414D01*
X141000Y228838D02*
Y241414D01*
X119150Y236000D02*
X137414D01*
X138000Y226334D02*
Y235414D01*
X137414Y236000D02*
X138000Y235414D01*
X140414Y242000D02*
X141000Y241414D01*
X116000Y279000D02*
X125980D01*
X126024Y278957D01*
X92586Y303000D02*
X103000D01*
X92000Y274586D02*
Y302414D01*
X92586Y303000D01*
X74138Y274000D02*
X91414D01*
X92000Y274586D01*
X73976Y273839D02*
X74138Y274000D01*
X45943Y273919D02*
X46024Y273839D01*
X23081Y273919D02*
X45943D01*
X23000Y274000D02*
X23081Y273919D01*
X25000Y281000D02*
Y286000D01*
Y281000D02*
X29602Y276398D01*
X46024D01*
X45884Y268860D02*
X46024Y268721D01*
X36140Y268860D02*
X45884D01*
X36000Y269000D02*
X36140Y268860D01*
X29000Y263000D02*
X29602Y263602D01*
X46024D01*
X82721Y268721D02*
X83000Y269000D01*
X73976Y268721D02*
X82721D01*
X88602Y263602D02*
X89000Y264000D01*
X73976Y263602D02*
X88602D01*
X80793Y230707D02*
X112143D01*
X86000Y224000D02*
X112850D01*
X83000D02*
X86000D01*
X82484Y258484D02*
X83000Y259000D01*
X73976Y258484D02*
X82484D01*
X290000Y321000D02*
Y334850D01*
X51914Y301000D02*
X54500Y298414D01*
X47000Y301000D02*
X51914D01*
X96000Y200000D02*
X112850D01*
X89000D02*
X96000D01*
X523000Y244000D02*
Y251748D01*
X525000Y253748D01*
Y260414D01*
X514000Y261000D02*
X524414D01*
X525000Y260414D01*
X511000Y258000D02*
X514000Y261000D01*
X430586Y258000D02*
X511000D01*
X430000Y258586D02*
X430586Y258000D01*
X430000Y258586D02*
Y296850D01*
X381000Y231000D02*
Y246000D01*
X380000Y247000D02*
X381000Y246000D01*
X343018Y227500D02*
Y228018D01*
X341036Y230000D02*
X343018Y228018D01*
X290000Y224000D02*
X331000D01*
X344914D02*
X345500Y223414D01*
X331000Y224000D02*
X344914D01*
X345500Y162000D02*
Y223414D01*
X376000Y215000D02*
Y241500D01*
X411000Y116000D02*
Y117000D01*
X460414Y114000D02*
X461000Y114586D01*
X413000Y114000D02*
X460414D01*
X411000Y116000D02*
X413000Y114000D01*
X461000Y114586D02*
Y119850D01*
X466000Y111000D02*
X467000Y112000D01*
X407000Y111000D02*
X466000D01*
X467000Y112000D02*
Y119850D01*
X343278Y227757D02*
X346414D01*
X347000Y227172D01*
Y165000D02*
Y227172D01*
X350207Y240707D02*
X350500Y240414D01*
X306465Y251500D02*
X469157D01*
X305843Y250000D02*
X468536D01*
X307086Y253000D02*
X469778D01*
X306500Y253586D02*
X307086Y253000D01*
X305000Y252964D02*
X306465Y251500D01*
X305222Y248500D02*
X467914D01*
X298722Y255000D02*
X305222Y248500D01*
X303000Y252843D02*
Y260414D01*
Y252843D02*
X305843Y250000D01*
X468536D02*
X470207Y248328D01*
X469778Y253000D02*
X476000Y246778D01*
X469157Y251500D02*
X471707Y248950D01*
X467914Y248500D02*
X468707Y247707D01*
X193701Y241701D02*
X201000Y249000D01*
X290000Y255000D02*
X298722D01*
X203000Y244000D02*
X206500Y247500D01*
X249000Y242000D02*
X252000Y239000D01*
X238650Y242000D02*
X249000D01*
X302414Y261000D02*
X303000Y260414D01*
X281586Y261000D02*
X302414D01*
X281000Y260414D02*
X281586Y261000D01*
X281000Y253000D02*
Y260414D01*
X275000Y259000D02*
X279000Y263000D01*
X470000Y207757D02*
X471707Y209465D01*
X470000Y196150D02*
Y207757D01*
X470207Y210086D02*
Y248328D01*
X464000Y196150D02*
Y203879D01*
X470207Y210086D01*
X471707Y209465D02*
Y248950D01*
X193701Y230748D02*
Y241701D01*
X333433Y178516D02*
X334035D01*
X334421Y178902D01*
Y184414D01*
X333835Y185000D02*
X334421Y184414D01*
X310000Y185000D02*
X333835D01*
X387000Y140000D02*
Y149414D01*
X386414Y150000D02*
X387000Y149414D01*
X371086Y140000D02*
X387000D01*
X383000Y150000D02*
X386414D01*
X382000Y151000D02*
X383000Y150000D01*
X382000Y151000D02*
Y163000D01*
X370500Y140586D02*
X371086Y140000D01*
X370500Y140586D02*
Y187500D01*
X434850Y157000D02*
X435850Y158000D01*
X389000Y157000D02*
X434850D01*
X383000Y164000D02*
X435850D01*
X382000Y163000D02*
X383000Y164000D01*
X379000Y170000D02*
X435850D01*
X376000Y167000D02*
X379000Y170000D01*
X376000Y145000D02*
Y167000D01*
X333386Y116516D02*
X333433D01*
X333000Y116902D02*
X333386Y116516D01*
X333000Y116902D02*
Y123000D01*
X346000Y91000D02*
X346688D01*
X349173Y93484D02*
X356567D01*
X346688Y91000D02*
X349173Y93484D01*
X356386Y155484D02*
X356567D01*
X356000Y155098D02*
X356386Y155484D01*
X356000Y145000D02*
Y155098D01*
X345000Y152000D02*
Y153000D01*
X334019Y151000D02*
X344000D01*
X333433Y151586D02*
Y155484D01*
Y151586D02*
X334019Y151000D01*
X344000D02*
X345000Y152000D01*
X356567Y178516D02*
X356614D01*
X357000Y178902D01*
Y188000D01*
X358000Y200000D02*
Y235000D01*
Y200000D02*
X370500Y187500D01*
X358000Y235000D02*
X363000Y240000D01*
X369000Y135586D02*
Y175371D01*
X356567Y175957D02*
X368414D01*
X369000Y175371D01*
X344602Y264602D02*
X345000Y265000D01*
X336024Y264602D02*
X344602D01*
X392000Y142000D02*
X396000Y146000D01*
X435850D01*
X364500Y140086D02*
Y157414D01*
X366914Y136500D02*
X367500Y137086D01*
Y167694D01*
X366914Y168280D02*
X367500Y167694D01*
X365414Y138000D02*
X366000Y138586D01*
Y165135D01*
X368414Y135000D02*
X369000Y135586D01*
X365414Y165720D02*
X366000Y165135D01*
X363914Y139500D02*
X364500Y140086D01*
X363914Y158000D02*
X364500Y157414D01*
X356567Y168280D02*
X366914D01*
X392000Y45121D02*
Y142000D01*
X256121Y139500D02*
X363914D01*
X261586Y135000D02*
X368414D01*
X356567Y165720D02*
X365414D01*
X260086Y136500D02*
X366914D01*
X258086Y138000D02*
X365414D01*
X356610Y158000D02*
X363914D01*
X468707Y210707D02*
Y247707D01*
X330000Y315000D02*
X331000Y314000D01*
X330000Y315000D02*
Y334850D01*
X300000Y313000D02*
X303500Y309500D01*
X300000Y313000D02*
Y334850D01*
X303500Y309500D02*
X387414D01*
X320000Y314000D02*
X321500Y312500D01*
X320000Y314000D02*
Y334850D01*
X387414Y309500D02*
X388000Y308914D01*
X310000Y315000D02*
X314000Y311000D01*
X310000Y315000D02*
Y334850D01*
X358000Y324000D02*
X364000Y318000D01*
X402414D01*
X403000Y317414D01*
X358000Y291000D02*
X362000Y295000D01*
X366000D01*
X358000Y281000D02*
Y291000D01*
Y281000D02*
X359043Y279957D01*
X363976D01*
X375516Y282516D02*
X378000Y285000D01*
Y290000D01*
X363976Y282516D02*
X375516D01*
X321586Y259414D02*
X322414D01*
X321000Y260000D02*
X321586Y259414D01*
X322414D02*
X322484Y259484D01*
X336024D01*
Y282516D02*
Y294976D01*
X336000Y295000D02*
X336024Y294976D01*
X166000Y282828D02*
Y289000D01*
X265000Y282101D02*
Y290000D01*
X264414Y281516D02*
X265000Y282101D01*
X253976Y281516D02*
X264414D01*
X248000Y293000D02*
X255000D01*
X247000Y292000D02*
X248000Y293000D01*
X247000Y279542D02*
X247586Y278957D01*
X247000Y279542D02*
Y292000D01*
X247586Y278957D02*
X253976D01*
X213000Y258000D02*
X213484Y258484D01*
X226024D01*
Y281516D02*
Y292976D01*
X226000Y293000D02*
X226024Y292976D01*
X164687Y281516D02*
X166000Y282828D01*
X153976Y281516D02*
X164687D01*
X147000Y290000D02*
X148000Y291000D01*
X155000D01*
X147000Y279542D02*
Y290000D01*
X147586Y278957D02*
X153976D01*
X147000Y279542D02*
X147586Y278957D01*
X126000Y281539D02*
Y291000D01*
Y281539D02*
X126024Y281516D01*
X46024Y248024D02*
Y258484D01*
X46000Y248000D02*
X46024Y248024D01*
X86000Y283000D02*
Y288000D01*
X73976Y281516D02*
X84516D01*
X86000Y283000D01*
X67000Y280000D02*
X68043Y278957D01*
X73976D01*
X67000Y280000D02*
Y292414D01*
X67586Y293000D02*
X75000D01*
X67000Y292414D02*
X67586Y293000D01*
X59000Y325776D02*
X65000Y331776D01*
Y319414D02*
X65586Y320000D01*
X55000Y327121D02*
X57500Y324621D01*
X55000Y271000D02*
X56000Y272000D01*
X58000Y261000D02*
X59000Y262000D01*
X63500Y320036D02*
X66465Y323000D01*
X57500Y266747D02*
Y324621D01*
X46024Y278957D02*
X53914D01*
X56914Y266161D02*
X57500Y266747D01*
X65000Y278000D02*
X66602Y276398D01*
X45000Y324000D02*
X55414D01*
X62000Y267000D02*
Y322414D01*
X53914Y278957D02*
X54500Y279542D01*
X59000Y262000D02*
Y325776D01*
X46067Y261000D02*
X58000D01*
X62000Y267000D02*
X62839Y266161D01*
X46024D02*
X56914D01*
X60500Y261629D02*
Y323621D01*
X55414Y324000D02*
X56000Y323414D01*
Y272000D02*
Y323414D01*
X65000Y278000D02*
Y319414D01*
X54500Y279542D02*
Y298414D01*
X63500Y271865D02*
Y320036D01*
Y271865D02*
X64086Y271280D01*
X60500Y323621D02*
X64077Y327199D01*
X46303Y271000D02*
X55000D01*
X62000Y322414D02*
X65284Y325698D01*
X60500Y261629D02*
X61086Y261043D01*
X46000Y291000D02*
X46024Y290976D01*
Y281516D02*
Y290976D01*
X45000Y324000D02*
Y334850D01*
X398000Y329000D02*
Y334850D01*
Y329000D02*
X399000Y328000D01*
X388000Y325586D02*
Y334850D01*
X388586Y325000D02*
X422414D01*
X388000Y325586D02*
X388586Y325000D01*
X423000Y303299D02*
Y324414D01*
X422414Y325000D02*
X423000Y324414D01*
X378000Y324000D02*
Y334850D01*
Y324000D02*
X380000Y322000D01*
X416414D01*
X417000Y321414D01*
Y304150D02*
Y321414D01*
X367142Y320586D02*
Y333992D01*
Y320586D02*
X367727Y320000D01*
X409000Y303150D02*
Y319414D01*
X408414Y320000D02*
X409000Y319414D01*
X367727Y320000D02*
X408414D01*
X367142Y333992D02*
X368000Y334850D01*
X402000Y303150D02*
X403000Y304150D01*
Y317414D01*
X358000Y324000D02*
Y334850D01*
X416000Y303150D02*
X417000Y304150D01*
X203000Y327000D02*
Y334850D01*
X207000Y323000D02*
X233914D01*
X203000Y327000D02*
X207000Y323000D01*
X234500Y276983D02*
Y322414D01*
X233914Y323000D02*
X234500Y322414D01*
X213500Y324500D02*
X235414D01*
X213000Y325000D02*
X213500Y324500D01*
X213000Y325000D02*
Y334850D01*
X235414Y324500D02*
X236000Y323914D01*
X236914Y326000D02*
X237500Y325414D01*
X223000Y326586D02*
Y334850D01*
X223586Y326000D02*
X236914D01*
X223000Y326586D02*
X223586Y326000D01*
X237500Y266586D02*
Y325414D01*
X233000Y328888D02*
X238414D01*
X239000Y328302D01*
X233000Y328888D02*
Y334850D01*
X239000Y261629D02*
Y328302D01*
X273000Y325000D02*
Y334850D01*
X245011Y324414D02*
X245597Y325000D01*
X273000D01*
X245011Y306011D02*
Y324414D01*
X245000Y306000D02*
X245011Y306011D01*
X244511Y327000D02*
X262000D01*
X243511Y306632D02*
Y326000D01*
X244511Y327000D01*
X262000D02*
X263000Y328000D01*
Y334850D01*
X253000Y331000D02*
Y334850D01*
X243000Y331000D02*
X253000D01*
X242011Y330011D02*
X243000Y331000D01*
X242011Y307254D02*
Y330011D01*
X238414Y261043D02*
X239000Y261629D01*
X226024Y261043D02*
X238414D01*
X226185Y266000D02*
X236914D01*
X237500Y266586D01*
X243500Y306621D02*
X243511Y306632D01*
X242000Y267086D02*
Y307243D01*
X240500Y262129D02*
X241586Y261043D01*
X240500Y307864D02*
X240511Y307875D01*
X240500Y262129D02*
Y307864D01*
X242000Y307243D02*
X242011Y307254D01*
X240511Y307875D02*
Y332361D01*
X245586Y276398D02*
X253976D01*
X226024Y266161D02*
X226185Y266000D01*
X243500Y271865D02*
X244086Y271280D01*
X242000Y267086D02*
X243086Y266000D01*
X244086Y271280D02*
X253976D01*
X243500Y271865D02*
Y306621D01*
X245000Y276983D02*
Y306000D01*
Y276983D02*
X245586Y276398D01*
X241586Y261043D02*
X253976D01*
X226024Y276398D02*
X233914D01*
X234500Y276983D01*
X236000Y271586D02*
Y323914D01*
X235414Y271000D02*
X236000Y271586D01*
X240511Y332361D02*
X243000Y334850D01*
X243086Y266000D02*
X253815D01*
X226303Y271000D02*
X235414D01*
X226024Y271280D02*
X226303Y271000D01*
X253815Y266000D02*
X253976Y266161D01*
X141000Y266074D02*
Y325414D01*
Y266074D02*
X141586Y265488D01*
X150646D01*
X180000Y323000D02*
X185000Y328000D01*
Y334850D01*
X144000Y276983D02*
Y322414D01*
X144586Y323000D01*
X180000D01*
X143086Y324500D02*
X174414D01*
X142500Y323914D02*
X143086Y324500D01*
X142500Y272500D02*
Y323914D01*
X141586Y326000D02*
X162000D01*
X141000Y325414D02*
X141586Y326000D01*
X162000D02*
X165000Y329000D01*
Y334850D01*
X174414Y324500D02*
X175000Y325086D01*
Y334850D01*
X151051Y327500D02*
X155000Y331449D01*
X139933Y327500D02*
X151051D01*
X139347Y262239D02*
Y326914D01*
X139933Y327500D01*
X138433Y329000D02*
X145000D01*
X137847Y328414D02*
X138433Y329000D01*
X137847Y262847D02*
Y328414D01*
X155000Y331449D02*
Y334850D01*
X145000Y329000D02*
Y334850D01*
X126000Y326000D02*
X134261D01*
X134847Y273847D02*
Y325414D01*
X134261Y326000D02*
X134847Y325414D01*
X125000Y327000D02*
X126000Y326000D01*
X125000Y327000D02*
Y334850D01*
X132761Y323000D02*
X133347Y322414D01*
X115586Y323000D02*
X132761D01*
X133347Y276983D02*
Y322414D01*
X115000Y323586D02*
X115586Y323000D01*
X115000Y323586D02*
Y334850D01*
X124000Y336000D02*
X125075Y334925D01*
X136347Y267933D02*
Y330274D01*
X135000Y331621D02*
Y334850D01*
Y331621D02*
X136347Y330274D01*
X66602Y276398D02*
X73976D01*
X64086Y271280D02*
X73976D01*
X62839Y266161D02*
X73976D01*
X61086Y261043D02*
X73976D01*
X136043D02*
X137847Y262847D01*
X126024Y261043D02*
X136043D01*
X151319Y266161D02*
X153976D01*
X139347Y262239D02*
X140586Y261000D01*
X126024Y276398D02*
X132761D01*
X134414Y266000D02*
X136347Y267933D01*
X150646Y265488D02*
X151319Y266161D01*
X132280Y271280D02*
X134847Y273847D01*
X132761Y276398D02*
X133347Y276983D01*
X143720Y271280D02*
X153976D01*
X142500Y272500D02*
X143720Y271280D01*
X144586Y276398D02*
X153976D01*
X144000Y276983D02*
X144586Y276398D01*
X140586Y261000D02*
X153933D01*
X153976Y261043D01*
X126185Y266000D02*
X134414D01*
X126024Y266161D02*
X126185Y266000D01*
X126024Y271280D02*
X132280D01*
X124000Y335850D02*
X125000Y334850D01*
X124000Y335850D02*
Y336000D01*
X66465Y323000D02*
X95000D01*
Y334850D01*
X65586Y320000D02*
X104000D01*
X55000Y327121D02*
Y334850D01*
X105000Y321000D02*
Y334850D01*
X104000Y320000D02*
X105000Y321000D01*
X85000Y331776D02*
Y334850D01*
X78923Y325698D02*
X85000Y331776D01*
X65284Y325698D02*
X78923D01*
X64077Y327199D02*
X70423D01*
X75000Y331776D02*
Y334850D01*
X70423Y327199D02*
X75000Y331776D01*
X65000D02*
Y334850D01*
X46024Y261043D02*
X46067Y261000D01*
X46024Y271280D02*
X46303Y271000D01*
X391000Y40000D02*
X394000Y43000D01*
Y133914D02*
X400086Y140000D01*
X394000Y43000D02*
Y133914D01*
X349964Y124000D02*
X380536D01*
X384000Y46000D02*
X389000Y51000D01*
X387414Y44500D02*
X390500Y47586D01*
X380914Y70000D02*
X381500Y70586D01*
X380000Y75586D02*
Y121914D01*
X369038Y75000D02*
X379414D01*
X351086Y122500D02*
X379414D01*
X381500Y70586D02*
Y123036D01*
X386000Y55586D02*
Y126611D01*
X330000Y55000D02*
X385414D01*
X387500Y53500D02*
Y127232D01*
X385353Y131500D02*
X389000Y127854D01*
X382914Y127000D02*
X384500Y125414D01*
X384111Y128500D02*
X386000Y126611D01*
X389000Y51000D02*
Y127854D01*
X339000Y60000D02*
X383914D01*
X360000Y70000D02*
X380914D01*
X383914Y60000D02*
X384500Y60586D01*
X383000Y65586D02*
Y123914D01*
X384500Y60586D02*
Y125414D01*
X388379Y41500D02*
X392000Y45121D01*
X390500Y47586D02*
Y129500D01*
X380536Y124000D02*
X381500Y123036D01*
X379414Y75000D02*
X380000Y75586D01*
X384732Y130000D02*
X387500Y127232D01*
X350000Y65000D02*
X382414D01*
X383000Y65586D01*
X379414Y122500D02*
X380000Y121914D01*
X381414Y125500D02*
X383000Y123914D01*
X385000Y51000D02*
X387500Y53500D01*
X387000Y133000D02*
X390500Y129500D01*
X385414Y55000D02*
X386000Y55586D01*
X409000Y83000D02*
X417000D01*
X295000Y230000D02*
X341036D01*
X400086Y140000D02*
X435701D01*
X458000Y202000D02*
X459000Y203000D01*
X458000Y196150D02*
Y202000D01*
X459000Y203000D02*
X461000D01*
X468707Y210707D01*
X285000Y218000D02*
X343414D01*
X476000Y196150D02*
Y246778D01*
X350500Y174586D02*
Y240414D01*
X366043Y113957D02*
X371500Y108500D01*
X356567Y113957D02*
X366043D01*
X371500Y81086D02*
Y108500D01*
X348086Y125500D02*
X381414D01*
X346586Y127000D02*
X382914D01*
X346000Y126414D02*
X346586Y127000D01*
X344414Y127914D02*
X345000Y128500D01*
X342914Y129414D02*
X343500Y130000D01*
X350500Y111983D02*
Y121914D01*
X345000Y128500D02*
X384111D01*
X343500Y130000D02*
X384732D01*
X341414Y130914D02*
X342000Y131500D01*
X385353D01*
X339914Y132328D02*
X340586Y133000D01*
X387000D01*
X349000Y123036D02*
X349964Y124000D01*
X350500Y121914D02*
X351086Y122500D01*
X347500Y124914D02*
X348086Y125500D01*
X490000Y118850D02*
X491000Y119850D01*
X310000Y46586D02*
Y60000D01*
X297000Y40000D02*
X391000D01*
X298500Y41500D02*
X388379D01*
X300621Y44500D02*
X387414D01*
X320000Y51000D02*
X385000D01*
X356567Y116516D02*
X373516D01*
X374000Y117000D01*
X56086Y44500D02*
X295500D01*
X298500Y41500D01*
X294000Y43000D02*
X297000Y40000D01*
X54586Y43000D02*
X294000D01*
X54000Y43586D02*
X54586Y43000D01*
X300000Y45121D02*
Y60000D01*
Y45121D02*
X300621Y44500D01*
X54000Y43586D02*
Y115000D01*
X112936Y51000D02*
X171000D01*
X175000Y55000D01*
X55500Y45086D02*
X56086Y44500D01*
X55500Y45086D02*
Y111000D01*
X57000Y112500D01*
Y128414D01*
X52000Y129000D02*
X56414D01*
X57000Y128414D01*
X52000Y117000D02*
X54000Y115000D01*
X52000Y117000D02*
Y121000D01*
X51414Y88000D02*
X52000Y87414D01*
X45586Y88000D02*
X51414D01*
X52000Y61586D02*
Y87414D01*
X51414Y61000D02*
X52000Y61586D01*
X47150Y61000D02*
X51414D01*
X21959Y124000D02*
X29000D01*
X15000Y123000D02*
X20959D01*
X21959Y124000D01*
X45000Y132414D02*
X45586Y133000D01*
X13000Y129000D02*
X17000D01*
X8000Y134000D02*
X13000Y129000D01*
X6000Y132000D02*
X15000Y123000D01*
X6000Y174414D02*
X6586Y175000D01*
X6000Y132000D02*
Y174414D01*
X6586Y175000D02*
X16000D01*
X20366Y170634D02*
X26221D01*
X16000Y175000D02*
X20366Y170634D01*
X14000Y148000D02*
Y149000D01*
X20279Y155280D01*
X26221D01*
X12000Y168000D02*
X17043Y162957D01*
X8000Y156414D02*
X8586Y157000D01*
X18000D01*
X8000Y134000D02*
Y156414D01*
X21398Y160398D02*
X26221D01*
X18000Y157000D02*
X21398Y160398D01*
X45000Y88586D02*
X45586Y88000D01*
X45000Y88586D02*
Y132414D01*
X43500Y99161D02*
Y136780D01*
X42000Y97661D02*
X43500Y99161D01*
X29842Y97661D02*
X42000D01*
X30031Y101000D02*
X42000D01*
Y138850D01*
X44086Y137366D02*
X53780D01*
X43500Y136780D02*
X44086Y137366D01*
X32000Y143000D02*
Y170501D01*
X36000Y139000D02*
X40000D01*
X32000Y143000D02*
X36000Y139000D01*
X40000D02*
X40500Y138500D01*
X42000Y138850D02*
X43075Y139925D01*
X29842Y100811D02*
X30031Y101000D01*
X43075Y139925D02*
X53780D01*
X39000Y103961D02*
X40500Y105461D01*
Y138500D01*
X29842Y103961D02*
X39000D01*
X30000Y172501D02*
X32000Y170501D01*
X30000Y172501D02*
Y183000D01*
X31850Y184850D01*
Y197000D01*
X27000Y61000D02*
X40850D01*
X29984Y80000D02*
X44000D01*
X29842Y80142D02*
X29984Y80000D01*
X29842Y91362D02*
Y94512D01*
Y80142D02*
Y91362D01*
X8189Y80142D02*
Y115181D01*
Y80142D02*
X29842D01*
X8189Y115181D02*
X29842D01*
X60414Y145043D02*
X61000Y145629D01*
X53780Y145043D02*
X60414D01*
X61000Y145629D02*
Y153306D01*
Y163000D01*
X53780Y162957D02*
X60957D01*
X53780Y152720D02*
X60414D01*
X44280D02*
X53780D01*
X60414D02*
X61000Y153306D01*
X60957Y162957D02*
X61000Y163000D01*
X17043Y162957D02*
X26221D01*
X39000Y161000D02*
X42500Y157500D01*
Y154500D02*
Y157500D01*
Y154500D02*
X44280Y152720D01*
X48933Y155280D02*
X53780D01*
X44500Y157803D02*
X46803Y155500D01*
X48713D02*
X48933Y155280D01*
X46803Y155500D02*
X48713D01*
X45086Y176000D02*
X50000D01*
X44500Y175414D02*
X45086Y176000D01*
X44500Y157803D02*
Y175414D01*
X34000Y166000D02*
X38150Y170150D01*
X34000Y147000D02*
Y166000D01*
X38150Y170150D02*
Y197000D01*
X34000Y147000D02*
X37000Y144000D01*
X41190D01*
X44793Y147602D01*
X53780D01*
X39161Y150161D02*
X53780D01*
X39000Y150000D02*
X39161Y150161D01*
X44000Y183082D02*
X47000Y186082D01*
X44000Y182000D02*
Y183082D01*
X47000Y186082D02*
Y190850D01*
X52500Y174500D02*
Y239414D01*
X46586Y174500D02*
X52500D01*
X46000Y158424D02*
Y173914D01*
X46586Y174500D01*
X50000Y176000D02*
X51000Y177000D01*
Y232564D01*
X46586Y157839D02*
X53780D01*
X46000Y158424D02*
X46586Y157839D01*
X38150Y197000D02*
X46850D01*
X47000Y197150D01*
X10000Y197000D02*
X31850D01*
X31000Y213150D02*
Y226850D01*
X41000Y213150D02*
Y226850D01*
X32000Y240000D02*
X51914D01*
X52500Y239414D01*
X31000Y239000D02*
X32000Y240000D01*
X31000Y233150D02*
Y239000D01*
X41000Y233150D02*
X50414D01*
X51000Y232564D01*
X31000Y226850D02*
X31850Y226000D01*
X527586Y69586D02*
Y85414D01*
X527000Y69000D02*
X527586Y69586D01*
X480000Y68414D02*
X480586Y69000D01*
X527000D01*
X480000Y63150D02*
Y68414D01*
Y30000D02*
Y56850D01*
X490000Y30000D02*
Y56850D01*
X478425Y168425D02*
Y173685D01*
X474000Y164000D02*
X478425Y168425D01*
X488000Y157000D02*
Y161000D01*
Y157000D02*
X492724Y152276D01*
X478293Y152293D02*
X479439Y151146D01*
Y151146D02*
X480586Y150000D01*
X474000Y151918D02*
Y153000D01*
X472126Y150044D02*
X474000Y151918D01*
X472126Y140315D02*
Y150044D01*
X474707Y152293D02*
X478293D01*
X479439Y151146D02*
Y151146D01*
X474000Y153000D02*
X474707Y152293D01*
X478293D02*
X481575Y155575D01*
X493696Y150000D02*
X493889Y149807D01*
X480586Y150000D02*
X493696D01*
X496004Y149807D02*
X496685Y149126D01*
X493889Y149807D02*
X496004D01*
X481575Y155575D02*
Y173685D01*
X492724Y152276D02*
X496685D01*
X542000Y164150D02*
Y172000D01*
Y164150D02*
X548000D01*
X536000D02*
X542000D01*
X525000Y160000D02*
X527150Y157850D01*
X516150Y160000D02*
X525000D01*
X516150Y154000D02*
X522000D01*
X497271Y143000D02*
X508414D01*
X509000Y126150D02*
Y142414D01*
X508414Y143000D02*
X509000Y142414D01*
X496685Y143586D02*
Y145976D01*
Y143586D02*
X497271Y143000D01*
X503000Y126150D02*
Y139729D01*
X491024Y140315D02*
X502414D01*
X503000Y139729D01*
X497000Y126150D02*
Y134414D01*
X496414Y135000D02*
X497000Y134414D01*
X488460Y135000D02*
X496414D01*
X487874Y135586D02*
X488460Y135000D01*
X487874Y135586D02*
Y140315D01*
X491000Y126150D02*
Y132000D01*
X485449Y133000D02*
X490000D01*
X491000Y132000D01*
X484724Y133724D02*
X485449Y133000D01*
X481575Y131586D02*
Y140315D01*
X485000Y126150D02*
Y130414D01*
X484414Y131000D02*
X485000Y130414D01*
X482161Y131000D02*
X484414D01*
X481575Y131586D02*
X482161Y131000D01*
X484724Y133724D02*
Y140315D01*
X478425Y133575D02*
Y140315D01*
Y133575D02*
X479000Y133000D01*
Y126150D02*
Y133000D01*
X473586D02*
X474000D01*
X473000Y126150D02*
Y132414D01*
X473586Y133000D01*
X474000D02*
X475276Y134276D01*
Y140315D01*
X467000Y126150D02*
Y133000D01*
X468976Y134976D01*
Y140315D01*
X461000Y126150D02*
Y138000D01*
X463315Y140315D01*
Y145976D01*
X442000Y140000D02*
X452414D01*
X453000Y140586D02*
Y148540D01*
X452414Y140000D02*
X453000Y140586D01*
Y148540D02*
X453586Y149126D01*
X450586Y152276D02*
X463315D01*
X442150Y146000D02*
X449414D01*
X450000Y146586D02*
Y151690D01*
X450586Y152276D01*
X449414Y146000D02*
X450000Y146586D01*
X442150Y152000D02*
X447414D01*
X448000Y152586D01*
X453586Y149126D02*
X463315D01*
X449000Y164000D02*
X451276Y161724D01*
X463315D01*
X442150Y164000D02*
X449000D01*
X442724Y158575D02*
X463315D01*
X442150Y158000D02*
X442724Y158575D01*
X454000Y165460D02*
X454586Y164874D01*
X454000Y165460D02*
Y169414D01*
X454586Y164874D02*
X463315D01*
X442150Y170000D02*
X453414D01*
X454000Y169414D01*
X458000Y180586D02*
Y189850D01*
X458586Y180000D02*
X461000D01*
X458000Y180586D02*
X458586Y180000D01*
X461000D02*
X463315Y177685D01*
Y168024D02*
Y177685D01*
X468976Y173685D02*
X469000Y173709D01*
Y180414D01*
X466000Y181000D02*
X468414D01*
X469000Y180414D01*
X464000Y183000D02*
X466000Y181000D01*
X464000Y183000D02*
Y189850D01*
X470000Y184000D02*
Y189850D01*
X472126Y173685D02*
Y181874D01*
X470000Y184000D02*
X472126Y181874D01*
X475000Y173961D02*
Y183000D01*
Y173961D02*
X475276Y173685D01*
X475000Y183000D02*
X476000Y184000D01*
Y189850D01*
X488000Y189000D02*
Y202000D01*
X491000Y205000D01*
X511000D02*
X512850Y206850D01*
Y230000D01*
X491000Y205000D02*
X511000D01*
X484724Y185724D02*
X488000Y189000D01*
X484724Y173685D02*
Y185724D01*
X488586Y183000D02*
X492414D01*
X493000Y183586D02*
Y189850D01*
X492414Y183000D02*
X493000Y183586D01*
X488000Y182414D02*
X488586Y183000D01*
X488000Y173811D02*
Y182414D01*
X491024Y178976D02*
X492047Y180000D01*
X491024Y173685D02*
Y178976D01*
X492047Y180000D02*
X498414D01*
X492414Y201414D02*
X493000Y202000D01*
X513414D01*
X492414Y196735D02*
Y201414D01*
X487874Y173685D02*
X488000Y173811D01*
X506128Y154000D02*
X509850D01*
X505542Y154586D02*
Y157989D01*
X496685Y158575D02*
X504956D01*
X505542Y157989D01*
Y154586D02*
X506128Y154000D01*
X505586Y148000D02*
X509850D01*
X505000Y148586D02*
Y152000D01*
Y148586D02*
X505586Y148000D01*
X501575Y155425D02*
X505000Y152000D01*
X496685Y155425D02*
X501575D01*
X508850Y161000D02*
X509850Y160000D01*
X503000Y161000D02*
X508850D01*
X496685Y161724D02*
X502276D01*
X503000Y161000D01*
X502000Y166000D02*
X509850D01*
X500874Y164874D02*
X502000Y166000D01*
X496685Y164874D02*
X500874D01*
X508850Y173000D02*
X509850Y172000D01*
X497586Y173000D02*
X508850D01*
X497000Y168339D02*
Y172414D01*
X497586Y173000D01*
X496685Y168024D02*
X497000Y168339D01*
X498414Y180000D02*
X499000Y180586D01*
Y189850D01*
X492414Y196735D02*
X493000Y196150D01*
X513414Y202000D02*
X514000Y201414D01*
Y199000D02*
Y201414D01*
Y199000D02*
X515000Y198000D01*
X534000D01*
X519150Y230000D02*
X545000D01*
Y269000D02*
X546000Y268000D01*
X549257Y364414D02*
X549843Y363828D01*
X509975Y315025D02*
X510000Y315000D01*
X320000Y51000D02*
Y60000D01*
X330000Y55000D02*
Y60000D01*
X310000Y46586D02*
X310586Y46000D01*
X384000D01*
X238650Y152000D02*
X269000D01*
X238650Y158000D02*
X275000D01*
X280000Y212000D02*
X341914D01*
X238650Y176000D02*
X290000D01*
X238650Y182000D02*
X295000D01*
X238650Y188000D02*
X300000D01*
X238650Y194000D02*
X305000D01*
X349000Y171424D02*
Y235000D01*
X348000Y236000D02*
X349000Y235000D01*
Y171424D02*
X349586Y170839D01*
X356567D01*
X350500Y174586D02*
X352086Y173000D01*
X344000Y161188D02*
Y217414D01*
X333433Y160602D02*
X343414D01*
X340000Y206000D02*
X341000Y205000D01*
X340339Y170839D02*
X341000Y171500D01*
X343414Y160602D02*
X344000Y161188D01*
X341914Y212000D02*
X342500Y211414D01*
X341000Y171500D02*
Y205000D01*
X347000Y165000D02*
X348839Y163161D01*
X343414Y218000D02*
X344000Y217414D01*
X341161Y163161D02*
X342500Y164500D01*
Y211414D01*
X345500Y162000D02*
X347086Y160414D01*
X338210Y173398D02*
X339000Y174187D01*
Y197000D01*
X333433Y173398D02*
X338210D01*
X336000Y200000D02*
X339000Y197000D01*
X270000Y200000D02*
X336000D01*
X238650D02*
X270000D01*
X315000Y156000D02*
X317043Y158043D01*
X310243Y143000D02*
X313500Y146257D01*
X312000Y146879D02*
Y167108D01*
X313500Y146257D02*
Y164828D01*
X314672Y166000D01*
X315000Y145636D02*
Y156000D01*
X310364Y141000D02*
X315000Y145636D01*
X317043Y158043D02*
X333433D01*
X310500Y147500D02*
Y174500D01*
X309621Y144500D02*
X312000Y146879D01*
X314672Y166000D02*
X333154D01*
X313172Y168280D02*
X333433D01*
X311957Y175957D02*
X333433D01*
X312000Y167108D02*
X313172Y168280D01*
X310500Y174500D02*
X311957Y175957D01*
X309000Y146000D02*
X310500Y147500D01*
X257000Y136914D02*
X258086Y138000D01*
X260500Y133914D02*
X261586Y135000D01*
X349000Y109424D02*
Y123036D01*
X255035Y138414D02*
X256121Y139500D01*
X259000Y135414D02*
X260086Y136500D01*
X321586Y89000D02*
X332484D01*
X333070Y93098D02*
X333433Y93462D01*
Y93484D01*
X333070Y89586D02*
Y93098D01*
X332484Y89000D02*
X333070Y89586D01*
X321000D02*
X321586Y89000D01*
X321000Y89586D02*
Y90000D01*
X311000Y80000D02*
X370414D01*
X312086Y81500D02*
X368500D01*
X313086Y83000D02*
X367000D01*
X314586Y84500D02*
X365793D01*
X350500Y111983D02*
X351086Y111398D01*
X356567D01*
X349000Y109424D02*
X349586Y108839D01*
X356567D01*
X347500Y101747D02*
Y124914D01*
Y101747D02*
X348086Y101161D01*
X356567D01*
X346000Y99188D02*
Y126414D01*
Y99188D02*
X346586Y98602D01*
X356567D01*
X344414Y99602D02*
Y127914D01*
X333433Y98602D02*
X343414D01*
X344414Y99602D01*
X342914Y102661D02*
Y129414D01*
X341414Y108839D02*
Y130914D01*
Y101161D02*
X342914Y102661D01*
X333433Y101161D02*
X341414D01*
X339914Y111983D02*
Y132328D01*
X333433Y111398D02*
X339328D01*
X339914Y111983D01*
X333433Y108839D02*
X341414D01*
X320586Y113957D02*
X333433D01*
X320000Y114542D02*
X320586Y113957D01*
X320000Y114542D02*
Y132414D01*
X275000Y206000D02*
X340000D01*
X238650Y164000D02*
X280000D01*
X238650Y170000D02*
X285000D01*
X333433Y170839D02*
X340339D01*
X333433Y163161D02*
X341161D01*
X347086Y160414D02*
X356379D01*
X348839Y163161D02*
X356567D01*
X356379Y160414D02*
X356567Y160602D01*
X352086Y173000D02*
X353000D01*
X353012Y173012D02*
X356181D01*
X353000Y173000D02*
X353012Y173012D01*
X356181D02*
X356567Y173398D01*
X319086Y106280D02*
X333433D01*
X318500Y106865D02*
X319086Y106280D01*
X318500Y106865D02*
Y130914D01*
X318280Y103720D02*
X333433D01*
X317000Y105000D02*
Y129414D01*
Y105000D02*
X318280Y103720D01*
X317000Y96000D02*
X333390D01*
X315500Y97500D02*
X317000Y96000D01*
X315500Y97500D02*
Y127914D01*
X271000Y56000D02*
X273500Y58500D01*
Y121914D01*
X370414Y80000D02*
X371500Y81086D01*
X369135Y106280D02*
X370000Y105414D01*
X368500Y81500D02*
X370000Y83000D01*
X356567Y106280D02*
X369135D01*
X370000Y83000D02*
Y105414D01*
X308914Y122500D02*
X309500Y121914D01*
Y81500D02*
Y121914D01*
Y81500D02*
X311000Y80000D01*
X274086Y122500D02*
X308914D01*
X314000Y85086D02*
Y126414D01*
Y85086D02*
X314586Y84500D01*
X311000Y82586D02*
Y123414D01*
X312500Y83586D02*
X313086Y83000D01*
X312500Y83586D02*
Y124914D01*
X311000Y82586D02*
X312086Y81500D01*
X273500Y121914D02*
X274086Y122500D01*
X271000Y62000D02*
X272000Y63000D01*
X238150Y62000D02*
X271000D01*
X272000Y63000D02*
Y123414D01*
X238150Y56000D02*
X271000D01*
X272586Y124000D02*
X310414D01*
X311000Y123414D01*
X272000D02*
X272586Y124000D01*
X367000Y104000D02*
X368000Y103000D01*
Y84000D02*
Y103000D01*
X356567Y103720D02*
X356846Y104000D01*
X367000D01*
X365793Y84500D02*
X366500Y85207D01*
X356610Y96000D02*
X365914D01*
X366500Y85207D02*
Y95414D01*
X365914Y96000D02*
X366500Y95414D01*
X367000Y83000D02*
X368000Y84000D01*
X311914Y125500D02*
X312500Y124914D01*
X271086Y125500D02*
X311914D01*
X270500Y124914D02*
X271086Y125500D01*
X270500Y69500D02*
Y124914D01*
X269000Y68000D02*
X270500Y69500D01*
X238150Y74000D02*
X268000D01*
X269000Y75000D01*
Y126414D02*
X269586Y127000D01*
X269000Y75000D02*
Y126414D01*
X238150Y68000D02*
X269000D01*
X356567Y96043D02*
X356610Y96000D01*
X313414Y127000D02*
X314000Y126414D01*
X269586Y127000D02*
X313414D01*
X333390Y96000D02*
X333433Y96043D01*
X267586Y128500D02*
X314914D01*
X315500Y127914D01*
X267000D02*
X267586Y128500D01*
X267000Y81000D02*
Y127914D01*
X238150Y80000D02*
X266000D01*
X267000Y81000D01*
X316414Y130000D02*
X317000Y129414D01*
X265586Y130000D02*
X316414D01*
X265000Y129414D02*
X265586Y130000D01*
X265000Y86586D02*
Y129414D01*
X238150Y86000D02*
X264414D01*
X238150Y92000D02*
X262914D01*
X264414Y86000D02*
X265000Y86586D01*
X263500Y92586D02*
Y130914D01*
X262914Y92000D02*
X263500Y92586D01*
X264086Y131500D02*
X317914D01*
X318500Y130914D01*
X319414Y133000D02*
X320000Y132414D01*
X263500Y130914D02*
X264086Y131500D01*
X262586Y133000D02*
X319414D01*
X262000Y99000D02*
Y132414D01*
X262586Y133000D01*
X254414Y141000D02*
X310364D01*
X238150Y146000D02*
X309000D01*
X250414Y134000D02*
X251000Y134586D01*
Y143000D01*
X310243D01*
X248586Y144500D02*
X309621D01*
X238150Y98000D02*
X261000D01*
X262000Y99000D01*
X257000Y116586D02*
Y136914D01*
X238150Y116000D02*
X256414D01*
X257000Y116586D01*
X259000Y112000D02*
Y135414D01*
X257000Y110000D02*
X259000Y112000D01*
X238150Y110000D02*
X257000D01*
X259000Y104000D02*
X260500Y105500D01*
Y133914D01*
X238150Y104000D02*
X259000D01*
X248000Y140586D02*
Y143914D01*
X248586Y144500D01*
X247414Y140000D02*
X248000Y140586D01*
X238150Y134000D02*
X250414D01*
X238150Y128000D02*
X252950D01*
X253536Y128586D01*
Y140121D01*
X254414Y141000D01*
X255035Y122586D02*
Y138414D01*
X254450Y122000D02*
X255035Y122586D01*
X238150Y122000D02*
X254450D01*
X356567Y158043D02*
X356610Y158000D01*
X238150Y140000D02*
X247414D01*
X333154Y166000D02*
X333433Y165720D01*
X398000Y341150D02*
Y348000D01*
X388000Y341150D02*
Y348000D01*
X378000Y341150D02*
Y348000D01*
X368000Y341150D02*
Y348000D01*
X358000Y341150D02*
Y348000D01*
X330000Y341150D02*
Y348000D01*
X320000Y341150D02*
Y348000D01*
X310000Y341150D02*
Y348000D01*
X300000Y341150D02*
Y348000D01*
X290000Y341150D02*
Y348000D01*
X273000Y341150D02*
Y348000D01*
X263000Y341150D02*
Y348000D01*
X253000Y341150D02*
Y348000D01*
X252000Y342150D02*
X253000Y341150D01*
X243000D02*
Y348000D01*
X233000Y341150D02*
Y348000D01*
X223000Y341150D02*
Y348000D01*
X213000Y341150D02*
Y348000D01*
X203000Y341150D02*
Y348000D01*
X185000Y341150D02*
Y348000D01*
X175000Y341150D02*
Y348000D01*
X165000Y341150D02*
Y348000D01*
X155000Y341150D02*
Y348000D01*
X145000Y341150D02*
Y348000D01*
X135000Y341150D02*
Y348000D01*
X125000Y341150D02*
Y348000D01*
X115000Y341150D02*
Y348000D01*
X105000Y341150D02*
Y348000D01*
X95000Y341150D02*
Y348000D01*
X85000Y341150D02*
Y348000D01*
X75000Y341150D02*
Y348000D01*
X65000Y341150D02*
Y348000D01*
X55000Y341150D02*
Y348000D01*
X45000Y341150D02*
Y348000D01*
X97000Y135586D02*
Y163000D01*
X98000Y164000D02*
X112850D01*
X97000Y163000D02*
X98000Y164000D01*
X95500Y169414D02*
X96086Y170000D01*
X112850D01*
X95500Y130531D02*
Y169414D01*
X94000Y123000D02*
Y175414D01*
X94586Y176000D02*
X112850D01*
X94000Y175414D02*
X94586Y176000D01*
X92500Y180500D02*
X94000Y182000D01*
X92500Y119086D02*
Y180500D01*
X94000Y182000D02*
X112850D01*
X91586Y188000D02*
X112850D01*
X91000Y187414D02*
X91586Y188000D01*
X91000Y115086D02*
Y187414D01*
X90086Y194000D02*
X112850D01*
X89500Y110500D02*
Y193414D01*
X90086Y194000D01*
X88000Y105000D02*
Y199000D01*
X89000Y200000D01*
X111850Y211000D02*
X112850Y212000D01*
X83500Y88500D02*
Y217414D01*
X80500Y72500D02*
X82000Y71000D01*
X88000Y105000D02*
X95000Y98000D01*
X80500Y230414D02*
X80793Y230707D01*
X86500Y99500D02*
X94000Y92000D01*
X86500Y99500D02*
Y205414D01*
X79000Y63000D02*
X80000Y62000D01*
X77500Y61777D02*
X83139Y56139D01*
X85000Y211414D02*
X85586Y212000D01*
X82000Y79000D02*
Y223000D01*
X86500Y205414D02*
X87086Y206000D01*
X80500Y72500D02*
Y229000D01*
X83500Y217414D02*
X84086Y218000D01*
X82000Y223000D02*
X83000Y224000D01*
X83500Y88500D02*
X92000Y80000D01*
X85000Y94000D02*
Y211414D01*
Y94000D02*
X93000Y86000D01*
X80500Y229500D02*
Y230414D01*
X82000Y79000D02*
X83000Y78000D01*
X87086Y206000D02*
X112850D01*
X112143Y230707D02*
X112850Y230000D01*
X104000Y98000D02*
X112350D01*
X95000D02*
X104000D01*
X100000Y86000D02*
X112350D01*
X93000D02*
X100000D01*
X106000Y80000D02*
X112350D01*
X92000D02*
X106000D01*
X97000Y74000D02*
X112350D01*
X93000Y78000D02*
X97000Y74000D01*
X87000Y78000D02*
X93000D01*
X83000D02*
X87000D01*
X108000Y68000D02*
X112350D01*
X105000Y71000D02*
X108000Y68000D01*
X87000Y71000D02*
X105000D01*
X82000D02*
X87000D01*
X83139Y56139D02*
X112212D01*
X98000Y104000D02*
X112350D01*
X96000D02*
X98000D01*
X104000Y110000D02*
X112350D01*
X96086D02*
X104000D01*
X91000Y115086D02*
X96086Y110000D01*
X99000Y116000D02*
X99082Y116082D01*
X112268D02*
X112350Y116000D01*
X99082Y116082D02*
X112268D01*
X92500Y119086D02*
X95000Y116586D01*
X98414D01*
X105082Y121000D02*
X106022Y121940D01*
X112290D01*
X101500Y128000D02*
X112350D01*
X101000Y127500D02*
X101500Y128000D01*
X101000Y127500D02*
X101500Y127500D01*
X97000Y135586D02*
X98586Y134000D01*
X98265Y127765D02*
X100235D01*
X95500Y130531D02*
X98265Y127765D01*
X101000Y140500D02*
X111850D01*
X112350Y140000D01*
X89500Y110500D02*
X96000Y104000D01*
X104000Y146586D02*
X104586Y146000D01*
X112350D01*
X104000Y146586D02*
Y152000D01*
X100000Y141086D02*
Y157414D01*
Y141086D02*
X100586Y140500D01*
X100000Y157414D02*
X100586Y158000D01*
X112850D01*
X106000Y152000D02*
X112850D01*
X112350Y51586D02*
Y56000D01*
Y51586D02*
X112936Y51000D01*
X112212Y56139D02*
X112350Y56000D01*
X95000Y92000D02*
X112350D01*
X84086Y218000D02*
X112850D01*
X85586Y212000D02*
X112850D01*
X170000Y188252D02*
X193701D01*
X156299D02*
X170000D01*
X184000Y180748D02*
X193701D01*
X156299D02*
X184000D01*
Y195748D02*
X193701D01*
X156299D02*
X184000D01*
Y208252D02*
X193701D01*
X156299D02*
X184000D01*
Y223252D02*
X193701D01*
X156299D02*
X184000D01*
X156299Y230748D02*
X193701D01*
X170000Y91252D02*
X194701D01*
X157299D02*
X170000D01*
Y118748D02*
X194701D01*
X157299D02*
X170000D01*
X184000Y83748D02*
X194701D01*
X157299D02*
X184000D01*
Y98748D02*
X194701D01*
X157299D02*
X184000D01*
Y111252D02*
X194701D01*
X157299D02*
X184000D01*
Y126252D02*
X194701D01*
X157299D02*
X184000D01*
X164000Y76252D02*
X194701D01*
X157299D02*
X164000D01*
Y70000D02*
Y76252D01*
Y133748D02*
X194701D01*
X157299D02*
X164000D01*
Y140000D01*
X131000Y105666D02*
X131586Y106252D01*
X131000Y103586D02*
Y105666D01*
X131586Y106252D02*
X157299D01*
X119650Y103000D02*
X130414D01*
X131000Y103586D01*
X118650Y104000D02*
X119650Y103000D01*
X134748Y103748D02*
X157299D01*
X133000Y102000D02*
X134748Y103748D01*
X133000Y98586D02*
Y102000D01*
X118650Y98000D02*
X132414D01*
X133000Y98586D01*
X136838Y101252D02*
X157299D01*
X135000Y92586D02*
Y99414D01*
X136838Y101252D01*
X134414Y92000D02*
X135000Y92586D01*
X118650Y92000D02*
X134414D01*
X137000Y95000D02*
X138252Y96252D01*
X157299D01*
X118650Y86000D02*
X136414D01*
X137000Y86586D01*
Y95000D01*
X140000Y87000D02*
X141748Y88748D01*
X140000Y74586D02*
Y87000D01*
X141748Y88748D02*
X157299D01*
X140748Y93748D02*
X157299D01*
X138500Y91500D02*
X140748Y93748D01*
X138500Y80586D02*
Y91500D01*
X118650Y80000D02*
X137914D01*
X138500Y80586D01*
X118650Y74000D02*
X139414D01*
X140000Y74586D01*
X142000Y68586D02*
Y84000D01*
X144252Y86252D02*
X157299D01*
X142000Y84000D02*
X144252Y86252D01*
X145252Y81252D02*
X157299D01*
X146000Y78162D02*
X146586Y78748D01*
X144000Y62586D02*
Y80000D01*
X146586Y78748D02*
X157299D01*
X144000Y80000D02*
X145252Y81252D01*
X146000Y56586D02*
Y78162D01*
X141414Y68000D02*
X142000Y68586D01*
X118650Y68000D02*
X141414D01*
X143414Y62000D02*
X144000Y62586D01*
X118650Y62000D02*
X143414D01*
X118650Y56000D02*
X145414D01*
X146000Y56586D01*
X130252Y108748D02*
X157299D01*
X129000Y110000D02*
X130252Y108748D01*
X118650Y110000D02*
X129000D01*
Y116000D02*
X131252Y113748D01*
X157299D01*
X140000Y118586D02*
X142334Y116252D01*
X157299D01*
X118650Y116000D02*
X129000D01*
X140000Y118586D02*
Y121414D01*
X118650Y122000D02*
X139414D01*
X140000Y121414D01*
X142834Y121252D02*
X157299D01*
X141500Y122586D02*
Y127414D01*
Y122586D02*
X142834Y121252D01*
X140914Y128000D02*
X141500Y127414D01*
X118650Y128000D02*
X140914D01*
X143000Y125000D02*
Y133414D01*
X144252Y123748D02*
X157299D01*
X143000Y125000D02*
X144252Y123748D01*
X142414Y134000D02*
X143000Y133414D01*
X118650Y134000D02*
X142414D01*
X146252Y128748D02*
X157299D01*
X144500Y130500D02*
X146252Y128748D01*
X118650Y140000D02*
X143914D01*
X144500Y139414D01*
Y130500D02*
Y139414D01*
X146000Y132586D02*
X147334Y131252D01*
X146000Y132586D02*
Y145000D01*
X145000Y146000D02*
X146000Y145000D01*
X147334Y131252D02*
X157299D01*
X118650Y146000D02*
X145000D01*
X194953Y106000D02*
X224000D01*
X194701Y106252D02*
X194953Y106000D01*
X224000D02*
X226000Y104000D01*
X231850D01*
X194701Y103748D02*
X213666D01*
X215000Y102414D01*
Y98586D02*
Y102414D01*
X215586Y98000D02*
X231850D01*
X215000Y98586D02*
X215586Y98000D01*
X213000Y92586D02*
Y99414D01*
X194701Y101252D02*
X211162D01*
X213000Y99414D01*
Y92586D02*
X213586Y92000D01*
X231850D01*
X194701Y96252D02*
X209748D01*
X211000Y95000D01*
X211586Y86000D02*
X231850D01*
X211000Y86586D02*
X211586Y86000D01*
X211000Y86586D02*
Y95000D01*
X194701Y93748D02*
X208166D01*
X209500Y92414D01*
Y80586D02*
Y92414D01*
Y80586D02*
X210086Y80000D01*
X231850D01*
X208000Y74586D02*
Y88162D01*
X194701Y88748D02*
X207414D01*
X208000Y88162D01*
Y74586D02*
X208586Y74000D01*
X231850D01*
X206500Y68586D02*
Y85414D01*
X194701Y86252D02*
X205662D01*
X206500Y85414D01*
X207086Y68000D02*
X231850D01*
X206500Y68586D02*
X207086Y68000D01*
X205586Y62000D02*
X231850D01*
X205000Y62586D02*
Y80666D01*
Y62586D02*
X205586Y62000D01*
X204414Y81252D02*
X205000Y80666D01*
X203500Y57086D02*
X204586Y56000D01*
X203500Y57086D02*
Y78162D01*
X194701Y81252D02*
X204414D01*
X194701Y78748D02*
X202914D01*
X203500Y78162D01*
X204586Y56000D02*
X231850D01*
X223000Y110000D02*
X231850D01*
X194701Y108748D02*
X221748D01*
X223000Y110000D01*
X213748Y113748D02*
X216000Y116000D01*
X194701Y113748D02*
X213748D01*
X216000Y116000D02*
X231850D01*
X194701Y123748D02*
X208414D01*
X209000Y124334D01*
Y133000D01*
X194953Y121000D02*
X210414D01*
X211000Y121586D01*
X211586Y128000D02*
X231850D01*
X211000Y127414D02*
X211586Y128000D01*
X212500Y117500D02*
Y121414D01*
X213086Y122000D01*
X211252Y116252D02*
X212500Y117500D01*
X211000Y121586D02*
Y127414D01*
X213086Y122000D02*
X231850D01*
X194701Y116252D02*
X211252D01*
X194701Y121252D02*
X194953Y121000D01*
X194701Y128748D02*
X206748D01*
X207500Y129500D01*
Y139414D01*
X206000Y132000D02*
Y145414D01*
X194701Y131252D02*
X205252D01*
X206000Y132000D01*
X209000Y133000D02*
X210000Y134000D01*
X231850D01*
X207500Y139414D02*
X208086Y140000D01*
X231850D01*
X206000Y145414D02*
X206586Y146000D01*
X231850D01*
X145586Y175748D02*
X156299D01*
X145000Y175162D02*
X145586Y175748D01*
X145000Y152586D02*
Y175162D01*
X193953Y176000D02*
X205414D01*
X193701Y178252D02*
X207414D01*
X193701Y183252D02*
X209414D01*
X212000Y170586D02*
Y185162D01*
X212586Y170000D02*
X232350D01*
X212000Y170586D02*
X212586Y170000D01*
X193701Y185748D02*
X211414D01*
X212000Y185162D01*
X214586Y176000D02*
X232350D01*
X214000Y176586D02*
X214586Y176000D01*
X216086Y182000D02*
X232350D01*
X215500Y182586D02*
X216086Y182000D01*
X214000Y176586D02*
Y190162D01*
X215500Y182586D02*
Y192166D01*
X217000Y188586D02*
X217586Y188000D01*
X232350D01*
X217000Y188586D02*
Y197666D01*
X193701Y190748D02*
X213414D01*
X214000Y190162D01*
X214414Y193252D02*
X215500Y192166D01*
X193701Y193252D02*
X214414D01*
X216414Y198252D02*
X217000Y197666D01*
X193701Y198252D02*
X216414D01*
X193701Y200748D02*
X219228D01*
X219814Y194586D02*
X220399Y194000D01*
X232350D01*
X219228Y200748D02*
X219814Y200162D01*
Y194586D02*
Y200162D01*
X222586Y200000D02*
X232350D01*
X193701Y203252D02*
X221414D01*
X222000Y202666D01*
Y200586D02*
X222586Y200000D01*
X222000Y200586D02*
Y202666D01*
X193701Y175748D02*
X193953Y176000D01*
X193701Y205748D02*
X232098D01*
X232350Y206000D01*
X222748Y210748D02*
X224000Y212000D01*
X193701Y210748D02*
X222748D01*
X224000Y212000D02*
X232350D01*
X216666Y213252D02*
X219000Y215586D01*
Y217414D01*
X193701Y213252D02*
X216666D01*
X219586Y218000D02*
X232350D01*
X219000Y217414D02*
X219586Y218000D01*
X193701Y218252D02*
X193953Y218000D01*
X216914D01*
X217500Y218586D02*
Y223414D01*
X216914Y218000D02*
X217500Y218586D01*
X218086Y224000D02*
X232350D01*
X217500Y223414D02*
X218086Y224000D01*
X193701Y220748D02*
X215414D01*
X216000Y221334D01*
Y229414D01*
X216586Y230000D01*
X232350D01*
X214500Y226500D02*
Y235414D01*
X193701Y225748D02*
X213748D01*
X214500Y226500D01*
Y235414D02*
X215086Y236000D01*
X232350D01*
X213000Y228838D02*
Y241414D01*
X193701Y228252D02*
X212414D01*
X213000Y228838D01*
Y241414D02*
X213586Y242000D01*
X232350D01*
X129650Y213838D02*
X130236Y213252D01*
X156299D01*
X119150Y212000D02*
X127000D01*
X128252Y210748D02*
X156299D01*
X127000Y212000D02*
X128252Y210748D01*
X129650Y213838D02*
Y218000D01*
X141586Y228252D02*
X156299D01*
X141000Y228838D02*
X141586Y228252D01*
X138586Y225748D02*
X156299D01*
X138000Y226334D02*
X138586Y225748D01*
X135000Y221334D02*
Y229414D01*
Y221334D02*
X135586Y220748D01*
X156299D01*
X119150Y230000D02*
X134414D01*
X135000Y229414D01*
X131414Y224000D02*
X132000Y223414D01*
X119150Y224000D02*
X131414D01*
X132000Y218838D02*
X132586Y218252D01*
X132000Y218838D02*
Y223414D01*
X132586Y218252D02*
X156299D01*
X119150Y218000D02*
X129650D01*
X119150Y152000D02*
X144414D01*
X145000Y152586D01*
X143586Y178252D02*
X156299D01*
X143000Y159000D02*
Y177666D01*
X142000Y158000D02*
X143000Y159000D01*
Y177666D02*
X143586Y178252D01*
X141000Y182666D02*
X141586Y183252D01*
X156299D01*
X141000Y164586D02*
Y182666D01*
X119150Y164000D02*
X140414D01*
X141000Y164586D01*
X138414Y170000D02*
X139000Y170586D01*
X119150Y170000D02*
X138414D01*
X139586Y186000D02*
X156047D01*
X139000Y170586D02*
Y185414D01*
X139586Y186000D01*
X137748Y190748D02*
X156299D01*
X137000Y176586D02*
Y190000D01*
X137748Y190748D01*
X136414Y176000D02*
X137000Y176586D01*
X119150Y176000D02*
X136414D01*
X119150Y182000D02*
X134414D01*
X135892Y193892D02*
X152776D01*
X135000Y182586D02*
Y193000D01*
X135892Y193892D01*
X134414Y182000D02*
X135000Y182586D01*
X133586Y198252D02*
X156299D01*
X119150Y188000D02*
X132414D01*
X133000Y188586D02*
Y197666D01*
X133586Y198252D01*
X132414Y188000D02*
X133000Y188586D01*
X131113Y194586D02*
Y200162D01*
X131699Y200748D01*
X130527Y194000D02*
X131113Y194586D01*
X119150Y194000D02*
X130527D01*
X131699Y200748D02*
X156299D01*
X129000Y200586D02*
Y202666D01*
X129586Y203252D01*
X156299D01*
X119150Y200000D02*
X128414D01*
X129000Y200586D01*
X119150Y158000D02*
X142000D01*
X153415Y193252D02*
X156299D01*
X152776Y193892D02*
X153415Y193252D01*
X156047Y186000D02*
X156299Y185748D01*
X119150Y206000D02*
X119402Y205748D01*
X156299D01*
D17*
X408000Y334850D02*
D03*
Y341150D02*
D03*
X398000D02*
D03*
Y334850D02*
D03*
X368000D02*
D03*
Y341150D02*
D03*
X388000Y334850D02*
D03*
Y341150D02*
D03*
X378000Y334850D02*
D03*
Y341150D02*
D03*
X358000Y334850D02*
D03*
Y341150D02*
D03*
X300000D02*
D03*
Y334850D02*
D03*
X213000Y341150D02*
D03*
Y334850D02*
D03*
X135000Y341150D02*
D03*
Y334850D02*
D03*
X55000D02*
D03*
Y341150D02*
D03*
X330000Y334850D02*
D03*
Y341150D02*
D03*
X310000Y334850D02*
D03*
Y341150D02*
D03*
X320000Y334850D02*
D03*
Y341150D02*
D03*
X263000Y334850D02*
D03*
Y341150D02*
D03*
X125000Y334850D02*
D03*
Y341150D02*
D03*
X243000Y334850D02*
D03*
Y341150D02*
D03*
X85000Y334850D02*
D03*
Y341150D02*
D03*
X75000Y334850D02*
D03*
Y341150D02*
D03*
X203000Y334850D02*
D03*
Y341150D02*
D03*
X253000Y334850D02*
D03*
Y341150D02*
D03*
X290000Y334850D02*
D03*
Y341150D02*
D03*
X273000Y334850D02*
D03*
Y341150D02*
D03*
X115000Y334850D02*
D03*
Y341150D02*
D03*
X65000Y334850D02*
D03*
Y341150D02*
D03*
X223000Y334850D02*
D03*
Y341150D02*
D03*
X105000Y334850D02*
D03*
Y341150D02*
D03*
X233000Y334850D02*
D03*
Y341150D02*
D03*
X95000Y334850D02*
D03*
Y341150D02*
D03*
X185000Y334850D02*
D03*
Y341150D02*
D03*
X175000Y334850D02*
D03*
Y341150D02*
D03*
X155000Y334850D02*
D03*
Y341150D02*
D03*
X165000Y334850D02*
D03*
Y341150D02*
D03*
X45000Y334850D02*
D03*
Y341150D02*
D03*
X145000Y334850D02*
D03*
Y341150D02*
D03*
X31000Y233150D02*
D03*
Y226850D02*
D03*
X41000Y233150D02*
D03*
Y226850D02*
D03*
D18*
X437000Y303150D02*
D03*
Y296850D02*
D03*
X409000D02*
D03*
Y303150D02*
D03*
X402000Y296850D02*
D03*
Y303150D02*
D03*
X416000Y296850D02*
D03*
Y303150D02*
D03*
X423000Y297000D02*
D03*
Y303299D02*
D03*
X430000Y296850D02*
D03*
Y303150D02*
D03*
X509000Y126150D02*
D03*
Y119850D02*
D03*
X503000Y126150D02*
D03*
Y119850D02*
D03*
X497000Y126150D02*
D03*
Y119850D02*
D03*
X491000Y126150D02*
D03*
Y119850D02*
D03*
X485000Y126150D02*
D03*
Y119850D02*
D03*
X479000Y126150D02*
D03*
Y119850D02*
D03*
X473000Y126150D02*
D03*
Y119850D02*
D03*
X467000D02*
D03*
Y126150D02*
D03*
X480000Y63150D02*
D03*
Y56850D02*
D03*
X490000Y63150D02*
D03*
Y56850D02*
D03*
X461000Y119850D02*
D03*
Y126150D02*
D03*
X542000Y157850D02*
D03*
Y164150D02*
D03*
X499000Y189850D02*
D03*
Y196150D02*
D03*
X458000D02*
D03*
Y189850D02*
D03*
X536000Y157850D02*
D03*
Y164150D02*
D03*
X548000Y157850D02*
D03*
Y164150D02*
D03*
X476000Y196150D02*
D03*
Y189850D02*
D03*
X464000Y196150D02*
D03*
Y189850D02*
D03*
X493000D02*
D03*
Y196150D02*
D03*
X470000D02*
D03*
Y189850D02*
D03*
X47000Y190850D02*
D03*
Y197150D02*
D03*
X31000Y213150D02*
D03*
Y206850D02*
D03*
X41000Y213150D02*
D03*
Y206850D02*
D03*
D19*
X112350Y134000D02*
D03*
X118650D02*
D03*
X232350Y224000D02*
D03*
X238650D02*
D03*
X232350Y230000D02*
D03*
X238650D02*
D03*
X232350Y218000D02*
D03*
X238650D02*
D03*
X232350Y236000D02*
D03*
X238650D02*
D03*
X232350Y242000D02*
D03*
X238650D02*
D03*
X112850D02*
D03*
X119150D02*
D03*
X112850Y236000D02*
D03*
X119150D02*
D03*
X112850Y230000D02*
D03*
X119150D02*
D03*
X112850Y224000D02*
D03*
X119150D02*
D03*
X112850Y218000D02*
D03*
X119150D02*
D03*
X112850Y176000D02*
D03*
X119150D02*
D03*
X112850Y170000D02*
D03*
X119150D02*
D03*
X112850Y164000D02*
D03*
X119150D02*
D03*
X232350D02*
D03*
X238650D02*
D03*
X232350Y170000D02*
D03*
X238650D02*
D03*
X232350Y158000D02*
D03*
X238650D02*
D03*
X112850D02*
D03*
X119150D02*
D03*
X112850Y152000D02*
D03*
X119150D02*
D03*
X112850Y200000D02*
D03*
X119150D02*
D03*
X112850Y194000D02*
D03*
X119150D02*
D03*
X232350Y152000D02*
D03*
X238650D02*
D03*
X232350Y194000D02*
D03*
X238650D02*
D03*
X232350Y212000D02*
D03*
X238650D02*
D03*
X232350Y206000D02*
D03*
X238650D02*
D03*
X232350Y200000D02*
D03*
X238650D02*
D03*
X112850Y182000D02*
D03*
X119150D02*
D03*
X112850Y188000D02*
D03*
X119150D02*
D03*
X112850Y212000D02*
D03*
X119150D02*
D03*
X112850Y206000D02*
D03*
X119150D02*
D03*
X232350Y188000D02*
D03*
X238650D02*
D03*
X232350Y182000D02*
D03*
X238650D02*
D03*
X232350Y176000D02*
D03*
X238650D02*
D03*
X238150Y62000D02*
D03*
X231850D02*
D03*
X118650D02*
D03*
X112350D02*
D03*
X238150Y56000D02*
D03*
X231850D02*
D03*
X118650D02*
D03*
X112350D02*
D03*
X238150Y80000D02*
D03*
X231850D02*
D03*
X118650Y74000D02*
D03*
X112350D02*
D03*
X118650Y80000D02*
D03*
X112350D02*
D03*
X238150Y86000D02*
D03*
X231850D02*
D03*
X118650Y68000D02*
D03*
X112350D02*
D03*
X435701Y140000D02*
D03*
X442000D02*
D03*
X435850Y146000D02*
D03*
X442150D02*
D03*
X238150Y74000D02*
D03*
X231850D02*
D03*
X238150Y68000D02*
D03*
X231850D02*
D03*
X435850Y158000D02*
D03*
X442150D02*
D03*
X238150Y98000D02*
D03*
X231850D02*
D03*
X509850Y154000D02*
D03*
X516150D02*
D03*
X435850Y152000D02*
D03*
X442150D02*
D03*
X509850Y148000D02*
D03*
X516150D02*
D03*
X118650Y122000D02*
D03*
X112350D02*
D03*
X509850Y166000D02*
D03*
X516150D02*
D03*
X238150Y104000D02*
D03*
X231850D02*
D03*
X118650Y110000D02*
D03*
X112350D02*
D03*
X512850Y230000D02*
D03*
X519150D02*
D03*
X238150Y128000D02*
D03*
X231850D02*
D03*
X118650Y116000D02*
D03*
X112350D02*
D03*
X118650Y104000D02*
D03*
X112350D02*
D03*
X118650Y86000D02*
D03*
X112350D02*
D03*
X435850Y170000D02*
D03*
X442150D02*
D03*
X118650Y92000D02*
D03*
X112350D02*
D03*
X238150Y134000D02*
D03*
X231850D02*
D03*
X118650Y98000D02*
D03*
X112350D02*
D03*
X118650Y128000D02*
D03*
X112350D02*
D03*
X509850Y160000D02*
D03*
X516150D02*
D03*
X238150Y146000D02*
D03*
X231850D02*
D03*
X238150Y116000D02*
D03*
X231850D02*
D03*
X118650Y146000D02*
D03*
X112350D02*
D03*
X118650Y140000D02*
D03*
X112350D02*
D03*
X509850Y172000D02*
D03*
X516150D02*
D03*
X435850Y164000D02*
D03*
X442150D02*
D03*
X238150Y110000D02*
D03*
X231850D02*
D03*
X238150Y92000D02*
D03*
X231850D02*
D03*
X238150Y140000D02*
D03*
X231850D02*
D03*
X238150Y122000D02*
D03*
X231850D02*
D03*
X38150Y197000D02*
D03*
X31850D02*
D03*
X47150Y61000D02*
D03*
X40850D02*
D03*
D20*
X194701Y133748D02*
D03*
Y131252D02*
D03*
Y128748D02*
D03*
Y126252D02*
D03*
Y123748D02*
D03*
Y121252D02*
D03*
Y118748D02*
D03*
Y116252D02*
D03*
Y113748D02*
D03*
Y111252D02*
D03*
Y108748D02*
D03*
Y106252D02*
D03*
Y103748D02*
D03*
Y101252D02*
D03*
Y98748D02*
D03*
Y96252D02*
D03*
Y93748D02*
D03*
Y91252D02*
D03*
Y88748D02*
D03*
Y86252D02*
D03*
Y83748D02*
D03*
Y81252D02*
D03*
Y78748D02*
D03*
Y76252D02*
D03*
X157299D02*
D03*
Y78748D02*
D03*
Y81252D02*
D03*
Y83748D02*
D03*
Y86252D02*
D03*
Y88748D02*
D03*
Y91252D02*
D03*
Y93748D02*
D03*
Y96252D02*
D03*
Y98748D02*
D03*
Y101252D02*
D03*
Y103748D02*
D03*
Y106252D02*
D03*
Y108748D02*
D03*
Y111252D02*
D03*
Y113748D02*
D03*
Y116252D02*
D03*
Y118748D02*
D03*
Y121252D02*
D03*
Y123748D02*
D03*
Y126252D02*
D03*
Y128748D02*
D03*
Y131252D02*
D03*
Y133748D02*
D03*
X193701Y173252D02*
D03*
Y175748D02*
D03*
Y178252D02*
D03*
Y180748D02*
D03*
Y183252D02*
D03*
Y185748D02*
D03*
Y188252D02*
D03*
Y190748D02*
D03*
Y193252D02*
D03*
Y195748D02*
D03*
Y198252D02*
D03*
Y200748D02*
D03*
Y203252D02*
D03*
Y205748D02*
D03*
Y208252D02*
D03*
Y210748D02*
D03*
Y213252D02*
D03*
Y215748D02*
D03*
Y218252D02*
D03*
Y220748D02*
D03*
Y223252D02*
D03*
Y225748D02*
D03*
Y228252D02*
D03*
Y230748D02*
D03*
X156299D02*
D03*
Y228252D02*
D03*
Y225748D02*
D03*
Y223252D02*
D03*
Y220748D02*
D03*
Y218252D02*
D03*
Y215748D02*
D03*
Y213252D02*
D03*
Y210748D02*
D03*
Y208252D02*
D03*
Y205748D02*
D03*
Y203252D02*
D03*
Y200748D02*
D03*
Y198252D02*
D03*
Y195748D02*
D03*
Y193252D02*
D03*
Y190748D02*
D03*
Y188252D02*
D03*
Y185748D02*
D03*
Y183252D02*
D03*
Y180748D02*
D03*
Y178252D02*
D03*
Y175748D02*
D03*
Y173252D02*
D03*
D21*
X356567Y116516D02*
D03*
Y113957D02*
D03*
Y111398D02*
D03*
Y108839D02*
D03*
Y106280D02*
D03*
Y103720D02*
D03*
Y101161D02*
D03*
Y98602D02*
D03*
Y96043D02*
D03*
Y93484D02*
D03*
X333433D02*
D03*
Y96043D02*
D03*
Y98602D02*
D03*
Y101161D02*
D03*
Y103720D02*
D03*
Y106280D02*
D03*
Y108839D02*
D03*
Y111398D02*
D03*
Y113957D02*
D03*
Y116516D02*
D03*
Y178516D02*
D03*
Y175957D02*
D03*
Y173398D02*
D03*
Y170839D02*
D03*
Y168280D02*
D03*
Y165720D02*
D03*
Y163161D02*
D03*
Y160602D02*
D03*
Y158043D02*
D03*
Y155484D02*
D03*
X356567D02*
D03*
Y158043D02*
D03*
Y160602D02*
D03*
Y163161D02*
D03*
Y165720D02*
D03*
Y168280D02*
D03*
Y170839D02*
D03*
Y173398D02*
D03*
Y175957D02*
D03*
Y178516D02*
D03*
D22*
X510000Y290000D02*
D03*
Y315000D02*
D03*
D23*
X468976Y173685D02*
D03*
X472126D02*
D03*
X475276D02*
D03*
X478425D02*
D03*
X481575D02*
D03*
X484724D02*
D03*
X487874D02*
D03*
X491024D02*
D03*
Y140315D02*
D03*
X487874D02*
D03*
X484724D02*
D03*
X481575D02*
D03*
X478425D02*
D03*
X475276D02*
D03*
X472126D02*
D03*
X468976D02*
D03*
D24*
X496685Y168024D02*
D03*
Y164874D02*
D03*
Y161724D02*
D03*
Y158575D02*
D03*
Y155425D02*
D03*
Y152276D02*
D03*
Y149126D02*
D03*
Y145976D02*
D03*
X463315D02*
D03*
Y149126D02*
D03*
Y152276D02*
D03*
Y155425D02*
D03*
Y158575D02*
D03*
Y161724D02*
D03*
Y164874D02*
D03*
Y168024D02*
D03*
D25*
X29842Y103961D02*
D03*
Y100811D02*
D03*
Y97661D02*
D03*
Y94512D02*
D03*
Y91362D02*
D03*
D26*
Y80142D02*
D03*
X8189D02*
D03*
Y115181D02*
D03*
X29842D02*
D03*
D27*
X363976Y282516D02*
D03*
Y279957D02*
D03*
Y277398D02*
D03*
Y274839D02*
D03*
Y272280D02*
D03*
Y269721D02*
D03*
Y267161D02*
D03*
Y264602D02*
D03*
Y262043D02*
D03*
Y259484D02*
D03*
X336024D02*
D03*
Y262043D02*
D03*
Y264602D02*
D03*
Y267161D02*
D03*
Y269721D02*
D03*
Y272280D02*
D03*
Y274839D02*
D03*
Y277398D02*
D03*
Y279957D02*
D03*
Y282516D02*
D03*
X46024Y281516D02*
D03*
Y278957D02*
D03*
Y276398D02*
D03*
Y273839D02*
D03*
Y271280D02*
D03*
Y268721D02*
D03*
Y266161D02*
D03*
Y263602D02*
D03*
Y261043D02*
D03*
Y258484D02*
D03*
X73976D02*
D03*
Y261043D02*
D03*
Y263602D02*
D03*
Y266161D02*
D03*
Y268721D02*
D03*
Y271280D02*
D03*
Y273839D02*
D03*
Y276398D02*
D03*
Y278957D02*
D03*
Y281516D02*
D03*
X226024D02*
D03*
Y278957D02*
D03*
Y276398D02*
D03*
Y273839D02*
D03*
Y271280D02*
D03*
Y268721D02*
D03*
Y266161D02*
D03*
Y263602D02*
D03*
Y261043D02*
D03*
Y258484D02*
D03*
X253976D02*
D03*
Y261043D02*
D03*
Y263602D02*
D03*
Y266161D02*
D03*
Y268721D02*
D03*
Y271280D02*
D03*
Y273839D02*
D03*
Y276398D02*
D03*
Y278957D02*
D03*
Y281516D02*
D03*
X126024D02*
D03*
Y278957D02*
D03*
Y276398D02*
D03*
Y273839D02*
D03*
Y271280D02*
D03*
Y268721D02*
D03*
Y266161D02*
D03*
Y263602D02*
D03*
Y261043D02*
D03*
Y258484D02*
D03*
X153976D02*
D03*
Y261043D02*
D03*
Y263602D02*
D03*
Y266161D02*
D03*
Y268721D02*
D03*
Y271280D02*
D03*
Y273839D02*
D03*
Y276398D02*
D03*
Y278957D02*
D03*
Y281516D02*
D03*
D28*
X26221Y170634D02*
D03*
Y168075D02*
D03*
Y165516D02*
D03*
Y162957D02*
D03*
Y160398D02*
D03*
Y157839D02*
D03*
Y155280D02*
D03*
Y152720D02*
D03*
Y150161D02*
D03*
Y147602D02*
D03*
Y145043D02*
D03*
Y142484D02*
D03*
Y139925D02*
D03*
Y137366D02*
D03*
X53780D02*
D03*
Y139925D02*
D03*
Y142484D02*
D03*
Y145043D02*
D03*
Y147602D02*
D03*
Y150161D02*
D03*
Y152720D02*
D03*
Y155280D02*
D03*
Y157839D02*
D03*
Y160398D02*
D03*
Y162957D02*
D03*
Y165516D02*
D03*
Y168075D02*
D03*
Y170634D02*
D03*
D29*
X530158Y334173D02*
D03*
X540000D02*
D03*
X549843D02*
D03*
Y355827D02*
D03*
X540000D02*
D03*
X530158D02*
D03*
D51*
X545000Y245000D02*
Y269000D01*
X510000Y271343D02*
X512343Y269000D01*
X510000Y271343D02*
Y290000D01*
X512343Y269000D02*
X545000D01*
X540000Y310000D02*
Y334173D01*
X549843D02*
Y355827D01*
X519601Y364414D02*
X549257D01*
X509975D02*
X519601D01*
X549843Y355827D02*
Y363828D01*
X509975Y315025D02*
Y364414D01*
X540000Y334173D02*
Y355827D01*
D52*
X545000Y245000D02*
D03*
Y230000D02*
D03*
Y215000D02*
D03*
X180000Y30000D02*
D03*
X190000Y20000D02*
D03*
Y30000D02*
D03*
X200000Y20000D02*
D03*
Y30000D02*
D03*
X210000Y20000D02*
D03*
Y30000D02*
D03*
X220000Y20000D02*
D03*
Y30000D02*
D03*
X230000Y20000D02*
D03*
Y30000D02*
D03*
X240000Y20000D02*
D03*
Y30000D02*
D03*
X250000Y20000D02*
D03*
Y30000D02*
D03*
X540000Y290000D02*
D03*
X370000Y30000D02*
D03*
Y20000D02*
D03*
X360000Y30000D02*
D03*
Y20000D02*
D03*
X350000Y30000D02*
D03*
Y20000D02*
D03*
X340000Y30000D02*
D03*
Y20000D02*
D03*
X330000Y30000D02*
D03*
Y20000D02*
D03*
X320000Y30000D02*
D03*
Y20000D02*
D03*
X310000Y30000D02*
D03*
Y20000D02*
D03*
X300000Y30000D02*
D03*
X490000D02*
D03*
Y20000D02*
D03*
X480000Y30000D02*
D03*
Y20000D02*
D03*
X470000Y30000D02*
D03*
Y20000D02*
D03*
X460000Y30000D02*
D03*
Y20000D02*
D03*
X450000Y30000D02*
D03*
Y20000D02*
D03*
X440000Y30000D02*
D03*
Y20000D02*
D03*
X430000Y30000D02*
D03*
Y20000D02*
D03*
X420000Y30000D02*
D03*
X130000D02*
D03*
Y20000D02*
D03*
X120000Y30000D02*
D03*
Y20000D02*
D03*
X110000Y30000D02*
D03*
Y20000D02*
D03*
X100000Y30000D02*
D03*
Y20000D02*
D03*
X90000Y30000D02*
D03*
Y20000D02*
D03*
X80000Y30000D02*
D03*
Y20000D02*
D03*
X70000Y30000D02*
D03*
Y20000D02*
D03*
X60000Y30000D02*
D03*
D53*
X180000Y20000D02*
D03*
X300000D02*
D03*
X420000D02*
D03*
X60000D02*
D03*
D54*
X540000Y310000D02*
D03*
D55*
X10000Y197000D02*
D03*
X436000Y184000D02*
D03*
D56*
X10000Y207000D02*
D03*
X14000Y49000D02*
D03*
X534000Y198000D02*
D03*
X27000Y49000D02*
D03*
X14000Y61000D02*
D03*
X27000D02*
D03*
X436000Y194000D02*
D03*
D57*
X20000Y106323D02*
D03*
Y89000D02*
D03*
D58*
X540000Y380000D02*
D03*
X20000D02*
D03*
Y20000D02*
D03*
X540000D02*
D03*
D59*
X510000Y80000D02*
D03*
Y196150D02*
D03*
X443000Y104000D02*
D03*
X431000D02*
D03*
X424000Y152000D02*
D03*
X402000Y282000D02*
D03*
X409000Y270000D02*
D03*
X437000Y265000D02*
D03*
X416000Y278000D02*
D03*
X523000Y166000D02*
D03*
X516000Y180000D02*
D03*
X527000Y121000D02*
D03*
Y130000D02*
D03*
X499000Y63000D02*
D03*
X472000Y103000D02*
D03*
X480000D02*
D03*
X415000Y261000D02*
D03*
X404000D02*
D03*
X408000Y348000D02*
D03*
X423000Y336000D02*
D03*
X256000Y250000D02*
D03*
X300000Y271000D02*
D03*
X307000Y276000D02*
D03*
X264000Y258000D02*
D03*
X300000Y236000D02*
D03*
X260000Y218000D02*
D03*
X205000Y264000D02*
D03*
X257000Y230000D02*
D03*
X265000Y224000D02*
D03*
X210000Y284000D02*
D03*
X263000Y206000D02*
D03*
X209000Y274000D02*
D03*
X195000Y269000D02*
D03*
X253000Y212000D02*
D03*
X195000Y163000D02*
D03*
X170000Y215748D02*
D03*
X544000Y87000D02*
D03*
X543000Y149000D02*
D03*
X525000Y143000D02*
D03*
X531000Y153000D02*
D03*
X71000Y227000D02*
D03*
X76000Y245000D02*
D03*
X67000Y239000D02*
D03*
X72000Y104000D02*
D03*
X139000Y255000D02*
D03*
X114000Y269000D02*
D03*
X113000Y282000D02*
D03*
X104000Y274000D02*
D03*
Y264000D02*
D03*
X103000Y303000D02*
D03*
X23000Y274000D02*
D03*
X25000Y286000D02*
D03*
X36000Y269000D02*
D03*
X29000Y263000D02*
D03*
X94000Y236000D02*
D03*
X83000Y269000D02*
D03*
X89000Y264000D02*
D03*
Y231000D02*
D03*
X86000Y224000D02*
D03*
X83000Y259000D02*
D03*
X290000Y321000D02*
D03*
X47000Y301000D02*
D03*
X96000Y200000D02*
D03*
X505000Y183000D02*
D03*
X523000Y244000D02*
D03*
X416000Y97000D02*
D03*
X423000Y102000D02*
D03*
X381000Y231000D02*
D03*
X343018Y227500D02*
D03*
X331000Y224000D02*
D03*
X376000Y215000D02*
D03*
X411000Y117000D02*
D03*
X407000Y111000D02*
D03*
X307000Y241000D02*
D03*
X290000Y255000D02*
D03*
X203000Y244000D02*
D03*
X281000Y253000D02*
D03*
X275000Y259000D02*
D03*
X280000Y212000D02*
D03*
X270000Y265000D02*
D03*
X315500Y269500D02*
D03*
X310000Y185000D02*
D03*
X387000Y140000D02*
D03*
X389000Y157000D02*
D03*
X333000Y123000D02*
D03*
X346000Y91000D02*
D03*
X356000Y145000D02*
D03*
X376000D02*
D03*
X345000Y153000D02*
D03*
X357000Y188000D02*
D03*
X363000Y240000D02*
D03*
X345000Y265000D02*
D03*
X366000Y295000D02*
D03*
X378000Y290000D02*
D03*
X321000Y260000D02*
D03*
X336000Y295000D02*
D03*
X166000Y289000D02*
D03*
X265000Y290000D02*
D03*
X255000Y293000D02*
D03*
X213000Y258000D02*
D03*
X226000Y293000D02*
D03*
X155000Y291000D02*
D03*
X126000D02*
D03*
X46000Y248000D02*
D03*
X86000Y288000D02*
D03*
X75000Y293000D02*
D03*
X46000Y291000D02*
D03*
X45000Y316000D02*
D03*
X115000D02*
D03*
X203000Y320000D02*
D03*
X338000Y336000D02*
D03*
X403000Y97000D02*
D03*
X409000Y83000D02*
D03*
X342000Y236000D02*
D03*
X350500Y240414D02*
D03*
X290000Y224000D02*
D03*
X374000Y117000D02*
D03*
X175000Y55000D02*
D03*
X29000Y124000D02*
D03*
X52000Y121000D02*
D03*
Y129000D02*
D03*
X17000D02*
D03*
X12000Y168000D02*
D03*
X14000Y148000D02*
D03*
X44000Y80000D02*
D03*
X39000Y161000D02*
D03*
Y150000D02*
D03*
X44000Y182000D02*
D03*
X474000Y164000D02*
D03*
X488000Y161000D02*
D03*
X474000Y153000D02*
D03*
X542000Y172000D02*
D03*
X300000Y60000D02*
D03*
X310000D02*
D03*
X320000D02*
D03*
X330000D02*
D03*
X339000D02*
D03*
X350000Y65000D02*
D03*
X360000Y70000D02*
D03*
X370000Y75000D02*
D03*
X269000Y152000D02*
D03*
X275000Y158000D02*
D03*
X280000Y164000D02*
D03*
X285000Y170000D02*
D03*
X290000Y176000D02*
D03*
X295000Y182000D02*
D03*
X300000Y188000D02*
D03*
X305000Y194000D02*
D03*
X270000Y200000D02*
D03*
X275000Y206000D02*
D03*
X285000Y218000D02*
D03*
X295000Y230000D02*
D03*
X321000Y90000D02*
D03*
X398000Y348000D02*
D03*
X388000D02*
D03*
X378000D02*
D03*
X368000D02*
D03*
X358000D02*
D03*
X330000D02*
D03*
X320000D02*
D03*
X310000D02*
D03*
X300000D02*
D03*
X290000D02*
D03*
X273000D02*
D03*
X263000D02*
D03*
X253000D02*
D03*
X243000D02*
D03*
X233000D02*
D03*
X223000D02*
D03*
X213000D02*
D03*
X203000D02*
D03*
X185000D02*
D03*
X175000D02*
D03*
X165000D02*
D03*
X155000D02*
D03*
X145000D02*
D03*
X135000D02*
D03*
X125000D02*
D03*
X115000D02*
D03*
X105000D02*
D03*
X95000D02*
D03*
X85000D02*
D03*
X75000D02*
D03*
X65000D02*
D03*
X55000D02*
D03*
X45000D02*
D03*
X94000Y92000D02*
D03*
X104000Y98000D02*
D03*
X100000Y86000D02*
D03*
X106000Y80000D02*
D03*
X87000Y78000D02*
D03*
Y71000D02*
D03*
Y62000D02*
D03*
X98000Y104000D02*
D03*
X104000Y110000D02*
D03*
X99000Y116000D02*
D03*
X101000Y127500D02*
D03*
X104000Y121000D02*
D03*
X101000Y140500D02*
D03*
X104000Y134000D02*
D03*
Y152000D02*
D03*
X170000Y188252D02*
D03*
X184000Y180748D02*
D03*
Y195748D02*
D03*
Y208252D02*
D03*
Y223252D02*
D03*
X170000Y91252D02*
D03*
Y118748D02*
D03*
X184000Y83748D02*
D03*
Y98748D02*
D03*
Y111252D02*
D03*
Y126252D02*
D03*
X164000Y70000D02*
D03*
Y140000D02*
D03*
M02*
