G04*
G04 #@! TF.GenerationSoftware,Altium Limited,Altium Designer,22.3.1 (43)*
G04*
G04 Layer_Color=32768*
%FSLAX25Y25*%
%MOIN*%
G70*
G04*
G04 #@! TF.SameCoordinates,F15A7EA6-3F3C-4714-8FA7-CF7AF9E4284A*
G04*
G04*
G04 #@! TF.FilePolarity,Positive*
G04*
G01*
G75*
%ADD11C,0.00394*%
%ADD12C,0.00787*%
%ADD69C,0.00197*%
D11*
X406425Y342150D02*
X409575D01*
Y335850D02*
Y342150D01*
X406425Y335850D02*
X409575D01*
X406425D02*
Y342150D01*
X435425Y296850D02*
X438575D01*
Y303150D01*
X435425D02*
X438575D01*
X435425Y296850D02*
Y303150D01*
X118650Y132425D02*
Y135575D01*
X112350D02*
X118650D01*
X112350Y132425D02*
Y135575D01*
Y132425D02*
X118650D01*
X161256Y133748D02*
X163756Y136252D01*
X161256Y73748D02*
Y136252D01*
Y73748D02*
X190744D01*
Y136252D01*
X161256D02*
X190744D01*
X160256Y170748D02*
X189744D01*
X160256D02*
Y233252D01*
X189744D01*
Y170748D02*
Y233252D01*
X187244Y170748D02*
X189744Y173252D01*
X232350Y225575D02*
X238650D01*
Y222425D02*
Y225575D01*
X232350Y222425D02*
X238650D01*
X232350D02*
Y225575D01*
Y231575D02*
X238650D01*
Y228425D02*
Y231575D01*
X232350Y228425D02*
X238650D01*
X232350D02*
Y231575D01*
Y219575D02*
X238650D01*
Y216425D02*
Y219575D01*
X232350Y216425D02*
X238650D01*
X232350D02*
Y219575D01*
Y237575D02*
X238650D01*
Y234425D02*
Y237575D01*
X232350Y234425D02*
X238650D01*
X232350D02*
Y237575D01*
Y243575D02*
X238650D01*
Y240425D02*
Y243575D01*
X232350Y240425D02*
X238650D01*
X232350D02*
Y243575D01*
X112850D02*
X119150D01*
Y240425D02*
Y243575D01*
X112850Y240425D02*
X119150D01*
X112850D02*
Y243575D01*
Y237575D02*
X119150D01*
Y234425D02*
Y237575D01*
X112850Y234425D02*
X119150D01*
X112850D02*
Y237575D01*
Y231575D02*
X119150D01*
Y228425D02*
Y231575D01*
X112850Y228425D02*
X119150D01*
X112850D02*
Y231575D01*
Y225575D02*
X119150D01*
Y222425D02*
Y225575D01*
X112850Y222425D02*
X119150D01*
X112850D02*
Y225575D01*
Y219575D02*
X119150D01*
Y216425D02*
Y219575D01*
X112850Y216425D02*
X119150D01*
X112850D02*
Y219575D01*
Y177575D02*
X119150D01*
Y174425D02*
Y177575D01*
X112850Y174425D02*
X119150D01*
X112850D02*
Y177575D01*
Y171575D02*
X119150D01*
Y168425D02*
Y171575D01*
X112850Y168425D02*
X119150D01*
X112850D02*
Y171575D01*
Y165575D02*
X119150D01*
Y162425D02*
Y165575D01*
X112850Y162425D02*
X119150D01*
X112850D02*
Y165575D01*
X232350D02*
X238650D01*
Y162425D02*
Y165575D01*
X232350Y162425D02*
X238650D01*
X232350D02*
Y165575D01*
Y171575D02*
X238650D01*
Y168425D02*
Y171575D01*
X232350Y168425D02*
X238650D01*
X232350D02*
Y171575D01*
Y159575D02*
X238650D01*
Y156425D02*
Y159575D01*
X232350Y156425D02*
X238650D01*
X232350D02*
Y159575D01*
X112850D02*
X119150D01*
Y156425D02*
Y159575D01*
X112850Y156425D02*
X119150D01*
X112850D02*
Y159575D01*
Y153575D02*
X119150D01*
Y150425D02*
Y153575D01*
X112850Y150425D02*
X119150D01*
X112850D02*
Y153575D01*
Y201575D02*
X119150D01*
Y198425D02*
Y201575D01*
X112850Y198425D02*
X119150D01*
X112850D02*
Y201575D01*
Y195575D02*
X119150D01*
Y192425D02*
Y195575D01*
X112850Y192425D02*
X119150D01*
X112850D02*
Y195575D01*
X232350Y153575D02*
X238650D01*
Y150425D02*
Y153575D01*
X232350Y150425D02*
X238650D01*
X232350D02*
Y153575D01*
Y195575D02*
X238650D01*
Y192425D02*
Y195575D01*
X232350Y192425D02*
X238650D01*
X232350D02*
Y195575D01*
Y213575D02*
X238650D01*
Y210425D02*
Y213575D01*
X232350Y210425D02*
X238650D01*
X232350D02*
Y213575D01*
Y207575D02*
X238650D01*
Y204425D02*
Y207575D01*
X232350Y204425D02*
X238650D01*
X232350D02*
Y207575D01*
Y201575D02*
X238650D01*
Y198425D02*
Y201575D01*
X232350Y198425D02*
X238650D01*
X232350D02*
Y201575D01*
X112850Y183575D02*
X119150D01*
Y180425D02*
Y183575D01*
X112850Y180425D02*
X119150D01*
X112850D02*
Y183575D01*
Y189575D02*
X119150D01*
Y186425D02*
Y189575D01*
X112850Y186425D02*
X119150D01*
X112850D02*
Y189575D01*
Y213575D02*
X119150D01*
Y210425D02*
Y213575D01*
X112850Y210425D02*
X119150D01*
X112850D02*
Y213575D01*
Y207575D02*
X119150D01*
Y204425D02*
Y207575D01*
X112850Y204425D02*
X119150D01*
X112850D02*
Y207575D01*
X232350Y189575D02*
X238650D01*
Y186425D02*
Y189575D01*
X232350Y186425D02*
X238650D01*
X232350D02*
Y189575D01*
Y183575D02*
X238650D01*
Y180425D02*
Y183575D01*
X232350Y180425D02*
X238650D01*
X232350D02*
Y183575D01*
Y177575D02*
X238650D01*
Y174425D02*
Y177575D01*
X232350Y174425D02*
X238650D01*
X232350D02*
Y177575D01*
X336339Y115236D02*
X338898Y117795D01*
X336339Y92205D02*
Y117795D01*
Y92205D02*
X353661D01*
Y117795D01*
X336339D02*
X353661D01*
X160000Y7000D02*
Y42500D01*
X270000D01*
Y7000D02*
Y42500D01*
X160000Y7000D02*
X270000D01*
X528583Y320000D02*
X557126D01*
X528583Y280000D02*
Y320000D01*
Y280000D02*
X557126D01*
Y320000D01*
X339567Y282614D02*
X342126Y285173D01*
X339567Y256827D02*
Y285173D01*
Y256827D02*
X360433D01*
Y285173D01*
X339567D02*
X360433D01*
X356425Y335850D02*
Y342150D01*
Y335850D02*
X359575D01*
Y342150D01*
X356425D02*
X359575D01*
X366425Y335850D02*
Y342150D01*
Y335850D02*
X369575D01*
Y342150D01*
X366425D02*
X369575D01*
X376425Y335850D02*
Y342150D01*
Y335850D02*
X379575D01*
Y342150D01*
X376425D02*
X379575D01*
X386425Y335850D02*
Y342150D01*
Y335850D02*
X389575D01*
Y342150D01*
X386425D02*
X389575D01*
X396425Y335850D02*
Y342150D01*
Y335850D02*
X399575D01*
Y342150D01*
X396425D02*
X399575D01*
X407425Y296850D02*
Y303150D01*
X410575D01*
Y296850D02*
Y303150D01*
X407425Y296850D02*
X410575D01*
X400425D02*
Y303150D01*
X403575D01*
Y296850D02*
Y303150D01*
X400425Y296850D02*
X403575D01*
X414425D02*
Y303150D01*
X417575D01*
Y296850D02*
Y303150D01*
X414425Y296850D02*
X417575D01*
X421425Y297000D02*
Y303299D01*
X424575D01*
Y297000D02*
Y303299D01*
X421425Y297000D02*
X424575D01*
X428425Y296850D02*
Y303150D01*
X431575D01*
Y296850D02*
Y303150D01*
X428425Y296850D02*
X431575D01*
X328425Y342150D02*
X331575D01*
Y335850D02*
Y342150D01*
X328425Y335850D02*
X331575D01*
X328425D02*
Y342150D01*
X308425D02*
X311575D01*
Y335850D02*
Y342150D01*
X308425Y335850D02*
X311575D01*
X308425D02*
Y342150D01*
X318425D02*
X321575D01*
Y335850D02*
Y342150D01*
X318425Y335850D02*
X321575D01*
X318425D02*
Y342150D01*
X288425D02*
X291575D01*
Y335850D02*
Y342150D01*
X288425Y335850D02*
X291575D01*
X288425D02*
Y342150D01*
X298425D02*
X301575D01*
Y335850D02*
Y342150D01*
X298425Y335850D02*
X301575D01*
X298425D02*
Y342150D01*
X271425D02*
X274575D01*
Y335850D02*
Y342150D01*
X271425Y335850D02*
X274575D01*
X271425D02*
Y342150D01*
X251425D02*
X254575D01*
Y335850D02*
Y342150D01*
X251425Y335850D02*
X254575D01*
X251425D02*
Y342150D01*
X221425D02*
X224575D01*
Y335850D02*
Y342150D01*
X221425Y335850D02*
X224575D01*
X221425D02*
Y342150D01*
X261425D02*
X264575D01*
Y335850D02*
Y342150D01*
X261425Y335850D02*
X264575D01*
X261425D02*
Y342150D01*
X241425D02*
X244575D01*
Y335850D02*
Y342150D01*
X241425Y335850D02*
X244575D01*
X241425D02*
Y342150D01*
X211425D02*
X214575D01*
Y335850D02*
Y342150D01*
X211425Y335850D02*
X214575D01*
X211425D02*
Y342150D01*
X201425D02*
X204575D01*
Y335850D02*
Y342150D01*
X201425Y335850D02*
X204575D01*
X201425D02*
Y342150D01*
X231425D02*
X234575D01*
Y335850D02*
Y342150D01*
X231425Y335850D02*
X234575D01*
X231425D02*
Y342150D01*
X153425D02*
X156575D01*
Y335850D02*
Y342150D01*
X153425Y335850D02*
X156575D01*
X153425D02*
Y342150D01*
X143425D02*
X146575D01*
Y335850D02*
Y342150D01*
X143425Y335850D02*
X146575D01*
X143425D02*
Y342150D01*
X163425D02*
X166575D01*
Y335850D02*
Y342150D01*
X163425Y335850D02*
X166575D01*
X163425D02*
Y342150D01*
X173425D02*
X176575D01*
Y335850D02*
Y342150D01*
X173425Y335850D02*
X176575D01*
X173425D02*
Y342150D01*
X183425D02*
X186575D01*
Y335850D02*
Y342150D01*
X183425Y335850D02*
X186575D01*
X183425D02*
Y342150D01*
X133425D02*
X136575D01*
Y335850D02*
Y342150D01*
X133425Y335850D02*
X136575D01*
X133425D02*
Y342150D01*
X123425D02*
X126575D01*
Y335850D02*
Y342150D01*
X123425Y335850D02*
X126575D01*
X123425D02*
Y342150D01*
X113425D02*
X116575D01*
Y335850D02*
Y342150D01*
X113425Y335850D02*
X116575D01*
X113425D02*
Y342150D01*
X53425D02*
X56575D01*
Y335850D02*
Y342150D01*
X53425Y335850D02*
X56575D01*
X53425D02*
Y342150D01*
X43425Y342000D02*
X46575D01*
Y335701D02*
Y342000D01*
X43425Y335701D02*
X46575D01*
X43425D02*
Y342000D01*
X63425Y342150D02*
X66575D01*
Y335850D02*
Y342150D01*
X63425Y335850D02*
X66575D01*
X63425D02*
Y342150D01*
X73425D02*
X76575D01*
Y335850D02*
Y342150D01*
X73425Y335850D02*
X76575D01*
X73425D02*
Y342150D01*
X83425Y342000D02*
X86575D01*
Y335701D02*
Y342000D01*
X83425Y335701D02*
X86575D01*
X83425D02*
Y342000D01*
X103425Y342150D02*
X106575D01*
Y335850D02*
Y342150D01*
X103425Y335850D02*
X106575D01*
X103425D02*
Y342150D01*
X93425D02*
X96575D01*
Y335850D02*
Y342150D01*
X93425Y335850D02*
X96575D01*
X93425D02*
Y342150D01*
X478850Y139425D02*
Y142575D01*
X485150D01*
Y139425D02*
Y142575D01*
X478850Y139425D02*
X485150D01*
X461425Y147850D02*
X464575D01*
X461425D02*
Y154150D01*
X464575D01*
Y147850D02*
Y154150D01*
X495425Y163150D02*
X498575D01*
Y156850D02*
Y163150D01*
X495425Y156850D02*
X498575D01*
X495425D02*
Y163150D01*
X477150Y172425D02*
Y175575D01*
X470850Y172425D02*
X477150D01*
X470850D02*
Y175575D01*
X477150D01*
X510575Y119850D02*
Y126150D01*
X507425Y119850D02*
X510575D01*
X507425D02*
Y126150D01*
X510575D01*
X504575Y119850D02*
Y126150D01*
X501425Y119850D02*
X504575D01*
X501425D02*
Y126150D01*
X504575D01*
X498575Y119850D02*
Y126150D01*
X495425Y119850D02*
X498575D01*
X495425D02*
Y126150D01*
X498575D01*
X492575Y119850D02*
Y126150D01*
X489425Y119850D02*
X492575D01*
X489425D02*
Y126150D01*
X492575D01*
X486575Y119850D02*
Y126150D01*
X483425Y119850D02*
X486575D01*
X483425D02*
Y126150D01*
X486575D01*
X480575Y119850D02*
Y126150D01*
X477425Y119850D02*
X480575D01*
X477425D02*
Y126150D01*
X480575D01*
X474575Y119850D02*
Y126150D01*
X471425Y119850D02*
X474575D01*
X471425D02*
Y126150D01*
X474575D01*
X465425Y119850D02*
Y126150D01*
X468575D01*
Y119850D02*
Y126150D01*
X465425Y119850D02*
X468575D01*
X231850Y60425D02*
X238150D01*
X231850D02*
Y63575D01*
X238150D01*
Y60425D02*
Y63575D01*
X112350Y60425D02*
X118650D01*
X112350D02*
Y63575D01*
X118650D01*
Y60425D02*
Y63575D01*
X481575Y56850D02*
Y63150D01*
X478425Y56850D02*
X481575D01*
X478425D02*
Y63150D01*
X481575D01*
X231850Y54425D02*
X238150D01*
X231850D02*
Y57575D01*
X238150D01*
Y54425D02*
Y57575D01*
X112350Y54425D02*
X118650D01*
X112350D02*
Y57575D01*
X118650D01*
Y54425D02*
Y57575D01*
X491575Y56850D02*
Y63150D01*
X488425Y56850D02*
X491575D01*
X488425D02*
Y63150D01*
X491575D01*
X231850Y78425D02*
X238150D01*
X231850D02*
Y81575D01*
X238150D01*
Y78425D02*
Y81575D01*
X112350Y72425D02*
X118650D01*
X112350D02*
Y75575D01*
X118650D01*
Y72425D02*
Y75575D01*
X112350Y78425D02*
X118650D01*
X112350D02*
Y81575D01*
X118650D01*
Y78425D02*
Y81575D01*
X231850Y84425D02*
X238150D01*
X231850D02*
Y87575D01*
X238150D01*
Y84425D02*
Y87575D01*
X112350Y66425D02*
X118650D01*
X112350D02*
Y69575D01*
X118650D01*
Y66425D02*
Y69575D01*
X435701Y141575D02*
X442000D01*
Y138425D02*
Y141575D01*
X435701Y138425D02*
X442000D01*
X435701D02*
Y141575D01*
X435850Y147575D02*
X442150D01*
Y144425D02*
Y147575D01*
X435850Y144425D02*
X442150D01*
X435850D02*
Y147575D01*
X231850Y72425D02*
X238150D01*
X231850D02*
Y75575D01*
X238150D01*
Y72425D02*
Y75575D01*
X231850Y66425D02*
X238150D01*
X231850D02*
Y69575D01*
X238150D01*
Y66425D02*
Y69575D01*
X459425Y119850D02*
Y126150D01*
X462575D01*
Y119850D02*
Y126150D01*
X459425Y119850D02*
X462575D01*
X540425Y157850D02*
Y164150D01*
X543575D01*
Y157850D02*
Y164150D01*
X540425Y157850D02*
X543575D01*
X435850Y159575D02*
X442150D01*
Y156425D02*
Y159575D01*
X435850Y156425D02*
X442150D01*
X435850D02*
Y159575D01*
X231850Y96425D02*
X238150D01*
X231850D02*
Y99575D01*
X238150D01*
Y96425D02*
Y99575D01*
X509850Y155575D02*
X516150D01*
Y152425D02*
Y155575D01*
X509850Y152425D02*
X516150D01*
X509850D02*
Y155575D01*
X435850Y153575D02*
X442150D01*
Y150425D02*
Y153575D01*
X435850Y150425D02*
X442150D01*
X435850D02*
Y153575D01*
X509850Y149575D02*
X516150D01*
Y146425D02*
Y149575D01*
X509850Y146425D02*
X516150D01*
X509850D02*
Y149575D01*
X497425Y189850D02*
Y196150D01*
X500575D01*
Y189850D02*
Y196150D01*
X497425Y189850D02*
X500575D01*
X112350Y120425D02*
X118650D01*
X112350D02*
Y123575D01*
X118650D01*
Y120425D02*
Y123575D01*
X509850Y167575D02*
X516150D01*
Y164425D02*
Y167575D01*
X509850Y164425D02*
X516150D01*
X509850D02*
Y167575D01*
X231850Y102425D02*
X238150D01*
X231850D02*
Y105575D01*
X238150D01*
Y102425D02*
Y105575D01*
X112350Y108425D02*
X118650D01*
X112350D02*
Y111575D01*
X118650D01*
Y108425D02*
Y111575D01*
X512850Y231575D02*
X519150D01*
Y228425D02*
Y231575D01*
X512850Y228425D02*
X519150D01*
X512850D02*
Y231575D01*
X231850Y126425D02*
X238150D01*
X231850D02*
Y129575D01*
X238150D01*
Y126425D02*
Y129575D01*
X112350Y114425D02*
X118650D01*
X112350D02*
Y117575D01*
X118650D01*
Y114425D02*
Y117575D01*
X112350Y102425D02*
X118650D01*
X112350D02*
Y105575D01*
X118650D01*
Y102425D02*
Y105575D01*
X459575Y189850D02*
Y196150D01*
X456425Y189850D02*
X459575D01*
X456425D02*
Y196150D01*
X459575D01*
X112350Y84425D02*
X118650D01*
X112350D02*
Y87575D01*
X118650D01*
Y84425D02*
Y87575D01*
X435850Y171575D02*
X442150D01*
Y168425D02*
Y171575D01*
X435850Y168425D02*
X442150D01*
X435850D02*
Y171575D01*
X112350Y90425D02*
X118650D01*
X112350D02*
Y93575D01*
X118650D01*
Y90425D02*
Y93575D01*
X534425Y157850D02*
Y164150D01*
X537575D01*
Y157850D02*
Y164150D01*
X534425Y157850D02*
X537575D01*
X231850Y132425D02*
X238150D01*
X231850D02*
Y135575D01*
X238150D01*
Y132425D02*
Y135575D01*
X112350Y96425D02*
X118650D01*
X112350D02*
Y99575D01*
X118650D01*
Y96425D02*
Y99575D01*
X112350Y126425D02*
X118650D01*
X112350D02*
Y129575D01*
X118650D01*
Y126425D02*
Y129575D01*
X509850Y161575D02*
X516150D01*
Y158425D02*
Y161575D01*
X509850Y158425D02*
X516150D01*
X509850D02*
Y161575D01*
X546425Y157850D02*
Y164150D01*
X549575D01*
Y157850D02*
Y164150D01*
X546425Y157850D02*
X549575D01*
X231850Y144425D02*
X238150D01*
X231850D02*
Y147575D01*
X238150D01*
Y144425D02*
Y147575D01*
X231850Y114425D02*
X238150D01*
X231850D02*
Y117575D01*
X238150D01*
Y114425D02*
Y117575D01*
X477575Y189850D02*
Y196150D01*
X474425Y189850D02*
X477575D01*
X474425D02*
Y196150D01*
X477575D01*
X112350Y144425D02*
X118650D01*
X112350D02*
Y147575D01*
X118650D01*
Y144425D02*
Y147575D01*
X112350Y138425D02*
X118650D01*
X112350D02*
Y141575D01*
X118650D01*
Y138425D02*
Y141575D01*
X465575Y189850D02*
Y196150D01*
X462425Y189850D02*
X465575D01*
X462425D02*
Y196150D01*
X465575D01*
X491425Y189850D02*
Y196150D01*
X494575D01*
Y189850D02*
Y196150D01*
X491425Y189850D02*
X494575D01*
X509850Y173575D02*
X516150D01*
Y170425D02*
Y173575D01*
X509850Y170425D02*
X516150D01*
X509850D02*
Y173575D01*
X435850Y165575D02*
X442150D01*
Y162425D02*
Y165575D01*
X435850Y162425D02*
X442150D01*
X435850D02*
Y165575D01*
X231850Y108425D02*
X238150D01*
X231850D02*
Y111575D01*
X238150D01*
Y108425D02*
Y111575D01*
X231850Y90425D02*
X238150D01*
X231850D02*
Y93575D01*
X238150D01*
Y90425D02*
Y93575D01*
X471575Y189850D02*
Y196150D01*
X468425Y189850D02*
X471575D01*
X468425D02*
Y196150D01*
X471575D01*
X231850Y138425D02*
X238150D01*
X231850D02*
Y141575D01*
X238150D01*
Y138425D02*
Y141575D01*
X231850Y120425D02*
X238150D01*
X231850D02*
Y123575D01*
X238150D01*
Y120425D02*
Y123575D01*
X31850Y195425D02*
X38150D01*
X31850D02*
Y198575D01*
X38150D01*
Y195425D02*
Y198575D01*
X45425Y190850D02*
Y197150D01*
X48575D01*
Y190850D02*
Y197150D01*
X45425Y190850D02*
X48575D01*
X40850Y59425D02*
X47150D01*
X40850D02*
Y62575D01*
X47150D01*
Y59425D02*
Y62575D01*
X32575Y206850D02*
Y213150D01*
X29425Y206850D02*
X32575D01*
X29425D02*
Y213150D01*
X32575D01*
X42575Y206850D02*
Y213150D01*
X39425Y206850D02*
X42575D01*
X39425D02*
Y213150D01*
X42575D01*
X280000Y7000D02*
X390000D01*
Y42500D01*
X280000D02*
X390000D01*
X280000Y7000D02*
Y42500D01*
X400000Y7000D02*
X510000D01*
Y42500D01*
X400000D02*
X510000D01*
X400000Y7000D02*
Y42500D01*
X336339Y179795D02*
X353661D01*
Y154205D02*
Y179795D01*
X336339Y154205D02*
X353661D01*
X336339D02*
Y179795D01*
Y177236D02*
X338898Y179795D01*
X49567Y284173D02*
X70433D01*
Y255827D02*
Y284173D01*
X49567Y255827D02*
X70433D01*
X49567D02*
Y284173D01*
Y281614D02*
X52126Y284173D01*
X229567D02*
X250433D01*
Y255827D02*
Y284173D01*
X229567Y255827D02*
X250433D01*
X229567D02*
Y284173D01*
Y281614D02*
X232126Y284173D01*
X129567D02*
X150433D01*
Y255827D02*
Y284173D01*
X129567Y255827D02*
X150433D01*
X129567D02*
Y284173D01*
Y281614D02*
X132126Y284173D01*
X40000Y7000D02*
X150000D01*
Y42500D01*
X40000D02*
X150000D01*
X40000Y7000D02*
Y42500D01*
D12*
X522284Y350905D02*
X557717D01*
Y339094D02*
Y350905D01*
X522284Y339094D02*
X557717D01*
X522284D02*
Y350905D01*
D69*
X459429Y136429D02*
Y177571D01*
Y136429D02*
X500571D01*
Y177571D01*
X459429D02*
X500571D01*
X21890Y175654D02*
X58110D01*
Y132346D02*
Y175654D01*
X21890Y132346D02*
X58110D01*
X21890D02*
Y175654D01*
M02*
