G04*
G04 #@! TF.GenerationSoftware,Altium Limited,Altium Designer,22.3.1 (43)*
G04*
G04 Layer_Color=16711935*
%FSLAX25Y25*%
%MOIN*%
G70*
G04*
G04 #@! TF.SameCoordinates,F15A7EA6-3F3C-4714-8FA7-CF7AF9E4284A*
G04*
G04*
G04 #@! TF.FilePolarity,Negative*
G04*
G01*
G75*
%ADD31R,0.04540X0.03950*%
%ADD32R,0.03950X0.04540*%
%ADD43C,0.07887*%
%ADD44R,0.07887X0.07887*%
%ADD45R,0.07887X0.07887*%
%ADD46C,0.06706*%
%ADD47R,0.06706X0.06706*%
%ADD48C,0.04343*%
%ADD49C,0.20800*%
%ADD50C,0.05800*%
D31*
X408000Y335850D02*
D03*
Y342150D02*
D03*
X358000D02*
D03*
Y335850D02*
D03*
X368000Y342150D02*
D03*
Y335850D02*
D03*
X378000Y342150D02*
D03*
Y335850D02*
D03*
X388000Y342150D02*
D03*
Y335850D02*
D03*
X398000Y342150D02*
D03*
Y335850D02*
D03*
X330000D02*
D03*
Y342150D02*
D03*
X310000Y335850D02*
D03*
Y342150D02*
D03*
X320000Y335850D02*
D03*
Y342150D02*
D03*
X290000Y335850D02*
D03*
Y342150D02*
D03*
X300000Y335850D02*
D03*
Y342150D02*
D03*
X273000Y335850D02*
D03*
Y342150D02*
D03*
X253000Y335850D02*
D03*
Y342150D02*
D03*
X223000Y335850D02*
D03*
Y342150D02*
D03*
X263000Y335850D02*
D03*
Y342150D02*
D03*
X243000Y335850D02*
D03*
Y342150D02*
D03*
X213000Y335850D02*
D03*
Y342150D02*
D03*
X203000Y335850D02*
D03*
Y342150D02*
D03*
X233000Y335850D02*
D03*
Y342150D02*
D03*
X155000Y335850D02*
D03*
Y342150D02*
D03*
X145000Y335850D02*
D03*
Y342150D02*
D03*
X165000Y335850D02*
D03*
Y342150D02*
D03*
X175000Y335850D02*
D03*
Y342150D02*
D03*
X185000Y335850D02*
D03*
Y342150D02*
D03*
X135000Y335850D02*
D03*
Y342150D02*
D03*
X125000Y335850D02*
D03*
Y342150D02*
D03*
X115000Y335850D02*
D03*
Y342150D02*
D03*
X55000Y335850D02*
D03*
Y342150D02*
D03*
X45000Y335701D02*
D03*
Y342000D02*
D03*
X65000Y335850D02*
D03*
Y342150D02*
D03*
X75000Y335850D02*
D03*
Y342150D02*
D03*
X85000Y335701D02*
D03*
Y342000D02*
D03*
X105000Y335850D02*
D03*
Y342150D02*
D03*
X95000Y335850D02*
D03*
Y342150D02*
D03*
X463000Y154150D02*
D03*
Y147850D02*
D03*
X497000Y156850D02*
D03*
Y163150D02*
D03*
D32*
X485150Y141000D02*
D03*
X478850D02*
D03*
X470850Y174000D02*
D03*
X477150D02*
D03*
D43*
X545000Y245000D02*
D03*
Y230000D02*
D03*
Y215000D02*
D03*
X180000Y30000D02*
D03*
X190000Y20000D02*
D03*
Y30000D02*
D03*
X200000Y20000D02*
D03*
Y30000D02*
D03*
X210000Y20000D02*
D03*
Y30000D02*
D03*
X220000Y20000D02*
D03*
Y30000D02*
D03*
X230000Y20000D02*
D03*
Y30000D02*
D03*
X240000Y20000D02*
D03*
Y30000D02*
D03*
X250000Y20000D02*
D03*
Y30000D02*
D03*
X540000Y290000D02*
D03*
X370000Y30000D02*
D03*
Y20000D02*
D03*
X360000Y30000D02*
D03*
Y20000D02*
D03*
X350000Y30000D02*
D03*
Y20000D02*
D03*
X340000Y30000D02*
D03*
Y20000D02*
D03*
X330000Y30000D02*
D03*
Y20000D02*
D03*
X320000Y30000D02*
D03*
Y20000D02*
D03*
X310000Y30000D02*
D03*
Y20000D02*
D03*
X300000Y30000D02*
D03*
X490000D02*
D03*
Y20000D02*
D03*
X480000Y30000D02*
D03*
Y20000D02*
D03*
X470000Y30000D02*
D03*
Y20000D02*
D03*
X460000Y30000D02*
D03*
Y20000D02*
D03*
X450000Y30000D02*
D03*
Y20000D02*
D03*
X440000Y30000D02*
D03*
Y20000D02*
D03*
X430000Y30000D02*
D03*
Y20000D02*
D03*
X420000Y30000D02*
D03*
X130000D02*
D03*
Y20000D02*
D03*
X120000Y30000D02*
D03*
Y20000D02*
D03*
X110000Y30000D02*
D03*
Y20000D02*
D03*
X100000Y30000D02*
D03*
Y20000D02*
D03*
X90000Y30000D02*
D03*
Y20000D02*
D03*
X80000Y30000D02*
D03*
Y20000D02*
D03*
X70000Y30000D02*
D03*
Y20000D02*
D03*
X60000Y30000D02*
D03*
D44*
X180000Y20000D02*
D03*
X300000D02*
D03*
X420000D02*
D03*
X60000D02*
D03*
D45*
X540000Y310000D02*
D03*
D46*
X10000Y197000D02*
D03*
X436000Y184000D02*
D03*
D47*
X10000Y207000D02*
D03*
X14000Y49000D02*
D03*
X534000Y198000D02*
D03*
X27000Y49000D02*
D03*
X14000Y61000D02*
D03*
X27000D02*
D03*
X436000Y194000D02*
D03*
D48*
X20000Y106323D02*
D03*
Y89000D02*
D03*
D49*
X540000Y380000D02*
D03*
X20000D02*
D03*
Y20000D02*
D03*
X540000D02*
D03*
D50*
X510000Y80000D02*
D03*
Y196150D02*
D03*
X443000Y104000D02*
D03*
X431000D02*
D03*
X424000Y152000D02*
D03*
X402000Y282000D02*
D03*
X409000Y270000D02*
D03*
X437000Y265000D02*
D03*
X416000Y278000D02*
D03*
X523000Y166000D02*
D03*
X516000Y180000D02*
D03*
X527000Y121000D02*
D03*
Y130000D02*
D03*
X499000Y63000D02*
D03*
X472000Y103000D02*
D03*
X480000D02*
D03*
X415000Y261000D02*
D03*
X404000D02*
D03*
X408000Y348000D02*
D03*
X423000Y336000D02*
D03*
X256000Y250000D02*
D03*
X300000Y271000D02*
D03*
X307000Y276000D02*
D03*
X264000Y258000D02*
D03*
X300000Y236000D02*
D03*
X260000Y218000D02*
D03*
X205000Y264000D02*
D03*
X257000Y230000D02*
D03*
X265000Y224000D02*
D03*
X210000Y284000D02*
D03*
X263000Y206000D02*
D03*
X209000Y274000D02*
D03*
X195000Y269000D02*
D03*
X253000Y212000D02*
D03*
X195000Y163000D02*
D03*
X170000Y215748D02*
D03*
X544000Y87000D02*
D03*
X543000Y149000D02*
D03*
X525000Y143000D02*
D03*
X531000Y153000D02*
D03*
X71000Y227000D02*
D03*
X76000Y245000D02*
D03*
X67000Y239000D02*
D03*
X72000Y104000D02*
D03*
X139000Y255000D02*
D03*
X114000Y269000D02*
D03*
X113000Y282000D02*
D03*
X104000Y274000D02*
D03*
Y264000D02*
D03*
X103000Y303000D02*
D03*
X23000Y274000D02*
D03*
X25000Y286000D02*
D03*
X36000Y269000D02*
D03*
X29000Y263000D02*
D03*
X94000Y236000D02*
D03*
X83000Y269000D02*
D03*
X89000Y264000D02*
D03*
Y231000D02*
D03*
X86000Y224000D02*
D03*
X83000Y259000D02*
D03*
X290000Y321000D02*
D03*
X47000Y301000D02*
D03*
X96000Y200000D02*
D03*
X505000Y183000D02*
D03*
X523000Y244000D02*
D03*
X416000Y97000D02*
D03*
X423000Y102000D02*
D03*
X381000Y231000D02*
D03*
X343018Y227500D02*
D03*
X331000Y224000D02*
D03*
X376000Y215000D02*
D03*
X411000Y117000D02*
D03*
X407000Y111000D02*
D03*
X307000Y241000D02*
D03*
X290000Y255000D02*
D03*
X203000Y244000D02*
D03*
X281000Y253000D02*
D03*
X275000Y259000D02*
D03*
X280000Y212000D02*
D03*
X270000Y265000D02*
D03*
X315500Y269500D02*
D03*
X310000Y185000D02*
D03*
X387000Y140000D02*
D03*
X389000Y157000D02*
D03*
X333000Y123000D02*
D03*
X346000Y91000D02*
D03*
X356000Y145000D02*
D03*
X376000D02*
D03*
X345000Y153000D02*
D03*
X357000Y188000D02*
D03*
X363000Y240000D02*
D03*
X345000Y265000D02*
D03*
X366000Y295000D02*
D03*
X378000Y290000D02*
D03*
X321000Y260000D02*
D03*
X336000Y295000D02*
D03*
X166000Y289000D02*
D03*
X265000Y290000D02*
D03*
X255000Y293000D02*
D03*
X213000Y258000D02*
D03*
X226000Y293000D02*
D03*
X155000Y291000D02*
D03*
X126000D02*
D03*
X46000Y248000D02*
D03*
X86000Y288000D02*
D03*
X75000Y293000D02*
D03*
X46000Y291000D02*
D03*
X45000Y316000D02*
D03*
X115000D02*
D03*
X203000Y320000D02*
D03*
X338000Y336000D02*
D03*
X403000Y97000D02*
D03*
X409000Y83000D02*
D03*
X342000Y236000D02*
D03*
X350500Y240414D02*
D03*
X290000Y224000D02*
D03*
X374000Y117000D02*
D03*
X175000Y55000D02*
D03*
X29000Y124000D02*
D03*
X52000Y121000D02*
D03*
Y129000D02*
D03*
X17000D02*
D03*
X12000Y168000D02*
D03*
X14000Y148000D02*
D03*
X44000Y80000D02*
D03*
X39000Y161000D02*
D03*
Y150000D02*
D03*
X44000Y182000D02*
D03*
X474000Y164000D02*
D03*
X488000Y161000D02*
D03*
X474000Y153000D02*
D03*
X542000Y172000D02*
D03*
X300000Y60000D02*
D03*
X310000D02*
D03*
X320000D02*
D03*
X330000D02*
D03*
X339000D02*
D03*
X350000Y65000D02*
D03*
X360000Y70000D02*
D03*
X370000Y75000D02*
D03*
X269000Y152000D02*
D03*
X275000Y158000D02*
D03*
X280000Y164000D02*
D03*
X285000Y170000D02*
D03*
X290000Y176000D02*
D03*
X295000Y182000D02*
D03*
X300000Y188000D02*
D03*
X305000Y194000D02*
D03*
X270000Y200000D02*
D03*
X275000Y206000D02*
D03*
X285000Y218000D02*
D03*
X295000Y230000D02*
D03*
X321000Y90000D02*
D03*
X398000Y348000D02*
D03*
X388000D02*
D03*
X378000D02*
D03*
X368000D02*
D03*
X358000D02*
D03*
X330000D02*
D03*
X320000D02*
D03*
X310000D02*
D03*
X300000D02*
D03*
X290000D02*
D03*
X273000D02*
D03*
X263000D02*
D03*
X253000D02*
D03*
X243000D02*
D03*
X233000D02*
D03*
X223000D02*
D03*
X213000D02*
D03*
X203000D02*
D03*
X185000D02*
D03*
X175000D02*
D03*
X165000D02*
D03*
X155000D02*
D03*
X145000D02*
D03*
X135000D02*
D03*
X125000D02*
D03*
X115000D02*
D03*
X105000D02*
D03*
X95000D02*
D03*
X85000D02*
D03*
X75000D02*
D03*
X65000D02*
D03*
X55000D02*
D03*
X45000D02*
D03*
X94000Y92000D02*
D03*
X104000Y98000D02*
D03*
X100000Y86000D02*
D03*
X106000Y80000D02*
D03*
X87000Y78000D02*
D03*
Y71000D02*
D03*
Y62000D02*
D03*
X98000Y104000D02*
D03*
X104000Y110000D02*
D03*
X99000Y116000D02*
D03*
X101000Y127500D02*
D03*
X104000Y121000D02*
D03*
X101000Y140500D02*
D03*
X104000Y134000D02*
D03*
Y152000D02*
D03*
X170000Y188252D02*
D03*
X184000Y180748D02*
D03*
Y195748D02*
D03*
Y208252D02*
D03*
Y223252D02*
D03*
X170000Y91252D02*
D03*
Y118748D02*
D03*
X184000Y83748D02*
D03*
Y98748D02*
D03*
Y111252D02*
D03*
Y126252D02*
D03*
X164000Y70000D02*
D03*
Y140000D02*
D03*
M02*
