G04*
G04 #@! TF.GenerationSoftware,Altium Limited,Altium Designer,22.3.1 (43)*
G04*
G04 Layer_Color=255*
%FSLAX25Y25*%
%MOIN*%
G70*
G04*
G04 #@! TF.SameCoordinates,F15A7EA6-3F3C-4714-8FA7-CF7AF9E4284A*
G04*
G04*
G04 #@! TF.FilePolarity,Positive*
G04*
G01*
G75*
%ADD17R,0.03150X0.03150*%
%ADD18R,0.03740X0.03150*%
%ADD19R,0.03150X0.03740*%
%ADD20R,0.07480X0.01713*%
%ADD21R,0.05807X0.01772*%
%ADD22R,0.06000X0.12000*%
%ADD23R,0.02362X0.05807*%
%ADD24R,0.05807X0.02362*%
%ADD25R,0.09055X0.01968*%
%ADD26R,0.09843X0.07874*%
%ADD27R,0.07087X0.01772*%
%ADD28R,0.06693X0.01772*%
%ADD29R,0.04724X0.09843*%
%ADD52C,0.07087*%
%ADD53R,0.07087X0.07087*%
%ADD54R,0.07087X0.07087*%
%ADD55C,0.05906*%
%ADD56R,0.05906X0.05906*%
%ADD57C,0.03543*%
%ADD58C,0.20000*%
D17*
X408000Y334850D02*
D03*
Y341150D02*
D03*
X398000D02*
D03*
Y334850D02*
D03*
X368000D02*
D03*
Y341150D02*
D03*
X388000Y334850D02*
D03*
Y341150D02*
D03*
X378000Y334850D02*
D03*
Y341150D02*
D03*
X358000Y334850D02*
D03*
Y341150D02*
D03*
X300000D02*
D03*
Y334850D02*
D03*
X213000Y341150D02*
D03*
Y334850D02*
D03*
X135000Y341150D02*
D03*
Y334850D02*
D03*
X55000D02*
D03*
Y341150D02*
D03*
X330000Y334850D02*
D03*
Y341150D02*
D03*
X310000Y334850D02*
D03*
Y341150D02*
D03*
X320000Y334850D02*
D03*
Y341150D02*
D03*
X263000Y334850D02*
D03*
Y341150D02*
D03*
X125000Y334850D02*
D03*
Y341150D02*
D03*
X243000Y334850D02*
D03*
Y341150D02*
D03*
X85000Y334850D02*
D03*
Y341150D02*
D03*
X75000Y334850D02*
D03*
Y341150D02*
D03*
X203000Y334850D02*
D03*
Y341150D02*
D03*
X253000Y334850D02*
D03*
Y341150D02*
D03*
X290000Y334850D02*
D03*
Y341150D02*
D03*
X273000Y334850D02*
D03*
Y341150D02*
D03*
X115000Y334850D02*
D03*
Y341150D02*
D03*
X65000Y334850D02*
D03*
Y341150D02*
D03*
X223000Y334850D02*
D03*
Y341150D02*
D03*
X105000Y334850D02*
D03*
Y341150D02*
D03*
X233000Y334850D02*
D03*
Y341150D02*
D03*
X95000Y334850D02*
D03*
Y341150D02*
D03*
X185000Y334850D02*
D03*
Y341150D02*
D03*
X175000Y334850D02*
D03*
Y341150D02*
D03*
X155000Y334850D02*
D03*
Y341150D02*
D03*
X165000Y334850D02*
D03*
Y341150D02*
D03*
X45000Y334850D02*
D03*
Y341150D02*
D03*
X145000Y334850D02*
D03*
Y341150D02*
D03*
X31000Y233150D02*
D03*
Y226850D02*
D03*
X41000Y233150D02*
D03*
Y226850D02*
D03*
D18*
X437000Y303150D02*
D03*
Y296850D02*
D03*
X409000D02*
D03*
Y303150D02*
D03*
X402000Y296850D02*
D03*
Y303150D02*
D03*
X416000Y296850D02*
D03*
Y303150D02*
D03*
X423000Y297000D02*
D03*
Y303299D02*
D03*
X430000Y296850D02*
D03*
Y303150D02*
D03*
X509000Y126150D02*
D03*
Y119850D02*
D03*
X503000Y126150D02*
D03*
Y119850D02*
D03*
X497000Y126150D02*
D03*
Y119850D02*
D03*
X491000Y126150D02*
D03*
Y119850D02*
D03*
X485000Y126150D02*
D03*
Y119850D02*
D03*
X479000Y126150D02*
D03*
Y119850D02*
D03*
X473000Y126150D02*
D03*
Y119850D02*
D03*
X467000D02*
D03*
Y126150D02*
D03*
X480000Y63150D02*
D03*
Y56850D02*
D03*
X490000Y63150D02*
D03*
Y56850D02*
D03*
X461000Y119850D02*
D03*
Y126150D02*
D03*
X542000Y157850D02*
D03*
Y164150D02*
D03*
X499000Y189850D02*
D03*
Y196150D02*
D03*
X458000D02*
D03*
Y189850D02*
D03*
X536000Y157850D02*
D03*
Y164150D02*
D03*
X548000Y157850D02*
D03*
Y164150D02*
D03*
X476000Y196150D02*
D03*
Y189850D02*
D03*
X464000Y196150D02*
D03*
Y189850D02*
D03*
X493000D02*
D03*
Y196150D02*
D03*
X470000D02*
D03*
Y189850D02*
D03*
X47000Y190850D02*
D03*
Y197150D02*
D03*
X31000Y213150D02*
D03*
Y206850D02*
D03*
X41000Y213150D02*
D03*
Y206850D02*
D03*
D19*
X112350Y134000D02*
D03*
X118650D02*
D03*
X232350Y224000D02*
D03*
X238650D02*
D03*
X232350Y230000D02*
D03*
X238650D02*
D03*
X232350Y218000D02*
D03*
X238650D02*
D03*
X232350Y236000D02*
D03*
X238650D02*
D03*
X232350Y242000D02*
D03*
X238650D02*
D03*
X112850D02*
D03*
X119150D02*
D03*
X112850Y236000D02*
D03*
X119150D02*
D03*
X112850Y230000D02*
D03*
X119150D02*
D03*
X112850Y224000D02*
D03*
X119150D02*
D03*
X112850Y218000D02*
D03*
X119150D02*
D03*
X112850Y176000D02*
D03*
X119150D02*
D03*
X112850Y170000D02*
D03*
X119150D02*
D03*
X112850Y164000D02*
D03*
X119150D02*
D03*
X232350D02*
D03*
X238650D02*
D03*
X232350Y170000D02*
D03*
X238650D02*
D03*
X232350Y158000D02*
D03*
X238650D02*
D03*
X112850D02*
D03*
X119150D02*
D03*
X112850Y152000D02*
D03*
X119150D02*
D03*
X112850Y200000D02*
D03*
X119150D02*
D03*
X112850Y194000D02*
D03*
X119150D02*
D03*
X232350Y152000D02*
D03*
X238650D02*
D03*
X232350Y194000D02*
D03*
X238650D02*
D03*
X232350Y212000D02*
D03*
X238650D02*
D03*
X232350Y206000D02*
D03*
X238650D02*
D03*
X232350Y200000D02*
D03*
X238650D02*
D03*
X112850Y182000D02*
D03*
X119150D02*
D03*
X112850Y188000D02*
D03*
X119150D02*
D03*
X112850Y212000D02*
D03*
X119150D02*
D03*
X112850Y206000D02*
D03*
X119150D02*
D03*
X232350Y188000D02*
D03*
X238650D02*
D03*
X232350Y182000D02*
D03*
X238650D02*
D03*
X232350Y176000D02*
D03*
X238650D02*
D03*
X238150Y62000D02*
D03*
X231850D02*
D03*
X118650D02*
D03*
X112350D02*
D03*
X238150Y56000D02*
D03*
X231850D02*
D03*
X118650D02*
D03*
X112350D02*
D03*
X238150Y80000D02*
D03*
X231850D02*
D03*
X118650Y74000D02*
D03*
X112350D02*
D03*
X118650Y80000D02*
D03*
X112350D02*
D03*
X238150Y86000D02*
D03*
X231850D02*
D03*
X118650Y68000D02*
D03*
X112350D02*
D03*
X435701Y140000D02*
D03*
X442000D02*
D03*
X435850Y146000D02*
D03*
X442150D02*
D03*
X238150Y74000D02*
D03*
X231850D02*
D03*
X238150Y68000D02*
D03*
X231850D02*
D03*
X435850Y158000D02*
D03*
X442150D02*
D03*
X238150Y98000D02*
D03*
X231850D02*
D03*
X509850Y154000D02*
D03*
X516150D02*
D03*
X435850Y152000D02*
D03*
X442150D02*
D03*
X509850Y148000D02*
D03*
X516150D02*
D03*
X118650Y122000D02*
D03*
X112350D02*
D03*
X509850Y166000D02*
D03*
X516150D02*
D03*
X238150Y104000D02*
D03*
X231850D02*
D03*
X118650Y110000D02*
D03*
X112350D02*
D03*
X512850Y230000D02*
D03*
X519150D02*
D03*
X238150Y128000D02*
D03*
X231850D02*
D03*
X118650Y116000D02*
D03*
X112350D02*
D03*
X118650Y104000D02*
D03*
X112350D02*
D03*
X118650Y86000D02*
D03*
X112350D02*
D03*
X435850Y170000D02*
D03*
X442150D02*
D03*
X118650Y92000D02*
D03*
X112350D02*
D03*
X238150Y134000D02*
D03*
X231850D02*
D03*
X118650Y98000D02*
D03*
X112350D02*
D03*
X118650Y128000D02*
D03*
X112350D02*
D03*
X509850Y160000D02*
D03*
X516150D02*
D03*
X238150Y146000D02*
D03*
X231850D02*
D03*
X238150Y116000D02*
D03*
X231850D02*
D03*
X118650Y146000D02*
D03*
X112350D02*
D03*
X118650Y140000D02*
D03*
X112350D02*
D03*
X509850Y172000D02*
D03*
X516150D02*
D03*
X435850Y164000D02*
D03*
X442150D02*
D03*
X238150Y110000D02*
D03*
X231850D02*
D03*
X238150Y92000D02*
D03*
X231850D02*
D03*
X238150Y140000D02*
D03*
X231850D02*
D03*
X238150Y122000D02*
D03*
X231850D02*
D03*
X38150Y197000D02*
D03*
X31850D02*
D03*
X47150Y61000D02*
D03*
X40850D02*
D03*
D20*
X194701Y133748D02*
D03*
Y131252D02*
D03*
Y128748D02*
D03*
Y126252D02*
D03*
Y123748D02*
D03*
Y121252D02*
D03*
Y118748D02*
D03*
Y116252D02*
D03*
Y113748D02*
D03*
Y111252D02*
D03*
Y108748D02*
D03*
Y106252D02*
D03*
Y103748D02*
D03*
Y101252D02*
D03*
Y98748D02*
D03*
Y96252D02*
D03*
Y93748D02*
D03*
Y91252D02*
D03*
Y88748D02*
D03*
Y86252D02*
D03*
Y83748D02*
D03*
Y81252D02*
D03*
Y78748D02*
D03*
Y76252D02*
D03*
X157299D02*
D03*
Y78748D02*
D03*
Y81252D02*
D03*
Y83748D02*
D03*
Y86252D02*
D03*
Y88748D02*
D03*
Y91252D02*
D03*
Y93748D02*
D03*
Y96252D02*
D03*
Y98748D02*
D03*
Y101252D02*
D03*
Y103748D02*
D03*
Y106252D02*
D03*
Y108748D02*
D03*
Y111252D02*
D03*
Y113748D02*
D03*
Y116252D02*
D03*
Y118748D02*
D03*
Y121252D02*
D03*
Y123748D02*
D03*
Y126252D02*
D03*
Y128748D02*
D03*
Y131252D02*
D03*
Y133748D02*
D03*
X193701Y173252D02*
D03*
Y175748D02*
D03*
Y178252D02*
D03*
Y180748D02*
D03*
Y183252D02*
D03*
Y185748D02*
D03*
Y188252D02*
D03*
Y190748D02*
D03*
Y193252D02*
D03*
Y195748D02*
D03*
Y198252D02*
D03*
Y200748D02*
D03*
Y203252D02*
D03*
Y205748D02*
D03*
Y208252D02*
D03*
Y210748D02*
D03*
Y213252D02*
D03*
Y215748D02*
D03*
Y218252D02*
D03*
Y220748D02*
D03*
Y223252D02*
D03*
Y225748D02*
D03*
Y228252D02*
D03*
Y230748D02*
D03*
X156299D02*
D03*
Y228252D02*
D03*
Y225748D02*
D03*
Y223252D02*
D03*
Y220748D02*
D03*
Y218252D02*
D03*
Y215748D02*
D03*
Y213252D02*
D03*
Y210748D02*
D03*
Y208252D02*
D03*
Y205748D02*
D03*
Y203252D02*
D03*
Y200748D02*
D03*
Y198252D02*
D03*
Y195748D02*
D03*
Y193252D02*
D03*
Y190748D02*
D03*
Y188252D02*
D03*
Y185748D02*
D03*
Y183252D02*
D03*
Y180748D02*
D03*
Y178252D02*
D03*
Y175748D02*
D03*
Y173252D02*
D03*
D21*
X356567Y116516D02*
D03*
Y113957D02*
D03*
Y111398D02*
D03*
Y108839D02*
D03*
Y106280D02*
D03*
Y103720D02*
D03*
Y101161D02*
D03*
Y98602D02*
D03*
Y96043D02*
D03*
Y93484D02*
D03*
X333433D02*
D03*
Y96043D02*
D03*
Y98602D02*
D03*
Y101161D02*
D03*
Y103720D02*
D03*
Y106280D02*
D03*
Y108839D02*
D03*
Y111398D02*
D03*
Y113957D02*
D03*
Y116516D02*
D03*
Y178516D02*
D03*
Y175957D02*
D03*
Y173398D02*
D03*
Y170839D02*
D03*
Y168280D02*
D03*
Y165720D02*
D03*
Y163161D02*
D03*
Y160602D02*
D03*
Y158043D02*
D03*
Y155484D02*
D03*
X356567D02*
D03*
Y158043D02*
D03*
Y160602D02*
D03*
Y163161D02*
D03*
Y165720D02*
D03*
Y168280D02*
D03*
Y170839D02*
D03*
Y173398D02*
D03*
Y175957D02*
D03*
Y178516D02*
D03*
D22*
X510000Y290000D02*
D03*
Y315000D02*
D03*
D23*
X468976Y173685D02*
D03*
X472126D02*
D03*
X475276D02*
D03*
X478425D02*
D03*
X481575D02*
D03*
X484724D02*
D03*
X487874D02*
D03*
X491024D02*
D03*
Y140315D02*
D03*
X487874D02*
D03*
X484724D02*
D03*
X481575D02*
D03*
X478425D02*
D03*
X475276D02*
D03*
X472126D02*
D03*
X468976D02*
D03*
D24*
X496685Y168024D02*
D03*
Y164874D02*
D03*
Y161724D02*
D03*
Y158575D02*
D03*
Y155425D02*
D03*
Y152276D02*
D03*
Y149126D02*
D03*
Y145976D02*
D03*
X463315D02*
D03*
Y149126D02*
D03*
Y152276D02*
D03*
Y155425D02*
D03*
Y158575D02*
D03*
Y161724D02*
D03*
Y164874D02*
D03*
Y168024D02*
D03*
D25*
X29842Y103961D02*
D03*
Y100811D02*
D03*
Y97661D02*
D03*
Y94512D02*
D03*
Y91362D02*
D03*
D26*
Y80142D02*
D03*
X8189D02*
D03*
Y115181D02*
D03*
X29842D02*
D03*
D27*
X363976Y282516D02*
D03*
Y279957D02*
D03*
Y277398D02*
D03*
Y274839D02*
D03*
Y272280D02*
D03*
Y269721D02*
D03*
Y267161D02*
D03*
Y264602D02*
D03*
Y262043D02*
D03*
Y259484D02*
D03*
X336024D02*
D03*
Y262043D02*
D03*
Y264602D02*
D03*
Y267161D02*
D03*
Y269721D02*
D03*
Y272280D02*
D03*
Y274839D02*
D03*
Y277398D02*
D03*
Y279957D02*
D03*
Y282516D02*
D03*
X46024Y281516D02*
D03*
Y278957D02*
D03*
Y276398D02*
D03*
Y273839D02*
D03*
Y271280D02*
D03*
Y268721D02*
D03*
Y266161D02*
D03*
Y263602D02*
D03*
Y261043D02*
D03*
Y258484D02*
D03*
X73976D02*
D03*
Y261043D02*
D03*
Y263602D02*
D03*
Y266161D02*
D03*
Y268721D02*
D03*
Y271280D02*
D03*
Y273839D02*
D03*
Y276398D02*
D03*
Y278957D02*
D03*
Y281516D02*
D03*
X226024D02*
D03*
Y278957D02*
D03*
Y276398D02*
D03*
Y273839D02*
D03*
Y271280D02*
D03*
Y268721D02*
D03*
Y266161D02*
D03*
Y263602D02*
D03*
Y261043D02*
D03*
Y258484D02*
D03*
X253976D02*
D03*
Y261043D02*
D03*
Y263602D02*
D03*
Y266161D02*
D03*
Y268721D02*
D03*
Y271280D02*
D03*
Y273839D02*
D03*
Y276398D02*
D03*
Y278957D02*
D03*
Y281516D02*
D03*
X126024D02*
D03*
Y278957D02*
D03*
Y276398D02*
D03*
Y273839D02*
D03*
Y271280D02*
D03*
Y268721D02*
D03*
Y266161D02*
D03*
Y263602D02*
D03*
Y261043D02*
D03*
Y258484D02*
D03*
X153976D02*
D03*
Y261043D02*
D03*
Y263602D02*
D03*
Y266161D02*
D03*
Y268721D02*
D03*
Y271280D02*
D03*
Y273839D02*
D03*
Y276398D02*
D03*
Y278957D02*
D03*
Y281516D02*
D03*
D28*
X26221Y170634D02*
D03*
Y168075D02*
D03*
Y165516D02*
D03*
Y162957D02*
D03*
Y160398D02*
D03*
Y157839D02*
D03*
Y155280D02*
D03*
Y152720D02*
D03*
Y150161D02*
D03*
Y147602D02*
D03*
Y145043D02*
D03*
Y142484D02*
D03*
Y139925D02*
D03*
Y137366D02*
D03*
X53780D02*
D03*
Y139925D02*
D03*
Y142484D02*
D03*
Y145043D02*
D03*
Y147602D02*
D03*
Y150161D02*
D03*
Y152720D02*
D03*
Y155280D02*
D03*
Y157839D02*
D03*
Y160398D02*
D03*
Y162957D02*
D03*
Y165516D02*
D03*
Y168075D02*
D03*
Y170634D02*
D03*
D29*
X530158Y334173D02*
D03*
X540000D02*
D03*
X549843D02*
D03*
Y355827D02*
D03*
X540000D02*
D03*
X530158D02*
D03*
D52*
X545000Y245000D02*
D03*
Y230000D02*
D03*
Y215000D02*
D03*
X180000Y30000D02*
D03*
X190000Y20000D02*
D03*
Y30000D02*
D03*
X200000Y20000D02*
D03*
Y30000D02*
D03*
X210000Y20000D02*
D03*
Y30000D02*
D03*
X220000Y20000D02*
D03*
Y30000D02*
D03*
X230000Y20000D02*
D03*
Y30000D02*
D03*
X240000Y20000D02*
D03*
Y30000D02*
D03*
X250000Y20000D02*
D03*
Y30000D02*
D03*
X540000Y290000D02*
D03*
X370000Y30000D02*
D03*
Y20000D02*
D03*
X360000Y30000D02*
D03*
Y20000D02*
D03*
X350000Y30000D02*
D03*
Y20000D02*
D03*
X340000Y30000D02*
D03*
Y20000D02*
D03*
X330000Y30000D02*
D03*
Y20000D02*
D03*
X320000Y30000D02*
D03*
Y20000D02*
D03*
X310000Y30000D02*
D03*
Y20000D02*
D03*
X300000Y30000D02*
D03*
X490000D02*
D03*
Y20000D02*
D03*
X480000Y30000D02*
D03*
Y20000D02*
D03*
X470000Y30000D02*
D03*
Y20000D02*
D03*
X460000Y30000D02*
D03*
Y20000D02*
D03*
X450000Y30000D02*
D03*
Y20000D02*
D03*
X440000Y30000D02*
D03*
Y20000D02*
D03*
X430000Y30000D02*
D03*
Y20000D02*
D03*
X420000Y30000D02*
D03*
X130000D02*
D03*
Y20000D02*
D03*
X120000Y30000D02*
D03*
Y20000D02*
D03*
X110000Y30000D02*
D03*
Y20000D02*
D03*
X100000Y30000D02*
D03*
Y20000D02*
D03*
X90000Y30000D02*
D03*
Y20000D02*
D03*
X80000Y30000D02*
D03*
Y20000D02*
D03*
X70000Y30000D02*
D03*
Y20000D02*
D03*
X60000Y30000D02*
D03*
D53*
X180000Y20000D02*
D03*
X300000D02*
D03*
X420000D02*
D03*
X60000D02*
D03*
D54*
X540000Y310000D02*
D03*
D55*
X10000Y197000D02*
D03*
X436000Y184000D02*
D03*
D56*
X10000Y207000D02*
D03*
X14000Y49000D02*
D03*
X534000Y198000D02*
D03*
X27000Y49000D02*
D03*
X14000Y61000D02*
D03*
X27000D02*
D03*
X436000Y194000D02*
D03*
D57*
X20000Y106323D02*
D03*
Y89000D02*
D03*
D58*
X540000Y380000D02*
D03*
X20000D02*
D03*
Y20000D02*
D03*
X540000D02*
D03*
M02*
