G04*
G04 #@! TF.GenerationSoftware,Altium Limited,Altium Designer,22.3.1 (43)*
G04*
G04 Layer_Color=8388736*
%FSLAX25Y25*%
%MOIN*%
G70*
G04*
G04 #@! TF.SameCoordinates,F15A7EA6-3F3C-4714-8FA7-CF7AF9E4284A*
G04*
G04*
G04 #@! TF.FilePolarity,Negative*
G04*
G01*
G75*
%ADD30R,0.03950X0.03950*%
%ADD31R,0.04540X0.03950*%
%ADD32R,0.03950X0.04540*%
%ADD33R,0.08280X0.02513*%
%ADD34R,0.06607X0.02572*%
%ADD35R,0.06800X0.12800*%
%ADD36R,0.03162X0.06607*%
%ADD37R,0.06607X0.03162*%
%ADD38R,0.09855X0.02769*%
%ADD39R,0.10642X0.08674*%
%ADD40R,0.07887X0.02572*%
%ADD41R,0.07493X0.02572*%
%ADD42R,0.05524X0.10642*%
%ADD43C,0.07887*%
%ADD44R,0.07887X0.07887*%
%ADD45R,0.07887X0.07887*%
%ADD46C,0.06706*%
%ADD47R,0.06706X0.06706*%
%ADD48C,0.04343*%
%ADD49C,0.20800*%
%ADD50C,0.05800*%
D30*
X408000Y334850D02*
D03*
Y341150D02*
D03*
X398000D02*
D03*
Y334850D02*
D03*
X368000D02*
D03*
Y341150D02*
D03*
X388000Y334850D02*
D03*
Y341150D02*
D03*
X378000Y334850D02*
D03*
Y341150D02*
D03*
X358000Y334850D02*
D03*
Y341150D02*
D03*
X300000D02*
D03*
Y334850D02*
D03*
X213000Y341150D02*
D03*
Y334850D02*
D03*
X135000Y341150D02*
D03*
Y334850D02*
D03*
X55000D02*
D03*
Y341150D02*
D03*
X330000Y334850D02*
D03*
Y341150D02*
D03*
X310000Y334850D02*
D03*
Y341150D02*
D03*
X320000Y334850D02*
D03*
Y341150D02*
D03*
X263000Y334850D02*
D03*
Y341150D02*
D03*
X125000Y334850D02*
D03*
Y341150D02*
D03*
X243000Y334850D02*
D03*
Y341150D02*
D03*
X85000Y334850D02*
D03*
Y341150D02*
D03*
X75000Y334850D02*
D03*
Y341150D02*
D03*
X203000Y334850D02*
D03*
Y341150D02*
D03*
X253000Y334850D02*
D03*
Y341150D02*
D03*
X290000Y334850D02*
D03*
Y341150D02*
D03*
X273000Y334850D02*
D03*
Y341150D02*
D03*
X115000Y334850D02*
D03*
Y341150D02*
D03*
X65000Y334850D02*
D03*
Y341150D02*
D03*
X223000Y334850D02*
D03*
Y341150D02*
D03*
X105000Y334850D02*
D03*
Y341150D02*
D03*
X233000Y334850D02*
D03*
Y341150D02*
D03*
X95000Y334850D02*
D03*
Y341150D02*
D03*
X185000Y334850D02*
D03*
Y341150D02*
D03*
X175000Y334850D02*
D03*
Y341150D02*
D03*
X155000Y334850D02*
D03*
Y341150D02*
D03*
X165000Y334850D02*
D03*
Y341150D02*
D03*
X45000Y334850D02*
D03*
Y341150D02*
D03*
X145000Y334850D02*
D03*
Y341150D02*
D03*
X31000Y233150D02*
D03*
Y226850D02*
D03*
X41000Y233150D02*
D03*
Y226850D02*
D03*
D31*
X437000Y303150D02*
D03*
Y296850D02*
D03*
X409000D02*
D03*
Y303150D02*
D03*
X402000Y296850D02*
D03*
Y303150D02*
D03*
X416000Y296850D02*
D03*
Y303150D02*
D03*
X423000Y297000D02*
D03*
Y303299D02*
D03*
X430000Y296850D02*
D03*
Y303150D02*
D03*
X509000Y126150D02*
D03*
Y119850D02*
D03*
X503000Y126150D02*
D03*
Y119850D02*
D03*
X497000Y126150D02*
D03*
Y119850D02*
D03*
X491000Y126150D02*
D03*
Y119850D02*
D03*
X485000Y126150D02*
D03*
Y119850D02*
D03*
X479000Y126150D02*
D03*
Y119850D02*
D03*
X473000Y126150D02*
D03*
Y119850D02*
D03*
X467000D02*
D03*
Y126150D02*
D03*
X480000Y63150D02*
D03*
Y56850D02*
D03*
X490000Y63150D02*
D03*
Y56850D02*
D03*
X461000Y119850D02*
D03*
Y126150D02*
D03*
X542000Y157850D02*
D03*
Y164150D02*
D03*
X499000Y189850D02*
D03*
Y196150D02*
D03*
X458000D02*
D03*
Y189850D02*
D03*
X536000Y157850D02*
D03*
Y164150D02*
D03*
X548000Y157850D02*
D03*
Y164150D02*
D03*
X476000Y196150D02*
D03*
Y189850D02*
D03*
X464000Y196150D02*
D03*
Y189850D02*
D03*
X493000D02*
D03*
Y196150D02*
D03*
X470000D02*
D03*
Y189850D02*
D03*
X47000Y190850D02*
D03*
Y197150D02*
D03*
X31000Y213150D02*
D03*
Y206850D02*
D03*
X41000Y213150D02*
D03*
Y206850D02*
D03*
D32*
X112350Y134000D02*
D03*
X118650D02*
D03*
X232350Y224000D02*
D03*
X238650D02*
D03*
X232350Y230000D02*
D03*
X238650D02*
D03*
X232350Y218000D02*
D03*
X238650D02*
D03*
X232350Y236000D02*
D03*
X238650D02*
D03*
X232350Y242000D02*
D03*
X238650D02*
D03*
X112850D02*
D03*
X119150D02*
D03*
X112850Y236000D02*
D03*
X119150D02*
D03*
X112850Y230000D02*
D03*
X119150D02*
D03*
X112850Y224000D02*
D03*
X119150D02*
D03*
X112850Y218000D02*
D03*
X119150D02*
D03*
X112850Y176000D02*
D03*
X119150D02*
D03*
X112850Y170000D02*
D03*
X119150D02*
D03*
X112850Y164000D02*
D03*
X119150D02*
D03*
X232350D02*
D03*
X238650D02*
D03*
X232350Y170000D02*
D03*
X238650D02*
D03*
X232350Y158000D02*
D03*
X238650D02*
D03*
X112850D02*
D03*
X119150D02*
D03*
X112850Y152000D02*
D03*
X119150D02*
D03*
X112850Y200000D02*
D03*
X119150D02*
D03*
X112850Y194000D02*
D03*
X119150D02*
D03*
X232350Y152000D02*
D03*
X238650D02*
D03*
X232350Y194000D02*
D03*
X238650D02*
D03*
X232350Y212000D02*
D03*
X238650D02*
D03*
X232350Y206000D02*
D03*
X238650D02*
D03*
X232350Y200000D02*
D03*
X238650D02*
D03*
X112850Y182000D02*
D03*
X119150D02*
D03*
X112850Y188000D02*
D03*
X119150D02*
D03*
X112850Y212000D02*
D03*
X119150D02*
D03*
X112850Y206000D02*
D03*
X119150D02*
D03*
X232350Y188000D02*
D03*
X238650D02*
D03*
X232350Y182000D02*
D03*
X238650D02*
D03*
X232350Y176000D02*
D03*
X238650D02*
D03*
X238150Y62000D02*
D03*
X231850D02*
D03*
X118650D02*
D03*
X112350D02*
D03*
X238150Y56000D02*
D03*
X231850D02*
D03*
X118650D02*
D03*
X112350D02*
D03*
X238150Y80000D02*
D03*
X231850D02*
D03*
X118650Y74000D02*
D03*
X112350D02*
D03*
X118650Y80000D02*
D03*
X112350D02*
D03*
X238150Y86000D02*
D03*
X231850D02*
D03*
X118650Y68000D02*
D03*
X112350D02*
D03*
X435701Y140000D02*
D03*
X442000D02*
D03*
X435850Y146000D02*
D03*
X442150D02*
D03*
X238150Y74000D02*
D03*
X231850D02*
D03*
X238150Y68000D02*
D03*
X231850D02*
D03*
X435850Y158000D02*
D03*
X442150D02*
D03*
X238150Y98000D02*
D03*
X231850D02*
D03*
X509850Y154000D02*
D03*
X516150D02*
D03*
X435850Y152000D02*
D03*
X442150D02*
D03*
X509850Y148000D02*
D03*
X516150D02*
D03*
X118650Y122000D02*
D03*
X112350D02*
D03*
X509850Y166000D02*
D03*
X516150D02*
D03*
X238150Y104000D02*
D03*
X231850D02*
D03*
X118650Y110000D02*
D03*
X112350D02*
D03*
X512850Y230000D02*
D03*
X519150D02*
D03*
X238150Y128000D02*
D03*
X231850D02*
D03*
X118650Y116000D02*
D03*
X112350D02*
D03*
X118650Y104000D02*
D03*
X112350D02*
D03*
X118650Y86000D02*
D03*
X112350D02*
D03*
X435850Y170000D02*
D03*
X442150D02*
D03*
X118650Y92000D02*
D03*
X112350D02*
D03*
X238150Y134000D02*
D03*
X231850D02*
D03*
X118650Y98000D02*
D03*
X112350D02*
D03*
X118650Y128000D02*
D03*
X112350D02*
D03*
X509850Y160000D02*
D03*
X516150D02*
D03*
X238150Y146000D02*
D03*
X231850D02*
D03*
X238150Y116000D02*
D03*
X231850D02*
D03*
X118650Y146000D02*
D03*
X112350D02*
D03*
X118650Y140000D02*
D03*
X112350D02*
D03*
X509850Y172000D02*
D03*
X516150D02*
D03*
X435850Y164000D02*
D03*
X442150D02*
D03*
X238150Y110000D02*
D03*
X231850D02*
D03*
X238150Y92000D02*
D03*
X231850D02*
D03*
X238150Y140000D02*
D03*
X231850D02*
D03*
X238150Y122000D02*
D03*
X231850D02*
D03*
X38150Y197000D02*
D03*
X31850D02*
D03*
X47150Y61000D02*
D03*
X40850D02*
D03*
D33*
X194701Y133748D02*
D03*
Y131252D02*
D03*
Y128748D02*
D03*
Y126252D02*
D03*
Y123748D02*
D03*
Y121252D02*
D03*
Y118748D02*
D03*
Y116252D02*
D03*
Y113748D02*
D03*
Y111252D02*
D03*
Y108748D02*
D03*
Y106252D02*
D03*
Y103748D02*
D03*
Y101252D02*
D03*
Y98748D02*
D03*
Y96252D02*
D03*
Y93748D02*
D03*
Y91252D02*
D03*
Y88748D02*
D03*
Y86252D02*
D03*
Y83748D02*
D03*
Y81252D02*
D03*
Y78748D02*
D03*
Y76252D02*
D03*
X157299D02*
D03*
Y78748D02*
D03*
Y81252D02*
D03*
Y83748D02*
D03*
Y86252D02*
D03*
Y88748D02*
D03*
Y91252D02*
D03*
Y93748D02*
D03*
Y96252D02*
D03*
Y98748D02*
D03*
Y101252D02*
D03*
Y103748D02*
D03*
Y106252D02*
D03*
Y108748D02*
D03*
Y111252D02*
D03*
Y113748D02*
D03*
Y116252D02*
D03*
Y118748D02*
D03*
Y121252D02*
D03*
Y123748D02*
D03*
Y126252D02*
D03*
Y128748D02*
D03*
Y131252D02*
D03*
Y133748D02*
D03*
X193701Y173252D02*
D03*
Y175748D02*
D03*
Y178252D02*
D03*
Y180748D02*
D03*
Y183252D02*
D03*
Y185748D02*
D03*
Y188252D02*
D03*
Y190748D02*
D03*
Y193252D02*
D03*
Y195748D02*
D03*
Y198252D02*
D03*
Y200748D02*
D03*
Y203252D02*
D03*
Y205748D02*
D03*
Y208252D02*
D03*
Y210748D02*
D03*
Y213252D02*
D03*
Y215748D02*
D03*
Y218252D02*
D03*
Y220748D02*
D03*
Y223252D02*
D03*
Y225748D02*
D03*
Y228252D02*
D03*
Y230748D02*
D03*
X156299D02*
D03*
Y228252D02*
D03*
Y225748D02*
D03*
Y223252D02*
D03*
Y220748D02*
D03*
Y218252D02*
D03*
Y215748D02*
D03*
Y213252D02*
D03*
Y210748D02*
D03*
Y208252D02*
D03*
Y205748D02*
D03*
Y203252D02*
D03*
Y200748D02*
D03*
Y198252D02*
D03*
Y195748D02*
D03*
Y193252D02*
D03*
Y190748D02*
D03*
Y188252D02*
D03*
Y185748D02*
D03*
Y183252D02*
D03*
Y180748D02*
D03*
Y178252D02*
D03*
Y175748D02*
D03*
Y173252D02*
D03*
D34*
X356567Y116516D02*
D03*
Y113957D02*
D03*
Y111398D02*
D03*
Y108839D02*
D03*
Y106280D02*
D03*
Y103720D02*
D03*
Y101161D02*
D03*
Y98602D02*
D03*
Y96043D02*
D03*
Y93484D02*
D03*
X333433D02*
D03*
Y96043D02*
D03*
Y98602D02*
D03*
Y101161D02*
D03*
Y103720D02*
D03*
Y106280D02*
D03*
Y108839D02*
D03*
Y111398D02*
D03*
Y113957D02*
D03*
Y116516D02*
D03*
Y178516D02*
D03*
Y175957D02*
D03*
Y173398D02*
D03*
Y170839D02*
D03*
Y168280D02*
D03*
Y165720D02*
D03*
Y163161D02*
D03*
Y160602D02*
D03*
Y158043D02*
D03*
Y155484D02*
D03*
X356567D02*
D03*
Y158043D02*
D03*
Y160602D02*
D03*
Y163161D02*
D03*
Y165720D02*
D03*
Y168280D02*
D03*
Y170839D02*
D03*
Y173398D02*
D03*
Y175957D02*
D03*
Y178516D02*
D03*
D35*
X510000Y290000D02*
D03*
Y315000D02*
D03*
D36*
X468976Y173685D02*
D03*
X472126D02*
D03*
X475276D02*
D03*
X478425D02*
D03*
X481575D02*
D03*
X484724D02*
D03*
X487874D02*
D03*
X491024D02*
D03*
Y140315D02*
D03*
X487874D02*
D03*
X484724D02*
D03*
X481575D02*
D03*
X478425D02*
D03*
X475276D02*
D03*
X472126D02*
D03*
X468976D02*
D03*
D37*
X496685Y168024D02*
D03*
Y164874D02*
D03*
Y161724D02*
D03*
Y158575D02*
D03*
Y155425D02*
D03*
Y152276D02*
D03*
Y149126D02*
D03*
Y145976D02*
D03*
X463315D02*
D03*
Y149126D02*
D03*
Y152276D02*
D03*
Y155425D02*
D03*
Y158575D02*
D03*
Y161724D02*
D03*
Y164874D02*
D03*
Y168024D02*
D03*
D38*
X29842Y103961D02*
D03*
Y100811D02*
D03*
Y97661D02*
D03*
Y94512D02*
D03*
Y91362D02*
D03*
D39*
Y80142D02*
D03*
X8189D02*
D03*
Y115181D02*
D03*
X29842D02*
D03*
D40*
X363976Y282516D02*
D03*
Y279957D02*
D03*
Y277398D02*
D03*
Y274839D02*
D03*
Y272280D02*
D03*
Y269721D02*
D03*
Y267161D02*
D03*
Y264602D02*
D03*
Y262043D02*
D03*
Y259484D02*
D03*
X336024D02*
D03*
Y262043D02*
D03*
Y264602D02*
D03*
Y267161D02*
D03*
Y269721D02*
D03*
Y272280D02*
D03*
Y274839D02*
D03*
Y277398D02*
D03*
Y279957D02*
D03*
Y282516D02*
D03*
X46024Y281516D02*
D03*
Y278957D02*
D03*
Y276398D02*
D03*
Y273839D02*
D03*
Y271280D02*
D03*
Y268721D02*
D03*
Y266161D02*
D03*
Y263602D02*
D03*
Y261043D02*
D03*
Y258484D02*
D03*
X73976D02*
D03*
Y261043D02*
D03*
Y263602D02*
D03*
Y266161D02*
D03*
Y268721D02*
D03*
Y271280D02*
D03*
Y273839D02*
D03*
Y276398D02*
D03*
Y278957D02*
D03*
Y281516D02*
D03*
X226024D02*
D03*
Y278957D02*
D03*
Y276398D02*
D03*
Y273839D02*
D03*
Y271280D02*
D03*
Y268721D02*
D03*
Y266161D02*
D03*
Y263602D02*
D03*
Y261043D02*
D03*
Y258484D02*
D03*
X253976D02*
D03*
Y261043D02*
D03*
Y263602D02*
D03*
Y266161D02*
D03*
Y268721D02*
D03*
Y271280D02*
D03*
Y273839D02*
D03*
Y276398D02*
D03*
Y278957D02*
D03*
Y281516D02*
D03*
X126024D02*
D03*
Y278957D02*
D03*
Y276398D02*
D03*
Y273839D02*
D03*
Y271280D02*
D03*
Y268721D02*
D03*
Y266161D02*
D03*
Y263602D02*
D03*
Y261043D02*
D03*
Y258484D02*
D03*
X153976D02*
D03*
Y261043D02*
D03*
Y263602D02*
D03*
Y266161D02*
D03*
Y268721D02*
D03*
Y271280D02*
D03*
Y273839D02*
D03*
Y276398D02*
D03*
Y278957D02*
D03*
Y281516D02*
D03*
D41*
X26221Y170634D02*
D03*
Y168075D02*
D03*
Y165516D02*
D03*
Y162957D02*
D03*
Y160398D02*
D03*
Y157839D02*
D03*
Y155280D02*
D03*
Y152720D02*
D03*
Y150161D02*
D03*
Y147602D02*
D03*
Y145043D02*
D03*
Y142484D02*
D03*
Y139925D02*
D03*
Y137366D02*
D03*
X53780D02*
D03*
Y139925D02*
D03*
Y142484D02*
D03*
Y145043D02*
D03*
Y147602D02*
D03*
Y150161D02*
D03*
Y152720D02*
D03*
Y155280D02*
D03*
Y157839D02*
D03*
Y160398D02*
D03*
Y162957D02*
D03*
Y165516D02*
D03*
Y168075D02*
D03*
Y170634D02*
D03*
D42*
X530158Y334173D02*
D03*
X540000D02*
D03*
X549843D02*
D03*
Y355827D02*
D03*
X540000D02*
D03*
X530158D02*
D03*
D43*
X545000Y245000D02*
D03*
Y230000D02*
D03*
Y215000D02*
D03*
X180000Y30000D02*
D03*
X190000Y20000D02*
D03*
Y30000D02*
D03*
X200000Y20000D02*
D03*
Y30000D02*
D03*
X210000Y20000D02*
D03*
Y30000D02*
D03*
X220000Y20000D02*
D03*
Y30000D02*
D03*
X230000Y20000D02*
D03*
Y30000D02*
D03*
X240000Y20000D02*
D03*
Y30000D02*
D03*
X250000Y20000D02*
D03*
Y30000D02*
D03*
X540000Y290000D02*
D03*
X370000Y30000D02*
D03*
Y20000D02*
D03*
X360000Y30000D02*
D03*
Y20000D02*
D03*
X350000Y30000D02*
D03*
Y20000D02*
D03*
X340000Y30000D02*
D03*
Y20000D02*
D03*
X330000Y30000D02*
D03*
Y20000D02*
D03*
X320000Y30000D02*
D03*
Y20000D02*
D03*
X310000Y30000D02*
D03*
Y20000D02*
D03*
X300000Y30000D02*
D03*
X490000D02*
D03*
Y20000D02*
D03*
X480000Y30000D02*
D03*
Y20000D02*
D03*
X470000Y30000D02*
D03*
Y20000D02*
D03*
X460000Y30000D02*
D03*
Y20000D02*
D03*
X450000Y30000D02*
D03*
Y20000D02*
D03*
X440000Y30000D02*
D03*
Y20000D02*
D03*
X430000Y30000D02*
D03*
Y20000D02*
D03*
X420000Y30000D02*
D03*
X130000D02*
D03*
Y20000D02*
D03*
X120000Y30000D02*
D03*
Y20000D02*
D03*
X110000Y30000D02*
D03*
Y20000D02*
D03*
X100000Y30000D02*
D03*
Y20000D02*
D03*
X90000Y30000D02*
D03*
Y20000D02*
D03*
X80000Y30000D02*
D03*
Y20000D02*
D03*
X70000Y30000D02*
D03*
Y20000D02*
D03*
X60000Y30000D02*
D03*
D44*
X180000Y20000D02*
D03*
X300000D02*
D03*
X420000D02*
D03*
X60000D02*
D03*
D45*
X540000Y310000D02*
D03*
D46*
X10000Y197000D02*
D03*
X436000Y184000D02*
D03*
D47*
X10000Y207000D02*
D03*
X14000Y49000D02*
D03*
X534000Y198000D02*
D03*
X27000Y49000D02*
D03*
X14000Y61000D02*
D03*
X27000D02*
D03*
X436000Y194000D02*
D03*
D48*
X20000Y106323D02*
D03*
Y89000D02*
D03*
D49*
X540000Y380000D02*
D03*
X20000D02*
D03*
Y20000D02*
D03*
X540000D02*
D03*
D50*
X510000Y80000D02*
D03*
Y196150D02*
D03*
X443000Y104000D02*
D03*
X431000D02*
D03*
X424000Y152000D02*
D03*
X402000Y282000D02*
D03*
X409000Y270000D02*
D03*
X437000Y265000D02*
D03*
X416000Y278000D02*
D03*
X523000Y166000D02*
D03*
X516000Y180000D02*
D03*
X527000Y121000D02*
D03*
Y130000D02*
D03*
X499000Y63000D02*
D03*
X472000Y103000D02*
D03*
X480000D02*
D03*
X415000Y261000D02*
D03*
X404000D02*
D03*
X408000Y348000D02*
D03*
X423000Y336000D02*
D03*
X256000Y250000D02*
D03*
X300000Y271000D02*
D03*
X307000Y276000D02*
D03*
X264000Y258000D02*
D03*
X300000Y236000D02*
D03*
X260000Y218000D02*
D03*
X205000Y264000D02*
D03*
X257000Y230000D02*
D03*
X265000Y224000D02*
D03*
X210000Y284000D02*
D03*
X263000Y206000D02*
D03*
X209000Y274000D02*
D03*
X195000Y269000D02*
D03*
X253000Y212000D02*
D03*
X195000Y163000D02*
D03*
X170000Y215748D02*
D03*
X544000Y87000D02*
D03*
X543000Y149000D02*
D03*
X525000Y143000D02*
D03*
X531000Y153000D02*
D03*
X71000Y227000D02*
D03*
X76000Y245000D02*
D03*
X67000Y239000D02*
D03*
X72000Y104000D02*
D03*
X139000Y255000D02*
D03*
X114000Y269000D02*
D03*
X113000Y282000D02*
D03*
X104000Y274000D02*
D03*
Y264000D02*
D03*
X103000Y303000D02*
D03*
X23000Y274000D02*
D03*
X25000Y286000D02*
D03*
X36000Y269000D02*
D03*
X29000Y263000D02*
D03*
X94000Y236000D02*
D03*
X83000Y269000D02*
D03*
X89000Y264000D02*
D03*
Y231000D02*
D03*
X86000Y224000D02*
D03*
X83000Y259000D02*
D03*
X290000Y321000D02*
D03*
X47000Y301000D02*
D03*
X96000Y200000D02*
D03*
X505000Y183000D02*
D03*
X523000Y244000D02*
D03*
X416000Y97000D02*
D03*
X423000Y102000D02*
D03*
X381000Y231000D02*
D03*
X343018Y227500D02*
D03*
X331000Y224000D02*
D03*
X376000Y215000D02*
D03*
X411000Y117000D02*
D03*
X407000Y111000D02*
D03*
X307000Y241000D02*
D03*
X290000Y255000D02*
D03*
X203000Y244000D02*
D03*
X281000Y253000D02*
D03*
X275000Y259000D02*
D03*
X280000Y212000D02*
D03*
X270000Y265000D02*
D03*
X315500Y269500D02*
D03*
X310000Y185000D02*
D03*
X387000Y140000D02*
D03*
X389000Y157000D02*
D03*
X333000Y123000D02*
D03*
X346000Y91000D02*
D03*
X356000Y145000D02*
D03*
X376000D02*
D03*
X345000Y153000D02*
D03*
X357000Y188000D02*
D03*
X363000Y240000D02*
D03*
X345000Y265000D02*
D03*
X366000Y295000D02*
D03*
X378000Y290000D02*
D03*
X321000Y260000D02*
D03*
X336000Y295000D02*
D03*
X166000Y289000D02*
D03*
X265000Y290000D02*
D03*
X255000Y293000D02*
D03*
X213000Y258000D02*
D03*
X226000Y293000D02*
D03*
X155000Y291000D02*
D03*
X126000D02*
D03*
X46000Y248000D02*
D03*
X86000Y288000D02*
D03*
X75000Y293000D02*
D03*
X46000Y291000D02*
D03*
X45000Y316000D02*
D03*
X115000D02*
D03*
X203000Y320000D02*
D03*
X338000Y336000D02*
D03*
X403000Y97000D02*
D03*
X409000Y83000D02*
D03*
X342000Y236000D02*
D03*
X350500Y240414D02*
D03*
X290000Y224000D02*
D03*
X374000Y117000D02*
D03*
X175000Y55000D02*
D03*
X29000Y124000D02*
D03*
X52000Y121000D02*
D03*
Y129000D02*
D03*
X17000D02*
D03*
X12000Y168000D02*
D03*
X14000Y148000D02*
D03*
X44000Y80000D02*
D03*
X39000Y161000D02*
D03*
Y150000D02*
D03*
X44000Y182000D02*
D03*
X474000Y164000D02*
D03*
X488000Y161000D02*
D03*
X474000Y153000D02*
D03*
X542000Y172000D02*
D03*
X300000Y60000D02*
D03*
X310000D02*
D03*
X320000D02*
D03*
X330000D02*
D03*
X339000D02*
D03*
X350000Y65000D02*
D03*
X360000Y70000D02*
D03*
X370000Y75000D02*
D03*
X269000Y152000D02*
D03*
X275000Y158000D02*
D03*
X280000Y164000D02*
D03*
X285000Y170000D02*
D03*
X290000Y176000D02*
D03*
X295000Y182000D02*
D03*
X300000Y188000D02*
D03*
X305000Y194000D02*
D03*
X270000Y200000D02*
D03*
X275000Y206000D02*
D03*
X285000Y218000D02*
D03*
X295000Y230000D02*
D03*
X321000Y90000D02*
D03*
X398000Y348000D02*
D03*
X388000D02*
D03*
X378000D02*
D03*
X368000D02*
D03*
X358000D02*
D03*
X330000D02*
D03*
X320000D02*
D03*
X310000D02*
D03*
X300000D02*
D03*
X290000D02*
D03*
X273000D02*
D03*
X263000D02*
D03*
X253000D02*
D03*
X243000D02*
D03*
X233000D02*
D03*
X223000D02*
D03*
X213000D02*
D03*
X203000D02*
D03*
X185000D02*
D03*
X175000D02*
D03*
X165000D02*
D03*
X155000D02*
D03*
X145000D02*
D03*
X135000D02*
D03*
X125000D02*
D03*
X115000D02*
D03*
X105000D02*
D03*
X95000D02*
D03*
X85000D02*
D03*
X75000D02*
D03*
X65000D02*
D03*
X55000D02*
D03*
X45000D02*
D03*
X94000Y92000D02*
D03*
X104000Y98000D02*
D03*
X100000Y86000D02*
D03*
X106000Y80000D02*
D03*
X87000Y78000D02*
D03*
Y71000D02*
D03*
Y62000D02*
D03*
X98000Y104000D02*
D03*
X104000Y110000D02*
D03*
X99000Y116000D02*
D03*
X101000Y127500D02*
D03*
X104000Y121000D02*
D03*
X101000Y140500D02*
D03*
X104000Y134000D02*
D03*
Y152000D02*
D03*
X170000Y188252D02*
D03*
X184000Y180748D02*
D03*
Y195748D02*
D03*
Y208252D02*
D03*
Y223252D02*
D03*
X170000Y91252D02*
D03*
Y118748D02*
D03*
X184000Y83748D02*
D03*
Y98748D02*
D03*
Y111252D02*
D03*
Y126252D02*
D03*
X164000Y70000D02*
D03*
Y140000D02*
D03*
M02*
