G04*
G04 #@! TF.GenerationSoftware,Altium Limited,Altium Designer,22.3.1 (43)*
G04*
G04 Layer_Color=65535*
%FSLAX25Y25*%
%MOIN*%
G70*
G04*
G04 #@! TF.SameCoordinates,F15A7EA6-3F3C-4714-8FA7-CF7AF9E4284A*
G04*
G04*
G04 #@! TF.FilePolarity,Positive*
G04*
G01*
G75*
%ADD10C,0.01575*%
%ADD11C,0.00394*%
%ADD12C,0.00787*%
%ADD13C,0.00282*%
%ADD14C,0.01000*%
%ADD15C,0.00500*%
%ADD16C,0.00800*%
D10*
X462776Y172748D02*
G03*
X462776Y172748I-787J0D01*
G01*
D11*
X539213Y322205D02*
G03*
X539213Y322598I0J197D01*
G01*
D02*
G03*
X539213Y322205I0J-197D01*
G01*
D12*
X39088Y103689D02*
G03*
X39088Y103689I-1324J0D01*
G01*
X435819Y300000D02*
X438181D01*
X153559Y135984D02*
X161039D01*
X162417Y73748D02*
Y136252D01*
Y73748D02*
X189583D01*
Y136252D01*
X162417D02*
X189583D01*
X161417Y170748D02*
X188583D01*
X161417D02*
Y233252D01*
X188583D01*
Y170748D02*
Y233252D01*
X189961Y171016D02*
X197441D01*
X330532Y118780D02*
X336339D01*
X337717Y92205D02*
Y117795D01*
Y92205D02*
X352284D01*
Y117795D01*
X337717D02*
X352284D01*
X467598Y144598D02*
Y169402D01*
Y144598D02*
X492402D01*
Y169402D01*
X467598D02*
X492402D01*
X556811Y204764D02*
Y255236D01*
X528268Y204764D02*
X556811D01*
X528268D02*
Y255236D01*
X556811D01*
X180000Y7500D02*
X270000D01*
Y42500D01*
X160000D02*
X270000D01*
X160000Y20000D02*
Y42500D01*
X528583Y320000D02*
X557126D01*
X528583Y280000D02*
Y320000D01*
Y280000D02*
X557126D01*
Y320000D01*
X-669Y82504D02*
Y112819D01*
X332480Y284780D02*
X339567D01*
X340945Y256827D02*
Y285173D01*
Y256827D02*
X359055D01*
Y285173D01*
X340945D02*
X359055D01*
X30945Y174228D02*
X49055D01*
Y133772D02*
Y174228D01*
X30945Y133772D02*
X49055D01*
X30945D02*
Y174228D01*
X22874Y172898D02*
X29567D01*
X522284Y339094D02*
Y350905D01*
X557717Y339094D02*
Y350905D01*
X553083D02*
X557717D01*
X522284D02*
X526917D01*
X553083Y339094D02*
X557717D01*
X522284D02*
X526917D01*
X280000Y20000D02*
Y42500D01*
X390000D01*
Y7500D02*
Y42500D01*
X300000Y7500D02*
X390000D01*
X400000Y20000D02*
Y42500D01*
X510000D01*
Y7500D02*
Y42500D01*
X420000Y7500D02*
X510000D01*
X337717Y179795D02*
X352284D01*
Y154205D02*
Y179795D01*
X337717Y154205D02*
X352284D01*
X337717D02*
Y179795D01*
X330532Y180780D02*
X336339D01*
X50945Y284173D02*
X69055D01*
Y255827D02*
Y284173D01*
X50945Y255827D02*
X69055D01*
X50945D02*
Y284173D01*
X42480Y283780D02*
X49567D01*
X230945Y284173D02*
X249055D01*
Y255827D02*
Y284173D01*
X230945Y255827D02*
X249055D01*
X230945D02*
Y284173D01*
X222480Y283780D02*
X229567D01*
X130945Y284173D02*
X149055D01*
Y255827D02*
Y284173D01*
X130945Y255827D02*
X149055D01*
X130945D02*
Y284173D01*
X122480Y283780D02*
X129567D01*
X40000Y20000D02*
Y42500D01*
X150000D01*
Y7500D02*
Y42500D01*
X60000Y7500D02*
X150000D01*
D13*
X525772Y329378D02*
G03*
X526055Y329378I142J0D01*
G01*
D02*
G03*
X525772Y329378I-142J0D01*
G01*
D14*
X35000Y348000D02*
X195000D01*
X35000Y362000D02*
X195000D01*
Y348000D02*
Y362000D01*
X35000Y348000D02*
Y362000D01*
X351000Y348000D02*
X426000D01*
X351000Y362000D02*
X426000D01*
Y348000D02*
Y362000D01*
X351000Y348000D02*
Y362000D01*
X35000Y364000D02*
X426000D01*
X35000Y374000D02*
X426000D01*
Y364000D02*
Y374000D01*
X35000Y364000D02*
Y374000D01*
X282000Y348000D02*
X349000D01*
X282000Y362000D02*
X349000D01*
Y348000D02*
Y362000D01*
X282000Y348000D02*
Y362000D01*
X197000Y348000D02*
X280500D01*
X197000Y362000D02*
X280500D01*
Y348000D02*
Y362000D01*
X197000Y348000D02*
Y362000D01*
X405500Y331500D02*
X410000D01*
X404000Y330000D02*
X411500D01*
Y346000D01*
X404000D02*
X411500D01*
X404000Y330000D02*
Y346000D01*
X515000Y280000D02*
X516000D01*
X504000D02*
X509000D01*
X515000D01*
X504000D02*
Y325000D01*
X516000D01*
X506000Y282000D02*
X514000D01*
X516000Y280000D02*
Y319000D01*
Y325000D01*
X4000Y191000D02*
Y214000D01*
Y191000D02*
X15000D01*
Y214000D01*
X4000D02*
X15000D01*
X17000Y44000D02*
X19000D01*
X9000Y54000D02*
X19000D01*
X9000Y44000D02*
Y54000D01*
Y44000D02*
X19000D01*
Y54000D01*
X394000Y330000D02*
Y346000D01*
X401500D01*
Y330000D02*
Y346000D01*
X394000Y330000D02*
X401500D01*
X395500Y331500D02*
X400000D01*
X365500D02*
X370000D01*
X364000Y330000D02*
X371500D01*
Y346000D01*
X364000D02*
X371500D01*
X364000Y330000D02*
Y346000D01*
X385500Y331500D02*
X390000D01*
X384000Y330000D02*
X391500D01*
Y346000D01*
X384000D02*
X391500D01*
X384000Y330000D02*
Y346000D01*
X375500Y331500D02*
X380000D01*
X374000Y330000D02*
X381500D01*
Y346000D01*
X374000D02*
X381500D01*
X374000Y330000D02*
Y346000D01*
X355500Y331500D02*
X360000D01*
X354000Y330000D02*
X361500D01*
Y346000D01*
X354000D02*
X361500D01*
X354000Y330000D02*
Y346000D01*
X296000Y330000D02*
Y346000D01*
X303500D01*
Y330000D02*
Y346000D01*
X296000Y330000D02*
X303500D01*
X297500Y331500D02*
X302000D01*
X209000Y330000D02*
Y346000D01*
X216500D01*
Y330000D02*
Y346000D01*
X209000Y330000D02*
X216500D01*
X210500Y331500D02*
X215000D01*
X131000Y330000D02*
Y346000D01*
X138500D01*
Y330000D02*
Y346000D01*
X131000Y330000D02*
X138500D01*
X132500Y331500D02*
X137000D01*
X52500D02*
X57000D01*
X51000Y330000D02*
X58500D01*
Y346000D01*
X51000D02*
X58500D01*
X51000Y330000D02*
Y346000D01*
X539000Y193000D02*
Y203000D01*
X529000Y193000D02*
X539000D01*
X529000D02*
Y203000D01*
X539000D01*
X537000Y193000D02*
X539000D01*
X32000Y44000D02*
Y54000D01*
X22000Y44000D02*
X32000D01*
X22000D02*
Y54000D01*
X32000D01*
X30000Y44000D02*
X32000D01*
X19000Y56000D02*
Y66000D01*
X9000Y56000D02*
X19000D01*
X9000D02*
Y66000D01*
X19000D01*
X17000Y56000D02*
X19000D01*
X32000D02*
Y66000D01*
X22000Y56000D02*
X32000D01*
X22000D02*
Y66000D01*
X32000D01*
X30000Y56000D02*
X32000D01*
X327500Y331500D02*
X332000D01*
X326000Y330000D02*
X333500D01*
Y346000D01*
X326000D02*
X333500D01*
X326000Y330000D02*
Y346000D01*
X307500Y331500D02*
X312000D01*
X306000Y330000D02*
X313500D01*
Y346000D01*
X306000D02*
X313500D01*
X306000Y330000D02*
Y346000D01*
X317500Y331500D02*
X322000D01*
X316000Y330000D02*
X323500D01*
Y346000D01*
X316000D02*
X323500D01*
X316000Y330000D02*
Y346000D01*
X430000Y201000D02*
X441000D01*
Y178000D02*
Y201000D01*
X430000Y178000D02*
X441000D01*
X430000D02*
Y201000D01*
X260500Y331500D02*
X265000D01*
X259000Y330000D02*
X266500D01*
Y346000D01*
X259000D02*
X266500D01*
X259000Y330000D02*
Y346000D01*
X122500Y331500D02*
X127000D01*
X121000Y330000D02*
X128500D01*
Y346000D01*
X121000D02*
X128500D01*
X121000Y330000D02*
Y346000D01*
X240500Y331500D02*
X245000D01*
X239000Y330000D02*
X246500D01*
Y346000D01*
X239000D02*
X246500D01*
X239000Y330000D02*
Y346000D01*
X82500Y331500D02*
X87000D01*
X81000Y330000D02*
X88500D01*
Y346000D01*
X81000D02*
X88500D01*
X81000Y330000D02*
Y346000D01*
X72500Y331500D02*
X77000D01*
X71000Y330000D02*
X78500D01*
Y346000D01*
X71000D02*
X78500D01*
X71000Y330000D02*
Y346000D01*
X200500Y331500D02*
X205000D01*
X199000Y330000D02*
X206500D01*
Y346000D01*
X199000D02*
X206500D01*
X199000Y330000D02*
Y346000D01*
X250500Y331500D02*
X255000D01*
X249000Y330000D02*
X256500D01*
Y346000D01*
X249000D02*
X256500D01*
X249000Y330000D02*
Y346000D01*
X287500Y331500D02*
X292000D01*
X286000Y330000D02*
X293500D01*
Y346000D01*
X286000D02*
X293500D01*
X286000Y330000D02*
Y346000D01*
X270500Y331500D02*
X275000D01*
X269000Y330000D02*
X276500D01*
Y346000D01*
X269000D02*
X276500D01*
X269000Y330000D02*
Y346000D01*
X112500Y331500D02*
X117000D01*
X111000Y330000D02*
X118500D01*
Y346000D01*
X111000D02*
X118500D01*
X111000Y330000D02*
Y346000D01*
X62500Y331500D02*
X67000D01*
X61000Y330000D02*
X68500D01*
Y346000D01*
X61000D02*
X68500D01*
X61000Y330000D02*
Y346000D01*
X220500Y331500D02*
X225000D01*
X219000Y330000D02*
X226500D01*
Y346000D01*
X219000D02*
X226500D01*
X219000Y330000D02*
Y346000D01*
X102500Y331500D02*
X107000D01*
X101000Y330000D02*
X108500D01*
Y346000D01*
X101000D02*
X108500D01*
X101000Y330000D02*
Y346000D01*
X230500Y331500D02*
X235000D01*
X229000Y330000D02*
X236500D01*
Y346000D01*
X229000D02*
X236500D01*
X229000Y330000D02*
Y346000D01*
X92500Y331500D02*
X97000D01*
X91000Y330000D02*
X98500D01*
Y346000D01*
X91000D02*
X98500D01*
X91000Y330000D02*
Y346000D01*
X182500Y331500D02*
X187000D01*
X181000Y330000D02*
X188500D01*
Y346000D01*
X181000D02*
X188500D01*
X181000Y330000D02*
Y346000D01*
X172500Y331500D02*
X177000D01*
X171000Y330000D02*
X178500D01*
Y346000D01*
X171000D02*
X178500D01*
X171000Y330000D02*
Y346000D01*
X152500Y331500D02*
X157000D01*
X151000Y330000D02*
X158500D01*
Y346000D01*
X151000D02*
X158500D01*
X151000Y330000D02*
Y346000D01*
X162500Y331500D02*
X167000D01*
X161000Y330000D02*
X168500D01*
Y346000D01*
X161000D02*
X168500D01*
X161000Y330000D02*
Y346000D01*
X42500Y331500D02*
X47000D01*
X41000Y330000D02*
X48500D01*
Y346000D01*
X41000D02*
X48500D01*
X41000Y330000D02*
Y346000D01*
X142500Y331500D02*
X147000D01*
X141000Y330000D02*
X148500D01*
Y346000D01*
X141000D02*
X148500D01*
X141000Y330000D02*
Y346000D01*
X29000Y236500D02*
X33500D01*
X27500Y238000D02*
X35000D01*
X27500Y222000D02*
Y238000D01*
Y222000D02*
X35000D01*
Y238000D01*
X39000Y236500D02*
X43500D01*
X37500Y238000D02*
X45000D01*
X37500Y222000D02*
Y238000D01*
Y222000D02*
X45000D01*
Y238000D01*
X409163Y354996D02*
X408344Y354423D01*
X408754Y354710D01*
X410187Y352662D01*
X410065Y351966D01*
X409655Y351679D01*
X408959Y351802D01*
X409982Y355570D02*
X411702Y353113D01*
X413340Y354260D01*
X414159Y354833D02*
X414978Y355406D01*
X414568Y355120D01*
X413422Y356757D01*
X413012Y356471D01*
X416206Y356267D02*
X415059Y357904D01*
X416288Y358764D01*
X416984Y358642D01*
X417844Y357413D01*
X418663Y357987D02*
X416943Y360443D01*
X418089Y358806D02*
X418744Y360485D01*
X418089Y358806D02*
X419891Y358847D01*
X327526Y352888D02*
X330000Y350414D01*
X328763Y351651D01*
X330412Y353301D01*
X329175Y354538D01*
X331649Y352064D01*
X332474Y352888D02*
X330825Y354538D01*
Y356187D01*
X332474D01*
X334123Y354538D01*
X332886Y355775D01*
X331237Y354125D01*
X334536Y359073D02*
X333711D01*
X332886Y358249D01*
Y357424D01*
X334536Y355775D01*
X335361D01*
X336185Y356599D01*
X336185Y357424D01*
X317526Y352888D02*
X320000Y350414D01*
X321649Y352064D01*
X322474Y352888D02*
X320825Y354538D01*
Y356187D01*
X322474D01*
X324124Y354538D01*
X322886Y355775D01*
X321237Y354125D01*
X324536Y359073D02*
X323711D01*
X322886Y358249D01*
Y357424D01*
X324536Y355775D01*
X325360D01*
X326185Y356599D01*
X326185Y357424D01*
X44000Y350414D02*
X42115Y352299D01*
Y354184D01*
X44000Y354184D01*
X45885Y352299D01*
X44471Y353713D01*
X42586Y351828D01*
X46828Y353242D02*
X47770Y354184D01*
X47299Y353713D01*
X44471Y356540D01*
Y355598D01*
X50598Y357012D02*
X47770Y359839D01*
Y357012D01*
X49655Y358897D01*
X141000Y382999D02*
Y386998D01*
X142999Y388997D01*
X144999Y386998D01*
Y382999D01*
Y385998D01*
X141000D01*
X146998Y388997D02*
Y382999D01*
X149997D01*
X150997Y383999D01*
Y384999D01*
X149997Y385998D01*
X146998D01*
X149997D01*
X150997Y386998D01*
Y387998D01*
X149997Y388997D01*
X146998D01*
X156995Y387998D02*
X155995Y388997D01*
X153996D01*
X152996Y387998D01*
Y386998D01*
X153996Y385998D01*
X155995D01*
X156995Y384999D01*
Y383999D01*
X155995Y382999D01*
X153996D01*
X152996Y383999D01*
X164992Y388997D02*
Y382999D01*
X167991D01*
X168991Y383999D01*
Y387998D01*
X167991Y388997D01*
X164992D01*
X171990Y386998D02*
X173989D01*
X174989Y385998D01*
Y382999D01*
X171990D01*
X170990Y383999D01*
X171990Y384999D01*
X174989D01*
X177988Y387998D02*
Y386998D01*
X176988D01*
X178988D01*
X177988D01*
Y383999D01*
X178988Y382999D01*
X182986Y386998D02*
X184986D01*
X185985Y385998D01*
Y382999D01*
X182986D01*
X181987Y383999D01*
X182986Y384999D01*
X185985D01*
X197982Y387998D02*
X196982Y388997D01*
X194983D01*
X193983Y387998D01*
Y386998D01*
X194983Y385998D01*
X196982D01*
X197982Y384999D01*
Y383999D01*
X196982Y382999D01*
X194983D01*
X193983Y383999D01*
X199981Y386998D02*
Y383999D01*
X200981Y382999D01*
X203980D01*
Y382000D01*
X202980Y381000D01*
X201980D01*
X203980Y382999D02*
Y386998D01*
X205979Y382999D02*
X208978D01*
X209978Y383999D01*
X208978Y384999D01*
X206979D01*
X205979Y385998D01*
X206979Y386998D01*
X209978D01*
X212977Y387998D02*
Y386998D01*
X211977D01*
X213976D01*
X212977D01*
Y383999D01*
X213976Y382999D01*
X219974D02*
X217975D01*
X216975Y383999D01*
Y385998D01*
X217975Y386998D01*
X219974D01*
X220974Y385998D01*
Y384999D01*
X216975D01*
X222973Y382999D02*
Y386998D01*
X223973D01*
X224973Y385998D01*
Y382999D01*
Y385998D01*
X225973Y386998D01*
X226972Y385998D01*
Y382999D01*
X228972D02*
X231971D01*
X232970Y383999D01*
X231971Y384999D01*
X229971D01*
X228972Y385998D01*
X229971Y386998D01*
X232970D01*
X235969Y382000D02*
X236969Y382999D01*
Y383999D01*
X235969D01*
Y382999D01*
X236969D01*
X235969Y382000D01*
X234970Y381000D01*
X246966Y388997D02*
X248965D01*
X247965D01*
Y382999D01*
X246966D01*
X248965D01*
X251964D02*
Y386998D01*
X254963D01*
X255963Y385998D01*
Y382999D01*
X261961Y386998D02*
X258962D01*
X257962Y385998D01*
Y383999D01*
X258962Y382999D01*
X261961D01*
X264960Y382000D02*
X265960Y382999D01*
Y383999D01*
X264960D01*
Y382999D01*
X265960D01*
X264960Y382000D01*
X263960Y381000D01*
X277956Y382999D02*
X275956Y384999D01*
Y386998D01*
X277956Y388997D01*
X284953Y386998D02*
X281954D01*
X280955Y385998D01*
Y383999D01*
X281954Y382999D01*
X284953D01*
X286953D02*
X288952Y384999D01*
Y386998D01*
X286953Y388997D01*
X301948Y387998D02*
X300948Y388997D01*
X298949D01*
X297949Y387998D01*
Y383999D01*
X298949Y382999D01*
X300948D01*
X301948Y383999D01*
X304947Y382999D02*
X306946D01*
X307946Y383999D01*
Y385998D01*
X306946Y386998D01*
X304947D01*
X303947Y385998D01*
Y383999D01*
X304947Y382999D01*
X309945Y381000D02*
Y386998D01*
X312944D01*
X313944Y385998D01*
Y383999D01*
X312944Y382999D01*
X309945D01*
X315943Y386998D02*
Y383999D01*
X316943Y382999D01*
X319942D01*
Y382000D01*
X318942Y381000D01*
X317943D01*
X319942Y382999D02*
Y386998D01*
X321941D02*
Y382999D01*
Y384999D01*
X322941Y385998D01*
X323941Y386998D01*
X324940D01*
X327940Y382999D02*
X329939D01*
X328939D01*
Y386998D01*
X327940D01*
X334937Y381000D02*
X335937D01*
X336937Y382000D01*
Y386998D01*
X333938D01*
X332938Y385998D01*
Y383999D01*
X333938Y382999D01*
X336937D01*
X338936Y388997D02*
Y382999D01*
Y385998D01*
X339936Y386998D01*
X341935D01*
X342935Y385998D01*
Y382999D01*
X345934Y387998D02*
Y386998D01*
X344934D01*
X346933D01*
X345934D01*
Y383999D01*
X346933Y382999D01*
X359929D02*
X355930D01*
X359929Y386998D01*
Y387998D01*
X358929Y388997D01*
X356930D01*
X355930Y387998D01*
X361929D02*
X362928Y388997D01*
X364928D01*
X365927Y387998D01*
Y383999D01*
X364928Y382999D01*
X362928D01*
X361929Y383999D01*
Y387998D01*
X371925Y382999D02*
X367927D01*
X371925Y386998D01*
Y387998D01*
X370926Y388997D01*
X368926D01*
X367927Y387998D01*
X377923Y388997D02*
X373925D01*
Y385998D01*
X375924Y386998D01*
X376924D01*
X377923Y385998D01*
Y383999D01*
X376924Y382999D01*
X374924D01*
X373925Y383999D01*
X199172Y353242D02*
X202000Y350414D01*
X203414Y351828D01*
Y352770D01*
X201529Y354656D01*
X200586D01*
X199172Y353242D01*
X202000Y356069D02*
X203885Y357954D01*
X204356Y357483D01*
Y353713D01*
X204827Y353242D01*
X209173D02*
X212000Y350414D01*
X213414Y351828D01*
Y352770D01*
X211529Y354656D01*
X210586D01*
X209173Y353242D01*
X213885Y357954D02*
X213414Y356540D01*
X213414Y354656D01*
X214356Y353713D01*
X215299D01*
X216241Y354656D01*
Y355598D01*
X215770Y356069D01*
X214827D01*
X213414Y354656D01*
X219173Y353242D02*
X222000Y350414D01*
X223414Y351828D01*
Y352770D01*
X221529Y354656D01*
X220586D01*
X219173Y353242D01*
X223885Y357954D02*
X222000Y356069D01*
X223414Y354656D01*
X223885Y356069D01*
X224356Y356540D01*
X225299D01*
X226241Y355598D01*
Y354656D01*
X225299Y353713D01*
X224356D01*
X229172Y353242D02*
X232000Y350414D01*
X233414Y351828D01*
Y352770D01*
X231529Y354656D01*
X230586D01*
X229172Y353242D01*
X236241Y354656D02*
X233414Y357483D01*
X233414Y354656D01*
X235299Y356540D01*
X239173Y353242D02*
X242000Y350414D01*
X243414Y351828D01*
Y352770D01*
X241529Y354656D01*
X240586D01*
X239173Y353242D01*
X242471Y355598D02*
Y356540D01*
X243414Y357483D01*
X244356D01*
X244828Y357012D01*
Y356069D01*
X244356Y355598D01*
X244828Y356069D01*
X245770D01*
X246241Y355598D01*
Y354656D01*
X245299Y353713D01*
X244356D01*
X249172Y353242D02*
X252000Y350414D01*
X253414Y351828D01*
Y352770D01*
X251529Y354656D01*
X250586D01*
X249172Y353242D01*
X256713Y355127D02*
X254827Y353242D01*
Y357012D01*
X254356Y357483D01*
X253414D01*
X252471Y356540D01*
Y355598D01*
X259173Y353242D02*
X262000Y350414D01*
X263414Y351828D01*
Y352770D01*
X261529Y354656D01*
X260586D01*
X259173Y353242D01*
X264827D02*
X265770Y354184D01*
X265299Y353713D01*
X262471Y356540D01*
Y355598D01*
X270173Y353242D02*
X273000Y350414D01*
X274414Y351828D01*
Y352770D01*
X272529Y354656D01*
X271586D01*
X270173Y353242D01*
X273471Y355598D02*
Y356540D01*
X274414Y357483D01*
X275356D01*
X277241Y355598D01*
Y354656D01*
X276299Y353713D01*
X275356D01*
X273471Y355598D01*
X55000Y350414D02*
X53115Y352299D01*
Y354184D01*
X55000Y354184D01*
X56885Y352299D01*
X55471Y353713D01*
X53586Y351828D01*
X57828Y353242D02*
X58770Y354184D01*
X58299Y353713D01*
X55471Y356540D01*
Y355598D01*
X57828Y357954D02*
Y358897D01*
X58770Y359839D01*
X59712D01*
X60184Y359368D01*
Y358425D01*
X59712Y357954D01*
X60184Y358425D01*
X61126D01*
X61598Y357954D01*
Y357012D01*
X60655Y356069D01*
X59712D01*
X65000Y350414D02*
X63115Y352299D01*
Y354184D01*
X65000Y354184D01*
X66885Y352299D01*
X65471Y353713D01*
X63586Y351828D01*
X67827Y353242D02*
X68770Y354184D01*
X68299Y353713D01*
X65471Y356540D01*
Y355598D01*
X72069Y357483D02*
X70184Y355598D01*
Y359368D01*
X69713Y359839D01*
X68770D01*
X67827Y358897D01*
Y357954D01*
X75000Y350414D02*
X73115Y352299D01*
Y354184D01*
X75000Y354184D01*
X76885Y352299D01*
X75471Y353713D01*
X73586Y351828D01*
X77828Y353242D02*
X78770Y354184D01*
X78299Y353713D01*
X75471Y356540D01*
Y355598D01*
X80184D02*
X81126Y356540D01*
X80655Y356069D01*
X77828Y358897D01*
Y357954D01*
X85000Y350414D02*
X83115Y352299D01*
Y354184D01*
X85000Y354184D01*
X86885Y352299D01*
X85471Y353713D01*
X83586Y351828D01*
X87827Y353242D02*
X88770Y354184D01*
X88299Y353713D01*
X85471Y356540D01*
Y355598D01*
X87827Y357954D02*
Y358897D01*
X88770Y359839D01*
X89713D01*
X91597Y357954D01*
Y357012D01*
X90655Y356069D01*
X89713D01*
X87827Y357954D01*
X95000Y350414D02*
X93115Y352299D01*
Y354184D01*
X95000Y354184D01*
X96885Y352299D01*
X95471Y353713D01*
X93586Y351828D01*
X97356Y353713D02*
X98299D01*
X99241Y354656D01*
Y355598D01*
X97356Y357483D01*
X96414D01*
X95471Y356540D01*
Y355598D01*
X95942Y355127D01*
X96885D01*
X98299Y356540D01*
X105000Y350414D02*
X103115Y352299D01*
Y354184D01*
X105000Y354184D01*
X106885Y352299D01*
X105471Y353713D01*
X103586Y351828D01*
X105471Y355598D02*
Y356540D01*
X106414Y357483D01*
X107356D01*
X107827Y357012D01*
Y356069D01*
X108770D01*
X109241Y355598D01*
Y354656D01*
X108299Y353713D01*
X107356D01*
X106885Y354184D01*
Y355127D01*
X105942D01*
X105471Y355598D01*
X106885Y355127D02*
X107827Y356069D01*
X115000Y350414D02*
X113115Y352299D01*
Y354184D01*
X115000Y354184D01*
X116885Y352299D01*
X115471Y353713D01*
X113586Y351828D01*
X115000Y356069D02*
X116885Y357954D01*
X117356Y357483D01*
Y353713D01*
X117827Y353242D01*
X125000Y350414D02*
X123115Y352299D01*
Y354184D01*
X125000Y354184D01*
X126885Y352299D01*
X125471Y353713D01*
X123586Y351828D01*
X126885Y357954D02*
X126414Y356540D01*
X126414Y354656D01*
X127356Y353713D01*
X128299D01*
X129241Y354656D01*
Y355598D01*
X128770Y356069D01*
X127828D01*
X126414Y354656D01*
X135000Y350414D02*
X133115Y352299D01*
Y354184D01*
X135000Y354184D01*
X136885Y352299D01*
X135471Y353713D01*
X133586Y351828D01*
X136885Y357954D02*
X135000Y356069D01*
X136414Y354656D01*
X136885Y356069D01*
X137356Y356540D01*
X138299D01*
X139241Y355598D01*
Y354656D01*
X138299Y353713D01*
X137356D01*
X145000Y350414D02*
X143115Y352299D01*
Y354184D01*
X145000Y354184D01*
X146885Y352299D01*
X145471Y353713D01*
X143586Y351828D01*
X149241Y354656D02*
X146414Y357483D01*
X146414Y354656D01*
X148299Y356540D01*
X155000Y350414D02*
X153115Y352299D01*
Y354184D01*
X155000Y354184D01*
X156885Y352299D01*
X155471Y353713D01*
X153586Y351828D01*
X155471Y355598D02*
Y356540D01*
X156414Y357483D01*
X157356D01*
X157827Y357012D01*
Y356069D01*
X157356Y355598D01*
X157827Y356069D01*
X158770D01*
X159241Y355598D01*
Y354656D01*
X158299Y353713D01*
X157356D01*
X165000Y350414D02*
X163115Y352299D01*
Y354184D01*
X165000Y354184D01*
X166885Y352299D01*
X165471Y353713D01*
X163586Y351828D01*
X169712Y355127D02*
X167827Y353242D01*
Y357012D01*
X167356Y357483D01*
X166414D01*
X165471Y356540D01*
Y355598D01*
X175000Y350414D02*
X173115Y352299D01*
Y354184D01*
X175000Y354184D01*
X176885Y352299D01*
X175471Y353713D01*
X173586Y351828D01*
X177828Y353242D02*
X178770Y354184D01*
X178299Y353713D01*
X175471Y356540D01*
Y355598D01*
X185000Y350414D02*
X183115Y352299D01*
Y354184D01*
X185000Y354184D01*
X186885Y352299D01*
X185471Y353713D01*
X183586Y351828D01*
X185471Y355598D02*
Y356540D01*
X186414Y357483D01*
X187356D01*
X189241Y355598D01*
Y354656D01*
X188299Y353713D01*
X187356D01*
X185471Y355598D01*
X290000Y349414D02*
X287526Y351888D01*
X289175D01*
Y353538D01*
X291649Y351064D01*
X292886Y352301D02*
X293711Y353125D01*
X293711Y353950D01*
X292886Y354775D01*
X292062D01*
X291237Y353950D01*
X291237Y353125D01*
X292062Y352301D01*
X292886D01*
X294124Y358486D02*
X296598Y356012D01*
X295360Y354775D01*
X294536D01*
X293711Y355599D01*
X293711Y356424D01*
X294948Y357661D01*
X298659Y358073D02*
X297835Y357249D01*
X297010D01*
X296185Y358073D01*
X296185Y358898D01*
X297010Y359723D01*
X297835D01*
X298247Y359311D01*
X296598Y357661D01*
X300000Y349414D02*
X297526Y351888D01*
X298763Y353125D01*
X299588D01*
X300412Y352301D01*
X300412Y351476D01*
X299175Y350239D01*
X302062Y355599D02*
X301237D01*
X300412Y354775D01*
X300412Y353950D01*
X302062Y352301D01*
X302886D01*
X303711Y353125D01*
X303711Y353950D01*
X302886Y354775D01*
X302062Y353950D01*
X302886Y356424D02*
Y357249D01*
X303711Y358073D01*
X304536D01*
X306185Y356424D01*
X306185Y355599D01*
X305361Y354775D01*
X304536D01*
X302886Y356424D01*
X310000Y350414D02*
X307526Y352888D01*
X308763Y354125D01*
X309588D01*
X310412Y353301D01*
X310412Y352476D01*
X309175Y351239D01*
X312062Y356599D02*
X311237D01*
X310412Y355775D01*
X310412Y354950D01*
X312062Y353301D01*
X312886D01*
X313711Y354125D01*
X313711Y354950D01*
X312886Y355775D01*
X312062Y354950D01*
X314948Y355362D02*
X315773Y356187D01*
X315360Y355775D01*
X312886Y358249D01*
Y357424D01*
X357246Y350393D02*
X356099Y352030D01*
X357327Y352891D01*
X358023Y352768D01*
X358883Y351539D01*
X357982Y354570D02*
X359702Y352113D01*
X360931Y352973D01*
X361053Y353669D01*
X360767Y354079D01*
X360070Y354201D01*
X358842Y353341D01*
X360070Y354201D01*
X360193Y354897D01*
X359907Y355307D01*
X359210Y355430D01*
X357982Y354570D01*
X361667Y357150D02*
X360848Y356576D01*
X360725Y355880D01*
X361872Y354242D01*
X362568Y354120D01*
X363387Y354693D01*
X363510Y355389D01*
X362363Y357027D01*
X361667Y357150D01*
X364533Y359157D02*
X362895Y358010D01*
X364616Y355553D01*
X366253Y356700D01*
X363755Y356782D02*
X364574Y357355D01*
X387246Y350393D02*
X386099Y352030D01*
X387327Y352891D01*
X388023Y352768D01*
X388883Y351539D01*
X387982Y354570D02*
X389702Y352113D01*
X389948Y353505D01*
X391340Y353260D01*
X389620Y355716D01*
X392076Y357436D02*
X390439Y356290D01*
X392159Y353833D01*
X393797Y354980D01*
X391299Y355061D02*
X392118Y355635D01*
X367246Y350393D02*
X366099Y352030D01*
X367327Y352891D01*
X368023Y352768D01*
X368883Y351539D01*
X369210Y355430D02*
X368391Y354856D01*
X368269Y354160D01*
X369415Y352522D01*
X370112Y352400D01*
X370931Y352973D01*
X371053Y353669D01*
X369906Y355307D01*
X369210Y355430D01*
X372077Y357436D02*
X370439Y356290D01*
X372159Y353833D01*
X373797Y354980D01*
X371299Y355061D02*
X372118Y355635D01*
X397246Y350393D02*
X396099Y352030D01*
X397327Y352891D01*
X398023Y352768D01*
X398883Y351539D01*
X397982Y354570D02*
X399702Y352113D01*
X398842Y353341D01*
X400480Y354488D01*
X399620Y355716D01*
X401340Y353260D01*
X401012Y355471D02*
X402159Y353833D01*
X401585Y354652D01*
X401708Y355348D01*
X401831Y356044D01*
X402241Y356331D01*
X404616Y355553D02*
X405844Y356413D01*
X405967Y357109D01*
X405270Y357232D01*
X404452Y356659D01*
X403756Y356782D01*
X403878Y357478D01*
X405107Y358338D01*
X406048Y359607D02*
X406335Y359198D01*
X405926Y358911D01*
X406744Y359485D01*
X406335Y359198D01*
X407195Y357970D01*
X407891Y357847D01*
X377246Y350393D02*
X376099Y352030D01*
X377327Y352891D01*
X378023Y352768D01*
X378883Y351539D01*
X379907Y355307D02*
X379210Y355430D01*
X378392Y354856D01*
X378269Y354160D01*
X379415Y352522D01*
X380112Y352400D01*
X380931Y352973D01*
X381053Y353669D01*
X382077Y357436D02*
X380439Y356290D01*
X382159Y353833D01*
X383797Y354980D01*
X381299Y355061D02*
X382118Y355635D01*
X232000Y370999D02*
Y367000D01*
X233999D01*
X234666Y367666D01*
Y370332D01*
X233999Y370999D01*
X232000D01*
X236665Y369666D02*
X237998D01*
X238665Y368999D01*
Y367000D01*
X236665D01*
X235999Y367666D01*
X236665Y368333D01*
X238665D01*
X240664Y370332D02*
Y369666D01*
X239997D01*
X241330D01*
X240664D01*
Y367666D01*
X241330Y367000D01*
X243996Y369666D02*
X245329D01*
X245995Y368999D01*
Y367000D01*
X243996D01*
X243330Y367666D01*
X243996Y368333D01*
X245995D01*
X102000Y367000D02*
Y369666D01*
X103333Y370999D01*
X104666Y369666D01*
Y367000D01*
Y368999D01*
X102000D01*
X108665Y370999D02*
Y367000D01*
X106665D01*
X105999Y367666D01*
Y368999D01*
X106665Y369666D01*
X108665D01*
X112663Y370999D02*
Y367000D01*
X110664D01*
X109997Y367666D01*
Y368999D01*
X110664Y369666D01*
X112663D01*
X113996D02*
Y367000D01*
Y368333D01*
X114663Y368999D01*
X115329Y369666D01*
X115996D01*
X119994Y367000D02*
X118661D01*
X117995Y367666D01*
Y368999D01*
X118661Y369666D01*
X119994D01*
X120661Y368999D01*
Y368333D01*
X117995D01*
X121994Y367000D02*
X123993D01*
X124659Y367666D01*
X123993Y368333D01*
X122660D01*
X121994Y368999D01*
X122660Y369666D01*
X124659D01*
X125992Y367000D02*
X127992D01*
X128658Y367666D01*
X127992Y368333D01*
X126659D01*
X125992Y368999D01*
X126659Y369666D01*
X128658D01*
X297000Y367000D02*
Y370999D01*
X298999D01*
X299666Y370332D01*
Y368999D01*
X298999Y368333D01*
X297000D01*
X303664Y370332D02*
X302998Y370999D01*
X301665D01*
X300999Y370332D01*
Y367666D01*
X301665Y367000D01*
X302998D01*
X303664Y367666D01*
Y368999D01*
X302332D01*
X304997Y367000D02*
Y370999D01*
X306330Y369666D01*
X307663Y370999D01*
Y367000D01*
X372666Y370332D02*
X371999Y370999D01*
X370666D01*
X370000Y370332D01*
Y367666D01*
X370666Y367000D01*
X371999D01*
X372666Y367666D01*
X374665Y367000D02*
X375998D01*
X376664Y367666D01*
Y368999D01*
X375998Y369666D01*
X374665D01*
X373999Y368999D01*
Y367666D01*
X374665Y367000D01*
X377997D02*
Y369666D01*
X379997D01*
X380663Y368999D01*
Y367000D01*
X382663Y370332D02*
Y369666D01*
X381996D01*
X383329D01*
X382663D01*
Y367666D01*
X383329Y367000D01*
X385328Y369666D02*
Y367000D01*
Y368333D01*
X385995Y368999D01*
X386661Y369666D01*
X387328D01*
X389994Y367000D02*
X391326D01*
X391993Y367666D01*
Y368999D01*
X391326Y369666D01*
X389994D01*
X389327Y368999D01*
Y367666D01*
X389994Y367000D01*
X393326D02*
X394659D01*
X393992D01*
Y370999D01*
X393326D01*
X448000Y385000D02*
Y388999D01*
X449999D01*
X450666Y388332D01*
Y386999D01*
X449999Y386333D01*
X448000D01*
X451999Y385000D02*
X454665Y387666D01*
X455997Y385000D02*
Y388999D01*
X458663Y385000D01*
Y388999D01*
X463995Y385000D02*
Y388999D01*
X465994D01*
X466661Y388332D01*
Y386999D01*
X465994Y386333D01*
X463995D01*
X470659Y388332D02*
X469993Y388999D01*
X468660D01*
X467993Y388332D01*
Y385666D01*
X468660Y385000D01*
X469993D01*
X470659Y385666D01*
Y386999D01*
X469326D01*
X471992Y385000D02*
Y388999D01*
X473325Y387666D01*
X474658Y388999D01*
Y385000D01*
X478657Y388999D02*
X475991D01*
Y385000D01*
X478657D01*
X475991Y386999D02*
X477324D01*
X479990Y385000D02*
Y388999D01*
X481989D01*
X482655Y388332D01*
Y386999D01*
X481989Y386333D01*
X479990D01*
X481323D02*
X482655Y385000D01*
X487987Y388999D02*
Y386333D01*
X489320Y385000D01*
X490653Y386333D01*
Y388999D01*
X494652Y385000D02*
X491986D01*
X494652Y387666D01*
Y388332D01*
X493985Y388999D01*
X492652D01*
X491986Y388332D01*
X499983D02*
X500650Y388999D01*
X501983D01*
X502649Y388332D01*
Y387666D01*
X501983Y386999D01*
X501316D01*
X501983D01*
X502649Y386333D01*
Y385666D01*
X501983Y385000D01*
X500650D01*
X499983Y385666D01*
X506648Y385000D02*
X503982D01*
X506648Y387666D01*
Y388332D01*
X505981Y388999D01*
X504648D01*
X503982Y388332D01*
X507981Y385666D02*
X508647Y385000D01*
X509980D01*
X510646Y385666D01*
Y388332D01*
X509980Y388999D01*
X508647D01*
X507981Y388332D01*
Y387666D01*
X508647Y386999D01*
X510646D01*
X514645Y388999D02*
X511979D01*
Y386999D01*
X513312Y387666D01*
X513979D01*
X514645Y386999D01*
Y385666D01*
X513979Y385000D01*
X512646D01*
X511979Y385666D01*
X515978Y388332D02*
X516644Y388999D01*
X517977D01*
X518644Y388332D01*
Y387666D01*
X517977Y386999D01*
X518644Y386333D01*
Y385666D01*
X517977Y385000D01*
X516644D01*
X515978Y385666D01*
Y386333D01*
X516644Y386999D01*
X515978Y387666D01*
Y388332D01*
X516644Y386999D02*
X517977D01*
X438999Y280669D02*
X435001D01*
Y282668D01*
X435667Y283334D01*
X437000D01*
X437666Y282668D01*
Y280669D01*
Y282002D02*
X438999Y283334D01*
Y284667D02*
Y286000D01*
Y285334D01*
X435001D01*
X435667Y284667D01*
X438999Y289999D02*
X435001D01*
X437000Y288000D01*
Y290666D01*
X438999Y291998D02*
Y293331D01*
Y292665D01*
X435001D01*
X435667Y291998D01*
X406001Y308336D02*
X409999D01*
Y311002D01*
X406001Y315001D02*
Y312335D01*
X409999D01*
Y315001D01*
X408000Y312335D02*
Y313668D01*
X406001Y316334D02*
X409999D01*
Y318333D01*
X409333Y318999D01*
X406667D01*
X406001Y318333D01*
Y316334D01*
X406667Y320332D02*
X406001Y320999D01*
Y322332D01*
X406667Y322998D01*
X407334D01*
X408000Y322332D01*
Y321665D01*
Y322332D01*
X408666Y322998D01*
X409333D01*
X409999Y322332D01*
Y320999D01*
X409333Y320332D01*
X409999Y324331D02*
Y325664D01*
Y324997D01*
X406001D01*
X406667Y324331D01*
X192668Y166999D02*
Y163667D01*
X193334Y163001D01*
X194667D01*
X195334Y163667D01*
Y166999D01*
X196667D02*
X199332D01*
Y166333D01*
X196667Y163667D01*
Y163001D01*
X248000Y240001D02*
Y243999D01*
X249999D01*
X250666Y243333D01*
Y242000D01*
X249999Y241334D01*
X248000D01*
X249333D02*
X250666Y240001D01*
X251999D02*
X253332D01*
X252665D01*
Y243999D01*
X251999Y243333D01*
X255331D02*
X255997Y243999D01*
X257330D01*
X257997Y243333D01*
Y242666D01*
X257330Y242000D01*
X256664D01*
X257330D01*
X257997Y241334D01*
Y240667D01*
X257330Y240001D01*
X255997D01*
X255331Y240667D01*
X259330D02*
X259996Y240001D01*
X261329D01*
X261996Y240667D01*
Y243333D01*
X261329Y243999D01*
X259996D01*
X259330Y243333D01*
Y242666D01*
X259996Y242000D01*
X261996D01*
X124000Y240001D02*
Y243999D01*
X125999D01*
X126666Y243333D01*
Y242000D01*
X125999Y241334D01*
X124000D01*
X125333D02*
X126666Y240001D01*
X127999D02*
X129332D01*
X128665D01*
Y243999D01*
X127999Y243333D01*
X131331D02*
X131997Y243999D01*
X133330D01*
X133997Y243333D01*
Y242666D01*
X133330Y242000D01*
X132664D01*
X133330D01*
X133997Y241334D01*
Y240667D01*
X133330Y240001D01*
X131997D01*
X131331Y240667D01*
X135330Y243333D02*
X135996Y243999D01*
X137329D01*
X137996Y243333D01*
Y242666D01*
X137329Y242000D01*
X137996Y241334D01*
Y240667D01*
X137329Y240001D01*
X135996D01*
X135330Y240667D01*
Y241334D01*
X135996Y242000D01*
X135330Y242666D01*
Y243333D01*
X135996Y242000D02*
X137329D01*
X248000Y234001D02*
Y237999D01*
X249999D01*
X250666Y237333D01*
Y236000D01*
X249999Y235334D01*
X248000D01*
X249333D02*
X250666Y234001D01*
X251999D02*
X253332D01*
X252665D01*
Y237999D01*
X251999Y237333D01*
X255331D02*
X255997Y237999D01*
X257330D01*
X257997Y237333D01*
Y236666D01*
X257330Y236000D01*
X256664D01*
X257330D01*
X257997Y235334D01*
Y234667D01*
X257330Y234001D01*
X255997D01*
X255331Y234667D01*
X259330Y237999D02*
X261996D01*
Y237333D01*
X259330Y234667D01*
Y234001D01*
X124000D02*
Y237999D01*
X125999D01*
X126666Y237333D01*
Y236000D01*
X125999Y235334D01*
X124000D01*
X125333D02*
X126666Y234001D01*
X127999D02*
X129332D01*
X128665D01*
Y237999D01*
X127999Y237333D01*
X131331D02*
X131997Y237999D01*
X133330D01*
X133997Y237333D01*
Y236666D01*
X133330Y236000D01*
X132664D01*
X133330D01*
X133997Y235334D01*
Y234667D01*
X133330Y234001D01*
X131997D01*
X131331Y234667D01*
X137996Y237999D02*
X136663Y237333D01*
X135330Y236000D01*
Y234667D01*
X135996Y234001D01*
X137329D01*
X137996Y234667D01*
Y235334D01*
X137329Y236000D01*
X135330D01*
X248000Y228001D02*
Y231999D01*
X249999D01*
X250666Y231333D01*
Y230000D01*
X249999Y229334D01*
X248000D01*
X249333D02*
X250666Y228001D01*
X251999D02*
X253332D01*
X252665D01*
Y231999D01*
X251999Y231333D01*
X255331D02*
X255997Y231999D01*
X257330D01*
X257997Y231333D01*
Y230666D01*
X257330Y230000D01*
X256664D01*
X257330D01*
X257997Y229334D01*
Y228667D01*
X257330Y228001D01*
X255997D01*
X255331Y228667D01*
X261996Y231999D02*
X259330D01*
Y230000D01*
X260663Y230666D01*
X261329D01*
X261996Y230000D01*
Y228667D01*
X261329Y228001D01*
X259996D01*
X259330Y228667D01*
X124000Y228001D02*
Y231999D01*
X125999D01*
X126666Y231333D01*
Y230000D01*
X125999Y229334D01*
X124000D01*
X125333D02*
X126666Y228001D01*
X127999D02*
X129332D01*
X128665D01*
Y231999D01*
X127999Y231333D01*
X131331D02*
X131997Y231999D01*
X133330D01*
X133997Y231333D01*
Y230666D01*
X133330Y230000D01*
X132664D01*
X133330D01*
X133997Y229334D01*
Y228667D01*
X133330Y228001D01*
X131997D01*
X131331Y228667D01*
X137329Y228001D02*
Y231999D01*
X135330Y230000D01*
X137996D01*
X248000Y222001D02*
Y225999D01*
X249999D01*
X250666Y225333D01*
Y224000D01*
X249999Y223334D01*
X248000D01*
X249333D02*
X250666Y222001D01*
X251999D02*
X253332D01*
X252665D01*
Y225999D01*
X251999Y225333D01*
X255331D02*
X255997Y225999D01*
X257330D01*
X257997Y225333D01*
Y224666D01*
X257330Y224000D01*
X256664D01*
X257330D01*
X257997Y223334D01*
Y222667D01*
X257330Y222001D01*
X255997D01*
X255331Y222667D01*
X259330Y225333D02*
X259996Y225999D01*
X261329D01*
X261996Y225333D01*
Y224666D01*
X261329Y224000D01*
X260663D01*
X261329D01*
X261996Y223334D01*
Y222667D01*
X261329Y222001D01*
X259996D01*
X259330Y222667D01*
X124000Y222001D02*
Y225999D01*
X125999D01*
X126666Y225333D01*
Y224000D01*
X125999Y223334D01*
X124000D01*
X125333D02*
X126666Y222001D01*
X127999D02*
X129332D01*
X128665D01*
Y225999D01*
X127999Y225333D01*
X131331D02*
X131997Y225999D01*
X133330D01*
X133997Y225333D01*
Y224666D01*
X133330Y224000D01*
X132664D01*
X133330D01*
X133997Y223334D01*
Y222667D01*
X133330Y222001D01*
X131997D01*
X131331Y222667D01*
X137996Y222001D02*
X135330D01*
X137996Y224666D01*
Y225333D01*
X137329Y225999D01*
X135996D01*
X135330Y225333D01*
X248000Y216001D02*
Y219999D01*
X249999D01*
X250666Y219333D01*
Y218000D01*
X249999Y217334D01*
X248000D01*
X249333D02*
X250666Y216001D01*
X251999D02*
X253332D01*
X252665D01*
Y219999D01*
X251999Y219333D01*
X255331D02*
X255997Y219999D01*
X257330D01*
X257997Y219333D01*
Y218666D01*
X257330Y218000D01*
X256664D01*
X257330D01*
X257997Y217334D01*
Y216667D01*
X257330Y216001D01*
X255997D01*
X255331Y216667D01*
X259330Y216001D02*
X260663D01*
X259996D01*
Y219999D01*
X259330Y219333D01*
X124000Y216001D02*
Y219999D01*
X125999D01*
X126666Y219333D01*
Y218000D01*
X125999Y217334D01*
X124000D01*
X125333D02*
X126666Y216001D01*
X127999D02*
X129332D01*
X128665D01*
Y219999D01*
X127999Y219333D01*
X131331D02*
X131997Y219999D01*
X133330D01*
X133997Y219333D01*
Y218666D01*
X133330Y218000D01*
X132664D01*
X133330D01*
X133997Y217334D01*
Y216667D01*
X133330Y216001D01*
X131997D01*
X131331Y216667D01*
X135330Y219333D02*
X135996Y219999D01*
X137329D01*
X137996Y219333D01*
Y216667D01*
X137329Y216001D01*
X135996D01*
X135330Y216667D01*
Y219333D01*
X248000Y210001D02*
Y213999D01*
X249999D01*
X250666Y213333D01*
Y212000D01*
X249999Y211334D01*
X248000D01*
X249333D02*
X250666Y210001D01*
X251999D02*
X253332D01*
X252665D01*
Y213999D01*
X251999Y213333D01*
X257997Y210001D02*
X255331D01*
X257997Y212666D01*
Y213333D01*
X257330Y213999D01*
X255997D01*
X255331Y213333D01*
X259330Y210667D02*
X259996Y210001D01*
X261329D01*
X261996Y210667D01*
Y213333D01*
X261329Y213999D01*
X259996D01*
X259330Y213333D01*
Y212666D01*
X259996Y212000D01*
X261996D01*
X124000Y210001D02*
Y213999D01*
X125999D01*
X126666Y213333D01*
Y212000D01*
X125999Y211334D01*
X124000D01*
X125333D02*
X126666Y210001D01*
X127999D02*
X129332D01*
X128665D01*
Y213999D01*
X127999Y213333D01*
X133997Y210001D02*
X131331D01*
X133997Y212666D01*
Y213333D01*
X133330Y213999D01*
X131997D01*
X131331Y213333D01*
X135330D02*
X135996Y213999D01*
X137329D01*
X137996Y213333D01*
Y212666D01*
X137329Y212000D01*
X137996Y211334D01*
Y210667D01*
X137329Y210001D01*
X135996D01*
X135330Y210667D01*
Y211334D01*
X135996Y212000D01*
X135330Y212666D01*
Y213333D01*
X135996Y212000D02*
X137329D01*
X248000Y204001D02*
Y207999D01*
X249999D01*
X250666Y207333D01*
Y206000D01*
X249999Y205334D01*
X248000D01*
X249333D02*
X250666Y204001D01*
X251999D02*
X253332D01*
X252665D01*
Y207999D01*
X251999Y207333D01*
X257997Y204001D02*
X255331D01*
X257997Y206666D01*
Y207333D01*
X257330Y207999D01*
X255997D01*
X255331Y207333D01*
X259330Y207999D02*
X261996D01*
Y207333D01*
X259330Y204667D01*
Y204001D01*
X124000D02*
Y207999D01*
X125999D01*
X126666Y207333D01*
Y206000D01*
X125999Y205334D01*
X124000D01*
X125333D02*
X126666Y204001D01*
X127999D02*
X129332D01*
X128665D01*
Y207999D01*
X127999Y207333D01*
X133997Y204001D02*
X131331D01*
X133997Y206666D01*
Y207333D01*
X133330Y207999D01*
X131997D01*
X131331Y207333D01*
X137996Y207999D02*
X136663Y207333D01*
X135330Y206000D01*
Y204667D01*
X135996Y204001D01*
X137329D01*
X137996Y204667D01*
Y205334D01*
X137329Y206000D01*
X135330D01*
X248000Y198001D02*
Y201999D01*
X249999D01*
X250666Y201333D01*
Y200000D01*
X249999Y199334D01*
X248000D01*
X249333D02*
X250666Y198001D01*
X251999D02*
X253332D01*
X252665D01*
Y201999D01*
X251999Y201333D01*
X257997Y198001D02*
X255331D01*
X257997Y200666D01*
Y201333D01*
X257330Y201999D01*
X255997D01*
X255331Y201333D01*
X261996Y201999D02*
X259330D01*
Y200000D01*
X260663Y200666D01*
X261329D01*
X261996Y200000D01*
Y198667D01*
X261329Y198001D01*
X259996D01*
X259330Y198667D01*
X124000Y198001D02*
Y201999D01*
X125999D01*
X126666Y201333D01*
Y200000D01*
X125999Y199334D01*
X124000D01*
X125333D02*
X126666Y198001D01*
X127999D02*
X129332D01*
X128665D01*
Y201999D01*
X127999Y201333D01*
X133997Y198001D02*
X131331D01*
X133997Y200666D01*
Y201333D01*
X133330Y201999D01*
X131997D01*
X131331Y201333D01*
X137329Y198001D02*
Y201999D01*
X135330Y200000D01*
X137996D01*
X248000Y192001D02*
Y195999D01*
X249999D01*
X250666Y195333D01*
Y194000D01*
X249999Y193333D01*
X248000D01*
X249333D02*
X250666Y192001D01*
X251999D02*
X253332D01*
X252665D01*
Y195999D01*
X251999Y195333D01*
X257997Y192001D02*
X255331D01*
X257997Y194667D01*
Y195333D01*
X257330Y195999D01*
X255997D01*
X255331Y195333D01*
X259330D02*
X259996Y195999D01*
X261329D01*
X261996Y195333D01*
Y194667D01*
X261329Y194000D01*
X260663D01*
X261329D01*
X261996Y193333D01*
Y192667D01*
X261329Y192001D01*
X259996D01*
X259330Y192667D01*
X124000Y192001D02*
Y195999D01*
X125999D01*
X126666Y195333D01*
Y194000D01*
X125999Y193333D01*
X124000D01*
X125333D02*
X126666Y192001D01*
X127999D02*
X129332D01*
X128665D01*
Y195999D01*
X127999Y195333D01*
X133997Y192001D02*
X131331D01*
X133997Y194667D01*
Y195333D01*
X133330Y195999D01*
X131997D01*
X131331Y195333D01*
X137996Y192001D02*
X135330D01*
X137996Y194667D01*
Y195333D01*
X137329Y195999D01*
X135996D01*
X135330Y195333D01*
X248000Y186001D02*
Y189999D01*
X249999D01*
X250666Y189333D01*
Y188000D01*
X249999Y187334D01*
X248000D01*
X249333D02*
X250666Y186001D01*
X251999D02*
X253332D01*
X252665D01*
Y189999D01*
X251999Y189333D01*
X257997Y186001D02*
X255331D01*
X257997Y188666D01*
Y189333D01*
X257330Y189999D01*
X255997D01*
X255331Y189333D01*
X259330Y186001D02*
X260663D01*
X259996D01*
Y189999D01*
X259330Y189333D01*
X124000Y186001D02*
Y189999D01*
X125999D01*
X126666Y189333D01*
Y188000D01*
X125999Y187334D01*
X124000D01*
X125333D02*
X126666Y186001D01*
X127999D02*
X129332D01*
X128665D01*
Y189999D01*
X127999Y189333D01*
X133997Y186001D02*
X131331D01*
X133997Y188666D01*
Y189333D01*
X133330Y189999D01*
X131997D01*
X131331Y189333D01*
X135330D02*
X135996Y189999D01*
X137329D01*
X137996Y189333D01*
Y186667D01*
X137329Y186001D01*
X135996D01*
X135330Y186667D01*
Y189333D01*
X248000Y180001D02*
Y183999D01*
X249999D01*
X250666Y183333D01*
Y182000D01*
X249999Y181333D01*
X248000D01*
X249333D02*
X250666Y180001D01*
X251999D02*
X253332D01*
X252665D01*
Y183999D01*
X251999Y183333D01*
X255331Y180001D02*
X256664D01*
X255997D01*
Y183999D01*
X255331Y183333D01*
X258663Y180667D02*
X259330Y180001D01*
X260663D01*
X261329Y180667D01*
Y183333D01*
X260663Y183999D01*
X259330D01*
X258663Y183333D01*
Y182667D01*
X259330Y182000D01*
X261329D01*
X124000Y180001D02*
Y183999D01*
X125999D01*
X126666Y183333D01*
Y182000D01*
X125999Y181333D01*
X124000D01*
X125333D02*
X126666Y180001D01*
X127999D02*
X129332D01*
X128665D01*
Y183999D01*
X127999Y183333D01*
X131331Y180001D02*
X132664D01*
X131997D01*
Y183999D01*
X131331Y183333D01*
X134663D02*
X135330Y183999D01*
X136663D01*
X137329Y183333D01*
Y182667D01*
X136663Y182000D01*
X137329Y181333D01*
Y180667D01*
X136663Y180001D01*
X135330D01*
X134663Y180667D01*
Y181333D01*
X135330Y182000D01*
X134663Y182667D01*
Y183333D01*
X135330Y182000D02*
X136663D01*
X248000Y174001D02*
Y177999D01*
X249999D01*
X250666Y177333D01*
Y176000D01*
X249999Y175333D01*
X248000D01*
X249333D02*
X250666Y174001D01*
X251999D02*
X253332D01*
X252665D01*
Y177999D01*
X251999Y177333D01*
X255331Y174001D02*
X256664D01*
X255997D01*
Y177999D01*
X255331Y177333D01*
X258663Y177999D02*
X261329D01*
Y177333D01*
X258663Y174667D01*
Y174001D01*
X124000D02*
Y177999D01*
X125999D01*
X126666Y177333D01*
Y176000D01*
X125999Y175333D01*
X124000D01*
X125333D02*
X126666Y174001D01*
X127999D02*
X129332D01*
X128665D01*
Y177999D01*
X127999Y177333D01*
X131331Y174001D02*
X132664D01*
X131997D01*
Y177999D01*
X131331Y177333D01*
X137329Y177999D02*
X135996Y177333D01*
X134663Y176000D01*
Y174667D01*
X135330Y174001D01*
X136663D01*
X137329Y174667D01*
Y175333D01*
X136663Y176000D01*
X134663D01*
X248000Y168001D02*
Y171999D01*
X249999D01*
X250666Y171333D01*
Y170000D01*
X249999Y169334D01*
X248000D01*
X249333D02*
X250666Y168001D01*
X251999D02*
X253332D01*
X252665D01*
Y171999D01*
X251999Y171333D01*
X255331Y168001D02*
X256664D01*
X255997D01*
Y171999D01*
X255331Y171333D01*
X261329Y171999D02*
X258663D01*
Y170000D01*
X259996Y170667D01*
X260663D01*
X261329Y170000D01*
Y168667D01*
X260663Y168001D01*
X259330D01*
X258663Y168667D01*
X124000Y168001D02*
Y171999D01*
X125999D01*
X126666Y171333D01*
Y170000D01*
X125999Y169334D01*
X124000D01*
X125333D02*
X126666Y168001D01*
X127999D02*
X129332D01*
X128665D01*
Y171999D01*
X127999Y171333D01*
X131331Y168001D02*
X132664D01*
X131997D01*
Y171999D01*
X131331Y171333D01*
X136663Y168001D02*
Y171999D01*
X134663Y170000D01*
X137329D01*
X248000Y162001D02*
Y165999D01*
X249999D01*
X250666Y165333D01*
Y164000D01*
X249999Y163333D01*
X248000D01*
X249333D02*
X250666Y162001D01*
X251999D02*
X253332D01*
X252665D01*
Y165999D01*
X251999Y165333D01*
X255331D02*
X255997Y165999D01*
X257330D01*
X257997Y165333D01*
Y162667D01*
X257330Y162001D01*
X255997D01*
X255331Y162667D01*
Y165333D01*
X259330Y162001D02*
X260663D01*
X259996D01*
Y165999D01*
X259330Y165333D01*
X124000Y162001D02*
Y165999D01*
X125999D01*
X126666Y165333D01*
Y164000D01*
X125999Y163333D01*
X124000D01*
X125333D02*
X126666Y162001D01*
X127999D02*
X129332D01*
X128665D01*
Y165999D01*
X127999Y165333D01*
X131331D02*
X131997Y165999D01*
X133330D01*
X133997Y165333D01*
Y162667D01*
X133330Y162001D01*
X131997D01*
X131331Y162667D01*
Y165333D01*
X135330D02*
X135996Y165999D01*
X137329D01*
X137996Y165333D01*
Y162667D01*
X137329Y162001D01*
X135996D01*
X135330Y162667D01*
Y165333D01*
X248000Y156001D02*
Y159999D01*
X249999D01*
X250666Y159333D01*
Y158000D01*
X249999Y157334D01*
X248000D01*
X249333D02*
X250666Y156001D01*
X251999Y156667D02*
X252665Y156001D01*
X253998D01*
X254664Y156667D01*
Y159333D01*
X253998Y159999D01*
X252665D01*
X251999Y159333D01*
Y158667D01*
X252665Y158000D01*
X254664D01*
X255997Y156667D02*
X256664Y156001D01*
X257997D01*
X258663Y156667D01*
Y159333D01*
X257997Y159999D01*
X256664D01*
X255997Y159333D01*
Y158667D01*
X256664Y158000D01*
X258663D01*
X124000Y156001D02*
Y159999D01*
X125999D01*
X126666Y159333D01*
Y158000D01*
X125999Y157334D01*
X124000D01*
X125333D02*
X126666Y156001D01*
X127999Y156667D02*
X128665Y156001D01*
X129998D01*
X130665Y156667D01*
Y159333D01*
X129998Y159999D01*
X128665D01*
X127999Y159333D01*
Y158667D01*
X128665Y158000D01*
X130665D01*
X131997Y159333D02*
X132664Y159999D01*
X133997D01*
X134663Y159333D01*
Y158667D01*
X133997Y158000D01*
X134663Y157334D01*
Y156667D01*
X133997Y156001D01*
X132664D01*
X131997Y156667D01*
Y157334D01*
X132664Y158000D01*
X131997Y158667D01*
Y159333D01*
X132664Y158000D02*
X133997D01*
X248000Y150001D02*
Y153999D01*
X249999D01*
X250666Y153333D01*
Y152000D01*
X249999Y151333D01*
X248000D01*
X249333D02*
X250666Y150001D01*
X251999Y153333D02*
X252665Y153999D01*
X253998D01*
X254664Y153333D01*
Y152666D01*
X253998Y152000D01*
X254664Y151333D01*
Y150667D01*
X253998Y150001D01*
X252665D01*
X251999Y150667D01*
Y151333D01*
X252665Y152000D01*
X251999Y152666D01*
Y153333D01*
X252665Y152000D02*
X253998D01*
X255997Y150667D02*
X256664Y150001D01*
X257997D01*
X258663Y150667D01*
Y153333D01*
X257997Y153999D01*
X256664D01*
X255997Y153333D01*
Y152666D01*
X256664Y152000D01*
X258663D01*
X124000Y150001D02*
Y153999D01*
X125999D01*
X126666Y153333D01*
Y152000D01*
X125999Y151333D01*
X124000D01*
X125333D02*
X126666Y150001D01*
X127999Y153333D02*
X128665Y153999D01*
X129998D01*
X130665Y153333D01*
Y152666D01*
X129998Y152000D01*
X130665Y151333D01*
Y150667D01*
X129998Y150001D01*
X128665D01*
X127999Y150667D01*
Y151333D01*
X128665Y152000D01*
X127999Y152666D01*
Y153333D01*
X128665Y152000D02*
X129998D01*
X131997Y153333D02*
X132664Y153999D01*
X133997D01*
X134663Y153333D01*
Y152666D01*
X133997Y152000D01*
X134663Y151333D01*
Y150667D01*
X133997Y150001D01*
X132664D01*
X131997Y150667D01*
Y151333D01*
X132664Y152000D01*
X131997Y152666D01*
Y153333D01*
X132664Y152000D02*
X133997D01*
X432999Y281668D02*
X429001D01*
Y283668D01*
X429667Y284334D01*
X431000D01*
X431666Y283668D01*
Y281668D01*
Y283001D02*
X432999Y284334D01*
X432333Y285667D02*
X432999Y286334D01*
Y287666D01*
X432333Y288333D01*
X429667D01*
X429001Y287666D01*
Y286334D01*
X429667Y285667D01*
X430334D01*
X431000Y286334D01*
Y288333D01*
X429001Y289666D02*
Y292332D01*
X429667D01*
X432333Y289666D01*
X432999D01*
X424999Y281668D02*
X421001D01*
Y283668D01*
X421667Y284334D01*
X423000D01*
X423666Y283668D01*
Y281668D01*
Y283001D02*
X424999Y284334D01*
X424333Y285667D02*
X424999Y286334D01*
Y287666D01*
X424333Y288333D01*
X421667D01*
X421001Y287666D01*
Y286334D01*
X421667Y285667D01*
X422334D01*
X423000Y286334D01*
Y288333D01*
X421001Y292332D02*
X421667Y290999D01*
X423000Y289666D01*
X424333D01*
X424999Y290332D01*
Y291665D01*
X424333Y292332D01*
X423666D01*
X423000Y291665D01*
Y289666D01*
X417999Y281668D02*
X414001D01*
Y283668D01*
X414667Y284334D01*
X416000D01*
X416666Y283668D01*
Y281668D01*
Y283001D02*
X417999Y284334D01*
X417333Y285667D02*
X417999Y286334D01*
Y287666D01*
X417333Y288333D01*
X414667D01*
X414001Y287666D01*
Y286334D01*
X414667Y285667D01*
X415334D01*
X416000Y286334D01*
Y288333D01*
X414001Y292332D02*
Y289666D01*
X416000D01*
X415334Y290999D01*
Y291665D01*
X416000Y292332D01*
X417333D01*
X417999Y291665D01*
Y290332D01*
X417333Y289666D01*
X403999Y281668D02*
X400001D01*
Y283668D01*
X400667Y284334D01*
X402000D01*
X402666Y283668D01*
Y281668D01*
Y283001D02*
X403999Y284334D01*
X403333Y285667D02*
X403999Y286334D01*
Y287667D01*
X403333Y288333D01*
X400667D01*
X400001Y287667D01*
Y286334D01*
X400667Y285667D01*
X401334D01*
X402000Y286334D01*
Y288333D01*
X403999Y291665D02*
X400001D01*
X402000Y289666D01*
Y292332D01*
X410999Y281668D02*
X407001D01*
Y283668D01*
X407667Y284334D01*
X409000D01*
X409666Y283668D01*
Y281668D01*
Y283001D02*
X410999Y284334D01*
X407667Y285667D02*
X407001Y286334D01*
Y287667D01*
X407667Y288333D01*
X408333D01*
X409000Y287667D01*
X409666Y288333D01*
X410333D01*
X410999Y287667D01*
Y286334D01*
X410333Y285667D01*
X409666D01*
X409000Y286334D01*
X408333Y285667D01*
X407667D01*
X409000Y286334D02*
Y287667D01*
X407001Y289666D02*
Y292332D01*
X407667D01*
X410333Y289666D01*
X410999D01*
X396001Y307819D02*
X399999D01*
Y310485D01*
X396001Y314484D02*
Y311818D01*
X399999D01*
Y314484D01*
X398000Y311818D02*
Y313151D01*
X396001Y315817D02*
X399999D01*
Y317816D01*
X399333Y318482D01*
X396667D01*
X396001Y317816D01*
Y315817D01*
X396667Y319815D02*
X396001Y320482D01*
Y321815D01*
X396667Y322481D01*
X397334D01*
X398000Y321815D01*
Y321148D01*
Y321815D01*
X398666Y322481D01*
X399333D01*
X399999Y321815D01*
Y320482D01*
X399333Y319815D01*
X396001Y326480D02*
X396667Y325147D01*
X398000Y323814D01*
X399333D01*
X399999Y324481D01*
Y325814D01*
X399333Y326480D01*
X398666D01*
X398000Y325814D01*
Y323814D01*
X386001Y307819D02*
X389999D01*
Y310485D01*
X386001Y314484D02*
Y311818D01*
X389999D01*
Y314484D01*
X388000Y311818D02*
Y313151D01*
X386001Y315817D02*
X389999D01*
Y317816D01*
X389333Y318482D01*
X386667D01*
X386001Y317816D01*
Y315817D01*
X386667Y319815D02*
X386001Y320482D01*
Y321815D01*
X386667Y322481D01*
X387334D01*
X388000Y321815D01*
Y321148D01*
Y321815D01*
X388666Y322481D01*
X389333D01*
X389999Y321815D01*
Y320482D01*
X389333Y319815D01*
X389999Y325814D02*
X386001D01*
X388000Y323814D01*
Y326480D01*
X376001Y307819D02*
X379999D01*
Y310485D01*
X376001Y314484D02*
Y311818D01*
X379999D01*
Y314484D01*
X378000Y311818D02*
Y313151D01*
X376001Y315817D02*
X379999D01*
Y317816D01*
X379333Y318482D01*
X376667D01*
X376001Y317816D01*
Y315817D01*
X376667Y319815D02*
X376001Y320482D01*
Y321815D01*
X376667Y322481D01*
X377334D01*
X378000Y321815D01*
Y321148D01*
Y321815D01*
X378666Y322481D01*
X379333D01*
X379999Y321815D01*
Y320482D01*
X379333Y319815D01*
X376667Y323814D02*
X376001Y324481D01*
Y325814D01*
X376667Y326480D01*
X377334D01*
X378000Y325814D01*
Y325147D01*
Y325814D01*
X378666Y326480D01*
X379333D01*
X379999Y325814D01*
Y324481D01*
X379333Y323814D01*
X356001Y307819D02*
X359999D01*
Y310485D01*
X356001Y314484D02*
Y311818D01*
X359999D01*
Y314484D01*
X358000Y311818D02*
Y313151D01*
X356001Y315817D02*
X359999D01*
Y317816D01*
X359333Y318482D01*
X356667D01*
X356001Y317816D01*
Y315817D01*
X356667Y319815D02*
X356001Y320482D01*
Y321815D01*
X356667Y322481D01*
X357333D01*
X358000Y321815D01*
Y321148D01*
Y321815D01*
X358666Y322481D01*
X359333D01*
X359999Y321815D01*
Y320482D01*
X359333Y319815D01*
X356667Y323814D02*
X356001Y324481D01*
Y325814D01*
X356667Y326480D01*
X359333D01*
X359999Y325814D01*
Y324481D01*
X359333Y323814D01*
X356667D01*
X366001Y307819D02*
X369999D01*
Y310485D01*
X366001Y314484D02*
Y311818D01*
X369999D01*
Y314484D01*
X368000Y311818D02*
Y313151D01*
X366001Y315817D02*
X369999D01*
Y317816D01*
X369333Y318482D01*
X366667D01*
X366001Y317816D01*
Y315817D01*
X369999Y322481D02*
Y319815D01*
X367334Y322481D01*
X366667D01*
X366001Y321815D01*
Y320482D01*
X366667Y319815D01*
X369333Y323814D02*
X369999Y324481D01*
Y325814D01*
X369333Y326480D01*
X366667D01*
X366001Y325814D01*
Y324481D01*
X366667Y323814D01*
X367334D01*
X368000Y324481D01*
Y326480D01*
X52001Y308670D02*
X55999D01*
Y311335D01*
X52001Y315334D02*
Y312668D01*
X55999D01*
Y315334D01*
X54000Y312668D02*
Y314001D01*
X52001Y316667D02*
X55999D01*
Y318666D01*
X55333Y319333D01*
X52667D01*
X52001Y318666D01*
Y316667D01*
X55999Y323332D02*
Y320666D01*
X53334Y323332D01*
X52667D01*
X52001Y322665D01*
Y321332D01*
X52667Y320666D01*
X55999Y327330D02*
Y324664D01*
X53334Y327330D01*
X52667D01*
X52001Y326664D01*
Y325331D01*
X52667Y324664D01*
X474999Y102002D02*
X471001D01*
Y104002D01*
X471667Y104668D01*
X473000D01*
X473666Y104002D01*
Y102002D01*
Y103335D02*
X474999Y104668D01*
Y106001D02*
Y107334D01*
Y106667D01*
X471001D01*
X471667Y106001D01*
X474999Y109333D02*
Y110666D01*
Y110000D01*
X471001D01*
X471667Y109333D01*
Y112665D02*
X471001Y113332D01*
Y114665D01*
X471667Y115331D01*
X472334D01*
X473000Y114665D01*
Y113998D01*
Y114665D01*
X473666Y115331D01*
X474333D01*
X474999Y114665D01*
Y113332D01*
X474333Y112665D01*
X480999Y102002D02*
X477001D01*
Y104002D01*
X477667Y104668D01*
X479000D01*
X479666Y104002D01*
Y102002D01*
Y103335D02*
X480999Y104668D01*
Y106001D02*
Y107334D01*
Y106667D01*
X477001D01*
X477667Y106001D01*
X480999Y109333D02*
Y110666D01*
Y110000D01*
X477001D01*
X477667Y109333D01*
X480999Y115331D02*
Y112665D01*
X478334Y115331D01*
X477667D01*
X477001Y114665D01*
Y113332D01*
X477667Y112665D01*
X486999Y102002D02*
X483001D01*
Y104002D01*
X483667Y104668D01*
X485000D01*
X485666Y104002D01*
Y102002D01*
Y103335D02*
X486999Y104668D01*
Y106001D02*
Y107334D01*
Y106667D01*
X483001D01*
X483667Y106001D01*
X486999Y109333D02*
Y110666D01*
Y110000D01*
X483001D01*
X483667Y109333D01*
X486999Y112665D02*
Y113998D01*
Y113332D01*
X483001D01*
X483667Y112665D01*
X492999Y102002D02*
X489001D01*
Y104002D01*
X489667Y104668D01*
X491000D01*
X491666Y104002D01*
Y102002D01*
Y103335D02*
X492999Y104668D01*
Y106001D02*
Y107334D01*
Y106667D01*
X489001D01*
X489667Y106001D01*
X492999Y109333D02*
Y110666D01*
Y110000D01*
X489001D01*
X489667Y109333D01*
Y112665D02*
X489001Y113332D01*
Y114665D01*
X489667Y115331D01*
X492333D01*
X492999Y114665D01*
Y113332D01*
X492333Y112665D01*
X489667D01*
X498999Y102002D02*
X495001D01*
Y104002D01*
X495667Y104668D01*
X497000D01*
X497666Y104002D01*
Y102002D01*
Y103335D02*
X498999Y104668D01*
Y106001D02*
Y107334D01*
Y106667D01*
X495001D01*
X495667Y106001D01*
Y109333D02*
X495001Y110000D01*
Y111333D01*
X495667Y111999D01*
X498333D01*
X498999Y111333D01*
Y110000D01*
X498333Y109333D01*
X495667D01*
X498333Y113332D02*
X498999Y113998D01*
Y115331D01*
X498333Y115998D01*
X495667D01*
X495001Y115331D01*
Y113998D01*
X495667Y113332D01*
X496334D01*
X497000Y113998D01*
Y115998D01*
X504999Y102002D02*
X501001D01*
Y104002D01*
X501667Y104668D01*
X503000D01*
X503666Y104002D01*
Y102002D01*
Y103335D02*
X504999Y104668D01*
Y106001D02*
Y107334D01*
Y106667D01*
X501001D01*
X501667Y106001D01*
Y109333D02*
X501001Y110000D01*
Y111333D01*
X501667Y111999D01*
X504333D01*
X504999Y111333D01*
Y110000D01*
X504333Y109333D01*
X501667D01*
Y113332D02*
X501001Y113998D01*
Y115331D01*
X501667Y115998D01*
X502334D01*
X503000Y115331D01*
X503666Y115998D01*
X504333D01*
X504999Y115331D01*
Y113998D01*
X504333Y113332D01*
X503666D01*
X503000Y113998D01*
X502334Y113332D01*
X501667D01*
X503000Y113998D02*
Y115331D01*
X510999Y102002D02*
X507001D01*
Y104002D01*
X507667Y104668D01*
X509000D01*
X509666Y104002D01*
Y102002D01*
Y103335D02*
X510999Y104668D01*
Y106001D02*
Y107334D01*
Y106667D01*
X507001D01*
X507667Y106001D01*
Y109333D02*
X507001Y110000D01*
Y111333D01*
X507667Y111999D01*
X510333D01*
X510999Y111333D01*
Y110000D01*
X510333Y109333D01*
X507667D01*
X507001Y113332D02*
Y115998D01*
X507667D01*
X510333Y113332D01*
X510999D01*
X517334Y361999D02*
X520000Y358001D01*
Y361999D02*
X517334Y358001D01*
X521333D02*
X522666D01*
X521999D01*
Y361999D01*
X521333Y361333D01*
X30668Y180999D02*
Y177667D01*
X31334Y177001D01*
X32667D01*
X33334Y177667D01*
Y180999D01*
X37332D02*
X35999Y180333D01*
X34666Y179000D01*
Y177667D01*
X35333Y177001D01*
X36666D01*
X37332Y177667D01*
Y178333D01*
X36666Y179000D01*
X34666D01*
X334016Y294848D02*
Y291516D01*
X334683Y290850D01*
X336016D01*
X336682Y291516D01*
Y294848D01*
X340681D02*
X338015D01*
Y292849D01*
X339348Y293515D01*
X340014D01*
X340681Y292849D01*
Y291516D01*
X340014Y290850D01*
X338681D01*
X338015Y291516D01*
X44016Y293848D02*
Y290516D01*
X44683Y289850D01*
X46016D01*
X46682Y290516D01*
Y293848D01*
X50014Y289850D02*
Y293848D01*
X48015Y291849D01*
X50681D01*
X224016Y293848D02*
Y290516D01*
X224683Y289850D01*
X226015D01*
X226682Y290516D01*
Y293848D01*
X228015Y293182D02*
X228681Y293848D01*
X230014D01*
X230681Y293182D01*
Y292515D01*
X230014Y291849D01*
X229348D01*
X230014D01*
X230681Y291183D01*
Y290516D01*
X230014Y289850D01*
X228681D01*
X228015Y290516D01*
X124016Y293848D02*
Y290516D01*
X124683Y289850D01*
X126015D01*
X126682Y290516D01*
Y293848D01*
X130681Y289850D02*
X128015D01*
X130681Y292515D01*
Y293182D01*
X130014Y293848D01*
X128681D01*
X128015Y293182D01*
X154783Y145548D02*
Y142216D01*
X155449Y141550D01*
X156782D01*
X157449Y142216D01*
Y145548D01*
X158782Y141550D02*
X160115D01*
X159448D01*
Y145548D01*
X158782Y144882D01*
X7668Y41999D02*
X10334D01*
X9001D01*
Y38001D01*
X11667D02*
Y41999D01*
X13667D01*
X14333Y41333D01*
Y40000D01*
X13667Y39334D01*
X11667D01*
X15666Y38667D02*
X16332Y38001D01*
X17665D01*
X18332Y38667D01*
Y41333D01*
X17665Y41999D01*
X16332D01*
X15666Y41333D01*
Y40666D01*
X16332Y40000D01*
X18332D01*
X21668Y41999D02*
X24334D01*
X23001D01*
Y38001D01*
X25667D02*
Y41999D01*
X27666D01*
X28333Y41333D01*
Y40000D01*
X27666Y39334D01*
X25667D01*
X29666Y41333D02*
X30332Y41999D01*
X31665D01*
X32332Y41333D01*
Y40666D01*
X31665Y40000D01*
X32332Y39334D01*
Y38667D01*
X31665Y38001D01*
X30332D01*
X29666Y38667D01*
Y39334D01*
X30332Y40000D01*
X29666Y40666D01*
Y41333D01*
X30332Y40000D02*
X31665D01*
X7668Y71999D02*
X10334D01*
X9001D01*
Y68001D01*
X11667D02*
Y71999D01*
X13667D01*
X14333Y71333D01*
Y70000D01*
X13667Y69334D01*
X11667D01*
X15666Y71999D02*
X18332D01*
Y71333D01*
X15666Y68667D01*
Y68001D01*
X21668Y71999D02*
X24334D01*
X23001D01*
Y68001D01*
X25667D02*
Y71999D01*
X27666D01*
X28333Y71333D01*
Y70000D01*
X27666Y69334D01*
X25667D01*
X32332Y71999D02*
X30999Y71333D01*
X29666Y70000D01*
Y68667D01*
X30332Y68001D01*
X31665D01*
X32332Y68667D01*
Y69334D01*
X31665Y70000D01*
X29666D01*
X541335Y202999D02*
X544001D01*
X542668D01*
Y199001D01*
X545334D02*
Y202999D01*
X547333D01*
X547999Y202333D01*
Y201000D01*
X547333Y200333D01*
X545334D01*
X549332Y199001D02*
X550665D01*
X549999D01*
Y202999D01*
X549332Y202333D01*
X51002Y195001D02*
Y198999D01*
X53002D01*
X53668Y198333D01*
Y197000D01*
X53002Y196334D01*
X51002D01*
X52335D02*
X53668Y195001D01*
X55001D02*
X56334D01*
X55667D01*
Y198999D01*
X55001Y198333D01*
X58333D02*
X59000Y198999D01*
X60333D01*
X60999Y198333D01*
Y195667D01*
X60333Y195001D01*
X59000D01*
X58333Y195667D01*
Y198333D01*
X64998Y198999D02*
X63665Y198333D01*
X62332Y197000D01*
Y195667D01*
X62998Y195001D01*
X64331D01*
X64998Y195667D01*
Y196334D01*
X64331Y197000D01*
X62332D01*
X28002Y189001D02*
Y192999D01*
X30002D01*
X30668Y192333D01*
Y191000D01*
X30002Y190333D01*
X28002D01*
X29335D02*
X30668Y189001D01*
X32001D02*
X33334D01*
X32667D01*
Y192999D01*
X32001Y192333D01*
X35333D02*
X36000Y192999D01*
X37333D01*
X37999Y192333D01*
Y189667D01*
X37333Y189001D01*
X36000D01*
X35333Y189667D01*
Y192333D01*
X41998Y192999D02*
X39332D01*
Y191000D01*
X40665Y191666D01*
X41331D01*
X41998Y191000D01*
Y189667D01*
X41331Y189001D01*
X39998D01*
X39332Y189667D01*
X48999Y204002D02*
X45001D01*
Y206002D01*
X45667Y206668D01*
X47000D01*
X47666Y206002D01*
Y204002D01*
Y205335D02*
X48999Y206668D01*
Y208001D02*
Y209334D01*
Y208667D01*
X45001D01*
X45667Y208001D01*
Y211333D02*
X45001Y212000D01*
Y213333D01*
X45667Y213999D01*
X48333D01*
X48999Y213333D01*
Y212000D01*
X48333Y211333D01*
X45667D01*
X48999Y217331D02*
X45001D01*
X47000Y215332D01*
Y217998D01*
X26999Y203002D02*
X23001D01*
Y205002D01*
X23667Y205668D01*
X25000D01*
X25666Y205002D01*
Y203002D01*
Y204335D02*
X26999Y205668D01*
Y207001D02*
Y208334D01*
Y207667D01*
X23001D01*
X23667Y207001D01*
Y210333D02*
X23001Y211000D01*
Y212333D01*
X23667Y212999D01*
X26333D01*
X26999Y212333D01*
Y211000D01*
X26333Y210333D01*
X23667D01*
Y214332D02*
X23001Y214998D01*
Y216331D01*
X23667Y216998D01*
X24333D01*
X25000Y216331D01*
Y215665D01*
Y216331D01*
X25666Y216998D01*
X26333D01*
X26999Y216331D01*
Y214998D01*
X26333Y214332D01*
X38002Y66001D02*
Y69999D01*
X40002D01*
X40668Y69333D01*
Y68000D01*
X40002Y67334D01*
X38002D01*
X39335D02*
X40668Y66001D01*
X42001D02*
X43334D01*
X42667D01*
Y69999D01*
X42001Y69333D01*
X45333D02*
X46000Y69999D01*
X47333D01*
X47999Y69333D01*
Y66667D01*
X47333Y66001D01*
X46000D01*
X45333Y66667D01*
Y69333D01*
X51998Y66001D02*
X49332D01*
X51998Y68666D01*
Y69333D01*
X51331Y69999D01*
X49998D01*
X49332Y69333D01*
X491999Y66668D02*
X488001D01*
Y68668D01*
X488667Y69334D01*
X490000D01*
X490666Y68668D01*
Y66668D01*
Y68001D02*
X491999Y69334D01*
X488001Y73333D02*
Y70667D01*
X490000D01*
X489333Y72000D01*
Y72667D01*
X490000Y73333D01*
X491333D01*
X491999Y72667D01*
Y71334D01*
X491333Y70667D01*
X488001Y74666D02*
Y77332D01*
X488667D01*
X491333Y74666D01*
X491999D01*
X481999Y66668D02*
X478001D01*
Y68668D01*
X478667Y69334D01*
X480000D01*
X480666Y68668D01*
Y66668D01*
Y68001D02*
X481999Y69334D01*
X478001Y73333D02*
Y70667D01*
X480000D01*
X479333Y72000D01*
Y72667D01*
X480000Y73333D01*
X481333D01*
X481999Y72667D01*
Y71334D01*
X481333Y70667D01*
X478001Y77332D02*
X478667Y75999D01*
X480000Y74666D01*
X481333D01*
X481999Y75332D01*
Y76665D01*
X481333Y77332D01*
X480666D01*
X480000Y76665D01*
Y74666D01*
X124000Y54001D02*
Y57999D01*
X125999D01*
X126666Y57333D01*
Y56000D01*
X125999Y55334D01*
X124000D01*
X125333D02*
X126666Y54001D01*
X130665Y57999D02*
X127999D01*
Y56000D01*
X129332Y56666D01*
X129998D01*
X130665Y56000D01*
Y54667D01*
X129998Y54001D01*
X128665D01*
X127999Y54667D01*
X134663Y57999D02*
X131997D01*
Y56000D01*
X133330Y56666D01*
X133997D01*
X134663Y56000D01*
Y54667D01*
X133997Y54001D01*
X132664D01*
X131997Y54667D01*
X248000Y54001D02*
Y57999D01*
X249999D01*
X250666Y57333D01*
Y56000D01*
X249999Y55334D01*
X248000D01*
X249333D02*
X250666Y54001D01*
X254664Y57999D02*
X251999D01*
Y56000D01*
X253332Y56666D01*
X253998D01*
X254664Y56000D01*
Y54667D01*
X253998Y54001D01*
X252665D01*
X251999Y54667D01*
X257997Y54001D02*
Y57999D01*
X255997Y56000D01*
X258663D01*
X124000Y60001D02*
Y63999D01*
X125999D01*
X126666Y63333D01*
Y62000D01*
X125999Y61334D01*
X124000D01*
X125333D02*
X126666Y60001D01*
X130665Y63999D02*
X127999D01*
Y62000D01*
X129332Y62666D01*
X129998D01*
X130665Y62000D01*
Y60667D01*
X129998Y60001D01*
X128665D01*
X127999Y60667D01*
X131997Y63333D02*
X132664Y63999D01*
X133997D01*
X134663Y63333D01*
Y62666D01*
X133997Y62000D01*
X133330D01*
X133997D01*
X134663Y61334D01*
Y60667D01*
X133997Y60001D01*
X132664D01*
X131997Y60667D01*
X248000Y60001D02*
Y63999D01*
X249999D01*
X250666Y63333D01*
Y62000D01*
X249999Y61334D01*
X248000D01*
X249333D02*
X250666Y60001D01*
X254664Y63999D02*
X251999D01*
Y62000D01*
X253332Y62666D01*
X253998D01*
X254664Y62000D01*
Y60667D01*
X253998Y60001D01*
X252665D01*
X251999Y60667D01*
X258663Y60001D02*
X255997D01*
X258663Y62666D01*
Y63333D01*
X257997Y63999D01*
X256664D01*
X255997Y63333D01*
X468999Y102002D02*
X465001D01*
Y104002D01*
X465667Y104668D01*
X467000D01*
X467666Y104002D01*
Y102002D01*
Y103335D02*
X468999Y104668D01*
X465001Y108667D02*
Y106001D01*
X467000D01*
X466334Y107334D01*
Y108000D01*
X467000Y108667D01*
X468333D01*
X468999Y108000D01*
Y106667D01*
X468333Y106001D01*
X468999Y110000D02*
Y111333D01*
Y110666D01*
X465001D01*
X465667Y110000D01*
X124000Y66001D02*
Y69999D01*
X125999D01*
X126666Y69333D01*
Y68000D01*
X125999Y67334D01*
X124000D01*
X125333D02*
X126666Y66001D01*
X130665Y69999D02*
X127999D01*
Y68000D01*
X129332Y68666D01*
X129998D01*
X130665Y68000D01*
Y66667D01*
X129998Y66001D01*
X128665D01*
X127999Y66667D01*
X131997Y69333D02*
X132664Y69999D01*
X133997D01*
X134663Y69333D01*
Y66667D01*
X133997Y66001D01*
X132664D01*
X131997Y66667D01*
Y69333D01*
X248000Y66001D02*
Y69999D01*
X249999D01*
X250666Y69333D01*
Y68000D01*
X249999Y67334D01*
X248000D01*
X249333D02*
X250666Y66001D01*
X253998D02*
Y69999D01*
X251999Y68000D01*
X254664D01*
X255997Y66667D02*
X256664Y66001D01*
X257997D01*
X258663Y66667D01*
Y69333D01*
X257997Y69999D01*
X256664D01*
X255997Y69333D01*
Y68666D01*
X256664Y68000D01*
X258663D01*
X462999Y102002D02*
X459001D01*
Y104002D01*
X459667Y104668D01*
X461000D01*
X461666Y104002D01*
Y102002D01*
Y103335D02*
X462999Y104668D01*
Y108000D02*
X459001D01*
X461000Y106001D01*
Y108667D01*
X459667Y110000D02*
X459001Y110666D01*
Y111999D01*
X459667Y112665D01*
X460333D01*
X461000Y111999D01*
X461666Y112665D01*
X462333D01*
X462999Y111999D01*
Y110666D01*
X462333Y110000D01*
X461666D01*
X461000Y110666D01*
X460333Y110000D01*
X459667D01*
X461000Y110666D02*
Y111999D01*
X124000Y72001D02*
Y75999D01*
X125999D01*
X126666Y75333D01*
Y74000D01*
X125999Y73334D01*
X124000D01*
X125333D02*
X126666Y72001D01*
X129998D02*
Y75999D01*
X127999Y74000D01*
X130665D01*
X131997Y75999D02*
X134663D01*
Y75333D01*
X131997Y72667D01*
Y72001D01*
X248000D02*
Y75999D01*
X249999D01*
X250666Y75333D01*
Y74000D01*
X249999Y73334D01*
X248000D01*
X249333D02*
X250666Y72001D01*
X253998D02*
Y75999D01*
X251999Y74000D01*
X254664D01*
X258663Y75999D02*
X257330Y75333D01*
X255997Y74000D01*
Y72667D01*
X256664Y72001D01*
X257997D01*
X258663Y72667D01*
Y73334D01*
X257997Y74000D01*
X255997D01*
X419668Y138001D02*
Y141999D01*
X421668D01*
X422334Y141333D01*
Y140000D01*
X421668Y139333D01*
X419668D01*
X421001D02*
X422334Y138001D01*
X425666D02*
Y141999D01*
X423667Y140000D01*
X426333D01*
X430332Y141999D02*
X427666D01*
Y140000D01*
X428999Y140666D01*
X429665D01*
X430332Y140000D01*
Y138667D01*
X429665Y138001D01*
X428332D01*
X427666Y138667D01*
X124000Y78001D02*
Y81999D01*
X125999D01*
X126666Y81333D01*
Y80000D01*
X125999Y79334D01*
X124000D01*
X125333D02*
X126666Y78001D01*
X129998D02*
Y81999D01*
X127999Y80000D01*
X130665D01*
X133997Y78001D02*
Y81999D01*
X131997Y80000D01*
X134663D01*
X248000Y78001D02*
Y81999D01*
X249999D01*
X250666Y81333D01*
Y80000D01*
X249999Y79334D01*
X248000D01*
X249333D02*
X250666Y78001D01*
X253998D02*
Y81999D01*
X251999Y80000D01*
X254664D01*
X255997Y81333D02*
X256664Y81999D01*
X257997D01*
X258663Y81333D01*
Y80666D01*
X257997Y80000D01*
X257330D01*
X257997D01*
X258663Y79334D01*
Y78667D01*
X257997Y78001D01*
X256664D01*
X255997Y78667D01*
X419668Y144001D02*
Y147999D01*
X421668D01*
X422334Y147333D01*
Y146000D01*
X421668Y145334D01*
X419668D01*
X421001D02*
X422334Y144001D01*
X425666D02*
Y147999D01*
X423667Y146000D01*
X426333D01*
X430332Y144001D02*
X427666D01*
X430332Y146667D01*
Y147333D01*
X429665Y147999D01*
X428332D01*
X427666Y147333D01*
X124000Y84001D02*
Y87999D01*
X125999D01*
X126666Y87333D01*
Y86000D01*
X125999Y85334D01*
X124000D01*
X125333D02*
X126666Y84001D01*
X129998D02*
Y87999D01*
X127999Y86000D01*
X130665D01*
X131997Y84001D02*
X133330D01*
X132664D01*
Y87999D01*
X131997Y87333D01*
X248000Y84001D02*
Y87999D01*
X249999D01*
X250666Y87333D01*
Y86000D01*
X249999Y85334D01*
X248000D01*
X249333D02*
X250666Y84001D01*
X253998D02*
Y87999D01*
X251999Y86000D01*
X254664D01*
X255997Y87333D02*
X256664Y87999D01*
X257997D01*
X258663Y87333D01*
Y84667D01*
X257997Y84001D01*
X256664D01*
X255997Y84667D01*
Y87333D01*
X124000Y90001D02*
Y93999D01*
X125999D01*
X126666Y93333D01*
Y92000D01*
X125999Y91334D01*
X124000D01*
X125333D02*
X126666Y90001D01*
X127999Y93333D02*
X128665Y93999D01*
X129998D01*
X130665Y93333D01*
Y92666D01*
X129998Y92000D01*
X129332D01*
X129998D01*
X130665Y91334D01*
Y90667D01*
X129998Y90001D01*
X128665D01*
X127999Y90667D01*
X131997D02*
X132664Y90001D01*
X133997D01*
X134663Y90667D01*
Y93333D01*
X133997Y93999D01*
X132664D01*
X131997Y93333D01*
Y92666D01*
X132664Y92000D01*
X134663D01*
X248000Y90001D02*
Y93999D01*
X249999D01*
X250666Y93333D01*
Y92000D01*
X249999Y91334D01*
X248000D01*
X249333D02*
X250666Y90001D01*
X251999Y93333D02*
X252665Y93999D01*
X253998D01*
X254664Y93333D01*
Y92666D01*
X253998Y92000D01*
X253332D01*
X253998D01*
X254664Y91334D01*
Y90667D01*
X253998Y90001D01*
X252665D01*
X251999Y90667D01*
X255997Y93333D02*
X256664Y93999D01*
X257997D01*
X258663Y93333D01*
Y92666D01*
X257997Y92000D01*
X258663Y91334D01*
Y90667D01*
X257997Y90001D01*
X256664D01*
X255997Y90667D01*
Y91334D01*
X256664Y92000D01*
X255997Y92666D01*
Y93333D01*
X256664Y92000D02*
X257997D01*
X124000Y96001D02*
Y99999D01*
X125999D01*
X126666Y99333D01*
Y98000D01*
X125999Y97334D01*
X124000D01*
X125333D02*
X126666Y96001D01*
X127999Y99333D02*
X128665Y99999D01*
X129998D01*
X130665Y99333D01*
Y98666D01*
X129998Y98000D01*
X129332D01*
X129998D01*
X130665Y97334D01*
Y96667D01*
X129998Y96001D01*
X128665D01*
X127999Y96667D01*
X131997Y99999D02*
X134663D01*
Y99333D01*
X131997Y96667D01*
Y96001D01*
X248000D02*
Y99999D01*
X249999D01*
X250666Y99333D01*
Y98000D01*
X249999Y97334D01*
X248000D01*
X249333D02*
X250666Y96001D01*
X251999Y99333D02*
X252665Y99999D01*
X253998D01*
X254664Y99333D01*
Y98666D01*
X253998Y98000D01*
X253332D01*
X253998D01*
X254664Y97334D01*
Y96667D01*
X253998Y96001D01*
X252665D01*
X251999Y96667D01*
X258663Y99999D02*
X257330Y99333D01*
X255997Y98000D01*
Y96667D01*
X256664Y96001D01*
X257997D01*
X258663Y96667D01*
Y97334D01*
X257997Y98000D01*
X255997D01*
X124000Y102001D02*
Y105999D01*
X125999D01*
X126666Y105333D01*
Y104000D01*
X125999Y103333D01*
X124000D01*
X125333D02*
X126666Y102001D01*
X127999Y105333D02*
X128665Y105999D01*
X129998D01*
X130665Y105333D01*
Y104666D01*
X129998Y104000D01*
X129332D01*
X129998D01*
X130665Y103333D01*
Y102667D01*
X129998Y102001D01*
X128665D01*
X127999Y102667D01*
X134663Y105999D02*
X131997D01*
Y104000D01*
X133330Y104666D01*
X133997D01*
X134663Y104000D01*
Y102667D01*
X133997Y102001D01*
X132664D01*
X131997Y102667D01*
X248000Y102001D02*
Y105999D01*
X249999D01*
X250666Y105333D01*
Y104000D01*
X249999Y103333D01*
X248000D01*
X249333D02*
X250666Y102001D01*
X251999Y105333D02*
X252665Y105999D01*
X253998D01*
X254664Y105333D01*
Y104666D01*
X253998Y104000D01*
X253332D01*
X253998D01*
X254664Y103333D01*
Y102667D01*
X253998Y102001D01*
X252665D01*
X251999Y102667D01*
X257997Y102001D02*
Y105999D01*
X255997Y104000D01*
X258663D01*
X519668Y146001D02*
Y149999D01*
X521668D01*
X522334Y149333D01*
Y148000D01*
X521668Y147334D01*
X519668D01*
X521001D02*
X522334Y146001D01*
X523667Y149333D02*
X524334Y149999D01*
X525666D01*
X526333Y149333D01*
Y148667D01*
X525666Y148000D01*
X525000D01*
X525666D01*
X526333Y147334D01*
Y146667D01*
X525666Y146001D01*
X524334D01*
X523667Y146667D01*
X527666Y149333D02*
X528332Y149999D01*
X529665D01*
X530332Y149333D01*
Y148667D01*
X529665Y148000D01*
X528999D01*
X529665D01*
X530332Y147334D01*
Y146667D01*
X529665Y146001D01*
X528332D01*
X527666Y146667D01*
X419668Y150001D02*
Y153999D01*
X421668D01*
X422334Y153333D01*
Y152000D01*
X421668Y151333D01*
X419668D01*
X421001D02*
X422334Y150001D01*
X423667Y153333D02*
X424334Y153999D01*
X425666D01*
X426333Y153333D01*
Y152666D01*
X425666Y152000D01*
X425000D01*
X425666D01*
X426333Y151333D01*
Y150667D01*
X425666Y150001D01*
X424334D01*
X423667Y150667D01*
X430332Y150001D02*
X427666D01*
X430332Y152666D01*
Y153333D01*
X429665Y153999D01*
X428332D01*
X427666Y153333D01*
X124000Y108001D02*
Y111999D01*
X125999D01*
X126666Y111333D01*
Y110000D01*
X125999Y109334D01*
X124000D01*
X125333D02*
X126666Y108001D01*
X127999Y111333D02*
X128665Y111999D01*
X129998D01*
X130665Y111333D01*
Y110667D01*
X129998Y110000D01*
X129332D01*
X129998D01*
X130665Y109334D01*
Y108667D01*
X129998Y108001D01*
X128665D01*
X127999Y108667D01*
X131997Y108001D02*
X133330D01*
X132664D01*
Y111999D01*
X131997Y111333D01*
X248000Y108001D02*
Y111999D01*
X249999D01*
X250666Y111333D01*
Y110000D01*
X249999Y109334D01*
X248000D01*
X249333D02*
X250666Y108001D01*
X251999Y111333D02*
X252665Y111999D01*
X253998D01*
X254664Y111333D01*
Y110667D01*
X253998Y110000D01*
X253332D01*
X253998D01*
X254664Y109334D01*
Y108667D01*
X253998Y108001D01*
X252665D01*
X251999Y108667D01*
X255997Y111333D02*
X256664Y111999D01*
X257997D01*
X258663Y111333D01*
Y108667D01*
X257997Y108001D01*
X256664D01*
X255997Y108667D01*
Y111333D01*
X519668Y152001D02*
Y155999D01*
X521668D01*
X522334Y155333D01*
Y154000D01*
X521668Y153333D01*
X519668D01*
X521001D02*
X522334Y152001D01*
X526333D02*
X523667D01*
X526333Y154666D01*
Y155333D01*
X525666Y155999D01*
X524334D01*
X523667Y155333D01*
X527666Y152667D02*
X528332Y152001D01*
X529665D01*
X530332Y152667D01*
Y155333D01*
X529665Y155999D01*
X528332D01*
X527666Y155333D01*
Y154666D01*
X528332Y154000D01*
X530332D01*
X419668Y156001D02*
Y159999D01*
X421668D01*
X422334Y159333D01*
Y158000D01*
X421668Y157334D01*
X419668D01*
X421001D02*
X422334Y156001D01*
X426333D02*
X423667D01*
X426333Y158667D01*
Y159333D01*
X425666Y159999D01*
X424334D01*
X423667Y159333D01*
X427666D02*
X428332Y159999D01*
X429665D01*
X430332Y159333D01*
Y158667D01*
X429665Y158000D01*
X430332Y157334D01*
Y156667D01*
X429665Y156001D01*
X428332D01*
X427666Y156667D01*
Y157334D01*
X428332Y158000D01*
X427666Y158667D01*
Y159333D01*
X428332Y158000D02*
X429665D01*
X124000Y114001D02*
Y117999D01*
X125999D01*
X126666Y117333D01*
Y116000D01*
X125999Y115333D01*
X124000D01*
X125333D02*
X126666Y114001D01*
X130665D02*
X127999D01*
X130665Y116666D01*
Y117333D01*
X129998Y117999D01*
X128665D01*
X127999Y117333D01*
X131997Y117999D02*
X134663D01*
Y117333D01*
X131997Y114667D01*
Y114001D01*
X248000D02*
Y117999D01*
X249999D01*
X250666Y117333D01*
Y116000D01*
X249999Y115333D01*
X248000D01*
X249333D02*
X250666Y114001D01*
X254664D02*
X251999D01*
X254664Y116666D01*
Y117333D01*
X253998Y117999D01*
X252665D01*
X251999Y117333D01*
X258663Y117999D02*
X257330Y117333D01*
X255997Y116000D01*
Y114667D01*
X256664Y114001D01*
X257997D01*
X258663Y114667D01*
Y115333D01*
X257997Y116000D01*
X255997D01*
X519668Y158001D02*
Y161999D01*
X521668D01*
X522334Y161333D01*
Y160000D01*
X521668Y159334D01*
X519668D01*
X521001D02*
X522334Y158001D01*
X526333D02*
X523667D01*
X526333Y160667D01*
Y161333D01*
X525666Y161999D01*
X524334D01*
X523667Y161333D01*
X530332Y161999D02*
X527666D01*
Y160000D01*
X528999Y160667D01*
X529665D01*
X530332Y160000D01*
Y158667D01*
X529665Y158001D01*
X528332D01*
X527666Y158667D01*
X419668Y162001D02*
Y165999D01*
X421668D01*
X422334Y165333D01*
Y164000D01*
X421668Y163333D01*
X419668D01*
X421001D02*
X422334Y162001D01*
X426333D02*
X423667D01*
X426333Y164666D01*
Y165333D01*
X425666Y165999D01*
X424334D01*
X423667Y165333D01*
X429665Y162001D02*
Y165999D01*
X427666Y164000D01*
X430332D01*
X124000Y120001D02*
Y123999D01*
X125999D01*
X126666Y123333D01*
Y122000D01*
X125999Y121334D01*
X124000D01*
X125333D02*
X126666Y120001D01*
X130665D02*
X127999D01*
X130665Y122667D01*
Y123333D01*
X129998Y123999D01*
X128665D01*
X127999Y123333D01*
X131997D02*
X132664Y123999D01*
X133997D01*
X134663Y123333D01*
Y122667D01*
X133997Y122000D01*
X133330D01*
X133997D01*
X134663Y121334D01*
Y120667D01*
X133997Y120001D01*
X132664D01*
X131997Y120667D01*
X248000Y120001D02*
Y123999D01*
X249999D01*
X250666Y123333D01*
Y122000D01*
X249999Y121334D01*
X248000D01*
X249333D02*
X250666Y120001D01*
X254664D02*
X251999D01*
X254664Y122667D01*
Y123333D01*
X253998Y123999D01*
X252665D01*
X251999Y123333D01*
X258663Y120001D02*
X255997D01*
X258663Y122667D01*
Y123333D01*
X257997Y123999D01*
X256664D01*
X255997Y123333D01*
X519668Y164001D02*
Y167999D01*
X521668D01*
X522334Y167333D01*
Y166000D01*
X521668Y165333D01*
X519668D01*
X521001D02*
X522334Y164001D01*
X526333D02*
X523667D01*
X526333Y166666D01*
Y167333D01*
X525666Y167999D01*
X524334D01*
X523667Y167333D01*
X527666Y164001D02*
X528999D01*
X528332D01*
Y167999D01*
X527666Y167333D01*
X419668Y168001D02*
Y171999D01*
X421668D01*
X422334Y171333D01*
Y170000D01*
X421668Y169334D01*
X419668D01*
X421001D02*
X422334Y168001D01*
X426333D02*
X423667D01*
X426333Y170667D01*
Y171333D01*
X425666Y171999D01*
X424334D01*
X423667Y171333D01*
X427666D02*
X428332Y171999D01*
X429665D01*
X430332Y171333D01*
Y168667D01*
X429665Y168001D01*
X428332D01*
X427666Y168667D01*
Y171333D01*
X124000Y126001D02*
Y129999D01*
X125999D01*
X126666Y129333D01*
Y128000D01*
X125999Y127333D01*
X124000D01*
X125333D02*
X126666Y126001D01*
X127999D02*
X129332D01*
X128665D01*
Y129999D01*
X127999Y129333D01*
X131331Y126667D02*
X131997Y126001D01*
X133330D01*
X133997Y126667D01*
Y129333D01*
X133330Y129999D01*
X131997D01*
X131331Y129333D01*
Y128666D01*
X131997Y128000D01*
X133997D01*
X248000Y126001D02*
Y129999D01*
X249999D01*
X250666Y129333D01*
Y128000D01*
X249999Y127333D01*
X248000D01*
X249333D02*
X250666Y126001D01*
X251999D02*
X253332D01*
X252665D01*
Y129999D01*
X251999Y129333D01*
X255331D02*
X255997Y129999D01*
X257330D01*
X257997Y129333D01*
Y128666D01*
X257330Y128000D01*
X257997Y127333D01*
Y126667D01*
X257330Y126001D01*
X255997D01*
X255331Y126667D01*
Y127333D01*
X255997Y128000D01*
X255331Y128666D01*
Y129333D01*
X255997Y128000D02*
X257330D01*
X519668Y170001D02*
Y173999D01*
X521668D01*
X522334Y173333D01*
Y172000D01*
X521668Y171334D01*
X519668D01*
X521001D02*
X522334Y170001D01*
X523667D02*
X525000D01*
X524334D01*
Y173999D01*
X523667Y173333D01*
X526999Y173999D02*
X529665D01*
Y173333D01*
X526999Y170667D01*
Y170001D01*
X459999Y200002D02*
X456001D01*
Y202001D01*
X456667Y202667D01*
X458000D01*
X458666Y202001D01*
Y200002D01*
Y201335D02*
X459999Y202667D01*
Y204000D02*
Y205333D01*
Y204667D01*
X456001D01*
X456667Y204000D01*
X456001Y209998D02*
X456667Y208665D01*
X458000Y207333D01*
X459333D01*
X459999Y207999D01*
Y209332D01*
X459333Y209998D01*
X458666D01*
X458000Y209332D01*
Y207333D01*
X124000Y132001D02*
Y135999D01*
X125999D01*
X126666Y135333D01*
Y134000D01*
X125999Y133334D01*
X124000D01*
X125333D02*
X126666Y132001D01*
X127999D02*
X129332D01*
X128665D01*
Y135999D01*
X127999Y135333D01*
X133997Y135999D02*
X131331D01*
Y134000D01*
X132664Y134667D01*
X133330D01*
X133997Y134000D01*
Y132667D01*
X133330Y132001D01*
X131997D01*
X131331Y132667D01*
X248000Y132001D02*
Y135999D01*
X249999D01*
X250666Y135333D01*
Y134000D01*
X249999Y133334D01*
X248000D01*
X249333D02*
X250666Y132001D01*
X251999D02*
X253332D01*
X252665D01*
Y135999D01*
X251999Y135333D01*
X257330Y132001D02*
Y135999D01*
X255331Y134000D01*
X257997D01*
X500999Y200151D02*
X497001D01*
Y202151D01*
X497667Y202817D01*
X499000D01*
X499666Y202151D01*
Y200151D01*
Y201484D02*
X500999Y202817D01*
Y204150D02*
Y205483D01*
Y204816D01*
X497001D01*
X497667Y204150D01*
Y207482D02*
X497001Y208149D01*
Y209482D01*
X497667Y210148D01*
X498334D01*
X499000Y209482D01*
Y208815D01*
Y209482D01*
X499666Y210148D01*
X500333D01*
X500999Y209482D01*
Y208149D01*
X500333Y207482D01*
X465999Y200002D02*
X462001D01*
Y202001D01*
X462667Y202667D01*
X464000D01*
X464666Y202001D01*
Y200002D01*
Y201335D02*
X465999Y202667D01*
Y204000D02*
Y205333D01*
Y204667D01*
X462001D01*
X462667Y204000D01*
X465999Y209998D02*
Y207333D01*
X463334Y209998D01*
X462667D01*
X462001Y209332D01*
Y207999D01*
X462667Y207333D01*
X124000Y138001D02*
Y141999D01*
X125999D01*
X126666Y141333D01*
Y140000D01*
X125999Y139333D01*
X124000D01*
X125333D02*
X126666Y138001D01*
X127999D02*
X129332D01*
X128665D01*
Y141999D01*
X127999Y141333D01*
X131331Y138001D02*
X132664D01*
X131997D01*
Y141999D01*
X131331Y141333D01*
X248000Y138001D02*
Y141999D01*
X249999D01*
X250666Y141333D01*
Y140000D01*
X249999Y139333D01*
X248000D01*
X249333D02*
X250666Y138001D01*
X251999D02*
X253332D01*
X252665D01*
Y141999D01*
X251999Y141333D01*
X255331D02*
X255997Y141999D01*
X257330D01*
X257997Y141333D01*
Y138667D01*
X257330Y138001D01*
X255997D01*
X255331Y138667D01*
Y141333D01*
X494999Y199817D02*
X491001D01*
Y201817D01*
X491667Y202483D01*
X493000D01*
X493666Y201817D01*
Y199817D01*
Y201150D02*
X494999Y202483D01*
X494333Y203816D02*
X494999Y204483D01*
Y205815D01*
X494333Y206482D01*
X491667D01*
X491001Y205815D01*
Y204483D01*
X491667Y203816D01*
X492334D01*
X493000Y204483D01*
Y206482D01*
X471999Y199668D02*
X468001D01*
Y201667D01*
X468667Y202333D01*
X470000D01*
X470666Y201667D01*
Y199668D01*
Y201001D02*
X471999Y202333D01*
X468667Y203666D02*
X468001Y204333D01*
Y205666D01*
X468667Y206332D01*
X469334D01*
X470000Y205666D01*
X470666Y206332D01*
X471333D01*
X471999Y205666D01*
Y204333D01*
X471333Y203666D01*
X470666D01*
X470000Y204333D01*
X469334Y203666D01*
X468667D01*
X470000Y204333D02*
Y205666D01*
X124000Y144001D02*
Y147999D01*
X125999D01*
X126666Y147333D01*
Y146000D01*
X125999Y145334D01*
X124000D01*
X125333D02*
X126666Y144001D01*
X127999Y147999D02*
X130665D01*
Y147333D01*
X127999Y144667D01*
Y144001D01*
X248000D02*
Y147999D01*
X249999D01*
X250666Y147333D01*
Y146000D01*
X249999Y145334D01*
X248000D01*
X249333D02*
X250666Y144001D01*
X254664Y147999D02*
X253332Y147333D01*
X251999Y146000D01*
Y144667D01*
X252665Y144001D01*
X253998D01*
X254664Y144667D01*
Y145334D01*
X253998Y146000D01*
X251999D01*
X512668Y234001D02*
Y237999D01*
X514667D01*
X515334Y237333D01*
Y236000D01*
X514667Y235334D01*
X512668D01*
X514001D02*
X515334Y234001D01*
X519332Y237999D02*
X516667D01*
Y236000D01*
X517999Y236666D01*
X518666D01*
X519332Y236000D01*
Y234667D01*
X518666Y234001D01*
X517333D01*
X516667Y234667D01*
X477999Y199668D02*
X474001D01*
Y201667D01*
X474667Y202333D01*
X476000D01*
X476666Y201667D01*
Y199668D01*
Y201001D02*
X477999Y202333D01*
Y205666D02*
X474001D01*
X476000Y203666D01*
Y206332D01*
X549999Y168168D02*
X546001D01*
Y170167D01*
X546667Y170834D01*
X548000D01*
X548666Y170167D01*
Y168168D01*
Y169501D02*
X549999Y170834D01*
X546667Y172167D02*
X546001Y172833D01*
Y174166D01*
X546667Y174832D01*
X547334D01*
X548000Y174166D01*
Y173499D01*
Y174166D01*
X548666Y174832D01*
X549333D01*
X549999Y174166D01*
Y172833D01*
X549333Y172167D01*
X543999Y168168D02*
X540001D01*
Y170167D01*
X540667Y170834D01*
X542000D01*
X542666Y170167D01*
Y168168D01*
Y169501D02*
X543999Y170834D01*
Y174832D02*
Y172167D01*
X541334Y174832D01*
X540667D01*
X540001Y174166D01*
Y172833D01*
X540667Y172167D01*
X537999Y167834D02*
X534001D01*
Y169834D01*
X534667Y170500D01*
X536000D01*
X536666Y169834D01*
Y167834D01*
Y169167D02*
X537999Y170500D01*
Y171833D02*
Y173166D01*
Y172499D01*
X534001D01*
X534667Y171833D01*
X47001Y221670D02*
X50999D01*
Y224336D01*
X47001Y228334D02*
Y225668D01*
X50999D01*
Y228334D01*
X49000Y225668D02*
Y227001D01*
X47001Y229667D02*
X50999D01*
Y231666D01*
X50333Y232333D01*
X47667D01*
X47001Y231666D01*
Y229667D01*
X47667Y233666D02*
X47001Y234332D01*
Y235665D01*
X47667Y236332D01*
X48334D01*
X49000Y235665D01*
Y234999D01*
Y235665D01*
X49666Y236332D01*
X50333D01*
X50999Y235665D01*
Y234332D01*
X50333Y233666D01*
X47667Y237665D02*
X47001Y238331D01*
Y239664D01*
X47667Y240330D01*
X48334D01*
X49000Y239664D01*
X49666Y240330D01*
X50333D01*
X50999Y239664D01*
Y238331D01*
X50333Y237665D01*
X49666D01*
X49000Y238331D01*
X48334Y237665D01*
X47667D01*
X49000Y238331D02*
Y239664D01*
X21001Y220670D02*
X24999D01*
Y223336D01*
X21001Y227334D02*
Y224668D01*
X24999D01*
Y227334D01*
X23000Y224668D02*
Y226001D01*
X21001Y228667D02*
X24999D01*
Y230666D01*
X24333Y231333D01*
X21667D01*
X21001Y230666D01*
Y228667D01*
X21667Y232666D02*
X21001Y233332D01*
Y234665D01*
X21667Y235332D01*
X22333D01*
X23000Y234665D01*
Y233999D01*
Y234665D01*
X23666Y235332D01*
X24333D01*
X24999Y234665D01*
Y233332D01*
X24333Y232666D01*
X21001Y236665D02*
Y239330D01*
X21667D01*
X24333Y236665D01*
X24999D01*
X328001Y307819D02*
X331999D01*
Y310485D01*
X328001Y314484D02*
Y311818D01*
X331999D01*
Y314484D01*
X330000Y311818D02*
Y313151D01*
X328001Y315817D02*
X331999D01*
Y317816D01*
X331333Y318482D01*
X328667D01*
X328001Y317816D01*
Y315817D01*
X331999Y322481D02*
Y319815D01*
X329334Y322481D01*
X328667D01*
X328001Y321815D01*
Y320482D01*
X328667Y319815D01*
Y323814D02*
X328001Y324481D01*
Y325814D01*
X328667Y326480D01*
X329334D01*
X330000Y325814D01*
X330666Y326480D01*
X331333D01*
X331999Y325814D01*
Y324481D01*
X331333Y323814D01*
X330666D01*
X330000Y324481D01*
X329334Y323814D01*
X328667D01*
X330000Y324481D02*
Y325814D01*
X318001Y307819D02*
X321999D01*
Y310485D01*
X318001Y314484D02*
Y311818D01*
X321999D01*
Y314484D01*
X320000Y311818D02*
Y313151D01*
X318001Y315817D02*
X321999D01*
Y317816D01*
X321333Y318482D01*
X318667D01*
X318001Y317816D01*
Y315817D01*
X321999Y322481D02*
Y319815D01*
X319334Y322481D01*
X318667D01*
X318001Y321815D01*
Y320482D01*
X318667Y319815D01*
X318001Y323814D02*
Y326480D01*
X318667D01*
X321333Y323814D01*
X321999D01*
X308001Y307819D02*
X311999D01*
Y310485D01*
X308001Y314484D02*
Y311818D01*
X311999D01*
Y314484D01*
X310000Y311818D02*
Y313151D01*
X308001Y315817D02*
X311999D01*
Y317816D01*
X311333Y318482D01*
X308667D01*
X308001Y317816D01*
Y315817D01*
X311999Y322481D02*
Y319815D01*
X309333Y322481D01*
X308667D01*
X308001Y321815D01*
Y320482D01*
X308667Y319815D01*
X308001Y326480D02*
X308667Y325147D01*
X310000Y323814D01*
X311333D01*
X311999Y324481D01*
Y325814D01*
X311333Y326480D01*
X310666D01*
X310000Y325814D01*
Y323814D01*
X297001Y307819D02*
X300999D01*
Y310485D01*
X297001Y314484D02*
Y311818D01*
X300999D01*
Y314484D01*
X299000Y311818D02*
Y313151D01*
X297001Y315817D02*
X300999D01*
Y317816D01*
X300333Y318482D01*
X297667D01*
X297001Y317816D01*
Y315817D01*
X300999Y322481D02*
Y319815D01*
X298334Y322481D01*
X297667D01*
X297001Y321815D01*
Y320482D01*
X297667Y319815D01*
X297001Y326480D02*
Y323814D01*
X299000D01*
X298334Y325147D01*
Y325814D01*
X299000Y326480D01*
X300333D01*
X300999Y325814D01*
Y324481D01*
X300333Y323814D01*
X287001Y307819D02*
X290999D01*
Y310485D01*
X287001Y314484D02*
Y311818D01*
X290999D01*
Y314484D01*
X289000Y311818D02*
Y313151D01*
X287001Y315817D02*
X290999D01*
Y317816D01*
X290333Y318482D01*
X287667D01*
X287001Y317816D01*
Y315817D01*
X290999Y322481D02*
Y319815D01*
X288334Y322481D01*
X287667D01*
X287001Y321815D01*
Y320482D01*
X287667Y319815D01*
X290999Y325814D02*
X287001D01*
X289000Y323814D01*
Y326480D01*
X42001Y308670D02*
X45999D01*
Y311335D01*
X42001Y315334D02*
Y312668D01*
X45999D01*
Y315334D01*
X44000Y312668D02*
Y314001D01*
X42001Y316667D02*
X45999D01*
Y318666D01*
X45333Y319333D01*
X42667D01*
X42001Y318666D01*
Y316667D01*
X45999Y323332D02*
Y320666D01*
X43334Y323332D01*
X42667D01*
X42001Y322665D01*
Y321332D01*
X42667Y320666D01*
Y324664D02*
X42001Y325331D01*
Y326664D01*
X42667Y327330D01*
X43334D01*
X44000Y326664D01*
Y325997D01*
Y326664D01*
X44666Y327330D01*
X45333D01*
X45999Y326664D01*
Y325331D01*
X45333Y324664D01*
X63001Y308670D02*
X66999D01*
Y311335D01*
X63001Y315334D02*
Y312668D01*
X66999D01*
Y315334D01*
X65000Y312668D02*
Y314001D01*
X63001Y316667D02*
X66999D01*
Y318666D01*
X66333Y319333D01*
X63667D01*
X63001Y318666D01*
Y316667D01*
X66999Y323332D02*
Y320666D01*
X64334Y323332D01*
X63667D01*
X63001Y322665D01*
Y321332D01*
X63667Y320666D01*
X66999Y324664D02*
Y325997D01*
Y325331D01*
X63001D01*
X63667Y324664D01*
X72001Y308670D02*
X75999D01*
Y311335D01*
X72001Y315334D02*
Y312668D01*
X75999D01*
Y315334D01*
X74000Y312668D02*
Y314001D01*
X72001Y316667D02*
X75999D01*
Y318666D01*
X75333Y319333D01*
X72667D01*
X72001Y318666D01*
Y316667D01*
X75999Y323332D02*
Y320666D01*
X73334Y323332D01*
X72667D01*
X72001Y322665D01*
Y321332D01*
X72667Y320666D01*
Y324664D02*
X72001Y325331D01*
Y326664D01*
X72667Y327330D01*
X75333D01*
X75999Y326664D01*
Y325331D01*
X75333Y324664D01*
X72667D01*
X82001Y308670D02*
X85999D01*
Y311335D01*
X82001Y315334D02*
Y312668D01*
X85999D01*
Y315334D01*
X84000Y312668D02*
Y314001D01*
X82001Y316667D02*
X85999D01*
Y318666D01*
X85333Y319333D01*
X82667D01*
X82001Y318666D01*
Y316667D01*
X85999Y320666D02*
Y321999D01*
Y321332D01*
X82001D01*
X82667Y320666D01*
X85333Y323998D02*
X85999Y324664D01*
Y325997D01*
X85333Y326664D01*
X82667D01*
X82001Y325997D01*
Y324664D01*
X82667Y323998D01*
X83334D01*
X84000Y324664D01*
Y326664D01*
X93001Y308670D02*
X96999D01*
Y311335D01*
X93001Y315334D02*
Y312668D01*
X96999D01*
Y315334D01*
X95000Y312668D02*
Y314001D01*
X93001Y316667D02*
X96999D01*
Y318666D01*
X96333Y319333D01*
X93667D01*
X93001Y318666D01*
Y316667D01*
X96999Y320666D02*
Y321999D01*
Y321332D01*
X93001D01*
X93667Y320666D01*
Y323998D02*
X93001Y324664D01*
Y325997D01*
X93667Y326664D01*
X94334D01*
X95000Y325997D01*
X95666Y326664D01*
X96333D01*
X96999Y325997D01*
Y324664D01*
X96333Y323998D01*
X95666D01*
X95000Y324664D01*
X94334Y323998D01*
X93667D01*
X95000Y324664D02*
Y325997D01*
X103001Y308670D02*
X106999D01*
Y311335D01*
X103001Y315334D02*
Y312668D01*
X106999D01*
Y315334D01*
X105000Y312668D02*
Y314001D01*
X103001Y316667D02*
X106999D01*
Y318666D01*
X106333Y319333D01*
X103667D01*
X103001Y318666D01*
Y316667D01*
X106999Y320666D02*
Y321999D01*
Y321332D01*
X103001D01*
X103667Y320666D01*
X103001Y323998D02*
Y326664D01*
X103667D01*
X106333Y323998D01*
X106999D01*
X201001Y309003D02*
X204999D01*
Y311669D01*
X201001Y315667D02*
Y313002D01*
X204999D01*
Y315667D01*
X203000Y313002D02*
Y314335D01*
X201001Y317000D02*
X204999D01*
Y319000D01*
X204333Y319666D01*
X201667D01*
X201001Y319000D01*
Y317000D01*
X204999Y320999D02*
Y322332D01*
Y321666D01*
X201001D01*
X201667Y320999D01*
X201001Y326997D02*
X201667Y325664D01*
X203000Y324331D01*
X204333D01*
X204999Y324998D01*
Y326331D01*
X204333Y326997D01*
X203666D01*
X203000Y326331D01*
Y324331D01*
X211001Y309003D02*
X214999D01*
Y311669D01*
X211001Y315667D02*
Y313002D01*
X214999D01*
Y315667D01*
X213000Y313002D02*
Y314335D01*
X211001Y317000D02*
X214999D01*
Y319000D01*
X214333Y319666D01*
X211667D01*
X211001Y319000D01*
Y317000D01*
X214999Y320999D02*
Y322332D01*
Y321666D01*
X211001D01*
X211667Y320999D01*
X211001Y326997D02*
Y324331D01*
X213000D01*
X212334Y325664D01*
Y326331D01*
X213000Y326997D01*
X214333D01*
X214999Y326331D01*
Y324998D01*
X214333Y324331D01*
X221001Y309003D02*
X224999D01*
Y311669D01*
X221001Y315667D02*
Y313002D01*
X224999D01*
Y315667D01*
X223000Y313002D02*
Y314335D01*
X221001Y317000D02*
X224999D01*
Y319000D01*
X224333Y319666D01*
X221667D01*
X221001Y319000D01*
Y317000D01*
X224999Y320999D02*
Y322332D01*
Y321666D01*
X221001D01*
X221667Y320999D01*
X224999Y326331D02*
X221001D01*
X223000Y324331D01*
Y326997D01*
X230001Y309003D02*
X233999D01*
Y311669D01*
X230001Y315667D02*
Y313002D01*
X233999D01*
Y315667D01*
X232000Y313002D02*
Y314335D01*
X230001Y317000D02*
X233999D01*
Y319000D01*
X233333Y319666D01*
X230667D01*
X230001Y319000D01*
Y317000D01*
X233999Y320999D02*
Y322332D01*
Y321666D01*
X230001D01*
X230667Y320999D01*
Y324331D02*
X230001Y324998D01*
Y326331D01*
X230667Y326997D01*
X231334D01*
X232000Y326331D01*
Y325664D01*
Y326331D01*
X232666Y326997D01*
X233333D01*
X233999Y326331D01*
Y324998D01*
X233333Y324331D01*
X241001Y309003D02*
X244999D01*
Y311669D01*
X241001Y315667D02*
Y313002D01*
X244999D01*
Y315667D01*
X243000Y313002D02*
Y314335D01*
X241001Y317000D02*
X244999D01*
Y319000D01*
X244333Y319666D01*
X241667D01*
X241001Y319000D01*
Y317000D01*
X244999Y320999D02*
Y322332D01*
Y321666D01*
X241001D01*
X241667Y320999D01*
X244999Y326997D02*
Y324331D01*
X242334Y326997D01*
X241667D01*
X241001Y326331D01*
Y324998D01*
X241667Y324331D01*
X251001Y309003D02*
X254999D01*
Y311669D01*
X251001Y315667D02*
Y313002D01*
X254999D01*
Y315667D01*
X253000Y313002D02*
Y314335D01*
X251001Y317000D02*
X254999D01*
Y319000D01*
X254333Y319666D01*
X251667D01*
X251001Y319000D01*
Y317000D01*
X254999Y320999D02*
Y322332D01*
Y321666D01*
X251001D01*
X251667Y320999D01*
X254999Y324331D02*
Y325664D01*
Y324998D01*
X251001D01*
X251667Y324331D01*
X260001Y309003D02*
X263999D01*
Y311669D01*
X260001Y315667D02*
Y313002D01*
X263999D01*
Y315667D01*
X262000Y313002D02*
Y314335D01*
X260001Y317000D02*
X263999D01*
Y319000D01*
X263333Y319666D01*
X260667D01*
X260001Y319000D01*
Y317000D01*
X263999Y320999D02*
Y322332D01*
Y321666D01*
X260001D01*
X260667Y320999D01*
Y324331D02*
X260001Y324998D01*
Y326331D01*
X260667Y326997D01*
X263333D01*
X263999Y326331D01*
Y324998D01*
X263333Y324331D01*
X260667D01*
X271001Y309003D02*
X274999D01*
Y311669D01*
X271001Y315667D02*
Y313002D01*
X274999D01*
Y315667D01*
X273000Y313002D02*
Y314335D01*
X271001Y317000D02*
X274999D01*
Y319000D01*
X274333Y319666D01*
X271667D01*
X271001Y319000D01*
Y317000D01*
X274333Y320999D02*
X274999Y321666D01*
Y322998D01*
X274333Y323665D01*
X271667D01*
X271001Y322998D01*
Y321666D01*
X271667Y320999D01*
X272334D01*
X273000Y321666D01*
Y323665D01*
X113001Y308670D02*
X116999D01*
Y311335D01*
X113001Y315334D02*
Y312668D01*
X116999D01*
Y315334D01*
X115000Y312668D02*
Y314001D01*
X113001Y316667D02*
X116999D01*
Y318666D01*
X116333Y319333D01*
X113667D01*
X113001Y318666D01*
Y316667D01*
X113667Y320666D02*
X113001Y321332D01*
Y322665D01*
X113667Y323332D01*
X114333D01*
X115000Y322665D01*
X115666Y323332D01*
X116333D01*
X116999Y322665D01*
Y321332D01*
X116333Y320666D01*
X115666D01*
X115000Y321332D01*
X114333Y320666D01*
X113667D01*
X115000Y321332D02*
Y322665D01*
X123001Y308670D02*
X126999D01*
Y311335D01*
X123001Y315334D02*
Y312668D01*
X126999D01*
Y315334D01*
X125000Y312668D02*
Y314001D01*
X123001Y316667D02*
X126999D01*
Y318666D01*
X126333Y319333D01*
X123667D01*
X123001Y318666D01*
Y316667D01*
Y320666D02*
Y323332D01*
X123667D01*
X126333Y320666D01*
X126999D01*
X133001Y308670D02*
X136999D01*
Y311335D01*
X133001Y315334D02*
Y312668D01*
X136999D01*
Y315334D01*
X135000Y312668D02*
Y314001D01*
X133001Y316667D02*
X136999D01*
Y318666D01*
X136333Y319333D01*
X133667D01*
X133001Y318666D01*
Y316667D01*
Y323332D02*
X133667Y321999D01*
X135000Y320666D01*
X136333D01*
X136999Y321332D01*
Y322665D01*
X136333Y323332D01*
X135667D01*
X135000Y322665D01*
Y320666D01*
X142001Y308670D02*
X145999D01*
Y311335D01*
X142001Y315334D02*
Y312668D01*
X145999D01*
Y315334D01*
X144000Y312668D02*
Y314001D01*
X142001Y316667D02*
X145999D01*
Y318666D01*
X145333Y319333D01*
X142667D01*
X142001Y318666D01*
Y316667D01*
Y323332D02*
Y320666D01*
X144000D01*
X143333Y321999D01*
Y322665D01*
X144000Y323332D01*
X145333D01*
X145999Y322665D01*
Y321332D01*
X145333Y320666D01*
X153001Y308670D02*
X156999D01*
Y311335D01*
X153001Y315334D02*
Y312668D01*
X156999D01*
Y315334D01*
X155000Y312668D02*
Y314001D01*
X153001Y316667D02*
X156999D01*
Y318666D01*
X156333Y319333D01*
X153667D01*
X153001Y318666D01*
Y316667D01*
X156999Y322665D02*
X153001D01*
X155000Y320666D01*
Y323332D01*
X163001Y308670D02*
X166999D01*
Y311335D01*
X163001Y315334D02*
Y312668D01*
X166999D01*
Y315334D01*
X165000Y312668D02*
Y314001D01*
X163001Y316667D02*
X166999D01*
Y318666D01*
X166333Y319333D01*
X163667D01*
X163001Y318666D01*
Y316667D01*
X163667Y320666D02*
X163001Y321332D01*
Y322665D01*
X163667Y323332D01*
X164333D01*
X165000Y322665D01*
Y321999D01*
Y322665D01*
X165666Y323332D01*
X166333D01*
X166999Y322665D01*
Y321332D01*
X166333Y320666D01*
X173001Y308670D02*
X176999D01*
Y311335D01*
X173001Y315334D02*
Y312668D01*
X176999D01*
Y315334D01*
X175000Y312668D02*
Y314001D01*
X173001Y316667D02*
X176999D01*
Y318666D01*
X176333Y319333D01*
X173667D01*
X173001Y318666D01*
Y316667D01*
X176999Y323332D02*
Y320666D01*
X174334Y323332D01*
X173667D01*
X173001Y322665D01*
Y321332D01*
X173667Y320666D01*
X183001Y308670D02*
X186999D01*
Y311335D01*
X183001Y315334D02*
Y312668D01*
X186999D01*
Y315334D01*
X185000Y312668D02*
Y314001D01*
X183001Y316667D02*
X186999D01*
Y318666D01*
X186333Y319333D01*
X183667D01*
X183001Y318666D01*
Y316667D01*
X186999Y320666D02*
Y321999D01*
Y321332D01*
X183001D01*
X183667Y320666D01*
X18334Y124999D02*
X17001D01*
X17667D01*
Y121667D01*
X17001Y121001D01*
X16334D01*
X15668Y121667D01*
X19667D02*
X20333Y121001D01*
X21666D01*
X22332Y121667D01*
Y124333D01*
X21666Y124999D01*
X20333D01*
X19667Y124333D01*
Y123667D01*
X20333Y123000D01*
X22332D01*
X9334Y219999D02*
X8001D01*
X8667D01*
Y216667D01*
X8001Y216001D01*
X7334D01*
X6668Y216667D01*
X10667Y219333D02*
X11333Y219999D01*
X12666D01*
X13332Y219333D01*
Y218666D01*
X12666Y218000D01*
X13332Y217334D01*
Y216667D01*
X12666Y216001D01*
X11333D01*
X10667Y216667D01*
Y217334D01*
X11333Y218000D01*
X10667Y218666D01*
Y219333D01*
X11333Y218000D02*
X12666D01*
X530334Y325999D02*
X529001D01*
X529667D01*
Y322667D01*
X529001Y322001D01*
X528334D01*
X527668Y322667D01*
X531667Y325999D02*
X534332D01*
Y325333D01*
X531667Y322667D01*
Y322001D01*
X162334Y48999D02*
X161001D01*
X161667D01*
Y45667D01*
X161001Y45001D01*
X160334D01*
X159668Y45667D01*
X166332Y48999D02*
X164999Y48333D01*
X163666Y47000D01*
Y45667D01*
X164333Y45001D01*
X165666D01*
X166332Y45667D01*
Y46334D01*
X165666Y47000D01*
X163666D01*
X402334Y47999D02*
X401001D01*
X401667D01*
Y44667D01*
X401001Y44001D01*
X400334D01*
X399668Y44667D01*
X406332Y47999D02*
X403666D01*
Y46000D01*
X404999Y46666D01*
X405666D01*
X406332Y46000D01*
Y44667D01*
X405666Y44001D01*
X404333D01*
X403666Y44667D01*
X432334Y206999D02*
X431001D01*
X431667D01*
Y203667D01*
X431001Y203001D01*
X430334D01*
X429668Y203667D01*
X435666Y203001D02*
Y206999D01*
X433667Y205000D01*
X436332D01*
X44334Y48999D02*
X43001D01*
X43667D01*
Y45667D01*
X43001Y45001D01*
X42334D01*
X41668Y45667D01*
X45667Y48333D02*
X46333Y48999D01*
X47666D01*
X48332Y48333D01*
Y47666D01*
X47666Y47000D01*
X46999D01*
X47666D01*
X48332Y46334D01*
Y45667D01*
X47666Y45001D01*
X46333D01*
X45667Y45667D01*
X283334Y47999D02*
X282001D01*
X282667D01*
Y44667D01*
X282001Y44001D01*
X281334D01*
X280668Y44667D01*
X287332Y44001D02*
X284666D01*
X287332Y46666D01*
Y47333D01*
X286666Y47999D01*
X285333D01*
X284666Y47333D01*
X529000Y260999D02*
X527667D01*
X528334D01*
Y257667D01*
X527667Y257001D01*
X527001D01*
X526334Y257667D01*
X530333Y257001D02*
X531666D01*
X530999D01*
Y260999D01*
X530333Y260333D01*
X462516Y185648D02*
X463849D01*
X463182D01*
Y181650D01*
X462516D01*
X463849D01*
X468514Y184982D02*
X467848Y185648D01*
X466515D01*
X465848Y184982D01*
Y182316D01*
X466515Y181650D01*
X467848D01*
X468514Y182316D01*
X469847Y181650D02*
X471180D01*
X470513D01*
Y185648D01*
X469847Y184982D01*
X494334Y324999D02*
Y321001D01*
X496334D01*
X497000Y321667D01*
Y324333D01*
X496334Y324999D01*
X494334D01*
X498333Y321001D02*
X499666D01*
X498999D01*
Y324999D01*
X498333Y324333D01*
X340668Y123999D02*
Y120001D01*
X342667D01*
X343334Y120667D01*
Y121334D01*
X342667Y122000D01*
X340668D01*
X342667D01*
X343334Y122667D01*
Y123333D01*
X342667Y123999D01*
X340668D01*
X347332Y120001D02*
X344667D01*
X347332Y122667D01*
Y123333D01*
X346666Y123999D01*
X345333D01*
X344667Y123333D01*
X330334Y186999D02*
Y183001D01*
X332334D01*
X333000Y183667D01*
Y184334D01*
X332334Y185000D01*
X330334D01*
X332334D01*
X333000Y185667D01*
Y186333D01*
X332334Y186999D01*
X330334D01*
X334333Y183001D02*
X335666D01*
X334999D01*
Y186999D01*
X334333Y186333D01*
D15*
X116800Y136500D02*
X120900D01*
Y131500D02*
Y136500D01*
X116800Y131500D02*
X120900D01*
X110100D02*
X114300D01*
X110100D02*
Y136500D01*
X114200D01*
X236800Y221500D02*
X240900D01*
Y226500D01*
X236700D02*
X240900D01*
X230100D02*
X234200D01*
X230100Y221500D02*
Y226500D01*
Y221500D02*
X234200D01*
X236800Y227500D02*
X240900D01*
Y232500D01*
X236700D02*
X240900D01*
X230100D02*
X234200D01*
X230100Y227500D02*
Y232500D01*
Y227500D02*
X234200D01*
X236800Y215500D02*
X240900D01*
Y220500D01*
X236700D02*
X240900D01*
X230100D02*
X234200D01*
X230100Y215500D02*
Y220500D01*
Y215500D02*
X234200D01*
X236800Y233500D02*
X240900D01*
Y238500D01*
X236700D02*
X240900D01*
X230100D02*
X234200D01*
X230100Y233500D02*
Y238500D01*
Y233500D02*
X234200D01*
X236800Y239500D02*
X240900D01*
Y244500D01*
X236700D02*
X240900D01*
X230100D02*
X234200D01*
X230100Y239500D02*
Y244500D01*
Y239500D02*
X234200D01*
X117300D02*
X121400D01*
Y244500D01*
X117200D02*
X121400D01*
X110600D02*
X114700D01*
X110600Y239500D02*
Y244500D01*
Y239500D02*
X114700D01*
X117300Y233500D02*
X121400D01*
Y238500D01*
X117200D02*
X121400D01*
X110600D02*
X114700D01*
X110600Y233500D02*
Y238500D01*
Y233500D02*
X114700D01*
X117300Y227500D02*
X121400D01*
Y232500D01*
X117200D02*
X121400D01*
X110600D02*
X114700D01*
X110600Y227500D02*
Y232500D01*
Y227500D02*
X114700D01*
X117300Y221500D02*
X121400D01*
Y226500D01*
X117200D02*
X121400D01*
X110600D02*
X114700D01*
X110600Y221500D02*
Y226500D01*
Y221500D02*
X114700D01*
X117300Y215500D02*
X121400D01*
Y220500D01*
X117200D02*
X121400D01*
X110600D02*
X114700D01*
X110600Y215500D02*
Y220500D01*
Y215500D02*
X114700D01*
X117300Y173500D02*
X121400D01*
Y178500D01*
X117200D02*
X121400D01*
X110600D02*
X114700D01*
X110600Y173500D02*
Y178500D01*
Y173500D02*
X114700D01*
X117300Y167500D02*
X121400D01*
Y172500D01*
X117200D02*
X121400D01*
X110600D02*
X114700D01*
X110600Y167500D02*
Y172500D01*
Y167500D02*
X114700D01*
X117300Y161500D02*
X121400D01*
Y166500D01*
X117200D02*
X121400D01*
X110600D02*
X114700D01*
X110600Y161500D02*
Y166500D01*
Y161500D02*
X114700D01*
X236800D02*
X240900D01*
Y166500D01*
X236700D02*
X240900D01*
X230100D02*
X234200D01*
X230100Y161500D02*
Y166500D01*
Y161500D02*
X234200D01*
X236800Y167500D02*
X240900D01*
Y172500D01*
X236700D02*
X240900D01*
X230100D02*
X234200D01*
X230100Y167500D02*
Y172500D01*
Y167500D02*
X234200D01*
X236800Y155500D02*
X240900D01*
Y160500D01*
X236700D02*
X240900D01*
X230100D02*
X234200D01*
X230100Y155500D02*
Y160500D01*
Y155500D02*
X234200D01*
X117300D02*
X121400D01*
Y160500D01*
X117200D02*
X121400D01*
X110600D02*
X114700D01*
X110600Y155500D02*
Y160500D01*
Y155500D02*
X114700D01*
X117300Y149500D02*
X121400D01*
Y154500D01*
X117200D02*
X121400D01*
X110600D02*
X114700D01*
X110600Y149500D02*
Y154500D01*
Y149500D02*
X114700D01*
X117300Y197500D02*
X121400D01*
Y202500D01*
X117200D02*
X121400D01*
X110600D02*
X114700D01*
X110600Y197500D02*
Y202500D01*
Y197500D02*
X114700D01*
X117300Y191500D02*
X121400D01*
Y196500D01*
X117200D02*
X121400D01*
X110600D02*
X114700D01*
X110600Y191500D02*
Y196500D01*
Y191500D02*
X114700D01*
X236800Y149500D02*
X240900D01*
Y154500D01*
X236700D02*
X240900D01*
X230100D02*
X234200D01*
X230100Y149500D02*
Y154500D01*
Y149500D02*
X234200D01*
X236800Y191500D02*
X240900D01*
Y196500D01*
X236700D02*
X240900D01*
X230100D02*
X234200D01*
X230100Y191500D02*
Y196500D01*
Y191500D02*
X234200D01*
X236800Y209500D02*
X240900D01*
Y214500D01*
X236700D02*
X240900D01*
X230100D02*
X234200D01*
X230100Y209500D02*
Y214500D01*
Y209500D02*
X234200D01*
X236800Y203500D02*
X240900D01*
Y208500D01*
X236700D02*
X240900D01*
X230100D02*
X234200D01*
X230100Y203500D02*
Y208500D01*
Y203500D02*
X234200D01*
X236800Y197500D02*
X240900D01*
Y202500D01*
X236700D02*
X240900D01*
X230100D02*
X234200D01*
X230100Y197500D02*
Y202500D01*
Y197500D02*
X234200D01*
X117300Y179500D02*
X121400D01*
Y184500D01*
X117200D02*
X121400D01*
X110600D02*
X114700D01*
X110600Y179500D02*
Y184500D01*
Y179500D02*
X114700D01*
X117300Y185500D02*
X121400D01*
Y190500D01*
X117200D02*
X121400D01*
X110600D02*
X114700D01*
X110600Y185500D02*
Y190500D01*
Y185500D02*
X114700D01*
X117300Y209500D02*
X121400D01*
Y214500D01*
X117200D02*
X121400D01*
X110600D02*
X114700D01*
X110600Y209500D02*
Y214500D01*
Y209500D02*
X114700D01*
X117300Y203500D02*
X121400D01*
Y208500D01*
X117200D02*
X121400D01*
X110600D02*
X114700D01*
X110600Y203500D02*
Y208500D01*
Y203500D02*
X114700D01*
X236800Y185500D02*
X240900D01*
Y190500D01*
X236700D02*
X240900D01*
X230100D02*
X234200D01*
X230100Y185500D02*
Y190500D01*
Y185500D02*
X234200D01*
X236800Y179500D02*
X240900D01*
Y184500D01*
X236700D02*
X240900D01*
X230100D02*
X234200D01*
X230100Y179500D02*
Y184500D01*
Y179500D02*
X234200D01*
X236800Y173500D02*
X240900D01*
Y178500D01*
X236700D02*
X240900D01*
X230100D02*
X234200D01*
X230100Y173500D02*
Y178500D01*
Y173500D02*
X234200D01*
X411500Y301300D02*
Y305400D01*
X406500D02*
X411500D01*
X406500Y301200D02*
Y305400D01*
Y294600D02*
Y298700D01*
Y294600D02*
X411500D01*
Y298700D01*
X404500Y301300D02*
Y305400D01*
X399500D02*
X404500D01*
X399500Y301200D02*
Y305400D01*
Y294600D02*
Y298700D01*
Y294600D02*
X404500D01*
Y298700D01*
X418500Y301300D02*
Y305400D01*
X413500D02*
X418500D01*
X413500Y301200D02*
Y305400D01*
Y294600D02*
Y298700D01*
Y294600D02*
X418500D01*
Y298700D01*
X425500Y301450D02*
Y305550D01*
X420500D02*
X425500D01*
X420500Y301350D02*
Y305550D01*
Y294750D02*
Y298850D01*
Y294750D02*
X425500D01*
Y298850D01*
X432500Y301300D02*
Y305400D01*
X427500D02*
X432500D01*
X427500Y301200D02*
Y305400D01*
Y294600D02*
Y298700D01*
Y294600D02*
X432500D01*
Y298700D01*
X506500Y117600D02*
Y121700D01*
Y117600D02*
X511500D01*
Y121800D01*
Y124300D02*
Y128400D01*
X506500D02*
X511500D01*
X506500Y124300D02*
Y128400D01*
X500500Y117600D02*
Y121700D01*
Y117600D02*
X505500D01*
Y121800D01*
Y124300D02*
Y128400D01*
X500500D02*
X505500D01*
X500500Y124300D02*
Y128400D01*
X494500Y117600D02*
Y121700D01*
Y117600D02*
X499500D01*
Y121800D01*
Y124300D02*
Y128400D01*
X494500D02*
X499500D01*
X494500Y124300D02*
Y128400D01*
X488500Y117600D02*
Y121700D01*
Y117600D02*
X493500D01*
Y121800D01*
Y124300D02*
Y128400D01*
X488500D02*
X493500D01*
X488500Y124300D02*
Y128400D01*
X482500Y117600D02*
Y121700D01*
Y117600D02*
X487500D01*
Y121800D01*
Y124300D02*
Y128400D01*
X482500D02*
X487500D01*
X482500Y124300D02*
Y128400D01*
X476500Y117600D02*
Y121700D01*
Y117600D02*
X481500D01*
Y121800D01*
Y124300D02*
Y128400D01*
X476500D02*
X481500D01*
X476500Y124300D02*
Y128400D01*
X470500Y117600D02*
Y121700D01*
Y117600D02*
X475500D01*
Y121800D01*
Y124300D02*
Y128400D01*
X470500D02*
X475500D01*
X470500Y124300D02*
Y128400D01*
X469500Y124300D02*
Y128400D01*
X464500D02*
X469500D01*
X464500Y124200D02*
Y128400D01*
Y117600D02*
Y121700D01*
Y117600D02*
X469500D01*
Y121700D01*
X229600Y64500D02*
X233700D01*
X229600Y59500D02*
Y64500D01*
Y59500D02*
X233800D01*
X236300D02*
X240400D01*
Y64500D01*
X236300D02*
X240400D01*
X110100D02*
X114200D01*
X110100Y59500D02*
Y64500D01*
Y59500D02*
X114300D01*
X116800D02*
X120900D01*
Y64500D01*
X116800D02*
X120900D01*
X477500Y54600D02*
Y58700D01*
Y54600D02*
X482500D01*
Y58800D01*
Y61300D02*
Y65400D01*
X477500D02*
X482500D01*
X477500Y61300D02*
Y65400D01*
X229600Y58500D02*
X233700D01*
X229600Y53500D02*
Y58500D01*
Y53500D02*
X233800D01*
X236300D02*
X240400D01*
Y58500D01*
X236300D02*
X240400D01*
X110100D02*
X114200D01*
X110100Y53500D02*
Y58500D01*
Y53500D02*
X114300D01*
X116800D02*
X120900D01*
Y58500D01*
X116800D02*
X120900D01*
X487500Y54600D02*
Y58700D01*
Y54600D02*
X492500D01*
Y58800D01*
Y61300D02*
Y65400D01*
X487500D02*
X492500D01*
X487500Y61300D02*
Y65400D01*
X229600Y82500D02*
X233700D01*
X229600Y77500D02*
Y82500D01*
Y77500D02*
X233800D01*
X236300D02*
X240400D01*
Y82500D01*
X236300D02*
X240400D01*
X110100Y76500D02*
X114200D01*
X110100Y71500D02*
Y76500D01*
Y71500D02*
X114300D01*
X116800D02*
X120900D01*
Y76500D01*
X116800D02*
X120900D01*
X110100Y82500D02*
X114200D01*
X110100Y77500D02*
Y82500D01*
Y77500D02*
X114300D01*
X116800D02*
X120900D01*
Y82500D01*
X116800D02*
X120900D01*
X229600Y88500D02*
X233700D01*
X229600Y83500D02*
Y88500D01*
Y83500D02*
X233800D01*
X236300D02*
X240400D01*
Y88500D01*
X236300D02*
X240400D01*
X110100Y70500D02*
X114200D01*
X110100Y65500D02*
Y70500D01*
Y65500D02*
X114300D01*
X116800D02*
X120900D01*
Y70500D01*
X116800D02*
X120900D01*
X440150Y137500D02*
X444250D01*
Y142500D01*
X440050D02*
X444250D01*
X433450D02*
X437550D01*
X433450Y137500D02*
Y142500D01*
Y137500D02*
X437550D01*
X440300Y143500D02*
X444400D01*
Y148500D01*
X440200D02*
X444400D01*
X433600D02*
X437700D01*
X433600Y143500D02*
Y148500D01*
Y143500D02*
X437700D01*
X229600Y76500D02*
X233700D01*
X229600Y71500D02*
Y76500D01*
Y71500D02*
X233800D01*
X236300D02*
X240400D01*
Y76500D01*
X236300D02*
X240400D01*
X229600Y70500D02*
X233700D01*
X229600Y65500D02*
Y70500D01*
Y65500D02*
X233800D01*
X236300D02*
X240400D01*
Y70500D01*
X236300D02*
X240400D01*
X463500Y124300D02*
Y128400D01*
X458500D02*
X463500D01*
X458500Y124200D02*
Y128400D01*
Y117600D02*
Y121700D01*
Y117600D02*
X463500D01*
Y121700D01*
X544500Y162300D02*
Y166400D01*
X539500D02*
X544500D01*
X539500Y162200D02*
Y166400D01*
Y155600D02*
Y159700D01*
Y155600D02*
X544500D01*
Y159700D01*
X440300Y155500D02*
X444400D01*
Y160500D01*
X440200D02*
X444400D01*
X433600D02*
X437700D01*
X433600Y155500D02*
Y160500D01*
Y155500D02*
X437700D01*
X229600Y100500D02*
X233700D01*
X229600Y95500D02*
Y100500D01*
Y95500D02*
X233800D01*
X236300D02*
X240400D01*
Y100500D01*
X236300D02*
X240400D01*
X514300Y151500D02*
X518400D01*
Y156500D01*
X514200D02*
X518400D01*
X507600D02*
X511700D01*
X507600Y151500D02*
Y156500D01*
Y151500D02*
X511700D01*
X440300Y149500D02*
X444400D01*
Y154500D01*
X440200D02*
X444400D01*
X433600D02*
X437700D01*
X433600Y149500D02*
Y154500D01*
Y149500D02*
X437700D01*
X514300Y145500D02*
X518400D01*
Y150500D01*
X514200D02*
X518400D01*
X507600D02*
X511700D01*
X507600Y145500D02*
Y150500D01*
Y145500D02*
X511700D01*
X501500Y194300D02*
Y198400D01*
X496500D02*
X501500D01*
X496500Y194200D02*
Y198400D01*
Y187600D02*
Y191700D01*
Y187600D02*
X501500D01*
Y191700D01*
X110100Y124500D02*
X114200D01*
X110100Y119500D02*
Y124500D01*
Y119500D02*
X114300D01*
X116800D02*
X120900D01*
Y124500D01*
X116800D02*
X120900D01*
X514300Y163500D02*
X518400D01*
Y168500D01*
X514200D02*
X518400D01*
X507600D02*
X511700D01*
X507600Y163500D02*
Y168500D01*
Y163500D02*
X511700D01*
X229600Y106500D02*
X233700D01*
X229600Y101500D02*
Y106500D01*
Y101500D02*
X233800D01*
X236300D02*
X240400D01*
Y106500D01*
X236300D02*
X240400D01*
X110100Y112500D02*
X114200D01*
X110100Y107500D02*
Y112500D01*
Y107500D02*
X114300D01*
X116800D02*
X120900D01*
Y112500D01*
X116800D02*
X120900D01*
X517300Y227500D02*
X521400D01*
Y232500D01*
X517200D02*
X521400D01*
X510600D02*
X514700D01*
X510600Y227500D02*
Y232500D01*
Y227500D02*
X514700D01*
X229600Y130500D02*
X233700D01*
X229600Y125500D02*
Y130500D01*
Y125500D02*
X233800D01*
X236300D02*
X240400D01*
Y130500D01*
X236300D02*
X240400D01*
X110100Y118500D02*
X114200D01*
X110100Y113500D02*
Y118500D01*
Y113500D02*
X114300D01*
X116800D02*
X120900D01*
Y118500D01*
X116800D02*
X120900D01*
X110100Y106500D02*
X114200D01*
X110100Y101500D02*
Y106500D01*
Y101500D02*
X114300D01*
X116800D02*
X120900D01*
Y106500D01*
X116800D02*
X120900D01*
X455500Y187600D02*
Y191700D01*
Y187600D02*
X460500D01*
Y191800D01*
Y194300D02*
Y198400D01*
X455500D02*
X460500D01*
X455500Y194300D02*
Y198400D01*
X110100Y88500D02*
X114200D01*
X110100Y83500D02*
Y88500D01*
Y83500D02*
X114300D01*
X116800D02*
X120900D01*
Y88500D01*
X116800D02*
X120900D01*
X440300Y167500D02*
X444400D01*
Y172500D01*
X440200D02*
X444400D01*
X433600D02*
X437700D01*
X433600Y167500D02*
Y172500D01*
Y167500D02*
X437700D01*
X110100Y94500D02*
X114200D01*
X110100Y89500D02*
Y94500D01*
Y89500D02*
X114300D01*
X116800D02*
X120900D01*
Y94500D01*
X116800D02*
X120900D01*
X538500Y162300D02*
Y166400D01*
X533500D02*
X538500D01*
X533500Y162200D02*
Y166400D01*
Y155600D02*
Y159700D01*
Y155600D02*
X538500D01*
Y159700D01*
X229600Y136500D02*
X233700D01*
X229600Y131500D02*
Y136500D01*
Y131500D02*
X233800D01*
X236300D02*
X240400D01*
Y136500D01*
X236300D02*
X240400D01*
X110100Y100500D02*
X114200D01*
X110100Y95500D02*
Y100500D01*
Y95500D02*
X114300D01*
X116800D02*
X120900D01*
Y100500D01*
X116800D02*
X120900D01*
X110100Y130500D02*
X114200D01*
X110100Y125500D02*
Y130500D01*
Y125500D02*
X114300D01*
X116800D02*
X120900D01*
Y130500D01*
X116800D02*
X120900D01*
X514300Y157500D02*
X518400D01*
Y162500D01*
X514200D02*
X518400D01*
X507600D02*
X511700D01*
X507600Y157500D02*
Y162500D01*
Y157500D02*
X511700D01*
X550500Y162300D02*
Y166400D01*
X545500D02*
X550500D01*
X545500Y162200D02*
Y166400D01*
Y155600D02*
Y159700D01*
Y155600D02*
X550500D01*
Y159700D01*
X229600Y148500D02*
X233700D01*
X229600Y143500D02*
Y148500D01*
Y143500D02*
X233800D01*
X236300D02*
X240400D01*
Y148500D01*
X236300D02*
X240400D01*
X229600Y118500D02*
X233700D01*
X229600Y113500D02*
Y118500D01*
Y113500D02*
X233800D01*
X236300D02*
X240400D01*
Y118500D01*
X236300D02*
X240400D01*
X473500Y187600D02*
Y191700D01*
Y187600D02*
X478500D01*
Y191800D01*
Y194300D02*
Y198400D01*
X473500D02*
X478500D01*
X473500Y194300D02*
Y198400D01*
X110100Y148500D02*
X114200D01*
X110100Y143500D02*
Y148500D01*
Y143500D02*
X114300D01*
X116800D02*
X120900D01*
Y148500D01*
X116800D02*
X120900D01*
X110100Y142500D02*
X114200D01*
X110100Y137500D02*
Y142500D01*
Y137500D02*
X114300D01*
X116800D02*
X120900D01*
Y142500D01*
X116800D02*
X120900D01*
X461500Y187600D02*
Y191700D01*
Y187600D02*
X466500D01*
Y191800D01*
Y194300D02*
Y198400D01*
X461500D02*
X466500D01*
X461500Y194300D02*
Y198400D01*
X495500Y194300D02*
Y198400D01*
X490500D02*
X495500D01*
X490500Y194200D02*
Y198400D01*
Y187600D02*
Y191700D01*
Y187600D02*
X495500D01*
Y191700D01*
X514300Y169500D02*
X518400D01*
Y174500D01*
X514200D02*
X518400D01*
X507600D02*
X511700D01*
X507600Y169500D02*
Y174500D01*
Y169500D02*
X511700D01*
X440300Y161500D02*
X444400D01*
Y166500D01*
X440200D02*
X444400D01*
X433600D02*
X437700D01*
X433600Y161500D02*
Y166500D01*
Y161500D02*
X437700D01*
X229600Y112500D02*
X233700D01*
X229600Y107500D02*
Y112500D01*
Y107500D02*
X233800D01*
X236300D02*
X240400D01*
Y112500D01*
X236300D02*
X240400D01*
X229600Y94500D02*
X233700D01*
X229600Y89500D02*
Y94500D01*
Y89500D02*
X233800D01*
X236300D02*
X240400D01*
Y94500D01*
X236300D02*
X240400D01*
X467500Y187600D02*
Y191700D01*
Y187600D02*
X472500D01*
Y191800D01*
Y194300D02*
Y198400D01*
X467500D02*
X472500D01*
X467500Y194300D02*
Y198400D01*
X229600Y142500D02*
X233700D01*
X229600Y137500D02*
Y142500D01*
Y137500D02*
X233800D01*
X236300D02*
X240400D01*
Y142500D01*
X236300D02*
X240400D01*
X229600Y124500D02*
X233700D01*
X229600Y119500D02*
Y124500D01*
Y119500D02*
X233800D01*
X236300D02*
X240400D01*
Y124500D01*
X236300D02*
X240400D01*
X29600Y199500D02*
X33700D01*
X29600Y194500D02*
Y199500D01*
Y194500D02*
X33800D01*
X36300D02*
X40400D01*
Y199500D01*
X36300D02*
X40400D01*
X49500Y195300D02*
Y199400D01*
X44500D02*
X49500D01*
X44500Y195200D02*
Y199400D01*
Y188600D02*
Y192700D01*
Y188600D02*
X49500D01*
Y192700D01*
X38600Y63500D02*
X42700D01*
X38600Y58500D02*
Y63500D01*
Y58500D02*
X42800D01*
X45300D02*
X49400D01*
Y63500D01*
X45300D02*
X49400D01*
X28500Y204600D02*
Y208700D01*
Y204600D02*
X33500D01*
Y208800D01*
Y211300D02*
Y215400D01*
X28500D02*
X33500D01*
X28500Y211300D02*
Y215400D01*
X38500Y204600D02*
Y208700D01*
Y204600D02*
X43500D01*
Y208800D01*
Y211300D02*
Y215400D01*
X38500D02*
X43500D01*
X38500Y211300D02*
Y215400D01*
D16*
X17000Y207000D02*
X18666D01*
X17833D01*
Y211998D01*
X17000Y211165D01*
X20332Y195000D02*
X17000D01*
X20332Y198332D01*
Y199165D01*
X19499Y199998D01*
X17833D01*
X17000Y199165D01*
X428332Y182000D02*
X425000D01*
X428332Y185332D01*
Y186165D01*
X427499Y186998D01*
X425833D01*
X425000Y186165D01*
X426000Y192000D02*
X427666D01*
X426833D01*
Y196998D01*
X426000Y196165D01*
M02*
