G04*
G04 #@! TF.GenerationSoftware,Altium Limited,Altium Designer,22.3.1 (43)*
G04*
G04 Layer_Color=12632256*
%FSLAX25Y25*%
%MOIN*%
G70*
G04*
G04 #@! TF.SameCoordinates,F15A7EA6-3F3C-4714-8FA7-CF7AF9E4284A*
G04*
G04*
G04 #@! TF.FilePolarity,Positive*
G04*
G01*
G75*
%ADD52C,0.07087*%
%ADD54R,0.07087X0.07087*%
%ADD55C,0.05906*%
%ADD56R,0.05906X0.05906*%
%ADD57C,0.03543*%
%ADD58C,0.20000*%
D52*
X545000Y245000D02*
D03*
Y230000D02*
D03*
Y215000D02*
D03*
X180000Y20000D02*
D03*
Y30000D02*
D03*
X190000Y20000D02*
D03*
Y30000D02*
D03*
X200000Y20000D02*
D03*
Y30000D02*
D03*
X210000Y20000D02*
D03*
Y30000D02*
D03*
X220000Y20000D02*
D03*
Y30000D02*
D03*
X230000Y20000D02*
D03*
Y30000D02*
D03*
X240000Y20000D02*
D03*
Y30000D02*
D03*
X250000Y20000D02*
D03*
Y30000D02*
D03*
X540000Y290000D02*
D03*
X370000Y30000D02*
D03*
Y20000D02*
D03*
X360000Y30000D02*
D03*
Y20000D02*
D03*
X350000Y30000D02*
D03*
Y20000D02*
D03*
X340000Y30000D02*
D03*
Y20000D02*
D03*
X330000Y30000D02*
D03*
Y20000D02*
D03*
X320000Y30000D02*
D03*
Y20000D02*
D03*
X310000Y30000D02*
D03*
Y20000D02*
D03*
X300000Y30000D02*
D03*
Y20000D02*
D03*
X490000Y30000D02*
D03*
Y20000D02*
D03*
X480000Y30000D02*
D03*
Y20000D02*
D03*
X470000Y30000D02*
D03*
Y20000D02*
D03*
X460000Y30000D02*
D03*
Y20000D02*
D03*
X450000Y30000D02*
D03*
Y20000D02*
D03*
X440000Y30000D02*
D03*
Y20000D02*
D03*
X430000Y30000D02*
D03*
Y20000D02*
D03*
X420000Y30000D02*
D03*
Y20000D02*
D03*
X130000Y30000D02*
D03*
Y20000D02*
D03*
X120000Y30000D02*
D03*
Y20000D02*
D03*
X110000Y30000D02*
D03*
Y20000D02*
D03*
X100000Y30000D02*
D03*
Y20000D02*
D03*
X90000Y30000D02*
D03*
Y20000D02*
D03*
X80000Y30000D02*
D03*
Y20000D02*
D03*
X70000Y30000D02*
D03*
Y20000D02*
D03*
X60000Y30000D02*
D03*
Y20000D02*
D03*
D54*
X540000Y310000D02*
D03*
D55*
X10000Y197000D02*
D03*
X436000Y184000D02*
D03*
D56*
X10000Y207000D02*
D03*
X14000Y49000D02*
D03*
X534000Y198000D02*
D03*
X27000Y49000D02*
D03*
X14000Y61000D02*
D03*
X27000D02*
D03*
X436000Y194000D02*
D03*
D57*
X20000Y106323D02*
D03*
Y89000D02*
D03*
D58*
X540000Y380000D02*
D03*
X20000D02*
D03*
Y20000D02*
D03*
X540000D02*
D03*
M02*
