G04*
G04 #@! TF.GenerationSoftware,Altium Limited,Altium Designer,22.3.1 (43)*
G04*
G04 Layer_Color=32896*
%FSLAX25Y25*%
%MOIN*%
G70*
G04*
G04 #@! TF.SameCoordinates,D44AF7EC-015F-415D-BC9C-BA0083E1B9C0*
G04*
G04*
G04 #@! TF.FilePolarity,Positive*
G04*
G01*
G75*
%ADD11C,0.01000*%
%ADD12C,0.00787*%
%ADD13C,0.00500*%
D11*
X179499Y357332D02*
X175501D01*
Y355332D01*
X176167Y354666D01*
X177500D01*
X178166Y355332D01*
Y357332D01*
Y355999D02*
X179499Y354666D01*
X175501Y350667D02*
Y353333D01*
X177500D01*
X176833Y352000D01*
Y351334D01*
X177500Y350667D01*
X178833D01*
X179499Y351334D01*
Y352666D01*
X178833Y353333D01*
Y349334D02*
X179499Y348668D01*
Y347335D01*
X178833Y346668D01*
X176167D01*
X175501Y347335D01*
Y348668D01*
X176167Y349334D01*
X176833D01*
X177500Y348668D01*
Y346668D01*
X164999Y357832D02*
X161001D01*
Y355832D01*
X161667Y355166D01*
X163000D01*
X163666Y355832D01*
Y357832D01*
Y356499D02*
X164999Y355166D01*
X161001Y351167D02*
Y353833D01*
X163000D01*
X162334Y352500D01*
Y351834D01*
X163000Y351167D01*
X164333D01*
X164999Y351834D01*
Y353166D01*
X164333Y353833D01*
X161667Y349834D02*
X161001Y349168D01*
Y347835D01*
X161667Y347168D01*
X162334D01*
X163000Y347835D01*
X163666Y347168D01*
X164333D01*
X164999Y347835D01*
Y349168D01*
X164333Y349834D01*
X163666D01*
X163000Y349168D01*
X162334Y349834D01*
X161667D01*
X163000Y349168D02*
Y347835D01*
X76999Y357832D02*
X73001D01*
Y355832D01*
X73667Y355166D01*
X75000D01*
X75666Y355832D01*
Y357832D01*
Y356499D02*
X76999Y355166D01*
Y351834D02*
X73001D01*
X75000Y353833D01*
Y351167D01*
X73001Y347168D02*
X73667Y348501D01*
X75000Y349834D01*
X76333D01*
X76999Y349168D01*
Y347835D01*
X76333Y347168D01*
X75666D01*
X75000Y347835D01*
Y349834D01*
X86999Y357832D02*
X83001D01*
Y355832D01*
X83667Y355166D01*
X85000D01*
X85666Y355832D01*
Y357832D01*
Y356499D02*
X86999Y355166D01*
Y351834D02*
X83001D01*
X85000Y353833D01*
Y351167D01*
X83001Y347168D02*
Y349834D01*
X85000D01*
X84333Y348501D01*
Y347835D01*
X85000Y347168D01*
X86333D01*
X86999Y347835D01*
Y349168D01*
X86333Y349834D01*
X96999Y357832D02*
X93001D01*
Y355832D01*
X93667Y355166D01*
X95000D01*
X95666Y355832D01*
Y357832D01*
Y356499D02*
X96999Y355166D01*
Y351834D02*
X93001D01*
X95000Y353833D01*
Y351167D01*
X96999Y347835D02*
X93001D01*
X95000Y349834D01*
Y347168D01*
X106999Y357832D02*
X103001D01*
Y355832D01*
X103667Y355166D01*
X105000D01*
X105666Y355832D01*
Y357832D01*
Y356499D02*
X106999Y355166D01*
Y351834D02*
X103001D01*
X105000Y353833D01*
Y351167D01*
X103667Y349834D02*
X103001Y349168D01*
Y347835D01*
X103667Y347168D01*
X104333D01*
X105000Y347835D01*
Y348501D01*
Y347835D01*
X105666Y347168D01*
X106333D01*
X106999Y347835D01*
Y349168D01*
X106333Y349834D01*
X116999Y357832D02*
X113001D01*
Y355832D01*
X113667Y355166D01*
X115000D01*
X115666Y355832D01*
Y357832D01*
Y356499D02*
X116999Y355166D01*
Y351834D02*
X113001D01*
X115000Y353833D01*
Y351167D01*
X116999Y347168D02*
Y349834D01*
X114333Y347168D01*
X113667D01*
X113001Y347835D01*
Y349168D01*
X113667Y349834D01*
X126999Y357832D02*
X123001D01*
Y355832D01*
X123667Y355166D01*
X125000D01*
X125666Y355832D01*
Y357832D01*
Y356499D02*
X126999Y355166D01*
Y351834D02*
X123001D01*
X125000Y353833D01*
Y351167D01*
X126999Y349834D02*
Y348501D01*
Y349168D01*
X123001D01*
X123667Y349834D01*
X136999Y357832D02*
X133001D01*
Y355832D01*
X133667Y355166D01*
X135000D01*
X135666Y355832D01*
Y357832D01*
Y356499D02*
X136999Y355166D01*
Y351834D02*
X133001D01*
X135000Y353833D01*
Y351167D01*
X133667Y349834D02*
X133001Y349168D01*
Y347835D01*
X133667Y347168D01*
X136333D01*
X136999Y347835D01*
Y349168D01*
X136333Y349834D01*
X133667D01*
X146999Y357832D02*
X143001D01*
Y355832D01*
X143667Y355166D01*
X145000D01*
X145666Y355832D01*
Y357832D01*
Y356499D02*
X146999Y355166D01*
X143667Y353833D02*
X143001Y353167D01*
Y351834D01*
X143667Y351167D01*
X144334D01*
X145000Y351834D01*
Y352500D01*
Y351834D01*
X145666Y351167D01*
X146333D01*
X146999Y351834D01*
Y353167D01*
X146333Y353833D01*
Y349834D02*
X146999Y349168D01*
Y347835D01*
X146333Y347168D01*
X143667D01*
X143001Y347835D01*
Y349168D01*
X143667Y349834D01*
X144334D01*
X145000Y349168D01*
Y347168D01*
X433999Y357332D02*
X430001D01*
Y355332D01*
X430667Y354666D01*
X432000D01*
X432666Y355332D01*
Y357332D01*
Y355999D02*
X433999Y354666D01*
X430667Y353333D02*
X430001Y352666D01*
Y351334D01*
X430667Y350667D01*
X431333D01*
X432000Y351334D01*
Y352000D01*
Y351334D01*
X432666Y350667D01*
X433333D01*
X433999Y351334D01*
Y352666D01*
X433333Y353333D01*
X430667Y349334D02*
X430001Y348668D01*
Y347335D01*
X430667Y346668D01*
X431333D01*
X432000Y347335D01*
X432666Y346668D01*
X433333D01*
X433999Y347335D01*
Y348668D01*
X433333Y349334D01*
X432666D01*
X432000Y348668D01*
X431333Y349334D01*
X430667D01*
X432000Y348668D02*
Y347335D01*
X385999Y357332D02*
X382001D01*
Y355332D01*
X382667Y354666D01*
X384000D01*
X384666Y355332D01*
Y357332D01*
Y355999D02*
X385999Y354666D01*
X382667Y353333D02*
X382001Y352666D01*
Y351334D01*
X382667Y350667D01*
X383334D01*
X384000Y351334D01*
Y352000D01*
Y351334D01*
X384666Y350667D01*
X385333D01*
X385999Y351334D01*
Y352666D01*
X385333Y353333D01*
X382001Y349334D02*
Y346668D01*
X382667D01*
X385333Y349334D01*
X385999D01*
X407999Y357332D02*
X404001D01*
Y355332D01*
X404667Y354666D01*
X406000D01*
X406666Y355332D01*
Y357332D01*
Y355999D02*
X407999Y354666D01*
X404667Y353333D02*
X404001Y352666D01*
Y351334D01*
X404667Y350667D01*
X405334D01*
X406000Y351334D01*
Y352000D01*
Y351334D01*
X406666Y350667D01*
X407333D01*
X407999Y351334D01*
Y352666D01*
X407333Y353333D01*
X404001Y346668D02*
X404667Y348001D01*
X406000Y349334D01*
X407333D01*
X407999Y348668D01*
Y347335D01*
X407333Y346668D01*
X406666D01*
X406000Y347335D01*
Y349334D01*
X240499Y357516D02*
X236501D01*
Y355516D01*
X237167Y354850D01*
X238500D01*
X239166Y355516D01*
Y357516D01*
Y356183D02*
X240499Y354850D01*
X237167Y353517D02*
X236501Y352850D01*
Y351518D01*
X237167Y350851D01*
X237833D01*
X238500Y351518D01*
Y352184D01*
Y351518D01*
X239166Y350851D01*
X239833D01*
X240499Y351518D01*
Y352850D01*
X239833Y353517D01*
X236501Y346852D02*
Y349518D01*
X238500D01*
X237833Y348185D01*
Y347519D01*
X238500Y346852D01*
X239833D01*
X240499Y347519D01*
Y348852D01*
X239833Y349518D01*
X256999Y357516D02*
X253001D01*
Y355516D01*
X253667Y354850D01*
X255000D01*
X255666Y355516D01*
Y357516D01*
Y356183D02*
X256999Y354850D01*
X253667Y353517D02*
X253001Y352850D01*
Y351518D01*
X253667Y350851D01*
X254333D01*
X255000Y351518D01*
Y352184D01*
Y351518D01*
X255666Y350851D01*
X256333D01*
X256999Y351518D01*
Y352850D01*
X256333Y353517D01*
X256999Y347519D02*
X253001D01*
X255000Y349518D01*
Y346852D01*
X271999Y357516D02*
X268001D01*
Y355516D01*
X268667Y354850D01*
X270000D01*
X270666Y355516D01*
Y357516D01*
Y356183D02*
X271999Y354850D01*
X268667Y353517D02*
X268001Y352850D01*
Y351518D01*
X268667Y350851D01*
X269334D01*
X270000Y351518D01*
Y352184D01*
Y351518D01*
X270666Y350851D01*
X271333D01*
X271999Y351518D01*
Y352850D01*
X271333Y353517D01*
X268667Y349518D02*
X268001Y348852D01*
Y347519D01*
X268667Y346852D01*
X269334D01*
X270000Y347519D01*
Y348185D01*
Y347519D01*
X270666Y346852D01*
X271333D01*
X271999Y347519D01*
Y348852D01*
X271333Y349518D01*
X287999Y357516D02*
X284001D01*
Y355516D01*
X284667Y354850D01*
X286000D01*
X286666Y355516D01*
Y357516D01*
Y356183D02*
X287999Y354850D01*
X284667Y353517D02*
X284001Y352850D01*
Y351518D01*
X284667Y350851D01*
X285333D01*
X286000Y351518D01*
Y352184D01*
Y351518D01*
X286666Y350851D01*
X287333D01*
X287999Y351518D01*
Y352850D01*
X287333Y353517D01*
X287999Y346852D02*
Y349518D01*
X285333Y346852D01*
X284667D01*
X284001Y347519D01*
Y348852D01*
X284667Y349518D01*
X301999Y357516D02*
X298001D01*
Y355516D01*
X298667Y354850D01*
X300000D01*
X300666Y355516D01*
Y357516D01*
Y356183D02*
X301999Y354850D01*
X298667Y353517D02*
X298001Y352850D01*
Y351518D01*
X298667Y350851D01*
X299334D01*
X300000Y351518D01*
Y352184D01*
Y351518D01*
X300666Y350851D01*
X301333D01*
X301999Y351518D01*
Y352850D01*
X301333Y353517D01*
X301999Y349518D02*
Y348185D01*
Y348852D01*
X298001D01*
X298667Y349518D01*
X194999Y357332D02*
X191001D01*
Y355332D01*
X191667Y354666D01*
X193000D01*
X193666Y355332D01*
Y357332D01*
Y355999D02*
X194999Y354666D01*
X191667Y353333D02*
X191001Y352666D01*
Y351334D01*
X191667Y350667D01*
X192333D01*
X193000Y351334D01*
Y352000D01*
Y351334D01*
X193666Y350667D01*
X194333D01*
X194999Y351334D01*
Y352666D01*
X194333Y353333D01*
X191667Y349334D02*
X191001Y348668D01*
Y347335D01*
X191667Y346668D01*
X194333D01*
X194999Y347335D01*
Y348668D01*
X194333Y349334D01*
X191667D01*
X221999Y357332D02*
X218001D01*
Y355332D01*
X218667Y354666D01*
X220000D01*
X220666Y355332D01*
Y357332D01*
Y355999D02*
X221999Y354666D01*
Y350667D02*
Y353333D01*
X219334Y350667D01*
X218667D01*
X218001Y351334D01*
Y352666D01*
X218667Y353333D01*
X221333Y349334D02*
X221999Y348668D01*
Y347335D01*
X221333Y346668D01*
X218667D01*
X218001Y347335D01*
Y348668D01*
X218667Y349334D01*
X219334D01*
X220000Y348668D01*
Y346668D01*
X208999Y357332D02*
X205001D01*
Y355332D01*
X205667Y354666D01*
X207000D01*
X207666Y355332D01*
Y357332D01*
Y355999D02*
X208999Y354666D01*
Y350667D02*
Y353333D01*
X206333Y350667D01*
X205667D01*
X205001Y351334D01*
Y352666D01*
X205667Y353333D01*
Y349334D02*
X205001Y348668D01*
Y347335D01*
X205667Y346668D01*
X206333D01*
X207000Y347335D01*
X207666Y346668D01*
X208333D01*
X208999Y347335D01*
Y348668D01*
X208333Y349334D01*
X207666D01*
X207000Y348668D01*
X206333Y349334D01*
X205667D01*
X207000Y348668D02*
Y347335D01*
X324999Y358182D02*
X321001D01*
Y356183D01*
X321667Y355516D01*
X323000D01*
X323666Y356183D01*
Y358182D01*
Y356849D02*
X324999Y355516D01*
Y351518D02*
Y354183D01*
X322334Y351518D01*
X321667D01*
X321001Y352184D01*
Y353517D01*
X321667Y354183D01*
X321001Y350185D02*
Y347519D01*
X321667D01*
X324333Y350185D01*
X324999D01*
X344999Y358182D02*
X341001D01*
Y356183D01*
X341667Y355516D01*
X343000D01*
X343666Y356183D01*
Y358182D01*
Y356849D02*
X344999Y355516D01*
Y351518D02*
Y354183D01*
X342334Y351518D01*
X341667D01*
X341001Y352184D01*
Y353517D01*
X341667Y354183D01*
X341001Y347519D02*
X341667Y348852D01*
X343000Y350185D01*
X344333D01*
X344999Y349518D01*
Y348185D01*
X344333Y347519D01*
X343666D01*
X343000Y348185D01*
Y350185D01*
X361999Y358182D02*
X358001D01*
Y356183D01*
X358667Y355516D01*
X360000D01*
X360666Y356183D01*
Y358182D01*
Y356849D02*
X361999Y355516D01*
Y351518D02*
Y354183D01*
X359333Y351518D01*
X358667D01*
X358001Y352184D01*
Y353517D01*
X358667Y354183D01*
X358001Y347519D02*
Y350185D01*
X360000D01*
X359333Y348852D01*
Y348185D01*
X360000Y347519D01*
X361333D01*
X361999Y348185D01*
Y349518D01*
X361333Y350185D01*
X367667Y143516D02*
X367001Y144183D01*
Y145516D01*
X367667Y146182D01*
X370333D01*
X370999Y145516D01*
Y144183D01*
X370333Y143516D01*
X370999Y139517D02*
Y142183D01*
X368334Y139517D01*
X367667D01*
X367001Y140184D01*
Y141517D01*
X367667Y142183D01*
X370333Y138185D02*
X370999Y137518D01*
Y136185D01*
X370333Y135519D01*
X367667D01*
X367001Y136185D01*
Y137518D01*
X367667Y138185D01*
X368334D01*
X369000Y137518D01*
Y135519D01*
X360667Y144516D02*
X360001Y145183D01*
Y146516D01*
X360667Y147182D01*
X363333D01*
X363999Y146516D01*
Y145183D01*
X363333Y144516D01*
X363999Y140517D02*
Y143183D01*
X361334Y140517D01*
X360667D01*
X360001Y141184D01*
Y142517D01*
X360667Y143183D01*
Y139185D02*
X360001Y138518D01*
Y137185D01*
X360667Y136519D01*
X361334D01*
X362000Y137185D01*
X362666Y136519D01*
X363333D01*
X363999Y137185D01*
Y138518D01*
X363333Y139185D01*
X362666D01*
X362000Y138518D01*
X361334Y139185D01*
X360667D01*
X362000Y138518D02*
Y137185D01*
X352666Y148183D02*
X353332Y148850D01*
X354665D01*
X355332Y148183D01*
Y145518D01*
X354665Y144851D01*
X353332D01*
X352666Y145518D01*
X348667Y144851D02*
X351333D01*
X348667Y147517D01*
Y148183D01*
X349334Y148850D01*
X350666D01*
X351333Y148183D01*
X347334Y148850D02*
X344668D01*
Y148183D01*
X347334Y145518D01*
Y144851D01*
X269183Y19834D02*
X269850Y19168D01*
Y17835D01*
X269183Y17168D01*
X266517D01*
X265851Y17835D01*
Y19168D01*
X266517Y19834D01*
X265851Y23833D02*
Y21167D01*
X268517Y23833D01*
X269183D01*
X269850Y23166D01*
Y21834D01*
X269183Y21167D01*
X269850Y27832D02*
X269183Y26499D01*
X267850Y25166D01*
X266517D01*
X265851Y25832D01*
Y27165D01*
X266517Y27832D01*
X267184D01*
X267850Y27165D01*
Y25166D01*
X276183Y19834D02*
X276850Y19168D01*
Y17835D01*
X276183Y17168D01*
X273517D01*
X272851Y17835D01*
Y19168D01*
X273517Y19834D01*
X272851Y23833D02*
Y21167D01*
X275517Y23833D01*
X276183D01*
X276850Y23166D01*
Y21834D01*
X276183Y21167D01*
X276850Y27832D02*
Y25166D01*
X274850D01*
X275517Y26499D01*
Y27165D01*
X274850Y27832D01*
X273517D01*
X272851Y27165D01*
Y25832D01*
X273517Y25166D01*
X384183Y18834D02*
X384850Y18168D01*
Y16835D01*
X384183Y16168D01*
X381518D01*
X380851Y16835D01*
Y18168D01*
X381518Y18834D01*
X380851Y22833D02*
Y20167D01*
X383517Y22833D01*
X384183D01*
X384850Y22166D01*
Y20833D01*
X384183Y20167D01*
X380851Y26165D02*
X384850D01*
X382850Y24166D01*
Y26832D01*
X377183Y18834D02*
X377850Y18168D01*
Y16835D01*
X377183Y16168D01*
X374517D01*
X373851Y16835D01*
Y18168D01*
X374517Y18834D01*
X373851Y22833D02*
Y20167D01*
X376517Y22833D01*
X377183D01*
X377850Y22166D01*
Y20833D01*
X377183Y20167D01*
Y24166D02*
X377850Y24832D01*
Y26165D01*
X377183Y26832D01*
X376517D01*
X375850Y26165D01*
Y25499D01*
Y26165D01*
X375184Y26832D01*
X374517D01*
X373851Y26165D01*
Y24832D01*
X374517Y24166D01*
X375183Y57834D02*
X375850Y57168D01*
Y55835D01*
X375183Y55168D01*
X372517D01*
X371851Y55835D01*
Y57168D01*
X372517Y57834D01*
X371851Y61833D02*
Y59167D01*
X374517Y61833D01*
X375183D01*
X375850Y61166D01*
Y59834D01*
X375183Y59167D01*
X371851Y65832D02*
Y63166D01*
X374517Y65832D01*
X375183D01*
X375850Y65165D01*
Y63832D01*
X375183Y63166D01*
X381183Y59501D02*
X381850Y58834D01*
Y57501D01*
X381183Y56835D01*
X378518D01*
X377851Y57501D01*
Y58834D01*
X378518Y59501D01*
X377851Y63499D02*
Y60834D01*
X380517Y63499D01*
X381183D01*
X381850Y62833D01*
Y61500D01*
X381183Y60834D01*
X377851Y64832D02*
Y66165D01*
Y65499D01*
X381850D01*
X381183Y64832D01*
X272517Y63166D02*
X271851Y63832D01*
Y65165D01*
X272517Y65832D01*
X275183D01*
X275850Y65165D01*
Y63832D01*
X275183Y63166D01*
X275850Y59167D02*
Y61833D01*
X273184Y59167D01*
X272517D01*
X271851Y59834D01*
Y61167D01*
X272517Y61833D01*
Y57834D02*
X271851Y57168D01*
Y55835D01*
X272517Y55168D01*
X275183D01*
X275850Y55835D01*
Y57168D01*
X275183Y57834D01*
X272517D01*
X263517Y63833D02*
X262851Y64499D01*
Y65832D01*
X263517Y66498D01*
X266183D01*
X266850Y65832D01*
Y64499D01*
X266183Y63833D01*
X266850Y62500D02*
Y61167D01*
Y61833D01*
X262851D01*
X263517Y62500D01*
X266183Y59167D02*
X266850Y58501D01*
Y57168D01*
X266183Y56502D01*
X263517D01*
X262851Y57168D01*
Y58501D01*
X263517Y59167D01*
X264184D01*
X264850Y58501D01*
Y56502D01*
X198664Y173667D02*
X199331Y173001D01*
Y171668D01*
X198664Y171002D01*
X195999D01*
X195332Y171668D01*
Y173001D01*
X195999Y173667D01*
X195332Y175000D02*
Y176333D01*
Y175667D01*
X199331D01*
X198664Y175000D01*
Y178333D02*
X199331Y178999D01*
Y180332D01*
X198664Y180998D01*
X197998D01*
X197332Y180332D01*
X196665Y180998D01*
X195999D01*
X195332Y180332D01*
Y178999D01*
X195999Y178333D01*
X196665D01*
X197332Y178999D01*
X197998Y178333D01*
X198664D01*
X197332Y178999D02*
Y180332D01*
X246665Y173667D02*
X247331Y173001D01*
Y171668D01*
X246665Y171002D01*
X243999D01*
X243332Y171668D01*
Y173001D01*
X243999Y173667D01*
X243332Y175000D02*
Y176333D01*
Y175667D01*
X247331D01*
X246665Y175000D01*
X247331Y178333D02*
Y180998D01*
X246665D01*
X243999Y178333D01*
X243332D01*
X234665Y173667D02*
X235331Y173001D01*
Y171668D01*
X234665Y171002D01*
X231999D01*
X231332Y171668D01*
Y173001D01*
X231999Y173667D01*
X231332Y175000D02*
Y176333D01*
Y175667D01*
X235331D01*
X234665Y175000D01*
X235331Y180998D02*
X234665Y179666D01*
X233332Y178333D01*
X231999D01*
X231332Y178999D01*
Y180332D01*
X231999Y180998D01*
X232665D01*
X233332Y180332D01*
Y178333D01*
X204664Y173667D02*
X205331Y173001D01*
Y171668D01*
X204664Y171002D01*
X201999D01*
X201332Y171668D01*
Y173001D01*
X201999Y173667D01*
X201332Y175000D02*
Y176333D01*
Y175667D01*
X205331D01*
X204664Y175000D01*
X205331Y180998D02*
Y178333D01*
X203332D01*
X203998Y179666D01*
Y180332D01*
X203332Y180998D01*
X201999D01*
X201332Y180332D01*
Y178999D01*
X201999Y178333D01*
X240665Y173667D02*
X241331Y173001D01*
Y171668D01*
X240665Y171002D01*
X237999D01*
X237332Y171668D01*
Y173001D01*
X237999Y173667D01*
X237332Y175000D02*
Y176333D01*
Y175667D01*
X241331D01*
X240665Y175000D01*
X237332Y180332D02*
X241331D01*
X239332Y178333D01*
Y180998D01*
X192665Y173667D02*
X193331Y173001D01*
Y171668D01*
X192665Y171002D01*
X189999D01*
X189332Y171668D01*
Y173001D01*
X189999Y173667D01*
X189332Y175000D02*
Y176333D01*
Y175667D01*
X193331D01*
X192665Y175000D01*
Y178333D02*
X193331Y178999D01*
Y180332D01*
X192665Y180998D01*
X191998D01*
X191332Y180332D01*
Y179666D01*
Y180332D01*
X190665Y180998D01*
X189999D01*
X189332Y180332D01*
Y178999D01*
X189999Y178333D01*
X63833Y18167D02*
X64499Y17501D01*
Y16168D01*
X63833Y15502D01*
X61167D01*
X60501Y16168D01*
Y17501D01*
X61167Y18167D01*
X60501Y19500D02*
Y20833D01*
Y20167D01*
X64499D01*
X63833Y19500D01*
X60501Y25498D02*
Y22833D01*
X63166Y25498D01*
X63833D01*
X64499Y24832D01*
Y23499D01*
X63833Y22833D01*
X70833Y18834D02*
X71499Y18167D01*
Y16835D01*
X70833Y16168D01*
X68167D01*
X67501Y16835D01*
Y18167D01*
X68167Y18834D01*
X67501Y20167D02*
Y21500D01*
Y20833D01*
X71499D01*
X70833Y20167D01*
X67501Y23499D02*
Y24832D01*
Y24166D01*
X71499D01*
X70833Y23499D01*
X169833Y16167D02*
X170499Y15501D01*
Y14168D01*
X169833Y13502D01*
X167167D01*
X166501Y14168D01*
Y15501D01*
X167167Y16167D01*
X166501Y17500D02*
Y18833D01*
Y18167D01*
X170499D01*
X169833Y17500D01*
Y20833D02*
X170499Y21499D01*
Y22832D01*
X169833Y23498D01*
X167167D01*
X166501Y22832D01*
Y21499D01*
X167167Y20833D01*
X169833D01*
X162833Y18834D02*
X163499Y18167D01*
Y16834D01*
X162833Y16168D01*
X160167D01*
X159501Y16834D01*
Y18167D01*
X160167Y18834D01*
Y20166D02*
X159501Y20833D01*
Y22166D01*
X160167Y22832D01*
X162833D01*
X163499Y22166D01*
Y20833D01*
X162833Y20166D01*
X162167D01*
X161500Y20833D01*
Y22832D01*
X80166Y13833D02*
X80833Y14499D01*
X82166D01*
X82832Y13833D01*
Y11167D01*
X82166Y10501D01*
X80833D01*
X80166Y11167D01*
X78834Y13833D02*
X78167Y14499D01*
X76834D01*
X76168Y13833D01*
Y13167D01*
X76834Y12500D01*
X76168Y11834D01*
Y11167D01*
X76834Y10501D01*
X78167D01*
X78834Y11167D01*
Y11834D01*
X78167Y12500D01*
X78834Y13167D01*
Y13833D01*
X78167Y12500D02*
X76834D01*
X180166Y15833D02*
X180833Y16499D01*
X182166D01*
X182832Y15833D01*
Y13167D01*
X182166Y12501D01*
X180833D01*
X180166Y13167D01*
X178833Y16499D02*
X176168D01*
Y15833D01*
X178833Y13167D01*
Y12501D01*
X67833Y61834D02*
X68499Y61167D01*
Y59834D01*
X67833Y59168D01*
X65167D01*
X64501Y59834D01*
Y61167D01*
X65167Y61834D01*
X68499Y65832D02*
X67833Y64499D01*
X66500Y63166D01*
X65167D01*
X64501Y63833D01*
Y65166D01*
X65167Y65832D01*
X65834D01*
X66500Y65166D01*
Y63166D01*
X73833Y61834D02*
X74499Y61167D01*
Y59834D01*
X73833Y59168D01*
X71167D01*
X70501Y59834D01*
Y61167D01*
X71167Y61834D01*
X74499Y65832D02*
Y63166D01*
X72500D01*
X73166Y64499D01*
Y65166D01*
X72500Y65832D01*
X71167D01*
X70501Y65166D01*
Y63833D01*
X71167Y63166D01*
X168833Y61834D02*
X169499Y61167D01*
Y59834D01*
X168833Y59168D01*
X166167D01*
X165501Y59834D01*
Y61167D01*
X166167Y61834D01*
X165501Y65166D02*
X169499D01*
X167500Y63166D01*
Y65832D01*
X162833Y61834D02*
X163499Y61167D01*
Y59834D01*
X162833Y59168D01*
X160167D01*
X159501Y59834D01*
Y61167D01*
X160167Y61834D01*
X162833Y63166D02*
X163499Y63833D01*
Y65166D01*
X162833Y65832D01*
X162167D01*
X161500Y65166D01*
Y64499D01*
Y65166D01*
X160834Y65832D01*
X160167D01*
X159501Y65166D01*
Y63833D01*
X160167Y63166D01*
X83166Y54833D02*
X83833Y55499D01*
X85166D01*
X85832Y54833D01*
Y52167D01*
X85166Y51501D01*
X83833D01*
X83166Y52167D01*
X79168Y51501D02*
X81833D01*
X79168Y54166D01*
Y54833D01*
X79834Y55499D01*
X81167D01*
X81833Y54833D01*
X177500Y53833D02*
X178166Y54499D01*
X179499D01*
X180166Y53833D01*
Y51167D01*
X179499Y50501D01*
X178166D01*
X177500Y51167D01*
X176167Y50501D02*
X174834D01*
X175501D01*
Y54499D01*
X176167Y53833D01*
D12*
X173201Y21689D02*
Y47772D01*
X185799Y21689D02*
Y45311D01*
X171201Y58689D02*
Y84772D01*
X183799Y58689D02*
Y82311D01*
X73201Y18689D02*
Y44772D01*
X85799Y18689D02*
Y42311D01*
X76201Y59689D02*
Y85772D01*
X88799Y59689D02*
Y83311D01*
X357299Y116685D02*
Y140307D01*
X344701Y116685D02*
Y142768D01*
D13*
X434500Y341300D02*
Y345400D01*
X429500D02*
X434500D01*
X429500Y341300D02*
Y345400D01*
Y334600D02*
Y338800D01*
Y334600D02*
X434500D01*
Y338700D01*
X408500Y334600D02*
Y338700D01*
X403500Y334600D02*
X408500D01*
X403500D02*
Y338800D01*
Y341300D02*
Y345400D01*
X408500D01*
Y341300D02*
Y345400D01*
X381500Y341300D02*
Y345400D01*
X386500D01*
Y341200D02*
Y345400D01*
Y334600D02*
Y338700D01*
X381500Y334600D02*
X386500D01*
X381500D02*
Y338700D01*
X362500Y334600D02*
Y338700D01*
X357500Y334600D02*
X362500D01*
X357500D02*
Y338800D01*
Y341300D02*
Y345400D01*
X362500D01*
Y341300D02*
Y345400D01*
X345500Y334600D02*
Y338700D01*
X340500Y334600D02*
X345500D01*
X340500D02*
Y338800D01*
Y341300D02*
Y345400D01*
X345500D01*
Y341300D02*
Y345400D01*
X325500Y334600D02*
Y338700D01*
X320500Y334600D02*
X325500D01*
X320500D02*
Y338800D01*
Y341300D02*
Y345400D01*
X325500D01*
Y341300D02*
Y345400D01*
X302500Y341300D02*
Y345400D01*
X297500D02*
X302500D01*
X297500Y341300D02*
Y345400D01*
Y334600D02*
Y338800D01*
Y334600D02*
X302500D01*
Y338700D01*
X288500Y341300D02*
Y345400D01*
X283500D02*
X288500D01*
X283500Y341300D02*
Y345400D01*
Y334600D02*
Y338800D01*
Y334600D02*
X288500D01*
Y338700D01*
X272500Y334600D02*
Y338700D01*
X267500Y334600D02*
X272500D01*
X267500D02*
Y338800D01*
Y341300D02*
Y345400D01*
X272500D01*
Y341300D02*
Y345400D01*
X257500Y341300D02*
Y345400D01*
X252500D02*
X257500D01*
X252500Y341300D02*
Y345400D01*
Y334600D02*
Y338800D01*
Y334600D02*
X257500D01*
Y338700D01*
X241000Y341300D02*
Y345400D01*
X236000D02*
X241000D01*
X236000Y341300D02*
Y345400D01*
Y334600D02*
Y338800D01*
Y334600D02*
X241000D01*
Y338700D01*
X222500Y341300D02*
Y345400D01*
X217500D02*
X222500D01*
X217500Y341300D02*
Y345400D01*
Y334600D02*
Y338800D01*
Y334600D02*
X222500D01*
Y338700D01*
X210000Y341300D02*
Y345400D01*
X205000D02*
X210000D01*
X205000Y341300D02*
Y345400D01*
Y334600D02*
Y338800D01*
Y334600D02*
X210000D01*
Y338700D01*
X195500Y341300D02*
Y345400D01*
X190500D02*
X195500D01*
X190500Y341300D02*
Y345400D01*
Y334600D02*
Y338800D01*
Y334600D02*
X195500D01*
Y338700D01*
X165500Y341300D02*
Y345400D01*
X160500D02*
X165500D01*
X160500Y341300D02*
Y345400D01*
Y334600D02*
Y338800D01*
Y334600D02*
X165500D01*
Y338700D01*
X175000Y341300D02*
Y345400D01*
X180000D01*
Y341200D02*
Y345400D01*
Y334600D02*
Y338700D01*
X175000Y334600D02*
X180000D01*
X175000D02*
Y338700D01*
X147500Y341300D02*
Y345400D01*
X142500D02*
X147500D01*
X142500Y341300D02*
Y345400D01*
Y334600D02*
Y338800D01*
Y334600D02*
X147500D01*
Y338700D01*
X137500Y341300D02*
Y345400D01*
X132500D02*
X137500D01*
X132500Y341300D02*
Y345400D01*
Y334600D02*
Y338800D01*
Y334600D02*
X137500D01*
Y338700D01*
X127500Y341300D02*
Y345400D01*
X122500D02*
X127500D01*
X122500Y341300D02*
Y345400D01*
Y334600D02*
Y338800D01*
Y334600D02*
X127500D01*
Y338700D01*
X117500Y341300D02*
Y345400D01*
X112500D02*
X117500D01*
X112500Y341300D02*
Y345400D01*
Y334600D02*
Y338800D01*
Y334600D02*
X117500D01*
Y338700D01*
X97500Y341300D02*
Y345400D01*
X92500D02*
X97500D01*
X92500Y341300D02*
Y345400D01*
Y334600D02*
Y338800D01*
Y334600D02*
X97500D01*
Y338700D01*
X107500Y341300D02*
Y345400D01*
X102500D02*
X107500D01*
X102500Y341300D02*
Y345400D01*
Y334600D02*
Y338800D01*
Y334600D02*
X107500D01*
Y338700D01*
X87500Y341300D02*
Y345400D01*
X82500D02*
X87500D01*
X82500Y341300D02*
Y345400D01*
Y334600D02*
Y338800D01*
Y334600D02*
X87500D01*
Y338700D01*
X77500Y341300D02*
Y345400D01*
X72500D02*
X77500D01*
X72500Y341300D02*
Y345400D01*
Y334600D02*
Y338800D01*
Y334600D02*
X77500D01*
Y338700D01*
X267350Y74800D02*
Y78900D01*
X262350D02*
X267350D01*
X262350Y74800D02*
Y78900D01*
Y68100D02*
Y72300D01*
Y68100D02*
X267350D01*
Y72200D01*
X276350Y74800D02*
Y78900D01*
X271350D02*
X276350D01*
X271350Y74800D02*
Y78900D01*
Y68100D02*
Y72300D01*
Y68100D02*
X276350D01*
Y72200D01*
X270350Y35800D02*
Y39900D01*
X265350D02*
X270350D01*
X265350Y35800D02*
Y39900D01*
Y29100D02*
Y33300D01*
Y29100D02*
X270350D01*
Y33200D01*
X277350Y35800D02*
Y39900D01*
X272350D02*
X277350D01*
X272350Y35800D02*
Y39900D01*
Y29100D02*
Y33300D01*
Y29100D02*
X277350D01*
Y33200D01*
X376350Y74800D02*
Y78900D01*
X371350D02*
X376350D01*
X371350Y74800D02*
Y78900D01*
Y68100D02*
Y72300D01*
Y68100D02*
X376350D01*
Y72200D01*
X382350Y74800D02*
Y78900D01*
X377350D02*
X382350D01*
X377350Y74800D02*
Y78900D01*
Y68100D02*
Y72300D01*
Y68100D02*
X382350D01*
Y72200D01*
X385350Y34950D02*
Y39050D01*
X380350D02*
X385350D01*
X380350Y34950D02*
Y39050D01*
Y28250D02*
Y32450D01*
Y28250D02*
X385350D01*
Y32350D01*
X378350Y34800D02*
Y38900D01*
X373350D02*
X378350D01*
X373350Y34800D02*
Y38900D01*
Y28100D02*
Y32300D01*
Y28100D02*
X378350D01*
Y32200D01*
X163000Y34650D02*
Y38750D01*
X158000D02*
X163000D01*
X158000Y34650D02*
Y38750D01*
Y27950D02*
Y32150D01*
Y27950D02*
X163000D01*
Y32050D01*
X171000Y34800D02*
Y38900D01*
X166000D02*
X171000D01*
X166000Y34800D02*
Y38900D01*
Y28100D02*
Y32300D01*
Y28100D02*
X171000D01*
Y32200D01*
X164000Y73800D02*
Y77900D01*
X159000D02*
X164000D01*
X159000Y73800D02*
Y77900D01*
Y67100D02*
Y71300D01*
Y67100D02*
X164000D01*
Y71200D01*
X170000Y73800D02*
Y77900D01*
X165000D02*
X170000D01*
X165000Y73800D02*
Y77900D01*
Y67100D02*
Y71300D01*
Y67100D02*
X170000D01*
Y71200D01*
X65000Y33800D02*
Y37900D01*
X60000D02*
X65000D01*
X60000Y33800D02*
Y37900D01*
Y27100D02*
Y31300D01*
Y27100D02*
X65000D01*
Y31200D01*
X72000Y33800D02*
Y37900D01*
X67000D02*
X72000D01*
X67000Y33800D02*
Y37900D01*
Y27100D02*
Y31300D01*
Y27100D02*
X72000D01*
Y31200D01*
X75000Y74950D02*
Y79050D01*
X70000D02*
X75000D01*
X70000Y74950D02*
Y79050D01*
Y68250D02*
Y72450D01*
Y68250D02*
X75000D01*
Y72350D01*
X69000Y74800D02*
Y78900D01*
X64000D02*
X69000D01*
X64000Y74800D02*
Y78900D01*
Y68100D02*
Y72300D01*
Y68100D02*
X69000D01*
Y72200D01*
X230832Y158600D02*
Y162700D01*
Y158600D02*
X235832D01*
Y162700D01*
Y165200D02*
Y169400D01*
X230832D02*
X235832D01*
X230832Y165300D02*
Y169400D01*
X242832Y158600D02*
Y162700D01*
Y158600D02*
X247832D01*
Y162700D01*
Y165200D02*
Y169400D01*
X242832D02*
X247832D01*
X242832Y165300D02*
Y169400D01*
X200832Y158600D02*
Y162700D01*
Y158600D02*
X205832D01*
Y162700D01*
Y165200D02*
Y169400D01*
X200832D02*
X205832D01*
X200832Y165300D02*
Y169400D01*
X194832Y158600D02*
Y162700D01*
Y158600D02*
X199832D01*
Y162700D01*
Y165200D02*
Y169400D01*
X194832D02*
X199832D01*
X194832Y165300D02*
Y169400D01*
X188832Y158600D02*
Y162700D01*
Y158600D02*
X193832D01*
Y162700D01*
Y165200D02*
Y169400D01*
X188832D02*
X193832D01*
X188832Y165300D02*
Y169400D01*
X236832Y158600D02*
Y162700D01*
Y158600D02*
X241832D01*
Y162700D01*
Y165200D02*
Y169400D01*
X236832D02*
X241832D01*
X236832Y165300D02*
Y169400D01*
X364500Y122450D02*
Y126550D01*
X359500Y122450D02*
X364500D01*
X359500D02*
Y126650D01*
Y129150D02*
Y133250D01*
X364500D01*
Y129150D02*
Y133250D01*
X371500Y122450D02*
Y126550D01*
X366500Y122450D02*
X371500D01*
X366500D02*
Y126650D01*
Y129150D02*
Y133250D01*
X371500D01*
Y129150D02*
Y133250D01*
M02*
