G04*
G04 #@! TF.GenerationSoftware,Altium Limited,Altium Designer,22.3.1 (43)*
G04*
G04 Layer_Color=32768*
%FSLAX25Y25*%
%MOIN*%
G70*
G04*
G04 #@! TF.SameCoordinates,D44AF7EC-015F-415D-BC9C-BA0083E1B9C0*
G04*
G04*
G04 #@! TF.FilePolarity,Positive*
G04*
G01*
G75*
%ADD57C,0.00394*%
%ADD58C,0.00197*%
D57*
X430425Y343150D02*
X433575D01*
Y336850D02*
Y343150D01*
X430425Y336850D02*
X433575D01*
X430425D02*
Y343150D01*
X404425Y336850D02*
Y343150D01*
Y336850D02*
X407575D01*
Y343150D01*
X404425D02*
X407575D01*
X385575Y336850D02*
Y343150D01*
X382425D02*
X385575D01*
X382425Y336850D02*
Y343150D01*
Y336850D02*
X385575D01*
X358425D02*
Y343150D01*
Y336850D02*
X361575D01*
Y343150D01*
X358425D02*
X361575D01*
X341425Y336850D02*
Y343150D01*
Y336850D02*
X344575D01*
Y343150D01*
X341425D02*
X344575D01*
X321425Y336850D02*
Y343150D01*
Y336850D02*
X324575D01*
Y343150D01*
X321425D02*
X324575D01*
X298425D02*
X301575D01*
Y336850D02*
Y343150D01*
X298425Y336850D02*
X301575D01*
X298425D02*
Y343150D01*
X284425D02*
X287575D01*
Y336850D02*
Y343150D01*
X284425Y336850D02*
X287575D01*
X284425D02*
Y343150D01*
X268425Y336850D02*
Y343150D01*
Y336850D02*
X271575D01*
Y343150D01*
X268425D02*
X271575D01*
X253425D02*
X256575D01*
Y336850D02*
Y343150D01*
X253425Y336850D02*
X256575D01*
X253425D02*
Y343150D01*
X236925D02*
X240075D01*
Y336850D02*
Y343150D01*
X236925Y336850D02*
X240075D01*
X236925D02*
Y343150D01*
X218425D02*
X221575D01*
Y336850D02*
Y343150D01*
X218425Y336850D02*
X221575D01*
X218425D02*
Y343150D01*
X205925D02*
X209075D01*
Y336850D02*
Y343150D01*
X205925Y336850D02*
X209075D01*
X205925D02*
Y343150D01*
X191425D02*
X194575D01*
Y336850D02*
Y343150D01*
X191425Y336850D02*
X194575D01*
X191425D02*
Y343150D01*
X161425D02*
X164575D01*
Y336850D02*
Y343150D01*
X161425Y336850D02*
X164575D01*
X161425D02*
Y343150D01*
X179075Y336850D02*
Y343150D01*
X175925D02*
X179075D01*
X175925Y336850D02*
Y343150D01*
Y336850D02*
X179075D01*
X143425Y343150D02*
X146575D01*
Y336850D02*
Y343150D01*
X143425Y336850D02*
X146575D01*
X143425D02*
Y343150D01*
X133425D02*
X136575D01*
Y336850D02*
Y343150D01*
X133425Y336850D02*
X136575D01*
X133425D02*
Y343150D01*
X123425D02*
X126575D01*
Y336850D02*
Y343150D01*
X123425Y336850D02*
X126575D01*
X123425D02*
Y343150D01*
X113425D02*
X116575D01*
Y336850D02*
Y343150D01*
X113425Y336850D02*
X116575D01*
X113425D02*
Y343150D01*
X93425D02*
X96575D01*
Y336850D02*
Y343150D01*
X93425Y336850D02*
X96575D01*
X93425D02*
Y343150D01*
X103425D02*
X106575D01*
Y336850D02*
Y343150D01*
X103425Y336850D02*
X106575D01*
X103425D02*
Y343150D01*
X83425D02*
X86575D01*
Y336850D02*
Y343150D01*
X83425Y336850D02*
X86575D01*
X83425D02*
Y343150D01*
X73425D02*
X76575D01*
Y336850D02*
Y343150D01*
X73425Y336850D02*
X76575D01*
X73425D02*
Y343150D01*
X378350Y197425D02*
Y200575D01*
Y197425D02*
X384650D01*
Y200575D01*
X378350D02*
X384650D01*
Y187425D02*
Y190575D01*
X378350D02*
X384650D01*
X378350Y187425D02*
Y190575D01*
Y187425D02*
X384650D01*
X378350Y207425D02*
Y210575D01*
Y207425D02*
X384650D01*
Y210575D01*
X378350D02*
X384650D01*
X378350Y217425D02*
Y220575D01*
Y217425D02*
X384650D01*
Y220575D01*
X378350D02*
X384650D01*
X104567Y261614D02*
X107126Y264173D01*
X104567Y235827D02*
Y264173D01*
Y235827D02*
X125433D01*
Y264173D01*
X104567D02*
X125433D01*
X175925Y266850D02*
Y273150D01*
X179075D01*
Y266850D02*
Y273150D01*
X175925Y266850D02*
X179075D01*
X191425D02*
X194575D01*
Y273150D01*
X191425D02*
X194575D01*
X191425Y266850D02*
Y273150D01*
X161425Y266850D02*
Y273150D01*
X164575D01*
Y266850D02*
Y273150D01*
X161425Y266850D02*
X164575D01*
X398850Y267425D02*
X405150D01*
X398850D02*
Y270575D01*
X405150D01*
Y267425D02*
Y270575D01*
X398850Y247425D02*
X405150D01*
X398850D02*
Y250575D01*
X405150D01*
Y247425D02*
Y250575D01*
X363339Y268843D02*
X380661D01*
Y249157D02*
Y268843D01*
X363339Y249157D02*
X380661D01*
X363339D02*
Y268843D01*
Y266283D02*
X365898Y268843D01*
X268425Y266850D02*
Y273150D01*
X271575D01*
Y266850D02*
Y273150D01*
X268425Y266850D02*
X271575D01*
X253425D02*
Y273150D01*
X256575D01*
Y266850D02*
Y273150D01*
X253425Y266850D02*
X256575D01*
X284425D02*
Y273150D01*
X287575D01*
Y266850D02*
Y273150D01*
X284425Y266850D02*
X287575D01*
X236925D02*
Y273150D01*
X240075D01*
Y266850D02*
Y273150D01*
X236925Y266850D02*
X240075D01*
X333850Y250575D02*
X340150D01*
Y247425D02*
Y250575D01*
X333850Y247425D02*
X340150D01*
X333850D02*
Y250575D01*
Y263575D02*
X340150D01*
Y260425D02*
Y263575D01*
X333850Y260425D02*
X340150D01*
X333850D02*
Y263575D01*
Y275575D02*
X340150D01*
Y272425D02*
Y275575D01*
X333850Y272425D02*
X340150D01*
X333850D02*
Y275575D01*
X298425Y266850D02*
Y273150D01*
X301575D01*
Y266850D02*
Y273150D01*
X298425Y266850D02*
X301575D01*
X482425Y53350D02*
X485575D01*
Y59650D01*
X482425D02*
X485575D01*
X482425Y53350D02*
Y59650D01*
X492425Y53350D02*
X495575D01*
Y59650D01*
X492425D02*
X495575D01*
X492425Y53350D02*
Y59650D01*
X502425Y53350D02*
X505575D01*
Y59650D01*
X502425D02*
X505575D01*
X502425Y53350D02*
Y59650D01*
X522425Y104150D02*
X525575D01*
X522425Y97850D02*
Y104150D01*
Y97850D02*
X525575D01*
Y104150D01*
X532425D02*
X535575D01*
X532425Y97850D02*
Y104150D01*
Y97850D02*
X535575D01*
Y104150D01*
X512425D02*
X515575D01*
X512425Y97850D02*
Y104150D01*
Y97850D02*
X515575D01*
Y104150D01*
X512425Y59650D02*
X515575D01*
X512425Y53350D02*
Y59650D01*
Y53350D02*
X515575D01*
Y59650D01*
X472425Y53350D02*
X475575D01*
Y59650D01*
X472425D02*
X475575D01*
X472425Y53350D02*
Y59650D01*
X492425Y97850D02*
X495575D01*
Y104150D01*
X492425D02*
X495575D01*
X492425Y97850D02*
Y104150D01*
X482425Y97850D02*
X485575D01*
Y104150D01*
X482425D02*
X485575D01*
X482425Y97850D02*
Y104150D01*
X502425Y97850D02*
X505575D01*
Y104150D01*
X502425D02*
X505575D01*
X502425Y97850D02*
Y104150D01*
X522425Y59650D02*
X525575D01*
X522425Y53350D02*
Y59650D01*
Y53350D02*
X525575D01*
Y59650D01*
X532425D02*
X535575D01*
X532425Y53350D02*
Y59650D01*
Y53350D02*
X535575D01*
Y59650D01*
X502425Y164150D02*
X505575D01*
X502425Y157850D02*
Y164150D01*
Y157850D02*
X505575D01*
Y164150D01*
X492425D02*
X495575D01*
X492425Y157850D02*
Y164150D01*
Y157850D02*
X495575D01*
Y164150D01*
X482425D02*
X485575D01*
X482425Y157850D02*
Y164150D01*
Y157850D02*
X485575D01*
Y164150D01*
X532425Y157850D02*
X535575D01*
Y164150D01*
X532425D02*
X535575D01*
X532425Y157850D02*
Y164150D01*
X512425Y157850D02*
X515575D01*
Y164150D01*
X512425D02*
X515575D01*
X512425Y157850D02*
Y164150D01*
X193350Y87425D02*
X199650D01*
X193350D02*
Y90575D01*
X199650D01*
Y87425D02*
Y90575D01*
X472425Y97850D02*
X475575D01*
Y104150D01*
X472425D02*
X475575D01*
X472425Y97850D02*
Y104150D01*
X542425Y157850D02*
X545575D01*
Y164150D01*
X542425D02*
X545575D01*
X542425Y157850D02*
Y164150D01*
Y104150D02*
X545575D01*
X542425Y97850D02*
Y104150D01*
Y97850D02*
X545575D01*
Y104150D01*
X472425Y164150D02*
X475575D01*
X472425Y157850D02*
Y164150D01*
Y157850D02*
X475575D01*
Y164150D01*
X542425Y59650D02*
X545575D01*
X542425Y53350D02*
Y59650D01*
Y53350D02*
X545575D01*
Y59650D01*
X522425Y157850D02*
X525575D01*
Y164150D01*
X522425D02*
X525575D01*
X522425Y157850D02*
Y164150D01*
X263276Y76650D02*
X266425D01*
Y70350D02*
Y76650D01*
X263276Y70350D02*
X266425D01*
X263276D02*
Y76650D01*
X272276D02*
X275425D01*
Y70350D02*
Y76650D01*
X272276Y70350D02*
X275425D01*
X272276D02*
Y76650D01*
X266276Y37650D02*
X269425D01*
Y31350D02*
Y37650D01*
X266276Y31350D02*
X269425D01*
X266276D02*
Y37650D01*
X273276D02*
X276425D01*
Y31350D02*
Y37650D01*
X273276Y31350D02*
X276425D01*
X273276D02*
Y37650D01*
X372276Y76650D02*
X375425D01*
Y70350D02*
Y76650D01*
X372276Y70350D02*
X375425D01*
X372276D02*
Y76650D01*
X378276D02*
X381425D01*
Y70350D02*
Y76650D01*
X378276Y70350D02*
X381425D01*
X378276D02*
Y76650D01*
X381276Y36799D02*
X384425D01*
Y30500D02*
Y36799D01*
X381276Y30500D02*
X384425D01*
X381276D02*
Y36799D01*
X374276Y36650D02*
X377425D01*
Y30350D02*
Y36650D01*
X374276Y30350D02*
X377425D01*
X374276D02*
Y36650D01*
X298850Y28925D02*
Y32075D01*
Y28925D02*
X305150D01*
Y32075D01*
X298850D02*
X305150D01*
Y37925D02*
Y41075D01*
X298850D02*
X305150D01*
X298850Y37925D02*
Y41075D01*
Y37925D02*
X305150D01*
X298850Y19925D02*
Y23075D01*
Y19925D02*
X305150D01*
Y23075D01*
X298850D02*
X305150D01*
X243150Y28925D02*
Y32075D01*
X236850D02*
X243150D01*
X236850Y28925D02*
Y32075D01*
Y28925D02*
X243150D01*
X236850Y37925D02*
Y41075D01*
Y37925D02*
X243150D01*
Y41075D01*
X236850D02*
X243150D01*
X404850Y28925D02*
Y32075D01*
Y28925D02*
X411150D01*
Y32075D01*
X404850D02*
X411150D01*
X243150Y19925D02*
Y23075D01*
X236850D02*
X243150D01*
X236850Y19925D02*
Y23075D01*
Y19925D02*
X243150D01*
X411150Y37925D02*
Y41075D01*
X404850D02*
X411150D01*
X404850Y37925D02*
Y41075D01*
Y37925D02*
X411150D01*
X404850Y19925D02*
Y23075D01*
Y19925D02*
X411150D01*
Y23075D01*
X404850D02*
X411150D01*
X353150Y28925D02*
Y32075D01*
X346850D02*
X353150D01*
X346850Y28925D02*
Y32075D01*
Y28925D02*
X353150D01*
X346850Y37925D02*
Y41075D01*
Y37925D02*
X353150D01*
Y41075D01*
X346850D02*
X353150D01*
Y19925D02*
Y23075D01*
X346850D02*
X353150D01*
X346850Y19925D02*
Y23075D01*
Y19925D02*
X353150D01*
X404850Y67425D02*
Y70575D01*
Y67425D02*
X411150D01*
Y70575D01*
X404850D02*
X411150D01*
X298850Y67425D02*
Y70575D01*
Y67425D02*
X305150D01*
Y70575D01*
X298850D02*
X305150D01*
X411150Y76425D02*
Y79575D01*
X404850D02*
X411150D01*
X404850Y76425D02*
Y79575D01*
Y76425D02*
X411150D01*
X305150D02*
Y79575D01*
X298850D02*
X305150D01*
X298850Y76425D02*
Y79575D01*
Y76425D02*
X305150D01*
X404850Y58425D02*
Y61575D01*
Y58425D02*
X411150D01*
Y61575D01*
X404850D02*
X411150D01*
X298850Y58425D02*
Y61575D01*
Y58425D02*
X305150D01*
Y61575D01*
X298850D02*
X305150D01*
X353150Y67425D02*
Y70575D01*
X346850D02*
X353150D01*
X346850Y67425D02*
Y70575D01*
Y67425D02*
X353150D01*
X243150D02*
Y70575D01*
X236850D02*
X243150D01*
X236850Y67425D02*
Y70575D01*
Y67425D02*
X243150D01*
X346850Y76425D02*
Y79575D01*
Y76425D02*
X353150D01*
Y79575D01*
X346850D02*
X353150D01*
X236850Y76425D02*
Y79575D01*
Y76425D02*
X243150D01*
Y79575D01*
X236850D02*
X243150D01*
X353150Y58425D02*
Y61575D01*
X346850D02*
X353150D01*
X346850Y58425D02*
Y61575D01*
Y58425D02*
X353150D01*
X243150D02*
Y61575D01*
X236850D02*
X243150D01*
X236850Y58425D02*
Y61575D01*
Y58425D02*
X243150D01*
X158925Y36500D02*
X162075D01*
Y30201D02*
Y36500D01*
X158925Y30201D02*
X162075D01*
X158925D02*
Y36500D01*
X166925Y36650D02*
X170075D01*
Y30350D02*
Y36650D01*
X166925Y30350D02*
X170075D01*
X166925D02*
Y36650D01*
X173201Y21689D02*
Y45311D01*
Y21689D02*
X185799D01*
Y45311D01*
X173201D02*
X185799D01*
X173201Y40882D02*
X177630Y45311D01*
X171201Y58689D02*
Y82311D01*
Y58689D02*
X183799D01*
Y82311D01*
X171201D02*
X183799D01*
X171201Y77882D02*
X175630Y82311D01*
X159925Y75650D02*
X163075D01*
Y69350D02*
Y75650D01*
X159925Y69350D02*
X163075D01*
X159925D02*
Y75650D01*
X165925D02*
X169075D01*
Y69350D02*
Y75650D01*
X165925Y69350D02*
X169075D01*
X165925D02*
Y75650D01*
X199650Y47425D02*
Y50575D01*
X193350D02*
X199650D01*
X193350Y47425D02*
Y50575D01*
Y47425D02*
X199650D01*
X149650Y18925D02*
Y22075D01*
X143350D02*
X149650D01*
X143350Y18925D02*
Y22075D01*
Y18925D02*
X149650D01*
X199650Y38425D02*
Y41575D01*
X193350D02*
X199650D01*
X193350Y38425D02*
Y41575D01*
Y38425D02*
X199650D01*
X193350Y20425D02*
Y23575D01*
Y20425D02*
X199650D01*
Y23575D01*
X193350D02*
X199650D01*
Y29425D02*
Y32575D01*
X193350D02*
X199650D01*
X193350Y29425D02*
Y32575D01*
Y29425D02*
X199650D01*
X143350Y41925D02*
Y45075D01*
Y41925D02*
X149650D01*
Y45075D01*
X143350D02*
X149650D01*
X164594Y38406D02*
X176406D01*
Y26594D02*
Y38406D01*
X164594Y26594D02*
X176406D01*
X164594D02*
Y38406D01*
Y35846D02*
X167154Y38406D01*
X149650Y56925D02*
Y60075D01*
X143350D02*
X149650D01*
X143350Y56925D02*
Y60075D01*
Y56925D02*
X149650D01*
X199650Y78425D02*
Y81575D01*
X193350D02*
X199650D01*
X193350Y78425D02*
Y81575D01*
Y78425D02*
X199650D01*
X193350Y60425D02*
Y63575D01*
Y60425D02*
X199650D01*
Y63575D01*
X193350D02*
X199650D01*
Y69425D02*
Y72575D01*
X193350D02*
X199650D01*
X193350Y69425D02*
Y72575D01*
Y69425D02*
X199650D01*
X143350Y82925D02*
Y86075D01*
Y82925D02*
X149650D01*
Y86075D01*
X143350D02*
X149650D01*
X164594Y78406D02*
X176406D01*
Y66594D02*
Y78406D01*
X164594Y66594D02*
X176406D01*
X164594D02*
Y78406D01*
Y75846D02*
X167154Y78406D01*
X73201Y18689D02*
Y42311D01*
Y18689D02*
X85799D01*
Y42311D01*
X73201D02*
X85799D01*
X73201Y37882D02*
X77630Y42311D01*
X60925Y35650D02*
X64075D01*
Y29350D02*
Y35650D01*
X60925Y29350D02*
X64075D01*
X60925D02*
Y35650D01*
X67925D02*
X71075D01*
Y29350D02*
Y35650D01*
X67925Y29350D02*
X71075D01*
X67925D02*
Y35650D01*
X103650Y47425D02*
Y50575D01*
X97350D02*
X103650D01*
X97350Y47425D02*
Y50575D01*
Y47425D02*
X103650D01*
Y38425D02*
Y41575D01*
X97350D02*
X103650D01*
X97350Y38425D02*
Y41575D01*
Y38425D02*
X103650D01*
Y29425D02*
Y32575D01*
X97350D02*
X103650D01*
X97350Y29425D02*
Y32575D01*
Y29425D02*
X103650D01*
X97350Y20425D02*
Y23575D01*
Y20425D02*
X103650D01*
Y23575D01*
X97350D02*
X103650D01*
X76201Y59689D02*
Y83311D01*
Y59689D02*
X88799D01*
Y83311D01*
X76201D02*
X88799D01*
X76201Y78882D02*
X80630Y83311D01*
X70925Y76799D02*
X74075D01*
Y70500D02*
Y76799D01*
X70925Y70500D02*
X74075D01*
X70925D02*
Y76799D01*
X64925Y76650D02*
X68075D01*
Y70350D02*
Y76650D01*
X64925Y70350D02*
X68075D01*
X64925D02*
Y76650D01*
X68594Y78406D02*
X80406D01*
Y66594D02*
Y78406D01*
X68594Y66594D02*
X80406D01*
X68594D02*
Y78406D01*
Y75846D02*
X71154Y78406D01*
X68594Y38406D02*
X80406D01*
Y26594D02*
Y38406D01*
X68594Y26594D02*
X80406D01*
X68594D02*
Y38406D01*
Y35846D02*
X71154Y38406D01*
X353094Y134756D02*
X364906D01*
Y122945D02*
Y134756D01*
X353094Y122945D02*
X364906D01*
X353094D02*
Y134756D01*
Y132197D02*
X355654Y134756D01*
X231757Y160850D02*
X234906D01*
X231757D02*
Y167150D01*
X234906D01*
Y160850D02*
Y167150D01*
X243757Y160850D02*
X246906D01*
X243757D02*
Y167150D01*
X246906D01*
Y160850D02*
Y167150D01*
X201757Y160850D02*
X204906D01*
X201757D02*
Y167150D01*
X204906D01*
Y160850D02*
Y167150D01*
X195757Y160850D02*
X198906D01*
X195757D02*
Y167150D01*
X198906D01*
Y160850D02*
Y167150D01*
X189757Y160850D02*
X192906D01*
X189757D02*
Y167150D01*
X192906D01*
Y160850D02*
Y167150D01*
X237757Y160850D02*
X240906D01*
X237757D02*
Y167150D01*
X240906D01*
Y160850D02*
Y167150D01*
X213425Y205150D02*
X216575D01*
X213425Y198850D02*
Y205150D01*
Y198850D02*
X216575D01*
Y205150D01*
X360425Y124701D02*
Y131000D01*
Y124701D02*
X363575D01*
Y131000D01*
X360425D02*
X363575D01*
X367425Y124701D02*
Y131000D01*
Y124701D02*
X370575D01*
Y131000D01*
X367425D02*
X370575D01*
X344701Y135878D02*
X349130Y140307D01*
X344701D02*
X357299D01*
Y116685D02*
Y140307D01*
X344701Y116685D02*
X357299D01*
X344701D02*
Y140307D01*
X499850Y295575D02*
X506150D01*
Y292425D02*
Y295575D01*
X499850Y292425D02*
X506150D01*
X499850D02*
Y295575D01*
Y285575D02*
X506150D01*
Y282425D02*
Y285575D01*
X499850Y282425D02*
X506150D01*
X499850D02*
Y285575D01*
Y275575D02*
X506150D01*
Y272425D02*
Y275575D01*
X499850Y272425D02*
X506150D01*
X499850D02*
Y275575D01*
Y265575D02*
X506150D01*
Y262425D02*
Y265575D01*
X499850Y262425D02*
X506150D01*
X499850D02*
Y265575D01*
Y255575D02*
X506150D01*
Y252425D02*
Y255575D01*
X499850Y252425D02*
X506150D01*
X499850D02*
Y255575D01*
Y245575D02*
X506150D01*
Y242425D02*
Y245575D01*
X499850Y242425D02*
X506150D01*
X499850D02*
Y245575D01*
Y235575D02*
X506150D01*
Y232425D02*
Y235575D01*
X499850Y232425D02*
X506150D01*
X499850D02*
Y235575D01*
Y225575D02*
X506150D01*
Y222425D02*
Y225575D01*
X499850Y222425D02*
X506150D01*
X499850D02*
Y225575D01*
X225425Y198850D02*
Y205150D01*
X228575D01*
Y198850D02*
Y205150D01*
X225425Y198850D02*
X228575D01*
X231425D02*
Y205150D01*
X234575D01*
Y198850D02*
Y205150D01*
X231425Y198850D02*
X234575D01*
X210575D02*
Y205150D01*
X207425Y198850D02*
X210575D01*
X207425D02*
Y205150D01*
X210575D01*
X237425Y198850D02*
Y205150D01*
X240575D01*
Y198850D02*
Y205150D01*
X237425Y198850D02*
X240575D01*
X204575D02*
Y205150D01*
X201425Y198850D02*
X204575D01*
X201425D02*
Y205150D01*
X204575D01*
X56850Y188425D02*
X63150D01*
X56850D02*
Y191575D01*
X63150D01*
Y188425D02*
Y191575D01*
X255850Y182575D02*
X262150D01*
Y179425D02*
Y182575D01*
X255850Y179425D02*
X262150D01*
X255850D02*
Y182575D01*
X174350Y187575D02*
X180650D01*
Y184425D02*
Y187575D01*
X174350Y184425D02*
X180650D01*
X174350D02*
Y187575D01*
X56850Y178425D02*
X63150D01*
X56850D02*
Y181575D01*
X63150D01*
Y178425D02*
Y181575D01*
X255850Y176575D02*
X262150D01*
Y173425D02*
Y176575D01*
X255850Y173425D02*
X262150D01*
X255850D02*
Y176575D01*
X174350Y181575D02*
X180650D01*
Y178425D02*
Y181575D01*
X174350Y178425D02*
X180650D01*
X174350D02*
Y181575D01*
X86850Y166575D02*
X93150D01*
Y163425D02*
Y166575D01*
X86850Y163425D02*
X93150D01*
X86850D02*
Y166575D01*
X56850Y168425D02*
X63150D01*
X56850D02*
Y171575D01*
X63150D01*
Y168425D02*
Y171575D01*
X255850Y170575D02*
X262150D01*
Y167425D02*
Y170575D01*
X255850Y167425D02*
X262150D01*
X255850D02*
Y170575D01*
X174350Y175575D02*
X180650D01*
Y172425D02*
Y175575D01*
X174350Y172425D02*
X180650D01*
X174350D02*
Y175575D01*
X86850Y156575D02*
X93150D01*
Y153425D02*
Y156575D01*
X86850Y153425D02*
X93150D01*
X86850D02*
Y156575D01*
X56850Y158425D02*
X63150D01*
X56850D02*
Y161575D01*
X63150D01*
Y158425D02*
Y161575D01*
X255850Y164575D02*
X262150D01*
Y161425D02*
Y164575D01*
X255850Y161425D02*
X262150D01*
X255850D02*
Y164575D01*
X174350Y169575D02*
X180650D01*
Y166425D02*
Y169575D01*
X174350Y166425D02*
X180650D01*
X174350D02*
Y169575D01*
X86850Y146575D02*
X93150D01*
Y143425D02*
Y146575D01*
X86850Y143425D02*
X93150D01*
X86850D02*
Y146575D01*
X56850Y148425D02*
X63150D01*
X56850D02*
Y151575D01*
X63150D01*
Y148425D02*
Y151575D01*
X255850Y158575D02*
X262150D01*
Y155425D02*
Y158575D01*
X255850Y155425D02*
X262150D01*
X255850D02*
Y158575D01*
X174350Y163575D02*
X180650D01*
Y160425D02*
Y163575D01*
X174350Y160425D02*
X180650D01*
X174350D02*
Y163575D01*
X86850Y136575D02*
X93150D01*
Y133425D02*
Y136575D01*
X86850Y133425D02*
X93150D01*
X86850D02*
Y136575D01*
X56850Y138425D02*
X63150D01*
X56850D02*
Y141575D01*
X63150D01*
Y138425D02*
Y141575D01*
X56850Y128425D02*
X63150D01*
X56850D02*
Y131575D01*
X63150D01*
Y128425D02*
Y131575D01*
X56850Y118425D02*
X63150D01*
X56850D02*
Y121575D01*
X63150D01*
Y118425D02*
Y121575D01*
X255850Y148575D02*
X262150D01*
Y145425D02*
Y148575D01*
X255850Y145425D02*
X262150D01*
X255850D02*
Y148575D01*
X243575Y117850D02*
Y124150D01*
X240425Y117850D02*
X243575D01*
X240425D02*
Y124150D01*
X243575D01*
X174350Y157575D02*
X180650D01*
Y154425D02*
Y157575D01*
X174350Y154425D02*
X180650D01*
X174350D02*
Y157575D01*
X237575Y117850D02*
Y124150D01*
X234425Y117850D02*
X237575D01*
X234425D02*
Y124150D01*
X237575D01*
X174350Y151575D02*
X180650D01*
Y148425D02*
Y151575D01*
X174350Y148425D02*
X180650D01*
X174350D02*
Y151575D01*
X231575Y117850D02*
Y124150D01*
X228425Y117850D02*
X231575D01*
X228425D02*
Y124150D01*
X231575D01*
X174350Y145575D02*
X180650D01*
Y142425D02*
Y145575D01*
X174350Y142425D02*
X180650D01*
X174350D02*
Y145575D01*
X225575Y117850D02*
Y124150D01*
X222425Y117850D02*
X225575D01*
X222425D02*
Y124150D01*
X225575D01*
X204425Y117850D02*
Y124150D01*
X207575D01*
Y117850D02*
Y124150D01*
X204425Y117850D02*
X207575D01*
X219575D02*
Y124150D01*
X216425Y117850D02*
X219575D01*
X216425D02*
Y124150D01*
X219575D01*
X213575Y117850D02*
Y124150D01*
X210425Y117850D02*
X213575D01*
X210425D02*
Y124150D01*
X213575D01*
X47350Y85075D02*
X53650D01*
Y81925D02*
Y85075D01*
X47350Y81925D02*
X53650D01*
X47350D02*
Y85075D01*
X97350Y63575D02*
X103650D01*
Y60425D02*
Y63575D01*
X97350Y60425D02*
X103650D01*
X97350D02*
Y63575D01*
Y69425D02*
X103650D01*
X97350D02*
Y72575D01*
X103650D01*
Y69425D02*
Y72575D01*
X47350Y56925D02*
X53650D01*
X47350D02*
Y60075D01*
X53650D01*
Y56925D02*
Y60075D01*
X97350Y78425D02*
X103650D01*
X97350D02*
Y81575D01*
X103650D01*
Y78425D02*
Y81575D01*
X97350Y87425D02*
X103650D01*
X97350D02*
Y90575D01*
X103650D01*
Y87425D02*
Y90575D01*
X47350Y45075D02*
X53650D01*
Y41925D02*
Y45075D01*
X47350Y41925D02*
X53650D01*
X47350D02*
Y45075D01*
Y18925D02*
X53650D01*
X47350D02*
Y22075D01*
X53650D01*
Y18925D02*
Y22075D01*
X414425Y155850D02*
Y162150D01*
X417575D01*
Y155850D02*
Y162150D01*
X414425Y155850D02*
X417575D01*
X398575D02*
Y162150D01*
X395425Y155850D02*
X398575D01*
X395425D02*
Y162150D01*
X398575D01*
X417575Y115850D02*
Y122150D01*
X414425Y115850D02*
X417575D01*
X414425D02*
Y122150D01*
X417575D01*
X395425Y115850D02*
Y122150D01*
X398575D01*
Y115850D02*
Y122150D01*
X395425Y115850D02*
X398575D01*
D58*
X363185Y82327D02*
X392516D01*
Y60673D02*
Y82327D01*
X363185Y60673D02*
X392516D01*
X363185D02*
Y82327D01*
X257185Y43327D02*
X286516D01*
Y21673D02*
Y43327D01*
X257185Y21673D02*
X286516D01*
X257185D02*
Y43327D01*
X365185D02*
X394516D01*
Y21673D02*
Y43327D01*
X365185Y21673D02*
X394516D01*
X365185D02*
Y43327D01*
X255185Y82327D02*
X284516D01*
Y60673D02*
Y82327D01*
X255185Y60673D02*
X284516D01*
X255185D02*
Y82327D01*
X198761Y184571D02*
X239902D01*
Y143429D02*
Y184571D01*
X198761Y143429D02*
X239902D01*
X198761D02*
Y184571D01*
M02*
