G04*
G04 #@! TF.GenerationSoftware,Altium Limited,Altium Designer,22.3.1 (43)*
G04*
G04 Layer_Color=255*
%FSLAX25Y25*%
%MOIN*%
G70*
G04*
G04 #@! TF.SameCoordinates,D44AF7EC-015F-415D-BC9C-BA0083E1B9C0*
G04*
G04*
G04 #@! TF.FilePolarity,Positive*
G04*
G01*
G75*
%ADD18R,0.03740X0.03150*%
%ADD41R,0.05906X0.05906*%
%ADD42C,0.05906*%
%ADD43C,0.06000*%
%ADD44R,0.06000X0.06000*%
%ADD45R,0.05906X0.05906*%
%ADD46C,0.20000*%
%ADD55R,0.08858X0.09252*%
D18*
X432000Y336850D02*
D03*
Y343150D02*
D03*
X406000D02*
D03*
Y336850D02*
D03*
X384000D02*
D03*
Y343150D02*
D03*
X360000D02*
D03*
Y336850D02*
D03*
X343000Y343150D02*
D03*
Y336850D02*
D03*
X323000Y343150D02*
D03*
Y336850D02*
D03*
X300000Y343150D02*
D03*
Y336850D02*
D03*
X286000Y343150D02*
D03*
Y336850D02*
D03*
X270000Y343150D02*
D03*
Y336850D02*
D03*
X255000Y343150D02*
D03*
Y336850D02*
D03*
X238500Y343150D02*
D03*
Y336850D02*
D03*
X220000Y343150D02*
D03*
Y336850D02*
D03*
X207500Y343150D02*
D03*
Y336850D02*
D03*
X193000Y343150D02*
D03*
Y336850D02*
D03*
X163000Y343150D02*
D03*
Y336850D02*
D03*
X177500D02*
D03*
Y343150D02*
D03*
X145000D02*
D03*
Y336850D02*
D03*
X135000Y343150D02*
D03*
Y336850D02*
D03*
X125000Y343150D02*
D03*
Y336850D02*
D03*
X115000Y343150D02*
D03*
Y336850D02*
D03*
X95000Y343150D02*
D03*
Y336850D02*
D03*
X105000Y343150D02*
D03*
Y336850D02*
D03*
X85000Y343150D02*
D03*
Y336850D02*
D03*
X75000Y343150D02*
D03*
Y336850D02*
D03*
X264850Y70350D02*
D03*
Y76650D02*
D03*
X273850Y70350D02*
D03*
Y76650D02*
D03*
X267850Y31350D02*
D03*
Y37650D02*
D03*
X274850Y31350D02*
D03*
Y37650D02*
D03*
X373850Y70350D02*
D03*
Y76650D02*
D03*
X379850Y70350D02*
D03*
Y76650D02*
D03*
X382850Y30500D02*
D03*
Y36799D02*
D03*
X375850Y30350D02*
D03*
Y36650D02*
D03*
X160500Y30201D02*
D03*
Y36500D02*
D03*
X168500Y30350D02*
D03*
Y36650D02*
D03*
X161500Y69350D02*
D03*
Y75650D02*
D03*
X167500Y69350D02*
D03*
Y75650D02*
D03*
X62500Y29350D02*
D03*
X66500Y70350D02*
D03*
X69500Y29350D02*
D03*
X72500Y70500D02*
D03*
X191332Y167150D02*
D03*
X197332D02*
D03*
X203332D02*
D03*
X233332D02*
D03*
X245332D02*
D03*
X239332D02*
D03*
X362000Y124701D02*
D03*
X369000D02*
D03*
X62500Y35650D02*
D03*
X66500Y76650D02*
D03*
X69500Y35650D02*
D03*
X72500Y76799D02*
D03*
X197332Y160850D02*
D03*
X191332D02*
D03*
X203332D02*
D03*
X239332D02*
D03*
X233332D02*
D03*
X245332D02*
D03*
X362000Y131000D02*
D03*
X369000D02*
D03*
D41*
X474000Y121000D02*
D03*
X351500Y214000D02*
D03*
Y194000D02*
D03*
X289000Y214000D02*
D03*
X90000Y175000D02*
D03*
X289000Y199000D02*
D03*
Y184000D02*
D03*
Y169000D02*
D03*
Y154000D02*
D03*
Y139000D02*
D03*
X397000D02*
D03*
X416000D02*
D03*
D42*
X484000Y121000D02*
D03*
Y131000D02*
D03*
X494000Y121000D02*
D03*
Y131000D02*
D03*
X504000Y121000D02*
D03*
Y131000D02*
D03*
X514000Y121000D02*
D03*
Y131000D02*
D03*
X524000Y121000D02*
D03*
Y131000D02*
D03*
X534000Y121000D02*
D03*
Y131000D02*
D03*
X544000Y121000D02*
D03*
Y131000D02*
D03*
X474000D02*
D03*
Y141000D02*
D03*
X484000D02*
D03*
X494000D02*
D03*
X504000D02*
D03*
X514000D02*
D03*
X524000D02*
D03*
X534000D02*
D03*
X544000D02*
D03*
X411500Y199000D02*
D03*
X401500D02*
D03*
X411500Y209000D02*
D03*
X401500D02*
D03*
X411500Y219000D02*
D03*
D43*
X30000Y120000D02*
D03*
Y130000D02*
D03*
Y140000D02*
D03*
Y150000D02*
D03*
Y160000D02*
D03*
Y170000D02*
D03*
Y180000D02*
D03*
X20000Y120000D02*
D03*
Y130000D02*
D03*
Y140000D02*
D03*
Y150000D02*
D03*
Y160000D02*
D03*
Y170000D02*
D03*
X30000Y190000D02*
D03*
X20000Y180000D02*
D03*
X542000Y224000D02*
D03*
Y234000D02*
D03*
Y244000D02*
D03*
Y254000D02*
D03*
Y264000D02*
D03*
Y274000D02*
D03*
Y284000D02*
D03*
X532000Y224000D02*
D03*
Y234000D02*
D03*
Y244000D02*
D03*
Y254000D02*
D03*
Y264000D02*
D03*
Y274000D02*
D03*
X542000Y294000D02*
D03*
X532000Y284000D02*
D03*
D44*
X20000Y190000D02*
D03*
X532000Y294000D02*
D03*
D45*
X401500Y219000D02*
D03*
D46*
X540000Y380000D02*
D03*
Y20000D02*
D03*
X20000Y380000D02*
D03*
Y20000D02*
D03*
D55*
X179500Y43146D02*
D03*
Y23854D02*
D03*
X177500Y80146D02*
D03*
Y60854D02*
D03*
X79500Y20854D02*
D03*
X82500Y61854D02*
D03*
X351000Y118850D02*
D03*
X79500Y40146D02*
D03*
X82500Y81146D02*
D03*
X351000Y138142D02*
D03*
M02*
