G04*
G04 #@! TF.GenerationSoftware,Altium Limited,Altium Designer,22.3.1 (43)*
G04*
G04 Layer_Physical_Order=2*
G04 Layer_Color=32768*
%FSLAX25Y25*%
%MOIN*%
G70*
G04*
G04 #@! TF.SameCoordinates,D44AF7EC-015F-415D-BC9C-BA0083E1B9C0*
G04*
G04*
G04 #@! TF.FilePolarity,Negative*
G04*
G01*
G75*
%ADD35C,0.06800*%
%ADD48C,0.04000*%
%ADD49C,0.07543*%
%ADD50C,0.07150*%
G04:AMPARAMS|DCode=51|XSize=91.5mil|YSize=91.5mil|CornerRadius=0mil|HoleSize=0mil|Usage=FLASHONLY|Rotation=0.000|XOffset=0mil|YOffset=0mil|HoleType=Round|Shape=Relief|Width=10mil|Gap=10mil|Entries=4|*
%AMTHD51*
7,0,0,0.09150,0.07150,0.01000,45*
%
%ADD51THD51*%
G04:AMPARAMS|DCode=52|XSize=95.433mil|YSize=95.433mil|CornerRadius=0mil|HoleSize=0mil|Usage=FLASHONLY|Rotation=0.000|XOffset=0mil|YOffset=0mil|HoleType=Round|Shape=Relief|Width=10mil|Gap=10mil|Entries=4|*
%AMTHD52*
7,0,0,0.09543,0.07543,0.01000,45*
%
%ADD52THD52*%
%ADD53C,0.21000*%
G04:AMPARAMS|DCode=54|XSize=88mil|YSize=88mil|CornerRadius=0mil|HoleSize=0mil|Usage=FLASHONLY|Rotation=0.000|XOffset=0mil|YOffset=0mil|HoleType=Round|Shape=Relief|Width=10mil|Gap=10mil|Entries=4|*
%AMTHD54*
7,0,0,0.08800,0.06800,0.01000,45*
%
%ADD54THD54*%
D35*
X177000Y247000D02*
D03*
X206000D02*
D03*
X416000Y176000D02*
D03*
X324000Y316000D02*
D03*
X377000Y317000D02*
D03*
X231000Y282000D02*
D03*
X277000D02*
D03*
X208000Y260000D02*
D03*
X294000Y240000D02*
D03*
X157000D02*
D03*
X220000Y306000D02*
D03*
X370000Y308000D02*
D03*
X344000Y309000D02*
D03*
X165000Y168000D02*
D03*
X157000Y178000D02*
D03*
X147000Y226000D02*
D03*
X126000D02*
D03*
X163000Y216500D02*
D03*
X225000Y234000D02*
D03*
X227000Y224000D02*
D03*
X230000Y321000D02*
D03*
X311000Y325000D02*
D03*
X372000Y333000D02*
D03*
X417000Y343000D02*
D03*
X432000Y375000D02*
D03*
X406000D02*
D03*
X384000D02*
D03*
X360000D02*
D03*
X343000D02*
D03*
X323000D02*
D03*
X300000D02*
D03*
X286000D02*
D03*
X270000D02*
D03*
X255000D02*
D03*
X238000D02*
D03*
X220000D02*
D03*
X207000D02*
D03*
X193000D02*
D03*
X178000D02*
D03*
X163000D02*
D03*
X153000Y325000D02*
D03*
X75000Y375000D02*
D03*
X85000D02*
D03*
X95000D02*
D03*
X105000D02*
D03*
X115000D02*
D03*
X125000D02*
D03*
X135000D02*
D03*
X145000D02*
D03*
X89000Y264000D02*
D03*
X72000Y263000D02*
D03*
X81000Y250000D02*
D03*
X249000Y108000D02*
D03*
X349400Y103500D02*
D03*
X309500D02*
D03*
X462000D02*
D03*
X454000Y101500D02*
D03*
X153000Y188500D02*
D03*
X73000Y170000D02*
D03*
X417500Y72500D02*
D03*
X508500Y76500D02*
D03*
X465500Y48000D02*
D03*
X204000Y110500D02*
D03*
X222500Y111000D02*
D03*
X527500Y30000D02*
D03*
X137000Y266000D02*
D03*
X356000Y147000D02*
D03*
X365000Y146000D02*
D03*
X424000Y157000D02*
D03*
X246600Y96500D02*
D03*
X234200Y99200D02*
D03*
X490500Y93800D02*
D03*
X366800Y44300D02*
D03*
X519000Y96350D02*
D03*
X177000Y134000D02*
D03*
X296600Y184100D02*
D03*
X169900Y145100D02*
D03*
X145000Y144700D02*
D03*
X254500Y219300D02*
D03*
X431350Y53350D02*
D03*
X109800Y77800D02*
D03*
X244600Y12100D02*
D03*
X491100Y34600D02*
D03*
X292500Y3500D02*
D03*
X53600Y5000D02*
D03*
X218800Y22000D02*
D03*
X453500Y152500D02*
D03*
X459400Y137000D02*
D03*
X281500Y56500D02*
D03*
X353800Y53500D02*
D03*
X510500Y91200D02*
D03*
X302500Y111600D02*
D03*
X531750Y169950D02*
D03*
X93100Y140000D02*
D03*
X177450Y205150D02*
D03*
X97600Y170300D02*
D03*
X149300Y167900D02*
D03*
X92900Y195600D02*
D03*
X123700Y178900D02*
D03*
X166400Y201600D02*
D03*
X215200Y109200D02*
D03*
X97600Y155200D02*
D03*
X230700Y67700D02*
D03*
X187600D02*
D03*
X308600Y145300D02*
D03*
X236350Y110850D02*
D03*
X392200Y260059D02*
D03*
X199650Y101300D02*
D03*
X109000Y89000D02*
D03*
X368300Y219000D02*
D03*
X171000Y193700D02*
D03*
X101100Y145000D02*
D03*
X105800Y155000D02*
D03*
X216800Y93100D02*
D03*
X465700Y77500D02*
D03*
X160700Y91900D02*
D03*
X377800Y251600D02*
D03*
X215000Y230200D02*
D03*
X415600Y39500D02*
D03*
X540500Y45700D02*
D03*
X524000Y172800D02*
D03*
X529800Y87300D02*
D03*
X552500Y64000D02*
D03*
X292600Y26500D02*
D03*
X552500Y39500D02*
D03*
X64398Y50500D02*
D03*
X436300Y122900D02*
D03*
X528000Y150400D02*
D03*
X124900Y26800D02*
D03*
X207700Y40000D02*
D03*
X545200Y7000D02*
D03*
X143350Y7100D02*
D03*
X58200Y54000D02*
D03*
X389473Y165800D02*
D03*
X389471Y266677D02*
D03*
X274000Y87000D02*
D03*
X382000Y48000D02*
D03*
X381000Y86000D02*
D03*
X544000Y69000D02*
D03*
X524000D02*
D03*
X514000D02*
D03*
X504000D02*
D03*
X484000D02*
D03*
X534000D02*
D03*
X494000D02*
D03*
X474000D02*
D03*
X277850Y49500D02*
D03*
X151500Y35500D02*
D03*
Y76500D02*
D03*
X56500Y35500D02*
D03*
X55500Y74500D02*
D03*
X220832Y158000D02*
D03*
X335586Y130436D02*
D03*
X409000Y117850D02*
D03*
X383000D02*
D03*
D48*
X0Y0D02*
X560000D01*
Y400000D01*
X0D02*
X560000D01*
X0Y0D02*
Y400000D01*
D49*
X474000Y121000D02*
D03*
X484000D02*
D03*
Y131000D02*
D03*
X494000Y121000D02*
D03*
Y131000D02*
D03*
X504000Y121000D02*
D03*
Y131000D02*
D03*
X514000Y121000D02*
D03*
Y131000D02*
D03*
X524000Y121000D02*
D03*
Y131000D02*
D03*
X534000Y121000D02*
D03*
Y131000D02*
D03*
X544000Y121000D02*
D03*
Y131000D02*
D03*
X474000D02*
D03*
Y141000D02*
D03*
X484000D02*
D03*
X494000D02*
D03*
X504000D02*
D03*
X514000D02*
D03*
X524000D02*
D03*
X534000D02*
D03*
X544000D02*
D03*
X401500Y199000D02*
D03*
X411500Y209000D02*
D03*
X401500D02*
D03*
X411500Y219000D02*
D03*
X401500D02*
D03*
X351500Y214000D02*
D03*
Y194000D02*
D03*
X289000Y214000D02*
D03*
X90000Y175000D02*
D03*
X289000Y199000D02*
D03*
Y184000D02*
D03*
Y169000D02*
D03*
Y154000D02*
D03*
Y139000D02*
D03*
X397000D02*
D03*
X416000D02*
D03*
D50*
X30000Y120000D02*
D03*
Y130000D02*
D03*
Y140000D02*
D03*
Y150000D02*
D03*
Y160000D02*
D03*
Y170000D02*
D03*
Y180000D02*
D03*
X20000Y140000D02*
D03*
Y150000D02*
D03*
Y160000D02*
D03*
Y170000D02*
D03*
Y190000D02*
D03*
X30000D02*
D03*
X20000Y180000D02*
D03*
X532000Y224000D02*
D03*
Y234000D02*
D03*
Y244000D02*
D03*
Y254000D02*
D03*
Y264000D02*
D03*
Y274000D02*
D03*
Y294000D02*
D03*
Y284000D02*
D03*
D51*
X20000Y120000D02*
D03*
Y130000D02*
D03*
X542000Y224000D02*
D03*
Y234000D02*
D03*
Y244000D02*
D03*
Y254000D02*
D03*
Y264000D02*
D03*
Y274000D02*
D03*
Y284000D02*
D03*
Y294000D02*
D03*
D52*
X411500Y199000D02*
D03*
D53*
X540000Y380000D02*
D03*
Y20000D02*
D03*
X20000Y380000D02*
D03*
Y20000D02*
D03*
D54*
X100000Y230000D02*
D03*
X445000Y331000D02*
D03*
X101000Y271000D02*
D03*
X416000Y108000D02*
D03*
X397000Y108500D02*
D03*
X47500Y67500D02*
D03*
X126000Y271000D02*
D03*
X332000Y121000D02*
D03*
X175400Y11700D02*
D03*
X366337Y249723D02*
D03*
X252400Y10900D02*
D03*
X87800Y12000D02*
D03*
X369000Y18000D02*
D03*
X367000Y57000D02*
D03*
X264850Y17500D02*
D03*
X262850Y57500D02*
D03*
X151500Y28500D02*
D03*
Y68500D02*
D03*
X56500Y28500D02*
D03*
X215332Y168000D02*
D03*
X369000Y111850D02*
D03*
X226332Y168000D02*
D03*
M02*
