G04*
G04 #@! TF.GenerationSoftware,Altium Limited,Altium Designer,22.3.1 (43)*
G04*
G04 Layer_Color=8421504*
%FSLAX25Y25*%
%MOIN*%
G70*
G04*
G04 #@! TF.SameCoordinates,D44AF7EC-015F-415D-BC9C-BA0083E1B9C0*
G04*
G04*
G04 #@! TF.FilePolarity,Positive*
G04*
G01*
G75*
%ADD15R,0.03150X0.03150*%
%ADD16R,0.03150X0.03740*%
%ADD17R,0.07087X0.01772*%
%ADD18R,0.03740X0.03150*%
%ADD19R,0.05807X0.01772*%
%ADD20R,0.06016X0.02559*%
%ADD21R,0.05512X0.01772*%
%ADD22R,0.05807X0.02362*%
%ADD23R,0.02362X0.05807*%
D15*
X360000Y340650D02*
D03*
Y334350D02*
D03*
X343000Y340650D02*
D03*
Y334350D02*
D03*
X323000Y340650D02*
D03*
Y334350D02*
D03*
X193000Y340650D02*
D03*
Y334350D02*
D03*
X300000Y340650D02*
D03*
Y334350D02*
D03*
X286000Y340650D02*
D03*
Y334350D02*
D03*
X270000Y340650D02*
D03*
Y334350D02*
D03*
X255000Y340650D02*
D03*
Y334350D02*
D03*
X238500Y340650D02*
D03*
Y334350D02*
D03*
X432000Y340650D02*
D03*
Y334350D02*
D03*
X145000Y340650D02*
D03*
Y334350D02*
D03*
X135000Y340650D02*
D03*
Y334350D02*
D03*
X125000Y340650D02*
D03*
Y334350D02*
D03*
X115000Y340650D02*
D03*
Y334350D02*
D03*
X105000Y340650D02*
D03*
Y334350D02*
D03*
X95000Y340650D02*
D03*
Y334350D02*
D03*
X85000Y340650D02*
D03*
Y334350D02*
D03*
X75000Y340650D02*
D03*
Y334350D02*
D03*
X207500Y340650D02*
D03*
Y334350D02*
D03*
X220000Y340650D02*
D03*
Y334350D02*
D03*
X406000Y340650D02*
D03*
Y334350D02*
D03*
X384000Y340650D02*
D03*
Y334350D02*
D03*
X163000Y340650D02*
D03*
Y334350D02*
D03*
X177500Y340650D02*
D03*
Y334350D02*
D03*
D16*
X384650Y199000D02*
D03*
X378350D02*
D03*
Y189000D02*
D03*
X384650D02*
D03*
Y209000D02*
D03*
X378350D02*
D03*
X384650Y219000D02*
D03*
X378350D02*
D03*
X405150Y269000D02*
D03*
X398850D02*
D03*
X405150Y249000D02*
D03*
X398850D02*
D03*
X333850D02*
D03*
X340150D02*
D03*
X333850Y262000D02*
D03*
X340150D02*
D03*
X333850Y274000D02*
D03*
X340150D02*
D03*
X193350Y89000D02*
D03*
X199650D02*
D03*
X305150Y30500D02*
D03*
X298850D02*
D03*
Y39500D02*
D03*
X305150D02*
D03*
Y21500D02*
D03*
X298850D02*
D03*
X236850Y30500D02*
D03*
X243150D02*
D03*
Y39500D02*
D03*
X236850D02*
D03*
X411150Y30500D02*
D03*
X404850D02*
D03*
X236850Y21500D02*
D03*
X243150D02*
D03*
X404850Y39500D02*
D03*
X411150D02*
D03*
Y21500D02*
D03*
X404850D02*
D03*
X346850Y30500D02*
D03*
X353150D02*
D03*
Y39500D02*
D03*
X346850D02*
D03*
Y21500D02*
D03*
X353150D02*
D03*
X411150Y69000D02*
D03*
X404850D02*
D03*
X305150D02*
D03*
X298850D02*
D03*
X404850Y78000D02*
D03*
X411150D02*
D03*
X298850D02*
D03*
X305150D02*
D03*
X411150Y60000D02*
D03*
X404850D02*
D03*
X305150D02*
D03*
X298850D02*
D03*
X346850Y69000D02*
D03*
X353150D02*
D03*
X236850D02*
D03*
X243150D02*
D03*
X353150Y78000D02*
D03*
X346850D02*
D03*
X243150D02*
D03*
X236850D02*
D03*
X346850Y60000D02*
D03*
X353150D02*
D03*
X236850D02*
D03*
X243150D02*
D03*
X193350Y49000D02*
D03*
X199650D02*
D03*
X143350Y20500D02*
D03*
X149650D02*
D03*
X193350Y40000D02*
D03*
X199650D02*
D03*
Y22000D02*
D03*
X193350D02*
D03*
Y31000D02*
D03*
X199650D02*
D03*
X149650Y43500D02*
D03*
X143350D02*
D03*
X103650Y89000D02*
D03*
Y49000D02*
D03*
X199650Y80000D02*
D03*
X103650D02*
D03*
Y40000D02*
D03*
Y31000D02*
D03*
Y71000D02*
D03*
X199650D02*
D03*
X143350Y58500D02*
D03*
X149650D02*
D03*
X193350Y80000D02*
D03*
X199650Y62000D02*
D03*
X193350D02*
D03*
Y71000D02*
D03*
X149650Y84500D02*
D03*
X143350D02*
D03*
X97350Y49000D02*
D03*
Y40000D02*
D03*
Y31000D02*
D03*
X103650Y22000D02*
D03*
X97350D02*
D03*
X499850Y294000D02*
D03*
X506150D02*
D03*
X499850Y284000D02*
D03*
X506150D02*
D03*
X499850Y274000D02*
D03*
X506150D02*
D03*
X499850Y264000D02*
D03*
X506150D02*
D03*
X499850Y254000D02*
D03*
X506150D02*
D03*
X499850Y244000D02*
D03*
X506150D02*
D03*
X499850Y234000D02*
D03*
X506150D02*
D03*
X499850Y224000D02*
D03*
X506150D02*
D03*
X63150Y190000D02*
D03*
X56850D02*
D03*
X255850Y181000D02*
D03*
X262150D02*
D03*
X174350Y186000D02*
D03*
X180650D02*
D03*
X63150Y180000D02*
D03*
X56850D02*
D03*
X255850Y175000D02*
D03*
X262150D02*
D03*
X174350Y180000D02*
D03*
X180650D02*
D03*
X86850Y165000D02*
D03*
X93150D02*
D03*
X63150Y170000D02*
D03*
X56850D02*
D03*
X255850Y169000D02*
D03*
X262150D02*
D03*
X174350Y174000D02*
D03*
X180650D02*
D03*
X86850Y155000D02*
D03*
X93150D02*
D03*
X63150Y160000D02*
D03*
X56850D02*
D03*
X255850Y163000D02*
D03*
X262150D02*
D03*
X174350Y168000D02*
D03*
X180650D02*
D03*
X86850Y145000D02*
D03*
X93150D02*
D03*
X63150Y150000D02*
D03*
X56850D02*
D03*
X255850Y157000D02*
D03*
X262150D02*
D03*
X174350Y162000D02*
D03*
X180650D02*
D03*
X86850Y135000D02*
D03*
X93150D02*
D03*
X63150Y140000D02*
D03*
X56850D02*
D03*
X63150Y130000D02*
D03*
X56850D02*
D03*
X63150Y120000D02*
D03*
X56850D02*
D03*
X255850Y147000D02*
D03*
X262150D02*
D03*
X174350Y156000D02*
D03*
X180650D02*
D03*
X174350Y150000D02*
D03*
X180650D02*
D03*
X174350Y144000D02*
D03*
X180650D02*
D03*
X47350Y83500D02*
D03*
X53650D02*
D03*
X97350Y62000D02*
D03*
X103650D02*
D03*
X97350Y71000D02*
D03*
X53650Y58500D02*
D03*
X47350D02*
D03*
X97350Y80000D02*
D03*
Y89000D02*
D03*
X47350Y43500D02*
D03*
X53650D02*
D03*
Y20500D02*
D03*
X47350D02*
D03*
D17*
X128976Y261516D02*
D03*
Y258957D02*
D03*
Y256398D02*
D03*
Y253839D02*
D03*
Y251280D02*
D03*
Y248720D02*
D03*
Y246161D02*
D03*
Y243602D02*
D03*
Y241043D02*
D03*
Y238484D02*
D03*
X101024D02*
D03*
Y241043D02*
D03*
Y243602D02*
D03*
Y246161D02*
D03*
Y248720D02*
D03*
Y251280D02*
D03*
Y253839D02*
D03*
Y256398D02*
D03*
Y258957D02*
D03*
Y261516D02*
D03*
D18*
X177500Y266850D02*
D03*
Y273150D02*
D03*
X193000D02*
D03*
Y266850D02*
D03*
X163000D02*
D03*
Y273150D02*
D03*
X270000Y266850D02*
D03*
Y273150D02*
D03*
X255000Y266850D02*
D03*
Y273150D02*
D03*
X286000Y266850D02*
D03*
Y273150D02*
D03*
X238500Y266850D02*
D03*
Y273150D02*
D03*
X300000Y266850D02*
D03*
Y273150D02*
D03*
X484000Y59650D02*
D03*
Y53350D02*
D03*
X494000Y59650D02*
D03*
Y53350D02*
D03*
X504000Y59650D02*
D03*
Y53350D02*
D03*
X524000Y97850D02*
D03*
Y104150D02*
D03*
X534000Y97850D02*
D03*
Y104150D02*
D03*
X514000Y97850D02*
D03*
Y104150D02*
D03*
Y59650D02*
D03*
Y53350D02*
D03*
X474000Y59650D02*
D03*
Y53350D02*
D03*
X494000Y104150D02*
D03*
Y97850D02*
D03*
X484000Y104150D02*
D03*
Y97850D02*
D03*
X504000Y104150D02*
D03*
Y97850D02*
D03*
X524000Y59650D02*
D03*
Y53350D02*
D03*
X534000Y59650D02*
D03*
Y53350D02*
D03*
X504000Y157850D02*
D03*
Y164150D02*
D03*
X494000Y157850D02*
D03*
Y164150D02*
D03*
X484000Y157850D02*
D03*
Y164150D02*
D03*
X534000D02*
D03*
Y157850D02*
D03*
X514000Y164150D02*
D03*
Y157850D02*
D03*
X474000Y104150D02*
D03*
Y97850D02*
D03*
X544000Y164150D02*
D03*
Y157850D02*
D03*
Y97850D02*
D03*
Y104150D02*
D03*
X474000Y157850D02*
D03*
Y164150D02*
D03*
X544000Y59650D02*
D03*
Y53350D02*
D03*
X524000Y164150D02*
D03*
Y157850D02*
D03*
X230000Y117850D02*
D03*
X416000Y115850D02*
D03*
X397000D02*
D03*
X236000Y117850D02*
D03*
X242000D02*
D03*
X206000D02*
D03*
X397000Y162150D02*
D03*
X215000Y198850D02*
D03*
Y205150D02*
D03*
X227000Y198850D02*
D03*
Y205150D02*
D03*
X233000Y198850D02*
D03*
Y205150D02*
D03*
X209000D02*
D03*
Y198850D02*
D03*
X239000D02*
D03*
Y205150D02*
D03*
X203000D02*
D03*
Y198850D02*
D03*
X242000Y124150D02*
D03*
X236000D02*
D03*
X230000D02*
D03*
X224000D02*
D03*
Y117850D02*
D03*
X206000Y124150D02*
D03*
X218000D02*
D03*
Y117850D02*
D03*
X212000Y124150D02*
D03*
Y117850D02*
D03*
X416000Y155850D02*
D03*
Y162150D02*
D03*
X397000Y155850D02*
D03*
X416000Y122150D02*
D03*
X397000D02*
D03*
D19*
X360433Y251323D02*
D03*
X383567Y266677D02*
D03*
X360433D02*
D03*
Y264118D02*
D03*
Y261559D02*
D03*
Y259000D02*
D03*
Y256441D02*
D03*
Y253882D02*
D03*
X383567Y251323D02*
D03*
Y253882D02*
D03*
Y256441D02*
D03*
Y259000D02*
D03*
Y261559D02*
D03*
Y264118D02*
D03*
D20*
X367177Y79000D02*
D03*
Y74000D02*
D03*
Y69000D02*
D03*
Y64000D02*
D03*
X388524D02*
D03*
Y69000D02*
D03*
Y74000D02*
D03*
Y79000D02*
D03*
X261177Y40000D02*
D03*
Y35000D02*
D03*
Y30000D02*
D03*
Y25000D02*
D03*
X282524D02*
D03*
Y30000D02*
D03*
Y35000D02*
D03*
Y40000D02*
D03*
X369177D02*
D03*
Y35000D02*
D03*
Y30000D02*
D03*
Y25000D02*
D03*
X390524D02*
D03*
Y30000D02*
D03*
Y35000D02*
D03*
Y40000D02*
D03*
X259177Y79000D02*
D03*
Y74000D02*
D03*
Y69000D02*
D03*
Y64000D02*
D03*
X280524D02*
D03*
Y69000D02*
D03*
Y74000D02*
D03*
Y79000D02*
D03*
D21*
X161839Y36339D02*
D03*
Y33780D02*
D03*
Y31220D02*
D03*
Y28661D02*
D03*
X179161D02*
D03*
Y31220D02*
D03*
Y33780D02*
D03*
Y36339D02*
D03*
X367661Y132689D02*
D03*
X65839Y71220D02*
D03*
Y31220D02*
D03*
X161839Y71220D02*
D03*
X350339Y127571D02*
D03*
X367661Y130130D02*
D03*
Y127571D02*
D03*
X65839Y33780D02*
D03*
Y73780D02*
D03*
X161839D02*
D03*
X350339Y130130D02*
D03*
X161839Y76339D02*
D03*
Y68661D02*
D03*
X179161D02*
D03*
Y71220D02*
D03*
Y73780D02*
D03*
Y76339D02*
D03*
X65839D02*
D03*
Y68661D02*
D03*
X83161D02*
D03*
Y71220D02*
D03*
Y73780D02*
D03*
Y76339D02*
D03*
X65839Y36339D02*
D03*
Y28661D02*
D03*
X83161D02*
D03*
Y31220D02*
D03*
Y33780D02*
D03*
Y36339D02*
D03*
X350339Y132689D02*
D03*
Y125012D02*
D03*
X367661D02*
D03*
D22*
X236017Y159276D02*
D03*
Y156126D02*
D03*
X202647Y175024D02*
D03*
Y171874D02*
D03*
Y168724D02*
D03*
Y165575D02*
D03*
Y162425D02*
D03*
Y159276D02*
D03*
Y156126D02*
D03*
Y152976D02*
D03*
X236017D02*
D03*
Y162425D02*
D03*
Y165575D02*
D03*
Y168724D02*
D03*
Y171874D02*
D03*
Y175024D02*
D03*
D23*
X217757Y180685D02*
D03*
X211458Y147315D02*
D03*
X220906Y180685D02*
D03*
X208308Y147315D02*
D03*
X214607D02*
D03*
X217757D02*
D03*
X220906D02*
D03*
X224056D02*
D03*
X227206D02*
D03*
X230355D02*
D03*
Y180685D02*
D03*
X227206D02*
D03*
X224056D02*
D03*
X214607D02*
D03*
X211458D02*
D03*
X208308D02*
D03*
M02*
