G04*
G04 #@! TF.GenerationSoftware,Altium Limited,Altium Designer,22.3.1 (43)*
G04*
G04 Layer_Color=65535*
%FSLAX25Y25*%
%MOIN*%
G70*
G04*
G04 #@! TF.SameCoordinates,D44AF7EC-015F-415D-BC9C-BA0083E1B9C0*
G04*
G04*
G04 #@! TF.FilePolarity,Positive*
G04*
G01*
G75*
%ADD10C,0.01575*%
%ADD11C,0.01000*%
%ADD12C,0.00787*%
%ADD13C,0.00500*%
%ADD14C,0.00800*%
D10*
X202107Y179748D02*
G03*
X202107Y179748I-787J0D01*
G01*
D11*
X229500Y359500D02*
X370000D01*
X229500Y369500D02*
X370000D01*
Y359500D02*
Y369500D01*
X229500Y359500D02*
Y369500D01*
X371500Y359500D02*
X442500D01*
X371500Y369500D02*
X442500D01*
Y359500D02*
Y369500D01*
X371500Y359500D02*
Y369500D01*
Y348500D02*
X442500D01*
X371500Y358500D02*
X442500D01*
Y348500D02*
Y358500D01*
X371500Y348500D02*
Y358500D01*
X229500Y348500D02*
X310000D01*
X229500Y358500D02*
X310000D01*
Y348500D02*
Y358500D01*
X229500Y348500D02*
Y358500D01*
X71500Y348500D02*
X152500D01*
X71500Y358500D02*
X152500D01*
Y348500D02*
Y358500D01*
X71500Y348500D02*
Y358500D01*
X311000Y348500D02*
X370000D01*
X311000Y358500D02*
X370000D01*
Y348500D02*
Y358500D01*
X311000Y348500D02*
Y358500D01*
X71750Y359500D02*
X228250D01*
X71750Y369500D02*
X228250D01*
Y359500D02*
Y369500D01*
X71750Y359500D02*
Y369500D01*
X153500Y348500D02*
X228500D01*
X153500Y358500D02*
X228500D01*
Y348500D02*
Y358500D01*
X153500Y348500D02*
Y358500D01*
X356000Y329500D02*
Y345500D01*
X363500D01*
Y329500D02*
Y345500D01*
X356000Y329500D02*
X363500D01*
X357500Y331000D02*
X362000D01*
X339000Y329500D02*
Y345500D01*
X346500D01*
Y329500D02*
Y345500D01*
X339000Y329500D02*
X346500D01*
X340500Y331000D02*
X345000D01*
X319000Y329500D02*
Y345500D01*
X326500D01*
Y329500D02*
Y345500D01*
X319000Y329500D02*
X326500D01*
X320500Y331000D02*
X325000D01*
X189000Y329500D02*
Y345500D01*
X196500D01*
Y329500D02*
Y345500D01*
X189000Y329500D02*
X196500D01*
X190500Y331000D02*
X195000D01*
X296000Y329500D02*
Y345500D01*
X303500D01*
Y329500D02*
Y345500D01*
X296000Y329500D02*
X303500D01*
X297500Y331000D02*
X302000D01*
X282000Y329500D02*
Y345500D01*
X289500D01*
Y329500D02*
Y345500D01*
X282000Y329500D02*
X289500D01*
X283500Y331000D02*
X288000D01*
X266000Y329500D02*
Y345500D01*
X273500D01*
Y329500D02*
Y345500D01*
X266000Y329500D02*
X273500D01*
X267500Y331000D02*
X272000D01*
X251000Y329500D02*
Y345500D01*
X258500D01*
Y329500D02*
Y345500D01*
X251000Y329500D02*
X258500D01*
X252500Y331000D02*
X257000D01*
X234500Y329500D02*
Y345500D01*
X242000D01*
Y329500D02*
Y345500D01*
X234500Y329500D02*
X242000D01*
X236000Y331000D02*
X240500D01*
X428000Y329500D02*
Y345500D01*
X435500D01*
Y329500D02*
Y345500D01*
X428000Y329500D02*
X435500D01*
X429500Y331000D02*
X434000D01*
X141000Y329500D02*
Y345500D01*
X148500D01*
Y329500D02*
Y345500D01*
X141000Y329500D02*
X148500D01*
X142500Y331000D02*
X147000D01*
X131000Y329500D02*
Y345500D01*
X138500D01*
Y329500D02*
Y345500D01*
X131000Y329500D02*
X138500D01*
X132500Y331000D02*
X137000D01*
X121000Y329500D02*
Y345500D01*
X128500D01*
Y329500D02*
Y345500D01*
X121000Y329500D02*
X128500D01*
X122500Y331000D02*
X127000D01*
X111000Y329500D02*
Y345500D01*
X118500D01*
Y329500D02*
Y345500D01*
X111000Y329500D02*
X118500D01*
X112500Y331000D02*
X117000D01*
X101000Y329500D02*
Y345500D01*
X108500D01*
Y329500D02*
Y345500D01*
X101000Y329500D02*
X108500D01*
X102500Y331000D02*
X107000D01*
X91000Y329500D02*
Y345500D01*
X98500D01*
Y329500D02*
Y345500D01*
X91000Y329500D02*
X98500D01*
X92500Y331000D02*
X97000D01*
X81000Y329500D02*
Y345500D01*
X88500D01*
Y329500D02*
Y345500D01*
X81000Y329500D02*
X88500D01*
X82500Y331000D02*
X87000D01*
X71000Y329500D02*
Y345500D01*
X78500D01*
Y329500D02*
Y345500D01*
X71000Y329500D02*
X78500D01*
X72500Y331000D02*
X77000D01*
X203500Y329500D02*
Y345500D01*
X211000D01*
Y329500D02*
Y345500D01*
X203500Y329500D02*
X211000D01*
X205000Y331000D02*
X209500D01*
X216000Y329500D02*
Y345500D01*
X223500D01*
Y329500D02*
Y345500D01*
X216000Y329500D02*
X223500D01*
X217500Y331000D02*
X222000D01*
X402000Y329500D02*
Y345500D01*
X409500D01*
Y329500D02*
Y345500D01*
X402000Y329500D02*
X409500D01*
X403500Y331000D02*
X408000D01*
X380000Y329500D02*
Y345500D01*
X387500D01*
Y329500D02*
Y345500D01*
X380000Y329500D02*
X387500D01*
X381500Y331000D02*
X386000D01*
X159000Y329500D02*
Y345500D01*
X166500D01*
Y329500D02*
Y345500D01*
X159000Y329500D02*
X166500D01*
X160500Y331000D02*
X165000D01*
X173500Y329500D02*
Y345500D01*
X181000D01*
Y329500D02*
Y345500D01*
X173500Y329500D02*
X181000D01*
X175000Y331000D02*
X179500D01*
X11000Y165000D02*
Y169000D01*
X7000D02*
X11000D01*
X7000Y210000D02*
X43000D01*
Y100000D02*
Y210000D01*
X7000Y100000D02*
X43000D01*
X7000D02*
Y145000D01*
Y169000D02*
Y210000D01*
Y145000D02*
X11000D01*
Y165000D01*
X523000Y269000D02*
Y273000D01*
X519000D02*
X523000D01*
X519000Y314000D02*
X555000D01*
Y204000D02*
Y314000D01*
X519000Y204000D02*
X555000D01*
X519000D02*
Y249000D01*
Y273000D02*
Y314000D01*
Y249000D02*
X523000D01*
Y269000D01*
X354500Y209000D02*
X356500D01*
X346500Y219000D02*
X356500D01*
X346500Y209000D02*
Y219000D01*
Y209000D02*
X356500D01*
Y219000D01*
X354500Y189000D02*
X356500D01*
X346500Y199000D02*
X356500D01*
X346500Y189000D02*
Y199000D01*
Y189000D02*
X356500D01*
Y199000D01*
X292000Y209000D02*
X294000D01*
X284000Y219000D02*
X294000D01*
X284000Y209000D02*
Y219000D01*
Y209000D02*
X294000D01*
Y219000D01*
X93000Y170000D02*
X95000D01*
X85000Y180000D02*
X95000D01*
X85000Y170000D02*
Y180000D01*
Y170000D02*
X95000D01*
Y180000D01*
X292000Y194000D02*
X294000D01*
X284000Y204000D02*
X294000D01*
X284000Y194000D02*
Y204000D01*
Y194000D02*
X294000D01*
Y204000D01*
X292000Y179000D02*
X294000D01*
X284000Y189000D02*
X294000D01*
X284000Y179000D02*
Y189000D01*
Y179000D02*
X294000D01*
Y189000D01*
X292000Y164000D02*
X294000D01*
X284000Y174000D02*
X294000D01*
X284000Y164000D02*
Y174000D01*
Y164000D02*
X294000D01*
Y174000D01*
X292000Y149000D02*
X294000D01*
X284000Y159000D02*
X294000D01*
X284000Y149000D02*
Y159000D01*
Y149000D02*
X294000D01*
Y159000D01*
X292000Y134000D02*
X294000D01*
X284000Y144000D02*
X294000D01*
X284000Y134000D02*
Y144000D01*
Y134000D02*
X294000D01*
Y144000D01*
X400000Y134000D02*
X402000D01*
X392000Y144000D02*
X402000D01*
X392000Y134000D02*
Y144000D01*
Y134000D02*
X402000D01*
Y144000D01*
X419000Y134000D02*
X421000D01*
X411000Y144000D02*
X421000D01*
X411000Y134000D02*
Y144000D01*
Y134000D02*
X421000D01*
Y144000D01*
X141000Y382999D02*
Y386998D01*
X142999Y388997D01*
X144999Y386998D01*
Y382999D01*
Y385998D01*
X141000D01*
X146998Y388997D02*
Y382999D01*
X149997D01*
X150997Y383999D01*
Y384999D01*
X149997Y385998D01*
X146998D01*
X149997D01*
X150997Y386998D01*
Y387998D01*
X149997Y388997D01*
X146998D01*
X156995Y387998D02*
X155995Y388997D01*
X153996D01*
X152996Y387998D01*
Y386998D01*
X153996Y385998D01*
X155995D01*
X156995Y384999D01*
Y383999D01*
X155995Y382999D01*
X153996D01*
X152996Y383999D01*
X164992Y388997D02*
Y382999D01*
X167991D01*
X168991Y383999D01*
Y387998D01*
X167991Y388997D01*
X164992D01*
X171990Y386998D02*
X173989D01*
X174989Y385998D01*
Y382999D01*
X171990D01*
X170990Y383999D01*
X171990Y384999D01*
X174989D01*
X177988Y387998D02*
Y386998D01*
X176988D01*
X178988D01*
X177988D01*
Y383999D01*
X178988Y382999D01*
X182986Y386998D02*
X184986D01*
X185985Y385998D01*
Y382999D01*
X182986D01*
X181987Y383999D01*
X182986Y384999D01*
X185985D01*
X197982Y387998D02*
X196982Y388997D01*
X194983D01*
X193983Y387998D01*
Y386998D01*
X194983Y385998D01*
X196982D01*
X197982Y384999D01*
Y383999D01*
X196982Y382999D01*
X194983D01*
X193983Y383999D01*
X199981Y386998D02*
Y383999D01*
X200981Y382999D01*
X203980D01*
Y382000D01*
X202980Y381000D01*
X201980D01*
X203980Y382999D02*
Y386998D01*
X205979Y382999D02*
X208978D01*
X209978Y383999D01*
X208978Y384999D01*
X206979D01*
X205979Y385998D01*
X206979Y386998D01*
X209978D01*
X212977Y387998D02*
Y386998D01*
X211977D01*
X213976D01*
X212977D01*
Y383999D01*
X213976Y382999D01*
X219974D02*
X217975D01*
X216975Y383999D01*
Y385998D01*
X217975Y386998D01*
X219974D01*
X220974Y385998D01*
Y384999D01*
X216975D01*
X222973Y382999D02*
Y386998D01*
X223973D01*
X224973Y385998D01*
Y382999D01*
Y385998D01*
X225973Y386998D01*
X226972Y385998D01*
Y382999D01*
X228972D02*
X231971D01*
X232970Y383999D01*
X231971Y384999D01*
X229971D01*
X228972Y385998D01*
X229971Y386998D01*
X232970D01*
X235969Y382000D02*
X236969Y382999D01*
Y383999D01*
X235969D01*
Y382999D01*
X236969D01*
X235969Y382000D01*
X234970Y381000D01*
X246966Y388997D02*
X248965D01*
X247965D01*
Y382999D01*
X246966D01*
X248965D01*
X251964D02*
Y386998D01*
X254963D01*
X255963Y385998D01*
Y382999D01*
X261961Y386998D02*
X258962D01*
X257962Y385998D01*
Y383999D01*
X258962Y382999D01*
X261961D01*
X264960Y382000D02*
X265960Y382999D01*
Y383999D01*
X264960D01*
Y382999D01*
X265960D01*
X264960Y382000D01*
X263960Y381000D01*
X277956Y382999D02*
X275956Y384999D01*
Y386998D01*
X277956Y388997D01*
X284953Y386998D02*
X281954D01*
X280955Y385998D01*
Y383999D01*
X281954Y382999D01*
X284953D01*
X286953D02*
X288952Y384999D01*
Y386998D01*
X286953Y388997D01*
X301948Y387998D02*
X300948Y388997D01*
X298949D01*
X297949Y387998D01*
Y383999D01*
X298949Y382999D01*
X300948D01*
X301948Y383999D01*
X304947Y382999D02*
X306946D01*
X307946Y383999D01*
Y385998D01*
X306946Y386998D01*
X304947D01*
X303947Y385998D01*
Y383999D01*
X304947Y382999D01*
X309945Y381000D02*
Y386998D01*
X312944D01*
X313944Y385998D01*
Y383999D01*
X312944Y382999D01*
X309945D01*
X315943Y386998D02*
Y383999D01*
X316943Y382999D01*
X319942D01*
Y382000D01*
X318942Y381000D01*
X317943D01*
X319942Y382999D02*
Y386998D01*
X321941D02*
Y382999D01*
Y384999D01*
X322941Y385998D01*
X323941Y386998D01*
X324940D01*
X327940Y382999D02*
X329939D01*
X328939D01*
Y386998D01*
X327940D01*
X334937Y381000D02*
X335937D01*
X336937Y382000D01*
Y386998D01*
X333938D01*
X332938Y385998D01*
Y383999D01*
X333938Y382999D01*
X336937D01*
X338936Y388997D02*
Y382999D01*
Y385998D01*
X339936Y386998D01*
X341935D01*
X342935Y385998D01*
Y382999D01*
X345934Y387998D02*
Y386998D01*
X344934D01*
X346933D01*
X345934D01*
Y383999D01*
X346933Y382999D01*
X359929D02*
X355930D01*
X359929Y386998D01*
Y387998D01*
X358929Y388997D01*
X356930D01*
X355930Y387998D01*
X361929D02*
X362928Y388997D01*
X364928D01*
X365927Y387998D01*
Y383999D01*
X364928Y382999D01*
X362928D01*
X361929Y383999D01*
Y387998D01*
X371925Y382999D02*
X367927D01*
X371925Y386998D01*
Y387998D01*
X370926Y388997D01*
X368926D01*
X367927Y387998D01*
X373925D02*
X374924Y388997D01*
X376924D01*
X377923Y387998D01*
Y386998D01*
X376924Y385998D01*
X375924D01*
X376924D01*
X377923Y384999D01*
Y383999D01*
X376924Y382999D01*
X374924D01*
X373925Y383999D01*
X431000Y6000D02*
Y11998D01*
X433999D01*
X434999Y10998D01*
Y8999D01*
X433999Y7999D01*
X431000D01*
X436998Y6000D02*
X440997Y9999D01*
X442996Y6000D02*
Y11998D01*
X446995Y6000D01*
Y11998D01*
X454992Y6000D02*
Y9999D01*
X456992Y11998D01*
X458991Y9999D01*
Y6000D01*
Y8999D01*
X454992D01*
X460990Y11998D02*
Y6000D01*
X463989D01*
X464989Y7000D01*
Y10998D01*
X463989Y11998D01*
X460990D01*
X470987Y10998D02*
X469987Y11998D01*
X467988D01*
X466988Y10998D01*
Y7000D01*
X467988Y6000D01*
X469987D01*
X470987Y7000D01*
X472986Y8999D02*
X476985D01*
X478984Y10998D02*
X479984Y11998D01*
X481984D01*
X482983Y10998D01*
Y9999D01*
X481984Y8999D01*
X480984D01*
X481984D01*
X482983Y7999D01*
Y7000D01*
X481984Y6000D01*
X479984D01*
X478984Y7000D01*
X488981Y6000D02*
X484982D01*
X488981Y9999D01*
Y10998D01*
X487982Y11998D01*
X485982D01*
X484982Y10998D01*
X490981Y7000D02*
X491980Y6000D01*
X493980D01*
X494979Y7000D01*
Y10998D01*
X493980Y11998D01*
X491980D01*
X490981Y10998D01*
Y9999D01*
X491980Y8999D01*
X494979D01*
X500977Y11998D02*
X496979D01*
Y8999D01*
X498978Y9999D01*
X499978D01*
X500977Y8999D01*
Y7000D01*
X499978Y6000D01*
X497978D01*
X496979Y7000D01*
X502977Y10998D02*
X503976Y11998D01*
X505976D01*
X506975Y10998D01*
Y9999D01*
X505976Y8999D01*
X506975Y7999D01*
Y7000D01*
X505976Y6000D01*
X503976D01*
X502977Y7000D01*
Y7999D01*
X503976Y8999D01*
X502977Y9999D01*
Y10998D01*
X503976Y8999D02*
X505976D01*
X123500Y354999D02*
Y351000D01*
X125499D01*
X126166Y351666D01*
Y354332D01*
X125499Y354999D01*
X123500D01*
X130165Y351000D02*
X127499D01*
X130165Y353666D01*
Y354332D01*
X129498Y354999D01*
X128165D01*
X127499Y354332D01*
X217500Y354999D02*
Y351000D01*
X218833Y352333D01*
X220166Y351000D01*
Y354999D01*
X221499Y351000D02*
Y354999D01*
X223498D01*
X224165Y354332D01*
Y352999D01*
X223498Y352333D01*
X221499D01*
X222832D02*
X224165Y351000D01*
X133500Y354999D02*
Y351000D01*
X135499D01*
X136166Y351666D01*
Y354332D01*
X135499Y354999D01*
X133500D01*
X137499Y351000D02*
X138832D01*
X138165D01*
Y354999D01*
X137499Y354332D01*
X143500Y354999D02*
Y351000D01*
X145499D01*
X146166Y351666D01*
Y354332D01*
X145499Y354999D01*
X143500D01*
X147499Y354332D02*
X148165Y354999D01*
X149498D01*
X150164Y354332D01*
Y351666D01*
X149498Y351000D01*
X148165D01*
X147499Y351666D01*
Y354332D01*
X159500Y355148D02*
X160833D01*
X160167D01*
Y351150D01*
X159500D01*
X160833D01*
X162832D02*
Y353815D01*
X164832D01*
X165498Y353149D01*
Y351150D01*
X167497Y354482D02*
Y353815D01*
X166831D01*
X168164D01*
X167497D01*
Y351816D01*
X168164Y351150D01*
X173500Y351000D02*
Y354999D01*
X175499D01*
X176166Y354332D01*
Y352999D01*
X175499Y352333D01*
X173500D01*
X174833D02*
X176166Y351000D01*
X177499D02*
X179498D01*
X180165Y351666D01*
X179498Y352333D01*
X178165D01*
X177499Y352999D01*
X178165Y353666D01*
X180165D01*
X182164Y354332D02*
Y353666D01*
X181497D01*
X182830D01*
X182164D01*
Y351666D01*
X182830Y351000D01*
X192166Y354332D02*
X191499Y354999D01*
X190166D01*
X189500Y354332D01*
Y351666D01*
X190166Y351000D01*
X191499D01*
X192166Y351666D01*
X196165Y354332D02*
X195498Y354999D01*
X194165D01*
X193499Y354332D01*
Y353666D01*
X194165Y352999D01*
X195498D01*
X196165Y352333D01*
Y351666D01*
X195498Y351000D01*
X194165D01*
X193499Y351666D01*
X119666Y366332D02*
X118999Y366999D01*
X117666D01*
X117000Y366332D01*
Y363666D01*
X117666Y363000D01*
X118999D01*
X119666Y363666D01*
X120999Y363000D02*
Y366999D01*
X122998D01*
X123664Y366332D01*
Y364999D01*
X122998Y364333D01*
X120999D01*
X124997Y366999D02*
Y363666D01*
X125664Y363000D01*
X126997D01*
X127663Y363666D01*
Y366999D01*
X132995D02*
Y363000D01*
X134994D01*
X135661Y363666D01*
Y364333D01*
X134994Y364999D01*
X132995D01*
X134994D01*
X135661Y365666D01*
Y366332D01*
X134994Y366999D01*
X132995D01*
X136994Y365666D02*
Y363666D01*
X137660Y363000D01*
X139659D01*
Y365666D01*
X140992Y363000D02*
X142992D01*
X143658Y363666D01*
X142992Y364333D01*
X141659D01*
X140992Y364999D01*
X141659Y365666D01*
X143658D01*
X149656D02*
X150989D01*
X151655Y364999D01*
Y363000D01*
X149656D01*
X148990Y363666D01*
X149656Y364333D01*
X151655D01*
X152988Y363000D02*
Y365666D01*
X154988D01*
X155654Y364999D01*
Y363000D01*
X159653Y366999D02*
Y363000D01*
X157653D01*
X156987Y363666D01*
Y364999D01*
X157653Y365666D01*
X159653D01*
X167650Y366332D02*
X166984Y366999D01*
X165651D01*
X164985Y366332D01*
Y363666D01*
X165651Y363000D01*
X166984D01*
X167650Y363666D01*
X169650Y363000D02*
X170983D01*
X171649Y363666D01*
Y364999D01*
X170983Y365666D01*
X169650D01*
X168983Y364999D01*
Y363666D01*
X169650Y363000D01*
X172982D02*
Y365666D01*
X174981D01*
X175648Y364999D01*
Y363000D01*
X177647Y366332D02*
Y365666D01*
X176981D01*
X178314D01*
X177647D01*
Y363666D01*
X178314Y363000D01*
X180313Y365666D02*
Y363000D01*
Y364333D01*
X180979Y364999D01*
X181646Y365666D01*
X182312D01*
X184978Y363000D02*
X186311D01*
X186977Y363666D01*
Y364999D01*
X186311Y365666D01*
X184978D01*
X184312Y364999D01*
Y363666D01*
X184978Y363000D01*
X188310D02*
X189643D01*
X188977D01*
Y366999D01*
X188310D01*
X298666Y354332D02*
X297999Y354999D01*
X296666D01*
X296000Y354332D01*
Y351666D01*
X296666Y351000D01*
X297999D01*
X298666Y351666D01*
X302664Y354332D02*
X301998Y354999D01*
X300665D01*
X299999Y354332D01*
Y353666D01*
X300665Y352999D01*
X301998D01*
X302664Y352333D01*
Y351666D01*
X301998Y351000D01*
X300665D01*
X299999Y351666D01*
X303997Y351000D02*
X305330D01*
X304664D01*
Y354999D01*
X303997Y354332D01*
X337000Y354999D02*
Y351000D01*
X338999D01*
X339666Y351666D01*
Y354332D01*
X338999Y354999D01*
X337000D01*
X342998D02*
X341665D01*
X340999Y354332D01*
Y351666D01*
X341665Y351000D01*
X342998D01*
X343665Y351666D01*
Y354332D01*
X342998Y354999D01*
X344997Y353666D02*
Y351666D01*
X345664Y351000D01*
X347663D01*
Y353666D01*
X349663Y354332D02*
Y353666D01*
X348996D01*
X350329D01*
X349663D01*
Y351666D01*
X350329Y351000D01*
X317666Y354332D02*
X316999Y354999D01*
X315666D01*
X315000Y354332D01*
Y353666D01*
X315666Y352999D01*
X316999D01*
X317666Y352333D01*
Y351666D01*
X316999Y351000D01*
X315666D01*
X315000Y351666D01*
X321665Y354332D02*
X320998Y354999D01*
X319665D01*
X318999Y354332D01*
Y351666D01*
X319665Y351000D01*
X320998D01*
X321665Y351666D01*
X322997Y354999D02*
Y351000D01*
X325663D01*
X326996Y354999D02*
Y351000D01*
Y352333D01*
X329662Y354999D01*
X327663Y352999D01*
X329662Y351000D01*
X355000Y354999D02*
Y351000D01*
X356999D01*
X357666Y351666D01*
Y354332D01*
X356999Y354999D01*
X355000D01*
X358999D02*
X360332D01*
X359665D01*
Y351000D01*
X358999D01*
X360332D01*
X362331D02*
Y353666D01*
X364330D01*
X364997Y352999D01*
Y351000D01*
X93500Y354999D02*
Y351000D01*
X95499D01*
X96166Y351666D01*
Y354332D01*
X95499Y354999D01*
X93500D01*
X100164D02*
X97499D01*
Y352999D01*
X98832Y353666D01*
X99498D01*
X100164Y352999D01*
Y351666D01*
X99498Y351000D01*
X98165D01*
X97499Y351666D01*
X83500Y354999D02*
Y351000D01*
X85499D01*
X86166Y351666D01*
Y354332D01*
X85499Y354999D01*
X83500D01*
X90165D02*
X88832Y354332D01*
X87499Y352999D01*
Y351666D01*
X88165Y351000D01*
X89498D01*
X90165Y351666D01*
Y352333D01*
X89498Y352999D01*
X87499D01*
X73500Y354999D02*
Y351000D01*
X75499D01*
X76166Y351666D01*
Y354332D01*
X75499Y354999D01*
X73500D01*
X77499D02*
X80164D01*
Y354332D01*
X77499Y351666D01*
Y351000D01*
X103500Y354999D02*
Y351000D01*
X105499D01*
X106166Y351666D01*
Y354332D01*
X105499Y354999D01*
X103500D01*
X109498Y351000D02*
Y354999D01*
X107499Y352999D01*
X110164D01*
X113500Y354999D02*
Y351000D01*
X115499D01*
X116166Y351666D01*
Y354332D01*
X115499Y354999D01*
X113500D01*
X117499Y354332D02*
X118165Y354999D01*
X119498D01*
X120165Y354332D01*
Y353666D01*
X119498Y352999D01*
X118832D01*
X119498D01*
X120165Y352333D01*
Y351666D01*
X119498Y351000D01*
X118165D01*
X117499Y351666D01*
X205000Y351000D02*
Y354999D01*
X206999D01*
X207666Y354332D01*
Y352999D01*
X206999Y352333D01*
X205000D01*
X206333D02*
X207666Y351000D01*
X208999Y354999D02*
Y351000D01*
X210998D01*
X211665Y351666D01*
Y354332D01*
X210998Y354999D01*
X208999D01*
X279000Y363000D02*
Y365666D01*
X280333Y366999D01*
X281666Y365666D01*
Y363000D01*
Y364999D01*
X279000D01*
X282999Y366999D02*
Y363000D01*
X284998D01*
X285665Y363666D01*
Y366332D01*
X284998Y366999D01*
X282999D01*
X289663Y366332D02*
X288997Y366999D01*
X287664D01*
X286997Y366332D01*
Y363666D01*
X287664Y363000D01*
X288997D01*
X289663Y363666D01*
X297661Y366332D02*
X296994Y366999D01*
X295661D01*
X294995Y366332D01*
Y363666D01*
X295661Y363000D01*
X296994D01*
X297661Y363666D01*
X299660Y363000D02*
X300993D01*
X301659Y363666D01*
Y364999D01*
X300993Y365666D01*
X299660D01*
X298994Y364999D01*
Y363666D01*
X299660Y363000D01*
X302992D02*
Y365666D01*
X304992D01*
X305658Y364999D01*
Y363000D01*
X307657Y366332D02*
Y365666D01*
X306991D01*
X308324D01*
X307657D01*
Y363666D01*
X308324Y363000D01*
X310323Y365666D02*
Y363000D01*
Y364333D01*
X310990Y364999D01*
X311656Y365666D01*
X312323D01*
X314988Y363000D02*
X316321D01*
X316988Y363666D01*
Y364999D01*
X316321Y365666D01*
X314988D01*
X314322Y364999D01*
Y363666D01*
X314988Y363000D01*
X318321D02*
X319654D01*
X318987D01*
Y366999D01*
X318321D01*
X398000Y362000D02*
Y365999D01*
X399999D01*
X400666Y365332D01*
Y363999D01*
X399999Y363333D01*
X398000D01*
X402665Y362000D02*
X403998D01*
X404665Y362666D01*
Y363999D01*
X403998Y364666D01*
X402665D01*
X401999Y363999D01*
Y362666D01*
X402665Y362000D01*
X405997Y364666D02*
Y362666D01*
X406664Y362000D01*
X407330Y362666D01*
X407997Y362000D01*
X408663Y362666D01*
Y364666D01*
X411996Y362000D02*
X410663D01*
X409996Y362666D01*
Y363999D01*
X410663Y364666D01*
X411996D01*
X412662Y363999D01*
Y363333D01*
X409996D01*
X413995Y364666D02*
Y362000D01*
Y363333D01*
X414661Y363999D01*
X415328Y364666D01*
X415994D01*
X407244Y355148D02*
X404578D01*
Y353149D01*
X405911Y353815D01*
X406578D01*
X407244Y353149D01*
Y351816D01*
X406578Y351150D01*
X405245D01*
X404578Y351816D01*
X408577Y355148D02*
Y352483D01*
X409910Y351150D01*
X411243Y352483D01*
Y355148D01*
X431990D02*
X430657Y354482D01*
X429324Y353149D01*
Y351816D01*
X429990Y351150D01*
X431323D01*
X431990Y351816D01*
Y352483D01*
X431323Y353149D01*
X429324D01*
X433323Y355148D02*
Y352483D01*
X434656Y351150D01*
X435988Y352483D01*
Y355148D01*
X378500Y354482D02*
X379166Y355148D01*
X380499D01*
X381166Y354482D01*
Y353815D01*
X380499Y353149D01*
X379833D01*
X380499D01*
X381166Y352483D01*
Y351816D01*
X380499Y351150D01*
X379166D01*
X378500Y351816D01*
X382499Y351150D02*
Y351816D01*
X383165D01*
Y351150D01*
X382499D01*
X385831Y354482D02*
X386497Y355148D01*
X387830D01*
X388497Y354482D01*
Y353815D01*
X387830Y353149D01*
X387164D01*
X387830D01*
X388497Y352483D01*
Y351816D01*
X387830Y351150D01*
X386497D01*
X385831Y351816D01*
X389830Y355148D02*
Y352483D01*
X391163Y351150D01*
X392495Y352483D01*
Y355148D01*
X236666Y354332D02*
X235999Y354999D01*
X234666D01*
X234000Y354332D01*
Y351666D01*
X234666Y351000D01*
X235999D01*
X236666Y351666D01*
X240665Y354332D02*
X239998Y354999D01*
X238665D01*
X237999Y354332D01*
Y353666D01*
X238665Y352999D01*
X239998D01*
X240665Y352333D01*
Y351666D01*
X239998Y351000D01*
X238665D01*
X237999Y351666D01*
X244663Y354999D02*
X241997D01*
Y352999D01*
X243330Y353666D01*
X243997D01*
X244663Y352999D01*
Y351666D01*
X243997Y351000D01*
X242664D01*
X241997Y351666D01*
X251666Y354332D02*
X250999Y354999D01*
X249666D01*
X249000Y354332D01*
Y351666D01*
X249666Y351000D01*
X250999D01*
X251666Y351666D01*
X255664Y354332D02*
X254998Y354999D01*
X253665D01*
X252999Y354332D01*
Y353666D01*
X253665Y352999D01*
X254998D01*
X255664Y352333D01*
Y351666D01*
X254998Y351000D01*
X253665D01*
X252999Y351666D01*
X258997Y351000D02*
Y354999D01*
X256997Y352999D01*
X259663D01*
X267166Y354332D02*
X266499Y354999D01*
X265166D01*
X264500Y354332D01*
Y351666D01*
X265166Y351000D01*
X266499D01*
X267166Y351666D01*
X271164Y354332D02*
X270498Y354999D01*
X269165D01*
X268499Y354332D01*
Y353666D01*
X269165Y352999D01*
X270498D01*
X271164Y352333D01*
Y351666D01*
X270498Y351000D01*
X269165D01*
X268499Y351666D01*
X272497Y354332D02*
X273164Y354999D01*
X274497D01*
X275163Y354332D01*
Y353666D01*
X274497Y352999D01*
X273830D01*
X274497D01*
X275163Y352333D01*
Y351666D01*
X274497Y351000D01*
X273164D01*
X272497Y351666D01*
X282666Y354332D02*
X281999Y354999D01*
X280666D01*
X280000Y354332D01*
Y351666D01*
X280666Y351000D01*
X281999D01*
X282666Y351666D01*
X286665Y354332D02*
X285998Y354999D01*
X284665D01*
X283999Y354332D01*
Y353666D01*
X284665Y352999D01*
X285998D01*
X286665Y352333D01*
Y351666D01*
X285998Y351000D01*
X284665D01*
X283999Y351666D01*
X290663Y351000D02*
X287997D01*
X290663Y353666D01*
Y354332D01*
X289997Y354999D01*
X288664D01*
X287997Y354332D01*
X358668Y274850D02*
Y271517D01*
X359334Y270851D01*
X360667D01*
X361334Y271517D01*
Y274850D01*
X365332Y270851D02*
X362667D01*
X365332Y273517D01*
Y274183D01*
X364666Y274850D01*
X363333D01*
X362667Y274183D01*
X98334Y270999D02*
Y267667D01*
X99001Y267001D01*
X100334D01*
X101000Y267667D01*
Y270999D01*
X102333Y267001D02*
X103666D01*
X102999D01*
Y270999D01*
X102333Y270333D01*
X409669Y149999D02*
X412334D01*
X411002D01*
Y146001D01*
X413667D02*
Y149999D01*
X415667D01*
X416333Y149333D01*
Y148000D01*
X415667Y147334D01*
X413667D01*
X417666Y146001D02*
X418999D01*
X418333D01*
Y149999D01*
X417666Y149333D01*
X420998Y146001D02*
X422331D01*
X421665D01*
Y149999D01*
X420998Y149333D01*
X390002Y149999D02*
X392668D01*
X391335D01*
Y146001D01*
X394001D02*
Y149999D01*
X396000D01*
X396667Y149333D01*
Y148000D01*
X396000Y147334D01*
X394001D01*
X398000Y146001D02*
X399333D01*
X398666D01*
Y149999D01*
X398000Y149333D01*
X401332D02*
X401998Y149999D01*
X403331D01*
X403998Y149333D01*
Y146667D01*
X403331Y146001D01*
X401998D01*
X401332Y146667D01*
Y149333D01*
X295668Y143999D02*
X298334D01*
X297001D01*
Y140001D01*
X299667D02*
Y143999D01*
X301666D01*
X302333Y143333D01*
Y142000D01*
X301666Y141333D01*
X299667D01*
X303666Y140667D02*
X304332Y140001D01*
X305665D01*
X306332Y140667D01*
Y143333D01*
X305665Y143999D01*
X304332D01*
X303666Y143333D01*
Y142666D01*
X304332Y142000D01*
X306332D01*
X295668Y158999D02*
X298334D01*
X297001D01*
Y155001D01*
X299667D02*
Y158999D01*
X301666D01*
X302333Y158333D01*
Y157000D01*
X301666Y156333D01*
X299667D01*
X303666Y158333D02*
X304332Y158999D01*
X305665D01*
X306332Y158333D01*
Y157667D01*
X305665Y157000D01*
X306332Y156333D01*
Y155667D01*
X305665Y155001D01*
X304332D01*
X303666Y155667D01*
Y156333D01*
X304332Y157000D01*
X303666Y157667D01*
Y158333D01*
X304332Y157000D02*
X305665D01*
X295668Y173999D02*
X298334D01*
X297001D01*
Y170001D01*
X299667D02*
Y173999D01*
X301666D01*
X302333Y173333D01*
Y172000D01*
X301666Y171334D01*
X299667D01*
X303666Y173999D02*
X306332D01*
Y173333D01*
X303666Y170667D01*
Y170001D01*
X295668Y188999D02*
X298334D01*
X297001D01*
Y185001D01*
X299667D02*
Y188999D01*
X301666D01*
X302333Y188333D01*
Y187000D01*
X301666Y186334D01*
X299667D01*
X306332Y188999D02*
X304999Y188333D01*
X303666Y187000D01*
Y185667D01*
X304332Y185001D01*
X305665D01*
X306332Y185667D01*
Y186334D01*
X305665Y187000D01*
X303666D01*
X295668Y203999D02*
X298334D01*
X297001D01*
Y200001D01*
X299667D02*
Y203999D01*
X301666D01*
X302333Y203333D01*
Y202000D01*
X301666Y201333D01*
X299667D01*
X306332Y203999D02*
X303666D01*
Y202000D01*
X304999Y202666D01*
X305665D01*
X306332Y202000D01*
Y200667D01*
X305665Y200001D01*
X304332D01*
X303666Y200667D01*
X84668Y186999D02*
X87334D01*
X86001D01*
Y183001D01*
X88667D02*
Y186999D01*
X90666D01*
X91333Y186333D01*
Y185000D01*
X90666Y184334D01*
X88667D01*
X94665Y183001D02*
Y186999D01*
X92666Y185000D01*
X95332D01*
X295668Y218999D02*
X298334D01*
X297001D01*
Y215001D01*
X299667D02*
Y218999D01*
X301666D01*
X302333Y218333D01*
Y217000D01*
X301666Y216334D01*
X299667D01*
X303666Y218333D02*
X304332Y218999D01*
X305665D01*
X306332Y218333D01*
Y217666D01*
X305665Y217000D01*
X304999D01*
X305665D01*
X306332Y216334D01*
Y215667D01*
X305665Y215001D01*
X304332D01*
X303666Y215667D01*
X345168Y204499D02*
X347834D01*
X346501D01*
Y200501D01*
X349167D02*
Y204499D01*
X351166D01*
X351833Y203833D01*
Y202500D01*
X351166Y201834D01*
X349167D01*
X355832Y200501D02*
X353166D01*
X355832Y203167D01*
Y203833D01*
X355165Y204499D01*
X353832D01*
X353166Y203833D01*
X345835Y224499D02*
X348501D01*
X347168D01*
Y220501D01*
X349834D02*
Y224499D01*
X351833D01*
X352499Y223833D01*
Y222500D01*
X351833Y221834D01*
X349834D01*
X353832Y220501D02*
X355165D01*
X354499D01*
Y224499D01*
X353832Y223833D01*
X481002Y222001D02*
Y225999D01*
X483002D01*
X483668Y225333D01*
Y224000D01*
X483002Y223334D01*
X481002D01*
X482335D02*
X483668Y222001D01*
X485001D02*
X486334D01*
X485667D01*
Y225999D01*
X485001Y225333D01*
X490999Y225999D02*
X489666Y225333D01*
X488333Y224000D01*
Y222667D01*
X489000Y222001D01*
X490333D01*
X490999Y222667D01*
Y223334D01*
X490333Y224000D01*
X488333D01*
X494331Y222001D02*
Y225999D01*
X492332Y224000D01*
X494998D01*
X481002Y232001D02*
Y235999D01*
X483002D01*
X483668Y235333D01*
Y234000D01*
X483002Y233334D01*
X481002D01*
X482335D02*
X483668Y232001D01*
X485001D02*
X486334D01*
X485667D01*
Y235999D01*
X485001Y235333D01*
X490999Y235999D02*
X489666Y235333D01*
X488333Y234000D01*
Y232667D01*
X489000Y232001D01*
X490333D01*
X490999Y232667D01*
Y233334D01*
X490333Y234000D01*
X488333D01*
X492332Y235333D02*
X492998Y235999D01*
X494331D01*
X494998Y235333D01*
Y234666D01*
X494331Y234000D01*
X493665D01*
X494331D01*
X494998Y233334D01*
Y232667D01*
X494331Y232001D01*
X492998D01*
X492332Y232667D01*
X481002Y242001D02*
Y245999D01*
X483002D01*
X483668Y245333D01*
Y244000D01*
X483002Y243334D01*
X481002D01*
X482335D02*
X483668Y242001D01*
X485001D02*
X486334D01*
X485667D01*
Y245999D01*
X485001Y245333D01*
X490999Y245999D02*
X489666Y245333D01*
X488333Y244000D01*
Y242667D01*
X489000Y242001D01*
X490333D01*
X490999Y242667D01*
Y243334D01*
X490333Y244000D01*
X488333D01*
X494998Y242001D02*
X492332D01*
X494998Y244666D01*
Y245333D01*
X494331Y245999D01*
X492998D01*
X492332Y245333D01*
X481669Y252001D02*
Y255999D01*
X483668D01*
X484335Y255333D01*
Y254000D01*
X483668Y253334D01*
X481669D01*
X483002D02*
X484335Y252001D01*
X485667D02*
X487000D01*
X486334D01*
Y255999D01*
X485667Y255333D01*
X491666Y255999D02*
X490333Y255333D01*
X489000Y254000D01*
Y252667D01*
X489666Y252001D01*
X490999D01*
X491666Y252667D01*
Y253334D01*
X490999Y254000D01*
X489000D01*
X492998Y252001D02*
X494331D01*
X493665D01*
Y255999D01*
X492998Y255333D01*
X481002Y262001D02*
Y265999D01*
X483002D01*
X483668Y265333D01*
Y264000D01*
X483002Y263334D01*
X481002D01*
X482335D02*
X483668Y262001D01*
X485001D02*
X486334D01*
X485667D01*
Y265999D01*
X485001Y265333D01*
X490999Y265999D02*
X489666Y265333D01*
X488333Y264000D01*
Y262667D01*
X489000Y262001D01*
X490333D01*
X490999Y262667D01*
Y263334D01*
X490333Y264000D01*
X488333D01*
X492332Y265333D02*
X492998Y265999D01*
X494331D01*
X494998Y265333D01*
Y262667D01*
X494331Y262001D01*
X492998D01*
X492332Y262667D01*
Y265333D01*
X481002Y272001D02*
Y275999D01*
X483002D01*
X483668Y275333D01*
Y274000D01*
X483002Y273334D01*
X481002D01*
X482335D02*
X483668Y272001D01*
X485001D02*
X486334D01*
X485667D01*
Y275999D01*
X485001Y275333D01*
X490999Y275999D02*
X488333D01*
Y274000D01*
X489666Y274666D01*
X490333D01*
X490999Y274000D01*
Y272667D01*
X490333Y272001D01*
X489000D01*
X488333Y272667D01*
X492332D02*
X492998Y272001D01*
X494331D01*
X494998Y272667D01*
Y275333D01*
X494331Y275999D01*
X492998D01*
X492332Y275333D01*
Y274666D01*
X492998Y274000D01*
X494998D01*
X481002Y282001D02*
Y285999D01*
X483002D01*
X483668Y285333D01*
Y284000D01*
X483002Y283334D01*
X481002D01*
X482335D02*
X483668Y282001D01*
X485001D02*
X486334D01*
X485667D01*
Y285999D01*
X485001Y285333D01*
X490999Y285999D02*
X488333D01*
Y284000D01*
X489666Y284666D01*
X490333D01*
X490999Y284000D01*
Y282667D01*
X490333Y282001D01*
X489000D01*
X488333Y282667D01*
X492332Y285333D02*
X492998Y285999D01*
X494331D01*
X494998Y285333D01*
Y284666D01*
X494331Y284000D01*
X494998Y283334D01*
Y282667D01*
X494331Y282001D01*
X492998D01*
X492332Y282667D01*
Y283334D01*
X492998Y284000D01*
X492332Y284666D01*
Y285333D01*
X492998Y284000D02*
X494331D01*
X481002Y292001D02*
Y295999D01*
X483002D01*
X483668Y295333D01*
Y294000D01*
X483002Y293334D01*
X481002D01*
X482335D02*
X483668Y292001D01*
X485001D02*
X486334D01*
X485667D01*
Y295999D01*
X485001Y295333D01*
X490999Y295999D02*
X488333D01*
Y294000D01*
X489666Y294666D01*
X490333D01*
X490999Y294000D01*
Y292667D01*
X490333Y292001D01*
X489000D01*
X488333Y292667D01*
X492332Y295999D02*
X494998D01*
Y295333D01*
X492332Y292667D01*
Y292001D01*
X410002Y127001D02*
Y130999D01*
X412002D01*
X412668Y130333D01*
Y129000D01*
X412002Y128333D01*
X410002D01*
X411335D02*
X412668Y127001D01*
X414001D02*
X415334D01*
X414667D01*
Y130999D01*
X414001Y130333D01*
X419999Y130999D02*
X417333D01*
Y129000D01*
X418666Y129666D01*
X419333D01*
X419999Y129000D01*
Y127667D01*
X419333Y127001D01*
X418000D01*
X417333Y127667D01*
X423998Y130999D02*
X422665Y130333D01*
X421332Y129000D01*
Y127667D01*
X421998Y127001D01*
X423331D01*
X423998Y127667D01*
Y128333D01*
X423331Y129000D01*
X421332D01*
X390002Y127001D02*
Y130999D01*
X392002D01*
X392668Y130333D01*
Y129000D01*
X392002Y128333D01*
X390002D01*
X391335D02*
X392668Y127001D01*
X394001D02*
X395334D01*
X394667D01*
Y130999D01*
X394001Y130333D01*
X399999Y130999D02*
X397333D01*
Y129000D01*
X398666Y129666D01*
X399333D01*
X399999Y129000D01*
Y127667D01*
X399333Y127001D01*
X398000D01*
X397333Y127667D01*
X403998Y130999D02*
X401332D01*
Y129000D01*
X402665Y129666D01*
X403331D01*
X403998Y129000D01*
Y127667D01*
X403331Y127001D01*
X401998D01*
X401332Y127667D01*
X411002Y167001D02*
Y170999D01*
X413002D01*
X413668Y170333D01*
Y169000D01*
X413002Y168333D01*
X411002D01*
X412335D02*
X413668Y167001D01*
X415001D02*
X416334D01*
X415667D01*
Y170999D01*
X415001Y170333D01*
X420999Y170999D02*
X418333D01*
Y169000D01*
X419666Y169667D01*
X420333D01*
X420999Y169000D01*
Y167667D01*
X420333Y167001D01*
X419000D01*
X418333Y167667D01*
X424331Y167001D02*
Y170999D01*
X422332Y169000D01*
X424998D01*
X391002Y167001D02*
Y170999D01*
X393002D01*
X393668Y170333D01*
Y169000D01*
X393002Y168333D01*
X391002D01*
X392335D02*
X393668Y167001D01*
X395001D02*
X396334D01*
X395667D01*
Y170999D01*
X395001Y170333D01*
X400999Y170999D02*
X398333D01*
Y169000D01*
X399666Y169667D01*
X400333D01*
X400999Y169000D01*
Y167667D01*
X400333Y167001D01*
X399000D01*
X398333Y167667D01*
X402332Y170333D02*
X402998Y170999D01*
X404331D01*
X404998Y170333D01*
Y169667D01*
X404331Y169000D01*
X403665D01*
X404331D01*
X404998Y168333D01*
Y167667D01*
X404331Y167001D01*
X402998D01*
X402332Y167667D01*
X310002Y29501D02*
Y33499D01*
X312002D01*
X312668Y32833D01*
Y31500D01*
X312002Y30834D01*
X310002D01*
X311335D02*
X312668Y29501D01*
X314001D02*
X315334D01*
X314667D01*
Y33499D01*
X314001Y32833D01*
X319999Y33499D02*
X317333D01*
Y31500D01*
X318666Y32166D01*
X319333D01*
X319999Y31500D01*
Y30167D01*
X319333Y29501D01*
X318000D01*
X317333Y30167D01*
X323998Y29501D02*
X321332D01*
X323998Y32166D01*
Y32833D01*
X323331Y33499D01*
X321998D01*
X321332Y32833D01*
X309669Y37501D02*
Y41499D01*
X311668D01*
X312334Y40833D01*
Y39500D01*
X311668Y38834D01*
X309669D01*
X311002D02*
X312334Y37501D01*
X313667D02*
X315000D01*
X314334D01*
Y41499D01*
X313667Y40833D01*
X319666Y41499D02*
X317000D01*
Y39500D01*
X318333Y40166D01*
X318999D01*
X319666Y39500D01*
Y38167D01*
X318999Y37501D01*
X317666D01*
X317000Y38167D01*
X320998Y37501D02*
X322331D01*
X321665D01*
Y41499D01*
X320998Y40833D01*
X310002Y19501D02*
Y23499D01*
X312002D01*
X312668Y22833D01*
Y21500D01*
X312002Y20833D01*
X310002D01*
X311335D02*
X312668Y19501D01*
X314001D02*
X315334D01*
X314667D01*
Y23499D01*
X314001Y22833D01*
X319999Y23499D02*
X317333D01*
Y21500D01*
X318666Y22166D01*
X319333D01*
X319999Y21500D01*
Y20167D01*
X319333Y19501D01*
X318000D01*
X317333Y20167D01*
X321332Y22833D02*
X321998Y23499D01*
X323331D01*
X323998Y22833D01*
Y20167D01*
X323331Y19501D01*
X321998D01*
X321332Y20167D01*
Y22833D01*
X218002Y28501D02*
Y32499D01*
X220002D01*
X220668Y31833D01*
Y30500D01*
X220002Y29834D01*
X218002D01*
X219335D02*
X220668Y28501D01*
X222001D02*
X223334D01*
X222667D01*
Y32499D01*
X222001Y31833D01*
X227333Y28501D02*
Y32499D01*
X225333Y30500D01*
X227999D01*
X229332Y29167D02*
X229998Y28501D01*
X231331D01*
X231998Y29167D01*
Y31833D01*
X231331Y32499D01*
X229998D01*
X229332Y31833D01*
Y31166D01*
X229998Y30500D01*
X231998D01*
X218002Y37501D02*
Y41499D01*
X220002D01*
X220668Y40833D01*
Y39500D01*
X220002Y38834D01*
X218002D01*
X219335D02*
X220668Y37501D01*
X222001D02*
X223334D01*
X222667D01*
Y41499D01*
X222001Y40833D01*
X227333Y37501D02*
Y41499D01*
X225333Y39500D01*
X227999D01*
X229332Y40833D02*
X229998Y41499D01*
X231331D01*
X231998Y40833D01*
Y40166D01*
X231331Y39500D01*
X231998Y38834D01*
Y38167D01*
X231331Y37501D01*
X229998D01*
X229332Y38167D01*
Y38834D01*
X229998Y39500D01*
X229332Y40166D01*
Y40833D01*
X229998Y39500D02*
X231331D01*
X415002Y28501D02*
Y32499D01*
X417002D01*
X417668Y31833D01*
Y30500D01*
X417002Y29834D01*
X415002D01*
X416335D02*
X417668Y28501D01*
X419001D02*
X420334D01*
X419667D01*
Y32499D01*
X419001Y31833D01*
X424333Y28501D02*
Y32499D01*
X422333Y30500D01*
X424999D01*
X426332Y32499D02*
X428998D01*
Y31833D01*
X426332Y29167D01*
Y28501D01*
X218002Y19501D02*
Y23499D01*
X220002D01*
X220668Y22833D01*
Y21500D01*
X220002Y20833D01*
X218002D01*
X219335D02*
X220668Y19501D01*
X222001D02*
X223334D01*
X222667D01*
Y23499D01*
X222001Y22833D01*
X227333Y19501D02*
Y23499D01*
X225333Y21500D01*
X227999D01*
X231998Y23499D02*
X230665Y22833D01*
X229332Y21500D01*
Y20167D01*
X229998Y19501D01*
X231331D01*
X231998Y20167D01*
Y20833D01*
X231331Y21500D01*
X229332D01*
X415002Y37501D02*
Y41499D01*
X417002D01*
X417668Y40833D01*
Y39500D01*
X417002Y38834D01*
X415002D01*
X416335D02*
X417668Y37501D01*
X419001D02*
X420334D01*
X419667D01*
Y41499D01*
X419001Y40833D01*
X424333Y37501D02*
Y41499D01*
X422333Y39500D01*
X424999D01*
X428998Y41499D02*
X426332D01*
Y39500D01*
X427665Y40166D01*
X428331D01*
X428998Y39500D01*
Y38167D01*
X428331Y37501D01*
X426998D01*
X426332Y38167D01*
X415002Y19501D02*
Y23499D01*
X417002D01*
X417668Y22833D01*
Y21500D01*
X417002Y20833D01*
X415002D01*
X416335D02*
X417668Y19501D01*
X419001D02*
X420334D01*
X419667D01*
Y23499D01*
X419001Y22833D01*
X424333Y19501D02*
Y23499D01*
X422333Y21500D01*
X424999D01*
X428331Y19501D02*
Y23499D01*
X426332Y21500D01*
X428998D01*
X329002Y28001D02*
Y31999D01*
X331002D01*
X331668Y31333D01*
Y30000D01*
X331002Y29334D01*
X329002D01*
X330335D02*
X331668Y28001D01*
X333001D02*
X334334D01*
X333667D01*
Y31999D01*
X333001Y31333D01*
X338333Y28001D02*
Y31999D01*
X336333Y30000D01*
X338999D01*
X340332Y31333D02*
X340998Y31999D01*
X342331D01*
X342998Y31333D01*
Y30666D01*
X342331Y30000D01*
X341665D01*
X342331D01*
X342998Y29334D01*
Y28667D01*
X342331Y28001D01*
X340998D01*
X340332Y28667D01*
X329002Y37001D02*
Y40999D01*
X331002D01*
X331668Y40333D01*
Y39000D01*
X331002Y38334D01*
X329002D01*
X330335D02*
X331668Y37001D01*
X333001D02*
X334334D01*
X333667D01*
Y40999D01*
X333001Y40333D01*
X338333Y37001D02*
Y40999D01*
X336333Y39000D01*
X338999D01*
X342998Y37001D02*
X340332D01*
X342998Y39666D01*
Y40333D01*
X342331Y40999D01*
X340998D01*
X340332Y40333D01*
X329002Y19001D02*
Y22999D01*
X331002D01*
X331668Y22333D01*
Y21000D01*
X331002Y20334D01*
X329002D01*
X330335D02*
X331668Y19001D01*
X333001D02*
X334334D01*
X333667D01*
Y22999D01*
X333001Y22333D01*
X338333Y19001D02*
Y22999D01*
X336333Y21000D01*
X338999D01*
X340332Y19001D02*
X341665D01*
X340998D01*
Y22999D01*
X340332Y22333D01*
X415853Y67001D02*
Y70999D01*
X417852D01*
X418518Y70333D01*
Y69000D01*
X417852Y68334D01*
X415853D01*
X417185D02*
X418518Y67001D01*
X419851D02*
X421184D01*
X420518D01*
Y70999D01*
X419851Y70333D01*
X425183Y67001D02*
Y70999D01*
X423184Y69000D01*
X425849D01*
X427182Y70333D02*
X427849Y70999D01*
X429182D01*
X429848Y70333D01*
Y67667D01*
X429182Y67001D01*
X427849D01*
X427182Y67667D01*
Y70333D01*
X309002Y67001D02*
Y70999D01*
X311002D01*
X311668Y70333D01*
Y69000D01*
X311002Y68334D01*
X309002D01*
X310335D02*
X311668Y67001D01*
X313001D02*
X314334D01*
X313667D01*
Y70999D01*
X313001Y70333D01*
X316333D02*
X317000Y70999D01*
X318333D01*
X318999Y70333D01*
Y69666D01*
X318333Y69000D01*
X317666D01*
X318333D01*
X318999Y68334D01*
Y67667D01*
X318333Y67001D01*
X317000D01*
X316333Y67667D01*
X320332D02*
X320998Y67001D01*
X322331D01*
X322998Y67667D01*
Y70333D01*
X322331Y70999D01*
X320998D01*
X320332Y70333D01*
Y69666D01*
X320998Y69000D01*
X322998D01*
X415853Y76001D02*
Y79999D01*
X417852D01*
X418518Y79333D01*
Y78000D01*
X417852Y77334D01*
X415853D01*
X417185D02*
X418518Y76001D01*
X419851D02*
X421184D01*
X420518D01*
Y79999D01*
X419851Y79333D01*
X423184D02*
X423850Y79999D01*
X425183D01*
X425849Y79333D01*
Y78666D01*
X425183Y78000D01*
X424516D01*
X425183D01*
X425849Y77334D01*
Y76667D01*
X425183Y76001D01*
X423850D01*
X423184Y76667D01*
X427182Y79333D02*
X427849Y79999D01*
X429182D01*
X429848Y79333D01*
Y78666D01*
X429182Y78000D01*
X429848Y77334D01*
Y76667D01*
X429182Y76001D01*
X427849D01*
X427182Y76667D01*
Y77334D01*
X427849Y78000D01*
X427182Y78666D01*
Y79333D01*
X427849Y78000D02*
X429182D01*
X309002Y76001D02*
Y79999D01*
X311002D01*
X311668Y79333D01*
Y78000D01*
X311002Y77334D01*
X309002D01*
X310335D02*
X311668Y76001D01*
X313001D02*
X314334D01*
X313667D01*
Y79999D01*
X313001Y79333D01*
X316333D02*
X317000Y79999D01*
X318333D01*
X318999Y79333D01*
Y78666D01*
X318333Y78000D01*
X317666D01*
X318333D01*
X318999Y77334D01*
Y76667D01*
X318333Y76001D01*
X317000D01*
X316333Y76667D01*
X320332Y79999D02*
X322998D01*
Y79333D01*
X320332Y76667D01*
Y76001D01*
X416002Y58501D02*
Y62499D01*
X418002D01*
X418668Y61833D01*
Y60500D01*
X418002Y59834D01*
X416002D01*
X417335D02*
X418668Y58501D01*
X420001D02*
X421334D01*
X420667D01*
Y62499D01*
X420001Y61833D01*
X423333D02*
X424000Y62499D01*
X425333D01*
X425999Y61833D01*
Y61166D01*
X425333Y60500D01*
X424666D01*
X425333D01*
X425999Y59834D01*
Y59167D01*
X425333Y58501D01*
X424000D01*
X423333Y59167D01*
X429998Y62499D02*
X428665Y61833D01*
X427332Y60500D01*
Y59167D01*
X427998Y58501D01*
X429331D01*
X429998Y59167D01*
Y59834D01*
X429331Y60500D01*
X427332D01*
X309002Y58001D02*
Y61999D01*
X311002D01*
X311668Y61333D01*
Y60000D01*
X311002Y59334D01*
X309002D01*
X310335D02*
X311668Y58001D01*
X313001D02*
X314334D01*
X313667D01*
Y61999D01*
X313001Y61333D01*
X316333D02*
X317000Y61999D01*
X318333D01*
X318999Y61333D01*
Y60666D01*
X318333Y60000D01*
X317666D01*
X318333D01*
X318999Y59334D01*
Y58667D01*
X318333Y58001D01*
X317000D01*
X316333Y58667D01*
X322998Y61999D02*
X320332D01*
Y60000D01*
X321665Y60666D01*
X322331D01*
X322998Y60000D01*
Y58667D01*
X322331Y58001D01*
X320998D01*
X320332Y58667D01*
X328002Y66501D02*
Y70499D01*
X330002D01*
X330668Y69833D01*
Y68500D01*
X330002Y67834D01*
X328002D01*
X329335D02*
X330668Y66501D01*
X332001D02*
X333334D01*
X332667D01*
Y70499D01*
X332001Y69833D01*
X335333D02*
X336000Y70499D01*
X337333D01*
X337999Y69833D01*
Y69166D01*
X337333Y68500D01*
X336666D01*
X337333D01*
X337999Y67834D01*
Y67167D01*
X337333Y66501D01*
X336000D01*
X335333Y67167D01*
X341331Y66501D02*
Y70499D01*
X339332Y68500D01*
X341998D01*
X219002Y67001D02*
Y70999D01*
X221002D01*
X221668Y70333D01*
Y69000D01*
X221002Y68334D01*
X219002D01*
X220335D02*
X221668Y67001D01*
X223001D02*
X224334D01*
X223667D01*
Y70999D01*
X223001Y70333D01*
X226333D02*
X227000Y70999D01*
X228333D01*
X228999Y70333D01*
Y69666D01*
X228333Y69000D01*
X227666D01*
X228333D01*
X228999Y68334D01*
Y67667D01*
X228333Y67001D01*
X227000D01*
X226333Y67667D01*
X230332Y70333D02*
X230998Y70999D01*
X232331D01*
X232998Y70333D01*
Y69666D01*
X232331Y69000D01*
X231665D01*
X232331D01*
X232998Y68334D01*
Y67667D01*
X232331Y67001D01*
X230998D01*
X230332Y67667D01*
X328002Y75501D02*
Y79499D01*
X330002D01*
X330668Y78833D01*
Y77500D01*
X330002Y76834D01*
X328002D01*
X329335D02*
X330668Y75501D01*
X332001D02*
X333334D01*
X332667D01*
Y79499D01*
X332001Y78833D01*
X335333D02*
X336000Y79499D01*
X337333D01*
X337999Y78833D01*
Y78166D01*
X337333Y77500D01*
X336666D01*
X337333D01*
X337999Y76834D01*
Y76167D01*
X337333Y75501D01*
X336000D01*
X335333Y76167D01*
X341998Y75501D02*
X339332D01*
X341998Y78166D01*
Y78833D01*
X341331Y79499D01*
X339998D01*
X339332Y78833D01*
X219669Y75501D02*
Y79499D01*
X221668D01*
X222335Y78833D01*
Y77500D01*
X221668Y76834D01*
X219669D01*
X221002D02*
X222335Y75501D01*
X223667D02*
X225000D01*
X224334D01*
Y79499D01*
X223667Y78833D01*
X227000D02*
X227666Y79499D01*
X228999D01*
X229665Y78833D01*
Y78166D01*
X228999Y77500D01*
X228333D01*
X228999D01*
X229665Y76834D01*
Y76167D01*
X228999Y75501D01*
X227666D01*
X227000Y76167D01*
X230998Y75501D02*
X232331D01*
X231665D01*
Y79499D01*
X230998Y78833D01*
X328002Y58501D02*
Y62499D01*
X330002D01*
X330668Y61833D01*
Y60500D01*
X330002Y59834D01*
X328002D01*
X329335D02*
X330668Y58501D01*
X332001D02*
X333334D01*
X332667D01*
Y62499D01*
X332001Y61833D01*
X335333D02*
X336000Y62499D01*
X337333D01*
X337999Y61833D01*
Y61166D01*
X337333Y60500D01*
X336666D01*
X337333D01*
X337999Y59834D01*
Y59167D01*
X337333Y58501D01*
X336000D01*
X335333Y59167D01*
X339332Y61833D02*
X339998Y62499D01*
X341331D01*
X341998Y61833D01*
Y59167D01*
X341331Y58501D01*
X339998D01*
X339332Y59167D01*
Y61833D01*
X219002Y57501D02*
Y61499D01*
X221002D01*
X221668Y60833D01*
Y59500D01*
X221002Y58834D01*
X219002D01*
X220335D02*
X221668Y57501D01*
X223001D02*
X224334D01*
X223667D01*
Y61499D01*
X223001Y60833D01*
X228999Y57501D02*
X226333D01*
X228999Y60166D01*
Y60833D01*
X228333Y61499D01*
X227000D01*
X226333Y60833D01*
X230332Y58167D02*
X230998Y57501D01*
X232331D01*
X232998Y58167D01*
Y60833D01*
X232331Y61499D01*
X230998D01*
X230332Y60833D01*
Y60166D01*
X230998Y59500D01*
X232998D01*
X515999Y79002D02*
X512001D01*
Y81002D01*
X512667Y81668D01*
X514000D01*
X514666Y81002D01*
Y79002D01*
Y80335D02*
X515999Y81668D01*
Y83001D02*
Y84334D01*
Y83667D01*
X512001D01*
X512667Y83001D01*
X515999Y88999D02*
Y86333D01*
X513334Y88999D01*
X512667D01*
X512001Y88333D01*
Y87000D01*
X512667Y86333D01*
Y90332D02*
X512001Y90998D01*
Y92331D01*
X512667Y92998D01*
X513334D01*
X514000Y92331D01*
X514666Y92998D01*
X515333D01*
X515999Y92331D01*
Y90998D01*
X515333Y90332D01*
X514666D01*
X514000Y90998D01*
X513334Y90332D01*
X512667D01*
X514000Y90998D02*
Y92331D01*
X505999Y169002D02*
X502001D01*
Y171002D01*
X502667Y171668D01*
X504000D01*
X504666Y171002D01*
Y169002D01*
Y170335D02*
X505999Y171668D01*
Y173001D02*
Y174334D01*
Y173667D01*
X502001D01*
X502667Y173001D01*
X505999Y178999D02*
Y176333D01*
X503334Y178999D01*
X502667D01*
X502001Y178333D01*
Y177000D01*
X502667Y176333D01*
X502001Y180332D02*
Y182998D01*
X502667D01*
X505333Y180332D01*
X505999D01*
X515999Y34502D02*
X512001D01*
Y36502D01*
X512667Y37168D01*
X514000D01*
X514666Y36502D01*
Y34502D01*
Y35835D02*
X515999Y37168D01*
Y38501D02*
Y39834D01*
Y39167D01*
X512001D01*
X512667Y38501D01*
X515999Y44499D02*
Y41833D01*
X513334Y44499D01*
X512667D01*
X512001Y43833D01*
Y42500D01*
X512667Y41833D01*
X512001Y48498D02*
X512667Y47165D01*
X514000Y45832D01*
X515333D01*
X515999Y46498D01*
Y47831D01*
X515333Y48498D01*
X514666D01*
X514000Y47831D01*
Y45832D01*
X505999Y34502D02*
X502001D01*
Y36502D01*
X502667Y37168D01*
X504000D01*
X504666Y36502D01*
Y34502D01*
Y35835D02*
X505999Y37168D01*
Y38501D02*
Y39834D01*
Y39167D01*
X502001D01*
X502667Y38501D01*
X505999Y44499D02*
Y41833D01*
X503334Y44499D01*
X502667D01*
X502001Y43833D01*
Y42500D01*
X502667Y41833D01*
X502001Y48498D02*
Y45832D01*
X504000D01*
X503334Y47165D01*
Y47831D01*
X504000Y48498D01*
X505333D01*
X505999Y47831D01*
Y46498D01*
X505333Y45832D01*
X515999Y169002D02*
X512001D01*
Y171002D01*
X512667Y171668D01*
X514000D01*
X514666Y171002D01*
Y169002D01*
Y170335D02*
X515999Y171668D01*
Y173001D02*
Y174334D01*
Y173667D01*
X512001D01*
X512667Y173001D01*
X515999Y178999D02*
Y176333D01*
X513334Y178999D01*
X512667D01*
X512001Y178333D01*
Y177000D01*
X512667Y176333D01*
X515999Y182331D02*
X512001D01*
X514000Y180332D01*
Y182998D01*
X505999Y79002D02*
X502001D01*
Y81002D01*
X502667Y81668D01*
X504000D01*
X504666Y81002D01*
Y79002D01*
Y80335D02*
X505999Y81668D01*
Y83001D02*
Y84334D01*
Y83667D01*
X502001D01*
X502667Y83001D01*
X505999Y88999D02*
Y86333D01*
X503334Y88999D01*
X502667D01*
X502001Y88333D01*
Y87000D01*
X502667Y86333D01*
Y90332D02*
X502001Y90998D01*
Y92331D01*
X502667Y92998D01*
X503334D01*
X504000Y92331D01*
Y91665D01*
Y92331D01*
X504666Y92998D01*
X505333D01*
X505999Y92331D01*
Y90998D01*
X505333Y90332D01*
X525999Y79002D02*
X522001D01*
Y81002D01*
X522667Y81668D01*
X524000D01*
X524666Y81002D01*
Y79002D01*
Y80335D02*
X525999Y81668D01*
Y83001D02*
Y84334D01*
Y83667D01*
X522001D01*
X522667Y83001D01*
X525999Y88999D02*
Y86333D01*
X523334Y88999D01*
X522667D01*
X522001Y88333D01*
Y87000D01*
X522667Y86333D01*
X525999Y92998D02*
Y90332D01*
X523334Y92998D01*
X522667D01*
X522001Y92331D01*
Y90998D01*
X522667Y90332D01*
X495999Y169669D02*
X492001D01*
Y171668D01*
X492667Y172335D01*
X494000D01*
X494666Y171668D01*
Y169669D01*
Y171002D02*
X495999Y172335D01*
Y173667D02*
Y175000D01*
Y174334D01*
X492001D01*
X492667Y173667D01*
X495999Y179666D02*
Y177000D01*
X493333Y179666D01*
X492667D01*
X492001Y178999D01*
Y177666D01*
X492667Y177000D01*
X495999Y180998D02*
Y182331D01*
Y181665D01*
X492001D01*
X492667Y180998D01*
X525999Y34502D02*
X522001D01*
Y36502D01*
X522667Y37168D01*
X524000D01*
X524666Y36502D01*
Y34502D01*
Y35835D02*
X525999Y37168D01*
Y38501D02*
Y39834D01*
Y39167D01*
X522001D01*
X522667Y38501D01*
X525999Y44499D02*
Y41833D01*
X523334Y44499D01*
X522667D01*
X522001Y43833D01*
Y42500D01*
X522667Y41833D01*
Y45832D02*
X522001Y46498D01*
Y47831D01*
X522667Y48498D01*
X525333D01*
X525999Y47831D01*
Y46498D01*
X525333Y45832D01*
X522667D01*
X495999Y34835D02*
X492001D01*
Y36835D01*
X492667Y37501D01*
X494000D01*
X494666Y36835D01*
Y34835D01*
Y36168D02*
X495999Y37501D01*
Y38834D02*
Y40167D01*
Y39501D01*
X492001D01*
X492667Y38834D01*
X495999Y42167D02*
Y43499D01*
Y42833D01*
X492001D01*
X492667Y42167D01*
X495333Y45499D02*
X495999Y46165D01*
Y47498D01*
X495333Y48164D01*
X492667D01*
X492001Y47498D01*
Y46165D01*
X492667Y45499D01*
X493334D01*
X494000Y46165D01*
Y48164D01*
X525999Y169335D02*
X522001D01*
Y171335D01*
X522667Y172001D01*
X524000D01*
X524666Y171335D01*
Y169335D01*
Y170668D02*
X525999Y172001D01*
Y173334D02*
Y174667D01*
Y174001D01*
X522001D01*
X522667Y173334D01*
X525999Y176666D02*
Y177999D01*
Y177333D01*
X522001D01*
X522667Y176666D01*
Y179999D02*
X522001Y180665D01*
Y181998D01*
X522667Y182665D01*
X523334D01*
X524000Y181998D01*
X524666Y182665D01*
X525333D01*
X525999Y181998D01*
Y180665D01*
X525333Y179999D01*
X524666D01*
X524000Y180665D01*
X523334Y179999D01*
X522667D01*
X524000Y180665D02*
Y181998D01*
X495999Y79335D02*
X492001D01*
Y81335D01*
X492667Y82001D01*
X494000D01*
X494666Y81335D01*
Y79335D01*
Y80668D02*
X495999Y82001D01*
Y83334D02*
Y84667D01*
Y84001D01*
X492001D01*
X492667Y83334D01*
X495999Y86667D02*
Y87999D01*
Y87333D01*
X492001D01*
X492667Y86667D01*
X492001Y89999D02*
Y92664D01*
X492667D01*
X495333Y89999D01*
X495999D01*
X535999Y79335D02*
X532001D01*
Y81335D01*
X532667Y82001D01*
X534000D01*
X534666Y81335D01*
Y79335D01*
Y80668D02*
X535999Y82001D01*
Y83334D02*
Y84667D01*
Y84001D01*
X532001D01*
X532667Y83334D01*
X535999Y86667D02*
Y87999D01*
Y87333D01*
X532001D01*
X532667Y86667D01*
X532001Y92664D02*
X532667Y91332D01*
X534000Y89999D01*
X535333D01*
X535999Y90665D01*
Y91998D01*
X535333Y92664D01*
X534666D01*
X534000Y91998D01*
Y89999D01*
X485999Y169335D02*
X482001D01*
Y171335D01*
X482667Y172001D01*
X484000D01*
X484666Y171335D01*
Y169335D01*
Y170668D02*
X485999Y172001D01*
Y173334D02*
Y174667D01*
Y174001D01*
X482001D01*
X482667Y173334D01*
X485999Y176666D02*
Y177999D01*
Y177333D01*
X482001D01*
X482667Y176666D01*
X482001Y182665D02*
Y179999D01*
X484000D01*
X483334Y181332D01*
Y181998D01*
X484000Y182665D01*
X485333D01*
X485999Y181998D01*
Y180665D01*
X485333Y179999D01*
X535999Y34835D02*
X532001D01*
Y36835D01*
X532667Y37501D01*
X534000D01*
X534666Y36835D01*
Y34835D01*
Y36168D02*
X535999Y37501D01*
Y38834D02*
Y40167D01*
Y39501D01*
X532001D01*
X532667Y38834D01*
X535999Y42167D02*
Y43499D01*
Y42833D01*
X532001D01*
X532667Y42167D01*
X535999Y47498D02*
X532001D01*
X534000Y45499D01*
Y48164D01*
X485999Y34835D02*
X482001D01*
Y36835D01*
X482667Y37501D01*
X484000D01*
X484666Y36835D01*
Y34835D01*
Y36168D02*
X485999Y37501D01*
Y38834D02*
Y40167D01*
Y39501D01*
X482001D01*
X482667Y38834D01*
X485999Y42167D02*
Y43499D01*
Y42833D01*
X482001D01*
X482667Y42167D01*
Y45499D02*
X482001Y46165D01*
Y47498D01*
X482667Y48164D01*
X483334D01*
X484000Y47498D01*
Y46832D01*
Y47498D01*
X484666Y48164D01*
X485333D01*
X485999Y47498D01*
Y46165D01*
X485333Y45499D01*
X535999Y169335D02*
X532001D01*
Y171335D01*
X532667Y172001D01*
X534000D01*
X534666Y171335D01*
Y169335D01*
Y170668D02*
X535999Y172001D01*
Y173334D02*
Y174667D01*
Y174001D01*
X532001D01*
X532667Y173334D01*
X535999Y176666D02*
Y177999D01*
Y177333D01*
X532001D01*
X532667Y176666D01*
X535999Y182665D02*
Y179999D01*
X533334Y182665D01*
X532667D01*
X532001Y181998D01*
Y180665D01*
X532667Y179999D01*
X485999Y80002D02*
X482001D01*
Y82001D01*
X482667Y82668D01*
X484000D01*
X484666Y82001D01*
Y80002D01*
Y81335D02*
X485999Y82668D01*
Y84001D02*
Y85334D01*
Y84667D01*
X482001D01*
X482667Y84001D01*
X485999Y87333D02*
Y88666D01*
Y87999D01*
X482001D01*
X482667Y87333D01*
X485999Y90665D02*
Y91998D01*
Y91332D01*
X482001D01*
X482667Y90665D01*
X545999Y79335D02*
X542001D01*
Y81335D01*
X542667Y82001D01*
X544000D01*
X544666Y81335D01*
Y79335D01*
Y80668D02*
X545999Y82001D01*
Y83334D02*
Y84667D01*
Y84001D01*
X542001D01*
X542667Y83334D01*
X545999Y86667D02*
Y87999D01*
Y87333D01*
X542001D01*
X542667Y86667D01*
Y89999D02*
X542001Y90665D01*
Y91998D01*
X542667Y92664D01*
X545333D01*
X545999Y91998D01*
Y90665D01*
X545333Y89999D01*
X542667D01*
X475999Y169002D02*
X472001D01*
Y171002D01*
X472667Y171668D01*
X474000D01*
X474666Y171002D01*
Y169002D01*
Y170335D02*
X475999Y171668D01*
Y173001D02*
Y174334D01*
Y173667D01*
X472001D01*
X472667Y173001D01*
Y176333D02*
X472001Y177000D01*
Y178333D01*
X472667Y178999D01*
X475333D01*
X475999Y178333D01*
Y177000D01*
X475333Y176333D01*
X472667D01*
X475333Y180332D02*
X475999Y180998D01*
Y182331D01*
X475333Y182998D01*
X472667D01*
X472001Y182331D01*
Y180998D01*
X472667Y180332D01*
X473334D01*
X474000Y180998D01*
Y182998D01*
X545999Y34502D02*
X542001D01*
Y36502D01*
X542667Y37168D01*
X544000D01*
X544666Y36502D01*
Y34502D01*
Y35835D02*
X545999Y37168D01*
Y38501D02*
Y39834D01*
Y39167D01*
X542001D01*
X542667Y38501D01*
Y41833D02*
X542001Y42500D01*
Y43833D01*
X542667Y44499D01*
X545333D01*
X545999Y43833D01*
Y42500D01*
X545333Y41833D01*
X542667D01*
Y45832D02*
X542001Y46498D01*
Y47831D01*
X542667Y48498D01*
X543334D01*
X544000Y47831D01*
X544666Y48498D01*
X545333D01*
X545999Y47831D01*
Y46498D01*
X545333Y45832D01*
X544666D01*
X544000Y46498D01*
X543334Y45832D01*
X542667D01*
X544000Y46498D02*
Y47831D01*
X475999Y34502D02*
X472001D01*
Y36502D01*
X472667Y37168D01*
X474000D01*
X474666Y36502D01*
Y34502D01*
Y35835D02*
X475999Y37168D01*
Y38501D02*
Y39834D01*
Y39167D01*
X472001D01*
X472667Y38501D01*
Y41833D02*
X472001Y42500D01*
Y43833D01*
X472667Y44499D01*
X475333D01*
X475999Y43833D01*
Y42500D01*
X475333Y41833D01*
X472667D01*
X472001Y45832D02*
Y48498D01*
X472667D01*
X475333Y45832D01*
X475999D01*
X545999Y169002D02*
X542001D01*
Y171002D01*
X542667Y171668D01*
X544000D01*
X544666Y171002D01*
Y169002D01*
Y170335D02*
X545999Y171668D01*
Y173001D02*
Y174334D01*
Y173667D01*
X542001D01*
X542667Y173001D01*
Y176333D02*
X542001Y177000D01*
Y178333D01*
X542667Y178999D01*
X545333D01*
X545999Y178333D01*
Y177000D01*
X545333Y176333D01*
X542667D01*
X542001Y182998D02*
X542667Y181665D01*
X544000Y180332D01*
X545333D01*
X545999Y180998D01*
Y182331D01*
X545333Y182998D01*
X544666D01*
X544000Y182331D01*
Y180332D01*
X475999Y79002D02*
X472001D01*
Y81002D01*
X472667Y81668D01*
X474000D01*
X474666Y81002D01*
Y79002D01*
Y80335D02*
X475999Y81668D01*
Y83001D02*
Y84334D01*
Y83667D01*
X472001D01*
X472667Y83001D01*
Y86333D02*
X472001Y87000D01*
Y88333D01*
X472667Y88999D01*
X475333D01*
X475999Y88333D01*
Y87000D01*
X475333Y86333D01*
X472667D01*
X472001Y92998D02*
Y90332D01*
X474000D01*
X473334Y91665D01*
Y92331D01*
X474000Y92998D01*
X475333D01*
X475999Y92331D01*
Y90998D01*
X475333Y90332D01*
X213999Y99002D02*
X210001D01*
Y101002D01*
X210667Y101668D01*
X212000D01*
X212666Y101002D01*
Y99002D01*
Y100335D02*
X213999Y101668D01*
Y103001D02*
Y104334D01*
Y103667D01*
X210001D01*
X210667Y103001D01*
Y106333D02*
X210001Y107000D01*
Y108333D01*
X210667Y108999D01*
X213333D01*
X213999Y108333D01*
Y107000D01*
X213333Y106333D01*
X210667D01*
X213999Y112331D02*
X210001D01*
X212000Y110332D01*
Y112998D01*
X219999Y99002D02*
X216001D01*
Y101002D01*
X216667Y101668D01*
X218000D01*
X218666Y101002D01*
Y99002D01*
Y100335D02*
X219999Y101668D01*
Y103001D02*
Y104334D01*
Y103667D01*
X216001D01*
X216667Y103001D01*
Y106333D02*
X216001Y107000D01*
Y108333D01*
X216667Y108999D01*
X219333D01*
X219999Y108333D01*
Y107000D01*
X219333Y106333D01*
X216667D01*
Y110332D02*
X216001Y110998D01*
Y112331D01*
X216667Y112998D01*
X217334D01*
X218000Y112331D01*
Y111665D01*
Y112331D01*
X218666Y112998D01*
X219333D01*
X219999Y112331D01*
Y110998D01*
X219333Y110332D01*
X225999Y99002D02*
X222001D01*
Y101002D01*
X222667Y101668D01*
X224000D01*
X224666Y101002D01*
Y99002D01*
Y100335D02*
X225999Y101668D01*
Y103001D02*
Y104334D01*
Y103667D01*
X222001D01*
X222667Y103001D01*
Y106333D02*
X222001Y107000D01*
Y108333D01*
X222667Y108999D01*
X225333D01*
X225999Y108333D01*
Y107000D01*
X225333Y106333D01*
X222667D01*
X225999Y112998D02*
Y110332D01*
X223334Y112998D01*
X222667D01*
X222001Y112331D01*
Y110998D01*
X222667Y110332D01*
X207999Y100335D02*
X204001D01*
Y102334D01*
X204667Y103001D01*
X206000D01*
X206666Y102334D01*
Y100335D01*
Y101668D02*
X207999Y103001D01*
Y104334D02*
Y105667D01*
Y105000D01*
X204001D01*
X204667Y104334D01*
Y107666D02*
X204001Y108333D01*
Y109666D01*
X204667Y110332D01*
X207333D01*
X207999Y109666D01*
Y108333D01*
X207333Y107666D01*
X204667D01*
X207999Y111665D02*
Y112998D01*
Y112331D01*
X204001D01*
X204667Y111665D01*
X231999Y99002D02*
X228001D01*
Y101002D01*
X228667Y101668D01*
X230000D01*
X230666Y101002D01*
Y99002D01*
Y100335D02*
X231999Y101668D01*
Y103001D02*
Y104334D01*
Y103667D01*
X228001D01*
X228667Y103001D01*
Y106333D02*
X228001Y107000D01*
Y108333D01*
X228667Y108999D01*
X231333D01*
X231999Y108333D01*
Y107000D01*
X231333Y106333D01*
X228667D01*
Y110332D02*
X228001Y110998D01*
Y112331D01*
X228667Y112998D01*
X231333D01*
X231999Y112331D01*
Y110998D01*
X231333Y110332D01*
X228667D01*
X159168Y142001D02*
Y145999D01*
X161168D01*
X161834Y145333D01*
Y144000D01*
X161168Y143333D01*
X159168D01*
X160501D02*
X161834Y142001D01*
X163167Y142667D02*
X163833Y142001D01*
X165166D01*
X165833Y142667D01*
Y145333D01*
X165166Y145999D01*
X163833D01*
X163167Y145333D01*
Y144667D01*
X163833Y144000D01*
X165833D01*
X167166Y142667D02*
X167832Y142001D01*
X169165D01*
X169832Y142667D01*
Y145333D01*
X169165Y145999D01*
X167832D01*
X167166Y145333D01*
Y144667D01*
X167832Y144000D01*
X169832D01*
X238999Y102334D02*
X235001D01*
Y104334D01*
X235667Y105000D01*
X237000D01*
X237666Y104334D01*
Y102334D01*
Y103667D02*
X238999Y105000D01*
X238333Y106333D02*
X238999Y107000D01*
Y108333D01*
X238333Y108999D01*
X235667D01*
X235001Y108333D01*
Y107000D01*
X235667Y106333D01*
X236333D01*
X237000Y107000D01*
Y108999D01*
X235667Y110332D02*
X235001Y110998D01*
Y112331D01*
X235667Y112998D01*
X236333D01*
X237000Y112331D01*
X237666Y112998D01*
X238333D01*
X238999Y112331D01*
Y110998D01*
X238333Y110332D01*
X237666D01*
X237000Y110998D01*
X236333Y110332D01*
X235667D01*
X237000Y110998D02*
Y112331D01*
X159168Y148001D02*
Y151999D01*
X161168D01*
X161834Y151333D01*
Y150000D01*
X161168Y149334D01*
X159168D01*
X160501D02*
X161834Y148001D01*
X163167Y148667D02*
X163833Y148001D01*
X165166D01*
X165833Y148667D01*
Y151333D01*
X165166Y151999D01*
X163833D01*
X163167Y151333D01*
Y150666D01*
X163833Y150000D01*
X165833D01*
X167166Y151999D02*
X169832D01*
Y151333D01*
X167166Y148667D01*
Y148001D01*
X244999Y102334D02*
X241001D01*
Y104334D01*
X241667Y105000D01*
X243000D01*
X243666Y104334D01*
Y102334D01*
Y103667D02*
X244999Y105000D01*
X244333Y106333D02*
X244999Y107000D01*
Y108333D01*
X244333Y108999D01*
X241667D01*
X241001Y108333D01*
Y107000D01*
X241667Y106333D01*
X242334D01*
X243000Y107000D01*
Y108999D01*
X241001Y112998D02*
X241667Y111665D01*
X243000Y110332D01*
X244333D01*
X244999Y110998D01*
Y112331D01*
X244333Y112998D01*
X243666D01*
X243000Y112331D01*
Y110332D01*
X159168Y154001D02*
Y157999D01*
X161168D01*
X161834Y157333D01*
Y156000D01*
X161168Y155333D01*
X159168D01*
X160501D02*
X161834Y154001D01*
X163167Y154667D02*
X163833Y154001D01*
X165166D01*
X165833Y154667D01*
Y157333D01*
X165166Y157999D01*
X163833D01*
X163167Y157333D01*
Y156667D01*
X163833Y156000D01*
X165833D01*
X169832Y157999D02*
X167166D01*
Y156000D01*
X168499Y156667D01*
X169165D01*
X169832Y156000D01*
Y154667D01*
X169165Y154001D01*
X167832D01*
X167166Y154667D01*
X266668Y145001D02*
Y148999D01*
X268668D01*
X269334Y148333D01*
Y147000D01*
X268668Y146334D01*
X266668D01*
X268001D02*
X269334Y145001D01*
X270667Y145667D02*
X271334Y145001D01*
X272666D01*
X273333Y145667D01*
Y148333D01*
X272666Y148999D01*
X271334D01*
X270667Y148333D01*
Y147667D01*
X271334Y147000D01*
X273333D01*
X276665Y145001D02*
Y148999D01*
X274666Y147000D01*
X277332D01*
X69668Y118001D02*
Y121999D01*
X71668D01*
X72334Y121333D01*
Y120000D01*
X71668Y119334D01*
X69668D01*
X71001D02*
X72334Y118001D01*
X73667Y118667D02*
X74334Y118001D01*
X75666D01*
X76333Y118667D01*
Y121333D01*
X75666Y121999D01*
X74334D01*
X73667Y121333D01*
Y120667D01*
X74334Y120000D01*
X76333D01*
X77666Y121333D02*
X78332Y121999D01*
X79665D01*
X80332Y121333D01*
Y120667D01*
X79665Y120000D01*
X78999D01*
X79665D01*
X80332Y119334D01*
Y118667D01*
X79665Y118001D01*
X78332D01*
X77666Y118667D01*
X69668Y128001D02*
Y131999D01*
X71668D01*
X72334Y131333D01*
Y130000D01*
X71668Y129333D01*
X69668D01*
X71001D02*
X72334Y128001D01*
X73667Y128667D02*
X74334Y128001D01*
X75666D01*
X76333Y128667D01*
Y131333D01*
X75666Y131999D01*
X74334D01*
X73667Y131333D01*
Y130666D01*
X74334Y130000D01*
X76333D01*
X80332Y128001D02*
X77666D01*
X80332Y130666D01*
Y131333D01*
X79665Y131999D01*
X78332D01*
X77666Y131333D01*
X266335Y155001D02*
Y158999D01*
X268334D01*
X269001Y158333D01*
Y157000D01*
X268334Y156333D01*
X266335D01*
X267668D02*
X269001Y155001D01*
X270334Y155667D02*
X271000Y155001D01*
X272333D01*
X272999Y155667D01*
Y158333D01*
X272333Y158999D01*
X271000D01*
X270334Y158333D01*
Y157667D01*
X271000Y157000D01*
X272999D01*
X274332Y155001D02*
X275665D01*
X274999D01*
Y158999D01*
X274332Y158333D01*
X159168Y160001D02*
Y163999D01*
X161168D01*
X161834Y163333D01*
Y162000D01*
X161168Y161334D01*
X159168D01*
X160501D02*
X161834Y160001D01*
X163167Y160667D02*
X163833Y160001D01*
X165166D01*
X165833Y160667D01*
Y163333D01*
X165166Y163999D01*
X163833D01*
X163167Y163333D01*
Y162666D01*
X163833Y162000D01*
X165833D01*
X167166Y163333D02*
X167832Y163999D01*
X169165D01*
X169832Y163333D01*
Y160667D01*
X169165Y160001D01*
X167832D01*
X167166Y160667D01*
Y163333D01*
X97668Y133001D02*
Y136999D01*
X99668D01*
X100334Y136333D01*
Y135000D01*
X99668Y134334D01*
X97668D01*
X99001D02*
X100334Y133001D01*
X101667Y136333D02*
X102334Y136999D01*
X103666D01*
X104333Y136333D01*
Y135667D01*
X103666Y135000D01*
X104333Y134334D01*
Y133667D01*
X103666Y133001D01*
X102334D01*
X101667Y133667D01*
Y134334D01*
X102334Y135000D01*
X101667Y135667D01*
Y136333D01*
X102334Y135000D02*
X103666D01*
X105666Y133667D02*
X106332Y133001D01*
X107665D01*
X108332Y133667D01*
Y136333D01*
X107665Y136999D01*
X106332D01*
X105666Y136333D01*
Y135667D01*
X106332Y135000D01*
X108332D01*
X69668Y138001D02*
Y141999D01*
X71668D01*
X72334Y141333D01*
Y140000D01*
X71668Y139333D01*
X69668D01*
X71001D02*
X72334Y138001D01*
X73667Y141333D02*
X74334Y141999D01*
X75666D01*
X76333Y141333D01*
Y140666D01*
X75666Y140000D01*
X76333Y139333D01*
Y138667D01*
X75666Y138001D01*
X74334D01*
X73667Y138667D01*
Y139333D01*
X74334Y140000D01*
X73667Y140666D01*
Y141333D01*
X74334Y140000D02*
X75666D01*
X77666Y141333D02*
X78332Y141999D01*
X79665D01*
X80332Y141333D01*
Y140666D01*
X79665Y140000D01*
X80332Y139333D01*
Y138667D01*
X79665Y138001D01*
X78332D01*
X77666Y138667D01*
Y139333D01*
X78332Y140000D01*
X77666Y140666D01*
Y141333D01*
X78332Y140000D02*
X79665D01*
X266668Y161001D02*
Y164999D01*
X268668D01*
X269334Y164333D01*
Y163000D01*
X268668Y162334D01*
X266668D01*
X268001D02*
X269334Y161001D01*
X270667Y164333D02*
X271334Y164999D01*
X272666D01*
X273333Y164333D01*
Y163666D01*
X272666Y163000D01*
X273333Y162334D01*
Y161667D01*
X272666Y161001D01*
X271334D01*
X270667Y161667D01*
Y162334D01*
X271334Y163000D01*
X270667Y163666D01*
Y164333D01*
X271334Y163000D02*
X272666D01*
X274666Y164999D02*
X277332D01*
Y164333D01*
X274666Y161667D01*
Y161001D01*
X159668Y166001D02*
Y169999D01*
X161668D01*
X162334Y169333D01*
Y168000D01*
X161668Y167333D01*
X159668D01*
X161001D02*
X162334Y166001D01*
X163667Y169333D02*
X164333Y169999D01*
X165666D01*
X166333Y169333D01*
Y168667D01*
X165666Y168000D01*
X166333Y167333D01*
Y166667D01*
X165666Y166001D01*
X164333D01*
X163667Y166667D01*
Y167333D01*
X164333Y168000D01*
X163667Y168667D01*
Y169333D01*
X164333Y168000D02*
X165666D01*
X170332Y169999D02*
X168999Y169333D01*
X167666Y168000D01*
Y166667D01*
X168332Y166001D01*
X169665D01*
X170332Y166667D01*
Y167333D01*
X169665Y168000D01*
X167666D01*
X97668Y143001D02*
Y146999D01*
X99668D01*
X100334Y146333D01*
Y145000D01*
X99668Y144334D01*
X97668D01*
X99001D02*
X100334Y143001D01*
X101667Y146333D02*
X102334Y146999D01*
X103666D01*
X104333Y146333D01*
Y145667D01*
X103666Y145000D01*
X104333Y144334D01*
Y143667D01*
X103666Y143001D01*
X102334D01*
X101667Y143667D01*
Y144334D01*
X102334Y145000D01*
X101667Y145667D01*
Y146333D01*
X102334Y145000D02*
X103666D01*
X108332Y146999D02*
X105666D01*
Y145000D01*
X106999Y145667D01*
X107665D01*
X108332Y145000D01*
Y143667D01*
X107665Y143001D01*
X106332D01*
X105666Y143667D01*
X69668Y148001D02*
Y151999D01*
X71668D01*
X72334Y151333D01*
Y150000D01*
X71668Y149334D01*
X69668D01*
X71001D02*
X72334Y148001D01*
X73667Y151333D02*
X74334Y151999D01*
X75666D01*
X76333Y151333D01*
Y150666D01*
X75666Y150000D01*
X76333Y149334D01*
Y148667D01*
X75666Y148001D01*
X74334D01*
X73667Y148667D01*
Y149334D01*
X74334Y150000D01*
X73667Y150666D01*
Y151333D01*
X74334Y150000D02*
X75666D01*
X79665Y148001D02*
Y151999D01*
X77666Y150000D01*
X80332D01*
X266668Y167001D02*
Y170999D01*
X268668D01*
X269334Y170333D01*
Y169000D01*
X268668Y168333D01*
X266668D01*
X268001D02*
X269334Y167001D01*
X270667Y170333D02*
X271334Y170999D01*
X272666D01*
X273333Y170333D01*
Y169667D01*
X272666Y169000D01*
X273333Y168333D01*
Y167667D01*
X272666Y167001D01*
X271334D01*
X270667Y167667D01*
Y168333D01*
X271334Y169000D01*
X270667Y169667D01*
Y170333D01*
X271334Y169000D02*
X272666D01*
X274666Y170333D02*
X275332Y170999D01*
X276665D01*
X277332Y170333D01*
Y169667D01*
X276665Y169000D01*
X275999D01*
X276665D01*
X277332Y168333D01*
Y167667D01*
X276665Y167001D01*
X275332D01*
X274666Y167667D01*
X159168Y172001D02*
Y175999D01*
X161168D01*
X161834Y175333D01*
Y174000D01*
X161168Y173334D01*
X159168D01*
X160501D02*
X161834Y172001D01*
X163167Y175333D02*
X163833Y175999D01*
X165166D01*
X165833Y175333D01*
Y174667D01*
X165166Y174000D01*
X165833Y173334D01*
Y172667D01*
X165166Y172001D01*
X163833D01*
X163167Y172667D01*
Y173334D01*
X163833Y174000D01*
X163167Y174667D01*
Y175333D01*
X163833Y174000D02*
X165166D01*
X169832Y172001D02*
X167166D01*
X169832Y174667D01*
Y175333D01*
X169165Y175999D01*
X167832D01*
X167166Y175333D01*
X97335Y153001D02*
Y156999D01*
X99334D01*
X100001Y156333D01*
Y155000D01*
X99334Y154333D01*
X97335D01*
X98668D02*
X100001Y153001D01*
X101334Y156333D02*
X102000Y156999D01*
X103333D01*
X103999Y156333D01*
Y155666D01*
X103333Y155000D01*
X103999Y154333D01*
Y153667D01*
X103333Y153001D01*
X102000D01*
X101334Y153667D01*
Y154333D01*
X102000Y155000D01*
X101334Y155666D01*
Y156333D01*
X102000Y155000D02*
X103333D01*
X105332Y153001D02*
X106665D01*
X105999D01*
Y156999D01*
X105332Y156333D01*
X69668Y158001D02*
Y161999D01*
X71668D01*
X72334Y161333D01*
Y160000D01*
X71668Y159334D01*
X69668D01*
X71001D02*
X72334Y158001D01*
X73667Y161333D02*
X74334Y161999D01*
X75666D01*
X76333Y161333D01*
Y160667D01*
X75666Y160000D01*
X76333Y159334D01*
Y158667D01*
X75666Y158001D01*
X74334D01*
X73667Y158667D01*
Y159334D01*
X74334Y160000D01*
X73667Y160667D01*
Y161333D01*
X74334Y160000D02*
X75666D01*
X77666Y161333D02*
X78332Y161999D01*
X79665D01*
X80332Y161333D01*
Y158667D01*
X79665Y158001D01*
X78332D01*
X77666Y158667D01*
Y161333D01*
X266668Y173001D02*
Y176999D01*
X268668D01*
X269334Y176333D01*
Y175000D01*
X268668Y174334D01*
X266668D01*
X268001D02*
X269334Y173001D01*
X270667Y176999D02*
X273333D01*
Y176333D01*
X270667Y173667D01*
Y173001D01*
X274666Y173667D02*
X275332Y173001D01*
X276665D01*
X277332Y173667D01*
Y176333D01*
X276665Y176999D01*
X275332D01*
X274666Y176333D01*
Y175666D01*
X275332Y175000D01*
X277332D01*
X159168Y178001D02*
Y181999D01*
X161168D01*
X161834Y181333D01*
Y180000D01*
X161168Y179333D01*
X159168D01*
X160501D02*
X161834Y178001D01*
X163167Y181999D02*
X165833D01*
Y181333D01*
X163167Y178667D01*
Y178001D01*
X167166Y181333D02*
X167832Y181999D01*
X169165D01*
X169832Y181333D01*
Y180666D01*
X169165Y180000D01*
X169832Y179333D01*
Y178667D01*
X169165Y178001D01*
X167832D01*
X167166Y178667D01*
Y179333D01*
X167832Y180000D01*
X167166Y180666D01*
Y181333D01*
X167832Y180000D02*
X169165D01*
X97668Y163001D02*
Y166999D01*
X99668D01*
X100334Y166333D01*
Y165000D01*
X99668Y164333D01*
X97668D01*
X99001D02*
X100334Y163001D01*
X101667Y166999D02*
X104333D01*
Y166333D01*
X101667Y163667D01*
Y163001D01*
X105666Y166999D02*
X108332D01*
Y166333D01*
X105666Y163667D01*
Y163001D01*
X69668Y168001D02*
Y171999D01*
X71668D01*
X72334Y171333D01*
Y170000D01*
X71668Y169334D01*
X69668D01*
X71001D02*
X72334Y168001D01*
X73667Y171999D02*
X76333D01*
Y171333D01*
X73667Y168667D01*
Y168001D01*
X80332Y171999D02*
X78999Y171333D01*
X77666Y170000D01*
Y168667D01*
X78332Y168001D01*
X79665D01*
X80332Y168667D01*
Y169334D01*
X79665Y170000D01*
X77666D01*
X266668Y179001D02*
Y182999D01*
X268668D01*
X269334Y182333D01*
Y181000D01*
X268668Y180333D01*
X266668D01*
X268001D02*
X269334Y179001D01*
X270667Y182999D02*
X273333D01*
Y182333D01*
X270667Y179667D01*
Y179001D01*
X277332Y182999D02*
X274666D01*
Y181000D01*
X275999Y181667D01*
X276665D01*
X277332Y181000D01*
Y179667D01*
X276665Y179001D01*
X275332D01*
X274666Y179667D01*
X158668Y183501D02*
Y187499D01*
X160668D01*
X161334Y186833D01*
Y185500D01*
X160668Y184834D01*
X158668D01*
X160001D02*
X161334Y183501D01*
X162667Y187499D02*
X165333D01*
Y186833D01*
X162667Y184167D01*
Y183501D01*
X168665D02*
Y187499D01*
X166666Y185500D01*
X169332D01*
X69668Y178001D02*
Y181999D01*
X71668D01*
X72334Y181333D01*
Y180000D01*
X71668Y179333D01*
X69668D01*
X71001D02*
X72334Y178001D01*
X73667Y181999D02*
X76333D01*
Y181333D01*
X73667Y178667D01*
Y178001D01*
X77666Y181333D02*
X78332Y181999D01*
X79665D01*
X80332Y181333D01*
Y180666D01*
X79665Y180000D01*
X78999D01*
X79665D01*
X80332Y179333D01*
Y178667D01*
X79665Y178001D01*
X78332D01*
X77666Y178667D01*
X240999Y209668D02*
X237001D01*
Y211668D01*
X237667Y212334D01*
X239000D01*
X239666Y211668D01*
Y209668D01*
Y211001D02*
X240999Y212334D01*
X237001Y213667D02*
Y216333D01*
X237667D01*
X240333Y213667D01*
X240999D01*
Y220332D02*
Y217666D01*
X238334Y220332D01*
X237667D01*
X237001Y219665D01*
Y218332D01*
X237667Y217666D01*
X204999Y209668D02*
X201001D01*
Y211668D01*
X201667Y212334D01*
X203000D01*
X203666Y211668D01*
Y209668D01*
Y211001D02*
X204999Y212334D01*
X201001Y213667D02*
Y216333D01*
X201667D01*
X204333Y213667D01*
X204999D01*
Y217666D02*
Y218999D01*
Y218332D01*
X201001D01*
X201667Y217666D01*
X69668Y188001D02*
Y191999D01*
X71668D01*
X72334Y191333D01*
Y190000D01*
X71668Y189333D01*
X69668D01*
X71001D02*
X72334Y188001D01*
X73667Y191999D02*
X76333D01*
Y191333D01*
X73667Y188667D01*
Y188001D01*
X77666Y191333D02*
X78332Y191999D01*
X79665D01*
X80332Y191333D01*
Y188667D01*
X79665Y188001D01*
X78332D01*
X77666Y188667D01*
Y191333D01*
X234999Y209668D02*
X231001D01*
Y211668D01*
X231667Y212334D01*
X233000D01*
X233666Y211668D01*
Y209668D01*
Y211001D02*
X234999Y212334D01*
X231001Y216333D02*
X231667Y215000D01*
X233000Y213667D01*
X234333D01*
X234999Y214334D01*
Y215666D01*
X234333Y216333D01*
X233666D01*
X233000Y215666D01*
Y213667D01*
X234333Y217666D02*
X234999Y218332D01*
Y219665D01*
X234333Y220332D01*
X231667D01*
X231001Y219665D01*
Y218332D01*
X231667Y217666D01*
X232334D01*
X233000Y218332D01*
Y220332D01*
X210999Y209668D02*
X207001D01*
Y211668D01*
X207667Y212334D01*
X209000D01*
X209666Y211668D01*
Y209668D01*
Y211001D02*
X210999Y212334D01*
X207001Y216333D02*
X207667Y215000D01*
X209000Y213667D01*
X210333D01*
X210999Y214334D01*
Y215666D01*
X210333Y216333D01*
X209666D01*
X209000Y215666D01*
Y213667D01*
X207667Y217666D02*
X207001Y218332D01*
Y219665D01*
X207667Y220332D01*
X208334D01*
X209000Y219665D01*
X209666Y220332D01*
X210333D01*
X210999Y219665D01*
Y218332D01*
X210333Y217666D01*
X209666D01*
X209000Y218332D01*
X208334Y217666D01*
X207667D01*
X209000Y218332D02*
Y219665D01*
X228999Y209668D02*
X225001D01*
Y211668D01*
X225667Y212334D01*
X227000D01*
X227666Y211668D01*
Y209668D01*
Y211001D02*
X228999Y212334D01*
X225001Y216333D02*
X225667Y215000D01*
X227000Y213667D01*
X228333D01*
X228999Y214334D01*
Y215667D01*
X228333Y216333D01*
X227666D01*
X227000Y215667D01*
Y213667D01*
X225001Y217666D02*
Y220332D01*
X225667D01*
X228333Y217666D01*
X228999D01*
X216999Y209668D02*
X213001D01*
Y211668D01*
X213667Y212334D01*
X215000D01*
X215666Y211668D01*
Y209668D01*
Y211001D02*
X216999Y212334D01*
X213001Y216333D02*
X213667Y215000D01*
X215000Y213667D01*
X216333D01*
X216999Y214334D01*
Y215667D01*
X216333Y216333D01*
X215666D01*
X215000Y215667D01*
Y213667D01*
X213001Y220332D02*
X213667Y218999D01*
X215000Y217666D01*
X216333D01*
X216999Y218332D01*
Y219665D01*
X216333Y220332D01*
X215666D01*
X215000Y219665D01*
Y217666D01*
X362168Y196001D02*
Y199999D01*
X364168D01*
X364834Y199333D01*
Y198000D01*
X364168Y197334D01*
X362168D01*
X363501D02*
X364834Y196001D01*
X368833Y199999D02*
X367500Y199333D01*
X366167Y198000D01*
Y196667D01*
X366834Y196001D01*
X368166D01*
X368833Y196667D01*
Y197334D01*
X368166Y198000D01*
X366167D01*
X372832Y199999D02*
X370166D01*
Y198000D01*
X371499Y198667D01*
X372165D01*
X372832Y198000D01*
Y196667D01*
X372165Y196001D01*
X370832D01*
X370166Y196667D01*
X363168Y187001D02*
Y190999D01*
X365168D01*
X365834Y190333D01*
Y189000D01*
X365168Y188333D01*
X363168D01*
X364501D02*
X365834Y187001D01*
X369833Y190999D02*
X368500Y190333D01*
X367167Y189000D01*
Y187667D01*
X367834Y187001D01*
X369166D01*
X369833Y187667D01*
Y188333D01*
X369166Y189000D01*
X367167D01*
X373165Y187001D02*
Y190999D01*
X371166Y189000D01*
X373832D01*
X363168Y207001D02*
Y210999D01*
X365168D01*
X365834Y210333D01*
Y209000D01*
X365168Y208334D01*
X363168D01*
X364501D02*
X365834Y207001D01*
X369833Y210999D02*
X368500Y210333D01*
X367167Y209000D01*
Y207667D01*
X367834Y207001D01*
X369166D01*
X369833Y207667D01*
Y208334D01*
X369166Y209000D01*
X367167D01*
X371166Y210333D02*
X371832Y210999D01*
X373165D01*
X373832Y210333D01*
Y209666D01*
X373165Y209000D01*
X372499D01*
X373165D01*
X373832Y208334D01*
Y207667D01*
X373165Y207001D01*
X371832D01*
X371166Y207667D01*
X363168Y217001D02*
Y220999D01*
X365168D01*
X365834Y220333D01*
Y219000D01*
X365168Y218334D01*
X363168D01*
X364501D02*
X365834Y217001D01*
X369833Y220999D02*
X368500Y220333D01*
X367167Y219000D01*
Y217667D01*
X367834Y217001D01*
X369166D01*
X369833Y217667D01*
Y218334D01*
X369166Y219000D01*
X367167D01*
X373832Y217001D02*
X371166D01*
X373832Y219666D01*
Y220333D01*
X373165Y220999D01*
X371832D01*
X371166Y220333D01*
X179499Y253335D02*
X175501D01*
Y255334D01*
X176167Y256001D01*
X177500D01*
X178166Y255334D01*
Y253335D01*
Y254668D02*
X179499Y256001D01*
X175501Y259999D02*
X176167Y258666D01*
X177500Y257334D01*
X178833D01*
X179499Y258000D01*
Y259333D01*
X178833Y259999D01*
X178166D01*
X177500Y259333D01*
Y257334D01*
X179499Y261332D02*
Y262665D01*
Y261999D01*
X175501D01*
X176167Y261332D01*
X164999Y252668D02*
X161001D01*
Y254668D01*
X161667Y255334D01*
X163000D01*
X163666Y254668D01*
Y252668D01*
Y254001D02*
X164999Y255334D01*
X161001Y259333D02*
X161667Y258000D01*
X163000Y256667D01*
X164333D01*
X164999Y257334D01*
Y258666D01*
X164333Y259333D01*
X163666D01*
X163000Y258666D01*
Y256667D01*
X161667Y260666D02*
X161001Y261332D01*
Y262665D01*
X161667Y263332D01*
X164333D01*
X164999Y262665D01*
Y261332D01*
X164333Y260666D01*
X161667D01*
X240499Y248668D02*
X236501D01*
Y250668D01*
X237167Y251334D01*
X238500D01*
X239166Y250668D01*
Y248668D01*
Y250001D02*
X240499Y251334D01*
X236501Y255333D02*
Y252667D01*
X238500D01*
X237833Y254000D01*
Y254666D01*
X238500Y255333D01*
X239833D01*
X240499Y254666D01*
Y253334D01*
X239833Y252667D01*
X236501Y256666D02*
Y259332D01*
X237167D01*
X239833Y256666D01*
X240499D01*
X256999Y248668D02*
X253001D01*
Y250668D01*
X253667Y251334D01*
X255000D01*
X255666Y250668D01*
Y248668D01*
Y250001D02*
X256999Y251334D01*
X253001Y255333D02*
Y252667D01*
X255000D01*
X254334Y254000D01*
Y254666D01*
X255000Y255333D01*
X256333D01*
X256999Y254666D01*
Y253334D01*
X256333Y252667D01*
X253001Y259332D02*
X253667Y257999D01*
X255000Y256666D01*
X256333D01*
X256999Y257332D01*
Y258665D01*
X256333Y259332D01*
X255666D01*
X255000Y258665D01*
Y256666D01*
X271999Y248668D02*
X268001D01*
Y250668D01*
X268667Y251334D01*
X270000D01*
X270666Y250668D01*
Y248668D01*
Y250001D02*
X271999Y251334D01*
X268001Y255333D02*
Y252667D01*
X270000D01*
X269334Y254000D01*
Y254666D01*
X270000Y255333D01*
X271333D01*
X271999Y254666D01*
Y253334D01*
X271333Y252667D01*
X268001Y259332D02*
Y256666D01*
X270000D01*
X269334Y257999D01*
Y258665D01*
X270000Y259332D01*
X271333D01*
X271999Y258665D01*
Y257332D01*
X271333Y256666D01*
X287999Y248668D02*
X284001D01*
Y250668D01*
X284667Y251334D01*
X286000D01*
X286666Y250668D01*
Y248668D01*
Y250001D02*
X287999Y251334D01*
X284001Y255333D02*
Y252667D01*
X286000D01*
X285334Y254000D01*
Y254666D01*
X286000Y255333D01*
X287333D01*
X287999Y254666D01*
Y253334D01*
X287333Y252667D01*
X287999Y258665D02*
X284001D01*
X286000Y256666D01*
Y259332D01*
X301999Y248668D02*
X298001D01*
Y250668D01*
X298667Y251334D01*
X300000D01*
X300666Y250668D01*
Y248668D01*
Y250001D02*
X301999Y251334D01*
X298001Y255333D02*
Y252667D01*
X300000D01*
X299334Y254000D01*
Y254666D01*
X300000Y255333D01*
X301333D01*
X301999Y254666D01*
Y253334D01*
X301333Y252667D01*
X298667Y256666D02*
X298001Y257332D01*
Y258665D01*
X298667Y259332D01*
X299334D01*
X300000Y258665D01*
Y257999D01*
Y258665D01*
X300666Y259332D01*
X301333D01*
X301999Y258665D01*
Y257332D01*
X301333Y256666D01*
X194999Y252668D02*
X191001D01*
Y254668D01*
X191667Y255334D01*
X193000D01*
X193666Y254668D01*
Y252668D01*
Y254001D02*
X194999Y255334D01*
X191001Y259333D02*
Y256667D01*
X193000D01*
X192333Y258000D01*
Y258666D01*
X193000Y259333D01*
X194333D01*
X194999Y258666D01*
Y257334D01*
X194333Y256667D01*
X194999Y263332D02*
Y260666D01*
X192333Y263332D01*
X191667D01*
X191001Y262665D01*
Y261332D01*
X191667Y260666D01*
X409335Y267001D02*
Y270999D01*
X411334D01*
X412001Y270333D01*
Y269000D01*
X411334Y268334D01*
X409335D01*
X410668D02*
X412001Y267001D01*
X415999Y270999D02*
X413334D01*
Y269000D01*
X414666Y269666D01*
X415333D01*
X415999Y269000D01*
Y267667D01*
X415333Y267001D01*
X414000D01*
X413334Y267667D01*
X417332Y267001D02*
X418665D01*
X417999D01*
Y270999D01*
X417332Y270333D01*
X408668Y247001D02*
Y250999D01*
X410668D01*
X411334Y250333D01*
Y249000D01*
X410668Y248334D01*
X408668D01*
X410001D02*
X411334Y247001D01*
X415333Y250999D02*
X412667D01*
Y249000D01*
X414000Y249666D01*
X414666D01*
X415333Y249000D01*
Y247667D01*
X414666Y247001D01*
X413334D01*
X412667Y247667D01*
X416666Y250333D02*
X417332Y250999D01*
X418665D01*
X419332Y250333D01*
Y247667D01*
X418665Y247001D01*
X417332D01*
X416666Y247667D01*
Y250333D01*
X319668Y247001D02*
Y250999D01*
X321668D01*
X322334Y250333D01*
Y249000D01*
X321668Y248334D01*
X319668D01*
X321001D02*
X322334Y247001D01*
X325666D02*
Y250999D01*
X323667Y249000D01*
X326333D01*
X327666Y247667D02*
X328332Y247001D01*
X329665D01*
X330332Y247667D01*
Y250333D01*
X329665Y250999D01*
X328332D01*
X327666Y250333D01*
Y249666D01*
X328332Y249000D01*
X330332D01*
X319668Y260001D02*
Y263999D01*
X321668D01*
X322334Y263333D01*
Y262000D01*
X321668Y261334D01*
X319668D01*
X321001D02*
X322334Y260001D01*
X325666D02*
Y263999D01*
X323667Y262000D01*
X326333D01*
X327666Y263333D02*
X328332Y263999D01*
X329665D01*
X330332Y263333D01*
Y262666D01*
X329665Y262000D01*
X330332Y261334D01*
Y260667D01*
X329665Y260001D01*
X328332D01*
X327666Y260667D01*
Y261334D01*
X328332Y262000D01*
X327666Y262666D01*
Y263333D01*
X328332Y262000D02*
X329665D01*
X319668Y272001D02*
Y275999D01*
X321668D01*
X322334Y275333D01*
Y274000D01*
X321668Y273334D01*
X319668D01*
X321001D02*
X322334Y272001D01*
X325666D02*
Y275999D01*
X323667Y274000D01*
X326333D01*
X327666Y275999D02*
X330332D01*
Y275333D01*
X327666Y272667D01*
Y272001D01*
X203168Y47001D02*
Y50999D01*
X205168D01*
X205834Y50333D01*
Y49000D01*
X205168Y48334D01*
X203168D01*
X204501D02*
X205834Y47001D01*
X209833D02*
X207167D01*
X209833Y49666D01*
Y50333D01*
X209166Y50999D01*
X207834D01*
X207167Y50333D01*
X213165Y47001D02*
Y50999D01*
X211166Y49000D01*
X213832D01*
X107168Y47001D02*
Y50999D01*
X109168D01*
X109834Y50333D01*
Y49000D01*
X109168Y48334D01*
X107168D01*
X108501D02*
X109834Y47001D01*
X113833D02*
X111167D01*
X113833Y49666D01*
Y50333D01*
X113166Y50999D01*
X111834D01*
X111167Y50333D01*
X115166D02*
X115832Y50999D01*
X117165D01*
X117832Y50333D01*
Y49666D01*
X117165Y49000D01*
X116499D01*
X117165D01*
X117832Y48334D01*
Y47667D01*
X117165Y47001D01*
X115832D01*
X115166Y47667D01*
X126168Y18501D02*
Y22499D01*
X128168D01*
X128834Y21833D01*
Y20500D01*
X128168Y19834D01*
X126168D01*
X127501D02*
X128834Y18501D01*
X132833D02*
X130167D01*
X132833Y21167D01*
Y21833D01*
X132167Y22499D01*
X130833D01*
X130167Y21833D01*
X136832Y18501D02*
X134166D01*
X136832Y21167D01*
Y21833D01*
X136165Y22499D01*
X134832D01*
X134166Y21833D01*
X203835Y38001D02*
Y41999D01*
X205834D01*
X206501Y41333D01*
Y40000D01*
X205834Y39334D01*
X203835D01*
X205168D02*
X206501Y38001D01*
X210499D02*
X207834D01*
X210499Y40666D01*
Y41333D01*
X209833Y41999D01*
X208500D01*
X207834Y41333D01*
X211832Y38001D02*
X213165D01*
X212499D01*
Y41999D01*
X211832Y41333D01*
X32168Y18501D02*
Y22499D01*
X34168D01*
X34834Y21833D01*
Y20500D01*
X34168Y19834D01*
X32168D01*
X33501D02*
X34834Y18501D01*
X38833D02*
X36167D01*
X38833Y21167D01*
Y21833D01*
X38166Y22499D01*
X36834D01*
X36167Y21833D01*
X40166D02*
X40832Y22499D01*
X42165D01*
X42832Y21833D01*
Y19167D01*
X42165Y18501D01*
X40832D01*
X40166Y19167D01*
Y21833D01*
X107502Y38501D02*
Y42499D01*
X109501D01*
X110167Y41833D01*
Y40500D01*
X109501Y39834D01*
X107502D01*
X108835D02*
X110167Y38501D01*
X111500D02*
X112833D01*
X112167D01*
Y42499D01*
X111500Y41833D01*
X114833Y39167D02*
X115499Y38501D01*
X116832D01*
X117498Y39167D01*
Y41833D01*
X116832Y42499D01*
X115499D01*
X114833Y41833D01*
Y41166D01*
X115499Y40500D01*
X117498D01*
X203502Y19001D02*
Y22999D01*
X205501D01*
X206167Y22333D01*
Y21000D01*
X205501Y20334D01*
X203502D01*
X204835D02*
X206167Y19001D01*
X207500D02*
X208833D01*
X208167D01*
Y22999D01*
X207500Y22333D01*
X210833D02*
X211499Y22999D01*
X212832D01*
X213498Y22333D01*
Y21666D01*
X212832Y21000D01*
X213498Y20334D01*
Y19667D01*
X212832Y19001D01*
X211499D01*
X210833Y19667D01*
Y20334D01*
X211499Y21000D01*
X210833Y21666D01*
Y22333D01*
X211499Y21000D02*
X212832D01*
X203502Y28501D02*
Y32499D01*
X205501D01*
X206167Y31833D01*
Y30500D01*
X205501Y29834D01*
X203502D01*
X204835D02*
X206167Y28501D01*
X207500D02*
X208833D01*
X208167D01*
Y32499D01*
X207500Y31833D01*
X210833Y32499D02*
X213498D01*
Y31833D01*
X210833Y29167D01*
Y28501D01*
X107502Y19001D02*
Y22999D01*
X109501D01*
X110167Y22333D01*
Y21000D01*
X109501Y20334D01*
X107502D01*
X108835D02*
X110167Y19001D01*
X111500D02*
X112833D01*
X112167D01*
Y22999D01*
X111500Y22333D01*
X117498Y22999D02*
X116165Y22333D01*
X114833Y21000D01*
Y19667D01*
X115499Y19001D01*
X116832D01*
X117498Y19667D01*
Y20334D01*
X116832Y21000D01*
X114833D01*
X107502Y28501D02*
Y32499D01*
X109501D01*
X110167Y31833D01*
Y30500D01*
X109501Y29834D01*
X107502D01*
X108835D02*
X110167Y28501D01*
X111500D02*
X112833D01*
X112167D01*
Y32499D01*
X111500Y31833D01*
X117498Y32499D02*
X114833D01*
Y30500D01*
X116165Y31166D01*
X116832D01*
X117498Y30500D01*
Y29167D01*
X116832Y28501D01*
X115499D01*
X114833Y29167D01*
X129502Y41501D02*
Y45499D01*
X131501D01*
X132167Y44833D01*
Y43500D01*
X131501Y42834D01*
X129502D01*
X130834D02*
X132167Y41501D01*
X133500D02*
X134833D01*
X134167D01*
Y45499D01*
X133500Y44833D01*
X138832Y41501D02*
Y45499D01*
X136833Y43500D01*
X139498D01*
X32502Y41501D02*
Y45499D01*
X34501D01*
X35167Y44833D01*
Y43500D01*
X34501Y42834D01*
X32502D01*
X33834D02*
X35167Y41501D01*
X36500D02*
X37833D01*
X37167D01*
Y45499D01*
X36500Y44833D01*
X39833D02*
X40499Y45499D01*
X41832D01*
X42498Y44833D01*
Y44166D01*
X41832Y43500D01*
X41166D01*
X41832D01*
X42498Y42834D01*
Y42167D01*
X41832Y41501D01*
X40499D01*
X39833Y42167D01*
X107502Y87001D02*
Y90999D01*
X109501D01*
X110167Y90333D01*
Y89000D01*
X109501Y88334D01*
X107502D01*
X108835D02*
X110167Y87001D01*
X111500D02*
X112833D01*
X112167D01*
Y90999D01*
X111500Y90333D01*
X117498Y87001D02*
X114833D01*
X117498Y89666D01*
Y90333D01*
X116832Y90999D01*
X115499D01*
X114833Y90333D01*
X204168Y87001D02*
Y90999D01*
X206167D01*
X206834Y90333D01*
Y89000D01*
X206167Y88334D01*
X204168D01*
X205501D02*
X206834Y87001D01*
X208167D02*
X209499D01*
X208833D01*
Y90999D01*
X208167Y90333D01*
X211499Y87001D02*
X212832D01*
X212165D01*
Y90999D01*
X211499Y90333D01*
X33502Y56501D02*
Y60499D01*
X35501D01*
X36167Y59833D01*
Y58500D01*
X35501Y57834D01*
X33502D01*
X34835D02*
X36167Y56501D01*
X37500D02*
X38833D01*
X38167D01*
Y60499D01*
X37500Y59833D01*
X40833D02*
X41499Y60499D01*
X42832D01*
X43498Y59833D01*
Y57167D01*
X42832Y56501D01*
X41499D01*
X40833Y57167D01*
Y59833D01*
X107168Y78001D02*
Y81999D01*
X109167D01*
X109834Y81333D01*
Y80000D01*
X109167Y79334D01*
X107168D01*
X108501D02*
X109834Y78001D01*
X111167Y78667D02*
X111833Y78001D01*
X113166D01*
X113832Y78667D01*
Y81333D01*
X113166Y81999D01*
X111833D01*
X111167Y81333D01*
Y80666D01*
X111833Y80000D01*
X113832D01*
X133168Y56501D02*
Y60499D01*
X135167D01*
X135834Y59833D01*
Y58500D01*
X135167Y57834D01*
X133168D01*
X134501D02*
X135834Y56501D01*
X137167Y59833D02*
X137833Y60499D01*
X139166D01*
X139832Y59833D01*
Y59166D01*
X139166Y58500D01*
X139832Y57834D01*
Y57167D01*
X139166Y56501D01*
X137833D01*
X137167Y57167D01*
Y57834D01*
X137833Y58500D01*
X137167Y59166D01*
Y59833D01*
X137833Y58500D02*
X139166D01*
X204168Y78001D02*
Y81999D01*
X206167D01*
X206834Y81333D01*
Y80000D01*
X206167Y79334D01*
X204168D01*
X205501D02*
X206834Y78001D01*
X208167Y81999D02*
X210832D01*
Y81333D01*
X208167Y78667D01*
Y78001D01*
X107168Y60001D02*
Y63999D01*
X109167D01*
X109834Y63333D01*
Y62000D01*
X109167Y61334D01*
X107168D01*
X108501D02*
X109834Y60001D01*
X113832Y63999D02*
X112499Y63333D01*
X111167Y62000D01*
Y60667D01*
X111833Y60001D01*
X113166D01*
X113832Y60667D01*
Y61334D01*
X113166Y62000D01*
X111167D01*
X107168Y69001D02*
Y72999D01*
X109167D01*
X109834Y72333D01*
Y71000D01*
X109167Y70334D01*
X107168D01*
X108501D02*
X109834Y69001D01*
X113832Y72999D02*
X111167D01*
Y71000D01*
X112499Y71666D01*
X113166D01*
X113832Y71000D01*
Y69667D01*
X113166Y69001D01*
X111833D01*
X111167Y69667D01*
X204168Y60001D02*
Y63999D01*
X206167D01*
X206834Y63333D01*
Y62000D01*
X206167Y61334D01*
X204168D01*
X205501D02*
X206834Y60001D01*
X210166D02*
Y63999D01*
X208167Y62000D01*
X210832D01*
X204168Y69501D02*
Y73499D01*
X206167D01*
X206834Y72833D01*
Y71500D01*
X206167Y70834D01*
X204168D01*
X205501D02*
X206834Y69501D01*
X208167Y72833D02*
X208833Y73499D01*
X210166D01*
X210832Y72833D01*
Y72166D01*
X210166Y71500D01*
X209499D01*
X210166D01*
X210832Y70834D01*
Y70167D01*
X210166Y69501D01*
X208833D01*
X208167Y70167D01*
X37018Y81501D02*
Y85499D01*
X39018D01*
X39684Y84833D01*
Y83500D01*
X39018Y82834D01*
X37018D01*
X38351D02*
X39684Y81501D01*
X43683D02*
X41017D01*
X43683Y84166D01*
Y84833D01*
X43016Y85499D01*
X41683D01*
X41017Y84833D01*
X132834Y83501D02*
Y87499D01*
X134834D01*
X135500Y86833D01*
Y85500D01*
X134834Y84834D01*
X132834D01*
X134167D02*
X135500Y83501D01*
X136833D02*
X138166D01*
X137499D01*
Y87499D01*
X136833Y86833D01*
X174001Y308170D02*
X177999D01*
Y310836D01*
X174001Y314834D02*
Y312168D01*
X177999D01*
Y314834D01*
X176000Y312168D02*
Y313501D01*
X174001Y316167D02*
X177999D01*
Y318166D01*
X177333Y318833D01*
X174667D01*
X174001Y318166D01*
Y316167D01*
X177999Y322832D02*
Y320166D01*
X175333Y322832D01*
X174667D01*
X174001Y322165D01*
Y320832D01*
X174667Y320166D01*
X177999Y326164D02*
X174001D01*
X176000Y324165D01*
Y326830D01*
X161001Y308170D02*
X164999D01*
Y310836D01*
X161001Y314834D02*
Y312168D01*
X164999D01*
Y314834D01*
X163000Y312168D02*
Y313501D01*
X161001Y316167D02*
X164999D01*
Y318166D01*
X164333Y318833D01*
X161667D01*
X161001Y318166D01*
Y316167D01*
X164999Y322832D02*
Y320166D01*
X162334Y322832D01*
X161667D01*
X161001Y322165D01*
Y320832D01*
X161667Y320166D01*
Y324165D02*
X161001Y324831D01*
Y326164D01*
X161667Y326830D01*
X162334D01*
X163000Y326164D01*
Y325497D01*
Y326164D01*
X163666Y326830D01*
X164333D01*
X164999Y326164D01*
Y324831D01*
X164333Y324165D01*
X381501Y308170D02*
X385499D01*
Y310836D01*
X381501Y314834D02*
Y312168D01*
X385499D01*
Y314834D01*
X383500Y312168D02*
Y313501D01*
X381501Y316167D02*
X385499D01*
Y318166D01*
X384833Y318833D01*
X382167D01*
X381501Y318166D01*
Y316167D01*
X385499Y322832D02*
Y320166D01*
X382834Y322832D01*
X382167D01*
X381501Y322165D01*
Y320832D01*
X382167Y320166D01*
X385499Y326830D02*
Y324165D01*
X382834Y326830D01*
X382167D01*
X381501Y326164D01*
Y324831D01*
X382167Y324165D01*
X404001Y309686D02*
X407999D01*
Y312352D01*
X404001Y316351D02*
Y313685D01*
X407999D01*
Y316351D01*
X406000Y313685D02*
Y315018D01*
X404001Y317684D02*
X407999D01*
Y319683D01*
X407333Y320350D01*
X404667D01*
X404001Y319683D01*
Y317684D01*
X407999Y324348D02*
Y321683D01*
X405334Y324348D01*
X404667D01*
X404001Y323682D01*
Y322349D01*
X404667Y321683D01*
X407999Y325681D02*
Y327014D01*
Y326348D01*
X404001D01*
X404667Y325681D01*
X218001Y308170D02*
X221999D01*
Y310836D01*
X218001Y314834D02*
Y312168D01*
X221999D01*
Y314834D01*
X220000Y312168D02*
Y313501D01*
X218001Y316167D02*
X221999D01*
Y318166D01*
X221333Y318833D01*
X218667D01*
X218001Y318166D01*
Y316167D01*
X221999Y322832D02*
Y320166D01*
X219334Y322832D01*
X218667D01*
X218001Y322165D01*
Y320832D01*
X218667Y320166D01*
Y324165D02*
X218001Y324831D01*
Y326164D01*
X218667Y326830D01*
X221333D01*
X221999Y326164D01*
Y324831D01*
X221333Y324165D01*
X218667D01*
X205501Y308503D02*
X209499D01*
Y311169D01*
X205501Y315167D02*
Y312502D01*
X209499D01*
Y315167D01*
X207500Y312502D02*
Y313835D01*
X205501Y316500D02*
X209499D01*
Y318500D01*
X208833Y319166D01*
X206167D01*
X205501Y318500D01*
Y316500D01*
X209499Y320499D02*
Y321832D01*
Y321165D01*
X205501D01*
X206167Y320499D01*
X208833Y323831D02*
X209499Y324498D01*
Y325831D01*
X208833Y326497D01*
X206167D01*
X205501Y325831D01*
Y324498D01*
X206167Y323831D01*
X206834D01*
X207500Y324498D01*
Y326497D01*
X73001Y308503D02*
X76999D01*
Y311169D01*
X73001Y315167D02*
Y312502D01*
X76999D01*
Y315167D01*
X75000Y312502D02*
Y313835D01*
X73001Y316500D02*
X76999D01*
Y318500D01*
X76333Y319166D01*
X73667D01*
X73001Y318500D01*
Y316500D01*
X76999Y320499D02*
Y321832D01*
Y321165D01*
X73001D01*
X73667Y320499D01*
Y323831D02*
X73001Y324498D01*
Y325831D01*
X73667Y326497D01*
X74334D01*
X75000Y325831D01*
X75666Y326497D01*
X76333D01*
X76999Y325831D01*
Y324498D01*
X76333Y323831D01*
X75666D01*
X75000Y324498D01*
X74334Y323831D01*
X73667D01*
X75000Y324498D02*
Y325831D01*
X83001Y308503D02*
X86999D01*
Y311169D01*
X83001Y315167D02*
Y312502D01*
X86999D01*
Y315167D01*
X85000Y312502D02*
Y313835D01*
X83001Y316500D02*
X86999D01*
Y318500D01*
X86333Y319166D01*
X83667D01*
X83001Y318500D01*
Y316500D01*
X86999Y320499D02*
Y321832D01*
Y321165D01*
X83001D01*
X83667Y320499D01*
X83001Y323831D02*
Y326497D01*
X83667D01*
X86333Y323831D01*
X86999D01*
X93001Y308503D02*
X96999D01*
Y311169D01*
X93001Y315167D02*
Y312502D01*
X96999D01*
Y315167D01*
X95000Y312502D02*
Y313835D01*
X93001Y316500D02*
X96999D01*
Y318500D01*
X96333Y319166D01*
X93667D01*
X93001Y318500D01*
Y316500D01*
X96999Y320499D02*
Y321832D01*
Y321165D01*
X93001D01*
X93667Y320499D01*
X93001Y326497D02*
X93667Y325164D01*
X95000Y323831D01*
X96333D01*
X96999Y324498D01*
Y325831D01*
X96333Y326497D01*
X95666D01*
X95000Y325831D01*
Y323831D01*
X103001Y308503D02*
X106999D01*
Y311169D01*
X103001Y315167D02*
Y312502D01*
X106999D01*
Y315167D01*
X105000Y312502D02*
Y313835D01*
X103001Y316500D02*
X106999D01*
Y318500D01*
X106333Y319166D01*
X103667D01*
X103001Y318500D01*
Y316500D01*
X106999Y320499D02*
Y321832D01*
Y321165D01*
X103001D01*
X103667Y320499D01*
X103001Y326497D02*
Y323831D01*
X105000D01*
X104333Y325164D01*
Y325831D01*
X105000Y326497D01*
X106333D01*
X106999Y325831D01*
Y324498D01*
X106333Y323831D01*
X113001Y308503D02*
X116999D01*
Y311169D01*
X113001Y315167D02*
Y312502D01*
X116999D01*
Y315167D01*
X115000Y312502D02*
Y313835D01*
X113001Y316500D02*
X116999D01*
Y318500D01*
X116333Y319166D01*
X113667D01*
X113001Y318500D01*
Y316500D01*
X116999Y320499D02*
Y321832D01*
Y321165D01*
X113001D01*
X113667Y320499D01*
X116999Y325831D02*
X113001D01*
X115000Y323831D01*
Y326497D01*
X123001Y308503D02*
X126999D01*
Y311169D01*
X123001Y315167D02*
Y312502D01*
X126999D01*
Y315167D01*
X125000Y312502D02*
Y313835D01*
X123001Y316500D02*
X126999D01*
Y318500D01*
X126333Y319166D01*
X123667D01*
X123001Y318500D01*
Y316500D01*
X126999Y320499D02*
Y321832D01*
Y321165D01*
X123001D01*
X123667Y320499D01*
Y323831D02*
X123001Y324498D01*
Y325831D01*
X123667Y326497D01*
X124334D01*
X125000Y325831D01*
Y325164D01*
Y325831D01*
X125666Y326497D01*
X126333D01*
X126999Y325831D01*
Y324498D01*
X126333Y323831D01*
X133001Y308503D02*
X136999D01*
Y311169D01*
X133001Y315167D02*
Y312502D01*
X136999D01*
Y315167D01*
X135000Y312502D02*
Y313835D01*
X133001Y316500D02*
X136999D01*
Y318500D01*
X136333Y319166D01*
X133667D01*
X133001Y318500D01*
Y316500D01*
X136999Y320499D02*
Y321832D01*
Y321165D01*
X133001D01*
X133667Y320499D01*
X136999Y326497D02*
Y323831D01*
X134334Y326497D01*
X133667D01*
X133001Y325831D01*
Y324498D01*
X133667Y323831D01*
X143001Y309169D02*
X146999D01*
Y311835D01*
X143001Y315834D02*
Y313168D01*
X146999D01*
Y315834D01*
X145000Y313168D02*
Y314501D01*
X143001Y317167D02*
X146999D01*
Y319166D01*
X146333Y319833D01*
X143667D01*
X143001Y319166D01*
Y317167D01*
X146999Y321165D02*
Y322498D01*
Y321832D01*
X143001D01*
X143667Y321165D01*
X146999Y324498D02*
Y325831D01*
Y325164D01*
X143001D01*
X143667Y324498D01*
X430001Y309503D02*
X433999D01*
Y312169D01*
X430001Y316167D02*
Y313502D01*
X433999D01*
Y316167D01*
X432000Y313502D02*
Y314834D01*
X430001Y317500D02*
X433999D01*
Y319500D01*
X433333Y320166D01*
X430667D01*
X430001Y319500D01*
Y317500D01*
X433999Y321499D02*
Y322832D01*
Y322165D01*
X430001D01*
X430667Y321499D01*
Y324831D02*
X430001Y325498D01*
Y326831D01*
X430667Y327497D01*
X433333D01*
X433999Y326831D01*
Y325498D01*
X433333Y324831D01*
X430667D01*
X236501Y310169D02*
X240499D01*
Y312835D01*
X236501Y316834D02*
Y314168D01*
X240499D01*
Y316834D01*
X238500Y314168D02*
Y315501D01*
X236501Y318166D02*
X240499D01*
Y320166D01*
X239833Y320832D01*
X237167D01*
X236501Y320166D01*
Y318166D01*
X239833Y322165D02*
X240499Y322832D01*
Y324165D01*
X239833Y324831D01*
X237167D01*
X236501Y324165D01*
Y322832D01*
X237167Y322165D01*
X237834D01*
X238500Y322832D01*
Y324831D01*
X253001Y310169D02*
X256999D01*
Y312835D01*
X253001Y316834D02*
Y314168D01*
X256999D01*
Y316834D01*
X255000Y314168D02*
Y315501D01*
X253001Y318166D02*
X256999D01*
Y320166D01*
X256333Y320832D01*
X253667D01*
X253001Y320166D01*
Y318166D01*
X253667Y322165D02*
X253001Y322832D01*
Y324165D01*
X253667Y324831D01*
X254334D01*
X255000Y324165D01*
X255666Y324831D01*
X256333D01*
X256999Y324165D01*
Y322832D01*
X256333Y322165D01*
X255666D01*
X255000Y322832D01*
X254334Y322165D01*
X253667D01*
X255000Y322832D02*
Y324165D01*
X268001Y310169D02*
X271999D01*
Y312835D01*
X268001Y316834D02*
Y314168D01*
X271999D01*
Y316834D01*
X270000Y314168D02*
Y315501D01*
X268001Y318166D02*
X271999D01*
Y320166D01*
X271333Y320832D01*
X268667D01*
X268001Y320166D01*
Y318166D01*
Y322165D02*
Y324831D01*
X268667D01*
X271333Y322165D01*
X271999D01*
X284001Y310169D02*
X287999D01*
Y312835D01*
X284001Y316834D02*
Y314168D01*
X287999D01*
Y316834D01*
X286000Y314168D02*
Y315501D01*
X284001Y318166D02*
X287999D01*
Y320166D01*
X287333Y320832D01*
X284667D01*
X284001Y320166D01*
Y318166D01*
Y324831D02*
X284667Y323498D01*
X286000Y322165D01*
X287333D01*
X287999Y322832D01*
Y324165D01*
X287333Y324831D01*
X286666D01*
X286000Y324165D01*
Y322165D01*
X298001Y309686D02*
X301999D01*
Y312352D01*
X298001Y316351D02*
Y313685D01*
X301999D01*
Y316351D01*
X300000Y313685D02*
Y315018D01*
X298001Y317684D02*
X301999D01*
Y319683D01*
X301333Y320350D01*
X298667D01*
X298001Y319683D01*
Y317684D01*
Y324348D02*
Y321683D01*
X300000D01*
X299334Y323016D01*
Y323682D01*
X300000Y324348D01*
X301333D01*
X301999Y323682D01*
Y322349D01*
X301333Y321683D01*
X191001Y310169D02*
X194999D01*
Y312835D01*
X191001Y316834D02*
Y314168D01*
X194999D01*
Y316834D01*
X193000Y314168D02*
Y315501D01*
X191001Y318166D02*
X194999D01*
Y320166D01*
X194333Y320832D01*
X191667D01*
X191001Y320166D01*
Y318166D01*
X194999Y324165D02*
X191001D01*
X193000Y322165D01*
Y324831D01*
X321001Y309686D02*
X324999D01*
Y312352D01*
X321001Y316351D02*
Y313685D01*
X324999D01*
Y316351D01*
X323000Y313685D02*
Y315018D01*
X321001Y317684D02*
X324999D01*
Y319683D01*
X324333Y320350D01*
X321667D01*
X321001Y319683D01*
Y317684D01*
X321667Y321683D02*
X321001Y322349D01*
Y323682D01*
X321667Y324348D01*
X322334D01*
X323000Y323682D01*
Y323016D01*
Y323682D01*
X323666Y324348D01*
X324333D01*
X324999Y323682D01*
Y322349D01*
X324333Y321683D01*
X341001Y309686D02*
X344999D01*
Y312352D01*
X341001Y316351D02*
Y313685D01*
X344999D01*
Y316351D01*
X343000Y313685D02*
Y315018D01*
X341001Y317684D02*
X344999D01*
Y319683D01*
X344333Y320350D01*
X341667D01*
X341001Y319683D01*
Y317684D01*
X344999Y324348D02*
Y321683D01*
X342334Y324348D01*
X341667D01*
X341001Y323682D01*
Y322349D01*
X341667Y321683D01*
X358001Y309686D02*
X361999D01*
Y312352D01*
X358001Y316351D02*
Y313685D01*
X361999D01*
Y316351D01*
X360000Y313685D02*
Y315018D01*
X358001Y317684D02*
X361999D01*
Y319683D01*
X361333Y320350D01*
X358667D01*
X358001Y319683D01*
Y317684D01*
X361999Y321683D02*
Y323016D01*
Y322349D01*
X358001D01*
X358667Y321683D01*
X257852Y48499D02*
X259185D01*
X258519D01*
Y44501D01*
X257852D01*
X259185D01*
X263850Y47833D02*
X263184Y48499D01*
X261851D01*
X261184Y47833D01*
Y45167D01*
X261851Y44501D01*
X263184D01*
X263850Y45167D01*
X267849Y48499D02*
X265183D01*
Y46500D01*
X266516Y47166D01*
X267182D01*
X267849Y46500D01*
Y45167D01*
X267182Y44501D01*
X265849D01*
X265183Y45167D01*
X366852Y48499D02*
X368185D01*
X367518D01*
Y44501D01*
X366852D01*
X368185D01*
X372850Y47833D02*
X372184Y48499D01*
X370851D01*
X370184Y47833D01*
Y45167D01*
X370851Y44501D01*
X372184D01*
X372850Y45167D01*
X376182Y44501D02*
Y48499D01*
X374183Y46500D01*
X376849D01*
X363852Y87499D02*
X365185D01*
X364518D01*
Y83501D01*
X363852D01*
X365185D01*
X369850Y86833D02*
X369184Y87499D01*
X367851D01*
X367184Y86833D01*
Y84167D01*
X367851Y83501D01*
X369184D01*
X369850Y84167D01*
X371183Y86833D02*
X371849Y87499D01*
X373182D01*
X373849Y86833D01*
Y86166D01*
X373182Y85500D01*
X372516D01*
X373182D01*
X373849Y84834D01*
Y84167D01*
X373182Y83501D01*
X371849D01*
X371183Y84167D01*
X256852Y87499D02*
X258185D01*
X257519D01*
Y83501D01*
X256852D01*
X258185D01*
X262850Y86833D02*
X262184Y87499D01*
X260851D01*
X260184Y86833D01*
Y84167D01*
X260851Y83501D01*
X262184D01*
X262850Y84167D01*
X266849Y83501D02*
X264183D01*
X266849Y86166D01*
Y86833D01*
X266182Y87499D01*
X264849D01*
X264183Y86833D01*
X190000Y192999D02*
X191333D01*
X190666D01*
Y189001D01*
X190000D01*
X191333D01*
X195998Y192333D02*
X195331Y192999D01*
X193998D01*
X193332Y192333D01*
Y189667D01*
X193998Y189001D01*
X195331D01*
X195998Y189667D01*
X197331Y189001D02*
X198664D01*
X197997D01*
Y192999D01*
X197331Y192333D01*
X521116Y322448D02*
Y318450D01*
Y320449D01*
X523782D01*
Y322448D01*
Y318450D01*
X527114D02*
Y322448D01*
X525115Y320449D01*
X527781D01*
X459668Y153999D02*
Y150001D01*
Y152000D01*
X462334D01*
Y153999D01*
Y150001D01*
X463666Y153333D02*
X464333Y153999D01*
X465666D01*
X466332Y153333D01*
Y152666D01*
X465666Y152000D01*
X464999D01*
X465666D01*
X466332Y151333D01*
Y150667D01*
X465666Y150001D01*
X464333D01*
X463666Y150667D01*
X9116Y218448D02*
Y214450D01*
Y216449D01*
X11782D01*
Y218448D01*
Y214450D01*
X15781D02*
X13115D01*
X15781Y217115D01*
Y217782D01*
X15114Y218448D01*
X13781D01*
X13115Y217782D01*
X388836Y233499D02*
Y228501D01*
Y231000D01*
X392168D01*
Y233499D01*
Y228501D01*
X393834D02*
X395501D01*
X394668D01*
Y233499D01*
X393834Y232666D01*
X349668Y142350D02*
Y138351D01*
X351667D01*
X352334Y139017D01*
Y139684D01*
X351667Y140350D01*
X349668D01*
X351667D01*
X352334Y141017D01*
Y141683D01*
X351667Y142350D01*
X349668D01*
X356332D02*
X353666D01*
Y140350D01*
X354999Y141017D01*
X355666D01*
X356332Y140350D01*
Y139017D01*
X355666Y138351D01*
X354333D01*
X353666Y139017D01*
X168168Y45499D02*
Y41501D01*
X170167D01*
X170834Y42167D01*
Y42834D01*
X170167Y43500D01*
X168168D01*
X170167D01*
X170834Y44166D01*
Y44833D01*
X170167Y45499D01*
X168168D01*
X174166Y41501D02*
Y45499D01*
X172167Y43500D01*
X174832D01*
X71168Y45499D02*
Y41501D01*
X73167D01*
X73834Y42167D01*
Y42834D01*
X73167Y43500D01*
X71168D01*
X73167D01*
X73834Y44166D01*
Y44833D01*
X73167Y45499D01*
X71168D01*
X75166Y44833D02*
X75833Y45499D01*
X77166D01*
X77832Y44833D01*
Y44166D01*
X77166Y43500D01*
X76499D01*
X77166D01*
X77832Y42834D01*
Y42167D01*
X77166Y41501D01*
X75833D01*
X75166Y42167D01*
X71168Y85499D02*
Y81501D01*
X73167D01*
X73834Y82167D01*
Y82834D01*
X73167Y83500D01*
X71168D01*
X73167D01*
X73834Y84166D01*
Y84833D01*
X73167Y85499D01*
X71168D01*
X77832Y81501D02*
X75166D01*
X77832Y84166D01*
Y84833D01*
X77166Y85499D01*
X75833D01*
X75166Y84833D01*
X168834Y85499D02*
Y81501D01*
X170834D01*
X171500Y82167D01*
Y82834D01*
X170834Y83500D01*
X168834D01*
X170834D01*
X171500Y84166D01*
Y84833D01*
X170834Y85499D01*
X168834D01*
X172833Y81501D02*
X174166D01*
X173499D01*
Y85499D01*
X172833Y84833D01*
D12*
X549000Y116000D02*
Y147000D01*
X469000Y116000D02*
Y147000D01*
Y116000D02*
X549000D01*
X469000Y147000D02*
X549000D01*
X396500Y194000D02*
Y213167D01*
Y194000D02*
Y224000D01*
X416500Y194000D02*
Y224000D01*
X396500D02*
X416500D01*
X396500Y194000D02*
X416500D01*
X97480Y263780D02*
X104567D01*
X105945Y235827D02*
Y264173D01*
Y235827D02*
X124055D01*
Y264173D01*
X105945D02*
X124055D01*
X364717Y268843D02*
X379283D01*
Y249157D02*
Y268843D01*
X364717Y249157D02*
X379283D01*
X364717D02*
Y268843D01*
X357532Y268941D02*
X363339D01*
X371559Y81154D02*
X384142D01*
Y61846D02*
Y81154D01*
X371559Y61846D02*
X384142D01*
X371559D02*
Y81154D01*
X364169Y81657D02*
X370181D01*
X265559Y42154D02*
X278142D01*
Y22846D02*
Y42154D01*
X265559Y22846D02*
X278142D01*
X265559D02*
Y42154D01*
X258169Y42657D02*
X264181D01*
X373559Y42154D02*
X386142D01*
Y22846D02*
Y42154D01*
X373559Y22846D02*
X386142D01*
X373559D02*
Y42154D01*
X366169Y42657D02*
X372181D01*
X263559Y81154D02*
X276142D01*
Y61846D02*
Y81154D01*
X263559Y61846D02*
X276142D01*
X263559D02*
Y81154D01*
X256169Y81657D02*
X262181D01*
X165972Y38406D02*
X175028D01*
Y26594D02*
Y38406D01*
X165972Y26594D02*
X175028D01*
X165972D02*
Y38406D01*
X159083Y38602D02*
X164594D01*
X165972Y78406D02*
X175028D01*
Y66594D02*
Y78406D01*
X165972Y66594D02*
X175028D01*
X165972D02*
Y78406D01*
X159083Y78602D02*
X164594D01*
X69972Y78406D02*
X79028D01*
Y66594D02*
Y78406D01*
X69972Y66594D02*
X79028D01*
X69972D02*
Y78406D01*
X63083Y78602D02*
X68594D01*
X69972Y38406D02*
X79028D01*
Y26594D02*
Y38406D01*
X69972Y26594D02*
X79028D01*
X69972D02*
Y38406D01*
X63083Y38602D02*
X68594D01*
X354472Y134756D02*
X363528D01*
Y122945D02*
Y134756D01*
X354472Y122945D02*
X363528D01*
X354472D02*
Y134756D01*
X347583Y134953D02*
X353094D01*
X206930Y176402D02*
X231733D01*
Y151598D02*
Y176402D01*
X206930Y151598D02*
X231733D01*
X206930D02*
Y176402D01*
D13*
X376100Y196500D02*
X380200D01*
X376100D02*
Y201500D01*
X380200D01*
X382700D02*
X386900D01*
Y196500D02*
Y201500D01*
X382800Y196500D02*
X386900D01*
X382800Y191500D02*
X386900D01*
Y186500D02*
Y191500D01*
X382800Y186500D02*
X386900D01*
X376100D02*
X380300D01*
X376100D02*
Y191500D01*
X380200D01*
X376100Y206500D02*
X380200D01*
X376100D02*
Y211500D01*
X380200D01*
X382700D02*
X386900D01*
Y206500D02*
Y211500D01*
X382800Y206500D02*
X386900D01*
X376100Y216500D02*
X380200D01*
X376100D02*
Y221500D01*
X380200D01*
X382700D02*
X386900D01*
Y216500D02*
Y221500D01*
X382800Y216500D02*
X386900D01*
X180000Y271300D02*
Y275400D01*
X175000D02*
X180000D01*
X175000Y271200D02*
Y275400D01*
Y264600D02*
Y268700D01*
Y264600D02*
X180000D01*
Y268700D01*
X195500Y264600D02*
Y268700D01*
X190500Y264600D02*
X195500D01*
X190500D02*
Y268700D01*
Y271200D02*
Y275400D01*
X195500D01*
Y271300D02*
Y275400D01*
X165500Y271300D02*
Y275400D01*
X160500D02*
X165500D01*
X160500Y271200D02*
Y275400D01*
Y264600D02*
Y268700D01*
Y264600D02*
X165500D01*
Y268700D01*
X396600Y271500D02*
X400700D01*
X396600Y266500D02*
Y271500D01*
Y266500D02*
X400800D01*
X403300D02*
X407400D01*
Y271500D01*
X403300D02*
X407400D01*
X396600Y251500D02*
X400700D01*
X396600Y246500D02*
Y251500D01*
Y246500D02*
X400800D01*
X403300D02*
X407400D01*
Y251500D01*
X403300D02*
X407400D01*
X272500Y271300D02*
Y275400D01*
X267500D02*
X272500D01*
X267500Y271200D02*
Y275400D01*
Y264600D02*
Y268700D01*
Y264600D02*
X272500D01*
Y268700D01*
X257500Y271300D02*
Y275400D01*
X252500D02*
X257500D01*
X252500Y271200D02*
Y275400D01*
Y264600D02*
Y268700D01*
Y264600D02*
X257500D01*
Y268700D01*
X288500Y271300D02*
Y275400D01*
X283500D02*
X288500D01*
X283500Y271200D02*
Y275400D01*
Y264600D02*
Y268700D01*
Y264600D02*
X288500D01*
Y268700D01*
X241000Y271300D02*
Y275400D01*
X236000D02*
X241000D01*
X236000Y271200D02*
Y275400D01*
Y264600D02*
Y268700D01*
Y264600D02*
X241000D01*
Y268700D01*
X338300Y246500D02*
X342400D01*
Y251500D01*
X338200D02*
X342400D01*
X331600D02*
X335700D01*
X331600Y246500D02*
Y251500D01*
Y246500D02*
X335700D01*
X338300Y259500D02*
X342400D01*
Y264500D01*
X338200D02*
X342400D01*
X331600D02*
X335700D01*
X331600Y259500D02*
Y264500D01*
Y259500D02*
X335700D01*
X338300Y271500D02*
X342400D01*
Y276500D01*
X338200D02*
X342400D01*
X331600D02*
X335700D01*
X331600Y271500D02*
Y276500D01*
Y271500D02*
X335700D01*
X302500Y271300D02*
Y275400D01*
X297500D02*
X302500D01*
X297500Y271200D02*
Y275400D01*
Y264600D02*
Y268700D01*
Y264600D02*
X302500D01*
Y268700D01*
X486500Y51100D02*
Y55200D01*
X481500Y51100D02*
X486500D01*
X481500D02*
Y55200D01*
Y57700D02*
Y61900D01*
X486500D01*
Y57800D02*
Y61900D01*
X496500Y51100D02*
Y55200D01*
X491500Y51100D02*
X496500D01*
X491500D02*
Y55200D01*
Y57700D02*
Y61900D01*
X496500D01*
Y57800D02*
Y61900D01*
X506500Y51100D02*
Y55200D01*
X501500Y51100D02*
X506500D01*
X501500D02*
Y55200D01*
Y57700D02*
Y61900D01*
X506500D01*
Y57800D02*
Y61900D01*
X521500Y102300D02*
Y106400D01*
X526500D01*
Y102300D02*
Y106400D01*
Y95600D02*
Y99800D01*
X521500Y95600D02*
X526500D01*
X521500D02*
Y99700D01*
X531500Y102300D02*
Y106400D01*
X536500D01*
Y102300D02*
Y106400D01*
Y95600D02*
Y99800D01*
X531500Y95600D02*
X536500D01*
X531500D02*
Y99700D01*
X511500Y102300D02*
Y106400D01*
X516500D01*
Y102300D02*
Y106400D01*
Y95600D02*
Y99800D01*
X511500Y95600D02*
X516500D01*
X511500D02*
Y99700D01*
Y57800D02*
Y61900D01*
X516500D01*
Y57800D02*
Y61900D01*
Y51100D02*
Y55300D01*
X511500Y51100D02*
X516500D01*
X511500D02*
Y55200D01*
X476500Y51100D02*
Y55200D01*
X471500Y51100D02*
X476500D01*
X471500D02*
Y55200D01*
Y57700D02*
Y61900D01*
X476500D01*
Y57800D02*
Y61900D01*
X496500Y95600D02*
Y99700D01*
X491500Y95600D02*
X496500D01*
X491500D02*
Y99700D01*
Y102200D02*
Y106400D01*
X496500D01*
Y102300D02*
Y106400D01*
X486500Y95600D02*
Y99700D01*
X481500Y95600D02*
X486500D01*
X481500D02*
Y99700D01*
Y102200D02*
Y106400D01*
X486500D01*
Y102300D02*
Y106400D01*
X506500Y95600D02*
Y99700D01*
X501500Y95600D02*
X506500D01*
X501500D02*
Y99700D01*
Y102200D02*
Y106400D01*
X506500D01*
Y102300D02*
Y106400D01*
X521500Y57800D02*
Y61900D01*
X526500D01*
Y57800D02*
Y61900D01*
Y51100D02*
Y55300D01*
X521500Y51100D02*
X526500D01*
X521500D02*
Y55200D01*
X531500Y57800D02*
Y61900D01*
X536500D01*
Y57800D02*
Y61900D01*
Y51100D02*
Y55300D01*
X531500Y51100D02*
X536500D01*
X531500D02*
Y55200D01*
X501500Y162300D02*
Y166400D01*
X506500D01*
Y162300D02*
Y166400D01*
Y155600D02*
Y159800D01*
X501500Y155600D02*
X506500D01*
X501500D02*
Y159700D01*
X491500Y162300D02*
Y166400D01*
X496500D01*
Y162300D02*
Y166400D01*
Y155600D02*
Y159800D01*
X491500Y155600D02*
X496500D01*
X491500D02*
Y159700D01*
X481500Y162300D02*
Y166400D01*
X486500D01*
Y162300D02*
Y166400D01*
Y155600D02*
Y159800D01*
X481500Y155600D02*
X486500D01*
X481500D02*
Y159700D01*
X536500Y155600D02*
Y159700D01*
X531500Y155600D02*
X536500D01*
X531500D02*
Y159700D01*
Y162200D02*
Y166400D01*
X536500D01*
Y162300D02*
Y166400D01*
X516500Y155600D02*
Y159700D01*
X511500Y155600D02*
X516500D01*
X511500D02*
Y159700D01*
Y162200D02*
Y166400D01*
X516500D01*
Y162300D02*
Y166400D01*
X191100Y91500D02*
X195200D01*
X191100Y86500D02*
Y91500D01*
Y86500D02*
X195300D01*
X197800D02*
X201900D01*
Y91500D01*
X197800D02*
X201900D01*
X476500Y95600D02*
Y99700D01*
X471500Y95600D02*
X476500D01*
X471500D02*
Y99700D01*
Y102200D02*
Y106400D01*
X476500D01*
Y102300D02*
Y106400D01*
X546500Y155600D02*
Y159700D01*
X541500Y155600D02*
X546500D01*
X541500D02*
Y159700D01*
Y162200D02*
Y166400D01*
X546500D01*
Y162300D02*
Y166400D01*
X541500Y102300D02*
Y106400D01*
X546500D01*
Y102300D02*
Y106400D01*
Y95600D02*
Y99800D01*
X541500Y95600D02*
X546500D01*
X541500D02*
Y99700D01*
X471500Y162300D02*
Y166400D01*
X476500D01*
Y162300D02*
Y166400D01*
Y155600D02*
Y159800D01*
X471500Y155600D02*
X476500D01*
X471500D02*
Y159700D01*
X541500Y57800D02*
Y61900D01*
X546500D01*
Y57800D02*
Y61900D01*
Y51100D02*
Y55300D01*
X541500Y51100D02*
X546500D01*
X541500D02*
Y55200D01*
X526500Y155600D02*
Y159700D01*
X521500Y155600D02*
X526500D01*
X521500D02*
Y159700D01*
Y162200D02*
Y166400D01*
X526500D01*
Y162300D02*
Y166400D01*
X296600Y28000D02*
X300700D01*
X296600D02*
Y33000D01*
X300700D01*
X303200D02*
X307400D01*
Y28000D02*
Y33000D01*
X303300Y28000D02*
X307400D01*
X303300Y42000D02*
X307400D01*
Y37000D02*
Y42000D01*
X303300Y37000D02*
X307400D01*
X296600D02*
X300800D01*
X296600D02*
Y42000D01*
X300700D01*
X296600Y19000D02*
X300700D01*
X296600D02*
Y24000D01*
X300700D01*
X303200D02*
X307400D01*
Y19000D02*
Y24000D01*
X303300Y19000D02*
X307400D01*
X241300Y33000D02*
X245400D01*
Y28000D02*
Y33000D01*
X241300Y28000D02*
X245400D01*
X234600D02*
X238800D01*
X234600D02*
Y33000D01*
X238700D01*
X234600Y37000D02*
X238700D01*
X234600D02*
Y42000D01*
X238700D01*
X241200D02*
X245400D01*
Y37000D02*
Y42000D01*
X241300Y37000D02*
X245400D01*
X402600Y28000D02*
X406700D01*
X402600D02*
Y33000D01*
X406700D01*
X409200D02*
X413400D01*
Y28000D02*
Y33000D01*
X409300Y28000D02*
X413400D01*
X241300Y24000D02*
X245400D01*
Y19000D02*
Y24000D01*
X241300Y19000D02*
X245400D01*
X234600D02*
X238800D01*
X234600D02*
Y24000D01*
X238700D01*
X409300Y42000D02*
X413400D01*
Y37000D02*
Y42000D01*
X409300Y37000D02*
X413400D01*
X402600D02*
X406800D01*
X402600D02*
Y42000D01*
X406700D01*
X402600Y19000D02*
X406700D01*
X402600D02*
Y24000D01*
X406700D01*
X409200D02*
X413400D01*
Y19000D02*
Y24000D01*
X409300Y19000D02*
X413400D01*
X351300Y33000D02*
X355400D01*
Y28000D02*
Y33000D01*
X351300Y28000D02*
X355400D01*
X344600D02*
X348800D01*
X344600D02*
Y33000D01*
X348700D01*
X344600Y37000D02*
X348700D01*
X344600D02*
Y42000D01*
X348700D01*
X351200D02*
X355400D01*
Y37000D02*
Y42000D01*
X351300Y37000D02*
X355400D01*
X351300Y24000D02*
X355400D01*
Y19000D02*
Y24000D01*
X351300Y19000D02*
X355400D01*
X344600D02*
X348800D01*
X344600D02*
Y24000D01*
X348700D01*
X402600Y66500D02*
X406700D01*
X402600D02*
Y71500D01*
X406700D01*
X409200D02*
X413400D01*
Y66500D02*
Y71500D01*
X409300Y66500D02*
X413400D01*
X296600D02*
X300700D01*
X296600D02*
Y71500D01*
X300700D01*
X303200D02*
X307400D01*
Y66500D02*
Y71500D01*
X303300Y66500D02*
X307400D01*
X409300Y80500D02*
X413400D01*
Y75500D02*
Y80500D01*
X409300Y75500D02*
X413400D01*
X402600D02*
X406800D01*
X402600D02*
Y80500D01*
X406700D01*
X303300D02*
X307400D01*
Y75500D02*
Y80500D01*
X303300Y75500D02*
X307400D01*
X296600D02*
X300800D01*
X296600D02*
Y80500D01*
X300700D01*
X402600Y57500D02*
X406700D01*
X402600D02*
Y62500D01*
X406700D01*
X409200D02*
X413400D01*
Y57500D02*
Y62500D01*
X409300Y57500D02*
X413400D01*
X296600D02*
X300700D01*
X296600D02*
Y62500D01*
X300700D01*
X303200D02*
X307400D01*
Y57500D02*
Y62500D01*
X303300Y57500D02*
X307400D01*
X351300Y71500D02*
X355400D01*
Y66500D02*
Y71500D01*
X351300Y66500D02*
X355400D01*
X344600D02*
X348800D01*
X344600D02*
Y71500D01*
X348700D01*
X241300D02*
X245400D01*
Y66500D02*
Y71500D01*
X241300Y66500D02*
X245400D01*
X234600D02*
X238800D01*
X234600D02*
Y71500D01*
X238700D01*
X344600Y75500D02*
X348700D01*
X344600D02*
Y80500D01*
X348700D01*
X351200D02*
X355400D01*
Y75500D02*
Y80500D01*
X351300Y75500D02*
X355400D01*
X234600D02*
X238700D01*
X234600D02*
Y80500D01*
X238700D01*
X241200D02*
X245400D01*
Y75500D02*
Y80500D01*
X241300Y75500D02*
X245400D01*
X351300Y62500D02*
X355400D01*
Y57500D02*
Y62500D01*
X351300Y57500D02*
X355400D01*
X344600D02*
X348800D01*
X344600D02*
Y62500D01*
X348700D01*
X241300D02*
X245400D01*
Y57500D02*
Y62500D01*
X241300Y57500D02*
X245400D01*
X234600D02*
X238800D01*
X234600D02*
Y62500D01*
X238700D01*
X197800Y51500D02*
X201900D01*
Y46500D02*
Y51500D01*
X197800Y46500D02*
X201900D01*
X191100D02*
X195300D01*
X191100D02*
Y51500D01*
X195200D01*
X147800Y23000D02*
X151900D01*
Y18000D02*
Y23000D01*
X147800Y18000D02*
X151900D01*
X141100D02*
X145300D01*
X141100D02*
Y23000D01*
X145200D01*
X197800Y42500D02*
X201900D01*
Y37500D02*
Y42500D01*
X197800Y37500D02*
X201900D01*
X191100D02*
X195300D01*
X191100D02*
Y42500D01*
X195200D01*
X191100Y19500D02*
X195200D01*
X191100D02*
Y24500D01*
X195200D01*
X197700D02*
X201900D01*
Y19500D02*
Y24500D01*
X197800Y19500D02*
X201900D01*
X197800Y33500D02*
X201900D01*
Y28500D02*
Y33500D01*
X197800Y28500D02*
X201900D01*
X191100D02*
X195300D01*
X191100D02*
Y33500D01*
X195200D01*
X141100Y41000D02*
X145200D01*
X141100D02*
Y46000D01*
X145200D01*
X147700D02*
X151900D01*
Y41000D02*
Y46000D01*
X147800Y41000D02*
X151900D01*
X147800Y61000D02*
X151900D01*
Y56000D02*
Y61000D01*
X147800Y56000D02*
X151900D01*
X141100D02*
X145300D01*
X141100D02*
Y61000D01*
X145200D01*
X197800Y82500D02*
X201900D01*
Y77500D02*
Y82500D01*
X197800Y77500D02*
X201900D01*
X191100D02*
X195300D01*
X191100D02*
Y82500D01*
X195200D01*
X191100Y59500D02*
X195200D01*
X191100D02*
Y64500D01*
X195200D01*
X197700D02*
X201900D01*
Y59500D02*
Y64500D01*
X197800Y59500D02*
X201900D01*
X197800Y73500D02*
X201900D01*
Y68500D02*
Y73500D01*
X197800Y68500D02*
X201900D01*
X191100D02*
X195300D01*
X191100D02*
Y73500D01*
X195200D01*
X141100Y82000D02*
X145200D01*
X141100D02*
Y87000D01*
X145200D01*
X147700D02*
X151900D01*
Y82000D02*
Y87000D01*
X147800Y82000D02*
X151900D01*
X101800Y51500D02*
X105900D01*
Y46500D02*
Y51500D01*
X101800Y46500D02*
X105900D01*
X95100D02*
X99300D01*
X95100D02*
Y51500D01*
X99200D01*
X101800Y42500D02*
X105900D01*
Y37500D02*
Y42500D01*
X101800Y37500D02*
X105900D01*
X95100D02*
X99300D01*
X95100D02*
Y42500D01*
X99200D01*
X101800Y33500D02*
X105900D01*
Y28500D02*
Y33500D01*
X101800Y28500D02*
X105900D01*
X95100D02*
X99300D01*
X95100D02*
Y33500D01*
X99200D01*
X95100Y19500D02*
X99200D01*
X95100D02*
Y24500D01*
X99200D01*
X101700D02*
X105900D01*
Y19500D02*
Y24500D01*
X101800Y19500D02*
X105900D01*
X212500Y203300D02*
Y207400D01*
X217500D01*
Y203300D02*
Y207400D01*
Y196600D02*
Y200800D01*
X212500Y196600D02*
X217500D01*
X212500D02*
Y200700D01*
X504300Y291500D02*
X508400D01*
Y296500D01*
X504200D02*
X508400D01*
X497600D02*
X501700D01*
X497600Y291500D02*
Y296500D01*
Y291500D02*
X501700D01*
X504300Y281500D02*
X508400D01*
Y286500D01*
X504200D02*
X508400D01*
X497600D02*
X501700D01*
X497600Y281500D02*
Y286500D01*
Y281500D02*
X501700D01*
X504300Y271500D02*
X508400D01*
Y276500D01*
X504200D02*
X508400D01*
X497600D02*
X501700D01*
X497600Y271500D02*
Y276500D01*
Y271500D02*
X501700D01*
X504300Y261500D02*
X508400D01*
Y266500D01*
X504200D02*
X508400D01*
X497600D02*
X501700D01*
X497600Y261500D02*
Y266500D01*
Y261500D02*
X501700D01*
X504300Y251500D02*
X508400D01*
Y256500D01*
X504200D02*
X508400D01*
X497600D02*
X501700D01*
X497600Y251500D02*
Y256500D01*
Y251500D02*
X501700D01*
X504300Y241500D02*
X508400D01*
Y246500D01*
X504200D02*
X508400D01*
X497600D02*
X501700D01*
X497600Y241500D02*
Y246500D01*
Y241500D02*
X501700D01*
X504300Y231500D02*
X508400D01*
Y236500D01*
X504200D02*
X508400D01*
X497600D02*
X501700D01*
X497600Y231500D02*
Y236500D01*
Y231500D02*
X501700D01*
X504300Y221500D02*
X508400D01*
Y226500D01*
X504200D02*
X508400D01*
X497600D02*
X501700D01*
X497600Y221500D02*
Y226500D01*
Y221500D02*
X501700D01*
X229500Y203300D02*
Y207400D01*
X224500D02*
X229500D01*
X224500Y203200D02*
Y207400D01*
Y196600D02*
Y200700D01*
Y196600D02*
X229500D01*
Y200700D01*
X235500Y203300D02*
Y207400D01*
X230500D02*
X235500D01*
X230500Y203200D02*
Y207400D01*
Y196600D02*
Y200700D01*
Y196600D02*
X235500D01*
Y200700D01*
X206500Y196600D02*
Y200700D01*
Y196600D02*
X211500D01*
Y200800D01*
Y203300D02*
Y207400D01*
X206500D02*
X211500D01*
X206500Y203300D02*
Y207400D01*
X241500Y203300D02*
Y207400D01*
X236500D02*
X241500D01*
X236500Y203200D02*
Y207400D01*
Y196600D02*
Y200700D01*
Y196600D02*
X241500D01*
Y200700D01*
X200500Y196600D02*
Y200700D01*
Y196600D02*
X205500D01*
Y200800D01*
Y203300D02*
Y207400D01*
X200500D02*
X205500D01*
X200500Y203300D02*
Y207400D01*
X54600Y192500D02*
X58700D01*
X54600Y187500D02*
Y192500D01*
Y187500D02*
X58800D01*
X61300D02*
X65400D01*
Y192500D01*
X61300D02*
X65400D01*
X260300Y178500D02*
X264400D01*
Y183500D01*
X260200D02*
X264400D01*
X253600D02*
X257700D01*
X253600Y178500D02*
Y183500D01*
Y178500D02*
X257700D01*
X178800Y183500D02*
X182900D01*
Y188500D01*
X178700D02*
X182900D01*
X172100D02*
X176200D01*
X172100Y183500D02*
Y188500D01*
Y183500D02*
X176200D01*
X54600Y182500D02*
X58700D01*
X54600Y177500D02*
Y182500D01*
Y177500D02*
X58800D01*
X61300D02*
X65400D01*
Y182500D01*
X61300D02*
X65400D01*
X260300Y172500D02*
X264400D01*
Y177500D01*
X260200D02*
X264400D01*
X253600D02*
X257700D01*
X253600Y172500D02*
Y177500D01*
Y172500D02*
X257700D01*
X178800Y177500D02*
X182900D01*
Y182500D01*
X178700D02*
X182900D01*
X172100D02*
X176200D01*
X172100Y177500D02*
Y182500D01*
Y177500D02*
X176200D01*
X91300Y162500D02*
X95400D01*
Y167500D01*
X91200D02*
X95400D01*
X84600D02*
X88700D01*
X84600Y162500D02*
Y167500D01*
Y162500D02*
X88700D01*
X54600Y172500D02*
X58700D01*
X54600Y167500D02*
Y172500D01*
Y167500D02*
X58800D01*
X61300D02*
X65400D01*
Y172500D01*
X61300D02*
X65400D01*
X260300Y166500D02*
X264400D01*
Y171500D01*
X260200D02*
X264400D01*
X253600D02*
X257700D01*
X253600Y166500D02*
Y171500D01*
Y166500D02*
X257700D01*
X178800Y171500D02*
X182900D01*
Y176500D01*
X178700D02*
X182900D01*
X172100D02*
X176200D01*
X172100Y171500D02*
Y176500D01*
Y171500D02*
X176200D01*
X91300Y152500D02*
X95400D01*
Y157500D01*
X91200D02*
X95400D01*
X84600D02*
X88700D01*
X84600Y152500D02*
Y157500D01*
Y152500D02*
X88700D01*
X54600Y162500D02*
X58700D01*
X54600Y157500D02*
Y162500D01*
Y157500D02*
X58800D01*
X61300D02*
X65400D01*
Y162500D01*
X61300D02*
X65400D01*
X260300Y160500D02*
X264400D01*
Y165500D01*
X260200D02*
X264400D01*
X253600D02*
X257700D01*
X253600Y160500D02*
Y165500D01*
Y160500D02*
X257700D01*
X178800Y165500D02*
X182900D01*
Y170500D01*
X178700D02*
X182900D01*
X172100D02*
X176200D01*
X172100Y165500D02*
Y170500D01*
Y165500D02*
X176200D01*
X91300Y142500D02*
X95400D01*
Y147500D01*
X91200D02*
X95400D01*
X84600D02*
X88700D01*
X84600Y142500D02*
Y147500D01*
Y142500D02*
X88700D01*
X54600Y152500D02*
X58700D01*
X54600Y147500D02*
Y152500D01*
Y147500D02*
X58800D01*
X61300D02*
X65400D01*
Y152500D01*
X61300D02*
X65400D01*
X260300Y154500D02*
X264400D01*
Y159500D01*
X260200D02*
X264400D01*
X253600D02*
X257700D01*
X253600Y154500D02*
Y159500D01*
Y154500D02*
X257700D01*
X178800Y159500D02*
X182900D01*
Y164500D01*
X178700D02*
X182900D01*
X172100D02*
X176200D01*
X172100Y159500D02*
Y164500D01*
Y159500D02*
X176200D01*
X91300Y132500D02*
X95400D01*
Y137500D01*
X91200D02*
X95400D01*
X84600D02*
X88700D01*
X84600Y132500D02*
Y137500D01*
Y132500D02*
X88700D01*
X54600Y142500D02*
X58700D01*
X54600Y137500D02*
Y142500D01*
Y137500D02*
X58800D01*
X61300D02*
X65400D01*
Y142500D01*
X61300D02*
X65400D01*
X54600Y132500D02*
X58700D01*
X54600Y127500D02*
Y132500D01*
Y127500D02*
X58800D01*
X61300D02*
X65400D01*
Y132500D01*
X61300D02*
X65400D01*
X54600Y122500D02*
X58700D01*
X54600Y117500D02*
Y122500D01*
Y117500D02*
X58800D01*
X61300D02*
X65400D01*
Y122500D01*
X61300D02*
X65400D01*
X260300Y144500D02*
X264400D01*
Y149500D01*
X260200D02*
X264400D01*
X253600D02*
X257700D01*
X253600Y144500D02*
Y149500D01*
Y144500D02*
X257700D01*
X239500Y115600D02*
Y119700D01*
Y115600D02*
X244500D01*
Y119800D01*
Y122300D02*
Y126400D01*
X239500D02*
X244500D01*
X239500Y122300D02*
Y126400D01*
X178800Y153500D02*
X182900D01*
Y158500D01*
X178700D02*
X182900D01*
X172100D02*
X176200D01*
X172100Y153500D02*
Y158500D01*
Y153500D02*
X176200D01*
X233500Y115600D02*
Y119700D01*
Y115600D02*
X238500D01*
Y119800D01*
Y122300D02*
Y126400D01*
X233500D02*
X238500D01*
X233500Y122300D02*
Y126400D01*
X178800Y147500D02*
X182900D01*
Y152500D01*
X178700D02*
X182900D01*
X172100D02*
X176200D01*
X172100Y147500D02*
Y152500D01*
Y147500D02*
X176200D01*
X227500Y115600D02*
Y119700D01*
Y115600D02*
X232500D01*
Y119800D01*
Y122300D02*
Y126400D01*
X227500D02*
X232500D01*
X227500Y122300D02*
Y126400D01*
X178800Y141500D02*
X182900D01*
Y146500D01*
X178700D02*
X182900D01*
X172100D02*
X176200D01*
X172100Y141500D02*
Y146500D01*
Y141500D02*
X176200D01*
X221500Y115600D02*
Y119700D01*
Y115600D02*
X226500D01*
Y119800D01*
Y122300D02*
Y126400D01*
X221500D02*
X226500D01*
X221500Y122300D02*
Y126400D01*
X208500Y122300D02*
Y126400D01*
X203500D02*
X208500D01*
X203500Y122200D02*
Y126400D01*
Y115600D02*
Y119700D01*
Y115600D02*
X208500D01*
Y119700D01*
X215500Y115600D02*
Y119700D01*
Y115600D02*
X220500D01*
Y119800D01*
Y122300D02*
Y126400D01*
X215500D02*
X220500D01*
X215500Y122300D02*
Y126400D01*
X209500Y115600D02*
Y119700D01*
Y115600D02*
X214500D01*
Y119800D01*
Y122300D02*
Y126400D01*
X209500D02*
X214500D01*
X209500Y122300D02*
Y126400D01*
X51800Y81000D02*
X55900D01*
Y86000D01*
X51700D02*
X55900D01*
X45100D02*
X49200D01*
X45100Y81000D02*
Y86000D01*
Y81000D02*
X49200D01*
X101800Y59500D02*
X105900D01*
Y64500D01*
X101700D02*
X105900D01*
X95100D02*
X99200D01*
X95100Y59500D02*
Y64500D01*
Y59500D02*
X99200D01*
X95100Y73500D02*
X99200D01*
X95100Y68500D02*
Y73500D01*
Y68500D02*
X99300D01*
X101800D02*
X105900D01*
Y73500D01*
X101800D02*
X105900D01*
X45100Y61000D02*
X49200D01*
X45100Y56000D02*
Y61000D01*
Y56000D02*
X49300D01*
X51800D02*
X55900D01*
Y61000D01*
X51800D02*
X55900D01*
X95100Y82500D02*
X99200D01*
X95100Y77500D02*
Y82500D01*
Y77500D02*
X99300D01*
X101800D02*
X105900D01*
Y82500D01*
X101800D02*
X105900D01*
X95100Y91500D02*
X99200D01*
X95100Y86500D02*
Y91500D01*
Y86500D02*
X99300D01*
X101800D02*
X105900D01*
Y91500D01*
X101800D02*
X105900D01*
X51800Y41000D02*
X55900D01*
Y46000D01*
X51700D02*
X55900D01*
X45100D02*
X49200D01*
X45100Y41000D02*
Y46000D01*
Y41000D02*
X49200D01*
X45100Y23000D02*
X49200D01*
X45100Y18000D02*
Y23000D01*
Y18000D02*
X49300D01*
X51800D02*
X55900D01*
Y23000D01*
X51800D02*
X55900D01*
X418500Y160300D02*
Y164400D01*
X413500D02*
X418500D01*
X413500Y160200D02*
Y164400D01*
Y153600D02*
Y157700D01*
Y153600D02*
X418500D01*
Y157700D01*
X394500Y153600D02*
Y157700D01*
Y153600D02*
X399500D01*
Y157800D01*
Y160300D02*
Y164400D01*
X394500D02*
X399500D01*
X394500Y160300D02*
Y164400D01*
X413500Y113600D02*
Y117700D01*
Y113600D02*
X418500D01*
Y117800D01*
Y120300D02*
Y124400D01*
X413500D02*
X418500D01*
X413500Y120300D02*
Y124400D01*
X399500Y120300D02*
Y124400D01*
X394500D02*
X399500D01*
X394500Y120200D02*
Y124400D01*
Y113600D02*
Y117700D01*
Y113600D02*
X399500D01*
Y117700D01*
D14*
X466666Y129000D02*
X464000D01*
X466666Y131666D01*
Y132332D01*
X465999Y132999D01*
X464666D01*
X464000Y132332D01*
Y119000D02*
X465333D01*
X464666D01*
Y122999D01*
X464000Y122332D01*
X553333Y119000D02*
X551000D01*
X553333Y121333D01*
Y121916D01*
X552749Y122499D01*
X551583D01*
X551000Y121916D01*
X556832Y119000D02*
X554499D01*
X556832Y121333D01*
Y121916D01*
X556248Y122499D01*
X555082D01*
X554499Y121916D01*
X553333Y129500D02*
X551000D01*
X553333Y131833D01*
Y132416D01*
X552749Y132999D01*
X551583D01*
X551000Y132416D01*
X554499D02*
X555082Y132999D01*
X556248D01*
X556832Y132416D01*
Y131833D01*
X556248Y131249D01*
X555665D01*
X556248D01*
X556832Y130666D01*
Y130083D01*
X556248Y129500D01*
X555082D01*
X554499Y130083D01*
X464000Y142332D02*
X464666Y142999D01*
X465999D01*
X466666Y142332D01*
Y141666D01*
X465999Y140999D01*
X465333D01*
X465999D01*
X466666Y140333D01*
Y139666D01*
X465999Y139000D01*
X464666D01*
X464000Y139666D01*
X553333Y139500D02*
X551000D01*
X553333Y141833D01*
Y142416D01*
X552749Y142999D01*
X551583D01*
X551000Y142416D01*
X556248Y139500D02*
Y142999D01*
X554499Y141249D01*
X556832D01*
X399500Y228000D02*
Y226334D01*
Y227167D01*
X404498D01*
X403665Y228000D01*
X409000Y226168D02*
Y229500D01*
X412332Y226168D01*
X413165D01*
X413998Y227001D01*
Y228667D01*
X413165Y229500D01*
X403499Y189334D02*
Y192000D01*
X401499D01*
X402166Y190667D01*
Y190001D01*
X401499Y189334D01*
X400166D01*
X399500Y190001D01*
Y191333D01*
X400166Y192000D01*
X413499Y189334D02*
X412832Y190667D01*
X411499Y192000D01*
X410166D01*
X409500Y191333D01*
Y190001D01*
X410166Y189334D01*
X410833D01*
X411499Y190001D01*
Y192000D01*
M02*
