G04*
G04 #@! TF.GenerationSoftware,Altium Limited,Altium Designer,22.3.1 (43)*
G04*
G04 Layer_Color=32896*
%FSLAX25Y25*%
%MOIN*%
G70*
G04*
G04 #@! TF.SameCoordinates,D44AF7EC-015F-415D-BC9C-BA0083E1B9C0*
G04*
G04*
G04 #@! TF.FilePolarity,Positive*
G04*
G01*
G75*
%ADD58C,0.00197*%
D58*
X429047Y345709D02*
X434953D01*
Y334291D02*
Y345709D01*
X429047Y334291D02*
X434953D01*
X429047D02*
Y345709D01*
X403047Y334291D02*
Y345709D01*
Y334291D02*
X408953D01*
Y345709D01*
X403047D02*
X408953D01*
X386953Y334291D02*
Y345709D01*
X381047D02*
X386953D01*
X381047Y334291D02*
Y345709D01*
Y334291D02*
X386953D01*
X357047D02*
Y345709D01*
Y334291D02*
X362953D01*
Y345709D01*
X357047D02*
X362953D01*
X340047Y334291D02*
Y345709D01*
Y334291D02*
X345953D01*
Y345709D01*
X340047D02*
X345953D01*
X320047Y334291D02*
Y345709D01*
Y334291D02*
X325953D01*
Y345709D01*
X320047D02*
X325953D01*
X297047D02*
X302953D01*
Y334291D02*
Y345709D01*
X297047Y334291D02*
X302953D01*
X297047D02*
Y345709D01*
X283047D02*
X288953D01*
Y334291D02*
Y345709D01*
X283047Y334291D02*
X288953D01*
X283047D02*
Y345709D01*
X267047Y334291D02*
Y345709D01*
Y334291D02*
X272953D01*
Y345709D01*
X267047D02*
X272953D01*
X252047D02*
X257953D01*
Y334291D02*
Y345709D01*
X252047Y334291D02*
X257953D01*
X252047D02*
Y345709D01*
X235547D02*
X241453D01*
Y334291D02*
Y345709D01*
X235547Y334291D02*
X241453D01*
X235547D02*
Y345709D01*
X217047D02*
X222953D01*
Y334291D02*
Y345709D01*
X217047Y334291D02*
X222953D01*
X217047D02*
Y345709D01*
X204547D02*
X210453D01*
Y334291D02*
Y345709D01*
X204547Y334291D02*
X210453D01*
X204547D02*
Y345709D01*
X190047D02*
X195953D01*
Y334291D02*
Y345709D01*
X190047Y334291D02*
X195953D01*
X190047D02*
Y345709D01*
X160047D02*
X165953D01*
Y334291D02*
Y345709D01*
X160047Y334291D02*
X165953D01*
X160047D02*
Y345709D01*
X180453Y334291D02*
Y345709D01*
X174547D02*
X180453D01*
X174547Y334291D02*
Y345709D01*
Y334291D02*
X180453D01*
X142047Y345709D02*
X147953D01*
Y334291D02*
Y345709D01*
X142047Y334291D02*
X147953D01*
X142047D02*
Y345709D01*
X132047D02*
X137953D01*
Y334291D02*
Y345709D01*
X132047Y334291D02*
X137953D01*
X132047D02*
Y345709D01*
X122047D02*
X127953D01*
Y334291D02*
Y345709D01*
X122047Y334291D02*
X127953D01*
X122047D02*
Y345709D01*
X112047D02*
X117953D01*
Y334291D02*
Y345709D01*
X112047Y334291D02*
X117953D01*
X112047D02*
Y345709D01*
X92047D02*
X97953D01*
Y334291D02*
Y345709D01*
X92047Y334291D02*
X97953D01*
X92047D02*
Y345709D01*
X102047D02*
X107953D01*
Y334291D02*
Y345709D01*
X102047Y334291D02*
X107953D01*
X102047D02*
Y345709D01*
X82047D02*
X87953D01*
Y334291D02*
Y345709D01*
X82047Y334291D02*
X87953D01*
X82047D02*
Y345709D01*
X72047D02*
X77953D01*
Y334291D02*
Y345709D01*
X72047Y334291D02*
X77953D01*
X72047D02*
Y345709D01*
X375791Y196047D02*
Y201953D01*
Y196047D02*
X387209D01*
Y201953D01*
X375791D02*
X387209D01*
Y186047D02*
Y191953D01*
X375791D02*
X387209D01*
X375791Y186047D02*
Y191953D01*
Y186047D02*
X387209D01*
X375791Y206047D02*
Y211953D01*
Y206047D02*
X387209D01*
Y211953D01*
X375791D02*
X387209D01*
X375791Y216047D02*
Y221953D01*
Y216047D02*
X387209D01*
Y221953D01*
X375791D02*
X387209D01*
X96496Y234252D02*
Y265748D01*
Y234252D02*
X133504D01*
Y265748D01*
X96496D02*
X133504D01*
X174547Y264291D02*
Y275709D01*
X180453D01*
Y264291D02*
Y275709D01*
X174547Y264291D02*
X180453D01*
X190047D02*
X195953D01*
Y275709D01*
X190047D02*
X195953D01*
X190047Y264291D02*
Y275709D01*
X160047Y264291D02*
Y275709D01*
X165953D01*
Y264291D02*
Y275709D01*
X160047Y264291D02*
X165953D01*
X396291Y266047D02*
X407709D01*
X396291D02*
Y271953D01*
X407709D01*
Y266047D02*
Y271953D01*
X396291Y246047D02*
X407709D01*
X396291D02*
Y251953D01*
X407709D01*
Y246047D02*
Y251953D01*
X356547Y270024D02*
X387453D01*
Y247976D02*
Y270024D01*
X356547Y247976D02*
X387453D01*
X356547D02*
Y270024D01*
X267047Y264291D02*
Y275709D01*
X272953D01*
Y264291D02*
Y275709D01*
X267047Y264291D02*
X272953D01*
X252047D02*
Y275709D01*
X257953D01*
Y264291D02*
Y275709D01*
X252047Y264291D02*
X257953D01*
X283047D02*
Y275709D01*
X288953D01*
Y264291D02*
Y275709D01*
X283047Y264291D02*
X288953D01*
X235547D02*
Y275709D01*
X241453D01*
Y264291D02*
Y275709D01*
X235547Y264291D02*
X241453D01*
X331291Y251953D02*
X342709D01*
Y246047D02*
Y251953D01*
X331291Y246047D02*
X342709D01*
X331291D02*
Y251953D01*
Y264953D02*
X342709D01*
Y259047D02*
Y264953D01*
X331291Y259047D02*
X342709D01*
X331291D02*
Y264953D01*
Y276953D02*
X342709D01*
Y271047D02*
Y276953D01*
X331291Y271047D02*
X342709D01*
X331291D02*
Y276953D01*
X297047Y264291D02*
Y275709D01*
X302953D01*
Y264291D02*
Y275709D01*
X297047Y264291D02*
X302953D01*
X481047Y50791D02*
X486953D01*
Y62209D01*
X481047D02*
X486953D01*
X481047Y50791D02*
Y62209D01*
X491047Y50791D02*
X496953D01*
Y62209D01*
X491047D02*
X496953D01*
X491047Y50791D02*
Y62209D01*
X501047Y50791D02*
X506953D01*
Y62209D01*
X501047D02*
X506953D01*
X501047Y50791D02*
Y62209D01*
X521047Y106709D02*
X526953D01*
X521047Y95291D02*
Y106709D01*
Y95291D02*
X526953D01*
Y106709D01*
X531047D02*
X536953D01*
X531047Y95291D02*
Y106709D01*
Y95291D02*
X536953D01*
Y106709D01*
X511047D02*
X516953D01*
X511047Y95291D02*
Y106709D01*
Y95291D02*
X516953D01*
Y106709D01*
X511047Y62209D02*
X516953D01*
X511047Y50791D02*
Y62209D01*
Y50791D02*
X516953D01*
Y62209D01*
X471047Y50791D02*
X476953D01*
Y62209D01*
X471047D02*
X476953D01*
X471047Y50791D02*
Y62209D01*
X491047Y95291D02*
X496953D01*
Y106709D01*
X491047D02*
X496953D01*
X491047Y95291D02*
Y106709D01*
X481047Y95291D02*
X486953D01*
Y106709D01*
X481047D02*
X486953D01*
X481047Y95291D02*
Y106709D01*
X501047Y95291D02*
X506953D01*
Y106709D01*
X501047D02*
X506953D01*
X501047Y95291D02*
Y106709D01*
X521047Y62209D02*
X526953D01*
X521047Y50791D02*
Y62209D01*
Y50791D02*
X526953D01*
Y62209D01*
X531047D02*
X536953D01*
X531047Y50791D02*
Y62209D01*
Y50791D02*
X536953D01*
Y62209D01*
X501047Y166709D02*
X506953D01*
X501047Y155291D02*
Y166709D01*
Y155291D02*
X506953D01*
Y166709D01*
X491047D02*
X496953D01*
X491047Y155291D02*
Y166709D01*
Y155291D02*
X496953D01*
Y166709D01*
X481047D02*
X486953D01*
X481047Y155291D02*
Y166709D01*
Y155291D02*
X486953D01*
Y166709D01*
X531047Y155291D02*
X536953D01*
Y166709D01*
X531047D02*
X536953D01*
X531047Y155291D02*
Y166709D01*
X511047Y155291D02*
X516953D01*
Y166709D01*
X511047D02*
X516953D01*
X511047Y155291D02*
Y166709D01*
X190791Y86047D02*
X202209D01*
X190791D02*
Y91953D01*
X202209D01*
Y86047D02*
Y91953D01*
X471047Y95291D02*
X476953D01*
Y106709D01*
X471047D02*
X476953D01*
X471047Y95291D02*
Y106709D01*
X541047Y155291D02*
X546953D01*
Y166709D01*
X541047D02*
X546953D01*
X541047Y155291D02*
Y166709D01*
Y106709D02*
X546953D01*
X541047Y95291D02*
Y106709D01*
Y95291D02*
X546953D01*
Y106709D01*
X471047Y166709D02*
X476953D01*
X471047Y155291D02*
Y166709D01*
Y155291D02*
X476953D01*
Y166709D01*
X541047Y62209D02*
X546953D01*
X541047Y50791D02*
Y62209D01*
Y50791D02*
X546953D01*
Y62209D01*
X521047Y155291D02*
X526953D01*
Y166709D01*
X521047D02*
X526953D01*
X521047Y155291D02*
Y166709D01*
X261898Y79209D02*
X267803D01*
Y67791D02*
Y79209D01*
X261898Y67791D02*
X267803D01*
X261898D02*
Y79209D01*
X270898D02*
X276803D01*
Y67791D02*
Y79209D01*
X270898Y67791D02*
X276803D01*
X270898D02*
Y79209D01*
X264898Y40209D02*
X270803D01*
Y28791D02*
Y40209D01*
X264898Y28791D02*
X270803D01*
X264898D02*
Y40209D01*
X271898D02*
X277803D01*
Y28791D02*
Y40209D01*
X271898Y28791D02*
X277803D01*
X271898D02*
Y40209D01*
X370898Y79209D02*
X376803D01*
Y67791D02*
Y79209D01*
X370898Y67791D02*
X376803D01*
X370898D02*
Y79209D01*
X376898D02*
X382803D01*
Y67791D02*
Y79209D01*
X376898Y67791D02*
X382803D01*
X376898D02*
Y79209D01*
X379898Y39358D02*
X385803D01*
Y27941D02*
Y39358D01*
X379898Y27941D02*
X385803D01*
X379898D02*
Y39358D01*
X372898Y39209D02*
X378803D01*
Y27791D02*
Y39209D01*
X372898Y27791D02*
X378803D01*
X372898D02*
Y39209D01*
X296291Y27547D02*
Y33453D01*
Y27547D02*
X307709D01*
Y33453D01*
X296291D02*
X307709D01*
Y36547D02*
Y42453D01*
X296291D02*
X307709D01*
X296291Y36547D02*
Y42453D01*
Y36547D02*
X307709D01*
X296291Y18547D02*
Y24453D01*
Y18547D02*
X307709D01*
Y24453D01*
X296291D02*
X307709D01*
X245709Y27547D02*
Y33453D01*
X234291D02*
X245709D01*
X234291Y27547D02*
Y33453D01*
Y27547D02*
X245709D01*
X234291Y36547D02*
Y42453D01*
Y36547D02*
X245709D01*
Y42453D01*
X234291D02*
X245709D01*
X402291Y27547D02*
Y33453D01*
Y27547D02*
X413709D01*
Y33453D01*
X402291D02*
X413709D01*
X245709Y18547D02*
Y24453D01*
X234291D02*
X245709D01*
X234291Y18547D02*
Y24453D01*
Y18547D02*
X245709D01*
X413709Y36547D02*
Y42453D01*
X402291D02*
X413709D01*
X402291Y36547D02*
Y42453D01*
Y36547D02*
X413709D01*
X402291Y18547D02*
Y24453D01*
Y18547D02*
X413709D01*
Y24453D01*
X402291D02*
X413709D01*
X355709Y27547D02*
Y33453D01*
X344291D02*
X355709D01*
X344291Y27547D02*
Y33453D01*
Y27547D02*
X355709D01*
X344291Y36547D02*
Y42453D01*
Y36547D02*
X355709D01*
Y42453D01*
X344291D02*
X355709D01*
Y18547D02*
Y24453D01*
X344291D02*
X355709D01*
X344291Y18547D02*
Y24453D01*
Y18547D02*
X355709D01*
X402291Y66047D02*
Y71953D01*
Y66047D02*
X413709D01*
Y71953D01*
X402291D02*
X413709D01*
X296291Y66047D02*
Y71953D01*
Y66047D02*
X307709D01*
Y71953D01*
X296291D02*
X307709D01*
X413709Y75047D02*
Y80953D01*
X402291D02*
X413709D01*
X402291Y75047D02*
Y80953D01*
Y75047D02*
X413709D01*
X307709D02*
Y80953D01*
X296291D02*
X307709D01*
X296291Y75047D02*
Y80953D01*
Y75047D02*
X307709D01*
X402291Y57047D02*
Y62953D01*
Y57047D02*
X413709D01*
Y62953D01*
X402291D02*
X413709D01*
X296291Y57047D02*
Y62953D01*
Y57047D02*
X307709D01*
Y62953D01*
X296291D02*
X307709D01*
X355709Y66047D02*
Y71953D01*
X344291D02*
X355709D01*
X344291Y66047D02*
Y71953D01*
Y66047D02*
X355709D01*
X245709D02*
Y71953D01*
X234291D02*
X245709D01*
X234291Y66047D02*
Y71953D01*
Y66047D02*
X245709D01*
X344291Y75047D02*
Y80953D01*
Y75047D02*
X355709D01*
Y80953D01*
X344291D02*
X355709D01*
X234291Y75047D02*
Y80953D01*
Y75047D02*
X245709D01*
Y80953D01*
X234291D02*
X245709D01*
X355709Y57047D02*
Y62953D01*
X344291D02*
X355709D01*
X344291Y57047D02*
Y62953D01*
Y57047D02*
X355709D01*
X245709D02*
Y62953D01*
X234291D02*
X245709D01*
X234291Y57047D02*
Y62953D01*
Y57047D02*
X245709D01*
X157547Y39059D02*
X163453D01*
Y27642D02*
Y39059D01*
X157547Y27642D02*
X163453D01*
X157547D02*
Y39059D01*
X165547Y39209D02*
X171453D01*
Y27791D02*
Y39209D01*
X165547Y27791D02*
X171453D01*
X165547D02*
Y39209D01*
X171626Y18244D02*
Y48756D01*
Y18244D02*
X187374D01*
Y48756D01*
X171626D02*
X187374D01*
X169626Y55244D02*
Y85756D01*
Y55244D02*
X185374D01*
Y85756D01*
X169626D02*
X185374D01*
X158547Y78209D02*
X164453D01*
Y66791D02*
Y78209D01*
X158547Y66791D02*
X164453D01*
X158547D02*
Y78209D01*
X164547D02*
X170453D01*
Y66791D02*
Y78209D01*
X164547Y66791D02*
X170453D01*
X164547D02*
Y78209D01*
X202209Y46047D02*
Y51953D01*
X190791D02*
X202209D01*
X190791Y46047D02*
Y51953D01*
Y46047D02*
X202209D01*
X152209Y17547D02*
Y23453D01*
X140791D02*
X152209D01*
X140791Y17547D02*
Y23453D01*
Y17547D02*
X152209D01*
X202209Y37047D02*
Y42953D01*
X190791D02*
X202209D01*
X190791Y37047D02*
Y42953D01*
Y37047D02*
X202209D01*
X190791Y19047D02*
Y24953D01*
Y19047D02*
X202209D01*
Y24953D01*
X190791D02*
X202209D01*
Y28047D02*
Y33953D01*
X190791D02*
X202209D01*
X190791Y28047D02*
Y33953D01*
Y28047D02*
X202209D01*
X140791Y40547D02*
Y46453D01*
Y40547D02*
X152209D01*
Y46453D01*
X140791D02*
X152209D01*
X158098Y39587D02*
X182902D01*
Y25413D02*
Y39587D01*
X158098Y25413D02*
X182902D01*
X158098D02*
Y39587D01*
X152209Y55547D02*
Y61453D01*
X140791D02*
X152209D01*
X140791Y55547D02*
Y61453D01*
Y55547D02*
X152209D01*
X202209Y77047D02*
Y82953D01*
X190791D02*
X202209D01*
X190791Y77047D02*
Y82953D01*
Y77047D02*
X202209D01*
X190791Y59047D02*
Y64953D01*
Y59047D02*
X202209D01*
Y64953D01*
X190791D02*
X202209D01*
Y68047D02*
Y73953D01*
X190791D02*
X202209D01*
X190791Y68047D02*
Y73953D01*
Y68047D02*
X202209D01*
X140791Y81547D02*
Y87453D01*
Y81547D02*
X152209D01*
Y87453D01*
X140791D02*
X152209D01*
X158098Y79587D02*
X182902D01*
Y65413D02*
Y79587D01*
X158098Y65413D02*
X182902D01*
X158098D02*
Y79587D01*
X71626Y15244D02*
Y45756D01*
Y15244D02*
X87374D01*
Y45756D01*
X71626D02*
X87374D01*
X59547Y38209D02*
X65453D01*
Y26791D02*
Y38209D01*
X59547Y26791D02*
X65453D01*
X59547D02*
Y38209D01*
X66547D02*
X72453D01*
Y26791D02*
Y38209D01*
X66547Y26791D02*
X72453D01*
X66547D02*
Y38209D01*
X106209Y46047D02*
Y51953D01*
X94791D02*
X106209D01*
X94791Y46047D02*
Y51953D01*
Y46047D02*
X106209D01*
Y37047D02*
Y42953D01*
X94791D02*
X106209D01*
X94791Y37047D02*
Y42953D01*
Y37047D02*
X106209D01*
Y28047D02*
Y33953D01*
X94791D02*
X106209D01*
X94791Y28047D02*
Y33953D01*
Y28047D02*
X106209D01*
X94791Y19047D02*
Y24953D01*
Y19047D02*
X106209D01*
Y24953D01*
X94791D02*
X106209D01*
X74626Y56244D02*
Y86756D01*
Y56244D02*
X90374D01*
Y86756D01*
X74626D02*
X90374D01*
X69547Y79358D02*
X75453D01*
Y67941D02*
Y79358D01*
X69547Y67941D02*
X75453D01*
X69547D02*
Y79358D01*
X63547Y79209D02*
X69453D01*
Y67791D02*
Y79209D01*
X63547Y67791D02*
X69453D01*
X63547D02*
Y79209D01*
X62098Y79587D02*
X86902D01*
Y65413D02*
Y79587D01*
X62098Y65413D02*
X86902D01*
X62098D02*
Y79587D01*
Y39587D02*
X86902D01*
Y25413D02*
Y39587D01*
X62098Y25413D02*
X86902D01*
X62098D02*
Y39587D01*
X346598Y135937D02*
X371402D01*
Y121764D02*
Y135937D01*
X346598Y121764D02*
X371402D01*
X346598D02*
Y135937D01*
X230379Y158291D02*
X236284D01*
X230379D02*
Y169709D01*
X236284D01*
Y158291D02*
Y169709D01*
X242379Y158291D02*
X248284D01*
X242379D02*
Y169709D01*
X248284D01*
Y158291D02*
Y169709D01*
X200379Y158291D02*
X206284D01*
X200379D02*
Y169709D01*
X206284D01*
Y158291D02*
Y169709D01*
X194379Y158291D02*
X200284D01*
X194379D02*
Y169709D01*
X200284D01*
Y158291D02*
Y169709D01*
X188379Y158291D02*
X194284D01*
X188379D02*
Y169709D01*
X194284D01*
Y158291D02*
Y169709D01*
X236379Y158291D02*
X242284D01*
X236379D02*
Y169709D01*
X242284D01*
Y158291D02*
Y169709D01*
X212047Y207709D02*
X217953D01*
X212047Y196291D02*
Y207709D01*
Y196291D02*
X217953D01*
Y207709D01*
X359047Y122142D02*
Y133559D01*
Y122142D02*
X364953D01*
Y133559D01*
X359047D02*
X364953D01*
X366047Y122142D02*
Y133559D01*
Y122142D02*
X371953D01*
Y133559D01*
X366047D02*
X371953D01*
X343126Y143752D02*
X358874D01*
Y113240D02*
Y143752D01*
X343126Y113240D02*
X358874D01*
X343126D02*
Y143752D01*
X497291Y296953D02*
X508709D01*
Y291047D02*
Y296953D01*
X497291Y291047D02*
X508709D01*
X497291D02*
Y296953D01*
Y286953D02*
X508709D01*
Y281047D02*
Y286953D01*
X497291Y281047D02*
X508709D01*
X497291D02*
Y286953D01*
Y276953D02*
X508709D01*
Y271047D02*
Y276953D01*
X497291Y271047D02*
X508709D01*
X497291D02*
Y276953D01*
Y266953D02*
X508709D01*
Y261047D02*
Y266953D01*
X497291Y261047D02*
X508709D01*
X497291D02*
Y266953D01*
Y256953D02*
X508709D01*
Y251047D02*
Y256953D01*
X497291Y251047D02*
X508709D01*
X497291D02*
Y256953D01*
Y246953D02*
X508709D01*
Y241047D02*
Y246953D01*
X497291Y241047D02*
X508709D01*
X497291D02*
Y246953D01*
Y236953D02*
X508709D01*
Y231047D02*
Y236953D01*
X497291Y231047D02*
X508709D01*
X497291D02*
Y236953D01*
Y226953D02*
X508709D01*
Y221047D02*
Y226953D01*
X497291Y221047D02*
X508709D01*
X497291D02*
Y226953D01*
X224047Y196291D02*
Y207709D01*
X229953D01*
Y196291D02*
Y207709D01*
X224047Y196291D02*
X229953D01*
X230047D02*
Y207709D01*
X235953D01*
Y196291D02*
Y207709D01*
X230047Y196291D02*
X235953D01*
X211953D02*
Y207709D01*
X206047Y196291D02*
X211953D01*
X206047D02*
Y207709D01*
X211953D01*
X236047Y196291D02*
Y207709D01*
X241953D01*
Y196291D02*
Y207709D01*
X236047Y196291D02*
X241953D01*
X205953D02*
Y207709D01*
X200047Y196291D02*
X205953D01*
X200047D02*
Y207709D01*
X205953D01*
X54291Y187047D02*
X65709D01*
X54291D02*
Y192953D01*
X65709D01*
Y187047D02*
Y192953D01*
X253291Y183953D02*
X264709D01*
Y178047D02*
Y183953D01*
X253291Y178047D02*
X264709D01*
X253291D02*
Y183953D01*
X171791Y188953D02*
X183209D01*
Y183047D02*
Y188953D01*
X171791Y183047D02*
X183209D01*
X171791D02*
Y188953D01*
X54291Y177047D02*
X65709D01*
X54291D02*
Y182953D01*
X65709D01*
Y177047D02*
Y182953D01*
X253291Y177953D02*
X264709D01*
Y172047D02*
Y177953D01*
X253291Y172047D02*
X264709D01*
X253291D02*
Y177953D01*
X171791Y182953D02*
X183209D01*
Y177047D02*
Y182953D01*
X171791Y177047D02*
X183209D01*
X171791D02*
Y182953D01*
X84291Y167953D02*
X95709D01*
Y162047D02*
Y167953D01*
X84291Y162047D02*
X95709D01*
X84291D02*
Y167953D01*
X54291Y167047D02*
X65709D01*
X54291D02*
Y172953D01*
X65709D01*
Y167047D02*
Y172953D01*
X253291Y171953D02*
X264709D01*
Y166047D02*
Y171953D01*
X253291Y166047D02*
X264709D01*
X253291D02*
Y171953D01*
X171791Y176953D02*
X183209D01*
Y171047D02*
Y176953D01*
X171791Y171047D02*
X183209D01*
X171791D02*
Y176953D01*
X84291Y157953D02*
X95709D01*
Y152047D02*
Y157953D01*
X84291Y152047D02*
X95709D01*
X84291D02*
Y157953D01*
X54291Y157047D02*
X65709D01*
X54291D02*
Y162953D01*
X65709D01*
Y157047D02*
Y162953D01*
X253291Y165953D02*
X264709D01*
Y160047D02*
Y165953D01*
X253291Y160047D02*
X264709D01*
X253291D02*
Y165953D01*
X171791Y170953D02*
X183209D01*
Y165047D02*
Y170953D01*
X171791Y165047D02*
X183209D01*
X171791D02*
Y170953D01*
X84291Y147953D02*
X95709D01*
Y142047D02*
Y147953D01*
X84291Y142047D02*
X95709D01*
X84291D02*
Y147953D01*
X54291Y147047D02*
X65709D01*
X54291D02*
Y152953D01*
X65709D01*
Y147047D02*
Y152953D01*
X253291Y159953D02*
X264709D01*
Y154047D02*
Y159953D01*
X253291Y154047D02*
X264709D01*
X253291D02*
Y159953D01*
X171791Y164953D02*
X183209D01*
Y159047D02*
Y164953D01*
X171791Y159047D02*
X183209D01*
X171791D02*
Y164953D01*
X84291Y137953D02*
X95709D01*
Y132047D02*
Y137953D01*
X84291Y132047D02*
X95709D01*
X84291D02*
Y137953D01*
X54291Y137047D02*
X65709D01*
X54291D02*
Y142953D01*
X65709D01*
Y137047D02*
Y142953D01*
X54291Y127047D02*
X65709D01*
X54291D02*
Y132953D01*
X65709D01*
Y127047D02*
Y132953D01*
X54291Y117047D02*
X65709D01*
X54291D02*
Y122953D01*
X65709D01*
Y117047D02*
Y122953D01*
X253291Y149953D02*
X264709D01*
Y144047D02*
Y149953D01*
X253291Y144047D02*
X264709D01*
X253291D02*
Y149953D01*
X244953Y115291D02*
Y126709D01*
X239047Y115291D02*
X244953D01*
X239047D02*
Y126709D01*
X244953D01*
X171791Y158953D02*
X183209D01*
Y153047D02*
Y158953D01*
X171791Y153047D02*
X183209D01*
X171791D02*
Y158953D01*
X238953Y115291D02*
Y126709D01*
X233047Y115291D02*
X238953D01*
X233047D02*
Y126709D01*
X238953D01*
X171791Y152953D02*
X183209D01*
Y147047D02*
Y152953D01*
X171791Y147047D02*
X183209D01*
X171791D02*
Y152953D01*
X232953Y115291D02*
Y126709D01*
X227047Y115291D02*
X232953D01*
X227047D02*
Y126709D01*
X232953D01*
X171791Y146953D02*
X183209D01*
Y141047D02*
Y146953D01*
X171791Y141047D02*
X183209D01*
X171791D02*
Y146953D01*
X226953Y115291D02*
Y126709D01*
X221047Y115291D02*
X226953D01*
X221047D02*
Y126709D01*
X226953D01*
X203047Y115291D02*
Y126709D01*
X208953D01*
Y115291D02*
Y126709D01*
X203047Y115291D02*
X208953D01*
X220953D02*
Y126709D01*
X215047Y115291D02*
X220953D01*
X215047D02*
Y126709D01*
X220953D01*
X214953Y115291D02*
Y126709D01*
X209047Y115291D02*
X214953D01*
X209047D02*
Y126709D01*
X214953D01*
X44791Y86453D02*
X56209D01*
Y80547D02*
Y86453D01*
X44791Y80547D02*
X56209D01*
X44791D02*
Y86453D01*
X94791Y64953D02*
X106209D01*
Y59047D02*
Y64953D01*
X94791Y59047D02*
X106209D01*
X94791D02*
Y64953D01*
Y68047D02*
X106209D01*
X94791D02*
Y73953D01*
X106209D01*
Y68047D02*
Y73953D01*
X44791Y55547D02*
X56209D01*
X44791D02*
Y61453D01*
X56209D01*
Y55547D02*
Y61453D01*
X94791Y77047D02*
X106209D01*
X94791D02*
Y82953D01*
X106209D01*
Y77047D02*
Y82953D01*
X94791Y86047D02*
X106209D01*
X94791D02*
Y91953D01*
X106209D01*
Y86047D02*
Y91953D01*
X44791Y46453D02*
X56209D01*
Y40547D02*
Y46453D01*
X44791Y40547D02*
X56209D01*
X44791D02*
Y46453D01*
Y17547D02*
X56209D01*
X44791D02*
Y23453D01*
X56209D01*
Y17547D02*
Y23453D01*
X413047Y153291D02*
Y164709D01*
X418953D01*
Y153291D02*
Y164709D01*
X413047Y153291D02*
X418953D01*
X399953D02*
Y164709D01*
X394047Y153291D02*
X399953D01*
X394047D02*
Y164709D01*
X399953D01*
X418953Y113291D02*
Y124709D01*
X413047Y113291D02*
X418953D01*
X413047D02*
Y124709D01*
X418953D01*
X394047Y113291D02*
Y124709D01*
X399953D01*
Y113291D02*
Y124709D01*
X394047Y113291D02*
X399953D01*
M02*
