G04*
G04 #@! TF.GenerationSoftware,Altium Limited,Altium Designer,22.3.1 (43)*
G04*
G04 Layer_Physical_Order=4*
G04 Layer_Color=16711680*
%FSLAX25Y25*%
%MOIN*%
G70*
G04*
G04 #@! TF.SameCoordinates,D44AF7EC-015F-415D-BC9C-BA0083E1B9C0*
G04*
G04*
G04 #@! TF.FilePolarity,Positive*
G04*
G01*
G75*
%ADD11C,0.01000*%
%ADD18R,0.03740X0.03150*%
%ADD41R,0.05906X0.05906*%
%ADD42C,0.05906*%
%ADD43C,0.06000*%
%ADD44R,0.06000X0.06000*%
%ADD45R,0.05906X0.05906*%
%ADD46C,0.20000*%
%ADD47C,0.05000*%
%ADD55R,0.08858X0.09252*%
G36*
X560000D02*
X290648D01*
X290599Y500D01*
X290890Y558D01*
X291217Y777D01*
X291342Y704D01*
X292105Y500D01*
X292895D01*
X293658Y704D01*
X294342Y1099D01*
X294901Y1658D01*
X295296Y2342D01*
X295500Y3105D01*
Y3895D01*
X295296Y4658D01*
X294901Y5342D01*
X294762Y5480D01*
X294969Y5980D01*
X542367D01*
X542404Y5842D01*
X542799Y5158D01*
X543358Y4599D01*
X544042Y4204D01*
X544805Y4000D01*
X545595D01*
X546358Y4204D01*
X547042Y4599D01*
X547601Y5158D01*
X547996Y5842D01*
X548200Y6605D01*
Y7395D01*
X547996Y8158D01*
X547601Y8842D01*
X547042Y9401D01*
X546358Y9796D01*
X545595Y10000D01*
X544805D01*
X544380Y9886D01*
X544200Y10356D01*
X545503Y11020D01*
X546840Y11991D01*
X548009Y13160D01*
X548980Y14497D01*
X549731Y15969D01*
X550242Y17541D01*
X550500Y19174D01*
Y20826D01*
X550242Y22459D01*
X549731Y24031D01*
X548980Y25503D01*
X548009Y26840D01*
X546840Y28009D01*
X545503Y28980D01*
X544031Y29731D01*
X542459Y30242D01*
X540826Y30500D01*
X539174D01*
X537541Y30242D01*
X535969Y29731D01*
X534497Y28980D01*
X533160Y28009D01*
X531991Y26840D01*
X531020Y25503D01*
X530269Y24031D01*
X529759Y22459D01*
X529500Y20826D01*
Y19174D01*
X529759Y17541D01*
X530269Y15969D01*
X531020Y14497D01*
X531991Y13160D01*
X533160Y11991D01*
X534497Y11020D01*
X535969Y10269D01*
X537541Y9759D01*
X539174Y9500D01*
X540826D01*
X542459Y9759D01*
X543646Y10144D01*
X543851Y9685D01*
X543358Y9401D01*
X542799Y8842D01*
X542404Y8158D01*
X542367Y8020D01*
X512215D01*
X512023Y8482D01*
X528221Y24679D01*
X528442Y25010D01*
X528520Y25400D01*
Y27167D01*
X528658Y27204D01*
X529342Y27599D01*
X529901Y28158D01*
X530296Y28842D01*
X530500Y29605D01*
Y30395D01*
X530296Y31158D01*
X529901Y31842D01*
X529342Y32401D01*
X528658Y32796D01*
X527895Y33000D01*
X527105D01*
X526342Y32796D01*
X525658Y32401D01*
X525099Y31842D01*
X524704Y31158D01*
X524500Y30395D01*
Y29605D01*
X524704Y28842D01*
X525099Y28158D01*
X525658Y27599D01*
X526342Y27204D01*
X526480Y27167D01*
Y25822D01*
X510178Y9520D01*
X287452D01*
X287062Y9442D01*
X286731Y9221D01*
X283442Y5932D01*
X283313Y5964D01*
X283160Y6518D01*
X289222Y12580D01*
X470100D01*
X470490Y12658D01*
X470821Y12879D01*
X489818Y31876D01*
X489942Y31804D01*
X490705Y31600D01*
X491495D01*
X492258Y31804D01*
X492942Y32199D01*
X493501Y32758D01*
X493896Y33442D01*
X494100Y34205D01*
Y34995D01*
X493896Y35758D01*
X493501Y36442D01*
X492942Y37001D01*
X492258Y37396D01*
X491495Y37600D01*
X490705D01*
X489942Y37396D01*
X489258Y37001D01*
X488699Y36442D01*
X488304Y35758D01*
X488100Y34995D01*
Y34205D01*
X488304Y33442D01*
X488376Y33318D01*
X469678Y14620D01*
X369907D01*
X369841Y15120D01*
X370158Y15204D01*
X370842Y15599D01*
X370957Y15715D01*
X371192Y15558D01*
X371582Y15480D01*
X373850D01*
X374241Y15558D01*
X374571Y15779D01*
X376571Y17779D01*
X376792Y18110D01*
X376870Y18500D01*
Y28276D01*
X378221D01*
Y29480D01*
X380480D01*
Y28425D01*
X385221D01*
X385221Y32575D01*
X385718Y32580D01*
X424900D01*
X425290Y32658D01*
X425621Y32879D01*
X431222Y38480D01*
X549667D01*
X549704Y38342D01*
X550099Y37658D01*
X550658Y37099D01*
X551342Y36704D01*
X552105Y36500D01*
X552895D01*
X553658Y36704D01*
X554342Y37099D01*
X554901Y37658D01*
X555296Y38342D01*
X555500Y39105D01*
Y39895D01*
X555296Y40658D01*
X554901Y41342D01*
X554342Y41901D01*
X553658Y42296D01*
X552895Y42500D01*
X552105D01*
X551342Y42296D01*
X550658Y41901D01*
X550099Y41342D01*
X549704Y40658D01*
X549667Y40520D01*
X537460D01*
X537261Y41020D01*
X539218Y42976D01*
X539342Y42904D01*
X540105Y42700D01*
X540895D01*
X541658Y42904D01*
X542342Y43299D01*
X542901Y43858D01*
X543296Y44542D01*
X543500Y45305D01*
Y46095D01*
X543296Y46858D01*
X542901Y47542D01*
X542342Y48101D01*
X541658Y48496D01*
X540895Y48700D01*
X540105D01*
X539342Y48496D01*
X538658Y48101D01*
X538099Y47542D01*
X537704Y46858D01*
X537500Y46095D01*
Y45305D01*
X537704Y44542D01*
X537776Y44418D01*
X535978Y42620D01*
X517569D01*
X517361Y43120D01*
X524721Y50479D01*
X524942Y50810D01*
X525020Y51200D01*
Y64000D01*
X524942Y64390D01*
X524721Y64721D01*
X523942Y65500D01*
X524149Y66000D01*
X524395D01*
X525158Y66204D01*
X525842Y66599D01*
X526401Y67158D01*
X526796Y67842D01*
X527000Y68605D01*
Y69395D01*
X526796Y70158D01*
X526401Y70842D01*
X525842Y71401D01*
X525158Y71796D01*
X525020Y71833D01*
Y106150D01*
X524942Y106540D01*
X524721Y106871D01*
X520020Y111572D01*
Y125727D01*
X522292Y127999D01*
X522667Y127782D01*
X523545Y127547D01*
X524455D01*
X525333Y127782D01*
X526120Y128237D01*
X526763Y128880D01*
X527217Y129667D01*
X527453Y130545D01*
Y131455D01*
X527217Y132333D01*
X526763Y133120D01*
X526120Y133763D01*
X525333Y134218D01*
X524455Y134453D01*
X523545D01*
X522667Y134218D01*
X521880Y133763D01*
X521237Y133120D01*
X520783Y132333D01*
X520547Y131455D01*
Y130545D01*
X520783Y129667D01*
X520890Y129481D01*
X518279Y126871D01*
X518058Y126540D01*
X517980Y126150D01*
Y111150D01*
X518058Y110759D01*
X518279Y110429D01*
X522980Y105727D01*
Y71833D01*
X522842Y71796D01*
X522158Y71401D01*
X521599Y70842D01*
X521204Y70158D01*
X521000Y69395D01*
Y69149D01*
X520500Y68942D01*
X520020Y69422D01*
Y93518D01*
X520158Y93555D01*
X520842Y93950D01*
X521401Y94508D01*
X521796Y95192D01*
X522000Y95955D01*
Y96745D01*
X521796Y97508D01*
X521401Y98192D01*
X520842Y98751D01*
X520158Y99146D01*
X519395Y99350D01*
X518605D01*
X517842Y99146D01*
X517158Y98751D01*
X516599Y98192D01*
X516204Y97508D01*
X516000Y96745D01*
Y95955D01*
X516204Y95192D01*
X516599Y94508D01*
X517158Y93950D01*
X517842Y93555D01*
X517980Y93518D01*
Y69000D01*
X518058Y68610D01*
X518279Y68279D01*
X522980Y63578D01*
Y60315D01*
X522518Y60123D01*
X520921Y61721D01*
X520590Y61942D01*
X520200Y62020D01*
X511520D01*
Y66531D01*
X512020Y66738D01*
X512158Y66599D01*
X512842Y66204D01*
X513605Y66000D01*
X514395D01*
X515158Y66204D01*
X515842Y66599D01*
X516401Y67158D01*
X516796Y67842D01*
X517000Y68605D01*
Y69395D01*
X516796Y70158D01*
X516401Y70842D01*
X515842Y71401D01*
X515158Y71796D01*
X515020Y71833D01*
Y106150D01*
X514942Y106540D01*
X514721Y106871D01*
X510020Y111572D01*
Y126727D01*
X511705Y128412D01*
X511880Y128237D01*
X512667Y127782D01*
X513545Y127547D01*
X514455D01*
X515333Y127782D01*
X516120Y128237D01*
X516763Y128880D01*
X517217Y129667D01*
X517453Y130545D01*
Y131455D01*
X517217Y132333D01*
X516763Y133120D01*
X516120Y133763D01*
X515333Y134218D01*
X514455Y134453D01*
X513545D01*
X512667Y134218D01*
X511880Y133763D01*
X511237Y133120D01*
X510782Y132333D01*
X510547Y131455D01*
Y130545D01*
X510633Y130225D01*
X508279Y127871D01*
X508058Y127540D01*
X507980Y127150D01*
Y111150D01*
X508058Y110759D01*
X508279Y110429D01*
X512980Y105727D01*
Y93669D01*
X512480Y93462D01*
X512342Y93601D01*
X511658Y93996D01*
X510895Y94200D01*
X510105D01*
X509342Y93996D01*
X508658Y93601D01*
X508099Y93042D01*
X507704Y92358D01*
X507500Y91595D01*
Y90805D01*
X507704Y90042D01*
X508099Y89358D01*
X508658Y88799D01*
X509342Y88404D01*
X509480Y88367D01*
Y82584D01*
X509558Y82194D01*
X509779Y81863D01*
X511480Y80162D01*
Y78338D01*
X510980Y78204D01*
X510901Y78342D01*
X510342Y78901D01*
X509658Y79296D01*
X508895Y79500D01*
X508105D01*
X507342Y79296D01*
X506658Y78901D01*
X506099Y78342D01*
X505704Y77658D01*
X505520Y76968D01*
X505020Y77034D01*
Y106150D01*
X504942Y106540D01*
X504721Y106871D01*
X500020Y111572D01*
Y125727D01*
X502292Y127999D01*
X502667Y127782D01*
X503545Y127547D01*
X504455D01*
X505333Y127782D01*
X506120Y128237D01*
X506763Y128880D01*
X507218Y129667D01*
X507453Y130545D01*
Y131455D01*
X507218Y132333D01*
X506763Y133120D01*
X506120Y133763D01*
X505333Y134218D01*
X504455Y134453D01*
X503545D01*
X502667Y134218D01*
X501880Y133763D01*
X501237Y133120D01*
X500782Y132333D01*
X500547Y131455D01*
Y130545D01*
X500782Y129667D01*
X500890Y129481D01*
X498279Y126871D01*
X498058Y126540D01*
X497980Y126150D01*
Y111150D01*
X498058Y110759D01*
X498279Y110429D01*
X502980Y105727D01*
Y71833D01*
X502842Y71796D01*
X502158Y71401D01*
X501599Y70842D01*
X501204Y70158D01*
X501000Y69395D01*
Y68605D01*
X501204Y67842D01*
X501599Y67158D01*
X502158Y66599D01*
X502842Y66204D01*
X503605Y66000D01*
X504395D01*
X505158Y66204D01*
X505842Y66599D01*
X506401Y67158D01*
X506796Y67842D01*
X506980Y68532D01*
X507480Y68466D01*
Y63694D01*
X501306Y57520D01*
X454622D01*
X420301Y91841D01*
X420492Y92303D01*
X449455D01*
X462976Y78782D01*
X462904Y78658D01*
X462700Y77895D01*
Y77105D01*
X462904Y76342D01*
X463299Y75658D01*
X463858Y75099D01*
X464542Y74704D01*
X465305Y74500D01*
X466095D01*
X466858Y74704D01*
X467542Y75099D01*
X468101Y75658D01*
X468380Y76143D01*
X468880Y76009D01*
Y67200D01*
X468958Y66810D01*
X469179Y66479D01*
X472479Y63179D01*
X472810Y62958D01*
X473200Y62880D01*
X485700D01*
X486090Y62958D01*
X486421Y63179D01*
X490794Y67552D01*
X491419Y67470D01*
X491599Y67158D01*
X492158Y66599D01*
X492842Y66204D01*
X493605Y66000D01*
X494395D01*
X495158Y66204D01*
X495842Y66599D01*
X496401Y67158D01*
X496796Y67842D01*
X497000Y68605D01*
Y69395D01*
X496796Y70158D01*
X496401Y70842D01*
X495842Y71401D01*
X495158Y71796D01*
X495020Y71833D01*
Y107150D01*
X494942Y107540D01*
X494721Y107871D01*
X490020Y112572D01*
Y125727D01*
X492292Y127999D01*
X492667Y127782D01*
X493545Y127547D01*
X494455D01*
X495333Y127782D01*
X496120Y128237D01*
X496763Y128880D01*
X497218Y129667D01*
X497453Y130545D01*
Y131455D01*
X497218Y132333D01*
X496763Y133120D01*
X496120Y133763D01*
X495333Y134218D01*
X494455Y134453D01*
X493545D01*
X492667Y134218D01*
X491880Y133763D01*
X491237Y133120D01*
X490782Y132333D01*
X490547Y131455D01*
Y130545D01*
X490782Y129667D01*
X490890Y129481D01*
X488279Y126871D01*
X488058Y126540D01*
X487980Y126150D01*
Y112150D01*
X488058Y111759D01*
X488279Y111429D01*
X492980Y106727D01*
Y96269D01*
X492480Y96062D01*
X492342Y96201D01*
X491658Y96596D01*
X490895Y96800D01*
X490105D01*
X489342Y96596D01*
X488658Y96201D01*
X488099Y95642D01*
X487704Y94958D01*
X487500Y94195D01*
Y93405D01*
X487704Y92642D01*
X488099Y91958D01*
X488658Y91399D01*
X489342Y91004D01*
X489480Y90967D01*
Y69122D01*
X485278Y64920D01*
X473622D01*
X472860Y65682D01*
X473119Y66130D01*
X473605Y66000D01*
X474395D01*
X475158Y66204D01*
X475842Y66599D01*
X476401Y67158D01*
X476796Y67842D01*
X477000Y68605D01*
Y69395D01*
X476796Y70158D01*
X476401Y70842D01*
X475842Y71401D01*
X475158Y71796D01*
X475020Y71833D01*
Y105000D01*
X474942Y105390D01*
X474721Y105721D01*
X469020Y111422D01*
Y126578D01*
X471279Y128838D01*
X471880Y128237D01*
X472667Y127782D01*
X473545Y127547D01*
X474455D01*
X475333Y127782D01*
X476120Y128237D01*
X476763Y128880D01*
X477217Y129667D01*
X477453Y130545D01*
Y131455D01*
X477217Y132333D01*
X476763Y133120D01*
X476120Y133763D01*
X475333Y134218D01*
X474455Y134453D01*
X473545D01*
X472667Y134218D01*
X471880Y133763D01*
X471237Y133120D01*
X470783Y132333D01*
X470547Y131455D01*
Y130970D01*
X470490Y130932D01*
X467279Y127721D01*
X467058Y127390D01*
X466980Y127000D01*
Y111000D01*
X467058Y110610D01*
X467279Y110279D01*
X472980Y104578D01*
Y71833D01*
X472842Y71796D01*
X472158Y71401D01*
X471599Y70842D01*
X471420Y70531D01*
X470920Y70665D01*
Y89600D01*
X470842Y89990D01*
X470621Y90321D01*
X465221Y95721D01*
X464890Y95942D01*
X464500Y96020D01*
X460215D01*
X460023Y96482D01*
X462721Y99179D01*
X462942Y99510D01*
X463020Y99900D01*
Y100667D01*
X463158Y100704D01*
X463842Y101099D01*
X464401Y101658D01*
X464796Y102342D01*
X465000Y103105D01*
Y103895D01*
X464796Y104658D01*
X464401Y105342D01*
X463842Y105901D01*
X463158Y106296D01*
X462395Y106500D01*
X461605D01*
X460842Y106296D01*
X460158Y105901D01*
X459599Y105342D01*
X459204Y104658D01*
X459000Y103895D01*
Y103105D01*
X459204Y102342D01*
X459599Y101658D01*
X460158Y101099D01*
X460781Y100740D01*
X460843Y100451D01*
X460844Y100186D01*
X458178Y97520D01*
X451918D01*
X451869Y98020D01*
X452062Y98058D01*
X452392Y98279D01*
X452827Y98713D01*
X452842Y98704D01*
X453605Y98500D01*
X454395D01*
X455158Y98704D01*
X455842Y99099D01*
X456401Y99658D01*
X456796Y100342D01*
X457000Y101105D01*
Y101895D01*
X456796Y102658D01*
X456401Y103342D01*
X455842Y103901D01*
X455158Y104296D01*
X454395Y104500D01*
X453605D01*
X452842Y104296D01*
X452158Y103901D01*
X451599Y103342D01*
X451204Y102658D01*
X451000Y101895D01*
Y101105D01*
X451157Y100520D01*
X450920Y100108D01*
X450813Y100020D01*
X424515D01*
X424323Y100481D01*
X458118Y134276D01*
X458242Y134204D01*
X459005Y134000D01*
X459795D01*
X460558Y134204D01*
X461242Y134599D01*
X461801Y135158D01*
X462196Y135842D01*
X462400Y136605D01*
Y137395D01*
X462196Y138158D01*
X461801Y138842D01*
X461242Y139401D01*
X460558Y139796D01*
X459795Y140000D01*
X459005D01*
X458242Y139796D01*
X457558Y139401D01*
X456999Y138842D01*
X456604Y138158D01*
X456400Y137395D01*
Y136605D01*
X456604Y135842D01*
X456676Y135718D01*
X422478Y101520D01*
X360922D01*
X352361Y110080D01*
X352560Y110580D01*
X357678D01*
X364423Y103835D01*
X364754Y103614D01*
X365144Y103536D01*
X375914D01*
X376304Y103614D01*
X376635Y103835D01*
X377221Y104421D01*
X377442Y104752D01*
X377520Y105142D01*
Y121978D01*
X379022Y123480D01*
X414300D01*
X414690Y123558D01*
X415021Y123779D01*
X426722Y135480D01*
X446500D01*
X446789Y135538D01*
X447041Y135221D01*
X447084Y135126D01*
X437582Y125624D01*
X437458Y125696D01*
X436695Y125900D01*
X435905D01*
X435142Y125696D01*
X434458Y125301D01*
X433899Y124742D01*
X433504Y124058D01*
X433300Y123295D01*
Y122505D01*
X433504Y121742D01*
X433899Y121058D01*
X434458Y120499D01*
X435142Y120104D01*
X435905Y119900D01*
X436695D01*
X437458Y120104D01*
X438142Y120499D01*
X438701Y121058D01*
X439096Y121742D01*
X439300Y122505D01*
Y123295D01*
X439096Y124058D01*
X439024Y124182D01*
X464222Y149380D01*
X525167D01*
X525204Y149242D01*
X525599Y148558D01*
X526158Y147999D01*
X526842Y147604D01*
X527605Y147400D01*
X528395D01*
X529158Y147604D01*
X529842Y147999D01*
X530401Y148558D01*
X530796Y149242D01*
X531000Y150005D01*
Y150795D01*
X530796Y151558D01*
X530401Y152242D01*
X529842Y152801D01*
X529158Y153196D01*
X528395Y153400D01*
X527605D01*
X526842Y153196D01*
X526158Y152801D01*
X525599Y152242D01*
X525204Y151558D01*
X525167Y151420D01*
X463800D01*
X463511Y151362D01*
X463259Y151679D01*
X463216Y151775D01*
X471222Y159780D01*
X522600D01*
X522990Y159858D01*
X523321Y160079D01*
X530468Y167226D01*
X530592Y167154D01*
X531355Y166950D01*
X532145D01*
X532908Y167154D01*
X533592Y167549D01*
X534151Y168108D01*
X534546Y168792D01*
X534750Y169555D01*
Y170345D01*
X534546Y171108D01*
X534151Y171792D01*
X533592Y172351D01*
X532908Y172746D01*
X532145Y172950D01*
X531355D01*
X530592Y172746D01*
X529908Y172351D01*
X529349Y171792D01*
X528954Y171108D01*
X528750Y170345D01*
Y169555D01*
X528954Y168792D01*
X529026Y168668D01*
X522178Y161820D01*
X470800D01*
X470410Y161742D01*
X470079Y161521D01*
X446078Y137520D01*
X426300D01*
X425910Y137442D01*
X425579Y137221D01*
X413878Y125520D01*
X378600D01*
X378210Y125442D01*
X377879Y125221D01*
X375779Y123121D01*
X375558Y122790D01*
X375480Y122400D01*
Y105576D01*
X365566D01*
X358821Y112321D01*
X358490Y112542D01*
X358100Y112620D01*
X305333D01*
X305296Y112758D01*
X304901Y113442D01*
X304342Y114001D01*
X303658Y114396D01*
X302895Y114600D01*
X302105D01*
X301342Y114396D01*
X300658Y114001D01*
X300099Y113442D01*
X299704Y112758D01*
X299500Y111995D01*
Y111205D01*
X299704Y110442D01*
X300099Y109758D01*
X300658Y109199D01*
X301342Y108804D01*
X302105Y108600D01*
X302895D01*
X303658Y108804D01*
X304342Y109199D01*
X304901Y109758D01*
X305296Y110442D01*
X305333Y110580D01*
X309589D01*
X309788Y110080D01*
X308779Y109071D01*
X308558Y108741D01*
X308480Y108350D01*
Y106333D01*
X308342Y106296D01*
X307658Y105901D01*
X307099Y105342D01*
X306704Y104658D01*
X306500Y103895D01*
Y103105D01*
X306704Y102342D01*
X307099Y101658D01*
X307658Y101099D01*
X308342Y100704D01*
X309105Y100500D01*
X309895D01*
X310658Y100704D01*
X311342Y101099D01*
X311901Y101658D01*
X312296Y102342D01*
X312500Y103105D01*
Y103895D01*
X312296Y104658D01*
X311901Y105342D01*
X311342Y105901D01*
X310658Y106296D01*
X310520Y106333D01*
Y107928D01*
X311072Y108480D01*
X351078D01*
X359077Y100481D01*
X358885Y100020D01*
X353408D01*
X351785Y101643D01*
X351801Y101658D01*
X352196Y102342D01*
X352400Y103105D01*
Y103895D01*
X352196Y104658D01*
X351801Y105342D01*
X351242Y105901D01*
X350558Y106296D01*
X349795Y106500D01*
X349005D01*
X348242Y106296D01*
X347558Y105901D01*
X346999Y105342D01*
X346604Y104658D01*
X346400Y103895D01*
Y103105D01*
X346604Y102342D01*
X346999Y101658D01*
X347558Y101099D01*
X348242Y100704D01*
X349005Y100500D01*
X349795D01*
X349991Y100553D01*
X352265Y98279D01*
X352596Y98058D01*
X352789Y98020D01*
X352740Y97520D01*
X249433D01*
X249396Y97658D01*
X249001Y98342D01*
X248442Y98901D01*
X247758Y99296D01*
X247880Y99780D01*
X280500D01*
X280890Y99858D01*
X281221Y100079D01*
X323922Y142780D01*
X346071D01*
Y133016D01*
X350229D01*
Y131138D01*
X350161Y131070D01*
X338522D01*
X338381Y131594D01*
X337986Y132278D01*
X337428Y132837D01*
X336744Y133232D01*
X335981Y133436D01*
X335191D01*
X334428Y133232D01*
X333744Y132837D01*
X333185Y132278D01*
X332790Y131594D01*
X332586Y130831D01*
Y130041D01*
X332790Y129278D01*
X333185Y128594D01*
X333744Y128036D01*
X334428Y127641D01*
X335191Y127436D01*
X335981D01*
X336744Y127641D01*
X337428Y128036D01*
X337986Y128594D01*
X338239Y129031D01*
X350584D01*
X350974Y129108D01*
X351305Y129329D01*
X351937Y129962D01*
X359630D01*
Y128925D01*
X364370D01*
Y129980D01*
X366630D01*
Y128925D01*
X371370D01*
Y133075D01*
X366630D01*
Y132020D01*
X364370D01*
Y133075D01*
X359630D01*
Y132001D01*
X352268D01*
Y133016D01*
X355929D01*
Y143268D01*
X355929Y143268D01*
X355820Y143768D01*
X356004Y144000D01*
X356395D01*
X357158Y144204D01*
X357842Y144599D01*
X358401Y145158D01*
X358796Y145842D01*
X359000Y146605D01*
Y147395D01*
X358796Y148158D01*
X358401Y148842D01*
X357842Y149401D01*
X357704Y149480D01*
X357838Y149980D01*
X359578D01*
X362276Y147282D01*
X362204Y147158D01*
X362000Y146395D01*
Y145605D01*
X362204Y144842D01*
X362599Y144158D01*
X363158Y143599D01*
X363842Y143204D01*
X364605Y143000D01*
X365395D01*
X366158Y143204D01*
X366842Y143599D01*
X367401Y144158D01*
X367796Y144842D01*
X368000Y145605D01*
Y146395D01*
X367796Y147158D01*
X367401Y147842D01*
X366842Y148401D01*
X366158Y148796D01*
X365395Y149000D01*
X364605D01*
X363842Y148796D01*
X363718Y148724D01*
X361423Y151019D01*
X361615Y151480D01*
X450667D01*
X450704Y151342D01*
X451099Y150658D01*
X451658Y150099D01*
X452342Y149704D01*
X453105Y149500D01*
X453895D01*
X454658Y149704D01*
X455342Y150099D01*
X455901Y150658D01*
X456296Y151342D01*
X456500Y152105D01*
Y152895D01*
X456296Y153658D01*
X455901Y154342D01*
X455342Y154901D01*
X454658Y155296D01*
X453895Y155500D01*
X453105D01*
X452342Y155296D01*
X451658Y154901D01*
X451099Y154342D01*
X450704Y153658D01*
X450667Y153520D01*
X424534D01*
X424468Y154020D01*
X425158Y154204D01*
X425842Y154599D01*
X426401Y155158D01*
X426796Y155842D01*
X427000Y156605D01*
Y157395D01*
X426796Y158158D01*
X426687Y158345D01*
X440122Y171780D01*
X521167D01*
X521204Y171642D01*
X521599Y170958D01*
X522158Y170399D01*
X522842Y170004D01*
X523605Y169800D01*
X524395D01*
X525158Y170004D01*
X525842Y170399D01*
X526401Y170958D01*
X526796Y171642D01*
X527000Y172405D01*
Y173195D01*
X526796Y173958D01*
X526401Y174642D01*
X525842Y175201D01*
X525158Y175596D01*
X524395Y175800D01*
X523605D01*
X522842Y175596D01*
X522158Y175201D01*
X521599Y174642D01*
X521204Y173958D01*
X521167Y173820D01*
X439700D01*
X439310Y173742D01*
X438979Y173521D01*
X425219Y159760D01*
X425158Y159796D01*
X424395Y160000D01*
X423605D01*
X422842Y159796D01*
X422158Y159401D01*
X421599Y158842D01*
X421204Y158158D01*
X421000Y157395D01*
Y156605D01*
X421204Y155842D01*
X421599Y155158D01*
X422158Y154599D01*
X422842Y154204D01*
X423532Y154020D01*
X423466Y153520D01*
X324387D01*
X323997Y153442D01*
X323666Y153221D01*
X278064Y107620D01*
X252000D01*
Y108395D01*
X251796Y109158D01*
X251401Y109842D01*
X250842Y110401D01*
X250158Y110796D01*
X249395Y111000D01*
X248605D01*
X247842Y110796D01*
X247158Y110401D01*
X246599Y109842D01*
X246204Y109158D01*
X246000Y108395D01*
Y107605D01*
X246204Y106842D01*
X246599Y106158D01*
X247158Y105599D01*
X247842Y105204D01*
X248605Y105000D01*
X249395D01*
X250158Y105204D01*
X250842Y105599D01*
X250977Y105735D01*
X251092Y105658D01*
X251482Y105580D01*
X278487D01*
X278877Y105658D01*
X279208Y105879D01*
X324482Y151154D01*
X324503Y151149D01*
X324668Y150607D01*
X277980Y103920D01*
X240644D01*
X237442Y107121D01*
X237111Y107342D01*
X236922Y107380D01*
X236905Y107893D01*
X237508Y108054D01*
X238192Y108449D01*
X238751Y109008D01*
X239146Y109692D01*
X239350Y110455D01*
Y111245D01*
X239146Y112008D01*
X239074Y112132D01*
X271222Y144280D01*
X305767D01*
X305804Y144142D01*
X306199Y143458D01*
X306758Y142899D01*
X307442Y142504D01*
X308205Y142300D01*
X308995D01*
X309758Y142504D01*
X310442Y142899D01*
X311001Y143458D01*
X311396Y144142D01*
X311600Y144905D01*
Y145695D01*
X311396Y146458D01*
X311001Y147142D01*
X310442Y147701D01*
X309758Y148096D01*
X308995Y148300D01*
X308205D01*
X307442Y148096D01*
X306758Y147701D01*
X306199Y147142D01*
X305804Y146458D01*
X305767Y146320D01*
X270800D01*
X270410Y146242D01*
X270079Y146021D01*
X237632Y113574D01*
X237508Y113646D01*
X236745Y113850D01*
X235955D01*
X235192Y113646D01*
X234508Y113251D01*
X233949Y112692D01*
X233554Y112008D01*
X233350Y111245D01*
Y110455D01*
X233554Y109692D01*
X233949Y109008D01*
X234508Y108449D01*
X235192Y108054D01*
X235695Y107920D01*
X235630Y107420D01*
X218422D01*
X217924Y107918D01*
X217996Y108042D01*
X218200Y108805D01*
Y109595D01*
X217996Y110358D01*
X217601Y111042D01*
X217042Y111601D01*
X216358Y111996D01*
X215595Y112200D01*
X214805D01*
X214042Y111996D01*
X213918Y111924D01*
X207324Y118518D01*
X207515Y118980D01*
X214578D01*
X220055Y113503D01*
X220099Y112842D01*
X219704Y112158D01*
X219500Y111395D01*
Y110605D01*
X219704Y109842D01*
X220099Y109158D01*
X220658Y108599D01*
X221342Y108204D01*
X222105Y108000D01*
X222895D01*
X223658Y108204D01*
X224342Y108599D01*
X224901Y109158D01*
X225296Y109842D01*
X225500Y110605D01*
Y111395D01*
X225296Y112158D01*
X224901Y112842D01*
X224342Y113401D01*
X223658Y113796D01*
X222895Y114000D01*
X222343D01*
X222143Y114299D01*
X215721Y120721D01*
X215390Y120942D01*
X215000Y121020D01*
X113522D01*
X95824Y138718D01*
X95896Y138842D01*
X96100Y139605D01*
Y140395D01*
X95896Y141158D01*
X95501Y141842D01*
X94942Y142401D01*
X94258Y142796D01*
X93495Y143000D01*
X92705D01*
X91942Y142796D01*
X91258Y142401D01*
X91120Y142262D01*
X90620Y142469D01*
Y146778D01*
X96318Y152476D01*
X96442Y152404D01*
X97205Y152200D01*
X97995D01*
X98758Y152404D01*
X99442Y152799D01*
X99580Y152938D01*
X100080Y152731D01*
Y147833D01*
X99942Y147796D01*
X99258Y147401D01*
X98699Y146842D01*
X98304Y146158D01*
X98100Y145395D01*
Y144605D01*
X98304Y143842D01*
X98699Y143158D01*
X99258Y142599D01*
X99942Y142204D01*
X100705Y142000D01*
X101495D01*
X102258Y142204D01*
X102942Y142599D01*
X103501Y143158D01*
X103896Y143842D01*
X104100Y144605D01*
Y145395D01*
X103896Y146158D01*
X103501Y146842D01*
X102942Y147401D01*
X102258Y147796D01*
X102120Y147833D01*
Y156878D01*
X106022Y160780D01*
X149000D01*
X149390Y160858D01*
X149721Y161079D01*
X161622Y172980D01*
X167645D01*
X168036Y173058D01*
X168366Y173279D01*
X171721Y176634D01*
X171942Y176964D01*
X172020Y177355D01*
Y190867D01*
X172158Y190904D01*
X172842Y191299D01*
X173401Y191858D01*
X173796Y192542D01*
X174000Y193305D01*
Y194095D01*
X173796Y194858D01*
X173401Y195542D01*
X172842Y196101D01*
X172158Y196496D01*
X171395Y196700D01*
X170605D01*
X169842Y196496D01*
X169375Y196226D01*
X169068Y196626D01*
X175399Y202957D01*
X175608Y202749D01*
X176292Y202354D01*
X177055Y202150D01*
X177845D01*
X178608Y202354D01*
X179292Y202749D01*
X179850Y203308D01*
X180245Y203992D01*
X180450Y204755D01*
Y205545D01*
X180245Y206308D01*
X179850Y206992D01*
X179292Y207550D01*
X178608Y207945D01*
X177845Y208150D01*
X177055D01*
X176292Y207945D01*
X175608Y207550D01*
X175049Y206992D01*
X174654Y206308D01*
X174450Y205545D01*
Y204825D01*
X174250Y204692D01*
X169463Y199905D01*
X169062Y200212D01*
X169196Y200442D01*
X169400Y201205D01*
Y201995D01*
X169196Y202758D01*
X168801Y203442D01*
X168242Y204001D01*
X167558Y204396D01*
X166795Y204600D01*
X166005D01*
X165242Y204396D01*
X164558Y204001D01*
X163999Y203442D01*
X163604Y202758D01*
X163567Y202620D01*
X159600D01*
X159210Y202542D01*
X158879Y202321D01*
X136478Y179920D01*
X126533D01*
X126496Y180058D01*
X126101Y180742D01*
X125542Y181301D01*
X124858Y181696D01*
X124095Y181900D01*
X123305D01*
X122542Y181696D01*
X121858Y181301D01*
X121299Y180742D01*
X120904Y180058D01*
X120700Y179295D01*
Y178505D01*
X120904Y177742D01*
X121299Y177058D01*
X121858Y176499D01*
X122542Y176104D01*
X123305Y175900D01*
X124095D01*
X124858Y176104D01*
X125542Y176499D01*
X126101Y177058D01*
X126496Y177742D01*
X126533Y177880D01*
X136900D01*
X137290Y177958D01*
X137621Y178179D01*
X160022Y200580D01*
X163567D01*
X163604Y200442D01*
X163999Y199758D01*
X164558Y199199D01*
X165242Y198804D01*
X166005Y198600D01*
X166795D01*
X167558Y198804D01*
X167789Y198938D01*
X168096Y198538D01*
X137366Y167808D01*
X100058D01*
X99851Y168308D01*
X100001Y168458D01*
X100396Y169142D01*
X100433Y169280D01*
X136350D01*
X136740Y169358D01*
X137071Y169579D01*
X152956Y185463D01*
X152980Y185500D01*
X153395D01*
X154158Y185704D01*
X154842Y186099D01*
X155401Y186658D01*
X155796Y187342D01*
X156000Y188105D01*
Y188895D01*
X155796Y189658D01*
X155401Y190342D01*
X154842Y190901D01*
X154158Y191296D01*
X153395Y191500D01*
X152605D01*
X151842Y191296D01*
X151158Y190901D01*
X150599Y190342D01*
X150204Y189658D01*
X150000Y188895D01*
Y188105D01*
X150204Y187342D01*
X150599Y186658D01*
X150933Y186325D01*
X135928Y171320D01*
X100433D01*
X100396Y171458D01*
X100001Y172142D01*
X99442Y172701D01*
X98758Y173096D01*
X97995Y173300D01*
X97205D01*
X96442Y173096D01*
X95758Y172701D01*
X95199Y172142D01*
X94804Y171458D01*
X94600Y170695D01*
Y169905D01*
X94804Y169142D01*
X95199Y168458D01*
X95349Y168308D01*
X95142Y167808D01*
X76634D01*
X75724Y168718D01*
X75796Y168842D01*
X76000Y169605D01*
Y170395D01*
X75796Y171158D01*
X75401Y171842D01*
X74842Y172401D01*
X74158Y172796D01*
X73395Y173000D01*
X72605D01*
X71842Y172796D01*
X71158Y172401D01*
X70599Y171842D01*
X70204Y171158D01*
X70000Y170395D01*
Y169605D01*
X70204Y168842D01*
X70599Y168158D01*
X71158Y167599D01*
X71842Y167204D01*
X72605Y167000D01*
X73395D01*
X74158Y167204D01*
X74282Y167276D01*
X75491Y166067D01*
X75821Y165846D01*
X76212Y165769D01*
X137788D01*
X138179Y165846D01*
X138509Y166067D01*
X168074Y195632D01*
X168474Y195325D01*
X168204Y194858D01*
X168000Y194095D01*
Y193305D01*
X168204Y192542D01*
X168599Y191858D01*
X169158Y191299D01*
X169842Y190904D01*
X169980Y190867D01*
Y177777D01*
X167223Y175020D01*
X161200D01*
X160810Y174942D01*
X160479Y174721D01*
X158482Y172723D01*
X158020Y172915D01*
Y175167D01*
X158158Y175204D01*
X158842Y175599D01*
X159401Y176158D01*
X159796Y176842D01*
X160000Y177605D01*
Y178395D01*
X159796Y179158D01*
X159401Y179842D01*
X158842Y180401D01*
X158158Y180796D01*
X157395Y181000D01*
X156605D01*
X155842Y180796D01*
X155158Y180401D01*
X154599Y179842D01*
X154204Y179158D01*
X154000Y178395D01*
Y177605D01*
X154204Y176842D01*
X154599Y176158D01*
X155158Y175599D01*
X155842Y175204D01*
X155980Y175167D01*
Y172422D01*
X152614Y169056D01*
X152349Y169057D01*
X152060Y169119D01*
X151701Y169742D01*
X151142Y170301D01*
X150458Y170696D01*
X149695Y170900D01*
X148905D01*
X148142Y170696D01*
X147458Y170301D01*
X146899Y169742D01*
X146504Y169058D01*
X146300Y168295D01*
Y167505D01*
X146504Y166742D01*
X146899Y166058D01*
X147458Y165499D01*
X148142Y165104D01*
X148905Y164900D01*
X149695D01*
X150045Y164994D01*
X150303Y164545D01*
X148578Y162820D01*
X105600D01*
X105210Y162742D01*
X104879Y162521D01*
X100379Y158021D01*
X100158Y157690D01*
X100142Y157608D01*
X99599Y157443D01*
X99442Y157601D01*
X98758Y157996D01*
X97995Y158200D01*
X97205D01*
X96442Y157996D01*
X95758Y157601D01*
X95199Y157042D01*
X94804Y156358D01*
X94600Y155595D01*
Y154805D01*
X94804Y154042D01*
X94876Y153918D01*
X88879Y147921D01*
X88658Y147590D01*
X88580Y147200D01*
Y138200D01*
X88658Y137810D01*
X88879Y137479D01*
X108679Y117679D01*
X109010Y117458D01*
X109400Y117380D01*
X205578D01*
X212476Y110482D01*
X212404Y110358D01*
X212200Y109595D01*
Y108805D01*
X212404Y108042D01*
X212799Y107358D01*
X213358Y106799D01*
X214042Y106404D01*
X214805Y106200D01*
X215595D01*
X216358Y106404D01*
X216482Y106476D01*
X217279Y105679D01*
X217610Y105458D01*
X218000Y105380D01*
X236299D01*
X236698Y104982D01*
X236507Y104520D01*
X202235D01*
X201845Y104442D01*
X201514Y104221D01*
X201176Y103883D01*
X200808Y104096D01*
X200045Y104300D01*
X199255D01*
X198492Y104096D01*
X197808Y103701D01*
X197249Y103142D01*
X196854Y102458D01*
X196650Y101695D01*
Y100905D01*
X196700Y100716D01*
X196396Y100320D01*
X119300D01*
X118910Y100242D01*
X118579Y100021D01*
X110282Y91724D01*
X110158Y91796D01*
X109395Y92000D01*
X108605D01*
X107842Y91796D01*
X107158Y91401D01*
X106599Y90842D01*
X106204Y90158D01*
X106000Y89395D01*
Y88605D01*
X106204Y87842D01*
X106599Y87158D01*
X107158Y86599D01*
X107842Y86204D01*
X108605Y86000D01*
X109395D01*
X110158Y86204D01*
X110842Y86599D01*
X111401Y87158D01*
X111796Y87842D01*
X112000Y88605D01*
Y89395D01*
X111796Y90158D01*
X111724Y90282D01*
X119722Y98280D01*
X197650D01*
X198040Y98358D01*
X198367Y98576D01*
X198492Y98504D01*
X199255Y98300D01*
X200045D01*
X200808Y98504D01*
X201492Y98899D01*
X202050Y99458D01*
X202445Y100142D01*
X202650Y100905D01*
Y101695D01*
X202563Y102020D01*
X202935Y102480D01*
X232920D01*
X233042Y101996D01*
X232358Y101601D01*
X231799Y101042D01*
X231404Y100358D01*
X231200Y99595D01*
Y98805D01*
X231404Y98042D01*
X231799Y97358D01*
X232358Y96799D01*
X233042Y96404D01*
X233805Y96200D01*
X234595D01*
X235358Y96404D01*
X236042Y96799D01*
X236601Y97358D01*
X236986Y97072D01*
X239476Y94582D01*
X239285Y94120D01*
X219633D01*
X219596Y94258D01*
X219201Y94942D01*
X218642Y95501D01*
X217958Y95896D01*
X217195Y96100D01*
X216405D01*
X215642Y95896D01*
X214958Y95501D01*
X214399Y94942D01*
X214004Y94258D01*
X213800Y93495D01*
Y92705D01*
X214004Y91942D01*
X214399Y91258D01*
X214958Y90699D01*
X215642Y90304D01*
X216405Y90100D01*
X217195D01*
X217958Y90304D01*
X218642Y90699D01*
X219201Y91258D01*
X219596Y91942D01*
X219633Y92080D01*
X239578D01*
X242676Y88981D01*
X242485Y88520D01*
X165522D01*
X163424Y90618D01*
X163496Y90742D01*
X163700Y91505D01*
Y92295D01*
X163496Y93058D01*
X163101Y93742D01*
X162542Y94301D01*
X161858Y94696D01*
X161095Y94900D01*
X160305D01*
X159542Y94696D01*
X158858Y94301D01*
X158299Y93742D01*
X157904Y93058D01*
X157700Y92295D01*
Y91505D01*
X157904Y90742D01*
X158299Y90058D01*
X158858Y89499D01*
X159542Y89104D01*
X160305Y88900D01*
X161095D01*
X161858Y89104D01*
X161982Y89176D01*
X163677Y87481D01*
X163485Y87020D01*
X118000D01*
X117610Y86942D01*
X117279Y86721D01*
X111082Y80524D01*
X110958Y80596D01*
X110195Y80800D01*
X109405D01*
X108642Y80596D01*
X107958Y80201D01*
X107399Y79642D01*
X107004Y78958D01*
X106800Y78195D01*
Y77405D01*
X107004Y76642D01*
X107399Y75958D01*
X107958Y75399D01*
X108642Y75004D01*
X109405Y74800D01*
X110195D01*
X110958Y75004D01*
X111642Y75399D01*
X112201Y75958D01*
X112596Y76642D01*
X112800Y77405D01*
Y78195D01*
X112596Y78958D01*
X112524Y79082D01*
X118422Y84980D01*
X172571D01*
Y82520D01*
X168086D01*
X167696Y82442D01*
X167365Y82221D01*
X166779Y81635D01*
X166558Y81304D01*
X166480Y80914D01*
Y77724D01*
X165130D01*
Y76669D01*
X163870D01*
Y77724D01*
X159130D01*
Y76669D01*
X154500D01*
Y76895D01*
X154296Y77658D01*
X153901Y78342D01*
X153342Y78901D01*
X152658Y79296D01*
X151895Y79500D01*
X151105D01*
X150342Y79296D01*
X149658Y78901D01*
X149099Y78342D01*
X148704Y77658D01*
X148500Y76895D01*
Y76105D01*
X148704Y75342D01*
X149099Y74658D01*
X149658Y74099D01*
X150342Y73704D01*
X151105Y73500D01*
X151895D01*
X152658Y73704D01*
X153342Y74099D01*
X153873Y74630D01*
X159130D01*
Y73575D01*
X163870D01*
Y74630D01*
X165130D01*
Y73575D01*
X169870D01*
Y77724D01*
X168520D01*
Y80480D01*
X172571D01*
Y75020D01*
X182429D01*
Y84980D01*
X252100D01*
X252490Y85058D01*
X252821Y85279D01*
X257022Y89480D01*
X271531D01*
X271738Y88980D01*
X271599Y88842D01*
X271204Y88158D01*
X271000Y87395D01*
Y86605D01*
X271204Y85842D01*
X271599Y85158D01*
X272158Y84599D01*
X272831Y84211D01*
Y81500D01*
Y78724D01*
X271480D01*
Y77669D01*
X267220D01*
Y78724D01*
X262480D01*
Y74575D01*
X267220D01*
Y75630D01*
X271480D01*
Y74575D01*
X275780D01*
Y72425D01*
X271480D01*
Y71370D01*
X267220D01*
Y72425D01*
X262480D01*
Y68276D01*
X263831D01*
Y60860D01*
X263345Y60473D01*
X263245Y60500D01*
X262455D01*
X261692Y60296D01*
X261008Y59901D01*
X260450Y59342D01*
X260055Y58658D01*
X259850Y57895D01*
Y57105D01*
X260055Y56342D01*
X260450Y55658D01*
X261008Y55099D01*
X261692Y54704D01*
X262455Y54500D01*
X263245D01*
X264008Y54704D01*
X264692Y55099D01*
X265251Y55658D01*
X265646Y56342D01*
X265850Y57105D01*
Y57895D01*
X265646Y58658D01*
X265360Y59153D01*
X265571Y59365D01*
X265792Y59696D01*
X265870Y60086D01*
Y68276D01*
X267220D01*
Y69331D01*
X271480D01*
Y68276D01*
X275780D01*
Y60822D01*
X274129Y59171D01*
X273908Y58841D01*
X273831Y58450D01*
Y39724D01*
X272480D01*
Y38669D01*
X270220D01*
Y39724D01*
X265480D01*
Y36020D01*
X223285D01*
X208083Y51221D01*
X207753Y51442D01*
X207362Y51520D01*
X67231D01*
X67194Y51658D01*
X66799Y52342D01*
X66240Y52901D01*
X65556Y53296D01*
X64793Y53500D01*
X64003D01*
X63240Y53296D01*
X62556Y52901D01*
X61997Y52342D01*
X61602Y51658D01*
X61398Y50895D01*
Y50105D01*
X61602Y49342D01*
X61997Y48658D01*
X62556Y48099D01*
X63240Y47704D01*
X64003Y47500D01*
X64793D01*
X65556Y47704D01*
X66240Y48099D01*
X66799Y48658D01*
X67194Y49342D01*
X67231Y49480D01*
X206940D01*
X222141Y34279D01*
X222472Y34058D01*
X222862Y33980D01*
X349892D01*
X350282Y34058D01*
X350613Y34279D01*
X363115Y46780D01*
X364331D01*
X364538Y46280D01*
X364399Y46142D01*
X364004Y45458D01*
X363800Y44695D01*
Y43905D01*
X364004Y43142D01*
X364399Y42458D01*
X364958Y41899D01*
X365642Y41504D01*
X366405Y41300D01*
X367195D01*
X367958Y41504D01*
X368642Y41899D01*
X369201Y42458D01*
X369596Y43142D01*
X369800Y43905D01*
Y44695D01*
X369596Y45458D01*
X369524Y45582D01*
X374422Y50480D01*
X379531D01*
X379738Y49980D01*
X379599Y49842D01*
X379204Y49158D01*
X379000Y48395D01*
Y47605D01*
X379204Y46842D01*
X379599Y46158D01*
X380158Y45599D01*
X380831Y45211D01*
Y38874D01*
X380480D01*
Y37819D01*
X378221D01*
Y38724D01*
X373480D01*
Y34620D01*
X361800D01*
X361410Y34542D01*
X361079Y34321D01*
X354278Y27520D01*
X295433D01*
X295396Y27658D01*
X295001Y28342D01*
X294442Y28901D01*
X293758Y29296D01*
X292995Y29500D01*
X292205D01*
X291442Y29296D01*
X290758Y28901D01*
X290199Y28342D01*
X289804Y27658D01*
X289600Y26895D01*
Y26105D01*
X289804Y25342D01*
X290199Y24658D01*
X290758Y24099D01*
X291442Y23704D01*
X292205Y23500D01*
X292995D01*
X293758Y23704D01*
X294442Y24099D01*
X295001Y24658D01*
X295396Y25342D01*
X295433Y25480D01*
X354700D01*
X355090Y25558D01*
X355421Y25779D01*
X362222Y32580D01*
X373045D01*
X373480Y32425D01*
X373480Y32080D01*
Y28276D01*
X374831D01*
Y18922D01*
X373428Y17520D01*
X372477D01*
X372000Y17605D01*
Y18395D01*
X371796Y19158D01*
X371401Y19842D01*
X370842Y20401D01*
X370158Y20796D01*
X369395Y21000D01*
X368605D01*
X367842Y20796D01*
X367158Y20401D01*
X366599Y19842D01*
X366204Y19158D01*
X366000Y18395D01*
Y17605D01*
X366204Y16842D01*
X366599Y16158D01*
X367158Y15599D01*
X367842Y15204D01*
X368159Y15120D01*
X368093Y14620D01*
X288800D01*
X288410Y14542D01*
X288079Y14321D01*
X281778Y8020D01*
X259434D01*
X259282Y8520D01*
X259371Y8579D01*
X265310Y14517D01*
X266008Y14704D01*
X266692Y15099D01*
X267251Y15658D01*
X267646Y16342D01*
X267833Y17041D01*
X268571Y17779D01*
X268792Y18110D01*
X268870Y18500D01*
Y29276D01*
X270220D01*
Y30331D01*
X272480D01*
Y29276D01*
X277221D01*
Y33425D01*
X272480D01*
Y32370D01*
X270220D01*
Y33425D01*
X265480D01*
Y29276D01*
X266831D01*
Y20398D01*
X266331Y20109D01*
X266008Y20296D01*
X265245Y20500D01*
X264455D01*
X263692Y20296D01*
X263008Y19901D01*
X262450Y19342D01*
X262055Y18658D01*
X261850Y17895D01*
Y17105D01*
X262055Y16342D01*
X262450Y15658D01*
X263008Y15100D01*
X258228Y10320D01*
X255542D01*
X255400Y10505D01*
Y11295D01*
X255196Y12058D01*
X254801Y12742D01*
X254242Y13301D01*
X253558Y13696D01*
X252795Y13900D01*
X252005D01*
X251242Y13696D01*
X250558Y13301D01*
X249999Y12742D01*
X249604Y12058D01*
X249400Y11295D01*
Y10505D01*
X249604Y9742D01*
X249999Y9058D01*
X250268Y8789D01*
X250102Y8248D01*
X249927Y8214D01*
X247324Y10818D01*
X247396Y10942D01*
X247600Y11705D01*
Y12495D01*
X247396Y13258D01*
X247001Y13942D01*
X246442Y14501D01*
X245758Y14896D01*
X244995Y15100D01*
X244205D01*
X243442Y14896D01*
X242758Y14501D01*
X242199Y13942D01*
X241804Y13258D01*
X241600Y12495D01*
Y11705D01*
X241804Y10942D01*
X242199Y10258D01*
X242758Y9699D01*
X243442Y9304D01*
X244205Y9100D01*
X244995D01*
X245758Y9304D01*
X245882Y9376D01*
X248979Y6279D01*
X249068Y6220D01*
X248916Y5720D01*
X236522D01*
X221524Y20718D01*
X221596Y20842D01*
X221800Y21605D01*
Y22395D01*
X221596Y23158D01*
X221201Y23842D01*
X220642Y24401D01*
X219958Y24796D01*
X219195Y25000D01*
X218405D01*
X217642Y24796D01*
X216958Y24401D01*
X216399Y23842D01*
X216004Y23158D01*
X215800Y22395D01*
Y21605D01*
X216004Y20842D01*
X216399Y20158D01*
X216958Y19599D01*
X217642Y19204D01*
X218405Y19000D01*
X219195D01*
X219958Y19204D01*
X220082Y19276D01*
X234876Y4482D01*
X234685Y4020D01*
X147873D01*
X146074Y5818D01*
X146146Y5942D01*
X146350Y6705D01*
Y7495D01*
X146146Y8258D01*
X145751Y8942D01*
X145193Y9501D01*
X144508Y9896D01*
X143745Y10100D01*
X142955D01*
X142192Y9896D01*
X141508Y9501D01*
X140950Y8942D01*
X140555Y8258D01*
X140350Y7495D01*
Y6705D01*
X140555Y5942D01*
X140950Y5258D01*
X141508Y4699D01*
X142192Y4304D01*
X142955Y4100D01*
X143745D01*
X144508Y4304D01*
X144632Y4376D01*
X146027Y2981D01*
X145836Y2520D01*
X57522D01*
X56324Y3718D01*
X56396Y3842D01*
X56600Y4605D01*
Y5395D01*
X56396Y6158D01*
X56001Y6842D01*
X55442Y7401D01*
X54758Y7796D01*
X53995Y8000D01*
X53205D01*
X52442Y7796D01*
X51758Y7401D01*
X51199Y6842D01*
X50804Y6158D01*
X50600Y5395D01*
Y4605D01*
X50804Y3842D01*
X51199Y3158D01*
X51758Y2599D01*
X52442Y2204D01*
X53205Y2000D01*
X53995D01*
X54758Y2204D01*
X54882Y2276D01*
X56379Y779D01*
X56710Y558D01*
X57002Y500D01*
X56952Y0D01*
X0D01*
Y400000D01*
X560000D01*
Y0D01*
D02*
G37*
G36*
X111776Y119881D02*
X111585Y119420D01*
X109822D01*
X92742Y136500D01*
X92949Y137000D01*
X93495D01*
X94258Y137204D01*
X94382Y137276D01*
X111776Y119881D01*
D02*
G37*
G36*
X354296Y149480D02*
X354158Y149401D01*
X353599Y148842D01*
X353204Y148158D01*
X353000Y147395D01*
Y146605D01*
X353204Y145842D01*
X353506Y145320D01*
X353312Y144888D01*
X353240Y144820D01*
X323500D01*
X323110Y144742D01*
X322779Y144521D01*
X280078Y101820D01*
X279463D01*
X279264Y102320D01*
X326925Y149980D01*
X354162D01*
X354296Y149480D01*
D02*
G37*
G36*
X239479Y100079D02*
X239810Y99858D01*
X240200Y99780D01*
X245320D01*
X245442Y99296D01*
X244758Y98901D01*
X244199Y98342D01*
X243804Y97658D01*
X243600Y96895D01*
Y96105D01*
X243804Y95342D01*
X244199Y94658D01*
X244758Y94099D01*
X245442Y93704D01*
X246205Y93500D01*
X246995D01*
X247758Y93704D01*
X248442Y94099D01*
X249001Y94658D01*
X249396Y95342D01*
X249433Y95480D01*
X250485D01*
X250676Y95019D01*
X247678Y92020D01*
X244922D01*
X237786Y99156D01*
X237456Y99377D01*
X237200Y99427D01*
Y99595D01*
X236996Y100358D01*
X236601Y101042D01*
X236042Y101601D01*
X235358Y101996D01*
X235480Y102480D01*
X237078D01*
X239479Y100079D01*
D02*
G37*
G36*
X468880Y89178D02*
Y78991D01*
X468380Y78857D01*
X468101Y79342D01*
X467542Y79901D01*
X466858Y80296D01*
X466095Y80500D01*
X465305D01*
X464542Y80296D01*
X464418Y80224D01*
X451123Y93519D01*
X451315Y93980D01*
X464078D01*
X468880Y89178D01*
D02*
G37*
G36*
X291666Y89381D02*
X292056Y89303D01*
X379805D01*
X379871Y88803D01*
X379842Y88796D01*
X379158Y88401D01*
X378599Y87842D01*
X378204Y87158D01*
X378000Y86395D01*
Y85605D01*
X378204Y84842D01*
X378599Y84158D01*
X378857Y83900D01*
X378831Y83768D01*
Y78724D01*
X377480D01*
Y77669D01*
X376220D01*
Y78724D01*
X371480D01*
Y77669D01*
X276220D01*
Y78724D01*
X274870D01*
Y81500D01*
Y84127D01*
X275158Y84204D01*
X275842Y84599D01*
X276401Y85158D01*
X276796Y85842D01*
X277000Y86605D01*
Y87395D01*
X276796Y88158D01*
X276401Y88842D01*
X276262Y88980D01*
X276469Y89480D01*
X291517D01*
X291666Y89381D01*
D02*
G37*
G36*
X430330Y65728D02*
Y56183D01*
X430192Y56146D01*
X429507Y55751D01*
X428949Y55192D01*
X428554Y54508D01*
X428350Y53745D01*
Y52955D01*
X428554Y52192D01*
X428949Y51508D01*
X429338Y51120D01*
X429131Y50620D01*
X428472D01*
X423271Y55821D01*
X422940Y56042D01*
X422550Y56120D01*
X373269D01*
X373061Y56620D01*
X374571Y58129D01*
X374792Y58460D01*
X374870Y58850D01*
Y62500D01*
Y68276D01*
X376220D01*
Y69331D01*
X377480D01*
Y68276D01*
X382221D01*
Y71980D01*
X414533D01*
X414704Y71342D01*
X415099Y70658D01*
X415658Y70099D01*
X416342Y69704D01*
X417105Y69500D01*
X417895D01*
X418658Y69704D01*
X419342Y70099D01*
X419901Y70658D01*
X420296Y71342D01*
X420500Y72105D01*
Y72895D01*
X420296Y73658D01*
X419901Y74342D01*
X419342Y74901D01*
X418658Y75296D01*
X417895Y75500D01*
X417105D01*
X416342Y75296D01*
X415658Y74901D01*
X415099Y74342D01*
X414913Y74020D01*
X298000D01*
X297610Y73942D01*
X297279Y73721D01*
X282782Y59224D01*
X282658Y59296D01*
X281895Y59500D01*
X281105D01*
X280342Y59296D01*
X279658Y58901D01*
X279099Y58342D01*
X278704Y57658D01*
X278500Y56895D01*
Y56105D01*
X278704Y55342D01*
X279099Y54658D01*
X279658Y54099D01*
X280342Y53704D01*
X281105Y53500D01*
X281895D01*
X282658Y53704D01*
X283342Y54099D01*
X283901Y54658D01*
X284296Y55342D01*
X284500Y56105D01*
Y56895D01*
X284296Y57658D01*
X284224Y57782D01*
X298422Y71980D01*
X371480D01*
Y68276D01*
X372831D01*
Y62500D01*
Y59273D01*
X371578Y58020D01*
X369833D01*
X369796Y58158D01*
X369401Y58842D01*
X368842Y59401D01*
X368158Y59796D01*
X367395Y60000D01*
X366605D01*
X365842Y59796D01*
X365158Y59401D01*
X364599Y58842D01*
X364204Y58158D01*
X364000Y57395D01*
Y56605D01*
X364204Y55842D01*
X364599Y55158D01*
X364738Y55020D01*
X364531Y54520D01*
X356633D01*
X356596Y54658D01*
X356201Y55342D01*
X355642Y55901D01*
X354958Y56296D01*
X354195Y56500D01*
X353405D01*
X352642Y56296D01*
X351958Y55901D01*
X351399Y55342D01*
X351004Y54658D01*
X350800Y53895D01*
Y53105D01*
X351004Y52342D01*
X351399Y51658D01*
X351958Y51099D01*
X352642Y50704D01*
X353405Y50500D01*
X354195D01*
X354958Y50704D01*
X355642Y51099D01*
X356201Y51658D01*
X356596Y52342D01*
X356633Y52480D01*
X368900D01*
X369290Y52558D01*
X369621Y52779D01*
X370922Y54080D01*
X371931D01*
X372139Y53580D01*
X367378Y48820D01*
X362692D01*
X362302Y48742D01*
X361971Y48521D01*
X349470Y36020D01*
X277221D01*
Y38578D01*
X278571Y39929D01*
X278792Y40259D01*
X278870Y40650D01*
Y46667D01*
X279008Y46704D01*
X279693Y47099D01*
X280251Y47658D01*
X280646Y48342D01*
X280850Y49105D01*
Y49895D01*
X280646Y50658D01*
X280251Y51342D01*
X279693Y51901D01*
X279008Y52296D01*
X278245Y52500D01*
X277455D01*
X276692Y52296D01*
X276370Y52109D01*
X275870Y52398D01*
Y58028D01*
X277521Y59679D01*
X277742Y60010D01*
X277820Y60400D01*
Y75630D01*
X371480D01*
Y74575D01*
X376220D01*
Y75630D01*
X377480D01*
Y74575D01*
X382221D01*
Y78724D01*
X380870D01*
Y83000D01*
X381395D01*
X382158Y83204D01*
X382842Y83599D01*
X383401Y84158D01*
X383796Y84842D01*
X384000Y85605D01*
Y86395D01*
X383796Y87158D01*
X383401Y87842D01*
X382842Y88401D01*
X382158Y88796D01*
X382129Y88803D01*
X382195Y89303D01*
X406755D01*
X430330Y65728D01*
D02*
G37*
G36*
X492980Y91331D02*
Y71833D01*
X492842Y71796D01*
X492158Y71401D01*
X492020Y71262D01*
X491520Y71469D01*
Y90967D01*
X491658Y91004D01*
X492342Y91399D01*
X492480Y91538D01*
X492980Y91331D01*
D02*
G37*
G36*
X453479Y55779D02*
X453810Y55558D01*
X454200Y55480D01*
X501728D01*
X502118Y55558D01*
X502449Y55779D01*
X508980Y62311D01*
X509480Y62103D01*
Y61586D01*
X509558Y61196D01*
X509779Y60865D01*
X510365Y60279D01*
X510696Y60058D01*
X511086Y59980D01*
X519778D01*
X521480Y58278D01*
Y54822D01*
X520078Y53420D01*
X436600D01*
X436210Y53342D01*
X435879Y53121D01*
X434411Y51653D01*
X434011Y51960D01*
X434145Y52192D01*
X434350Y52955D01*
Y53745D01*
X434145Y54508D01*
X433750Y55192D01*
X433192Y55751D01*
X432508Y56146D01*
X432369Y56183D01*
Y66150D01*
X432292Y66541D01*
X432071Y66871D01*
X408601Y90341D01*
X408792Y90803D01*
X418455D01*
X453479Y55779D01*
D02*
G37*
G36*
X427329Y48879D02*
X427659Y48658D01*
X428050Y48580D01*
X433800D01*
X434190Y48658D01*
X434521Y48879D01*
X437022Y51380D01*
X464593D01*
X464659Y50880D01*
X464342Y50796D01*
X463658Y50401D01*
X463099Y49842D01*
X462704Y49158D01*
X462500Y48395D01*
Y47605D01*
X462032Y47420D01*
X426772D01*
X420611Y53580D01*
X420818Y54080D01*
X422127D01*
X427329Y48879D01*
D02*
G37*
G36*
X522980Y52785D02*
Y51622D01*
X516028Y44670D01*
X466595D01*
X466529Y45170D01*
X466658Y45204D01*
X467342Y45599D01*
X467901Y46158D01*
X468296Y46842D01*
X468500Y47605D01*
Y48395D01*
X468296Y49158D01*
X467901Y49842D01*
X467342Y50401D01*
X466658Y50796D01*
X466341Y50880D01*
X466407Y51380D01*
X520500D01*
X520890Y51458D01*
X521221Y51679D01*
X522518Y52977D01*
X522980Y52785D01*
D02*
G37*
G36*
X425629Y45679D02*
X425959Y45458D01*
X426350Y45380D01*
X462914D01*
X463304Y45458D01*
X463601Y45656D01*
X463658Y45599D01*
X464342Y45204D01*
X464471Y45170D01*
X464405Y44670D01*
X393772D01*
X386824Y51618D01*
X387015Y52080D01*
X419227D01*
X425629Y45679D01*
D02*
G37*
G36*
X392629Y42929D02*
X392959Y42708D01*
X393350Y42631D01*
X414023D01*
X414157Y42131D01*
X413758Y41901D01*
X413199Y41342D01*
X412804Y40658D01*
X412600Y39895D01*
Y39105D01*
X412804Y38342D01*
X413199Y37658D01*
X413758Y37099D01*
X414442Y36704D01*
X415205Y36500D01*
X415995D01*
X416758Y36704D01*
X417442Y37099D01*
X418001Y37658D01*
X418396Y38342D01*
X418600Y39105D01*
Y39895D01*
X418523Y40184D01*
X418827Y40580D01*
X429740D01*
X429939Y40080D01*
X424478Y34620D01*
X385677D01*
X385221Y34724D01*
Y38874D01*
X382870D01*
Y45127D01*
X383158Y45204D01*
X383842Y45599D01*
X384401Y46158D01*
X384796Y46842D01*
X385000Y47605D01*
Y48395D01*
X384796Y49158D01*
X384401Y49842D01*
X384262Y49980D01*
X384469Y50480D01*
X385078D01*
X392629Y42929D01*
D02*
G37*
%LPC*%
G36*
X540826Y390500D02*
X539174D01*
X537541Y390242D01*
X535969Y389731D01*
X534497Y388980D01*
X533160Y388009D01*
X531991Y386840D01*
X531020Y385503D01*
X530269Y384031D01*
X529759Y382459D01*
X529500Y380826D01*
Y379174D01*
X529759Y377541D01*
X530269Y375969D01*
X531020Y374497D01*
X531991Y373160D01*
X533160Y371991D01*
X534497Y371020D01*
X535969Y370269D01*
X537541Y369759D01*
X539174Y369500D01*
X540826D01*
X542459Y369759D01*
X544031Y370269D01*
X545503Y371020D01*
X546840Y371991D01*
X548009Y373160D01*
X548980Y374497D01*
X549731Y375969D01*
X550242Y377541D01*
X550500Y379174D01*
Y380826D01*
X550242Y382459D01*
X549731Y384031D01*
X548980Y385503D01*
X548009Y386840D01*
X546840Y388009D01*
X545503Y388980D01*
X544031Y389731D01*
X542459Y390242D01*
X540826Y390500D01*
D02*
G37*
G36*
X20826D02*
X19174D01*
X17541Y390242D01*
X15969Y389731D01*
X14497Y388980D01*
X13160Y388009D01*
X11991Y386840D01*
X11020Y385503D01*
X10269Y384031D01*
X9759Y382459D01*
X9500Y380826D01*
Y379174D01*
X9759Y377541D01*
X10269Y375969D01*
X11020Y374497D01*
X11991Y373160D01*
X13160Y371991D01*
X14497Y371020D01*
X15969Y370269D01*
X17541Y369759D01*
X19174Y369500D01*
X20826D01*
X22459Y369759D01*
X24031Y370269D01*
X25503Y371020D01*
X26840Y371991D01*
X28009Y373160D01*
X28980Y374497D01*
X29731Y375969D01*
X30242Y377541D01*
X30500Y379174D01*
Y380826D01*
X30242Y382459D01*
X29731Y384031D01*
X28980Y385503D01*
X28009Y386840D01*
X26840Y388009D01*
X25503Y388980D01*
X24031Y389731D01*
X22459Y390242D01*
X20826Y390500D01*
D02*
G37*
G36*
X432395Y378000D02*
X431605D01*
X430842Y377796D01*
X430158Y377401D01*
X429599Y376842D01*
X429204Y376158D01*
X429000Y375395D01*
Y374605D01*
X429204Y373842D01*
X429599Y373158D01*
X430158Y372599D01*
X430842Y372204D01*
X430980Y372167D01*
Y345224D01*
X429630D01*
Y341075D01*
X434370D01*
Y345224D01*
X433020D01*
Y372167D01*
X433158Y372204D01*
X433842Y372599D01*
X434401Y373158D01*
X434796Y373842D01*
X435000Y374605D01*
Y375395D01*
X434796Y376158D01*
X434401Y376842D01*
X433842Y377401D01*
X433158Y377796D01*
X432395Y378000D01*
D02*
G37*
G36*
X406395D02*
X405605D01*
X404842Y377796D01*
X404158Y377401D01*
X403599Y376842D01*
X403204Y376158D01*
X403000Y375395D01*
Y374605D01*
X403204Y373842D01*
X403599Y373158D01*
X404158Y372599D01*
X404842Y372204D01*
X404980Y372167D01*
Y345224D01*
X403630D01*
Y341075D01*
X408370D01*
Y345224D01*
X407020D01*
Y372167D01*
X407158Y372204D01*
X407842Y372599D01*
X408401Y373158D01*
X408796Y373842D01*
X409000Y374605D01*
Y375395D01*
X408796Y376158D01*
X408401Y376842D01*
X407842Y377401D01*
X407158Y377796D01*
X406395Y378000D01*
D02*
G37*
G36*
X384395D02*
X383605D01*
X382842Y377796D01*
X382158Y377401D01*
X381599Y376842D01*
X381204Y376158D01*
X381000Y375395D01*
Y374605D01*
X381204Y373842D01*
X381599Y373158D01*
X382158Y372599D01*
X382842Y372204D01*
X382980Y372167D01*
Y345224D01*
X381630D01*
Y341075D01*
X386370D01*
Y345224D01*
X385020D01*
Y372167D01*
X385158Y372204D01*
X385842Y372599D01*
X386401Y373158D01*
X386796Y373842D01*
X387000Y374605D01*
Y375395D01*
X386796Y376158D01*
X386401Y376842D01*
X385842Y377401D01*
X385158Y377796D01*
X384395Y378000D01*
D02*
G37*
G36*
X360395D02*
X359605D01*
X358842Y377796D01*
X358158Y377401D01*
X357599Y376842D01*
X357204Y376158D01*
X357000Y375395D01*
Y374605D01*
X357204Y373842D01*
X357599Y373158D01*
X358158Y372599D01*
X358842Y372204D01*
X358980Y372167D01*
Y345224D01*
X357630D01*
Y341075D01*
X362370D01*
Y345224D01*
X361020D01*
Y372167D01*
X361158Y372204D01*
X361842Y372599D01*
X362401Y373158D01*
X362796Y373842D01*
X363000Y374605D01*
Y375395D01*
X362796Y376158D01*
X362401Y376842D01*
X361842Y377401D01*
X361158Y377796D01*
X360395Y378000D01*
D02*
G37*
G36*
X343395D02*
X342605D01*
X341842Y377796D01*
X341158Y377401D01*
X340599Y376842D01*
X340204Y376158D01*
X340000Y375395D01*
Y374605D01*
X340204Y373842D01*
X340599Y373158D01*
X341158Y372599D01*
X341842Y372204D01*
X341980Y372167D01*
Y345224D01*
X340630D01*
Y341075D01*
X345370D01*
Y345224D01*
X344020D01*
Y372167D01*
X344158Y372204D01*
X344842Y372599D01*
X345401Y373158D01*
X345796Y373842D01*
X346000Y374605D01*
Y375395D01*
X345796Y376158D01*
X345401Y376842D01*
X344842Y377401D01*
X344158Y377796D01*
X343395Y378000D01*
D02*
G37*
G36*
X323395D02*
X322605D01*
X321842Y377796D01*
X321158Y377401D01*
X320599Y376842D01*
X320204Y376158D01*
X320000Y375395D01*
Y374605D01*
X320204Y373842D01*
X320599Y373158D01*
X321158Y372599D01*
X321842Y372204D01*
X321980Y372167D01*
Y345224D01*
X320630D01*
Y341075D01*
X325370D01*
Y345224D01*
X324020D01*
Y372167D01*
X324158Y372204D01*
X324842Y372599D01*
X325401Y373158D01*
X325796Y373842D01*
X326000Y374605D01*
Y375395D01*
X325796Y376158D01*
X325401Y376842D01*
X324842Y377401D01*
X324158Y377796D01*
X323395Y378000D01*
D02*
G37*
G36*
X300395D02*
X299605D01*
X298842Y377796D01*
X298158Y377401D01*
X297599Y376842D01*
X297204Y376158D01*
X297000Y375395D01*
Y374605D01*
X297204Y373842D01*
X297599Y373158D01*
X298158Y372599D01*
X298842Y372204D01*
X298980Y372167D01*
Y345224D01*
X297630D01*
Y341075D01*
X302370D01*
Y345224D01*
X301020D01*
Y372167D01*
X301158Y372204D01*
X301842Y372599D01*
X302401Y373158D01*
X302796Y373842D01*
X303000Y374605D01*
Y375395D01*
X302796Y376158D01*
X302401Y376842D01*
X301842Y377401D01*
X301158Y377796D01*
X300395Y378000D01*
D02*
G37*
G36*
X286395D02*
X285605D01*
X284842Y377796D01*
X284158Y377401D01*
X283599Y376842D01*
X283204Y376158D01*
X283000Y375395D01*
Y374605D01*
X283204Y373842D01*
X283599Y373158D01*
X284158Y372599D01*
X284842Y372204D01*
X284980Y372167D01*
Y345224D01*
X283630D01*
Y341075D01*
X288370D01*
Y345224D01*
X287020D01*
Y372167D01*
X287158Y372204D01*
X287842Y372599D01*
X288401Y373158D01*
X288796Y373842D01*
X289000Y374605D01*
Y375395D01*
X288796Y376158D01*
X288401Y376842D01*
X287842Y377401D01*
X287158Y377796D01*
X286395Y378000D01*
D02*
G37*
G36*
X270395D02*
X269605D01*
X268842Y377796D01*
X268158Y377401D01*
X267599Y376842D01*
X267204Y376158D01*
X267000Y375395D01*
Y374605D01*
X267204Y373842D01*
X267599Y373158D01*
X268158Y372599D01*
X268842Y372204D01*
X268980Y372167D01*
Y345224D01*
X267630D01*
Y341075D01*
X272370D01*
Y345224D01*
X271020D01*
Y372167D01*
X271158Y372204D01*
X271842Y372599D01*
X272401Y373158D01*
X272796Y373842D01*
X273000Y374605D01*
Y375395D01*
X272796Y376158D01*
X272401Y376842D01*
X271842Y377401D01*
X271158Y377796D01*
X270395Y378000D01*
D02*
G37*
G36*
X255395D02*
X254605D01*
X253842Y377796D01*
X253158Y377401D01*
X252599Y376842D01*
X252204Y376158D01*
X252000Y375395D01*
Y374605D01*
X252204Y373842D01*
X252599Y373158D01*
X253158Y372599D01*
X253842Y372204D01*
X253980Y372167D01*
Y345224D01*
X252630D01*
Y341075D01*
X257370D01*
Y345224D01*
X256020D01*
Y372167D01*
X256158Y372204D01*
X256842Y372599D01*
X257401Y373158D01*
X257796Y373842D01*
X258000Y374605D01*
Y375395D01*
X257796Y376158D01*
X257401Y376842D01*
X256842Y377401D01*
X256158Y377796D01*
X255395Y378000D01*
D02*
G37*
G36*
X238395D02*
X237605D01*
X236842Y377796D01*
X236158Y377401D01*
X235599Y376842D01*
X235204Y376158D01*
X235000Y375395D01*
Y374605D01*
X235204Y373842D01*
X235599Y373158D01*
X236158Y372599D01*
X236842Y372204D01*
X237480Y372033D01*
Y345224D01*
X236130D01*
Y341075D01*
X240870D01*
Y345224D01*
X239520D01*
Y372413D01*
X239842Y372599D01*
X240401Y373158D01*
X240796Y373842D01*
X241000Y374605D01*
Y375395D01*
X240796Y376158D01*
X240401Y376842D01*
X239842Y377401D01*
X239158Y377796D01*
X238395Y378000D01*
D02*
G37*
G36*
X220395D02*
X219605D01*
X218842Y377796D01*
X218158Y377401D01*
X217599Y376842D01*
X217204Y376158D01*
X217000Y375395D01*
Y374605D01*
X217204Y373842D01*
X217599Y373158D01*
X218158Y372599D01*
X218842Y372204D01*
X218980Y372167D01*
Y345224D01*
X217630D01*
Y341075D01*
X222370D01*
Y345224D01*
X221020D01*
Y372167D01*
X221158Y372204D01*
X221842Y372599D01*
X222401Y373158D01*
X222796Y373842D01*
X223000Y374605D01*
Y375395D01*
X222796Y376158D01*
X222401Y376842D01*
X221842Y377401D01*
X221158Y377796D01*
X220395Y378000D01*
D02*
G37*
G36*
X207395D02*
X206605D01*
X205842Y377796D01*
X205158Y377401D01*
X204599Y376842D01*
X204204Y376158D01*
X204000Y375395D01*
Y374605D01*
X204204Y373842D01*
X204599Y373158D01*
X205158Y372599D01*
X205842Y372204D01*
X206480Y372033D01*
Y345224D01*
X205130D01*
Y341075D01*
X209870D01*
Y345224D01*
X208520D01*
Y372413D01*
X208842Y372599D01*
X209401Y373158D01*
X209796Y373842D01*
X210000Y374605D01*
Y375395D01*
X209796Y376158D01*
X209401Y376842D01*
X208842Y377401D01*
X208158Y377796D01*
X207395Y378000D01*
D02*
G37*
G36*
X193395D02*
X192605D01*
X191842Y377796D01*
X191158Y377401D01*
X190599Y376842D01*
X190204Y376158D01*
X190000Y375395D01*
Y374605D01*
X190204Y373842D01*
X190599Y373158D01*
X191158Y372599D01*
X191842Y372204D01*
X191980Y372167D01*
Y345224D01*
X190630D01*
Y341075D01*
X195370D01*
Y345224D01*
X194020D01*
Y372167D01*
X194158Y372204D01*
X194842Y372599D01*
X195401Y373158D01*
X195796Y373842D01*
X196000Y374605D01*
Y375395D01*
X195796Y376158D01*
X195401Y376842D01*
X194842Y377401D01*
X194158Y377796D01*
X193395Y378000D01*
D02*
G37*
G36*
X178395D02*
X177605D01*
X176842Y377796D01*
X176158Y377401D01*
X175599Y376842D01*
X175204Y376158D01*
X175000Y375395D01*
Y374605D01*
X175204Y373842D01*
X175599Y373158D01*
X176158Y372599D01*
X176480Y372413D01*
Y345224D01*
X175130D01*
Y341075D01*
X179870D01*
Y345224D01*
X178520D01*
Y372033D01*
X179158Y372204D01*
X179842Y372599D01*
X180401Y373158D01*
X180796Y373842D01*
X181000Y374605D01*
Y375395D01*
X180796Y376158D01*
X180401Y376842D01*
X179842Y377401D01*
X179158Y377796D01*
X178395Y378000D01*
D02*
G37*
G36*
X163395D02*
X162605D01*
X161842Y377796D01*
X161158Y377401D01*
X160599Y376842D01*
X160204Y376158D01*
X160000Y375395D01*
Y374605D01*
X160204Y373842D01*
X160599Y373158D01*
X161158Y372599D01*
X161842Y372204D01*
X161980Y372167D01*
Y345224D01*
X160630D01*
Y341075D01*
X165370D01*
Y345224D01*
X164020D01*
Y372167D01*
X164158Y372204D01*
X164842Y372599D01*
X165401Y373158D01*
X165796Y373842D01*
X166000Y374605D01*
Y375395D01*
X165796Y376158D01*
X165401Y376842D01*
X164842Y377401D01*
X164158Y377796D01*
X163395Y378000D01*
D02*
G37*
G36*
X145395D02*
X144605D01*
X143842Y377796D01*
X143158Y377401D01*
X142599Y376842D01*
X142204Y376158D01*
X142000Y375395D01*
Y374605D01*
X142204Y373842D01*
X142599Y373158D01*
X143158Y372599D01*
X143842Y372204D01*
X143980Y372167D01*
Y345224D01*
X142630D01*
Y341075D01*
X147370D01*
Y345224D01*
X146020D01*
Y372167D01*
X146158Y372204D01*
X146842Y372599D01*
X147401Y373158D01*
X147796Y373842D01*
X148000Y374605D01*
Y375395D01*
X147796Y376158D01*
X147401Y376842D01*
X146842Y377401D01*
X146158Y377796D01*
X145395Y378000D01*
D02*
G37*
G36*
X135395D02*
X134605D01*
X133842Y377796D01*
X133158Y377401D01*
X132599Y376842D01*
X132204Y376158D01*
X132000Y375395D01*
Y374605D01*
X132204Y373842D01*
X132599Y373158D01*
X133158Y372599D01*
X133842Y372204D01*
X133980Y372167D01*
Y345224D01*
X132630D01*
Y341075D01*
X137370D01*
Y345224D01*
X136020D01*
Y372167D01*
X136158Y372204D01*
X136842Y372599D01*
X137401Y373158D01*
X137796Y373842D01*
X138000Y374605D01*
Y375395D01*
X137796Y376158D01*
X137401Y376842D01*
X136842Y377401D01*
X136158Y377796D01*
X135395Y378000D01*
D02*
G37*
G36*
X125395D02*
X124605D01*
X123842Y377796D01*
X123158Y377401D01*
X122599Y376842D01*
X122204Y376158D01*
X122000Y375395D01*
Y374605D01*
X122204Y373842D01*
X122599Y373158D01*
X123158Y372599D01*
X123842Y372204D01*
X123980Y372167D01*
Y345224D01*
X122630D01*
Y341075D01*
X127370D01*
Y345224D01*
X126020D01*
Y372167D01*
X126158Y372204D01*
X126842Y372599D01*
X127401Y373158D01*
X127796Y373842D01*
X128000Y374605D01*
Y375395D01*
X127796Y376158D01*
X127401Y376842D01*
X126842Y377401D01*
X126158Y377796D01*
X125395Y378000D01*
D02*
G37*
G36*
X115395D02*
X114605D01*
X113842Y377796D01*
X113158Y377401D01*
X112599Y376842D01*
X112204Y376158D01*
X112000Y375395D01*
Y374605D01*
X112204Y373842D01*
X112599Y373158D01*
X113158Y372599D01*
X113842Y372204D01*
X113980Y372167D01*
Y345224D01*
X112630D01*
Y341075D01*
X117370D01*
Y345224D01*
X116020D01*
Y372167D01*
X116158Y372204D01*
X116842Y372599D01*
X117401Y373158D01*
X117796Y373842D01*
X118000Y374605D01*
Y375395D01*
X117796Y376158D01*
X117401Y376842D01*
X116842Y377401D01*
X116158Y377796D01*
X115395Y378000D01*
D02*
G37*
G36*
X105395D02*
X104605D01*
X103842Y377796D01*
X103158Y377401D01*
X102599Y376842D01*
X102204Y376158D01*
X102000Y375395D01*
Y374605D01*
X102204Y373842D01*
X102599Y373158D01*
X103158Y372599D01*
X103842Y372204D01*
X103980Y372167D01*
Y345224D01*
X102630D01*
Y341075D01*
X107370D01*
Y345224D01*
X106020D01*
Y372167D01*
X106158Y372204D01*
X106842Y372599D01*
X107401Y373158D01*
X107796Y373842D01*
X108000Y374605D01*
Y375395D01*
X107796Y376158D01*
X107401Y376842D01*
X106842Y377401D01*
X106158Y377796D01*
X105395Y378000D01*
D02*
G37*
G36*
X95395D02*
X94605D01*
X93842Y377796D01*
X93158Y377401D01*
X92599Y376842D01*
X92204Y376158D01*
X92000Y375395D01*
Y374605D01*
X92204Y373842D01*
X92599Y373158D01*
X93158Y372599D01*
X93842Y372204D01*
X93980Y372167D01*
Y345224D01*
X92630D01*
Y341075D01*
X97370D01*
Y345224D01*
X96020D01*
Y372167D01*
X96158Y372204D01*
X96842Y372599D01*
X97401Y373158D01*
X97796Y373842D01*
X98000Y374605D01*
Y375395D01*
X97796Y376158D01*
X97401Y376842D01*
X96842Y377401D01*
X96158Y377796D01*
X95395Y378000D01*
D02*
G37*
G36*
X85395D02*
X84605D01*
X83842Y377796D01*
X83158Y377401D01*
X82599Y376842D01*
X82204Y376158D01*
X82000Y375395D01*
Y374605D01*
X82204Y373842D01*
X82599Y373158D01*
X83158Y372599D01*
X83842Y372204D01*
X83980Y372167D01*
Y345224D01*
X82630D01*
Y341075D01*
X87370D01*
Y345224D01*
X86020D01*
Y372167D01*
X86158Y372204D01*
X86842Y372599D01*
X87401Y373158D01*
X87796Y373842D01*
X88000Y374605D01*
Y375395D01*
X87796Y376158D01*
X87401Y376842D01*
X86842Y377401D01*
X86158Y377796D01*
X85395Y378000D01*
D02*
G37*
G36*
X75395D02*
X74605D01*
X73842Y377796D01*
X73158Y377401D01*
X72599Y376842D01*
X72204Y376158D01*
X72000Y375395D01*
Y374605D01*
X72204Y373842D01*
X72599Y373158D01*
X73158Y372599D01*
X73842Y372204D01*
X73980Y372167D01*
Y345224D01*
X72630D01*
Y341075D01*
X77370D01*
Y345224D01*
X76020D01*
Y372167D01*
X76158Y372204D01*
X76842Y372599D01*
X77401Y373158D01*
X77796Y373842D01*
X78000Y374605D01*
Y375395D01*
X77796Y376158D01*
X77401Y376842D01*
X76842Y377401D01*
X76158Y377796D01*
X75395Y378000D01*
D02*
G37*
G36*
X417395Y346000D02*
X416605D01*
X415842Y345796D01*
X415158Y345401D01*
X414599Y344842D01*
X414204Y344158D01*
X414000Y343395D01*
Y342605D01*
X414204Y341842D01*
X414276Y341718D01*
X410428Y337870D01*
X408370D01*
Y338925D01*
X403630D01*
Y334776D01*
X408370D01*
Y335831D01*
X410850D01*
X411241Y335908D01*
X411571Y336129D01*
X415718Y340276D01*
X415842Y340204D01*
X416605Y340000D01*
X417395D01*
X418158Y340204D01*
X418842Y340599D01*
X419401Y341158D01*
X419796Y341842D01*
X420000Y342605D01*
Y343395D01*
X419796Y344158D01*
X419401Y344842D01*
X418842Y345401D01*
X418158Y345796D01*
X417395Y346000D01*
D02*
G37*
G36*
X362370Y338925D02*
X357630D01*
Y337870D01*
X345370D01*
Y338925D01*
X340630D01*
Y337870D01*
X325370D01*
Y338925D01*
X320630D01*
Y334776D01*
X325370D01*
Y335831D01*
X340630D01*
Y334776D01*
X345370D01*
Y335831D01*
X357630D01*
Y334776D01*
X362370D01*
Y335831D01*
X367727D01*
X369276Y334282D01*
X369204Y334158D01*
X369000Y333395D01*
Y332605D01*
X369204Y331842D01*
X369599Y331158D01*
X370158Y330599D01*
X370842Y330204D01*
X371605Y330000D01*
X372395D01*
X373158Y330204D01*
X373842Y330599D01*
X374401Y331158D01*
X374796Y331842D01*
X375000Y332605D01*
Y333395D01*
X374796Y334158D01*
X374401Y334842D01*
X373842Y335401D01*
X373158Y335796D01*
X372395Y336000D01*
X371605D01*
X370842Y335796D01*
X370718Y335724D01*
X368871Y337571D01*
X368540Y337792D01*
X368150Y337870D01*
X362370D01*
Y338925D01*
D02*
G37*
G36*
X302370D02*
X297630D01*
Y337870D01*
X288370D01*
Y338925D01*
X283630D01*
Y337870D01*
X272370D01*
Y338925D01*
X267630D01*
Y337870D01*
X257370D01*
Y338925D01*
X252630D01*
Y337870D01*
X240870D01*
Y338925D01*
X236130D01*
Y334776D01*
X240870D01*
Y335831D01*
X252630D01*
Y334776D01*
X257370D01*
Y335831D01*
X267630D01*
Y334776D01*
X272370D01*
Y335831D01*
X283630D01*
Y334776D01*
X288370D01*
Y335831D01*
X297630D01*
Y334776D01*
X302370D01*
Y335831D01*
X304727D01*
X309980Y330578D01*
Y327833D01*
X309842Y327796D01*
X309158Y327401D01*
X308599Y326842D01*
X308204Y326158D01*
X308000Y325395D01*
Y324605D01*
X308204Y323842D01*
X308599Y323158D01*
X309158Y322599D01*
X309842Y322204D01*
X310605Y322000D01*
X311395D01*
X312158Y322204D01*
X312842Y322599D01*
X313401Y323158D01*
X313796Y323842D01*
X314000Y324605D01*
Y325395D01*
X313796Y326158D01*
X313401Y326842D01*
X312842Y327401D01*
X312158Y327796D01*
X312020Y327833D01*
Y331000D01*
X311942Y331390D01*
X311721Y331721D01*
X305871Y337571D01*
X305540Y337792D01*
X305150Y337870D01*
X302370D01*
Y338925D01*
D02*
G37*
G36*
X222370D02*
X217630D01*
Y337870D01*
X209870D01*
Y338925D01*
X205130D01*
Y337870D01*
X195370D01*
Y338925D01*
X190630D01*
Y337870D01*
X179870D01*
Y338925D01*
X175130D01*
Y337870D01*
X165370D01*
Y338925D01*
X160630D01*
Y334776D01*
X165370D01*
Y335831D01*
X175130D01*
Y334776D01*
X179870D01*
Y335831D01*
X190630D01*
Y334776D01*
X195370D01*
Y335831D01*
X205130D01*
Y334776D01*
X209870D01*
Y335831D01*
X217630D01*
Y334776D01*
X222370D01*
Y335831D01*
X225727D01*
X228980Y332578D01*
Y323833D01*
X228842Y323796D01*
X228158Y323401D01*
X227599Y322842D01*
X227204Y322158D01*
X227000Y321395D01*
Y320605D01*
X227204Y319842D01*
X227599Y319158D01*
X228158Y318599D01*
X228842Y318204D01*
X229605Y318000D01*
X230395D01*
X231158Y318204D01*
X231842Y318599D01*
X232401Y319158D01*
X232796Y319842D01*
X233000Y320605D01*
Y321395D01*
X232796Y322158D01*
X232401Y322842D01*
X231842Y323401D01*
X231158Y323796D01*
X231020Y323833D01*
Y333000D01*
X230942Y333390D01*
X230721Y333721D01*
X226871Y337571D01*
X226540Y337792D01*
X226150Y337870D01*
X222370D01*
Y338925D01*
D02*
G37*
G36*
X147370D02*
X142630D01*
Y337870D01*
X137370D01*
Y338925D01*
X132630D01*
Y337870D01*
X127370D01*
Y338925D01*
X122630D01*
Y337870D01*
X117370D01*
Y338925D01*
X112630D01*
Y337870D01*
X107370D01*
Y338925D01*
X102630D01*
Y337870D01*
X97370D01*
Y338925D01*
X92630D01*
Y337870D01*
X87370D01*
Y338925D01*
X82630D01*
Y337870D01*
X77370D01*
Y338925D01*
X72630D01*
Y334776D01*
X77370D01*
Y335831D01*
X82630D01*
Y334776D01*
X87370D01*
Y335831D01*
X92630D01*
Y334776D01*
X97370D01*
Y335831D01*
X102630D01*
Y334776D01*
X107370D01*
Y335831D01*
X112630D01*
Y334776D01*
X117370D01*
Y335831D01*
X122630D01*
Y334776D01*
X127370D01*
Y335831D01*
X132630D01*
Y334776D01*
X137370D01*
Y335831D01*
X142630D01*
Y334776D01*
X143980D01*
Y333000D01*
X144058Y332610D01*
X144279Y332279D01*
X150276Y326282D01*
X150204Y326158D01*
X150000Y325395D01*
Y324605D01*
X150204Y323842D01*
X150599Y323158D01*
X151158Y322599D01*
X151842Y322204D01*
X152605Y322000D01*
X153395D01*
X154158Y322204D01*
X154842Y322599D01*
X155401Y323158D01*
X155796Y323842D01*
X156000Y324605D01*
Y325395D01*
X155796Y326158D01*
X155401Y326842D01*
X154842Y327401D01*
X154158Y327796D01*
X153395Y328000D01*
X152605D01*
X151842Y327796D01*
X151718Y327724D01*
X146020Y333422D01*
Y334776D01*
X147370D01*
Y338925D01*
D02*
G37*
G36*
X445395Y334000D02*
X444605D01*
X443842Y333796D01*
X443158Y333401D01*
X442599Y332842D01*
X442204Y332158D01*
X442000Y331395D01*
Y330605D01*
X442204Y329842D01*
X442599Y329158D01*
X443158Y328599D01*
X443842Y328204D01*
X444605Y328000D01*
X445395D01*
X446158Y328204D01*
X446842Y328599D01*
X447401Y329158D01*
X447796Y329842D01*
X448000Y330605D01*
Y331395D01*
X447796Y332158D01*
X447401Y332842D01*
X446842Y333401D01*
X446158Y333796D01*
X445395Y334000D01*
D02*
G37*
G36*
X377395Y320000D02*
X376605D01*
X375842Y319796D01*
X375158Y319401D01*
X374599Y318842D01*
X374204Y318158D01*
X374000Y317395D01*
Y317020D01*
X326833D01*
X326796Y317158D01*
X326401Y317842D01*
X325842Y318401D01*
X325158Y318796D01*
X324395Y319000D01*
X323605D01*
X322842Y318796D01*
X322158Y318401D01*
X321599Y317842D01*
X321204Y317158D01*
X321000Y316395D01*
Y315605D01*
X321204Y314842D01*
X321599Y314158D01*
X322158Y313599D01*
X322842Y313204D01*
X323605Y313000D01*
X324395D01*
X325158Y313204D01*
X325842Y313599D01*
X326401Y314158D01*
X326796Y314842D01*
X326833Y314980D01*
X374777D01*
X375158Y314599D01*
X375842Y314204D01*
X376605Y314000D01*
X377395D01*
X378158Y314204D01*
X378842Y314599D01*
X379401Y315158D01*
X379796Y315842D01*
X380000Y316605D01*
Y317395D01*
X379796Y318158D01*
X379401Y318842D01*
X378842Y319401D01*
X378158Y319796D01*
X377395Y320000D01*
D02*
G37*
G36*
X344395Y312000D02*
X343605D01*
X342842Y311796D01*
X342158Y311401D01*
X341599Y310842D01*
X341204Y310158D01*
X341000Y309395D01*
Y308605D01*
X341204Y307842D01*
X341599Y307158D01*
X342158Y306599D01*
X342842Y306204D01*
X343605Y306000D01*
X344395D01*
X345158Y306204D01*
X345842Y306599D01*
X346401Y307158D01*
X346796Y307842D01*
X346823Y307944D01*
X367000D01*
Y307605D01*
X367204Y306842D01*
X367599Y306158D01*
X368158Y305599D01*
X368842Y305204D01*
X369605Y305000D01*
X370395D01*
X371158Y305204D01*
X371842Y305599D01*
X372401Y306158D01*
X372796Y306842D01*
X373000Y307605D01*
Y308395D01*
X372796Y309158D01*
X372401Y309842D01*
X371842Y310401D01*
X371158Y310796D01*
X370395Y311000D01*
X369605D01*
X368842Y310796D01*
X368158Y310401D01*
X367740Y309983D01*
X346843D01*
X346796Y310158D01*
X346401Y310842D01*
X345842Y311401D01*
X345158Y311796D01*
X344395Y312000D01*
D02*
G37*
G36*
X542461Y297500D02*
X541539D01*
X540649Y297262D01*
X539851Y296801D01*
X539199Y296149D01*
X538738Y295351D01*
X538500Y294461D01*
Y293539D01*
X538738Y292649D01*
X539199Y291851D01*
X539851Y291199D01*
X540649Y290739D01*
X541539Y290500D01*
X542461D01*
X543351Y290739D01*
X544149Y291199D01*
X544801Y291851D01*
X545261Y292649D01*
X545500Y293539D01*
Y294461D01*
X545261Y295351D01*
X544801Y296149D01*
X544149Y296801D01*
X543351Y297262D01*
X542461Y297500D01*
D02*
G37*
G36*
X535500D02*
X528500D01*
Y290500D01*
X535500D01*
Y297500D01*
D02*
G37*
G36*
X277395Y285000D02*
X276605D01*
X275842Y284796D01*
X275158Y284401D01*
X274599Y283842D01*
X274204Y283158D01*
X274167Y283020D01*
X233833D01*
X233796Y283158D01*
X233401Y283842D01*
X232842Y284401D01*
X232158Y284796D01*
X231395Y285000D01*
X230605D01*
X229842Y284796D01*
X229158Y284401D01*
X228599Y283842D01*
X228204Y283158D01*
X228000Y282395D01*
Y281605D01*
X228204Y280842D01*
X228599Y280158D01*
X229158Y279599D01*
X229842Y279204D01*
X230605Y279000D01*
X231395D01*
X232158Y279204D01*
X232842Y279599D01*
X233401Y280158D01*
X233796Y280842D01*
X233833Y280980D01*
X274167D01*
X274204Y280842D01*
X274599Y280158D01*
X275158Y279599D01*
X275842Y279204D01*
X276605Y279000D01*
X277395D01*
X278158Y279204D01*
X278842Y279599D01*
X279401Y280158D01*
X279796Y280842D01*
X280000Y281605D01*
Y282395D01*
X279796Y283158D01*
X279401Y283842D01*
X278842Y284401D01*
X278158Y284796D01*
X277395Y285000D01*
D02*
G37*
G36*
X542461Y287500D02*
X541539D01*
X540649Y287262D01*
X539851Y286801D01*
X539199Y286149D01*
X538738Y285351D01*
X538500Y284461D01*
Y283539D01*
X538738Y282649D01*
X539199Y281851D01*
X539851Y281199D01*
X540649Y280738D01*
X541539Y280500D01*
X542461D01*
X543351Y280738D01*
X544149Y281199D01*
X544801Y281851D01*
X545261Y282649D01*
X545500Y283539D01*
Y284461D01*
X545261Y285351D01*
X544801Y286149D01*
X544149Y286801D01*
X543351Y287262D01*
X542461Y287500D01*
D02*
G37*
G36*
X532461D02*
X531539D01*
X530649Y287262D01*
X529851Y286801D01*
X529199Y286149D01*
X528738Y285351D01*
X528500Y284461D01*
Y283539D01*
X528738Y282649D01*
X529199Y281851D01*
X529851Y281199D01*
X530649Y280738D01*
X531539Y280500D01*
X532461D01*
X533351Y280738D01*
X534149Y281199D01*
X534801Y281851D01*
X535261Y282649D01*
X535500Y283539D01*
Y284461D01*
X535261Y285351D01*
X534801Y286149D01*
X534149Y286801D01*
X533351Y287262D01*
X532461Y287500D01*
D02*
G37*
G36*
X542461Y277500D02*
X541539D01*
X540649Y277261D01*
X539851Y276801D01*
X539199Y276149D01*
X538738Y275351D01*
X538500Y274461D01*
Y273539D01*
X538738Y272649D01*
X539199Y271851D01*
X539851Y271199D01*
X540649Y270739D01*
X541539Y270500D01*
X542461D01*
X543351Y270739D01*
X544149Y271199D01*
X544801Y271851D01*
X545261Y272649D01*
X545500Y273539D01*
Y274461D01*
X545261Y275351D01*
X544801Y276149D01*
X544149Y276801D01*
X543351Y277261D01*
X542461Y277500D01*
D02*
G37*
G36*
X532461D02*
X531539D01*
X530649Y277261D01*
X529851Y276801D01*
X529199Y276149D01*
X528738Y275351D01*
X528500Y274461D01*
Y273539D01*
X528738Y272649D01*
X529199Y271851D01*
X529851Y271199D01*
X530649Y270739D01*
X531539Y270500D01*
X532461D01*
X533351Y270739D01*
X534149Y271199D01*
X534801Y271851D01*
X535261Y272649D01*
X535500Y273539D01*
Y274461D01*
X535261Y275351D01*
X534801Y276149D01*
X534149Y276801D01*
X533351Y277261D01*
X532461Y277500D01*
D02*
G37*
G36*
X126395Y274000D02*
X125605D01*
X124842Y273796D01*
X124158Y273401D01*
X123599Y272842D01*
X123204Y272158D01*
X123000Y271395D01*
Y270605D01*
X123204Y269842D01*
X123599Y269158D01*
X124158Y268599D01*
X124842Y268204D01*
X125605Y268000D01*
X126395D01*
X127158Y268204D01*
X127842Y268599D01*
X128401Y269158D01*
X128796Y269842D01*
X129000Y270605D01*
Y271395D01*
X128796Y272158D01*
X128401Y272842D01*
X127842Y273401D01*
X127158Y273796D01*
X126395Y274000D01*
D02*
G37*
G36*
X101395D02*
X100605D01*
X99842Y273796D01*
X99158Y273401D01*
X98599Y272842D01*
X98204Y272158D01*
X98000Y271395D01*
Y270605D01*
X98204Y269842D01*
X98599Y269158D01*
X99158Y268599D01*
X99842Y268204D01*
X100605Y268000D01*
X101395D01*
X102158Y268204D01*
X102842Y268599D01*
X103401Y269158D01*
X103796Y269842D01*
X104000Y270605D01*
Y271395D01*
X103796Y272158D01*
X103401Y272842D01*
X102842Y273401D01*
X102158Y273796D01*
X101395Y274000D01*
D02*
G37*
G36*
X89395Y267000D02*
X88605D01*
X87842Y266796D01*
X87158Y266401D01*
X86599Y265842D01*
X86204Y265158D01*
X86000Y264395D01*
Y264020D01*
X74833D01*
X74796Y264158D01*
X74401Y264842D01*
X73842Y265401D01*
X73158Y265796D01*
X72395Y266000D01*
X71605D01*
X70842Y265796D01*
X70158Y265401D01*
X69599Y264842D01*
X69204Y264158D01*
X69000Y263395D01*
Y262605D01*
X69204Y261842D01*
X69599Y261158D01*
X70158Y260599D01*
X70842Y260204D01*
X71605Y260000D01*
X72395D01*
X73158Y260204D01*
X73842Y260599D01*
X74401Y261158D01*
X74796Y261842D01*
X74833Y261980D01*
X86414D01*
X86717Y262041D01*
X87158Y261599D01*
X87842Y261204D01*
X88605Y261000D01*
X88792D01*
X88823Y260844D01*
X89044Y260514D01*
X117779Y231779D01*
X118110Y231558D01*
X118500Y231480D01*
X211221D01*
X212022Y230679D01*
X212000Y230595D01*
Y229805D01*
X212204Y229042D01*
X212599Y228358D01*
X213158Y227799D01*
X213842Y227404D01*
X214605Y227200D01*
X215395D01*
X216158Y227404D01*
X216842Y227799D01*
X217401Y228358D01*
X217796Y229042D01*
X218000Y229805D01*
Y230595D01*
X217796Y231358D01*
X217401Y232042D01*
X216842Y232601D01*
X216158Y232996D01*
X215395Y233200D01*
X214605D01*
X213842Y232996D01*
X213158Y232601D01*
X213071Y232514D01*
X212364Y233221D01*
X212033Y233442D01*
X211643Y233520D01*
X118922D01*
X90842Y261600D01*
X91401Y262158D01*
X91796Y262842D01*
X92000Y263605D01*
Y264395D01*
X91796Y265158D01*
X91401Y265842D01*
X90842Y266401D01*
X90158Y266796D01*
X89395Y267000D01*
D02*
G37*
G36*
X389866Y269677D02*
X389076D01*
X388313Y269473D01*
X387629Y269078D01*
X387070Y268519D01*
X386675Y267835D01*
X386471Y267072D01*
Y266282D01*
X386675Y265519D01*
X387070Y264835D01*
X387629Y264277D01*
X388313Y263882D01*
X389076Y263677D01*
X389866D01*
X390629Y263882D01*
X391313Y264277D01*
X391871Y264835D01*
X392266Y265519D01*
X392471Y266282D01*
Y267072D01*
X392266Y267835D01*
X391871Y268519D01*
X391313Y269078D01*
X390629Y269473D01*
X389866Y269677D01*
D02*
G37*
G36*
X137395Y269000D02*
X136605D01*
X135842Y268796D01*
X135158Y268401D01*
X134599Y267842D01*
X134204Y267158D01*
X134000Y266395D01*
Y265605D01*
X134204Y264842D01*
X134599Y264158D01*
X135158Y263599D01*
X135842Y263204D01*
X136605Y263000D01*
X137395D01*
X138158Y263204D01*
X138842Y263599D01*
X139401Y264158D01*
X139796Y264842D01*
X140000Y265605D01*
Y266395D01*
X139796Y267158D01*
X139401Y267842D01*
X138842Y268401D01*
X138158Y268796D01*
X137395Y269000D01*
D02*
G37*
G36*
X542461Y267500D02*
X541539D01*
X540649Y267262D01*
X539851Y266801D01*
X539199Y266149D01*
X538738Y265351D01*
X538500Y264461D01*
Y263539D01*
X538738Y262649D01*
X539199Y261851D01*
X539851Y261199D01*
X540649Y260738D01*
X541539Y260500D01*
X542461D01*
X543351Y260738D01*
X544149Y261199D01*
X544801Y261851D01*
X545261Y262649D01*
X545500Y263539D01*
Y264461D01*
X545261Y265351D01*
X544801Y266149D01*
X544149Y266801D01*
X543351Y267262D01*
X542461Y267500D01*
D02*
G37*
G36*
X532461D02*
X531539D01*
X530649Y267262D01*
X529851Y266801D01*
X529199Y266149D01*
X528738Y265351D01*
X528500Y264461D01*
Y263539D01*
X528738Y262649D01*
X529199Y261851D01*
X529851Y261199D01*
X530649Y260738D01*
X531539Y260500D01*
X532461D01*
X533351Y260738D01*
X534149Y261199D01*
X534801Y261851D01*
X535261Y262649D01*
X535500Y263539D01*
Y264461D01*
X535261Y265351D01*
X534801Y266149D01*
X534149Y266801D01*
X533351Y267262D01*
X532461Y267500D01*
D02*
G37*
G36*
X220395Y309000D02*
X219605D01*
X218842Y308796D01*
X218158Y308401D01*
X217599Y307842D01*
X217204Y307158D01*
X217000Y306395D01*
Y305605D01*
X217204Y304842D01*
X217599Y304158D01*
X218158Y303599D01*
X218842Y303204D01*
X219309Y303079D01*
Y302672D01*
X219386Y302281D01*
X219607Y301951D01*
X221279Y300279D01*
X221610Y300058D01*
X222000Y299980D01*
X347637D01*
X388279Y259338D01*
X388610Y259117D01*
X389000Y259039D01*
X389367D01*
X389404Y258901D01*
X389799Y258217D01*
X390358Y257658D01*
X391042Y257263D01*
X391805Y257059D01*
X392595D01*
X393358Y257263D01*
X394042Y257658D01*
X394601Y258217D01*
X394996Y258901D01*
X395200Y259664D01*
Y260454D01*
X394996Y261217D01*
X394601Y261901D01*
X394042Y262460D01*
X393358Y262855D01*
X392595Y263059D01*
X391805D01*
X391042Y262855D01*
X390358Y262460D01*
X389799Y261901D01*
X389619Y261589D01*
X388994Y261507D01*
X348780Y301721D01*
X348449Y301942D01*
X348059Y302020D01*
X222422D01*
X221565Y302877D01*
X221630Y303477D01*
X221842Y303599D01*
X222401Y304158D01*
X222796Y304842D01*
X223000Y305605D01*
Y306395D01*
X222796Y307158D01*
X222401Y307842D01*
X221842Y308401D01*
X221158Y308796D01*
X220395Y309000D01*
D02*
G37*
G36*
X542461Y257500D02*
X541539D01*
X540649Y257261D01*
X539851Y256801D01*
X539199Y256149D01*
X538738Y255351D01*
X538500Y254461D01*
Y253539D01*
X538738Y252649D01*
X539199Y251851D01*
X539851Y251199D01*
X540649Y250739D01*
X541539Y250500D01*
X542461D01*
X543351Y250739D01*
X544149Y251199D01*
X544801Y251851D01*
X545261Y252649D01*
X545500Y253539D01*
Y254461D01*
X545261Y255351D01*
X544801Y256149D01*
X544149Y256801D01*
X543351Y257261D01*
X542461Y257500D01*
D02*
G37*
G36*
X532461D02*
X531539D01*
X530649Y257261D01*
X529851Y256801D01*
X529199Y256149D01*
X528738Y255351D01*
X528500Y254461D01*
Y253539D01*
X528738Y252649D01*
X529199Y251851D01*
X529851Y251199D01*
X530649Y250739D01*
X531539Y250500D01*
X532461D01*
X533351Y250739D01*
X534149Y251199D01*
X534801Y251851D01*
X535261Y252649D01*
X535500Y253539D01*
Y254461D01*
X535261Y255351D01*
X534801Y256149D01*
X534149Y256801D01*
X533351Y257261D01*
X532461Y257500D01*
D02*
G37*
G36*
X208395Y263000D02*
X207605D01*
X206842Y262796D01*
X206158Y262401D01*
X205599Y261842D01*
X205204Y261158D01*
X205000Y260395D01*
Y259605D01*
X205204Y258842D01*
X205599Y258158D01*
X206158Y257599D01*
X206842Y257204D01*
X207605Y257000D01*
X208395D01*
X209158Y257204D01*
X209842Y257599D01*
X210066Y257823D01*
X210282Y257780D01*
X370178D01*
X375076Y252882D01*
X375004Y252758D01*
X374800Y251995D01*
Y251205D01*
X375004Y250442D01*
X375399Y249758D01*
X375958Y249199D01*
X376642Y248804D01*
X377405Y248600D01*
X378195D01*
X378958Y248804D01*
X379642Y249199D01*
X380201Y249758D01*
X380596Y250442D01*
X380800Y251205D01*
Y251995D01*
X380596Y252758D01*
X380201Y253442D01*
X379642Y254001D01*
X378958Y254396D01*
X378195Y254600D01*
X377405D01*
X376642Y254396D01*
X376518Y254324D01*
X371321Y259521D01*
X370990Y259742D01*
X370600Y259820D01*
X211000D01*
Y260395D01*
X210796Y261158D01*
X210401Y261842D01*
X209842Y262401D01*
X209158Y262796D01*
X208395Y263000D01*
D02*
G37*
G36*
X206395Y250000D02*
X205605D01*
X204842Y249796D01*
X204158Y249401D01*
X203599Y248842D01*
X203204Y248158D01*
X203167Y248020D01*
X179833D01*
X179796Y248158D01*
X179401Y248842D01*
X178842Y249401D01*
X178158Y249796D01*
X177395Y250000D01*
X176605D01*
X175842Y249796D01*
X175158Y249401D01*
X174599Y248842D01*
X174204Y248158D01*
X174000Y247395D01*
Y246605D01*
X174204Y245842D01*
X174599Y245158D01*
X175158Y244599D01*
X175842Y244204D01*
X176605Y244000D01*
X177395D01*
X178158Y244204D01*
X178842Y244599D01*
X179401Y245158D01*
X179796Y245842D01*
X179833Y245980D01*
X203167D01*
X203204Y245842D01*
X203599Y245158D01*
X204158Y244599D01*
X204842Y244204D01*
X205605Y244000D01*
X206395D01*
X207158Y244204D01*
X207842Y244599D01*
X208401Y245158D01*
X208796Y245842D01*
X209000Y246605D01*
Y247395D01*
X208796Y248158D01*
X208401Y248842D01*
X207842Y249401D01*
X207158Y249796D01*
X206395Y250000D01*
D02*
G37*
G36*
X366732Y252723D02*
X365942D01*
X365179Y252518D01*
X364494Y252123D01*
X363936Y251565D01*
X363541Y250881D01*
X363337Y250118D01*
Y249328D01*
X363541Y248565D01*
X363936Y247881D01*
X364494Y247322D01*
X365179Y246927D01*
X365942Y246723D01*
X366732D01*
X367495Y246927D01*
X368179Y247322D01*
X368737Y247881D01*
X369132Y248565D01*
X369337Y249328D01*
Y250118D01*
X369132Y250881D01*
X368737Y251565D01*
X368179Y252123D01*
X367495Y252518D01*
X366732Y252723D01*
D02*
G37*
G36*
X294395Y243000D02*
X293605D01*
X292842Y242796D01*
X292158Y242401D01*
X291599Y241842D01*
X291204Y241158D01*
X291167Y241020D01*
X159833D01*
X159796Y241158D01*
X159401Y241842D01*
X158842Y242401D01*
X158158Y242796D01*
X157395Y243000D01*
X156605D01*
X155842Y242796D01*
X155158Y242401D01*
X154599Y241842D01*
X154204Y241158D01*
X154000Y240395D01*
Y239605D01*
X154204Y238842D01*
X154599Y238158D01*
X155158Y237599D01*
X155842Y237204D01*
X156605Y237000D01*
X157395D01*
X158158Y237204D01*
X158842Y237599D01*
X159401Y238158D01*
X159796Y238842D01*
X159833Y238980D01*
X291167D01*
X291204Y238842D01*
X291599Y238158D01*
X292158Y237599D01*
X292842Y237204D01*
X293605Y237000D01*
X294395D01*
X295158Y237204D01*
X295842Y237599D01*
X296401Y238158D01*
X296796Y238842D01*
X297000Y239605D01*
Y240395D01*
X296796Y241158D01*
X296401Y241842D01*
X295842Y242401D01*
X295158Y242796D01*
X294395Y243000D01*
D02*
G37*
G36*
X542461Y247500D02*
X541539D01*
X540649Y247262D01*
X539851Y246801D01*
X539199Y246149D01*
X538738Y245351D01*
X538500Y244461D01*
Y243539D01*
X538738Y242649D01*
X539199Y241851D01*
X539851Y241199D01*
X540649Y240739D01*
X541539Y240500D01*
X542461D01*
X543351Y240739D01*
X544149Y241199D01*
X544801Y241851D01*
X545261Y242649D01*
X545500Y243539D01*
Y244461D01*
X545261Y245351D01*
X544801Y246149D01*
X544149Y246801D01*
X543351Y247262D01*
X542461Y247500D01*
D02*
G37*
G36*
X532461D02*
X531539D01*
X530649Y247262D01*
X529851Y246801D01*
X529199Y246149D01*
X528738Y245351D01*
X528500Y244461D01*
Y243539D01*
X528738Y242649D01*
X529199Y241851D01*
X529851Y241199D01*
X530649Y240739D01*
X531539Y240500D01*
X532461D01*
X533351Y240739D01*
X534149Y241199D01*
X534801Y241851D01*
X535261Y242649D01*
X535500Y243539D01*
Y244461D01*
X535261Y245351D01*
X534801Y246149D01*
X534149Y246801D01*
X533351Y247262D01*
X532461Y247500D01*
D02*
G37*
G36*
X542461Y237500D02*
X541539D01*
X540649Y237262D01*
X539851Y236801D01*
X539199Y236149D01*
X538738Y235351D01*
X538500Y234461D01*
Y233539D01*
X538738Y232649D01*
X539199Y231851D01*
X539851Y231199D01*
X540649Y230738D01*
X541539Y230500D01*
X542461D01*
X543351Y230738D01*
X544149Y231199D01*
X544801Y231851D01*
X545261Y232649D01*
X545500Y233539D01*
Y234461D01*
X545261Y235351D01*
X544801Y236149D01*
X544149Y236801D01*
X543351Y237262D01*
X542461Y237500D01*
D02*
G37*
G36*
X532461D02*
X531539D01*
X530649Y237262D01*
X529851Y236801D01*
X529199Y236149D01*
X528738Y235351D01*
X528500Y234461D01*
Y233539D01*
X528738Y232649D01*
X529199Y231851D01*
X529851Y231199D01*
X530649Y230738D01*
X531539Y230500D01*
X532461D01*
X533351Y230738D01*
X534149Y231199D01*
X534801Y231851D01*
X535261Y232649D01*
X535500Y233539D01*
Y234461D01*
X535261Y235351D01*
X534801Y236149D01*
X534149Y236801D01*
X533351Y237262D01*
X532461Y237500D01*
D02*
G37*
G36*
X386370Y338925D02*
X381630D01*
Y334776D01*
X384638D01*
X384649Y334759D01*
X398980Y320428D01*
Y248422D01*
X380378Y229820D01*
X224969D01*
X224748Y230265D01*
X224744Y230302D01*
X224956Y230514D01*
X225177Y230844D01*
X225208Y231000D01*
X225395D01*
X226158Y231204D01*
X226842Y231599D01*
X227401Y232158D01*
X227796Y232842D01*
X228000Y233605D01*
Y234395D01*
X227796Y235158D01*
X227401Y235842D01*
X226842Y236401D01*
X226158Y236796D01*
X225395Y237000D01*
X224605D01*
X223842Y236796D01*
X223158Y236401D01*
X222599Y235842D01*
X222204Y235158D01*
X222000Y234395D01*
Y233605D01*
X222204Y232842D01*
X222599Y232158D01*
X223158Y231600D01*
X212578Y221020D01*
X95422D01*
X82020Y234422D01*
Y247167D01*
X82158Y247204D01*
X82842Y247599D01*
X83401Y248158D01*
X83796Y248842D01*
X84000Y249605D01*
Y250395D01*
X83796Y251158D01*
X83401Y251842D01*
X82842Y252401D01*
X82158Y252796D01*
X81395Y253000D01*
X80605D01*
X79842Y252796D01*
X79158Y252401D01*
X78599Y251842D01*
X78204Y251158D01*
X78000Y250395D01*
Y249605D01*
X78204Y248842D01*
X78599Y248158D01*
X79158Y247599D01*
X79842Y247204D01*
X79980Y247167D01*
Y234000D01*
X80058Y233610D01*
X80279Y233279D01*
X94279Y219279D01*
X94610Y219058D01*
X95000Y218980D01*
X160531D01*
X160738Y218480D01*
X160599Y218342D01*
X160204Y217658D01*
X160000Y216895D01*
Y216105D01*
X160204Y215342D01*
X160276Y215218D01*
X148378Y203320D01*
X96600D01*
X96210Y203242D01*
X95879Y203021D01*
X78878Y186020D01*
X30600D01*
X30534Y186520D01*
X31351Y186739D01*
X32149Y187199D01*
X32801Y187851D01*
X33261Y188649D01*
X33500Y189539D01*
Y190461D01*
X33261Y191351D01*
X32801Y192149D01*
X32149Y192801D01*
X31351Y193262D01*
X30461Y193500D01*
X29539D01*
X28649Y193262D01*
X27851Y192801D01*
X27199Y192149D01*
X26739Y191351D01*
X26500Y190461D01*
Y189539D01*
X26739Y188649D01*
X27199Y187851D01*
X27851Y187199D01*
X28649Y186739D01*
X29466Y186520D01*
X29400Y186020D01*
X23547D01*
X23500Y186500D01*
X23500Y186520D01*
Y193500D01*
X16500D01*
Y186508D01*
X16500Y186500D01*
X16496Y186002D01*
X16196Y185942D01*
X15865Y185721D01*
X15279Y185135D01*
X15058Y184804D01*
X14980Y184414D01*
Y136900D01*
X15058Y136510D01*
X15279Y136179D01*
X17179Y134279D01*
X17510Y134058D01*
X17900Y133980D01*
X19400D01*
X19466Y133480D01*
X18649Y133262D01*
X17851Y132801D01*
X17199Y132149D01*
X16738Y131351D01*
X16500Y130461D01*
Y129539D01*
X16738Y128649D01*
X17199Y127851D01*
X17851Y127199D01*
X18649Y126739D01*
X19539Y126500D01*
X20461D01*
X21351Y126739D01*
X22149Y127199D01*
X22801Y127851D01*
X23261Y128649D01*
X23500Y129539D01*
Y130461D01*
X23261Y131351D01*
X22801Y132149D01*
X22149Y132801D01*
X21351Y133262D01*
X20534Y133480D01*
X20600Y133980D01*
X29400D01*
X29466Y133480D01*
X28649Y133262D01*
X27851Y132801D01*
X27199Y132149D01*
X26739Y131351D01*
X26500Y130461D01*
Y129539D01*
X26739Y128649D01*
X27199Y127851D01*
X27851Y127199D01*
X28649Y126739D01*
X29539Y126500D01*
X30461D01*
X31351Y126739D01*
X32149Y127199D01*
X32801Y127851D01*
X33261Y128649D01*
X33500Y129539D01*
Y130461D01*
X33261Y131351D01*
X32801Y132149D01*
X32149Y132801D01*
X31351Y133262D01*
X30534Y133480D01*
X30600Y133980D01*
X85578D01*
X109779Y109779D01*
X110110Y109558D01*
X110500Y109480D01*
X201167D01*
X201204Y109342D01*
X201599Y108658D01*
X202158Y108099D01*
X202842Y107704D01*
X203605Y107500D01*
X204395D01*
X205158Y107704D01*
X205842Y108099D01*
X206401Y108658D01*
X206796Y109342D01*
X207000Y110105D01*
Y110895D01*
X206796Y111658D01*
X206401Y112342D01*
X205842Y112901D01*
X205158Y113296D01*
X204395Y113500D01*
X203605D01*
X202842Y113296D01*
X202158Y112901D01*
X201599Y112342D01*
X201204Y111658D01*
X201167Y111520D01*
X110922D01*
X86721Y135721D01*
X86390Y135942D01*
X86000Y136020D01*
X30600D01*
X30534Y136520D01*
X31351Y136739D01*
X32149Y137199D01*
X32801Y137851D01*
X33261Y138649D01*
X33500Y139539D01*
Y140461D01*
X33261Y141351D01*
X32801Y142149D01*
X32149Y142801D01*
X31351Y143262D01*
X30461Y143500D01*
X29539D01*
X28649Y143262D01*
X27851Y142801D01*
X27199Y142149D01*
X26739Y141351D01*
X26500Y140461D01*
Y139539D01*
X26739Y138649D01*
X27199Y137851D01*
X27851Y137199D01*
X28649Y136739D01*
X29466Y136520D01*
X29400Y136020D01*
X20600D01*
X20534Y136520D01*
X21351Y136739D01*
X22149Y137199D01*
X22801Y137851D01*
X23261Y138649D01*
X23500Y139539D01*
Y140461D01*
X23261Y141351D01*
X22801Y142149D01*
X22149Y142801D01*
X21351Y143262D01*
X20461Y143500D01*
X19539D01*
X18649Y143262D01*
X17851Y142801D01*
X17520Y142469D01*
X17020Y142676D01*
Y147324D01*
X17520Y147531D01*
X17851Y147199D01*
X18649Y146739D01*
X19539Y146500D01*
X20461D01*
X21351Y146739D01*
X22149Y147199D01*
X22801Y147851D01*
X23261Y148649D01*
X23500Y149539D01*
Y150461D01*
X23261Y151351D01*
X22801Y152149D01*
X22149Y152801D01*
X21351Y153261D01*
X20461Y153500D01*
X19539D01*
X18649Y153261D01*
X17851Y152801D01*
X17520Y152469D01*
X17020Y152676D01*
Y157324D01*
X17520Y157531D01*
X17851Y157199D01*
X18649Y156738D01*
X19539Y156500D01*
X20461D01*
X21351Y156738D01*
X22149Y157199D01*
X22801Y157851D01*
X23261Y158649D01*
X23500Y159539D01*
Y160461D01*
X23261Y161351D01*
X22801Y162149D01*
X22149Y162801D01*
X21351Y163261D01*
X20461Y163500D01*
X19539D01*
X18649Y163261D01*
X17851Y162801D01*
X17520Y162469D01*
X17020Y162676D01*
Y167324D01*
X17520Y167531D01*
X17851Y167199D01*
X18649Y166738D01*
X19539Y166500D01*
X20461D01*
X21351Y166738D01*
X22149Y167199D01*
X22801Y167851D01*
X23261Y168649D01*
X23500Y169539D01*
Y170461D01*
X23261Y171351D01*
X22801Y172149D01*
X22149Y172801D01*
X21351Y173261D01*
X20461Y173500D01*
X19539D01*
X18649Y173261D01*
X17851Y172801D01*
X17520Y172469D01*
X17020Y172676D01*
Y177324D01*
X17520Y177531D01*
X17851Y177199D01*
X18649Y176739D01*
X19539Y176500D01*
X20461D01*
X21351Y176739D01*
X21648Y176910D01*
X24279Y174279D01*
X24610Y174058D01*
X25000Y173980D01*
X29400D01*
X29466Y173480D01*
X28649Y173261D01*
X27851Y172801D01*
X27199Y172149D01*
X26739Y171351D01*
X26500Y170461D01*
Y169539D01*
X26739Y168649D01*
X27199Y167851D01*
X27851Y167199D01*
X28649Y166738D01*
X29539Y166500D01*
X30461D01*
X31351Y166738D01*
X32149Y167199D01*
X32801Y167851D01*
X33261Y168649D01*
X33500Y169539D01*
Y170461D01*
X33261Y171351D01*
X32801Y172149D01*
X32149Y172801D01*
X31351Y173261D01*
X30534Y173480D01*
X30600Y173980D01*
X86547D01*
Y171547D01*
X93453D01*
Y177011D01*
X102722Y186280D01*
X140000D01*
X140390Y186358D01*
X140721Y186579D01*
X171622Y217480D01*
X214500D01*
X214890Y217558D01*
X215221Y217779D01*
X225222Y227780D01*
X380800D01*
X381190Y227858D01*
X381521Y228079D01*
X400721Y247279D01*
X400942Y247610D01*
X401020Y248000D01*
Y320850D01*
X400942Y321241D01*
X400721Y321571D01*
X386370Y335922D01*
Y338925D01*
D02*
G37*
G36*
X147395Y229000D02*
X146605D01*
X145842Y228796D01*
X145158Y228401D01*
X144599Y227842D01*
X144204Y227158D01*
X144167Y227020D01*
X128833D01*
X128796Y227158D01*
X128401Y227842D01*
X127842Y228401D01*
X127158Y228796D01*
X126395Y229000D01*
X125605D01*
X124842Y228796D01*
X124158Y228401D01*
X123599Y227842D01*
X123204Y227158D01*
X123000Y226395D01*
Y225605D01*
X123204Y224842D01*
X123599Y224158D01*
X124158Y223599D01*
X124842Y223204D01*
X125605Y223000D01*
X126395D01*
X127158Y223204D01*
X127842Y223599D01*
X128401Y224158D01*
X128796Y224842D01*
X128833Y224980D01*
X144167D01*
X144204Y224842D01*
X144599Y224158D01*
X145158Y223599D01*
X145842Y223204D01*
X146605Y223000D01*
X147395D01*
X148158Y223204D01*
X148842Y223599D01*
X149401Y224158D01*
X149796Y224842D01*
X150000Y225605D01*
Y226395D01*
X149796Y227158D01*
X149401Y227842D01*
X148842Y228401D01*
X148158Y228796D01*
X147395Y229000D01*
D02*
G37*
G36*
X100395Y233000D02*
X99605D01*
X98842Y232796D01*
X98158Y232401D01*
X97599Y231842D01*
X97204Y231158D01*
X97000Y230395D01*
Y229605D01*
X97204Y228842D01*
X97599Y228158D01*
X98158Y227599D01*
X98842Y227204D01*
X99605Y227000D01*
X100395D01*
X101158Y227204D01*
X101842Y227599D01*
X102401Y228158D01*
X102796Y228842D01*
X103000Y229605D01*
Y230395D01*
X102796Y231158D01*
X102401Y231842D01*
X101842Y232401D01*
X101158Y232796D01*
X100395Y233000D01*
D02*
G37*
G36*
X542461Y227500D02*
X541539D01*
X540649Y227261D01*
X539851Y226801D01*
X539199Y226149D01*
X538738Y225351D01*
X538500Y224461D01*
Y223539D01*
X538738Y222649D01*
X539199Y221851D01*
X539851Y221199D01*
X540649Y220739D01*
X541539Y220500D01*
X542461D01*
X543351Y220739D01*
X544149Y221199D01*
X544801Y221851D01*
X545261Y222649D01*
X545500Y223539D01*
Y224461D01*
X545261Y225351D01*
X544801Y226149D01*
X544149Y226801D01*
X543351Y227261D01*
X542461Y227500D01*
D02*
G37*
G36*
X532461D02*
X531539D01*
X530649Y227261D01*
X529851Y226801D01*
X529199Y226149D01*
X528738Y225351D01*
X528500Y224461D01*
Y223539D01*
X528738Y222649D01*
X529199Y221851D01*
X529851Y221199D01*
X530649Y220739D01*
X531539Y220500D01*
X532461D01*
X533351Y220739D01*
X534149Y221199D01*
X534801Y221851D01*
X535261Y222649D01*
X535500Y223539D01*
Y224461D01*
X535261Y225351D01*
X534801Y226149D01*
X534149Y226801D01*
X533351Y227261D01*
X532461Y227500D01*
D02*
G37*
G36*
X254895Y222300D02*
X254105D01*
X253342Y222096D01*
X252658Y221701D01*
X252099Y221142D01*
X251704Y220458D01*
X251500Y219695D01*
Y218905D01*
X251704Y218142D01*
X251776Y218018D01*
X250778Y217020D01*
X221400D01*
X221010Y216942D01*
X220679Y216721D01*
X150078Y146120D01*
X147644D01*
X147401Y146542D01*
X146842Y147101D01*
X146158Y147496D01*
X145395Y147700D01*
X144605D01*
X143842Y147496D01*
X143158Y147101D01*
X142599Y146542D01*
X142204Y145858D01*
X142000Y145095D01*
Y144305D01*
X142204Y143542D01*
X142599Y142858D01*
X143158Y142299D01*
X143842Y141904D01*
X144605Y141700D01*
X145395D01*
X146158Y141904D01*
X146842Y142299D01*
X147401Y142858D01*
X147796Y143542D01*
X147833Y143680D01*
X150100D01*
X150490Y143758D01*
X150821Y143979D01*
X150922Y144080D01*
X167067D01*
X167104Y143942D01*
X167499Y143258D01*
X168058Y142699D01*
X168742Y142304D01*
X169505Y142100D01*
X170295D01*
X171058Y142304D01*
X171742Y142699D01*
X172301Y143258D01*
X172696Y143942D01*
X172900Y144705D01*
Y145495D01*
X172696Y146258D01*
X172301Y146942D01*
X171742Y147501D01*
X171058Y147896D01*
X170295Y148100D01*
X169505D01*
X168742Y147896D01*
X168058Y147501D01*
X167499Y146942D01*
X167104Y146258D01*
X167067Y146120D01*
X153615D01*
X153424Y146581D01*
X221822Y214980D01*
X251200D01*
X251590Y215058D01*
X251921Y215279D01*
X253218Y216576D01*
X253342Y216504D01*
X254105Y216300D01*
X254895D01*
X255658Y216504D01*
X256342Y216899D01*
X256901Y217458D01*
X257296Y218142D01*
X257500Y218905D01*
Y219695D01*
X257296Y220458D01*
X256901Y221142D01*
X256342Y221701D01*
X255658Y222096D01*
X254895Y222300D01*
D02*
G37*
G36*
X227395Y227000D02*
X226605D01*
X225842Y226796D01*
X225158Y226401D01*
X224599Y225842D01*
X224204Y225158D01*
X224000Y224395D01*
Y223605D01*
X224204Y222842D01*
X224599Y222158D01*
X225158Y221599D01*
X225842Y221204D01*
X226605Y221000D01*
X227395D01*
X228158Y221204D01*
X228842Y221599D01*
X229401Y222158D01*
X229796Y222842D01*
X229833Y222980D01*
X362878D01*
X365576Y220282D01*
X365504Y220158D01*
X365300Y219395D01*
Y218605D01*
X365504Y217842D01*
X365899Y217158D01*
X366458Y216599D01*
X367142Y216204D01*
X367905Y216000D01*
X368695D01*
X369458Y216204D01*
X370142Y216599D01*
X370701Y217158D01*
X371096Y217842D01*
X371300Y218605D01*
Y219395D01*
X371096Y220158D01*
X370701Y220842D01*
X370142Y221401D01*
X369458Y221796D01*
X368695Y222000D01*
X367905D01*
X367142Y221796D01*
X367018Y221724D01*
X364021Y224721D01*
X363690Y224942D01*
X363300Y225020D01*
X229833D01*
X229796Y225158D01*
X229401Y225842D01*
X228842Y226401D01*
X228158Y226796D01*
X227395Y227000D01*
D02*
G37*
G36*
X411955Y222453D02*
X411045D01*
X410167Y222217D01*
X409380Y221763D01*
X408737Y221120D01*
X408283Y220333D01*
X408047Y219455D01*
Y218545D01*
X408283Y217667D01*
X408737Y216880D01*
X409380Y216237D01*
X410167Y215782D01*
X411045Y215547D01*
X411955D01*
X412833Y215782D01*
X413620Y216237D01*
X414263Y216880D01*
X414717Y217667D01*
X414953Y218545D01*
Y219455D01*
X414717Y220333D01*
X414263Y221120D01*
X413620Y221763D01*
X412833Y222217D01*
X411955Y222453D01*
D02*
G37*
G36*
X404953D02*
X398047D01*
Y215547D01*
X404953D01*
Y222453D01*
D02*
G37*
G36*
X354953Y217453D02*
X348047D01*
Y210547D01*
X354953D01*
Y217453D01*
D02*
G37*
G36*
X292453D02*
X285547D01*
Y210547D01*
X292453D01*
Y217453D01*
D02*
G37*
G36*
X411955Y212453D02*
X411045D01*
X410167Y212217D01*
X409380Y211763D01*
X408737Y211120D01*
X408283Y210333D01*
X408047Y209455D01*
Y208545D01*
X408283Y207667D01*
X408737Y206880D01*
X409380Y206237D01*
X410167Y205783D01*
X411045Y205547D01*
X411955D01*
X412833Y205783D01*
X413620Y206237D01*
X414263Y206880D01*
X414717Y207667D01*
X414953Y208545D01*
Y209455D01*
X414717Y210333D01*
X414263Y211120D01*
X413620Y211763D01*
X412833Y212217D01*
X411955Y212453D01*
D02*
G37*
G36*
X401955D02*
X401045D01*
X400167Y212217D01*
X399380Y211763D01*
X398737Y211120D01*
X398283Y210333D01*
X398047Y209455D01*
Y208545D01*
X398283Y207667D01*
X398737Y206880D01*
X399380Y206237D01*
X400167Y205783D01*
X401045Y205547D01*
X401955D01*
X402833Y205783D01*
X403620Y206237D01*
X404263Y206880D01*
X404717Y207667D01*
X404953Y208545D01*
Y209455D01*
X404717Y210333D01*
X404263Y211120D01*
X403620Y211763D01*
X402833Y212217D01*
X401955Y212453D01*
D02*
G37*
G36*
X411955Y202453D02*
X411045D01*
X410167Y202218D01*
X409380Y201763D01*
X408737Y201120D01*
X408283Y200333D01*
X408047Y199455D01*
Y198545D01*
X408283Y197667D01*
X408737Y196880D01*
X409380Y196237D01*
X410167Y195782D01*
X411045Y195547D01*
X411955D01*
X412833Y195782D01*
X413620Y196237D01*
X414263Y196880D01*
X414717Y197667D01*
X414953Y198545D01*
Y199455D01*
X414717Y200333D01*
X414263Y201120D01*
X413620Y201763D01*
X412833Y202218D01*
X411955Y202453D01*
D02*
G37*
G36*
X401955D02*
X401045D01*
X400167Y202218D01*
X399380Y201763D01*
X398737Y201120D01*
X398283Y200333D01*
X398047Y199455D01*
Y198545D01*
X398283Y197667D01*
X398737Y196880D01*
X399380Y196237D01*
X400167Y195782D01*
X401045Y195547D01*
X401955D01*
X402833Y195782D01*
X403620Y196237D01*
X404263Y196880D01*
X404717Y197667D01*
X404953Y198545D01*
Y199455D01*
X404717Y200333D01*
X404263Y201120D01*
X403620Y201763D01*
X402833Y202218D01*
X401955Y202453D01*
D02*
G37*
G36*
X292453D02*
X285547D01*
Y195547D01*
X292453D01*
Y202453D01*
D02*
G37*
G36*
X354953Y197453D02*
X348047D01*
Y190547D01*
X354953D01*
Y197453D01*
D02*
G37*
G36*
X292453Y187453D02*
X285547D01*
Y180547D01*
X290952D01*
X291143Y180085D01*
X246078Y135020D01*
X179833D01*
X179796Y135158D01*
X179401Y135842D01*
X178842Y136401D01*
X178158Y136796D01*
X177395Y137000D01*
X176605D01*
X175842Y136796D01*
X175158Y136401D01*
X174599Y135842D01*
X174204Y135158D01*
X174000Y134395D01*
Y133605D01*
X174204Y132842D01*
X174599Y132158D01*
X175158Y131599D01*
X175842Y131204D01*
X176605Y131000D01*
X177395D01*
X178158Y131204D01*
X178842Y131599D01*
X179401Y132158D01*
X179796Y132842D01*
X179833Y132980D01*
X246500D01*
X246890Y133058D01*
X247221Y133279D01*
X285085Y171143D01*
X285547Y170952D01*
Y165547D01*
X292453D01*
Y172453D01*
X287048D01*
X286857Y172915D01*
X295318Y181376D01*
X295442Y181304D01*
X296205Y181100D01*
X296995D01*
X297758Y181304D01*
X298442Y181699D01*
X299001Y182258D01*
X299396Y182942D01*
X299600Y183705D01*
Y184495D01*
X299396Y185258D01*
X299001Y185942D01*
X298442Y186501D01*
X297758Y186896D01*
X296995Y187100D01*
X296205D01*
X295442Y186896D01*
X294758Y186501D01*
X294199Y185942D01*
X293804Y185258D01*
X293600Y184495D01*
Y183705D01*
X293804Y182942D01*
X293876Y182818D01*
X292915Y181857D01*
X292453Y182048D01*
Y187453D01*
D02*
G37*
G36*
X434370Y338925D02*
X429630D01*
Y334776D01*
X430980D01*
Y190422D01*
X418400Y177842D01*
X417842Y178401D01*
X417158Y178796D01*
X416395Y179000D01*
X415605D01*
X414842Y178796D01*
X414158Y178401D01*
X413599Y177842D01*
X413204Y177158D01*
X413000Y176395D01*
Y175605D01*
X413204Y174842D01*
X413599Y174158D01*
X414158Y173599D01*
X414842Y173204D01*
X415605Y173000D01*
X416395D01*
X417158Y173204D01*
X417842Y173599D01*
X418401Y174158D01*
X418796Y174842D01*
X418983Y175541D01*
X432721Y189279D01*
X432942Y189610D01*
X433020Y190000D01*
Y334776D01*
X434370D01*
Y338925D01*
D02*
G37*
G36*
X226727Y171000D02*
X225937D01*
X225174Y170796D01*
X224490Y170401D01*
X223931Y169842D01*
X223536Y169158D01*
X223499Y169020D01*
X218164D01*
X218127Y169158D01*
X217732Y169842D01*
X217174Y170401D01*
X216490Y170796D01*
X215727Y171000D01*
X214937D01*
X214174Y170796D01*
X213490Y170401D01*
X212931Y169842D01*
X212536Y169158D01*
X212499Y169020D01*
X205702D01*
Y169224D01*
X200961D01*
Y168169D01*
X199702D01*
Y169224D01*
X194962D01*
Y168169D01*
X193702D01*
Y169224D01*
X188962D01*
Y165075D01*
X193702D01*
Y166130D01*
X194962D01*
Y165075D01*
X199702D01*
Y166130D01*
X200961D01*
Y165075D01*
X205702D01*
Y166980D01*
X212499D01*
X212536Y166842D01*
X212931Y166158D01*
X213490Y165599D01*
X214174Y165204D01*
X214937Y165000D01*
X215727D01*
X216490Y165204D01*
X217174Y165599D01*
X217732Y166158D01*
X218127Y166842D01*
X218164Y166980D01*
X223499D01*
X223536Y166842D01*
X223931Y166158D01*
X224490Y165599D01*
X225174Y165204D01*
X225937Y165000D01*
X226727D01*
X227490Y165204D01*
X228174Y165599D01*
X228704Y166130D01*
X230961D01*
Y165075D01*
X235702D01*
Y166130D01*
X236962D01*
Y165075D01*
X241702D01*
Y166130D01*
X242962D01*
Y165075D01*
X247702D01*
Y169224D01*
X242962D01*
Y168169D01*
X241702D01*
Y169224D01*
X236962D01*
Y168169D01*
X235702D01*
Y169224D01*
X230961D01*
Y168169D01*
X229332D01*
Y168395D01*
X229127Y169158D01*
X228732Y169842D01*
X228174Y170401D01*
X227490Y170796D01*
X226727Y171000D01*
D02*
G37*
G36*
X165395D02*
X164605D01*
X163842Y170796D01*
X163158Y170401D01*
X162599Y169842D01*
X162204Y169158D01*
X162000Y168395D01*
Y167605D01*
X162204Y166842D01*
X162276Y166718D01*
X151578Y156020D01*
X108633D01*
X108596Y156158D01*
X108201Y156842D01*
X107642Y157401D01*
X106958Y157796D01*
X106195Y158000D01*
X105405D01*
X104642Y157796D01*
X103958Y157401D01*
X103399Y156842D01*
X103004Y156158D01*
X102800Y155395D01*
Y154605D01*
X103004Y153842D01*
X103399Y153158D01*
X103958Y152599D01*
X104642Y152204D01*
X105405Y152000D01*
X106195D01*
X106958Y152204D01*
X107642Y152599D01*
X108201Y153158D01*
X108596Y153842D01*
X108633Y153980D01*
X152000D01*
X152390Y154058D01*
X152721Y154279D01*
X163718Y165276D01*
X163842Y165204D01*
X164605Y165000D01*
X165395D01*
X166158Y165204D01*
X166842Y165599D01*
X167401Y166158D01*
X167796Y166842D01*
X168000Y167605D01*
Y168395D01*
X167796Y169158D01*
X167401Y169842D01*
X166842Y170401D01*
X166158Y170796D01*
X165395Y171000D01*
D02*
G37*
G36*
X389868Y168800D02*
X389078D01*
X388315Y168596D01*
X387631Y168201D01*
X387072Y167642D01*
X386677Y166958D01*
X386473Y166195D01*
Y165405D01*
X386677Y164642D01*
X387072Y163958D01*
X387631Y163399D01*
X388315Y163004D01*
X389078Y162800D01*
X389868D01*
X390631Y163004D01*
X391315Y163399D01*
X391874Y163958D01*
X392269Y164642D01*
X392473Y165405D01*
Y166195D01*
X392269Y166958D01*
X391874Y167642D01*
X391315Y168201D01*
X390631Y168596D01*
X389868Y168800D01*
D02*
G37*
G36*
X247702Y162925D02*
X242962D01*
Y161870D01*
X241702D01*
Y162925D01*
X236962D01*
Y161870D01*
X235702D01*
Y162925D01*
X230961D01*
Y161870D01*
X223682D01*
X223292Y161792D01*
X222961Y161571D01*
X222114Y160724D01*
X221990Y160796D01*
X221227Y161000D01*
X220437D01*
X219674Y160796D01*
X219178Y160510D01*
X218116Y161571D01*
X217786Y161792D01*
X217395Y161870D01*
X205702D01*
Y162925D01*
X200961D01*
Y161870D01*
X199702D01*
Y162925D01*
X194962D01*
Y161870D01*
X193702D01*
Y162925D01*
X188962D01*
Y158776D01*
X193702D01*
Y159831D01*
X194962D01*
Y158776D01*
X199702D01*
Y159831D01*
X200961D01*
Y158776D01*
X205702D01*
Y159831D01*
X216973D01*
X217954Y158850D01*
X217832Y158395D01*
Y157605D01*
X218036Y156842D01*
X218431Y156158D01*
X218990Y155599D01*
X219674Y155204D01*
X220437Y155000D01*
X221227D01*
X221990Y155204D01*
X222674Y155599D01*
X223232Y156158D01*
X223627Y156842D01*
X223832Y157605D01*
Y158395D01*
X223627Y159158D01*
X223555Y159282D01*
X224104Y159831D01*
X230961D01*
Y158776D01*
X235702D01*
Y159831D01*
X236962D01*
Y158776D01*
X241702D01*
Y159831D01*
X242962D01*
Y158776D01*
X247702D01*
Y162925D01*
D02*
G37*
G36*
X30461Y163500D02*
X29539D01*
X28649Y163261D01*
X27851Y162801D01*
X27199Y162149D01*
X26739Y161351D01*
X26500Y160461D01*
Y159539D01*
X26739Y158649D01*
X27199Y157851D01*
X27851Y157199D01*
X28649Y156738D01*
X29539Y156500D01*
X30461D01*
X31351Y156738D01*
X32149Y157199D01*
X32801Y157851D01*
X33261Y158649D01*
X33500Y159539D01*
Y160461D01*
X33261Y161351D01*
X32801Y162149D01*
X32149Y162801D01*
X31351Y163261D01*
X30461Y163500D01*
D02*
G37*
G36*
X292453Y157453D02*
X285547D01*
Y150547D01*
X292453D01*
Y157453D01*
D02*
G37*
G36*
X30461Y153500D02*
X29539D01*
X28649Y153261D01*
X27851Y152801D01*
X27199Y152149D01*
X26739Y151351D01*
X26500Y150461D01*
Y149539D01*
X26739Y148649D01*
X27199Y147851D01*
X27851Y147199D01*
X28649Y146739D01*
X29539Y146500D01*
X30461D01*
X31351Y146739D01*
X32149Y147199D01*
X32801Y147851D01*
X33261Y148649D01*
X33500Y149539D01*
Y150461D01*
X33261Y151351D01*
X32801Y152149D01*
X32149Y152801D01*
X31351Y153261D01*
X30461Y153500D01*
D02*
G37*
G36*
X544455Y144453D02*
X543545D01*
X542667Y144218D01*
X541880Y143763D01*
X541237Y143120D01*
X540782Y142333D01*
X540547Y141455D01*
Y140545D01*
X540782Y139667D01*
X541237Y138880D01*
X541880Y138237D01*
X542667Y137783D01*
X543545Y137547D01*
X544455D01*
X545333Y137783D01*
X546120Y138237D01*
X546763Y138880D01*
X547218Y139667D01*
X547453Y140545D01*
Y141455D01*
X547218Y142333D01*
X546763Y143120D01*
X546120Y143763D01*
X545333Y144218D01*
X544455Y144453D01*
D02*
G37*
G36*
X534455D02*
X533545D01*
X532667Y144218D01*
X531880Y143763D01*
X531237Y143120D01*
X530783Y142333D01*
X530547Y141455D01*
Y140545D01*
X530783Y139667D01*
X531237Y138880D01*
X531880Y138237D01*
X532667Y137783D01*
X533545Y137547D01*
X534455D01*
X535333Y137783D01*
X536120Y138237D01*
X536763Y138880D01*
X537218Y139667D01*
X537453Y140545D01*
Y141455D01*
X537218Y142333D01*
X536763Y143120D01*
X536120Y143763D01*
X535333Y144218D01*
X534455Y144453D01*
D02*
G37*
G36*
X524455D02*
X523545D01*
X522667Y144218D01*
X521880Y143763D01*
X521237Y143120D01*
X520783Y142333D01*
X520547Y141455D01*
Y140545D01*
X520783Y139667D01*
X521237Y138880D01*
X521880Y138237D01*
X522667Y137783D01*
X523545Y137547D01*
X524455D01*
X525333Y137783D01*
X526120Y138237D01*
X526763Y138880D01*
X527217Y139667D01*
X527453Y140545D01*
Y141455D01*
X527217Y142333D01*
X526763Y143120D01*
X526120Y143763D01*
X525333Y144218D01*
X524455Y144453D01*
D02*
G37*
G36*
X514455D02*
X513545D01*
X512667Y144218D01*
X511880Y143763D01*
X511237Y143120D01*
X510782Y142333D01*
X510547Y141455D01*
Y140545D01*
X510782Y139667D01*
X511237Y138880D01*
X511880Y138237D01*
X512667Y137783D01*
X513545Y137547D01*
X514455D01*
X515333Y137783D01*
X516120Y138237D01*
X516763Y138880D01*
X517217Y139667D01*
X517453Y140545D01*
Y141455D01*
X517217Y142333D01*
X516763Y143120D01*
X516120Y143763D01*
X515333Y144218D01*
X514455Y144453D01*
D02*
G37*
G36*
X504455D02*
X503545D01*
X502667Y144218D01*
X501880Y143763D01*
X501237Y143120D01*
X500782Y142333D01*
X500547Y141455D01*
Y140545D01*
X500782Y139667D01*
X501237Y138880D01*
X501880Y138237D01*
X502667Y137783D01*
X503545Y137547D01*
X504455D01*
X505333Y137783D01*
X506120Y138237D01*
X506763Y138880D01*
X507218Y139667D01*
X507453Y140545D01*
Y141455D01*
X507218Y142333D01*
X506763Y143120D01*
X506120Y143763D01*
X505333Y144218D01*
X504455Y144453D01*
D02*
G37*
G36*
X494455D02*
X493545D01*
X492667Y144218D01*
X491880Y143763D01*
X491237Y143120D01*
X490782Y142333D01*
X490547Y141455D01*
Y140545D01*
X490782Y139667D01*
X491237Y138880D01*
X491880Y138237D01*
X492667Y137783D01*
X493545Y137547D01*
X494455D01*
X495333Y137783D01*
X496120Y138237D01*
X496763Y138880D01*
X497218Y139667D01*
X497453Y140545D01*
Y141455D01*
X497218Y142333D01*
X496763Y143120D01*
X496120Y143763D01*
X495333Y144218D01*
X494455Y144453D01*
D02*
G37*
G36*
X484455D02*
X483545D01*
X482667Y144218D01*
X481880Y143763D01*
X481237Y143120D01*
X480783Y142333D01*
X480547Y141455D01*
Y140545D01*
X480783Y139667D01*
X481237Y138880D01*
X481880Y138237D01*
X482667Y137783D01*
X483545Y137547D01*
X484455D01*
X485333Y137783D01*
X486120Y138237D01*
X486763Y138880D01*
X487218Y139667D01*
X487453Y140545D01*
Y141455D01*
X487218Y142333D01*
X486763Y143120D01*
X486120Y143763D01*
X485333Y144218D01*
X484455Y144453D01*
D02*
G37*
G36*
X474455D02*
X473545D01*
X472667Y144218D01*
X471880Y143763D01*
X471237Y143120D01*
X470783Y142333D01*
X470547Y141455D01*
Y140545D01*
X470783Y139667D01*
X471237Y138880D01*
X471880Y138237D01*
X472667Y137783D01*
X473545Y137547D01*
X474455D01*
X475333Y137783D01*
X476120Y138237D01*
X476763Y138880D01*
X477217Y139667D01*
X477453Y140545D01*
Y141455D01*
X477217Y142333D01*
X476763Y143120D01*
X476120Y143763D01*
X475333Y144218D01*
X474455Y144453D01*
D02*
G37*
G36*
X419453Y142453D02*
X412547D01*
Y135547D01*
X419453D01*
Y142453D01*
D02*
G37*
G36*
X400453D02*
X393547D01*
Y135547D01*
X400453D01*
Y142453D01*
D02*
G37*
G36*
X292453D02*
X285547D01*
Y135547D01*
X292453D01*
Y142453D01*
D02*
G37*
G36*
X544455Y134453D02*
X543545D01*
X542667Y134218D01*
X541880Y133763D01*
X541237Y133120D01*
X540782Y132333D01*
X540547Y131455D01*
Y130545D01*
X540782Y129667D01*
X540890Y129481D01*
X538279Y126871D01*
X538058Y126540D01*
X537980Y126150D01*
Y111150D01*
X538058Y110759D01*
X538279Y110429D01*
X542980Y105727D01*
Y71833D01*
X542842Y71796D01*
X542158Y71401D01*
X541599Y70842D01*
X541204Y70158D01*
X541000Y69395D01*
Y68605D01*
X541204Y67842D01*
X541599Y67158D01*
X542158Y66599D01*
X542842Y66204D01*
X543605Y66000D01*
X544395D01*
X545158Y66204D01*
X545842Y66599D01*
X546401Y67158D01*
X546796Y67842D01*
X547000Y68605D01*
Y69395D01*
X546796Y70158D01*
X546401Y70842D01*
X545842Y71401D01*
X545158Y71796D01*
X545020Y71833D01*
Y106150D01*
X544942Y106540D01*
X544721Y106871D01*
X540020Y111572D01*
Y125727D01*
X542292Y127999D01*
X542667Y127782D01*
X543545Y127547D01*
X544455D01*
X545333Y127782D01*
X546120Y128237D01*
X546763Y128880D01*
X547218Y129667D01*
X547453Y130545D01*
Y131455D01*
X547218Y132333D01*
X546763Y133120D01*
X546120Y133763D01*
X545333Y134218D01*
X544455Y134453D01*
D02*
G37*
G36*
X534455D02*
X533545D01*
X532667Y134218D01*
X531880Y133763D01*
X531237Y133120D01*
X530783Y132333D01*
X530547Y131455D01*
Y130545D01*
X530783Y129667D01*
X530890Y129481D01*
X528279Y126871D01*
X528058Y126540D01*
X527980Y126150D01*
Y111150D01*
X528058Y110759D01*
X528279Y110429D01*
X532980Y105727D01*
Y88791D01*
X532480Y88657D01*
X532201Y89142D01*
X531642Y89701D01*
X530958Y90096D01*
X530195Y90300D01*
X529405D01*
X528642Y90096D01*
X527958Y89701D01*
X527399Y89142D01*
X527004Y88458D01*
X526800Y87695D01*
Y86905D01*
X527004Y86142D01*
X527399Y85458D01*
X527958Y84899D01*
X528642Y84504D01*
X528780Y84467D01*
Y67200D01*
X528858Y66810D01*
X529079Y66479D01*
X532279Y63279D01*
X532610Y63058D01*
X533000Y62980D01*
X549667D01*
X549704Y62842D01*
X550099Y62158D01*
X550658Y61599D01*
X551342Y61204D01*
X552105Y61000D01*
X552895D01*
X553658Y61204D01*
X554342Y61599D01*
X554901Y62158D01*
X555296Y62842D01*
X555500Y63605D01*
Y64395D01*
X555296Y65158D01*
X554901Y65842D01*
X554342Y66401D01*
X553658Y66796D01*
X552895Y67000D01*
X552105D01*
X551342Y66796D01*
X550658Y66401D01*
X550099Y65842D01*
X549704Y65158D01*
X549667Y65020D01*
X533422D01*
X532723Y65719D01*
X532982Y66167D01*
X533605Y66000D01*
X534395D01*
X535158Y66204D01*
X535842Y66599D01*
X536401Y67158D01*
X536796Y67842D01*
X537000Y68605D01*
Y69395D01*
X536796Y70158D01*
X536401Y70842D01*
X535842Y71401D01*
X535158Y71796D01*
X535020Y71833D01*
Y106150D01*
X534942Y106540D01*
X534721Y106871D01*
X530020Y111572D01*
Y125727D01*
X532292Y127999D01*
X532667Y127782D01*
X533545Y127547D01*
X534455D01*
X535333Y127782D01*
X536120Y128237D01*
X536763Y128880D01*
X537218Y129667D01*
X537453Y130545D01*
Y131455D01*
X537218Y132333D01*
X536763Y133120D01*
X536120Y133763D01*
X535333Y134218D01*
X534455Y134453D01*
D02*
G37*
G36*
X484455D02*
X483545D01*
X482667Y134218D01*
X481880Y133763D01*
X481237Y133120D01*
X480783Y132333D01*
X480547Y131455D01*
Y130545D01*
X480633Y130225D01*
X478279Y127871D01*
X478058Y127540D01*
X477980Y127150D01*
Y111150D01*
X478058Y110759D01*
X478279Y110429D01*
X482980Y105727D01*
Y71833D01*
X482842Y71796D01*
X482158Y71401D01*
X481599Y70842D01*
X481204Y70158D01*
X481000Y69395D01*
Y68605D01*
X481204Y67842D01*
X481599Y67158D01*
X482158Y66599D01*
X482842Y66204D01*
X483605Y66000D01*
X484395D01*
X485158Y66204D01*
X485842Y66599D01*
X486401Y67158D01*
X486796Y67842D01*
X487000Y68605D01*
Y69395D01*
X486796Y70158D01*
X486401Y70842D01*
X485842Y71401D01*
X485158Y71796D01*
X485020Y71833D01*
Y106150D01*
X484942Y106540D01*
X484721Y106871D01*
X480020Y111572D01*
Y126727D01*
X481705Y128412D01*
X481880Y128237D01*
X482667Y127782D01*
X483545Y127547D01*
X484455D01*
X485333Y127782D01*
X486120Y128237D01*
X486763Y128880D01*
X487218Y129667D01*
X487453Y130545D01*
Y131455D01*
X487218Y132333D01*
X486763Y133120D01*
X486120Y133763D01*
X485333Y134218D01*
X484455Y134453D01*
D02*
G37*
G36*
X371370Y126776D02*
X366630D01*
Y125720D01*
X364370D01*
Y126776D01*
X359630D01*
Y125720D01*
X351600D01*
X351210Y125643D01*
X350879Y125422D01*
X350658Y125091D01*
X350580Y124701D01*
Y123976D01*
X346071D01*
Y123720D01*
X340700D01*
X340310Y123642D01*
X339979Y123421D01*
X338578Y122020D01*
X334833D01*
X334796Y122158D01*
X334401Y122842D01*
X333842Y123401D01*
X333158Y123796D01*
X332395Y124000D01*
X331605D01*
X330842Y123796D01*
X330158Y123401D01*
X329599Y122842D01*
X329204Y122158D01*
X329000Y121395D01*
Y120605D01*
X329204Y119842D01*
X329599Y119158D01*
X330158Y118599D01*
X330842Y118204D01*
X331605Y118000D01*
X332395D01*
X333158Y118204D01*
X333842Y118599D01*
X334401Y119158D01*
X334796Y119842D01*
X334833Y119980D01*
X339000D01*
X339390Y120058D01*
X339721Y120279D01*
X341122Y121680D01*
X346071D01*
Y113724D01*
X355929D01*
Y123681D01*
X359630D01*
Y122626D01*
X364370D01*
Y123681D01*
X366630D01*
Y122626D01*
X367980D01*
Y114683D01*
X367842Y114646D01*
X367158Y114251D01*
X366599Y113692D01*
X366204Y113008D01*
X366000Y112245D01*
Y111455D01*
X366204Y110692D01*
X366599Y110008D01*
X367158Y109450D01*
X367842Y109055D01*
X368605Y108850D01*
X369395D01*
X370158Y109055D01*
X370842Y109450D01*
X371401Y110008D01*
X371796Y110692D01*
X372000Y111455D01*
Y112245D01*
X371796Y113008D01*
X371401Y113692D01*
X370842Y114251D01*
X370158Y114646D01*
X370020Y114683D01*
Y122626D01*
X371370D01*
Y126776D01*
D02*
G37*
G36*
X409395Y120850D02*
X408605D01*
X407842Y120646D01*
X407158Y120251D01*
X406599Y119693D01*
X406204Y119008D01*
X406167Y118870D01*
X385833D01*
X385796Y119008D01*
X385401Y119693D01*
X384842Y120251D01*
X384158Y120646D01*
X383395Y120850D01*
X382605D01*
X381842Y120646D01*
X381158Y120251D01*
X380599Y119693D01*
X380204Y119008D01*
X380000Y118245D01*
Y117455D01*
X380204Y116692D01*
X380599Y116008D01*
X381158Y115450D01*
X381842Y115055D01*
X382605Y114850D01*
X383395D01*
X384158Y115055D01*
X384842Y115450D01*
X385401Y116008D01*
X385796Y116692D01*
X385833Y116831D01*
X406167D01*
X406204Y116692D01*
X406599Y116008D01*
X407158Y115450D01*
X407842Y115055D01*
X408605Y114850D01*
X409395D01*
X410158Y115055D01*
X410842Y115450D01*
X411401Y116008D01*
X411796Y116692D01*
X412000Y117455D01*
Y118245D01*
X411796Y119008D01*
X411401Y119693D01*
X410842Y120251D01*
X410158Y120646D01*
X409395Y120850D01*
D02*
G37*
G36*
X544455Y124453D02*
X543545D01*
X542667Y124217D01*
X541880Y123763D01*
X541237Y123120D01*
X540782Y122333D01*
X540547Y121455D01*
Y120545D01*
X540782Y119667D01*
X541237Y118880D01*
X541880Y118237D01*
X542667Y117782D01*
X543545Y117547D01*
X544455D01*
X545333Y117782D01*
X546120Y118237D01*
X546763Y118880D01*
X547218Y119667D01*
X547453Y120545D01*
Y121455D01*
X547218Y122333D01*
X546763Y123120D01*
X546120Y123763D01*
X545333Y124217D01*
X544455Y124453D01*
D02*
G37*
G36*
X534455D02*
X533545D01*
X532667Y124217D01*
X531880Y123763D01*
X531237Y123120D01*
X530783Y122333D01*
X530547Y121455D01*
Y120545D01*
X530783Y119667D01*
X531237Y118880D01*
X531880Y118237D01*
X532667Y117782D01*
X533545Y117547D01*
X534455D01*
X535333Y117782D01*
X536120Y118237D01*
X536763Y118880D01*
X537218Y119667D01*
X537453Y120545D01*
Y121455D01*
X537218Y122333D01*
X536763Y123120D01*
X536120Y123763D01*
X535333Y124217D01*
X534455Y124453D01*
D02*
G37*
G36*
X524455D02*
X523545D01*
X522667Y124217D01*
X521880Y123763D01*
X521237Y123120D01*
X520783Y122333D01*
X520547Y121455D01*
Y120545D01*
X520783Y119667D01*
X521237Y118880D01*
X521880Y118237D01*
X522667Y117782D01*
X523545Y117547D01*
X524455D01*
X525333Y117782D01*
X526120Y118237D01*
X526763Y118880D01*
X527217Y119667D01*
X527453Y120545D01*
Y121455D01*
X527217Y122333D01*
X526763Y123120D01*
X526120Y123763D01*
X525333Y124217D01*
X524455Y124453D01*
D02*
G37*
G36*
X514455D02*
X513545D01*
X512667Y124217D01*
X511880Y123763D01*
X511237Y123120D01*
X510782Y122333D01*
X510547Y121455D01*
Y120545D01*
X510782Y119667D01*
X511237Y118880D01*
X511880Y118237D01*
X512667Y117782D01*
X513545Y117547D01*
X514455D01*
X515333Y117782D01*
X516120Y118237D01*
X516763Y118880D01*
X517217Y119667D01*
X517453Y120545D01*
Y121455D01*
X517217Y122333D01*
X516763Y123120D01*
X516120Y123763D01*
X515333Y124217D01*
X514455Y124453D01*
D02*
G37*
G36*
X504455D02*
X503545D01*
X502667Y124217D01*
X501880Y123763D01*
X501237Y123120D01*
X500782Y122333D01*
X500547Y121455D01*
Y120545D01*
X500782Y119667D01*
X501237Y118880D01*
X501880Y118237D01*
X502667Y117782D01*
X503545Y117547D01*
X504455D01*
X505333Y117782D01*
X506120Y118237D01*
X506763Y118880D01*
X507218Y119667D01*
X507453Y120545D01*
Y121455D01*
X507218Y122333D01*
X506763Y123120D01*
X506120Y123763D01*
X505333Y124217D01*
X504455Y124453D01*
D02*
G37*
G36*
X494455D02*
X493545D01*
X492667Y124217D01*
X491880Y123763D01*
X491237Y123120D01*
X490782Y122333D01*
X490547Y121455D01*
Y120545D01*
X490782Y119667D01*
X491237Y118880D01*
X491880Y118237D01*
X492667Y117782D01*
X493545Y117547D01*
X494455D01*
X495333Y117782D01*
X496120Y118237D01*
X496763Y118880D01*
X497218Y119667D01*
X497453Y120545D01*
Y121455D01*
X497218Y122333D01*
X496763Y123120D01*
X496120Y123763D01*
X495333Y124217D01*
X494455Y124453D01*
D02*
G37*
G36*
X484455D02*
X483545D01*
X482667Y124217D01*
X481880Y123763D01*
X481237Y123120D01*
X480783Y122333D01*
X480547Y121455D01*
Y120545D01*
X480783Y119667D01*
X481237Y118880D01*
X481880Y118237D01*
X482667Y117782D01*
X483545Y117547D01*
X484455D01*
X485333Y117782D01*
X486120Y118237D01*
X486763Y118880D01*
X487218Y119667D01*
X487453Y120545D01*
Y121455D01*
X487218Y122333D01*
X486763Y123120D01*
X486120Y123763D01*
X485333Y124217D01*
X484455Y124453D01*
D02*
G37*
G36*
X477453D02*
X470547D01*
Y117547D01*
X477453D01*
Y124453D01*
D02*
G37*
G36*
X30461Y123500D02*
X29539D01*
X28649Y123261D01*
X27851Y122801D01*
X27199Y122149D01*
X26739Y121351D01*
X26500Y120461D01*
Y119539D01*
X26739Y118649D01*
X27199Y117851D01*
X27851Y117199D01*
X28649Y116738D01*
X29539Y116500D01*
X30461D01*
X31351Y116738D01*
X32149Y117199D01*
X32801Y117851D01*
X33261Y118649D01*
X33500Y119539D01*
Y120461D01*
X33261Y121351D01*
X32801Y122149D01*
X32149Y122801D01*
X31351Y123261D01*
X30461Y123500D01*
D02*
G37*
G36*
X20461D02*
X19539D01*
X18649Y123261D01*
X17851Y122801D01*
X17199Y122149D01*
X16738Y121351D01*
X16500Y120461D01*
Y119539D01*
X16738Y118649D01*
X17199Y117851D01*
X17851Y117199D01*
X18649Y116738D01*
X19539Y116500D01*
X20461D01*
X21351Y116738D01*
X22149Y117199D01*
X22801Y117851D01*
X23261Y118649D01*
X23500Y119539D01*
Y120461D01*
X23261Y121351D01*
X22801Y122149D01*
X22149Y122801D01*
X21351Y123261D01*
X20461Y123500D01*
D02*
G37*
G36*
X397395Y111500D02*
X396605D01*
X395842Y111296D01*
X395158Y110901D01*
X394599Y110342D01*
X394204Y109658D01*
X394000Y108895D01*
Y108105D01*
X394204Y107342D01*
X394599Y106658D01*
X395158Y106099D01*
X395842Y105704D01*
X396605Y105500D01*
X397395D01*
X398158Y105704D01*
X398842Y106099D01*
X399401Y106658D01*
X399796Y107342D01*
X400000Y108105D01*
Y108895D01*
X399796Y109658D01*
X399401Y110342D01*
X398842Y110901D01*
X398158Y111296D01*
X397395Y111500D01*
D02*
G37*
G36*
X416395Y111000D02*
X415605D01*
X414842Y110796D01*
X414158Y110401D01*
X413599Y109842D01*
X413204Y109158D01*
X413000Y108395D01*
Y107605D01*
X413204Y106842D01*
X413599Y106158D01*
X414158Y105599D01*
X414842Y105204D01*
X415605Y105000D01*
X416395D01*
X417158Y105204D01*
X417842Y105599D01*
X418401Y106158D01*
X418796Y106842D01*
X419000Y107605D01*
Y108395D01*
X418796Y109158D01*
X418401Y109842D01*
X417842Y110401D01*
X417158Y110796D01*
X416395Y111000D01*
D02*
G37*
G36*
X87429Y86272D02*
X77571D01*
Y83520D01*
X73086D01*
X72696Y83442D01*
X72365Y83221D01*
X71779Y82635D01*
X71558Y82304D01*
X71480Y81914D01*
Y78874D01*
X70130D01*
Y77819D01*
X68870D01*
Y78724D01*
X64130D01*
Y77669D01*
X58086D01*
X57696Y77592D01*
X57365Y77371D01*
X57059Y77064D01*
X56658Y77296D01*
X55895Y77500D01*
X55105D01*
X54342Y77296D01*
X53658Y76901D01*
X53099Y76342D01*
X52704Y75658D01*
X52500Y74895D01*
Y74105D01*
X52704Y73342D01*
X53099Y72658D01*
X53658Y72099D01*
X54342Y71704D01*
X55105Y71500D01*
X55895D01*
X56658Y71704D01*
X57342Y72099D01*
X57901Y72658D01*
X58296Y73342D01*
X58500Y74105D01*
Y74895D01*
X58428Y75163D01*
X58805Y75630D01*
X64130D01*
Y74575D01*
X68870D01*
Y75780D01*
X70130D01*
Y74724D01*
X74870D01*
Y78874D01*
X73520D01*
Y81480D01*
X77571D01*
Y76020D01*
X87429D01*
Y86272D01*
D02*
G37*
G36*
X74870Y72575D02*
X70130D01*
Y71370D01*
X68870D01*
Y72425D01*
X64130D01*
Y69718D01*
X62932Y68520D01*
X50333D01*
X50296Y68658D01*
X49901Y69342D01*
X49342Y69901D01*
X48658Y70296D01*
X47895Y70500D01*
X47105D01*
X46342Y70296D01*
X45658Y69901D01*
X45099Y69342D01*
X44704Y68658D01*
X44500Y67895D01*
Y67105D01*
X44704Y66342D01*
X45099Y65658D01*
X45658Y65099D01*
X46342Y64704D01*
X47105Y64500D01*
X47895D01*
X48658Y64704D01*
X49342Y65099D01*
X49901Y65658D01*
X50296Y66342D01*
X50333Y66480D01*
X63354D01*
X63744Y66558D01*
X64075Y66779D01*
X65572Y68276D01*
X68870D01*
Y69331D01*
X70130D01*
Y68425D01*
X71480D01*
Y62086D01*
X71558Y61696D01*
X71779Y61365D01*
X72365Y60779D01*
X72696Y60558D01*
X73086Y60480D01*
X77571D01*
Y56728D01*
X87429D01*
Y66980D01*
X77571D01*
Y62520D01*
X73520D01*
Y68425D01*
X74870D01*
Y72575D01*
D02*
G37*
G36*
X231095Y70700D02*
X230305D01*
X229542Y70496D01*
X228858Y70101D01*
X228299Y69542D01*
X227904Y68858D01*
X227867Y68720D01*
X190433D01*
X190396Y68858D01*
X190001Y69542D01*
X189442Y70101D01*
X188758Y70496D01*
X187995Y70700D01*
X187205D01*
X186442Y70496D01*
X185758Y70101D01*
X185199Y69542D01*
X184804Y68858D01*
X184600Y68095D01*
Y67305D01*
X184804Y66542D01*
X185199Y65858D01*
X185758Y65299D01*
X186442Y64904D01*
X187205Y64700D01*
X187995D01*
X188758Y64904D01*
X189442Y65299D01*
X190001Y65858D01*
X190396Y66542D01*
X190433Y66680D01*
X227867D01*
X227904Y66542D01*
X228299Y65858D01*
X228858Y65299D01*
X229542Y64904D01*
X230305Y64700D01*
X231095D01*
X231858Y64904D01*
X232542Y65299D01*
X233101Y65858D01*
X233496Y66542D01*
X233700Y67305D01*
Y68095D01*
X233496Y68858D01*
X233101Y69542D01*
X232542Y70101D01*
X231858Y70496D01*
X231095Y70700D01*
D02*
G37*
G36*
X151895Y71500D02*
X151105D01*
X150342Y71296D01*
X149658Y70901D01*
X149099Y70342D01*
X148704Y69658D01*
X148500Y68895D01*
Y68105D01*
X148704Y67342D01*
X149099Y66658D01*
X149658Y66099D01*
X150342Y65704D01*
X151105Y65500D01*
X151895D01*
X152658Y65704D01*
X153342Y66099D01*
X153901Y66658D01*
X154296Y67342D01*
X154500Y68105D01*
Y68331D01*
X159130D01*
Y67276D01*
X163870D01*
Y68331D01*
X165130D01*
Y67276D01*
X166480D01*
Y61500D01*
X166558Y61110D01*
X166779Y60779D01*
X167425Y60133D01*
X167755Y59912D01*
X168146Y59835D01*
X172571D01*
Y55728D01*
X182429D01*
Y65980D01*
X172571D01*
Y61874D01*
X168568D01*
X168520Y61922D01*
Y67276D01*
X169870D01*
Y71425D01*
X165130D01*
Y70370D01*
X163870D01*
Y71425D01*
X159130D01*
Y70370D01*
X153873D01*
X153342Y70901D01*
X152658Y71296D01*
X151895Y71500D01*
D02*
G37*
G36*
X184429Y48272D02*
X174571D01*
Y44165D01*
X168086D01*
X167696Y44088D01*
X167365Y43867D01*
X166779Y43281D01*
X166558Y42950D01*
X166480Y42560D01*
Y38724D01*
X166130D01*
Y37669D01*
X162870D01*
Y38575D01*
X158130D01*
Y36520D01*
X154333D01*
X154296Y36658D01*
X153901Y37342D01*
X153342Y37901D01*
X152658Y38296D01*
X151895Y38500D01*
X151105D01*
X150342Y38296D01*
X149658Y37901D01*
X149099Y37342D01*
X148704Y36658D01*
X148500Y35895D01*
Y35105D01*
X148704Y34342D01*
X149099Y33658D01*
X149238Y33520D01*
X149031Y33020D01*
X130100D01*
X129710Y32942D01*
X129379Y32721D01*
X126182Y29524D01*
X126058Y29596D01*
X125295Y29800D01*
X124505D01*
X123742Y29596D01*
X123058Y29201D01*
X122499Y28642D01*
X122104Y27958D01*
X121900Y27195D01*
Y26405D01*
X122104Y25642D01*
X122499Y24958D01*
X123058Y24399D01*
X123742Y24004D01*
X124505Y23800D01*
X125295D01*
X126058Y24004D01*
X126742Y24399D01*
X127301Y24958D01*
X127696Y25642D01*
X127900Y26405D01*
Y27195D01*
X127696Y27958D01*
X127624Y28082D01*
X130522Y30980D01*
X149031D01*
X149238Y30480D01*
X149099Y30342D01*
X148704Y29658D01*
X148500Y28895D01*
Y28105D01*
X148704Y27342D01*
X149099Y26658D01*
X149658Y26099D01*
X150342Y25704D01*
X151105Y25500D01*
X151895D01*
X152658Y25704D01*
X153342Y26099D01*
X153901Y26658D01*
X154296Y27342D01*
X154500Y28105D01*
Y28480D01*
X158130D01*
Y28126D01*
X159480D01*
Y25000D01*
X159558Y24610D01*
X159779Y24279D01*
X172400Y11658D01*
Y11305D01*
X172604Y10542D01*
X172999Y9858D01*
X173558Y9299D01*
X174242Y8904D01*
X175005Y8700D01*
X175795D01*
X176558Y8904D01*
X177242Y9299D01*
X177801Y9858D01*
X178196Y10542D01*
X178400Y11305D01*
Y12095D01*
X178196Y12858D01*
X177801Y13542D01*
X177242Y14101D01*
X176558Y14496D01*
X175795Y14700D01*
X175005D01*
X174242Y14496D01*
X173558Y14101D01*
X173200Y13742D01*
X161520Y25422D01*
Y28126D01*
X162870D01*
Y29331D01*
X166130D01*
Y28276D01*
X167480D01*
Y24440D01*
X167558Y24050D01*
X167779Y23719D01*
X168365Y23133D01*
X168696Y22912D01*
X169086Y22835D01*
X174571D01*
Y18728D01*
X184429D01*
Y28980D01*
X174571D01*
Y24874D01*
X169520D01*
Y28276D01*
X170870D01*
Y31980D01*
X200700D01*
X201090Y32058D01*
X201421Y32279D01*
X206418Y37276D01*
X206542Y37204D01*
X207305Y37000D01*
X208095D01*
X208858Y37204D01*
X209542Y37599D01*
X210101Y38158D01*
X210496Y38842D01*
X210700Y39605D01*
Y40395D01*
X210496Y41158D01*
X210101Y41842D01*
X209542Y42401D01*
X208858Y42796D01*
X208095Y43000D01*
X207305D01*
X206542Y42796D01*
X205858Y42401D01*
X205299Y41842D01*
X204904Y41158D01*
X204700Y40395D01*
Y39605D01*
X204904Y38842D01*
X204976Y38718D01*
X200278Y34020D01*
X163098D01*
X162870Y34425D01*
Y35630D01*
X166130D01*
Y34575D01*
X170870D01*
Y38724D01*
X168520D01*
Y42126D01*
X174571D01*
Y38020D01*
X184429D01*
Y48272D01*
D02*
G37*
G36*
X58595Y57000D02*
X57805D01*
X57042Y56796D01*
X56358Y56401D01*
X55799Y55842D01*
X55404Y55158D01*
X55200Y54395D01*
Y53605D01*
X55404Y52842D01*
X55799Y52158D01*
X56358Y51599D01*
X57042Y51204D01*
X57180Y51167D01*
Y38719D01*
X56895Y38500D01*
X56105D01*
X55342Y38296D01*
X54658Y37901D01*
X54099Y37342D01*
X53704Y36658D01*
X53500Y35895D01*
Y35105D01*
X53704Y34342D01*
X54099Y33658D01*
X54658Y33099D01*
X55342Y32704D01*
X56105Y32500D01*
X56895D01*
X57658Y32704D01*
X58342Y33099D01*
X58901Y33658D01*
X59296Y34342D01*
X59333Y34480D01*
X60130D01*
Y33575D01*
X64870D01*
Y34630D01*
X67130D01*
Y33575D01*
X71870D01*
Y36625D01*
X71890Y36724D01*
X71890Y36724D01*
X71890Y36724D01*
Y39126D01*
X74571D01*
Y35020D01*
X84429D01*
Y45272D01*
X74571D01*
Y41165D01*
X71456D01*
X71456Y41165D01*
X71456Y41165D01*
X71262Y41127D01*
X71066Y41088D01*
X71065Y41087D01*
X71065Y41087D01*
X70899Y40976D01*
X70735Y40867D01*
X70735Y40867D01*
X70735Y40866D01*
X70149Y40281D01*
X70034Y40109D01*
X69928Y39950D01*
X69928Y39950D01*
X69928Y39950D01*
X69887Y39743D01*
X69851Y39560D01*
Y37724D01*
X67130D01*
Y36669D01*
X64870D01*
Y37724D01*
X60130D01*
Y36669D01*
X59622D01*
X59220Y37072D01*
Y51167D01*
X59358Y51204D01*
X60042Y51599D01*
X60601Y52158D01*
X60996Y52842D01*
X61200Y53605D01*
Y54395D01*
X60996Y55158D01*
X60601Y55842D01*
X60042Y56401D01*
X59358Y56796D01*
X58595Y57000D01*
D02*
G37*
G36*
X20826Y30500D02*
X19174D01*
X17541Y30242D01*
X15969Y29731D01*
X14497Y28980D01*
X13160Y28009D01*
X11991Y26840D01*
X11020Y25503D01*
X10269Y24031D01*
X9759Y22459D01*
X9500Y20826D01*
Y19174D01*
X9759Y17541D01*
X10269Y15969D01*
X11020Y14497D01*
X11991Y13160D01*
X13160Y11991D01*
X14497Y11020D01*
X15969Y10269D01*
X17541Y9759D01*
X19174Y9500D01*
X20826D01*
X22459Y9759D01*
X24031Y10269D01*
X25503Y11020D01*
X26840Y11991D01*
X28009Y13160D01*
X28980Y14497D01*
X29731Y15969D01*
X30242Y17541D01*
X30500Y19174D01*
Y20826D01*
X30242Y22459D01*
X29731Y24031D01*
X28980Y25503D01*
X28009Y26840D01*
X26840Y28009D01*
X25503Y28980D01*
X24031Y29731D01*
X22459Y30242D01*
X20826Y30500D01*
D02*
G37*
G36*
X56895Y31500D02*
X56105D01*
X55342Y31296D01*
X54658Y30901D01*
X54099Y30342D01*
X53704Y29658D01*
X53500Y28895D01*
Y28105D01*
X53704Y27342D01*
X54099Y26658D01*
X54658Y26099D01*
X55342Y25704D01*
X56105Y25500D01*
X56895D01*
X57658Y25704D01*
X58342Y26099D01*
X58901Y26658D01*
X59296Y27342D01*
X59500Y28105D01*
Y28331D01*
X60130D01*
Y27276D01*
X64870D01*
Y28331D01*
X67130D01*
Y27276D01*
X68480D01*
Y21500D01*
X68558Y21110D01*
X68779Y20779D01*
X69425Y20133D01*
X69755Y19912D01*
X70146Y19835D01*
X74571D01*
Y15728D01*
X82630D01*
X85076Y13282D01*
X85004Y13158D01*
X84800Y12395D01*
Y11605D01*
X85004Y10842D01*
X85399Y10158D01*
X85958Y9599D01*
X86642Y9204D01*
X87405Y9000D01*
X88195D01*
X88958Y9204D01*
X89642Y9599D01*
X90201Y10158D01*
X90596Y10842D01*
X90800Y11605D01*
Y12395D01*
X90596Y13158D01*
X90201Y13842D01*
X89642Y14401D01*
X88958Y14796D01*
X88195Y15000D01*
X87405D01*
X86642Y14796D01*
X86518Y14724D01*
X84429Y16813D01*
Y25980D01*
X75261D01*
X71870Y29372D01*
Y31425D01*
X67130D01*
Y30370D01*
X64870D01*
Y31425D01*
X60130D01*
Y30370D01*
X58873D01*
X58342Y30901D01*
X57658Y31296D01*
X56895Y31500D01*
D02*
G37*
%LPD*%
G36*
X164696Y213438D02*
X139578Y188320D01*
X102300D01*
X101910Y188242D01*
X101579Y188021D01*
X92011Y178453D01*
X86547D01*
Y176020D01*
X30600D01*
X30534Y176520D01*
X31351Y176739D01*
X32149Y177199D01*
X32801Y177851D01*
X33261Y178649D01*
X33500Y179539D01*
Y180461D01*
X33261Y181351D01*
X32801Y182149D01*
X32149Y182801D01*
X31351Y183262D01*
X30534Y183480D01*
X30600Y183980D01*
X79300D01*
X79690Y184058D01*
X80021Y184279D01*
X89843Y194101D01*
X90339Y194036D01*
X90499Y193758D01*
X91058Y193199D01*
X91742Y192804D01*
X92505Y192600D01*
X93295D01*
X94058Y192804D01*
X94742Y193199D01*
X95301Y193758D01*
X95696Y194442D01*
X95733Y194580D01*
X138000D01*
X138390Y194658D01*
X138721Y194879D01*
X145122Y201280D01*
X148800D01*
X149190Y201358D01*
X149521Y201579D01*
X161718Y213776D01*
X161842Y213704D01*
X162605Y213500D01*
X163395D01*
X164158Y213704D01*
X164389Y213838D01*
X164696Y213438D01*
D02*
G37*
G36*
X141777Y200818D02*
X137578Y196620D01*
X95733D01*
X95696Y196758D01*
X95301Y197442D01*
X94742Y198001D01*
X94464Y198161D01*
X94399Y198657D01*
X97022Y201280D01*
X141585D01*
X141777Y200818D01*
D02*
G37*
G36*
X29466Y183480D02*
X28649Y183262D01*
X27851Y182801D01*
X27199Y182149D01*
X26739Y181351D01*
X26500Y180461D01*
Y179539D01*
X26739Y178649D01*
X27199Y177851D01*
X27851Y177199D01*
X28649Y176739D01*
X29466Y176520D01*
X29400Y176020D01*
X25422D01*
X23090Y178352D01*
X23261Y178649D01*
X23500Y179539D01*
Y180461D01*
X23261Y181351D01*
X22801Y182149D01*
X22149Y182801D01*
X21351Y183262D01*
X20534Y183480D01*
X20600Y183980D01*
X29400D01*
X29466Y183480D01*
D02*
G37*
G36*
X532980Y85809D02*
Y71833D01*
X532842Y71796D01*
X532158Y71401D01*
X531599Y70842D01*
X531320Y70357D01*
X530820Y70491D01*
Y84467D01*
X530958Y84504D01*
X531642Y84899D01*
X532201Y85458D01*
X532480Y85943D01*
X532980Y85809D01*
D02*
G37*
D11*
X177000Y247000D02*
X206000D01*
X135000Y336850D02*
X145000D01*
X125000D02*
X135000D01*
X115000D02*
X125000D01*
X105000D02*
X115000D01*
X95000D02*
X105000D01*
X85000D02*
X95000D01*
X75000D02*
X85000D01*
X416000Y176000D02*
X418000D01*
X432000Y190000D02*
Y336850D01*
X418000Y176000D02*
X432000Y190000D01*
X384295Y336850D02*
X385370Y335776D01*
Y335480D02*
Y335776D01*
Y335480D02*
X400000Y320850D01*
X384000Y336850D02*
X384295D01*
X400000Y248000D02*
Y320850D01*
X380800Y228800D02*
X400000Y248000D01*
X324000Y316000D02*
X374918D01*
X375918Y317000D01*
X377000D01*
X222000Y301000D02*
X348059D01*
X220328Y302672D02*
Y305672D01*
X220000Y306000D02*
X220328Y305672D01*
Y302672D02*
X222000Y301000D01*
X348059D02*
X389000Y260059D01*
X231000Y282000D02*
X277000D01*
X208000Y260000D02*
X209082D01*
X210282Y258800D01*
X370600D01*
X157000Y240000D02*
X294000D01*
X368918Y308000D02*
X370000D01*
X344000Y309000D02*
X344037Y308963D01*
X367954D01*
X368918Y308000D01*
X152000Y155000D02*
X165000Y168000D01*
X149000Y161800D02*
X161200Y174000D01*
X167645D01*
X171000Y177355D01*
X105800Y155000D02*
X152000D01*
X157000Y172000D02*
Y178000D01*
X152900Y167900D02*
X157000Y172000D01*
X126000Y226000D02*
X147000D01*
X144700Y202300D02*
X148800D01*
X140000Y187300D02*
X171200Y218500D01*
X214500D02*
X224800Y228800D01*
X171200Y218500D02*
X214500D01*
X95000Y220000D02*
X213000D01*
X224235Y231235D01*
X148800Y202300D02*
X163000Y216500D01*
X81000Y234000D02*
X95000Y220000D01*
X81000Y234000D02*
Y250000D01*
X213943Y230200D02*
X215000D01*
X211643Y232500D02*
X213943Y230200D01*
X118500Y232500D02*
X211643D01*
X89765Y261235D02*
X118500Y232500D01*
X224235Y231235D02*
Y233235D01*
X225000Y234000D01*
X150500Y145100D02*
X221400Y216000D01*
X251200D01*
X150100Y145100D02*
X150500D01*
X145400D02*
X150100D01*
X251200Y216000D02*
X254500Y219300D01*
X227000Y224000D02*
X363300D01*
X368300Y219000D01*
X224800Y228800D02*
X380800D01*
X226150Y336850D02*
X230000Y333000D01*
X220000Y336850D02*
X226150D01*
X230000Y321000D02*
Y333000D01*
X207500Y336850D02*
X220000D01*
X193000D02*
X207500D01*
X177500D02*
X193000D01*
X163000D02*
X177500D01*
X311000Y325000D02*
Y331000D01*
X305150Y336850D02*
X311000Y331000D01*
X300000Y336850D02*
X305150D01*
X286000D02*
X300000D01*
X270000D02*
X286000D01*
X255000D02*
X270000D01*
X238500D02*
X255000D01*
X360000D02*
X368150D01*
X372000Y333000D01*
X343000Y336850D02*
X360000D01*
X323000D02*
X343000D01*
X406000D02*
X410850D01*
X417000Y343000D01*
X432000Y343150D02*
X432000Y343150D01*
Y375000D01*
X406000Y375000D02*
X406000Y375000D01*
X406000Y343150D02*
Y375000D01*
X384000Y343150D02*
Y375000D01*
X360000Y374000D02*
Y375000D01*
X360000Y343150D02*
Y374000D01*
X360000Y374000D01*
X343000Y343150D02*
Y375000D01*
X343000Y343150D02*
X343000Y343150D01*
X323000Y343150D02*
Y375000D01*
X323000Y375000D01*
X300000Y343150D02*
Y375000D01*
X286000Y375000D02*
X286000Y375000D01*
X286000Y343150D02*
Y375000D01*
X270000Y343150D02*
X270000Y343150D01*
Y375000D01*
X255000Y343150D02*
Y375000D01*
X255000Y343150D02*
X255000Y343150D01*
X238000Y375000D02*
X238500Y374500D01*
Y343150D02*
Y374500D01*
X220000Y343150D02*
Y375000D01*
X220000Y375000D01*
X207000D02*
X207500Y374500D01*
Y343150D02*
Y374500D01*
X193000Y343150D02*
Y375000D01*
X193000Y343150D02*
X193000Y343150D01*
X177500Y343150D02*
Y374500D01*
X178000Y375000D01*
X163000Y343150D02*
Y375000D01*
X163000Y343150D02*
X163000Y343150D01*
X145000Y333000D02*
X153000Y325000D01*
X145000Y333000D02*
Y336850D01*
X75000Y343150D02*
Y375000D01*
X75000Y375000D01*
X85000Y343150D02*
X85000Y343150D01*
Y375000D01*
X95000Y343150D02*
Y375000D01*
X95000Y375000D01*
X105000Y343150D02*
Y375000D01*
X105000Y343150D02*
X105000Y343150D01*
X115000Y375000D02*
X115000Y375000D01*
X115000Y343150D02*
Y375000D01*
X125000Y343150D02*
X125000Y343150D01*
Y375000D01*
X135000Y375000D02*
X135000Y375000D01*
X135000Y343150D02*
Y375000D01*
X145000Y343150D02*
X145000Y343150D01*
Y375000D01*
X72000Y263000D02*
X86414D01*
X86649Y263235D01*
X88235D01*
X89000Y264000D01*
X89765Y261235D02*
Y263235D01*
X89000Y264000D02*
X89765Y263235D01*
X202235Y103500D02*
X237500D01*
X240221Y102900D02*
X278403D01*
X240200Y100800D02*
X280500D01*
X237500Y103500D02*
X240200Y100800D01*
X236721Y106400D02*
X240221Y102900D01*
X218000Y106400D02*
X236721D01*
X244500Y91000D02*
X248100D01*
X234200Y99200D02*
X234965Y98435D01*
X237065D01*
X244500Y91000D01*
X248100D02*
X252100Y95000D01*
X244100Y89000D02*
X249100D01*
X240000Y93100D02*
X244100Y89000D01*
X249100D02*
X253600Y93500D01*
X250600Y87500D02*
X255100Y92000D01*
X165100Y87500D02*
X250600D01*
X160700Y91900D02*
X165100Y87500D01*
X252100Y86000D02*
X256600Y90500D01*
X118000Y86000D02*
X252100D01*
X109800Y77800D02*
X118000Y86000D01*
X249000Y108000D02*
X250082D01*
X251482Y106600D02*
X278487D01*
X250082Y108000D02*
X251482Y106600D01*
X309500Y108350D02*
X310650Y109500D01*
X351500D01*
X360500Y100500D01*
X309500Y103500D02*
Y108350D01*
X349400Y102586D02*
Y103500D01*
Y102586D02*
X352986Y99000D01*
X451672D01*
X376500Y122400D02*
X378600Y124500D01*
X365144Y104556D02*
X375914D01*
X376500Y105142D01*
Y122400D01*
X358100Y111600D02*
X365144Y104556D01*
X264850Y15500D02*
X267850Y18500D01*
X153433Y69350D02*
X167500D01*
X159504Y29500D02*
X160354Y30350D01*
X168500D01*
X70146Y20854D02*
X79500D01*
X70450Y29350D02*
X87800Y12000D01*
X458600Y96500D02*
X462000Y99900D01*
Y103500D01*
X454000Y101328D02*
Y101500D01*
X451672Y99000D02*
X454000Y101328D01*
X152235Y187735D02*
X153000Y188500D01*
X152235Y186184D02*
Y187735D01*
X136350Y170300D02*
X152235Y186184D01*
X123700Y178900D02*
X136900D01*
X159600Y201600D02*
X166400D01*
X136900Y178900D02*
X159600Y201600D01*
X137788Y166788D02*
X174971Y203971D01*
X176367Y205150D02*
X177450D01*
X174971Y203971D02*
X175189D01*
X176367Y205150D01*
X76212Y166788D02*
X137788D01*
X97600Y170300D02*
X136350D01*
X73000Y170000D02*
X76212Y166788D01*
X414300Y124500D02*
X426300Y136500D01*
X378600Y124500D02*
X414300D01*
X298000Y73000D02*
X417000D01*
X417500Y72500D01*
X407177Y90323D02*
X431350Y66150D01*
X292056Y90323D02*
X407177D01*
X431350Y53350D02*
Y66150D01*
X510500Y82584D02*
X512500Y80584D01*
X510500Y72050D02*
X512500Y74050D01*
Y80584D01*
X520200Y61000D02*
X522500Y58700D01*
X510500Y61586D02*
X511086Y61000D01*
X510500Y61586D02*
Y72050D01*
X511086Y61000D02*
X520200D01*
X508500Y63272D02*
Y76500D01*
X510500Y82584D02*
Y91200D01*
X501728Y56500D02*
X508500Y63272D01*
X454200Y56500D02*
X501728D01*
X522500Y54400D02*
Y58700D01*
X426350Y46400D02*
X462914D01*
X464514Y48000D01*
X465500D01*
X393350Y43650D02*
X516450D01*
X524000Y51200D01*
X385500Y51500D02*
X393350Y43650D01*
X200035Y101300D02*
X202235Y103500D01*
X199650Y101300D02*
X200035D01*
X110500Y110500D02*
X204000D01*
X86000Y135000D02*
X110500Y110500D01*
X221422Y113161D02*
X222500Y112082D01*
X221422Y113161D02*
Y113578D01*
X222500Y111000D02*
Y112082D01*
X215000Y120000D02*
X221422Y113578D01*
X510600Y8500D02*
X527500Y25400D01*
Y30000D01*
X63354Y67500D02*
X66205Y70350D01*
X47500Y67500D02*
X63354D01*
X66205Y70350D02*
X66500D01*
X16000Y136900D02*
Y184414D01*
X16586Y185000D01*
X79300D01*
X96600Y202300D01*
X351000Y118850D02*
Y122000D01*
X351600Y122600D02*
Y124701D01*
X340700Y122700D02*
X349599D01*
X351600Y119450D02*
Y122600D01*
X351000Y122000D02*
X351600Y122600D01*
X339000Y121000D02*
X340700Y122700D01*
X332000Y121000D02*
X339000D01*
X102300Y187300D02*
X140000D01*
X354200Y143800D02*
X354872Y144472D01*
Y144789D01*
X356000Y145918D01*
X323500Y143800D02*
X354200D01*
X356000Y145918D02*
Y147000D01*
X360000Y151000D02*
X365000Y146000D01*
X326503Y151000D02*
X360000D01*
X278403Y102900D02*
X326503Y151000D01*
X324387Y152500D02*
X453500D01*
X278487Y106600D02*
X324387Y152500D01*
X424000Y157000D02*
Y157100D01*
X439700Y172800D01*
X360500Y100500D02*
X422900D01*
X459400Y137000D01*
X294702Y93500D02*
X294879Y93323D01*
X253600Y93500D02*
X294702D01*
X291879Y90500D02*
X292056Y90323D01*
X418877Y91823D02*
X454200Y56500D01*
X255100Y92000D02*
X293379D01*
X293556Y91823D01*
X246600Y96500D02*
X458600D01*
X256600Y90500D02*
X291879D01*
X449877Y93323D02*
X465700Y77500D01*
X294879Y93323D02*
X449877D01*
X293556Y91823D02*
X418877D01*
X252100Y95000D02*
X464500D01*
X469900Y89600D01*
X62500Y35650D02*
X69795D01*
X274850Y37650D02*
Y58450D01*
X150100Y144700D02*
X150500Y145100D01*
X169900D01*
X96600Y202300D02*
X144700D01*
X138000Y195600D02*
X144700Y202300D01*
X69500Y29350D02*
X70450D01*
X473061Y130211D02*
X474000Y131150D01*
X483000D02*
X484000D01*
X489000Y126150D02*
X494000Y131150D01*
X499000Y126150D02*
X504000Y131150D01*
X513000D02*
X514000D01*
X519000Y126150D02*
X524000Y131150D01*
X533765Y69000D02*
X534000Y69235D01*
X529000Y126150D02*
X534000Y131150D01*
X539000Y126150D02*
X544000Y131150D01*
X469900Y67200D02*
Y89600D01*
Y67200D02*
X473200Y63900D01*
X485700D01*
X490500Y68700D01*
Y93800D01*
X366800Y44300D02*
X374000Y51500D01*
X385500D01*
X524000Y51200D02*
Y64000D01*
X519000Y69000D02*
X524000Y64000D01*
X519000Y69000D02*
Y96350D01*
X177000Y134000D02*
X246500D01*
X296600Y184100D01*
X145000Y144700D02*
X145400Y145100D01*
X145000Y144700D02*
X150100D01*
X244600Y12100D02*
X249700Y7000D01*
X282200D01*
X288800Y13600D01*
X470100D01*
X491100Y34600D01*
X290500Y1500D02*
X292500Y3500D01*
X57100Y1500D02*
X290500D01*
X53600Y5000D02*
X57100Y1500D01*
X287452Y8500D02*
X510600D01*
X283652Y4700D02*
X287452Y8500D01*
X236100Y4700D02*
X283652D01*
X218800Y22000D02*
X236100Y4700D01*
X281500Y56500D02*
X298000Y73000D01*
X353800Y53500D02*
X368900D01*
X370500Y55100D01*
X422550D01*
X428050Y49600D01*
X433800D01*
X436600Y52400D01*
X520500D01*
X522500Y54400D01*
X302500Y111600D02*
X358100D01*
X426300Y136500D02*
X446500D01*
X470800Y160800D01*
X522600D01*
X531750Y169950D01*
X113100Y120000D02*
X215000D01*
X93100Y140000D02*
X113100Y120000D01*
X149300Y167900D02*
X152900D01*
X92900Y195600D02*
X138000D01*
X16000Y136900D02*
X17900Y135000D01*
X86000D01*
X215200Y109200D02*
X218000Y106400D01*
X89600Y147200D02*
X97600Y155200D01*
X89600Y138200D02*
Y147200D01*
Y138200D02*
X109400Y118400D01*
X206000D01*
X215200Y109200D01*
X187600Y67700D02*
X230700D01*
X270800Y145300D02*
X308600D01*
X236350Y110850D02*
X270800Y145300D01*
X173800Y11700D02*
X175400D01*
X160500Y25000D02*
X173800Y11700D01*
X160500Y25000D02*
Y30201D01*
X389000Y260059D02*
X392200D01*
X280500Y100800D02*
X323500Y143800D01*
X109000Y89000D02*
X119300Y99300D01*
X197650D01*
X199650Y101300D01*
X171000Y177355D02*
Y193700D01*
X105600Y161800D02*
X149000D01*
X101100Y157300D02*
X105600Y161800D01*
X101100Y145000D02*
Y157300D01*
X90000Y175000D02*
X102300Y187300D01*
X216800Y93100D02*
X240000D01*
X370600Y258800D02*
X377800Y251600D01*
X25000Y175000D02*
X90000D01*
X20000Y180000D02*
X25000Y175000D01*
X415600Y39500D02*
X417700Y41600D01*
X536400D01*
X540500Y45700D01*
X439700Y172800D02*
X524000D01*
X529800Y67200D02*
Y87300D01*
Y67200D02*
X533000Y64000D01*
X552500D01*
X252400Y10400D02*
Y10900D01*
Y10400D02*
X253500Y9300D01*
X258650D01*
X264850Y15500D01*
X292600Y26500D02*
X354700D01*
X361800Y33600D01*
X424900D01*
X430800Y39500D01*
X552500D01*
X64398Y50500D02*
X207362D01*
X222862Y35000D01*
X349892D01*
X362692Y47800D01*
X367800D01*
X373100Y53100D01*
X419650D01*
X426350Y46400D01*
X436300Y122900D02*
X463800Y150400D01*
X528000D01*
X124900Y26800D02*
X130100Y32000D01*
X155700D01*
X156700Y33000D01*
X200700D01*
X207700Y40000D01*
X288952Y7000D02*
X545200D01*
X284952Y3000D02*
X288952Y7000D01*
X147450Y3000D02*
X284952D01*
X143350Y7100D02*
X147450Y3000D01*
X274850Y58450D02*
X276800Y60400D01*
Y75850D01*
X276000Y76650D02*
X276800Y75850D01*
X273850Y76650D02*
X276000D01*
X373850D01*
X58200Y36650D02*
Y54000D01*
Y36650D02*
X59200Y35650D01*
X62500D01*
X474000Y131000D02*
Y131150D01*
X484000Y131000D02*
Y131150D01*
X494000Y131000D02*
Y131150D01*
X504000Y131000D02*
Y131150D01*
X514000Y131000D02*
Y131150D01*
X524000Y131000D02*
Y131150D01*
X534000Y131000D02*
Y131150D01*
X544000Y131000D02*
Y131150D01*
X277850Y40650D02*
Y49500D01*
X273850Y81500D02*
Y86850D01*
X274000Y87000D01*
X373850Y58850D02*
Y62500D01*
X368850Y57000D02*
X372000D01*
X368350D02*
X368850D01*
X372000D02*
X373850Y58850D01*
X369000Y18000D02*
X370082D01*
X371582Y16500D01*
X373850D01*
X375850Y18500D01*
X381850Y47850D02*
X382000Y48000D01*
X381850Y37799D02*
Y47850D01*
X368350Y57000D02*
X368850Y57500D01*
X367000Y57000D02*
X368350D01*
X379850Y83500D02*
Y83768D01*
X381000Y84918D02*
Y86000D01*
X379850Y83768D02*
X381000Y84918D01*
X539000Y111150D02*
Y126150D01*
X524000Y69000D02*
Y106150D01*
X514000Y69000D02*
Y106150D01*
X539000Y111150D02*
X544000Y106150D01*
X534000Y69235D02*
Y106150D01*
X544000Y68000D02*
Y69000D01*
Y106150D01*
X519000Y111150D02*
X524000Y106150D01*
X519000Y111150D02*
Y126150D01*
X509000Y127150D02*
X513000Y131150D01*
X509000Y111150D02*
Y127150D01*
Y111150D02*
X514000Y106150D01*
X529000Y111150D02*
Y126150D01*
Y111150D02*
X534000Y106150D01*
X479000Y127150D02*
X483000Y131150D01*
X471211Y130211D02*
X473061D01*
X468000Y127000D02*
X471211Y130211D01*
X504000Y69000D02*
Y106150D01*
X484000Y69000D02*
Y106150D01*
X494000Y69000D02*
Y107150D01*
X499000Y111150D02*
X504000Y106150D01*
X474000Y69000D02*
Y105000D01*
X499000Y111150D02*
Y126150D01*
X489000Y112150D02*
X494000Y107150D01*
X479000Y111150D02*
Y127150D01*
X489000Y112150D02*
Y126150D01*
X479000Y111150D02*
X484000Y106150D01*
X468000Y111000D02*
Y127000D01*
Y111000D02*
X474000Y105000D01*
X375850Y18500D02*
Y30350D01*
X376000Y30500D02*
X382850D01*
X375850Y30350D02*
X376000Y30500D01*
X381850Y37799D02*
X382850Y36799D01*
X376000D02*
X382850D01*
X375850Y36650D02*
X376000Y36799D01*
X373850Y70350D02*
X379850D01*
X373850Y62500D02*
Y70350D01*
X379850Y76650D02*
Y83500D01*
X373850Y76650D02*
X379850D01*
X267850Y18500D02*
Y31350D01*
X274850D01*
Y37650D02*
X275146D01*
X267850D02*
X274850D01*
X276220Y38724D02*
Y39020D01*
X275146Y37650D02*
X276220Y38724D01*
Y39020D02*
X277850Y40650D01*
X264850Y70350D02*
X273850D01*
X262850Y57500D02*
Y58086D01*
X264850Y60086D02*
Y70350D01*
X262850Y58086D02*
X264850Y60086D01*
Y76650D02*
X273850D01*
Y81500D01*
X176146D02*
X177500Y80146D01*
X168086Y81500D02*
X176146D01*
X167500Y75650D02*
Y80914D01*
X168086Y81500D01*
X168500Y24440D02*
Y30350D01*
Y24440D02*
X169086Y23854D01*
X179500D01*
X152582Y28500D02*
X153582Y29500D01*
X159504D01*
X151500Y28500D02*
X152582D01*
X159500Y35500D02*
X160500Y36500D01*
X151500Y35500D02*
X159500D01*
X160650Y36650D02*
X168500D01*
X160500Y36500D02*
X160650Y36650D01*
X167500Y37650D02*
X168500Y36650D01*
X168086Y43146D02*
X179500D01*
X167500Y37650D02*
Y42560D01*
X168086Y43146D01*
X152582Y68500D02*
X153433Y69350D01*
X151500Y68500D02*
X152582D01*
X167500Y61500D02*
X168146Y60854D01*
X177500D01*
X167500Y61500D02*
Y69350D01*
X152582Y76500D02*
X153433Y75650D01*
X161500D01*
X151500Y76500D02*
X152582D01*
X161500Y75650D02*
X167500D01*
X56500Y28500D02*
X57582D01*
X58433Y29350D01*
X62500D01*
X69500Y21500D02*
Y29350D01*
X62500D02*
X69500D01*
Y21500D02*
X70146Y20854D01*
X73086Y61500D02*
X82146D01*
X82500Y61854D01*
X72500Y62086D02*
Y70500D01*
Y62086D02*
X73086Y61500D01*
X66500Y70350D02*
X72350D01*
X72500Y70500D01*
X191332Y167150D02*
X197332D01*
X203332D01*
X204182Y168000D02*
X215332D01*
X203332Y167150D02*
X204182Y168000D01*
X369000Y111850D02*
Y124701D01*
X226332Y168000D02*
X227414D01*
X228264Y167150D02*
X233332D01*
X227414Y168000D02*
X228264Y167150D01*
X233332D02*
X239332D01*
X245332D01*
X215332Y168000D02*
X226332D01*
X351000Y118850D02*
X351600Y119450D01*
Y124701D02*
X362000D01*
X368332Y112519D02*
X369000Y111850D01*
X362000Y124701D02*
X369000D01*
X56500Y35500D02*
X62350D01*
X62500Y35650D01*
X55936Y74500D02*
X58086Y76650D01*
X55500Y74500D02*
X55936D01*
X58086Y76650D02*
X66500D01*
X66650Y76799D01*
X69795Y35650D02*
X70870Y36724D01*
X66650Y76799D02*
X72500D01*
Y81914D01*
X81146Y82500D02*
X82500Y81146D01*
X72500Y81914D02*
X73086Y82500D01*
X81146D01*
X197332Y160850D02*
X203332D01*
X191332D02*
X197332D01*
X220246Y158000D02*
X220832D01*
X217395Y160850D02*
X220246Y158000D01*
X203332Y160850D02*
X217395D01*
X220832Y158000D02*
X223682Y160850D01*
X335725Y130050D02*
X350584D01*
X335586Y130436D02*
X335725Y130297D01*
X351000Y138142D02*
X351249Y137893D01*
X223682Y160850D02*
X233332D01*
X239332D01*
X245332D01*
X350584Y130050D02*
X351249Y130716D01*
Y130962D01*
X351835Y130981D02*
X361981D01*
X351249Y130962D02*
X351551Y131265D01*
X351249Y130962D02*
Y137893D01*
X351551Y131265D02*
X351835Y130981D01*
X362000Y131000D02*
X369000D01*
X70870Y36724D02*
Y39560D01*
X71456Y40146D01*
X79500D01*
X383000Y117850D02*
X409000D01*
D18*
X432000Y336850D02*
D03*
Y343150D02*
D03*
X406000D02*
D03*
Y336850D02*
D03*
X384000D02*
D03*
Y343150D02*
D03*
X360000D02*
D03*
Y336850D02*
D03*
X343000Y343150D02*
D03*
Y336850D02*
D03*
X323000Y343150D02*
D03*
Y336850D02*
D03*
X300000Y343150D02*
D03*
Y336850D02*
D03*
X286000Y343150D02*
D03*
Y336850D02*
D03*
X270000Y343150D02*
D03*
Y336850D02*
D03*
X255000Y343150D02*
D03*
Y336850D02*
D03*
X238500Y343150D02*
D03*
Y336850D02*
D03*
X220000Y343150D02*
D03*
Y336850D02*
D03*
X207500Y343150D02*
D03*
Y336850D02*
D03*
X193000Y343150D02*
D03*
Y336850D02*
D03*
X163000Y343150D02*
D03*
Y336850D02*
D03*
X177500D02*
D03*
Y343150D02*
D03*
X145000D02*
D03*
Y336850D02*
D03*
X135000Y343150D02*
D03*
Y336850D02*
D03*
X125000Y343150D02*
D03*
Y336850D02*
D03*
X115000Y343150D02*
D03*
Y336850D02*
D03*
X95000Y343150D02*
D03*
Y336850D02*
D03*
X105000Y343150D02*
D03*
Y336850D02*
D03*
X85000Y343150D02*
D03*
Y336850D02*
D03*
X75000Y343150D02*
D03*
Y336850D02*
D03*
X264850Y70350D02*
D03*
Y76650D02*
D03*
X273850Y70350D02*
D03*
Y76650D02*
D03*
X267850Y31350D02*
D03*
Y37650D02*
D03*
X274850Y31350D02*
D03*
Y37650D02*
D03*
X373850Y70350D02*
D03*
Y76650D02*
D03*
X379850Y70350D02*
D03*
Y76650D02*
D03*
X382850Y30500D02*
D03*
Y36799D02*
D03*
X375850Y30350D02*
D03*
Y36650D02*
D03*
X160500Y30201D02*
D03*
Y36500D02*
D03*
X168500Y30350D02*
D03*
Y36650D02*
D03*
X161500Y69350D02*
D03*
Y75650D02*
D03*
X167500Y69350D02*
D03*
Y75650D02*
D03*
X62500Y29350D02*
D03*
X66500Y70350D02*
D03*
X69500Y29350D02*
D03*
X72500Y70500D02*
D03*
X191332Y167150D02*
D03*
X197332D02*
D03*
X203332D02*
D03*
X233332D02*
D03*
X245332D02*
D03*
X239332D02*
D03*
X362000Y124701D02*
D03*
X369000D02*
D03*
X62500Y35650D02*
D03*
X66500Y76650D02*
D03*
X69500Y35650D02*
D03*
X72500Y76799D02*
D03*
X197332Y160850D02*
D03*
X191332D02*
D03*
X203332D02*
D03*
X239332D02*
D03*
X233332D02*
D03*
X245332D02*
D03*
X362000Y131000D02*
D03*
X369000D02*
D03*
D41*
X474000Y121000D02*
D03*
X351500Y214000D02*
D03*
Y194000D02*
D03*
X289000Y214000D02*
D03*
X90000Y175000D02*
D03*
X289000Y199000D02*
D03*
Y184000D02*
D03*
Y169000D02*
D03*
Y154000D02*
D03*
Y139000D02*
D03*
X397000D02*
D03*
X416000D02*
D03*
D42*
X484000Y121000D02*
D03*
Y131000D02*
D03*
X494000Y121000D02*
D03*
Y131000D02*
D03*
X504000Y121000D02*
D03*
Y131000D02*
D03*
X514000Y121000D02*
D03*
Y131000D02*
D03*
X524000Y121000D02*
D03*
Y131000D02*
D03*
X534000Y121000D02*
D03*
Y131000D02*
D03*
X544000Y121000D02*
D03*
Y131000D02*
D03*
X474000D02*
D03*
Y141000D02*
D03*
X484000D02*
D03*
X494000D02*
D03*
X504000D02*
D03*
X514000D02*
D03*
X524000D02*
D03*
X534000D02*
D03*
X544000D02*
D03*
X411500Y199000D02*
D03*
X401500D02*
D03*
X411500Y209000D02*
D03*
X401500D02*
D03*
X411500Y219000D02*
D03*
D43*
X30000Y120000D02*
D03*
Y130000D02*
D03*
Y140000D02*
D03*
Y150000D02*
D03*
Y160000D02*
D03*
Y170000D02*
D03*
Y180000D02*
D03*
X20000Y120000D02*
D03*
Y130000D02*
D03*
Y140000D02*
D03*
Y150000D02*
D03*
Y160000D02*
D03*
Y170000D02*
D03*
X30000Y190000D02*
D03*
X20000Y180000D02*
D03*
X542000Y224000D02*
D03*
Y234000D02*
D03*
Y244000D02*
D03*
Y254000D02*
D03*
Y264000D02*
D03*
Y274000D02*
D03*
Y284000D02*
D03*
X532000Y224000D02*
D03*
Y234000D02*
D03*
Y244000D02*
D03*
Y254000D02*
D03*
Y264000D02*
D03*
Y274000D02*
D03*
X542000Y294000D02*
D03*
X532000Y284000D02*
D03*
D44*
X20000Y190000D02*
D03*
X532000Y294000D02*
D03*
D45*
X401500Y219000D02*
D03*
D46*
X540000Y380000D02*
D03*
Y20000D02*
D03*
X20000Y380000D02*
D03*
Y20000D02*
D03*
D47*
X177000Y247000D02*
D03*
X206000D02*
D03*
X416000Y176000D02*
D03*
X324000Y316000D02*
D03*
X377000Y317000D02*
D03*
X231000Y282000D02*
D03*
X277000D02*
D03*
X208000Y260000D02*
D03*
X294000Y240000D02*
D03*
X157000D02*
D03*
X220000Y306000D02*
D03*
X370000Y308000D02*
D03*
X344000Y309000D02*
D03*
X165000Y168000D02*
D03*
X157000Y178000D02*
D03*
X147000Y226000D02*
D03*
X126000D02*
D03*
X100000Y230000D02*
D03*
X163000Y216500D02*
D03*
X225000Y234000D02*
D03*
X227000Y224000D02*
D03*
X230000Y321000D02*
D03*
X311000Y325000D02*
D03*
X372000Y333000D02*
D03*
X445000Y331000D02*
D03*
X417000Y343000D02*
D03*
X432000Y375000D02*
D03*
X406000D02*
D03*
X384000D02*
D03*
X360000D02*
D03*
X343000D02*
D03*
X323000D02*
D03*
X300000D02*
D03*
X286000D02*
D03*
X270000D02*
D03*
X255000D02*
D03*
X238000D02*
D03*
X220000D02*
D03*
X207000D02*
D03*
X193000D02*
D03*
X178000D02*
D03*
X163000D02*
D03*
X153000Y325000D02*
D03*
X75000Y375000D02*
D03*
X85000D02*
D03*
X95000D02*
D03*
X105000D02*
D03*
X115000D02*
D03*
X125000D02*
D03*
X135000D02*
D03*
X145000D02*
D03*
X101000Y271000D02*
D03*
X89000Y264000D02*
D03*
X72000Y263000D02*
D03*
X81000Y250000D02*
D03*
X249000Y108000D02*
D03*
X349400Y103500D02*
D03*
X309500D02*
D03*
X462000D02*
D03*
X454000Y101500D02*
D03*
X153000Y188500D02*
D03*
X73000Y170000D02*
D03*
X416000Y108000D02*
D03*
X397000Y108500D02*
D03*
X417500Y72500D02*
D03*
X508500Y76500D02*
D03*
X465500Y48000D02*
D03*
X204000Y110500D02*
D03*
X222500Y111000D02*
D03*
X527500Y30000D02*
D03*
X47500Y67500D02*
D03*
X126000Y271000D02*
D03*
X137000Y266000D02*
D03*
X332000Y121000D02*
D03*
X356000Y147000D02*
D03*
X365000Y146000D02*
D03*
X424000Y157000D02*
D03*
X246600Y96500D02*
D03*
X234200Y99200D02*
D03*
X490500Y93800D02*
D03*
X366800Y44300D02*
D03*
X519000Y96350D02*
D03*
X177000Y134000D02*
D03*
X296600Y184100D02*
D03*
X169900Y145100D02*
D03*
X145000Y144700D02*
D03*
X254500Y219300D02*
D03*
X431350Y53350D02*
D03*
X109800Y77800D02*
D03*
X244600Y12100D02*
D03*
X491100Y34600D02*
D03*
X292500Y3500D02*
D03*
X53600Y5000D02*
D03*
X218800Y22000D02*
D03*
X453500Y152500D02*
D03*
X459400Y137000D02*
D03*
X281500Y56500D02*
D03*
X353800Y53500D02*
D03*
X510500Y91200D02*
D03*
X302500Y111600D02*
D03*
X531750Y169950D02*
D03*
X93100Y140000D02*
D03*
X177450Y205150D02*
D03*
X97600Y170300D02*
D03*
X149300Y167900D02*
D03*
X92900Y195600D02*
D03*
X123700Y178900D02*
D03*
X166400Y201600D02*
D03*
X215200Y109200D02*
D03*
X97600Y155200D02*
D03*
X230700Y67700D02*
D03*
X187600D02*
D03*
X308600Y145300D02*
D03*
X236350Y110850D02*
D03*
X175400Y11700D02*
D03*
X392200Y260059D02*
D03*
X199650Y101300D02*
D03*
X109000Y89000D02*
D03*
X368300Y219000D02*
D03*
X171000Y193700D02*
D03*
X101100Y145000D02*
D03*
X105800Y155000D02*
D03*
X216800Y93100D02*
D03*
X465700Y77500D02*
D03*
X160700Y91900D02*
D03*
X377800Y251600D02*
D03*
X366337Y249723D02*
D03*
X215000Y230200D02*
D03*
X415600Y39500D02*
D03*
X540500Y45700D02*
D03*
X524000Y172800D02*
D03*
X529800Y87300D02*
D03*
X552500Y64000D02*
D03*
X252400Y10900D02*
D03*
X292600Y26500D02*
D03*
X552500Y39500D02*
D03*
X64398Y50500D02*
D03*
X436300Y122900D02*
D03*
X528000Y150400D02*
D03*
X124900Y26800D02*
D03*
X207700Y40000D02*
D03*
X545200Y7000D02*
D03*
X143350Y7100D02*
D03*
X58200Y54000D02*
D03*
X87800Y12000D02*
D03*
X389473Y165800D02*
D03*
X389471Y266677D02*
D03*
X274000Y87000D02*
D03*
X369000Y18000D02*
D03*
X382000Y48000D02*
D03*
X367000Y57000D02*
D03*
X381000Y86000D02*
D03*
X544000Y69000D02*
D03*
X524000D02*
D03*
X514000D02*
D03*
X504000D02*
D03*
X484000D02*
D03*
X534000D02*
D03*
X494000D02*
D03*
X474000D02*
D03*
X264850Y17500D02*
D03*
X277850Y49500D02*
D03*
X262850Y57500D02*
D03*
X151500Y28500D02*
D03*
Y35500D02*
D03*
Y68500D02*
D03*
Y76500D02*
D03*
X56500Y28500D02*
D03*
X215332Y168000D02*
D03*
X369000Y111850D02*
D03*
X226332Y168000D02*
D03*
X56500Y35500D02*
D03*
X55500Y74500D02*
D03*
X220832Y158000D02*
D03*
X335586Y130436D02*
D03*
X409000Y117850D02*
D03*
X383000D02*
D03*
D55*
X179500Y43146D02*
D03*
Y23854D02*
D03*
X177500Y80146D02*
D03*
Y60854D02*
D03*
X79500Y20854D02*
D03*
X82500Y61854D02*
D03*
X351000Y118850D02*
D03*
X79500Y40146D02*
D03*
X82500Y81146D02*
D03*
X351000Y138142D02*
D03*
M02*
