M48
;Layer_Color=9474304
;FILE_FORMAT=2:5
INCH,LZ
;TYPE=PLATED
T1F00S00C0.02800
T2F00S00C0.03150
T3F00S00C0.03543
T4F00S00C0.17000
%
T01
X00536Y0005
X00565Y00285
Y00355
X00582Y0054
X0064398Y00505
X00555Y00745
X00475Y00675
X01098Y00778
X0109Y0089
X01515Y00765
Y00685
Y00355
Y00285
X01249Y00268
X014335Y00071
X00878Y0012
X00931Y014
X01011Y0145
X00976Y01552
X01058Y0155
X0145Y01447
X01699Y01451
X0177Y0134
X0204Y01105
X02152Y01092
X02225Y0111
X023635Y011085
X02342Y00992
X02466Y00965
X0249Y0108
X0274Y0087
X02815Y00565
X027785Y00495
X026285Y00575
X026485Y00175
X02524Y00109
X02446Y00121
X02188Y0022
X02077Y004
X01876Y00677
X02307
X02168Y00931
X019965Y01013
X01607Y00919
X01754Y00117
X02925Y00035
X02926Y00265
X03095Y01035
X03025Y01116
X03086Y01453
X0335586Y0130436
X0332Y0121
X03494Y01035
X0369Y011185
X0383Y011785
X0397Y01085
X0416Y0108
X0409Y011785
X04363Y01229
X04594Y0137
X04535Y01525
X0454Y01015
X0462Y01035
X04657Y00775
X04655Y0048
X043135Y005335
X04156Y00395
X04175Y00725
X0381Y0086
X0382Y0048
X03668Y00443
X0367Y0057
X03538Y00535
X0369Y0018
X0365Y0146
X0356Y0147
X0528Y01504
X0519Y009635
X05105Y00912
X05085Y00765
X0504Y0069
X0514
X0524
X0534
X0544
X05525Y0064
Y00395
X05405Y00457
X05275Y003
X05452Y0007
X04911Y00346
X0494Y0069
X0484
X0474
X04905Y00938
X05298Y00873
X053175Y016995
X0524Y01728
X0416Y0176
X0424Y0157
X0389473Y01658
X03683Y0219
X0366337Y0249723
X03778Y02516
X03922Y0260059
X0389471Y0266677
X037Y0308
X0344Y0309
X0277Y0282
X0231
X022Y0306
X0208Y026
X0206Y0247
X0215Y02302
X0225Y0234
X0227Y0224
X02545Y02193
X0294Y024
X02966Y01841
X0226332Y0168
X0215332
X0220832Y0158
X0165Y0168
X0157Y0178
X0171Y01937
X01664Y02016
X017745Y020515
X0163Y02165
X0157Y024
X0177Y0247
X0147Y0226
X0126
X01Y023
X0081Y025
X0089Y0264
X0072Y0263
X0101Y0271
X0126
X0137Y0266
X0153Y01885
X01493Y01679
X01237Y01789
X00976Y01703
X0073Y017
X00929Y01956
X0095Y0375
X0085
X0075
X0105
X0115
X0125
X0135
X0145
X0153Y0325
X0163Y0375
X0178
X0193
X0207
X022
X0238
X0255
X027
X0286
X03
X0311Y0325
X023Y0321
X0324Y0316
X0377Y0317
X0372Y0333
X0384Y0375
X0406
X0432
X0417Y0343
X0445Y0331
X036Y0375
X0343
X0323
T02
X002Y012
X003
Y013
Y014
Y015
X002
Y014
Y013
X0532Y0224
X0542
Y0234
Y0244
Y0254
Y0264
Y0274
Y0284
Y0294
X0532
Y0284
Y0274
Y0264
Y0254
Y0244
Y0234
X003Y019
Y018
Y017
Y016
X002
Y017
Y018
Y019
T03
X0289Y0139
Y0154
X0397Y0139
X0416
X0474Y0141
Y0131
Y0121
X0484
Y0131
X0494
Y0121
X0504
Y0131
X0514
Y0121
X0524
Y0131
X0534
Y0121
X0544
Y0131
Y0141
X0534
X0524
X0514
X0504
X0494
X0484
X04115Y0199
X04015
Y0209
X04115
Y0219
X04015
X03515Y0214
Y0194
X0289Y0199
Y0214
Y0184
Y0169
X009Y0175
T04
X002Y002
X054
X002Y038
X054
M30
