M48
;Layer_Color=9474304
;FILE_FORMAT=2:5
INCH,LZ
;TYPE=PLATED
T1F00S00C0.02800
T2F00S00C0.03150
T3F00S00C0.03543
T4F00S00C0.03819
T5F00S00C0.09331
T6F00S00C0.17000
%
T01
X005Y002
X006
X007
X008
X009
X01
X011
X012
X013
X014
X015
Y003
X014
X013
X012
X011
X01
X009
X008
X007
X006
X005
Y004
X006
X007
X008
X009
X01
X011
X012
X013
X014
X015
Y005
X014
X013
X012
X011
X01
X009
X008
X007
X006
X005
Y006
Y007
X006
X007
X008
X009
X01
X011
X012
X013
X014
X015
Y008
Y009
X014
X013
X012
X011
X01
X009
X008
X007
X006
X005
Y008
X006
X007
X008
X009
X01
X011
X012
X013
X014
Y006
X013
X012
X011
X01
X009
X008
X007
X006
X015
X0136Y0135
X0124Y0145
X0155Y0155
X016Y0136
X0166Y013
X0198Y0128
X0181Y0109
X0189Y0101
X019Y009
X02
X021
X022
Y0098
X0218Y0106
X0236Y0105
X0247
X025Y009
X026
X027
X028
X029
X03
X031
Y008
Y007
X03
X029
X028
X027
X026
X025
X024
X023
X022
X021
X02
X019
X018
X017
X016
Y008
Y009
X017
X018
Y008
X019
X02
X021
X022
X023
Y009
Y0098
X024Y009
Y008
X025
X026
X027
X028
X029
X03
Y006
Y005
Y004
Y003
Y002
X029
X028
X027
X026
X025
X024
X023
X022
X021
X02
X019
X018
X017
X016
Y003
X017
X018
X019
X02
X021
X022
X023
X024
X025
X026
X027
X028
X029
Y004
X028
X027
X026
X025
X024
X023
X022
X021
X02
X019
X018
X017
X016
Y005
X017
X018
X019
X02
X021
X022
X023
X024
X025
X026
X027
X028
X029
Y006
X028
X027
X026
X025
X024
X023
X022
X021
X02
X019
X018
X017
X016
X017Y008
X0213Y0156
X0246Y0155
X0297Y0141
X031Y006
Y005
Y004
Y003
Y002
X032
X033
X034
X035
X036
X037
X038
X039
X04
X041
X042
X043
X044
X045
Y003
X044
X043
X042
X041
X04
X039
X038
X037
X036
X035
X034
X033
X032
Y004
X033
X034
X035
X036
X037
X038
X039
X04
X041
X042
X043
X044
X045
Y005
X044
X043
X042
X041
X04
X039
X038
X037
X036
X035
X034
X033
X032
Y006
Y007
X033
X034
X035
X036
X037
X038
X039
X04
X041
X042
X043
X044
X045
Y008
Y009
X044
X043
X042
X041
X04
X039
X038
X037
X036
X035
X034
X033
X032
Y008
X033
X034
X035
X036
X037
X038
X039
X04
X041
X042
X043
X044
Y006
X045
X043
X042
X041
X04
X039
X038
X037
X036
X035
X034
X033
X0457Y0096
X0469Y01
X047Y009
X0469Y0118
X0494Y01
X048Y0069
X0486Y0166
X0469Y0183
X0473Y0198
X05Y019
X0378Y0229
X028Y0248
X0276Y026
X0269Y0268
X0238Y0266
X023Y027
Y0283
X0238
X0246
Y0256
X0249Y0245
X0262Y02375
X0259Y0222
X0233Y0221
X0224Y0215
X0214Y0225
X021Y0235
X0228Y024
X0201Y0253
X0195Y0261
X0193Y0278
X0185Y0285
X0174Y0194
X01565Y0185379
Y0174
X0157Y0207
X0221Y0192
X0155Y0197
X01445Y0191
X0141Y0206
X0143Y0219
X0149Y02145
Y0162
X0142Y0167
X0126Y0159
X0121Y0171
X0127Y0176
X0093Y0171
Y016
X0061Y0175
X0056Y0185
X0064Y0219
X0096Y0226
X0088Y0265
X0133Y027
X0141Y0264
X0145Y0375
X0135
X0125
X0115
X0105
X0095
X0085
X0075
X0066Y0338
X0163Y0375
X0178
X0193
X0208
X0219
X0249
X0278
X0264Y0342
X023Y0339
X0331Y0342
X0338Y0323
X0315Y0318
Y0375
X0345
X0373
X0398
X0386Y034
X0409Y0338
T02
X002Y012
X003
Y013
Y014
Y015
X002
Y014
Y013
Y016
X003
Y017
Y018
Y019
X002
Y018
Y017
T03
X0018Y0059
X0035
Y0079
X0018
X0315Y0115
X033
X0345
X036
X0375
X039
X0405
X042
X0435
X045
X047Y005
X0485
X0484Y003
X047
X04115Y0199
X04015
Y0209
X04115
Y0219
X04015
X0356Y0229
Y0209
Y0189
X0385Y031
T04
X0515197Y0059693
X0525
Y0067764
Y0078
Y0086071
X0515197
Y0156693
X0525
Y0164764
Y0175
Y0183071
X0515197
T05
X0536811Y0046268
X054Y0072882
X0536811Y0099496
Y0143268
X054Y0169882
X0536811Y0196496
T06
X002Y002
X054
X002Y038
X054
M30
