M48
;Layer_Color=9474304
;FILE_FORMAT=2:5
INCH,LZ
;TYPE=PLATED
T1F00S00C0.02800
T2F00S00C0.03150
T3F00S00C0.03543
T4F00S00C0.17000
%
T01
X00445Y0019
X00435Y0032
X00425Y0055
X00545Y00565
X0054Y0014
X008Y0007
X01465Y002
X0144Y0031
X01464Y00521
X012175Y00504
X01265Y0059
X01025Y0065
X00965Y00835
X01152Y00871
X0132408Y00936
X01391Y01055
X0148471Y0119
X01491Y01284
X01339Y01246
X0117Y01105
X01085Y01145
X00843Y01137
X0075Y0123
X00707Y014
X00816
X00676Y01514
X0057Y0108
X0042Y0099
X0035Y0104
X01515Y01525
X01589Y01137
X0180942Y0106
X018Y00925
X01777Y0075
X0162451
X0189Y0068853
X01975Y007
X02065
X02092Y0083
X02234Y0075937
X0229Y0109
X0249Y0121
X02505Y01305
X02531Y0138
X0244Y0146
X0268Y0152
X02905Y01465
X02954Y01554
X02931Y01314
X03097Y01328
X02925Y0113
X02944Y00951
X02929Y0088
X02846Y00974
X025415Y00977
X0248Y00575
X0237679Y00485
X02685Y0052
X0275Y0031
X02806Y002
X02907Y0019
X02955Y0037
X02945Y00475
X02965Y00705
X027Y0016
X0263Y00195
X02005Y00145
X01745Y00245
X02005Y01015
X01999Y01139
X01976Y0125327
X0314Y0119
X03243Y01211
X0324Y01125
X03366Y01171
X03411Y01285
X03511Y01335
X03313Y0135937
X0328408Y01462
X0331718Y01523
X03254Y01531
X03667Y01413
X03722Y01067
X0374312Y0097
X03692Y00828
X0383033Y0079
X03815Y00497
X03875Y00368
X04155Y0034
X04339Y00668
X0444Y00648
X04431Y00792
X043Y0079
X04295Y00915
X0429Y01015
X0436Y0106325
X045Y01056
X0465575Y01053
X04572Y00963
X04588Y01213
X04545Y01315
X04435Y0126
X0435Y01243
X04145Y0113
X04035Y0105
X0392
X041545Y0093
X0466Y0069
X03605Y00515
X0342Y0019
X03205Y00165
X0317Y00815
X0338Y0083
X04735Y00911
X0481Y01055
X0495
X05075Y0105
X0519Y01055
X05144Y01317
X05083Y01297
X0503Y0145
X0524
X0485Y01315
X0475Y01256
X04755Y0068
X04863Y0067
X05005Y0078
X05013Y009115
X05297Y00809
X0487Y00234
X05Y018085
X05244Y01844
X05284Y01784
X052Y0203
X0508Y02099
X0497Y02142
X0484Y02145
X0472Y02055
X04785Y0193
X0472Y0237
X04815Y02535
X0508Y0259
X0516Y0262
Y0271
X0508Y0243
X0469Y0282
X0484Y03
X04619Y022125
X0453Y02104
X044Y02129
X04295Y0214
X04214Y02091
X04154Y02178
X04167Y019555
X0403Y01985
Y01899
X0394Y02107
X03818Y02024
X0369052Y0202203
X0366Y02098
X0365Y0195
X03725Y01806
X0327Y0185
X03315Y01956
X0329Y0208
X03415Y02095
X0356Y02225
X0378Y0251
X0397
X0391Y0241
X04069Y02364
X0434Y019715
X04467
X04637Y019655
X0465Y01885
X04505Y01685
X0441Y01725
X0326Y01625
X0315Y0265
X0314Y0277
X0315Y029
X0359Y0297
X0358Y0312
X0379Y0308
X0244Y0278
X0244591Y02656
X02501Y02253
X02382Y022
X0206Y023
X01847Y02083
X01894Y02024
X01908Y01949
X01887Y01774
X0212Y0171
Y0161
X02231Y0166
X02783Y0167
X028Y0177
X026765Y017795
X02635Y0192
X0276Y0208
X02949Y01812
X016Y0216
Y0228
X0166Y0235
X0169Y0244
X01751Y02606
X0163Y02623
X0207Y0276
X0185Y0302
X0156Y0301
X0139Y0269
X01374Y0253839
X01472Y02598
X0147Y0223
X01515Y0194
X01529Y0183
X01335Y01855
X01165Y01895
X0111Y0182
X01001Y01787
X00818Y0182
X00746Y0174
X007897Y01615
X01061Y01605
X0146Y01585
X01145Y02056
X0102Y021
X009Y02385
X0067Y0228
X0061Y0222
X0065Y0214
Y0206
X005Y02
X0045Y0214
X0033Y0222
X0038Y0229
X0044Y0235
X0059
X0072661Y019
X00875Y02705
X0063Y0321
Y0337
X0075Y0375
X0085
X0095
X0105
X0115
X0125
X0135
X0145
X0152Y03215
X0163Y0375
X0178
X0193
X02075
X022
X0235
X0245
X0255
X0265
X0275
X0285
X0295
X0305
X0322
X0331
X034
X0349
X0358
X0368
X0377
X0398
X0412
X0444
X0462
X0444Y0326
X0387Y0317
X0314Y0314
X0472Y0322
X0484Y0319
X0508Y0316
X052Y0322
X0542Y0354
X0527Y0375
X0513
X04945
X048
T02
X002Y012
X003
Y013
Y014
Y015
X002
Y014
Y013
Y016
X003
Y017
Y018
Y019
X002
Y018
Y017
T03
X0135Y0141
X0272Y0134
X0358Y0124
X0372
X0386Y014
X0415Y0051
X0425
X0435
X0445
X0455
X0465
X0475
X0485
X0495
X0505
X054Y005
Y006
Y007
Y008
Y009
Y01
Y011
Y012
Y013
Y014
Y018
Y019
Y02
Y021
Y022
Y023
Y024
Y025
Y026
Y027
X05425Y0295
Y0305
X0493Y0271
X0483
X0473
X0475Y016
X0485
X0495
X0505
X0465
X0455
X0445
X0435
X0425
X0415
X0386Y0158
X0403Y0271
X0413
X0423
X0433
X0443
X0453
X0463
X0428Y0295
Y0305
X0315Y0246
Y0236
Y0226
X0305
Y0236
Y0246
X0259Y025
Y0229
Y0209
X0135Y0161
X009Y0175
T04
X002Y002
X054
X002Y038
X054
M30
