G04*
G04 #@! TF.GenerationSoftware,Altium Limited,Altium Designer,22.3.1 (43)*
G04*
G04 Layer_Color=65535*
%FSLAX25Y25*%
%MOIN*%
G70*
G04*
G04 #@! TF.SameCoordinates,F71B8339-E566-44E3-B05A-047308818BE7*
G04*
G04*
G04 #@! TF.FilePolarity,Positive*
G04*
G01*
G75*
%ADD10C,0.01575*%
%ADD11C,0.01000*%
%ADD12C,0.00787*%
%ADD13C,0.00500*%
%ADD14C,0.00800*%
D10*
X106776Y79748D02*
G03*
X106776Y79748I-787J0D01*
G01*
D11*
X375500Y360500D02*
X415500D01*
X375500Y370500D02*
X415500D01*
Y360500D02*
Y370500D01*
X375500Y360500D02*
Y370500D01*
X71900Y348500D02*
X152900D01*
X71900Y358500D02*
X152900D01*
Y348500D02*
Y358500D01*
X71900Y348500D02*
Y358500D01*
X154500Y348500D02*
X228000D01*
X154500Y358500D02*
X228000D01*
Y348500D02*
Y358500D01*
X154500Y348500D02*
Y358500D01*
X71750Y360500D02*
X228250D01*
X71750Y370500D02*
X228250D01*
Y360500D02*
Y370500D01*
X71750Y360500D02*
Y370500D01*
X334000Y360500D02*
X374000D01*
X334000Y370500D02*
X374000D01*
Y360500D02*
Y370500D01*
X334000Y360500D02*
Y370500D01*
X375500Y348500D02*
X415500D01*
X375500Y358500D02*
X415500D01*
Y348500D02*
Y358500D01*
X375500Y348500D02*
Y358500D01*
X334000Y348500D02*
X374000D01*
X334000Y358500D02*
X374000D01*
Y348500D02*
Y358500D01*
X334000Y348500D02*
Y358500D01*
X230050Y360500D02*
X332000D01*
X230050Y370500D02*
X332000D01*
Y360500D02*
Y370500D01*
X230050Y360500D02*
Y370500D01*
X229750Y348500D02*
X332000D01*
X229750Y358500D02*
X332000D01*
Y348500D02*
Y358500D01*
X229750Y348500D02*
Y358500D01*
X376672Y147354D02*
X476672D01*
X376672Y157354D02*
X476672D01*
Y147354D02*
Y157354D01*
X376672Y147354D02*
Y157354D01*
X377180Y273609D02*
X477180D01*
X377180Y283609D02*
X477180D01*
Y273609D02*
Y283609D01*
X377180Y273609D02*
Y283609D01*
Y285109D02*
X477180D01*
X377180Y295109D02*
X477180D01*
Y285109D02*
Y295109D01*
X377180Y285109D02*
Y295109D01*
X376672Y158854D02*
X476672D01*
X376672Y168854D02*
X476672D01*
Y158854D02*
Y168854D01*
X376672Y158854D02*
Y168854D01*
X157000Y327000D02*
Y343000D01*
X164500D01*
Y327000D02*
Y343000D01*
X157000Y327000D02*
X164500D01*
X158500Y328500D02*
X163000D01*
X189000Y327000D02*
Y343000D01*
X196500D01*
Y327000D02*
Y343000D01*
X189000Y327000D02*
X196500D01*
X190500Y328500D02*
X195000D01*
X378000Y254500D02*
Y270500D01*
X385500D01*
Y254500D02*
Y270500D01*
X378000Y254500D02*
X385500D01*
X379500Y256000D02*
X384000D01*
X392000Y254500D02*
Y270500D01*
X399500D01*
Y254500D02*
Y270500D01*
X392000Y254500D02*
X399500D01*
X393500Y256000D02*
X398000D01*
X405000Y254500D02*
Y270500D01*
X412500D01*
Y254500D02*
Y270500D01*
X405000Y254500D02*
X412500D01*
X406500Y256000D02*
X411000D01*
X418000Y254500D02*
Y270500D01*
X425500D01*
Y254500D02*
Y270500D01*
X418000Y254500D02*
X425500D01*
X419500Y256000D02*
X424000D01*
X430000Y254500D02*
Y270500D01*
X437500D01*
Y254500D02*
Y270500D01*
X430000Y254500D02*
X437500D01*
X431500Y256000D02*
X436000D01*
X443000Y254500D02*
Y270500D01*
X450500D01*
Y254500D02*
Y270500D01*
X443000Y254500D02*
X450500D01*
X444500Y256000D02*
X449000D01*
X456000Y254500D02*
Y270500D01*
X463500D01*
Y254500D02*
Y270500D01*
X456000Y254500D02*
X463500D01*
X457500Y256000D02*
X462000D01*
X468000Y254500D02*
Y270500D01*
X475500D01*
Y254500D02*
Y270500D01*
X468000Y254500D02*
X475500D01*
X469500Y256000D02*
X474000D01*
X147000Y244000D02*
Y254000D01*
X137000Y244000D02*
X147000D01*
X137000D02*
Y254000D01*
X147000D01*
X145000Y244000D02*
X147000D01*
X75500Y328500D02*
X80000D01*
X74000Y327000D02*
X81500D01*
Y343000D01*
X74000D02*
X81500D01*
X74000Y327000D02*
Y343000D01*
X85500Y328500D02*
X90000D01*
X84000Y327000D02*
X91500D01*
Y343000D01*
X84000D02*
X91500D01*
X84000Y327000D02*
Y343000D01*
X95500Y328500D02*
X100000D01*
X94000Y327000D02*
X101500D01*
Y343000D01*
X94000D02*
X101500D01*
X94000Y327000D02*
Y343000D01*
X105500Y328500D02*
X110000D01*
X104000Y327000D02*
X111500D01*
Y343000D01*
X104000D02*
X111500D01*
X104000Y327000D02*
Y343000D01*
X115500Y328500D02*
X120000D01*
X114000Y327000D02*
X121500D01*
Y343000D01*
X114000D02*
X121500D01*
X114000Y327000D02*
Y343000D01*
X125500Y328500D02*
X130000D01*
X124000Y327000D02*
X131500D01*
Y343000D01*
X124000D02*
X131500D01*
X124000Y327000D02*
Y343000D01*
X135500Y328500D02*
X140000D01*
X134000Y327000D02*
X141500D01*
Y343000D01*
X134000D02*
X141500D01*
X134000Y327000D02*
Y343000D01*
X145500Y328500D02*
X150000D01*
X144000Y327000D02*
X151500D01*
Y343000D01*
X144000D02*
X151500D01*
X144000Y327000D02*
Y343000D01*
X215500Y328500D02*
X220000D01*
X214000Y327000D02*
X221500D01*
Y343000D01*
X214000D02*
X221500D01*
X214000Y327000D02*
Y343000D01*
X202500Y328500D02*
X207000D01*
X201000Y327000D02*
X208500D01*
Y343000D01*
X201000D02*
X208500D01*
X201000Y327000D02*
Y343000D01*
X174500Y328500D02*
X179000D01*
X173000Y327000D02*
X180500D01*
Y343000D01*
X173000D02*
X180500D01*
X173000Y327000D02*
Y343000D01*
X353500Y328500D02*
X358000D01*
X352000Y327000D02*
X359500D01*
Y343000D01*
X352000D02*
X359500D01*
X352000Y327000D02*
Y343000D01*
X248500Y328500D02*
X253000D01*
X247000Y327000D02*
X254500D01*
Y343000D01*
X247000D02*
X254500D01*
X247000Y327000D02*
Y343000D01*
X233500Y328500D02*
X238000D01*
X232000Y327000D02*
X239500D01*
Y343000D01*
X232000D02*
X239500D01*
X232000Y327000D02*
Y343000D01*
X469500Y129500D02*
X474000D01*
X468000Y128000D02*
X475500D01*
Y144000D01*
X468000D02*
X475500D01*
X468000Y128000D02*
Y144000D01*
X457500Y129500D02*
X462000D01*
X456000Y128000D02*
X463500D01*
Y144000D01*
X456000D02*
X463500D01*
X456000Y128000D02*
Y144000D01*
X444500Y129500D02*
X449000D01*
X443000Y128000D02*
X450500D01*
Y144000D01*
X443000D02*
X450500D01*
X443000Y128000D02*
Y144000D01*
X431500Y129500D02*
X436000D01*
X430000Y128000D02*
X437500D01*
Y144000D01*
X430000D02*
X437500D01*
X430000Y128000D02*
Y144000D01*
X419500Y129500D02*
X424000D01*
X418000Y128000D02*
X425500D01*
Y144000D01*
X418000D02*
X425500D01*
X418000Y128000D02*
Y144000D01*
X407500Y129500D02*
X412000D01*
X406000Y128000D02*
X413500D01*
Y144000D01*
X406000D02*
X413500D01*
X406000Y128000D02*
Y144000D01*
X393500Y129500D02*
X398000D01*
X392000Y128000D02*
X399500D01*
Y144000D01*
X392000D02*
X399500D01*
X392000Y128000D02*
Y144000D01*
X379500Y129500D02*
X384000D01*
X378000Y128000D02*
X385500D01*
Y144000D01*
X378000D02*
X385500D01*
X378000Y128000D02*
Y144000D01*
X384500Y328500D02*
X389000D01*
X383000Y327000D02*
X390500D01*
Y343000D01*
X383000D02*
X390500D01*
X383000Y327000D02*
Y343000D01*
X402000Y328500D02*
X406500D01*
X400500Y327000D02*
X408000D01*
Y343000D01*
X400500D02*
X408000D01*
X400500Y327000D02*
Y343000D01*
X288500Y328500D02*
X293000D01*
X287000Y327000D02*
X294500D01*
Y343000D01*
X287000D02*
X294500D01*
X287000Y327000D02*
Y343000D01*
X266500Y328500D02*
X271000D01*
X265000Y327000D02*
X272500D01*
Y343000D01*
X265000D02*
X272500D01*
X265000Y327000D02*
Y343000D01*
X320500Y328500D02*
X325000D01*
X319000Y327000D02*
X326500D01*
Y343000D01*
X319000D02*
X326500D01*
X319000Y327000D02*
Y343000D01*
X307500Y328500D02*
X312000D01*
X306000Y327000D02*
X313500D01*
Y343000D01*
X306000D02*
X313500D01*
X306000Y327000D02*
Y343000D01*
X105000Y199000D02*
Y209000D01*
X95000Y199000D02*
X105000D01*
X95000D02*
Y209000D01*
X105000D01*
X103000Y199000D02*
X105000D01*
X119000D02*
Y209000D01*
X109000Y199000D02*
X119000D01*
X109000D02*
Y209000D01*
X119000D01*
X117000Y199000D02*
X119000D01*
X146000Y286000D02*
Y296000D01*
X136000Y286000D02*
X146000D01*
X136000D02*
Y296000D01*
X146000D01*
X144000Y286000D02*
X146000D01*
X147000Y199000D02*
Y209000D01*
X137000Y199000D02*
X147000D01*
X137000D02*
Y209000D01*
X147000D01*
X145000Y199000D02*
X147000D01*
X133000D02*
Y209000D01*
X123000Y199000D02*
X133000D01*
X123000D02*
Y209000D01*
X133000D01*
X131000Y199000D02*
X133000D01*
X175000D02*
Y209000D01*
X165000Y199000D02*
X175000D01*
X165000D02*
Y209000D01*
X175000D01*
X173000Y199000D02*
X175000D01*
X161000D02*
Y209000D01*
X151000Y199000D02*
X161000D01*
X151000D02*
Y209000D01*
X161000D01*
X159000Y199000D02*
X161000D01*
X175000Y235000D02*
Y245000D01*
X165000Y235000D02*
X175000D01*
X165000D02*
Y245000D01*
X175000D01*
X173000Y235000D02*
X175000D01*
Y217000D02*
Y227000D01*
X165000Y217000D02*
X175000D01*
X165000D02*
Y227000D01*
X175000D01*
X173000Y217000D02*
X175000D01*
X11000Y165000D02*
Y169000D01*
X7000D02*
X11000D01*
X7000Y210000D02*
X43000D01*
Y100000D02*
Y210000D01*
X7000Y100000D02*
X43000D01*
X7000D02*
Y145000D01*
Y169000D02*
Y210000D01*
Y145000D02*
X11000D01*
Y165000D01*
X167000Y159000D02*
Y169000D01*
X157000Y159000D02*
X167000D01*
X157000D02*
Y169000D01*
X167000D01*
X165000Y159000D02*
X167000D01*
X378000Y327000D02*
Y337000D01*
X368000Y327000D02*
X378000D01*
X368000D02*
Y337000D01*
X378000D01*
X376000Y327000D02*
X378000D01*
X153000Y159000D02*
Y169000D01*
X143000Y159000D02*
X153000D01*
X143000D02*
Y169000D01*
X153000D01*
X151000Y159000D02*
X153000D01*
X139000D02*
Y169000D01*
X129000Y159000D02*
X139000D01*
X129000D02*
Y169000D01*
X139000D01*
X137000Y159000D02*
X139000D01*
X159000Y103000D02*
Y113000D01*
X149000Y103000D02*
X159000D01*
X149000D02*
Y113000D01*
X159000D01*
X157000Y103000D02*
X159000D01*
X242500Y12500D02*
Y22500D01*
X232500Y12500D02*
X242500D01*
X232500D02*
Y22500D01*
X242500D01*
X240500Y12500D02*
X242500D01*
X230000D02*
Y22500D01*
X220000Y12500D02*
X230000D01*
X220000D02*
Y22500D01*
X230000D01*
X228000Y12500D02*
X230000D01*
X217500D02*
Y22500D01*
X207500Y12500D02*
X217500D01*
X207500D02*
Y22500D01*
X217500D01*
X215500Y12500D02*
X217500D01*
X205000D02*
Y22500D01*
X195000Y12500D02*
X205000D01*
X195000D02*
Y22500D01*
X205000D01*
X203000Y12500D02*
X205000D01*
X192500D02*
Y22500D01*
X182500Y12500D02*
X192500D01*
X182500D02*
Y22500D01*
X192500D01*
X190500Y12500D02*
X192500D01*
X180000D02*
Y22500D01*
X170000Y12500D02*
X180000D01*
X170000D02*
Y22500D01*
X180000D01*
X178000Y12500D02*
X180000D01*
X167500D02*
Y22500D01*
X157500Y12500D02*
X167500D01*
X157500D02*
Y22500D01*
X167500D01*
X165500Y12500D02*
X167500D01*
X60668Y67000D02*
Y70999D01*
X62667D01*
X63334Y70333D01*
Y69000D01*
X62667Y68333D01*
X60668D01*
X62001D02*
X63334Y67000D01*
X64667Y67667D02*
X65333Y67000D01*
X66666D01*
X67333Y67667D01*
Y70333D01*
X66666Y70999D01*
X65333D01*
X64667Y70333D01*
Y69666D01*
X65333Y69000D01*
X67333D01*
X68665Y70333D02*
X69332Y70999D01*
X70665D01*
X71331Y70333D01*
Y69666D01*
X70665Y69000D01*
X69998D01*
X70665D01*
X71331Y68333D01*
Y67667D01*
X70665Y67000D01*
X69332D01*
X68665Y67667D01*
X431000Y327998D02*
Y323999D01*
X432999Y322000D01*
X434999Y323999D01*
Y327998D01*
X439997Y322000D02*
X437998D01*
X436998Y323000D01*
Y324999D01*
X437998Y325999D01*
X439997D01*
X440997Y324999D01*
Y323999D01*
X436998D01*
X442996Y325999D02*
Y322000D01*
Y323999D01*
X443996Y324999D01*
X444995Y325999D01*
X445995D01*
X448994Y322000D02*
X450993D01*
X449994D01*
Y325999D01*
X448994D01*
X453993Y322000D02*
X456992D01*
X457991Y323000D01*
X456992Y323999D01*
X454992D01*
X453993Y324999D01*
X454992Y325999D01*
X457991D01*
X460990Y322000D02*
X462990D01*
X463989Y323000D01*
Y324999D01*
X462990Y325999D01*
X460990D01*
X459991Y324999D01*
Y323000D01*
X460990Y322000D01*
X465989D02*
Y325999D01*
X468988D01*
X469987Y324999D01*
Y322000D01*
X477985D02*
X479984D01*
X478984D01*
Y327998D01*
X477985Y326998D01*
X482983Y322000D02*
Y323000D01*
X483983D01*
Y322000D01*
X482983D01*
X487982D02*
X489981D01*
X488981D01*
Y327998D01*
X487982Y326998D01*
X431000Y333003D02*
Y339001D01*
X433999D01*
X434999Y338002D01*
Y336002D01*
X433999Y335003D01*
X431000D01*
X436998Y333003D02*
X440997Y337002D01*
X442996Y333003D02*
Y339001D01*
X446995Y333003D01*
Y339001D01*
X454992D02*
Y333003D01*
X457991D01*
X458991Y334003D01*
Y338002D01*
X457991Y339001D01*
X454992D01*
X460990Y333003D02*
X462990D01*
X461990D01*
Y337002D01*
X460990D01*
X467988Y331004D02*
X468988D01*
X469987Y332004D01*
Y337002D01*
X466988D01*
X465989Y336002D01*
Y334003D01*
X466988Y333003D01*
X469987D01*
X480984Y339001D02*
X478984D01*
X477985Y338002D01*
Y334003D01*
X478984Y333003D01*
X480984D01*
X481984Y334003D01*
Y338002D01*
X480984Y339001D01*
X483983Y337002D02*
Y334003D01*
X484982Y333003D01*
X487982D01*
Y337002D01*
X490981Y338002D02*
Y337002D01*
X489981D01*
X491980D01*
X490981D01*
Y334003D01*
X491980Y333003D01*
X494979Y331004D02*
Y337002D01*
X497978D01*
X498978Y336002D01*
Y334003D01*
X497978Y333003D01*
X494979D01*
X500977Y337002D02*
Y334003D01*
X501977Y333003D01*
X504976D01*
Y337002D01*
X507975Y338002D02*
Y337002D01*
X506975D01*
X508975D01*
X507975D01*
Y334003D01*
X508975Y333003D01*
X517972Y338002D02*
X518971Y339001D01*
X520971D01*
X521971Y338002D01*
Y337002D01*
X520971Y336002D01*
X519971D01*
X520971D01*
X521971Y335003D01*
Y334003D01*
X520971Y333003D01*
X518971D01*
X517972Y334003D01*
X527969Y333003D02*
X523970D01*
X527969Y337002D01*
Y338002D01*
X526969Y339001D01*
X524970D01*
X523970Y338002D01*
X529968Y334003D02*
X530968Y333003D01*
X532967D01*
X533967Y334003D01*
Y338002D01*
X532967Y339001D01*
X530968D01*
X529968Y338002D01*
Y337002D01*
X530968Y336002D01*
X533967D01*
X539965Y339001D02*
X535966D01*
Y336002D01*
X537965Y337002D01*
X538965D01*
X539965Y336002D01*
Y334003D01*
X538965Y333003D01*
X536966D01*
X535966Y334003D01*
X541964Y338002D02*
X542964Y339001D01*
X544963D01*
X545963Y338002D01*
Y337002D01*
X544963Y336002D01*
X545963Y335003D01*
Y334003D01*
X544963Y333003D01*
X542964D01*
X541964Y334003D01*
Y335003D01*
X542964Y336002D01*
X541964Y337002D01*
Y338002D01*
X542964Y336002D02*
X544963D01*
X431000Y332999D02*
Y338997D01*
X433999D01*
X434999Y337998D01*
Y335998D01*
X433999Y334999D01*
X431000D01*
X436998Y332999D02*
X440997Y336998D01*
X442996Y332999D02*
Y338997D01*
X446995Y332999D01*
Y338997D01*
X454992D02*
Y332999D01*
X457991D01*
X458991Y333999D01*
Y337998D01*
X457991Y338997D01*
X454992D01*
X460990Y332999D02*
X462990D01*
X461990D01*
Y336998D01*
X460990D01*
X467988Y331000D02*
X468988D01*
X469987Y332000D01*
Y336998D01*
X466988D01*
X465989Y335998D01*
Y333999D01*
X466988Y332999D01*
X469987D01*
X480984Y338997D02*
X478984D01*
X477985Y337998D01*
Y333999D01*
X478984Y332999D01*
X480984D01*
X481984Y333999D01*
Y337998D01*
X480984Y338997D01*
X483983Y336998D02*
Y333999D01*
X484982Y332999D01*
X487982D01*
Y336998D01*
X490981Y337998D02*
Y336998D01*
X489981D01*
X491980D01*
X490981D01*
Y333999D01*
X491980Y332999D01*
X494979Y331000D02*
Y336998D01*
X497978D01*
X498978Y335998D01*
Y333999D01*
X497978Y332999D01*
X494979D01*
X500977Y336998D02*
Y333999D01*
X501977Y332999D01*
X504976D01*
Y336998D01*
X507975Y337998D02*
Y336998D01*
X506975D01*
X508975D01*
X507975D01*
Y333999D01*
X508975Y332999D01*
X517972Y337998D02*
X518971Y338997D01*
X520971D01*
X521971Y337998D01*
Y336998D01*
X520971Y335998D01*
X519971D01*
X520971D01*
X521971Y334999D01*
Y333999D01*
X520971Y332999D01*
X518971D01*
X517972Y333999D01*
X527969Y332999D02*
X523970D01*
X527969Y336998D01*
Y337998D01*
X526969Y338997D01*
X524970D01*
X523970Y337998D01*
X529968Y333999D02*
X530968Y332999D01*
X532967D01*
X533967Y333999D01*
Y337998D01*
X532967Y338997D01*
X530968D01*
X529968Y337998D01*
Y336998D01*
X530968Y335998D01*
X533967D01*
X539965Y338997D02*
X535966D01*
Y335998D01*
X537965Y336998D01*
X538965D01*
X539965Y335998D01*
Y333999D01*
X538965Y332999D01*
X536966D01*
X535966Y333999D01*
X541964Y337998D02*
X542964Y338997D01*
X544963D01*
X545963Y337998D01*
Y336998D01*
X544963Y335998D01*
X545963Y334999D01*
Y333999D01*
X544963Y332999D01*
X542964D01*
X541964Y333999D01*
Y334999D01*
X542964Y335998D01*
X541964Y336998D01*
Y337998D01*
X542964Y335998D02*
X544963D01*
X320666Y354332D02*
X319999Y354999D01*
X318666D01*
X318000Y354332D01*
Y353666D01*
X318666Y352999D01*
X319999D01*
X320666Y352333D01*
Y351666D01*
X319999Y351000D01*
X318666D01*
X318000Y351666D01*
X321999Y354999D02*
Y351000D01*
X323998D01*
X324664Y351666D01*
Y354332D01*
X323998Y354999D01*
X321999D01*
X325997Y354332D02*
X326664Y354999D01*
X327997D01*
X328663Y354332D01*
Y351666D01*
X327997Y351000D01*
X326664D01*
X325997Y351666D01*
Y354332D01*
X384999Y292832D02*
X383666D01*
X383000Y292165D01*
Y289499D01*
X383666Y288833D01*
X384999D01*
X385666Y289499D01*
Y292165D01*
X384999Y292832D01*
X386999Y291499D02*
Y289499D01*
X387665Y288833D01*
X389665D01*
Y291499D01*
X391664Y292165D02*
Y291499D01*
X390997D01*
X392330D01*
X391664D01*
Y289499D01*
X392330Y288833D01*
X394330Y287500D02*
Y291499D01*
X396329D01*
X396995Y290832D01*
Y289499D01*
X396329Y288833D01*
X394330D01*
X398328Y291499D02*
Y289499D01*
X398995Y288833D01*
X400994D01*
Y291499D01*
X402994Y292165D02*
Y291499D01*
X402327D01*
X403660D01*
X402994D01*
Y289499D01*
X403660Y288833D01*
X412324Y292165D02*
X411657Y292832D01*
X410324D01*
X409658Y292165D01*
Y291499D01*
X410324Y290832D01*
X411657D01*
X412324Y290166D01*
Y289499D01*
X411657Y288833D01*
X410324D01*
X409658Y289499D01*
X414323Y288833D02*
X415656D01*
X416323Y289499D01*
Y290832D01*
X415656Y291499D01*
X414323D01*
X413657Y290832D01*
Y289499D01*
X414323Y288833D01*
X417656Y291499D02*
Y289499D01*
X418322Y288833D01*
X420321D01*
Y291499D01*
X421654D02*
Y288833D01*
Y290166D01*
X422321Y290832D01*
X422987Y291499D01*
X423654D01*
X428319D02*
X426319D01*
X425653Y290832D01*
Y289499D01*
X426319Y288833D01*
X428319D01*
X431651D02*
X430318D01*
X429652Y289499D01*
Y290832D01*
X430318Y291499D01*
X431651D01*
X432317Y290832D01*
Y290166D01*
X429652D01*
X438982Y288833D02*
X437649Y290166D01*
Y291499D01*
X438982Y292832D01*
X440981D02*
X443647D01*
X442314D01*
Y288833D01*
X444980Y292832D02*
X447646D01*
X446313D01*
Y288833D01*
X448979Y292832D02*
Y288833D01*
X451645D01*
X456976Y290166D02*
X459642D01*
X456976Y291499D02*
X459642D01*
X466973Y292832D02*
X465640D01*
X464974Y292165D01*
Y289499D01*
X465640Y288833D01*
X466973D01*
X467639Y289499D01*
Y292165D01*
X466973Y292832D01*
X468972Y288833D02*
Y291499D01*
X470972D01*
X471638Y290832D01*
Y288833D01*
X472971D02*
X474304Y290166D01*
Y291499D01*
X472971Y292832D01*
X405381Y154353D02*
Y150354D01*
X407380D01*
X408047Y151020D01*
Y153686D01*
X407380Y154353D01*
X405381D01*
X412045D02*
X409380D01*
Y152353D01*
X410712Y153020D01*
X411379D01*
X412045Y152353D01*
Y151020D01*
X411379Y150354D01*
X410046D01*
X409380Y151020D01*
X392527Y154353D02*
Y150354D01*
X394526D01*
X395192Y151020D01*
Y153686D01*
X394526Y154353D01*
X392527D01*
X399191D02*
X397858Y153686D01*
X396525Y152353D01*
Y151020D01*
X397192Y150354D01*
X398525D01*
X399191Y151020D01*
Y151687D01*
X398525Y152353D01*
X396525D01*
X379672Y154353D02*
Y150354D01*
X381672D01*
X382338Y151020D01*
Y153686D01*
X381672Y154353D01*
X379672D01*
X383671D02*
X386337D01*
Y153686D01*
X383671Y151020D01*
Y150354D01*
X406499Y166686D02*
X405166D01*
X404500Y166019D01*
Y163353D01*
X405166Y162687D01*
X406499D01*
X407166Y163353D01*
Y166019D01*
X406499Y166686D01*
X408499Y165353D02*
Y163353D01*
X409165Y162687D01*
X411165D01*
Y165353D01*
X413164Y166019D02*
Y165353D01*
X412497D01*
X413830D01*
X413164D01*
Y163353D01*
X413830Y162687D01*
X415830Y161354D02*
Y165353D01*
X417829D01*
X418496Y164686D01*
Y163353D01*
X417829Y162687D01*
X415830D01*
X419828Y165353D02*
Y163353D01*
X420495Y162687D01*
X422494D01*
Y165353D01*
X424494Y166019D02*
Y165353D01*
X423827D01*
X425160D01*
X424494D01*
Y163353D01*
X425160Y162687D01*
X433824Y166019D02*
X433157Y166686D01*
X431824D01*
X431158Y166019D01*
Y165353D01*
X431824Y164686D01*
X433157D01*
X433824Y164020D01*
Y163353D01*
X433157Y162687D01*
X431824D01*
X431158Y163353D01*
X435823Y166019D02*
Y165353D01*
X435157D01*
X436490D01*
X435823D01*
Y163353D01*
X436490Y162687D01*
X439155Y165353D02*
X440488D01*
X441155Y164686D01*
Y162687D01*
X439155D01*
X438489Y163353D01*
X439155Y164020D01*
X441155D01*
X443154Y166019D02*
Y165353D01*
X442488D01*
X443821D01*
X443154D01*
Y163353D01*
X443821Y162687D01*
X447819D02*
X446487D01*
X445820Y163353D01*
Y164686D01*
X446487Y165353D01*
X447819D01*
X448486Y164686D01*
Y164020D01*
X445820D01*
X449819Y162687D02*
X451818D01*
X452485Y163353D01*
X451818Y164020D01*
X450485D01*
X449819Y164686D01*
X450485Y165353D01*
X452485D01*
X456798Y154353D02*
Y150354D01*
X458797D01*
X459464Y151020D01*
Y153686D01*
X458797Y154353D01*
X456798D01*
X460797Y150354D02*
X462130D01*
X461463D01*
Y154353D01*
X460797Y153686D01*
X418235Y154353D02*
Y150354D01*
X420235D01*
X420901Y151020D01*
Y153686D01*
X420235Y154353D01*
X418235D01*
X424233Y150354D02*
Y154353D01*
X422234Y152353D01*
X424900D01*
X431089Y154353D02*
Y150354D01*
X433089D01*
X433755Y151020D01*
Y153686D01*
X433089Y154353D01*
X431089D01*
X435088Y153686D02*
X435755Y154353D01*
X437087D01*
X437754Y153686D01*
Y153020D01*
X437087Y152353D01*
X436421D01*
X437087D01*
X437754Y151687D01*
Y151020D01*
X437087Y150354D01*
X435755D01*
X435088Y151020D01*
X467653Y154353D02*
Y150354D01*
X469652D01*
X470319Y151020D01*
Y153686D01*
X469652Y154353D01*
X467653D01*
X471652Y153686D02*
X472318Y154353D01*
X473651D01*
X474318Y153686D01*
Y151020D01*
X473651Y150354D01*
X472318D01*
X471652Y151020D01*
Y153686D01*
X443944Y154353D02*
Y150354D01*
X445943D01*
X446610Y151020D01*
Y153686D01*
X445943Y154353D01*
X443944D01*
X450608Y150354D02*
X447942D01*
X450608Y153020D01*
Y153686D01*
X449942Y154353D01*
X448609D01*
X447942Y153686D01*
X468161Y280608D02*
Y276609D01*
X470160D01*
X470827Y277275D01*
Y279941D01*
X470160Y280608D01*
X468161D01*
X472160Y279941D02*
X472826Y280608D01*
X474159D01*
X474825Y279941D01*
Y277275D01*
X474159Y276609D01*
X472826D01*
X472160Y277275D01*
Y279941D01*
X457306Y280608D02*
Y276609D01*
X459305D01*
X459972Y277275D01*
Y279941D01*
X459305Y280608D01*
X457306D01*
X461305Y276609D02*
X462638D01*
X461971D01*
Y280608D01*
X461305Y279941D01*
X444452Y280608D02*
Y276609D01*
X446451D01*
X447118Y277275D01*
Y279941D01*
X446451Y280608D01*
X444452D01*
X451116Y276609D02*
X448450D01*
X451116Y279275D01*
Y279941D01*
X450450Y280608D01*
X449117D01*
X448450Y279941D01*
X431597Y280608D02*
Y276609D01*
X433597D01*
X434263Y277275D01*
Y279941D01*
X433597Y280608D01*
X431597D01*
X435596Y279941D02*
X436263Y280608D01*
X437596D01*
X438262Y279941D01*
Y279275D01*
X437596Y278608D01*
X436929D01*
X437596D01*
X438262Y277942D01*
Y277275D01*
X437596Y276609D01*
X436263D01*
X435596Y277275D01*
X380180Y280608D02*
Y276609D01*
X382180D01*
X382846Y277275D01*
Y279941D01*
X382180Y280608D01*
X380180D01*
X384179D02*
X386845D01*
Y279941D01*
X384179Y277275D01*
Y276609D01*
X405889Y280608D02*
Y276609D01*
X407888D01*
X408555Y277275D01*
Y279941D01*
X407888Y280608D01*
X405889D01*
X412553D02*
X409888D01*
Y278608D01*
X411220Y279275D01*
X411887D01*
X412553Y278608D01*
Y277275D01*
X411887Y276609D01*
X410554D01*
X409888Y277275D01*
X393035Y280608D02*
Y276609D01*
X395034D01*
X395700Y277275D01*
Y279941D01*
X395034Y280608D01*
X393035D01*
X399699D02*
X398366Y279941D01*
X397033Y278608D01*
Y277275D01*
X397700Y276609D01*
X399033D01*
X399699Y277275D01*
Y277942D01*
X399033Y278608D01*
X397033D01*
X418743Y280608D02*
Y276609D01*
X420743D01*
X421409Y277275D01*
Y279941D01*
X420743Y280608D01*
X418743D01*
X424741Y276609D02*
Y280608D01*
X422742Y278608D01*
X425408D01*
X261503Y351000D02*
Y354999D01*
X263502D01*
X264168Y354332D01*
Y352999D01*
X263502Y352333D01*
X261503D01*
X262836D02*
X264168Y351000D01*
X268167Y354332D02*
X267501Y354999D01*
X266168D01*
X265501Y354332D01*
Y351666D01*
X266168Y351000D01*
X267501D01*
X268167Y351666D01*
X269500Y354999D02*
Y351000D01*
X272166D01*
X273499Y354999D02*
Y351000D01*
Y352333D01*
X276165Y354999D01*
X274165Y352999D01*
X276165Y351000D01*
X248418Y354332D02*
X247751Y354999D01*
X246418D01*
X245752Y354332D01*
Y351666D01*
X246418Y351000D01*
X247751D01*
X248418Y351666D01*
X249751Y354999D02*
Y351000D01*
X252416D01*
X253749D02*
Y354999D01*
X255749D01*
X256415Y354332D01*
Y352999D01*
X255749Y352333D01*
X253749D01*
X255082D02*
X256415Y351000D01*
X235999Y354999D02*
X234666D01*
X234000Y354332D01*
Y351666D01*
X234666Y351000D01*
X235999D01*
X236666Y351666D01*
Y354332D01*
X235999Y354999D01*
X240665D02*
X237999D01*
Y351000D01*
X240665D01*
X237999Y352999D02*
X239332D01*
X202166Y351000D02*
Y354999D01*
X204166D01*
X204832Y354332D01*
Y352999D01*
X204166Y352333D01*
X202166D01*
X203499D02*
X204832Y351000D01*
X206165Y354999D02*
Y351000D01*
X208164D01*
X208831Y351666D01*
Y354332D01*
X208164Y354999D01*
X206165D01*
X115262D02*
Y351000D01*
X117261D01*
X117927Y351666D01*
Y354332D01*
X117261Y354999D01*
X115262D01*
X119260Y354332D02*
X119927Y354999D01*
X121260D01*
X121926Y354332D01*
Y353666D01*
X121260Y352999D01*
X120593D01*
X121260D01*
X121926Y352333D01*
Y351666D01*
X121260Y351000D01*
X119927D01*
X119260Y351666D01*
X105071Y354999D02*
Y351000D01*
X107071D01*
X107737Y351666D01*
Y354332D01*
X107071Y354999D01*
X105071D01*
X111069Y351000D02*
Y354999D01*
X109070Y352999D01*
X111736D01*
X74500Y354999D02*
Y351000D01*
X76499D01*
X77166Y351666D01*
Y354332D01*
X76499Y354999D01*
X74500D01*
X78499D02*
X81164D01*
Y354332D01*
X78499Y351666D01*
Y351000D01*
X84690Y354999D02*
Y351000D01*
X86690D01*
X87356Y351666D01*
Y354332D01*
X86690Y354999D01*
X84690D01*
X91355D02*
X90022Y354332D01*
X88689Y352999D01*
Y351666D01*
X89356Y351000D01*
X90689D01*
X91355Y351666D01*
Y352333D01*
X90689Y352999D01*
X88689D01*
X94881Y354999D02*
Y351000D01*
X96880D01*
X97547Y351666D01*
Y354332D01*
X96880Y354999D01*
X94881D01*
X101545D02*
X98879D01*
Y352999D01*
X100212Y353666D01*
X100879D01*
X101545Y352999D01*
Y351666D01*
X100879Y351000D01*
X99546D01*
X98879Y351666D01*
X116666Y366332D02*
X115999Y366999D01*
X114666D01*
X114000Y366332D01*
Y363666D01*
X114666Y363000D01*
X115999D01*
X116666Y363666D01*
X117999Y363000D02*
Y366999D01*
X119998D01*
X120665Y366332D01*
Y364999D01*
X119998Y364333D01*
X117999D01*
X121997Y366999D02*
Y363666D01*
X122664Y363000D01*
X123997D01*
X124663Y363666D01*
Y366999D01*
X129995D02*
Y363000D01*
X131994D01*
X132661Y363666D01*
Y364333D01*
X131994Y364999D01*
X129995D01*
X131994D01*
X132661Y365666D01*
Y366332D01*
X131994Y366999D01*
X129995D01*
X133994Y365666D02*
Y363666D01*
X134660Y363000D01*
X136659D01*
Y365666D01*
X137992Y363000D02*
X139992D01*
X140658Y363666D01*
X139992Y364333D01*
X138659D01*
X137992Y364999D01*
X138659Y365666D01*
X140658D01*
X146656D02*
X147989D01*
X148655Y364999D01*
Y363000D01*
X146656D01*
X145990Y363666D01*
X146656Y364333D01*
X148655D01*
X149988Y363000D02*
Y365666D01*
X151988D01*
X152654Y364999D01*
Y363000D01*
X156653Y366999D02*
Y363000D01*
X154654D01*
X153987Y363666D01*
Y364999D01*
X154654Y365666D01*
X156653D01*
X164650Y366332D02*
X163984Y366999D01*
X162651D01*
X161985Y366332D01*
Y363666D01*
X162651Y363000D01*
X163984D01*
X164650Y363666D01*
X166650Y363000D02*
X167983D01*
X168649Y363666D01*
Y364999D01*
X167983Y365666D01*
X166650D01*
X165983Y364999D01*
Y363666D01*
X166650Y363000D01*
X169982D02*
Y365666D01*
X171981D01*
X172648Y364999D01*
Y363000D01*
X174647Y366332D02*
Y365666D01*
X173981D01*
X175314D01*
X174647D01*
Y363666D01*
X175314Y363000D01*
X177313Y365666D02*
Y363000D01*
Y364333D01*
X177979Y364999D01*
X178646Y365666D01*
X179312D01*
X181978Y363000D02*
X183311D01*
X183977Y363666D01*
Y364999D01*
X183311Y365666D01*
X181978D01*
X181312Y364999D01*
Y363666D01*
X181978Y363000D01*
X185310D02*
X186643D01*
X185977D01*
Y366999D01*
X185310D01*
X191498Y354332D02*
X190832Y354999D01*
X189499D01*
X188833Y354332D01*
Y351666D01*
X189499Y351000D01*
X190832D01*
X191498Y351666D01*
X195497Y354332D02*
X194831Y354999D01*
X193498D01*
X192831Y354332D01*
Y353666D01*
X193498Y352999D01*
X194831D01*
X195497Y352333D01*
Y351666D01*
X194831Y351000D01*
X193498D01*
X192831Y351666D01*
X172833Y351000D02*
Y354999D01*
X174832D01*
X175499Y354332D01*
Y352999D01*
X174832Y352333D01*
X172833D01*
X174166D02*
X175499Y351000D01*
X176832D02*
X178831D01*
X179498Y351666D01*
X178831Y352333D01*
X177498D01*
X176832Y352999D01*
X177498Y353666D01*
X179498D01*
X181497Y354332D02*
Y353666D01*
X180831D01*
X182163D01*
X181497D01*
Y351666D01*
X182163Y351000D01*
X157500Y355148D02*
X158833D01*
X158167D01*
Y351150D01*
X157500D01*
X158833D01*
X160832D02*
Y353815D01*
X162832D01*
X163498Y353149D01*
Y351150D01*
X165497Y354482D02*
Y353815D01*
X164831D01*
X166164D01*
X165497D01*
Y351816D01*
X166164Y351150D01*
X144500Y354999D02*
Y351000D01*
X146499D01*
X147166Y351666D01*
Y354332D01*
X146499Y354999D01*
X144500D01*
X148499Y354332D02*
X149165Y354999D01*
X150498D01*
X151164Y354332D01*
Y351666D01*
X150498Y351000D01*
X149165D01*
X148499Y351666D01*
Y354332D01*
X135643Y354999D02*
Y351000D01*
X137642D01*
X138308Y351666D01*
Y354332D01*
X137642Y354999D01*
X135643D01*
X139641Y351000D02*
X140974D01*
X140308D01*
Y354999D01*
X139641Y354332D01*
X215500Y354999D02*
Y351000D01*
X216833Y352333D01*
X218166Y351000D01*
Y354999D01*
X219499Y351000D02*
Y354999D01*
X221498D01*
X222165Y354332D01*
Y352999D01*
X221498Y352333D01*
X219499D01*
X220832D02*
X222165Y351000D01*
X125452Y354999D02*
Y351000D01*
X127451D01*
X128118Y351666D01*
Y354332D01*
X127451Y354999D01*
X125452D01*
X132117Y351000D02*
X129451D01*
X132117Y353666D01*
Y354332D01*
X131450Y354999D01*
X130117D01*
X129451Y354332D01*
X253666Y366665D02*
X252999Y367332D01*
X251666D01*
X251000Y366665D01*
Y365999D01*
X251666Y365332D01*
X252999D01*
X253666Y364666D01*
Y363999D01*
X252999Y363333D01*
X251666D01*
X251000Y363999D01*
X254999Y367332D02*
Y363333D01*
Y365332D01*
X255665Y365999D01*
X256998D01*
X257664Y365332D01*
Y363333D01*
X258997D02*
X260330D01*
X259664D01*
Y365999D01*
X258997D01*
X262996Y363333D02*
Y366665D01*
Y365332D01*
X262330D01*
X263663D01*
X262996D01*
Y366665D01*
X263663Y367332D01*
X266328Y366665D02*
Y365999D01*
X265662D01*
X266995D01*
X266328D01*
Y363999D01*
X266995Y363333D01*
X272993D02*
Y367332D01*
X274992D01*
X275659Y366665D01*
Y365332D01*
X274992Y364666D01*
X272993D01*
X274326D02*
X275659Y363333D01*
X278991D02*
X277658D01*
X276992Y363999D01*
Y365332D01*
X277658Y365999D01*
X278991D01*
X279657Y365332D01*
Y364666D01*
X276992D01*
X282323Y362000D02*
X282990D01*
X283656Y362666D01*
Y365999D01*
X281657D01*
X280990Y365332D01*
Y363999D01*
X281657Y363333D01*
X283656D01*
X284989D02*
X286322D01*
X285655D01*
Y365999D01*
X284989D01*
X288321Y363333D02*
X290321D01*
X290987Y363999D01*
X290321Y364666D01*
X288988D01*
X288321Y365332D01*
X288988Y365999D01*
X290987D01*
X292986Y366665D02*
Y365999D01*
X292320D01*
X293653D01*
X292986D01*
Y363999D01*
X293653Y363333D01*
X297652D02*
X296319D01*
X295652Y363999D01*
Y365332D01*
X296319Y365999D01*
X297652D01*
X298318Y365332D01*
Y364666D01*
X295652D01*
X299651Y365999D02*
Y363333D01*
Y364666D01*
X300317Y365332D01*
X300984Y365999D01*
X301650D01*
X307666Y354332D02*
X306999Y354999D01*
X305666D01*
X305000Y354332D01*
Y353666D01*
X305666Y352999D01*
X306999D01*
X307666Y352333D01*
Y351666D01*
X306999Y351000D01*
X305666D01*
X305000Y351666D01*
X308999Y354999D02*
Y351000D01*
X310998D01*
X311665Y351666D01*
Y354332D01*
X310998Y354999D01*
X308999D01*
X312997Y351000D02*
X314330D01*
X313664D01*
Y354999D01*
X312997Y354332D01*
X283918D02*
X283251Y354999D01*
X281918D01*
X281252Y354332D01*
Y353666D01*
X281918Y352999D01*
X283251D01*
X283918Y352333D01*
Y351666D01*
X283251Y351000D01*
X281918D01*
X281252Y351666D01*
X285251Y351000D02*
Y354999D01*
X287250D01*
X287916Y354332D01*
Y352999D01*
X287250Y352333D01*
X285251D01*
X286583D02*
X287916Y351000D01*
X291915Y354332D02*
X291249Y354999D01*
X289916D01*
X289249Y354332D01*
Y351666D01*
X289916Y351000D01*
X291249D01*
X291915Y351666D01*
X293248Y354999D02*
Y351000D01*
X295914D01*
X297247Y354999D02*
Y351000D01*
Y352333D01*
X299913Y354999D01*
X297913Y352999D01*
X299913Y351000D01*
X380500Y354482D02*
X381166Y355148D01*
X382499D01*
X383166Y354482D01*
Y353815D01*
X382499Y353149D01*
X381833D01*
X382499D01*
X383166Y352483D01*
Y351816D01*
X382499Y351150D01*
X381166D01*
X380500Y351816D01*
X384499Y351150D02*
Y351816D01*
X385165D01*
Y351150D01*
X384499D01*
X387831Y354482D02*
X388497Y355148D01*
X389830D01*
X390497Y354482D01*
Y353815D01*
X389830Y353149D01*
X389164D01*
X389830D01*
X390497Y352483D01*
Y351816D01*
X389830Y351150D01*
X388497D01*
X387831Y351816D01*
X391830Y355148D02*
Y352483D01*
X393163Y351150D01*
X394496Y352483D01*
Y355148D01*
X403666Y354999D02*
X401000D01*
Y352999D01*
X402333Y353666D01*
X402999D01*
X403666Y352999D01*
Y351666D01*
X402999Y351000D01*
X401666D01*
X401000Y351666D01*
X404999Y354999D02*
Y352333D01*
X406332Y351000D01*
X407664Y352333D01*
Y354999D01*
X387000Y363000D02*
Y366999D01*
X388999D01*
X389666Y366332D01*
Y364999D01*
X388999Y364333D01*
X387000D01*
X391665Y363000D02*
X392998D01*
X393665Y363666D01*
Y364999D01*
X392998Y365666D01*
X391665D01*
X390999Y364999D01*
Y363666D01*
X391665Y363000D01*
X394997Y365666D02*
Y363666D01*
X395664Y363000D01*
X396330Y363666D01*
X396997Y363000D01*
X397663Y363666D01*
Y365666D01*
X400995Y363000D02*
X399663D01*
X398996Y363666D01*
Y364999D01*
X399663Y365666D01*
X400995D01*
X401662Y364999D01*
Y364333D01*
X398996D01*
X402995Y365666D02*
Y363000D01*
Y364333D01*
X403661Y364999D01*
X404328Y365666D01*
X404994D01*
X339000Y366999D02*
X341666D01*
Y366332D01*
X339000Y363666D01*
Y363000D01*
X345665Y366999D02*
X342999D01*
Y364999D01*
X344332Y365666D01*
X344998D01*
X345665Y364999D01*
Y363666D01*
X344998Y363000D01*
X343665D01*
X342999Y363666D01*
X346997Y363000D02*
Y365666D01*
X348330Y366999D01*
X349663Y365666D01*
Y363000D01*
Y364999D01*
X346997D01*
X350996Y366999D02*
Y363000D01*
X353662D01*
X357661Y366332D02*
X356994Y366999D01*
X355661D01*
X354995Y366332D01*
Y365666D01*
X355661Y364999D01*
X356994D01*
X357661Y364333D01*
Y363666D01*
X356994Y363000D01*
X355661D01*
X354995Y363666D01*
X358994Y363000D02*
X360327D01*
X359660D01*
Y366999D01*
X358994Y366332D01*
X362326Y363666D02*
X362992Y363000D01*
X364325D01*
X364992Y363666D01*
Y366332D01*
X364325Y366999D01*
X362992D01*
X362326Y366332D01*
Y365666D01*
X362992Y364999D01*
X364992D01*
X368324Y363000D02*
Y366999D01*
X366324Y364999D01*
X368990D01*
X345666Y354999D02*
X343000D01*
Y351000D01*
X345666D01*
X343000Y352999D02*
X344333D01*
X346999Y351000D02*
Y353666D01*
X348998D01*
X349664Y352999D01*
Y351000D01*
X351664Y353666D02*
X352997D01*
X353663Y352999D01*
Y351000D01*
X351664D01*
X350997Y351666D01*
X351664Y352333D01*
X353663D01*
X354996Y354999D02*
Y351000D01*
X356996D01*
X357662Y351666D01*
Y352333D01*
Y352999D01*
X356996Y353666D01*
X354996D01*
X358995Y351000D02*
X360328D01*
X359661D01*
Y354999D01*
X358995D01*
X364327Y351000D02*
X362994D01*
X362327Y351666D01*
Y352999D01*
X362994Y353666D01*
X364327D01*
X364993Y352999D01*
Y352333D01*
X362327D01*
X141000Y382999D02*
Y386998D01*
X142999Y388997D01*
X144999Y386998D01*
Y382999D01*
Y385998D01*
X141000D01*
X146998Y388997D02*
Y382999D01*
X149997D01*
X150997Y383999D01*
Y384999D01*
X149997Y385998D01*
X146998D01*
X149997D01*
X150997Y386998D01*
Y387998D01*
X149997Y388997D01*
X146998D01*
X156995Y387998D02*
X155995Y388997D01*
X153996D01*
X152996Y387998D01*
Y386998D01*
X153996Y385998D01*
X155995D01*
X156995Y384999D01*
Y383999D01*
X155995Y382999D01*
X153996D01*
X152996Y383999D01*
X164992Y388997D02*
Y382999D01*
X167991D01*
X168991Y383999D01*
Y387998D01*
X167991Y388997D01*
X164992D01*
X171990Y386998D02*
X173989D01*
X174989Y385998D01*
Y382999D01*
X171990D01*
X170990Y383999D01*
X171990Y384999D01*
X174989D01*
X177988Y387998D02*
Y386998D01*
X176988D01*
X178988D01*
X177988D01*
Y383999D01*
X178988Y382999D01*
X182986Y386998D02*
X184986D01*
X185985Y385998D01*
Y382999D01*
X182986D01*
X181987Y383999D01*
X182986Y384999D01*
X185985D01*
X197982Y387998D02*
X196982Y388997D01*
X194983D01*
X193983Y387998D01*
Y386998D01*
X194983Y385998D01*
X196982D01*
X197982Y384999D01*
Y383999D01*
X196982Y382999D01*
X194983D01*
X193983Y383999D01*
X199981Y386998D02*
Y383999D01*
X200981Y382999D01*
X203980D01*
Y382000D01*
X202980Y381000D01*
X201980D01*
X203980Y382999D02*
Y386998D01*
X205979Y382999D02*
X208978D01*
X209978Y383999D01*
X208978Y384999D01*
X206979D01*
X205979Y385998D01*
X206979Y386998D01*
X209978D01*
X212977Y387998D02*
Y386998D01*
X211977D01*
X213976D01*
X212977D01*
Y383999D01*
X213976Y382999D01*
X219974D02*
X217975D01*
X216975Y383999D01*
Y385998D01*
X217975Y386998D01*
X219974D01*
X220974Y385998D01*
Y384999D01*
X216975D01*
X222973Y382999D02*
Y386998D01*
X223973D01*
X224973Y385998D01*
Y382999D01*
Y385998D01*
X225973Y386998D01*
X226972Y385998D01*
Y382999D01*
X228972D02*
X231971D01*
X232970Y383999D01*
X231971Y384999D01*
X229971D01*
X228972Y385998D01*
X229971Y386998D01*
X232970D01*
X235969Y382000D02*
X236969Y382999D01*
Y383999D01*
X235969D01*
Y382999D01*
X236969D01*
X235969Y382000D01*
X234970Y381000D01*
X246966Y388997D02*
X248965D01*
X247965D01*
Y382999D01*
X246966D01*
X248965D01*
X251964D02*
Y386998D01*
X254963D01*
X255963Y385998D01*
Y382999D01*
X261961Y386998D02*
X258962D01*
X257962Y385998D01*
Y383999D01*
X258962Y382999D01*
X261961D01*
X264960Y382000D02*
X265960Y382999D01*
Y383999D01*
X264960D01*
Y382999D01*
X265960D01*
X264960Y382000D01*
X263960Y381000D01*
X277956Y382999D02*
X275956Y384999D01*
Y386998D01*
X277956Y388997D01*
X284953Y386998D02*
X281954D01*
X280955Y385998D01*
Y383999D01*
X281954Y382999D01*
X284953D01*
X286953D02*
X288952Y384999D01*
Y386998D01*
X286953Y388997D01*
X301948Y387998D02*
X300948Y388997D01*
X298949D01*
X297949Y387998D01*
Y383999D01*
X298949Y382999D01*
X300948D01*
X301948Y383999D01*
X304947Y382999D02*
X306946D01*
X307946Y383999D01*
Y385998D01*
X306946Y386998D01*
X304947D01*
X303947Y385998D01*
Y383999D01*
X304947Y382999D01*
X309945Y381000D02*
Y386998D01*
X312944D01*
X313944Y385998D01*
Y383999D01*
X312944Y382999D01*
X309945D01*
X315943Y386998D02*
Y383999D01*
X316943Y382999D01*
X319942D01*
Y382000D01*
X318942Y381000D01*
X317943D01*
X319942Y382999D02*
Y386998D01*
X321941D02*
Y382999D01*
Y384999D01*
X322941Y385998D01*
X323941Y386998D01*
X324940D01*
X327940Y382999D02*
X329939D01*
X328939D01*
Y386998D01*
X327940D01*
X334937Y381000D02*
X335937D01*
X336937Y382000D01*
Y386998D01*
X333938D01*
X332938Y385998D01*
Y383999D01*
X333938Y382999D01*
X336937D01*
X338936Y388997D02*
Y382999D01*
Y385998D01*
X339936Y386998D01*
X341935D01*
X342935Y385998D01*
Y382999D01*
X345934Y387998D02*
Y386998D01*
X344934D01*
X346933D01*
X345934D01*
Y383999D01*
X346933Y382999D01*
X359929D02*
X355930D01*
X359929Y386998D01*
Y387998D01*
X358929Y388997D01*
X356930D01*
X355930Y387998D01*
X361929D02*
X362928Y388997D01*
X364928D01*
X365927Y387998D01*
Y383999D01*
X364928Y382999D01*
X362928D01*
X361929Y383999D01*
Y387998D01*
X371925Y382999D02*
X367927D01*
X371925Y386998D01*
Y387998D01*
X370926Y388997D01*
X368926D01*
X367927Y387998D01*
X377923Y388997D02*
X373925D01*
Y385998D01*
X375924Y386998D01*
X376924D01*
X377923Y385998D01*
Y383999D01*
X376924Y382999D01*
X374924D01*
X373925Y383999D01*
X136752Y258500D02*
X138751D01*
X137751D01*
Y255501D01*
X139751D02*
Y258500D01*
X141250D01*
X141750Y258000D01*
Y257000D01*
X141250Y256500D01*
X139751D01*
X142750Y255501D02*
X143749D01*
X143250D01*
Y258500D01*
X142750Y258000D01*
X145249D02*
X145749Y258500D01*
X146748D01*
X147248Y258000D01*
Y257500D01*
X146748Y257000D01*
X147248Y256500D01*
Y256000D01*
X146748Y255501D01*
X145749D01*
X145249Y256000D01*
Y256500D01*
X145749Y257000D01*
X145249Y257500D01*
Y258000D01*
X145749Y257000D02*
X146748D01*
X123116Y251148D02*
Y247816D01*
X123783Y247150D01*
X125116D01*
X125782Y247816D01*
Y251148D01*
X129781D02*
X128448Y250482D01*
X127115Y249149D01*
Y247816D01*
X127781Y247150D01*
X129114D01*
X129781Y247816D01*
Y248483D01*
X129114Y249149D01*
X127115D01*
X123668Y286999D02*
Y283667D01*
X124334Y283001D01*
X125667D01*
X126333Y283667D01*
Y286999D01*
X130332D02*
X127666D01*
Y285000D01*
X128999Y285666D01*
X129666D01*
X130332Y285000D01*
Y283667D01*
X129666Y283001D01*
X128333D01*
X127666Y283667D01*
X342668Y74999D02*
Y71667D01*
X343334Y71001D01*
X344667D01*
X345334Y71667D01*
Y74999D01*
X348666Y71001D02*
Y74999D01*
X346667Y73000D01*
X349332D01*
X25350Y282848D02*
Y277850D01*
X26350Y276850D01*
X28349D01*
X29349Y277850D01*
Y282848D01*
X31348Y281848D02*
X32348Y282848D01*
X34347D01*
X35347Y281848D01*
Y280849D01*
X34347Y279849D01*
X33347D01*
X34347D01*
X35347Y278849D01*
Y277850D01*
X34347Y276850D01*
X32348D01*
X31348Y277850D01*
X243916Y139248D02*
Y135916D01*
X244583Y135250D01*
X245916D01*
X246582Y135916D01*
Y139248D01*
X250581Y135250D02*
X247915D01*
X250581Y137916D01*
Y138582D01*
X249914Y139248D01*
X248581D01*
X247915Y138582D01*
X243583Y90748D02*
Y87416D01*
X244249Y86750D01*
X245582D01*
X246249Y87416D01*
Y90748D01*
X247582Y86750D02*
X248915D01*
X248248D01*
Y90748D01*
X247582Y90082D01*
X164502Y231500D02*
X166501D01*
X165501D01*
Y228501D01*
X167501D02*
Y231500D01*
X169000D01*
X169500Y231000D01*
Y230000D01*
X169000Y229500D01*
X167501D01*
X172499Y228501D02*
X170500D01*
X172499Y230500D01*
Y231000D01*
X171999Y231500D01*
X171000D01*
X170500Y231000D01*
X175498Y228501D02*
X173499D01*
X175498Y230500D01*
Y231000D01*
X174998Y231500D01*
X173999D01*
X173499Y231000D01*
X165002Y249500D02*
X167001D01*
X166001D01*
Y246500D01*
X168001D02*
Y249500D01*
X169500D01*
X170000Y249000D01*
Y248000D01*
X169500Y247500D01*
X168001D01*
X172999Y246500D02*
X171000D01*
X172999Y248500D01*
Y249000D01*
X172499Y249500D01*
X171500D01*
X171000Y249000D01*
X173999Y246500D02*
X174998D01*
X174499D01*
Y249500D01*
X173999Y249000D01*
X150752Y213499D02*
X152751D01*
X151751D01*
Y210501D01*
X153751D02*
Y213499D01*
X155250D01*
X155750Y213000D01*
Y212000D01*
X155250Y211500D01*
X153751D01*
X156750Y210501D02*
X157749D01*
X157250D01*
Y213499D01*
X156750Y213000D01*
X159249Y211000D02*
X159749Y210501D01*
X160749D01*
X161248Y211000D01*
Y213000D01*
X160749Y213499D01*
X159749D01*
X159249Y213000D01*
Y212500D01*
X159749Y212000D01*
X161248D01*
X164502Y213499D02*
X166501D01*
X165501D01*
Y210501D01*
X167501D02*
Y213499D01*
X169000D01*
X169500Y213000D01*
Y212000D01*
X169000Y211500D01*
X167501D01*
X172499Y210501D02*
X170500D01*
X172499Y212500D01*
Y213000D01*
X171999Y213499D01*
X171000D01*
X170500Y213000D01*
X173499D02*
X173999Y213499D01*
X174998D01*
X175498Y213000D01*
Y211000D01*
X174998Y210501D01*
X173999D01*
X173499Y211000D01*
Y213000D01*
X122752Y213499D02*
X124751D01*
X123751D01*
Y210501D01*
X125751D02*
Y213499D01*
X127250D01*
X127750Y213000D01*
Y212000D01*
X127250Y211500D01*
X125751D01*
X128750Y210501D02*
X129749D01*
X129250D01*
Y213499D01*
X128750Y213000D01*
X133248Y213499D02*
X132249Y213000D01*
X131249Y212000D01*
Y211000D01*
X131749Y210501D01*
X132748D01*
X133248Y211000D01*
Y211500D01*
X132748Y212000D01*
X131249D01*
X134752Y300500D02*
X136751D01*
X135751D01*
Y297500D01*
X137751D02*
Y300500D01*
X139250D01*
X139750Y300000D01*
Y299000D01*
X139250Y298500D01*
X137751D01*
X140750Y297500D02*
X141749D01*
X141250D01*
Y300500D01*
X140750Y300000D01*
X145248Y300500D02*
X143249D01*
Y299000D01*
X144249Y299500D01*
X144748D01*
X145248Y299000D01*
Y298000D01*
X144748Y297500D01*
X143749D01*
X143249Y298000D01*
X136752Y213499D02*
X138751D01*
X137751D01*
Y210501D01*
X139751D02*
Y213499D01*
X141250D01*
X141750Y213000D01*
Y212000D01*
X141250Y211500D01*
X139751D01*
X142750Y210501D02*
X143749D01*
X143250D01*
Y213499D01*
X142750Y213000D01*
X145249Y213499D02*
X147248D01*
Y213000D01*
X145249Y211000D01*
Y210501D01*
X108752Y213499D02*
X110751D01*
X109751D01*
Y210501D01*
X111751D02*
Y213499D01*
X113250D01*
X113750Y213000D01*
Y212000D01*
X113250Y211500D01*
X111751D01*
X114750Y210501D02*
X115749D01*
X115250D01*
Y213499D01*
X114750Y213000D01*
X117249D02*
X117749Y213499D01*
X118748D01*
X119248Y213000D01*
Y212500D01*
X118748Y212000D01*
X118249D01*
X118748D01*
X119248Y211500D01*
Y211000D01*
X118748Y210501D01*
X117749D01*
X117249Y211000D01*
X94752Y213499D02*
X96751D01*
X95751D01*
Y210501D01*
X97751D02*
Y213499D01*
X99250D01*
X99750Y213000D01*
Y212000D01*
X99250Y211500D01*
X97751D01*
X100750Y210501D02*
X101749D01*
X101250D01*
Y213499D01*
X100750Y213000D01*
X104748Y210501D02*
Y213499D01*
X103249Y212000D01*
X105248D01*
X156752Y27499D02*
X158751D01*
X157751D01*
Y24500D01*
X159751D02*
Y27499D01*
X161250D01*
X161750Y27000D01*
Y26000D01*
X161250Y25500D01*
X159751D01*
X162750Y24500D02*
X163749D01*
X163250D01*
Y27499D01*
X162750Y27000D01*
X167248Y24500D02*
X165249D01*
X167248Y26500D01*
Y27000D01*
X166748Y27499D01*
X165749D01*
X165249Y27000D01*
X170252Y27499D02*
X172251D01*
X171251D01*
Y24500D01*
X173251D02*
Y27499D01*
X174750D01*
X175250Y27000D01*
Y26000D01*
X174750Y25500D01*
X173251D01*
X176250Y24500D02*
X177249D01*
X176749D01*
Y27499D01*
X176250Y27000D01*
X178749Y24500D02*
X179748D01*
X179249D01*
Y27499D01*
X178749Y27000D01*
X181252Y27499D02*
X183251D01*
X182251D01*
Y24500D01*
X184251D02*
Y27499D01*
X185750D01*
X186250Y27000D01*
Y26000D01*
X185750Y25500D01*
X184251D01*
X187250Y24500D02*
X188249D01*
X187750D01*
Y27499D01*
X187250Y27000D01*
X189749D02*
X190249Y27499D01*
X191249D01*
X191748Y27000D01*
Y25000D01*
X191249Y24500D01*
X190249D01*
X189749Y25000D01*
Y27000D01*
X196001Y27499D02*
X198001D01*
X197001D01*
Y24500D01*
X199000D02*
Y27499D01*
X200500D01*
X201000Y27000D01*
Y26000D01*
X200500Y25500D01*
X199000D01*
X201999Y25000D02*
X202499Y24500D01*
X203499D01*
X203999Y25000D01*
Y27000D01*
X203499Y27499D01*
X202499D01*
X201999Y27000D01*
Y26500D01*
X202499Y26000D01*
X203999D01*
X209501Y27499D02*
X211501D01*
X210501D01*
Y24500D01*
X212500D02*
Y27499D01*
X214000D01*
X214500Y27000D01*
Y26000D01*
X214000Y25500D01*
X212500D01*
X215499Y27000D02*
X215999Y27499D01*
X216999D01*
X217499Y27000D01*
Y26500D01*
X216999Y26000D01*
X217499Y25500D01*
Y25000D01*
X216999Y24500D01*
X215999D01*
X215499Y25000D01*
Y25500D01*
X215999Y26000D01*
X215499Y26500D01*
Y27000D01*
X215999Y26000D02*
X216999D01*
X221501Y27499D02*
X223501D01*
X222501D01*
Y24500D01*
X224500D02*
Y27499D01*
X226000D01*
X226500Y27000D01*
Y26000D01*
X226000Y25500D01*
X224500D01*
X227499Y27499D02*
X229499D01*
Y27000D01*
X227499Y25000D01*
Y24500D01*
X233501Y27499D02*
X235501D01*
X234501D01*
Y24500D01*
X236500D02*
Y27499D01*
X238000D01*
X238500Y27000D01*
Y26000D01*
X238000Y25500D01*
X236500D01*
X241499Y27499D02*
X240499Y27000D01*
X239499Y26000D01*
Y25000D01*
X239999Y24500D01*
X240999D01*
X241499Y25000D01*
Y25500D01*
X240999Y26000D01*
X239499D01*
X147668Y118999D02*
X150334D01*
X149001D01*
Y115001D01*
X151667D02*
Y118999D01*
X153666D01*
X154333Y118333D01*
Y117000D01*
X153666Y116333D01*
X151667D01*
X158332Y118999D02*
X155666D01*
Y117000D01*
X156999Y117666D01*
X157665D01*
X158332Y117000D01*
Y115667D01*
X157665Y115001D01*
X156332D01*
X155666Y115667D01*
X129001Y174499D02*
X131001D01*
X130001D01*
Y171501D01*
X132000D02*
Y174499D01*
X133500D01*
X134000Y174000D01*
Y173000D01*
X133500Y172500D01*
X132000D01*
X136499Y171501D02*
Y174499D01*
X134999Y173000D01*
X136999D01*
X158001Y174499D02*
X160001D01*
X159001D01*
Y171501D01*
X161000D02*
Y174499D01*
X162500D01*
X163000Y174000D01*
Y173000D01*
X162500Y172500D01*
X161000D01*
X163999Y174000D02*
X164499Y174499D01*
X165499D01*
X165999Y174000D01*
Y173500D01*
X165499Y173000D01*
X164999D01*
X165499D01*
X165999Y172500D01*
Y172000D01*
X165499Y171501D01*
X164499D01*
X163999Y172000D01*
X144001Y174499D02*
X146001D01*
X145001D01*
Y171501D01*
X147000D02*
Y174499D01*
X148500D01*
X149000Y174000D01*
Y173000D01*
X148500Y172500D01*
X147000D01*
X151999Y171501D02*
X149999D01*
X151999Y173500D01*
Y174000D01*
X151499Y174499D01*
X150499D01*
X149999Y174000D01*
X367335Y342999D02*
X370001D01*
X368668D01*
Y339001D01*
X371334D02*
Y342999D01*
X373333D01*
X373999Y342333D01*
Y341000D01*
X373333Y340334D01*
X371334D01*
X375332Y339001D02*
X376665D01*
X375999D01*
Y342999D01*
X375332Y342333D01*
X172002Y284001D02*
Y287999D01*
X174002D01*
X174668Y287333D01*
Y286000D01*
X174002Y285334D01*
X172002D01*
X173335D02*
X174668Y284001D01*
X176001D02*
X177334D01*
X176667D01*
Y287999D01*
X176001Y287333D01*
X179333Y284667D02*
X180000Y284001D01*
X181333D01*
X181999Y284667D01*
Y287333D01*
X181333Y287999D01*
X180000D01*
X179333Y287333D01*
Y286666D01*
X180000Y286000D01*
X181999D01*
X183332Y287333D02*
X183998Y287999D01*
X185331D01*
X185998Y287333D01*
Y286666D01*
X185331Y286000D01*
X184665D01*
X185331D01*
X185998Y285334D01*
Y284667D01*
X185331Y284001D01*
X183998D01*
X183332Y284667D01*
X172002Y278001D02*
Y281999D01*
X174002D01*
X174668Y281333D01*
Y280000D01*
X174002Y279334D01*
X172002D01*
X173335D02*
X174668Y278001D01*
X176001D02*
X177334D01*
X176667D01*
Y281999D01*
X176001Y281333D01*
X179333Y278667D02*
X180000Y278001D01*
X181333D01*
X181999Y278667D01*
Y281333D01*
X181333Y281999D01*
X180000D01*
X179333Y281333D01*
Y280666D01*
X180000Y280000D01*
X181999D01*
X185998Y278001D02*
X183332D01*
X185998Y280666D01*
Y281333D01*
X185331Y281999D01*
X183998D01*
X183332Y281333D01*
X171669Y272001D02*
Y275999D01*
X173668D01*
X174335Y275333D01*
Y274000D01*
X173668Y273334D01*
X171669D01*
X173002D02*
X174335Y272001D01*
X175667D02*
X177000D01*
X176334D01*
Y275999D01*
X175667Y275333D01*
X179000Y272667D02*
X179666Y272001D01*
X180999D01*
X181666Y272667D01*
Y275333D01*
X180999Y275999D01*
X179666D01*
X179000Y275333D01*
Y274666D01*
X179666Y274000D01*
X181666D01*
X182998Y272001D02*
X184331D01*
X183665D01*
Y275999D01*
X182998Y275333D01*
X172002Y266001D02*
Y269999D01*
X174002D01*
X174668Y269333D01*
Y268000D01*
X174002Y267334D01*
X172002D01*
X173335D02*
X174668Y266001D01*
X176001D02*
X177334D01*
X176667D01*
Y269999D01*
X176001Y269333D01*
X179333Y266667D02*
X180000Y266001D01*
X181333D01*
X181999Y266667D01*
Y269333D01*
X181333Y269999D01*
X180000D01*
X179333Y269333D01*
Y268666D01*
X180000Y268000D01*
X181999D01*
X183332Y269333D02*
X183998Y269999D01*
X185331D01*
X185998Y269333D01*
Y266667D01*
X185331Y266001D01*
X183998D01*
X183332Y266667D01*
Y269333D01*
X172002Y260001D02*
Y263999D01*
X174002D01*
X174668Y263333D01*
Y262000D01*
X174002Y261334D01*
X172002D01*
X173335D02*
X174668Y260001D01*
X176001D02*
X177334D01*
X176667D01*
Y263999D01*
X176001Y263333D01*
X179333D02*
X180000Y263999D01*
X181333D01*
X181999Y263333D01*
Y262666D01*
X181333Y262000D01*
X181999Y261334D01*
Y260667D01*
X181333Y260001D01*
X180000D01*
X179333Y260667D01*
Y261334D01*
X180000Y262000D01*
X179333Y262666D01*
Y263333D01*
X180000Y262000D02*
X181333D01*
X183332Y260667D02*
X183998Y260001D01*
X185331D01*
X185998Y260667D01*
Y263333D01*
X185331Y263999D01*
X183998D01*
X183332Y263333D01*
Y262666D01*
X183998Y262000D01*
X185998D01*
X172002Y254001D02*
Y257999D01*
X174002D01*
X174668Y257333D01*
Y256000D01*
X174002Y255334D01*
X172002D01*
X173335D02*
X174668Y254001D01*
X176001D02*
X177334D01*
X176667D01*
Y257999D01*
X176001Y257333D01*
X179333D02*
X180000Y257999D01*
X181333D01*
X181999Y257333D01*
Y256666D01*
X181333Y256000D01*
X181999Y255334D01*
Y254667D01*
X181333Y254001D01*
X180000D01*
X179333Y254667D01*
Y255334D01*
X180000Y256000D01*
X179333Y256666D01*
Y257333D01*
X180000Y256000D02*
X181333D01*
X183332Y257333D02*
X183998Y257999D01*
X185331D01*
X185998Y257333D01*
Y256666D01*
X185331Y256000D01*
X185998Y255334D01*
Y254667D01*
X185331Y254001D01*
X183998D01*
X183332Y254667D01*
Y255334D01*
X183998Y256000D01*
X183332Y256666D01*
Y257333D01*
X183998Y256000D02*
X185331D01*
X90002Y262001D02*
Y265999D01*
X92002D01*
X92668Y265333D01*
Y264000D01*
X92002Y263334D01*
X90002D01*
X91335D02*
X92668Y262001D01*
X94001D02*
X95334D01*
X94667D01*
Y265999D01*
X94001Y265333D01*
X97333D02*
X98000Y265999D01*
X99333D01*
X99999Y265333D01*
Y264666D01*
X99333Y264000D01*
X99999Y263334D01*
Y262667D01*
X99333Y262001D01*
X98000D01*
X97333Y262667D01*
Y263334D01*
X98000Y264000D01*
X97333Y264666D01*
Y265333D01*
X98000Y264000D02*
X99333D01*
X101332Y265999D02*
X103998D01*
Y265333D01*
X101332Y262667D01*
Y262001D01*
X90002Y256001D02*
Y259999D01*
X92002D01*
X92668Y259333D01*
Y258000D01*
X92002Y257334D01*
X90002D01*
X91335D02*
X92668Y256001D01*
X94001D02*
X95334D01*
X94667D01*
Y259999D01*
X94001Y259333D01*
X97333D02*
X98000Y259999D01*
X99333D01*
X99999Y259333D01*
Y258666D01*
X99333Y258000D01*
X99999Y257334D01*
Y256667D01*
X99333Y256001D01*
X98000D01*
X97333Y256667D01*
Y257334D01*
X98000Y258000D01*
X97333Y258666D01*
Y259333D01*
X98000Y258000D02*
X99333D01*
X103998Y259999D02*
X102665Y259333D01*
X101332Y258000D01*
Y256667D01*
X101998Y256001D01*
X103331D01*
X103998Y256667D01*
Y257334D01*
X103331Y258000D01*
X101332D01*
X79002Y227001D02*
Y230999D01*
X81002D01*
X81668Y230333D01*
Y229000D01*
X81002Y228334D01*
X79002D01*
X80335D02*
X81668Y227001D01*
X83001D02*
X84334D01*
X83667D01*
Y230999D01*
X83001Y230333D01*
X86333D02*
X87000Y230999D01*
X88333D01*
X88999Y230333D01*
Y229666D01*
X88333Y229000D01*
X88999Y228334D01*
Y227667D01*
X88333Y227001D01*
X87000D01*
X86333Y227667D01*
Y228334D01*
X87000Y229000D01*
X86333Y229666D01*
Y230333D01*
X87000Y229000D02*
X88333D01*
X92998Y230999D02*
X90332D01*
Y229000D01*
X91665Y229666D01*
X92331D01*
X92998Y229000D01*
Y227667D01*
X92331Y227001D01*
X90998D01*
X90332Y227667D01*
X79152Y221001D02*
Y224999D01*
X81151D01*
X81818Y224333D01*
Y223000D01*
X81151Y222334D01*
X79152D01*
X80485D02*
X81818Y221001D01*
X83151D02*
X84483D01*
X83817D01*
Y224999D01*
X83151Y224333D01*
X86483D02*
X87149Y224999D01*
X88482D01*
X89149Y224333D01*
Y223666D01*
X88482Y223000D01*
X89149Y222334D01*
Y221667D01*
X88482Y221001D01*
X87149D01*
X86483Y221667D01*
Y222334D01*
X87149Y223000D01*
X86483Y223666D01*
Y224333D01*
X87149Y223000D02*
X88482D01*
X92481Y221001D02*
Y224999D01*
X90482Y223000D01*
X93147D01*
X90152Y274001D02*
Y277999D01*
X92151D01*
X92818Y277333D01*
Y276000D01*
X92151Y275334D01*
X90152D01*
X91485D02*
X92818Y274001D01*
X94151D02*
X95483D01*
X94817D01*
Y277999D01*
X94151Y277333D01*
X97483D02*
X98149Y277999D01*
X99482D01*
X100149Y277333D01*
Y276666D01*
X99482Y276000D01*
X100149Y275334D01*
Y274667D01*
X99482Y274001D01*
X98149D01*
X97483Y274667D01*
Y275334D01*
X98149Y276000D01*
X97483Y276666D01*
Y277333D01*
X98149Y276000D02*
X99482D01*
X101482Y277333D02*
X102148Y277999D01*
X103481D01*
X104147Y277333D01*
Y276666D01*
X103481Y276000D01*
X102814D01*
X103481D01*
X104147Y275334D01*
Y274667D01*
X103481Y274001D01*
X102148D01*
X101482Y274667D01*
X90002Y268001D02*
Y271999D01*
X92002D01*
X92668Y271333D01*
Y270000D01*
X92002Y269334D01*
X90002D01*
X91335D02*
X92668Y268001D01*
X94001D02*
X95334D01*
X94667D01*
Y271999D01*
X94001Y271333D01*
X97333D02*
X98000Y271999D01*
X99333D01*
X99999Y271333D01*
Y270666D01*
X99333Y270000D01*
X99999Y269334D01*
Y268667D01*
X99333Y268001D01*
X98000D01*
X97333Y268667D01*
Y269334D01*
X98000Y270000D01*
X97333Y270666D01*
Y271333D01*
X98000Y270000D02*
X99333D01*
X103998Y268001D02*
X101332D01*
X103998Y270666D01*
Y271333D01*
X103331Y271999D01*
X101998D01*
X101332Y271333D01*
X79669Y239001D02*
Y242999D01*
X81668D01*
X82335Y242333D01*
Y241000D01*
X81668Y240334D01*
X79669D01*
X81002D02*
X82335Y239001D01*
X83667D02*
X85000D01*
X84334D01*
Y242999D01*
X83667Y242333D01*
X87000D02*
X87666Y242999D01*
X88999D01*
X89666Y242333D01*
Y241666D01*
X88999Y241000D01*
X89666Y240334D01*
Y239667D01*
X88999Y239001D01*
X87666D01*
X87000Y239667D01*
Y240334D01*
X87666Y241000D01*
X87000Y241666D01*
Y242333D01*
X87666Y241000D02*
X88999D01*
X90998Y239001D02*
X92331D01*
X91665D01*
Y242999D01*
X90998Y242333D01*
X79002Y233001D02*
Y236999D01*
X81002D01*
X81668Y236333D01*
Y235000D01*
X81002Y234334D01*
X79002D01*
X80335D02*
X81668Y233001D01*
X83001D02*
X84334D01*
X83667D01*
Y236999D01*
X83001Y236333D01*
X86333D02*
X87000Y236999D01*
X88333D01*
X88999Y236333D01*
Y235666D01*
X88333Y235000D01*
X88999Y234334D01*
Y233667D01*
X88333Y233001D01*
X87000D01*
X86333Y233667D01*
Y234334D01*
X87000Y235000D01*
X86333Y235666D01*
Y236333D01*
X87000Y235000D02*
X88333D01*
X90332Y236333D02*
X90998Y236999D01*
X92331D01*
X92998Y236333D01*
Y233667D01*
X92331Y233001D01*
X90998D01*
X90332Y233667D01*
Y236333D01*
X90002Y286001D02*
Y289999D01*
X92002D01*
X92668Y289333D01*
Y288000D01*
X92002Y287334D01*
X90002D01*
X91335D02*
X92668Y286001D01*
X94001D02*
X95334D01*
X94667D01*
Y289999D01*
X94001Y289333D01*
X97333Y289999D02*
X99999D01*
Y289333D01*
X97333Y286667D01*
Y286001D01*
X101332Y286667D02*
X101998Y286001D01*
X103331D01*
X103998Y286667D01*
Y289333D01*
X103331Y289999D01*
X101998D01*
X101332Y289333D01*
Y288666D01*
X101998Y288000D01*
X103998D01*
X90002Y280001D02*
Y283999D01*
X92002D01*
X92668Y283333D01*
Y282000D01*
X92002Y281334D01*
X90002D01*
X91335D02*
X92668Y280001D01*
X94001D02*
X95334D01*
X94667D01*
Y283999D01*
X94001Y283333D01*
X97333Y283999D02*
X99999D01*
Y283333D01*
X97333Y280667D01*
Y280001D01*
X101332Y283333D02*
X101998Y283999D01*
X103331D01*
X103998Y283333D01*
Y282666D01*
X103331Y282000D01*
X103998Y281334D01*
Y280667D01*
X103331Y280001D01*
X101998D01*
X101332Y280667D01*
Y281334D01*
X101998Y282000D01*
X101332Y282666D01*
Y283333D01*
X101998Y282000D02*
X103331D01*
X383999Y204002D02*
X380001D01*
Y206002D01*
X380667Y206668D01*
X382000D01*
X382666Y206002D01*
Y204002D01*
Y205335D02*
X383999Y206668D01*
Y208001D02*
Y209334D01*
Y208667D01*
X380001D01*
X380667Y208001D01*
X380001Y211333D02*
Y213999D01*
X380667D01*
X383333Y211333D01*
X383999D01*
X380001Y215332D02*
Y217998D01*
X380667D01*
X383333Y215332D01*
X383999D01*
X397999Y204002D02*
X394001D01*
Y206002D01*
X394667Y206668D01*
X396000D01*
X396666Y206002D01*
Y204002D01*
Y205335D02*
X397999Y206668D01*
Y208001D02*
Y209334D01*
Y208667D01*
X394001D01*
X394667Y208001D01*
X394001Y211333D02*
Y213999D01*
X394667D01*
X397333Y211333D01*
X397999D01*
X394001Y217998D02*
X394667Y216665D01*
X396000Y215332D01*
X397333D01*
X397999Y215998D01*
Y217331D01*
X397333Y217998D01*
X396666D01*
X396000Y217331D01*
Y215332D01*
X410999Y204002D02*
X407001D01*
Y206002D01*
X407667Y206668D01*
X409000D01*
X409666Y206002D01*
Y204002D01*
Y205335D02*
X410999Y206668D01*
Y208001D02*
Y209334D01*
Y208667D01*
X407001D01*
X407667Y208001D01*
X407001Y211333D02*
Y213999D01*
X407667D01*
X410333Y211333D01*
X410999D01*
X407001Y217998D02*
Y215332D01*
X409000D01*
X408334Y216665D01*
Y217331D01*
X409000Y217998D01*
X410333D01*
X410999Y217331D01*
Y215998D01*
X410333Y215332D01*
X423999Y204002D02*
X420001D01*
Y206002D01*
X420667Y206668D01*
X422000D01*
X422666Y206002D01*
Y204002D01*
Y205335D02*
X423999Y206668D01*
Y208001D02*
Y209334D01*
Y208667D01*
X420001D01*
X420667Y208001D01*
X420001Y211333D02*
Y213999D01*
X420667D01*
X423333Y211333D01*
X423999D01*
Y217331D02*
X420001D01*
X422000Y215332D01*
Y217998D01*
X435999Y204002D02*
X432001D01*
Y206002D01*
X432667Y206668D01*
X434000D01*
X434666Y206002D01*
Y204002D01*
Y205335D02*
X435999Y206668D01*
Y208001D02*
Y209334D01*
Y208667D01*
X432001D01*
X432667Y208001D01*
X432001Y211333D02*
Y213999D01*
X432667D01*
X435333Y211333D01*
X435999D01*
X432667Y215332D02*
X432001Y215998D01*
Y217331D01*
X432667Y217998D01*
X433333D01*
X434000Y217331D01*
Y216665D01*
Y217331D01*
X434666Y217998D01*
X435333D01*
X435999Y217331D01*
Y215998D01*
X435333Y215332D01*
X448999Y203669D02*
X445001D01*
Y205668D01*
X445667Y206335D01*
X447000D01*
X447666Y205668D01*
Y203669D01*
Y205002D02*
X448999Y206335D01*
Y207668D02*
Y209001D01*
Y208334D01*
X445001D01*
X445667Y207668D01*
X445001Y213666D02*
X445667Y212333D01*
X447000Y211000D01*
X448333D01*
X448999Y211666D01*
Y212999D01*
X448333Y213666D01*
X447666D01*
X447000Y212999D01*
Y211000D01*
X445667Y214999D02*
X445001Y215665D01*
Y216998D01*
X445667Y217665D01*
X446334D01*
X447000Y216998D01*
X447666Y217665D01*
X448333D01*
X448999Y216998D01*
Y215665D01*
X448333Y214999D01*
X447666D01*
X447000Y215665D01*
X446334Y214999D01*
X445667D01*
X447000Y215665D02*
Y216998D01*
X461999Y203669D02*
X458001D01*
Y205668D01*
X458667Y206335D01*
X460000D01*
X460666Y205668D01*
Y203669D01*
Y205002D02*
X461999Y206335D01*
Y207668D02*
Y209001D01*
Y208334D01*
X458001D01*
X458667Y207668D01*
X458001Y213666D02*
X458667Y212333D01*
X460000Y211000D01*
X461333D01*
X461999Y211666D01*
Y212999D01*
X461333Y213666D01*
X460666D01*
X460000Y212999D01*
Y211000D01*
X458001Y214999D02*
Y217665D01*
X458667D01*
X461333Y214999D01*
X461999D01*
X473999Y203669D02*
X470001D01*
Y205668D01*
X470667Y206335D01*
X472000D01*
X472666Y205668D01*
Y203669D01*
Y205002D02*
X473999Y206335D01*
Y207668D02*
Y209001D01*
Y208334D01*
X470001D01*
X470667Y207668D01*
X470001Y213666D02*
X470667Y212333D01*
X472000Y211000D01*
X473333D01*
X473999Y211666D01*
Y212999D01*
X473333Y213666D01*
X472666D01*
X472000Y212999D01*
Y211000D01*
X470001Y217665D02*
X470667Y216332D01*
X472000Y214999D01*
X473333D01*
X473999Y215665D01*
Y216998D01*
X473333Y217665D01*
X472666D01*
X472000Y216998D01*
Y214999D01*
X399002Y67001D02*
Y70999D01*
X401002D01*
X401668Y70333D01*
Y69000D01*
X401002Y68334D01*
X399002D01*
X400335D02*
X401668Y67001D01*
X403001D02*
X404334D01*
X403667D01*
Y70999D01*
X403001Y70333D01*
X408999Y70999D02*
X407666Y70333D01*
X406333Y69000D01*
Y67667D01*
X407000Y67001D01*
X408333D01*
X408999Y67667D01*
Y68334D01*
X408333Y69000D01*
X406333D01*
X412998Y70999D02*
X410332D01*
Y69000D01*
X411665Y69666D01*
X412331D01*
X412998Y69000D01*
Y67667D01*
X412331Y67001D01*
X410998D01*
X410332Y67667D01*
X411999Y80002D02*
X408001D01*
Y82002D01*
X408667Y82668D01*
X410000D01*
X410666Y82002D01*
Y80002D01*
Y81335D02*
X411999Y82668D01*
Y84001D02*
Y85334D01*
Y84667D01*
X408001D01*
X408667Y84001D01*
X408001Y89999D02*
X408667Y88666D01*
X410000Y87333D01*
X411333D01*
X411999Y88000D01*
Y89333D01*
X411333Y89999D01*
X410666D01*
X410000Y89333D01*
Y87333D01*
X411999Y93331D02*
X408001D01*
X410000Y91332D01*
Y93998D01*
X399002Y57001D02*
Y60999D01*
X401002D01*
X401668Y60333D01*
Y59000D01*
X401002Y58334D01*
X399002D01*
X400335D02*
X401668Y57001D01*
X403001D02*
X404334D01*
X403667D01*
Y60999D01*
X403001Y60333D01*
X408999Y60999D02*
X407666Y60333D01*
X406333Y59000D01*
Y57667D01*
X407000Y57001D01*
X408333D01*
X408999Y57667D01*
Y58334D01*
X408333Y59000D01*
X406333D01*
X410332Y60333D02*
X410998Y60999D01*
X412331D01*
X412998Y60333D01*
Y59666D01*
X412331Y59000D01*
X411665D01*
X412331D01*
X412998Y58334D01*
Y57667D01*
X412331Y57001D01*
X410998D01*
X410332Y57667D01*
X423999Y80002D02*
X420001D01*
Y82002D01*
X420667Y82668D01*
X422000D01*
X422666Y82002D01*
Y80002D01*
Y81335D02*
X423999Y82668D01*
Y84001D02*
Y85334D01*
Y84667D01*
X420001D01*
X420667Y84001D01*
X420001Y89999D02*
X420667Y88666D01*
X422000Y87333D01*
X423333D01*
X423999Y88000D01*
Y89333D01*
X423333Y89999D01*
X422666D01*
X422000Y89333D01*
Y87333D01*
X423999Y93998D02*
Y91332D01*
X421334Y93998D01*
X420667D01*
X420001Y93331D01*
Y91998D01*
X420667Y91332D01*
X398519Y47001D02*
Y50999D01*
X400518D01*
X401185Y50333D01*
Y49000D01*
X400518Y48334D01*
X398519D01*
X399852D02*
X401185Y47001D01*
X402518D02*
X403851D01*
X403184D01*
Y50999D01*
X402518Y50333D01*
X408516Y50999D02*
X407183Y50333D01*
X405850Y49000D01*
Y47667D01*
X406517Y47001D01*
X407849D01*
X408516Y47667D01*
Y48334D01*
X407849Y49000D01*
X405850D01*
X409849Y47001D02*
X411182D01*
X410515D01*
Y50999D01*
X409849Y50333D01*
X435999Y80002D02*
X432001D01*
Y82002D01*
X432667Y82668D01*
X434000D01*
X434666Y82002D01*
Y80002D01*
Y81335D02*
X435999Y82668D01*
Y84001D02*
Y85334D01*
Y84667D01*
X432001D01*
X432667Y84001D01*
X432001Y89999D02*
X432667Y88666D01*
X434000Y87333D01*
X435333D01*
X435999Y88000D01*
Y89333D01*
X435333Y89999D01*
X434666D01*
X434000Y89333D01*
Y87333D01*
X432667Y91332D02*
X432001Y91998D01*
Y93331D01*
X432667Y93998D01*
X435333D01*
X435999Y93331D01*
Y91998D01*
X435333Y91332D01*
X432667D01*
X305002Y47001D02*
Y50999D01*
X307002D01*
X307668Y50333D01*
Y49000D01*
X307002Y48334D01*
X305002D01*
X306335D02*
X307668Y47001D01*
X309001D02*
X310334D01*
X309667D01*
Y50999D01*
X309001Y50333D01*
X314999Y50999D02*
X312333D01*
Y49000D01*
X313666Y49666D01*
X314333D01*
X314999Y49000D01*
Y47667D01*
X314333Y47001D01*
X313000D01*
X312333Y47667D01*
X316332D02*
X316998Y47001D01*
X318331D01*
X318998Y47667D01*
Y50333D01*
X318331Y50999D01*
X316998D01*
X316332Y50333D01*
Y49666D01*
X316998Y49000D01*
X318998D01*
X448999Y79853D02*
X445001D01*
Y81852D01*
X445667Y82518D01*
X447000D01*
X447666Y81852D01*
Y79853D01*
Y81186D02*
X448999Y82518D01*
Y83851D02*
Y85184D01*
Y84518D01*
X445001D01*
X445667Y83851D01*
X445001Y89849D02*
Y87184D01*
X447000D01*
X446334Y88516D01*
Y89183D01*
X447000Y89849D01*
X448333D01*
X448999Y89183D01*
Y87850D01*
X448333Y87184D01*
X445667Y91182D02*
X445001Y91849D01*
Y93182D01*
X445667Y93848D01*
X446334D01*
X447000Y93182D01*
X447666Y93848D01*
X448333D01*
X448999Y93182D01*
Y91849D01*
X448333Y91182D01*
X447666D01*
X447000Y91849D01*
X446334Y91182D01*
X445667D01*
X447000Y91849D02*
Y93182D01*
X305002Y57001D02*
Y60999D01*
X307002D01*
X307668Y60333D01*
Y59000D01*
X307002Y58334D01*
X305002D01*
X306335D02*
X307668Y57001D01*
X309001D02*
X310334D01*
X309667D01*
Y60999D01*
X309001Y60333D01*
X314333Y57001D02*
Y60999D01*
X312333Y59000D01*
X314999D01*
X316332Y57667D02*
X316998Y57001D01*
X318331D01*
X318998Y57667D01*
Y60333D01*
X318331Y60999D01*
X316998D01*
X316332Y60333D01*
Y59666D01*
X316998Y59000D01*
X318998D01*
X461999Y80002D02*
X458001D01*
Y82002D01*
X458667Y82668D01*
X460000D01*
X460666Y82002D01*
Y80002D01*
Y81335D02*
X461999Y82668D01*
Y84001D02*
Y85334D01*
Y84667D01*
X458001D01*
X458667Y84001D01*
X461999Y89333D02*
X458001D01*
X460000Y87333D01*
Y89999D01*
X458667Y91332D02*
X458001Y91998D01*
Y93331D01*
X458667Y93998D01*
X459334D01*
X460000Y93331D01*
X460666Y93998D01*
X461333D01*
X461999Y93331D01*
Y91998D01*
X461333Y91332D01*
X460666D01*
X460000Y91998D01*
X459334Y91332D01*
X458667D01*
X460000Y91998D02*
Y93331D01*
X305002Y67001D02*
Y70999D01*
X307002D01*
X307668Y70333D01*
Y69000D01*
X307002Y68334D01*
X305002D01*
X306335D02*
X307668Y67001D01*
X309001D02*
X310334D01*
X309667D01*
Y70999D01*
X309001Y70333D01*
X314333Y67001D02*
Y70999D01*
X312333Y69000D01*
X314999D01*
X316332Y70999D02*
X318998D01*
Y70333D01*
X316332Y67667D01*
Y67001D01*
X473999Y80152D02*
X470001D01*
Y82151D01*
X470667Y82818D01*
X472000D01*
X472666Y82151D01*
Y80152D01*
Y81485D02*
X473999Y82818D01*
Y84151D02*
Y85483D01*
Y84817D01*
X470001D01*
X470667Y84151D01*
X473999Y89482D02*
X470001D01*
X472000Y87483D01*
Y90149D01*
X470001Y94147D02*
X470667Y92814D01*
X472000Y91482D01*
X473333D01*
X473999Y92148D01*
Y93481D01*
X473333Y94147D01*
X472666D01*
X472000Y93481D01*
Y91482D01*
X280335Y41001D02*
Y44999D01*
X282335D01*
X283001Y44333D01*
Y43000D01*
X282335Y42334D01*
X280335D01*
X281668D02*
X283001Y41001D01*
X284334D02*
X285667D01*
X285001D01*
Y44999D01*
X284334Y44333D01*
X287667Y41001D02*
X288999D01*
X288333D01*
Y44999D01*
X287667Y44333D01*
X290999Y41667D02*
X291665Y41001D01*
X292998D01*
X293665Y41667D01*
Y44333D01*
X292998Y44999D01*
X291665D01*
X290999Y44333D01*
Y43666D01*
X291665Y43000D01*
X293665D01*
X280335Y95001D02*
Y98999D01*
X282335D01*
X283001Y98333D01*
Y97000D01*
X282335Y96333D01*
X280335D01*
X281668D02*
X283001Y95001D01*
X284334D02*
X285667D01*
X285001D01*
Y98999D01*
X284334Y98333D01*
X287666Y95001D02*
X288999D01*
X288333D01*
Y98999D01*
X287666Y98333D01*
X290999D02*
X291665Y98999D01*
X292998D01*
X293665Y98333D01*
Y97666D01*
X292998Y97000D01*
X293665Y96333D01*
Y95667D01*
X292998Y95001D01*
X291665D01*
X290999Y95667D01*
Y96333D01*
X291665Y97000D01*
X290999Y97666D01*
Y98333D01*
X291665Y97000D02*
X292998D01*
X280335Y48001D02*
Y51999D01*
X282335D01*
X283001Y51333D01*
Y50000D01*
X282335Y49334D01*
X280335D01*
X281668D02*
X283001Y48001D01*
X284334D02*
X285667D01*
X285001D01*
Y51999D01*
X284334Y51333D01*
X287667Y48001D02*
X288999D01*
X288333D01*
Y51999D01*
X287667Y51333D01*
X290999Y51999D02*
X293665D01*
Y51333D01*
X290999Y48667D01*
Y48001D01*
X280335Y101001D02*
Y104999D01*
X282335D01*
X283001Y104333D01*
Y103000D01*
X282335Y102334D01*
X280335D01*
X281668D02*
X283001Y101001D01*
X284334D02*
X285667D01*
X285001D01*
Y104999D01*
X284334Y104333D01*
X287667Y101001D02*
X288999D01*
X288333D01*
Y104999D01*
X287667Y104333D01*
X293665Y104999D02*
X292332Y104333D01*
X290999Y103000D01*
Y101667D01*
X291665Y101001D01*
X292998D01*
X293665Y101667D01*
Y102334D01*
X292998Y103000D01*
X290999D01*
X280335Y66001D02*
Y69999D01*
X282335D01*
X283001Y69333D01*
Y68000D01*
X282335Y67334D01*
X280335D01*
X281668D02*
X283001Y66001D01*
X284334D02*
X285667D01*
X285001D01*
Y69999D01*
X284334Y69333D01*
X287667Y66001D02*
X288999D01*
X288333D01*
Y69999D01*
X287667Y69333D01*
X293665Y69999D02*
X290999D01*
Y68000D01*
X292332Y68666D01*
X292998D01*
X293665Y68000D01*
Y66667D01*
X292998Y66001D01*
X291665D01*
X290999Y66667D01*
X280335Y119001D02*
Y122999D01*
X282335D01*
X283001Y122333D01*
Y121000D01*
X282335Y120334D01*
X280335D01*
X281668D02*
X283001Y119001D01*
X284334D02*
X285667D01*
X285001D01*
Y122999D01*
X284334Y122333D01*
X287667Y119001D02*
X288999D01*
X288333D01*
Y122999D01*
X287667Y122333D01*
X292998Y119001D02*
Y122999D01*
X290999Y121000D01*
X293665D01*
X280335Y72001D02*
Y75999D01*
X282335D01*
X283001Y75333D01*
Y74000D01*
X282335Y73334D01*
X280335D01*
X281668D02*
X283001Y72001D01*
X284334D02*
X285667D01*
X285001D01*
Y75999D01*
X284334Y75333D01*
X287667Y72001D02*
X288999D01*
X288333D01*
Y75999D01*
X287667Y75333D01*
X290999D02*
X291665Y75999D01*
X292998D01*
X293665Y75333D01*
Y74666D01*
X292998Y74000D01*
X292332D01*
X292998D01*
X293665Y73334D01*
Y72667D01*
X292998Y72001D01*
X291665D01*
X290999Y72667D01*
X280335Y125001D02*
Y128999D01*
X282335D01*
X283001Y128333D01*
Y127000D01*
X282335Y126333D01*
X280335D01*
X281668D02*
X283001Y125001D01*
X284334D02*
X285667D01*
X285001D01*
Y128999D01*
X284334Y128333D01*
X287667Y125001D02*
X288999D01*
X288333D01*
Y128999D01*
X287667Y128333D01*
X293665Y125001D02*
X290999D01*
X293665Y127666D01*
Y128333D01*
X292998Y128999D01*
X291665D01*
X290999Y128333D01*
X280002Y60001D02*
Y63999D01*
X282001D01*
X282668Y63333D01*
Y62000D01*
X282001Y61334D01*
X280002D01*
X281335D02*
X282668Y60001D01*
X284001D02*
X285334D01*
X284667D01*
Y63999D01*
X284001Y63333D01*
X287333Y60001D02*
X288666D01*
X287999D01*
Y63999D01*
X287333Y63333D01*
X290665Y60001D02*
X291998D01*
X291332D01*
Y63999D01*
X290665Y63333D01*
X280335Y113001D02*
Y116999D01*
X282335D01*
X283001Y116333D01*
Y115000D01*
X282335Y114333D01*
X280335D01*
X281668D02*
X283001Y113001D01*
X284334D02*
X285667D01*
X285001D01*
Y116999D01*
X284334Y116333D01*
X287667Y113001D02*
X288999D01*
X288333D01*
Y116999D01*
X287667Y116333D01*
X290999D02*
X291665Y116999D01*
X292998D01*
X293665Y116333D01*
Y113667D01*
X292998Y113001D01*
X291665D01*
X290999Y113667D01*
Y116333D01*
X280002Y54001D02*
Y57999D01*
X282002D01*
X282668Y57333D01*
Y56000D01*
X282002Y55334D01*
X280002D01*
X281335D02*
X282668Y54001D01*
X284001D02*
X285334D01*
X284667D01*
Y57999D01*
X284001Y57333D01*
X287333D02*
X288000Y57999D01*
X289333D01*
X289999Y57333D01*
Y54667D01*
X289333Y54001D01*
X288000D01*
X287333Y54667D01*
Y57333D01*
X291332Y54667D02*
X291998Y54001D01*
X293331D01*
X293998Y54667D01*
Y57333D01*
X293331Y57999D01*
X291998D01*
X291332Y57333D01*
Y56666D01*
X291998Y56000D01*
X293998D01*
X280002Y107001D02*
Y110999D01*
X282002D01*
X282668Y110333D01*
Y109000D01*
X282002Y108334D01*
X280002D01*
X281335D02*
X282668Y107001D01*
X284001D02*
X285334D01*
X284667D01*
Y110999D01*
X284001Y110333D01*
X287333D02*
X288000Y110999D01*
X289333D01*
X289999Y110333D01*
Y107667D01*
X289333Y107001D01*
X288000D01*
X287333Y107667D01*
Y110333D01*
X291332D02*
X291998Y110999D01*
X293331D01*
X293998Y110333D01*
Y109667D01*
X293331Y109000D01*
X293998Y108334D01*
Y107667D01*
X293331Y107001D01*
X291998D01*
X291332Y107667D01*
Y108334D01*
X291998Y109000D01*
X291332Y109667D01*
Y110333D01*
X291998Y109000D02*
X293331D01*
X114999Y7502D02*
X111001D01*
Y9502D01*
X111667Y10168D01*
X113000D01*
X113666Y9502D01*
Y7502D01*
Y8835D02*
X114999Y10168D01*
Y11501D02*
Y12834D01*
Y12167D01*
X111001D01*
X111667Y11501D01*
Y14833D02*
X111001Y15500D01*
Y16833D01*
X111667Y17499D01*
X114333D01*
X114999Y16833D01*
Y15500D01*
X114333Y14833D01*
X111667D01*
X111001Y18832D02*
Y21498D01*
X111667D01*
X114333Y18832D01*
X114999D01*
X121999Y7502D02*
X118001D01*
Y9502D01*
X118667Y10168D01*
X120000D01*
X120667Y9502D01*
Y7502D01*
Y8835D02*
X121999Y10168D01*
Y11501D02*
Y12834D01*
Y12167D01*
X118001D01*
X118667Y11501D01*
Y14833D02*
X118001Y15500D01*
Y16833D01*
X118667Y17499D01*
X121333D01*
X121999Y16833D01*
Y15500D01*
X121333Y14833D01*
X118667D01*
X118001Y21498D02*
X118667Y20165D01*
X120000Y18832D01*
X121333D01*
X121999Y19498D01*
Y20831D01*
X121333Y21498D01*
X120667D01*
X120000Y20831D01*
Y18832D01*
X127999Y7502D02*
X124001D01*
Y9502D01*
X124667Y10168D01*
X126000D01*
X126666Y9502D01*
Y7502D01*
Y8835D02*
X127999Y10168D01*
Y11501D02*
Y12834D01*
Y12167D01*
X124001D01*
X124667Y11501D01*
Y14833D02*
X124001Y15500D01*
Y16833D01*
X124667Y17499D01*
X127333D01*
X127999Y16833D01*
Y15500D01*
X127333Y14833D01*
X124667D01*
X124001Y21498D02*
Y18832D01*
X126000D01*
X125333Y20165D01*
Y20831D01*
X126000Y21498D01*
X127333D01*
X127999Y20831D01*
Y19498D01*
X127333Y18832D01*
X108999Y7502D02*
X105001D01*
Y9502D01*
X105667Y10168D01*
X107000D01*
X107667Y9502D01*
Y7502D01*
Y8835D02*
X108999Y10168D01*
Y11501D02*
Y12834D01*
Y12167D01*
X105001D01*
X105667Y11501D01*
Y14833D02*
X105001Y15500D01*
Y16833D01*
X105667Y17499D01*
X108333D01*
X108999Y16833D01*
Y15500D01*
X108333Y14833D01*
X105667D01*
X108999Y20831D02*
X105001D01*
X107000Y18832D01*
Y21498D01*
X133999Y7502D02*
X130001D01*
Y9502D01*
X130667Y10168D01*
X132000D01*
X132666Y9502D01*
Y7502D01*
Y8835D02*
X133999Y10168D01*
Y11501D02*
Y12834D01*
Y12167D01*
X130001D01*
X130667Y11501D01*
Y14833D02*
X130001Y15500D01*
Y16833D01*
X130667Y17499D01*
X133333D01*
X133999Y16833D01*
Y15500D01*
X133333Y14833D01*
X130667D01*
Y18832D02*
X130001Y19498D01*
Y20831D01*
X130667Y21498D01*
X131333D01*
X132000Y20831D01*
Y20165D01*
Y20831D01*
X132666Y21498D01*
X133333D01*
X133999Y20831D01*
Y19498D01*
X133333Y18832D01*
X58669Y43001D02*
Y46999D01*
X60668D01*
X61335Y46333D01*
Y45000D01*
X60668Y44334D01*
X58669D01*
X60002D02*
X61335Y43001D01*
X62667D02*
X64000D01*
X63334D01*
Y46999D01*
X62667Y46333D01*
X66000D02*
X66666Y46999D01*
X67999D01*
X68665Y46333D01*
Y43667D01*
X67999Y43001D01*
X66666D01*
X66000Y43667D01*
Y46333D01*
X72664Y43001D02*
X69998D01*
X72664Y45666D01*
Y46333D01*
X71998Y46999D01*
X70665D01*
X69998Y46333D01*
X140999Y8169D02*
X137001D01*
Y10168D01*
X137667Y10835D01*
X139000D01*
X139666Y10168D01*
Y8169D01*
Y9502D02*
X140999Y10835D01*
Y12167D02*
Y13500D01*
Y12834D01*
X137001D01*
X137667Y12167D01*
Y15500D02*
X137001Y16166D01*
Y17499D01*
X137667Y18166D01*
X140333D01*
X140999Y17499D01*
Y16166D01*
X140333Y15500D01*
X137667D01*
X140999Y19498D02*
Y20831D01*
Y20165D01*
X137001D01*
X137667Y19498D01*
X58669Y49001D02*
Y52999D01*
X60668D01*
X61335Y52333D01*
Y51000D01*
X60668Y50334D01*
X58669D01*
X60002D02*
X61335Y49001D01*
X62667D02*
X64000D01*
X63334D01*
Y52999D01*
X62667Y52333D01*
X66000D02*
X66666Y52999D01*
X67999D01*
X68665Y52333D01*
Y49667D01*
X67999Y49001D01*
X66666D01*
X66000Y49667D01*
Y52333D01*
X69998D02*
X70665Y52999D01*
X71998D01*
X72664Y52333D01*
Y49667D01*
X71998Y49001D01*
X70665D01*
X69998Y49667D01*
Y52333D01*
X146999Y9168D02*
X143001D01*
Y11168D01*
X143667Y11834D01*
X145000D01*
X145666Y11168D01*
Y9168D01*
Y10501D02*
X146999Y11834D01*
X146333Y13167D02*
X146999Y13834D01*
Y15167D01*
X146333Y15833D01*
X143667D01*
X143001Y15167D01*
Y13834D01*
X143667Y13167D01*
X144334D01*
X145000Y13834D01*
Y15833D01*
X146333Y17166D02*
X146999Y17832D01*
Y19165D01*
X146333Y19832D01*
X143667D01*
X143001Y19165D01*
Y17832D01*
X143667Y17166D01*
X144334D01*
X145000Y17832D01*
Y19832D01*
X60335Y55001D02*
Y58999D01*
X62334D01*
X63001Y58333D01*
Y57000D01*
X62334Y56334D01*
X60335D01*
X61668D02*
X63001Y55001D01*
X64334Y55667D02*
X65000Y55001D01*
X66333D01*
X66999Y55667D01*
Y58333D01*
X66333Y58999D01*
X65000D01*
X64334Y58333D01*
Y57666D01*
X65000Y57000D01*
X66999D01*
X68332Y58333D02*
X68999Y58999D01*
X70332D01*
X70998Y58333D01*
Y57666D01*
X70332Y57000D01*
X70998Y56334D01*
Y55667D01*
X70332Y55001D01*
X68999D01*
X68332Y55667D01*
Y56334D01*
X68999Y57000D01*
X68332Y57666D01*
Y58333D01*
X68999Y57000D02*
X70332D01*
X172668Y50001D02*
Y53999D01*
X174668D01*
X175334Y53333D01*
Y52000D01*
X174668Y51334D01*
X172668D01*
X174001D02*
X175334Y50001D01*
X176667Y50667D02*
X177333Y50001D01*
X178666D01*
X179333Y50667D01*
Y53333D01*
X178666Y53999D01*
X177333D01*
X176667Y53333D01*
Y52666D01*
X177333Y52000D01*
X179333D01*
X180666Y53999D02*
X183332D01*
Y53333D01*
X180666Y50667D01*
Y50001D01*
X172668Y68001D02*
Y71999D01*
X174668D01*
X175334Y71333D01*
Y70000D01*
X174668Y69334D01*
X172668D01*
X174001D02*
X175334Y68001D01*
X176667Y68667D02*
X177333Y68001D01*
X178666D01*
X179333Y68667D01*
Y71333D01*
X178666Y71999D01*
X177333D01*
X176667Y71333D01*
Y70666D01*
X177333Y70000D01*
X179333D01*
X183332Y71999D02*
X181999Y71333D01*
X180666Y70000D01*
Y68667D01*
X181332Y68001D01*
X182665D01*
X183332Y68667D01*
Y69334D01*
X182665Y70000D01*
X180666D01*
X59668Y61001D02*
Y64999D01*
X61668D01*
X62334Y64333D01*
Y63000D01*
X61668Y62334D01*
X59668D01*
X61001D02*
X62334Y61001D01*
X63667Y61667D02*
X64334Y61001D01*
X65666D01*
X66333Y61667D01*
Y64333D01*
X65666Y64999D01*
X64334D01*
X63667Y64333D01*
Y63666D01*
X64334Y63000D01*
X66333D01*
X70332Y64999D02*
X67666D01*
Y63000D01*
X68999Y63666D01*
X69665D01*
X70332Y63000D01*
Y61667D01*
X69665Y61001D01*
X68332D01*
X67666Y61667D01*
X172668Y74001D02*
Y77999D01*
X174668D01*
X175334Y77333D01*
Y76000D01*
X174668Y75334D01*
X172668D01*
X174001D02*
X175334Y74001D01*
X176667Y74667D02*
X177333Y74001D01*
X178666D01*
X179333Y74667D01*
Y77333D01*
X178666Y77999D01*
X177333D01*
X176667Y77333D01*
Y76666D01*
X177333Y76000D01*
X179333D01*
X182665Y74001D02*
Y77999D01*
X180666Y76000D01*
X183332D01*
X172668Y80001D02*
Y83999D01*
X174668D01*
X175334Y83333D01*
Y82000D01*
X174668Y81334D01*
X172668D01*
X174001D02*
X175334Y80001D01*
X176667Y80667D02*
X177333Y80001D01*
X178666D01*
X179333Y80667D01*
Y83333D01*
X178666Y83999D01*
X177333D01*
X176667Y83333D01*
Y82666D01*
X177333Y82000D01*
X179333D01*
X183332Y80001D02*
X180666D01*
X183332Y82666D01*
Y83333D01*
X182665Y83999D01*
X181332D01*
X180666Y83333D01*
X61335Y73001D02*
Y76999D01*
X63334D01*
X64000Y76333D01*
Y75000D01*
X63334Y74334D01*
X61335D01*
X62667D02*
X64000Y73001D01*
X65333Y73667D02*
X66000Y73001D01*
X67333D01*
X67999Y73667D01*
Y76333D01*
X67333Y76999D01*
X66000D01*
X65333Y76333D01*
Y75666D01*
X66000Y75000D01*
X67999D01*
X69332Y73001D02*
X70665D01*
X69998D01*
Y76999D01*
X69332Y76333D01*
X172668Y86001D02*
Y89999D01*
X174668D01*
X175334Y89333D01*
Y88000D01*
X174668Y87334D01*
X172668D01*
X174001D02*
X175334Y86001D01*
X176667Y86667D02*
X177333Y86001D01*
X178666D01*
X179333Y86667D01*
Y89333D01*
X178666Y89999D01*
X177333D01*
X176667Y89333D01*
Y88666D01*
X177333Y88000D01*
X179333D01*
X180666Y89333D02*
X181332Y89999D01*
X182665D01*
X183332Y89333D01*
Y86667D01*
X182665Y86001D01*
X181332D01*
X180666Y86667D01*
Y89333D01*
X60668Y79001D02*
Y82999D01*
X62667D01*
X63334Y82333D01*
Y81000D01*
X62667Y80334D01*
X60668D01*
X62001D02*
X63334Y79001D01*
X64667Y82333D02*
X65333Y82999D01*
X66666D01*
X67333Y82333D01*
Y81666D01*
X66666Y81000D01*
X67333Y80334D01*
Y79667D01*
X66666Y79001D01*
X65333D01*
X64667Y79667D01*
Y80334D01*
X65333Y81000D01*
X64667Y81666D01*
Y82333D01*
X65333Y81000D02*
X66666D01*
X68665Y79667D02*
X69332Y79001D01*
X70665D01*
X71331Y79667D01*
Y82333D01*
X70665Y82999D01*
X69332D01*
X68665Y82333D01*
Y81666D01*
X69332Y81000D01*
X71331D01*
X172668Y92001D02*
Y95999D01*
X174668D01*
X175334Y95333D01*
Y94000D01*
X174668Y93334D01*
X172668D01*
X174001D02*
X175334Y92001D01*
X176667Y95333D02*
X177333Y95999D01*
X178666D01*
X179333Y95333D01*
Y94666D01*
X178666Y94000D01*
X179333Y93334D01*
Y92667D01*
X178666Y92001D01*
X177333D01*
X176667Y92667D01*
Y93334D01*
X177333Y94000D01*
X176667Y94666D01*
Y95333D01*
X177333Y94000D02*
X178666D01*
X180666Y95333D02*
X181332Y95999D01*
X182665D01*
X183332Y95333D01*
Y94666D01*
X182665Y94000D01*
X183332Y93334D01*
Y92667D01*
X182665Y92001D01*
X181332D01*
X180666Y92667D01*
Y93334D01*
X181332Y94000D01*
X180666Y94666D01*
Y95333D01*
X181332Y94000D02*
X182665D01*
X60668Y85001D02*
Y88999D01*
X62667D01*
X63334Y88333D01*
Y87000D01*
X62667Y86334D01*
X60668D01*
X62001D02*
X63334Y85001D01*
X64667Y88333D02*
X65333Y88999D01*
X66666D01*
X67333Y88333D01*
Y87666D01*
X66666Y87000D01*
X67333Y86334D01*
Y85667D01*
X66666Y85001D01*
X65333D01*
X64667Y85667D01*
Y86334D01*
X65333Y87000D01*
X64667Y87666D01*
Y88333D01*
X65333Y87000D02*
X66666D01*
X68665Y88999D02*
X71331D01*
Y88333D01*
X68665Y85667D01*
Y85001D01*
X143999Y112668D02*
X140001D01*
Y114668D01*
X140667Y115334D01*
X142000D01*
X142666Y114668D01*
Y112668D01*
Y114001D02*
X143999Y115334D01*
X140667Y116667D02*
X140001Y117334D01*
Y118667D01*
X140667Y119333D01*
X141333D01*
X142000Y118667D01*
X142666Y119333D01*
X143333D01*
X143999Y118667D01*
Y117334D01*
X143333Y116667D01*
X142666D01*
X142000Y117334D01*
X141333Y116667D01*
X140667D01*
X142000Y117334D02*
Y118667D01*
X140001Y123332D02*
X140667Y121999D01*
X142000Y120666D01*
X143333D01*
X143999Y121332D01*
Y122665D01*
X143333Y123332D01*
X142666D01*
X142000Y122665D01*
Y120666D01*
X104999Y112668D02*
X101001D01*
Y114668D01*
X101667Y115334D01*
X103000D01*
X103666Y114668D01*
Y112668D01*
Y114001D02*
X104999Y115334D01*
X101667Y116667D02*
X101001Y117333D01*
Y118667D01*
X101667Y119333D01*
X102334D01*
X103000Y118667D01*
X103666Y119333D01*
X104333D01*
X104999Y118667D01*
Y117333D01*
X104333Y116667D01*
X103666D01*
X103000Y117333D01*
X102334Y116667D01*
X101667D01*
X103000Y117333D02*
Y118667D01*
X101001Y123332D02*
Y120666D01*
X103000D01*
X102334Y121999D01*
Y122665D01*
X103000Y123332D01*
X104333D01*
X104999Y122665D01*
Y121332D01*
X104333Y120666D01*
X137999Y112668D02*
X134001D01*
Y114668D01*
X134667Y115334D01*
X136000D01*
X136666Y114668D01*
Y112668D01*
Y114001D02*
X137999Y115334D01*
X134667Y116667D02*
X134001Y117334D01*
Y118667D01*
X134667Y119333D01*
X135334D01*
X136000Y118667D01*
X136666Y119333D01*
X137333D01*
X137999Y118667D01*
Y117334D01*
X137333Y116667D01*
X136666D01*
X136000Y117334D01*
X135334Y116667D01*
X134667D01*
X136000Y117334D02*
Y118667D01*
X137999Y122665D02*
X134001D01*
X136000Y120666D01*
Y123332D01*
X110999Y112668D02*
X107001D01*
Y114668D01*
X107667Y115334D01*
X109000D01*
X109666Y114668D01*
Y112668D01*
Y114001D02*
X110999Y115334D01*
X107667Y116667D02*
X107001Y117334D01*
Y118667D01*
X107667Y119333D01*
X108334D01*
X109000Y118667D01*
X109666Y119333D01*
X110333D01*
X110999Y118667D01*
Y117334D01*
X110333Y116667D01*
X109666D01*
X109000Y117334D01*
X108334Y116667D01*
X107667D01*
X109000Y117334D02*
Y118667D01*
X107667Y120666D02*
X107001Y121332D01*
Y122665D01*
X107667Y123332D01*
X108334D01*
X109000Y122665D01*
Y121999D01*
Y122665D01*
X109666Y123332D01*
X110333D01*
X110999Y122665D01*
Y121332D01*
X110333Y120666D01*
X131999Y112668D02*
X128001D01*
Y114668D01*
X128667Y115334D01*
X130000D01*
X130666Y114668D01*
Y112668D01*
Y114001D02*
X131999Y115334D01*
X128667Y116667D02*
X128001Y117333D01*
Y118667D01*
X128667Y119333D01*
X129333D01*
X130000Y118667D01*
X130666Y119333D01*
X131333D01*
X131999Y118667D01*
Y117333D01*
X131333Y116667D01*
X130666D01*
X130000Y117333D01*
X129333Y116667D01*
X128667D01*
X130000Y117333D02*
Y118667D01*
X131999Y123332D02*
Y120666D01*
X129333Y123332D01*
X128667D01*
X128001Y122665D01*
Y121332D01*
X128667Y120666D01*
X116999Y112335D02*
X113001D01*
Y114334D01*
X113667Y115001D01*
X115000D01*
X115666Y114334D01*
Y112335D01*
Y113668D02*
X116999Y115001D01*
X113667Y116333D02*
X113001Y117000D01*
Y118333D01*
X113667Y118999D01*
X114333D01*
X115000Y118333D01*
X115666Y118999D01*
X116333D01*
X116999Y118333D01*
Y117000D01*
X116333Y116333D01*
X115666D01*
X115000Y117000D01*
X114333Y116333D01*
X113667D01*
X115000Y117000D02*
Y118333D01*
X116999Y120332D02*
Y121665D01*
Y120999D01*
X113001D01*
X113667Y120332D01*
X66668Y118001D02*
Y121999D01*
X68668D01*
X69334Y121333D01*
Y120000D01*
X68668Y119334D01*
X66668D01*
X68001D02*
X69334Y118001D01*
X70667Y121333D02*
X71334Y121999D01*
X72666D01*
X73333Y121333D01*
Y120667D01*
X72666Y120000D01*
X73333Y119334D01*
Y118667D01*
X72666Y118001D01*
X71334D01*
X70667Y118667D01*
Y119334D01*
X71334Y120000D01*
X70667Y120667D01*
Y121333D01*
X71334Y120000D02*
X72666D01*
X74666Y121333D02*
X75332Y121999D01*
X76665D01*
X77332Y121333D01*
Y118667D01*
X76665Y118001D01*
X75332D01*
X74666Y118667D01*
Y121333D01*
X66668Y128001D02*
Y131999D01*
X68668D01*
X69334Y131333D01*
Y130000D01*
X68668Y129333D01*
X66668D01*
X68001D02*
X69334Y128001D01*
X70667Y131999D02*
X73333D01*
Y131333D01*
X70667Y128667D01*
Y128001D01*
X74666Y128667D02*
X75332Y128001D01*
X76665D01*
X77332Y128667D01*
Y131333D01*
X76665Y131999D01*
X75332D01*
X74666Y131333D01*
Y130666D01*
X75332Y130000D01*
X77332D01*
X97668Y133001D02*
Y136999D01*
X99668D01*
X100334Y136333D01*
Y135000D01*
X99668Y134334D01*
X97668D01*
X99001D02*
X100334Y133001D01*
X101667Y136999D02*
X104333D01*
Y136333D01*
X101667Y133667D01*
Y133001D01*
X105666Y136333D02*
X106332Y136999D01*
X107665D01*
X108332Y136333D01*
Y135667D01*
X107665Y135000D01*
X108332Y134334D01*
Y133667D01*
X107665Y133001D01*
X106332D01*
X105666Y133667D01*
Y134334D01*
X106332Y135000D01*
X105666Y135667D01*
Y136333D01*
X106332Y135000D02*
X107665D01*
X66668Y138001D02*
Y141999D01*
X68668D01*
X69334Y141333D01*
Y140000D01*
X68668Y139333D01*
X66668D01*
X68001D02*
X69334Y138001D01*
X70667Y141999D02*
X73333D01*
Y141333D01*
X70667Y138667D01*
Y138001D01*
X74666Y141999D02*
X77332D01*
Y141333D01*
X74666Y138667D01*
Y138001D01*
X97668Y143001D02*
Y146999D01*
X99668D01*
X100334Y146333D01*
Y145000D01*
X99668Y144334D01*
X97668D01*
X99001D02*
X100334Y143001D01*
X101667Y146999D02*
X104333D01*
Y146333D01*
X101667Y143667D01*
Y143001D01*
X108332Y146999D02*
X106999Y146333D01*
X105666Y145000D01*
Y143667D01*
X106332Y143001D01*
X107665D01*
X108332Y143667D01*
Y144334D01*
X107665Y145000D01*
X105666D01*
X66668Y148001D02*
Y151999D01*
X68668D01*
X69334Y151333D01*
Y150000D01*
X68668Y149334D01*
X66668D01*
X68001D02*
X69334Y148001D01*
X70667Y151999D02*
X73333D01*
Y151333D01*
X70667Y148667D01*
Y148001D01*
X77332Y151999D02*
X74666D01*
Y150000D01*
X75999Y150666D01*
X76665D01*
X77332Y150000D01*
Y148667D01*
X76665Y148001D01*
X75332D01*
X74666Y148667D01*
X97668Y153001D02*
Y156999D01*
X99668D01*
X100334Y156333D01*
Y155000D01*
X99668Y154333D01*
X97668D01*
X99001D02*
X100334Y153001D01*
X101667Y156999D02*
X104333D01*
Y156333D01*
X101667Y153667D01*
Y153001D01*
X107665D02*
Y156999D01*
X105666Y155000D01*
X108332D01*
X66668Y158001D02*
Y161999D01*
X68668D01*
X69334Y161333D01*
Y160000D01*
X68668Y159334D01*
X66668D01*
X68001D02*
X69334Y158001D01*
X70667Y161999D02*
X73333D01*
Y161333D01*
X70667Y158667D01*
Y158001D01*
X74666Y161333D02*
X75332Y161999D01*
X76665D01*
X77332Y161333D01*
Y160667D01*
X76665Y160000D01*
X75999D01*
X76665D01*
X77332Y159334D01*
Y158667D01*
X76665Y158001D01*
X75332D01*
X74666Y158667D01*
X134999Y145668D02*
X131001D01*
Y147668D01*
X131667Y148334D01*
X133000D01*
X133666Y147668D01*
Y145668D01*
Y147001D02*
X134999Y148334D01*
X131001Y149667D02*
Y152333D01*
X131667D01*
X134333Y149667D01*
X134999D01*
Y156332D02*
Y153666D01*
X132334Y156332D01*
X131667D01*
X131001Y155665D01*
Y154332D01*
X131667Y153666D01*
X98335Y163001D02*
Y166999D01*
X100334D01*
X101001Y166333D01*
Y165000D01*
X100334Y164333D01*
X98335D01*
X99668D02*
X101001Y163001D01*
X102334Y166999D02*
X104999D01*
Y166333D01*
X102334Y163667D01*
Y163001D01*
X106332D02*
X107665D01*
X106999D01*
Y166999D01*
X106332Y166333D01*
X66668Y168001D02*
Y171999D01*
X68668D01*
X69334Y171333D01*
Y170000D01*
X68668Y169334D01*
X66668D01*
X68001D02*
X69334Y168001D01*
X70667Y171999D02*
X73333D01*
Y171333D01*
X70667Y168667D01*
Y168001D01*
X74666Y171333D02*
X75332Y171999D01*
X76665D01*
X77332Y171333D01*
Y168667D01*
X76665Y168001D01*
X75332D01*
X74666Y168667D01*
Y171333D01*
X155999Y145668D02*
X152001D01*
Y147668D01*
X152667Y148334D01*
X154000D01*
X154666Y147668D01*
Y145668D01*
Y147001D02*
X155999Y148334D01*
X152001Y152333D02*
X152667Y151000D01*
X154000Y149667D01*
X155333D01*
X155999Y150334D01*
Y151666D01*
X155333Y152333D01*
X154666D01*
X154000Y151666D01*
Y149667D01*
X155333Y153666D02*
X155999Y154332D01*
Y155665D01*
X155333Y156332D01*
X152667D01*
X152001Y155665D01*
Y154332D01*
X152667Y153666D01*
X153333D01*
X154000Y154332D01*
Y156332D01*
X148999Y145668D02*
X145001D01*
Y147668D01*
X145667Y148334D01*
X147000D01*
X147667Y147668D01*
Y145668D01*
Y147001D02*
X148999Y148334D01*
X145001Y152333D02*
X145667Y151000D01*
X147000Y149667D01*
X148333D01*
X148999Y150333D01*
Y151666D01*
X148333Y152333D01*
X147667D01*
X147000Y151666D01*
Y149667D01*
X145667Y153666D02*
X145001Y154332D01*
Y155665D01*
X145667Y156332D01*
X146334D01*
X147000Y155665D01*
X147667Y156332D01*
X148333D01*
X148999Y155665D01*
Y154332D01*
X148333Y153666D01*
X147667D01*
X147000Y154332D01*
X146334Y153666D01*
X145667D01*
X147000Y154332D02*
Y155665D01*
X66668Y178001D02*
Y181999D01*
X68668D01*
X69334Y181333D01*
Y180000D01*
X68668Y179333D01*
X66668D01*
X68001D02*
X69334Y178001D01*
X73333Y181999D02*
X72000Y181333D01*
X70667Y180000D01*
Y178667D01*
X71334Y178001D01*
X72666D01*
X73333Y178667D01*
Y179333D01*
X72666Y180000D01*
X70667D01*
X74666Y181999D02*
X77332D01*
Y181333D01*
X74666Y178667D01*
Y178001D01*
X141999Y145668D02*
X138001D01*
Y147668D01*
X138667Y148334D01*
X140000D01*
X140666Y147668D01*
Y145668D01*
Y147001D02*
X141999Y148334D01*
X138001Y152333D02*
X138667Y151000D01*
X140000Y149667D01*
X141333D01*
X141999Y150333D01*
Y151666D01*
X141333Y152333D01*
X140666D01*
X140000Y151666D01*
Y149667D01*
X138001Y156332D02*
X138667Y154999D01*
X140000Y153666D01*
X141333D01*
X141999Y154332D01*
Y155665D01*
X141333Y156332D01*
X140666D01*
X140000Y155665D01*
Y153666D01*
X66668Y188001D02*
Y191999D01*
X68668D01*
X69334Y191333D01*
Y190000D01*
X68668Y189333D01*
X66668D01*
X68001D02*
X69334Y188001D01*
X73333Y191999D02*
X72000Y191333D01*
X70667Y190000D01*
Y188667D01*
X71334Y188001D01*
X72666D01*
X73333Y188667D01*
Y189333D01*
X72666Y190000D01*
X70667D01*
X77332Y191999D02*
X74666D01*
Y190000D01*
X75999Y190666D01*
X76665D01*
X77332Y190000D01*
Y188667D01*
X76665Y188001D01*
X75332D01*
X74666Y188667D01*
X499818Y49001D02*
Y52999D01*
X501817D01*
X502484Y52333D01*
Y51000D01*
X501817Y50334D01*
X499818D01*
X501151D02*
X502484Y49001D01*
X506483Y52999D02*
X505150Y52333D01*
X503817Y51000D01*
Y49667D01*
X504483Y49001D01*
X505816D01*
X506483Y49667D01*
Y50334D01*
X505816Y51000D01*
X503817D01*
X509815Y49001D02*
Y52999D01*
X507815Y51000D01*
X510481D01*
X499668Y18001D02*
Y21999D01*
X501668D01*
X502334Y21333D01*
Y20000D01*
X501668Y19333D01*
X499668D01*
X501001D02*
X502334Y18001D01*
X506333Y21999D02*
X505000Y21333D01*
X503667Y20000D01*
Y18667D01*
X504334Y18001D01*
X505666D01*
X506333Y18667D01*
Y19333D01*
X505666Y20000D01*
X503667D01*
X507666Y21333D02*
X508332Y21999D01*
X509665D01*
X510332Y21333D01*
Y20666D01*
X509665Y20000D01*
X508999D01*
X509665D01*
X510332Y19333D01*
Y18667D01*
X509665Y18001D01*
X508332D01*
X507666Y18667D01*
X414668Y23001D02*
Y26999D01*
X416668D01*
X417334Y26333D01*
Y25000D01*
X416668Y24333D01*
X414668D01*
X416001D02*
X417334Y23001D01*
X421333Y26999D02*
X420000Y26333D01*
X418667Y25000D01*
Y23667D01*
X419334Y23001D01*
X420666D01*
X421333Y23667D01*
Y24333D01*
X420666Y25000D01*
X418667D01*
X425332Y23001D02*
X422666D01*
X425332Y25666D01*
Y26333D01*
X424665Y26999D01*
X423332D01*
X422666Y26333D01*
X415335Y54001D02*
Y57999D01*
X417334D01*
X418001Y57333D01*
Y56000D01*
X417334Y55334D01*
X415335D01*
X416668D02*
X418001Y54001D01*
X421999Y57999D02*
X420666Y57333D01*
X419334Y56000D01*
Y54667D01*
X420000Y54001D01*
X421333D01*
X421999Y54667D01*
Y55334D01*
X421333Y56000D01*
X419334D01*
X423332Y54001D02*
X424665D01*
X423999D01*
Y57999D01*
X423332Y57333D01*
X335909Y195001D02*
Y198999D01*
X337908D01*
X338574Y198333D01*
Y197000D01*
X337908Y196334D01*
X335909D01*
X337241D02*
X338574Y195001D01*
X342573Y198999D02*
X341240Y198333D01*
X339907Y197000D01*
Y195667D01*
X340574Y195001D01*
X341907D01*
X342573Y195667D01*
Y196334D01*
X341907Y197000D01*
X339907D01*
X343906Y198333D02*
X344572Y198999D01*
X345905D01*
X346572Y198333D01*
Y195667D01*
X345905Y195001D01*
X344572D01*
X343906Y195667D01*
Y198333D01*
X254909Y195001D02*
Y198999D01*
X256908D01*
X257574Y198333D01*
Y197000D01*
X256908Y196334D01*
X254909D01*
X256241D02*
X257574Y195001D01*
X261573Y198999D02*
X258907D01*
Y197000D01*
X260240Y197667D01*
X260907D01*
X261573Y197000D01*
Y195667D01*
X260907Y195001D01*
X259574D01*
X258907Y195667D01*
X262906D02*
X263572Y195001D01*
X264905D01*
X265572Y195667D01*
Y198333D01*
X264905Y198999D01*
X263572D01*
X262906Y198333D01*
Y197667D01*
X263572Y197000D01*
X265572D01*
X335909Y177001D02*
Y180999D01*
X337908D01*
X338574Y180333D01*
Y179000D01*
X337908Y178333D01*
X335909D01*
X337241D02*
X338574Y177001D01*
X342573Y180999D02*
X339907D01*
Y179000D01*
X341240Y179666D01*
X341907D01*
X342573Y179000D01*
Y177667D01*
X341907Y177001D01*
X340574D01*
X339907Y177667D01*
X343906Y180333D02*
X344572Y180999D01*
X345905D01*
X346572Y180333D01*
Y179666D01*
X345905Y179000D01*
X346572Y178333D01*
Y177667D01*
X345905Y177001D01*
X344572D01*
X343906Y177667D01*
Y178333D01*
X344572Y179000D01*
X343906Y179666D01*
Y180333D01*
X344572Y179000D02*
X345905D01*
X254909Y177001D02*
Y180999D01*
X256908D01*
X257574Y180333D01*
Y179000D01*
X256908Y178333D01*
X254909D01*
X256241D02*
X257574Y177001D01*
X261573Y180999D02*
X258907D01*
Y179000D01*
X260240Y179666D01*
X260907D01*
X261573Y179000D01*
Y177667D01*
X260907Y177001D01*
X259574D01*
X258907Y177667D01*
X262906Y180999D02*
X265572D01*
Y180333D01*
X262906Y177667D01*
Y177001D01*
X349818Y137001D02*
Y140999D01*
X351817D01*
X352484Y140333D01*
Y139000D01*
X351817Y138333D01*
X349818D01*
X351151D02*
X352484Y137001D01*
X356483Y140999D02*
X353817D01*
Y139000D01*
X355150Y139666D01*
X355816D01*
X356483Y139000D01*
Y137667D01*
X355816Y137001D01*
X354483D01*
X353817Y137667D01*
X360481Y137001D02*
X357815D01*
X360481Y139666D01*
Y140333D01*
X359815Y140999D01*
X358482D01*
X357815Y140333D01*
X270909Y195001D02*
Y198999D01*
X272908D01*
X273574Y198333D01*
Y197000D01*
X272908Y196334D01*
X270909D01*
X272241D02*
X273574Y195001D01*
X277573Y198999D02*
X274907D01*
Y197000D01*
X276240Y197667D01*
X276907D01*
X277573Y197000D01*
Y195667D01*
X276907Y195001D01*
X275574D01*
X274907Y195667D01*
X281572Y198999D02*
X280239Y198333D01*
X278906Y197000D01*
Y195667D01*
X279572Y195001D01*
X280905D01*
X281572Y195667D01*
Y196334D01*
X280905Y197000D01*
X278906D01*
X190668Y195001D02*
Y198999D01*
X192668D01*
X193334Y198333D01*
Y197000D01*
X192668Y196334D01*
X190668D01*
X192001D02*
X193334Y195001D01*
X197333Y198999D02*
X194667D01*
Y197000D01*
X196000Y197667D01*
X196667D01*
X197333Y197000D01*
Y195667D01*
X196667Y195001D01*
X195334D01*
X194667Y195667D01*
X201332Y198999D02*
X198666D01*
Y197000D01*
X199999Y197667D01*
X200665D01*
X201332Y197000D01*
Y195667D01*
X200665Y195001D01*
X199332D01*
X198666Y195667D01*
X270909Y177001D02*
Y180999D01*
X272908D01*
X273574Y180333D01*
Y179000D01*
X272908Y178333D01*
X270909D01*
X272241D02*
X273574Y177001D01*
X277573Y180999D02*
X274907D01*
Y179000D01*
X276240Y179666D01*
X276907D01*
X277573Y179000D01*
Y177667D01*
X276907Y177001D01*
X275574D01*
X274907Y177667D01*
X280905Y177001D02*
Y180999D01*
X278906Y179000D01*
X281572D01*
X190409Y177001D02*
Y180999D01*
X192408D01*
X193074Y180333D01*
Y179000D01*
X192408Y178333D01*
X190409D01*
X191742D02*
X193074Y177001D01*
X197073Y180999D02*
X194407D01*
Y179000D01*
X195740Y179666D01*
X196407D01*
X197073Y179000D01*
Y177667D01*
X196407Y177001D01*
X195074D01*
X194407Y177667D01*
X198406Y180333D02*
X199072Y180999D01*
X200405D01*
X201072Y180333D01*
Y179666D01*
X200405Y179000D01*
X199739D01*
X200405D01*
X201072Y178333D01*
Y177667D01*
X200405Y177001D01*
X199072D01*
X198406Y177667D01*
X350335Y92001D02*
Y95999D01*
X352334D01*
X353001Y95333D01*
Y94000D01*
X352334Y93334D01*
X350335D01*
X351668D02*
X353001Y92001D01*
X356999Y95999D02*
X354334D01*
Y94000D01*
X355666Y94666D01*
X356333D01*
X356999Y94000D01*
Y92667D01*
X356333Y92001D01*
X355000D01*
X354334Y92667D01*
X358332Y92001D02*
X359665D01*
X358999D01*
Y95999D01*
X358332Y95333D01*
X295668Y92001D02*
Y95999D01*
X297668D01*
X298334Y95333D01*
Y94000D01*
X297668Y93334D01*
X295668D01*
X297001D02*
X298334Y92001D01*
X302333Y95999D02*
X299667D01*
Y94000D01*
X301000Y94666D01*
X301666D01*
X302333Y94000D01*
Y92667D01*
X301666Y92001D01*
X300334D01*
X299667Y92667D01*
X303666Y95333D02*
X304332Y95999D01*
X305665D01*
X306332Y95333D01*
Y92667D01*
X305665Y92001D01*
X304332D01*
X303666Y92667D01*
Y95333D01*
X296668Y137001D02*
Y140999D01*
X298668D01*
X299334Y140333D01*
Y139000D01*
X298668Y138333D01*
X296668D01*
X298001D02*
X299334Y137001D01*
X302666D02*
Y140999D01*
X300667Y139000D01*
X303333D01*
X304666Y137667D02*
X305332Y137001D01*
X306665D01*
X307332Y137667D01*
Y140333D01*
X306665Y140999D01*
X305332D01*
X304666Y140333D01*
Y139666D01*
X305332Y139000D01*
X307332D01*
X335909Y227001D02*
Y230999D01*
X337908D01*
X338574Y230333D01*
Y229000D01*
X337908Y228334D01*
X335909D01*
X337241D02*
X338574Y227001D01*
X341907D02*
Y230999D01*
X339907Y229000D01*
X342573D01*
X343906Y230333D02*
X344572Y230999D01*
X345905D01*
X346572Y230333D01*
Y229666D01*
X345905Y229000D01*
X346572Y228334D01*
Y227667D01*
X345905Y227001D01*
X344572D01*
X343906Y227667D01*
Y228334D01*
X344572Y229000D01*
X343906Y229666D01*
Y230333D01*
X344572Y229000D02*
X345905D01*
X254909Y227001D02*
Y230999D01*
X256908D01*
X257574Y230333D01*
Y229000D01*
X256908Y228334D01*
X254909D01*
X256241D02*
X257574Y227001D01*
X260907D02*
Y230999D01*
X258907Y229000D01*
X261573D01*
X262906Y230999D02*
X265572D01*
Y230333D01*
X262906Y227667D01*
Y227001D01*
X335909Y209001D02*
Y212999D01*
X337908D01*
X338574Y212333D01*
Y211000D01*
X337908Y210334D01*
X335909D01*
X337241D02*
X338574Y209001D01*
X341907D02*
Y212999D01*
X339907Y211000D01*
X342573D01*
X346572Y212999D02*
X345239Y212333D01*
X343906Y211000D01*
Y209667D01*
X344572Y209001D01*
X345905D01*
X346572Y209667D01*
Y210334D01*
X345905Y211000D01*
X343906D01*
X254909Y209001D02*
Y212999D01*
X256908D01*
X257574Y212333D01*
Y211000D01*
X256908Y210334D01*
X254909D01*
X256241D02*
X257574Y209001D01*
X260907D02*
Y212999D01*
X258907Y211000D01*
X261573D01*
X265572Y212999D02*
X262906D01*
Y211000D01*
X264239Y211666D01*
X264905D01*
X265572Y211000D01*
Y209667D01*
X264905Y209001D01*
X263572D01*
X262906Y209667D01*
X270909Y227001D02*
Y230999D01*
X272908D01*
X273574Y230333D01*
Y229000D01*
X272908Y228334D01*
X270909D01*
X272241D02*
X273574Y227001D01*
X276907D02*
Y230999D01*
X274907Y229000D01*
X277573D01*
X280905Y227001D02*
Y230999D01*
X278906Y229000D01*
X281572D01*
X190409Y227001D02*
Y230999D01*
X192408D01*
X193074Y230333D01*
Y229000D01*
X192408Y228334D01*
X190409D01*
X191742D02*
X193074Y227001D01*
X196407D02*
Y230999D01*
X194407Y229000D01*
X197073D01*
X198406Y230333D02*
X199072Y230999D01*
X200405D01*
X201072Y230333D01*
Y229666D01*
X200405Y229000D01*
X199739D01*
X200405D01*
X201072Y228334D01*
Y227667D01*
X200405Y227001D01*
X199072D01*
X198406Y227667D01*
X270909Y209001D02*
Y212999D01*
X272908D01*
X273574Y212333D01*
Y211000D01*
X272908Y210334D01*
X270909D01*
X272241D02*
X273574Y209001D01*
X276907D02*
Y212999D01*
X274907Y211000D01*
X277573D01*
X281572Y209001D02*
X278906D01*
X281572Y211666D01*
Y212333D01*
X280905Y212999D01*
X279572D01*
X278906Y212333D01*
X191742Y209001D02*
Y212999D01*
X193741D01*
X194407Y212333D01*
Y211000D01*
X193741Y210334D01*
X191742D01*
X193074D02*
X194407Y209001D01*
X197740D02*
Y212999D01*
X195740Y211000D01*
X198406D01*
X199739Y209001D02*
X201072D01*
X200405D01*
Y212999D01*
X199739Y212333D01*
X506668Y98001D02*
Y101999D01*
X508668D01*
X509334Y101333D01*
Y100000D01*
X508668Y99334D01*
X506668D01*
X508001D02*
X509334Y98001D01*
X510667Y101333D02*
X511334Y101999D01*
X512666D01*
X513333Y101333D01*
Y100666D01*
X512666Y100000D01*
X512000D01*
X512666D01*
X513333Y99334D01*
Y98667D01*
X512666Y98001D01*
X511334D01*
X510667Y98667D01*
X514666D02*
X515332Y98001D01*
X516665D01*
X517332Y98667D01*
Y101333D01*
X516665Y101999D01*
X515332D01*
X514666Y101333D01*
Y100666D01*
X515332Y100000D01*
X517332D01*
X506668Y108001D02*
Y111999D01*
X508668D01*
X509334Y111333D01*
Y110000D01*
X508668Y109334D01*
X506668D01*
X508001D02*
X509334Y108001D01*
X510667Y111333D02*
X511334Y111999D01*
X512666D01*
X513333Y111333D01*
Y110667D01*
X512666Y110000D01*
X512000D01*
X512666D01*
X513333Y109334D01*
Y108667D01*
X512666Y108001D01*
X511334D01*
X510667Y108667D01*
X514666Y111999D02*
X517332D01*
Y111333D01*
X514666Y108667D01*
Y108001D01*
X506668Y118001D02*
Y121999D01*
X508668D01*
X509334Y121333D01*
Y120000D01*
X508668Y119334D01*
X506668D01*
X508001D02*
X509334Y118001D01*
X510667Y121333D02*
X511334Y121999D01*
X512666D01*
X513333Y121333D01*
Y120667D01*
X512666Y120000D01*
X512000D01*
X512666D01*
X513333Y119334D01*
Y118667D01*
X512666Y118001D01*
X511334D01*
X510667Y118667D01*
X517332Y121999D02*
X514666D01*
Y120000D01*
X515999Y120667D01*
X516665D01*
X517332Y120000D01*
Y118667D01*
X516665Y118001D01*
X515332D01*
X514666Y118667D01*
X506668Y128001D02*
Y131999D01*
X508668D01*
X509334Y131333D01*
Y130000D01*
X508668Y129333D01*
X506668D01*
X508001D02*
X509334Y128001D01*
X510667Y131333D02*
X511334Y131999D01*
X512666D01*
X513333Y131333D01*
Y130666D01*
X512666Y130000D01*
X512000D01*
X512666D01*
X513333Y129333D01*
Y128667D01*
X512666Y128001D01*
X511334D01*
X510667Y128667D01*
X514666Y131333D02*
X515332Y131999D01*
X516665D01*
X517332Y131333D01*
Y130666D01*
X516665Y130000D01*
X515999D01*
X516665D01*
X517332Y129333D01*
Y128667D01*
X516665Y128001D01*
X515332D01*
X514666Y128667D01*
X507335Y138001D02*
Y141999D01*
X509334D01*
X510001Y141333D01*
Y140000D01*
X509334Y139333D01*
X507335D01*
X508668D02*
X510001Y138001D01*
X511334Y141333D02*
X512000Y141999D01*
X513333D01*
X513999Y141333D01*
Y140666D01*
X513333Y140000D01*
X512666D01*
X513333D01*
X513999Y139333D01*
Y138667D01*
X513333Y138001D01*
X512000D01*
X511334Y138667D01*
X515332Y138001D02*
X516665D01*
X515999D01*
Y141999D01*
X515332Y141333D01*
X506668Y148001D02*
Y151999D01*
X508668D01*
X509334Y151333D01*
Y150000D01*
X508668Y149334D01*
X506668D01*
X508001D02*
X509334Y148001D01*
X513333D02*
X510667D01*
X513333Y150666D01*
Y151333D01*
X512666Y151999D01*
X511334D01*
X510667Y151333D01*
X514666Y148667D02*
X515332Y148001D01*
X516665D01*
X517332Y148667D01*
Y151333D01*
X516665Y151999D01*
X515332D01*
X514666Y151333D01*
Y150666D01*
X515332Y150000D01*
X517332D01*
X506668Y158001D02*
Y161999D01*
X508668D01*
X509334Y161333D01*
Y160000D01*
X508668Y159334D01*
X506668D01*
X508001D02*
X509334Y158001D01*
X513333D02*
X510667D01*
X513333Y160667D01*
Y161333D01*
X512666Y161999D01*
X511334D01*
X510667Y161333D01*
X514666Y161999D02*
X517332D01*
Y161333D01*
X514666Y158667D01*
Y158001D01*
X506668Y168001D02*
Y171999D01*
X508668D01*
X509334Y171333D01*
Y170000D01*
X508668Y169334D01*
X506668D01*
X508001D02*
X509334Y168001D01*
X513333D02*
X510667D01*
X513333Y170667D01*
Y171333D01*
X512666Y171999D01*
X511334D01*
X510667Y171333D01*
X517332Y171999D02*
X514666D01*
Y170000D01*
X515999Y170667D01*
X516665D01*
X517332Y170000D01*
Y168667D01*
X516665Y168001D01*
X515332D01*
X514666Y168667D01*
X335909Y261001D02*
Y264999D01*
X337908D01*
X338574Y264333D01*
Y263000D01*
X337908Y262334D01*
X335909D01*
X337241D02*
X338574Y261001D01*
X342573D02*
X339907D01*
X342573Y263666D01*
Y264333D01*
X341907Y264999D01*
X340574D01*
X339907Y264333D01*
X345905Y261001D02*
Y264999D01*
X343906Y263000D01*
X346572D01*
X254909Y261001D02*
Y264999D01*
X256908D01*
X257574Y264333D01*
Y263000D01*
X256908Y262334D01*
X254909D01*
X256241D02*
X257574Y261001D01*
X261573D02*
X258907D01*
X261573Y263666D01*
Y264333D01*
X260907Y264999D01*
X259574D01*
X258907Y264333D01*
X262906D02*
X263572Y264999D01*
X264905D01*
X265572Y264333D01*
Y263666D01*
X264905Y263000D01*
X264239D01*
X264905D01*
X265572Y262334D01*
Y261667D01*
X264905Y261001D01*
X263572D01*
X262906Y261667D01*
X335909Y243001D02*
Y246999D01*
X337908D01*
X338574Y246333D01*
Y245000D01*
X337908Y244334D01*
X335909D01*
X337241D02*
X338574Y243001D01*
X342573D02*
X339907D01*
X342573Y245666D01*
Y246333D01*
X341907Y246999D01*
X340574D01*
X339907Y246333D01*
X346572Y243001D02*
X343906D01*
X346572Y245666D01*
Y246333D01*
X345905Y246999D01*
X344572D01*
X343906Y246333D01*
X254909Y243001D02*
Y246999D01*
X256908D01*
X257574Y246333D01*
Y245000D01*
X256908Y244334D01*
X254909D01*
X256241D02*
X257574Y243001D01*
X261573D02*
X258907D01*
X261573Y245666D01*
Y246333D01*
X260907Y246999D01*
X259574D01*
X258907Y246333D01*
X262906Y243001D02*
X264239D01*
X263572D01*
Y246999D01*
X262906Y246333D01*
X270668Y261001D02*
Y264999D01*
X272668D01*
X273334Y264333D01*
Y263000D01*
X272668Y262334D01*
X270668D01*
X272001D02*
X273334Y261001D01*
X277333D02*
X274667D01*
X277333Y263666D01*
Y264333D01*
X276666Y264999D01*
X275334D01*
X274667Y264333D01*
X278666D02*
X279332Y264999D01*
X280665D01*
X281332Y264333D01*
Y261667D01*
X280665Y261001D01*
X279332D01*
X278666Y261667D01*
Y264333D01*
X191075Y261001D02*
Y264999D01*
X193074D01*
X193741Y264333D01*
Y263000D01*
X193074Y262334D01*
X191075D01*
X192408D02*
X193741Y261001D01*
X195074D02*
X196407D01*
X195740D01*
Y264999D01*
X195074Y264333D01*
X198406Y261667D02*
X199072Y261001D01*
X200405D01*
X201072Y261667D01*
Y264333D01*
X200405Y264999D01*
X199072D01*
X198406Y264333D01*
Y263666D01*
X199072Y263000D01*
X201072D01*
X271575Y243001D02*
Y246999D01*
X273574D01*
X274241Y246333D01*
Y245000D01*
X273574Y244334D01*
X271575D01*
X272908D02*
X274241Y243001D01*
X275574D02*
X276907D01*
X276240D01*
Y246999D01*
X275574Y246333D01*
X278906D02*
X279572Y246999D01*
X280905D01*
X281572Y246333D01*
Y245666D01*
X280905Y245000D01*
X281572Y244334D01*
Y243667D01*
X280905Y243001D01*
X279572D01*
X278906Y243667D01*
Y244334D01*
X279572Y245000D01*
X278906Y245666D01*
Y246333D01*
X279572Y245000D02*
X280905D01*
X191075Y243001D02*
Y246999D01*
X193074D01*
X193741Y246333D01*
Y245000D01*
X193074Y244334D01*
X191075D01*
X192408D02*
X193741Y243001D01*
X195074D02*
X196407D01*
X195740D01*
Y246999D01*
X195074Y246333D01*
X198406Y246999D02*
X201072D01*
Y246333D01*
X198406Y243667D01*
Y243001D01*
X335909Y294001D02*
Y297999D01*
X337908D01*
X338574Y297333D01*
Y296000D01*
X337908Y295334D01*
X335909D01*
X337241D02*
X338574Y294001D01*
X339907D02*
X341240D01*
X340574D01*
Y297999D01*
X339907Y297333D01*
X343239Y294001D02*
X344572D01*
X343906D01*
Y297999D01*
X343239Y297333D01*
X254909Y294001D02*
Y297999D01*
X256908D01*
X257574Y297333D01*
Y296000D01*
X256908Y295334D01*
X254909D01*
X256241D02*
X257574Y294001D01*
X258907D02*
X260240D01*
X259574D01*
Y297999D01*
X258907Y297333D01*
X262240D02*
X262906Y297999D01*
X264239D01*
X264905Y297333D01*
Y294667D01*
X264239Y294001D01*
X262906D01*
X262240Y294667D01*
Y297333D01*
X335909Y276001D02*
Y279999D01*
X337908D01*
X338574Y279333D01*
Y278000D01*
X337908Y277334D01*
X335909D01*
X337241D02*
X338574Y276001D01*
X339907Y279333D02*
X340574Y279999D01*
X341907D01*
X342573Y279333D01*
Y278666D01*
X341907Y278000D01*
X342573Y277334D01*
Y276667D01*
X341907Y276001D01*
X340574D01*
X339907Y276667D01*
Y277334D01*
X340574Y278000D01*
X339907Y278666D01*
Y279333D01*
X340574Y278000D02*
X341907D01*
X254909Y276001D02*
Y279999D01*
X256908D01*
X257574Y279333D01*
Y278000D01*
X256908Y277334D01*
X254909D01*
X256241D02*
X257574Y276001D01*
X258907Y279999D02*
X261573D01*
Y279333D01*
X258907Y276667D01*
Y276001D01*
X274907Y294001D02*
Y297999D01*
X276907D01*
X277573Y297333D01*
Y296000D01*
X276907Y295334D01*
X274907D01*
X276240D02*
X277573Y294001D01*
X281572Y297999D02*
X278906D01*
Y296000D01*
X280239Y296666D01*
X280905D01*
X281572Y296000D01*
Y294667D01*
X280905Y294001D01*
X279572D01*
X278906Y294667D01*
X194407Y294001D02*
Y297999D01*
X196407D01*
X197073Y297333D01*
Y296000D01*
X196407Y295334D01*
X194407D01*
X195740D02*
X197073Y294001D01*
X200405D02*
Y297999D01*
X198406Y296000D01*
X201072D01*
X274907Y276001D02*
Y279999D01*
X276907D01*
X277573Y279333D01*
Y278000D01*
X276907Y277334D01*
X274907D01*
X276240D02*
X277573Y276001D01*
X281572D02*
X278906D01*
X281572Y278666D01*
Y279333D01*
X280905Y279999D01*
X279572D01*
X278906Y279333D01*
X195740Y276001D02*
Y279999D01*
X197740D01*
X198406Y279333D01*
Y278000D01*
X197740Y277334D01*
X195740D01*
X197073D02*
X198406Y276001D01*
X199739D02*
X201072D01*
X200405D01*
Y279999D01*
X199739Y279333D01*
X289001Y306003D02*
X292999D01*
Y308669D01*
X289001Y312667D02*
Y310002D01*
X292999D01*
Y312667D01*
X291000Y310002D02*
Y311334D01*
X289001Y314000D02*
X292999D01*
Y316000D01*
X292333Y316666D01*
X289667D01*
X289001Y316000D01*
Y314000D01*
X289667Y317999D02*
X289001Y318666D01*
Y319998D01*
X289667Y320665D01*
X290334D01*
X291000Y319998D01*
Y319332D01*
Y319998D01*
X291666Y320665D01*
X292333D01*
X292999Y319998D01*
Y318666D01*
X292333Y317999D01*
X289667Y321998D02*
X289001Y322664D01*
Y323997D01*
X289667Y324664D01*
X290334D01*
X291000Y323997D01*
X291666Y324664D01*
X292333D01*
X292999Y323997D01*
Y322664D01*
X292333Y321998D01*
X291666D01*
X291000Y322664D01*
X290334Y321998D01*
X289667D01*
X291000Y322664D02*
Y323997D01*
X267001Y306003D02*
X270999D01*
Y308669D01*
X267001Y312667D02*
Y310002D01*
X270999D01*
Y312667D01*
X269000Y310002D02*
Y311334D01*
X267001Y314000D02*
X270999D01*
Y316000D01*
X270333Y316666D01*
X267667D01*
X267001Y316000D01*
Y314000D01*
X267667Y317999D02*
X267001Y318666D01*
Y319998D01*
X267667Y320665D01*
X268334D01*
X269000Y319998D01*
Y319332D01*
Y319998D01*
X269666Y320665D01*
X270333D01*
X270999Y319998D01*
Y318666D01*
X270333Y317999D01*
X267001Y321998D02*
Y324664D01*
X267667D01*
X270333Y321998D01*
X270999D01*
X321001Y306003D02*
X324999D01*
Y308669D01*
X321001Y312667D02*
Y310002D01*
X324999D01*
Y312667D01*
X323000Y310002D02*
Y311334D01*
X321001Y314000D02*
X324999D01*
Y316000D01*
X324333Y316666D01*
X321667D01*
X321001Y316000D01*
Y314000D01*
X321667Y317999D02*
X321001Y318666D01*
Y319998D01*
X321667Y320665D01*
X322334D01*
X323000Y319998D01*
Y319332D01*
Y319998D01*
X323666Y320665D01*
X324333D01*
X324999Y319998D01*
Y318666D01*
X324333Y317999D01*
X321001Y324664D02*
X321667Y323331D01*
X323000Y321998D01*
X324333D01*
X324999Y322664D01*
Y323997D01*
X324333Y324664D01*
X323666D01*
X323000Y323997D01*
Y321998D01*
X308001Y306003D02*
X311999D01*
Y308669D01*
X308001Y312667D02*
Y310002D01*
X311999D01*
Y312667D01*
X310000Y310002D02*
Y311334D01*
X308001Y314000D02*
X311999D01*
Y316000D01*
X311333Y316666D01*
X308667D01*
X308001Y316000D01*
Y314000D01*
X308667Y317999D02*
X308001Y318666D01*
Y319998D01*
X308667Y320665D01*
X309333D01*
X310000Y319998D01*
Y319332D01*
Y319998D01*
X310666Y320665D01*
X311333D01*
X311999Y319998D01*
Y318666D01*
X311333Y317999D01*
X308001Y324664D02*
Y321998D01*
X310000D01*
X309333Y323331D01*
Y323997D01*
X310000Y324664D01*
X311333D01*
X311999Y323997D01*
Y322664D01*
X311333Y321998D01*
X470001Y233170D02*
X473999D01*
Y235836D01*
X470001Y239834D02*
Y237168D01*
X473999D01*
Y239834D01*
X472000Y237168D02*
Y238501D01*
X470001Y241167D02*
X473999D01*
Y243166D01*
X473333Y243833D01*
X470667D01*
X470001Y243166D01*
Y241167D01*
X470667Y245166D02*
X470001Y245832D01*
Y247165D01*
X470667Y247832D01*
X471334D01*
X472000Y247165D01*
Y246499D01*
Y247165D01*
X472666Y247832D01*
X473333D01*
X473999Y247165D01*
Y245832D01*
X473333Y245166D01*
X473999Y251164D02*
X470001D01*
X472000Y249165D01*
Y251830D01*
X458001Y233170D02*
X461999D01*
Y235836D01*
X458001Y239834D02*
Y237168D01*
X461999D01*
Y239834D01*
X460000Y237168D02*
Y238501D01*
X458001Y241167D02*
X461999D01*
Y243166D01*
X461333Y243833D01*
X458667D01*
X458001Y243166D01*
Y241167D01*
X458667Y245166D02*
X458001Y245832D01*
Y247165D01*
X458667Y247832D01*
X459334D01*
X460000Y247165D01*
Y246499D01*
Y247165D01*
X460666Y247832D01*
X461333D01*
X461999Y247165D01*
Y245832D01*
X461333Y245166D01*
X458667Y249165D02*
X458001Y249831D01*
Y251164D01*
X458667Y251830D01*
X459334D01*
X460000Y251164D01*
Y250497D01*
Y251164D01*
X460666Y251830D01*
X461333D01*
X461999Y251164D01*
Y249831D01*
X461333Y249165D01*
X445001Y233170D02*
X448999D01*
Y235836D01*
X445001Y239834D02*
Y237168D01*
X448999D01*
Y239834D01*
X447000Y237168D02*
Y238501D01*
X445001Y241167D02*
X448999D01*
Y243166D01*
X448333Y243833D01*
X445667D01*
X445001Y243166D01*
Y241167D01*
X445667Y245166D02*
X445001Y245832D01*
Y247165D01*
X445667Y247832D01*
X446334D01*
X447000Y247165D01*
Y246499D01*
Y247165D01*
X447666Y247832D01*
X448333D01*
X448999Y247165D01*
Y245832D01*
X448333Y245166D01*
X448999Y251830D02*
Y249165D01*
X446334Y251830D01*
X445667D01*
X445001Y251164D01*
Y249831D01*
X445667Y249165D01*
X432001Y234503D02*
X435999D01*
Y237168D01*
X432001Y241167D02*
Y238501D01*
X435999D01*
Y241167D01*
X434000Y238501D02*
Y239834D01*
X432001Y242500D02*
X435999D01*
Y244499D01*
X435333Y245166D01*
X432667D01*
X432001Y244499D01*
Y242500D01*
X432667Y246499D02*
X432001Y247165D01*
Y248498D01*
X432667Y249165D01*
X433334D01*
X434000Y248498D01*
Y247832D01*
Y248498D01*
X434666Y249165D01*
X435333D01*
X435999Y248498D01*
Y247165D01*
X435333Y246499D01*
X435999Y250497D02*
Y251830D01*
Y251164D01*
X432001D01*
X432667Y250497D01*
X420001Y233170D02*
X423999D01*
Y235836D01*
X420001Y239834D02*
Y237168D01*
X423999D01*
Y239834D01*
X422000Y237168D02*
Y238501D01*
X420001Y241167D02*
X423999D01*
Y243166D01*
X423333Y243833D01*
X420667D01*
X420001Y243166D01*
Y241167D01*
X420667Y245166D02*
X420001Y245832D01*
Y247165D01*
X420667Y247832D01*
X421334D01*
X422000Y247165D01*
Y246499D01*
Y247165D01*
X422666Y247832D01*
X423333D01*
X423999Y247165D01*
Y245832D01*
X423333Y245166D01*
X420667Y249165D02*
X420001Y249831D01*
Y251164D01*
X420667Y251830D01*
X423333D01*
X423999Y251164D01*
Y249831D01*
X423333Y249165D01*
X420667D01*
X407001Y233170D02*
X410999D01*
Y235836D01*
X407001Y239834D02*
Y237168D01*
X410999D01*
Y239834D01*
X409000Y237168D02*
Y238501D01*
X407001Y241167D02*
X410999D01*
Y243166D01*
X410333Y243833D01*
X407667D01*
X407001Y243166D01*
Y241167D01*
X410999Y247832D02*
Y245166D01*
X408333Y247832D01*
X407667D01*
X407001Y247165D01*
Y245832D01*
X407667Y245166D01*
X410333Y249165D02*
X410999Y249831D01*
Y251164D01*
X410333Y251830D01*
X407667D01*
X407001Y251164D01*
Y249831D01*
X407667Y249165D01*
X408333D01*
X409000Y249831D01*
Y251830D01*
X394001Y233170D02*
X397999D01*
Y235836D01*
X394001Y239834D02*
Y237168D01*
X397999D01*
Y239834D01*
X396000Y237168D02*
Y238501D01*
X394001Y241167D02*
X397999D01*
Y243166D01*
X397333Y243833D01*
X394667D01*
X394001Y243166D01*
Y241167D01*
X397999Y247832D02*
Y245166D01*
X395334Y247832D01*
X394667D01*
X394001Y247165D01*
Y245832D01*
X394667Y245166D01*
Y249165D02*
X394001Y249831D01*
Y251164D01*
X394667Y251830D01*
X395334D01*
X396000Y251164D01*
X396666Y251830D01*
X397333D01*
X397999Y251164D01*
Y249831D01*
X397333Y249165D01*
X396666D01*
X396000Y249831D01*
X395334Y249165D01*
X394667D01*
X396000Y249831D02*
Y251164D01*
X380001Y233170D02*
X383999D01*
Y235836D01*
X380001Y239834D02*
Y237168D01*
X383999D01*
Y239834D01*
X382000Y237168D02*
Y238501D01*
X380001Y241167D02*
X383999D01*
Y243166D01*
X383333Y243833D01*
X380667D01*
X380001Y243166D01*
Y241167D01*
X383999Y247832D02*
Y245166D01*
X381334Y247832D01*
X380667D01*
X380001Y247165D01*
Y245832D01*
X380667Y245166D01*
X380001Y249165D02*
Y251830D01*
X380667D01*
X383333Y249165D01*
X383999D01*
X385001Y306670D02*
X388999D01*
Y309335D01*
X385001Y313334D02*
Y310668D01*
X388999D01*
Y313334D01*
X387000Y310668D02*
Y312001D01*
X385001Y314667D02*
X388999D01*
Y316667D01*
X388333Y317333D01*
X385667D01*
X385001Y316667D01*
Y314667D01*
X388999Y321332D02*
Y318666D01*
X386333Y321332D01*
X385667D01*
X385001Y320665D01*
Y319332D01*
X385667Y318666D01*
X385001Y325330D02*
X385667Y323997D01*
X387000Y322664D01*
X388333D01*
X388999Y323331D01*
Y324664D01*
X388333Y325330D01*
X387666D01*
X387000Y324664D01*
Y322664D01*
X402501Y306819D02*
X406499D01*
Y309485D01*
X402501Y313484D02*
Y310818D01*
X406499D01*
Y313484D01*
X404500Y310818D02*
Y312151D01*
X402501Y314817D02*
X406499D01*
Y316816D01*
X405833Y317482D01*
X403167D01*
X402501Y316816D01*
Y314817D01*
X406499Y321481D02*
Y318815D01*
X403833Y321481D01*
X403167D01*
X402501Y320815D01*
Y319482D01*
X403167Y318815D01*
X402501Y325480D02*
Y322814D01*
X404500D01*
X403833Y324147D01*
Y324814D01*
X404500Y325480D01*
X405833D01*
X406499Y324814D01*
Y323481D01*
X405833Y322814D01*
X470001Y107670D02*
X473999D01*
Y110336D01*
X470001Y114334D02*
Y111668D01*
X473999D01*
Y114334D01*
X472000Y111668D02*
Y113001D01*
X470001Y115667D02*
X473999D01*
Y117666D01*
X473333Y118333D01*
X470667D01*
X470001Y117666D01*
Y115667D01*
X473999Y122332D02*
Y119666D01*
X471334Y122332D01*
X470667D01*
X470001Y121665D01*
Y120332D01*
X470667Y119666D01*
X473999Y125664D02*
X470001D01*
X472000Y123664D01*
Y126330D01*
X458001Y107670D02*
X461999D01*
Y110336D01*
X458001Y114334D02*
Y111668D01*
X461999D01*
Y114334D01*
X460000Y111668D02*
Y113001D01*
X458001Y115667D02*
X461999D01*
Y117666D01*
X461333Y118333D01*
X458667D01*
X458001Y117666D01*
Y115667D01*
X461999Y122332D02*
Y119666D01*
X459334Y122332D01*
X458667D01*
X458001Y121665D01*
Y120332D01*
X458667Y119666D01*
Y123664D02*
X458001Y124331D01*
Y125664D01*
X458667Y126330D01*
X459334D01*
X460000Y125664D01*
Y124997D01*
Y125664D01*
X460666Y126330D01*
X461333D01*
X461999Y125664D01*
Y124331D01*
X461333Y123664D01*
X445001Y107670D02*
X448999D01*
Y110336D01*
X445001Y114334D02*
Y111668D01*
X448999D01*
Y114334D01*
X447000Y111668D02*
Y113001D01*
X445001Y115667D02*
X448999D01*
Y117666D01*
X448333Y118333D01*
X445667D01*
X445001Y117666D01*
Y115667D01*
X448999Y122332D02*
Y119666D01*
X446334Y122332D01*
X445667D01*
X445001Y121665D01*
Y120332D01*
X445667Y119666D01*
X448999Y126330D02*
Y123664D01*
X446334Y126330D01*
X445667D01*
X445001Y125664D01*
Y124331D01*
X445667Y123664D01*
X432001Y108336D02*
X435999D01*
Y111002D01*
X432001Y115001D02*
Y112335D01*
X435999D01*
Y115001D01*
X434000Y112335D02*
Y113668D01*
X432001Y116334D02*
X435999D01*
Y118333D01*
X435333Y118999D01*
X432667D01*
X432001Y118333D01*
Y116334D01*
X435999Y122998D02*
Y120332D01*
X433333Y122998D01*
X432667D01*
X432001Y122332D01*
Y120999D01*
X432667Y120332D01*
X435999Y124331D02*
Y125664D01*
Y124997D01*
X432001D01*
X432667Y124331D01*
X420001Y107670D02*
X423999D01*
Y110336D01*
X420001Y114334D02*
Y111668D01*
X423999D01*
Y114334D01*
X422000Y111668D02*
Y113001D01*
X420001Y115667D02*
X423999D01*
Y117666D01*
X423333Y118333D01*
X420667D01*
X420001Y117666D01*
Y115667D01*
X423999Y122332D02*
Y119666D01*
X421334Y122332D01*
X420667D01*
X420001Y121665D01*
Y120332D01*
X420667Y119666D01*
Y123664D02*
X420001Y124331D01*
Y125664D01*
X420667Y126330D01*
X423333D01*
X423999Y125664D01*
Y124331D01*
X423333Y123664D01*
X420667D01*
X408001Y108003D02*
X411999D01*
Y110669D01*
X408001Y114667D02*
Y112002D01*
X411999D01*
Y114667D01*
X410000Y112002D02*
Y113335D01*
X408001Y116000D02*
X411999D01*
Y118000D01*
X411333Y118666D01*
X408667D01*
X408001Y118000D01*
Y116000D01*
X411999Y119999D02*
Y121332D01*
Y120666D01*
X408001D01*
X408667Y119999D01*
X411333Y123331D02*
X411999Y123998D01*
Y125331D01*
X411333Y125997D01*
X408667D01*
X408001Y125331D01*
Y123998D01*
X408667Y123331D01*
X409334D01*
X410000Y123998D01*
Y125997D01*
X394001Y108003D02*
X397999D01*
Y110669D01*
X394001Y114667D02*
Y112002D01*
X397999D01*
Y114667D01*
X396000Y112002D02*
Y113335D01*
X394001Y116000D02*
X397999D01*
Y118000D01*
X397333Y118666D01*
X394667D01*
X394001Y118000D01*
Y116000D01*
X397999Y119999D02*
Y121332D01*
Y120666D01*
X394001D01*
X394667Y119999D01*
Y123331D02*
X394001Y123998D01*
Y125331D01*
X394667Y125997D01*
X395334D01*
X396000Y125331D01*
X396666Y125997D01*
X397333D01*
X397999Y125331D01*
Y123998D01*
X397333Y123331D01*
X396666D01*
X396000Y123998D01*
X395334Y123331D01*
X394667D01*
X396000Y123998D02*
Y125331D01*
X380001Y108003D02*
X383999D01*
Y110669D01*
X380001Y114667D02*
Y112002D01*
X383999D01*
Y114667D01*
X382000Y112002D02*
Y113335D01*
X380001Y116000D02*
X383999D01*
Y118000D01*
X383333Y118666D01*
X380667D01*
X380001Y118000D01*
Y116000D01*
X383999Y119999D02*
Y121332D01*
Y120666D01*
X380001D01*
X380667Y119999D01*
X380001Y123331D02*
Y125997D01*
X380667D01*
X383333Y123331D01*
X383999D01*
X216001Y306003D02*
X219999D01*
Y308669D01*
X216001Y312667D02*
Y310002D01*
X219999D01*
Y312667D01*
X218000Y310002D02*
Y311334D01*
X216001Y314000D02*
X219999D01*
Y316000D01*
X219333Y316666D01*
X216667D01*
X216001Y316000D01*
Y314000D01*
X219999Y317999D02*
Y319332D01*
Y318666D01*
X216001D01*
X216667Y317999D01*
X216001Y323997D02*
X216667Y322664D01*
X218000Y321331D01*
X219333D01*
X219999Y321998D01*
Y323331D01*
X219333Y323997D01*
X218666D01*
X218000Y323331D01*
Y321331D01*
X203001Y306003D02*
X206999D01*
Y308669D01*
X203001Y312667D02*
Y310002D01*
X206999D01*
Y312667D01*
X205000Y310002D02*
Y311334D01*
X203001Y314000D02*
X206999D01*
Y316000D01*
X206333Y316666D01*
X203667D01*
X203001Y316000D01*
Y314000D01*
X206999Y317999D02*
Y319332D01*
Y318666D01*
X203001D01*
X203667Y317999D01*
X203001Y323997D02*
Y321331D01*
X205000D01*
X204333Y322664D01*
Y323331D01*
X205000Y323997D01*
X206333D01*
X206999Y323331D01*
Y321998D01*
X206333Y321331D01*
X159001Y306003D02*
X162999D01*
Y308669D01*
X159001Y312667D02*
Y310002D01*
X162999D01*
Y312667D01*
X161000Y310002D02*
Y311334D01*
X159001Y314000D02*
X162999D01*
Y316000D01*
X162333Y316666D01*
X159667D01*
X159001Y316000D01*
Y314000D01*
X162999Y317999D02*
Y319332D01*
Y318666D01*
X159001D01*
X159667Y317999D01*
X162999Y323331D02*
X159001D01*
X161000Y321331D01*
Y323997D01*
X191001Y306003D02*
X194999D01*
Y308669D01*
X191001Y312667D02*
Y310002D01*
X194999D01*
Y312667D01*
X193000Y310002D02*
Y311334D01*
X191001Y314000D02*
X194999D01*
Y316000D01*
X194333Y316666D01*
X191667D01*
X191001Y316000D01*
Y314000D01*
X194999Y317999D02*
Y319332D01*
Y318666D01*
X191001D01*
X191667Y317999D01*
Y321331D02*
X191001Y321998D01*
Y323331D01*
X191667Y323997D01*
X192333D01*
X193000Y323331D01*
Y322664D01*
Y323331D01*
X193667Y323997D01*
X194333D01*
X194999Y323331D01*
Y321998D01*
X194333Y321331D01*
X175001Y306003D02*
X178999D01*
Y308669D01*
X175001Y312667D02*
Y310002D01*
X178999D01*
Y312667D01*
X177000Y310002D02*
Y311334D01*
X175001Y314000D02*
X178999D01*
Y316000D01*
X178333Y316666D01*
X175667D01*
X175001Y316000D01*
Y314000D01*
X178999Y317999D02*
Y319332D01*
Y318666D01*
X175001D01*
X175667Y317999D01*
X178999Y323997D02*
Y321331D01*
X176333Y323997D01*
X175667D01*
X175001Y323331D01*
Y321998D01*
X175667Y321331D01*
X354001Y306003D02*
X357999D01*
Y308669D01*
X354001Y312667D02*
Y310002D01*
X357999D01*
Y312667D01*
X356000Y310002D02*
Y311334D01*
X354001Y314000D02*
X357999D01*
Y316000D01*
X357333Y316666D01*
X354667D01*
X354001Y316000D01*
Y314000D01*
X357999Y317999D02*
Y319332D01*
Y318666D01*
X354001D01*
X354667Y317999D01*
X357999Y321331D02*
Y322664D01*
Y321998D01*
X354001D01*
X354667Y321331D01*
X249001Y306003D02*
X252999D01*
Y308669D01*
X249001Y312667D02*
Y310002D01*
X252999D01*
Y312667D01*
X251000Y310002D02*
Y311334D01*
X249001Y314000D02*
X252999D01*
Y316000D01*
X252333Y316666D01*
X249667D01*
X249001Y316000D01*
Y314000D01*
X252999Y317999D02*
Y319332D01*
Y318666D01*
X249001D01*
X249667Y317999D01*
Y321331D02*
X249001Y321998D01*
Y323331D01*
X249667Y323997D01*
X252333D01*
X252999Y323331D01*
Y321998D01*
X252333Y321331D01*
X249667D01*
X234001Y306003D02*
X237999D01*
Y308669D01*
X234001Y312667D02*
Y310002D01*
X237999D01*
Y312667D01*
X236000Y310002D02*
Y311334D01*
X234001Y314000D02*
X237999D01*
Y316000D01*
X237333Y316666D01*
X234667D01*
X234001Y316000D01*
Y314000D01*
X237333Y317999D02*
X237999Y318666D01*
Y319998D01*
X237333Y320665D01*
X234667D01*
X234001Y319998D01*
Y318666D01*
X234667Y317999D01*
X235334D01*
X236000Y318666D01*
Y320665D01*
X76001Y308669D02*
X79999D01*
Y311335D01*
X76001Y315334D02*
Y312668D01*
X79999D01*
Y315334D01*
X78000Y312668D02*
Y314001D01*
X76001Y316667D02*
X79999D01*
Y318666D01*
X79333Y319332D01*
X76667D01*
X76001Y318666D01*
Y316667D01*
X76667Y320665D02*
X76001Y321332D01*
Y322664D01*
X76667Y323331D01*
X77334D01*
X78000Y322664D01*
X78666Y323331D01*
X79333D01*
X79999Y322664D01*
Y321332D01*
X79333Y320665D01*
X78666D01*
X78000Y321332D01*
X77334Y320665D01*
X76667D01*
X78000Y321332D02*
Y322664D01*
X86001Y308669D02*
X89999D01*
Y311335D01*
X86001Y315334D02*
Y312668D01*
X89999D01*
Y315334D01*
X88000Y312668D02*
Y314001D01*
X86001Y316667D02*
X89999D01*
Y318666D01*
X89333Y319332D01*
X86667D01*
X86001Y318666D01*
Y316667D01*
Y320665D02*
Y323331D01*
X86667D01*
X89333Y320665D01*
X89999D01*
X96001Y308669D02*
X99999D01*
Y311335D01*
X96001Y315334D02*
Y312668D01*
X99999D01*
Y315334D01*
X98000Y312668D02*
Y314001D01*
X96001Y316667D02*
X99999D01*
Y318666D01*
X99333Y319332D01*
X96667D01*
X96001Y318666D01*
Y316667D01*
Y323331D02*
X96667Y321998D01*
X98000Y320665D01*
X99333D01*
X99999Y321332D01*
Y322664D01*
X99333Y323331D01*
X98666D01*
X98000Y322664D01*
Y320665D01*
X106001Y308669D02*
X109999D01*
Y311335D01*
X106001Y315334D02*
Y312668D01*
X109999D01*
Y315334D01*
X108000Y312668D02*
Y314001D01*
X106001Y316667D02*
X109999D01*
Y318666D01*
X109333Y319332D01*
X106667D01*
X106001Y318666D01*
Y316667D01*
Y323331D02*
Y320665D01*
X108000D01*
X107334Y321998D01*
Y322664D01*
X108000Y323331D01*
X109333D01*
X109999Y322664D01*
Y321332D01*
X109333Y320665D01*
X116001Y308669D02*
X119999D01*
Y311335D01*
X116001Y315334D02*
Y312668D01*
X119999D01*
Y315334D01*
X118000Y312668D02*
Y314001D01*
X116001Y316667D02*
X119999D01*
Y318666D01*
X119333Y319332D01*
X116667D01*
X116001Y318666D01*
Y316667D01*
X119999Y322664D02*
X116001D01*
X118000Y320665D01*
Y323331D01*
X126001Y308669D02*
X129999D01*
Y311335D01*
X126001Y315334D02*
Y312668D01*
X129999D01*
Y315334D01*
X128000Y312668D02*
Y314001D01*
X126001Y316667D02*
X129999D01*
Y318666D01*
X129333Y319332D01*
X126667D01*
X126001Y318666D01*
Y316667D01*
X126667Y320665D02*
X126001Y321332D01*
Y322664D01*
X126667Y323331D01*
X127333D01*
X128000Y322664D01*
Y321998D01*
Y322664D01*
X128666Y323331D01*
X129333D01*
X129999Y322664D01*
Y321332D01*
X129333Y320665D01*
X136001Y308669D02*
X139999D01*
Y311335D01*
X136001Y315334D02*
Y312668D01*
X139999D01*
Y315334D01*
X138000Y312668D02*
Y314001D01*
X136001Y316667D02*
X139999D01*
Y318666D01*
X139333Y319332D01*
X136667D01*
X136001Y318666D01*
Y316667D01*
X139999Y323331D02*
Y320665D01*
X137334Y323331D01*
X136667D01*
X136001Y322664D01*
Y321332D01*
X136667Y320665D01*
X146001Y309335D02*
X149999D01*
Y312001D01*
X146001Y316000D02*
Y313334D01*
X149999D01*
Y316000D01*
X148000Y313334D02*
Y314667D01*
X146001Y317333D02*
X149999D01*
Y319332D01*
X149333Y319999D01*
X146667D01*
X146001Y319332D01*
Y317333D01*
X149999Y321332D02*
Y322664D01*
Y321998D01*
X146001D01*
X146667Y321332D01*
X97668Y89999D02*
X99001D01*
X98334D01*
Y86001D01*
X97668D01*
X99001D01*
X103666Y89333D02*
X103000Y89999D01*
X101667D01*
X101000Y89333D01*
Y86667D01*
X101667Y86001D01*
X103000D01*
X103666Y86667D01*
X104999Y86001D02*
X106332D01*
X105666D01*
Y89999D01*
X104999Y89333D01*
X159668Y151999D02*
Y148001D01*
Y150000D01*
X162334D01*
Y151999D01*
Y148001D01*
X165666D02*
Y151999D01*
X163666Y150000D01*
X166332D01*
X9116Y218448D02*
Y214450D01*
Y216449D01*
X11782D01*
Y218448D01*
Y214450D01*
X13115Y217782D02*
X13781Y218448D01*
X15114D01*
X15781Y217782D01*
Y217115D01*
X15114Y216449D01*
X14448D01*
X15114D01*
X15781Y215783D01*
Y215116D01*
X15114Y214450D01*
X13781D01*
X13115Y215116D01*
X536668Y186999D02*
Y183001D01*
Y185000D01*
X539334D01*
Y186999D01*
Y183001D01*
X543332D02*
X540666D01*
X543332Y185667D01*
Y186333D01*
X542666Y186999D01*
X541333D01*
X540666Y186333D01*
X536334Y308999D02*
Y305001D01*
Y307000D01*
X539000D01*
Y308999D01*
Y305001D01*
X540333D02*
X541666D01*
X540999D01*
Y308999D01*
X540333Y308333D01*
X451749Y66748D02*
Y62750D01*
X453749D01*
X454415Y63416D01*
Y64083D01*
X453749Y64749D01*
X451749D01*
X453749D01*
X454415Y65416D01*
Y66082D01*
X453749Y66748D01*
X451749D01*
X455748Y62750D02*
X457081D01*
X456414D01*
Y66748D01*
X455748Y66082D01*
X459080D02*
X459747Y66748D01*
X461080D01*
X461746Y66082D01*
Y63416D01*
X461080Y62750D01*
X459747D01*
X459080Y63416D01*
Y66082D01*
X304908Y198999D02*
Y195001D01*
X306907D01*
X307574Y195667D01*
Y196334D01*
X306907Y197000D01*
X304908D01*
X306907D01*
X307574Y197667D01*
Y198333D01*
X306907Y198999D01*
X304908D01*
X308907Y195667D02*
X309573Y195001D01*
X310906D01*
X311572Y195667D01*
Y198333D01*
X310906Y198999D01*
X309573D01*
X308907Y198333D01*
Y197667D01*
X309573Y197000D01*
X311572D01*
X224908Y198999D02*
Y195001D01*
X226907D01*
X227574Y195667D01*
Y196334D01*
X226907Y197000D01*
X224908D01*
X226907D01*
X227574Y197667D01*
Y198333D01*
X226907Y198999D01*
X224908D01*
X228907Y198333D02*
X229573Y198999D01*
X230906D01*
X231572Y198333D01*
Y197667D01*
X230906Y197000D01*
X231572Y196334D01*
Y195667D01*
X230906Y195001D01*
X229573D01*
X228907Y195667D01*
Y196334D01*
X229573Y197000D01*
X228907Y197667D01*
Y198333D01*
X229573Y197000D02*
X230906D01*
X311668Y138999D02*
Y135001D01*
X313667D01*
X314334Y135667D01*
Y136334D01*
X313667Y137000D01*
X311668D01*
X313667D01*
X314334Y137666D01*
Y138333D01*
X313667Y138999D01*
X311668D01*
X315667D02*
X318332D01*
Y138333D01*
X315667Y135667D01*
Y135001D01*
X304908Y232999D02*
Y229001D01*
X306907D01*
X307574Y229667D01*
Y230334D01*
X306907Y231000D01*
X304908D01*
X306907D01*
X307574Y231666D01*
Y232333D01*
X306907Y232999D01*
X304908D01*
X311572D02*
X310240Y232333D01*
X308907Y231000D01*
Y229667D01*
X309573Y229001D01*
X310906D01*
X311572Y229667D01*
Y230334D01*
X310906Y231000D01*
X308907D01*
X224908Y231999D02*
Y228001D01*
X226907D01*
X227574Y228667D01*
Y229334D01*
X226907Y230000D01*
X224908D01*
X226907D01*
X227574Y230666D01*
Y231333D01*
X226907Y231999D01*
X224908D01*
X231572D02*
X228907D01*
Y230000D01*
X230240Y230666D01*
X230906D01*
X231572Y230000D01*
Y228667D01*
X230906Y228001D01*
X229573D01*
X228907Y228667D01*
X304908Y265999D02*
Y262001D01*
X306907D01*
X307574Y262667D01*
Y263334D01*
X306907Y264000D01*
X304908D01*
X306907D01*
X307574Y264666D01*
Y265333D01*
X306907Y265999D01*
X304908D01*
X310906Y262001D02*
Y265999D01*
X308907Y264000D01*
X311572D01*
X224908Y264999D02*
Y261001D01*
X226907D01*
X227574Y261667D01*
Y262334D01*
X226907Y263000D01*
X224908D01*
X226907D01*
X227574Y263666D01*
Y264333D01*
X226907Y264999D01*
X224908D01*
X228907Y264333D02*
X229573Y264999D01*
X230906D01*
X231572Y264333D01*
Y263666D01*
X230906Y263000D01*
X230240D01*
X230906D01*
X231572Y262334D01*
Y261667D01*
X230906Y261001D01*
X229573D01*
X228907Y261667D01*
X304908Y297999D02*
Y294001D01*
X306907D01*
X307574Y294667D01*
Y295334D01*
X306907Y296000D01*
X304908D01*
X306907D01*
X307574Y296666D01*
Y297333D01*
X306907Y297999D01*
X304908D01*
X311572Y294001D02*
X308907D01*
X311572Y296666D01*
Y297333D01*
X310906Y297999D01*
X309573D01*
X308907Y297333D01*
X225574Y297999D02*
Y294001D01*
X227574D01*
X228240Y294667D01*
Y295334D01*
X227574Y296000D01*
X225574D01*
X227574D01*
X228240Y296666D01*
Y297333D01*
X227574Y297999D01*
X225574D01*
X229573Y294001D02*
X230906D01*
X230240D01*
Y297999D01*
X229573Y297333D01*
D12*
X236701Y131988D02*
X249299D01*
Y93012D02*
Y131988D01*
X236701Y93012D02*
X249299D01*
X236701D02*
Y131988D01*
X229319Y132658D02*
X235323D01*
X229319Y84158D02*
X235323D01*
X236701Y44512D02*
Y83488D01*
Y44512D02*
X249299D01*
Y83488D01*
X236701D02*
X249299D01*
X319701Y131988D02*
X332299D01*
Y93012D02*
Y131988D01*
X319701Y93012D02*
X332299D01*
X319701D02*
Y131988D01*
X312319Y132658D02*
X318323D01*
X456701Y57488D02*
X469299D01*
Y18512D02*
Y57488D01*
X456701Y18512D02*
X469299D01*
X456701D02*
Y57488D01*
X449319Y58157D02*
X455323D01*
X227945Y224984D02*
X228535D01*
Y217016D02*
Y224984D01*
X227945Y217016D02*
X228535D01*
X227945D02*
Y224984D01*
X222433Y225724D02*
X226567D01*
X227945Y257984D02*
X228535D01*
Y250016D02*
Y257984D01*
X227945Y250016D02*
X228535D01*
X227945D02*
Y257984D01*
X222433Y258724D02*
X226567D01*
X33945Y272173D02*
X52055D01*
Y243827D02*
Y272173D01*
X33945Y243827D02*
X52055D01*
X33945D02*
Y272173D01*
X25480Y271779D02*
X32567D01*
X349150Y68961D02*
X363717D01*
Y49276D02*
Y68961D01*
X349150Y49276D02*
X363717D01*
X349150D02*
Y68961D01*
X341965Y69059D02*
X347772D01*
X130717Y280842D02*
X145283D01*
Y261157D02*
Y280842D01*
X130717Y261157D02*
X145283D01*
X130717D02*
Y280842D01*
X123531Y280941D02*
X129339D01*
X128717Y241843D02*
X143283D01*
Y222158D02*
Y241843D01*
X128717Y222158D02*
X143283D01*
X128717D02*
Y241843D01*
X121531Y241941D02*
X127339D01*
X185000Y125833D02*
Y145000D01*
Y115000D02*
Y145000D01*
X165000Y115000D02*
Y145000D01*
Y115000D02*
X185000D01*
X165000Y145000D02*
X185000D01*
X111598Y51598D02*
Y76402D01*
Y51598D02*
X136402D01*
Y76402D01*
X111598D02*
X136402D01*
X302933Y291724D02*
X307067D01*
X308445Y283016D02*
Y290984D01*
Y283016D02*
X309035D01*
Y290984D01*
X308445D02*
X309035D01*
X222433Y291724D02*
X226567D01*
X227945Y283016D02*
Y290984D01*
Y283016D02*
X228535D01*
Y290984D01*
X227945D02*
X228535D01*
X535000Y215000D02*
X555000D01*
X535000Y295000D02*
X555000D01*
X535000Y215000D02*
Y295000D01*
X555000Y215000D02*
Y295000D01*
X302933Y258724D02*
X307067D01*
X308445Y250016D02*
Y257984D01*
Y250016D02*
X309035D01*
Y257984D01*
X308445D02*
X309035D01*
X535000Y95000D02*
X555000D01*
X535000Y175000D02*
X555000D01*
X535000Y95000D02*
Y175000D01*
X555000Y95000D02*
Y175000D01*
X302933Y225724D02*
X307067D01*
X308445Y217016D02*
Y224984D01*
Y217016D02*
X309035D01*
Y224984D01*
X308445D02*
X309035D01*
X302933Y192724D02*
X307067D01*
X308445Y184016D02*
Y191984D01*
Y184016D02*
X309035D01*
Y191984D01*
X308445D02*
X309035D01*
X222433Y192724D02*
X226567D01*
X227945Y184016D02*
Y191984D01*
Y184016D02*
X228535D01*
Y191984D01*
X227945D02*
X228535D01*
D13*
X274300Y58500D02*
X278400D01*
Y53500D02*
Y58500D01*
X274300Y53500D02*
X278400D01*
X267600D02*
X271800D01*
X267600D02*
Y58500D01*
X271700D01*
X302300Y130500D02*
X306400D01*
Y135500D01*
X302200D02*
X306400D01*
X295600D02*
X299700D01*
X295600Y130500D02*
Y135500D01*
Y130500D02*
X299700D01*
X349600Y135500D02*
X353700D01*
X349600Y130500D02*
Y135500D01*
Y130500D02*
X353800D01*
X356300D02*
X360400D01*
Y135500D01*
X356300D02*
X360400D01*
X349600Y90500D02*
X353700D01*
X349600Y85500D02*
Y90500D01*
Y85500D02*
X353800D01*
X356300D02*
X360400D01*
Y90500D01*
X356300D02*
X360400D01*
X302300Y85500D02*
X306400D01*
Y90500D01*
X302200D02*
X306400D01*
X295600D02*
X299700D01*
X295600Y85500D02*
Y90500D01*
Y85500D02*
X299700D01*
X433300Y53500D02*
X437400D01*
Y58500D01*
X433200D02*
X437400D01*
X426600D02*
X430700D01*
X426600Y53500D02*
Y58500D01*
Y53500D02*
X430700D01*
X486600Y22500D02*
X490700D01*
X486600Y17500D02*
Y22500D01*
Y17500D02*
X490800D01*
X493300D02*
X497400D01*
Y22500D01*
X493300D02*
X497400D01*
X486600Y53500D02*
X490700D01*
X486600Y48500D02*
Y53500D01*
Y48500D02*
X490800D01*
X493300D02*
X497400D01*
Y53500D01*
X493300D02*
X497400D01*
X433300Y22500D02*
X437400D01*
Y27500D01*
X433200D02*
X437400D01*
X426600D02*
X430700D01*
X426600Y22500D02*
Y27500D01*
Y22500D02*
X430700D01*
X105600Y255500D02*
X109700D01*
X105600D02*
Y260500D01*
X109700D01*
X112200D02*
X116400D01*
Y255500D02*
Y260500D01*
X112300Y255500D02*
X116400D01*
X290040Y280500D02*
X294140D01*
Y275500D02*
Y280500D01*
X290040Y275500D02*
X294140D01*
X283340D02*
X287540D01*
X283340D02*
Y280500D01*
X287440D01*
X209540Y181500D02*
X213640D01*
Y176500D02*
Y181500D01*
X209540Y176500D02*
X213640D01*
X202840D02*
X207040D01*
X202840D02*
Y181500D01*
X206940D01*
X209540Y199500D02*
X213640D01*
Y194500D02*
Y199500D01*
X209540Y194500D02*
X213640D01*
X202840D02*
X207040D01*
X202840D02*
Y199500D01*
X206940D01*
X209540Y213500D02*
X213640D01*
Y208500D02*
Y213500D01*
X209540Y208500D02*
X213640D01*
X202840D02*
X207040D01*
X202840D02*
Y213500D01*
X206940D01*
X209540Y231500D02*
X213640D01*
Y226500D02*
Y231500D01*
X209540Y226500D02*
X213640D01*
X202840D02*
X207040D01*
X202840D02*
Y231500D01*
X206940D01*
X209540Y247500D02*
X213640D01*
Y242500D02*
Y247500D01*
X209540Y242500D02*
X213640D01*
X202840D02*
X207040D01*
X202840D02*
Y247500D01*
X206940D01*
X209540Y265500D02*
X213640D01*
Y260500D02*
Y265500D01*
X209540Y260500D02*
X213640D01*
X202840D02*
X207040D01*
X202840D02*
Y265500D01*
X206940D01*
X209540Y298500D02*
X213640D01*
Y293500D02*
Y298500D01*
X209540Y293500D02*
X213640D01*
X202840D02*
X207040D01*
X202840D02*
Y298500D01*
X206940D01*
X320600Y71500D02*
X324700D01*
X320600Y66500D02*
Y71500D01*
Y66500D02*
X324800D01*
X327300D02*
X331400D01*
Y71500D01*
X327300D02*
X331400D01*
X469500Y95600D02*
Y99700D01*
Y95600D02*
X474500D01*
Y99800D01*
Y102300D02*
Y106400D01*
X469500D02*
X474500D01*
X469500Y102300D02*
Y106400D01*
X320600Y61500D02*
X324700D01*
X320600Y56500D02*
Y61500D01*
Y56500D02*
X324800D01*
X327300D02*
X331400D01*
Y61500D01*
X327300D02*
X331400D01*
X457500Y95600D02*
Y99700D01*
Y95600D02*
X462500D01*
Y99800D01*
Y102300D02*
Y106400D01*
X457500D02*
X462500D01*
X457500Y102300D02*
Y106400D01*
X320450Y51500D02*
X324550D01*
X320450Y46500D02*
Y51500D01*
Y46500D02*
X324650D01*
X327150D02*
X331250D01*
Y51500D01*
X327150D02*
X331250D01*
X444500Y95450D02*
Y99550D01*
Y95450D02*
X449500D01*
Y99650D01*
Y102150D02*
Y106250D01*
X444500D02*
X449500D01*
X444500Y102150D02*
Y106250D01*
X392300Y46500D02*
X396400D01*
Y51500D01*
X392200D02*
X396400D01*
X385600D02*
X389700D01*
X385600Y46500D02*
Y51500D01*
Y46500D02*
X389700D01*
X431500Y95600D02*
Y99700D01*
Y95600D02*
X436500D01*
Y99800D01*
Y102300D02*
Y106400D01*
X431500D02*
X436500D01*
X431500Y102300D02*
Y106400D01*
X392300Y56500D02*
X396400D01*
Y61500D01*
X392200D02*
X396400D01*
X385600D02*
X389700D01*
X385600Y56500D02*
Y61500D01*
Y56500D02*
X389700D01*
X419500Y95600D02*
Y99700D01*
Y95600D02*
X424500D01*
Y99800D01*
Y102300D02*
Y106400D01*
X419500D02*
X424500D01*
X419500Y102300D02*
Y106400D01*
X392300Y66500D02*
X396400D01*
Y71500D01*
X392200D02*
X396400D01*
X385600D02*
X389700D01*
X385600Y66500D02*
Y71500D01*
Y66500D02*
X389700D01*
X407500Y95600D02*
Y99700D01*
Y95600D02*
X412500D01*
Y99800D01*
Y102300D02*
Y106400D01*
X407500D02*
X412500D01*
X407500Y102300D02*
Y106400D01*
X469500Y219600D02*
Y223700D01*
Y219600D02*
X474500D01*
Y223800D01*
Y226300D02*
Y230400D01*
X469500D02*
X474500D01*
X469500Y226300D02*
Y230400D01*
X457500Y219600D02*
Y223700D01*
Y219600D02*
X462500D01*
Y223800D01*
Y226300D02*
Y230400D01*
X457500D02*
X462500D01*
X457500Y226300D02*
Y230400D01*
X444500Y219600D02*
Y223700D01*
Y219600D02*
X449500D01*
Y223800D01*
Y226300D02*
Y230400D01*
X444500D02*
X449500D01*
X444500Y226300D02*
Y230400D01*
X431500Y219600D02*
Y223700D01*
Y219600D02*
X436500D01*
Y223800D01*
Y226300D02*
Y230400D01*
X431500D02*
X436500D01*
X431500Y226300D02*
Y230400D01*
X419500Y219600D02*
Y223700D01*
Y219600D02*
X424500D01*
Y223800D01*
Y226300D02*
Y230400D01*
X419500D02*
X424500D01*
X419500Y226300D02*
Y230400D01*
X406500Y219600D02*
Y223700D01*
Y219600D02*
X411500D01*
Y223800D01*
Y226300D02*
Y230400D01*
X406500D02*
X411500D01*
X406500Y226300D02*
Y230400D01*
X393500Y219600D02*
Y223700D01*
Y219600D02*
X398500D01*
Y223800D01*
Y226300D02*
Y230400D01*
X393500D02*
X398500D01*
X393500Y226300D02*
Y230400D01*
X379500Y219600D02*
Y223700D01*
Y219600D02*
X384500D01*
Y223800D01*
Y226300D02*
Y230400D01*
X379500D02*
X384500D01*
X379500Y226300D02*
Y230400D01*
X105600Y290500D02*
X109700D01*
X105600Y285500D02*
Y290500D01*
Y285500D02*
X109800D01*
X112300D02*
X116400D01*
Y290500D01*
X112300D02*
X116400D01*
X112300Y279500D02*
X116400D01*
Y284500D01*
X112200D02*
X116400D01*
X105600D02*
X109700D01*
X105600Y279500D02*
Y284500D01*
Y279500D02*
X109700D01*
X105600Y278500D02*
X109700D01*
X105600Y273500D02*
Y278500D01*
Y273500D02*
X109800D01*
X112300D02*
X116400D01*
Y278500D01*
X112300D02*
X116400D01*
X112300Y267500D02*
X116400D01*
Y272500D01*
X112200D02*
X116400D01*
X105600D02*
X109700D01*
X105600Y267500D02*
Y272500D01*
Y267500D02*
X109700D01*
X94600Y243500D02*
X98700D01*
X94600Y238500D02*
Y243500D01*
Y238500D02*
X98800D01*
X101300D02*
X105400D01*
Y243500D01*
X101300D02*
X105400D01*
X101300Y232500D02*
X105400D01*
Y237500D01*
X101200D02*
X105400D01*
X94600D02*
X98700D01*
X94600Y232500D02*
Y237500D01*
Y232500D02*
X98700D01*
X105600Y266500D02*
X109700D01*
X105600Y261500D02*
Y266500D01*
Y261500D02*
X109800D01*
X112300D02*
X116400D01*
Y266500D01*
X112300D02*
X116400D01*
X94600Y231500D02*
X98700D01*
X94600Y226500D02*
Y231500D01*
Y226500D02*
X98800D01*
X101300D02*
X105400D01*
Y231500D01*
X101300D02*
X105400D01*
X101300Y220500D02*
X105400D01*
Y225500D01*
X101200D02*
X105400D01*
X94600D02*
X98700D01*
X94600Y220500D02*
Y225500D01*
Y220500D02*
X98700D01*
X166300Y259500D02*
X170400D01*
Y264500D01*
X166200D02*
X170400D01*
X159600D02*
X163700D01*
X159600Y259500D02*
Y264500D01*
Y259500D02*
X163700D01*
X159600Y258500D02*
X163700D01*
X159600Y253500D02*
Y258500D01*
Y253500D02*
X163800D01*
X166300D02*
X170400D01*
Y258500D01*
X166300D02*
X170400D01*
X166300Y271500D02*
X170400D01*
Y276500D01*
X166200D02*
X170400D01*
X159600D02*
X163700D01*
X159600Y271500D02*
Y276500D01*
Y271500D02*
X163700D01*
X159600Y270500D02*
X163700D01*
X159600Y265500D02*
Y270500D01*
Y265500D02*
X163800D01*
X166300D02*
X170400D01*
Y270500D01*
X166300D02*
X170400D01*
X166300Y283500D02*
X170400D01*
Y288500D01*
X166200D02*
X170400D01*
X159600D02*
X163700D01*
X159600Y283500D02*
Y288500D01*
Y283500D02*
X163700D01*
X159600Y282500D02*
X163700D01*
X159600Y277500D02*
Y282500D01*
Y277500D02*
X163800D01*
X166300D02*
X170400D01*
Y282500D01*
X166300D02*
X170400D01*
X142500Y140300D02*
Y144400D01*
X137500D02*
X142500D01*
X137500Y140200D02*
Y144400D01*
Y133600D02*
Y137700D01*
Y133600D02*
X142500D01*
Y137700D01*
X54600Y192500D02*
X58700D01*
X54600Y187500D02*
Y192500D01*
Y187500D02*
X58800D01*
X61300D02*
X65400D01*
Y192500D01*
X61300D02*
X65400D01*
X156500Y140300D02*
Y144400D01*
X151500D02*
X156500D01*
X151500Y140200D02*
Y144400D01*
Y133600D02*
Y137700D01*
Y133600D02*
X156500D01*
Y137700D01*
X144500Y133600D02*
Y137700D01*
Y133600D02*
X149500D01*
Y137800D01*
Y140300D02*
Y144400D01*
X144500D02*
X149500D01*
X144500Y140300D02*
Y144400D01*
X54600Y182500D02*
X58700D01*
X54600Y177500D02*
Y182500D01*
Y177500D02*
X58800D01*
X61300D02*
X65400D01*
Y182500D01*
X61300D02*
X65400D01*
X130500Y133600D02*
Y137700D01*
Y133600D02*
X135500D01*
Y137800D01*
Y140300D02*
Y144400D01*
X130500D02*
X135500D01*
X130500Y140300D02*
Y144400D01*
X91300Y162500D02*
X95400D01*
Y167500D01*
X91200D02*
X95400D01*
X84600D02*
X88700D01*
X84600Y162500D02*
Y167500D01*
Y162500D02*
X88700D01*
X54600Y172500D02*
X58700D01*
X54600Y167500D02*
Y172500D01*
Y167500D02*
X58800D01*
X61300D02*
X65400D01*
Y172500D01*
X61300D02*
X65400D01*
X91300Y152500D02*
X95400D01*
Y157500D01*
X91200D02*
X95400D01*
X84600D02*
X88700D01*
X84600Y152500D02*
Y157500D01*
Y152500D02*
X88700D01*
X54600Y162500D02*
X58700D01*
X54600Y157500D02*
Y162500D01*
Y157500D02*
X58800D01*
X61300D02*
X65400D01*
Y162500D01*
X61300D02*
X65400D01*
X91300Y142500D02*
X95400D01*
Y147500D01*
X91200D02*
X95400D01*
X84600D02*
X88700D01*
X84600Y142500D02*
Y147500D01*
Y142500D02*
X88700D01*
X54600Y152500D02*
X58700D01*
X54600Y147500D02*
Y152500D01*
Y147500D02*
X58800D01*
X61300D02*
X65400D01*
Y152500D01*
X61300D02*
X65400D01*
X91300Y132500D02*
X95400D01*
Y137500D01*
X91200D02*
X95400D01*
X84600D02*
X88700D01*
X84600Y132500D02*
Y137500D01*
Y132500D02*
X88700D01*
X54600Y142500D02*
X58700D01*
X54600Y137500D02*
Y142500D01*
Y137500D02*
X58800D01*
X61300D02*
X65400D01*
Y142500D01*
X61300D02*
X65400D01*
X54600Y132500D02*
X58700D01*
X54600Y127500D02*
Y132500D01*
Y127500D02*
X58800D01*
X61300D02*
X65400D01*
Y132500D01*
X61300D02*
X65400D01*
X132500Y106450D02*
Y110550D01*
X127500D02*
X132500D01*
X127500Y106350D02*
Y110550D01*
Y99750D02*
Y103850D01*
Y99750D02*
X132500D01*
Y103850D01*
X112500Y99600D02*
Y103700D01*
Y99600D02*
X117500D01*
Y103800D01*
Y106300D02*
Y110400D01*
X112500D02*
X117500D01*
X112500Y106300D02*
Y110400D01*
X54600Y122500D02*
X58700D01*
X54600Y117500D02*
Y122500D01*
Y117500D02*
X58800D01*
X61300D02*
X65400D01*
Y122500D01*
X61300D02*
X65400D01*
X138500Y106300D02*
Y110400D01*
X133500D02*
X138500D01*
X133500Y106200D02*
Y110400D01*
Y99600D02*
Y103700D01*
Y99600D02*
X138500D01*
Y103700D01*
X106500Y99600D02*
Y103700D01*
Y99600D02*
X111500D01*
Y103800D01*
Y106300D02*
Y110400D01*
X106500D02*
X111500D01*
X106500Y106300D02*
Y110400D01*
X144500Y106300D02*
Y110400D01*
X139500D02*
X144500D01*
X139500Y106200D02*
Y110400D01*
Y99600D02*
Y103700D01*
Y99600D02*
X144500D01*
Y103700D01*
X100500Y99600D02*
Y103700D01*
Y99600D02*
X105500D01*
Y103800D01*
Y106300D02*
Y110400D01*
X100500D02*
X105500D01*
X100500Y106300D02*
Y110400D01*
X166300Y91500D02*
X170400D01*
Y96500D01*
X166200D02*
X170400D01*
X159600D02*
X163700D01*
X159600Y91500D02*
Y96500D01*
Y91500D02*
X163700D01*
X81300Y84500D02*
X85400D01*
Y89500D01*
X81200D02*
X85400D01*
X74600D02*
X78700D01*
X74600Y84500D02*
Y89500D01*
Y84500D02*
X78700D01*
X166300Y85500D02*
X170400D01*
Y90500D01*
X166200D02*
X170400D01*
X159600D02*
X163700D01*
X159600Y85500D02*
Y90500D01*
Y85500D02*
X163700D01*
X81300Y78500D02*
X85400D01*
Y83500D01*
X81200D02*
X85400D01*
X74600D02*
X78700D01*
X74600Y78500D02*
Y83500D01*
Y78500D02*
X78700D01*
X166300Y79500D02*
X170400D01*
Y84500D01*
X166200D02*
X170400D01*
X159600D02*
X163700D01*
X159600Y79500D02*
Y84500D01*
Y79500D02*
X163700D01*
X81300Y72500D02*
X85400D01*
Y77500D01*
X81200D02*
X85400D01*
X74600D02*
X78700D01*
X74600Y72500D02*
Y77500D01*
Y72500D02*
X78700D01*
X166300Y73500D02*
X170400D01*
Y78500D01*
X166200D02*
X170400D01*
X159600D02*
X163700D01*
X159600Y73500D02*
Y78500D01*
Y73500D02*
X163700D01*
X81300Y66500D02*
X85400D01*
Y71500D01*
X81200D02*
X85400D01*
X74600D02*
X78700D01*
X74600Y66500D02*
Y71500D01*
Y66500D02*
X78700D01*
X166300Y67500D02*
X170400D01*
Y72500D01*
X166200D02*
X170400D01*
X159600D02*
X163700D01*
X159600Y67500D02*
Y72500D01*
Y67500D02*
X163700D01*
X81300Y60500D02*
X85400D01*
Y65500D01*
X81200D02*
X85400D01*
X74600D02*
X78700D01*
X74600Y60500D02*
Y65500D01*
Y60500D02*
X78700D01*
X166300Y49500D02*
X170400D01*
Y54500D01*
X166200D02*
X170400D01*
X159600D02*
X163700D01*
X159600Y49500D02*
Y54500D01*
Y49500D02*
X163700D01*
X141500Y23600D02*
Y27700D01*
Y23600D02*
X146500D01*
Y27800D01*
Y30300D02*
Y34400D01*
X141500D02*
X146500D01*
X141500Y30300D02*
Y34400D01*
X81300Y54500D02*
X85400D01*
Y59500D01*
X81200D02*
X85400D01*
X74600D02*
X78700D01*
X74600Y54500D02*
Y59500D01*
Y54500D02*
X78700D01*
X135500Y23400D02*
Y27500D01*
Y23400D02*
X140500D01*
Y27600D01*
Y30100D02*
Y34200D01*
X135500D02*
X140500D01*
X135500Y30100D02*
Y34200D01*
X81300Y48500D02*
X85400D01*
Y53500D01*
X81200D02*
X85400D01*
X74600D02*
X78700D01*
X74600Y48500D02*
Y53500D01*
Y48500D02*
X78700D01*
X129500Y23400D02*
Y27500D01*
Y23400D02*
X134500D01*
Y27600D01*
Y30100D02*
Y34200D01*
X129500D02*
X134500D01*
X129500Y30100D02*
Y34200D01*
X81300Y42500D02*
X85400D01*
Y47500D01*
X81200D02*
X85400D01*
X74600D02*
X78700D01*
X74600Y42500D02*
Y47500D01*
Y42500D02*
X78700D01*
X123500Y23400D02*
Y27500D01*
Y23400D02*
X128500D01*
Y27600D01*
Y30100D02*
Y34200D01*
X123500D02*
X128500D01*
X123500Y30100D02*
Y34200D01*
X110500Y30100D02*
Y34200D01*
X105500D02*
X110500D01*
X105500Y30000D02*
Y34200D01*
Y23400D02*
Y27500D01*
Y23400D02*
X110500D01*
Y27500D01*
X117500Y23400D02*
Y27500D01*
Y23400D02*
X122500D01*
Y27600D01*
Y30100D02*
Y34200D01*
X117500D02*
X122500D01*
X117500Y30100D02*
Y34200D01*
X111500Y23400D02*
Y27500D01*
Y23400D02*
X116500D01*
Y27600D01*
Y30100D02*
Y34200D01*
X111500D02*
X116500D01*
X111500Y30100D02*
Y34200D01*
X267600Y111500D02*
X271700D01*
X267600Y106500D02*
Y111500D01*
Y106500D02*
X271800D01*
X274300D02*
X278400D01*
Y111500D01*
X274300D02*
X278400D01*
X267600Y64500D02*
X271700D01*
X267600Y59500D02*
Y64500D01*
Y59500D02*
X271800D01*
X274300D02*
X278400D01*
Y64500D01*
X274300D02*
X278400D01*
X267600Y117500D02*
X271700D01*
X267600Y112500D02*
Y117500D01*
Y112500D02*
X271800D01*
X274300D02*
X278400D01*
Y117500D01*
X274300D02*
X278400D01*
X267600Y76500D02*
X271700D01*
X267600Y71500D02*
Y76500D01*
Y71500D02*
X271800D01*
X274300D02*
X278400D01*
Y76500D01*
X274300D02*
X278400D01*
X267600Y129500D02*
X271700D01*
X267600Y124500D02*
Y129500D01*
Y124500D02*
X271800D01*
X274300D02*
X278400D01*
Y129500D01*
X274300D02*
X278400D01*
X267600Y70500D02*
X271700D01*
X267600Y65500D02*
Y70500D01*
Y65500D02*
X271800D01*
X274300D02*
X278400D01*
Y70500D01*
X274300D02*
X278400D01*
X267600Y123500D02*
X271700D01*
X267600Y118500D02*
Y123500D01*
Y118500D02*
X271800D01*
X274300D02*
X278400D01*
Y123500D01*
X274300D02*
X278400D01*
X267600Y52500D02*
X271700D01*
X267600Y47500D02*
Y52500D01*
Y47500D02*
X271800D01*
X274300D02*
X278400D01*
Y52500D01*
X274300D02*
X278400D01*
X267600Y105500D02*
X271700D01*
X267600Y100500D02*
Y105500D01*
Y100500D02*
X271800D01*
X274300D02*
X278400D01*
Y105500D01*
X274300D02*
X278400D01*
X274300Y40500D02*
X278400D01*
Y45500D01*
X274200D02*
X278400D01*
X267600D02*
X271700D01*
X267600Y40500D02*
Y45500D01*
Y40500D02*
X271700D01*
X274300Y94500D02*
X278400D01*
Y99500D01*
X274200D02*
X278400D01*
X267600D02*
X271700D01*
X267600Y94500D02*
Y99500D01*
Y94500D02*
X271700D01*
X202840Y280500D02*
X206940D01*
X202840Y275500D02*
Y280500D01*
Y275500D02*
X207040D01*
X209540D02*
X213640D01*
Y280500D01*
X209540D02*
X213640D01*
X283340Y298500D02*
X287440D01*
X283340Y293500D02*
Y298500D01*
Y293500D02*
X287540D01*
X290040D02*
X294140D01*
Y298500D01*
X290040D02*
X294140D01*
X323340Y280500D02*
X327440D01*
X323340Y275500D02*
Y280500D01*
Y275500D02*
X327540D01*
X330040D02*
X334140D01*
Y280500D01*
X330040D02*
X334140D01*
X242840D02*
X246940D01*
X242840Y275500D02*
Y280500D01*
Y275500D02*
X247040D01*
X249540D02*
X253640D01*
Y280500D01*
X249540D02*
X253640D01*
X330040Y293500D02*
X334140D01*
Y298500D01*
X329940D02*
X334140D01*
X323340D02*
X327440D01*
X323340Y293500D02*
Y298500D01*
Y293500D02*
X327440D01*
X249540D02*
X253640D01*
Y298500D01*
X249440D02*
X253640D01*
X242840D02*
X246940D01*
X242840Y293500D02*
Y298500D01*
Y293500D02*
X246940D01*
X283340Y247500D02*
X287440D01*
X283340Y242500D02*
Y247500D01*
Y242500D02*
X287540D01*
X290040D02*
X294140D01*
Y247500D01*
X290040D02*
X294140D01*
X283340Y265500D02*
X287440D01*
X283340Y260500D02*
Y265500D01*
Y260500D02*
X287540D01*
X290040D02*
X294140D01*
Y265500D01*
X290040D02*
X294140D01*
X323340Y247500D02*
X327440D01*
X323340Y242500D02*
Y247500D01*
Y242500D02*
X327540D01*
X330040D02*
X334140D01*
Y247500D01*
X330040D02*
X334140D01*
X242840D02*
X246940D01*
X242840Y242500D02*
Y247500D01*
Y242500D02*
X247040D01*
X249540D02*
X253640D01*
Y247500D01*
X249540D02*
X253640D01*
X330040Y260500D02*
X334140D01*
Y265500D01*
X329940D02*
X334140D01*
X323340D02*
X327440D01*
X323340Y260500D02*
Y265500D01*
Y260500D02*
X327440D01*
X249540D02*
X253640D01*
Y265500D01*
X249440D02*
X253640D01*
X242840D02*
X246940D01*
X242840Y260500D02*
Y265500D01*
Y260500D02*
X246940D01*
X526300Y167500D02*
X530400D01*
Y172500D01*
X526200D02*
X530400D01*
X519600D02*
X523700D01*
X519600Y167500D02*
Y172500D01*
Y167500D02*
X523700D01*
X526300Y157500D02*
X530400D01*
Y162500D01*
X526200D02*
X530400D01*
X519600D02*
X523700D01*
X519600Y157500D02*
Y162500D01*
Y157500D02*
X523700D01*
X526300Y147500D02*
X530400D01*
Y152500D01*
X526200D02*
X530400D01*
X519600D02*
X523700D01*
X519600Y147500D02*
Y152500D01*
Y147500D02*
X523700D01*
X526300Y137500D02*
X530400D01*
Y142500D01*
X526200D02*
X530400D01*
X519600D02*
X523700D01*
X519600Y137500D02*
Y142500D01*
Y137500D02*
X523700D01*
X526300Y127500D02*
X530400D01*
Y132500D01*
X526200D02*
X530400D01*
X519600D02*
X523700D01*
X519600Y127500D02*
Y132500D01*
Y127500D02*
X523700D01*
X526300Y117500D02*
X530400D01*
Y122500D01*
X526200D02*
X530400D01*
X519600D02*
X523700D01*
X519600Y117500D02*
Y122500D01*
Y117500D02*
X523700D01*
X526300Y107500D02*
X530400D01*
Y112500D01*
X526200D02*
X530400D01*
X519600D02*
X523700D01*
X519600Y107500D02*
Y112500D01*
Y107500D02*
X523700D01*
X526300Y97500D02*
X530400D01*
Y102500D01*
X526200D02*
X530400D01*
X519600D02*
X523700D01*
X519600Y97500D02*
Y102500D01*
Y97500D02*
X523700D01*
X283340Y213500D02*
X287440D01*
X283340Y208500D02*
Y213500D01*
Y208500D02*
X287540D01*
X290040D02*
X294140D01*
Y213500D01*
X290040D02*
X294140D01*
X283340Y231500D02*
X287440D01*
X283340Y226500D02*
Y231500D01*
Y226500D02*
X287540D01*
X290040D02*
X294140D01*
Y231500D01*
X290040D02*
X294140D01*
X323340Y213500D02*
X327440D01*
X323340Y208500D02*
Y213500D01*
Y208500D02*
X327540D01*
X330040D02*
X334140D01*
Y213500D01*
X330040D02*
X334140D01*
X242840D02*
X246940D01*
X242840Y208500D02*
Y213500D01*
Y208500D02*
X247040D01*
X249540D02*
X253640D01*
Y213500D01*
X249540D02*
X253640D01*
X330040Y226500D02*
X334140D01*
Y231500D01*
X329940D02*
X334140D01*
X323340D02*
X327440D01*
X323340Y226500D02*
Y231500D01*
Y226500D02*
X327440D01*
X249540D02*
X253640D01*
Y231500D01*
X249440D02*
X253640D01*
X242840D02*
X246940D01*
X242840Y226500D02*
Y231500D01*
Y226500D02*
X246940D01*
X283340Y181500D02*
X287440D01*
X283340Y176500D02*
Y181500D01*
Y176500D02*
X287540D01*
X290040D02*
X294140D01*
Y181500D01*
X290040D02*
X294140D01*
X283340Y199500D02*
X287440D01*
X283340Y194500D02*
Y199500D01*
Y194500D02*
X287540D01*
X290040D02*
X294140D01*
Y199500D01*
X290040D02*
X294140D01*
X323340Y181500D02*
X327440D01*
X323340Y176500D02*
Y181500D01*
Y176500D02*
X327540D01*
X330040D02*
X334140D01*
Y181500D01*
X330040D02*
X334140D01*
X242840D02*
X246940D01*
X242840Y176500D02*
Y181500D01*
Y176500D02*
X247040D01*
X249540D02*
X253640D01*
Y181500D01*
X249540D02*
X253640D01*
X330040Y194500D02*
X334140D01*
Y199500D01*
X329940D02*
X334140D01*
X323340D02*
X327440D01*
X323340Y194500D02*
Y199500D01*
Y194500D02*
X327440D01*
X249540D02*
X253640D01*
Y199500D01*
X249440D02*
X253640D01*
X242840D02*
X246940D01*
X242840Y194500D02*
Y199500D01*
Y194500D02*
X246940D01*
D14*
X180000Y108000D02*
X181666D01*
X180833D01*
Y112998D01*
X180000Y112165D01*
X171332Y108000D02*
X168000D01*
X171332Y111332D01*
Y112165D01*
X170499Y112998D01*
X168833D01*
X168000Y112165D01*
X182332Y151998D02*
X179000D01*
Y149499D01*
X180666Y150332D01*
X181499D01*
X182332Y149499D01*
Y147833D01*
X181499Y147000D01*
X179833D01*
X179000Y147833D01*
X171332Y151998D02*
X169666Y151165D01*
X168000Y149499D01*
Y147833D01*
X168833Y147000D01*
X170499D01*
X171332Y147833D01*
Y148666D01*
X170499Y149499D01*
X168000D01*
X551666Y297000D02*
X549000D01*
X551666Y299666D01*
Y300332D01*
X550999Y300999D01*
X549666D01*
X549000Y300332D01*
X538000Y297000D02*
X539333D01*
X538666D01*
Y300999D01*
X538000Y300332D01*
X537000Y209000D02*
X538333D01*
X537666D01*
Y212999D01*
X537000Y212332D01*
X542998Y212999D02*
X540332D01*
Y210999D01*
X541665Y211666D01*
X542332D01*
X542998Y210999D01*
Y209666D01*
X542332Y209000D01*
X540999D01*
X540332Y209666D01*
X548000Y209000D02*
X549333D01*
X548666D01*
Y212999D01*
X548000Y212332D01*
X553998Y212999D02*
X552665Y212332D01*
X551332Y210999D01*
Y209666D01*
X551999Y209000D01*
X553332D01*
X553998Y209666D01*
Y210333D01*
X553332Y210999D01*
X551332D01*
X551666Y177000D02*
X549000D01*
X551666Y179666D01*
Y180332D01*
X550999Y180999D01*
X549666D01*
X549000Y180332D01*
X539000Y177000D02*
X540333D01*
X539666D01*
Y180999D01*
X539000Y180332D01*
X537000Y89000D02*
X538333D01*
X537666D01*
Y92999D01*
X537000Y92332D01*
X542998Y92999D02*
X540332D01*
Y90999D01*
X541665Y91666D01*
X542332D01*
X542998Y90999D01*
Y89666D01*
X542332Y89000D01*
X540999D01*
X540332Y89666D01*
X547000Y89000D02*
X548333D01*
X547666D01*
Y92999D01*
X547000Y92332D01*
X552998Y92999D02*
X551665Y92332D01*
X550332Y90999D01*
Y89666D01*
X550999Y89000D01*
X552332D01*
X552998Y89666D01*
Y90333D01*
X552332Y90999D01*
X550332D01*
M02*
