G04*
G04 #@! TF.GenerationSoftware,Altium Limited,Altium Designer,22.3.1 (43)*
G04*
G04 Layer_Color=32896*
%FSLAX25Y25*%
%MOIN*%
G70*
G04*
G04 #@! TF.SameCoordinates,F71B8339-E566-44E3-B05A-047308818BE7*
G04*
G04*
G04 #@! TF.FilePolarity,Positive*
G04*
G01*
G75*
%ADD55C,0.00197*%
D55*
X228335Y133169D02*
X257665D01*
Y91831D02*
Y133169D01*
X228335Y91831D02*
X257665D01*
X228335D02*
Y133169D01*
X278709Y53047D02*
Y58953D01*
X267291D02*
X278709D01*
X267291Y53047D02*
Y58953D01*
Y53047D02*
X278709D01*
X228335Y43331D02*
Y84669D01*
Y43331D02*
X257665D01*
Y84669D01*
X228335D02*
X257665D01*
X311335Y133169D02*
X340665D01*
Y91831D02*
Y133169D01*
X311335Y91831D02*
X340665D01*
X311335D02*
Y133169D01*
X295291Y135953D02*
X306709D01*
Y130047D02*
Y135953D01*
X295291Y130047D02*
X306709D01*
X295291D02*
Y135953D01*
X349291Y130047D02*
X360709D01*
X349291D02*
Y135953D01*
X360709D01*
Y130047D02*
Y135953D01*
X349291Y85047D02*
X360709D01*
X349291D02*
Y90953D01*
X360709D01*
Y85047D02*
Y90953D01*
X295291D02*
X306709D01*
Y85047D02*
Y90953D01*
X295291Y85047D02*
X306709D01*
X295291D02*
Y90953D01*
X426291Y58953D02*
X437709D01*
Y53047D02*
Y58953D01*
X426291Y53047D02*
X437709D01*
X426291D02*
Y58953D01*
X486291Y17047D02*
X497709D01*
X486291D02*
Y22953D01*
X497709D01*
Y17047D02*
Y22953D01*
X486291Y48047D02*
X497709D01*
X486291D02*
Y53953D01*
X497709D01*
Y48047D02*
Y53953D01*
X426291Y27953D02*
X437709D01*
Y22047D02*
Y27953D01*
X426291Y22047D02*
X437709D01*
X426291D02*
Y27953D01*
X448335Y58669D02*
X477665D01*
Y17331D02*
Y58669D01*
X448335Y17331D02*
X477665D01*
X448335D02*
Y58669D01*
X105291Y255047D02*
Y260953D01*
Y255047D02*
X116709D01*
Y260953D01*
X105291D02*
X116709D01*
X517291Y217047D02*
Y222953D01*
X528709D01*
Y217047D02*
Y222953D01*
X517291Y217047D02*
X528709D01*
X517291Y237047D02*
Y242953D01*
X528709D01*
Y237047D02*
Y242953D01*
X517291Y237047D02*
X528709D01*
X517291Y257047D02*
Y262953D01*
X528709D01*
Y257047D02*
Y262953D01*
X517291Y257047D02*
X528709D01*
X517291Y267047D02*
Y272953D01*
X528709D01*
Y267047D02*
Y272953D01*
X517291Y267047D02*
X528709D01*
X517291Y277047D02*
Y282953D01*
X528709D01*
Y277047D02*
Y282953D01*
X517291Y277047D02*
X528709D01*
X517291Y287047D02*
Y292953D01*
X528709D01*
Y287047D02*
Y292953D01*
X517291Y287047D02*
X528709D01*
X517291Y227047D02*
Y232953D01*
X528709D01*
Y227047D02*
Y232953D01*
X517291Y227047D02*
X528709D01*
X517291Y247047D02*
Y252953D01*
X528709D01*
Y247047D02*
Y252953D01*
X517291Y247047D02*
X528709D01*
X294449Y275047D02*
Y280953D01*
X283032D02*
X294449D01*
X283032Y275047D02*
Y280953D01*
Y275047D02*
X294449D01*
X221449Y226217D02*
X235032D01*
Y215784D02*
Y226217D01*
X221449Y215784D02*
X235032D01*
X221449D02*
Y226217D01*
Y259216D02*
X235032D01*
Y248783D02*
Y259216D01*
X221449Y248783D02*
X235032D01*
X221449D02*
Y259216D01*
X213949Y176047D02*
Y181953D01*
X202532D02*
X213949D01*
X202532Y176047D02*
Y181953D01*
Y176047D02*
X213949D01*
Y194047D02*
Y199953D01*
X202532D02*
X213949D01*
X202532Y194047D02*
Y199953D01*
Y194047D02*
X213949D01*
Y208047D02*
Y213953D01*
X202532D02*
X213949D01*
X202532Y208047D02*
Y213953D01*
Y208047D02*
X213949D01*
Y226047D02*
Y231953D01*
X202532D02*
X213949D01*
X202532Y226047D02*
Y231953D01*
Y226047D02*
X213949D01*
Y242047D02*
Y247953D01*
X202532D02*
X213949D01*
X202532Y242047D02*
Y247953D01*
Y242047D02*
X213949D01*
Y260047D02*
Y265953D01*
X202532D02*
X213949D01*
X202532Y260047D02*
Y265953D01*
Y260047D02*
X213949D01*
Y293047D02*
Y298953D01*
X202532D02*
X213949D01*
X202532Y293047D02*
Y298953D01*
Y293047D02*
X213949D01*
X174047Y340709D02*
X179953D01*
Y329291D02*
Y340709D01*
X174047Y329291D02*
X179953D01*
X174047D02*
Y340709D01*
X158047D02*
X163953D01*
Y329291D02*
Y340709D01*
X158047Y329291D02*
X163953D01*
X158047D02*
Y340709D01*
X353047D02*
X358953D01*
Y329291D02*
Y340709D01*
X353047Y329291D02*
X358953D01*
X353047D02*
Y340709D01*
X266047D02*
X271953D01*
Y329291D02*
Y340709D01*
X266047Y329291D02*
X271953D01*
X266047D02*
Y340709D01*
X248047D02*
X253953D01*
Y329291D02*
Y340709D01*
X248047Y329291D02*
X253953D01*
X248047D02*
Y340709D01*
X307047D02*
X312953D01*
Y329291D02*
Y340709D01*
X307047Y329291D02*
X312953D01*
X307047D02*
Y340709D01*
X288047D02*
X293953D01*
Y329291D02*
Y340709D01*
X288047Y329291D02*
X293953D01*
X288047D02*
Y340709D01*
X320047D02*
X325953D01*
Y329291D02*
Y340709D01*
X320047Y329291D02*
X325953D01*
X320047D02*
Y340709D01*
X233047D02*
X238953D01*
Y329291D02*
Y340709D01*
X233047Y329291D02*
X238953D01*
X233047D02*
Y340709D01*
X190047D02*
X195953D01*
Y329291D02*
Y340709D01*
X190047Y329291D02*
X195953D01*
X190047D02*
Y340709D01*
X215047D02*
X220953D01*
Y329291D02*
Y340709D01*
X215047Y329291D02*
X220953D01*
X215047D02*
Y340709D01*
X202047D02*
X207953D01*
Y329291D02*
Y340709D01*
X202047Y329291D02*
X207953D01*
X202047D02*
Y340709D01*
X469047Y256791D02*
Y268209D01*
Y256791D02*
X474953D01*
Y268209D01*
X469047D02*
X474953D01*
X419047Y256791D02*
Y268209D01*
Y256791D02*
X424953D01*
Y268209D01*
X419047D02*
X424953D01*
X431047Y256791D02*
Y268209D01*
Y256791D02*
X436953D01*
Y268209D01*
X431047D02*
X436953D01*
X393047Y256791D02*
Y268209D01*
Y256791D02*
X398953D01*
Y268209D01*
X393047D02*
X398953D01*
X406047Y256791D02*
Y268209D01*
Y256791D02*
X411953D01*
Y268209D01*
X406047D02*
X411953D01*
X457047Y256791D02*
Y268209D01*
Y256791D02*
X462953D01*
Y268209D01*
X457047D02*
X462953D01*
X444047Y256791D02*
Y268209D01*
Y256791D02*
X449953D01*
Y268209D01*
X444047D02*
X449953D01*
X379047Y256791D02*
Y268209D01*
Y256791D02*
X384953D01*
Y268209D01*
X379047D02*
X384953D01*
X384047Y340709D02*
X389953D01*
Y329291D02*
Y340709D01*
X384047Y329291D02*
X389953D01*
X384047D02*
Y340709D01*
X401547D02*
X407453D01*
Y329291D02*
Y340709D01*
X401547Y329291D02*
X407453D01*
X401547D02*
Y340709D01*
X136709Y68047D02*
Y73953D01*
X125291Y68047D02*
X136709D01*
X125291D02*
Y73953D01*
X136709D01*
X136559Y61047D02*
Y66953D01*
X125142Y61047D02*
X136559D01*
X125142D02*
Y66953D01*
X136559D01*
X113291Y54047D02*
Y59953D01*
X124709D01*
Y54047D02*
Y59953D01*
X113291Y54047D02*
X124709D01*
X113291Y68047D02*
Y73953D01*
X124709D01*
Y68047D02*
Y73953D01*
X113291Y68047D02*
X124709D01*
X113291Y61047D02*
Y66953D01*
X124709D01*
Y61047D02*
Y66953D01*
X113291Y61047D02*
X124709D01*
X136709Y54047D02*
Y59953D01*
X125291Y54047D02*
X136709D01*
X125291D02*
Y59953D01*
X136709D01*
X419047Y141709D02*
X424953D01*
Y130291D02*
Y141709D01*
X419047Y130291D02*
X424953D01*
X419047D02*
Y141709D01*
X393047D02*
X398953D01*
Y130291D02*
Y141709D01*
X393047Y130291D02*
X398953D01*
X393047D02*
Y141709D01*
X379047D02*
X384953D01*
Y130291D02*
Y141709D01*
X379047Y130291D02*
X384953D01*
X379047D02*
Y141709D01*
X431047D02*
X436953D01*
Y130291D02*
Y141709D01*
X431047Y130291D02*
X436953D01*
X431047D02*
Y141709D01*
X457047D02*
X462953D01*
Y130291D02*
Y141709D01*
X457047Y130291D02*
X462953D01*
X457047D02*
Y141709D01*
X469047D02*
X474953D01*
Y130291D02*
Y141709D01*
X469047Y130291D02*
X474953D01*
X469047D02*
Y141709D01*
X407047D02*
X412953D01*
Y130291D02*
Y141709D01*
X407047Y130291D02*
X412953D01*
X407047D02*
Y141709D01*
X444047D02*
X449953D01*
Y130291D02*
Y141709D01*
X444047Y130291D02*
X449953D01*
X444047D02*
Y141709D01*
X145047Y340709D02*
X150953D01*
Y329291D02*
Y340709D01*
X145047Y329291D02*
X150953D01*
X145047D02*
Y340709D01*
X135047D02*
X140953D01*
Y329291D02*
Y340709D01*
X135047Y329291D02*
X140953D01*
X135047D02*
Y340709D01*
X115047D02*
X120953D01*
Y329291D02*
Y340709D01*
X115047Y329291D02*
X120953D01*
X115047D02*
Y340709D01*
X125047D02*
X130953D01*
Y329291D02*
Y340709D01*
X125047Y329291D02*
X130953D01*
X125047D02*
Y340709D01*
X105047D02*
X110953D01*
Y329291D02*
Y340709D01*
X105047Y329291D02*
X110953D01*
X105047D02*
Y340709D01*
X95047D02*
X100953D01*
Y329291D02*
Y340709D01*
X95047Y329291D02*
X100953D01*
X95047D02*
Y340709D01*
X85047D02*
X90953D01*
Y329291D02*
Y340709D01*
X85047Y329291D02*
X90953D01*
X85047D02*
Y340709D01*
X75047D02*
X80953D01*
Y329291D02*
Y340709D01*
X75047Y329291D02*
X80953D01*
X75047D02*
Y340709D01*
X530709Y162047D02*
Y167953D01*
X519291Y162047D02*
X530709D01*
X519291D02*
Y167953D01*
X530709D01*
Y92047D02*
Y97953D01*
X519291Y92047D02*
X530709D01*
X519291D02*
Y97953D01*
X530709D01*
Y122047D02*
Y127953D01*
X519291Y122047D02*
X530709D01*
X519291D02*
Y127953D01*
X530709D01*
Y142047D02*
Y147953D01*
X519291Y142047D02*
X530709D01*
X519291D02*
Y147953D01*
X530709D01*
Y132047D02*
Y137953D01*
X519291Y132047D02*
X530709D01*
X519291D02*
Y137953D01*
X530709D01*
Y152047D02*
Y157953D01*
X519291Y152047D02*
X530709D01*
X519291D02*
Y157953D01*
X530709D01*
Y112047D02*
Y117953D01*
X519291Y112047D02*
X530709D01*
X519291D02*
Y117953D01*
X530709D01*
Y102047D02*
Y107953D01*
X519291Y102047D02*
X530709D01*
X519291D02*
Y107953D01*
X530709D01*
X24496Y273748D02*
X61504D01*
Y242252D02*
Y273748D01*
X24496Y242252D02*
X61504D01*
X24496D02*
Y273748D01*
X340980Y70142D02*
X371886D01*
Y48094D02*
Y70142D01*
X340980Y48094D02*
X371886D01*
X340980D02*
Y70142D01*
X320291Y66047D02*
X331709D01*
X320291D02*
Y71953D01*
X331709D01*
Y66047D02*
Y71953D01*
X474953Y95291D02*
Y106709D01*
X469047Y95291D02*
X474953D01*
X469047D02*
Y106709D01*
X474953D01*
X320291Y56047D02*
X331709D01*
X320291D02*
Y61953D01*
X331709D01*
Y56047D02*
Y61953D01*
X462953Y95291D02*
Y106709D01*
X457047Y95291D02*
X462953D01*
X457047D02*
Y106709D01*
X462953D01*
X320142Y46047D02*
X331559D01*
X320142D02*
Y51953D01*
X331559D01*
Y46047D02*
Y51953D01*
X449953Y95142D02*
Y106559D01*
X444047Y95142D02*
X449953D01*
X444047D02*
Y106559D01*
X449953D01*
X385291Y51953D02*
X396709D01*
Y46047D02*
Y51953D01*
X385291Y46047D02*
X396709D01*
X385291D02*
Y51953D01*
X436953Y95291D02*
Y106709D01*
X431047Y95291D02*
X436953D01*
X431047D02*
Y106709D01*
X436953D01*
X385291Y61953D02*
X396709D01*
Y56047D02*
Y61953D01*
X385291Y56047D02*
X396709D01*
X385291D02*
Y61953D01*
X424953Y95291D02*
Y106709D01*
X419047Y95291D02*
X424953D01*
X419047D02*
Y106709D01*
X424953D01*
X385291Y71953D02*
X396709D01*
Y66047D02*
Y71953D01*
X385291Y66047D02*
X396709D01*
X385291D02*
Y71953D01*
X412953Y95291D02*
Y106709D01*
X407047Y95291D02*
X412953D01*
X407047D02*
Y106709D01*
X412953D01*
X474953Y219291D02*
Y230709D01*
X469047Y219291D02*
X474953D01*
X469047D02*
Y230709D01*
X474953D01*
X462953Y219291D02*
Y230709D01*
X457047Y219291D02*
X462953D01*
X457047D02*
Y230709D01*
X462953D01*
X449953Y219291D02*
Y230709D01*
X444047Y219291D02*
X449953D01*
X444047D02*
Y230709D01*
X449953D01*
X436953Y219291D02*
Y230709D01*
X431047Y219291D02*
X436953D01*
X431047D02*
Y230709D01*
X436953D01*
X424953Y219291D02*
Y230709D01*
X419047Y219291D02*
X424953D01*
X419047D02*
Y230709D01*
X424953D01*
X411953Y219291D02*
Y230709D01*
X406047Y219291D02*
X411953D01*
X406047D02*
Y230709D01*
X411953D01*
X398953Y219291D02*
Y230709D01*
X393047Y219291D02*
X398953D01*
X393047D02*
Y230709D01*
X398953D01*
X384953Y219291D02*
Y230709D01*
X379047Y219291D02*
X384953D01*
X379047D02*
Y230709D01*
X384953D01*
X122547Y282024D02*
X153453D01*
Y259976D02*
Y282024D01*
X122547Y259976D02*
X153453D01*
X122547D02*
Y282024D01*
X120547Y243024D02*
X151453D01*
Y220976D02*
Y243024D01*
X120547Y220976D02*
X151453D01*
X120547D02*
Y243024D01*
X105291Y285047D02*
X116709D01*
X105291D02*
Y290953D01*
X116709D01*
Y285047D02*
Y290953D01*
X105291Y284953D02*
X116709D01*
Y279047D02*
Y284953D01*
X105291Y279047D02*
X116709D01*
X105291D02*
Y284953D01*
Y273047D02*
X116709D01*
X105291D02*
Y278953D01*
X116709D01*
Y273047D02*
Y278953D01*
X105291Y272953D02*
X116709D01*
Y267047D02*
Y272953D01*
X105291Y267047D02*
X116709D01*
X105291D02*
Y272953D01*
X94291Y238047D02*
X105709D01*
X94291D02*
Y243953D01*
X105709D01*
Y238047D02*
Y243953D01*
X94291Y237953D02*
X105709D01*
Y232047D02*
Y237953D01*
X94291Y232047D02*
X105709D01*
X94291D02*
Y237953D01*
X105291Y261047D02*
X116709D01*
X105291D02*
Y266953D01*
X116709D01*
Y261047D02*
Y266953D01*
X94291Y226047D02*
X105709D01*
X94291D02*
Y231953D01*
X105709D01*
Y226047D02*
Y231953D01*
X94291Y225953D02*
X105709D01*
Y220047D02*
Y225953D01*
X94291Y220047D02*
X105709D01*
X94291D02*
Y225953D01*
X159291Y264953D02*
X170709D01*
Y259047D02*
Y264953D01*
X159291Y259047D02*
X170709D01*
X159291D02*
Y264953D01*
Y253047D02*
X170709D01*
X159291D02*
Y258953D01*
X170709D01*
Y253047D02*
Y258953D01*
X159291Y276953D02*
X170709D01*
Y271047D02*
Y276953D01*
X159291Y271047D02*
X170709D01*
X159291D02*
Y276953D01*
Y265047D02*
X170709D01*
X159291D02*
Y270953D01*
X170709D01*
Y265047D02*
Y270953D01*
X159291Y288953D02*
X170709D01*
Y283047D02*
Y288953D01*
X159291Y283047D02*
X170709D01*
X159291D02*
Y288953D01*
Y277047D02*
X170709D01*
X159291D02*
Y282953D01*
X170709D01*
Y277047D02*
Y282953D01*
X137047Y133291D02*
Y144709D01*
X142953D01*
Y133291D02*
Y144709D01*
X137047Y133291D02*
X142953D01*
X54291Y187047D02*
X65709D01*
X54291D02*
Y192953D01*
X65709D01*
Y187047D02*
Y192953D01*
X151047Y133291D02*
Y144709D01*
X156953D01*
Y133291D02*
Y144709D01*
X151047Y133291D02*
X156953D01*
X149953D02*
Y144709D01*
X144047Y133291D02*
X149953D01*
X144047D02*
Y144709D01*
X149953D01*
X54291Y177047D02*
X65709D01*
X54291D02*
Y182953D01*
X65709D01*
Y177047D02*
Y182953D01*
X135953Y133291D02*
Y144709D01*
X130047Y133291D02*
X135953D01*
X130047D02*
Y144709D01*
X135953D01*
X84291Y167953D02*
X95709D01*
Y162047D02*
Y167953D01*
X84291Y162047D02*
X95709D01*
X84291D02*
Y167953D01*
X54291Y167047D02*
X65709D01*
X54291D02*
Y172953D01*
X65709D01*
Y167047D02*
Y172953D01*
X84291Y157953D02*
X95709D01*
Y152047D02*
Y157953D01*
X84291Y152047D02*
X95709D01*
X84291D02*
Y157953D01*
X54291Y157047D02*
X65709D01*
X54291D02*
Y162953D01*
X65709D01*
Y157047D02*
Y162953D01*
X84291Y147953D02*
X95709D01*
Y142047D02*
Y147953D01*
X84291Y142047D02*
X95709D01*
X84291D02*
Y147953D01*
X54291Y147047D02*
X65709D01*
X54291D02*
Y152953D01*
X65709D01*
Y147047D02*
Y152953D01*
X84291Y137953D02*
X95709D01*
Y132047D02*
Y137953D01*
X84291Y132047D02*
X95709D01*
X84291D02*
Y137953D01*
X54291Y137047D02*
X65709D01*
X54291D02*
Y142953D01*
X65709D01*
Y137047D02*
Y142953D01*
X54291Y127047D02*
X65709D01*
X54291D02*
Y132953D01*
X65709D01*
Y127047D02*
Y132953D01*
X127047Y99441D02*
Y110858D01*
X132953D01*
Y99441D02*
Y110858D01*
X127047Y99441D02*
X132953D01*
X117953Y99291D02*
Y110709D01*
X112047Y99291D02*
X117953D01*
X112047D02*
Y110709D01*
X117953D01*
X54291Y117047D02*
X65709D01*
X54291D02*
Y122953D01*
X65709D01*
Y117047D02*
Y122953D01*
X133047Y99291D02*
Y110709D01*
X138953D01*
Y99291D02*
Y110709D01*
X133047Y99291D02*
X138953D01*
X111953D02*
Y110709D01*
X106047Y99291D02*
X111953D01*
X106047D02*
Y110709D01*
X111953D01*
X139047Y99291D02*
Y110709D01*
X144953D01*
Y99291D02*
Y110709D01*
X139047Y99291D02*
X144953D01*
X105953D02*
Y110709D01*
X100047Y99291D02*
X105953D01*
X100047D02*
Y110709D01*
X105953D01*
X159291Y96953D02*
X170709D01*
Y91047D02*
Y96953D01*
X159291Y91047D02*
X170709D01*
X159291D02*
Y96953D01*
X74291Y89953D02*
X85709D01*
Y84047D02*
Y89953D01*
X74291Y84047D02*
X85709D01*
X74291D02*
Y89953D01*
X159291Y90953D02*
X170709D01*
Y85047D02*
Y90953D01*
X159291Y85047D02*
X170709D01*
X159291D02*
Y90953D01*
X74291Y83953D02*
X85709D01*
Y78047D02*
Y83953D01*
X74291Y78047D02*
X85709D01*
X74291D02*
Y83953D01*
X159291Y84953D02*
X170709D01*
Y79047D02*
Y84953D01*
X159291Y79047D02*
X170709D01*
X159291D02*
Y84953D01*
X74291Y77953D02*
X85709D01*
Y72047D02*
Y77953D01*
X74291Y72047D02*
X85709D01*
X74291D02*
Y77953D01*
X159291Y78953D02*
X170709D01*
Y73047D02*
Y78953D01*
X159291Y73047D02*
X170709D01*
X159291D02*
Y78953D01*
X74291Y71953D02*
X85709D01*
Y66047D02*
Y71953D01*
X74291Y66047D02*
X85709D01*
X74291D02*
Y71953D01*
X159291Y72953D02*
X170709D01*
Y67047D02*
Y72953D01*
X159291Y67047D02*
X170709D01*
X159291D02*
Y72953D01*
X74291Y65953D02*
X85709D01*
Y60047D02*
Y65953D01*
X74291Y60047D02*
X85709D01*
X74291D02*
Y65953D01*
X159291Y54953D02*
X170709D01*
Y49047D02*
Y54953D01*
X159291Y49047D02*
X170709D01*
X159291D02*
Y54953D01*
X146953Y23291D02*
Y34709D01*
X141047Y23291D02*
X146953D01*
X141047D02*
Y34709D01*
X146953D01*
X74291Y59953D02*
X85709D01*
Y54047D02*
Y59953D01*
X74291Y54047D02*
X85709D01*
X74291D02*
Y59953D01*
X140953Y23091D02*
Y34509D01*
X135047Y23091D02*
X140953D01*
X135047D02*
Y34509D01*
X140953D01*
X74291Y53953D02*
X85709D01*
Y48047D02*
Y53953D01*
X74291Y48047D02*
X85709D01*
X74291D02*
Y53953D01*
X134953Y23091D02*
Y34509D01*
X129047Y23091D02*
X134953D01*
X129047D02*
Y34509D01*
X134953D01*
X74291Y47953D02*
X85709D01*
Y42047D02*
Y47953D01*
X74291Y42047D02*
X85709D01*
X74291D02*
Y47953D01*
X128953Y23091D02*
Y34509D01*
X123047Y23091D02*
X128953D01*
X123047D02*
Y34509D01*
X128953D01*
X105047Y23091D02*
Y34509D01*
X110953D01*
Y23091D02*
Y34509D01*
X105047Y23091D02*
X110953D01*
X122953D02*
Y34509D01*
X117047Y23091D02*
X122953D01*
X117047D02*
Y34509D01*
X122953D01*
X116953Y23091D02*
Y34509D01*
X111047Y23091D02*
X116953D01*
X111047D02*
Y34509D01*
X116953D01*
X267291Y106047D02*
X278709D01*
X267291D02*
Y111953D01*
X278709D01*
Y106047D02*
Y111953D01*
X267291Y59047D02*
X278709D01*
X267291D02*
Y64953D01*
X278709D01*
Y59047D02*
Y64953D01*
X267291Y112047D02*
X278709D01*
X267291D02*
Y117953D01*
X278709D01*
Y112047D02*
Y117953D01*
X267291Y71047D02*
X278709D01*
X267291D02*
Y76953D01*
X278709D01*
Y71047D02*
Y76953D01*
X267291Y124047D02*
X278709D01*
X267291D02*
Y129953D01*
X278709D01*
Y124047D02*
Y129953D01*
X267291Y65047D02*
X278709D01*
X267291D02*
Y70953D01*
X278709D01*
Y65047D02*
Y70953D01*
X267291Y118047D02*
X278709D01*
X267291D02*
Y123953D01*
X278709D01*
Y118047D02*
Y123953D01*
X267291Y47047D02*
X278709D01*
X267291D02*
Y52953D01*
X278709D01*
Y47047D02*
Y52953D01*
X267291Y100047D02*
X278709D01*
X267291D02*
Y105953D01*
X278709D01*
Y100047D02*
Y105953D01*
X267291Y45953D02*
X278709D01*
Y40047D02*
Y45953D01*
X267291Y40047D02*
X278709D01*
X267291D02*
Y45953D01*
Y99953D02*
X278709D01*
Y94047D02*
Y99953D01*
X267291Y94047D02*
X278709D01*
X267291D02*
Y99953D01*
X301949Y281784D02*
Y292216D01*
Y281784D02*
X315531D01*
Y292216D01*
X301949D02*
X315531D01*
X221449Y281784D02*
Y292216D01*
Y281784D02*
X235032D01*
Y292216D01*
X221449D02*
X235032D01*
X202532Y275047D02*
X213949D01*
X202532D02*
Y280953D01*
X213949D01*
Y275047D02*
Y280953D01*
X283032Y293047D02*
X294449D01*
X283032D02*
Y298953D01*
X294449D01*
Y293047D02*
Y298953D01*
X323031Y275047D02*
X334449D01*
X323031D02*
Y280953D01*
X334449D01*
Y275047D02*
Y280953D01*
X242531Y275047D02*
X253949D01*
X242531D02*
Y280953D01*
X253949D01*
Y275047D02*
Y280953D01*
X323031Y298953D02*
X334449D01*
Y293047D02*
Y298953D01*
X323031Y293047D02*
X334449D01*
X323031D02*
Y298953D01*
X242531D02*
X253949D01*
Y293047D02*
Y298953D01*
X242531Y293047D02*
X253949D01*
X242531D02*
Y298953D01*
X301949Y248783D02*
Y259216D01*
Y248783D02*
X315531D01*
Y259216D01*
X301949D02*
X315531D01*
X283032Y242047D02*
X294449D01*
X283032D02*
Y247953D01*
X294449D01*
Y242047D02*
Y247953D01*
X283032Y260047D02*
X294449D01*
X283032D02*
Y265953D01*
X294449D01*
Y260047D02*
Y265953D01*
X323031Y242047D02*
X334449D01*
X323031D02*
Y247953D01*
X334449D01*
Y242047D02*
Y247953D01*
X242531Y242047D02*
X253949D01*
X242531D02*
Y247953D01*
X253949D01*
Y242047D02*
Y247953D01*
X323031Y265953D02*
X334449D01*
Y260047D02*
Y265953D01*
X323031Y260047D02*
X334449D01*
X323031D02*
Y265953D01*
X242531D02*
X253949D01*
Y260047D02*
Y265953D01*
X242531Y260047D02*
X253949D01*
X242531D02*
Y265953D01*
X519291Y172953D02*
X530709D01*
Y167047D02*
Y172953D01*
X519291Y167047D02*
X530709D01*
X519291D02*
Y172953D01*
Y162953D02*
X530709D01*
Y157047D02*
Y162953D01*
X519291Y157047D02*
X530709D01*
X519291D02*
Y162953D01*
Y152953D02*
X530709D01*
Y147047D02*
Y152953D01*
X519291Y147047D02*
X530709D01*
X519291D02*
Y152953D01*
Y142953D02*
X530709D01*
Y137047D02*
Y142953D01*
X519291Y137047D02*
X530709D01*
X519291D02*
Y142953D01*
Y132953D02*
X530709D01*
Y127047D02*
Y132953D01*
X519291Y127047D02*
X530709D01*
X519291D02*
Y132953D01*
Y122953D02*
X530709D01*
Y117047D02*
Y122953D01*
X519291Y117047D02*
X530709D01*
X519291D02*
Y122953D01*
Y112953D02*
X530709D01*
Y107047D02*
Y112953D01*
X519291Y107047D02*
X530709D01*
X519291D02*
Y112953D01*
Y102953D02*
X530709D01*
Y97047D02*
Y102953D01*
X519291Y97047D02*
X530709D01*
X519291D02*
Y102953D01*
X301949Y215784D02*
Y226217D01*
Y215784D02*
X315531D01*
Y226217D01*
X301949D02*
X315531D01*
X283032Y208047D02*
X294449D01*
X283032D02*
Y213953D01*
X294449D01*
Y208047D02*
Y213953D01*
X283032Y226047D02*
X294449D01*
X283032D02*
Y231953D01*
X294449D01*
Y226047D02*
Y231953D01*
X323031Y208047D02*
X334449D01*
X323031D02*
Y213953D01*
X334449D01*
Y208047D02*
Y213953D01*
X242531Y208047D02*
X253949D01*
X242531D02*
Y213953D01*
X253949D01*
Y208047D02*
Y213953D01*
X323031Y231953D02*
X334449D01*
Y226047D02*
Y231953D01*
X323031Y226047D02*
X334449D01*
X323031D02*
Y231953D01*
X242531D02*
X253949D01*
Y226047D02*
Y231953D01*
X242531Y226047D02*
X253949D01*
X242531D02*
Y231953D01*
X301949Y182783D02*
Y193217D01*
Y182783D02*
X315531D01*
Y193217D01*
X301949D02*
X315531D01*
X221449Y182783D02*
Y193217D01*
Y182783D02*
X235032D01*
Y193217D01*
X221449D02*
X235032D01*
X283032Y176047D02*
X294449D01*
X283032D02*
Y181953D01*
X294449D01*
Y176047D02*
Y181953D01*
X283032Y194047D02*
X294449D01*
X283032D02*
Y199953D01*
X294449D01*
Y194047D02*
Y199953D01*
X323031Y176047D02*
X334449D01*
X323031D02*
Y181953D01*
X334449D01*
Y176047D02*
Y181953D01*
X242531Y176047D02*
X253949D01*
X242531D02*
Y181953D01*
X253949D01*
Y176047D02*
Y181953D01*
X323031Y199953D02*
X334449D01*
Y194047D02*
Y199953D01*
X323031Y194047D02*
X334449D01*
X323031D02*
Y199953D01*
X242531D02*
X253949D01*
Y194047D02*
Y199953D01*
X242531Y194047D02*
X253949D01*
X242531D02*
Y199953D01*
M02*
