G04*
G04 #@! TF.GenerationSoftware,Altium Limited,Altium Designer,22.3.1 (43)*
G04*
G04 Layer_Color=32768*
%FSLAX25Y25*%
%MOIN*%
G70*
G04*
G04 #@! TF.SameCoordinates,F71B8339-E566-44E3-B05A-047308818BE7*
G04*
G04*
G04 #@! TF.FilePolarity,Positive*
G04*
G01*
G75*
%ADD54C,0.00394*%
%ADD55C,0.00197*%
D54*
X235323Y131988D02*
X250677D01*
Y93012D02*
Y131988D01*
X235323Y93012D02*
X250677D01*
X235323D02*
Y131988D01*
Y126988D02*
X240323Y131988D01*
X276150Y54425D02*
Y57575D01*
X269850D02*
X276150D01*
X269850Y54425D02*
Y57575D01*
Y54425D02*
X276150D01*
X235323Y78488D02*
X240323Y83488D01*
X235323Y44512D02*
Y83488D01*
Y44512D02*
X250677D01*
Y83488D01*
X235323D02*
X250677D01*
X318323Y131988D02*
X333677D01*
Y93012D02*
Y131988D01*
X318323Y93012D02*
X333677D01*
X318323D02*
Y131988D01*
Y126988D02*
X323323Y131988D01*
X297850Y134575D02*
X304150D01*
Y131425D02*
Y134575D01*
X297850Y131425D02*
X304150D01*
X297850D02*
Y134575D01*
X351850Y131425D02*
X358150D01*
X351850D02*
Y134575D01*
X358150D01*
Y131425D02*
Y134575D01*
X351850Y86425D02*
X358150D01*
X351850D02*
Y89575D01*
X358150D01*
Y86425D02*
Y89575D01*
X297850D02*
X304150D01*
Y86425D02*
Y89575D01*
X297850Y86425D02*
X304150D01*
X297850D02*
Y89575D01*
X428850Y57575D02*
X435150D01*
Y54425D02*
Y57575D01*
X428850Y54425D02*
X435150D01*
X428850D02*
Y57575D01*
X488850Y18425D02*
X495150D01*
X488850D02*
Y21575D01*
X495150D01*
Y18425D02*
Y21575D01*
X488850Y49425D02*
X495150D01*
X488850D02*
Y52575D01*
X495150D01*
Y49425D02*
Y52575D01*
X428850Y26575D02*
X435150D01*
Y23425D02*
Y26575D01*
X428850Y23425D02*
X435150D01*
X428850D02*
Y26575D01*
X455323Y57488D02*
X470677D01*
Y18512D02*
Y57488D01*
X455323Y18512D02*
X470677D01*
X455323D02*
Y57488D01*
Y52488D02*
X460323Y57488D01*
X107850Y256425D02*
Y259575D01*
Y256425D02*
X114150D01*
Y259575D01*
X107850D02*
X114150D01*
X519850Y218425D02*
Y221575D01*
X526150D01*
Y218425D02*
Y221575D01*
X519850Y218425D02*
X526150D01*
X519850Y238425D02*
Y241575D01*
X526150D01*
Y238425D02*
Y241575D01*
X519850Y238425D02*
X526150D01*
X519850Y258425D02*
Y261575D01*
X526150D01*
Y258425D02*
Y261575D01*
X519850Y258425D02*
X526150D01*
X519850Y268425D02*
Y271575D01*
X526150D01*
Y268425D02*
Y271575D01*
X519850Y268425D02*
X526150D01*
X519850Y278425D02*
Y281575D01*
X526150D01*
Y278425D02*
Y281575D01*
X519850Y278425D02*
X526150D01*
X519850Y288425D02*
Y291575D01*
X526150D01*
Y288425D02*
Y291575D01*
X519850Y288425D02*
X526150D01*
X519850Y228425D02*
Y231575D01*
X526150D01*
Y228425D02*
Y231575D01*
X519850Y228425D02*
X526150D01*
X519850Y248425D02*
Y251575D01*
X526150D01*
Y248425D02*
Y251575D01*
X519850Y248425D02*
X526150D01*
X291890Y276425D02*
Y279575D01*
X285591D02*
X291890D01*
X285591Y276425D02*
Y279575D01*
Y276425D02*
X291890D01*
X225780Y224984D02*
X230701D01*
Y217016D02*
Y224984D01*
X225780Y217016D02*
X230701D01*
X225780D02*
Y224984D01*
Y222425D02*
X228339Y224984D01*
X225780Y257984D02*
X230701D01*
Y250016D02*
Y257984D01*
X225780Y250016D02*
X230701D01*
X225780D02*
Y257984D01*
Y255425D02*
X228339Y257984D01*
X211390Y177425D02*
Y180575D01*
X205090D02*
X211390D01*
X205090Y177425D02*
Y180575D01*
Y177425D02*
X211390D01*
Y195425D02*
Y198575D01*
X205090D02*
X211390D01*
X205090Y195425D02*
Y198575D01*
Y195425D02*
X211390D01*
Y209425D02*
Y212575D01*
X205090D02*
X211390D01*
X205090Y209425D02*
Y212575D01*
Y209425D02*
X211390D01*
Y227425D02*
Y230575D01*
X205090D02*
X211390D01*
X205090Y227425D02*
Y230575D01*
Y227425D02*
X211390D01*
Y243425D02*
Y246575D01*
X205090D02*
X211390D01*
X205090Y243425D02*
Y246575D01*
Y243425D02*
X211390D01*
Y261425D02*
Y264575D01*
X205090D02*
X211390D01*
X205090Y261425D02*
Y264575D01*
Y261425D02*
X211390D01*
Y294425D02*
Y297575D01*
X205090D02*
X211390D01*
X205090Y294425D02*
Y297575D01*
Y294425D02*
X211390D01*
X175425Y338150D02*
X178575D01*
Y331850D02*
Y338150D01*
X175425Y331850D02*
X178575D01*
X175425D02*
Y338150D01*
X159425D02*
X162575D01*
Y331850D02*
Y338150D01*
X159425Y331850D02*
X162575D01*
X159425D02*
Y338150D01*
X354425D02*
X357575D01*
Y331850D02*
Y338150D01*
X354425Y331850D02*
X357575D01*
X354425D02*
Y338150D01*
X267425D02*
X270575D01*
Y331850D02*
Y338150D01*
X267425Y331850D02*
X270575D01*
X267425D02*
Y338150D01*
X249425D02*
X252575D01*
Y331850D02*
Y338150D01*
X249425Y331850D02*
X252575D01*
X249425D02*
Y338150D01*
X308425D02*
X311575D01*
Y331850D02*
Y338150D01*
X308425Y331850D02*
X311575D01*
X308425D02*
Y338150D01*
X289425D02*
X292575D01*
Y331850D02*
Y338150D01*
X289425Y331850D02*
X292575D01*
X289425D02*
Y338150D01*
X321425D02*
X324575D01*
Y331850D02*
Y338150D01*
X321425Y331850D02*
X324575D01*
X321425D02*
Y338150D01*
X234425D02*
X237575D01*
Y331850D02*
Y338150D01*
X234425Y331850D02*
X237575D01*
X234425D02*
Y338150D01*
X191425D02*
X194575D01*
Y331850D02*
Y338150D01*
X191425Y331850D02*
X194575D01*
X191425D02*
Y338150D01*
X216425D02*
X219575D01*
Y331850D02*
Y338150D01*
X216425Y331850D02*
X219575D01*
X216425D02*
Y338150D01*
X203425D02*
X206575D01*
Y331850D02*
Y338150D01*
X203425Y331850D02*
X206575D01*
X203425D02*
Y338150D01*
X470425Y259350D02*
Y265650D01*
Y259350D02*
X473575D01*
Y265650D01*
X470425D02*
X473575D01*
X420425Y259350D02*
Y265650D01*
Y259350D02*
X423575D01*
Y265650D01*
X420425D02*
X423575D01*
X432425Y259350D02*
Y265650D01*
Y259350D02*
X435575D01*
Y265650D01*
X432425D02*
X435575D01*
X394425Y259350D02*
Y265650D01*
Y259350D02*
X397575D01*
Y265650D01*
X394425D02*
X397575D01*
X407425Y259350D02*
Y265650D01*
Y259350D02*
X410575D01*
Y265650D01*
X407425D02*
X410575D01*
X458425Y259350D02*
Y265650D01*
Y259350D02*
X461575D01*
Y265650D01*
X458425D02*
X461575D01*
X445425Y259350D02*
Y265650D01*
Y259350D02*
X448575D01*
Y265650D01*
X445425D02*
X448575D01*
X380425Y259350D02*
Y265650D01*
Y259350D02*
X383575D01*
Y265650D01*
X380425D02*
X383575D01*
X385425Y338150D02*
X388575D01*
Y331850D02*
Y338150D01*
X385425Y331850D02*
X388575D01*
X385425D02*
Y338150D01*
X402925D02*
X406075D01*
Y331850D02*
Y338150D01*
X402925Y331850D02*
X406075D01*
X402925D02*
Y338150D01*
X134150Y69425D02*
Y72575D01*
X127850Y69425D02*
X134150D01*
X127850D02*
Y72575D01*
X134150D01*
X134000Y62425D02*
Y65575D01*
X127701Y62425D02*
X134000D01*
X127701D02*
Y65575D01*
X134000D01*
X115850Y55425D02*
Y58575D01*
X122150D01*
Y55425D02*
Y58575D01*
X115850Y55425D02*
X122150D01*
X115850Y69425D02*
Y72575D01*
X122150D01*
Y69425D02*
Y72575D01*
X115850Y69425D02*
X122150D01*
X115850Y62425D02*
Y65575D01*
X122150D01*
Y62425D02*
Y65575D01*
X115850Y62425D02*
X122150D01*
X134150Y55425D02*
Y58575D01*
X127850Y55425D02*
X134150D01*
X127850D02*
Y58575D01*
X134150D01*
X420425Y139150D02*
X423575D01*
Y132850D02*
Y139150D01*
X420425Y132850D02*
X423575D01*
X420425D02*
Y139150D01*
X394425D02*
X397575D01*
Y132850D02*
Y139150D01*
X394425Y132850D02*
X397575D01*
X394425D02*
Y139150D01*
X380425D02*
X383575D01*
Y132850D02*
Y139150D01*
X380425Y132850D02*
X383575D01*
X380425D02*
Y139150D01*
X432425D02*
X435575D01*
Y132850D02*
Y139150D01*
X432425Y132850D02*
X435575D01*
X432425D02*
Y139150D01*
X458425D02*
X461575D01*
Y132850D02*
Y139150D01*
X458425Y132850D02*
X461575D01*
X458425D02*
Y139150D01*
X470425D02*
X473575D01*
Y132850D02*
Y139150D01*
X470425Y132850D02*
X473575D01*
X470425D02*
Y139150D01*
X408425D02*
X411575D01*
Y132850D02*
Y139150D01*
X408425Y132850D02*
X411575D01*
X408425D02*
Y139150D01*
X445425D02*
X448575D01*
Y132850D02*
Y139150D01*
X445425Y132850D02*
X448575D01*
X445425D02*
Y139150D01*
X146425Y338150D02*
X149575D01*
Y331850D02*
Y338150D01*
X146425Y331850D02*
X149575D01*
X146425D02*
Y338150D01*
X136425D02*
X139575D01*
Y331850D02*
Y338150D01*
X136425Y331850D02*
X139575D01*
X136425D02*
Y338150D01*
X116425D02*
X119575D01*
Y331850D02*
Y338150D01*
X116425Y331850D02*
X119575D01*
X116425D02*
Y338150D01*
X126425D02*
X129575D01*
Y331850D02*
Y338150D01*
X126425Y331850D02*
X129575D01*
X126425D02*
Y338150D01*
X106425D02*
X109575D01*
Y331850D02*
Y338150D01*
X106425Y331850D02*
X109575D01*
X106425D02*
Y338150D01*
X96425D02*
X99575D01*
Y331850D02*
Y338150D01*
X96425Y331850D02*
X99575D01*
X96425D02*
Y338150D01*
X86425D02*
X89575D01*
Y331850D02*
Y338150D01*
X86425Y331850D02*
X89575D01*
X86425D02*
Y338150D01*
X76425D02*
X79575D01*
Y331850D02*
Y338150D01*
X76425Y331850D02*
X79575D01*
X76425D02*
Y338150D01*
X528150Y163425D02*
Y166575D01*
X521850Y163425D02*
X528150D01*
X521850D02*
Y166575D01*
X528150D01*
Y93425D02*
Y96575D01*
X521850Y93425D02*
X528150D01*
X521850D02*
Y96575D01*
X528150D01*
Y123425D02*
Y126575D01*
X521850Y123425D02*
X528150D01*
X521850D02*
Y126575D01*
X528150D01*
Y143425D02*
Y146575D01*
X521850Y143425D02*
X528150D01*
X521850D02*
Y146575D01*
X528150D01*
Y133425D02*
Y136575D01*
X521850Y133425D02*
X528150D01*
X521850D02*
Y136575D01*
X528150D01*
Y153425D02*
Y156575D01*
X521850Y153425D02*
X528150D01*
X521850D02*
Y156575D01*
X528150D01*
Y113425D02*
Y116575D01*
X521850Y113425D02*
X528150D01*
X521850D02*
Y116575D01*
X528150D01*
Y103425D02*
Y106575D01*
X521850Y103425D02*
X528150D01*
X521850D02*
Y106575D01*
X528150D01*
X32567Y272173D02*
X53433D01*
Y243827D02*
Y272173D01*
X32567Y243827D02*
X53433D01*
X32567D02*
Y272173D01*
Y269614D02*
X35126Y272173D01*
X347772Y68961D02*
X365094D01*
Y49276D02*
Y68961D01*
X347772Y49276D02*
X365094D01*
X347772D02*
Y68961D01*
Y66402D02*
X350331Y68961D01*
X322850Y67425D02*
X329150D01*
X322850D02*
Y70575D01*
X329150D01*
Y67425D02*
Y70575D01*
X473575Y97850D02*
Y104150D01*
X470425Y97850D02*
X473575D01*
X470425D02*
Y104150D01*
X473575D01*
X322850Y57425D02*
X329150D01*
X322850D02*
Y60575D01*
X329150D01*
Y57425D02*
Y60575D01*
X461575Y97850D02*
Y104150D01*
X458425Y97850D02*
X461575D01*
X458425D02*
Y104150D01*
X461575D01*
X322701Y47425D02*
X329000D01*
X322701D02*
Y50575D01*
X329000D01*
Y47425D02*
Y50575D01*
X448575Y97701D02*
Y104000D01*
X445425Y97701D02*
X448575D01*
X445425D02*
Y104000D01*
X448575D01*
X387850Y50575D02*
X394150D01*
Y47425D02*
Y50575D01*
X387850Y47425D02*
X394150D01*
X387850D02*
Y50575D01*
X435575Y97850D02*
Y104150D01*
X432425Y97850D02*
X435575D01*
X432425D02*
Y104150D01*
X435575D01*
X387850Y60575D02*
X394150D01*
Y57425D02*
Y60575D01*
X387850Y57425D02*
X394150D01*
X387850D02*
Y60575D01*
X423575Y97850D02*
Y104150D01*
X420425Y97850D02*
X423575D01*
X420425D02*
Y104150D01*
X423575D01*
X387850Y70575D02*
X394150D01*
Y67425D02*
Y70575D01*
X387850Y67425D02*
X394150D01*
X387850D02*
Y70575D01*
X411575Y97850D02*
Y104150D01*
X408425Y97850D02*
X411575D01*
X408425D02*
Y104150D01*
X411575D01*
X473575Y221850D02*
Y228150D01*
X470425Y221850D02*
X473575D01*
X470425D02*
Y228150D01*
X473575D01*
X461575Y221850D02*
Y228150D01*
X458425Y221850D02*
X461575D01*
X458425D02*
Y228150D01*
X461575D01*
X448575Y221850D02*
Y228150D01*
X445425Y221850D02*
X448575D01*
X445425D02*
Y228150D01*
X448575D01*
X435575Y221850D02*
Y228150D01*
X432425Y221850D02*
X435575D01*
X432425D02*
Y228150D01*
X435575D01*
X423575Y221850D02*
Y228150D01*
X420425Y221850D02*
X423575D01*
X420425D02*
Y228150D01*
X423575D01*
X410575Y221850D02*
Y228150D01*
X407425Y221850D02*
X410575D01*
X407425D02*
Y228150D01*
X410575D01*
X397575Y221850D02*
Y228150D01*
X394425Y221850D02*
X397575D01*
X394425D02*
Y228150D01*
X397575D01*
X383575Y221850D02*
Y228150D01*
X380425Y221850D02*
X383575D01*
X380425D02*
Y228150D01*
X383575D01*
X129339Y280842D02*
X146661D01*
Y261157D02*
Y280842D01*
X129339Y261157D02*
X146661D01*
X129339D02*
Y280842D01*
Y278284D02*
X131898Y280842D01*
X127339Y241843D02*
X144661D01*
Y222158D02*
Y241843D01*
X127339Y222158D02*
X144661D01*
X127339D02*
Y241843D01*
Y239283D02*
X129898Y241843D01*
X107850Y286425D02*
X114150D01*
X107850D02*
Y289575D01*
X114150D01*
Y286425D02*
Y289575D01*
X107850Y283575D02*
X114150D01*
Y280425D02*
Y283575D01*
X107850Y280425D02*
X114150D01*
X107850D02*
Y283575D01*
Y274425D02*
X114150D01*
X107850D02*
Y277575D01*
X114150D01*
Y274425D02*
Y277575D01*
X107850Y271575D02*
X114150D01*
Y268425D02*
Y271575D01*
X107850Y268425D02*
X114150D01*
X107850D02*
Y271575D01*
X96850Y239425D02*
X103150D01*
X96850D02*
Y242575D01*
X103150D01*
Y239425D02*
Y242575D01*
X96850Y236575D02*
X103150D01*
Y233425D02*
Y236575D01*
X96850Y233425D02*
X103150D01*
X96850D02*
Y236575D01*
X107850Y262425D02*
X114150D01*
X107850D02*
Y265575D01*
X114150D01*
Y262425D02*
Y265575D01*
X96850Y227425D02*
X103150D01*
X96850D02*
Y230575D01*
X103150D01*
Y227425D02*
Y230575D01*
X96850Y224575D02*
X103150D01*
Y221425D02*
Y224575D01*
X96850Y221425D02*
X103150D01*
X96850D02*
Y224575D01*
X161850Y263575D02*
X168150D01*
Y260425D02*
Y263575D01*
X161850Y260425D02*
X168150D01*
X161850D02*
Y263575D01*
Y254425D02*
X168150D01*
X161850D02*
Y257575D01*
X168150D01*
Y254425D02*
Y257575D01*
X161850Y275575D02*
X168150D01*
Y272425D02*
Y275575D01*
X161850Y272425D02*
X168150D01*
X161850D02*
Y275575D01*
Y266425D02*
X168150D01*
X161850D02*
Y269575D01*
X168150D01*
Y266425D02*
Y269575D01*
X161850Y287575D02*
X168150D01*
Y284425D02*
Y287575D01*
X161850Y284425D02*
X168150D01*
X161850D02*
Y287575D01*
Y278425D02*
X168150D01*
X161850D02*
Y281575D01*
X168150D01*
Y278425D02*
Y281575D01*
X138425Y135850D02*
Y142150D01*
X141575D01*
Y135850D02*
Y142150D01*
X138425Y135850D02*
X141575D01*
X56850Y188425D02*
X63150D01*
X56850D02*
Y191575D01*
X63150D01*
Y188425D02*
Y191575D01*
X152425Y135850D02*
Y142150D01*
X155575D01*
Y135850D02*
Y142150D01*
X152425Y135850D02*
X155575D01*
X148575D02*
Y142150D01*
X145425Y135850D02*
X148575D01*
X145425D02*
Y142150D01*
X148575D01*
X56850Y178425D02*
X63150D01*
X56850D02*
Y181575D01*
X63150D01*
Y178425D02*
Y181575D01*
X134575Y135850D02*
Y142150D01*
X131425Y135850D02*
X134575D01*
X131425D02*
Y142150D01*
X134575D01*
X86850Y166575D02*
X93150D01*
Y163425D02*
Y166575D01*
X86850Y163425D02*
X93150D01*
X86850D02*
Y166575D01*
X56850Y168425D02*
X63150D01*
X56850D02*
Y171575D01*
X63150D01*
Y168425D02*
Y171575D01*
X86850Y156575D02*
X93150D01*
Y153425D02*
Y156575D01*
X86850Y153425D02*
X93150D01*
X86850D02*
Y156575D01*
X56850Y158425D02*
X63150D01*
X56850D02*
Y161575D01*
X63150D01*
Y158425D02*
Y161575D01*
X86850Y146575D02*
X93150D01*
Y143425D02*
Y146575D01*
X86850Y143425D02*
X93150D01*
X86850D02*
Y146575D01*
X56850Y148425D02*
X63150D01*
X56850D02*
Y151575D01*
X63150D01*
Y148425D02*
Y151575D01*
X86850Y136575D02*
X93150D01*
Y133425D02*
Y136575D01*
X86850Y133425D02*
X93150D01*
X86850D02*
Y136575D01*
X56850Y138425D02*
X63150D01*
X56850D02*
Y141575D01*
X63150D01*
Y138425D02*
Y141575D01*
X56850Y128425D02*
X63150D01*
X56850D02*
Y131575D01*
X63150D01*
Y128425D02*
Y131575D01*
X128425Y102000D02*
Y108299D01*
X131575D01*
Y102000D02*
Y108299D01*
X128425Y102000D02*
X131575D01*
X116575Y101850D02*
Y108150D01*
X113425Y101850D02*
X116575D01*
X113425D02*
Y108150D01*
X116575D01*
X56850Y118425D02*
X63150D01*
X56850D02*
Y121575D01*
X63150D01*
Y118425D02*
Y121575D01*
X134425Y101850D02*
Y108150D01*
X137575D01*
Y101850D02*
Y108150D01*
X134425Y101850D02*
X137575D01*
X110575D02*
Y108150D01*
X107425Y101850D02*
X110575D01*
X107425D02*
Y108150D01*
X110575D01*
X140425Y101850D02*
Y108150D01*
X143575D01*
Y101850D02*
Y108150D01*
X140425Y101850D02*
X143575D01*
X104575D02*
Y108150D01*
X101425Y101850D02*
X104575D01*
X101425D02*
Y108150D01*
X104575D01*
X161850Y95575D02*
X168150D01*
Y92425D02*
Y95575D01*
X161850Y92425D02*
X168150D01*
X161850D02*
Y95575D01*
X76850Y88575D02*
X83150D01*
Y85425D02*
Y88575D01*
X76850Y85425D02*
X83150D01*
X76850D02*
Y88575D01*
X161850Y89575D02*
X168150D01*
Y86425D02*
Y89575D01*
X161850Y86425D02*
X168150D01*
X161850D02*
Y89575D01*
X76850Y82575D02*
X83150D01*
Y79425D02*
Y82575D01*
X76850Y79425D02*
X83150D01*
X76850D02*
Y82575D01*
X161850Y83575D02*
X168150D01*
Y80425D02*
Y83575D01*
X161850Y80425D02*
X168150D01*
X161850D02*
Y83575D01*
X76850Y76575D02*
X83150D01*
Y73425D02*
Y76575D01*
X76850Y73425D02*
X83150D01*
X76850D02*
Y76575D01*
X161850Y77575D02*
X168150D01*
Y74425D02*
Y77575D01*
X161850Y74425D02*
X168150D01*
X161850D02*
Y77575D01*
X76850Y70575D02*
X83150D01*
Y67425D02*
Y70575D01*
X76850Y67425D02*
X83150D01*
X76850D02*
Y70575D01*
X161850Y71575D02*
X168150D01*
Y68425D02*
Y71575D01*
X161850Y68425D02*
X168150D01*
X161850D02*
Y71575D01*
X76850Y64575D02*
X83150D01*
Y61425D02*
Y64575D01*
X76850Y61425D02*
X83150D01*
X76850D02*
Y64575D01*
X161850Y53575D02*
X168150D01*
Y50425D02*
Y53575D01*
X161850Y50425D02*
X168150D01*
X161850D02*
Y53575D01*
X145575Y25850D02*
Y32150D01*
X142425Y25850D02*
X145575D01*
X142425D02*
Y32150D01*
X145575D01*
X76850Y58575D02*
X83150D01*
Y55425D02*
Y58575D01*
X76850Y55425D02*
X83150D01*
X76850D02*
Y58575D01*
X139575Y25650D02*
Y31950D01*
X136425Y25650D02*
X139575D01*
X136425D02*
Y31950D01*
X139575D01*
X76850Y52575D02*
X83150D01*
Y49425D02*
Y52575D01*
X76850Y49425D02*
X83150D01*
X76850D02*
Y52575D01*
X133575Y25650D02*
Y31950D01*
X130425Y25650D02*
X133575D01*
X130425D02*
Y31950D01*
X133575D01*
X76850Y46575D02*
X83150D01*
Y43425D02*
Y46575D01*
X76850Y43425D02*
X83150D01*
X76850D02*
Y46575D01*
X127575Y25650D02*
Y31950D01*
X124425Y25650D02*
X127575D01*
X124425D02*
Y31950D01*
X127575D01*
X106425Y25650D02*
Y31950D01*
X109575D01*
Y25650D02*
Y31950D01*
X106425Y25650D02*
X109575D01*
X121575D02*
Y31950D01*
X118425Y25650D02*
X121575D01*
X118425D02*
Y31950D01*
X121575D01*
X115575Y25650D02*
Y31950D01*
X112425Y25650D02*
X115575D01*
X112425D02*
Y31950D01*
X115575D01*
X269850Y107425D02*
X276150D01*
X269850D02*
Y110575D01*
X276150D01*
Y107425D02*
Y110575D01*
X269850Y60425D02*
X276150D01*
X269850D02*
Y63575D01*
X276150D01*
Y60425D02*
Y63575D01*
X269850Y113425D02*
X276150D01*
X269850D02*
Y116575D01*
X276150D01*
Y113425D02*
Y116575D01*
X269850Y72425D02*
X276150D01*
X269850D02*
Y75575D01*
X276150D01*
Y72425D02*
Y75575D01*
X269850Y125425D02*
X276150D01*
X269850D02*
Y128575D01*
X276150D01*
Y125425D02*
Y128575D01*
X269850Y66425D02*
X276150D01*
X269850D02*
Y69575D01*
X276150D01*
Y66425D02*
Y69575D01*
X269850Y119425D02*
X276150D01*
X269850D02*
Y122575D01*
X276150D01*
Y119425D02*
Y122575D01*
X269850Y48425D02*
X276150D01*
X269850D02*
Y51575D01*
X276150D01*
Y48425D02*
Y51575D01*
X269850Y101425D02*
X276150D01*
X269850D02*
Y104575D01*
X276150D01*
Y101425D02*
Y104575D01*
X269850Y44575D02*
X276150D01*
Y41425D02*
Y44575D01*
X269850Y41425D02*
X276150D01*
X269850D02*
Y44575D01*
Y98575D02*
X276150D01*
Y95425D02*
Y98575D01*
X269850Y95425D02*
X276150D01*
X269850D02*
Y98575D01*
X306279Y288425D02*
X308839Y290984D01*
X306279Y283016D02*
Y290984D01*
Y283016D02*
X311201D01*
Y290984D01*
X306279D02*
X311201D01*
X225780Y288425D02*
X228339Y290984D01*
X225780Y283016D02*
Y290984D01*
Y283016D02*
X230701D01*
Y290984D01*
X225780D02*
X230701D01*
X205090Y276425D02*
X211390D01*
X205090D02*
Y279575D01*
X211390D01*
Y276425D02*
Y279575D01*
X285591Y294425D02*
X291890D01*
X285591D02*
Y297575D01*
X291890D01*
Y294425D02*
Y297575D01*
X325590Y276425D02*
X331890D01*
X325590D02*
Y279575D01*
X331890D01*
Y276425D02*
Y279575D01*
X245091Y276425D02*
X251390D01*
X245091D02*
Y279575D01*
X251390D01*
Y276425D02*
Y279575D01*
X325590Y297575D02*
X331890D01*
Y294425D02*
Y297575D01*
X325590Y294425D02*
X331890D01*
X325590D02*
Y297575D01*
X245091D02*
X251390D01*
Y294425D02*
Y297575D01*
X245091Y294425D02*
X251390D01*
X245091D02*
Y297575D01*
X306279Y255425D02*
X308839Y257984D01*
X306279Y250016D02*
Y257984D01*
Y250016D02*
X311201D01*
Y257984D01*
X306279D02*
X311201D01*
X285591Y243425D02*
X291890D01*
X285591D02*
Y246575D01*
X291890D01*
Y243425D02*
Y246575D01*
X285591Y261425D02*
X291890D01*
X285591D02*
Y264575D01*
X291890D01*
Y261425D02*
Y264575D01*
X325590Y243425D02*
X331890D01*
X325590D02*
Y246575D01*
X331890D01*
Y243425D02*
Y246575D01*
X245091Y243425D02*
X251390D01*
X245091D02*
Y246575D01*
X251390D01*
Y243425D02*
Y246575D01*
X325590Y264575D02*
X331890D01*
Y261425D02*
Y264575D01*
X325590Y261425D02*
X331890D01*
X325590D02*
Y264575D01*
X245091D02*
X251390D01*
Y261425D02*
Y264575D01*
X245091Y261425D02*
X251390D01*
X245091D02*
Y264575D01*
X521850Y171575D02*
X528150D01*
Y168425D02*
Y171575D01*
X521850Y168425D02*
X528150D01*
X521850D02*
Y171575D01*
Y161575D02*
X528150D01*
Y158425D02*
Y161575D01*
X521850Y158425D02*
X528150D01*
X521850D02*
Y161575D01*
Y151575D02*
X528150D01*
Y148425D02*
Y151575D01*
X521850Y148425D02*
X528150D01*
X521850D02*
Y151575D01*
Y141575D02*
X528150D01*
Y138425D02*
Y141575D01*
X521850Y138425D02*
X528150D01*
X521850D02*
Y141575D01*
Y131575D02*
X528150D01*
Y128425D02*
Y131575D01*
X521850Y128425D02*
X528150D01*
X521850D02*
Y131575D01*
Y121575D02*
X528150D01*
Y118425D02*
Y121575D01*
X521850Y118425D02*
X528150D01*
X521850D02*
Y121575D01*
Y111575D02*
X528150D01*
Y108425D02*
Y111575D01*
X521850Y108425D02*
X528150D01*
X521850D02*
Y111575D01*
Y101575D02*
X528150D01*
Y98425D02*
Y101575D01*
X521850Y98425D02*
X528150D01*
X521850D02*
Y101575D01*
X306279Y222425D02*
X308839Y224984D01*
X306279Y217016D02*
Y224984D01*
Y217016D02*
X311201D01*
Y224984D01*
X306279D02*
X311201D01*
X285591Y209425D02*
X291890D01*
X285591D02*
Y212575D01*
X291890D01*
Y209425D02*
Y212575D01*
X285591Y227425D02*
X291890D01*
X285591D02*
Y230575D01*
X291890D01*
Y227425D02*
Y230575D01*
X325590Y209425D02*
X331890D01*
X325590D02*
Y212575D01*
X331890D01*
Y209425D02*
Y212575D01*
X245091Y209425D02*
X251390D01*
X245091D02*
Y212575D01*
X251390D01*
Y209425D02*
Y212575D01*
X325590Y230575D02*
X331890D01*
Y227425D02*
Y230575D01*
X325590Y227425D02*
X331890D01*
X325590D02*
Y230575D01*
X245091D02*
X251390D01*
Y227425D02*
Y230575D01*
X245091Y227425D02*
X251390D01*
X245091D02*
Y230575D01*
X306279Y189425D02*
X308839Y191984D01*
X306279Y184016D02*
Y191984D01*
Y184016D02*
X311201D01*
Y191984D01*
X306279D02*
X311201D01*
X225780Y189425D02*
X228339Y191984D01*
X225780Y184016D02*
Y191984D01*
Y184016D02*
X230701D01*
Y191984D01*
X225780D02*
X230701D01*
X285591Y177425D02*
X291890D01*
X285591D02*
Y180575D01*
X291890D01*
Y177425D02*
Y180575D01*
X285591Y195425D02*
X291890D01*
X285591D02*
Y198575D01*
X291890D01*
Y195425D02*
Y198575D01*
X325590Y177425D02*
X331890D01*
X325590D02*
Y180575D01*
X331890D01*
Y177425D02*
Y180575D01*
X245091Y177425D02*
X251390D01*
X245091D02*
Y180575D01*
X251390D01*
Y177425D02*
Y180575D01*
X325590Y198575D02*
X331890D01*
Y195425D02*
Y198575D01*
X325590Y195425D02*
X331890D01*
X325590D02*
Y198575D01*
X245091D02*
X251390D01*
Y195425D02*
Y198575D01*
X245091Y195425D02*
X251390D01*
X245091D02*
Y198575D01*
D55*
X103429Y43429D02*
Y84571D01*
Y43429D02*
X144571D01*
Y84571D01*
X103429D02*
X144571D01*
M02*
