G04*
G04 #@! TF.GenerationSoftware,Altium Limited,Altium Designer,22.3.1 (43)*
G04*
G04 Layer_Color=32896*
%FSLAX25Y25*%
%MOIN*%
G70*
G04*
G04 #@! TF.SameCoordinates,F71B8339-E566-44E3-B05A-047308818BE7*
G04*
G04*
G04 #@! TF.FilePolarity,Positive*
G04*
G01*
G75*
%ADD11C,0.01000*%
%ADD13C,0.00500*%
D11*
X289001Y313002D02*
X292999D01*
Y315002D01*
X292333Y315668D01*
X291000D01*
X290334Y315002D01*
Y313002D01*
Y314335D02*
X289001Y315668D01*
Y317001D02*
Y318334D01*
Y317667D01*
X292999D01*
X292333Y317001D01*
X292999Y320333D02*
Y322999D01*
X292333D01*
X289667Y320333D01*
X289001D01*
Y326998D02*
Y324332D01*
X291666Y326998D01*
X292333D01*
X292999Y326331D01*
Y324998D01*
X292333Y324332D01*
X267001Y313669D02*
X270999D01*
Y315668D01*
X270333Y316335D01*
X269000D01*
X268334Y315668D01*
Y313669D01*
Y315002D02*
X267001Y316335D01*
Y317667D02*
Y319000D01*
Y318334D01*
X270999D01*
X270333Y317667D01*
X270999Y321000D02*
Y323665D01*
X270333D01*
X267667Y321000D01*
X267001D01*
Y324998D02*
Y326331D01*
Y325665D01*
X270999D01*
X270333Y324998D01*
X321001Y313002D02*
X324999D01*
Y315002D01*
X324333Y315668D01*
X323000D01*
X322334Y315002D01*
Y313002D01*
Y314335D02*
X321001Y315668D01*
Y317001D02*
Y318334D01*
Y317667D01*
X324999D01*
X324333Y317001D01*
X324999Y320333D02*
Y322999D01*
X324333D01*
X321667Y320333D01*
X321001D01*
X324333Y324332D02*
X324999Y324998D01*
Y326331D01*
X324333Y326998D01*
X321667D01*
X321001Y326331D01*
Y324998D01*
X321667Y324332D01*
X324333D01*
X308001Y313002D02*
X311999D01*
Y315002D01*
X311333Y315668D01*
X310000D01*
X309333Y315002D01*
Y313002D01*
Y314335D02*
X308001Y315668D01*
Y317001D02*
Y318334D01*
Y317667D01*
X311999D01*
X311333Y317001D01*
X311999Y322999D02*
X311333Y321666D01*
X310000Y320333D01*
X308667D01*
X308001Y321000D01*
Y322333D01*
X308667Y322999D01*
X309333D01*
X310000Y322333D01*
Y320333D01*
X308667Y324332D02*
X308001Y324998D01*
Y326331D01*
X308667Y326998D01*
X311333D01*
X311999Y326331D01*
Y324998D01*
X311333Y324332D01*
X310666D01*
X310000Y324998D01*
Y326998D01*
X470001Y241002D02*
X473999D01*
Y243002D01*
X473333Y243668D01*
X472000D01*
X471334Y243002D01*
Y241002D01*
Y242335D02*
X470001Y243668D01*
Y245001D02*
Y246334D01*
Y245667D01*
X473999D01*
X473333Y245001D01*
X473999Y250999D02*
Y248333D01*
X472000D01*
X472666Y249666D01*
Y250333D01*
X472000Y250999D01*
X470667D01*
X470001Y250333D01*
Y249000D01*
X470667Y248333D01*
X473999Y252332D02*
Y254998D01*
X473333D01*
X470667Y252332D01*
X470001D01*
X458001Y241002D02*
X461999D01*
Y243002D01*
X461333Y243668D01*
X460000D01*
X459334Y243002D01*
Y241002D01*
Y242335D02*
X458001Y243668D01*
Y245001D02*
Y246334D01*
Y245667D01*
X461999D01*
X461333Y245001D01*
X461999Y250999D02*
Y248333D01*
X460000D01*
X460666Y249666D01*
Y250333D01*
X460000Y250999D01*
X458667D01*
X458001Y250333D01*
Y249000D01*
X458667Y248333D01*
X461999Y254998D02*
X461333Y253665D01*
X460000Y252332D01*
X458667D01*
X458001Y252998D01*
Y254331D01*
X458667Y254998D01*
X459334D01*
X460000Y254331D01*
Y252332D01*
X445001Y241002D02*
X448999D01*
Y243002D01*
X448333Y243668D01*
X447000D01*
X446334Y243002D01*
Y241002D01*
Y242335D02*
X445001Y243668D01*
Y245001D02*
Y246334D01*
Y245667D01*
X448999D01*
X448333Y245001D01*
X448999Y250999D02*
Y248333D01*
X447000D01*
X447666Y249666D01*
Y250333D01*
X447000Y250999D01*
X445667D01*
X445001Y250333D01*
Y249000D01*
X445667Y248333D01*
X448999Y254998D02*
Y252332D01*
X447000D01*
X447666Y253665D01*
Y254331D01*
X447000Y254998D01*
X445667D01*
X445001Y254331D01*
Y252998D01*
X445667Y252332D01*
X432001Y241002D02*
X435999D01*
Y243002D01*
X435333Y243668D01*
X434000D01*
X433333Y243002D01*
Y241002D01*
Y242335D02*
X432001Y243668D01*
Y245001D02*
Y246334D01*
Y245667D01*
X435999D01*
X435333Y245001D01*
X435999Y250999D02*
Y248333D01*
X434000D01*
X434666Y249666D01*
Y250333D01*
X434000Y250999D01*
X432667D01*
X432001Y250333D01*
Y249000D01*
X432667Y248333D01*
X432001Y254331D02*
X435999D01*
X434000Y252332D01*
Y254998D01*
X420001Y241002D02*
X423999D01*
Y243002D01*
X423333Y243668D01*
X422000D01*
X421334Y243002D01*
Y241002D01*
Y242335D02*
X420001Y243668D01*
Y245001D02*
Y246334D01*
Y245667D01*
X423999D01*
X423333Y245001D01*
X423999Y250999D02*
Y248333D01*
X422000D01*
X422666Y249666D01*
Y250333D01*
X422000Y250999D01*
X420667D01*
X420001Y250333D01*
Y249000D01*
X420667Y248333D01*
X423333Y252332D02*
X423999Y252998D01*
Y254331D01*
X423333Y254998D01*
X422666D01*
X422000Y254331D01*
Y253665D01*
Y254331D01*
X421334Y254998D01*
X420667D01*
X420001Y254331D01*
Y252998D01*
X420667Y252332D01*
X407001Y240002D02*
X410999D01*
Y242002D01*
X410333Y242668D01*
X409000D01*
X408333Y242002D01*
Y240002D01*
Y241335D02*
X407001Y242668D01*
Y244001D02*
Y245334D01*
Y244667D01*
X410999D01*
X410333Y244001D01*
X410999Y249999D02*
Y247333D01*
X409000D01*
X409666Y248666D01*
Y249333D01*
X409000Y249999D01*
X407667D01*
X407001Y249333D01*
Y248000D01*
X407667Y247333D01*
X407001Y253998D02*
Y251332D01*
X409666Y253998D01*
X410333D01*
X410999Y253331D01*
Y251998D01*
X410333Y251332D01*
X394001Y241669D02*
X397999D01*
Y243668D01*
X397333Y244335D01*
X396000D01*
X395334Y243668D01*
Y241669D01*
Y243002D02*
X394001Y244335D01*
Y245667D02*
Y247000D01*
Y246334D01*
X397999D01*
X397333Y245667D01*
X397999Y251665D02*
Y249000D01*
X396000D01*
X396666Y250333D01*
Y250999D01*
X396000Y251665D01*
X394667D01*
X394001Y250999D01*
Y249666D01*
X394667Y249000D01*
X394001Y252998D02*
Y254331D01*
Y253665D01*
X397999D01*
X397333Y252998D01*
X380001Y241002D02*
X383999D01*
Y243002D01*
X383333Y243668D01*
X382000D01*
X381333Y243002D01*
Y241002D01*
Y242335D02*
X380001Y243668D01*
Y245001D02*
Y246334D01*
Y245667D01*
X383999D01*
X383333Y245001D01*
X383999Y250999D02*
Y248333D01*
X382000D01*
X382666Y249666D01*
Y250333D01*
X382000Y250999D01*
X380667D01*
X380001Y250333D01*
Y249000D01*
X380667Y248333D01*
X383333Y252332D02*
X383999Y252998D01*
Y254331D01*
X383333Y254998D01*
X380667D01*
X380001Y254331D01*
Y252998D01*
X380667Y252332D01*
X383333D01*
X385001Y313002D02*
X388999D01*
Y315002D01*
X388333Y315668D01*
X387000D01*
X386334Y315002D01*
Y313002D01*
Y314335D02*
X385001Y315668D01*
Y317001D02*
Y318334D01*
Y317667D01*
X388999D01*
X388333Y317001D01*
X385001Y322333D02*
X388999D01*
X387000Y320333D01*
Y322999D01*
X388999Y326998D02*
Y324332D01*
X387000D01*
X387666Y325665D01*
Y326331D01*
X387000Y326998D01*
X385667D01*
X385001Y326331D01*
Y324998D01*
X385667Y324332D01*
X402501Y314002D02*
X406499D01*
Y316002D01*
X405833Y316668D01*
X404500D01*
X403834Y316002D01*
Y314002D01*
Y315335D02*
X402501Y316668D01*
Y318001D02*
Y319334D01*
Y318667D01*
X406499D01*
X405833Y318001D01*
X402501Y323333D02*
X406499D01*
X404500Y321333D01*
Y323999D01*
X402501Y327331D02*
X406499D01*
X404500Y325332D01*
Y327998D01*
X470001Y115002D02*
X473999D01*
Y117002D01*
X473333Y117668D01*
X472000D01*
X471334Y117002D01*
Y115002D01*
Y116335D02*
X470001Y117668D01*
Y119001D02*
Y120334D01*
Y119667D01*
X473999D01*
X473333Y119001D01*
X470001Y124333D02*
X473999D01*
X472000Y122333D01*
Y124999D01*
X473333Y126332D02*
X473999Y126998D01*
Y128331D01*
X473333Y128998D01*
X472666D01*
X472000Y128331D01*
Y127665D01*
Y128331D01*
X471334Y128998D01*
X470667D01*
X470001Y128331D01*
Y126998D01*
X470667Y126332D01*
X458001Y115002D02*
X461999D01*
Y117002D01*
X461333Y117668D01*
X460000D01*
X459334Y117002D01*
Y115002D01*
Y116335D02*
X458001Y117668D01*
Y119001D02*
Y120334D01*
Y119667D01*
X461999D01*
X461333Y119001D01*
X458001Y124333D02*
X461999D01*
X460000Y122333D01*
Y124999D01*
X458001Y128998D02*
Y126332D01*
X460666Y128998D01*
X461333D01*
X461999Y128331D01*
Y126998D01*
X461333Y126332D01*
X445001Y115669D02*
X448999D01*
Y117668D01*
X448333Y118334D01*
X447000D01*
X446334Y117668D01*
Y115669D01*
Y117002D02*
X445001Y118334D01*
Y119667D02*
Y121000D01*
Y120334D01*
X448999D01*
X448333Y119667D01*
X445001Y124999D02*
X448999D01*
X447000Y123000D01*
Y125665D01*
X445001Y126998D02*
Y128331D01*
Y127665D01*
X448999D01*
X448333Y126998D01*
X432001Y115002D02*
X435999D01*
Y117002D01*
X435333Y117668D01*
X434000D01*
X433333Y117002D01*
Y115002D01*
Y116335D02*
X432001Y117668D01*
Y119001D02*
Y120334D01*
Y119667D01*
X435999D01*
X435333Y119001D01*
X432001Y124333D02*
X435999D01*
X434000Y122333D01*
Y124999D01*
X435333Y126332D02*
X435999Y126998D01*
Y128331D01*
X435333Y128998D01*
X432667D01*
X432001Y128331D01*
Y126998D01*
X432667Y126332D01*
X435333D01*
X420001Y115002D02*
X423999D01*
Y117002D01*
X423333Y117668D01*
X422000D01*
X421334Y117002D01*
Y115002D01*
Y116335D02*
X420001Y117668D01*
Y119001D02*
Y120334D01*
Y119667D01*
X423999D01*
X423333Y119001D01*
Y122333D02*
X423999Y123000D01*
Y124333D01*
X423333Y124999D01*
X422666D01*
X422000Y124333D01*
Y123666D01*
Y124333D01*
X421334Y124999D01*
X420667D01*
X420001Y124333D01*
Y123000D01*
X420667Y122333D01*
Y126332D02*
X420001Y126998D01*
Y128331D01*
X420667Y128998D01*
X423333D01*
X423999Y128331D01*
Y126998D01*
X423333Y126332D01*
X422666D01*
X422000Y126998D01*
Y128998D01*
X408001Y115002D02*
X411999D01*
Y117002D01*
X411333Y117668D01*
X410000D01*
X409334Y117002D01*
Y115002D01*
Y116335D02*
X408001Y117668D01*
Y119001D02*
Y120334D01*
Y119667D01*
X411999D01*
X411333Y119001D01*
Y122333D02*
X411999Y123000D01*
Y124333D01*
X411333Y124999D01*
X410666D01*
X410000Y124333D01*
Y123666D01*
Y124333D01*
X409334Y124999D01*
X408667D01*
X408001Y124333D01*
Y123000D01*
X408667Y122333D01*
X411333Y126332D02*
X411999Y126998D01*
Y128331D01*
X411333Y128998D01*
X410666D01*
X410000Y128331D01*
X409334Y128998D01*
X408667D01*
X408001Y128331D01*
Y126998D01*
X408667Y126332D01*
X409334D01*
X410000Y126998D01*
X410666Y126332D01*
X411333D01*
X410000Y126998D02*
Y128331D01*
X394001Y115002D02*
X397999D01*
Y117002D01*
X397333Y117668D01*
X396000D01*
X395334Y117002D01*
Y115002D01*
Y116335D02*
X394001Y117668D01*
Y119001D02*
Y120334D01*
Y119667D01*
X397999D01*
X397333Y119001D01*
Y122333D02*
X397999Y123000D01*
Y124333D01*
X397333Y124999D01*
X396666D01*
X396000Y124333D01*
Y123666D01*
Y124333D01*
X395334Y124999D01*
X394667D01*
X394001Y124333D01*
Y123000D01*
X394667Y122333D01*
X397999Y126332D02*
Y128998D01*
X397333D01*
X394667Y126332D01*
X394001D01*
X380001Y115002D02*
X383999D01*
Y117002D01*
X383333Y117668D01*
X382000D01*
X381334Y117002D01*
Y115002D01*
Y116335D02*
X380001Y117668D01*
Y119001D02*
Y120334D01*
Y119667D01*
X383999D01*
X383333Y119001D01*
Y122333D02*
X383999Y123000D01*
Y124333D01*
X383333Y124999D01*
X382666D01*
X382000Y124333D01*
Y123666D01*
Y124333D01*
X381334Y124999D01*
X380667D01*
X380001Y124333D01*
Y123000D01*
X380667Y122333D01*
X383999Y128998D02*
X383333Y127665D01*
X382000Y126332D01*
X380667D01*
X380001Y126998D01*
Y128331D01*
X380667Y128998D01*
X381334D01*
X382000Y128331D01*
Y126332D01*
X216001Y313002D02*
X219999D01*
Y315002D01*
X219333Y315668D01*
X218000D01*
X217334Y315002D01*
Y313002D01*
Y314335D02*
X216001Y315668D01*
Y317001D02*
Y318334D01*
Y317667D01*
X219999D01*
X219333Y317001D01*
Y320333D02*
X219999Y321000D01*
Y322333D01*
X219333Y322999D01*
X218666D01*
X218000Y322333D01*
Y321666D01*
Y322333D01*
X217334Y322999D01*
X216667D01*
X216001Y322333D01*
Y321000D01*
X216667Y320333D01*
X219999Y326998D02*
Y324332D01*
X218000D01*
X218666Y325665D01*
Y326331D01*
X218000Y326998D01*
X216667D01*
X216001Y326331D01*
Y324998D01*
X216667Y324332D01*
X203001Y313002D02*
X206999D01*
Y315002D01*
X206333Y315668D01*
X205000D01*
X204333Y315002D01*
Y313002D01*
Y314335D02*
X203001Y315668D01*
Y317001D02*
Y318334D01*
Y317667D01*
X206999D01*
X206333Y317001D01*
Y320333D02*
X206999Y321000D01*
Y322333D01*
X206333Y322999D01*
X205666D01*
X205000Y322333D01*
Y321666D01*
Y322333D01*
X204333Y322999D01*
X203667D01*
X203001Y322333D01*
Y321000D01*
X203667Y320333D01*
X203001Y326331D02*
X206999D01*
X205000Y324332D01*
Y326998D01*
X159001Y313002D02*
X162999D01*
Y315002D01*
X162333Y315668D01*
X161000D01*
X160334Y315002D01*
Y313002D01*
Y314335D02*
X159001Y315668D01*
Y317001D02*
Y318334D01*
Y317667D01*
X162999D01*
X162333Y317001D01*
Y320333D02*
X162999Y321000D01*
Y322333D01*
X162333Y322999D01*
X161666D01*
X161000Y322333D01*
Y321666D01*
Y322333D01*
X160334Y322999D01*
X159667D01*
X159001Y322333D01*
Y321000D01*
X159667Y320333D01*
X162333Y324332D02*
X162999Y324998D01*
Y326331D01*
X162333Y326998D01*
X161666D01*
X161000Y326331D01*
Y325665D01*
Y326331D01*
X160334Y326998D01*
X159667D01*
X159001Y326331D01*
Y324998D01*
X159667Y324332D01*
X191001Y313002D02*
X194999D01*
Y315002D01*
X194333Y315668D01*
X193000D01*
X192333Y315002D01*
Y313002D01*
Y314335D02*
X191001Y315668D01*
Y317001D02*
Y318334D01*
Y317667D01*
X194999D01*
X194333Y317001D01*
Y320333D02*
X194999Y321000D01*
Y322333D01*
X194333Y322999D01*
X193666D01*
X193000Y322333D01*
Y321666D01*
Y322333D01*
X192333Y322999D01*
X191667D01*
X191001Y322333D01*
Y321000D01*
X191667Y320333D01*
X191001Y326998D02*
Y324332D01*
X193666Y326998D01*
X194333D01*
X194999Y326331D01*
Y324998D01*
X194333Y324332D01*
X175001Y313669D02*
X178999D01*
Y315668D01*
X178333Y316335D01*
X177000D01*
X176333Y315668D01*
Y313669D01*
Y315002D02*
X175001Y316335D01*
Y317667D02*
Y319000D01*
Y318334D01*
X178999D01*
X178333Y317667D01*
Y321000D02*
X178999Y321666D01*
Y322999D01*
X178333Y323665D01*
X177666D01*
X177000Y322999D01*
Y322333D01*
Y322999D01*
X176333Y323665D01*
X175667D01*
X175001Y322999D01*
Y321666D01*
X175667Y321000D01*
X175001Y324998D02*
Y326331D01*
Y325665D01*
X178999D01*
X178333Y324998D01*
X354001Y313002D02*
X357999D01*
Y315002D01*
X357333Y315668D01*
X356000D01*
X355333Y315002D01*
Y313002D01*
Y314335D02*
X354001Y315668D01*
Y317001D02*
Y318334D01*
Y317667D01*
X357999D01*
X357333Y317001D01*
Y320333D02*
X357999Y321000D01*
Y322333D01*
X357333Y322999D01*
X356666D01*
X356000Y322333D01*
Y321666D01*
Y322333D01*
X355333Y322999D01*
X354667D01*
X354001Y322333D01*
Y321000D01*
X354667Y320333D01*
X357333Y324332D02*
X357999Y324998D01*
Y326331D01*
X357333Y326998D01*
X354667D01*
X354001Y326331D01*
Y324998D01*
X354667Y324332D01*
X357333D01*
X249001Y313002D02*
X252999D01*
Y315002D01*
X252333Y315668D01*
X251000D01*
X250334Y315002D01*
Y313002D01*
Y314335D02*
X249001Y315668D01*
Y317001D02*
Y318334D01*
Y317667D01*
X252999D01*
X252333Y317001D01*
X249001Y322999D02*
Y320333D01*
X251666Y322999D01*
X252333D01*
X252999Y322333D01*
Y321000D01*
X252333Y320333D01*
X249667Y324332D02*
X249001Y324998D01*
Y326331D01*
X249667Y326998D01*
X252333D01*
X252999Y326331D01*
Y324998D01*
X252333Y324332D01*
X251666D01*
X251000Y324998D01*
Y326998D01*
X234001Y313002D02*
X237999D01*
Y315002D01*
X237333Y315668D01*
X236000D01*
X235334Y315002D01*
Y313002D01*
Y314335D02*
X234001Y315668D01*
Y317001D02*
Y318334D01*
Y317667D01*
X237999D01*
X237333Y317001D01*
X234001Y322999D02*
Y320333D01*
X236666Y322999D01*
X237333D01*
X237999Y322333D01*
Y321000D01*
X237333Y320333D01*
Y324332D02*
X237999Y324998D01*
Y326331D01*
X237333Y326998D01*
X236666D01*
X236000Y326331D01*
X235334Y326998D01*
X234667D01*
X234001Y326331D01*
Y324998D01*
X234667Y324332D01*
X235334D01*
X236000Y324998D01*
X236666Y324332D01*
X237333D01*
X236000Y324998D02*
Y326331D01*
X76001Y313002D02*
X79999D01*
Y315002D01*
X79333Y315668D01*
X78000D01*
X77333Y315002D01*
Y313002D01*
Y314335D02*
X76001Y315668D01*
Y317001D02*
Y318334D01*
Y317667D01*
X79999D01*
X79333Y317001D01*
X76001Y322999D02*
Y320333D01*
X78666Y322999D01*
X79333D01*
X79999Y322333D01*
Y321000D01*
X79333Y320333D01*
X79999Y324332D02*
Y326998D01*
X79333D01*
X76667Y324332D01*
X76001D01*
X86001Y313002D02*
X89999D01*
Y315002D01*
X89333Y315668D01*
X88000D01*
X87334Y315002D01*
Y313002D01*
Y314335D02*
X86001Y315668D01*
Y317001D02*
Y318334D01*
Y317667D01*
X89999D01*
X89333Y317001D01*
X86001Y322999D02*
Y320333D01*
X88666Y322999D01*
X89333D01*
X89999Y322333D01*
Y321000D01*
X89333Y320333D01*
X89999Y326998D02*
X89333Y325665D01*
X88000Y324332D01*
X86667D01*
X86001Y324998D01*
Y326331D01*
X86667Y326998D01*
X87334D01*
X88000Y326331D01*
Y324332D01*
X96001Y313002D02*
X99999D01*
Y315002D01*
X99333Y315668D01*
X98000D01*
X97334Y315002D01*
Y313002D01*
Y314335D02*
X96001Y315668D01*
Y317001D02*
Y318334D01*
Y317667D01*
X99999D01*
X99333Y317001D01*
X96001Y322999D02*
Y320333D01*
X98666Y322999D01*
X99333D01*
X99999Y322333D01*
Y321000D01*
X99333Y320333D01*
X99999Y326998D02*
Y324332D01*
X98000D01*
X98666Y325665D01*
Y326331D01*
X98000Y326998D01*
X96667D01*
X96001Y326331D01*
Y324998D01*
X96667Y324332D01*
X106001Y313002D02*
X109999D01*
Y315002D01*
X109333Y315668D01*
X108000D01*
X107334Y315002D01*
Y313002D01*
Y314335D02*
X106001Y315668D01*
Y317001D02*
Y318334D01*
Y317667D01*
X109999D01*
X109333Y317001D01*
X106001Y322999D02*
Y320333D01*
X108667Y322999D01*
X109333D01*
X109999Y322333D01*
Y321000D01*
X109333Y320333D01*
X106001Y326331D02*
X109999D01*
X108000Y324332D01*
Y326998D01*
X116001Y313002D02*
X119999D01*
Y315002D01*
X119333Y315668D01*
X118000D01*
X117333Y315002D01*
Y313002D01*
Y314335D02*
X116001Y315668D01*
Y317001D02*
Y318334D01*
Y317667D01*
X119999D01*
X119333Y317001D01*
X116001Y322999D02*
Y320333D01*
X118667Y322999D01*
X119333D01*
X119999Y322333D01*
Y321000D01*
X119333Y320333D01*
Y324332D02*
X119999Y324998D01*
Y326331D01*
X119333Y326998D01*
X118667D01*
X118000Y326331D01*
Y325665D01*
Y326331D01*
X117333Y326998D01*
X116667D01*
X116001Y326331D01*
Y324998D01*
X116667Y324332D01*
X126001Y313002D02*
X129999D01*
Y315002D01*
X129333Y315668D01*
X128000D01*
X127333Y315002D01*
Y313002D01*
Y314335D02*
X126001Y315668D01*
Y317001D02*
Y318334D01*
Y317667D01*
X129999D01*
X129333Y317001D01*
X126001Y322999D02*
Y320333D01*
X128666Y322999D01*
X129333D01*
X129999Y322333D01*
Y321000D01*
X129333Y320333D01*
X126001Y326998D02*
Y324332D01*
X128666Y326998D01*
X129333D01*
X129999Y326331D01*
Y324998D01*
X129333Y324332D01*
X136001Y313669D02*
X139999D01*
Y315668D01*
X139333Y316335D01*
X138000D01*
X137334Y315668D01*
Y313669D01*
Y315002D02*
X136001Y316335D01*
Y317667D02*
Y319000D01*
Y318334D01*
X139999D01*
X139333Y317667D01*
X136001Y323665D02*
Y321000D01*
X138666Y323665D01*
X139333D01*
X139999Y322999D01*
Y321666D01*
X139333Y321000D01*
X136001Y324998D02*
Y326331D01*
Y325665D01*
X139999D01*
X139333Y324998D01*
X146001Y313002D02*
X149999D01*
Y315002D01*
X149333Y315668D01*
X148000D01*
X147334Y315002D01*
Y313002D01*
Y314335D02*
X146001Y315668D01*
Y317001D02*
Y318334D01*
Y317667D01*
X149999D01*
X149333Y317001D01*
X146001Y322999D02*
Y320333D01*
X148667Y322999D01*
X149333D01*
X149999Y322333D01*
Y321000D01*
X149333Y320333D01*
Y324332D02*
X149999Y324998D01*
Y326331D01*
X149333Y326998D01*
X146667D01*
X146001Y326331D01*
Y324998D01*
X146667Y324332D01*
X149333D01*
X517832Y93001D02*
Y96999D01*
X515832D01*
X515166Y96333D01*
Y95000D01*
X515832Y94334D01*
X517832D01*
X516499D02*
X515166Y93001D01*
X511834D02*
Y96999D01*
X513833Y95000D01*
X511167D01*
X509834Y96333D02*
X509168Y96999D01*
X507835D01*
X507168Y96333D01*
Y93667D01*
X507835Y93001D01*
X509168D01*
X509834Y93667D01*
Y96333D01*
X517832Y103001D02*
Y106999D01*
X515832D01*
X515166Y106333D01*
Y105000D01*
X515832Y104333D01*
X517832D01*
X516499D02*
X515166Y103001D01*
X513833Y106333D02*
X513166Y106999D01*
X511834D01*
X511167Y106333D01*
Y105666D01*
X511834Y105000D01*
X512500D01*
X511834D01*
X511167Y104333D01*
Y103667D01*
X511834Y103001D01*
X513166D01*
X513833Y103667D01*
X509834Y106333D02*
X509168Y106999D01*
X507835D01*
X507168Y106333D01*
Y105666D01*
X507835Y105000D01*
X507168Y104333D01*
Y103667D01*
X507835Y103001D01*
X509168D01*
X509834Y103667D01*
Y104333D01*
X509168Y105000D01*
X509834Y105666D01*
Y106333D01*
X509168Y105000D02*
X507835D01*
X517832Y113001D02*
Y116999D01*
X515832D01*
X515166Y116333D01*
Y115000D01*
X515832Y114333D01*
X517832D01*
X516499D02*
X515166Y113001D01*
X513833Y116333D02*
X513166Y116999D01*
X511834D01*
X511167Y116333D01*
Y115666D01*
X511834Y115000D01*
X512500D01*
X511834D01*
X511167Y114333D01*
Y113667D01*
X511834Y113001D01*
X513166D01*
X513833Y113667D01*
X507168Y116999D02*
X508501Y116333D01*
X509834Y115000D01*
Y113667D01*
X509168Y113001D01*
X507835D01*
X507168Y113667D01*
Y114333D01*
X507835Y115000D01*
X509834D01*
X517832Y123001D02*
Y126999D01*
X515832D01*
X515166Y126333D01*
Y125000D01*
X515832Y124334D01*
X517832D01*
X516499D02*
X515166Y123001D01*
X513833Y126333D02*
X513166Y126999D01*
X511834D01*
X511167Y126333D01*
Y125666D01*
X511834Y125000D01*
X512500D01*
X511834D01*
X511167Y124334D01*
Y123667D01*
X511834Y123001D01*
X513166D01*
X513833Y123667D01*
X507835Y123001D02*
Y126999D01*
X509834Y125000D01*
X507168D01*
X517832Y133001D02*
Y136999D01*
X515832D01*
X515166Y136333D01*
Y135000D01*
X515832Y134334D01*
X517832D01*
X516499D02*
X515166Y133001D01*
X513833Y136333D02*
X513166Y136999D01*
X511834D01*
X511167Y136333D01*
Y135667D01*
X511834Y135000D01*
X512500D01*
X511834D01*
X511167Y134334D01*
Y133667D01*
X511834Y133001D01*
X513166D01*
X513833Y133667D01*
X507168Y133001D02*
X509834D01*
X507168Y135667D01*
Y136333D01*
X507835Y136999D01*
X509168D01*
X509834Y136333D01*
X517832Y143001D02*
Y146999D01*
X515832D01*
X515166Y146333D01*
Y145000D01*
X515832Y144334D01*
X517832D01*
X516499D02*
X515166Y143001D01*
X513833Y146333D02*
X513166Y146999D01*
X511834D01*
X511167Y146333D01*
Y145667D01*
X511834Y145000D01*
X512500D01*
X511834D01*
X511167Y144334D01*
Y143667D01*
X511834Y143001D01*
X513166D01*
X513833Y143667D01*
X509834Y146333D02*
X509168Y146999D01*
X507835D01*
X507168Y146333D01*
Y143667D01*
X507835Y143001D01*
X509168D01*
X509834Y143667D01*
Y146333D01*
X517832Y153001D02*
Y156999D01*
X515832D01*
X515166Y156333D01*
Y155000D01*
X515832Y154333D01*
X517832D01*
X516499D02*
X515166Y153001D01*
X511167D02*
X513833D01*
X511167Y155666D01*
Y156333D01*
X511834Y156999D01*
X513166D01*
X513833Y156333D01*
X509834D02*
X509168Y156999D01*
X507835D01*
X507168Y156333D01*
Y155666D01*
X507835Y155000D01*
X507168Y154333D01*
Y153667D01*
X507835Y153001D01*
X509168D01*
X509834Y153667D01*
Y154333D01*
X509168Y155000D01*
X509834Y155666D01*
Y156333D01*
X509168Y155000D02*
X507835D01*
X517832Y163001D02*
Y166999D01*
X515832D01*
X515166Y166333D01*
Y165000D01*
X515832Y164333D01*
X517832D01*
X516499D02*
X515166Y163001D01*
X511167D02*
X513833D01*
X511167Y165666D01*
Y166333D01*
X511834Y166999D01*
X513166D01*
X513833Y166333D01*
X507168Y166999D02*
X508501Y166333D01*
X509834Y165000D01*
Y163667D01*
X509168Y163001D01*
X507835D01*
X507168Y163667D01*
Y164333D01*
X507835Y165000D01*
X509834D01*
X515998Y218001D02*
Y221999D01*
X513999D01*
X513333Y221333D01*
Y220000D01*
X513999Y219334D01*
X515998D01*
X514666D02*
X513333Y218001D01*
X512000D02*
X510667D01*
X511333D01*
Y221999D01*
X512000Y221333D01*
X506002Y221999D02*
X507335Y221333D01*
X508667Y220000D01*
Y218667D01*
X508001Y218001D01*
X506668D01*
X506002Y218667D01*
Y219334D01*
X506668Y220000D01*
X508667D01*
X515998Y228001D02*
Y231999D01*
X513999D01*
X513333Y231333D01*
Y230000D01*
X513999Y229334D01*
X515998D01*
X514666D02*
X513333Y228001D01*
X512000D02*
X510667D01*
X511333D01*
Y231999D01*
X512000Y231333D01*
X506002Y231999D02*
X508667D01*
Y230000D01*
X507335Y230666D01*
X506668D01*
X506002Y230000D01*
Y228667D01*
X506668Y228001D01*
X508001D01*
X508667Y228667D01*
X515998Y238001D02*
Y241999D01*
X513999D01*
X513333Y241333D01*
Y240000D01*
X513999Y239334D01*
X515998D01*
X514666D02*
X513333Y238001D01*
X512000D02*
X510667D01*
X511333D01*
Y241999D01*
X512000Y241333D01*
X506668Y238001D02*
Y241999D01*
X508667Y240000D01*
X506002D01*
X515998Y248001D02*
Y251999D01*
X513999D01*
X513333Y251333D01*
Y250000D01*
X513999Y249334D01*
X515998D01*
X514666D02*
X513333Y248001D01*
X512000D02*
X510667D01*
X511333D01*
Y251999D01*
X512000Y251333D01*
X508667D02*
X508001Y251999D01*
X506668D01*
X506002Y251333D01*
Y250666D01*
X506668Y250000D01*
X507335D01*
X506668D01*
X506002Y249334D01*
Y248667D01*
X506668Y248001D01*
X508001D01*
X508667Y248667D01*
X515998Y258001D02*
Y261999D01*
X513999D01*
X513333Y261333D01*
Y260000D01*
X513999Y259334D01*
X515998D01*
X514666D02*
X513333Y258001D01*
X512000D02*
X510667D01*
X511333D01*
Y261999D01*
X512000Y261333D01*
X506002Y258001D02*
X508667D01*
X506002Y260666D01*
Y261333D01*
X506668Y261999D01*
X508001D01*
X508667Y261333D01*
X515332Y268001D02*
Y271999D01*
X513333D01*
X512666Y271333D01*
Y270000D01*
X513333Y269334D01*
X515332D01*
X513999D02*
X512666Y268001D01*
X511334Y268667D02*
X510667Y268001D01*
X509334D01*
X508668Y268667D01*
Y271333D01*
X509334Y271999D01*
X510667D01*
X511334Y271333D01*
Y270666D01*
X510667Y270000D01*
X508668D01*
X515332Y278001D02*
Y281999D01*
X513333D01*
X512666Y281333D01*
Y280000D01*
X513333Y279334D01*
X515332D01*
X513999D02*
X512666Y278001D01*
X508668Y281999D02*
X510001Y281333D01*
X511334Y280000D01*
Y278667D01*
X510667Y278001D01*
X509334D01*
X508668Y278667D01*
Y279334D01*
X509334Y280000D01*
X511334D01*
X515332Y288001D02*
Y291999D01*
X513333D01*
X512666Y291333D01*
Y290000D01*
X513333Y289334D01*
X515332D01*
X513999D02*
X512666Y288001D01*
X511334Y291333D02*
X510667Y291999D01*
X509334D01*
X508668Y291333D01*
Y290666D01*
X509334Y290000D01*
X510001D01*
X509334D01*
X508668Y289334D01*
Y288667D01*
X509334Y288001D01*
X510667D01*
X511334Y288667D01*
X109667Y72333D02*
X110333Y72999D01*
X111666D01*
X112332Y72333D01*
Y69667D01*
X111666Y69001D01*
X110333D01*
X109667Y69667D01*
X105668Y72999D02*
X107001Y72333D01*
X108334Y71000D01*
Y69667D01*
X107667Y69001D01*
X106334D01*
X105668Y69667D01*
Y70334D01*
X106334Y71000D01*
X108334D01*
X141666Y65333D02*
X142333Y65999D01*
X143666D01*
X144332Y65333D01*
Y62667D01*
X143666Y62001D01*
X142333D01*
X141666Y62667D01*
X137668Y65999D02*
X140333D01*
Y64000D01*
X139001Y64666D01*
X138334D01*
X137668Y64000D01*
Y62667D01*
X138334Y62001D01*
X139667D01*
X140333Y62667D01*
X141666Y72333D02*
X142333Y72999D01*
X143666D01*
X144332Y72333D01*
Y69667D01*
X143666Y69001D01*
X142333D01*
X141666Y69667D01*
X138334Y69001D02*
Y72999D01*
X140333Y71000D01*
X137668D01*
X109667Y58333D02*
X110333Y58999D01*
X111666D01*
X112332Y58333D01*
Y55667D01*
X111666Y55001D01*
X110333D01*
X109667Y55667D01*
X108334Y58333D02*
X107667Y58999D01*
X106334D01*
X105668Y58333D01*
Y57666D01*
X106334Y57000D01*
X107001D01*
X106334D01*
X105668Y56334D01*
Y55667D01*
X106334Y55001D01*
X107667D01*
X108334Y55667D01*
X109667Y65333D02*
X110333Y65999D01*
X111666D01*
X112332Y65333D01*
Y62667D01*
X111666Y62001D01*
X110333D01*
X109667Y62667D01*
X105668Y62001D02*
X108334D01*
X105668Y64666D01*
Y65333D01*
X106334Y65999D01*
X107667D01*
X108334Y65333D01*
X140850Y58333D02*
X141517Y58999D01*
X142850D01*
X143516Y58333D01*
Y55667D01*
X142850Y55001D01*
X141517D01*
X140850Y55667D01*
X139517Y55001D02*
X138185D01*
X138851D01*
Y58999D01*
X139517Y58333D01*
D13*
X517600Y222500D02*
X521700D01*
X517600Y217500D02*
Y222500D01*
Y217500D02*
X521700D01*
X524200D02*
X528400D01*
Y222500D01*
X524300D02*
X528400D01*
X517600Y242500D02*
X521700D01*
X517600Y237500D02*
Y242500D01*
Y237500D02*
X521700D01*
X524200D02*
X528400D01*
Y242500D01*
X524300D02*
X528400D01*
X517600Y262500D02*
X521700D01*
X517600Y257500D02*
Y262500D01*
Y257500D02*
X521700D01*
X524200D02*
X528400D01*
Y262500D01*
X524300D02*
X528400D01*
X517600Y272500D02*
X521700D01*
X517600Y267500D02*
Y272500D01*
Y267500D02*
X521700D01*
X524200D02*
X528400D01*
Y272500D01*
X524300D02*
X528400D01*
X517600Y282500D02*
X521700D01*
X517600Y277500D02*
Y282500D01*
Y277500D02*
X521700D01*
X524200D02*
X528400D01*
Y282500D01*
X524300D02*
X528400D01*
X517600Y292500D02*
X521700D01*
X517600Y287500D02*
Y292500D01*
Y287500D02*
X521700D01*
X524200D02*
X528400D01*
Y292500D01*
X524300D02*
X528400D01*
X517600Y232500D02*
X521700D01*
X517600Y227500D02*
Y232500D01*
Y227500D02*
X521700D01*
X524200D02*
X528400D01*
Y232500D01*
X524300D02*
X528400D01*
X517600Y252500D02*
X521700D01*
X517600Y247500D02*
Y252500D01*
Y247500D02*
X521700D01*
X524200D02*
X528400D01*
Y252500D01*
X524300D02*
X528400D01*
X179500Y336300D02*
Y340400D01*
X174500D02*
X179500D01*
X174500Y336300D02*
Y340400D01*
Y329600D02*
Y333800D01*
Y329600D02*
X179500D01*
Y333700D01*
X163500Y336300D02*
Y340400D01*
X158500D02*
X163500D01*
X158500Y336300D02*
Y340400D01*
Y329600D02*
Y333800D01*
Y329600D02*
X163500D01*
Y333700D01*
X358500Y336300D02*
Y340400D01*
X353500D02*
X358500D01*
X353500Y336300D02*
Y340400D01*
Y329600D02*
Y333800D01*
Y329600D02*
X358500D01*
Y333700D01*
X271500Y336300D02*
Y340400D01*
X266500D02*
X271500D01*
X266500Y336300D02*
Y340400D01*
Y329600D02*
Y333800D01*
Y329600D02*
X271500D01*
Y333700D01*
X253500Y336300D02*
Y340400D01*
X248500D02*
X253500D01*
X248500Y336300D02*
Y340400D01*
Y329600D02*
Y333800D01*
Y329600D02*
X253500D01*
Y333700D01*
X312500Y336300D02*
Y340400D01*
X307500D02*
X312500D01*
X307500Y336300D02*
Y340400D01*
Y329600D02*
Y333800D01*
Y329600D02*
X312500D01*
Y333700D01*
X293500Y336300D02*
Y340400D01*
X288500D02*
X293500D01*
X288500Y336300D02*
Y340400D01*
Y329600D02*
Y333800D01*
Y329600D02*
X293500D01*
Y333700D01*
X325500Y336300D02*
Y340400D01*
X320500D02*
X325500D01*
X320500Y336300D02*
Y340400D01*
Y329600D02*
Y333800D01*
Y329600D02*
X325500D01*
Y333700D01*
X238500Y336300D02*
Y340400D01*
X233500D02*
X238500D01*
X233500Y336300D02*
Y340400D01*
Y329600D02*
Y333800D01*
Y329600D02*
X238500D01*
Y333700D01*
X195500Y336300D02*
Y340400D01*
X190500D02*
X195500D01*
X190500Y336300D02*
Y340400D01*
Y329600D02*
Y333800D01*
Y329600D02*
X195500D01*
Y333700D01*
X220500Y336300D02*
Y340400D01*
X215500D02*
X220500D01*
X215500Y336300D02*
Y340400D01*
Y329600D02*
Y333800D01*
Y329600D02*
X220500D01*
Y333700D01*
X207500Y336300D02*
Y340400D01*
X202500D02*
X207500D01*
X202500Y336300D02*
Y340400D01*
Y329600D02*
Y333800D01*
Y329600D02*
X207500D01*
Y333700D01*
X474500Y257100D02*
Y261200D01*
X469500Y257100D02*
X474500D01*
X469500D02*
Y261300D01*
Y263800D02*
Y267900D01*
X474500D01*
Y263800D02*
Y267900D01*
X424500Y257100D02*
Y261200D01*
X419500Y257100D02*
X424500D01*
X419500D02*
Y261300D01*
Y263800D02*
Y267900D01*
X424500D01*
Y263800D02*
Y267900D01*
X436500Y257100D02*
Y261200D01*
X431500Y257100D02*
X436500D01*
X431500D02*
Y261300D01*
Y263800D02*
Y267900D01*
X436500D01*
Y263800D02*
Y267900D01*
X398500Y257100D02*
Y261200D01*
X393500Y257100D02*
X398500D01*
X393500D02*
Y261300D01*
Y263800D02*
Y267900D01*
X398500D01*
Y263800D02*
Y267900D01*
X411500Y257100D02*
Y261200D01*
X406500Y257100D02*
X411500D01*
X406500D02*
Y261300D01*
Y263800D02*
Y267900D01*
X411500D01*
Y263800D02*
Y267900D01*
X462500Y257100D02*
Y261200D01*
X457500Y257100D02*
X462500D01*
X457500D02*
Y261300D01*
Y263800D02*
Y267900D01*
X462500D01*
Y263800D02*
Y267900D01*
X449500Y257100D02*
Y261200D01*
X444500Y257100D02*
X449500D01*
X444500D02*
Y261300D01*
Y263800D02*
Y267900D01*
X449500D01*
Y263800D02*
Y267900D01*
X384500Y257100D02*
Y261200D01*
X379500Y257100D02*
X384500D01*
X379500D02*
Y261300D01*
Y263800D02*
Y267900D01*
X384500D01*
Y263800D02*
Y267900D01*
X389500Y336300D02*
Y340400D01*
X384500D02*
X389500D01*
X384500Y336300D02*
Y340400D01*
Y329600D02*
Y333800D01*
Y329600D02*
X389500D01*
Y333700D01*
X407000Y336300D02*
Y340400D01*
X402000D02*
X407000D01*
X402000Y336300D02*
Y340400D01*
Y329600D02*
Y333800D01*
Y329600D02*
X407000D01*
Y333700D01*
X132300Y68500D02*
X136400D01*
Y73500D01*
X132300D02*
X136400D01*
X125600D02*
X129800D01*
X125600Y68500D02*
Y73500D01*
Y68500D02*
X129700D01*
X132150Y61500D02*
X136250D01*
Y66500D01*
X132150D02*
X136250D01*
X125450D02*
X129650D01*
X125450Y61500D02*
Y66500D01*
Y61500D02*
X129550D01*
X113600Y59500D02*
X117700D01*
X113600Y54500D02*
Y59500D01*
Y54500D02*
X117700D01*
X120200D02*
X124400D01*
Y59500D01*
X120300D02*
X124400D01*
X113600Y73500D02*
X117700D01*
X113600Y68500D02*
Y73500D01*
Y68500D02*
X117700D01*
X120200D02*
X124400D01*
Y73500D01*
X120300D02*
X124400D01*
X113600Y66500D02*
X117700D01*
X113600Y61500D02*
Y66500D01*
Y61500D02*
X117700D01*
X120200D02*
X124400D01*
Y66500D01*
X120300D02*
X124400D01*
X132300Y54500D02*
X136400D01*
Y59500D01*
X132300D02*
X136400D01*
X125600D02*
X129800D01*
X125600Y54500D02*
Y59500D01*
Y54500D02*
X129700D01*
X424500Y137300D02*
Y141400D01*
X419500D02*
X424500D01*
X419500Y137300D02*
Y141400D01*
Y130600D02*
Y134800D01*
Y130600D02*
X424500D01*
Y134700D01*
X398500Y137300D02*
Y141400D01*
X393500D02*
X398500D01*
X393500Y137300D02*
Y141400D01*
Y130600D02*
Y134800D01*
Y130600D02*
X398500D01*
Y134700D01*
X384500Y137300D02*
Y141400D01*
X379500D02*
X384500D01*
X379500Y137300D02*
Y141400D01*
Y130600D02*
Y134800D01*
Y130600D02*
X384500D01*
Y134700D01*
X436500Y137300D02*
Y141400D01*
X431500D02*
X436500D01*
X431500Y137300D02*
Y141400D01*
Y130600D02*
Y134800D01*
Y130600D02*
X436500D01*
Y134700D01*
X462500Y137300D02*
Y141400D01*
X457500D02*
X462500D01*
X457500Y137300D02*
Y141400D01*
Y130600D02*
Y134800D01*
Y130600D02*
X462500D01*
Y134700D01*
X474500Y137300D02*
Y141400D01*
X469500D02*
X474500D01*
X469500Y137300D02*
Y141400D01*
Y130600D02*
Y134800D01*
Y130600D02*
X474500D01*
Y134700D01*
X412500Y137300D02*
Y141400D01*
X407500D02*
X412500D01*
X407500Y137300D02*
Y141400D01*
Y130600D02*
Y134800D01*
Y130600D02*
X412500D01*
Y134700D01*
X449500Y137300D02*
Y141400D01*
X444500D02*
X449500D01*
X444500Y137300D02*
Y141400D01*
Y130600D02*
Y134800D01*
Y130600D02*
X449500D01*
Y134700D01*
X150500Y336300D02*
Y340400D01*
X145500D02*
X150500D01*
X145500Y336300D02*
Y340400D01*
Y329600D02*
Y333800D01*
Y329600D02*
X150500D01*
Y333700D01*
X140500Y336300D02*
Y340400D01*
X135500D02*
X140500D01*
X135500Y336300D02*
Y340400D01*
Y329600D02*
Y333800D01*
Y329600D02*
X140500D01*
Y333700D01*
X120500Y336300D02*
Y340400D01*
X115500D02*
X120500D01*
X115500Y336300D02*
Y340400D01*
Y329600D02*
Y333800D01*
Y329600D02*
X120500D01*
Y333700D01*
X130500Y336300D02*
Y340400D01*
X125500D02*
X130500D01*
X125500Y336300D02*
Y340400D01*
Y329600D02*
Y333800D01*
Y329600D02*
X130500D01*
Y333700D01*
X110500Y336300D02*
Y340400D01*
X105500D02*
X110500D01*
X105500Y336300D02*
Y340400D01*
Y329600D02*
Y333800D01*
Y329600D02*
X110500D01*
Y333700D01*
X100500Y336300D02*
Y340400D01*
X95500D02*
X100500D01*
X95500Y336300D02*
Y340400D01*
Y329600D02*
Y333800D01*
Y329600D02*
X100500D01*
Y333700D01*
X90500Y336300D02*
Y340400D01*
X85500D02*
X90500D01*
X85500Y336300D02*
Y340400D01*
Y329600D02*
Y333800D01*
Y329600D02*
X90500D01*
Y333700D01*
X80500Y336300D02*
Y340400D01*
X75500D02*
X80500D01*
X75500Y336300D02*
Y340400D01*
Y329600D02*
Y333800D01*
Y329600D02*
X80500D01*
Y333700D01*
X526300Y162500D02*
X530400D01*
Y167500D01*
X526300D02*
X530400D01*
X519600D02*
X523800D01*
X519600Y162500D02*
Y167500D01*
Y162500D02*
X523700D01*
X526300Y92500D02*
X530400D01*
Y97500D01*
X526300D02*
X530400D01*
X519600D02*
X523800D01*
X519600Y92500D02*
Y97500D01*
Y92500D02*
X523700D01*
X526300Y122500D02*
X530400D01*
Y127500D01*
X526300D02*
X530400D01*
X519600D02*
X523800D01*
X519600Y122500D02*
Y127500D01*
Y122500D02*
X523700D01*
X526300Y142500D02*
X530400D01*
Y147500D01*
X526300D02*
X530400D01*
X519600D02*
X523800D01*
X519600Y142500D02*
Y147500D01*
Y142500D02*
X523700D01*
X526300Y132500D02*
X530400D01*
Y137500D01*
X526300D02*
X530400D01*
X519600D02*
X523800D01*
X519600Y132500D02*
Y137500D01*
Y132500D02*
X523700D01*
X526300Y152500D02*
X530400D01*
Y157500D01*
X526300D02*
X530400D01*
X519600D02*
X523800D01*
X519600Y152500D02*
Y157500D01*
Y152500D02*
X523700D01*
X526300Y112500D02*
X530400D01*
Y117500D01*
X526300D02*
X530400D01*
X519600D02*
X523800D01*
X519600Y112500D02*
Y117500D01*
Y112500D02*
X523700D01*
X526300Y102500D02*
X530400D01*
Y107500D01*
X526300D02*
X530400D01*
X519600D02*
X523800D01*
X519600Y102500D02*
Y107500D01*
Y102500D02*
X523700D01*
M02*
