G04*
G04 #@! TF.GenerationSoftware,Altium Limited,Altium Designer,22.3.1 (43)*
G04*
G04 Layer_Color=12632256*
%FSLAX25Y25*%
%MOIN*%
G70*
G04*
G04 #@! TF.SameCoordinates,F71B8339-E566-44E3-B05A-047308818BE7*
G04*
G04*
G04 #@! TF.FilePolarity,Positive*
G04*
G01*
G75*
%ADD40R,0.05906X0.05906*%
%ADD41C,0.20000*%
%ADD42C,0.05906*%
%ADD43R,0.05906X0.05906*%
%ADD44C,0.06000*%
%ADD45R,0.06000X0.06000*%
D40*
X142000Y249000D02*
D03*
X100000Y204000D02*
D03*
X114000D02*
D03*
X141000Y291000D02*
D03*
X142000Y204000D02*
D03*
X128000D02*
D03*
X170000D02*
D03*
X156000D02*
D03*
X170000Y240000D02*
D03*
Y222000D02*
D03*
X162000Y164000D02*
D03*
X373000Y332000D02*
D03*
X148000Y164000D02*
D03*
X134000D02*
D03*
X154000Y108000D02*
D03*
X237500Y17500D02*
D03*
X225000D02*
D03*
X212500D02*
D03*
X200000D02*
D03*
X187500D02*
D03*
X175000D02*
D03*
X162500D02*
D03*
D41*
X20000Y380000D02*
D03*
X540000D02*
D03*
Y20000D02*
D03*
X20000D02*
D03*
D42*
X170000Y140000D02*
D03*
X180000D02*
D03*
X170000Y130000D02*
D03*
X180000D02*
D03*
X170000Y120000D02*
D03*
X550000Y290000D02*
D03*
X540000Y280000D02*
D03*
X550000D02*
D03*
X540000Y270000D02*
D03*
X550000D02*
D03*
X540000Y260000D02*
D03*
X550000D02*
D03*
X540000Y250000D02*
D03*
X550000D02*
D03*
X540000Y240000D02*
D03*
X550000D02*
D03*
X540000Y230000D02*
D03*
X550000D02*
D03*
X540000Y220000D02*
D03*
X550000D02*
D03*
Y170000D02*
D03*
X540000Y160000D02*
D03*
X550000D02*
D03*
X540000Y150000D02*
D03*
X550000D02*
D03*
X540000Y140000D02*
D03*
X550000D02*
D03*
X540000Y130000D02*
D03*
X550000D02*
D03*
X540000Y120000D02*
D03*
X550000D02*
D03*
X540000Y110000D02*
D03*
X550000D02*
D03*
X540000Y100000D02*
D03*
X550000D02*
D03*
D43*
X180000Y120000D02*
D03*
X540000Y290000D02*
D03*
Y170000D02*
D03*
D44*
X30000Y120000D02*
D03*
Y130000D02*
D03*
Y140000D02*
D03*
Y150000D02*
D03*
Y160000D02*
D03*
Y170000D02*
D03*
Y180000D02*
D03*
X20000Y120000D02*
D03*
Y130000D02*
D03*
Y140000D02*
D03*
Y150000D02*
D03*
Y160000D02*
D03*
Y170000D02*
D03*
X30000Y190000D02*
D03*
X20000Y180000D02*
D03*
D45*
Y190000D02*
D03*
M02*
