G04*
G04 #@! TF.GenerationSoftware,Altium Limited,Altium Designer,22.3.1 (43)*
G04*
G04 Layer_Color=16711935*
%FSLAX25Y25*%
%MOIN*%
G70*
G04*
G04 #@! TF.SameCoordinates,F71B8339-E566-44E3-B05A-047308818BE7*
G04*
G04*
G04 #@! TF.FilePolarity,Negative*
G04*
G01*
G75*
%ADD25R,0.03950X0.04540*%
%ADD30R,0.04540X0.03950*%
%ADD33R,0.06706X0.06706*%
%ADD34C,0.20800*%
%ADD35C,0.06706*%
%ADD36R,0.06706X0.06706*%
%ADD37C,0.06800*%
%ADD38R,0.06800X0.06800*%
%ADD39C,0.05800*%
D25*
X526150Y220000D02*
D03*
X519850D02*
D03*
X526150Y240000D02*
D03*
X519850D02*
D03*
X526150Y260000D02*
D03*
X519850D02*
D03*
X526150Y270000D02*
D03*
X519850D02*
D03*
X526150Y280000D02*
D03*
X519850D02*
D03*
X526150Y290000D02*
D03*
X519850D02*
D03*
X526150Y230000D02*
D03*
X519850D02*
D03*
X526150Y250000D02*
D03*
X519850D02*
D03*
X127850Y71000D02*
D03*
X134150D02*
D03*
X127701Y64000D02*
D03*
X134000D02*
D03*
X122150Y57000D02*
D03*
X115850D02*
D03*
X122150Y71000D02*
D03*
X115850D02*
D03*
X122150Y64000D02*
D03*
X115850D02*
D03*
X127850Y57000D02*
D03*
X134150D02*
D03*
X521850Y165000D02*
D03*
X528150D02*
D03*
X521850Y95000D02*
D03*
X528150D02*
D03*
X521850Y125000D02*
D03*
X528150D02*
D03*
X521850Y145000D02*
D03*
X528150D02*
D03*
X521850Y135000D02*
D03*
X528150D02*
D03*
X521850Y155000D02*
D03*
X528150D02*
D03*
X521850Y115000D02*
D03*
X528150D02*
D03*
X521850Y105000D02*
D03*
X528150D02*
D03*
D30*
X177000Y331850D02*
D03*
Y338150D02*
D03*
X161000Y331850D02*
D03*
Y338150D02*
D03*
X356000Y331850D02*
D03*
Y338150D02*
D03*
X269000Y331850D02*
D03*
Y338150D02*
D03*
X251000Y331850D02*
D03*
Y338150D02*
D03*
X310000Y331850D02*
D03*
Y338150D02*
D03*
X291000Y331850D02*
D03*
Y338150D02*
D03*
X323000Y331850D02*
D03*
Y338150D02*
D03*
X236000Y331850D02*
D03*
Y338150D02*
D03*
X193000Y331850D02*
D03*
Y338150D02*
D03*
X218000Y331850D02*
D03*
Y338150D02*
D03*
X205000Y331850D02*
D03*
Y338150D02*
D03*
X472000Y265650D02*
D03*
Y259350D02*
D03*
X422000Y265650D02*
D03*
Y259350D02*
D03*
X434000Y265650D02*
D03*
Y259350D02*
D03*
X396000Y265650D02*
D03*
Y259350D02*
D03*
X409000Y265650D02*
D03*
Y259350D02*
D03*
X460000Y265650D02*
D03*
Y259350D02*
D03*
X447000Y265650D02*
D03*
Y259350D02*
D03*
X382000Y265650D02*
D03*
Y259350D02*
D03*
X387000Y331850D02*
D03*
Y338150D02*
D03*
X404500Y331850D02*
D03*
Y338150D02*
D03*
X422000Y132850D02*
D03*
Y139150D02*
D03*
X396000Y132850D02*
D03*
Y139150D02*
D03*
X382000Y132850D02*
D03*
Y139150D02*
D03*
X434000Y132850D02*
D03*
Y139150D02*
D03*
X460000Y132850D02*
D03*
Y139150D02*
D03*
X472000Y132850D02*
D03*
Y139150D02*
D03*
X410000Y132850D02*
D03*
Y139150D02*
D03*
X447000Y132850D02*
D03*
Y139150D02*
D03*
X148000Y331850D02*
D03*
Y338150D02*
D03*
X138000Y331850D02*
D03*
Y338150D02*
D03*
X118000Y331850D02*
D03*
Y338150D02*
D03*
X128000Y331850D02*
D03*
Y338150D02*
D03*
X108000Y331850D02*
D03*
Y338150D02*
D03*
X98000Y331850D02*
D03*
Y338150D02*
D03*
X88000Y331850D02*
D03*
Y338150D02*
D03*
X78000Y331850D02*
D03*
Y338150D02*
D03*
D33*
X142000Y249000D02*
D03*
X100000Y204000D02*
D03*
X114000D02*
D03*
X141000Y291000D02*
D03*
X142000Y204000D02*
D03*
X128000D02*
D03*
X170000D02*
D03*
X156000D02*
D03*
X170000Y240000D02*
D03*
Y222000D02*
D03*
X162000Y164000D02*
D03*
X373000Y332000D02*
D03*
X148000Y164000D02*
D03*
X134000D02*
D03*
X154000Y108000D02*
D03*
X237500Y17500D02*
D03*
X225000D02*
D03*
X212500D02*
D03*
X200000D02*
D03*
X187500D02*
D03*
X175000D02*
D03*
X162500D02*
D03*
D34*
X20000Y380000D02*
D03*
X540000D02*
D03*
Y20000D02*
D03*
X20000D02*
D03*
D35*
X170000Y140000D02*
D03*
X180000D02*
D03*
X170000Y130000D02*
D03*
X180000D02*
D03*
X170000Y120000D02*
D03*
X550000Y290000D02*
D03*
X540000Y280000D02*
D03*
X550000D02*
D03*
X540000Y270000D02*
D03*
X550000D02*
D03*
X540000Y260000D02*
D03*
X550000D02*
D03*
X540000Y250000D02*
D03*
X550000D02*
D03*
X540000Y240000D02*
D03*
X550000D02*
D03*
X540000Y230000D02*
D03*
X550000D02*
D03*
X540000Y220000D02*
D03*
X550000D02*
D03*
Y170000D02*
D03*
X540000Y160000D02*
D03*
X550000D02*
D03*
X540000Y150000D02*
D03*
X550000D02*
D03*
X540000Y140000D02*
D03*
X550000D02*
D03*
X540000Y130000D02*
D03*
X550000D02*
D03*
X540000Y120000D02*
D03*
X550000D02*
D03*
X540000Y110000D02*
D03*
X550000D02*
D03*
X540000Y100000D02*
D03*
X550000D02*
D03*
D36*
X180000Y120000D02*
D03*
X540000Y290000D02*
D03*
Y170000D02*
D03*
D37*
X30000Y120000D02*
D03*
Y130000D02*
D03*
Y140000D02*
D03*
Y150000D02*
D03*
Y160000D02*
D03*
Y170000D02*
D03*
Y180000D02*
D03*
X20000Y120000D02*
D03*
Y130000D02*
D03*
Y140000D02*
D03*
Y150000D02*
D03*
Y160000D02*
D03*
Y170000D02*
D03*
X30000Y190000D02*
D03*
X20000Y180000D02*
D03*
D38*
Y190000D02*
D03*
D39*
X268000Y191000D02*
D03*
X260000Y169000D02*
D03*
X236000Y207000D02*
D03*
X305000Y179000D02*
D03*
X357000Y181000D02*
D03*
X369000D02*
D03*
X440000Y170000D02*
D03*
X283000Y155000D02*
D03*
X260000Y154000D02*
D03*
X345000Y144000D02*
D03*
X329000Y150000D02*
D03*
X357000Y144000D02*
D03*
X291000Y154000D02*
D03*
X313000Y153000D02*
D03*
X302000Y155000D02*
D03*
X274000Y157000D02*
D03*
X440500Y141000D02*
D03*
X298000Y12000D02*
D03*
X322000Y17000D02*
D03*
X144000Y13000D02*
D03*
X397000Y100000D02*
D03*
X440000Y118000D02*
D03*
X380000Y108000D02*
D03*
X419000Y32000D02*
D03*
X177000Y288000D02*
D03*
X176500Y275000D02*
D03*
X346000Y322000D02*
D03*
X474700Y183700D02*
D03*
X399900Y83900D02*
D03*
X388800Y84000D02*
D03*
X502100Y297800D02*
D03*
X292300Y63000D02*
D03*
X366900Y291100D02*
D03*
X338400Y286600D02*
D03*
X253300Y37700D02*
D03*
X261600Y17700D02*
D03*
X245000Y65600D02*
D03*
X244000Y75000D02*
D03*
X476000Y169000D02*
D03*
X422000Y212000D02*
D03*
X479200Y222200D02*
D03*
X261600Y126400D02*
D03*
X262400Y207900D02*
D03*
X257300Y188400D02*
D03*
X256000Y289300D02*
D03*
X270200Y294700D02*
D03*
X282200Y172500D02*
D03*
X291500Y134500D02*
D03*
X226000Y166000D02*
D03*
X238000Y167000D02*
D03*
X212000Y236000D02*
D03*
X227000Y197000D02*
D03*
X248000Y153000D02*
D03*
X235000Y237000D02*
D03*
X373000Y36000D02*
D03*
X304000Y204000D02*
D03*
X302000Y234000D02*
D03*
X372000Y193000D02*
D03*
X467000Y169000D02*
D03*
X488000Y139000D02*
D03*
X514000Y87000D02*
D03*
Y47000D02*
D03*
X478000Y68000D02*
D03*
X494000Y130000D02*
D03*
Y105000D02*
D03*
X502000Y135000D02*
D03*
X354000Y208000D02*
D03*
X355000Y221000D02*
D03*
X351000Y186000D02*
D03*
X272000Y282000D02*
D03*
X271828Y272000D02*
D03*
X279000Y269000D02*
D03*
X288000Y143000D02*
D03*
X273000Y173000D02*
D03*
X352000Y176000D02*
D03*
X259000Y179500D02*
D03*
X340000Y197000D02*
D03*
X245000Y123000D02*
D03*
X243000Y42000D02*
D03*
X260000Y135000D02*
D03*
X269000Y134000D02*
D03*
X256000Y88000D02*
D03*
X221000Y153000D02*
D03*
X209000Y92000D02*
D03*
X156000Y251000D02*
D03*
X296000Y116000D02*
D03*
X301000Y126000D02*
D03*
X305000Y102000D02*
D03*
Y110000D02*
D03*
X286000Y87000D02*
D03*
X297000Y147000D02*
D03*
X374000Y100000D02*
D03*
X358000D02*
D03*
X308000Y81000D02*
D03*
X320000Y79000D02*
D03*
X466000Y122000D02*
D03*
X178500Y256000D02*
D03*
Y265000D02*
D03*
X178000Y193000D02*
D03*
X197000Y221000D02*
D03*
X208000Y153000D02*
D03*
X198500Y179000D02*
D03*
X209000Y271000D02*
D03*
X214000Y166000D02*
D03*
X215000Y158000D02*
D03*
X259000Y245000D02*
D03*
X180000Y155000D02*
D03*
X366000Y73000D02*
D03*
X275964Y136500D02*
D03*
X309000Y12000D02*
D03*
X68000Y39000D02*
D03*
X290000Y17000D02*
D03*
X126000Y13000D02*
D03*
X285000Y23000D02*
D03*
X284000Y42000D02*
D03*
X291000D02*
D03*
X292000Y52000D02*
D03*
X138000Y19618D02*
D03*
X74000Y297000D02*
D03*
X89000Y288000D02*
D03*
Y264000D02*
D03*
X203000Y165000D02*
D03*
X226000Y211000D02*
D03*
X403000Y143000D02*
D03*
X375000Y142000D02*
D03*
X379000Y73000D02*
D03*
X341000Y211000D02*
D03*
X389000Y141000D02*
D03*
X95000Y34000D02*
D03*
X81000D02*
D03*
X94000Y103000D02*
D03*
X283000Y68000D02*
D03*
X284000Y103000D02*
D03*
X201000Y46000D02*
D03*
X108000Y19000D02*
D03*
X339000Y73000D02*
D03*
X295000Y24000D02*
D03*
X310000D02*
D03*
X308000Y69000D02*
D03*
X296000Y74000D02*
D03*
X308000Y59000D02*
D03*
X223000Y82000D02*
D03*
X358000Y229000D02*
D03*
X341000D02*
D03*
X215000Y105000D02*
D03*
Y115000D02*
D03*
X308000Y49000D02*
D03*
X215000Y56000D02*
D03*
X223000Y61500D02*
D03*
X215000Y66000D02*
D03*
Y77000D02*
D03*
X223000Y72000D02*
D03*
X403000Y49000D02*
D03*
Y59000D02*
D03*
Y69000D02*
D03*
X286000Y109000D02*
D03*
X404000Y78000D02*
D03*
X429000Y73000D02*
D03*
X197000Y197000D02*
D03*
Y263000D02*
D03*
Y296000D02*
D03*
X306000Y120000D02*
D03*
X489000Y167000D02*
D03*
X321000Y141000D02*
D03*
X308000Y143000D02*
D03*
X501000Y163000D02*
D03*
X349000Y96000D02*
D03*
X346000Y105000D02*
D03*
X502000Y145000D02*
D03*
X354000Y122000D02*
D03*
X346000Y115000D02*
D03*
X336000Y139000D02*
D03*
X268000Y83000D02*
D03*
X285000Y121000D02*
D03*
Y97000D02*
D03*
X73000Y187000D02*
D03*
X102000Y190500D02*
D03*
X74000Y173000D02*
D03*
X114000Y186000D02*
D03*
X83000Y171000D02*
D03*
X106000Y181000D02*
D03*
X124000Y190000D02*
D03*
X68000Y196000D02*
D03*
X63000Y301000D02*
D03*
X99000Y282000D02*
D03*
X227000Y315000D02*
D03*
X237000D02*
D03*
X245000D02*
D03*
X99000Y270000D02*
D03*
X121000Y298000D02*
D03*
X36000Y322000D02*
D03*
X291000Y319000D02*
D03*
X44000Y54000D02*
D03*
X52000Y48000D02*
D03*
X89000Y276000D02*
D03*
X326000Y98000D02*
D03*
Y127000D02*
D03*
X315000Y64000D02*
D03*
X472000Y89000D02*
D03*
X315000Y54000D02*
D03*
X460000Y89000D02*
D03*
X447000D02*
D03*
X356000Y55000D02*
D03*
Y64000D02*
D03*
X510000Y40000D02*
D03*
X495000Y35000D02*
D03*
X441000Y50500D02*
D03*
X427000Y36000D02*
D03*
Y46000D02*
D03*
X441000Y31000D02*
D03*
X502000Y110000D02*
D03*
X485000Y30000D02*
D03*
X463000Y26000D02*
D03*
Y52000D02*
D03*
X138000Y266000D02*
D03*
Y276000D02*
D03*
X359000Y245000D02*
D03*
X341000D02*
D03*
X364000Y255000D02*
D03*
X341000D02*
D03*
X243000Y99000D02*
D03*
X98000Y181000D02*
D03*
X205000Y316000D02*
D03*
X81000Y17000D02*
D03*
Y25000D02*
D03*
X101000Y134000D02*
D03*
Y165000D02*
D03*
Y155000D02*
D03*
Y145000D02*
D03*
X136000Y116000D02*
D03*
X155000Y122000D02*
D03*
X140000Y152000D02*
D03*
X133000Y129000D02*
D03*
X136000Y227000D02*
D03*
Y237000D02*
D03*
X70000Y232000D02*
D03*
Y224000D02*
D03*
Y217000D02*
D03*
Y209000D02*
D03*
X43000Y236000D02*
D03*
X61000Y63000D02*
D03*
X67000Y69000D02*
D03*
X60000Y75000D02*
D03*
Y87000D02*
D03*
X67000Y81000D02*
D03*
X75000Y130000D02*
D03*
Y120000D02*
D03*
Y140000D02*
D03*
Y160000D02*
D03*
Y150000D02*
D03*
X197000Y211000D02*
D03*
X196000Y245000D02*
D03*
Y278000D02*
D03*
X274000Y263000D02*
D03*
X277000Y312000D02*
D03*
Y287000D02*
D03*
X269000Y312000D02*
D03*
X261000Y308000D02*
D03*
X358000Y303000D02*
D03*
X369000Y310000D02*
D03*
X358000Y290000D02*
D03*
X348000D02*
D03*
Y303000D02*
D03*
X416000Y338000D02*
D03*
X336000Y341000D02*
D03*
X159000Y61000D02*
D03*
X151000Y53000D02*
D03*
X122000Y97000D02*
D03*
X71000Y271000D02*
D03*
X63000Y279000D02*
D03*
X21000Y277000D02*
D03*
X279000Y344000D02*
D03*
X227000D02*
D03*
X169000D02*
D03*
X472000Y146000D02*
D03*
X460000D02*
D03*
X447000D02*
D03*
X434000D02*
D03*
X422000D02*
D03*
X410000D02*
D03*
X396000D02*
D03*
X382000D02*
D03*
X472000Y273000D02*
D03*
X460000D02*
D03*
X447000D02*
D03*
X434000D02*
D03*
X422000D02*
D03*
X409000D02*
D03*
X396000D02*
D03*
X382000D02*
D03*
X323240Y287000D02*
D03*
X294240D02*
D03*
X324240Y254000D02*
D03*
X294240D02*
D03*
Y221000D02*
D03*
X323240D02*
D03*
Y188000D02*
D03*
X294240D02*
D03*
X243240D02*
D03*
X214240D02*
D03*
X242240Y221000D02*
D03*
X213240D02*
D03*
X243240Y254000D02*
D03*
X213240D02*
D03*
Y287000D02*
D03*
X243240D02*
D03*
X396000Y321000D02*
D03*
X356000Y375000D02*
D03*
X323000D02*
D03*
X310000D02*
D03*
X291000D02*
D03*
X269000D02*
D03*
X251000D02*
D03*
X236000D02*
D03*
X218000D02*
D03*
X205000D02*
D03*
X193000D02*
D03*
X177000D02*
D03*
X161000D02*
D03*
X370000Y133000D02*
D03*
X371000Y260000D02*
D03*
X404000Y375000D02*
D03*
X387000D02*
D03*
X148000D02*
D03*
X138000D02*
D03*
X128000D02*
D03*
X118000D02*
D03*
X108000D02*
D03*
X98000D02*
D03*
X88000D02*
D03*
X78000D02*
D03*
M02*
