M48
;Layer_Color=9474304
;FILE_FORMAT=2:5
INCH,LZ
;TYPE=PLATED
T1F00S00C0.02500
T2F00S00C0.02800
T3F00S00C0.03150
T4F00S00C0.03543
T5F00S00C0.07000
T6F00S00C0.17000
%
T01
X033Y005
X034
X035
X036
X037
X038
X041
X042
X043
X044
X045
X046
Y008937
X045
X044
X043
X042
X041
X038
X037
X036
X035
X034
X033
T02
X0118Y0135
X012Y0145
X0116Y0156
X0158
X0166Y015
X0174Y0135
X0166Y0121
X0209Y0136
X0246Y0138
X0254
X0262
X0277
X0281Y0145
X0247Y0154
X0255Y0108
X0249Y0101
X023Y0104
X0218Y01
X0206Y0094
X0212Y0077
X0218Y0071
X0225Y0085
X033Y0131
X034Y0126
X0353Y0131
X0373Y014
X0372Y015
X0387
Y014
X041Y0149
X0429Y0147
X045Y0128
X046Y0134
X0456Y008
X0468Y003
X0389Y0093
X0483Y0096
X0491Y0089
X0489Y0081
X049Y007
X05
X0476
X0484Y0113
X0469Y0134
X0476Y0149
X0544Y0139
X0522Y0086
X051112Y004312
X0481Y022
X0458Y024
X0419Y0244
X0416Y0272
X0388Y027
X0366Y026
Y025
X0338Y0242
Y0224
X0334Y0276
X0354Y028
X0448Y0277
X043Y0309
X0405Y0191
Y0183
X0394Y0201
X0375Y02
Y0191
Y0183
X0369Y0175
X0372Y0159
X0387
X0393Y0165
X04Y0158
X042Y0157
X0357Y0166
X0275Y0187
X022Y0191
X0224Y0172
X0233Y0232414
X0244Y0246
X0253Y025
X0266Y026
X026Y027
X0237Y0279
X022Y0274
X0219Y0284
X0211Y0287
X0208Y0296
X0233Y0303
X0183Y0242
X0171Y0236
X0165Y023
X0293Y0248
X0312Y0241
Y0224
X0151Y0225
X0156Y023
X0129Y0231
X0139Y0243
X0145Y0248
X01315Y0272
X0132Y0283
X0142Y0288
X0153Y0287
X0129Y0298
X0091Y0269
X0101Y0227
X0084Y0218
X0063
X0077Y0194
X0103Y02
X011Y0193
X0111Y0183
X0129Y018
X0139Y0174
X0151Y0168
X0145Y0161
X0117Y0165
X0081Y016
X0048Y0185
X0075Y0375
X0085
X0095
X0105
X0115
X0125
X0135
X0145
X0153Y035
X01625Y0375
X01775
X01925
X0205
X0218
X0242
X0263
X0283
X0305
X0228Y0349
X0218Y0322
X0201
X0314Y0317
X0343Y0325
X0339Y0342
X0329Y0375
X0351
X0367
X0387
X0416
X043
X045
X0468
Y0321
X045Y0324
X0409Y032
X0404Y0314
X0397Y0325
X038Y0324
X0364Y0317
X0486Y032
X0522Y0318
X0535Y0322
Y0341
X0509Y035
X05005Y0375
X0486
X0522
X0547Y0364
T03
X002Y012
X003
Y013
Y014
Y015
X002
Y014
Y013
Y016
X003
Y017
Y018
Y019
X002
Y018
Y017
T04
X0397Y00268
X0432
Y0119
X0397
X051Y015
X053
Y016
X051
Y019
Y02
X053
Y019
X049
Y02
X047
Y019
Y029
X0485
X0455
X044
X0425
X041
X0395
X038
X04Y022
Y021
X041
Y022
X042
Y021
X043
Y022
X044
Y021
X03445
Y02
Y019
X03345
Y02
Y021
X029Y0218
Y0201
Y0183
T05
X0552848Y00725
Y01
T06
X002Y002
X054
X002Y038
X054
M30
