M48
;Layer_Color=9474304
;FILE_FORMAT=2:5
INCH,LZ
;TYPE=PLATED
T1F00S00C0.02800
T2F00S00C0.03543
T3F00S00C0.04000
T4F00S00C0.04724
T5F00S00C0.17000
%
T01
X0022Y0043
X0042Y0042
X0066Y0039
Y005
X0073Y0062
X0072Y0075
X0079
Y0085
X0072Y0091
X0076Y0112
X0091322Y0130764
X0106Y0131
X0115
X0131Y013
X014Y0134
X0153Y0139
X0154Y0126
X0135Y0117
X0131Y0094
X0114
X0111Y0066
X0098Y0046
X0105Y0013
X0119
X0139Y0012
X0124Y0155
X0071Y0149
X0059Y0135
X0031Y0111
X0033Y0092
X0043Y008
X0022Y0079
X0175Y0094
X0226Y011
X0231Y0115
Y0123
Y0131
Y0139
Y0147
Y0155
X0225Y0151
Y0143
Y0135
Y0127
Y0119
X0257Y0123
Y0113
X0271Y01125
Y0093
X0298Y0094
X031Y0102
X0309Y0117
X0287Y0118
X0295Y0154
X0269Y0148
X0264Y0142
X0255Y0139
X0259Y015
X0264Y0156
X0295Y0072
X0296Y0063
X0308525Y0079525
X0291Y0032
Y0015
X0233Y0042
X0319Y0038
X0333Y0032
X0339Y0054
X0334Y006
Y0081
X0332Y0089
X0323Y0092
X0322Y0085
X0316Y0096
Y0107
X0324Y0119
X033Y0114
X0333Y0123
X0322Y0129
X0328Y0135
X0334Y0145
X0355Y0134
X0374Y0129
X0384
X0392Y0131
X0394Y0107
X0389Y0095
X0367Y0098
X0358Y0109
X0354Y0073
X0356Y006
X035Y0054
X0385Y007
X0395
X0403Y0074
X0406Y0058
X0417182Y0057818
X0426Y0058
X0424Y0076
X043Y0082
X0441Y0076
X0463Y0091914
X0431Y0104
X042Y0109
X0414Y0094
X0439Y0116
X0445Y0124
X0421Y0137
Y0147
X0413Y01515
X0405Y0154
X0394Y0156
X0372Y0015
X0314Y0072
X0505Y0137
Y0144
Y0151
X0562Y015
X0563Y0122
X0576Y0123
Y0112
X0591Y0144
X05785Y00185
X0613Y002
X0637Y0156
X0682Y0127
X0694Y0111
X0716Y0144
Y0154
X0737436Y0156
X0744Y0127
X074Y0062
X075Y0054
X078Y0085
X0812
X0805Y0095
X08Y0105
X0795Y0115
X0786Y0148
X079Y0154
X0838
X0834Y012
X0828Y01
X0841Y0092
X0844Y0053
X0817
X0823Y0062
Y0191
X0817Y0205
X0812Y0215
X0805Y0225
X08Y0235
X0795Y0245
X0786Y0273
X079Y0286
X0857Y0284
X0864Y0296
X0887
X0833Y025
X0827Y0229
X0836Y0182
X0863Y0177
X0865Y0166
X0879Y0175
X0778Y0174
X0764Y018
X0765Y0166
X073685Y018165
X078Y0201
Y0215
X0777Y0304
X0765Y0296
X0737Y0284
X0724Y0302
X0686Y0296
X0665
X0664Y0308
X0637Y0285
X0688Y0205
X0684Y0166
X0665
X0663Y0179
X0603Y0171
X0563Y0166
X0549
X0548Y0157
X0563Y018
X0553Y0192
X0559Y0198
Y0205
Y0212
X0558Y022
X0519Y0221
X0523Y0229
X05195Y026
X051Y0259
X0514Y0273
X0526
X0524Y0285
X0516
X0509
X0501
X0493
X0499Y0247
X0529Y0262
X0538Y0263
X0543Y027
X0548Y0284
X0555Y0287
X0542Y0296
Y0305
X0607Y0289
X0605Y028
X0619Y03
X0603Y024
X0609Y021
X0529Y0198
X0523Y0191
X0505Y0193
Y0186
Y0179
Y0172
Y0165
Y0158
X0479Y0222
X0466Y0223
X0463987Y0213
X0447Y019
X0414Y0212
X0405Y0206
X0394Y0211
X0383Y0212
X0388Y0218
X0384Y0229
X0382Y0238
X0381398Y0259398
X0389765Y0265765
X0383Y0277
Y0287
X0374Y0293
X0377Y0272
X0352
X0353273Y0261484
X0333Y0256
X0317Y0258
Y0251
X0319Y02425
X0323Y0232
X0324Y0222
X0329Y0216
X0331Y0227
X0341Y0243
X0326Y02725
X0324Y0286
X0313Y028
X0315Y0265
X0328Y0299
X0326Y0309
X0346Y0294
X0351Y0285
X040968Y0297893
X0376Y020536
Y0186
X0383
X03875Y018
X0394Y0183
X0349Y0186
X0341
X0335Y0191
X0327Y0189
X0318Y019
X0314Y0204
X0355Y0209
X0294Y0227
X0292Y0234
Y0242
X0279Y02449
X0278Y0234
X0273Y0224
Y0217
Y021
Y0203
Y0196
Y0189
Y0182
Y0175
X0269Y0162
X0256Y0166
Y0174
Y0181
X0252Y0191
X024Y0196
X0232Y0197
X0223Y0198
X0213Y02
X024Y02075
X0248Y0211
X0253Y0216
X02645Y024
X0269Y025
Y026
X0268954Y0269854
X0263Y02649
Y0255
X0244Y0257
X0235
X0234Y025
X0229964Y0244036
X0222464Y0236536
X0215Y0248
Y0257
X0217Y0265
X0226Y0267
X024Y0263
X0261Y0286
X0298
X0288Y0299
X0285Y0269
X0289Y0263
X0284Y0256
X0302Y026
X0303Y0268
X0226291Y02945
X0219Y0295
X0212Y0293
X0202Y0294
Y0303
X0201Y0311
X0213Y0308
X0231Y0309
X0177Y0306
X0171Y031
X0167Y0299
X0158Y0294
X0163Y0255
X0159Y0249
X0184Y025
Y026
Y027
X0192Y0265
Y0255
Y0245
Y0235
X0184Y02399
X018Y0204
X0159Y021
X0164Y0216
X0166Y0187
X0157Y0188
X0225Y0175
Y0167
Y0159
X0231Y0163
Y0171
X0196Y0274
X0155Y0243
X0151Y0237107
X0154Y0204
X015Y0198
X0146Y0192
X0113Y0204
X0112Y0219
X0086Y0221664
X0078Y0226
X00825Y02325
X0082Y0242
X0061
X0062Y0233
X0051Y0225
X0045414Y0221
X0055Y0217
X0064Y0214
X0058Y0204
X0089Y0206
X0092Y0184
X0085
X0078
X0067Y0175
X0068Y0267
X0106Y0269
X0111Y0263
X0129Y0258
X0112Y0291
X01005Y0289
X0031Y0312
X0036Y0238
X0031874Y0348
X0029Y0383
X0016Y0388
X0036Y0402
X003Y0408
X0027Y0416
X0026Y0426
Y0436
Y0445957
X0068Y043
X0101Y0429
X0111
X0117Y042
Y0413
X0124Y0409
Y0401
X0118Y0378
X0145Y0372
X0143Y035
X014Y0325
X0143Y0315
X0155Y0319
X0153Y0329
X0101Y0347
X0083Y0395
X005Y039
X0043379Y03955
X0155Y0398
X0133Y043
X0166Y0434
X0175Y0444
X018Y0409
X0186Y0414
X0187Y0404
X0181Y0398
X0184Y0372
X0188Y0366
X0178
X0165Y0372
X0158Y0364
X02Y0385
X0207
X0214
X0221
X0228
X0235
X0242
X025
X0264Y0384
X0257Y0363
Y0355
X0231Y0349
Y0363
X0229Y0327
X0222
X0215
X0208
X0201
X0177Y0319
X0236Y0327
X0243
X025
X0224Y0395
X0212Y0433
X0244Y0432
X0254Y043
X0280061Y0444
X028Y0468
X0289
X0297
X03055
X0304Y0409
X0308Y0402
X02153Y04628
X0314Y0468
X0323Y0465
X0335Y0458
X0358
X0361Y043
X0372
X03835Y04135
X0389Y0382
X04Y0381
X0374Y0377
X0367Y0365
X0349
X0345Y0339
X033Y0344
Y0354
X0336Y0327
X0342Y0318
X0367Y0313
X0376Y0333
X0385
X0393
X0401
X041
X0419
X0427
X0436
X0444
X0452
X0461
X0459Y0437
X0455Y0465
X0446Y0464
X0433Y0463
X0334Y0433
X0321Y0418957
X0322Y040872
X0337Y0388
X0348Y0395
X0359Y0388
X049Y0383
X05Y0415
X052Y0403
X0532Y0412
X0528Y0426
X0523Y0433
X0518Y0439
X0511Y0445
X0506Y045
X0493Y0464
X0593Y046
X0598Y0454
X0603Y0447
Y043
X0598Y042
X0620914Y0432
X0622Y0467
X0606
X0614Y04
Y039
X0613Y035
X0614Y033
X0541Y0329
Y032
X0542Y0313
X0495Y0333
X0486
X0478
X0469
X0634Y033
X0635Y0349
X0682Y033
X0702Y036
X0683Y039
X0675Y0413
X0685Y0426
X0664
X0662Y044
X0637Y0444
X0732Y0418
X0737Y0412
X0766Y0409
X0765Y0426
X0778Y0434
X0779Y0345
X0762Y0316
X0817
X0823Y0322
X0812Y0345
X0805Y0355
X08Y0365
X0795Y0375
X079Y039
X0786Y041
X0837Y0414
X0853Y0406
X0865Y0426
X0886
X0829Y0438
X0825Y0459
X0839Y038
X0831Y036
X0861Y0316
X0841Y0471
X085Y048
X0812Y0481
X0805Y0485
X08Y0495
X0795Y0505
X079Y0528
X0786Y0538
Y0556
X083
Y057
X0825Y0546586
Y0515
X0817Y0471
X0864Y0556
Y0568
X0886Y0556
X0764
Y0569
X077Y0543
X0779Y0528
X0749Y0531
X0736Y052
X0729Y0543
X0737Y0549
X0687Y0556
X0664
X0661Y0568
X063Y0556
X0639Y0519
X0702Y049
X0686Y0472
X0781Y0475
X0591Y047
X0585Y05185
X0563Y0524
X0562Y0533
X0522Y0522
X0509Y0494
X051Y0487
Y0479
X0494Y0476
X0495Y0486
X0496Y0495
X0485Y0517
X0477Y0472
X0545Y0492
X0467Y0478
X046Y0471
X0455Y0483
X0446Y0486
X0438
X0439Y0471
X0428Y0478
X0399Y0493
X0391
X0382
X0373
X0365
X0357
X0348
X034
X0331
X0323
X0314
X0386Y0511
X045Y0517
X0305Y0493
X0297
X0288
X028
X0264
X02555
X0247
X02385Y04925
X023Y0493
X02215
X0213
X02045
X01875
X0179
X01705
X0162
X0168Y0505
X0165Y0536
X0158Y0543
X0155Y0529
X0153Y0517
X0145Y0512
X0138Y0515
X01365Y0493
X0128
X01195
X0111
X01025
X0094
X00855
X0077
X00685
X006
X005Y0477
X0145Y0493
X01535
X0153Y0589
T02
X0044Y0023
X0057Y005
Y006
Y007
Y009
Y01
Y011
X0042Y0123
X0032
X0022
X0158Y011
X0236Y0075
X025
X0265Y0073
Y0063
Y0053
X025Y0055
X0236
X024Y0019
X0254
X0267
X028
X0225
X0211
X0265Y013
X0318Y0146
X0382Y0032
Y0022
X0392
Y0032
X0402
Y0022
X0412
X0422
Y0032
X0412
X0463Y008
X0473
X0483
X0493
X0503
X0513
X0523
X0533
X0543
X0553
X0587Y0082
X06
X058Y016
Y017
Y018
Y019
Y02
Y021
Y022
Y023
Y024
Y025
Y027
Y028
Y029
Y03
Y031
X0534Y0245
X0524
X0514
X0433Y0189
X0354Y0306
X0315Y0304
Y0294
X0295
Y0304
X028
Y0294
X0159Y0168
X0146
X0133
X012
X0107
X0094
X0081
X004Y0208
Y0228
X0015
Y0208
X0079Y027
Y028
Y029
Y03
Y031
Y032
Y033
Y034
Y035
Y036
X0121Y0364
X0131
X0141
X028
Y0374
Y0384
X0295
Y0374
Y0364
Y0354
Y0344
Y0334
Y0324
Y0314
X028
Y0324
Y0334
Y0344
Y0354
X0315
Y0344
Y0334
Y0324
Y0314
Y0364
Y0374
Y0384
X0354Y0328
X0431Y037
Y0387
Y0404
Y0421
Y0438
X0471Y0452
X0481
X0491
X058Y045
Y046
Y044
Y043
Y042
Y041
Y04
Y039
Y038
Y036
Y035
Y034
Y033
Y032
Y047
X0577Y053
X0587
X0597
X058Y055
X0568
X0556
X0544
X0532
X052
X0519Y0571
Y0581
X0541Y0569
X0555
X0568
X0582
X05Y0526
X049
X048
X047
X046
X045
X044
X043
X042
X041
X038
X037
X036
X035
X034
X033
X032
X031
X03
X029
X026
X025
X024
X023
X022
X021
X02
X019
X018
X017
X014
X013
X012
X011
X01
X009
X008
X007
X006
X005
T03
X0473Y00335
X0483
X0493
X0503
X0513
X0523
X0533
X0543
Y00435
X0533
X0523
X0513
X0503
X0493
X0483
X0473
X066Y007
Y008
Y009
Y01
Y011
Y012
Y013
Y014
X067
Y013
Y012
Y011
Y01
Y009
Y008
Y007
X076
Y008
Y009
Y01
Y011
Y012
Y013
Y014
X077
Y013
Y012
Y011
Y01
Y009
Y008
Y007
X086
Y008
Y009
Y01
Y011
Y012
Y013
Y014
X087
Y013
Y012
Y011
Y01
Y009
Y008
Y007
Y02
Y021
Y022
Y023
Y024
Y025
Y026
Y027
X086
Y026
Y025
Y024
Y023
Y022
Y021
Y02
X077
Y021
Y022
Y023
Y024
Y025
Y026
Y027
X076
Y026
Y025
Y024
Y023
Y022
Y021
Y02
X067
Y021
Y022
Y023
Y024
Y025
Y026
Y027
X066
Y026
Y025
Y024
Y023
Y022
Y021
Y02
Y033
Y034
Y035
Y036
Y037
Y038
Y039
Y04
X067
Y039
Y038
Y037
Y036
Y035
Y034
Y033
X076
Y034
Y035
Y036
Y037
Y038
Y039
Y04
X077
Y039
Y038
Y037
Y036
Y035
Y034
Y033
X077Y046
X076
X067
X066
X086
X087
Y04
X086
Y039
X087
Y038
X086
Y037
X087
Y036
X086
Y035
X087
Y034
X086
Y033
X087
Y047
Y048
Y049
Y05
Y051
Y052
Y053
X086
Y052
Y051
Y05
Y049
Y048
Y047
X077
Y048
Y049
Y05
Y051
Y052
Y053
X076
Y052
Y051
Y05
Y049
Y048
Y047
X067
Y048
Y049
Y05
Y051
Y052
Y053
X066
Y052
Y051
Y05
Y049
Y048
Y047
X049Y057
Y058
X048
Y057
X047
Y058
X046
Y057
X045
Y058
X044
Y057
X043
Y058
X042
Y057
X037
Y058
X036
Y057
X035
Y058
X034
Y057
X033
Y058
X032
Y057
X031
Y058
X03
Y057
X025
Y058
X024
Y057
X023
Y058
X022
Y057
X021
Y058
X02
Y057
X019
Y058
X018
Y057
X013
Y058
X012
Y057
X011
Y058
X01
Y057
X009
Y058
X008
Y057
X007
Y058
X006
Y057
T04
X002Y0256
Y0271
Y0286
T05
X002Y002
X088
Y058
X002
M30
