G04*
G04 #@! TF.GenerationSoftware,Altium Limited,Altium Designer,22.3.1 (43)*
G04*
G04 Layer_Color=255*
%FSLAX25Y25*%
%MOIN*%
G70*
G04*
G04 #@! TF.SameCoordinates,435ADCC5-F5F0-4A2A-A0AE-C26054AEAF53*
G04*
G04*
G04 #@! TF.FilePolarity,Positive*
G04*
G01*
G75*
%ADD16R,0.03150X0.03740*%
%ADD17R,0.03740X0.03150*%
%ADD45R,0.05906X0.05906*%
%ADD46C,0.05906*%
%ADD47C,0.06000*%
%ADD48R,0.06000X0.06000*%
%ADD49R,0.05906X0.05906*%
%ADD50C,0.20000*%
D16*
X133150Y74000D02*
D03*
Y60000D02*
D03*
X114850Y67000D02*
D03*
Y74000D02*
D03*
Y60000D02*
D03*
X133150Y67000D02*
D03*
X521850Y165000D02*
D03*
Y155000D02*
D03*
Y145000D02*
D03*
Y135000D02*
D03*
Y125000D02*
D03*
Y115000D02*
D03*
Y105000D02*
D03*
Y95000D02*
D03*
X126850Y74000D02*
D03*
Y60000D02*
D03*
X121150Y67000D02*
D03*
Y74000D02*
D03*
Y60000D02*
D03*
X126850Y67000D02*
D03*
X528150Y165000D02*
D03*
Y155000D02*
D03*
Y145000D02*
D03*
Y135000D02*
D03*
Y125000D02*
D03*
Y115000D02*
D03*
Y105000D02*
D03*
Y95000D02*
D03*
D17*
X148000Y338150D02*
D03*
Y331850D02*
D03*
X138000Y338150D02*
D03*
Y331850D02*
D03*
X128000Y338150D02*
D03*
Y331850D02*
D03*
X118000Y338150D02*
D03*
Y331850D02*
D03*
X108000Y338150D02*
D03*
Y331850D02*
D03*
X98000Y338150D02*
D03*
Y331850D02*
D03*
X88000Y338150D02*
D03*
Y331850D02*
D03*
X78000Y338150D02*
D03*
Y331850D02*
D03*
X382000Y246850D02*
D03*
Y253150D02*
D03*
X396000Y246850D02*
D03*
Y253150D02*
D03*
X409000Y246850D02*
D03*
Y253150D02*
D03*
X422000Y246850D02*
D03*
Y253150D02*
D03*
X434000Y246850D02*
D03*
Y253150D02*
D03*
X447000Y246850D02*
D03*
Y253150D02*
D03*
X460000Y246850D02*
D03*
Y253150D02*
D03*
X472000Y246850D02*
D03*
Y253150D02*
D03*
X237000Y338150D02*
D03*
Y331850D02*
D03*
X251000Y338150D02*
D03*
Y331850D02*
D03*
X342000Y338150D02*
D03*
Y331850D02*
D03*
X177000Y338150D02*
D03*
Y331850D02*
D03*
X192000Y338150D02*
D03*
Y331850D02*
D03*
X162000Y338150D02*
D03*
Y331850D02*
D03*
X206000Y338150D02*
D03*
Y331850D02*
D03*
X219000Y338150D02*
D03*
Y331850D02*
D03*
X394000Y338150D02*
D03*
Y331850D02*
D03*
X376000Y338150D02*
D03*
Y331850D02*
D03*
X382000Y128150D02*
D03*
Y121850D02*
D03*
X396000Y128150D02*
D03*
Y121850D02*
D03*
X410000Y128150D02*
D03*
Y121850D02*
D03*
X422000Y128150D02*
D03*
Y121850D02*
D03*
X434000Y128150D02*
D03*
Y121850D02*
D03*
X447000Y128150D02*
D03*
Y121850D02*
D03*
X460000Y128150D02*
D03*
Y121850D02*
D03*
X472000Y128150D02*
D03*
Y121850D02*
D03*
X312000Y338150D02*
D03*
Y331850D02*
D03*
X269000Y338150D02*
D03*
Y331850D02*
D03*
X291000Y338150D02*
D03*
Y331850D02*
D03*
D45*
X192000Y166000D02*
D03*
X164000Y110000D02*
D03*
X360000Y332000D02*
D03*
X164000Y166000D02*
D03*
X178000D02*
D03*
D46*
X184000Y120000D02*
D03*
Y110000D02*
D03*
X174000Y120000D02*
D03*
Y110000D02*
D03*
X164000Y120000D02*
D03*
X550000Y290000D02*
D03*
Y280000D02*
D03*
Y270000D02*
D03*
Y260000D02*
D03*
Y250000D02*
D03*
Y240000D02*
D03*
Y230000D02*
D03*
Y220000D02*
D03*
X540000Y280000D02*
D03*
Y270000D02*
D03*
Y260000D02*
D03*
Y250000D02*
D03*
Y240000D02*
D03*
Y230000D02*
D03*
Y220000D02*
D03*
X550000Y170000D02*
D03*
X540000Y160000D02*
D03*
X550000D02*
D03*
X540000Y150000D02*
D03*
X550000D02*
D03*
X540000Y140000D02*
D03*
X550000D02*
D03*
X540000Y130000D02*
D03*
X550000D02*
D03*
X540000Y120000D02*
D03*
X550000D02*
D03*
X540000Y110000D02*
D03*
X550000D02*
D03*
X540000Y100000D02*
D03*
X550000D02*
D03*
D47*
X20000Y180000D02*
D03*
Y130000D02*
D03*
Y120000D02*
D03*
X30000Y190000D02*
D03*
Y180000D02*
D03*
X20000Y170000D02*
D03*
X30000D02*
D03*
X20000Y160000D02*
D03*
X30000D02*
D03*
X20000Y150000D02*
D03*
X30000D02*
D03*
X20000Y140000D02*
D03*
X30000D02*
D03*
Y130000D02*
D03*
Y120000D02*
D03*
D48*
X20000Y190000D02*
D03*
D49*
X540000Y290000D02*
D03*
Y170000D02*
D03*
D50*
Y20000D02*
D03*
X20000Y380000D02*
D03*
X540000D02*
D03*
X20000Y20000D02*
D03*
M02*
