G04*
G04 #@! TF.GenerationSoftware,Altium Limited,Altium Designer,22.3.1 (43)*
G04*
G04 Layer_Color=32896*
%FSLAX25Y25*%
%MOIN*%
G70*
G04*
G04 #@! TF.SameCoordinates,435ADCC5-F5F0-4A2A-A0AE-C26054AEAF53*
G04*
G04*
G04 #@! TF.FilePolarity,Positive*
G04*
G01*
G75*
%ADD11C,0.00394*%
%ADD59C,0.00197*%
D11*
X317988Y242929D02*
Y259071D01*
Y242929D02*
X335311D01*
Y259071D01*
X317988D02*
X335311D01*
X235988Y242929D02*
Y259071D01*
Y242929D02*
X253311D01*
Y259071D01*
X235988D02*
X253311D01*
X317988Y143929D02*
Y160071D01*
Y143929D02*
X335311D01*
Y160071D01*
X317988D02*
X335311D01*
X235988Y209929D02*
Y226071D01*
Y209929D02*
X253311D01*
Y226071D01*
X235988D02*
X253311D01*
X317988Y176929D02*
Y193071D01*
Y176929D02*
X335311D01*
Y193071D01*
X317988D02*
X335311D01*
X235988Y176929D02*
Y193071D01*
Y176929D02*
X253311D01*
Y193071D01*
X235988D02*
X253311D01*
X317988Y209929D02*
Y226071D01*
Y209929D02*
X335311D01*
Y226071D01*
X317988D02*
X335311D01*
X235988Y143929D02*
Y160071D01*
Y143929D02*
X253311D01*
Y160071D01*
X235988D02*
X253311D01*
D59*
X379291Y167953D02*
X390709D01*
Y162047D02*
Y167953D01*
X379291Y162047D02*
X390709D01*
X379291D02*
Y167953D01*
X353358Y206047D02*
Y211953D01*
X341941D02*
X353358D01*
X341941Y206047D02*
Y211953D01*
Y206047D02*
X353358D01*
X310858Y140047D02*
Y145953D01*
X299441D02*
X310858D01*
X299441Y140047D02*
Y145953D01*
Y140047D02*
X310858D01*
X239291Y101047D02*
Y106953D01*
Y101047D02*
X250709D01*
Y106953D01*
X239291D02*
X250709D01*
X228858Y172047D02*
Y177953D01*
X217441D02*
X228858D01*
X217441Y172047D02*
Y177953D01*
Y172047D02*
X228858D01*
X310858D02*
Y177953D01*
X299441D02*
X310858D01*
X299441Y172047D02*
Y177953D01*
Y172047D02*
X310858D01*
X228858Y190047D02*
Y195953D01*
X217441D02*
X228858D01*
X217441Y190047D02*
Y195953D01*
Y190047D02*
X228858D01*
X310858D02*
Y195953D01*
X299441D02*
X310858D01*
X299441Y190047D02*
Y195953D01*
Y190047D02*
X310858D01*
X239291Y89047D02*
Y94953D01*
Y89047D02*
X250709D01*
Y94953D01*
X239291D02*
X250709D01*
X271358Y172047D02*
Y177953D01*
X259941D02*
X271358D01*
X259941Y172047D02*
Y177953D01*
Y172047D02*
X271358D01*
X353358D02*
Y177953D01*
X341941D02*
X353358D01*
X341941Y172047D02*
Y177953D01*
Y172047D02*
X353358D01*
X259941Y190047D02*
Y195953D01*
Y190047D02*
X271358D01*
Y195953D01*
X259941D02*
X271358D01*
X341941Y190047D02*
Y195953D01*
Y190047D02*
X353358D01*
Y195953D01*
X341941D02*
X353358D01*
X307709Y85047D02*
Y90953D01*
X296291D02*
X307709D01*
X296291Y85047D02*
Y90953D01*
Y85047D02*
X307709D01*
Y97047D02*
Y102953D01*
X296291D02*
X307709D01*
X296291Y97047D02*
Y102953D01*
Y97047D02*
X307709D01*
X239291Y95047D02*
X250709D01*
X239291D02*
Y100953D01*
X250709D01*
Y95047D02*
Y100953D01*
X296291Y96953D02*
X307709D01*
Y91047D02*
Y96953D01*
X296291Y91047D02*
X307709D01*
X296291D02*
Y96953D01*
X228858Y140047D02*
Y145953D01*
X217441D02*
X228858D01*
X217441Y140047D02*
Y145953D01*
Y140047D02*
X228858D01*
X310858Y206047D02*
Y211953D01*
X299441D02*
X310858D01*
X299441Y206047D02*
Y211953D01*
Y206047D02*
X310858D01*
X228858Y158047D02*
Y163953D01*
X217441D02*
X228858D01*
X217441Y158047D02*
Y163953D01*
Y158047D02*
X228858D01*
X310858Y224047D02*
Y229953D01*
X299441D02*
X310858D01*
X299441Y224047D02*
Y229953D01*
Y224047D02*
X310858D01*
X271358Y140047D02*
Y145953D01*
X259941D02*
X271358D01*
X259941Y140047D02*
Y145953D01*
Y140047D02*
X271358D01*
X259941Y158047D02*
Y163953D01*
Y158047D02*
X271358D01*
Y163953D01*
X259941D02*
X271358D01*
X341941Y224047D02*
Y229953D01*
Y224047D02*
X353358D01*
Y229953D01*
X341941D02*
X353358D01*
X295291Y61953D02*
X306709D01*
Y56047D02*
Y61953D01*
X295291Y56047D02*
X306709D01*
X295291D02*
Y61953D01*
Y49953D02*
X306709D01*
Y44047D02*
Y49953D01*
X295291Y44047D02*
X306709D01*
X295291D02*
Y49953D01*
X354291Y42047D02*
X365709D01*
X354291D02*
Y47953D01*
X365709D01*
Y42047D02*
Y47953D01*
X354291Y54047D02*
X365709D01*
X354291D02*
Y59953D01*
X365709D01*
Y54047D02*
Y59953D01*
X295291Y50047D02*
X306709D01*
X295291D02*
Y55953D01*
X306709D01*
Y50047D02*
Y55953D01*
X354291Y53953D02*
X365709D01*
Y48047D02*
Y53953D01*
X354291Y48047D02*
X365709D01*
X354291D02*
Y53953D01*
X65709Y187047D02*
Y192953D01*
X54291D02*
X65709D01*
X54291Y187047D02*
Y192953D01*
Y187047D02*
X65709D01*
X157047Y144709D02*
X162953D01*
X157047Y133291D02*
Y144709D01*
Y133291D02*
X162953D01*
Y144709D01*
X65709Y177047D02*
Y182953D01*
X54291D02*
X65709D01*
X54291Y177047D02*
Y182953D01*
Y177047D02*
X65709D01*
X189047Y144709D02*
X194953D01*
X189047Y133291D02*
Y144709D01*
Y133291D02*
X194953D01*
Y144709D01*
X167047Y133291D02*
X172953D01*
Y144709D01*
X167047D02*
X172953D01*
X167047Y133291D02*
Y144709D01*
X65709Y167047D02*
Y172953D01*
X54291D02*
X65709D01*
X54291Y167047D02*
Y172953D01*
Y167047D02*
X65709D01*
X94291Y162047D02*
Y167953D01*
Y162047D02*
X105709D01*
Y167953D01*
X94291D02*
X105709D01*
X177047Y144709D02*
X182953D01*
X177047Y133291D02*
Y144709D01*
Y133291D02*
X182953D01*
Y144709D01*
X65709Y157047D02*
Y162953D01*
X54291D02*
X65709D01*
X54291Y157047D02*
Y162953D01*
Y157047D02*
X65709D01*
X94291Y152047D02*
Y157953D01*
Y152047D02*
X105709D01*
Y157953D01*
X94291D02*
X105709D01*
X65709Y147047D02*
Y152953D01*
X54291D02*
X65709D01*
X54291Y147047D02*
Y152953D01*
Y147047D02*
X65709D01*
X94291Y142047D02*
Y147953D01*
Y142047D02*
X105709D01*
Y147953D01*
X94291D02*
X105709D01*
X65709Y137047D02*
Y142953D01*
X54291D02*
X65709D01*
X54291Y137047D02*
Y142953D01*
Y137047D02*
X65709D01*
X94291Y132047D02*
Y137953D01*
Y132047D02*
X105709D01*
Y137953D01*
X94291D02*
X105709D01*
X65709Y127047D02*
Y132953D01*
X54291D02*
X65709D01*
X54291Y127047D02*
Y132953D01*
Y127047D02*
X65709D01*
Y117047D02*
Y122953D01*
X54291D02*
X65709D01*
X54291Y117047D02*
Y122953D01*
Y117047D02*
X65709D01*
X107047Y109709D02*
X112953D01*
X107047Y98291D02*
Y109709D01*
Y98291D02*
X112953D01*
Y109709D01*
X133047Y99291D02*
X138953D01*
Y110709D01*
X133047D02*
X138953D01*
X133047Y99291D02*
Y110709D01*
X101047Y109709D02*
X106953D01*
X101047Y98291D02*
Y109709D01*
Y98291D02*
X106953D01*
Y109709D01*
X139047Y99291D02*
X144953D01*
Y110709D01*
X139047D02*
X144953D01*
X139047Y99291D02*
Y110709D01*
X95047Y109709D02*
X100953D01*
X95047Y98291D02*
Y109709D01*
Y98291D02*
X100953D01*
Y109709D01*
X145047Y99291D02*
X150953D01*
Y110709D01*
X145047D02*
X150953D01*
X145047Y99291D02*
Y110709D01*
X74291Y84047D02*
Y89953D01*
Y84047D02*
X85709D01*
Y89953D01*
X74291D02*
X85709D01*
X159291Y79047D02*
Y84953D01*
Y79047D02*
X170709D01*
Y84953D01*
X159291D02*
X170709D01*
X74291Y78047D02*
Y83953D01*
Y78047D02*
X85709D01*
Y83953D01*
X74291D02*
X85709D01*
X159291Y73047D02*
Y78953D01*
Y73047D02*
X170709D01*
Y78953D01*
X159291D02*
X170709D01*
X74291Y72047D02*
Y77953D01*
Y72047D02*
X85709D01*
Y77953D01*
X74291D02*
X85709D01*
X159291Y67047D02*
Y72953D01*
Y67047D02*
X170709D01*
Y72953D01*
X159291D02*
X170709D01*
X74291Y66047D02*
Y71953D01*
Y66047D02*
X85709D01*
Y71953D01*
X74291D02*
X85709D01*
X159291Y61047D02*
Y66953D01*
Y61047D02*
X170709D01*
Y66953D01*
X159291D02*
X170709D01*
X74291Y60047D02*
Y65953D01*
Y60047D02*
X85709D01*
Y65953D01*
X74291D02*
X85709D01*
X159291Y55047D02*
Y60953D01*
Y55047D02*
X170709D01*
Y60953D01*
X159291D02*
X170709D01*
X159291Y49047D02*
Y54953D01*
Y49047D02*
X170709D01*
Y54953D01*
X159291D02*
X170709D01*
X74291Y54047D02*
Y59953D01*
Y54047D02*
X85709D01*
Y59953D01*
X74291D02*
X85709D01*
X141047Y34709D02*
X146953D01*
X141047Y23291D02*
Y34709D01*
Y23291D02*
X146953D01*
Y34709D01*
X74291Y48047D02*
Y53953D01*
Y48047D02*
X85709D01*
Y53953D01*
X74291D02*
X85709D01*
X135047Y34709D02*
X140953D01*
X135047Y23291D02*
Y34709D01*
Y23291D02*
X140953D01*
Y34709D01*
X74291Y42047D02*
Y47953D01*
Y42047D02*
X85709D01*
Y47953D01*
X74291D02*
X85709D01*
X129047Y34709D02*
X134953D01*
X129047Y23291D02*
Y34709D01*
Y23291D02*
X134953D01*
Y34709D01*
X105047Y23291D02*
X110953D01*
Y34709D01*
X105047D02*
X110953D01*
X105047Y23291D02*
Y34709D01*
X123047D02*
X128953D01*
X123047Y23291D02*
Y34709D01*
Y23291D02*
X128953D01*
Y34709D01*
X117047D02*
X122953D01*
X117047Y23291D02*
Y34709D01*
Y23291D02*
X122953D01*
Y34709D01*
X111047D02*
X116953D01*
X111047Y23291D02*
Y34709D01*
Y23291D02*
X116953D01*
Y34709D01*
X469047Y209291D02*
X474953D01*
Y220709D01*
X469047D02*
X474953D01*
X469047Y209291D02*
Y220709D01*
X457047Y209291D02*
X462953D01*
Y220709D01*
X457047D02*
X462953D01*
X457047Y209291D02*
Y220709D01*
X444047Y209291D02*
X449953D01*
Y220709D01*
X444047D02*
X449953D01*
X444047Y209291D02*
Y220709D01*
X379291Y174047D02*
Y179953D01*
Y174047D02*
X390709D01*
Y179953D01*
X379291D02*
X390709D01*
X431047Y209291D02*
X436953D01*
Y220709D01*
X431047D02*
X436953D01*
X431047Y209291D02*
Y220709D01*
X379291Y180047D02*
Y185953D01*
Y180047D02*
X390709D01*
Y185953D01*
X379291D02*
X390709D01*
X419047Y209291D02*
X424953D01*
Y220709D01*
X419047D02*
X424953D01*
X419047Y209291D02*
Y220709D01*
X379291Y192047D02*
Y197953D01*
Y192047D02*
X390709D01*
Y197953D01*
X379291D02*
X390709D01*
X406047Y209291D02*
X411953D01*
Y220709D01*
X406047D02*
X411953D01*
X406047Y209291D02*
Y220709D01*
X379291Y186047D02*
Y191953D01*
Y186047D02*
X390709D01*
Y191953D01*
X379291D02*
X390709D01*
X393047Y209291D02*
X398953D01*
Y220709D01*
X393047D02*
X398953D01*
X393047Y209291D02*
Y220709D01*
X379047Y209291D02*
X384953D01*
Y220709D01*
X379047D02*
X384953D01*
X379047Y209291D02*
Y220709D01*
X390709Y168047D02*
Y173953D01*
X379291D02*
X390709D01*
X379291Y168047D02*
Y173953D01*
Y168047D02*
X390709D01*
X145047Y329291D02*
Y340709D01*
Y329291D02*
X150953D01*
Y340709D01*
X145047D02*
X150953D01*
X135047Y329291D02*
Y340709D01*
Y329291D02*
X140953D01*
Y340709D01*
X135047D02*
X140953D01*
X125047Y329291D02*
Y340709D01*
Y329291D02*
X130953D01*
Y340709D01*
X125047D02*
X130953D01*
X115047Y329291D02*
Y340709D01*
Y329291D02*
X120953D01*
Y340709D01*
X115047D02*
X120953D01*
X105047Y329291D02*
Y340709D01*
Y329291D02*
X110953D01*
Y340709D01*
X105047D02*
X110953D01*
X95047Y329291D02*
Y340709D01*
Y329291D02*
X100953D01*
Y340709D01*
X95047D02*
X100953D01*
X85047Y329291D02*
Y340709D01*
Y329291D02*
X90953D01*
Y340709D01*
X85047D02*
X90953D01*
X75047Y329291D02*
Y340709D01*
Y329291D02*
X80953D01*
Y340709D01*
X75047D02*
X80953D01*
X379047Y255709D02*
X384953D01*
Y244291D02*
Y255709D01*
X379047Y244291D02*
X384953D01*
X379047D02*
Y255709D01*
X393047D02*
X398953D01*
Y244291D02*
Y255709D01*
X393047Y244291D02*
X398953D01*
X393047D02*
Y255709D01*
X406047D02*
X411953D01*
Y244291D02*
Y255709D01*
X406047Y244291D02*
X411953D01*
X406047D02*
Y255709D01*
X419047D02*
X424953D01*
Y244291D02*
Y255709D01*
X419047Y244291D02*
X424953D01*
X419047D02*
Y255709D01*
X431047D02*
X436953D01*
Y244291D02*
Y255709D01*
X431047Y244291D02*
X436953D01*
X431047D02*
Y255709D01*
X444047D02*
X449953D01*
Y244291D02*
Y255709D01*
X444047Y244291D02*
X449953D01*
X444047D02*
Y255709D01*
X457047D02*
X462953D01*
Y244291D02*
Y255709D01*
X457047Y244291D02*
X462953D01*
X457047D02*
Y255709D01*
X469047D02*
X474953D01*
Y244291D02*
Y255709D01*
X469047Y244291D02*
X474953D01*
X469047D02*
Y255709D01*
X234047Y329291D02*
Y340709D01*
Y329291D02*
X239953D01*
Y340709D01*
X234047D02*
X239953D01*
X248047Y329291D02*
Y340709D01*
Y329291D02*
X253953D01*
Y340709D01*
X248047D02*
X253953D01*
X339047Y329291D02*
Y340709D01*
Y329291D02*
X344953D01*
Y340709D01*
X339047D02*
X344953D01*
X174047Y329291D02*
Y340709D01*
Y329291D02*
X179953D01*
Y340709D01*
X174047D02*
X179953D01*
X189047Y329291D02*
Y340709D01*
Y329291D02*
X194953D01*
Y340709D01*
X189047D02*
X194953D01*
X159047Y329291D02*
Y340709D01*
Y329291D02*
X164953D01*
Y340709D01*
X159047D02*
X164953D01*
X203047Y329291D02*
Y340709D01*
Y329291D02*
X208953D01*
Y340709D01*
X203047D02*
X208953D01*
X216047Y329291D02*
Y340709D01*
Y329291D02*
X221953D01*
Y340709D01*
X216047D02*
X221953D01*
X216047Y301709D02*
X221953D01*
X216047Y290291D02*
Y301709D01*
Y290291D02*
X221953D01*
Y301709D01*
X203047D02*
X208953D01*
X203047Y290291D02*
Y301709D01*
Y290291D02*
X208953D01*
Y301709D01*
X159047D02*
X164953D01*
X159047Y290291D02*
Y301709D01*
Y290291D02*
X164953D01*
Y301709D01*
X189047D02*
X194953D01*
X189047Y290291D02*
Y301709D01*
Y290291D02*
X194953D01*
Y301709D01*
X174047D02*
X179953D01*
X174047Y290291D02*
Y301709D01*
Y290291D02*
X179953D01*
Y301709D01*
X339047D02*
X344953D01*
X339047Y290291D02*
Y301709D01*
Y290291D02*
X344953D01*
Y301709D01*
X248047D02*
X253953D01*
X248047Y290291D02*
Y301709D01*
Y290291D02*
X253953D01*
Y301709D01*
X234047D02*
X239953D01*
X234047Y290291D02*
Y301709D01*
Y290291D02*
X239953D01*
Y301709D01*
X391047Y329291D02*
Y340709D01*
Y329291D02*
X396953D01*
Y340709D01*
X391047D02*
X396953D01*
X373047Y329291D02*
Y340709D01*
Y329291D02*
X378953D01*
Y340709D01*
X373047D02*
X378953D01*
X379047Y119291D02*
Y130709D01*
Y119291D02*
X384953D01*
Y130709D01*
X379047D02*
X384953D01*
X393047Y119291D02*
Y130709D01*
Y119291D02*
X398953D01*
Y130709D01*
X393047D02*
X398953D01*
X407047Y119291D02*
Y130709D01*
Y119291D02*
X412953D01*
Y130709D01*
X407047D02*
X412953D01*
X419047Y119291D02*
Y130709D01*
Y119291D02*
X424953D01*
Y130709D01*
X419047D02*
X424953D01*
X431047Y119291D02*
Y130709D01*
Y119291D02*
X436953D01*
Y130709D01*
X431047D02*
X436953D01*
X444047Y119291D02*
Y130709D01*
Y119291D02*
X449953D01*
Y130709D01*
X444047D02*
X449953D01*
X457047Y119291D02*
Y130709D01*
Y119291D02*
X462953D01*
Y130709D01*
X457047D02*
X462953D01*
X469047Y119291D02*
Y130709D01*
Y119291D02*
X474953D01*
Y130709D01*
X469047D02*
X474953D01*
Y82491D02*
Y93909D01*
X469047Y82491D02*
X474953D01*
X469047D02*
Y93909D01*
X474953D01*
X408291Y53047D02*
X419709D01*
X408291D02*
Y58953D01*
X419709D01*
Y53047D02*
Y58953D01*
X462953Y82491D02*
Y93909D01*
X457047Y82491D02*
X462953D01*
X457047D02*
Y93909D01*
X462953D01*
X409291Y43047D02*
X420709D01*
X409291D02*
Y48953D01*
X420709D01*
Y43047D02*
Y48953D01*
X449953Y82491D02*
Y93909D01*
X444047Y82491D02*
X449953D01*
X444047D02*
Y93909D01*
X449953D01*
X409291Y33047D02*
X420709D01*
X409291D02*
Y38953D01*
X420709D01*
Y33047D02*
Y38953D01*
X436953Y82491D02*
Y93909D01*
X431047Y82491D02*
X436953D01*
X431047D02*
Y93909D01*
X436953D01*
X474291Y38953D02*
X485709D01*
Y33047D02*
Y38953D01*
X474291Y33047D02*
X485709D01*
X474291D02*
Y38953D01*
X424953Y82491D02*
Y93909D01*
X419047Y82491D02*
X424953D01*
X419047D02*
Y93909D01*
X424953D01*
X474291Y48953D02*
X485709D01*
Y43047D02*
Y48953D01*
X474291Y43047D02*
X485709D01*
X474291D02*
Y48953D01*
X309047Y329291D02*
Y340709D01*
Y329291D02*
X314953D01*
Y340709D01*
X309047D02*
X314953D01*
X266047Y329291D02*
Y340709D01*
Y329291D02*
X271953D01*
Y340709D01*
X266047D02*
X271953D01*
X288047Y329291D02*
Y340709D01*
Y329291D02*
X293953D01*
Y340709D01*
X288047D02*
X293953D01*
X412953Y82491D02*
Y93909D01*
X407047Y82491D02*
X412953D01*
X407047D02*
Y93909D01*
X412953D01*
X474291Y58953D02*
X485709D01*
Y53047D02*
Y58953D01*
X474291Y53047D02*
X485709D01*
X474291D02*
Y58953D01*
X288047Y301709D02*
X293953D01*
X288047Y290291D02*
Y301709D01*
Y290291D02*
X293953D01*
Y301709D01*
X108291Y238047D02*
X119709D01*
X108291D02*
Y243953D01*
X119709D01*
Y238047D02*
Y243953D01*
X266047Y301709D02*
X271953D01*
X266047Y290291D02*
Y301709D01*
Y290291D02*
X271953D01*
Y301709D01*
X108291Y229047D02*
X119709D01*
X108291D02*
Y234953D01*
X119709D01*
Y229047D02*
Y234953D01*
X309047Y301709D02*
X314953D01*
X309047Y290291D02*
Y301709D01*
Y290291D02*
X314953D01*
Y301709D01*
X108291Y218047D02*
X119709D01*
X108291D02*
Y223953D01*
X119709D01*
Y218047D02*
Y223953D01*
X170291Y213047D02*
X181709D01*
X170291D02*
Y218953D01*
X181709D01*
Y213047D02*
Y218953D01*
X170291Y224953D02*
X181709D01*
Y219047D02*
Y224953D01*
X170291Y219047D02*
X181709D01*
X170291D02*
Y224953D01*
Y225047D02*
X181709D01*
X170291D02*
Y230953D01*
X181709D01*
Y225047D02*
Y230953D01*
X170291Y236953D02*
X181709D01*
Y231047D02*
Y236953D01*
X170291Y231047D02*
X181709D01*
X170291D02*
Y236953D01*
Y237047D02*
X181709D01*
X170291D02*
Y242953D01*
X181709D01*
Y237047D02*
Y242953D01*
X170291Y243047D02*
Y248953D01*
Y243047D02*
X181709D01*
Y248953D01*
X170291D02*
X181709D01*
X124291Y69953D02*
X135709D01*
X124291Y64047D02*
Y69953D01*
Y64047D02*
X135709D01*
Y69953D01*
X124291Y62953D02*
X135709D01*
X124291Y57047D02*
Y62953D01*
Y57047D02*
X135709D01*
Y62953D01*
X112291Y57047D02*
X123709D01*
Y62953D01*
X112291D02*
X123709D01*
X112291Y57047D02*
Y62953D01*
Y64047D02*
X123709D01*
Y69953D01*
X112291D02*
X123709D01*
X112291Y64047D02*
Y69953D01*
X124291Y76953D02*
X135709D01*
X124291Y71047D02*
Y76953D01*
Y71047D02*
X135709D01*
Y76953D01*
X112291Y71047D02*
X123709D01*
Y76953D01*
X112291D02*
X123709D01*
X112291Y71047D02*
Y76953D01*
X129547Y219976D02*
Y242024D01*
Y219976D02*
X160453D01*
Y242024D01*
X129547D02*
X160453D01*
X530709Y162047D02*
Y167953D01*
X519291Y162047D02*
X530709D01*
X519291D02*
Y167953D01*
X530709D01*
Y132047D02*
Y137953D01*
X519291Y132047D02*
X530709D01*
X519291D02*
Y137953D01*
X530709D01*
Y142047D02*
Y147953D01*
X519291Y142047D02*
X530709D01*
X519291D02*
Y147953D01*
X530709D01*
Y152047D02*
Y157953D01*
X519291Y152047D02*
X530709D01*
X519291D02*
Y157953D01*
X530709D01*
Y92047D02*
Y97953D01*
X519291Y92047D02*
X530709D01*
X519291D02*
Y97953D01*
X530709D01*
Y102047D02*
Y107953D01*
X519291Y102047D02*
X530709D01*
X519291D02*
Y107953D01*
X530709D01*
Y122047D02*
Y127953D01*
X519291Y122047D02*
X530709D01*
X519291D02*
Y127953D01*
X530709D01*
Y112047D02*
Y117953D01*
X519291Y112047D02*
X530709D01*
X519291D02*
Y117953D01*
X530709D01*
X519291Y97047D02*
Y102953D01*
Y97047D02*
X530709D01*
Y102953D01*
X519291D02*
X530709D01*
X519291Y107047D02*
Y112953D01*
Y107047D02*
X530709D01*
Y112953D01*
X519291D02*
X530709D01*
X519291Y127047D02*
Y132953D01*
Y127047D02*
X530709D01*
Y132953D01*
X519291D02*
X530709D01*
X519291Y117047D02*
Y122953D01*
Y117047D02*
X530709D01*
Y122953D01*
X519291D02*
X530709D01*
X519291Y157047D02*
Y162953D01*
Y157047D02*
X530709D01*
Y162953D01*
X519291D02*
X530709D01*
X519291Y137047D02*
Y142953D01*
Y137047D02*
X530709D01*
Y142953D01*
X519291D02*
X530709D01*
X519291Y147047D02*
Y152953D01*
Y147047D02*
X530709D01*
Y152953D01*
X519291D02*
X530709D01*
X519291Y167047D02*
Y172953D01*
Y167047D02*
X530709D01*
Y172953D01*
X519291D02*
X530709D01*
X429547Y34976D02*
Y57024D01*
Y34976D02*
X460453D01*
Y57024D01*
X429547D02*
X460453D01*
X23496Y271748D02*
X60504D01*
Y240252D02*
Y271748D01*
X23496Y240252D02*
X60504D01*
X23496D02*
Y271748D01*
X440169Y170335D02*
Y199665D01*
X398831Y170335D02*
X440169D01*
X398831D02*
Y199665D01*
X440169D01*
X514291Y292953D02*
X525709D01*
Y287047D02*
Y292953D01*
X514291Y287047D02*
X525709D01*
X514291D02*
Y292953D01*
Y282953D02*
X525709D01*
Y277047D02*
Y282953D01*
X514291Y277047D02*
X525709D01*
X514291D02*
Y282953D01*
Y272953D02*
X525709D01*
Y267047D02*
Y272953D01*
X514291Y267047D02*
X525709D01*
X514291D02*
Y272953D01*
Y262953D02*
X525709D01*
Y257047D02*
Y262953D01*
X514291Y257047D02*
X525709D01*
X514291D02*
Y262953D01*
Y252953D02*
X525709D01*
Y247047D02*
Y252953D01*
X514291Y247047D02*
X525709D01*
X514291D02*
Y252953D01*
Y242953D02*
X525709D01*
Y237047D02*
Y242953D01*
X514291Y237047D02*
X525709D01*
X514291D02*
Y242953D01*
Y232953D02*
X525709D01*
Y227047D02*
Y232953D01*
X514291Y227047D02*
X525709D01*
X514291D02*
Y232953D01*
Y222953D02*
X525709D01*
Y217047D02*
Y222953D01*
X514291Y217047D02*
X525709D01*
X514291D02*
Y222953D01*
X299441Y239047D02*
X310858D01*
X299441D02*
Y244953D01*
X310858D01*
Y239047D02*
Y244953D01*
X217441Y239047D02*
X228858D01*
X217441D02*
Y244953D01*
X228858D01*
Y239047D02*
Y244953D01*
X299441Y257047D02*
X310858D01*
X299441D02*
Y262953D01*
X310858D01*
Y257047D02*
Y262953D01*
X217441Y257047D02*
X228858D01*
X217441D02*
Y262953D01*
X228858D01*
Y257047D02*
Y262953D01*
X341941Y239047D02*
X353358D01*
X341941D02*
Y244953D01*
X353358D01*
Y239047D02*
Y244953D01*
X259941Y239047D02*
X271358D01*
X259941D02*
Y244953D01*
X271358D01*
Y239047D02*
Y244953D01*
X341941Y262953D02*
X353358D01*
Y257047D02*
Y262953D01*
X341941Y257047D02*
X353358D01*
X341941D02*
Y262953D01*
X259941D02*
X271358D01*
Y257047D02*
Y262953D01*
X259941Y257047D02*
X271358D01*
X259941D02*
Y262953D01*
X217441Y206047D02*
X228858D01*
X217441D02*
Y211953D01*
X228858D01*
Y206047D02*
Y211953D01*
X299441Y158047D02*
X310858D01*
X299441D02*
Y163953D01*
X310858D01*
Y158047D02*
Y163953D01*
X217441Y224047D02*
X228858D01*
X217441D02*
Y229953D01*
X228858D01*
Y224047D02*
Y229953D01*
X341941Y140047D02*
X353358D01*
X341941D02*
Y145953D01*
X353358D01*
Y140047D02*
Y145953D01*
X259941Y206047D02*
X271358D01*
X259941D02*
Y211953D01*
X271358D01*
Y206047D02*
Y211953D01*
X341941Y163953D02*
X353358D01*
Y158047D02*
Y163953D01*
X341941Y158047D02*
X353358D01*
X341941D02*
Y163953D01*
X259941Y229953D02*
X271358D01*
Y224047D02*
Y229953D01*
X259941Y224047D02*
X271358D01*
X259941D02*
Y229953D01*
X257335Y116669D02*
X286665D01*
Y75331D02*
Y116669D01*
X257335Y75331D02*
X286665D01*
X257335D02*
Y116669D01*
X316335Y74169D02*
X345665D01*
Y32831D02*
Y74169D01*
X316335Y32831D02*
X345665D01*
X316335D02*
Y74169D01*
M02*
