M48
;Layer_Color=9474304
;FILE_FORMAT=2:5
INCH,LZ
;TYPE=PLATED
T1F00S00C0.02800
T2F00S00C0.03150
T3F00S00C0.03543
T4F00S00C0.03937
T5F00S00C0.04724
T6F00S00C0.05118
T7F00S00C0.17000
%
T01
X009Y0054
X011Y006
X009Y0088
X0089Y012
X0084Y013
X0085Y014
X008Y015
X015Y0135
X0144Y0079
X0163Y0074
X0171Y0135
X0186Y0146
X0195Y0128
X0225Y0148
X0254Y0141
X0259Y012
X029565Y014865
X0288Y0015
X0215Y0018
X0361Y0012
X0433Y0013
X0402Y012
X0398Y0141
X0391Y0156
X0372Y0149
X0325
X0329Y0141
X0331Y012
X0443Y0149
X0475Y0119
X0474Y0273
X044765Y030165
X0399Y0294
X0389Y0302
X037465Y030165
X0321Y0302
X0328Y0294
X0331Y0272
X0403Y0273
X0433Y0169
X0359Y0167
X029Y0166
X0221Y0164
X0219Y0177
X0205Y0178
Y0164
X019Y0188
X0179Y021
X0202Y0241
X02Y0251
X0208Y0235
X0195Y0286
X0169Y0278
X0158Y0265
X0184Y0312
X0224Y0302
X0246Y030176
X0254Y0293
X0259Y0272
X0298Y0302
X0169Y0157
X0145Y0173
X0151Y018
X0133Y0176
X0125Y0173
X0107Y0175
X0111Y0165
X0084Y016
X0087Y0178
X0093Y0227
X0079Y0233
X0078586Y0245
X0064
X007Y0239
X0044Y024
X0033Y0241
X0026Y0252
X0055Y0251
X007Y0268
X0078Y0262
X0088Y0273
X0099Y028
X0116Y0289
X014Y0287
X0146Y0259
X0076Y0288
X0064Y0291
X0025Y0292
X0015Y0283
X0031Y021
X0043Y0216
X0065Y0334
X0076Y0347
X0086
X0096
X0106
X0116
X0126
X0136
X0146
X0155Y0342
X01635Y0347
X0178
X0192
X0208
X022
X024
X026
Y032
X024
X0214Y0318
X017Y0313
X0283Y0319
X0277Y0334
X0301Y0339
X0296Y0346
X0341Y0343
Y0353
X04Y0355
X0388Y0324
T02
X002Y012
X003
Y013
Y014
Y015
X002
Y014
Y013
Y016
X003
Y017
Y018
Y019
X002
Y018
Y017
T03
X006Y0034
X0072
X0084
X0096
X0108
X012
X0132
X0144
X0156
X008Y006
Y007
Y008
X007
Y007
Y006
X028Y0355
X0416Y0348
X043
X0444
X0458
Y037
X0444
X043
X0416
T04
X0224756Y007
X0272
X0296756
Y0118032
X0224756
X0368756
Y007
X0344
X0416
X0440756
Y0118032
X0488Y007
Y0223
X0440756
X0416
X0368756
X0344
X0368756Y0271031
X0440756
X0296756
Y0223
X0272
X0224756
Y0271031
T05
X02335Y0021
X02485
X02635
X0305
X032
X0335
X03775
X03925
X04075
X04495
X04645
X04795
Y0174
X04645
X04495
X04075
X03925
X03775
X0335
X032
X0305
X02635
X02485
X02335
T06
X0248378Y0062126
X0272Y0118032
X0344
X0416
X0392378Y0062126
X0320378
X0464378
X0488Y0118032
Y0271031
X0416
X0344
X0320378Y0215126
X0392378
X0464378
X0248378
X0272Y0271031
T07
X002Y002
X054
X002Y038
X054
M30
