M48
;Layer_Color=9474304
;FILE_FORMAT=2:5
INCH,LZ
;TYPE=PLATED
T1F00S00C0.02800
T2F00S00C0.03150
T3F00S00C0.03543
T4F00S00C0.17000
%
T01
X0038Y0031
X0039Y0061
X0075Y0054
Y0024
X01525Y0013
Y0035
Y0044
Y0066
X0151Y0093
X0131Y0089
X013Y0144
Y0155
X0123Y015
Y0138
X008Y014
X0072Y015
Y013
X008Y012
X0172Y01
X0164Y0091
X0185Y0093
X0191Y0102
X0205Y0087
X0211Y0074
X0209Y0065
X0213Y0053
X0217075Y0033
X0236
X0248Y0039
Y0021
X0228
X0236586Y0071
X0248Y0077
X0253Y0098
X0235Y0092
X0226Y0098
Y0081
X0271Y0087
X0269Y0112
X0262Y0118
X0288Y0119
X028815Y013515
X0281Y0155
X0259Y0147
X0252Y0153
Y0141
X0226Y0134
X0217
X0308Y0125
X0297Y0085
X029Y0051
X0271Y0044
X031Y0038
X0289Y0008
X01695Y0013
Y004
X0183
X01695Y00684
X0326Y0072
X0347Y0071
X0355Y0077
X0352Y0058
X0356Y0035
X0352Y0031
X0345Y0022
X0328Y0029
X0391Y0042
Y0054
Y0086
X0393Y0109
X0398Y0115
X0413Y0091
X0425Y0073
X0426Y0029
X0391Y0012
X0354Y0109
Y0126
Y0149
X0393
X0398Y0156
X0431Y0142
X0477Y0153
X0495Y013
X0477Y0103
X0495Y008
X0477Y0053
X0495Y003
X0544Y0084
Y0133
Y0183
X0495Y018
X0477Y0203
X0538Y0238
X0398Y0237
X0393Y0231
X0391Y0265
X0398Y027
X0407Y0261
X0354Y0246
Y023
Y0206
Y019
Y0166
X037Y0174
X038Y0173
X0393Y0189
X0398Y0195
X0331Y0176
X0327Y029
X0326Y0302
X0335
X0305
X0276126Y0308215
X0264Y0308
X0269Y0297
X0229Y029
Y0263
X0252
X0273Y0246
X0296787Y0240213
X0296Y0257
Y0266
X0305Y0262
X0311Y0206
X0308Y0199
Y016
X0229Y0182
X0194Y0186
X0191Y0199
X02Y0203
X0209
X0191Y0251
X0185Y0273
X0178Y0287
X0164
X0193Y0288
X0173Y0241
X0125
X0128Y0252
X0125Y0263
X0142Y0208
X013Y0167
X0123Y0162
X0109765Y0179235
X008Y017
Y016
X0071Y018
X0067Y0202
X008Y0197
X0086Y0205
X0055Y0231
X0045Y0232
X004Y024
X0032
X0052Y0275
X0082Y0294
X0089Y0303
X0027Y0312
X006735Y033435
X00774Y0347
X0087
X0097
X0107
X0117
X0127
X0137
X0147
X0164
X0178
X0193
X0209
X0221
X0241
X0257
X0273
X0295
X0284Y0335
X0307
X0295Y0319
X0172Y0317
X0316Y0319
X0341
X0356
X037
Y0347
X0356
X0341
X033Y0335
X0316Y0347
X0385
X0402
X0417
X0432
X0446
X0466
X0446Y0316
X0486Y0324
X0504
Y0347
X0486
T02
X002Y012
Y013
Y014
Y015
X003
Y014
Y013
Y012
Y016
X002
Y017
Y018
Y019
X003
Y018
Y017
T03
X0295Y0104
Y0146
X0408Y0131
X0448Y0124
Y0102
X0462
X0448Y0074
Y0052
X0462
Y0152
X0448
X053Y026
Y027
Y028
Y029
X054
Y028
Y027
Y026
X0448Y0223
Y0202
X0462
X0448Y0174
X0408Y0172
Y0212
Y0252
X0317Y0268
Y0287
X0295Y0224
Y0184
X0278Y0192
X0266
X0249Y021
X0239
X0229
Y022
X0239
X0249
X025Y0239
X0521Y0341
T04
X002Y002
X054
X002Y038
X054
M30
