G04*
G04 #@! TF.GenerationSoftware,Altium Limited,Altium Designer,22.3.1 (43)*
G04*
G04 Layer_Physical_Order=1*
G04 Layer_Color=255*
%FSLAX25Y25*%
%MOIN*%
G70*
G04*
G04 #@! TF.SameCoordinates,CC72978B-6F05-4AE3-AFEB-50B74E8C7AD0*
G04*
G04*
G04 #@! TF.FilePolarity,Positive*
G04*
G01*
G75*
%ADD13C,0.01000*%
%ADD17R,0.02362X0.05807*%
%ADD18R,0.05807X0.02362*%
%ADD19R,0.05807X0.01772*%
%ADD20R,0.12000X0.04724*%
%ADD21R,0.07874X0.02756*%
%ADD22R,0.12000X0.07000*%
%ADD23R,0.07874X0.07874*%
%ADD24R,0.12000X0.07000*%
%ADD25R,0.03150X0.03150*%
%ADD26R,0.03150X0.03740*%
%ADD27R,0.03740X0.03150*%
%ADD28R,0.07087X0.01772*%
%ADD29R,0.06693X0.01772*%
%ADD30R,0.09055X0.01968*%
%ADD31R,0.09843X0.07874*%
%ADD61C,0.05906*%
%ADD62R,0.05906X0.05906*%
%ADD63C,0.06000*%
%ADD64R,0.06000X0.06000*%
%ADD65C,0.15354*%
%ADD66C,0.08000*%
%ADD67C,0.05906*%
%ADD68R,0.05906X0.05906*%
%ADD69R,0.05906X0.05906*%
%ADD70R,0.06000X0.06000*%
%ADD71C,0.03543*%
%ADD72R,0.05906X0.05906*%
%ADD73C,0.20000*%
%ADD74C,0.05000*%
D13*
X216918Y183000D02*
X229918Y170000D01*
X184260Y183000D02*
X216918D01*
X316000Y22000D02*
X348586D01*
X315000Y12000D02*
Y21000D01*
X316000Y22000D01*
X59000Y339000D02*
Y359000D01*
X65000Y365000D02*
X324586D01*
X59000Y359000D02*
X65000Y365000D01*
X35586Y315000D02*
X56530D01*
X35000Y285000D02*
Y314414D01*
X35586Y315000D01*
X76000D02*
X88000D01*
X40000Y320000D02*
X71000D01*
X76000Y315000D01*
X30000Y280000D02*
X35000Y285000D01*
X324586Y365000D02*
X376000D01*
X438276Y299000D02*
Y313315D01*
X419000Y299000D02*
X438276D01*
X417000Y297000D02*
X419000Y299000D01*
X417000Y290000D02*
Y297000D01*
X432500Y291939D02*
Y293914D01*
Y289965D02*
Y291939D01*
X426061D02*
X432500D01*
X426000Y292000D02*
X426061Y291939D01*
X383586Y290000D02*
X417000D01*
X397000Y154000D02*
Y179000D01*
X398000Y153000D02*
X406000D01*
X397000Y154000D02*
X398000Y153000D01*
X392586Y150000D02*
X394586Y148000D01*
X392000Y150000D02*
X392586D01*
X394586Y148000D02*
X440000D01*
X243614Y288677D02*
X244000Y289063D01*
X243433Y288677D02*
X243614D01*
X244000Y289063D02*
Y316000D01*
X256000Y329000D02*
Y336850D01*
Y307503D02*
Y329000D01*
X208500Y217000D02*
Y237000D01*
X218500Y263000D02*
Y327350D01*
X142561Y237000D02*
X147561Y242000D01*
X245000D02*
X247500Y239500D01*
X147561Y242000D02*
X245000D01*
X247500Y239500D02*
X332621D01*
X246500Y243500D02*
X249000Y241000D01*
X332000D01*
X247500Y245000D02*
X250000Y242500D01*
X331379D01*
X346879Y258000D01*
X146000Y245000D02*
X247500D01*
X146621Y243500D02*
X246500D01*
X200750Y217250D02*
Y236750D01*
X200500Y217000D02*
X200750Y217250D01*
X200500Y237000D02*
X200750Y236750D01*
X268000Y313000D02*
Y336850D01*
X284000Y316000D02*
X287000Y313000D01*
X284000Y316000D02*
Y336850D01*
X331235Y309765D02*
X332000Y309000D01*
X287000Y313000D02*
X326000D01*
X329235Y309765D01*
X331235D01*
X216000Y219000D02*
Y239000D01*
X212000Y172000D02*
Y179000D01*
X212918Y201000D02*
X214000D01*
X210918Y199000D02*
X212918Y201000D01*
X178024Y198685D02*
X178390D01*
X178705Y199000D02*
X210918D01*
X178390Y198685D02*
X178705Y199000D01*
X218918Y196000D02*
X223000D01*
X215941Y193024D02*
X218918Y196000D01*
X183685Y193024D02*
X215941D01*
X229918Y170000D02*
X231000D01*
X225276Y186724D02*
X232000Y180000D01*
X183685Y186724D02*
X225276D01*
X183685Y189874D02*
X183748Y189937D01*
X231937D01*
X232000Y190000D01*
X283000Y215000D02*
Y223000D01*
X289000Y229000D02*
X326000D01*
X283000Y223000D02*
X289000Y229000D01*
X256586Y306918D02*
X317835D01*
X318918Y308000D02*
X320000D01*
X317835Y306918D02*
X318918Y308000D01*
X256000Y307503D02*
X256586Y306918D01*
X240000Y325000D02*
Y336850D01*
X297000Y222000D02*
X326000D01*
X291000Y216000D02*
X297000Y222000D01*
X400299Y164500D02*
X401235Y163565D01*
Y160765D02*
Y163565D01*
X400299Y164500D02*
Y179000D01*
X401235Y160765D02*
X402000Y160000D01*
X403449Y167000D02*
Y179000D01*
Y167000D02*
X409449Y161000D01*
X406598Y165972D02*
Y179000D01*
X407570Y165000D02*
X428914D01*
X406598Y165972D02*
X407570Y165000D01*
X409449Y161000D02*
X417000D01*
X376000Y160000D02*
Y169147D01*
X382000Y161000D02*
Y184622D01*
X394000Y166000D02*
Y179000D01*
X393000Y166000D02*
X394000Y165000D01*
X129586Y208000D02*
X161690D01*
X110000Y200000D02*
X128414D01*
X129000Y200586D01*
Y207414D01*
X129586Y208000D01*
X369000Y308000D02*
X382000D01*
X383000Y289414D02*
Y307000D01*
X382000Y308000D02*
X383000Y307000D01*
X385586Y288500D02*
X431036D01*
X387000Y255586D02*
Y286414D01*
X387586Y287000D02*
X433000D01*
X387000Y286414D02*
X387586Y287000D01*
X385000Y287914D02*
X385586Y288500D01*
X385000Y257086D02*
Y287914D01*
X358000Y255000D02*
X386414D01*
X348121D02*
X358000D01*
Y250000D02*
Y255000D01*
X298000Y317000D02*
X332000D01*
X296000Y319000D02*
X298000Y317000D01*
X296000Y319000D02*
Y336850D01*
X324000Y337436D02*
Y364414D01*
X323414Y336850D02*
X324000Y337436D01*
X315000Y336850D02*
X323414D01*
X324000Y364414D02*
X324586Y365000D01*
X506000Y288586D02*
Y310000D01*
X520500Y253937D02*
X521437Y253000D01*
X506000Y288586D02*
X506586Y288000D01*
X479000Y215000D02*
X484850D01*
X388000Y336850D02*
X398000D01*
X378000D02*
X388000D01*
Y331000D02*
Y336850D01*
X174874Y206414D02*
X176460Y208000D01*
X201000D01*
X183685Y177276D02*
X190724D01*
X195000Y173000D01*
X211000Y336000D02*
X212000Y337000D01*
X211000Y258000D02*
Y336000D01*
X201918Y287000D02*
X203000D01*
X188020Y285000D02*
X199918D01*
X201918Y287000D01*
X140243Y222000D02*
X142561Y224318D01*
Y237000D01*
X141061Y224939D02*
Y236939D01*
X139621Y223500D02*
X141061Y224939D01*
X141000Y237000D02*
X141061Y236939D01*
X141000Y237879D02*
X146621Y243500D01*
X139000Y238000D02*
X146000Y245000D01*
X141000Y237000D02*
Y237879D01*
X139000Y225000D02*
Y238000D01*
X205000Y247000D02*
Y278414D01*
X127000Y230000D02*
X137000D01*
X204500Y246500D02*
X205000Y247000D01*
X145000Y246500D02*
X204500D01*
X144000Y248000D02*
X202500D01*
X203500Y249000D01*
Y274135D01*
X137000Y238500D02*
X145000Y246500D01*
X137000Y230000D02*
Y238500D01*
X136000Y240000D02*
X144000Y248000D01*
X127000Y240000D02*
X136000D01*
X202000Y250964D02*
Y269000D01*
X139586Y251000D02*
X199914D01*
X200535Y249500D02*
X202000Y250964D01*
X127500Y249500D02*
X200535D01*
X200500Y251586D02*
Y263898D01*
X199914Y251000D02*
X200500Y251586D01*
X187976Y269602D02*
X201398D01*
X202000Y269000D01*
X127000Y250000D02*
X127500Y249500D01*
X139000Y251586D02*
Y256000D01*
Y251586D02*
X139586Y251000D01*
X98000Y250000D02*
X127000D01*
X218500Y327350D02*
X228000Y336850D01*
X332621Y239500D02*
X348121Y255000D01*
X332000Y241000D02*
X347500Y256500D01*
X200000Y310586D02*
Y336850D01*
X200235Y308765D02*
Y310351D01*
X200000Y310586D02*
X200235Y310351D01*
X252000Y286704D02*
Y301414D01*
X253086Y302500D02*
X338414D01*
X254000Y300414D02*
X254586Y301000D01*
X254000Y282000D02*
Y300414D01*
X251414Y286118D02*
X252000Y286704D01*
X243433Y286118D02*
X251414D01*
X252000Y301414D02*
X253086Y302500D01*
X254586Y301000D02*
X350000D01*
X253000Y281000D02*
X254000Y282000D01*
X277000Y290000D02*
Y296000D01*
X351000Y302000D02*
Y336850D01*
X350000Y301000D02*
X351000Y302000D01*
X338414Y302500D02*
X339000Y303086D01*
Y336850D01*
X243433Y281000D02*
X253000D01*
X243433Y283559D02*
Y286118D01*
X233586Y278441D02*
X243433D01*
X233000Y259586D02*
Y277855D01*
X233586Y259000D02*
X236414D01*
X233000Y277855D02*
X233586Y278441D01*
X233000Y259586D02*
X233586Y259000D01*
X235882Y275296D02*
X236468Y275882D01*
X235882Y263586D02*
Y275296D01*
X236468Y275882D02*
X243433D01*
X236468Y263000D02*
X245000D01*
X235882Y263586D02*
X236468Y263000D01*
X236414Y259000D02*
X237000Y258414D01*
Y251000D02*
Y258414D01*
X245000Y263000D02*
X247000Y261000D01*
Y251000D02*
Y261000D01*
X245000Y265586D02*
X245586Y265000D01*
X245000Y265586D02*
Y272937D01*
X245586Y265000D02*
X251000D01*
X244614Y273323D02*
X245000Y272937D01*
X243433Y273323D02*
X244614D01*
X266567Y288677D02*
X275677D01*
X277000Y290000D01*
X292179Y283559D02*
X292206Y283586D01*
X266567Y286118D02*
X304882D01*
X266567Y283559D02*
X292179D01*
X307000Y251000D02*
Y284000D01*
X295414Y283586D02*
X297000Y282000D01*
X292206Y283586D02*
X295414D01*
X304882Y286118D02*
X307000Y284000D01*
X266567Y281000D02*
X286000D01*
X287000Y251000D02*
Y280000D01*
X286000Y281000D02*
X287000Y280000D01*
X267000Y260000D02*
X273000D01*
X274000Y261000D01*
X277000Y251000D02*
Y277855D01*
X266567Y278441D02*
X276414D01*
X277000Y277855D01*
X274000Y261000D02*
Y275296D01*
X266567Y275882D02*
X273414D01*
X274000Y275296D01*
X267000Y251000D02*
Y260000D01*
X257000Y264000D02*
X258000Y265000D01*
X257000Y251000D02*
Y264000D01*
X258000Y265000D02*
X264000D01*
X266567Y267567D01*
Y273323D01*
X297000Y251000D02*
Y282000D01*
X480000Y172586D02*
Y187850D01*
X479414Y172000D02*
X480000Y172586D01*
X485000Y201586D02*
Y208850D01*
X459567Y201000D02*
X484414D01*
X485000Y201586D01*
X465882Y195882D02*
X469000Y199000D01*
X459567Y195882D02*
X465882D01*
X469000Y199000D02*
X492000D01*
X500000Y207000D01*
X502000Y124000D02*
X508000Y118000D01*
X491148Y123297D02*
Y123778D01*
X491370Y124000D02*
X502000D01*
X491148Y123778D02*
X491370Y124000D01*
X410334Y168000D02*
X427414D01*
X432000Y183686D02*
Y186414D01*
X429000Y202973D02*
X429586Y203559D01*
X428000Y168586D02*
Y183929D01*
X426500Y184550D02*
X427500Y185550D01*
X428000Y183929D02*
X429000Y184929D01*
X431444Y164909D02*
Y183130D01*
X429500Y165586D02*
Y183308D01*
X432029Y164323D02*
X436433D01*
X430500Y184308D02*
Y200414D01*
X432586Y187000D02*
X437019D01*
X415995Y170000D02*
X425914D01*
X431444Y164909D02*
X432029Y164323D01*
X429500Y183308D02*
X430500Y184308D01*
X425914Y170000D02*
X426500Y170586D01*
X428914Y165000D02*
X429500Y165586D01*
X430500Y200414D02*
X431086Y201000D01*
X427500Y216379D02*
X432000Y220879D01*
X427500Y185550D02*
Y216379D01*
X429000Y184929D02*
Y202973D01*
X426500Y170586D02*
Y184550D01*
X427414Y168000D02*
X428000Y168586D01*
X432000Y186414D02*
X432586Y187000D01*
X431444Y183130D02*
X432000Y183686D01*
X398000Y343150D02*
Y352000D01*
X378000Y343150D02*
Y352000D01*
X351000Y343150D02*
Y352000D01*
X339000Y343150D02*
Y352000D01*
X315000Y343150D02*
Y352000D01*
X296000Y343150D02*
Y352000D01*
X284000Y343150D02*
Y352000D01*
X268000Y343150D02*
Y352000D01*
X256000Y343150D02*
Y352000D01*
X240000Y343150D02*
Y352000D01*
X228000Y343150D02*
Y352000D01*
X212000Y343299D02*
Y352000D01*
X200000Y343150D02*
Y352000D01*
X437000Y357000D02*
X437638Y356362D01*
Y347323D02*
Y356362D01*
X434445Y347366D02*
X435126Y346685D01*
X430000Y356000D02*
X435126Y350874D01*
X179000Y330850D02*
X183850D01*
X185000Y332000D01*
Y336850D01*
X177500Y278365D02*
X178586Y277279D01*
X179000Y282983D02*
Y330850D01*
X174500Y268500D02*
X175957Y267043D01*
X177500Y278365D02*
Y312500D01*
X175000Y315000D02*
X177500Y312500D01*
X174500Y268500D02*
Y308500D01*
X179586Y282398D02*
X187976D01*
X176000Y273086D02*
Y311000D01*
X179000Y282983D02*
X179586Y282398D01*
X170000Y313000D02*
X174500Y308500D01*
X172500Y314500D02*
X176000Y311000D01*
Y273086D02*
X177086Y272000D01*
X178586Y277279D02*
X187976D01*
X177086Y272000D02*
X187815D01*
X175000Y315000D02*
Y336850D01*
X165586Y314500D02*
X172500D01*
X158000Y313000D02*
X170000D01*
X187815Y272000D02*
X187976Y272161D01*
X165000Y315086D02*
X165586Y314500D01*
X165000Y315086D02*
Y336850D01*
X155000Y316000D02*
X158000Y313000D01*
X155000Y316000D02*
Y336850D01*
X168000Y311000D02*
X172000Y307000D01*
X145586Y311000D02*
X168000D01*
X172000Y271000D02*
Y307000D01*
X168043Y267043D02*
X172000Y271000D01*
X160024Y272161D02*
X169414D01*
X170500Y273247D02*
Y305621D01*
X169414Y272161D02*
X170500Y273247D01*
X160024Y267043D02*
X168043D01*
X175957D02*
X187976D01*
Y284957D02*
X188020Y285000D01*
X187976Y296029D02*
X188562Y296615D01*
X196385D01*
X187976Y287516D02*
Y296029D01*
X196385Y296615D02*
X197000Y296000D01*
X160000D02*
X160024Y295976D01*
Y287516D02*
Y295976D01*
X160000Y256000D02*
X160024Y256024D01*
Y264484D01*
X145000Y311586D02*
Y336850D01*
Y311586D02*
X145586Y311000D01*
X135586Y309500D02*
X166621D01*
X135000Y310086D02*
Y336850D01*
Y310086D02*
X135586Y309500D01*
X166000Y308000D02*
X169000Y305000D01*
X124511Y308000D02*
X166000D01*
X165000Y306000D02*
X167500Y303500D01*
X169000Y278000D02*
Y305000D01*
X123925Y308586D02*
X124511Y308000D01*
X167500Y282586D02*
Y303500D01*
X115000Y306586D02*
X115586Y306000D01*
X165000D01*
X166621Y309500D02*
X170500Y305621D01*
X168280Y277279D02*
X169000Y278000D01*
X160024Y277279D02*
X168280D01*
X166914Y282000D02*
X167500Y282586D01*
X165079Y282000D02*
X166914D01*
X123925Y308586D02*
Y335776D01*
X125000Y336850D01*
X160409Y282012D02*
X165067D01*
X165079Y282000D01*
X160024Y282398D02*
X160409Y282012D01*
X115000Y306586D02*
Y336850D01*
X187976Y264484D02*
X199914D01*
X200500Y263898D01*
X187976Y274721D02*
X202914D01*
X203500Y274135D01*
X187976Y279839D02*
X203576D01*
X205000Y278414D01*
X146043Y284957D02*
X160024D01*
X127000Y300000D02*
X131000D01*
X146043Y284957D01*
X141161Y279839D02*
X160024D01*
X131000Y290000D02*
X141161Y279839D01*
X127000Y290000D02*
X131000D01*
X138279Y274721D02*
X160024D01*
X133000Y280000D02*
X138279Y274721D01*
X127000Y280000D02*
X133000D01*
X127000Y270000D02*
X141000D01*
X141398Y269602D02*
X160024D01*
X141000Y270000D02*
X141398Y269602D01*
X135000Y260000D02*
X139000Y256000D01*
X127000Y260000D02*
X135000D01*
X21723Y222000D02*
X140243D01*
X62000Y223500D02*
X139621D01*
X90000Y225000D02*
X139000D01*
X29500Y223500D02*
X62000D01*
X61000Y224500D02*
Y229000D01*
Y224500D02*
X62000Y223500D01*
X81000Y234000D02*
X90000Y225000D01*
X47000Y234000D02*
X81000D01*
X43000Y230000D02*
X47000Y234000D01*
X35500Y230000D02*
X43000D01*
X27000Y226000D02*
Y230000D01*
Y226000D02*
X29500Y223500D01*
X18137Y225586D02*
X21723Y222000D01*
X90000Y230000D02*
X127000D01*
X16637Y190586D02*
X17223Y190000D01*
X20121Y189586D02*
Y190000D01*
Y189586D02*
X21000Y188707D01*
X17223Y190000D02*
X20121D01*
X30000D01*
X21000Y84879D02*
Y188707D01*
X16637Y190586D02*
Y319051D01*
X17586Y320000D01*
X30000D01*
X18137Y225586D02*
Y291414D01*
X18723Y292000D02*
X26914D01*
X18137Y291414D02*
X18723Y292000D01*
X175879Y21000D02*
X305000D01*
Y12000D02*
Y21000D01*
X167414Y72000D02*
X168000Y71414D01*
X157000Y72000D02*
X167414D01*
X168000Y28879D02*
Y71414D01*
Y28879D02*
X175879Y21000D01*
X153000Y76000D02*
X157000Y72000D01*
X29879Y76000D02*
X153000D01*
X21000Y84879D02*
X29879Y76000D01*
X22500Y85500D02*
Y178914D01*
X24000Y86121D02*
Y159414D01*
X30500Y77500D02*
X162500D01*
X22500Y85500D02*
X30500Y77500D01*
X24000Y86121D02*
X31121Y79000D01*
X154000D01*
X478414Y285500D02*
X479500Y286586D01*
X458599Y287000D02*
X459685Y288086D01*
X443586Y285500D02*
X478414D01*
X442989Y293000D02*
X444575Y294586D01*
X437086Y291500D02*
X446639D01*
X440086Y288500D02*
X452938D01*
X449788Y290000D02*
X450874Y291086D01*
X439500Y287914D02*
X440086Y288500D01*
X443000Y279586D02*
Y284914D01*
X438586Y290000D02*
X449788D01*
X435586Y293000D02*
X442989D01*
X433086Y294500D02*
X440500D01*
X441000Y281672D02*
Y286414D01*
X441586Y287000D01*
X441425Y295425D02*
Y313315D01*
X443000Y284914D02*
X443586Y285500D01*
X439500Y283257D02*
Y287914D01*
X441586Y287000D02*
X458599D01*
X440500Y294500D02*
X441425Y295425D01*
X452938Y288500D02*
X454024Y289586D01*
X446639Y291500D02*
X447724Y292586D01*
X435000Y292414D02*
X435586Y293000D01*
X432500Y293914D02*
X433086Y294500D01*
X435000Y289000D02*
Y292414D01*
X436500Y290914D02*
X437086Y291500D01*
X438000Y289414D02*
X438586Y290000D01*
X438000Y284757D02*
Y289414D01*
X444575Y294586D02*
Y313315D01*
X435743Y285500D02*
X436500Y286257D01*
X437243Y284000D02*
X438000Y284757D01*
X433000Y287000D02*
X435000Y289000D01*
X436500Y286257D02*
Y290914D01*
X438743Y282500D02*
X439500Y283257D01*
X431036Y288500D02*
X432500Y289965D01*
X426000Y280414D02*
X426586Y281000D01*
X410086Y284000D02*
X437243D01*
X440328Y281000D02*
X441000Y281672D01*
X426586Y281000D02*
X440328D01*
X383000Y258586D02*
Y289414D01*
X426000Y271000D02*
Y280414D01*
X383000Y289414D02*
X383586Y290000D01*
X416000Y280414D02*
X418086Y282500D01*
X402086Y285500D02*
X435743D01*
X401000Y284414D02*
X402086Y285500D01*
X406000Y279914D02*
X410086Y284000D01*
X418086Y282500D02*
X438743D01*
X386414Y255000D02*
X387000Y255586D01*
X347500Y256500D02*
X384414D01*
X382414Y258000D02*
X383000Y258586D01*
X346879Y258000D02*
X382414D01*
X384414Y256500D02*
X385000Y257086D01*
X26914Y292000D02*
X28914Y290000D01*
X30000D01*
X401000Y278000D02*
Y284414D01*
X43354Y285647D02*
X86646D01*
X40000Y289000D02*
X43354Y285647D01*
X40000Y289000D02*
Y290000D01*
X90000Y289000D02*
Y290000D01*
X86646Y285647D02*
X90000Y289000D01*
X185000Y343150D02*
Y351000D01*
X175000Y343150D02*
Y352000D01*
X165000Y343150D02*
Y352000D01*
X154000Y344150D02*
X155000Y343150D01*
X154000Y344150D02*
Y352000D01*
X145000Y343150D02*
Y352000D01*
X135000Y343150D02*
Y352000D01*
X125000Y343150D02*
Y352000D01*
X115000Y343150D02*
Y352000D01*
X107000Y330000D02*
X108000Y329000D01*
X90000Y330000D02*
X107000D01*
X108000Y300586D02*
Y329000D01*
X93086Y319000D02*
X104414D01*
X105000Y290586D02*
Y318414D01*
X104414Y319000D02*
X105000Y318414D01*
X90000Y320000D02*
X90957Y319043D01*
X93042D02*
X93086Y319000D01*
X90957Y319043D02*
X93042D01*
Y310957D02*
X93086Y311000D01*
X102414D02*
X103000Y310414D01*
Y281000D02*
Y310414D01*
X85000Y305000D02*
X90957Y310957D01*
X93042D01*
X93086Y311000D02*
X102414D01*
X97000Y251000D02*
X98000Y250000D01*
X97000Y251000D02*
Y279414D01*
X90000Y300000D02*
X100414D01*
X101000Y299414D01*
Y270586D02*
Y299414D01*
X103000Y281000D02*
X104000Y280000D01*
X127000D01*
X101586Y270000D02*
X127000D01*
X101000Y270586D02*
X101586Y270000D01*
X105000Y290586D02*
X105586Y290000D01*
X127000D01*
X108586Y300000D02*
X127000D01*
X108000Y300586D02*
X108586Y300000D01*
X98414Y289939D02*
X99000Y289353D01*
Y260586D02*
Y289353D01*
X90061Y289939D02*
X98414D01*
X99000Y260586D02*
X99586Y260000D01*
X90000Y290000D02*
X90061Y289939D01*
X99586Y260000D02*
X127000D01*
X95586Y240000D02*
X127000D01*
X94414Y270000D02*
X95000Y269414D01*
Y240586D02*
Y269414D01*
Y240586D02*
X95586Y240000D01*
X90000Y270000D02*
X94414D01*
X90000Y280000D02*
X96414D01*
X97000Y279414D01*
X90000Y250586D02*
Y260000D01*
Y230000D02*
Y250586D01*
X396414Y309000D02*
X398000Y307414D01*
Y306121D02*
Y307414D01*
X396000Y309000D02*
X396414D01*
X398000Y306121D02*
X400061Y304061D01*
X407939D01*
X409000Y305121D01*
Y329414D01*
X393000Y302000D02*
X408000D01*
X411000Y305000D02*
Y327414D01*
X408000Y302000D02*
X411000Y305000D01*
X413000Y340000D02*
X414000D01*
X416063Y337937D01*
X426252D01*
X409362Y334362D02*
X425953D01*
X409000Y334000D02*
X409362Y334362D01*
X425953D02*
X426315Y334724D01*
X416500Y329500D02*
X418575Y331575D01*
X426315D01*
X409086Y329500D02*
X416500D01*
X409000Y329414D02*
X409086Y329500D01*
X426252Y337937D02*
X426315Y337874D01*
X418586Y341012D02*
X426279D01*
X418000Y341598D02*
X418586Y341012D01*
X418000Y341598D02*
Y346000D01*
X424000Y352000D02*
X429315Y346685D01*
X431976D01*
X435126D02*
Y350874D01*
X437638Y347323D02*
X438276Y346685D01*
X441425D02*
Y363425D01*
X442558Y364559D01*
X383500Y234000D02*
X391000D01*
X411586Y328000D02*
X425890D01*
X411000Y327414D02*
X411586Y328000D01*
X425890D02*
X426315Y328425D01*
X413586Y325000D02*
X426039D01*
X413235Y302765D02*
Y304351D01*
X413000Y304586D02*
X413235Y304351D01*
X413000Y304586D02*
Y324414D01*
X413235Y302765D02*
X414000Y302000D01*
X413000Y324414D02*
X413586Y325000D01*
X426039D02*
X426315Y325276D01*
X418000Y311000D02*
Y321540D01*
X418586Y322126D02*
X426315D01*
X418000Y321540D02*
X418586Y322126D01*
X497000Y288000D02*
X499000Y290000D01*
X520500Y246063D02*
X520563Y246000D01*
X499000Y290000D02*
Y310000D01*
X425000Y304000D02*
Y318295D01*
X425681Y318976D02*
X426315D01*
X425000Y318295D02*
X425681Y318976D01*
X431976Y313315D02*
X431988Y313303D01*
Y303012D02*
Y313303D01*
Y303012D02*
X432000Y303000D01*
X490000Y325586D02*
X490586Y325000D01*
X519437D01*
X490000Y325586D02*
Y345850D01*
X519437Y325000D02*
X520500Y326063D01*
X472500Y321500D02*
X473000D01*
X468724Y325276D02*
X472500Y321500D01*
X436000Y271000D02*
Y278414D01*
X436586Y279000D01*
X442414D01*
X358000Y172000D02*
Y228000D01*
X459918Y353000D02*
X461000D01*
X451460Y355000D02*
X457918D01*
X459918Y353000D01*
X450874Y354414D02*
X451460Y355000D01*
X450874Y346685D02*
Y354414D01*
X464000Y358586D02*
Y365000D01*
X449000Y358000D02*
X463414D01*
X464000Y358586D01*
X447724Y356724D02*
X449000Y358000D01*
X447724Y346685D02*
Y356724D01*
X442558Y364559D02*
X452424D01*
X452865Y365000D01*
X490000Y352150D02*
X496000D01*
X518850D01*
X490000D02*
Y364414D01*
X473137Y365000D02*
X489414D01*
X490000Y364414D01*
X501000Y334000D02*
X520437D01*
X496586D02*
X501000D01*
X520500Y333937D02*
X520563Y334000D01*
X520437D02*
X520500Y333937D01*
X487000Y272000D02*
Y340000D01*
X485500Y279586D02*
Y339379D01*
X481276Y334724D02*
X482500Y333500D01*
X484000Y281586D02*
Y336748D01*
X466586Y281000D02*
X483414D01*
X482500Y283086D02*
Y333500D01*
X481000Y284586D02*
Y330172D01*
X476000Y279000D02*
X484914D01*
X484476Y342524D02*
X487000Y340000D01*
X478000Y328000D02*
X479500Y326500D01*
Y286586D02*
Y326500D01*
X483414Y281000D02*
X484000Y281586D01*
X479586Y331586D02*
X481000Y330172D01*
X483855Y341024D02*
X485500Y339379D01*
X482874Y337874D02*
X484000Y336748D01*
X456586Y282500D02*
X481914D01*
X446586Y284000D02*
X480414D01*
X481000Y284586D01*
X459685Y331575D02*
X479575D01*
X484914Y279000D02*
X485500Y279586D01*
X481914Y282500D02*
X482500Y283086D01*
X479575Y331575D02*
X479586Y331586D01*
X486000Y271000D02*
X487000Y272000D01*
X508414Y267850D02*
X509000Y268436D01*
Y287414D01*
X503000Y267850D02*
X508414D01*
Y288000D02*
X509000Y287414D01*
X506586Y288000D02*
X508414D01*
X537220Y263779D02*
X541000Y260000D01*
X520500Y263779D02*
X537220D01*
X500000Y274150D02*
X503000D01*
X497000D02*
X500000D01*
Y283000D01*
X492586Y267850D02*
X497000D01*
X492000Y268436D02*
Y287414D01*
Y268436D02*
X492586Y267850D01*
Y288000D02*
X497000D01*
X492000Y287414D02*
X492586Y288000D01*
X396000Y278000D02*
X401000D01*
X447724Y292586D02*
Y313315D01*
X450874Y291086D02*
Y313315D01*
X416000Y271000D02*
Y280414D01*
X406000Y271000D02*
Y279914D01*
X454024Y289586D02*
Y313315D01*
X459685Y288086D02*
Y318976D01*
X446000Y271000D02*
Y283414D01*
X446586Y284000D01*
X442414Y279000D02*
X443000Y279586D01*
X456000Y271000D02*
Y281914D01*
X456586Y282500D01*
X466000Y280414D02*
X466586Y281000D01*
X466000Y271000D02*
Y280414D01*
X476000Y271000D02*
Y279000D01*
X366000Y234000D02*
X383500D01*
X363000Y231000D02*
X366000Y234000D01*
X363000Y174586D02*
Y231000D01*
X459685Y325276D02*
X468724D01*
X445000Y323000D02*
X447968D01*
X437000D02*
X445000D01*
X444575Y323425D02*
Y346685D01*
Y323425D02*
X445000Y323000D01*
X447968D02*
X448842Y322126D01*
X459685D01*
X435126Y321126D02*
X437000Y323000D01*
X435126Y313315D02*
Y321126D01*
X465000Y343109D02*
Y346099D01*
X454024Y346685D02*
X464414D01*
X465000Y346099D01*
X497000Y255000D02*
X505937Y246063D01*
X497000Y255000D02*
Y267850D01*
X503000Y256586D02*
X506586Y253000D01*
X503000Y256586D02*
Y267850D01*
X505937Y246063D02*
X520500D01*
X519563Y253000D02*
X520500Y253937D01*
X506586Y253000D02*
X519563D01*
X496000Y334586D02*
X496586Y334000D01*
X496000Y334586D02*
Y345850D01*
X520500Y343779D02*
Y350500D01*
X518850Y352150D02*
X520500Y350500D01*
X465000Y343109D02*
X465586Y342524D01*
X459685Y341024D02*
X483855D01*
X465586Y342524D02*
X484476D01*
X459685Y334724D02*
X481276D01*
X459685Y337874D02*
X482874D01*
X396000Y271000D02*
Y278000D01*
X460110Y328000D02*
X478000D01*
X459685Y328425D02*
X460110Y328000D01*
X536929Y223622D02*
Y233705D01*
X534414Y236221D02*
X536929Y233705D01*
X520500Y236221D02*
X534414D01*
X535414Y316220D02*
X536929Y314705D01*
X520500Y316220D02*
X535414D01*
X536929Y303622D02*
Y314705D01*
X414000Y38500D02*
X418500Y43000D01*
X414000Y14000D02*
Y38500D01*
X425000Y66000D02*
X425037Y66037D01*
X435183D01*
X404000Y86000D02*
X407000Y89000D01*
X404000Y74000D02*
Y86000D01*
X398000D02*
X402000Y90000D01*
X398000Y82000D02*
Y86000D01*
X408593Y94976D02*
X410315D01*
X403616Y90000D02*
X408593Y94976D01*
X402000Y90000D02*
X403616D01*
X407000Y89000D02*
X415661D01*
X413000Y77000D02*
X421000D01*
X394000Y89000D02*
X398000Y93000D01*
X412000Y64586D02*
Y76000D01*
X395000Y64000D02*
X411414D01*
X412000Y64586D01*
Y76000D02*
X413000Y77000D01*
X394000Y65000D02*
X395000Y64000D01*
X394000Y65000D02*
Y89000D01*
X421000Y204145D02*
Y218500D01*
X415410Y203559D02*
X420414D01*
X421000Y204145D01*
X440000Y138000D02*
X475000D01*
X431724Y129724D02*
X440000Y138000D01*
X475000D02*
X480000Y133000D01*
X441000Y134000D02*
X446000D01*
X434874Y127874D02*
X441000Y134000D01*
X434874Y122685D02*
Y127874D01*
X452000Y119000D02*
X468000D01*
X443685Y117024D02*
X444000Y117339D01*
X444586Y124000D02*
X456000D01*
X444000Y117339D02*
Y123414D01*
X444586Y124000D01*
X442000Y128414D02*
X442586Y129000D01*
X442000Y128384D02*
Y128414D01*
X442586Y129000D02*
X468000D01*
X438024Y122685D02*
Y124407D01*
X442000Y128384D01*
X450000Y117000D02*
X452000Y119000D01*
X450000Y115000D02*
Y117000D01*
X443685Y113874D02*
X448874D01*
X450000Y115000D01*
X451547Y113547D02*
X455547D01*
X448724Y110724D02*
X451547Y113547D01*
X455547D02*
X456000Y114000D01*
X443685Y110724D02*
X448724D01*
X451000Y109000D02*
X468000D01*
X449575Y107575D02*
X451000Y109000D01*
X443685Y107575D02*
X449575D01*
X428575Y134575D02*
X432000Y138000D01*
X428575Y122685D02*
Y134575D01*
X425425Y123685D02*
Y134061D01*
X422000Y137000D02*
X422486D01*
X425425Y134061D01*
X431724Y122685D02*
Y129724D01*
X425000Y123685D02*
X425713Y122972D01*
X428553Y101276D02*
X443685D01*
X425414Y104414D02*
X425425Y104425D01*
X425414Y104414D02*
X428553Y101276D01*
X425425Y104425D02*
Y122685D01*
X443898Y104213D02*
X455787D01*
X443685Y104425D02*
X443898Y104213D01*
X455787D02*
X456000Y104000D01*
X451586Y99000D02*
X468000D01*
X451000Y96000D02*
Y98414D01*
X451586Y99000D01*
X449976Y94976D02*
X451000Y96000D01*
X443685Y94976D02*
X449976D01*
X415661Y89000D02*
X415976Y89315D01*
X421690Y82000D02*
X422276Y82586D01*
Y89315D01*
X409000Y82000D02*
X421690D01*
X391000Y100690D02*
X391586Y101276D01*
X392500Y63000D02*
Y97540D01*
X393086Y98126D01*
X391000Y58586D02*
X391586Y58000D01*
X391000Y58586D02*
Y100690D01*
X392500Y63000D02*
X393500Y62000D01*
X415265D02*
X415850Y62586D01*
Y73000D01*
X393500Y62000D02*
X415265D01*
X438024Y89315D02*
X454414D01*
X455061Y93061D02*
X456000Y94000D01*
X455061Y89962D02*
Y93061D01*
X454414Y89315D02*
X455061Y89962D01*
X456000Y78586D02*
Y84000D01*
X455414Y78000D02*
X456000Y78586D01*
X440000Y78000D02*
X455414D01*
X466000Y87000D02*
X468000Y89000D01*
X466000Y76000D02*
Y87000D01*
X465000Y75000D02*
X466000Y76000D01*
Y88414D02*
X466586Y89000D01*
X468000D01*
X434874Y83126D02*
Y89315D01*
Y83126D02*
X440000Y78000D01*
X436586Y75000D02*
X465000D01*
X436000Y75586D02*
X436586Y75000D01*
X436000Y75586D02*
Y78000D01*
X431724Y82276D02*
X436000Y78000D01*
X431724Y82276D02*
Y89315D01*
X468000Y81000D02*
X473000D01*
X478500Y88500D02*
X486000Y96000D01*
X462780Y68634D02*
X467414D01*
X477489Y64575D02*
X478500Y65586D01*
X472000Y56424D02*
Y63989D01*
X462780Y55839D02*
X471414D01*
X468000Y69220D02*
Y81000D01*
X467414Y68634D02*
X468000Y69220D01*
X472586Y64575D02*
X477489D01*
X478500Y65586D02*
Y88500D01*
X472000Y63989D02*
X472586Y64575D01*
X471414Y55839D02*
X472000Y56424D01*
X480000Y63586D02*
Y87879D01*
X473000Y67000D02*
Y73000D01*
X485000Y58586D02*
Y89414D01*
X472075Y66075D02*
X473000Y67000D01*
X486121Y94000D02*
X493000D01*
X462780Y66075D02*
X472075D01*
X480000Y87879D02*
X486121Y94000D01*
X485000Y89414D02*
X495265D01*
X421000Y77000D02*
X425425Y81425D01*
Y89315D01*
X374000Y77000D02*
X375000Y78000D01*
X379000D01*
X205964Y73000D02*
X374000D01*
Y77000D01*
X376418Y71000D02*
X377918Y69500D01*
X186000Y75000D02*
X190000Y71000D01*
X377918Y69500D02*
X379000D01*
X190000Y71000D02*
X376418D01*
X199964Y79000D02*
X205964Y73000D01*
X428287Y89028D02*
X428575Y89315D01*
X428287Y78287D02*
Y89028D01*
X428000Y78000D02*
X428287Y78287D01*
X393086Y98126D02*
X410315D01*
X391586Y58000D02*
X415850D01*
X391586Y101276D02*
X410315D01*
X365586Y144500D02*
X400000D01*
X399500Y130586D02*
Y144000D01*
X400086Y130000D02*
X421690D01*
X399500Y130586D02*
X400086Y130000D01*
X399500Y144000D02*
X400000Y144500D01*
X421690Y130000D02*
X422276Y129414D01*
Y122685D02*
Y129414D01*
X396250Y123000D02*
Y140750D01*
Y119109D02*
Y123000D01*
X396565Y122685D02*
X405161D01*
X396250Y123000D02*
X396565Y122685D01*
X364086Y143000D02*
X398000D01*
Y128586D02*
X398586Y128000D01*
X398000Y128586D02*
Y143000D01*
X398586Y128000D02*
X418252D01*
X405161Y122685D02*
X415976D01*
X401000Y118524D02*
X405161Y122685D01*
X418252Y128000D02*
X419126Y127126D01*
Y122685D02*
Y127126D01*
X362586Y141000D02*
X396000D01*
X396836Y118524D02*
X401000D01*
X394750Y117609D02*
Y138914D01*
X361086Y139500D02*
X394164D01*
X396000Y141000D02*
X396250Y140750D01*
X394164Y139500D02*
X394750Y138914D01*
X396250Y119109D02*
X396836Y118524D01*
X395336Y117024D02*
X410315D01*
X394750Y117609D02*
X395336Y117024D01*
X359586Y138000D02*
X392854D01*
X393250Y114460D02*
X393836Y113874D01*
X410315D01*
X393250Y114460D02*
Y137604D01*
X392854Y138000D02*
X393250Y137604D01*
X391750Y111310D02*
X392336Y110724D01*
X391750Y111310D02*
Y136000D01*
X358086D02*
X391750D01*
X392336Y110724D02*
X410315D01*
X356586Y134000D02*
X389793D01*
Y109207D02*
Y134000D01*
X388293Y106707D02*
X390586Y104414D01*
X355000Y132000D02*
X387707D01*
X388293Y106707D02*
Y131414D01*
X387707Y132000D02*
X388293Y131414D01*
X389793Y109207D02*
X391425Y107575D01*
X410315D01*
X399254Y104425D02*
X400161D01*
X399243Y104414D02*
X399254Y104425D01*
X390586Y104414D02*
X399243D01*
X421000Y177000D02*
Y183541D01*
X422000Y184541D01*
Y190000D01*
X421039Y190961D02*
X422000Y190000D01*
X415410Y170586D02*
X415995Y170000D01*
X415410Y170586D02*
Y184661D01*
X409748Y168586D02*
Y179000D01*
Y168586D02*
X410334Y168000D01*
X440000Y148000D02*
X445000Y153000D01*
X388287Y146000D02*
X441000D01*
X387701Y146586D02*
X388287Y146000D01*
X441000D02*
X447000Y152000D01*
X387701Y146586D02*
Y179000D01*
X440414Y158000D02*
X441000Y158586D01*
Y166296D01*
X427000Y158000D02*
X440414D01*
Y166882D02*
X441000Y166296D01*
X436433Y166882D02*
X440414D01*
X429586Y203559D02*
X436433D01*
X431086Y201000D02*
X436433D01*
X415410Y190961D02*
X421039D01*
X479150Y143850D02*
X480000Y143000D01*
X469000Y143850D02*
X479150D01*
X469000Y153939D02*
X487000D01*
X456000D02*
X469000D01*
Y150150D02*
Y153939D01*
X464500Y242500D02*
X466000Y244000D01*
X446000Y242500D02*
X464500D01*
X444500Y244000D02*
X456000D01*
Y252000D01*
X444500Y241000D02*
X446000Y242500D01*
X433500Y240414D02*
X434086Y241000D01*
X433500Y221743D02*
Y240414D01*
X434086Y241000D02*
X444500D01*
X433500Y221743D02*
X434243Y221000D01*
X432586Y242500D02*
X443000D01*
X444500Y244000D01*
X432000Y220879D02*
Y241914D01*
X432586Y242500D01*
X431086Y244000D02*
X441414D01*
X443238Y245824D01*
X430500Y243414D02*
X431086Y244000D01*
X430000Y246000D02*
X436000D01*
Y252000D01*
X443238Y245824D02*
Y248465D01*
X430500Y221500D02*
Y243414D01*
X425500Y195086D02*
Y216500D01*
X430500Y221500D01*
X424000Y217121D02*
X429000Y222121D01*
Y245000D01*
X424000Y197846D02*
Y217121D01*
X421000Y218500D02*
X426000Y223500D01*
X415879Y218000D02*
X423000Y225121D01*
X422500Y217879D02*
X427500Y222879D01*
Y246535D01*
X423000Y225121D02*
Y229500D01*
X415410Y206709D02*
Y215409D01*
X426000Y223500D02*
Y245914D01*
X424500Y224500D02*
Y244414D01*
X415410Y215409D02*
X424500Y224500D01*
X410334Y218000D02*
X415879D01*
X422500Y201086D02*
Y217879D01*
X429000Y245000D02*
X430000Y246000D01*
X426488Y247547D02*
X427500Y246535D01*
X426488Y247547D02*
Y251512D01*
X426000Y252000D02*
X426488Y251512D01*
X425414Y246500D02*
X426000Y245914D01*
X406586Y245000D02*
X423914D01*
X424500Y244414D01*
X416586Y246500D02*
X425414D01*
X423000Y229500D02*
Y242914D01*
X416000Y247086D02*
Y252000D01*
Y247086D02*
X416586Y246500D01*
X396000Y244586D02*
X397086Y243500D01*
X422414D01*
X423000Y242914D01*
X406000Y245586D02*
Y252000D01*
Y245586D02*
X406586Y245000D01*
X396000Y244586D02*
Y252000D01*
X434243Y221000D02*
X442000D01*
X409748Y212370D02*
Y217414D01*
X410334Y218000D01*
X442000Y196468D02*
Y221000D01*
X466000Y244000D02*
Y252000D01*
X446000Y251227D02*
Y252000D01*
X443238Y248465D02*
X446000Y251227D01*
X421414Y200000D02*
X422500Y201086D01*
X415819Y200000D02*
X421414D01*
X424414Y194000D02*
X425500Y195086D01*
X423414Y197260D02*
X424000Y197846D01*
X415410Y197260D02*
X423414D01*
X415520Y194000D02*
X424414D01*
X415410Y200409D02*
X415819Y200000D01*
X415410Y194110D02*
X415520Y194000D01*
X407184Y224000D02*
X413000D01*
X406598Y223414D02*
X407184Y224000D01*
X406598Y212370D02*
Y223414D01*
X403449Y212370D02*
Y224449D01*
X407000Y228000D01*
X397075Y212445D02*
Y237925D01*
X407000Y228000D02*
Y238000D01*
X397150Y212370D02*
Y223150D01*
X476388Y164000D02*
X486000D01*
X448000Y216000D02*
X478150D01*
X479000Y215150D01*
X441414Y195882D02*
X442000Y196468D01*
X436433Y195882D02*
X441414D01*
X444000Y210000D02*
X448000Y214000D01*
Y216000D01*
X444000Y201909D02*
Y210000D01*
Y201909D02*
X452586Y193323D01*
X452000Y180000D02*
Y192737D01*
Y164909D02*
Y180000D01*
X436433Y179677D02*
X451677D01*
X452000Y180000D01*
X487000Y139000D02*
X488500Y137500D01*
X487000Y139000D02*
Y153939D01*
X500000Y207000D02*
Y240000D01*
X495919Y244081D02*
X500000Y240000D01*
X476000Y251043D02*
Y252000D01*
X473918Y244667D02*
X474504Y244081D01*
X473918Y248961D02*
X476000Y251043D01*
X473918Y244667D02*
Y248961D01*
X474504Y244081D02*
X495919D01*
X485000Y208850D02*
X486075Y209925D01*
X494925D02*
X495000Y210000D01*
X486075Y209925D02*
X494925D01*
X450586Y203559D02*
X459567D01*
X436433Y208677D02*
X436614D01*
X437000Y209063D01*
Y216000D01*
X417000Y153000D02*
X441914D01*
X443000Y154086D01*
X444414Y172000D02*
X445000Y171414D01*
X436433Y172000D02*
X444414D01*
X445000Y153000D02*
Y171414D01*
X443000Y154086D02*
Y168855D01*
X373000Y168000D02*
Y186000D01*
Y168000D02*
X374000Y167000D01*
X373000Y186000D02*
X376000Y189000D01*
X375000Y185879D02*
X376932Y187811D01*
X375000Y170147D02*
Y185879D01*
Y170147D02*
X376000Y169147D01*
X380000Y149000D02*
Y156000D01*
X376000Y160000D02*
X380000Y156000D01*
X382000Y184622D02*
X382039Y184661D01*
X450061Y148000D02*
X456000Y153939D01*
X449000Y148000D02*
X450061D01*
X374000Y153000D02*
Y167000D01*
X375110Y194110D02*
X382039D01*
X374000Y193000D02*
X375110Y194110D01*
X374000Y191000D02*
Y193000D01*
X368000Y185000D02*
X374000Y191000D01*
X363000Y174586D02*
X365000Y172586D01*
Y145086D02*
Y172586D01*
X376932Y187811D02*
X382039D01*
X382000Y191000D02*
X382039Y190961D01*
X376000Y189000D02*
Y190414D01*
X376586Y191000D02*
X382000D01*
X376000Y190414D02*
X376586Y191000D01*
X437019Y187000D02*
X442000D01*
X436433Y169441D02*
X442414D01*
X443000Y168855D01*
X447000Y152000D02*
Y173973D01*
X436433Y174559D02*
X446414D01*
X447000Y173973D01*
X488500Y137500D02*
X508152D01*
X400000Y187906D02*
X415315D01*
X395094D02*
X400000D01*
X400299Y188205D02*
Y212370D01*
X400000Y187906D02*
X400299Y188205D01*
X397075Y212445D02*
X397150Y212370D01*
X397000Y238000D02*
X397075Y237925D01*
X395000Y188000D02*
X395094Y187906D01*
X415315D02*
X415410Y187811D01*
X390850Y185850D02*
X392235Y187235D01*
X394235D02*
X395000Y188000D01*
X392235Y187235D02*
X394235D01*
X390850Y179000D02*
Y185850D01*
X345000Y174586D02*
Y208000D01*
X337000Y172000D02*
Y187117D01*
Y163086D02*
Y172000D01*
X40000Y160000D02*
X44354Y155647D01*
X39075Y160925D02*
X40000Y160000D01*
X330000Y161586D02*
Y172000D01*
Y161586D02*
X330586Y161000D01*
X323000Y172000D02*
Y200000D01*
X316000Y172000D02*
Y214000D01*
Y158586D02*
Y172000D01*
X330000D02*
Y207000D01*
X374260Y197260D02*
X382039D01*
X369000Y193000D02*
X370000D01*
X374260Y197260D01*
X381835Y200205D02*
X382039Y200409D01*
X369205Y200205D02*
X381835D01*
X369000Y200000D02*
X369205Y200205D01*
X369000Y207000D02*
X374414D01*
X375000Y205000D02*
Y206414D01*
X374414Y207000D02*
X375000Y206414D01*
Y205000D02*
X376441Y203559D01*
X382039D01*
X344765Y172765D02*
Y174351D01*
X345000Y174586D01*
X344000Y172000D02*
X344765Y172765D01*
X358000Y167862D02*
Y172000D01*
X369000Y221000D02*
X387115D01*
X387701Y212370D02*
Y220414D01*
X387115Y221000D02*
X387701Y220414D01*
X391000Y212520D02*
Y227414D01*
X390850Y212370D02*
X391000Y212520D01*
X369000Y228000D02*
X390414D01*
X391000Y227414D01*
X351000Y172000D02*
Y221000D01*
X369000Y214000D02*
X381454D01*
X382039Y213414D01*
Y206709D02*
Y213414D01*
X391000Y234000D02*
X394000Y231000D01*
Y212370D02*
Y231000D01*
X323000Y160086D02*
Y172000D01*
X339000Y189117D02*
Y200000D01*
X337000Y187117D02*
X339000Y189117D01*
X351000Y166586D02*
Y172000D01*
X344000Y164586D02*
Y172000D01*
X431724Y122685D02*
X432000Y122961D01*
X411000Y17586D02*
Y25752D01*
X409000Y27752D02*
X411000Y25752D01*
X409000Y27752D02*
Y37000D01*
X162500Y77500D02*
X163000Y78000D01*
X154000Y79000D02*
Y85414D01*
X186000Y75000D02*
Y86000D01*
X195000Y79000D02*
X199964D01*
X442902Y63902D02*
X444000Y65000D01*
X435606Y63902D02*
X442902D01*
X444000Y65000D02*
Y70000D01*
X435220Y63516D02*
X435606Y63902D01*
X435183Y66037D02*
X435220Y66075D01*
X434635Y73000D02*
X435220Y72414D01*
X422150Y73000D02*
X434635D01*
X435220Y68634D02*
Y72414D01*
X154586Y86000D02*
X162000D01*
X154000Y85414D02*
X154586Y86000D01*
X24586Y160000D02*
X30000D01*
X24000Y159414D02*
X24586Y160000D01*
X22500Y178914D02*
X23586Y180000D01*
X30000D01*
X305000Y12000D02*
X315000D01*
X348000Y22586D02*
Y57000D01*
X348586Y22000D02*
X405000D01*
X348000Y22586D02*
X348586Y22000D01*
X390000Y17000D02*
X410414D01*
X411000Y17586D01*
X412000Y12000D02*
X414000Y14000D01*
X395000Y12000D02*
X412000D01*
X343000Y62000D02*
X348000Y57000D01*
X337586Y162500D02*
X357914D01*
X330586Y161000D02*
X356414D01*
X323586Y159500D02*
X354914D01*
X357914Y162500D02*
X359000Y161414D01*
X354914Y159500D02*
X356000Y158414D01*
X316000Y158586D02*
X316586Y158000D01*
X354000Y133000D02*
Y157414D01*
X337000Y163086D02*
X337586Y162500D01*
X316586Y158000D02*
X353414D01*
X354000Y157414D01*
X323000Y160086D02*
X323586Y159500D01*
X356414Y161000D02*
X357500Y159914D01*
X480000Y12000D02*
Y27000D01*
X478000Y29000D02*
X480000Y27000D01*
X447586Y29000D02*
X478000D01*
X420000Y33082D02*
X422000Y35082D01*
Y52694D01*
X420000Y32000D02*
Y33082D01*
X422586Y53280D02*
X435220D01*
X422000Y52694D02*
X422586Y53280D01*
X400161Y104425D02*
X410315D01*
X518131Y159131D02*
X520000Y161000D01*
X508152Y159131D02*
X518131D01*
X520900Y154900D02*
X528000Y162000D01*
Y172000D01*
X508251Y154900D02*
X520900D01*
X508152Y154800D02*
X508251Y154900D01*
X509414Y32000D02*
X510000Y32586D01*
Y60000D01*
X500000Y32000D02*
X509414D01*
X510000Y60000D02*
X513000Y63000D01*
X436433Y187586D02*
Y193323D01*
Y187586D02*
X437019Y187000D01*
X461585Y179677D02*
X466000Y184092D01*
Y185000D01*
X459567Y179677D02*
X461585D01*
X459567Y208677D02*
X469677D01*
X470000Y209000D01*
X452586Y164323D02*
X459567D01*
X452586Y193323D02*
X459567D01*
X452000Y164909D02*
X452586Y164323D01*
X452000Y192737D02*
X452586Y193323D01*
X459567Y164323D02*
X465677D01*
X472500Y157500D01*
X494500D01*
X492000Y159000D02*
Y164048D01*
X475000Y159000D02*
X492000D01*
X496131Y159131D02*
X508152D01*
X494500Y157500D02*
X496131Y159131D01*
X486000Y194150D02*
X492000D01*
X480000D02*
X486000D01*
X492000D02*
X492150Y194000D01*
X484850Y215000D02*
X485000Y215150D01*
X474000Y194150D02*
X480000D01*
X459567Y193323D02*
X473173D01*
X474000Y194150D01*
X499586Y141808D02*
X508152D01*
X499000Y142394D02*
X499586Y141808D01*
X508181Y172124D02*
X509000Y172942D01*
X504586Y177000D02*
X508414D01*
X509000Y172942D02*
Y176414D01*
X508414Y177000D02*
X509000Y176414D01*
X504000Y177586D02*
Y200000D01*
Y177586D02*
X504586Y177000D01*
X492000Y164048D02*
Y187850D01*
X492586Y163462D02*
X508152D01*
X492000Y164048D02*
X492586Y163462D01*
X467118Y166882D02*
X475000Y159000D01*
X470947Y169441D02*
X476388Y164000D01*
X459567Y174559D02*
X472077D01*
X473235Y175717D02*
Y178235D01*
X472077Y174559D02*
X473235Y175717D01*
X474000Y179000D02*
Y187850D01*
X473235Y178235D02*
X474000Y179000D01*
X459567Y166882D02*
X467118D01*
X486000Y164000D02*
Y187850D01*
X508152Y146139D02*
X508221Y146069D01*
X520931D01*
X521000Y146000D01*
X459567Y169441D02*
X470947D01*
X519000Y168586D02*
Y177000D01*
X508181Y167793D02*
X518207D01*
X519000Y168586D01*
X459567Y172000D02*
X479414D01*
X459567Y203559D02*
X478414D01*
X479000Y204145D02*
Y208850D01*
X478414Y203559D02*
X479000Y204145D01*
X358586Y167277D02*
X362914D01*
X358000Y167862D02*
X358586Y167277D01*
X363500Y143586D02*
Y166691D01*
X362914Y167277D02*
X363500Y166691D01*
X352086Y165500D02*
X361414D01*
X351000Y166586D02*
X352086Y165500D01*
X362000Y141586D02*
Y164914D01*
X361414Y165500D02*
X362000Y164914D01*
X344586Y164000D02*
X359914D01*
X344000Y164586D02*
X344586Y164000D01*
X365000Y145086D02*
X365586Y144500D01*
X363500Y143586D02*
X364086Y143000D01*
X362000Y141586D02*
X362586Y141000D01*
X360500Y140086D02*
Y163414D01*
X359914Y164000D02*
X360500Y163414D01*
X356000Y134586D02*
Y158414D01*
X359000Y138586D02*
Y161414D01*
X357500Y136586D02*
Y159914D01*
X360500Y140086D02*
X361086Y139500D01*
X359000Y138586D02*
X359586Y138000D01*
X357500Y136586D02*
X358086Y136000D01*
X356000Y134586D02*
X356586Y134000D01*
X354000Y133000D02*
X355000Y132000D01*
X161690Y208000D02*
X162276Y207414D01*
Y198685D02*
Y207414D01*
X159126Y198685D02*
Y205414D01*
X158540Y206000D02*
X159126Y205414D01*
X131086Y206000D02*
X158540D01*
X130500Y190586D02*
Y205414D01*
X131086Y206000D01*
X110000Y190000D02*
X129914D01*
X130500Y190586D01*
X155661Y199000D02*
X155976Y198685D01*
X133000Y199000D02*
X155661D01*
X132000Y198000D02*
X133000Y199000D01*
X132000Y180586D02*
Y198000D01*
X110000Y180000D02*
X131414D01*
X132000Y180586D01*
X133500Y192438D02*
X134086Y193024D01*
X133500Y170586D02*
Y192438D01*
X134086Y193024D02*
X150315D01*
X110000Y170000D02*
X132914D01*
X133500Y170586D01*
X135000Y160586D02*
Y188414D01*
X136460Y189874D01*
X150315D01*
X134414Y160000D02*
X135000Y160586D01*
X110000Y160000D02*
X134414D01*
X138310Y186724D02*
X150315D01*
X137000Y151000D02*
Y185414D01*
X138310Y186724D01*
X136000Y150000D02*
X137000Y151000D01*
X110000Y150000D02*
X136000D01*
X138500Y182989D02*
X139086Y183575D01*
X138500Y140586D02*
Y182989D01*
X139086Y183575D02*
X150315D01*
X110000Y140000D02*
X137914D01*
X138500Y140586D01*
X110000Y130000D02*
X139414D01*
X140000Y130586D01*
Y179839D01*
X140586Y180425D01*
X141500Y176690D02*
X142086Y177276D01*
X141500Y137500D02*
Y176690D01*
X142086Y177276D02*
X150315D01*
X140586Y180425D02*
X150315D01*
X141500Y137500D02*
X147500Y131500D01*
X90000Y130000D02*
X110000D01*
X90000Y140000D02*
X110000D01*
X90000Y150000D02*
X110000D01*
X90000Y170000D02*
X110000D01*
X90000Y180000D02*
X110000D01*
X90000Y200000D02*
X110000D01*
X486000Y96000D02*
X488000D01*
X479414Y63000D02*
X480000Y63586D01*
X474000Y55000D02*
Y63000D01*
X479414D01*
X508000Y113000D02*
Y118000D01*
X497000Y98000D02*
Y102850D01*
X493000Y94000D02*
X497000Y98000D01*
X488000Y96000D02*
X490000Y98000D01*
Y102850D01*
X497000Y109150D02*
Y116000D01*
X490000Y109150D02*
Y115850D01*
X495265Y89414D02*
X495850Y90000D01*
X472280Y53280D02*
X474000Y55000D01*
X462780Y53280D02*
X472280D01*
X385000Y12000D02*
X390000Y17000D01*
X451000Y62000D02*
X451765Y61235D01*
X452586Y50721D02*
X462780D01*
X451765Y59649D02*
X452000Y59414D01*
Y51306D02*
X452586Y50721D01*
X451765Y59649D02*
Y61235D01*
X452000Y51306D02*
Y59414D01*
X452082Y62000D02*
X453598Y63516D01*
X451000Y62000D02*
X452082D01*
X453598Y63516D02*
X462780D01*
X44354Y155647D02*
X85646D01*
X89383Y159383D01*
X155976Y198685D02*
X156000Y198709D01*
X90000Y190000D02*
X110000D01*
X85000Y185000D02*
X90000Y190000D01*
Y160000D02*
X110000D01*
X147500Y131500D02*
X168914D01*
X143000Y139000D02*
Y173000D01*
Y139000D02*
X149000Y133000D01*
X170414D01*
X144000Y174000D02*
X150189D01*
X143000Y173000D02*
X144000Y174000D01*
X150315Y135685D02*
Y170976D01*
Y135685D02*
X151000Y135000D01*
X152000Y140000D02*
X155000Y137000D01*
X151000Y135000D02*
X172414D01*
X152000Y164729D02*
X152586Y165315D01*
X152000Y140000D02*
Y164729D01*
X152586Y165315D02*
X155976D01*
X155000Y137000D02*
X175000D01*
Y52586D02*
Y137000D01*
X420000Y12000D02*
Y22414D01*
X420586Y23000D01*
X424000D01*
X278000Y143150D02*
X288000D01*
X268000D02*
X278000D01*
X328000D02*
X338000D01*
X298000D02*
X308000D01*
X318000D02*
X328000D01*
X308000D02*
X318000D01*
X288000D02*
X298000D01*
X338000D02*
Y147000D01*
X342500Y151500D01*
X346500D01*
X347000Y152000D01*
X165313Y198797D02*
Y215320D01*
Y198797D02*
X165425Y198685D01*
X462780Y60957D02*
Y63516D01*
Y43043D02*
X489000D01*
X492000Y46043D01*
Y59000D01*
X492996Y59996D01*
X503004D01*
X502150Y60850D02*
X503004Y59996D01*
X544000Y47000D02*
X549000D01*
X551811Y49811D01*
Y59142D01*
X530158D02*
X551811D01*
X502150Y60850D02*
Y72000D01*
X551811Y59142D02*
Y94181D01*
X530158Y79811D02*
Y82961D01*
Y94181D01*
X551811D01*
X508152Y150470D02*
X529414D01*
X530166Y151221D02*
X531779D01*
X529414Y150470D02*
X530166Y151221D01*
X532000Y151000D02*
Y190000D01*
X510120Y130000D02*
X532000D01*
X511348Y190000D02*
X532000D01*
X531779Y151221D02*
X532000Y151000D01*
Y190000D02*
X533000D01*
X532000Y130000D02*
Y151000D01*
Y130000D02*
X551348D01*
X533000Y190000D02*
X537000Y194000D01*
X551348D01*
X462780Y40484D02*
X489000D01*
X490516Y42000D02*
X500000D01*
X489000Y40484D02*
X490516Y42000D01*
X477918Y36000D02*
X479000D01*
X475992Y37925D02*
X477918Y36000D01*
X424000Y23000D02*
X426000Y25000D01*
Y47576D02*
X426586Y48161D01*
X426000Y25000D02*
Y47576D01*
X426586Y48161D02*
X435220D01*
X430000Y12000D02*
Y24000D01*
X429000Y25000D02*
X430000Y24000D01*
X429586Y37925D02*
X435220D01*
X429000Y37339D02*
X429586Y37925D01*
X429000Y25000D02*
Y37339D01*
X436000Y26586D02*
Y34980D01*
X436586Y26000D02*
X439414D01*
X435220Y35366D02*
X435614D01*
X436000Y34980D01*
Y26586D02*
X436586Y26000D01*
X440000Y12000D02*
Y25414D01*
X439414Y26000D02*
X440000Y25414D01*
X449200Y24000D02*
X450000Y23200D01*
Y12000D02*
Y23200D01*
X460000Y12000D02*
Y24414D01*
X458414Y26000D02*
X460000Y24414D01*
X447000Y29586D02*
Y48000D01*
Y29586D02*
X447586Y29000D01*
X473000Y31086D02*
X473586Y30500D01*
X484500D02*
X485000Y30000D01*
X473586Y30500D02*
X484500D01*
X473000Y31086D02*
Y34414D01*
X442500Y24586D02*
Y39898D01*
X443086Y24000D02*
X449200D01*
X442500Y24586D02*
X443086Y24000D01*
X444000Y26586D02*
X444586Y26000D01*
X444000Y26586D02*
Y42458D01*
X469353Y27500D02*
X470000Y26854D01*
X445500Y28086D02*
Y45017D01*
X444586Y26000D02*
X458414D01*
X445500Y28086D02*
X446086Y27500D01*
X469353D01*
X435220Y40484D02*
X441914D01*
X442500Y39898D01*
X435220Y43043D02*
X443414D01*
X444000Y42458D01*
X435220Y45602D02*
X444914D01*
X445500Y45017D01*
X445000Y50000D02*
Y53000D01*
Y50000D02*
X447000Y48000D01*
Y51000D02*
Y57000D01*
X449793Y48161D02*
X452000D01*
X447000Y51000D02*
X449793Y48207D01*
Y48161D02*
Y48207D01*
X452000Y48161D02*
X462780D01*
X452000Y39000D02*
Y48161D01*
X442161Y55839D02*
X445000Y53000D01*
X470000Y12000D02*
Y26854D01*
X435220Y55839D02*
X442161D01*
X443043Y60957D02*
X447000Y57000D01*
X435220Y60957D02*
X443043D01*
X484414Y58000D02*
X485000Y58586D01*
X487414Y50586D02*
Y83828D01*
X487586Y84000D01*
X495850D01*
X489000Y71414D02*
X489586Y72000D01*
X495850D01*
X486828Y50000D02*
X487414Y50586D01*
X489000Y46586D02*
Y71414D01*
X488017Y45602D02*
X489000Y46586D01*
X518000Y70362D02*
X530158D01*
X514638D02*
X518000D01*
Y42000D02*
Y70362D01*
X516000Y74828D02*
X517317Y73512D01*
X530158D01*
X514000Y71000D02*
X514638Y70362D01*
X513414Y78000D02*
X514000Y77414D01*
Y71000D02*
Y77414D01*
X502150Y78000D02*
X513414D01*
X502150Y84000D02*
X515414D01*
X516000Y74828D02*
Y83414D01*
X515414Y84000D02*
X516000Y83414D01*
X518586Y76661D02*
X530158D01*
X518000Y77247D02*
Y89000D01*
Y77247D02*
X518586Y76661D01*
X517000Y90000D02*
X518000Y89000D01*
X502150Y90000D02*
X517000D01*
X422752Y58398D02*
X435220D01*
X422150Y59000D02*
X422752Y58398D01*
X462780Y35366D02*
X472048D01*
X473000Y34414D01*
X479000Y58000D02*
X484414D01*
X462780Y37925D02*
X475992D01*
X479000Y50000D02*
X486828D01*
X462780Y45602D02*
X488017D01*
X495850Y72000D02*
Y78000D01*
X502150Y84000D02*
X502638Y83512D01*
X422063Y98063D02*
X443622D01*
X443685Y98126D01*
X422000Y98000D02*
X422063Y98063D01*
X419126Y95126D02*
X422000Y98000D01*
X419126Y89315D02*
Y95126D01*
X333000Y62000D02*
X343000D01*
X174874Y198685D02*
Y206414D01*
X171724Y198685D02*
X172000Y198961D01*
Y212703D02*
X175000Y215703D01*
X172000Y198961D02*
Y212703D01*
X175000Y215703D02*
Y216000D01*
X181000Y61586D02*
Y156000D01*
X189914Y61000D02*
X189957Y61043D01*
X192043D02*
X193000Y62000D01*
X181586Y61000D02*
X189914D01*
X189957Y61043D02*
X192043D01*
X181000Y61586D02*
X181586Y61000D01*
X180086Y57000D02*
X201828D01*
X179500Y57586D02*
X180086Y57000D01*
X179500Y57586D02*
Y152500D01*
X202414Y57586D02*
Y61414D01*
X201828Y57000D02*
X202414Y57586D01*
X178000Y55586D02*
Y151000D01*
X176500Y54965D02*
X177964Y53500D01*
X221328D01*
X178586Y55000D02*
X211828D01*
X212414Y55586D02*
Y61414D01*
X178000Y55586D02*
X178586Y55000D01*
X211828D02*
X212414Y55586D01*
X176500Y54965D02*
Y149500D01*
X221328Y53500D02*
X222414Y54586D01*
Y61414D01*
X175000Y52586D02*
X175586Y52000D01*
X232414Y52586D02*
Y61414D01*
X231828Y52000D02*
X232414Y52586D01*
X175586Y52000D02*
X231828D01*
X243000Y62000D02*
X248000Y57000D01*
Y27586D02*
Y57000D01*
X245914Y25500D02*
X248000Y27586D01*
X173000Y30500D02*
X178000Y25500D01*
X173000Y30500D02*
Y134414D01*
X178000Y25500D02*
X245914D01*
X169500Y29500D02*
Y130914D01*
X171000Y30121D02*
X177121Y24000D01*
X253414D01*
X258000Y28586D01*
X263500Y22500D02*
X268000Y27000D01*
X169500Y29500D02*
X176500Y22500D01*
X263500D01*
X263000Y62000D02*
X268000Y57000D01*
Y27000D02*
Y57000D01*
X171000Y30121D02*
Y132414D01*
X258000Y28586D02*
Y57000D01*
X253000Y62000D02*
X258000Y57000D01*
X188000Y143150D02*
Y152000D01*
X183685Y183575D02*
X184260Y183000D01*
X210787Y180213D02*
X212000Y179000D01*
X183898Y180213D02*
X210787D01*
X166000Y174000D02*
Y174507D01*
X168575Y177082D02*
Y198685D01*
X166000Y174507D02*
X168575Y177082D01*
X183685Y180425D02*
X183898Y180213D01*
X149000Y170976D02*
X150315D01*
X170414Y133000D02*
X171000Y132414D01*
X168914Y131500D02*
X169500Y130914D01*
X149000Y170976D02*
X149500Y170476D01*
X172414Y135000D02*
X173000Y134414D01*
X174874Y154126D02*
X178000Y151000D01*
X171724Y154276D02*
X176500Y149500D01*
X178024Y153976D02*
X179500Y152500D01*
X171000Y143000D02*
Y152000D01*
X165425Y149575D02*
Y165315D01*
Y149575D02*
X166000Y149000D01*
X168575Y154425D02*
X171000Y152000D01*
X181000Y156000D02*
X183685Y158685D01*
X168575Y154425D02*
Y165315D01*
X159000Y152000D02*
X162276Y155276D01*
X162138Y164138D02*
X162276Y164000D01*
Y155276D02*
Y164000D01*
X222414Y61414D02*
X223000Y62000D01*
X232414Y61414D02*
X233000Y62000D01*
X202414Y61414D02*
X203000Y62000D01*
X212414Y61414D02*
X213000Y62000D01*
X183685Y158685D02*
Y170976D01*
X178024Y153976D02*
Y165315D01*
X174874Y154126D02*
Y165315D01*
X171724Y154276D02*
Y165315D01*
X166063Y174063D02*
X183622D01*
X183685Y174126D01*
X166000Y174000D02*
X166063Y174063D01*
X159126Y173414D02*
X159712Y174000D01*
X166000D01*
X159126Y165315D02*
Y173414D01*
X150189Y174000D02*
X150315Y174126D01*
X218000Y143150D02*
X228000D01*
X248000D02*
X258000D01*
X238000D02*
X248000D01*
X228000D02*
X238000D01*
X208000D02*
X218000D01*
X198000D02*
X208000D01*
X188000D02*
X198000D01*
X188000Y97000D02*
X193000Y92000D01*
X188000Y97000D02*
Y136850D01*
X198000Y97000D02*
Y136850D01*
Y97000D02*
X203000Y92000D01*
X208000Y97000D02*
Y136850D01*
Y97000D02*
X213000Y92000D01*
X218000Y97000D02*
X223000Y92000D01*
X218000Y97000D02*
Y136850D01*
X228000Y97000D02*
X233000Y92000D01*
X228000Y97000D02*
Y136850D01*
X238000Y97000D02*
X243000Y92000D01*
X238000Y97000D02*
Y136850D01*
X248000Y97000D02*
Y136850D01*
Y97000D02*
X253000Y92000D01*
X258000Y97000D02*
X263000Y92000D01*
X258000Y97000D02*
Y136850D01*
X268000Y97000D02*
Y136850D01*
Y97000D02*
X273000Y92000D01*
X278000Y97000D02*
Y136850D01*
Y97000D02*
X283000Y92000D01*
X288000Y97000D02*
X293000Y92000D01*
X288000Y97000D02*
Y136850D01*
X298000Y97000D02*
Y136850D01*
Y97000D02*
X303000Y92000D01*
X312000D02*
X313000D01*
X308000Y96000D02*
X312000Y92000D01*
X308000Y96000D02*
Y136850D01*
X318000Y96000D02*
X322000Y92000D01*
X323000D01*
X318000Y96000D02*
Y136850D01*
X328000Y97000D02*
Y136850D01*
Y97000D02*
X333000Y92000D01*
X338000Y96000D02*
Y137000D01*
X342000Y92000D02*
X343000D01*
X338000Y96000D02*
X342000Y92000D01*
X193000Y32000D02*
Y47000D01*
X203000Y32000D02*
Y47000D01*
X213000Y32000D02*
Y47000D01*
X223000Y32000D02*
Y47000D01*
X233000Y32000D02*
Y47000D01*
X243000Y32000D02*
Y47000D01*
X253416Y32416D02*
Y46584D01*
X253831Y47000D01*
X253000Y32000D02*
X253416Y32416D01*
X263000Y32000D02*
Y47000D01*
X273000Y32000D02*
Y47000D01*
X283000Y32000D02*
Y47000D01*
X293000Y32000D02*
Y47000D01*
X303000Y32000D02*
Y47000D01*
X313000Y32000D02*
Y47000D01*
X323000Y32000D02*
Y47000D01*
X333000Y32000D02*
Y47000D01*
X343000Y32000D02*
Y47000D01*
X353000Y32000D02*
Y47000D01*
X363000Y32000D02*
Y47000D01*
X373000Y32000D02*
Y47000D01*
X383000Y32000D02*
Y47000D01*
Y107000D02*
Y122000D01*
X373000Y107000D02*
Y122000D01*
X363000Y107000D02*
Y122000D01*
X353000Y107000D02*
Y122000D01*
X343000Y107000D02*
Y122000D01*
X333000Y107000D02*
Y122000D01*
X323000Y107000D02*
Y122000D01*
X313000Y107000D02*
Y122000D01*
X303000Y107000D02*
Y122000D01*
X293000Y107000D02*
Y122000D01*
X283000Y107000D02*
Y122000D01*
X273000Y107000D02*
Y122000D01*
X263000Y107000D02*
Y122000D01*
X253416Y107416D02*
Y121584D01*
Y107416D02*
X253831Y107000D01*
X253000Y122000D02*
X253416Y121584D01*
X243000Y107000D02*
Y122000D01*
X233000Y107000D02*
Y122000D01*
X223000Y107000D02*
Y122000D01*
X213000Y107000D02*
Y122000D01*
X203000Y107000D02*
Y122000D01*
X193000Y107000D02*
Y122000D01*
X89414Y120000D02*
X90000Y120586D01*
X71586Y120000D02*
X89414D01*
X90000Y120586D02*
Y130000D01*
X71000Y120586D02*
X71586Y120000D01*
X71000Y120586D02*
Y129414D01*
X70414Y130000D02*
X71000Y129414D01*
X40000Y130000D02*
X70414D01*
X44500Y145500D02*
X85500D01*
X40000Y150000D02*
X44500Y145500D01*
X85500D02*
X90000Y150000D01*
X45000Y275500D02*
X86000D01*
X40500Y280000D02*
X45000Y275500D01*
X40000Y280000D02*
X40500D01*
X90000Y279500D02*
Y280000D01*
X86000Y275500D02*
X90000Y279500D01*
X85000Y165000D02*
X90000Y170000D01*
X45000Y165000D02*
X85000D01*
X40000Y170000D02*
X45000Y165000D01*
X85000Y175000D02*
X90000Y180000D01*
X45000Y175000D02*
X85000D01*
X40000Y180000D02*
X45000Y175000D01*
X40000Y190000D02*
X45000Y185000D01*
X85000D01*
X75000Y195000D02*
X80000Y190000D01*
X35000Y195000D02*
X75000D01*
X30000Y190000D02*
X35000Y195000D01*
X87000Y210000D02*
X90000Y207000D01*
Y200000D02*
Y207000D01*
X75000Y210000D02*
X87000D01*
X70414Y200000D02*
X71000Y200586D01*
Y206000D01*
X40000Y200000D02*
X70414D01*
X71000Y206000D02*
X75000Y210000D01*
X70586Y250000D02*
X89414D01*
X90000Y250586D01*
X70000D02*
X70586Y250000D01*
X70000Y250586D02*
Y259414D01*
X69414Y260000D02*
X70000Y259414D01*
X40000Y260000D02*
X69414D01*
X75000Y325000D02*
X80000Y320000D01*
X30000D02*
X35000Y325000D01*
X75000D01*
X85000Y295000D02*
X90000Y300000D01*
X45000Y295000D02*
X85000D01*
X40000Y300000D02*
X45000Y295000D01*
Y305000D02*
X85000D01*
X40000Y310000D02*
X45000Y305000D01*
X88000Y315000D02*
X89043Y316043D01*
Y319043D01*
X90000Y320000D01*
Y330000D02*
Y334000D01*
X87000Y337000D02*
X90000Y334000D01*
X73000Y337000D02*
X87000D01*
X70000Y334000D02*
X73000Y337000D01*
X69414Y330000D02*
X70000Y330586D01*
Y334000D01*
X40000Y330000D02*
X69414D01*
D17*
X441425Y346685D02*
D03*
X431976Y313315D02*
D03*
X435126D02*
D03*
X438276D02*
D03*
X441425D02*
D03*
X444575D02*
D03*
X447724D02*
D03*
X450874D02*
D03*
X454024D02*
D03*
Y346685D02*
D03*
X450874D02*
D03*
X447724D02*
D03*
X444575D02*
D03*
X438276D02*
D03*
X435126D02*
D03*
X431976D02*
D03*
X155976Y198685D02*
D03*
X159126D02*
D03*
X162276D02*
D03*
X168575D02*
D03*
X171724D02*
D03*
X174874D02*
D03*
X178024D02*
D03*
Y165315D02*
D03*
X174874D02*
D03*
X171724D02*
D03*
X168575D02*
D03*
X165425D02*
D03*
X162276D02*
D03*
X159126D02*
D03*
X155976D02*
D03*
X165425Y198685D02*
D03*
X415976Y122685D02*
D03*
X419126D02*
D03*
X422276D02*
D03*
X428575D02*
D03*
X431724D02*
D03*
X434874D02*
D03*
X438024D02*
D03*
Y89315D02*
D03*
X434874D02*
D03*
X431724D02*
D03*
X428575D02*
D03*
X425425D02*
D03*
X422276D02*
D03*
X419126D02*
D03*
X415976D02*
D03*
X425425Y122685D02*
D03*
X397150Y212370D02*
D03*
X387701Y179000D02*
D03*
X390850D02*
D03*
X394000D02*
D03*
X397150D02*
D03*
X400299D02*
D03*
X403449D02*
D03*
X406598D02*
D03*
X409748D02*
D03*
Y212370D02*
D03*
X406598D02*
D03*
X403449D02*
D03*
X400299D02*
D03*
X394000D02*
D03*
X390850D02*
D03*
X387701D02*
D03*
D18*
X459685Y325276D02*
D03*
X426315Y341024D02*
D03*
Y337874D02*
D03*
Y334724D02*
D03*
Y331575D02*
D03*
Y328425D02*
D03*
Y325276D02*
D03*
Y322126D02*
D03*
Y318976D02*
D03*
X459685D02*
D03*
Y322126D02*
D03*
Y328425D02*
D03*
Y331575D02*
D03*
Y334724D02*
D03*
Y337874D02*
D03*
Y341024D02*
D03*
X183685Y193024D02*
D03*
Y189874D02*
D03*
Y186724D02*
D03*
Y183575D02*
D03*
Y180425D02*
D03*
Y174126D02*
D03*
Y170976D02*
D03*
X150315D02*
D03*
Y174126D02*
D03*
Y177276D02*
D03*
Y180425D02*
D03*
Y183575D02*
D03*
Y186724D02*
D03*
Y189874D02*
D03*
Y193024D02*
D03*
X183685Y177276D02*
D03*
X443685Y117024D02*
D03*
Y113874D02*
D03*
Y110724D02*
D03*
Y107575D02*
D03*
Y104425D02*
D03*
Y98126D02*
D03*
Y94976D02*
D03*
X410315Y98126D02*
D03*
Y101276D02*
D03*
Y104425D02*
D03*
Y107575D02*
D03*
Y110724D02*
D03*
Y113874D02*
D03*
Y117024D02*
D03*
X443685Y101276D02*
D03*
X410315Y94976D02*
D03*
X415410Y190961D02*
D03*
X382039Y206709D02*
D03*
Y203559D02*
D03*
Y200409D02*
D03*
Y197260D02*
D03*
Y194110D02*
D03*
Y190961D02*
D03*
Y187811D02*
D03*
Y184661D02*
D03*
X415410D02*
D03*
Y187811D02*
D03*
Y194110D02*
D03*
Y197260D02*
D03*
Y200409D02*
D03*
Y203559D02*
D03*
Y206709D02*
D03*
D19*
X459567Y179677D02*
D03*
Y164323D02*
D03*
Y166882D02*
D03*
Y169441D02*
D03*
Y172000D02*
D03*
Y174559D02*
D03*
Y177118D02*
D03*
X436433Y179677D02*
D03*
Y177118D02*
D03*
Y174559D02*
D03*
Y172000D02*
D03*
Y169441D02*
D03*
Y166882D02*
D03*
Y164323D02*
D03*
X459567Y208677D02*
D03*
Y193323D02*
D03*
Y195882D02*
D03*
Y198441D02*
D03*
Y201000D02*
D03*
Y203559D02*
D03*
Y206118D02*
D03*
X436433Y208677D02*
D03*
Y206118D02*
D03*
Y203559D02*
D03*
Y201000D02*
D03*
Y198441D02*
D03*
Y195882D02*
D03*
Y193323D02*
D03*
X266567Y288677D02*
D03*
Y286118D02*
D03*
Y283559D02*
D03*
Y281000D02*
D03*
Y278441D02*
D03*
Y275882D02*
D03*
Y273323D02*
D03*
X243433Y275882D02*
D03*
Y278441D02*
D03*
Y281000D02*
D03*
Y283559D02*
D03*
Y286118D02*
D03*
Y288677D02*
D03*
Y273323D02*
D03*
D20*
X520500Y333937D02*
D03*
Y343779D02*
D03*
Y326063D02*
D03*
Y316220D02*
D03*
Y253937D02*
D03*
Y263779D02*
D03*
Y246063D02*
D03*
Y236221D02*
D03*
D21*
X508152Y137500D02*
D03*
Y141808D02*
D03*
Y146139D02*
D03*
Y154800D02*
D03*
Y159131D02*
D03*
Y163462D02*
D03*
X508181Y172124D02*
D03*
Y167793D02*
D03*
X508152Y150470D02*
D03*
D22*
X551348Y194000D02*
D03*
Y130000D02*
D03*
D23*
X511348Y190000D02*
D03*
D24*
X510120Y130000D02*
D03*
D25*
X256000Y336850D02*
D03*
Y343150D02*
D03*
X200000Y336850D02*
D03*
Y343150D02*
D03*
X228000Y336850D02*
D03*
Y343150D02*
D03*
X378000Y336850D02*
D03*
Y343150D02*
D03*
X185000Y336850D02*
D03*
Y343150D02*
D03*
X175000Y336850D02*
D03*
Y343150D02*
D03*
X125000Y336850D02*
D03*
Y343150D02*
D03*
X155000Y336850D02*
D03*
Y343150D02*
D03*
X115000Y336850D02*
D03*
Y343150D02*
D03*
X165000Y336850D02*
D03*
Y343150D02*
D03*
X398000Y336850D02*
D03*
Y343150D02*
D03*
X135000Y336850D02*
D03*
Y343150D02*
D03*
X145000Y336850D02*
D03*
Y343150D02*
D03*
X268000Y336850D02*
D03*
Y343150D02*
D03*
X240000Y336850D02*
D03*
Y343150D02*
D03*
X296000Y336850D02*
D03*
Y343150D02*
D03*
X212000Y337000D02*
D03*
Y343299D02*
D03*
X284000Y336850D02*
D03*
Y343150D02*
D03*
X315000Y336850D02*
D03*
Y343150D02*
D03*
X490000Y102850D02*
D03*
Y109150D02*
D03*
X497000Y102850D02*
D03*
Y109150D02*
D03*
X339000Y336850D02*
D03*
Y343150D02*
D03*
X351000Y336850D02*
D03*
Y343150D02*
D03*
D26*
X495850Y78000D02*
D03*
X502150D02*
D03*
X415850Y58000D02*
D03*
X422150D02*
D03*
X415850Y73000D02*
D03*
X422150D02*
D03*
X502150Y90000D02*
D03*
X495850D02*
D03*
X502150Y84000D02*
D03*
X495850D02*
D03*
Y72000D02*
D03*
X502150D02*
D03*
D27*
X486000Y194150D02*
D03*
Y187850D02*
D03*
X480000Y194150D02*
D03*
Y187850D02*
D03*
X497000Y118000D02*
D03*
Y124299D02*
D03*
X188000Y143150D02*
D03*
Y136850D02*
D03*
X490000Y117850D02*
D03*
Y124150D02*
D03*
X198000Y143150D02*
D03*
Y136850D02*
D03*
X208000Y143150D02*
D03*
Y136850D02*
D03*
X268000D02*
D03*
Y143150D02*
D03*
X228000D02*
D03*
Y136850D02*
D03*
X218000Y143150D02*
D03*
Y136850D02*
D03*
X248000Y143150D02*
D03*
Y136850D02*
D03*
X238000Y143150D02*
D03*
Y136850D02*
D03*
X338000D02*
D03*
Y143150D02*
D03*
X258000D02*
D03*
Y136850D02*
D03*
X298000D02*
D03*
Y143150D02*
D03*
X308000Y136850D02*
D03*
Y143150D02*
D03*
X278000Y136850D02*
D03*
Y143150D02*
D03*
X288000Y136850D02*
D03*
Y143150D02*
D03*
X328000Y136850D02*
D03*
Y143150D02*
D03*
X318000Y136850D02*
D03*
Y143150D02*
D03*
X469000Y150150D02*
D03*
Y143850D02*
D03*
X474000Y194150D02*
D03*
Y187850D02*
D03*
X496000Y352150D02*
D03*
Y345850D02*
D03*
X492000Y194150D02*
D03*
Y187850D02*
D03*
X485000Y215150D02*
D03*
Y208850D02*
D03*
X503000Y274150D02*
D03*
Y267850D02*
D03*
X490000Y352150D02*
D03*
Y345850D02*
D03*
X479000Y215150D02*
D03*
Y208850D02*
D03*
X497000Y274150D02*
D03*
Y267850D02*
D03*
D28*
X187976Y287516D02*
D03*
Y282398D02*
D03*
Y279839D02*
D03*
Y277279D02*
D03*
Y274721D02*
D03*
Y272161D02*
D03*
Y269602D02*
D03*
Y267043D02*
D03*
Y264484D02*
D03*
X160024Y267043D02*
D03*
Y269602D02*
D03*
Y272161D02*
D03*
Y274721D02*
D03*
Y277279D02*
D03*
Y279839D02*
D03*
Y282398D02*
D03*
Y284957D02*
D03*
X187976D02*
D03*
X160024Y287516D02*
D03*
Y264484D02*
D03*
D29*
X435220Y66075D02*
D03*
Y53280D02*
D03*
X462780Y43043D02*
D03*
Y50721D02*
D03*
Y60957D02*
D03*
Y63516D02*
D03*
Y68634D02*
D03*
Y66075D02*
D03*
Y58398D02*
D03*
Y55839D02*
D03*
Y53280D02*
D03*
Y48161D02*
D03*
Y45602D02*
D03*
Y40484D02*
D03*
Y37925D02*
D03*
Y35366D02*
D03*
X435220D02*
D03*
Y37925D02*
D03*
Y40484D02*
D03*
Y43043D02*
D03*
Y45602D02*
D03*
Y48161D02*
D03*
Y50721D02*
D03*
Y55839D02*
D03*
Y58398D02*
D03*
Y60957D02*
D03*
Y63516D02*
D03*
Y68634D02*
D03*
D30*
X530158Y76661D02*
D03*
Y73512D02*
D03*
Y70362D02*
D03*
Y79811D02*
D03*
Y82961D02*
D03*
D31*
X551811Y94181D02*
D03*
Y59142D02*
D03*
X530158Y94181D02*
D03*
Y59142D02*
D03*
D61*
X500000Y42000D02*
D03*
X518000D02*
D03*
X395000Y12000D02*
D03*
X345000D02*
D03*
X385000D02*
D03*
X335000D02*
D03*
X375000D02*
D03*
X325000D02*
D03*
X365000D02*
D03*
X315000D02*
D03*
X355000D02*
D03*
X510000Y12000D02*
D03*
X460000D02*
D03*
X500000D02*
D03*
X450000D02*
D03*
X490000D02*
D03*
X440000D02*
D03*
X480000D02*
D03*
X430000D02*
D03*
X470000D02*
D03*
X456000Y124000D02*
D03*
Y114000D02*
D03*
Y104000D02*
D03*
Y94000D02*
D03*
X396000Y271000D02*
D03*
X446000D02*
D03*
X406000D02*
D03*
X456000D02*
D03*
X416000D02*
D03*
X466000D02*
D03*
X426000D02*
D03*
X476000D02*
D03*
X436000D02*
D03*
X486000Y252000D02*
D03*
X436000D02*
D03*
X476000D02*
D03*
X426000D02*
D03*
X466000D02*
D03*
X416000D02*
D03*
X456000D02*
D03*
X406000D02*
D03*
X446000D02*
D03*
X317000Y251000D02*
D03*
X267000D02*
D03*
X307000D02*
D03*
X257000D02*
D03*
X297000D02*
D03*
X247000D02*
D03*
X287000D02*
D03*
X237000D02*
D03*
X277000D02*
D03*
X468000Y99000D02*
D03*
Y109000D02*
D03*
Y119000D02*
D03*
Y129000D02*
D03*
D62*
X500000Y32000D02*
D03*
X518000D02*
D03*
X305000Y12000D02*
D03*
X420000Y12000D02*
D03*
X486000Y271000D02*
D03*
X396000Y252000D02*
D03*
X227000Y251000D02*
D03*
D63*
X80000Y190000D02*
D03*
X90000Y200000D02*
D03*
X80000Y180000D02*
D03*
Y170000D02*
D03*
Y160000D02*
D03*
Y150000D02*
D03*
X90000Y190000D02*
D03*
Y180000D02*
D03*
Y170000D02*
D03*
Y160000D02*
D03*
Y150000D02*
D03*
Y140000D02*
D03*
Y130000D02*
D03*
X80000Y140000D02*
D03*
Y130000D02*
D03*
X30000Y190000D02*
D03*
X40000Y200000D02*
D03*
X30000Y180000D02*
D03*
Y170000D02*
D03*
Y160000D02*
D03*
Y150000D02*
D03*
X40000Y190000D02*
D03*
Y180000D02*
D03*
Y170000D02*
D03*
Y160000D02*
D03*
Y150000D02*
D03*
Y140000D02*
D03*
Y130000D02*
D03*
X30000Y140000D02*
D03*
Y130000D02*
D03*
Y320000D02*
D03*
X40000Y330000D02*
D03*
X30000Y310000D02*
D03*
Y300000D02*
D03*
Y290000D02*
D03*
Y280000D02*
D03*
X40000Y320000D02*
D03*
Y310000D02*
D03*
Y300000D02*
D03*
Y290000D02*
D03*
Y280000D02*
D03*
Y270000D02*
D03*
Y260000D02*
D03*
X30000D02*
D03*
Y270000D02*
D03*
X80000Y260000D02*
D03*
Y270000D02*
D03*
X90000Y260000D02*
D03*
Y270000D02*
D03*
Y280000D02*
D03*
Y290000D02*
D03*
Y300000D02*
D03*
Y310000D02*
D03*
Y320000D02*
D03*
X80000Y280000D02*
D03*
Y290000D02*
D03*
Y300000D02*
D03*
Y310000D02*
D03*
X90000Y330000D02*
D03*
X80000Y320000D02*
D03*
X193000Y92000D02*
D03*
X203000D02*
D03*
X213000D02*
D03*
X223000D02*
D03*
X233000D02*
D03*
X243000D02*
D03*
X253000D02*
D03*
X263000D02*
D03*
X273000D02*
D03*
X283000D02*
D03*
X293000D02*
D03*
X303000D02*
D03*
X313000D02*
D03*
X323000D02*
D03*
X333000D02*
D03*
X343000D02*
D03*
X193000Y62000D02*
D03*
X203000D02*
D03*
X213000D02*
D03*
X223000D02*
D03*
X233000D02*
D03*
X243000D02*
D03*
X253000D02*
D03*
X263000D02*
D03*
X273000D02*
D03*
X283000D02*
D03*
X293000D02*
D03*
X303000D02*
D03*
X313000D02*
D03*
X323000D02*
D03*
X333000D02*
D03*
X343000D02*
D03*
X353000D02*
D03*
X363000D02*
D03*
X373000D02*
D03*
X203000Y32000D02*
D03*
X213000D02*
D03*
X223000D02*
D03*
X233000D02*
D03*
X243000D02*
D03*
X253000D02*
D03*
X263000D02*
D03*
X273000D02*
D03*
X283000D02*
D03*
X293000D02*
D03*
X303000D02*
D03*
X313000D02*
D03*
X323000D02*
D03*
X333000D02*
D03*
X343000D02*
D03*
X353000D02*
D03*
X363000D02*
D03*
X233000Y122000D02*
D03*
X243000D02*
D03*
X253000D02*
D03*
X263000D02*
D03*
X273000D02*
D03*
X283000D02*
D03*
X293000D02*
D03*
X313000D02*
D03*
X323000D02*
D03*
X333000D02*
D03*
X343000D02*
D03*
X363000D02*
D03*
X373000D02*
D03*
X383000D02*
D03*
X373000Y32000D02*
D03*
X223000Y122000D02*
D03*
X213000D02*
D03*
X203000D02*
D03*
X193000D02*
D03*
X383000Y32000D02*
D03*
X193000Y47000D02*
D03*
X203000D02*
D03*
X213000D02*
D03*
X223000D02*
D03*
X233000D02*
D03*
X243000D02*
D03*
X253000D02*
D03*
X263000D02*
D03*
X273000D02*
D03*
X283000D02*
D03*
X293000D02*
D03*
X303000D02*
D03*
X313000D02*
D03*
X323000D02*
D03*
X333000D02*
D03*
X343000D02*
D03*
X353000D02*
D03*
X363000D02*
D03*
X373000D02*
D03*
X383000D02*
D03*
X193000Y107000D02*
D03*
X203000D02*
D03*
X213000D02*
D03*
X223000D02*
D03*
X233000D02*
D03*
X243000D02*
D03*
X253000D02*
D03*
X263000D02*
D03*
X273000D02*
D03*
X283000D02*
D03*
X293000D02*
D03*
X303000D02*
D03*
X313000D02*
D03*
X323000D02*
D03*
X333000D02*
D03*
X343000D02*
D03*
X353000D02*
D03*
X363000D02*
D03*
X373000D02*
D03*
X383000D02*
D03*
X303000Y122000D02*
D03*
X353000D02*
D03*
X383000Y92000D02*
D03*
X373000D02*
D03*
X383000Y62000D02*
D03*
X353000Y92000D02*
D03*
X363000D02*
D03*
D64*
X80000Y200000D02*
D03*
X30000D02*
D03*
Y330000D02*
D03*
X80000D02*
D03*
D65*
X536929Y356378D02*
D03*
Y303622D02*
D03*
Y276378D02*
D03*
Y223622D02*
D03*
D66*
X551848Y144500D02*
D03*
Y172000D02*
D03*
D67*
X175000Y216000D02*
D03*
X165000D02*
D03*
X464000Y365000D02*
D03*
X454000D02*
D03*
X397000Y238000D02*
D03*
X407000D02*
D03*
X480000Y123000D02*
D03*
Y133000D02*
D03*
D68*
X185000Y216000D02*
D03*
X474000Y365000D02*
D03*
X417000Y238000D02*
D03*
D69*
X456000Y84000D02*
D03*
X468000Y89000D02*
D03*
D70*
X193000Y32000D02*
D03*
D71*
X540000Y85323D02*
D03*
Y68000D02*
D03*
D72*
X480000Y143000D02*
D03*
D73*
X540000Y380000D02*
D03*
X20000D02*
D03*
X540000Y20000D02*
D03*
X20000D02*
D03*
D74*
X388000Y345000D02*
D03*
X59000Y314000D02*
D03*
Y339000D02*
D03*
X426000Y293000D02*
D03*
X392000Y150000D02*
D03*
X244000Y316000D02*
D03*
X256000Y329000D02*
D03*
X208500Y217000D02*
D03*
X200500D02*
D03*
X208500Y237000D02*
D03*
X200500D02*
D03*
X268000Y313000D02*
D03*
X212000Y172000D02*
D03*
X216000Y217000D02*
D03*
X214000Y201000D02*
D03*
X223000Y196000D02*
D03*
X231000Y170000D02*
D03*
X232000Y180000D02*
D03*
Y190000D02*
D03*
X320000Y308000D02*
D03*
X240000Y325000D02*
D03*
X326000Y222000D02*
D03*
X291000Y216000D02*
D03*
X283000Y215000D02*
D03*
X402000Y160000D02*
D03*
X382000Y161000D02*
D03*
X392500Y166000D02*
D03*
X406000Y153000D02*
D03*
X326000Y229000D02*
D03*
X369000Y308000D02*
D03*
X332000Y309000D02*
D03*
X358000Y250000D02*
D03*
X332000Y317000D02*
D03*
X376000Y365000D02*
D03*
X506000Y310000D02*
D03*
X388000Y331000D02*
D03*
X219000Y263000D02*
D03*
X216000Y237000D02*
D03*
X201000Y208000D02*
D03*
X195000Y173000D02*
D03*
X210000Y258000D02*
D03*
X203000Y287000D02*
D03*
X200235Y308765D02*
D03*
X277000Y296000D02*
D03*
X251000Y265000D02*
D03*
X398000Y352000D02*
D03*
X378000D02*
D03*
X351000D02*
D03*
X339000D02*
D03*
X315000D02*
D03*
X296000D02*
D03*
X284000D02*
D03*
X268000D02*
D03*
X256000D02*
D03*
X240000D02*
D03*
X228000D02*
D03*
X212000D02*
D03*
X200000D02*
D03*
X437000Y357000D02*
D03*
X430000Y356000D02*
D03*
X197000Y296000D02*
D03*
X160000D02*
D03*
Y256000D02*
D03*
X61000Y229000D02*
D03*
X35500Y230000D02*
D03*
X27000D02*
D03*
X127000D02*
D03*
X185000Y352000D02*
D03*
X175000D02*
D03*
X165000D02*
D03*
X155000D02*
D03*
X145000D02*
D03*
X135000D02*
D03*
X125000D02*
D03*
X115000D02*
D03*
X127000Y280000D02*
D03*
Y270000D02*
D03*
Y240000D02*
D03*
X396000Y309000D02*
D03*
X393000Y302000D02*
D03*
X413000Y340000D02*
D03*
X409000Y334000D02*
D03*
X418000Y346000D02*
D03*
X424000Y352000D02*
D03*
X383500Y234000D02*
D03*
X414000Y302000D02*
D03*
X418000Y311000D02*
D03*
X499000Y310000D02*
D03*
X425000Y304000D02*
D03*
X432000Y303000D02*
D03*
X503000Y325000D02*
D03*
X473000Y321500D02*
D03*
X461000Y353000D02*
D03*
X501000Y334000D02*
D03*
X541000Y260000D02*
D03*
X500000Y283000D02*
D03*
X437000Y323000D02*
D03*
X425000Y66000D02*
D03*
X404000Y74000D02*
D03*
X398000Y82000D02*
D03*
X446000Y134000D02*
D03*
X432000Y138000D02*
D03*
X422000Y137000D02*
D03*
X398000Y93000D02*
D03*
X409000Y82000D02*
D03*
X473000Y81000D02*
D03*
Y73000D02*
D03*
X379000Y78000D02*
D03*
Y69500D02*
D03*
X428000Y78000D02*
D03*
X421000Y177000D02*
D03*
X427000Y158000D02*
D03*
X417000Y161000D02*
D03*
X413000Y224000D02*
D03*
X486000Y164000D02*
D03*
X450586Y203559D02*
D03*
X448000Y216000D02*
D03*
X499586Y141808D02*
D03*
X495000Y210000D02*
D03*
X504000Y201000D02*
D03*
X437000Y216000D02*
D03*
X417000Y153000D02*
D03*
X449000Y148000D02*
D03*
X380000Y149000D02*
D03*
X368000Y185000D02*
D03*
X374000Y153000D02*
D03*
X395000Y188000D02*
D03*
X345000Y208000D02*
D03*
X330000Y172000D02*
D03*
X316000Y214000D02*
D03*
X358000Y228000D02*
D03*
X351000Y221000D02*
D03*
X369000D02*
D03*
Y228000D02*
D03*
Y193000D02*
D03*
X323000Y200000D02*
D03*
X330000Y207000D02*
D03*
X369000Y200000D02*
D03*
X339000D02*
D03*
X369000Y207000D02*
D03*
Y214000D02*
D03*
X409000Y37000D02*
D03*
X418500Y43000D02*
D03*
X195000Y79000D02*
D03*
X444000Y70000D02*
D03*
X186000Y86000D02*
D03*
X162000D02*
D03*
X163000Y78000D02*
D03*
X405000Y22000D02*
D03*
X420000Y32000D02*
D03*
X520000Y161000D02*
D03*
X528000Y172000D02*
D03*
X513000Y63000D02*
D03*
X442000Y187000D02*
D03*
X466000Y185000D02*
D03*
X470000Y209000D02*
D03*
X474000Y179000D02*
D03*
X521000Y146000D02*
D03*
X479414Y172000D02*
D03*
X519000Y177000D02*
D03*
X365000Y172000D02*
D03*
X358000D02*
D03*
X351000D02*
D03*
X344000D02*
D03*
X337000D02*
D03*
X323000D02*
D03*
X316000D02*
D03*
X110000Y130000D02*
D03*
Y140000D02*
D03*
Y150000D02*
D03*
Y160000D02*
D03*
Y170000D02*
D03*
Y180000D02*
D03*
Y190000D02*
D03*
Y200000D02*
D03*
X127000Y250000D02*
D03*
Y260000D02*
D03*
Y290000D02*
D03*
Y300000D02*
D03*
X508000Y113000D02*
D03*
X451000Y62000D02*
D03*
X347000Y152000D02*
D03*
X544000Y47000D02*
D03*
X503004Y59996D02*
D03*
X532000Y152000D02*
D03*
X479000Y36000D02*
D03*
X452000Y39000D02*
D03*
X485000Y30000D02*
D03*
X479000Y58000D02*
D03*
Y50000D02*
D03*
X422000Y98000D02*
D03*
X188000Y152000D02*
D03*
X171000Y143000D02*
D03*
X166000Y149000D02*
D03*
X159000Y152000D02*
D03*
X166000Y174000D02*
D03*
M02*
