G04*
G04 #@! TF.GenerationSoftware,Altium Limited,Altium Designer,22.3.1 (43)*
G04*
G04 Layer_Color=16711935*
%FSLAX25Y25*%
%MOIN*%
G70*
G04*
G04 #@! TF.SameCoordinates,CC72978B-6F05-4AE3-AFEB-50B74E8C7AD0*
G04*
G04*
G04 #@! TF.FilePolarity,Positive*
G04*
G01*
G75*
%ADD11C,0.00787*%
%ADD14C,0.00394*%
D11*
X560669Y61504D02*
Y91819D01*
X525236D02*
X560669D01*
X525236Y61504D02*
Y91819D01*
Y61504D02*
X560669D01*
D14*
X429220Y343779D02*
X456779D01*
Y316220D02*
Y343779D01*
X429220Y316220D02*
X456779D01*
X429220D02*
Y343779D01*
Y340630D02*
X432370Y343779D01*
X153220Y192630D02*
X156370Y195780D01*
X153220Y168220D02*
Y195780D01*
Y168220D02*
X180780D01*
Y195780D01*
X153220D02*
X180780D01*
X413221Y116630D02*
X416370Y119780D01*
X413221Y92220D02*
Y119780D01*
Y92220D02*
X440779D01*
Y119780D01*
X413221D02*
X440779D01*
X384945Y209465D02*
X412504D01*
Y181905D02*
Y209465D01*
X384945Y181905D02*
X412504D01*
X384945D02*
Y209465D01*
Y206315D02*
X388094Y209465D01*
X438567Y69669D02*
X441126Y72228D01*
X438567Y31772D02*
Y72228D01*
Y31772D02*
X459433D01*
Y72228D01*
X438567D02*
X459433D01*
M02*
