G04*
G04 #@! TF.GenerationSoftware,Altium Limited,Altium Designer,22.3.1 (43)*
G04*
G04 Layer_Color=128*
%FSLAX25Y25*%
%MOIN*%
G70*
G04*
G04 #@! TF.SameCoordinates,CC72978B-6F05-4AE3-AFEB-50B74E8C7AD0*
G04*
G04*
G04 #@! TF.FilePolarity,Positive*
G04*
G01*
G75*
%ADD26R,0.03150X0.03740*%
%ADD27R,0.03740X0.03150*%
D26*
X175299Y182000D02*
D03*
X169000D02*
D03*
X175150Y188000D02*
D03*
X168850D02*
D03*
X156850D02*
D03*
X163150D02*
D03*
X439150Y337000D02*
D03*
X432850D02*
D03*
X436000Y113000D02*
D03*
X429701D02*
D03*
X439150Y331000D02*
D03*
X432850D02*
D03*
X417850Y106000D02*
D03*
X424150D02*
D03*
X417850Y113000D02*
D03*
X424150D02*
D03*
X396150Y196000D02*
D03*
X389850D02*
D03*
X401850Y202000D02*
D03*
X408150D02*
D03*
X444850Y337000D02*
D03*
X451150D02*
D03*
X444850Y331000D02*
D03*
X451150D02*
D03*
X436150Y106000D02*
D03*
X429850D02*
D03*
X396150Y202000D02*
D03*
X389850D02*
D03*
X401701Y196000D02*
D03*
X408000D02*
D03*
X156850Y182000D02*
D03*
X163150D02*
D03*
D27*
X351000Y343150D02*
D03*
Y336850D02*
D03*
X135000Y343150D02*
D03*
Y336850D02*
D03*
X398000Y343150D02*
D03*
Y336850D02*
D03*
X296000Y343150D02*
D03*
Y336850D02*
D03*
X284000Y343150D02*
D03*
Y336850D02*
D03*
X378000Y343150D02*
D03*
Y336850D02*
D03*
X175000Y343150D02*
D03*
Y336850D02*
D03*
X315000Y343150D02*
D03*
Y336850D02*
D03*
X200000Y343150D02*
D03*
Y336850D02*
D03*
X165000Y343150D02*
D03*
Y336850D02*
D03*
X240000Y343150D02*
D03*
Y336850D02*
D03*
X115000Y343150D02*
D03*
Y336850D02*
D03*
X145000Y343150D02*
D03*
Y336850D02*
D03*
X256000Y343150D02*
D03*
Y336850D02*
D03*
X155000Y343150D02*
D03*
Y336850D02*
D03*
X125000Y343150D02*
D03*
Y336850D02*
D03*
X212000Y343150D02*
D03*
Y336850D02*
D03*
X228000Y343150D02*
D03*
Y336850D02*
D03*
X268000Y343150D02*
D03*
Y336850D02*
D03*
X185000Y343150D02*
D03*
Y336850D02*
D03*
X339000Y343150D02*
D03*
Y336850D02*
D03*
M02*
