G04*
G04 #@! TF.GenerationSoftware,Altium Limited,Altium Designer,22.3.1 (43)*
G04*
G04 Layer_Color=32896*
%FSLAX25Y25*%
%MOIN*%
G70*
G04*
G04 #@! TF.SameCoordinates,CC72978B-6F05-4AE3-AFEB-50B74E8C7AD0*
G04*
G04*
G04 #@! TF.FilePolarity,Positive*
G04*
G01*
G75*
%ADD14C,0.00394*%
%ADD86C,0.00197*%
D14*
X517638Y295354D02*
Y364646D01*
X576500D01*
X517638Y295354D02*
X576500D01*
Y364646D01*
X517638Y215354D02*
Y284646D01*
X576500D01*
X517638Y215354D02*
X576500D01*
Y284646D01*
D86*
X348047Y334291D02*
Y345709D01*
Y334291D02*
X353953D01*
Y345709D01*
X348047D02*
X353953D01*
X177858Y179047D02*
Y184953D01*
X166441Y179047D02*
X177858D01*
X166441D02*
Y184953D01*
X177858D01*
X132047Y334291D02*
Y345709D01*
Y334291D02*
X137953D01*
Y345709D01*
X132047D02*
X137953D01*
X177709Y185047D02*
Y190953D01*
X166291Y185047D02*
X177709D01*
X166291D02*
Y190953D01*
X177709D01*
X395047Y334291D02*
Y345709D01*
Y334291D02*
X400953D01*
Y345709D01*
X395047D02*
X400953D01*
X293047Y334291D02*
Y345709D01*
Y334291D02*
X298953D01*
Y345709D01*
X293047D02*
X298953D01*
X154291Y185047D02*
Y190953D01*
X165709D01*
Y185047D02*
Y190953D01*
X154291Y185047D02*
X165709D01*
X281047Y334291D02*
Y345709D01*
Y334291D02*
X286953D01*
Y345709D01*
X281047D02*
X286953D01*
X430291Y334047D02*
X441709D01*
Y339953D01*
X430291D02*
X441709D01*
X430291Y334047D02*
Y339953D01*
X375047Y334291D02*
Y345709D01*
Y334291D02*
X380953D01*
Y345709D01*
X375047D02*
X380953D01*
X172047Y334291D02*
Y345709D01*
Y334291D02*
X177953D01*
Y345709D01*
X172047D02*
X177953D01*
X427142Y115953D02*
X438559D01*
X427142Y110047D02*
Y115953D01*
Y110047D02*
X438559D01*
Y115953D01*
X312047Y334291D02*
Y345709D01*
Y334291D02*
X317953D01*
Y345709D01*
X312047D02*
X317953D01*
X197047Y334291D02*
Y345709D01*
Y334291D02*
X202953D01*
Y345709D01*
X197047D02*
X202953D01*
X432547Y160976D02*
X463453D01*
X432547D02*
Y183024D01*
X463453D01*
Y160976D02*
Y183024D01*
X162047Y334291D02*
Y345709D01*
Y334291D02*
X167953D01*
Y345709D01*
X162047D02*
X167953D01*
X430291Y328047D02*
X441709D01*
Y333953D01*
X430291D02*
X441709D01*
X430291Y328047D02*
Y333953D01*
X415291Y103047D02*
X426709D01*
Y108953D01*
X415291D02*
X426709D01*
X415291Y103047D02*
Y108953D01*
X237047Y334291D02*
Y345709D01*
Y334291D02*
X242953D01*
Y345709D01*
X237047D02*
X242953D01*
X112047Y334291D02*
Y345709D01*
Y334291D02*
X117953D01*
Y345709D01*
X112047D02*
X117953D01*
X142047Y334291D02*
Y345709D01*
Y334291D02*
X147953D01*
Y345709D01*
X142047D02*
X147953D01*
X415291Y110047D02*
X426709D01*
Y115953D01*
X415291D02*
X426709D01*
X415291Y110047D02*
Y115953D01*
X253047Y334291D02*
Y345709D01*
Y334291D02*
X258953D01*
Y345709D01*
X253047D02*
X258953D01*
X387291Y193047D02*
Y198953D01*
X398709D01*
Y193047D02*
Y198953D01*
X387291Y193047D02*
X398709D01*
X410709Y199047D02*
Y204953D01*
X399291Y199047D02*
X410709D01*
X399291D02*
Y204953D01*
X410709D01*
X432547Y189976D02*
X463453D01*
X432547D02*
Y212024D01*
X463453D01*
Y189976D02*
Y212024D01*
X442291Y339953D02*
X453709D01*
X442291Y334047D02*
Y339953D01*
Y334047D02*
X453709D01*
Y339953D01*
X442291Y333953D02*
X453709D01*
X442291Y328047D02*
Y333953D01*
Y328047D02*
X453709D01*
Y333953D01*
X152047Y334291D02*
Y345709D01*
Y334291D02*
X157953D01*
Y345709D01*
X152047D02*
X157953D01*
X122047Y334291D02*
Y345709D01*
Y334291D02*
X127953D01*
Y345709D01*
X122047D02*
X127953D01*
X209047Y334291D02*
Y345709D01*
Y334291D02*
X214953D01*
Y345709D01*
X209047D02*
X214953D01*
X225047Y334291D02*
Y345709D01*
Y334291D02*
X230953D01*
Y345709D01*
X225047D02*
X230953D01*
X427291Y108953D02*
X438709D01*
X427291Y103047D02*
Y108953D01*
Y103047D02*
X438709D01*
Y108953D01*
X265047Y334291D02*
Y345709D01*
Y334291D02*
X270953D01*
Y345709D01*
X265047D02*
X270953D01*
X182047Y334291D02*
Y345709D01*
Y334291D02*
X187953D01*
Y345709D01*
X182047D02*
X187953D01*
X387291Y199047D02*
Y204953D01*
X398709D01*
Y199047D02*
Y204953D01*
X387291Y199047D02*
X398709D01*
X410559Y193047D02*
Y198953D01*
X399142Y193047D02*
X410559D01*
X399142D02*
Y198953D01*
X410559D01*
X336047Y334291D02*
Y345709D01*
Y334291D02*
X341953D01*
Y345709D01*
X336047D02*
X341953D01*
X154291Y179047D02*
Y184953D01*
X165709D01*
Y179047D02*
Y184953D01*
X154291Y179047D02*
X165709D01*
X493291Y80953D02*
X504709D01*
Y75047D02*
Y80953D01*
X493291Y75047D02*
X504709D01*
X493291D02*
Y80953D01*
X413291Y60953D02*
X424709D01*
Y55047D02*
Y60953D01*
X413291Y55047D02*
X424709D01*
X413291D02*
Y60953D01*
X488953Y185291D02*
Y196709D01*
X483047Y185291D02*
X488953D01*
X483047D02*
Y196709D01*
X488953D01*
X482953Y185291D02*
Y196709D01*
X477047Y185291D02*
X482953D01*
X477047D02*
Y196709D01*
X482953D01*
X413291Y75953D02*
X424709D01*
Y70047D02*
Y75953D01*
X413291Y70047D02*
X424709D01*
X413291D02*
Y75953D01*
X494047Y115441D02*
Y126858D01*
X499953D01*
Y115441D02*
Y126858D01*
X494047Y115441D02*
X499953D01*
X155496Y260252D02*
Y291748D01*
Y260252D02*
X192504D01*
Y291748D01*
X155496D02*
X192504D01*
X493291Y87047D02*
X504709D01*
X493291D02*
Y92953D01*
X504709D01*
Y87047D02*
Y92953D01*
X493291Y81047D02*
X504709D01*
X493291D02*
Y86953D01*
X504709D01*
Y81047D02*
Y86953D01*
X190953Y134291D02*
Y145709D01*
X185047Y134291D02*
X190953D01*
X185047D02*
Y145709D01*
X190953D01*
X487047Y115291D02*
Y126709D01*
X492953D01*
Y115291D02*
Y126709D01*
X487047Y115291D02*
X492953D01*
X493291Y69047D02*
X504709D01*
X493291D02*
Y74953D01*
X504709D01*
Y69047D02*
Y74953D01*
X200953Y134291D02*
Y145709D01*
X195047Y134291D02*
X200953D01*
X195047D02*
Y145709D01*
X200953D01*
X210953Y134291D02*
Y145709D01*
X205047Y134291D02*
X210953D01*
X205047D02*
Y145709D01*
X210953D01*
X265047Y134291D02*
Y145709D01*
X270953D01*
Y134291D02*
Y145709D01*
X265047Y134291D02*
X270953D01*
X230953D02*
Y145709D01*
X225047Y134291D02*
X230953D01*
X225047D02*
Y145709D01*
X230953D01*
X220953Y134291D02*
Y145709D01*
X215047Y134291D02*
X220953D01*
X215047D02*
Y145709D01*
X220953D01*
X250953Y134291D02*
Y145709D01*
X245047Y134291D02*
X250953D01*
X245047D02*
Y145709D01*
X250953D01*
X240953Y134291D02*
Y145709D01*
X235047Y134291D02*
X240953D01*
X235047D02*
Y145709D01*
X240953D01*
X335047Y134291D02*
Y145709D01*
X340953D01*
Y134291D02*
Y145709D01*
X335047Y134291D02*
X340953D01*
X260953D02*
Y145709D01*
X255047Y134291D02*
X260953D01*
X255047D02*
Y145709D01*
X260953D01*
X295047Y134291D02*
Y145709D01*
X300953D01*
Y134291D02*
Y145709D01*
X295047Y134291D02*
X300953D01*
X305047D02*
Y145709D01*
X310953D01*
Y134291D02*
Y145709D01*
X305047Y134291D02*
X310953D01*
X275047D02*
Y145709D01*
X280953D01*
Y134291D02*
Y145709D01*
X275047Y134291D02*
X280953D01*
X285047D02*
Y145709D01*
X290953D01*
Y134291D02*
Y145709D01*
X285047Y134291D02*
X290953D01*
X325047D02*
Y145709D01*
X330953D01*
Y134291D02*
Y145709D01*
X325047Y134291D02*
X330953D01*
X315047D02*
Y145709D01*
X320953D01*
Y134291D02*
Y145709D01*
X315047Y134291D02*
X320953D01*
X471953Y141291D02*
Y152709D01*
X466047Y141291D02*
X471953D01*
X466047D02*
Y152709D01*
X471953D01*
X476953Y185291D02*
Y196709D01*
X471047Y185291D02*
X476953D01*
X471047D02*
Y196709D01*
X476953D01*
X239547Y269976D02*
Y292024D01*
Y269976D02*
X270453D01*
Y292024D01*
X239547D02*
X270453D01*
X498953Y343291D02*
Y354709D01*
X493047Y343291D02*
X498953D01*
X493047D02*
Y354709D01*
X498953D01*
X494953Y185291D02*
Y196709D01*
X489047Y185291D02*
X494953D01*
X489047D02*
Y196709D01*
X494953D01*
X487953Y206291D02*
Y217709D01*
X482047Y206291D02*
X487953D01*
X482047D02*
Y217709D01*
X487953D01*
X505953Y265291D02*
Y276709D01*
X500047Y265291D02*
X505953D01*
X500047D02*
Y276709D01*
X505953D01*
X492953Y343291D02*
Y354709D01*
X487047Y343291D02*
X492953D01*
X487047D02*
Y354709D01*
X492953D01*
X481953Y206291D02*
Y217709D01*
X476047Y206291D02*
X481953D01*
X476047D02*
Y217709D01*
X481953D01*
X499953Y265291D02*
Y276709D01*
X494047Y265291D02*
X499953D01*
X494047D02*
Y276709D01*
X499953D01*
M02*
