G04*
G04 #@! TF.GenerationSoftware,Altium Limited,Altium Designer,22.3.1 (43)*
G04*
G04 Layer_Color=32896*
%FSLAX25Y25*%
%MOIN*%
G70*
G04*
G04 #@! TF.SameCoordinates,CC72978B-6F05-4AE3-AFEB-50B74E8C7AD0*
G04*
G04*
G04 #@! TF.FilePolarity,Positive*
G04*
G01*
G75*
%ADD13C,0.01000*%
%ADD15C,0.00500*%
D13*
X352999Y357332D02*
X349001D01*
Y355332D01*
X349667Y354666D01*
X351000D01*
X351666Y355332D01*
Y357332D01*
Y355999D02*
X352999Y354666D01*
Y350667D02*
Y353333D01*
X350333Y350667D01*
X349667D01*
X349001Y351334D01*
Y352666D01*
X349667Y353333D01*
X349001Y346668D02*
Y349334D01*
X351000D01*
X350333Y348001D01*
Y347335D01*
X351000Y346668D01*
X352333D01*
X352999Y347335D01*
Y348668D01*
X352333Y349334D01*
X340999Y358332D02*
X337001D01*
Y356332D01*
X337667Y355666D01*
X339000D01*
X339666Y356332D01*
Y358332D01*
Y356999D02*
X340999Y355666D01*
Y351667D02*
Y354333D01*
X338334Y351667D01*
X337667D01*
X337001Y352334D01*
Y353666D01*
X337667Y354333D01*
X340999Y348335D02*
X337001D01*
X339000Y350334D01*
Y347668D01*
X113001Y347668D02*
X116999D01*
Y349668D01*
X116333Y350334D01*
X115000D01*
X114333Y349668D01*
Y347668D01*
Y349001D02*
X113001Y350334D01*
Y354333D02*
Y351667D01*
X115666Y354333D01*
X116333D01*
X116999Y353666D01*
Y352333D01*
X116333Y351667D01*
Y355666D02*
X116999Y356332D01*
Y357665D01*
X116333Y358332D01*
X115666D01*
X115000Y357665D01*
Y356999D01*
Y357665D01*
X114333Y358332D01*
X113667D01*
X113001Y357665D01*
Y356332D01*
X113667Y355666D01*
X123001Y347668D02*
X126999D01*
Y349668D01*
X126333Y350334D01*
X125000D01*
X124334Y349668D01*
Y347668D01*
Y349001D02*
X123001Y350334D01*
Y354333D02*
Y351667D01*
X125666Y354333D01*
X126333D01*
X126999Y353666D01*
Y352334D01*
X126333Y351667D01*
X123001Y358332D02*
Y355666D01*
X125666Y358332D01*
X126333D01*
X126999Y357665D01*
Y356332D01*
X126333Y355666D01*
X133001Y347668D02*
X136999D01*
Y349668D01*
X136333Y350334D01*
X135000D01*
X134334Y349668D01*
Y347668D01*
Y349001D02*
X133001Y350334D01*
Y354333D02*
Y351667D01*
X135667Y354333D01*
X136333D01*
X136999Y353666D01*
Y352334D01*
X136333Y351667D01*
X133001Y355666D02*
Y356999D01*
Y356332D01*
X136999D01*
X136333Y355666D01*
X143001Y347668D02*
X146999D01*
Y349668D01*
X146333Y350334D01*
X145000D01*
X144334Y349668D01*
Y347668D01*
Y349001D02*
X143001Y350334D01*
Y354333D02*
Y351667D01*
X145667Y354333D01*
X146333D01*
X146999Y353666D01*
Y352334D01*
X146333Y351667D01*
Y355666D02*
X146999Y356332D01*
Y357665D01*
X146333Y358332D01*
X143667D01*
X143001Y357665D01*
Y356332D01*
X143667Y355666D01*
X146333D01*
X153001Y347668D02*
X156999D01*
Y349668D01*
X156333Y350334D01*
X155000D01*
X154333Y349668D01*
Y347668D01*
Y349001D02*
X153001Y350334D01*
Y351667D02*
Y353000D01*
Y352334D01*
X156999D01*
X156333Y351667D01*
X153667Y354999D02*
X153001Y355666D01*
Y356999D01*
X153667Y357665D01*
X156333D01*
X156999Y356999D01*
Y355666D01*
X156333Y354999D01*
X155666D01*
X155000Y355666D01*
Y357665D01*
X163001Y347668D02*
X166999D01*
Y349668D01*
X166333Y350334D01*
X165000D01*
X164333Y349668D01*
Y347668D01*
Y349001D02*
X163001Y350334D01*
Y351667D02*
Y353000D01*
Y352334D01*
X166999D01*
X166333Y351667D01*
Y354999D02*
X166999Y355666D01*
Y356999D01*
X166333Y357665D01*
X165666D01*
X165000Y356999D01*
X164333Y357665D01*
X163667D01*
X163001Y356999D01*
Y355666D01*
X163667Y354999D01*
X164333D01*
X165000Y355666D01*
X165666Y354999D01*
X166333D01*
X165000Y355666D02*
Y356999D01*
X173001Y347668D02*
X176999D01*
Y349668D01*
X176333Y350334D01*
X175000D01*
X174334Y349668D01*
Y347668D01*
Y349001D02*
X173001Y350334D01*
Y351667D02*
Y353000D01*
Y352334D01*
X176999D01*
X176333Y351667D01*
X176999Y354999D02*
Y357665D01*
X176333D01*
X173667Y354999D01*
X173001D01*
X183001Y347668D02*
X186999D01*
Y349668D01*
X186333Y350334D01*
X185000D01*
X184334Y349668D01*
Y347668D01*
Y349001D02*
X183001Y350334D01*
Y351667D02*
Y353000D01*
Y352334D01*
X186999D01*
X186333Y351667D01*
X186999Y357665D02*
X186333Y356332D01*
X185000Y354999D01*
X183667D01*
X183001Y355666D01*
Y356999D01*
X183667Y357665D01*
X184334D01*
X185000Y356999D01*
Y354999D01*
X379999Y356998D02*
X376001D01*
Y354999D01*
X376667Y354333D01*
X378000D01*
X378666Y354999D01*
Y356998D01*
Y355665D02*
X379999Y354333D01*
Y353000D02*
Y351667D01*
Y352333D01*
X376001D01*
X376667Y353000D01*
X376001Y347002D02*
Y349667D01*
X378000D01*
X377334Y348335D01*
Y347668D01*
X378000Y347002D01*
X379333D01*
X379999Y347668D01*
Y349001D01*
X379333Y349667D01*
X399999Y356998D02*
X396001D01*
Y354999D01*
X396667Y354333D01*
X398000D01*
X398666Y354999D01*
Y356998D01*
Y355665D02*
X399999Y354333D01*
Y353000D02*
Y351667D01*
Y352333D01*
X396001D01*
X396667Y353000D01*
X399999Y347668D02*
X396001D01*
X398000Y349667D01*
Y347002D01*
X241999Y356998D02*
X238001D01*
Y354999D01*
X238667Y354333D01*
X240000D01*
X240666Y354999D01*
Y356998D01*
Y355665D02*
X241999Y354333D01*
Y353000D02*
Y351667D01*
Y352333D01*
X238001D01*
X238667Y353000D01*
Y349667D02*
X238001Y349001D01*
Y347668D01*
X238667Y347002D01*
X239334D01*
X240000Y347668D01*
Y348335D01*
Y347668D01*
X240666Y347002D01*
X241333D01*
X241999Y347668D01*
Y349001D01*
X241333Y349667D01*
X269999Y356998D02*
X266001D01*
Y354999D01*
X266667Y354333D01*
X268000D01*
X268666Y354999D01*
Y356998D01*
Y355665D02*
X269999Y354333D01*
Y353000D02*
Y351667D01*
Y352333D01*
X266001D01*
X266667Y353000D01*
X269999Y347002D02*
Y349667D01*
X267334Y347002D01*
X266667D01*
X266001Y347668D01*
Y349001D01*
X266667Y349667D01*
X213999Y355332D02*
X210001D01*
Y353333D01*
X210667Y352666D01*
X212000D01*
X212666Y353333D01*
Y355332D01*
Y353999D02*
X213999Y352666D01*
Y351333D02*
Y350000D01*
Y350667D01*
X210001D01*
X210667Y351333D01*
X213999Y348001D02*
Y346668D01*
Y347335D01*
X210001D01*
X210667Y348001D01*
X297999Y356998D02*
X294001D01*
Y354999D01*
X294667Y354333D01*
X296000D01*
X296666Y354999D01*
Y356998D01*
Y355665D02*
X297999Y354333D01*
Y353000D02*
Y351667D01*
Y352333D01*
X294001D01*
X294667Y353000D01*
Y349667D02*
X294001Y349001D01*
Y347668D01*
X294667Y347002D01*
X297333D01*
X297999Y347668D01*
Y349001D01*
X297333Y349667D01*
X294667D01*
X316999Y354332D02*
X313001D01*
Y352333D01*
X313667Y351666D01*
X315000D01*
X315666Y352333D01*
Y354332D01*
Y352999D02*
X316999Y351666D01*
X316333Y350333D02*
X316999Y349667D01*
Y348334D01*
X316333Y347668D01*
X313667D01*
X313001Y348334D01*
Y349667D01*
X313667Y350333D01*
X314334D01*
X315000Y349667D01*
Y347668D01*
X285999Y354332D02*
X282001D01*
Y352333D01*
X282667Y351666D01*
X284000D01*
X284666Y352333D01*
Y354332D01*
Y352999D02*
X285999Y351666D01*
X282667Y350333D02*
X282001Y349667D01*
Y348334D01*
X282667Y347668D01*
X283334D01*
X284000Y348334D01*
X284666Y347668D01*
X285333D01*
X285999Y348334D01*
Y349667D01*
X285333Y350333D01*
X284666D01*
X284000Y349667D01*
X283334Y350333D01*
X282667D01*
X284000Y349667D02*
Y348334D01*
X257999Y354332D02*
X254001D01*
Y352333D01*
X254667Y351666D01*
X256000D01*
X256666Y352333D01*
Y354332D01*
Y352999D02*
X257999Y351666D01*
X254001Y350333D02*
Y347668D01*
X254667D01*
X257333Y350333D01*
X257999D01*
X229999Y354332D02*
X226001D01*
Y352333D01*
X226667Y351666D01*
X228000D01*
X228666Y352333D01*
Y354332D01*
Y352999D02*
X229999Y351666D01*
X226001Y347668D02*
X226667Y349001D01*
X228000Y350333D01*
X229333D01*
X229999Y349667D01*
Y348334D01*
X229333Y347668D01*
X228666D01*
X228000Y348334D01*
Y350333D01*
X201999Y354332D02*
X198001D01*
Y352333D01*
X198667Y351666D01*
X200000D01*
X200666Y352333D01*
Y354332D01*
Y352999D02*
X201999Y351666D01*
X198001Y347668D02*
Y350333D01*
X200000D01*
X199334Y349001D01*
Y348334D01*
X200000Y347668D01*
X201333D01*
X201999Y348334D01*
Y349667D01*
X201333Y350333D01*
X187333Y189333D02*
X187999Y189999D01*
X189332D01*
X189998Y189333D01*
Y186667D01*
X189332Y186001D01*
X187999D01*
X187333Y186667D01*
X186000Y186001D02*
X184667D01*
X185333D01*
Y189999D01*
X186000Y189333D01*
X180002Y189999D02*
X181334Y189333D01*
X182667Y188000D01*
Y186667D01*
X182001Y186001D01*
X180668D01*
X180002Y186667D01*
Y187334D01*
X180668Y188000D01*
X182667D01*
X150333Y189187D02*
X150999Y189853D01*
X152332D01*
X152998Y189187D01*
Y186521D01*
X152332Y185854D01*
X150999D01*
X150333Y186521D01*
X149000Y185854D02*
X147667D01*
X148333D01*
Y189853D01*
X149000Y189187D01*
X143002Y189853D02*
X145667D01*
Y187854D01*
X144334Y188520D01*
X143668D01*
X143002Y187854D01*
Y186521D01*
X143668Y185854D01*
X145001D01*
X145667Y186521D01*
X187333Y183333D02*
X187999Y183999D01*
X189332D01*
X189998Y183333D01*
Y180667D01*
X189332Y180001D01*
X187999D01*
X187333Y180667D01*
X186000Y180001D02*
X184667D01*
X185333D01*
Y183999D01*
X186000Y183333D01*
X180668Y180001D02*
Y183999D01*
X182667Y182000D01*
X180002D01*
X150333Y183333D02*
X150999Y183999D01*
X152332D01*
X152998Y183333D01*
Y180667D01*
X152332Y180001D01*
X150999D01*
X150333Y180667D01*
X149000Y180001D02*
X147667D01*
X148333D01*
Y183999D01*
X149000Y183333D01*
X145667D02*
X145001Y183999D01*
X143668D01*
X143002Y183333D01*
Y182667D01*
X143668Y182000D01*
X144334D01*
X143668D01*
X143002Y181333D01*
Y180667D01*
X143668Y180001D01*
X145001D01*
X145667Y180667D01*
X411333Y115333D02*
X411999Y115999D01*
X413332D01*
X413998Y115333D01*
Y112667D01*
X413332Y112001D01*
X411999D01*
X411333Y112667D01*
X410000Y112001D02*
X408667D01*
X409333D01*
Y115999D01*
X410000Y115333D01*
X404002Y112001D02*
X406667D01*
X404002Y114666D01*
Y115333D01*
X404668Y115999D01*
X406001D01*
X406667Y115333D01*
X446666Y114333D02*
X447333Y114999D01*
X448666D01*
X449332Y114333D01*
Y111667D01*
X448666Y111001D01*
X447333D01*
X446666Y111667D01*
X445333Y111001D02*
X444000D01*
X444667D01*
Y114999D01*
X445333Y114333D01*
X442001Y111001D02*
X440668D01*
X441334D01*
Y114999D01*
X442001Y114333D01*
X447333Y107333D02*
X447999Y107999D01*
X449332D01*
X449998Y107333D01*
Y104667D01*
X449332Y104001D01*
X447999D01*
X447333Y104667D01*
X446000Y104001D02*
X444667D01*
X445333D01*
Y107999D01*
X446000Y107333D01*
X442667D02*
X442001Y107999D01*
X440668D01*
X440002Y107333D01*
Y104667D01*
X440668Y104001D01*
X442001D01*
X442667Y104667D01*
Y107333D01*
X409666D02*
X410333Y107999D01*
X411666D01*
X412332Y107333D01*
Y104667D01*
X411666Y104001D01*
X410333D01*
X409666Y104667D01*
X408333D02*
X407667Y104001D01*
X406334D01*
X405668Y104667D01*
Y107333D01*
X406334Y107999D01*
X407667D01*
X408333Y107333D01*
Y106667D01*
X407667Y106000D01*
X405668D01*
X379666Y203333D02*
X380333Y203999D01*
X381666D01*
X382332Y203333D01*
Y200667D01*
X381666Y200001D01*
X380333D01*
X379666Y200667D01*
X378333Y203333D02*
X377667Y203999D01*
X376334D01*
X375668Y203333D01*
Y202666D01*
X376334Y202000D01*
X375668Y201333D01*
Y200667D01*
X376334Y200001D01*
X377667D01*
X378333Y200667D01*
Y201333D01*
X377667Y202000D01*
X378333Y202666D01*
Y203333D01*
X377667Y202000D02*
X376334D01*
X417666Y197333D02*
X418333Y197999D01*
X419666D01*
X420332Y197333D01*
Y194667D01*
X419666Y194001D01*
X418333D01*
X417666Y194667D01*
X416333Y197999D02*
X413668D01*
Y197333D01*
X416333Y194667D01*
Y194001D01*
X417666Y204333D02*
X418333Y204999D01*
X419666D01*
X420332Y204333D01*
Y201667D01*
X419666Y201001D01*
X418333D01*
X417666Y201667D01*
X413668Y204999D02*
X415001Y204333D01*
X416333Y203000D01*
Y201667D01*
X415667Y201001D01*
X414334D01*
X413668Y201667D01*
Y202333D01*
X414334Y203000D01*
X416333D01*
X381517Y197333D02*
X382183Y197999D01*
X383516D01*
X384183Y197333D01*
Y194667D01*
X383516Y194001D01*
X382183D01*
X381517Y194667D01*
X377518Y197999D02*
X380184D01*
Y196000D01*
X378851Y196667D01*
X378185D01*
X377518Y196000D01*
Y194667D01*
X378185Y194001D01*
X379518D01*
X380184Y194667D01*
X426666Y332333D02*
X427333Y332999D01*
X428666D01*
X429332Y332333D01*
Y329667D01*
X428666Y329001D01*
X427333D01*
X426666Y329667D01*
X423334Y329001D02*
Y332999D01*
X425333Y331000D01*
X422668D01*
X459666Y338333D02*
X460333Y338999D01*
X461666D01*
X462332Y338333D01*
Y335667D01*
X461666Y335001D01*
X460333D01*
X459666Y335667D01*
X458333Y338333D02*
X457667Y338999D01*
X456334D01*
X455668Y338333D01*
Y337666D01*
X456334Y337000D01*
X457001D01*
X456334D01*
X455668Y336334D01*
Y335667D01*
X456334Y335001D01*
X457667D01*
X458333Y335667D01*
X459666Y332333D02*
X460333Y332999D01*
X461666D01*
X462332Y332333D01*
Y329667D01*
X461666Y329001D01*
X460333D01*
X459666Y329667D01*
X455668Y329001D02*
X458333D01*
X455668Y331666D01*
Y332333D01*
X456334Y332999D01*
X457667D01*
X458333Y332333D01*
X426000Y338333D02*
X426666Y338999D01*
X427999D01*
X428666Y338333D01*
Y335667D01*
X427999Y335001D01*
X426666D01*
X426000Y335667D01*
X424667Y335001D02*
X423334D01*
X424001D01*
Y338999D01*
X424667Y338333D01*
D15*
X353500Y334600D02*
Y338700D01*
X348500Y334600D02*
X353500D01*
X348500D02*
Y338800D01*
Y341300D02*
Y345400D01*
X353500D01*
Y341300D02*
Y345400D01*
X173450Y179500D02*
X177550D01*
Y184500D01*
X173450D02*
X177550D01*
X166750D02*
X170950D01*
X166750Y179500D02*
Y184500D01*
Y179500D02*
X170850D01*
X137500Y334600D02*
Y338700D01*
X132500Y334600D02*
X137500D01*
X132500D02*
Y338800D01*
Y341300D02*
Y345400D01*
X137500D01*
Y341300D02*
Y345400D01*
X173300Y185500D02*
X177400D01*
Y190500D01*
X173300D02*
X177400D01*
X166600D02*
X170800D01*
X166600Y185500D02*
Y190500D01*
Y185500D02*
X170700D01*
X400500Y334600D02*
Y338700D01*
X395500Y334600D02*
X400500D01*
X395500D02*
Y338800D01*
Y341300D02*
Y345400D01*
X400500D01*
Y341300D02*
Y345400D01*
X298500Y334600D02*
Y338700D01*
X293500Y334600D02*
X298500D01*
X293500D02*
Y338800D01*
Y341300D02*
Y345400D01*
X298500D01*
Y341300D02*
Y345400D01*
X154600Y190500D02*
X158700D01*
X154600Y185500D02*
Y190500D01*
Y185500D02*
X158700D01*
X161200D02*
X165400D01*
Y190500D01*
X161300D02*
X165400D01*
X286500Y334600D02*
Y338700D01*
X281500Y334600D02*
X286500D01*
X281500D02*
Y338800D01*
Y341300D02*
Y345400D01*
X286500D01*
Y341300D02*
Y345400D01*
X437300Y339500D02*
X441400D01*
Y334500D02*
Y339500D01*
X437200Y334500D02*
X441400D01*
X430600D02*
X434700D01*
X430600D02*
Y339500D01*
X434700D01*
X380500Y334600D02*
Y338700D01*
X375500Y334600D02*
X380500D01*
X375500D02*
Y338800D01*
Y341300D02*
Y345400D01*
X380500D01*
Y341300D02*
Y345400D01*
X177500Y334600D02*
Y338700D01*
X172500Y334600D02*
X177500D01*
X172500D02*
Y338800D01*
Y341300D02*
Y345400D01*
X177500D01*
Y341300D02*
Y345400D01*
X427450Y110500D02*
X431550D01*
X427450D02*
Y115500D01*
X431650D01*
X434150D02*
X438250D01*
Y110500D02*
Y115500D01*
X434150Y110500D02*
X438250D01*
X317500Y334600D02*
Y338700D01*
X312500Y334600D02*
X317500D01*
X312500D02*
Y338800D01*
Y341300D02*
Y345400D01*
X317500D01*
Y341300D02*
Y345400D01*
X202500Y334600D02*
Y338700D01*
X197500Y334600D02*
X202500D01*
X197500D02*
Y338800D01*
Y341300D02*
Y345400D01*
X202500D01*
Y341300D02*
Y345400D01*
X167500Y334600D02*
Y338700D01*
X162500Y334600D02*
X167500D01*
X162500D02*
Y338800D01*
Y341300D02*
Y345400D01*
X167500D01*
Y341300D02*
Y345400D01*
X437300Y333500D02*
X441400D01*
Y328500D02*
Y333500D01*
X437200Y328500D02*
X441400D01*
X430600D02*
X434700D01*
X430600D02*
Y333500D01*
X434700D01*
X422300Y108500D02*
X426400D01*
Y103500D02*
Y108500D01*
X422200Y103500D02*
X426400D01*
X415600D02*
X419700D01*
X415600D02*
Y108500D01*
X419700D01*
X242500Y334600D02*
Y338700D01*
X237500Y334600D02*
X242500D01*
X237500D02*
Y338800D01*
Y341300D02*
Y345400D01*
X242500D01*
Y341300D02*
Y345400D01*
X117500Y334600D02*
Y338700D01*
X112500Y334600D02*
X117500D01*
X112500D02*
Y338800D01*
Y341300D02*
Y345400D01*
X117500D01*
Y341300D02*
Y345400D01*
X147500Y334600D02*
Y338700D01*
X142500Y334600D02*
X147500D01*
X142500D02*
Y338800D01*
Y341300D02*
Y345400D01*
X147500D01*
Y341300D02*
Y345400D01*
X422300Y115500D02*
X426400D01*
Y110500D02*
Y115500D01*
X422200Y110500D02*
X426400D01*
X415600D02*
X419700D01*
X415600D02*
Y115500D01*
X419700D01*
X258500Y334600D02*
Y338700D01*
X253500Y334600D02*
X258500D01*
X253500D02*
Y338800D01*
Y341300D02*
Y345400D01*
X258500D01*
Y341300D02*
Y345400D01*
X387600Y198500D02*
X391700D01*
X387600Y193500D02*
Y198500D01*
Y193500D02*
X391700D01*
X394200D02*
X398400D01*
Y198500D01*
X394300D02*
X398400D01*
X406300Y199500D02*
X410400D01*
Y204500D01*
X406300D02*
X410400D01*
X399600D02*
X403800D01*
X399600Y199500D02*
Y204500D01*
Y199500D02*
X403700D01*
X442600Y334500D02*
X446700D01*
X442600D02*
Y339500D01*
X446800D01*
X449300D02*
X453400D01*
Y334500D02*
Y339500D01*
X449300Y334500D02*
X453400D01*
X442600Y328500D02*
X446700D01*
X442600D02*
Y333500D01*
X446800D01*
X449300D02*
X453400D01*
Y328500D02*
Y333500D01*
X449300Y328500D02*
X453400D01*
X157500Y334600D02*
Y338700D01*
X152500Y334600D02*
X157500D01*
X152500D02*
Y338800D01*
Y341300D02*
Y345400D01*
X157500D01*
Y341300D02*
Y345400D01*
X127500Y334600D02*
Y338700D01*
X122500Y334600D02*
X127500D01*
X122500D02*
Y338800D01*
Y341300D02*
Y345400D01*
X127500D01*
Y341300D02*
Y345400D01*
X214500Y334600D02*
Y338700D01*
X209500Y334600D02*
X214500D01*
X209500D02*
Y338800D01*
Y341300D02*
Y345400D01*
X214500D01*
Y341300D02*
Y345400D01*
X230500Y334600D02*
Y338700D01*
X225500Y334600D02*
X230500D01*
X225500D02*
Y338800D01*
Y341300D02*
Y345400D01*
X230500D01*
Y341300D02*
Y345400D01*
X427600Y103500D02*
X431700D01*
X427600D02*
Y108500D01*
X431800D01*
X434300D02*
X438400D01*
Y103500D02*
Y108500D01*
X434300Y103500D02*
X438400D01*
X270500Y334600D02*
Y338700D01*
X265500Y334600D02*
X270500D01*
X265500D02*
Y338800D01*
Y341300D02*
Y345400D01*
X270500D01*
Y341300D02*
Y345400D01*
X187500Y334600D02*
Y338700D01*
X182500Y334600D02*
X187500D01*
X182500D02*
Y338800D01*
Y341300D02*
Y345400D01*
X187500D01*
Y341300D02*
Y345400D01*
X387600Y204500D02*
X391700D01*
X387600Y199500D02*
Y204500D01*
Y199500D02*
X391700D01*
X394200D02*
X398400D01*
Y204500D01*
X394300D02*
X398400D01*
X406150Y193500D02*
X410250D01*
Y198500D01*
X406150D02*
X410250D01*
X399450D02*
X403650D01*
X399450Y193500D02*
Y198500D01*
Y193500D02*
X403550D01*
X341500Y334600D02*
Y338700D01*
X336500Y334600D02*
X341500D01*
X336500D02*
Y338800D01*
Y341300D02*
Y345400D01*
X341500D01*
Y341300D02*
Y345400D01*
X154600Y184500D02*
X158700D01*
X154600Y179500D02*
Y184500D01*
Y179500D02*
X158700D01*
X161200D02*
X165400D01*
Y184500D01*
X161300D02*
X165400D01*
M02*
