G04*
G04 #@! TF.GenerationSoftware,Altium Limited,Altium Designer,22.3.1 (43)*
G04*
G04 Layer_Color=255*
%FSLAX25Y25*%
%MOIN*%
G70*
G04*
G04 #@! TF.SameCoordinates,CC72978B-6F05-4AE3-AFEB-50B74E8C7AD0*
G04*
G04*
G04 #@! TF.FilePolarity,Positive*
G04*
G01*
G75*
%ADD26R,0.03150X0.03740*%
%ADD27R,0.03740X0.03150*%
%ADD61C,0.05906*%
%ADD62R,0.05906X0.05906*%
%ADD63C,0.06000*%
%ADD64R,0.06000X0.06000*%
%ADD65C,0.15354*%
%ADD66C,0.08000*%
%ADD67C,0.05906*%
%ADD68R,0.05906X0.05906*%
%ADD69R,0.05906X0.05906*%
%ADD70R,0.06000X0.06000*%
%ADD71C,0.03543*%
%ADD72R,0.05906X0.05906*%
%ADD73C,0.20000*%
D26*
X175299Y182000D02*
D03*
X169000D02*
D03*
X175150Y188000D02*
D03*
X168850D02*
D03*
X156850D02*
D03*
X163150D02*
D03*
X439150Y337000D02*
D03*
X432850D02*
D03*
X436000Y113000D02*
D03*
X429701D02*
D03*
X439150Y331000D02*
D03*
X432850D02*
D03*
X417850Y106000D02*
D03*
X424150D02*
D03*
X417850Y113000D02*
D03*
X424150D02*
D03*
X396150Y196000D02*
D03*
X389850D02*
D03*
X401850Y202000D02*
D03*
X408150D02*
D03*
X444850Y337000D02*
D03*
X451150D02*
D03*
X444850Y331000D02*
D03*
X451150D02*
D03*
X436150Y106000D02*
D03*
X429850D02*
D03*
X396150Y202000D02*
D03*
X389850D02*
D03*
X401701Y196000D02*
D03*
X408000D02*
D03*
X156850Y182000D02*
D03*
X163150D02*
D03*
D27*
X351000Y343150D02*
D03*
Y336850D02*
D03*
X135000Y343150D02*
D03*
Y336850D02*
D03*
X398000Y343150D02*
D03*
Y336850D02*
D03*
X296000Y343150D02*
D03*
Y336850D02*
D03*
X284000Y343150D02*
D03*
Y336850D02*
D03*
X378000Y343150D02*
D03*
Y336850D02*
D03*
X175000Y343150D02*
D03*
Y336850D02*
D03*
X315000Y343150D02*
D03*
Y336850D02*
D03*
X200000Y343150D02*
D03*
Y336850D02*
D03*
X165000Y343150D02*
D03*
Y336850D02*
D03*
X240000Y343150D02*
D03*
Y336850D02*
D03*
X115000Y343150D02*
D03*
Y336850D02*
D03*
X145000Y343150D02*
D03*
Y336850D02*
D03*
X256000Y343150D02*
D03*
Y336850D02*
D03*
X155000Y343150D02*
D03*
Y336850D02*
D03*
X125000Y343150D02*
D03*
Y336850D02*
D03*
X212000Y343150D02*
D03*
Y336850D02*
D03*
X228000Y343150D02*
D03*
Y336850D02*
D03*
X268000Y343150D02*
D03*
Y336850D02*
D03*
X185000Y343150D02*
D03*
Y336850D02*
D03*
X339000Y343150D02*
D03*
Y336850D02*
D03*
D61*
X500000Y42000D02*
D03*
X518000D02*
D03*
X395000Y12000D02*
D03*
X345000D02*
D03*
X385000D02*
D03*
X335000D02*
D03*
X375000D02*
D03*
X325000D02*
D03*
X365000D02*
D03*
X315000D02*
D03*
X355000D02*
D03*
X510000Y12000D02*
D03*
X460000D02*
D03*
X500000D02*
D03*
X450000D02*
D03*
X490000D02*
D03*
X440000D02*
D03*
X480000D02*
D03*
X430000D02*
D03*
X470000D02*
D03*
X456000Y124000D02*
D03*
Y114000D02*
D03*
Y104000D02*
D03*
Y94000D02*
D03*
X396000Y271000D02*
D03*
X446000D02*
D03*
X406000D02*
D03*
X456000D02*
D03*
X416000D02*
D03*
X466000D02*
D03*
X426000D02*
D03*
X476000D02*
D03*
X436000D02*
D03*
X486000Y252000D02*
D03*
X436000D02*
D03*
X476000D02*
D03*
X426000D02*
D03*
X466000D02*
D03*
X416000D02*
D03*
X456000D02*
D03*
X406000D02*
D03*
X446000D02*
D03*
X317000Y251000D02*
D03*
X267000D02*
D03*
X307000D02*
D03*
X257000D02*
D03*
X297000D02*
D03*
X247000D02*
D03*
X287000D02*
D03*
X237000D02*
D03*
X277000D02*
D03*
X468000Y99000D02*
D03*
Y109000D02*
D03*
Y119000D02*
D03*
Y129000D02*
D03*
D62*
X500000Y32000D02*
D03*
X518000D02*
D03*
X305000Y12000D02*
D03*
X420000Y12000D02*
D03*
X486000Y271000D02*
D03*
X396000Y252000D02*
D03*
X227000Y251000D02*
D03*
D63*
X80000Y190000D02*
D03*
X90000Y200000D02*
D03*
X80000Y180000D02*
D03*
Y170000D02*
D03*
Y160000D02*
D03*
Y150000D02*
D03*
X90000Y190000D02*
D03*
Y180000D02*
D03*
Y170000D02*
D03*
Y160000D02*
D03*
Y150000D02*
D03*
Y140000D02*
D03*
Y130000D02*
D03*
X80000Y140000D02*
D03*
Y130000D02*
D03*
X30000Y190000D02*
D03*
X40000Y200000D02*
D03*
X30000Y180000D02*
D03*
Y170000D02*
D03*
Y160000D02*
D03*
Y150000D02*
D03*
X40000Y190000D02*
D03*
Y180000D02*
D03*
Y170000D02*
D03*
Y160000D02*
D03*
Y150000D02*
D03*
Y140000D02*
D03*
Y130000D02*
D03*
X30000Y140000D02*
D03*
Y130000D02*
D03*
Y320000D02*
D03*
X40000Y330000D02*
D03*
X30000Y310000D02*
D03*
Y300000D02*
D03*
Y290000D02*
D03*
Y280000D02*
D03*
X40000Y320000D02*
D03*
Y310000D02*
D03*
Y300000D02*
D03*
Y290000D02*
D03*
Y280000D02*
D03*
Y270000D02*
D03*
Y260000D02*
D03*
X30000D02*
D03*
Y270000D02*
D03*
X80000Y260000D02*
D03*
Y270000D02*
D03*
X90000Y260000D02*
D03*
Y270000D02*
D03*
Y280000D02*
D03*
Y290000D02*
D03*
Y300000D02*
D03*
Y310000D02*
D03*
Y320000D02*
D03*
X80000Y280000D02*
D03*
Y290000D02*
D03*
Y300000D02*
D03*
Y310000D02*
D03*
X90000Y330000D02*
D03*
X80000Y320000D02*
D03*
X193000Y92000D02*
D03*
X203000D02*
D03*
X213000D02*
D03*
X223000D02*
D03*
X233000D02*
D03*
X243000D02*
D03*
X253000D02*
D03*
X263000D02*
D03*
X273000D02*
D03*
X283000D02*
D03*
X293000D02*
D03*
X303000D02*
D03*
X313000D02*
D03*
X323000D02*
D03*
X333000D02*
D03*
X343000D02*
D03*
X193000Y62000D02*
D03*
X203000D02*
D03*
X213000D02*
D03*
X223000D02*
D03*
X233000D02*
D03*
X243000D02*
D03*
X253000D02*
D03*
X263000D02*
D03*
X273000D02*
D03*
X283000D02*
D03*
X293000D02*
D03*
X303000D02*
D03*
X313000D02*
D03*
X323000D02*
D03*
X333000D02*
D03*
X343000D02*
D03*
X353000D02*
D03*
X363000D02*
D03*
X373000D02*
D03*
X203000Y32000D02*
D03*
X213000D02*
D03*
X223000D02*
D03*
X233000D02*
D03*
X243000D02*
D03*
X253000D02*
D03*
X263000D02*
D03*
X273000D02*
D03*
X283000D02*
D03*
X293000D02*
D03*
X303000D02*
D03*
X313000D02*
D03*
X323000D02*
D03*
X333000D02*
D03*
X343000D02*
D03*
X353000D02*
D03*
X363000D02*
D03*
X233000Y122000D02*
D03*
X243000D02*
D03*
X253000D02*
D03*
X263000D02*
D03*
X273000D02*
D03*
X283000D02*
D03*
X293000D02*
D03*
X313000D02*
D03*
X323000D02*
D03*
X333000D02*
D03*
X343000D02*
D03*
X363000D02*
D03*
X373000D02*
D03*
X383000D02*
D03*
X373000Y32000D02*
D03*
X223000Y122000D02*
D03*
X213000D02*
D03*
X203000D02*
D03*
X193000D02*
D03*
X383000Y32000D02*
D03*
X193000Y47000D02*
D03*
X203000D02*
D03*
X213000D02*
D03*
X223000D02*
D03*
X233000D02*
D03*
X243000D02*
D03*
X253000D02*
D03*
X263000D02*
D03*
X273000D02*
D03*
X283000D02*
D03*
X293000D02*
D03*
X303000D02*
D03*
X313000D02*
D03*
X323000D02*
D03*
X333000D02*
D03*
X343000D02*
D03*
X353000D02*
D03*
X363000D02*
D03*
X373000D02*
D03*
X383000D02*
D03*
X193000Y107000D02*
D03*
X203000D02*
D03*
X213000D02*
D03*
X223000D02*
D03*
X233000D02*
D03*
X243000D02*
D03*
X253000D02*
D03*
X263000D02*
D03*
X273000D02*
D03*
X283000D02*
D03*
X293000D02*
D03*
X303000D02*
D03*
X313000D02*
D03*
X323000D02*
D03*
X333000D02*
D03*
X343000D02*
D03*
X353000D02*
D03*
X363000D02*
D03*
X373000D02*
D03*
X383000D02*
D03*
X303000Y122000D02*
D03*
X353000D02*
D03*
X383000Y92000D02*
D03*
X373000D02*
D03*
X383000Y62000D02*
D03*
X353000Y92000D02*
D03*
X363000D02*
D03*
D64*
X80000Y200000D02*
D03*
X30000D02*
D03*
Y330000D02*
D03*
X80000D02*
D03*
D65*
X536929Y356378D02*
D03*
Y303622D02*
D03*
Y276378D02*
D03*
Y223622D02*
D03*
D66*
X551848Y144500D02*
D03*
Y172000D02*
D03*
D67*
X175000Y216000D02*
D03*
X165000D02*
D03*
X464000Y365000D02*
D03*
X454000D02*
D03*
X397000Y238000D02*
D03*
X407000D02*
D03*
X480000Y123000D02*
D03*
Y133000D02*
D03*
D68*
X185000Y216000D02*
D03*
X474000Y365000D02*
D03*
X417000Y238000D02*
D03*
D69*
X456000Y84000D02*
D03*
X468000Y89000D02*
D03*
D70*
X193000Y32000D02*
D03*
D71*
X540000Y85323D02*
D03*
Y68000D02*
D03*
D72*
X480000Y143000D02*
D03*
D73*
X540000Y380000D02*
D03*
X20000D02*
D03*
X540000Y20000D02*
D03*
X20000D02*
D03*
M02*
