G04*
G04 #@! TF.GenerationSoftware,Altium Limited,Altium Designer,22.3.1 (43)*
G04*
G04 Layer_Color=128*
%FSLAX25Y25*%
%MOIN*%
G70*
G04*
G04 #@! TF.SameCoordinates,A87CA661-C890-46F0-A320-74F5598AF3CC*
G04*
G04*
G04 #@! TF.FilePolarity,Positive*
G04*
G01*
G75*
%ADD20R,0.03150X0.03740*%
%ADD21R,0.03740X0.03150*%
%ADD31R,0.06004X0.02559*%
%ADD101R,0.05807X0.01772*%
D20*
X651850Y556000D02*
D03*
X658150D02*
D03*
X871850Y426000D02*
D03*
X878150D02*
D03*
Y556000D02*
D03*
X871850D02*
D03*
X678150D02*
D03*
X671850D02*
D03*
X858150Y166000D02*
D03*
X851850D02*
D03*
X758150Y426000D02*
D03*
X751850D02*
D03*
X758150Y296000D02*
D03*
X751850D02*
D03*
X858150D02*
D03*
X851850D02*
D03*
X858150Y556000D02*
D03*
X851850D02*
D03*
X878150Y166000D02*
D03*
X871850D02*
D03*
X658150Y426000D02*
D03*
X651850D02*
D03*
X778150Y296000D02*
D03*
X771850D02*
D03*
X878150D02*
D03*
X871850D02*
D03*
X758150Y556000D02*
D03*
X751850D02*
D03*
X758150Y166000D02*
D03*
X751850D02*
D03*
X778150Y426000D02*
D03*
X771850D02*
D03*
X678150Y166000D02*
D03*
X671850D02*
D03*
X778150D02*
D03*
X771850D02*
D03*
X678150Y426000D02*
D03*
X671850D02*
D03*
X658150Y166000D02*
D03*
X651850D02*
D03*
X678150Y296000D02*
D03*
X671850D02*
D03*
X778150Y556000D02*
D03*
X771850D02*
D03*
X858150Y426000D02*
D03*
X851850D02*
D03*
X658150Y296000D02*
D03*
X651850D02*
D03*
X364850Y114000D02*
D03*
X371150D02*
D03*
X88150Y410000D02*
D03*
X81850D02*
D03*
X121850Y80000D02*
D03*
X128150D02*
D03*
X121850Y86000D02*
D03*
X128150D02*
D03*
X364850Y120000D02*
D03*
X371150D02*
D03*
X116150Y86000D02*
D03*
X109850D02*
D03*
X121850Y74000D02*
D03*
X128150D02*
D03*
X116150D02*
D03*
X109850D02*
D03*
X158150Y410000D02*
D03*
X151850D02*
D03*
X116150Y80000D02*
D03*
X109850D02*
D03*
X383150Y114000D02*
D03*
X376850D02*
D03*
X228150Y410000D02*
D03*
X221850D02*
D03*
X383150Y120000D02*
D03*
X376850D02*
D03*
X351150Y410000D02*
D03*
X344850D02*
D03*
D21*
X66000Y28150D02*
D03*
Y21850D02*
D03*
X59000Y28150D02*
D03*
Y21850D02*
D03*
X73000Y28150D02*
D03*
Y21850D02*
D03*
X223500Y245150D02*
D03*
Y238850D02*
D03*
X399000Y476850D02*
D03*
Y483150D02*
D03*
X390500Y476850D02*
D03*
Y483150D02*
D03*
X131000Y148150D02*
D03*
Y141850D02*
D03*
X90000Y148150D02*
D03*
Y141850D02*
D03*
X106000Y148150D02*
D03*
Y141850D02*
D03*
X115000Y148150D02*
D03*
Y141850D02*
D03*
X140000Y148150D02*
D03*
Y141850D02*
D03*
X129000Y234850D02*
D03*
Y241150D02*
D03*
X288500Y476850D02*
D03*
Y483150D02*
D03*
X297000Y476850D02*
D03*
Y483150D02*
D03*
X314000Y476850D02*
D03*
Y483150D02*
D03*
X384500Y316850D02*
D03*
Y323150D02*
D03*
X410000Y316850D02*
D03*
Y323150D02*
D03*
X401500Y316850D02*
D03*
Y323150D02*
D03*
X393000Y316850D02*
D03*
Y323150D02*
D03*
X376000Y316850D02*
D03*
Y323150D02*
D03*
X435500Y316850D02*
D03*
Y323150D02*
D03*
X444000Y316850D02*
D03*
Y323150D02*
D03*
X452500Y316850D02*
D03*
Y323150D02*
D03*
X461000Y316850D02*
D03*
Y323150D02*
D03*
X469500Y316850D02*
D03*
Y323150D02*
D03*
X486500Y316850D02*
D03*
Y323150D02*
D03*
X478000Y316850D02*
D03*
Y323150D02*
D03*
X495000Y316850D02*
D03*
Y323150D02*
D03*
X418500Y316850D02*
D03*
Y323150D02*
D03*
X427000Y316850D02*
D03*
Y323150D02*
D03*
X297000Y452850D02*
D03*
Y459150D02*
D03*
X331000Y483150D02*
D03*
Y476850D02*
D03*
X60000Y483150D02*
D03*
Y476850D02*
D03*
X280000Y483150D02*
D03*
Y476850D02*
D03*
X314000Y459150D02*
D03*
Y452850D02*
D03*
X382000Y483150D02*
D03*
Y476850D02*
D03*
X348000Y483150D02*
D03*
Y476850D02*
D03*
X305500Y483150D02*
D03*
Y476850D02*
D03*
Y459150D02*
D03*
Y452850D02*
D03*
X288500Y459150D02*
D03*
Y452850D02*
D03*
X77000Y483150D02*
D03*
Y476850D02*
D03*
X68500Y483150D02*
D03*
Y476850D02*
D03*
X94000Y483150D02*
D03*
Y476850D02*
D03*
X85500Y483150D02*
D03*
Y476850D02*
D03*
X373500Y483150D02*
D03*
Y476850D02*
D03*
X280000Y459150D02*
D03*
Y452850D02*
D03*
X356500Y483150D02*
D03*
Y476850D02*
D03*
X365000Y483150D02*
D03*
Y476850D02*
D03*
X339500Y483150D02*
D03*
Y476850D02*
D03*
X322500Y483150D02*
D03*
Y476850D02*
D03*
X145000Y483150D02*
D03*
Y476850D02*
D03*
X153500Y483150D02*
D03*
Y476850D02*
D03*
X136500Y483150D02*
D03*
Y476850D02*
D03*
X204500Y483150D02*
D03*
Y476850D02*
D03*
X238500Y483150D02*
D03*
Y476850D02*
D03*
X111000Y483150D02*
D03*
Y476850D02*
D03*
X119500Y483150D02*
D03*
Y476850D02*
D03*
X187500Y483150D02*
D03*
Y476850D02*
D03*
X179000Y483150D02*
D03*
Y476850D02*
D03*
X255500Y483150D02*
D03*
Y476850D02*
D03*
X162000Y483150D02*
D03*
Y476850D02*
D03*
X102500Y483150D02*
D03*
Y476850D02*
D03*
X247000Y483150D02*
D03*
Y476850D02*
D03*
X213000Y483150D02*
D03*
Y476850D02*
D03*
X170500Y483150D02*
D03*
Y476850D02*
D03*
X128000Y483150D02*
D03*
Y476850D02*
D03*
X230000Y483150D02*
D03*
Y476850D02*
D03*
X221500Y483150D02*
D03*
Y476850D02*
D03*
X264000Y483150D02*
D03*
Y476850D02*
D03*
X33000Y105150D02*
D03*
Y98850D02*
D03*
D31*
X199677Y52000D02*
D03*
Y57000D02*
D03*
Y62000D02*
D03*
Y67000D02*
D03*
Y72000D02*
D03*
Y77000D02*
D03*
Y82000D02*
D03*
X178323D02*
D03*
Y77000D02*
D03*
Y72000D02*
D03*
Y67000D02*
D03*
Y62000D02*
D03*
Y57000D02*
D03*
Y52000D02*
D03*
D101*
X105433Y20323D02*
D03*
Y22882D02*
D03*
Y25441D02*
D03*
Y28000D02*
D03*
Y30559D02*
D03*
Y33118D02*
D03*
Y35677D02*
D03*
X128567D02*
D03*
Y33118D02*
D03*
Y30559D02*
D03*
Y28000D02*
D03*
Y25441D02*
D03*
Y22882D02*
D03*
Y20323D02*
D03*
M02*
