G04*
G04 #@! TF.GenerationSoftware,Altium Limited,Altium Designer,22.3.1 (43)*
G04*
G04 Layer_Color=32768*
%FSLAX25Y25*%
%MOIN*%
G70*
G04*
G04 #@! TF.SameCoordinates,A87CA661-C890-46F0-A320-74F5598AF3CC*
G04*
G04*
G04 #@! TF.FilePolarity,Positive*
G04*
G01*
G75*
%ADD10C,0.00394*%
%ADD12C,0.02500*%
%ADD14C,0.00787*%
%ADD103C,0.00197*%
%ADD104C,0.00100*%
D10*
X40000Y557000D02*
X150000D01*
Y592500D01*
X40000D02*
X150000D01*
X40000Y557000D02*
Y592500D01*
X160000Y557000D02*
X270000D01*
Y592500D01*
X160000D02*
X270000D01*
X160000Y557000D02*
Y592500D01*
X280000Y557000D02*
X390000D01*
Y592500D01*
X280000D02*
X390000D01*
X280000Y557000D02*
Y592500D01*
X400000Y557000D02*
X510000D01*
Y592500D01*
X400000D02*
X510000D01*
X400000Y557000D02*
Y592500D01*
X683000Y440000D02*
Y550000D01*
X647500D02*
X683000D01*
X647500Y440000D02*
Y550000D01*
Y440000D02*
X683000D01*
Y310000D02*
Y420000D01*
X647500D02*
X683000D01*
X647500Y310000D02*
Y420000D01*
Y310000D02*
X683000D01*
Y180000D02*
Y290000D01*
X647500D02*
X683000D01*
X647500Y180000D02*
Y290000D01*
Y180000D02*
X683000D01*
Y50000D02*
Y160000D01*
X647500D02*
X683000D01*
X647500Y50000D02*
Y160000D01*
Y50000D02*
X683000D01*
X783000Y440000D02*
Y550000D01*
X747500D02*
X783000D01*
X747500Y440000D02*
Y550000D01*
Y440000D02*
X783000D01*
X783000Y310000D02*
Y420000D01*
X747500D02*
X783000D01*
X747500Y310000D02*
Y420000D01*
Y310000D02*
X783000D01*
Y180000D02*
Y290000D01*
X747500D02*
X783000D01*
X747500Y180000D02*
Y290000D01*
Y180000D02*
X783000D01*
Y50000D02*
Y160000D01*
X747500D02*
X783000D01*
X747500Y50000D02*
Y160000D01*
Y50000D02*
X783000D01*
X883000Y440000D02*
Y550000D01*
X847500D02*
X883000D01*
X847500Y440000D02*
Y550000D01*
Y440000D02*
X883000D01*
Y310000D02*
Y420000D01*
X847500D02*
X883000D01*
X847500Y310000D02*
Y420000D01*
Y310000D02*
X883000D01*
Y180000D02*
Y290000D01*
X847500D02*
X883000D01*
X847500Y180000D02*
Y290000D01*
Y180000D02*
X883000D01*
Y50000D02*
Y160000D01*
X847500D02*
X883000D01*
X847500Y50000D02*
Y160000D01*
Y50000D02*
X883000D01*
X453000Y20500D02*
X563000D01*
Y56000D01*
X453000D02*
X563000D01*
X453000Y20500D02*
Y56000D01*
X318850Y54575D02*
X325150D01*
Y51425D02*
Y54575D01*
X318850Y51425D02*
X325150D01*
X318850D02*
Y54575D01*
X345575Y31850D02*
Y38150D01*
X342425Y31850D02*
X345575D01*
X342425D02*
Y38150D01*
X345575D01*
X318850Y47575D02*
X325150D01*
Y44425D02*
Y47575D01*
X318850Y44425D02*
X325150D01*
X318850D02*
Y47575D01*
Y61575D02*
X325150D01*
Y58425D02*
Y61575D01*
X318850Y58425D02*
X325150D01*
X318850D02*
Y61575D01*
X357575Y31850D02*
Y38150D01*
X354425Y31850D02*
X357575D01*
X354425D02*
Y38150D01*
X357575D01*
X351575Y31850D02*
Y38150D01*
X348425Y31850D02*
X351575D01*
X348425D02*
Y38150D01*
X351575D01*
X64425Y21850D02*
X67575D01*
X64425D02*
Y28150D01*
X67575D01*
Y21850D02*
Y28150D01*
X57425Y21850D02*
X60575D01*
X57425D02*
Y28150D01*
X60575D01*
Y21850D02*
Y28150D01*
X71425Y21850D02*
X74575D01*
X71425D02*
Y28150D01*
X74575D01*
Y21850D02*
Y28150D01*
X108339Y18158D02*
X125661D01*
Y37843D01*
X108339D02*
X125661D01*
X108339Y18158D02*
Y37843D01*
Y20717D02*
X110898Y18158D01*
X7425Y53150D02*
X10575D01*
X7425Y46850D02*
Y53150D01*
Y46850D02*
X10575D01*
Y53150D01*
X7425Y63850D02*
X10575D01*
Y70150D01*
X7425D02*
X10575D01*
X7425Y63850D02*
Y70150D01*
X14284Y78142D02*
X49716D01*
Y45858D02*
Y78142D01*
X14284Y45858D02*
X49716D01*
X14284D02*
Y78142D01*
X181323Y54972D02*
X186323Y49972D01*
X181323D02*
Y84028D01*
X196677D01*
Y49972D02*
Y84028D01*
X181323Y49972D02*
X196677D01*
X104643Y204701D02*
X134195D01*
X104643D02*
Y275299D01*
X134195D01*
Y204701D02*
Y275299D01*
X129194Y204701D02*
X134195Y209701D01*
X100315Y97535D02*
X103465Y100685D01*
X100315Y61315D02*
Y100685D01*
Y61315D02*
X139685D01*
Y100685D01*
X100315D02*
X139685D01*
X736850Y167575D02*
X743150D01*
Y164425D02*
Y167575D01*
X736850Y164425D02*
X743150D01*
X736850D02*
Y167575D01*
X221925Y238850D02*
Y245150D01*
Y238850D02*
X225075D01*
Y245150D01*
X221925D02*
X225075D01*
X281323Y149028D02*
X296677D01*
Y114972D02*
Y149028D01*
X281323Y114972D02*
X296677D01*
X281323D02*
Y149028D01*
Y144028D02*
X286323Y149028D01*
X149425Y348850D02*
Y355150D01*
X152575D01*
Y348850D02*
Y355150D01*
X149425Y348850D02*
X152575D01*
X341351Y81350D02*
X406650D01*
X341351D02*
Y146650D01*
X406650D01*
Y81350D02*
Y146650D01*
X591032Y44500D02*
X594969D01*
X593000Y42531D02*
Y46468D01*
X337567Y421614D02*
X340126Y424173D01*
X337567Y395827D02*
Y424173D01*
Y395827D02*
X358433D01*
Y424173D01*
X337567D02*
X358433D01*
X836850Y563575D02*
X843150D01*
Y560425D02*
Y563575D01*
X836850Y560425D02*
X843150D01*
X836850D02*
Y563575D01*
X421575Y472850D02*
Y479150D01*
X418425Y472850D02*
X421575D01*
X418425D02*
Y479150D01*
X421575D01*
X413575Y472850D02*
Y479150D01*
X410425Y472850D02*
X413575D01*
X410425D02*
Y479150D01*
X413575D01*
X400575Y476850D02*
Y483150D01*
X397425D02*
X400575D01*
X397425Y476850D02*
Y483150D01*
Y476850D02*
X400575D01*
X392075D02*
Y483150D01*
X388925D02*
X392075D01*
X388925Y476850D02*
Y483150D01*
Y476850D02*
X392075D01*
X132575Y141850D02*
Y148150D01*
X129425D02*
X132575D01*
X129425Y141850D02*
Y148150D01*
Y141850D02*
X132575D01*
X91575Y141850D02*
Y148150D01*
X88425D02*
X91575D01*
X88425Y141850D02*
Y148150D01*
Y141850D02*
X91575D01*
X107575D02*
Y148150D01*
X104425D02*
X107575D01*
X104425Y141850D02*
Y148150D01*
Y141850D02*
X107575D01*
X116575D02*
Y148150D01*
X113425D02*
X116575D01*
X113425Y141850D02*
Y148150D01*
Y141850D02*
X116575D01*
X141575D02*
Y148150D01*
X138425D02*
X141575D01*
X138425Y141850D02*
Y148150D01*
Y141850D02*
X141575D01*
X217067Y421614D02*
X219626Y424173D01*
X217067Y395827D02*
Y424173D01*
Y395827D02*
X237933D01*
Y424173D01*
X217067D02*
X237933D01*
X836850Y433575D02*
X843150D01*
Y430425D02*
Y433575D01*
X836850Y430425D02*
X843150D01*
X836850D02*
Y433575D01*
X651850Y554425D02*
X658150D01*
Y557575D01*
X651850D02*
X658150D01*
X651850Y554425D02*
Y557575D01*
X836850Y297575D02*
X843150D01*
Y294425D02*
Y297575D01*
X836850Y294425D02*
X843150D01*
X836850D02*
Y297575D01*
X636850Y167575D02*
X643150D01*
Y164425D02*
Y167575D01*
X636850Y164425D02*
X643150D01*
X636850D02*
Y167575D01*
X836850D02*
X843150D01*
Y164425D02*
Y167575D01*
X836850Y164425D02*
X843150D01*
X836850D02*
Y167575D01*
Y303575D02*
X843150D01*
Y300425D02*
Y303575D01*
X836850Y300425D02*
X843150D01*
X836850D02*
Y303575D01*
X636850Y173575D02*
X643150D01*
Y170425D02*
Y173575D01*
X636850Y170425D02*
X643150D01*
X636850D02*
Y173575D01*
X736850D02*
X743150D01*
Y170425D02*
Y173575D01*
X736850Y170425D02*
X743150D01*
X736850D02*
Y173575D01*
X836850D02*
X843150D01*
Y170425D02*
Y173575D01*
X836850Y170425D02*
X843150D01*
X836850D02*
Y173575D01*
X871850Y424425D02*
X878150D01*
Y427575D01*
X871850D02*
X878150D01*
X871850Y424425D02*
Y427575D01*
X127425Y234850D02*
X130575D01*
X127425D02*
Y241150D01*
X130575D01*
Y234850D02*
Y241150D01*
X157850Y92425D02*
X164150D01*
X157850D02*
Y95575D01*
X164150D01*
Y92425D02*
Y95575D01*
X423575Y44850D02*
Y51150D01*
X420425Y44850D02*
X423575D01*
X420425D02*
Y51150D01*
X423575D01*
X471575Y501850D02*
Y508150D01*
X468425Y501850D02*
X471575D01*
X468425D02*
Y508150D01*
X471575D01*
X461575Y501850D02*
Y508150D01*
X458425Y501850D02*
X461575D01*
X458425D02*
Y508150D01*
X461575D01*
X451575Y501850D02*
Y508150D01*
X448425Y501850D02*
X451575D01*
X448425D02*
Y508150D01*
X451575D01*
X441575Y501850D02*
Y508150D01*
X438425Y501850D02*
X441575D01*
X438425D02*
Y508150D01*
X441575D01*
X431575Y501850D02*
Y508150D01*
X428425Y501850D02*
X431575D01*
X428425D02*
Y508150D01*
X431575D01*
X421575Y501850D02*
Y508150D01*
X418425Y501850D02*
X421575D01*
X418425D02*
Y508150D01*
X421575D01*
X290075Y476850D02*
Y483150D01*
X286925D02*
X290075D01*
X286925Y476850D02*
Y483150D01*
Y476850D02*
X290075D01*
X298575D02*
Y483150D01*
X295425D02*
X298575D01*
X295425Y476850D02*
Y483150D01*
Y476850D02*
X298575D01*
X315575D02*
Y483150D01*
X312425D02*
X315575D01*
X312425Y476850D02*
Y483150D01*
Y476850D02*
X315575D01*
X386075Y316850D02*
Y323150D01*
X382925D02*
X386075D01*
X382925Y316850D02*
Y323150D01*
Y316850D02*
X386075D01*
X411575D02*
Y323150D01*
X408425D02*
X411575D01*
X408425Y316850D02*
Y323150D01*
Y316850D02*
X411575D01*
X403075D02*
Y323150D01*
X399925D02*
X403075D01*
X399925Y316850D02*
Y323150D01*
Y316850D02*
X403075D01*
X394575D02*
Y323150D01*
X391425D02*
X394575D01*
X391425Y316850D02*
Y323150D01*
Y316850D02*
X394575D01*
X377575D02*
Y323150D01*
X374425D02*
X377575D01*
X374425Y316850D02*
Y323150D01*
Y316850D02*
X377575D01*
X437075D02*
Y323150D01*
X433925D02*
X437075D01*
X433925Y316850D02*
Y323150D01*
Y316850D02*
X437075D01*
X445575D02*
Y323150D01*
X442425D02*
X445575D01*
X442425Y316850D02*
Y323150D01*
Y316850D02*
X445575D01*
X454075D02*
Y323150D01*
X450925D02*
X454075D01*
X450925Y316850D02*
Y323150D01*
Y316850D02*
X454075D01*
X462575D02*
Y323150D01*
X459425D02*
X462575D01*
X459425Y316850D02*
Y323150D01*
Y316850D02*
X462575D01*
X471075D02*
Y323150D01*
X467925D02*
X471075D01*
X467925Y316850D02*
Y323150D01*
Y316850D02*
X471075D01*
X488075D02*
Y323150D01*
X484925D02*
X488075D01*
X484925Y316850D02*
Y323150D01*
Y316850D02*
X488075D01*
X479575D02*
Y323150D01*
X476425D02*
X479575D01*
X476425Y316850D02*
Y323150D01*
Y316850D02*
X479575D01*
X496575D02*
Y323150D01*
X493425D02*
X496575D01*
X493425Y316850D02*
Y323150D01*
Y316850D02*
X496575D01*
X420075D02*
Y323150D01*
X416925D02*
X420075D01*
X416925Y316850D02*
Y323150D01*
Y316850D02*
X420075D01*
X428575D02*
Y323150D01*
X425425D02*
X428575D01*
X425425Y316850D02*
Y323150D01*
Y316850D02*
X428575D01*
X298575Y452850D02*
Y459150D01*
X295425D02*
X298575D01*
X295425Y452850D02*
Y459150D01*
Y452850D02*
X298575D01*
X7925Y131850D02*
Y138150D01*
X11075D01*
Y131850D02*
Y138150D01*
X7925Y131850D02*
X11075D01*
X21425Y370850D02*
Y377150D01*
X24575D01*
Y370850D02*
Y377150D01*
X21425Y370850D02*
X24575D01*
X421850Y240425D02*
Y243575D01*
Y240425D02*
X428150D01*
Y243575D01*
X421850D02*
X428150D01*
X421850Y228425D02*
Y231575D01*
Y228425D02*
X428150D01*
Y231575D01*
X421850D02*
X428150D01*
X421850Y222425D02*
Y225575D01*
Y222425D02*
X428150D01*
Y225575D01*
X421850D02*
X428150D01*
X421850Y216425D02*
Y219575D01*
Y216425D02*
X428150D01*
Y219575D01*
X421850D02*
X428150D01*
X421850Y210425D02*
Y213575D01*
Y210425D02*
X428150D01*
Y213575D01*
X421850D02*
X428150D01*
X421850Y204425D02*
Y207575D01*
Y204425D02*
X428150D01*
Y207575D01*
X421850D02*
X428150D01*
X421850Y198425D02*
Y201575D01*
Y198425D02*
X428150D01*
Y201575D01*
X421850D02*
X428150D01*
X636850Y554425D02*
Y557575D01*
Y554425D02*
X643150D01*
Y557575D01*
X636850D02*
X643150D01*
X636850Y294425D02*
Y297575D01*
Y294425D02*
X643150D01*
Y297575D01*
X636850D02*
X643150D01*
X736850Y424425D02*
Y427575D01*
Y424425D02*
X743150D01*
Y427575D01*
X736850D02*
X743150D01*
X736850Y294425D02*
Y297575D01*
Y294425D02*
X743150D01*
Y297575D01*
X736850D02*
X743150D01*
X736850Y554425D02*
Y557575D01*
Y554425D02*
X743150D01*
Y557575D01*
X736850D02*
X743150D01*
X836850Y424425D02*
Y427575D01*
Y424425D02*
X843150D01*
Y427575D01*
X836850D02*
X843150D01*
X636850Y424425D02*
Y427575D01*
Y424425D02*
X643150D01*
Y427575D01*
X636850D02*
X643150D01*
X836850Y554425D02*
Y557575D01*
Y554425D02*
X843150D01*
Y557575D01*
X836850D02*
X843150D01*
X329425Y476850D02*
X332575D01*
X329425D02*
Y483150D01*
X332575D01*
Y476850D02*
Y483150D01*
X58425D02*
X61575D01*
Y476850D02*
Y483150D01*
X58425Y476850D02*
X61575D01*
X58425D02*
Y483150D01*
X278425Y476850D02*
X281575D01*
X278425D02*
Y483150D01*
X281575D01*
Y476850D02*
Y483150D01*
X312425Y452850D02*
X315575D01*
X312425D02*
Y459150D01*
X315575D01*
Y452850D02*
Y459150D01*
X380425Y476850D02*
X383575D01*
X380425D02*
Y483150D01*
X383575D01*
Y476850D02*
Y483150D01*
X346425Y476850D02*
X349575D01*
X346425D02*
Y483150D01*
X349575D01*
Y476850D02*
Y483150D01*
X303925Y476850D02*
X307075D01*
X303925D02*
Y483150D01*
X307075D01*
Y476850D02*
Y483150D01*
X303925Y452850D02*
X307075D01*
X303925D02*
Y459150D01*
X307075D01*
Y452850D02*
Y459150D01*
X286925Y452850D02*
X290075D01*
X286925D02*
Y459150D01*
X290075D01*
Y452850D02*
Y459150D01*
X75425Y483150D02*
X78575D01*
Y476850D02*
Y483150D01*
X75425Y476850D02*
X78575D01*
X75425D02*
Y483150D01*
X66925D02*
X70075D01*
Y476850D02*
Y483150D01*
X66925Y476850D02*
X70075D01*
X66925D02*
Y483150D01*
X92425D02*
X95575D01*
Y476850D02*
Y483150D01*
X92425Y476850D02*
X95575D01*
X92425D02*
Y483150D01*
X83925D02*
X87075D01*
Y476850D02*
Y483150D01*
X83925Y476850D02*
X87075D01*
X83925D02*
Y483150D01*
X371925Y476850D02*
X375075D01*
X371925D02*
Y483150D01*
X375075D01*
Y476850D02*
Y483150D01*
X278425Y452850D02*
X281575D01*
X278425D02*
Y459150D01*
X281575D01*
Y452850D02*
Y459150D01*
X354925Y476850D02*
X358075D01*
X354925D02*
Y483150D01*
X358075D01*
Y476850D02*
Y483150D01*
X363425Y476850D02*
X366575D01*
X363425D02*
Y483150D01*
X366575D01*
Y476850D02*
Y483150D01*
X337925Y476850D02*
X341075D01*
X337925D02*
Y483150D01*
X341075D01*
Y476850D02*
Y483150D01*
X320925Y476850D02*
X324075D01*
X320925D02*
Y483150D01*
X324075D01*
Y476850D02*
Y483150D01*
X506850Y214425D02*
Y217575D01*
Y214425D02*
X513150D01*
Y217575D01*
X506850D02*
X513150D01*
X531425Y100150D02*
X534575D01*
X531425Y93850D02*
Y100150D01*
Y93850D02*
X534575D01*
Y100150D01*
X421850Y234425D02*
Y237575D01*
Y234425D02*
X428150D01*
Y237575D01*
X421850D02*
X428150D01*
X455425Y255150D02*
X458575D01*
X455425Y248850D02*
Y255150D01*
Y248850D02*
X458575D01*
Y255150D01*
X479425Y248850D02*
X482575D01*
Y255150D01*
X479425D02*
X482575D01*
X479425Y248850D02*
Y255150D01*
X491425Y100150D02*
X494575D01*
X491425Y93850D02*
Y100150D01*
Y93850D02*
X494575D01*
Y100150D01*
X511425D02*
X514575D01*
X511425Y93850D02*
Y100150D01*
Y93850D02*
X514575D01*
Y100150D01*
X541425D02*
X544575D01*
X541425Y93850D02*
Y100150D01*
Y93850D02*
X544575D01*
Y100150D01*
X506850Y226425D02*
Y229575D01*
Y226425D02*
X513150D01*
Y229575D01*
X506850D02*
X513150D01*
X461425Y255150D02*
X464575D01*
X461425Y248850D02*
Y255150D01*
Y248850D02*
X464575D01*
Y255150D01*
X458425Y185850D02*
X461575D01*
Y192150D01*
X458425D02*
X461575D01*
X458425Y185850D02*
Y192150D01*
X471425Y100150D02*
X474575D01*
X471425Y93850D02*
Y100150D01*
Y93850D02*
X474575D01*
Y100150D01*
X485425Y248850D02*
X488575D01*
Y255150D01*
X485425D02*
X488575D01*
X485425Y248850D02*
Y255150D01*
X481425Y100150D02*
X484575D01*
X481425Y93850D02*
Y100150D01*
Y93850D02*
X484575D01*
Y100150D01*
X501425D02*
X504575D01*
X501425Y93850D02*
Y100150D01*
Y93850D02*
X504575D01*
Y100150D01*
X473425Y248850D02*
X476575D01*
Y255150D01*
X473425D02*
X476575D01*
X473425Y248850D02*
Y255150D01*
X521425Y100150D02*
X524575D01*
X521425Y93850D02*
Y100150D01*
Y93850D02*
X524575D01*
Y100150D01*
X506850Y232425D02*
Y235575D01*
Y232425D02*
X513150D01*
Y235575D01*
X506850D02*
X513150D01*
X506850Y220425D02*
Y223575D01*
Y220425D02*
X513150D01*
Y223575D01*
X506850D02*
X513150D01*
X410425Y51150D02*
X413575D01*
X410425Y44850D02*
Y51150D01*
Y44850D02*
X413575D01*
Y51150D01*
X378425D02*
X381575D01*
X378425Y44850D02*
Y51150D01*
Y44850D02*
X381575D01*
Y51150D01*
X426925Y44850D02*
X430075D01*
Y51150D01*
X426925D02*
X430075D01*
X426925Y44850D02*
Y51150D01*
X398425D02*
X401575D01*
X398425Y44850D02*
Y51150D01*
Y44850D02*
X401575D01*
Y51150D01*
X143425Y483150D02*
X146575D01*
Y476850D02*
Y483150D01*
X143425Y476850D02*
X146575D01*
X143425D02*
Y483150D01*
X871850Y554425D02*
Y557575D01*
X878150D01*
Y554425D02*
Y557575D01*
X871850Y554425D02*
X878150D01*
X151925Y483150D02*
X155075D01*
Y476850D02*
Y483150D01*
X151925Y476850D02*
X155075D01*
X151925D02*
Y483150D01*
X134925D02*
X138075D01*
Y476850D02*
Y483150D01*
X134925Y476850D02*
X138075D01*
X134925D02*
Y483150D01*
X671850Y554425D02*
Y557575D01*
X678150D01*
Y554425D02*
Y557575D01*
X671850Y554425D02*
X678150D01*
X202925Y476850D02*
X206075D01*
X202925D02*
Y483150D01*
X206075D01*
Y476850D02*
Y483150D01*
X236925Y476850D02*
X240075D01*
X236925D02*
Y483150D01*
X240075D01*
Y476850D02*
Y483150D01*
X851850Y164425D02*
Y167575D01*
X858150D01*
Y164425D02*
Y167575D01*
X851850Y164425D02*
X858150D01*
X751850Y424425D02*
Y427575D01*
X758150D01*
Y424425D02*
Y427575D01*
X751850Y424425D02*
X758150D01*
X751850Y294425D02*
Y297575D01*
X758150D01*
Y294425D02*
Y297575D01*
X751850Y294425D02*
X758150D01*
X109425Y483150D02*
X112575D01*
Y476850D02*
Y483150D01*
X109425Y476850D02*
X112575D01*
X109425D02*
Y483150D01*
X117925D02*
X121075D01*
Y476850D02*
Y483150D01*
X117925Y476850D02*
X121075D01*
X117925D02*
Y483150D01*
X851850Y294425D02*
Y297575D01*
X858150D01*
Y294425D02*
Y297575D01*
X851850Y294425D02*
X858150D01*
X185925Y483150D02*
X189075D01*
Y476850D02*
Y483150D01*
X185925Y476850D02*
X189075D01*
X185925D02*
Y483150D01*
X177425D02*
X180575D01*
Y476850D02*
Y483150D01*
X177425Y476850D02*
X180575D01*
X177425D02*
Y483150D01*
X851850Y554425D02*
Y557575D01*
X858150D01*
Y554425D02*
Y557575D01*
X851850Y554425D02*
X858150D01*
X253925Y476850D02*
X257075D01*
X253925D02*
Y483150D01*
X257075D01*
Y476850D02*
Y483150D01*
X160425D02*
X163575D01*
Y476850D02*
Y483150D01*
X160425Y476850D02*
X163575D01*
X160425D02*
Y483150D01*
X871850Y164425D02*
Y167575D01*
X878150D01*
Y164425D02*
Y167575D01*
X871850Y164425D02*
X878150D01*
X651850Y424425D02*
Y427575D01*
X658150D01*
Y424425D02*
Y427575D01*
X651850Y424425D02*
X658150D01*
X100925Y483150D02*
X104075D01*
Y476850D02*
Y483150D01*
X100925Y476850D02*
X104075D01*
X100925D02*
Y483150D01*
X245425Y476850D02*
X248575D01*
X245425D02*
Y483150D01*
X248575D01*
Y476850D02*
Y483150D01*
X211425Y476850D02*
X214575D01*
X211425D02*
Y483150D01*
X214575D01*
Y476850D02*
Y483150D01*
X771850Y294425D02*
Y297575D01*
X778150D01*
Y294425D02*
Y297575D01*
X771850Y294425D02*
X778150D01*
X168925Y483150D02*
X172075D01*
Y476850D02*
Y483150D01*
X168925Y476850D02*
X172075D01*
X168925D02*
Y483150D01*
X871850Y294425D02*
Y297575D01*
X878150D01*
Y294425D02*
Y297575D01*
X871850Y294425D02*
X878150D01*
X751850Y554425D02*
Y557575D01*
X758150D01*
Y554425D02*
Y557575D01*
X751850Y554425D02*
X758150D01*
X751850Y164425D02*
Y167575D01*
X758150D01*
Y164425D02*
Y167575D01*
X751850Y164425D02*
X758150D01*
X771850Y424425D02*
Y427575D01*
X778150D01*
Y424425D02*
Y427575D01*
X771850Y424425D02*
X778150D01*
X671850Y164425D02*
Y167575D01*
X678150D01*
Y164425D02*
Y167575D01*
X671850Y164425D02*
X678150D01*
X126425Y483150D02*
X129575D01*
Y476850D02*
Y483150D01*
X126425Y476850D02*
X129575D01*
X126425D02*
Y483150D01*
X771850Y164425D02*
Y167575D01*
X778150D01*
Y164425D02*
Y167575D01*
X771850Y164425D02*
X778150D01*
X671850Y424425D02*
Y427575D01*
X678150D01*
Y424425D02*
Y427575D01*
X671850Y424425D02*
X678150D01*
X651850Y164425D02*
Y167575D01*
X658150D01*
Y164425D02*
Y167575D01*
X651850Y164425D02*
X658150D01*
X671850Y294425D02*
Y297575D01*
X678150D01*
Y294425D02*
Y297575D01*
X671850Y294425D02*
X678150D01*
X228425Y476850D02*
X231575D01*
X228425D02*
Y483150D01*
X231575D01*
Y476850D02*
Y483150D01*
X771850Y554425D02*
Y557575D01*
X778150D01*
Y554425D02*
Y557575D01*
X771850Y554425D02*
X778150D01*
X851850Y424425D02*
Y427575D01*
X858150D01*
Y424425D02*
Y427575D01*
X851850Y424425D02*
X858150D01*
X651850Y294425D02*
Y297575D01*
X658150D01*
Y294425D02*
Y297575D01*
X651850Y294425D02*
X658150D01*
X219925Y476850D02*
X223075D01*
X219925D02*
Y483150D01*
X223075D01*
Y476850D02*
Y483150D01*
X262425Y476850D02*
X265575D01*
X262425D02*
Y483150D01*
X265575D01*
Y476850D02*
Y483150D01*
X344567Y237173D02*
X365433D01*
Y208827D02*
Y237173D01*
X344567Y208827D02*
X365433D01*
X344567D02*
Y237173D01*
Y234614D02*
X347126Y237173D01*
X74567Y424173D02*
X95433D01*
Y395827D02*
Y424173D01*
X74567Y395827D02*
X95433D01*
X74567D02*
Y424173D01*
Y421614D02*
X77126Y424173D01*
X344567Y287173D02*
X365433D01*
Y258827D02*
Y287173D01*
X344567Y258827D02*
X365433D01*
X344567D02*
Y287173D01*
Y284614D02*
X347126Y287173D01*
X6925Y100150D02*
X10075D01*
X6925Y93850D02*
Y100150D01*
Y93850D02*
X10075D01*
Y100150D01*
X156425Y348850D02*
X159575D01*
Y355150D01*
X156425D02*
X159575D01*
X156425Y348850D02*
Y355150D01*
X736850Y561425D02*
Y564575D01*
Y561425D02*
X743150D01*
Y564575D01*
X736850D02*
X743150D01*
X736850Y300425D02*
Y303575D01*
Y300425D02*
X743150D01*
Y303575D01*
X736850D02*
X743150D01*
X736850Y430425D02*
Y433575D01*
Y430425D02*
X743150D01*
Y433575D01*
X736850D02*
X743150D01*
X467425Y255150D02*
X470575D01*
X467425Y248850D02*
Y255150D01*
Y248850D02*
X470575D01*
Y255150D01*
X636850Y430425D02*
Y433575D01*
Y430425D02*
X643150D01*
Y433575D01*
X636850D02*
X643150D01*
X163425Y348850D02*
X166575D01*
Y355150D01*
X163425D02*
X166575D01*
X163425Y348850D02*
Y355150D01*
X69425Y126150D02*
X72575D01*
X69425Y119850D02*
Y126150D01*
Y119850D02*
X72575D01*
Y126150D01*
X636850Y560425D02*
Y563575D01*
Y560425D02*
X643150D01*
Y563575D01*
X636850D02*
X643150D01*
X372425Y44850D02*
X375575D01*
Y51150D01*
X372425D02*
X375575D01*
X372425Y44850D02*
Y51150D01*
X14425Y377000D02*
X17575D01*
X14425Y370701D02*
Y377000D01*
Y370701D02*
X17575D01*
Y377000D01*
X392425Y44850D02*
X395575D01*
Y51150D01*
X392425D02*
X395575D01*
X392425Y44850D02*
Y51150D01*
X104425Y122150D02*
X107575D01*
X104425Y115850D02*
Y122150D01*
Y115850D02*
X107575D01*
Y122150D01*
X69425Y134850D02*
X72575D01*
Y141150D01*
X69425D02*
X72575D01*
X69425Y134850D02*
Y141150D01*
X636850Y301425D02*
Y304575D01*
Y301425D02*
X643150D01*
Y304575D01*
X636850D02*
X643150D01*
X113425Y122150D02*
X116575D01*
X113425Y115850D02*
Y122150D01*
Y115850D02*
X116575D01*
Y122150D01*
X88425D02*
X91575D01*
X88425Y115850D02*
Y122150D01*
Y115850D02*
X91575D01*
Y122150D01*
X138425Y128150D02*
X141575D01*
X138425Y121850D02*
Y128150D01*
Y121850D02*
X141575D01*
Y128150D01*
X121425Y132150D02*
X124575D01*
X121425Y125850D02*
Y132150D01*
Y125850D02*
X124575D01*
Y132150D01*
X144567Y424173D02*
X165433D01*
Y395827D02*
Y424173D01*
X144567Y395827D02*
X165433D01*
X144567D02*
Y424173D01*
Y421614D02*
X147126Y424173D01*
X364850Y112425D02*
X371150D01*
Y115575D01*
X364850D02*
X371150D01*
X364850Y112425D02*
Y115575D01*
X88150Y408425D02*
Y411575D01*
X81850Y408425D02*
X88150D01*
X81850D02*
Y411575D01*
X88150D01*
X121850Y78425D02*
Y81575D01*
X128150D01*
Y78425D02*
Y81575D01*
X121850Y78425D02*
X128150D01*
X121850Y84425D02*
Y87575D01*
X128150D01*
Y84425D02*
Y87575D01*
X121850Y84425D02*
X128150D01*
X364850Y118425D02*
X371150D01*
Y121575D01*
X364850D02*
X371150D01*
X364850Y118425D02*
Y121575D01*
X116150Y84425D02*
Y87575D01*
X109850Y84425D02*
X116150D01*
X109850D02*
Y87575D01*
X116150D01*
X121850Y72425D02*
Y75575D01*
X128150D01*
Y72425D02*
Y75575D01*
X121850Y72425D02*
X128150D01*
X116150D02*
Y75575D01*
X109850Y72425D02*
X116150D01*
X109850D02*
Y75575D01*
X116150D01*
X158150Y408425D02*
Y411575D01*
X151850Y408425D02*
X158150D01*
X151850D02*
Y411575D01*
X158150D01*
X116150Y78425D02*
Y81575D01*
X109850Y78425D02*
X116150D01*
X109850D02*
Y81575D01*
X116150D01*
X376850Y115575D02*
X383150D01*
X376850Y112425D02*
Y115575D01*
Y112425D02*
X383150D01*
Y115575D01*
X228150Y408425D02*
Y411575D01*
X221850Y408425D02*
X228150D01*
X221850D02*
Y411575D01*
X228150D01*
X376850Y121575D02*
X383150D01*
X376850Y118425D02*
Y121575D01*
Y118425D02*
X383150D01*
Y121575D01*
X351150Y408425D02*
Y411575D01*
X344850Y408425D02*
X351150D01*
X344850D02*
Y411575D01*
X351150D01*
X31425Y105150D02*
X34575D01*
Y98850D02*
Y105150D01*
X31425Y98850D02*
X34575D01*
X31425D02*
Y105150D01*
X27150Y321425D02*
Y324575D01*
X20850D02*
X27150D01*
X20850Y321425D02*
Y324575D01*
Y321425D02*
X27150D01*
X594150Y16925D02*
Y20075D01*
X587850D02*
X594150D01*
X587850Y16925D02*
Y20075D01*
Y16925D02*
X594150D01*
D12*
X375250Y90982D02*
G03*
X375250Y90982I-1250J0D01*
G01*
D14*
X36205Y335795D02*
Y360205D01*
X11795D02*
X36205D01*
X11795Y335795D02*
Y360205D01*
Y335795D02*
X36205D01*
X14284Y153095D02*
Y164906D01*
Y153095D02*
X49716D01*
Y164906D01*
X14284D02*
X49716D01*
X17827Y112236D02*
X46173D01*
Y91764D02*
Y112236D01*
X17827Y91764D02*
X46173D01*
X17827D02*
Y112236D01*
D103*
X125878Y341071D02*
X167020D01*
Y299929D02*
Y341071D01*
X125878Y299929D02*
X167020D01*
X125878D02*
Y341071D01*
X473929Y434071D02*
X515071D01*
Y392929D02*
Y434071D01*
X473929Y392929D02*
X515071D01*
X473929D02*
Y434071D01*
X565571Y479429D02*
Y520571D01*
X524429Y479429D02*
X565571D01*
X524429D02*
Y520571D01*
X565571D01*
X450705Y239256D02*
X491847D01*
Y198114D02*
Y239256D01*
X450705Y198114D02*
X491847D01*
X450705D02*
Y239256D01*
X606976Y22649D02*
Y66350D01*
X579024Y22649D02*
Y66350D01*
X606976D01*
X579024Y22649D02*
X606976D01*
D104*
X205250Y220250D02*
Y279750D01*
X254750Y220250D02*
Y279750D01*
X205250D02*
X254750D01*
X205250Y220250D02*
X254750D01*
M02*
