G04*
G04 #@! TF.GenerationSoftware,Altium Limited,Altium Designer,22.3.1 (43)*
G04*
G04 Layer_Color=16711935*
%FSLAX25Y25*%
%MOIN*%
G70*
G04*
G04 #@! TF.SameCoordinates,A87CA661-C890-46F0-A320-74F5598AF3CC*
G04*
G04*
G04 #@! TF.FilePolarity,Negative*
G04*
G01*
G75*
%ADD43R,0.03950X0.04540*%
%ADD44R,0.04540X0.03950*%
%ADD54R,0.06804X0.03359*%
%ADD66R,0.06706X0.06706*%
%ADD67C,0.07887*%
%ADD68R,0.07887X0.07887*%
%ADD69R,0.07887X0.07887*%
%ADD70C,0.06706*%
%ADD71R,0.06706X0.06706*%
%ADD72R,0.06706X0.06706*%
%ADD73C,0.06706*%
%ADD74R,0.06706X0.06706*%
%ADD75C,0.20800*%
%ADD76C,0.05800*%
%ADD102R,0.06607X0.02572*%
D43*
X651850Y556000D02*
D03*
X658150D02*
D03*
X871850Y426000D02*
D03*
X878150D02*
D03*
Y556000D02*
D03*
X871850D02*
D03*
X678150D02*
D03*
X671850D02*
D03*
X858150Y166000D02*
D03*
X851850D02*
D03*
X758150Y426000D02*
D03*
X751850D02*
D03*
X758150Y296000D02*
D03*
X751850D02*
D03*
X858150D02*
D03*
X851850D02*
D03*
X858150Y556000D02*
D03*
X851850D02*
D03*
X878150Y166000D02*
D03*
X871850D02*
D03*
X658150Y426000D02*
D03*
X651850D02*
D03*
X778150Y296000D02*
D03*
X771850D02*
D03*
X878150D02*
D03*
X871850D02*
D03*
X758150Y556000D02*
D03*
X751850D02*
D03*
X758150Y166000D02*
D03*
X751850D02*
D03*
X778150Y426000D02*
D03*
X771850D02*
D03*
X678150Y166000D02*
D03*
X671850D02*
D03*
X778150D02*
D03*
X771850D02*
D03*
X678150Y426000D02*
D03*
X671850D02*
D03*
X658150Y166000D02*
D03*
X651850D02*
D03*
X678150Y296000D02*
D03*
X671850D02*
D03*
X778150Y556000D02*
D03*
X771850D02*
D03*
X858150Y426000D02*
D03*
X851850D02*
D03*
X658150Y296000D02*
D03*
X651850D02*
D03*
X364850Y114000D02*
D03*
X371150D02*
D03*
X88150Y410000D02*
D03*
X81850D02*
D03*
X121850Y80000D02*
D03*
X128150D02*
D03*
X121850Y86000D02*
D03*
X128150D02*
D03*
X364850Y120000D02*
D03*
X371150D02*
D03*
X116150Y86000D02*
D03*
X109850D02*
D03*
X121850Y74000D02*
D03*
X128150D02*
D03*
X116150D02*
D03*
X109850D02*
D03*
X158150Y410000D02*
D03*
X151850D02*
D03*
X116150Y80000D02*
D03*
X109850D02*
D03*
X383150Y114000D02*
D03*
X376850D02*
D03*
X228150Y410000D02*
D03*
X221850D02*
D03*
X383150Y120000D02*
D03*
X376850D02*
D03*
X351150Y410000D02*
D03*
X344850D02*
D03*
D44*
X66000Y28150D02*
D03*
Y21850D02*
D03*
X59000Y28150D02*
D03*
Y21850D02*
D03*
X73000Y28150D02*
D03*
Y21850D02*
D03*
X223500Y245150D02*
D03*
Y238850D02*
D03*
X399000Y476850D02*
D03*
Y483150D02*
D03*
X390500Y476850D02*
D03*
Y483150D02*
D03*
X131000Y148150D02*
D03*
Y141850D02*
D03*
X90000Y148150D02*
D03*
Y141850D02*
D03*
X106000Y148150D02*
D03*
Y141850D02*
D03*
X115000Y148150D02*
D03*
Y141850D02*
D03*
X140000Y148150D02*
D03*
Y141850D02*
D03*
X129000Y234850D02*
D03*
Y241150D02*
D03*
X288500Y476850D02*
D03*
Y483150D02*
D03*
X297000Y476850D02*
D03*
Y483150D02*
D03*
X314000Y476850D02*
D03*
Y483150D02*
D03*
X384500Y316850D02*
D03*
Y323150D02*
D03*
X410000Y316850D02*
D03*
Y323150D02*
D03*
X401500Y316850D02*
D03*
Y323150D02*
D03*
X393000Y316850D02*
D03*
Y323150D02*
D03*
X376000Y316850D02*
D03*
Y323150D02*
D03*
X435500Y316850D02*
D03*
Y323150D02*
D03*
X444000Y316850D02*
D03*
Y323150D02*
D03*
X452500Y316850D02*
D03*
Y323150D02*
D03*
X461000Y316850D02*
D03*
Y323150D02*
D03*
X469500Y316850D02*
D03*
Y323150D02*
D03*
X486500Y316850D02*
D03*
Y323150D02*
D03*
X478000Y316850D02*
D03*
Y323150D02*
D03*
X495000Y316850D02*
D03*
Y323150D02*
D03*
X418500Y316850D02*
D03*
Y323150D02*
D03*
X427000Y316850D02*
D03*
Y323150D02*
D03*
X297000Y452850D02*
D03*
Y459150D02*
D03*
X331000Y483150D02*
D03*
Y476850D02*
D03*
X60000Y483150D02*
D03*
Y476850D02*
D03*
X280000Y483150D02*
D03*
Y476850D02*
D03*
X314000Y459150D02*
D03*
Y452850D02*
D03*
X382000Y483150D02*
D03*
Y476850D02*
D03*
X348000Y483150D02*
D03*
Y476850D02*
D03*
X305500Y483150D02*
D03*
Y476850D02*
D03*
Y459150D02*
D03*
Y452850D02*
D03*
X288500Y459150D02*
D03*
Y452850D02*
D03*
X77000Y483150D02*
D03*
Y476850D02*
D03*
X68500Y483150D02*
D03*
Y476850D02*
D03*
X94000Y483150D02*
D03*
Y476850D02*
D03*
X85500Y483150D02*
D03*
Y476850D02*
D03*
X373500Y483150D02*
D03*
Y476850D02*
D03*
X280000Y459150D02*
D03*
Y452850D02*
D03*
X356500Y483150D02*
D03*
Y476850D02*
D03*
X365000Y483150D02*
D03*
Y476850D02*
D03*
X339500Y483150D02*
D03*
Y476850D02*
D03*
X322500Y483150D02*
D03*
Y476850D02*
D03*
X145000Y483150D02*
D03*
Y476850D02*
D03*
X153500Y483150D02*
D03*
Y476850D02*
D03*
X136500Y483150D02*
D03*
Y476850D02*
D03*
X204500Y483150D02*
D03*
Y476850D02*
D03*
X238500Y483150D02*
D03*
Y476850D02*
D03*
X111000Y483150D02*
D03*
Y476850D02*
D03*
X119500Y483150D02*
D03*
Y476850D02*
D03*
X187500Y483150D02*
D03*
Y476850D02*
D03*
X179000Y483150D02*
D03*
Y476850D02*
D03*
X255500Y483150D02*
D03*
Y476850D02*
D03*
X162000Y483150D02*
D03*
Y476850D02*
D03*
X102500Y483150D02*
D03*
Y476850D02*
D03*
X247000Y483150D02*
D03*
Y476850D02*
D03*
X213000Y483150D02*
D03*
Y476850D02*
D03*
X170500Y483150D02*
D03*
Y476850D02*
D03*
X128000Y483150D02*
D03*
Y476850D02*
D03*
X230000Y483150D02*
D03*
Y476850D02*
D03*
X221500Y483150D02*
D03*
Y476850D02*
D03*
X264000Y483150D02*
D03*
Y476850D02*
D03*
X33000Y105150D02*
D03*
Y98850D02*
D03*
D54*
X199677Y52000D02*
D03*
Y57000D02*
D03*
Y62000D02*
D03*
Y67000D02*
D03*
Y72000D02*
D03*
Y77000D02*
D03*
Y82000D02*
D03*
X178323D02*
D03*
Y77000D02*
D03*
Y72000D02*
D03*
Y67000D02*
D03*
Y62000D02*
D03*
Y57000D02*
D03*
Y52000D02*
D03*
D66*
X433000Y189000D02*
D03*
X582000Y569000D02*
D03*
X568000D02*
D03*
X555000D02*
D03*
X541000D02*
D03*
X158000Y110000D02*
D03*
X318000Y146000D02*
D03*
X265000Y130000D02*
D03*
X236000Y75000D02*
D03*
X600000Y82000D02*
D03*
X587000D02*
D03*
X250000Y75000D02*
D03*
Y55000D02*
D03*
X236000D02*
D03*
X44000Y23000D02*
D03*
X225000Y19000D02*
D03*
X254000D02*
D03*
X211000D02*
D03*
X267000D02*
D03*
X280000D02*
D03*
X240000D02*
D03*
X422000Y32000D02*
D03*
X519000Y581000D02*
D03*
X40000Y228000D02*
D03*
X580000Y550000D02*
D03*
X410000Y526000D02*
D03*
X553000Y80000D02*
D03*
X290000Y526000D02*
D03*
X140000D02*
D03*
X260000D02*
D03*
X40000Y208000D02*
D03*
X15000D02*
D03*
Y228000D02*
D03*
X354000Y306000D02*
D03*
Y328000D02*
D03*
X159000Y168000D02*
D03*
X81000D02*
D03*
X133000D02*
D03*
X94000D02*
D03*
X146000D02*
D03*
X120000D02*
D03*
X107000D02*
D03*
X568000Y550000D02*
D03*
X556000D02*
D03*
X544000D02*
D03*
X520000D02*
D03*
X532000D02*
D03*
D67*
X130000Y580000D02*
D03*
Y570000D02*
D03*
X120000Y580000D02*
D03*
Y570000D02*
D03*
X110000Y580000D02*
D03*
Y570000D02*
D03*
X100000Y580000D02*
D03*
Y570000D02*
D03*
X90000Y580000D02*
D03*
Y570000D02*
D03*
X80000Y580000D02*
D03*
Y570000D02*
D03*
X70000Y580000D02*
D03*
Y570000D02*
D03*
X60000Y580000D02*
D03*
X250000D02*
D03*
Y570000D02*
D03*
X240000Y580000D02*
D03*
Y570000D02*
D03*
X230000Y580000D02*
D03*
Y570000D02*
D03*
X220000Y580000D02*
D03*
Y570000D02*
D03*
X210000Y580000D02*
D03*
Y570000D02*
D03*
X200000Y580000D02*
D03*
Y570000D02*
D03*
X190000Y580000D02*
D03*
Y570000D02*
D03*
X180000Y580000D02*
D03*
X370000D02*
D03*
Y570000D02*
D03*
X360000Y580000D02*
D03*
Y570000D02*
D03*
X350000Y580000D02*
D03*
Y570000D02*
D03*
X340000Y580000D02*
D03*
Y570000D02*
D03*
X330000Y580000D02*
D03*
Y570000D02*
D03*
X320000Y580000D02*
D03*
Y570000D02*
D03*
X310000Y580000D02*
D03*
Y570000D02*
D03*
X300000Y580000D02*
D03*
X490000D02*
D03*
Y570000D02*
D03*
X480000Y580000D02*
D03*
Y570000D02*
D03*
X470000Y580000D02*
D03*
Y570000D02*
D03*
X460000Y580000D02*
D03*
Y570000D02*
D03*
X450000Y580000D02*
D03*
Y570000D02*
D03*
X440000Y580000D02*
D03*
Y570000D02*
D03*
X430000Y580000D02*
D03*
Y570000D02*
D03*
X420000Y580000D02*
D03*
X660000Y530000D02*
D03*
X670000D02*
D03*
X660000Y520000D02*
D03*
X670000D02*
D03*
X660000Y510000D02*
D03*
X670000D02*
D03*
X660000Y500000D02*
D03*
X670000D02*
D03*
X660000Y490000D02*
D03*
X670000D02*
D03*
X660000Y480000D02*
D03*
X670000D02*
D03*
X660000Y470000D02*
D03*
X670000D02*
D03*
X660000Y460000D02*
D03*
Y400000D02*
D03*
X670000D02*
D03*
X660000Y390000D02*
D03*
X670000D02*
D03*
X660000Y380000D02*
D03*
X670000D02*
D03*
X660000Y370000D02*
D03*
X670000D02*
D03*
X660000Y360000D02*
D03*
X670000D02*
D03*
X660000Y350000D02*
D03*
X670000D02*
D03*
X660000Y340000D02*
D03*
X670000D02*
D03*
X660000Y330000D02*
D03*
Y270000D02*
D03*
X670000D02*
D03*
X660000Y260000D02*
D03*
X670000D02*
D03*
X660000Y250000D02*
D03*
X670000D02*
D03*
X660000Y240000D02*
D03*
X670000D02*
D03*
X660000Y230000D02*
D03*
X670000D02*
D03*
X660000Y220000D02*
D03*
X670000D02*
D03*
X660000Y210000D02*
D03*
X670000D02*
D03*
X660000Y200000D02*
D03*
Y140000D02*
D03*
X670000D02*
D03*
X660000Y130000D02*
D03*
X670000D02*
D03*
X660000Y120000D02*
D03*
X670000D02*
D03*
X660000Y110000D02*
D03*
X670000D02*
D03*
X660000Y100000D02*
D03*
X670000D02*
D03*
X660000Y90000D02*
D03*
X670000D02*
D03*
X660000Y80000D02*
D03*
X670000D02*
D03*
X660000Y70000D02*
D03*
X760000Y530000D02*
D03*
X770000D02*
D03*
X760000Y520000D02*
D03*
X770000D02*
D03*
X760000Y510000D02*
D03*
X770000D02*
D03*
X760000Y500000D02*
D03*
X770000D02*
D03*
X760000Y490000D02*
D03*
X770000D02*
D03*
X760000Y480000D02*
D03*
X770000D02*
D03*
X760000Y470000D02*
D03*
X770000D02*
D03*
X760000Y460000D02*
D03*
X760000Y400000D02*
D03*
X770000D02*
D03*
X760000Y390000D02*
D03*
X770000D02*
D03*
X760000Y380000D02*
D03*
X770000D02*
D03*
X760000Y370000D02*
D03*
X770000D02*
D03*
X760000Y360000D02*
D03*
X770000D02*
D03*
X760000Y350000D02*
D03*
X770000D02*
D03*
X760000Y340000D02*
D03*
X770000D02*
D03*
X760000Y330000D02*
D03*
Y270000D02*
D03*
X770000D02*
D03*
X760000Y260000D02*
D03*
X770000D02*
D03*
X760000Y250000D02*
D03*
X770000D02*
D03*
X760000Y240000D02*
D03*
X770000D02*
D03*
X760000Y230000D02*
D03*
X770000D02*
D03*
X760000Y220000D02*
D03*
X770000D02*
D03*
X760000Y210000D02*
D03*
X770000D02*
D03*
X760000Y200000D02*
D03*
Y140000D02*
D03*
X770000D02*
D03*
X760000Y130000D02*
D03*
X770000D02*
D03*
X760000Y120000D02*
D03*
X770000D02*
D03*
X760000Y110000D02*
D03*
X770000D02*
D03*
X760000Y100000D02*
D03*
X770000D02*
D03*
X760000Y90000D02*
D03*
X770000D02*
D03*
X760000Y80000D02*
D03*
X770000D02*
D03*
X760000Y70000D02*
D03*
X860000Y530000D02*
D03*
X870000D02*
D03*
X860000Y520000D02*
D03*
X870000D02*
D03*
X860000Y510000D02*
D03*
X870000D02*
D03*
X860000Y500000D02*
D03*
X870000D02*
D03*
X860000Y490000D02*
D03*
X870000D02*
D03*
X860000Y480000D02*
D03*
X870000D02*
D03*
X860000Y470000D02*
D03*
X870000D02*
D03*
X860000Y460000D02*
D03*
Y400000D02*
D03*
X870000D02*
D03*
X860000Y390000D02*
D03*
X870000D02*
D03*
X860000Y380000D02*
D03*
X870000D02*
D03*
X860000Y370000D02*
D03*
X870000D02*
D03*
X860000Y360000D02*
D03*
X870000D02*
D03*
X860000Y350000D02*
D03*
X870000D02*
D03*
X860000Y340000D02*
D03*
X870000D02*
D03*
X860000Y330000D02*
D03*
Y270000D02*
D03*
X870000D02*
D03*
X860000Y260000D02*
D03*
X870000D02*
D03*
X860000Y250000D02*
D03*
X870000D02*
D03*
X860000Y240000D02*
D03*
X870000D02*
D03*
X860000Y230000D02*
D03*
X870000D02*
D03*
X860000Y220000D02*
D03*
X870000D02*
D03*
X860000Y210000D02*
D03*
X870000D02*
D03*
X860000Y200000D02*
D03*
Y140000D02*
D03*
X870000D02*
D03*
X860000Y130000D02*
D03*
X870000D02*
D03*
X860000Y120000D02*
D03*
X870000D02*
D03*
X860000Y110000D02*
D03*
X870000D02*
D03*
X860000Y100000D02*
D03*
X870000D02*
D03*
X860000Y90000D02*
D03*
X870000D02*
D03*
X860000Y80000D02*
D03*
X870000D02*
D03*
X860000Y70000D02*
D03*
X543000Y43500D02*
D03*
Y33500D02*
D03*
X533000Y43500D02*
D03*
Y33500D02*
D03*
X523000Y43500D02*
D03*
Y33500D02*
D03*
X513000Y43500D02*
D03*
Y33500D02*
D03*
X503000Y43500D02*
D03*
Y33500D02*
D03*
X493000Y43500D02*
D03*
Y33500D02*
D03*
X483000Y43500D02*
D03*
Y33500D02*
D03*
X473000Y43500D02*
D03*
X20000Y271000D02*
D03*
Y286000D02*
D03*
D68*
X60000Y570000D02*
D03*
X180000D02*
D03*
X300000D02*
D03*
X420000D02*
D03*
X473000Y33500D02*
D03*
D69*
X670000Y460000D02*
D03*
Y330000D02*
D03*
Y200000D02*
D03*
Y70000D02*
D03*
X770000Y460000D02*
D03*
X770000Y330000D02*
D03*
Y200000D02*
D03*
Y70000D02*
D03*
X870000Y460000D02*
D03*
Y330000D02*
D03*
Y200000D02*
D03*
Y70000D02*
D03*
X20000Y256000D02*
D03*
D70*
X141000Y364000D02*
D03*
X131000D02*
D03*
X57000Y100000D02*
D03*
Y110000D02*
D03*
X471000Y452000D02*
D03*
X481000D02*
D03*
X587000Y530000D02*
D03*
X577000D02*
D03*
X514000Y245000D02*
D03*
X524000D02*
D03*
X32000Y123000D02*
D03*
X42000D02*
D03*
X57000Y70000D02*
D03*
Y60000D02*
D03*
X265000Y63000D02*
D03*
Y73000D02*
D03*
D71*
X121000Y364000D02*
D03*
X491000Y452000D02*
D03*
X597000Y530000D02*
D03*
X534000Y245000D02*
D03*
X22000Y123000D02*
D03*
D72*
X57000Y90000D02*
D03*
Y50000D02*
D03*
X265000Y53000D02*
D03*
D73*
X382000Y22000D02*
D03*
X422000D02*
D03*
X412000D02*
D03*
X382000Y32000D02*
D03*
X392000Y22000D02*
D03*
Y32000D02*
D03*
X402000Y22000D02*
D03*
Y32000D02*
D03*
X412000D02*
D03*
X519000Y571000D02*
D03*
X280000Y294000D02*
D03*
Y334000D02*
D03*
Y374000D02*
D03*
Y324000D02*
D03*
Y364000D02*
D03*
Y314000D02*
D03*
Y354000D02*
D03*
Y304000D02*
D03*
Y344000D02*
D03*
X79000Y270000D02*
D03*
Y320000D02*
D03*
Y280000D02*
D03*
Y330000D02*
D03*
Y290000D02*
D03*
Y340000D02*
D03*
Y300000D02*
D03*
Y350000D02*
D03*
Y310000D02*
D03*
X295000Y344000D02*
D03*
Y304000D02*
D03*
Y354000D02*
D03*
Y314000D02*
D03*
Y364000D02*
D03*
Y324000D02*
D03*
Y374000D02*
D03*
Y334000D02*
D03*
Y294000D02*
D03*
X450000Y526000D02*
D03*
X490000D02*
D03*
X440000D02*
D03*
X480000D02*
D03*
X430000D02*
D03*
X470000D02*
D03*
X420000D02*
D03*
X460000D02*
D03*
X500000D02*
D03*
X315000Y344000D02*
D03*
Y304000D02*
D03*
Y354000D02*
D03*
Y314000D02*
D03*
Y364000D02*
D03*
Y324000D02*
D03*
Y374000D02*
D03*
Y334000D02*
D03*
Y294000D02*
D03*
X580000Y420000D02*
D03*
Y460000D02*
D03*
Y410000D02*
D03*
Y450000D02*
D03*
Y400000D02*
D03*
Y440000D02*
D03*
Y390000D02*
D03*
Y430000D02*
D03*
Y470000D02*
D03*
X513000Y80000D02*
D03*
X473000D02*
D03*
X523000D02*
D03*
X483000D02*
D03*
X533000D02*
D03*
X493000D02*
D03*
X543000D02*
D03*
X503000D02*
D03*
X463000D02*
D03*
X330000Y526000D02*
D03*
X370000D02*
D03*
X320000D02*
D03*
X360000D02*
D03*
X310000D02*
D03*
X350000D02*
D03*
X300000D02*
D03*
X340000D02*
D03*
X380000D02*
D03*
X580000Y310000D02*
D03*
Y350000D02*
D03*
Y300000D02*
D03*
Y340000D02*
D03*
Y290000D02*
D03*
Y330000D02*
D03*
Y280000D02*
D03*
Y320000D02*
D03*
Y360000D02*
D03*
X100000Y526000D02*
D03*
X60000D02*
D03*
X110000D02*
D03*
X70000D02*
D03*
X120000D02*
D03*
X80000D02*
D03*
X130000D02*
D03*
X90000D02*
D03*
X50000D02*
D03*
X580000Y200000D02*
D03*
Y240000D02*
D03*
Y190000D02*
D03*
Y230000D02*
D03*
Y180000D02*
D03*
Y220000D02*
D03*
Y170000D02*
D03*
Y210000D02*
D03*
Y250000D02*
D03*
X220000Y526000D02*
D03*
X180000D02*
D03*
X230000D02*
D03*
X190000D02*
D03*
X240000D02*
D03*
X200000D02*
D03*
X250000D02*
D03*
X210000D02*
D03*
X170000D02*
D03*
D74*
X280000Y384000D02*
D03*
X431000Y421000D02*
D03*
X79000Y360000D02*
D03*
X431000Y438000D02*
D03*
X295000Y384000D02*
D03*
X315000D02*
D03*
X580000Y380000D02*
D03*
Y270000D02*
D03*
Y160000D02*
D03*
X431000Y387000D02*
D03*
Y404000D02*
D03*
Y370000D02*
D03*
D75*
X880000Y20000D02*
D03*
X20000Y580000D02*
D03*
Y20000D02*
D03*
X880000Y580000D02*
D03*
D76*
X62000Y233000D02*
D03*
X493000Y464000D02*
D03*
X496000Y495000D02*
D03*
X509000Y494000D02*
D03*
X495000Y486000D02*
D03*
X510000Y487000D02*
D03*
X494000Y476000D02*
D03*
X510000Y479000D02*
D03*
X576000Y112000D02*
D03*
Y123000D02*
D03*
X563000Y166000D02*
D03*
X549000D02*
D03*
X562000Y150000D02*
D03*
X548000Y157000D02*
D03*
X414000Y94000D02*
D03*
X548000Y284000D02*
D03*
X541000Y320000D02*
D03*
Y329000D02*
D03*
X420000Y109000D02*
D03*
X463000Y91914D02*
D03*
X345000Y339000D02*
D03*
X326000Y309000D02*
D03*
X261000Y286000D02*
D03*
X264000Y384000D02*
D03*
X257000Y355000D02*
D03*
Y113000D02*
D03*
Y123000D02*
D03*
X231000Y115000D02*
D03*
Y123000D02*
D03*
X386000Y511000D02*
D03*
X146000Y192000D02*
D03*
X157000Y188000D02*
D03*
X289000Y263000D02*
D03*
X288000Y299000D02*
D03*
X298000Y286000D02*
D03*
X313000Y280000D02*
D03*
X317000Y258000D02*
D03*
X285000Y269000D02*
D03*
X317000Y251000D02*
D03*
X226291Y294500D02*
D03*
X446000Y486000D02*
D03*
Y464000D02*
D03*
X433000Y463000D02*
D03*
X459000Y437000D02*
D03*
X467000Y478000D02*
D03*
X322000Y408720D02*
D03*
X455000Y465000D02*
D03*
X460000Y471000D02*
D03*
X439000D02*
D03*
X455000Y483000D02*
D03*
X438000Y486000D02*
D03*
X334000Y433000D02*
D03*
X321000Y418957D02*
D03*
X403000Y74000D02*
D03*
X395000Y70000D02*
D03*
X431000Y104000D02*
D03*
X445000Y124000D02*
D03*
X439000Y116000D02*
D03*
X424000Y76000D02*
D03*
X430000Y82000D02*
D03*
X394000Y107000D02*
D03*
X295000Y154000D02*
D03*
X303000Y268000D02*
D03*
X319000Y242500D02*
D03*
X324000Y222000D02*
D03*
X341000Y243000D02*
D03*
X323000Y232000D02*
D03*
X302000Y260000D02*
D03*
X315000Y265000D02*
D03*
X308000Y402000D02*
D03*
X294000Y227000D02*
D03*
X450000Y517000D02*
D03*
X499000Y247000D02*
D03*
X212000Y293000D02*
D03*
X219000Y295000D02*
D03*
X202000Y294000D02*
D03*
X158000D02*
D03*
X202000Y303000D02*
D03*
X177000Y306000D02*
D03*
X201000Y311000D02*
D03*
X213000Y308000D02*
D03*
X153000Y329000D02*
D03*
X155000Y319000D02*
D03*
X100500Y289000D02*
D03*
X118000Y378000D02*
D03*
X112000Y291000D02*
D03*
X171000Y310000D02*
D03*
X143000Y350000D02*
D03*
X101000Y347000D02*
D03*
X112000Y219000D02*
D03*
X175000Y94000D02*
D03*
X295000Y72000D02*
D03*
X314000D02*
D03*
X381398Y259398D02*
D03*
X591000Y144000D02*
D03*
X505000Y193000D02*
D03*
X447000Y190000D02*
D03*
X414000Y212000D02*
D03*
X406000Y58000D02*
D03*
X417182Y57818D02*
D03*
X389000Y95000D02*
D03*
X485000Y517000D02*
D03*
X477000Y472000D02*
D03*
X833000Y250000D02*
D03*
X834000Y120000D02*
D03*
X828000Y100000D02*
D03*
X823000Y191000D02*
D03*
X827000Y229000D02*
D03*
X831000Y360000D02*
D03*
X585000Y518500D02*
D03*
X563000Y524000D02*
D03*
X702000Y360000D02*
D03*
Y490000D02*
D03*
X231000Y309000D02*
D03*
X167000Y299000D02*
D03*
X177000Y319000D02*
D03*
X314000Y204000D02*
D03*
X331000Y227000D02*
D03*
X329000Y216000D02*
D03*
X318000Y190000D02*
D03*
X327000Y189000D02*
D03*
X335000Y191000D02*
D03*
X341000Y186000D02*
D03*
X349000D02*
D03*
X394000Y156000D02*
D03*
X145000Y372000D02*
D03*
X66000Y50000D02*
D03*
X73000Y62000D02*
D03*
X98000Y46000D02*
D03*
X233000Y42000D02*
D03*
X354000Y73000D02*
D03*
X296000Y63000D02*
D03*
X356000Y60000D02*
D03*
X333000Y32000D02*
D03*
X339000Y54000D02*
D03*
X319000Y38000D02*
D03*
X334000Y60000D02*
D03*
X350000Y54000D02*
D03*
X367000Y98000D02*
D03*
X119000Y13000D02*
D03*
X105000D02*
D03*
X139000Y12000D02*
D03*
X22000Y43000D02*
D03*
Y79000D02*
D03*
X43000Y80000D02*
D03*
X66000Y39000D02*
D03*
X72000Y75000D02*
D03*
X79000D02*
D03*
X372000Y15000D02*
D03*
X42000Y42000D02*
D03*
X280000Y493000D02*
D03*
Y468000D02*
D03*
X280061Y444000D02*
D03*
X231000Y349000D02*
D03*
Y363000D02*
D03*
X326000Y272500D02*
D03*
X563000Y122000D02*
D03*
X291000Y15000D02*
D03*
Y32000D02*
D03*
X529000Y198000D02*
D03*
X523000Y191000D02*
D03*
X76000Y112000D02*
D03*
X256000Y181000D02*
D03*
X273000Y189000D02*
D03*
Y182000D02*
D03*
X257000Y363000D02*
D03*
X253000Y216000D02*
D03*
X355000Y134000D02*
D03*
X392000Y131000D02*
D03*
X384000Y129000D02*
D03*
X279000Y244900D02*
D03*
X292000Y242000D02*
D03*
X268954Y269854D02*
D03*
X292000Y234000D02*
D03*
X278000D02*
D03*
X284000Y256000D02*
D03*
X204500Y493000D02*
D03*
X441000Y76000D02*
D03*
X226000Y110000D02*
D03*
X298000Y94000D02*
D03*
X308525Y79525D02*
D03*
X310000Y102000D02*
D03*
X309000Y117000D02*
D03*
X316000Y107000D02*
D03*
X330000Y114000D02*
D03*
X324000Y119000D02*
D03*
X322000Y129000D02*
D03*
X316000Y96000D02*
D03*
X323000Y92000D02*
D03*
X322000Y85000D02*
D03*
X332000Y89000D02*
D03*
X334000Y81000D02*
D03*
Y145000D02*
D03*
X333000Y123000D02*
D03*
X328000Y135000D02*
D03*
X271000Y93000D02*
D03*
X358000Y109000D02*
D03*
X271000Y112500D02*
D03*
X273000Y224000D02*
D03*
X196000Y274000D02*
D03*
X154000Y126000D02*
D03*
X335000Y458000D02*
D03*
X358000D02*
D03*
X391000Y493000D02*
D03*
X383500Y413500D02*
D03*
X336000Y327000D02*
D03*
X324000Y286000D02*
D03*
X328000Y299000D02*
D03*
X514000Y273000D02*
D03*
X501000Y285000D02*
D03*
X493000D02*
D03*
X510000Y259000D02*
D03*
X538000Y263000D02*
D03*
X526000Y273000D02*
D03*
X524000Y285000D02*
D03*
X516000D02*
D03*
X519500Y260000D02*
D03*
X529000Y262000D02*
D03*
X543000Y270000D02*
D03*
X509000Y285000D02*
D03*
X409680Y297893D02*
D03*
X553000Y192000D02*
D03*
X559000Y198000D02*
D03*
X558000Y220000D02*
D03*
X559000Y212000D02*
D03*
Y205000D02*
D03*
X563000Y180000D02*
D03*
X490000Y383000D02*
D03*
X639000Y519000D02*
D03*
X522000Y522000D02*
D03*
X841000Y92000D02*
D03*
X839000Y380000D02*
D03*
X857000Y284000D02*
D03*
X836000Y182000D02*
D03*
X825000Y515000D02*
D03*
X829000Y438000D02*
D03*
X682000Y330000D02*
D03*
X683000Y390000D02*
D03*
X675000Y413000D02*
D03*
X790000Y154000D02*
D03*
X786000Y273000D02*
D03*
X795000Y115000D02*
D03*
X800000Y105000D02*
D03*
X805000Y95000D02*
D03*
X812000Y85000D02*
D03*
X817000Y53000D02*
D03*
X823000Y62000D02*
D03*
X838000Y154000D02*
D03*
X737436Y156000D02*
D03*
X786000Y148000D02*
D03*
X879000Y175000D02*
D03*
X778000Y174000D02*
D03*
X736850Y181650D02*
D03*
X779000Y345000D02*
D03*
X780000Y201000D02*
D03*
Y215000D02*
D03*
X795000Y245000D02*
D03*
X800000Y235000D02*
D03*
X805000Y225000D02*
D03*
X812000Y215000D02*
D03*
X817000Y205000D02*
D03*
X823000Y322000D02*
D03*
X825000Y459000D02*
D03*
X737000Y412000D02*
D03*
X766000Y409000D02*
D03*
X805000Y355000D02*
D03*
X800000Y365000D02*
D03*
X790000Y286000D02*
D03*
X795000Y375000D02*
D03*
X817000Y316000D02*
D03*
Y471000D02*
D03*
X853000Y406000D02*
D03*
X841000Y471000D02*
D03*
X850000Y480000D02*
D03*
X812000Y345000D02*
D03*
Y481000D02*
D03*
X805000Y485000D02*
D03*
X800000Y495000D02*
D03*
X795000Y505000D02*
D03*
X790000Y390000D02*
D03*
Y528000D02*
D03*
X786000Y410000D02*
D03*
Y538000D02*
D03*
X844000Y53000D02*
D03*
X750000Y54000D02*
D03*
X781000Y475000D02*
D03*
X779000Y528000D02*
D03*
X770000Y543000D02*
D03*
X736000Y520000D02*
D03*
X749000Y531000D02*
D03*
X686000Y472000D02*
D03*
X688000Y205000D02*
D03*
X165000Y372000D02*
D03*
X68000Y267000D02*
D03*
X61000Y242000D02*
D03*
X178000Y366000D02*
D03*
X184000Y372000D02*
D03*
X188000Y366000D02*
D03*
X235000Y385000D02*
D03*
X250000D02*
D03*
X242000D02*
D03*
X228000D02*
D03*
X221000D02*
D03*
X207000D02*
D03*
X214000D02*
D03*
X240000Y263000D02*
D03*
X208000Y327000D02*
D03*
X200000Y385000D02*
D03*
X133000Y430000D02*
D03*
X117000Y413000D02*
D03*
Y420000D02*
D03*
X111000Y429000D02*
D03*
X187500Y493000D02*
D03*
X155000Y398000D02*
D03*
X68500Y493000D02*
D03*
X273000Y175000D02*
D03*
Y196000D02*
D03*
Y203000D02*
D03*
Y210000D02*
D03*
X240000Y207500D02*
D03*
X269000Y162000D02*
D03*
X252000Y191000D02*
D03*
X248000Y211000D02*
D03*
X273000Y217000D02*
D03*
X222464Y236536D02*
D03*
X229964Y244036D02*
D03*
X213000Y200000D02*
D03*
X223000Y198000D02*
D03*
X232000Y197000D02*
D03*
X240000Y196000D02*
D03*
X215000Y248000D02*
D03*
Y257000D02*
D03*
X217000Y265000D02*
D03*
X180000Y204000D02*
D03*
X256000Y174000D02*
D03*
X269000Y148000D02*
D03*
X255000Y139000D02*
D03*
X259000Y150000D02*
D03*
X264000Y156000D02*
D03*
Y142000D02*
D03*
X264500Y240000D02*
D03*
X256000Y166000D02*
D03*
X269000Y250000D02*
D03*
X263000Y255000D02*
D03*
X269000Y260000D02*
D03*
X263000Y264900D02*
D03*
X192000Y245000D02*
D03*
Y235000D02*
D03*
X184000Y239900D02*
D03*
Y250000D02*
D03*
X192000Y255000D02*
D03*
X184000Y260000D02*
D03*
X192000Y265000D02*
D03*
X184000Y270000D02*
D03*
X231000Y131000D02*
D03*
X225000Y119000D02*
D03*
X67000Y175000D02*
D03*
X231000Y139000D02*
D03*
X225000Y143000D02*
D03*
Y175000D02*
D03*
X159000Y249000D02*
D03*
X155000Y243000D02*
D03*
X163000Y255000D02*
D03*
X164000Y216000D02*
D03*
X159000Y210000D02*
D03*
X151000Y237107D02*
D03*
X154000Y204000D02*
D03*
X150000Y198000D02*
D03*
X166000Y187000D02*
D03*
X78000Y184000D02*
D03*
X89000Y206000D02*
D03*
X92000Y184000D02*
D03*
X86000Y221664D02*
D03*
X78000Y226000D02*
D03*
X82500Y232500D02*
D03*
X82000Y242000D02*
D03*
X225000Y127000D02*
D03*
X124000Y155000D02*
D03*
X225000Y135000D02*
D03*
Y159000D02*
D03*
X231000Y171000D02*
D03*
Y147000D02*
D03*
X225000Y151000D02*
D03*
X231000Y155000D02*
D03*
Y163000D02*
D03*
X225000Y167000D02*
D03*
X222000Y327000D02*
D03*
X215000D02*
D03*
X250000D02*
D03*
X236000D02*
D03*
X243000D02*
D03*
X201000D02*
D03*
X229000D02*
D03*
X111000Y263000D02*
D03*
X129000Y258000D02*
D03*
X106000Y269000D02*
D03*
X113000Y204000D02*
D03*
X79000Y85000D02*
D03*
X72000Y91000D02*
D03*
X234000Y250000D02*
D03*
X235000Y257000D02*
D03*
X64000Y214000D02*
D03*
X58000Y204000D02*
D03*
X43379Y395500D02*
D03*
X85000Y184000D02*
D03*
X55000Y217000D02*
D03*
X51000Y225000D02*
D03*
X45414Y221000D02*
D03*
X36000Y238000D02*
D03*
X106000Y131000D02*
D03*
X115000D02*
D03*
X140000Y134000D02*
D03*
X226000Y267000D02*
D03*
X31000Y312000D02*
D03*
X50000Y390000D02*
D03*
X29000Y383000D02*
D03*
X181000Y398000D02*
D03*
X187000Y404000D02*
D03*
X180000Y409000D02*
D03*
X186000Y414000D02*
D03*
X124000Y401000D02*
D03*
Y409000D02*
D03*
X36000Y402000D02*
D03*
X30000Y408000D02*
D03*
X27000Y416000D02*
D03*
X26000Y426000D02*
D03*
Y436000D02*
D03*
X102500Y493000D02*
D03*
X26000Y445957D02*
D03*
X155000Y529000D02*
D03*
X165000Y536000D02*
D03*
X168000Y505000D02*
D03*
X138000Y515000D02*
D03*
X145000Y512000D02*
D03*
X153000Y517000D02*
D03*
Y589000D02*
D03*
X158000Y543000D02*
D03*
X244000Y257000D02*
D03*
X405000Y154000D02*
D03*
X505000Y137000D02*
D03*
Y144000D02*
D03*
Y151000D02*
D03*
Y158000D02*
D03*
Y165000D02*
D03*
Y172000D02*
D03*
Y179000D02*
D03*
Y186000D02*
D03*
X740000Y62000D02*
D03*
X744000Y127000D02*
D03*
X682000D02*
D03*
X694000Y111000D02*
D03*
X716000Y144000D02*
D03*
Y154000D02*
D03*
X637000Y156000D02*
D03*
X780000Y85000D02*
D03*
X861000Y316000D02*
D03*
X762000D02*
D03*
X732000Y418000D02*
D03*
X825000Y546586D02*
D03*
X135000Y117000D02*
D03*
X59000Y135000D02*
D03*
X342000Y318000D02*
D03*
X349000Y365000D02*
D03*
X389000Y382000D02*
D03*
X367000Y313000D02*
D03*
Y365000D02*
D03*
X337000Y388000D02*
D03*
X330000Y354000D02*
D03*
X314000Y468000D02*
D03*
X305500D02*
D03*
X297000D02*
D03*
X289000D02*
D03*
X305000Y493000D02*
D03*
X314000D02*
D03*
X297000D02*
D03*
X288000D02*
D03*
X400000Y381000D02*
D03*
X91322Y130764D02*
D03*
X428000Y478000D02*
D03*
X399000Y493000D02*
D03*
X287000Y118000D02*
D03*
X376000Y205360D02*
D03*
X394000Y183000D02*
D03*
X323000Y465000D02*
D03*
X330000Y344000D02*
D03*
X346000Y294000D02*
D03*
X519000Y221000D02*
D03*
X523000Y229000D02*
D03*
X304000Y409000D02*
D03*
X387500Y180000D02*
D03*
X383000Y186000D02*
D03*
X562000Y533000D02*
D03*
X359000Y388000D02*
D03*
X374000Y377000D02*
D03*
X413000Y151500D02*
D03*
X376000Y186000D02*
D03*
X131000Y130000D02*
D03*
X153000Y139000D02*
D03*
X372000Y430000D02*
D03*
X348000Y395000D02*
D03*
X361000Y430000D02*
D03*
X383000Y212000D02*
D03*
X388000Y218000D02*
D03*
X394000Y211000D02*
D03*
X421000Y147000D02*
D03*
X405000Y206000D02*
D03*
X555000Y287000D02*
D03*
X542000Y296000D02*
D03*
Y305000D02*
D03*
Y313000D02*
D03*
X520000Y403000D02*
D03*
X532000Y412000D02*
D03*
X528000Y426000D02*
D03*
X523000Y433000D02*
D03*
X518000Y439000D02*
D03*
X511000Y445000D02*
D03*
X506000Y450000D02*
D03*
X500000Y415000D02*
D03*
X333000Y256000D02*
D03*
X389765Y265765D02*
D03*
X353273Y261484D02*
D03*
X352000Y272000D02*
D03*
X383000Y277000D02*
D03*
X421000Y137000D02*
D03*
X374000Y129000D02*
D03*
X179000Y493000D02*
D03*
X158000Y364000D02*
D03*
X140000Y325000D02*
D03*
X143000Y315000D02*
D03*
X355000Y209000D02*
D03*
X351000Y285000D02*
D03*
X384000Y229000D02*
D03*
X382000Y238000D02*
D03*
X377000Y272000D02*
D03*
X383000Y287000D02*
D03*
X374000Y293000D02*
D03*
X619000Y300000D02*
D03*
X637000Y285000D02*
D03*
X607000Y289000D02*
D03*
X605000Y280000D02*
D03*
X603000Y240000D02*
D03*
X634000Y330000D02*
D03*
X614000D02*
D03*
X635000Y349000D02*
D03*
X620914Y432000D02*
D03*
X613000Y350000D02*
D03*
X637000Y444000D02*
D03*
X614000Y400000D02*
D03*
Y390000D02*
D03*
X593000Y460000D02*
D03*
X591000Y470000D02*
D03*
X598000Y454000D02*
D03*
X606000Y467000D02*
D03*
X622000D02*
D03*
X603000Y447000D02*
D03*
Y430000D02*
D03*
X598000Y420000D02*
D03*
X830000Y570000D02*
D03*
Y556000D02*
D03*
X664000Y308000D02*
D03*
X724000Y302000D02*
D03*
X603000Y171000D02*
D03*
X609000Y210000D02*
D03*
X663000Y179000D02*
D03*
X662000Y440000D02*
D03*
X764000Y180000D02*
D03*
X737000Y284000D02*
D03*
X863000Y177000D02*
D03*
X837000Y414000D02*
D03*
X661000Y568000D02*
D03*
X764000Y569000D02*
D03*
X864000Y568000D02*
D03*
X729000Y543000D02*
D03*
X737000Y549000D02*
D03*
X630000Y556000D02*
D03*
X684000Y166000D02*
D03*
X765000D02*
D03*
X865000D02*
D03*
X664000Y426000D02*
D03*
X765000D02*
D03*
X886000D02*
D03*
Y556000D02*
D03*
X686000Y296000D02*
D03*
X665000Y166000D02*
D03*
X426000Y58000D02*
D03*
X385000Y70000D02*
D03*
X131000Y94000D02*
D03*
X71000Y149000D02*
D03*
X114000Y94000D02*
D03*
X111000Y66000D02*
D03*
X613000Y20000D02*
D03*
X578500Y18500D02*
D03*
X215300Y462800D02*
D03*
X175000Y444000D02*
D03*
X166000Y434000D02*
D03*
X212000Y433000D02*
D03*
X495000Y333000D02*
D03*
X486000D02*
D03*
X478000D02*
D03*
X469000D02*
D03*
X461000D02*
D03*
X452000D02*
D03*
X376000D02*
D03*
X385000D02*
D03*
X393000D02*
D03*
X401000D02*
D03*
X410000D02*
D03*
X419000D02*
D03*
X427000D02*
D03*
X436000D02*
D03*
X444000D02*
D03*
X466000Y223000D02*
D03*
X479000Y222000D02*
D03*
X463987Y213000D02*
D03*
X224000Y395000D02*
D03*
X254000Y430000D02*
D03*
X244000Y432000D02*
D03*
X83000Y395000D02*
D03*
X101000Y429000D02*
D03*
X68000Y430000D02*
D03*
X323000Y493000D02*
D03*
X331000D02*
D03*
X340000D02*
D03*
X348000D02*
D03*
X357000D02*
D03*
X373000D02*
D03*
X365000D02*
D03*
X382000D02*
D03*
X60000D02*
D03*
X77000D02*
D03*
X85500D02*
D03*
X94000D02*
D03*
X111000D02*
D03*
X119500D02*
D03*
X128000D02*
D03*
X136500D02*
D03*
X145000D02*
D03*
X153500D02*
D03*
X162000D02*
D03*
X170500D02*
D03*
X213000D02*
D03*
X221500D02*
D03*
X230000D02*
D03*
X238500Y492500D02*
D03*
X247000Y493000D02*
D03*
X255500D02*
D03*
X264000D02*
D03*
X50000Y477000D02*
D03*
X545000Y492000D02*
D03*
X16000Y388000D02*
D03*
X33000Y92000D02*
D03*
X31000Y111000D02*
D03*
X31874Y348000D02*
D03*
X665000Y296000D02*
D03*
X777000Y304000D02*
D03*
X765000Y296000D02*
D03*
X887000D02*
D03*
X864000D02*
D03*
X865000Y426000D02*
D03*
X778000Y434000D02*
D03*
X685000Y426000D02*
D03*
X687000Y556000D02*
D03*
X664000D02*
D03*
X786000D02*
D03*
X764000D02*
D03*
X864000D02*
D03*
D102*
X105433Y20323D02*
D03*
Y22882D02*
D03*
Y25441D02*
D03*
Y28000D02*
D03*
Y30559D02*
D03*
Y33118D02*
D03*
Y35677D02*
D03*
X128567D02*
D03*
Y33118D02*
D03*
Y30559D02*
D03*
Y28000D02*
D03*
Y25441D02*
D03*
Y22882D02*
D03*
Y20323D02*
D03*
M02*
