G04*
G04 #@! TF.GenerationSoftware,Altium Limited,Altium Designer,22.3.1 (43)*
G04*
G04 Layer_Color=32896*
%FSLAX25Y25*%
%MOIN*%
G70*
G04*
G04 #@! TF.SameCoordinates,A87CA661-C890-46F0-A320-74F5598AF3CC*
G04*
G04*
G04 #@! TF.FilePolarity,Positive*
G04*
G01*
G75*
%ADD14C,0.00787*%
%ADD16C,0.01000*%
%ADD17C,0.00500*%
D14*
X109716Y18158D02*
X124284D01*
Y37843D01*
X109716D02*
X124284D01*
X109716Y18158D02*
Y37843D01*
X102532Y18059D02*
X108339D01*
X175319Y49343D02*
X181323D01*
X182701Y49972D02*
Y84028D01*
X195299D01*
Y49972D02*
Y84028D01*
X182701Y49972D02*
X195299D01*
D16*
X131600Y46099D02*
Y42766D01*
X130933Y42100D01*
X129601D01*
X128934Y42766D01*
Y46099D01*
X127601Y42100D02*
X126268D01*
X126935D01*
Y46099D01*
X127601Y45432D01*
X124269D02*
X123603Y46099D01*
X122270D01*
X121603Y45432D01*
Y44766D01*
X122270Y44099D01*
X122936D01*
X122270D01*
X121603Y43433D01*
Y42766D01*
X122270Y42100D01*
X123603D01*
X124269Y42766D01*
X202800Y92299D02*
Y88966D01*
X202133Y88300D01*
X200801D01*
X200134Y88966D01*
Y92299D01*
X198801Y88300D02*
X197468D01*
X198135D01*
Y92299D01*
X198801Y91632D01*
X192803Y88300D02*
X195469D01*
X192803Y90966D01*
Y91632D01*
X193470Y92299D01*
X194803D01*
X195469Y91632D01*
X67999Y42998D02*
X64001D01*
Y40999D01*
X64667Y40333D01*
X66000D01*
X66666Y40999D01*
Y42998D01*
Y41666D02*
X67999Y40333D01*
Y39000D02*
Y37667D01*
Y38333D01*
X64001D01*
X64667Y39000D01*
Y35667D02*
X64001Y35001D01*
Y33668D01*
X64667Y33002D01*
X67333D01*
X67999Y33668D01*
Y35001D01*
X67333Y35667D01*
X64667D01*
X74999Y39332D02*
X71001D01*
Y37333D01*
X71667Y36666D01*
X73000D01*
X73666Y37333D01*
Y39332D01*
Y37999D02*
X74999Y36666D01*
X74333Y35333D02*
X74999Y34667D01*
Y33334D01*
X74333Y32668D01*
X71667D01*
X71001Y33334D01*
Y34667D01*
X71667Y35333D01*
X72334D01*
X73000Y34667D01*
Y32668D01*
X60999Y39332D02*
X57001D01*
Y37333D01*
X57667Y36666D01*
X59000D01*
X59666Y37333D01*
Y39332D01*
Y37999D02*
X60999Y36666D01*
X57667Y35333D02*
X57001Y34667D01*
Y33334D01*
X57667Y32668D01*
X58334D01*
X59000Y33334D01*
X59666Y32668D01*
X60333D01*
X60999Y33334D01*
Y34667D01*
X60333Y35333D01*
X59666D01*
X59000Y34667D01*
X58334Y35333D01*
X57667D01*
X59000Y34667D02*
Y33334D01*
X222934Y254132D02*
X223601Y254799D01*
X224934D01*
X225600Y254132D01*
Y251466D01*
X224934Y250800D01*
X223601D01*
X222934Y251466D01*
X221601Y250800D02*
X220268D01*
X220935D01*
Y254799D01*
X221601Y254132D01*
X218269Y254799D02*
X215603D01*
Y254132D01*
X218269Y251466D01*
Y250800D01*
X437499Y351998D02*
X433501D01*
Y349998D01*
X434167Y349332D01*
X435500D01*
X436166Y349998D01*
Y351998D01*
Y350665D02*
X437499Y349332D01*
X434167Y347999D02*
X433501Y347333D01*
Y346000D01*
X434167Y345333D01*
X434833D01*
X435500Y346000D01*
Y346666D01*
Y346000D01*
X436166Y345333D01*
X436833D01*
X437499Y346000D01*
Y347333D01*
X436833Y347999D01*
X437499Y344000D02*
Y342667D01*
Y343334D01*
X433501D01*
X434167Y344000D01*
X433501Y338002D02*
Y340668D01*
X435500D01*
X434833Y339335D01*
Y338669D01*
X435500Y338002D01*
X436833D01*
X437499Y338669D01*
Y340002D01*
X436833Y340668D01*
X445999Y351998D02*
X442001D01*
Y349998D01*
X442667Y349332D01*
X444000D01*
X444666Y349998D01*
Y351998D01*
Y350665D02*
X445999Y349332D01*
X442667Y347999D02*
X442001Y347333D01*
Y346000D01*
X442667Y345333D01*
X443334D01*
X444000Y346000D01*
Y346666D01*
Y346000D01*
X444666Y345333D01*
X445333D01*
X445999Y346000D01*
Y347333D01*
X445333Y347999D01*
X445999Y344000D02*
Y342667D01*
Y343334D01*
X442001D01*
X442667Y344000D01*
X445999Y338669D02*
X442001D01*
X444000Y340668D01*
Y338002D01*
X454499Y351998D02*
X450501D01*
Y349998D01*
X451167Y349332D01*
X452500D01*
X453166Y349998D01*
Y351998D01*
Y350665D02*
X454499Y349332D01*
X451167Y347999D02*
X450501Y347333D01*
Y346000D01*
X451167Y345333D01*
X451833D01*
X452500Y346000D01*
Y346666D01*
Y346000D01*
X453166Y345333D01*
X453833D01*
X454499Y346000D01*
Y347333D01*
X453833Y347999D01*
X454499Y344000D02*
Y342667D01*
Y343334D01*
X450501D01*
X451167Y344000D01*
Y340668D02*
X450501Y340002D01*
Y338669D01*
X451167Y338002D01*
X451833D01*
X452500Y338669D01*
Y339335D01*
Y338669D01*
X453166Y338002D01*
X453833D01*
X454499Y338669D01*
Y340002D01*
X453833Y340668D01*
X462999Y351998D02*
X459001D01*
Y349998D01*
X459667Y349332D01*
X461000D01*
X461666Y349998D01*
Y351998D01*
Y350665D02*
X462999Y349332D01*
X459667Y347999D02*
X459001Y347333D01*
Y346000D01*
X459667Y345333D01*
X460334D01*
X461000Y346000D01*
Y346666D01*
Y346000D01*
X461666Y345333D01*
X462333D01*
X462999Y346000D01*
Y347333D01*
X462333Y347999D01*
X462999Y344000D02*
Y342667D01*
Y343334D01*
X459001D01*
X459667Y344000D01*
X462999Y338002D02*
Y340668D01*
X460334Y338002D01*
X459667D01*
X459001Y338669D01*
Y340002D01*
X459667Y340668D01*
X471499Y351331D02*
X467501D01*
Y349332D01*
X468167Y348665D01*
X469500D01*
X470166Y349332D01*
Y351331D01*
Y349998D02*
X471499Y348665D01*
X468167Y347333D02*
X467501Y346666D01*
Y345333D01*
X468167Y344667D01*
X468833D01*
X469500Y345333D01*
Y346000D01*
Y345333D01*
X470166Y344667D01*
X470833D01*
X471499Y345333D01*
Y346666D01*
X470833Y347333D01*
X471499Y343334D02*
Y342001D01*
Y342667D01*
X467501D01*
X468167Y343334D01*
X471499Y340002D02*
Y338669D01*
Y339335D01*
X467501D01*
X468167Y340002D01*
X479999Y351998D02*
X476001D01*
Y349998D01*
X476667Y349332D01*
X478000D01*
X478666Y349998D01*
Y351998D01*
Y350665D02*
X479999Y349332D01*
X476667Y347999D02*
X476001Y347333D01*
Y346000D01*
X476667Y345333D01*
X477333D01*
X478000Y346000D01*
Y346666D01*
Y346000D01*
X478666Y345333D01*
X479333D01*
X479999Y346000D01*
Y347333D01*
X479333Y347999D01*
X479999Y344000D02*
Y342667D01*
Y343334D01*
X476001D01*
X476667Y344000D01*
Y340668D02*
X476001Y340002D01*
Y338669D01*
X476667Y338002D01*
X479333D01*
X479999Y338669D01*
Y340002D01*
X479333Y340668D01*
X476667D01*
X488499Y352331D02*
X484501D01*
Y350332D01*
X485167Y349665D01*
X486500D01*
X487166Y350332D01*
Y352331D01*
Y350998D02*
X488499Y349665D01*
X485167Y348332D02*
X484501Y347666D01*
Y346333D01*
X485167Y345666D01*
X485834D01*
X486500Y346333D01*
Y346999D01*
Y346333D01*
X487166Y345666D01*
X487833D01*
X488499Y346333D01*
Y347666D01*
X487833Y348332D01*
X485167Y344334D02*
X484501Y343667D01*
Y342334D01*
X485167Y341668D01*
X487833D01*
X488499Y342334D01*
Y343667D01*
X487833Y344334D01*
X485167D01*
X487833Y340335D02*
X488499Y339668D01*
Y338335D01*
X487833Y337669D01*
X485167D01*
X484501Y338335D01*
Y339668D01*
X485167Y340335D01*
X485834D01*
X486500Y339668D01*
Y337669D01*
X496999Y352331D02*
X493001D01*
Y350332D01*
X493667Y349665D01*
X495000D01*
X495667Y350332D01*
Y352331D01*
Y350998D02*
X496999Y349665D01*
X493667Y348332D02*
X493001Y347666D01*
Y346333D01*
X493667Y345666D01*
X494334D01*
X495000Y346333D01*
Y346999D01*
Y346333D01*
X495667Y345666D01*
X496333D01*
X496999Y346333D01*
Y347666D01*
X496333Y348332D01*
X493667Y344334D02*
X493001Y343667D01*
Y342334D01*
X493667Y341668D01*
X496333D01*
X496999Y342334D01*
Y343667D01*
X496333Y344334D01*
X493667D01*
Y340335D02*
X493001Y339668D01*
Y338335D01*
X493667Y337669D01*
X494334D01*
X495000Y338335D01*
X495667Y337669D01*
X496333D01*
X496999Y338335D01*
Y339668D01*
X496333Y340335D01*
X495667D01*
X495000Y339668D01*
X494334Y340335D01*
X493667D01*
X495000Y339668D02*
Y338335D01*
X324499Y506331D02*
X320501D01*
Y504332D01*
X321167Y503665D01*
X322500D01*
X323166Y504332D01*
Y506331D01*
Y504998D02*
X324499Y503665D01*
X321167Y502332D02*
X320501Y501666D01*
Y500333D01*
X321167Y499666D01*
X321834D01*
X322500Y500333D01*
Y500999D01*
Y500333D01*
X323166Y499666D01*
X323833D01*
X324499Y500333D01*
Y501666D01*
X323833Y502332D01*
X321167Y498334D02*
X320501Y497667D01*
Y496334D01*
X321167Y495668D01*
X323833D01*
X324499Y496334D01*
Y497667D01*
X323833Y498334D01*
X321167D01*
X320501Y494335D02*
Y491669D01*
X321167D01*
X323833Y494335D01*
X324499D01*
X332999Y506331D02*
X329001D01*
Y504332D01*
X329667Y503665D01*
X331000D01*
X331666Y504332D01*
Y506331D01*
Y504998D02*
X332999Y503665D01*
X329667Y502332D02*
X329001Y501666D01*
Y500333D01*
X329667Y499666D01*
X330334D01*
X331000Y500333D01*
Y500999D01*
Y500333D01*
X331666Y499666D01*
X332333D01*
X332999Y500333D01*
Y501666D01*
X332333Y502332D01*
X329667Y498334D02*
X329001Y497667D01*
Y496334D01*
X329667Y495668D01*
X332333D01*
X332999Y496334D01*
Y497667D01*
X332333Y498334D01*
X329667D01*
X329001Y491669D02*
X329667Y493002D01*
X331000Y494335D01*
X332333D01*
X332999Y493668D01*
Y492336D01*
X332333Y491669D01*
X331666D01*
X331000Y492336D01*
Y494335D01*
X341499Y506331D02*
X337501D01*
Y504332D01*
X338167Y503665D01*
X339500D01*
X340166Y504332D01*
Y506331D01*
Y504998D02*
X341499Y503665D01*
X338167Y502332D02*
X337501Y501666D01*
Y500333D01*
X338167Y499666D01*
X338834D01*
X339500Y500333D01*
Y500999D01*
Y500333D01*
X340166Y499666D01*
X340833D01*
X341499Y500333D01*
Y501666D01*
X340833Y502332D01*
X338167Y498334D02*
X337501Y497667D01*
Y496334D01*
X338167Y495668D01*
X340833D01*
X341499Y496334D01*
Y497667D01*
X340833Y498334D01*
X338167D01*
X337501Y491669D02*
Y494335D01*
X339500D01*
X338834Y493002D01*
Y492336D01*
X339500Y491669D01*
X340833D01*
X341499Y492336D01*
Y493668D01*
X340833Y494335D01*
X349999Y506331D02*
X346001D01*
Y504332D01*
X346667Y503665D01*
X348000D01*
X348666Y504332D01*
Y506331D01*
Y504998D02*
X349999Y503665D01*
X346667Y502332D02*
X346001Y501666D01*
Y500333D01*
X346667Y499666D01*
X347334D01*
X348000Y500333D01*
Y500999D01*
Y500333D01*
X348666Y499666D01*
X349333D01*
X349999Y500333D01*
Y501666D01*
X349333Y502332D01*
X346667Y498334D02*
X346001Y497667D01*
Y496334D01*
X346667Y495668D01*
X349333D01*
X349999Y496334D01*
Y497667D01*
X349333Y498334D01*
X346667D01*
X349999Y492336D02*
X346001D01*
X348000Y494335D01*
Y491669D01*
X358499Y506331D02*
X354501D01*
Y504332D01*
X355167Y503665D01*
X356500D01*
X357166Y504332D01*
Y506331D01*
Y504998D02*
X358499Y503665D01*
X355167Y502332D02*
X354501Y501666D01*
Y500333D01*
X355167Y499666D01*
X355834D01*
X356500Y500333D01*
Y500999D01*
Y500333D01*
X357166Y499666D01*
X357833D01*
X358499Y500333D01*
Y501666D01*
X357833Y502332D01*
X355167Y498334D02*
X354501Y497667D01*
Y496334D01*
X355167Y495668D01*
X357833D01*
X358499Y496334D01*
Y497667D01*
X357833Y498334D01*
X355167D01*
Y494335D02*
X354501Y493668D01*
Y492336D01*
X355167Y491669D01*
X355834D01*
X356500Y492336D01*
Y493002D01*
Y492336D01*
X357166Y491669D01*
X357833D01*
X358499Y492336D01*
Y493668D01*
X357833Y494335D01*
X366999Y506331D02*
X363001D01*
Y504332D01*
X363667Y503665D01*
X365000D01*
X365666Y504332D01*
Y506331D01*
Y504998D02*
X366999Y503665D01*
X363667Y502332D02*
X363001Y501666D01*
Y500333D01*
X363667Y499666D01*
X364334D01*
X365000Y500333D01*
Y500999D01*
Y500333D01*
X365666Y499666D01*
X366333D01*
X366999Y500333D01*
Y501666D01*
X366333Y502332D01*
X363667Y498334D02*
X363001Y497667D01*
Y496334D01*
X363667Y495668D01*
X366333D01*
X366999Y496334D01*
Y497667D01*
X366333Y498334D01*
X363667D01*
X366999Y491669D02*
Y494335D01*
X364334Y491669D01*
X363667D01*
X363001Y492336D01*
Y493668D01*
X363667Y494335D01*
X375499Y505664D02*
X371501D01*
Y503665D01*
X372167Y502999D01*
X373500D01*
X374166Y503665D01*
Y505664D01*
Y504332D02*
X375499Y502999D01*
X372167Y501666D02*
X371501Y500999D01*
Y499666D01*
X372167Y499000D01*
X372834D01*
X373500Y499666D01*
Y500333D01*
Y499666D01*
X374166Y499000D01*
X374833D01*
X375499Y499666D01*
Y500999D01*
X374833Y501666D01*
X372167Y497667D02*
X371501Y497001D01*
Y495668D01*
X372167Y495001D01*
X374833D01*
X375499Y495668D01*
Y497001D01*
X374833Y497667D01*
X372167D01*
X375499Y493668D02*
Y492336D01*
Y493002D01*
X371501D01*
X372167Y493668D01*
X383999Y506331D02*
X380001D01*
Y504332D01*
X380667Y503665D01*
X382000D01*
X382666Y504332D01*
Y506331D01*
Y504998D02*
X383999Y503665D01*
X380667Y502332D02*
X380001Y501666D01*
Y500333D01*
X380667Y499666D01*
X381334D01*
X382000Y500333D01*
Y500999D01*
Y500333D01*
X382666Y499666D01*
X383333D01*
X383999Y500333D01*
Y501666D01*
X383333Y502332D01*
X380667Y498334D02*
X380001Y497667D01*
Y496334D01*
X380667Y495668D01*
X383333D01*
X383999Y496334D01*
Y497667D01*
X383333Y498334D01*
X380667D01*
Y494335D02*
X380001Y493668D01*
Y492336D01*
X380667Y491669D01*
X383333D01*
X383999Y492336D01*
Y493668D01*
X383333Y494335D01*
X380667D01*
X281999Y448331D02*
X278001D01*
Y446332D01*
X278667Y445665D01*
X280000D01*
X280666Y446332D01*
Y448331D01*
Y446998D02*
X281999Y445665D01*
Y441666D02*
Y444332D01*
X279334Y441666D01*
X278667D01*
X278001Y442333D01*
Y443666D01*
X278667Y444332D01*
X281333Y440334D02*
X281999Y439667D01*
Y438334D01*
X281333Y437668D01*
X278667D01*
X278001Y438334D01*
Y439667D01*
X278667Y440334D01*
X279334D01*
X280000Y439667D01*
Y437668D01*
X278001Y433669D02*
X278667Y435002D01*
X280000Y436335D01*
X281333D01*
X281999Y435668D01*
Y434336D01*
X281333Y433669D01*
X280666D01*
X280000Y434336D01*
Y436335D01*
X315999Y449331D02*
X312001D01*
Y447332D01*
X312667Y446665D01*
X314000D01*
X314666Y447332D01*
Y449331D01*
Y447998D02*
X315999Y446665D01*
Y442666D02*
Y445332D01*
X313334Y442666D01*
X312667D01*
X312001Y443333D01*
Y444666D01*
X312667Y445332D01*
X315333Y441333D02*
X315999Y440667D01*
Y439334D01*
X315333Y438668D01*
X312667D01*
X312001Y439334D01*
Y440667D01*
X312667Y441333D01*
X313334D01*
X314000Y440667D01*
Y438668D01*
X315999Y435335D02*
X312001D01*
X314000Y437335D01*
Y434669D01*
X307999Y448331D02*
X304001D01*
Y446332D01*
X304667Y445665D01*
X306000D01*
X306666Y446332D01*
Y448331D01*
Y446998D02*
X307999Y445665D01*
Y441666D02*
Y444332D01*
X305334Y441666D01*
X304667D01*
X304001Y442333D01*
Y443666D01*
X304667Y444332D01*
X307333Y440334D02*
X307999Y439667D01*
Y438334D01*
X307333Y437668D01*
X304667D01*
X304001Y438334D01*
Y439667D01*
X304667Y440334D01*
X305334D01*
X306000Y439667D01*
Y437668D01*
X307999Y433669D02*
Y436335D01*
X305334Y433669D01*
X304667D01*
X304001Y434336D01*
Y435668D01*
X304667Y436335D01*
X298999Y448331D02*
X295001D01*
Y446332D01*
X295667Y445665D01*
X297000D01*
X297666Y446332D01*
Y448331D01*
Y446998D02*
X298999Y445665D01*
Y441666D02*
Y444332D01*
X296334Y441666D01*
X295667D01*
X295001Y442333D01*
Y443666D01*
X295667Y444332D01*
X298333Y440334D02*
X298999Y439667D01*
Y438334D01*
X298333Y437668D01*
X295667D01*
X295001Y438334D01*
Y439667D01*
X295667Y440334D01*
X296334D01*
X297000Y439667D01*
Y437668D01*
X295667Y436335D02*
X295001Y435668D01*
Y434336D01*
X295667Y433669D01*
X298333D01*
X298999Y434336D01*
Y435668D01*
X298333Y436335D01*
X295667D01*
X289999Y448331D02*
X286001D01*
Y446332D01*
X286667Y445665D01*
X288000D01*
X288666Y446332D01*
Y448331D01*
Y446998D02*
X289999Y445665D01*
Y441666D02*
Y444332D01*
X287334Y441666D01*
X286667D01*
X286001Y442333D01*
Y443666D01*
X286667Y444332D01*
Y440334D02*
X286001Y439667D01*
Y438334D01*
X286667Y437668D01*
X287334D01*
X288000Y438334D01*
X288666Y437668D01*
X289333D01*
X289999Y438334D01*
Y439667D01*
X289333Y440334D01*
X288666D01*
X288000Y439667D01*
X287334Y440334D01*
X286667D01*
X288000Y439667D02*
Y438334D01*
X286667Y436335D02*
X286001Y435668D01*
Y434336D01*
X286667Y433669D01*
X287334D01*
X288000Y434336D01*
X288666Y433669D01*
X289333D01*
X289999Y434336D01*
Y435668D01*
X289333Y436335D01*
X288666D01*
X288000Y435668D01*
X287334Y436335D01*
X286667D01*
X288000Y435668D02*
Y434336D01*
X859800Y302100D02*
Y306099D01*
X857801D01*
X857134Y305432D01*
Y304099D01*
X857801Y303433D01*
X859800D01*
X858467D02*
X857134Y302100D01*
X853135D02*
X855801D01*
X853135Y304766D01*
Y305432D01*
X853802Y306099D01*
X855135D01*
X855801Y305432D01*
X851803D02*
X851136Y306099D01*
X849803D01*
X849137Y305432D01*
Y304766D01*
X849803Y304099D01*
X849137Y303433D01*
Y302766D01*
X849803Y302100D01*
X851136D01*
X851803Y302766D01*
Y303433D01*
X851136Y304099D01*
X851803Y304766D01*
Y305432D01*
X851136Y304099D02*
X849803D01*
X845138Y306099D02*
X846471Y305432D01*
X847804Y304099D01*
Y302766D01*
X847137Y302100D01*
X845805D01*
X845138Y302766D01*
Y303433D01*
X845805Y304099D01*
X847804D01*
X659800Y172100D02*
Y176099D01*
X657801D01*
X657134Y175432D01*
Y174099D01*
X657801Y173433D01*
X659800D01*
X658467D02*
X657134Y172100D01*
X653135D02*
X655801D01*
X653135Y174766D01*
Y175432D01*
X653802Y176099D01*
X655135D01*
X655801Y175432D01*
X651803D02*
X651136Y176099D01*
X649803D01*
X649137Y175432D01*
Y174766D01*
X649803Y174099D01*
X649137Y173433D01*
Y172766D01*
X649803Y172100D01*
X651136D01*
X651803Y172766D01*
Y173433D01*
X651136Y174099D01*
X651803Y174766D01*
Y175432D01*
X651136Y174099D02*
X649803D01*
X645138Y176099D02*
X647804D01*
Y174099D01*
X646471Y174766D01*
X645805D01*
X645138Y174099D01*
Y172766D01*
X645805Y172100D01*
X647137D01*
X647804Y172766D01*
X759800Y172100D02*
Y176099D01*
X757801D01*
X757134Y175432D01*
Y174099D01*
X757801Y173433D01*
X759800D01*
X758467D02*
X757134Y172100D01*
X753135D02*
X755801D01*
X753135Y174766D01*
Y175432D01*
X753802Y176099D01*
X755135D01*
X755801Y175432D01*
X751803D02*
X751136Y176099D01*
X749803D01*
X749137Y175432D01*
Y174766D01*
X749803Y174099D01*
X749137Y173433D01*
Y172766D01*
X749803Y172100D01*
X751136D01*
X751803Y172766D01*
Y173433D01*
X751136Y174099D01*
X751803Y174766D01*
Y175432D01*
X751136Y174099D02*
X749803D01*
X745805Y172100D02*
Y176099D01*
X747804Y174099D01*
X745138D01*
X859800Y172100D02*
Y176099D01*
X857801D01*
X857134Y175432D01*
Y174099D01*
X857801Y173433D01*
X859800D01*
X858467D02*
X857134Y172100D01*
X853135D02*
X855801D01*
X853135Y174766D01*
Y175432D01*
X853802Y176099D01*
X855135D01*
X855801Y175432D01*
X851803D02*
X851136Y176099D01*
X849803D01*
X849137Y175432D01*
Y174766D01*
X849803Y174099D01*
X849137Y173433D01*
Y172766D01*
X849803Y172100D01*
X851136D01*
X851803Y172766D01*
Y173433D01*
X851136Y174099D01*
X851803Y174766D01*
Y175432D01*
X851136Y174099D02*
X849803D01*
X847804Y175432D02*
X847137Y176099D01*
X845805D01*
X845138Y175432D01*
Y174766D01*
X845805Y174099D01*
X846471D01*
X845805D01*
X845138Y173433D01*
Y172766D01*
X845805Y172100D01*
X847137D01*
X847804Y172766D01*
X879800Y302100D02*
Y306099D01*
X877801D01*
X877134Y305432D01*
Y304099D01*
X877801Y303433D01*
X879800D01*
X878467D02*
X877134Y302100D01*
X873135D02*
X875801D01*
X873135Y304766D01*
Y305432D01*
X873802Y306099D01*
X875135D01*
X875801Y305432D01*
X871803D02*
X871136Y306099D01*
X869803D01*
X869137Y305432D01*
Y304766D01*
X869803Y304099D01*
X869137Y303433D01*
Y302766D01*
X869803Y302100D01*
X871136D01*
X871803Y302766D01*
Y303433D01*
X871136Y304099D01*
X871803Y304766D01*
Y305432D01*
X871136Y304099D02*
X869803D01*
X865138Y302100D02*
X867804D01*
X865138Y304766D01*
Y305432D01*
X865804Y306099D01*
X867137D01*
X867804Y305432D01*
X679800Y172100D02*
Y176099D01*
X677801D01*
X677134Y175432D01*
Y174099D01*
X677801Y173433D01*
X679800D01*
X678467D02*
X677134Y172100D01*
X673136D02*
X675801D01*
X673136Y174766D01*
Y175432D01*
X673802Y176099D01*
X675135D01*
X675801Y175432D01*
X671803D02*
X671136Y176099D01*
X669803D01*
X669137Y175432D01*
Y174766D01*
X669803Y174099D01*
X669137Y173433D01*
Y172766D01*
X669803Y172100D01*
X671136D01*
X671803Y172766D01*
Y173433D01*
X671136Y174099D01*
X671803Y174766D01*
Y175432D01*
X671136Y174099D02*
X669803D01*
X667804Y172100D02*
X666471D01*
X667137D01*
Y176099D01*
X667804Y175432D01*
X779800Y172100D02*
Y176099D01*
X777801D01*
X777134Y175432D01*
Y174099D01*
X777801Y173433D01*
X779800D01*
X778467D02*
X777134Y172100D01*
X773136D02*
X775801D01*
X773136Y174766D01*
Y175432D01*
X773802Y176099D01*
X775135D01*
X775801Y175432D01*
X771803D02*
X771136Y176099D01*
X769803D01*
X769137Y175432D01*
Y174766D01*
X769803Y174099D01*
X769137Y173433D01*
Y172766D01*
X769803Y172100D01*
X771136D01*
X771803Y172766D01*
Y173433D01*
X771136Y174099D01*
X771803Y174766D01*
Y175432D01*
X771136Y174099D02*
X769803D01*
X767804Y175432D02*
X767137Y176099D01*
X765804D01*
X765138Y175432D01*
Y172766D01*
X765804Y172100D01*
X767137D01*
X767804Y172766D01*
Y175432D01*
X879800Y172100D02*
Y176099D01*
X877801D01*
X877134Y175432D01*
Y174099D01*
X877801Y173433D01*
X879800D01*
X878467D02*
X877134Y172100D01*
X873135D02*
X875801D01*
X873135Y174766D01*
Y175432D01*
X873802Y176099D01*
X875135D01*
X875801Y175432D01*
X871803Y176099D02*
X869137D01*
Y175432D01*
X871803Y172766D01*
Y172100D01*
X867804Y172766D02*
X867137Y172100D01*
X865804D01*
X865138Y172766D01*
Y175432D01*
X865804Y176099D01*
X867137D01*
X867804Y175432D01*
Y174766D01*
X867137Y174099D01*
X865138D01*
X281999Y505331D02*
X278001D01*
Y503332D01*
X278667Y502665D01*
X280000D01*
X280666Y503332D01*
Y505331D01*
Y503998D02*
X281999Y502665D01*
Y498666D02*
Y501332D01*
X279334Y498666D01*
X278667D01*
X278001Y499333D01*
Y500666D01*
X278667Y501332D01*
X278001Y497333D02*
Y494668D01*
X278667D01*
X281333Y497333D01*
X281999D01*
X278667Y493335D02*
X278001Y492668D01*
Y491335D01*
X278667Y490669D01*
X279334D01*
X280000Y491335D01*
X280666Y490669D01*
X281333D01*
X281999Y491335D01*
Y492668D01*
X281333Y493335D01*
X280666D01*
X280000Y492668D01*
X279334Y493335D01*
X278667D01*
X280000Y492668D02*
Y491335D01*
X314999Y505331D02*
X311001D01*
Y503332D01*
X311667Y502665D01*
X313000D01*
X313666Y503332D01*
Y505331D01*
Y503998D02*
X314999Y502665D01*
Y498666D02*
Y501332D01*
X312334Y498666D01*
X311667D01*
X311001Y499333D01*
Y500666D01*
X311667Y501332D01*
X311001Y497333D02*
Y494668D01*
X311667D01*
X314333Y497333D01*
X314999D01*
X311001Y493335D02*
Y490669D01*
X311667D01*
X314333Y493335D01*
X314999D01*
X306999Y505331D02*
X303001D01*
Y503332D01*
X303667Y502665D01*
X305000D01*
X305666Y503332D01*
Y505331D01*
Y503998D02*
X306999Y502665D01*
Y498666D02*
Y501332D01*
X304334Y498666D01*
X303667D01*
X303001Y499333D01*
Y500666D01*
X303667Y501332D01*
X303001Y497333D02*
Y494668D01*
X303667D01*
X306333Y497333D01*
X306999D01*
X303001Y490669D02*
X303667Y492002D01*
X305000Y493335D01*
X306333D01*
X306999Y492668D01*
Y491335D01*
X306333Y490669D01*
X305666D01*
X305000Y491335D01*
Y493335D01*
X298999Y505331D02*
X295001D01*
Y503332D01*
X295667Y502665D01*
X297000D01*
X297666Y503332D01*
Y505331D01*
Y503998D02*
X298999Y502665D01*
Y498666D02*
Y501332D01*
X296334Y498666D01*
X295667D01*
X295001Y499333D01*
Y500666D01*
X295667Y501332D01*
X295001Y497333D02*
Y494668D01*
X295667D01*
X298333Y497333D01*
X298999D01*
X295001Y490669D02*
Y493335D01*
X297000D01*
X296334Y492002D01*
Y491335D01*
X297000Y490669D01*
X298333D01*
X298999Y491335D01*
Y492668D01*
X298333Y493335D01*
X290999Y505331D02*
X287001D01*
Y503332D01*
X287667Y502665D01*
X289000D01*
X289666Y503332D01*
Y505331D01*
Y503998D02*
X290999Y502665D01*
Y498666D02*
Y501332D01*
X288334Y498666D01*
X287667D01*
X287001Y499333D01*
Y500666D01*
X287667Y501332D01*
X287001Y497333D02*
Y494668D01*
X287667D01*
X290333Y497333D01*
X290999D01*
Y491335D02*
X287001D01*
X289000Y493335D01*
Y490669D01*
X400999Y505998D02*
X397001D01*
Y503998D01*
X397667Y503332D01*
X399000D01*
X399666Y503998D01*
Y505998D01*
Y504665D02*
X400999Y503332D01*
Y501999D02*
Y500666D01*
Y501333D01*
X397001D01*
X397667Y501999D01*
Y498667D02*
X397001Y498000D01*
Y496667D01*
X397667Y496001D01*
X398334D01*
X399000Y496667D01*
Y497334D01*
Y496667D01*
X399666Y496001D01*
X400333D01*
X400999Y496667D01*
Y498000D01*
X400333Y498667D01*
X397001Y492002D02*
X397667Y493335D01*
X399000Y494668D01*
X400333D01*
X400999Y494002D01*
Y492669D01*
X400333Y492002D01*
X399666D01*
X399000Y492669D01*
Y494668D01*
X392499Y506498D02*
X388501D01*
Y504498D01*
X389167Y503832D01*
X390500D01*
X391166Y504498D01*
Y506498D01*
Y505165D02*
X392499Y503832D01*
Y502499D02*
Y501166D01*
Y501833D01*
X388501D01*
X389167Y502499D01*
Y499167D02*
X388501Y498500D01*
Y497167D01*
X389167Y496501D01*
X389833D01*
X390500Y497167D01*
Y497834D01*
Y497167D01*
X391166Y496501D01*
X391833D01*
X392499Y497167D01*
Y498500D01*
X391833Y499167D01*
X388501Y492502D02*
Y495168D01*
X390500D01*
X389833Y493835D01*
Y493169D01*
X390500Y492502D01*
X391833D01*
X392499Y493169D01*
Y494502D01*
X391833Y495168D01*
X659800Y562100D02*
Y566099D01*
X657801D01*
X657134Y565432D01*
Y564099D01*
X657801Y563433D01*
X659800D01*
X658467D02*
X657134Y562100D01*
X655801D02*
X654468D01*
X655135D01*
Y566099D01*
X655801Y565432D01*
X649803Y562100D02*
X652469D01*
X649803Y564766D01*
Y565432D01*
X650470Y566099D01*
X651803D01*
X652469Y565432D01*
X645805Y566099D02*
X647137Y565432D01*
X648470Y564099D01*
Y562766D01*
X647804Y562100D01*
X646471D01*
X645805Y562766D01*
Y563433D01*
X646471Y564099D01*
X648470D01*
X759800Y562100D02*
Y566099D01*
X757801D01*
X757134Y565432D01*
Y564099D01*
X757801Y563433D01*
X759800D01*
X758467D02*
X757134Y562100D01*
X755801D02*
X754468D01*
X755135D01*
Y566099D01*
X755801Y565432D01*
X749803Y562100D02*
X752469D01*
X749803Y564766D01*
Y565432D01*
X750470Y566099D01*
X751803D01*
X752469Y565432D01*
X745805Y566099D02*
X748470D01*
Y564099D01*
X747137Y564766D01*
X746471D01*
X745805Y564099D01*
Y562766D01*
X746471Y562100D01*
X747804D01*
X748470Y562766D01*
X859998Y560001D02*
Y563999D01*
X857998D01*
X857332Y563333D01*
Y562000D01*
X857998Y561334D01*
X859998D01*
X858665D02*
X857332Y560001D01*
X855999D02*
X854666D01*
X855333D01*
Y563999D01*
X855999Y563333D01*
X850001Y560001D02*
X852667D01*
X850001Y562666D01*
Y563333D01*
X850667Y563999D01*
X852000D01*
X852667Y563333D01*
X846669Y560001D02*
Y563999D01*
X848668Y562000D01*
X846002D01*
X659998Y432001D02*
Y435999D01*
X657998D01*
X657332Y435333D01*
Y434000D01*
X657998Y433334D01*
X659998D01*
X658665D02*
X657332Y432001D01*
X655999D02*
X654666D01*
X655333D01*
Y435999D01*
X655999Y435333D01*
X650001Y432001D02*
X652667D01*
X650001Y434666D01*
Y435333D01*
X650667Y435999D01*
X652000D01*
X652667Y435333D01*
X648668D02*
X648002Y435999D01*
X646669D01*
X646002Y435333D01*
Y434666D01*
X646669Y434000D01*
X647335D01*
X646669D01*
X646002Y433334D01*
Y432667D01*
X646669Y432001D01*
X648002D01*
X648668Y432667D01*
X759800Y432100D02*
Y436099D01*
X757801D01*
X757134Y435432D01*
Y434099D01*
X757801Y433433D01*
X759800D01*
X758467D02*
X757134Y432100D01*
X755801D02*
X754468D01*
X755135D01*
Y436099D01*
X755801Y435432D01*
X749803Y432100D02*
X752469D01*
X749803Y434766D01*
Y435432D01*
X750470Y436099D01*
X751803D01*
X752469Y435432D01*
X745805Y432100D02*
X748470D01*
X745805Y434766D01*
Y435432D01*
X746471Y436099D01*
X747804D01*
X748470Y435432D01*
X859800Y432100D02*
Y436099D01*
X857801D01*
X857134Y435432D01*
Y434099D01*
X857801Y433433D01*
X859800D01*
X858467D02*
X857134Y432100D01*
X855801D02*
X854468D01*
X855135D01*
Y436099D01*
X855801Y435432D01*
X849803Y432100D02*
X852469D01*
X849803Y434766D01*
Y435432D01*
X850470Y436099D01*
X851803D01*
X852469Y435432D01*
X848470Y432100D02*
X847137D01*
X847804D01*
Y436099D01*
X848470Y435432D01*
X659800Y302100D02*
Y306099D01*
X657801D01*
X657134Y305432D01*
Y304099D01*
X657801Y303433D01*
X659800D01*
X658467D02*
X657134Y302100D01*
X655801D02*
X654468D01*
X655135D01*
Y306099D01*
X655801Y305432D01*
X649803Y302100D02*
X652469D01*
X649803Y304766D01*
Y305432D01*
X650470Y306099D01*
X651803D01*
X652469Y305432D01*
X648470D02*
X647804Y306099D01*
X646471D01*
X645805Y305432D01*
Y302766D01*
X646471Y302100D01*
X647804D01*
X648470Y302766D01*
Y305432D01*
X759800Y302100D02*
Y306099D01*
X757801D01*
X757134Y305432D01*
Y304099D01*
X757801Y303433D01*
X759800D01*
X758467D02*
X757134Y302100D01*
X755801D02*
X754468D01*
X755135D01*
Y306099D01*
X755801Y305432D01*
X752469Y302100D02*
X751136D01*
X751803D01*
Y306099D01*
X752469Y305432D01*
X749137Y302766D02*
X748470Y302100D01*
X747137D01*
X746471Y302766D01*
Y305432D01*
X747137Y306099D01*
X748470D01*
X749137Y305432D01*
Y304766D01*
X748470Y304099D01*
X746471D01*
X428999Y351664D02*
X425001D01*
Y349665D01*
X425667Y348999D01*
X427000D01*
X427666Y349665D01*
Y351664D01*
Y350332D02*
X428999Y348999D01*
Y347666D02*
Y346333D01*
Y346999D01*
X425001D01*
X425667Y347666D01*
X428999Y344334D02*
Y343001D01*
Y343667D01*
X425001D01*
X425667Y344334D01*
Y341001D02*
X425001Y340335D01*
Y339002D01*
X425667Y338335D01*
X426334D01*
X427000Y339002D01*
X427666Y338335D01*
X428333D01*
X428999Y339002D01*
Y340335D01*
X428333Y341001D01*
X427666D01*
X427000Y340335D01*
X426334Y341001D01*
X425667D01*
X427000Y340335D02*
Y339002D01*
X420499Y351664D02*
X416501D01*
Y349665D01*
X417167Y348999D01*
X418500D01*
X419166Y349665D01*
Y351664D01*
Y350332D02*
X420499Y348999D01*
Y347666D02*
Y346333D01*
Y346999D01*
X416501D01*
X417167Y347666D01*
X420499Y344334D02*
Y343001D01*
Y343667D01*
X416501D01*
X417167Y344334D01*
X416501Y341001D02*
Y338335D01*
X417167D01*
X419833Y341001D01*
X420499D01*
X411999Y351664D02*
X408001D01*
Y349665D01*
X408667Y348999D01*
X410000D01*
X410666Y349665D01*
Y351664D01*
Y350332D02*
X411999Y348999D01*
Y347666D02*
Y346333D01*
Y346999D01*
X408001D01*
X408667Y347666D01*
X411999Y344334D02*
Y343001D01*
Y343667D01*
X408001D01*
X408667Y344334D01*
X408001Y338335D02*
X408667Y339668D01*
X410000Y341001D01*
X411333D01*
X411999Y340335D01*
Y339002D01*
X411333Y338335D01*
X410666D01*
X410000Y339002D01*
Y341001D01*
X377999Y351664D02*
X374001D01*
Y349665D01*
X374667Y348999D01*
X376000D01*
X376666Y349665D01*
Y351664D01*
Y350332D02*
X377999Y348999D01*
Y347666D02*
Y346333D01*
Y346999D01*
X374001D01*
X374667Y347666D01*
X377999Y344334D02*
Y343001D01*
Y343667D01*
X374001D01*
X374667Y344334D01*
X374001Y338335D02*
Y341001D01*
X376000D01*
X375334Y339668D01*
Y339002D01*
X376000Y338335D01*
X377333D01*
X377999Y339002D01*
Y340335D01*
X377333Y341001D01*
X386499Y351664D02*
X382501D01*
Y349665D01*
X383167Y348999D01*
X384500D01*
X385166Y349665D01*
Y351664D01*
Y350332D02*
X386499Y348999D01*
Y347666D02*
Y346333D01*
Y346999D01*
X382501D01*
X383167Y347666D01*
X386499Y344334D02*
Y343001D01*
Y343667D01*
X382501D01*
X383167Y344334D01*
X386499Y339002D02*
X382501D01*
X384500Y341001D01*
Y338335D01*
X394999Y351664D02*
X391001D01*
Y349665D01*
X391667Y348999D01*
X393000D01*
X393666Y349665D01*
Y351664D01*
Y350332D02*
X394999Y348999D01*
Y347666D02*
Y346333D01*
Y346999D01*
X391001D01*
X391667Y347666D01*
X394999Y344334D02*
Y343001D01*
Y343667D01*
X391001D01*
X391667Y344334D01*
Y341001D02*
X391001Y340335D01*
Y339002D01*
X391667Y338335D01*
X392334D01*
X393000Y339002D01*
Y339668D01*
Y339002D01*
X393666Y338335D01*
X394333D01*
X394999Y339002D01*
Y340335D01*
X394333Y341001D01*
X403499Y351664D02*
X399501D01*
Y349665D01*
X400167Y348999D01*
X401500D01*
X402166Y349665D01*
Y351664D01*
Y350332D02*
X403499Y348999D01*
Y347666D02*
Y346333D01*
Y346999D01*
X399501D01*
X400167Y347666D01*
X403499Y344334D02*
Y343001D01*
Y343667D01*
X399501D01*
X400167Y344334D01*
X403499Y338335D02*
Y341001D01*
X400834Y338335D01*
X400167D01*
X399501Y339002D01*
Y340335D01*
X400167Y341001D01*
X205999Y504998D02*
X202001D01*
Y502998D01*
X202667Y502332D01*
X204000D01*
X204666Y502998D01*
Y504998D01*
Y503665D02*
X205999Y502332D01*
Y500999D02*
Y499666D01*
Y500333D01*
X202001D01*
X202667Y500999D01*
Y497667D02*
X202001Y497000D01*
Y495667D01*
X202667Y495001D01*
X205333D01*
X205999Y495667D01*
Y497000D01*
X205333Y497667D01*
X202667D01*
Y493668D02*
X202001Y493002D01*
Y491669D01*
X202667Y491002D01*
X203333D01*
X204000Y491669D01*
Y492335D01*
Y491669D01*
X204666Y491002D01*
X205333D01*
X205999Y491669D01*
Y493002D01*
X205333Y493668D01*
X213999Y504998D02*
X210001D01*
Y502998D01*
X210667Y502332D01*
X212000D01*
X212666Y502998D01*
Y504998D01*
Y503665D02*
X213999Y502332D01*
Y500999D02*
Y499666D01*
Y500333D01*
X210001D01*
X210667Y500999D01*
Y497667D02*
X210001Y497000D01*
Y495667D01*
X210667Y495001D01*
X213333D01*
X213999Y495667D01*
Y497000D01*
X213333Y497667D01*
X210667D01*
X213999Y491002D02*
Y493668D01*
X211333Y491002D01*
X210667D01*
X210001Y491669D01*
Y493002D01*
X210667Y493668D01*
X222999Y504331D02*
X219001D01*
Y502332D01*
X219667Y501665D01*
X221000D01*
X221666Y502332D01*
Y504331D01*
Y502998D02*
X222999Y501665D01*
Y500333D02*
Y499000D01*
Y499666D01*
X219001D01*
X219667Y500333D01*
Y497000D02*
X219001Y496334D01*
Y495001D01*
X219667Y494335D01*
X222333D01*
X222999Y495001D01*
Y496334D01*
X222333Y497000D01*
X219667D01*
X222999Y493002D02*
Y491669D01*
Y492335D01*
X219001D01*
X219667Y493002D01*
X231999Y503998D02*
X228001D01*
Y501998D01*
X228667Y501332D01*
X230000D01*
X230666Y501998D01*
Y503998D01*
Y502665D02*
X231999Y501332D01*
Y499999D02*
Y498666D01*
Y499333D01*
X228001D01*
X228667Y499999D01*
Y496667D02*
X228001Y496000D01*
Y494667D01*
X228667Y494001D01*
X231333D01*
X231999Y494667D01*
Y496000D01*
X231333Y496667D01*
X228667D01*
Y492668D02*
X228001Y492002D01*
Y490669D01*
X228667Y490002D01*
X231333D01*
X231999Y490669D01*
Y492002D01*
X231333Y492668D01*
X228667D01*
X239999Y503332D02*
X236001D01*
Y501332D01*
X236667Y500666D01*
X238000D01*
X238666Y501332D01*
Y503332D01*
Y501999D02*
X239999Y500666D01*
X239333Y499333D02*
X239999Y498666D01*
Y497334D01*
X239333Y496667D01*
X236667D01*
X236001Y497334D01*
Y498666D01*
X236667Y499333D01*
X237333D01*
X238000Y498666D01*
Y496667D01*
X239333Y495334D02*
X239999Y494668D01*
Y493335D01*
X239333Y492668D01*
X236667D01*
X236001Y493335D01*
Y494668D01*
X236667Y495334D01*
X237333D01*
X238000Y494668D01*
Y492668D01*
X248999Y503332D02*
X245001D01*
Y501332D01*
X245667Y500666D01*
X247000D01*
X247666Y501332D01*
Y503332D01*
Y501999D02*
X248999Y500666D01*
X248333Y499333D02*
X248999Y498666D01*
Y497334D01*
X248333Y496667D01*
X245667D01*
X245001Y497334D01*
Y498666D01*
X245667Y499333D01*
X246334D01*
X247000Y498666D01*
Y496667D01*
X245667Y495334D02*
X245001Y494668D01*
Y493335D01*
X245667Y492668D01*
X246334D01*
X247000Y493335D01*
X247666Y492668D01*
X248333D01*
X248999Y493335D01*
Y494668D01*
X248333Y495334D01*
X247666D01*
X247000Y494668D01*
X246334Y495334D01*
X245667D01*
X247000Y494668D02*
Y493335D01*
X256999Y503332D02*
X253001D01*
Y501332D01*
X253667Y500666D01*
X255000D01*
X255666Y501332D01*
Y503332D01*
Y501999D02*
X256999Y500666D01*
X256333Y499333D02*
X256999Y498666D01*
Y497334D01*
X256333Y496667D01*
X253667D01*
X253001Y497334D01*
Y498666D01*
X253667Y499333D01*
X254333D01*
X255000Y498666D01*
Y496667D01*
X253001Y495334D02*
Y492668D01*
X253667D01*
X256333Y495334D01*
X256999D01*
X265999Y503332D02*
X262001D01*
Y501332D01*
X262667Y500666D01*
X264000D01*
X264666Y501332D01*
Y503332D01*
Y501999D02*
X265999Y500666D01*
X265333Y499333D02*
X265999Y498666D01*
Y497334D01*
X265333Y496667D01*
X262667D01*
X262001Y497334D01*
Y498666D01*
X262667Y499333D01*
X263334D01*
X264000Y498666D01*
Y496667D01*
X262001Y492668D02*
X262667Y494001D01*
X264000Y495334D01*
X265333D01*
X265999Y494668D01*
Y493335D01*
X265333Y492668D01*
X264666D01*
X264000Y493335D01*
Y495334D01*
X61999Y502332D02*
X58001D01*
Y500332D01*
X58667Y499666D01*
X60000D01*
X60666Y500332D01*
Y502332D01*
Y500999D02*
X61999Y499666D01*
X61333Y498333D02*
X61999Y497666D01*
Y496334D01*
X61333Y495667D01*
X58667D01*
X58001Y496334D01*
Y497666D01*
X58667Y498333D01*
X59333D01*
X60000Y497666D01*
Y495667D01*
X58001Y491668D02*
Y494334D01*
X60000D01*
X59333Y493001D01*
Y492335D01*
X60000Y491668D01*
X61333D01*
X61999Y492335D01*
Y493668D01*
X61333Y494334D01*
X70499Y502332D02*
X66501D01*
Y500332D01*
X67167Y499666D01*
X68500D01*
X69166Y500332D01*
Y502332D01*
Y500999D02*
X70499Y499666D01*
X69833Y498333D02*
X70499Y497666D01*
Y496334D01*
X69833Y495667D01*
X67167D01*
X66501Y496334D01*
Y497666D01*
X67167Y498333D01*
X67834D01*
X68500Y497666D01*
Y495667D01*
X70499Y492335D02*
X66501D01*
X68500Y494334D01*
Y491668D01*
X76999Y502332D02*
X73001D01*
Y500332D01*
X73667Y499666D01*
X75000D01*
X75666Y500332D01*
Y502332D01*
Y500999D02*
X76999Y499666D01*
X76333Y498333D02*
X76999Y497667D01*
Y496334D01*
X76333Y495667D01*
X73667D01*
X73001Y496334D01*
Y497667D01*
X73667Y498333D01*
X74334D01*
X75000Y497667D01*
Y495667D01*
X73667Y494334D02*
X73001Y493668D01*
Y492335D01*
X73667Y491668D01*
X74334D01*
X75000Y492335D01*
Y493001D01*
Y492335D01*
X75666Y491668D01*
X76333D01*
X76999Y492335D01*
Y493668D01*
X76333Y494334D01*
X87499Y502332D02*
X83501D01*
Y500332D01*
X84167Y499666D01*
X85500D01*
X86166Y500332D01*
Y502332D01*
Y500999D02*
X87499Y499666D01*
X86833Y498333D02*
X87499Y497667D01*
Y496334D01*
X86833Y495667D01*
X84167D01*
X83501Y496334D01*
Y497667D01*
X84167Y498333D01*
X84834D01*
X85500Y497667D01*
Y495667D01*
X87499Y491668D02*
Y494334D01*
X84834Y491668D01*
X84167D01*
X83501Y492335D01*
Y493668D01*
X84167Y494334D01*
X95999Y501665D02*
X92001D01*
Y499666D01*
X92667Y498999D01*
X94000D01*
X94666Y499666D01*
Y501665D01*
Y500332D02*
X95999Y498999D01*
X95333Y497667D02*
X95999Y497000D01*
Y495667D01*
X95333Y495001D01*
X92667D01*
X92001Y495667D01*
Y497000D01*
X92667Y497667D01*
X93334D01*
X94000Y497000D01*
Y495001D01*
X95999Y493668D02*
Y492335D01*
Y493001D01*
X92001D01*
X92667Y493668D01*
X103999Y502332D02*
X100001D01*
Y500332D01*
X100667Y499666D01*
X102000D01*
X102666Y500332D01*
Y502332D01*
Y500999D02*
X103999Y499666D01*
X103333Y498333D02*
X103999Y497666D01*
Y496334D01*
X103333Y495667D01*
X100667D01*
X100001Y496334D01*
Y497666D01*
X100667Y498333D01*
X101334D01*
X102000Y497666D01*
Y495667D01*
X100667Y494334D02*
X100001Y493668D01*
Y492335D01*
X100667Y491668D01*
X103333D01*
X103999Y492335D01*
Y493668D01*
X103333Y494334D01*
X100667D01*
X112999Y502332D02*
X109001D01*
Y500332D01*
X109667Y499666D01*
X111000D01*
X111666Y500332D01*
Y502332D01*
Y500999D02*
X112999Y499666D01*
X109667Y498333D02*
X109001Y497667D01*
Y496334D01*
X109667Y495667D01*
X110334D01*
X111000Y496334D01*
X111666Y495667D01*
X112333D01*
X112999Y496334D01*
Y497667D01*
X112333Y498333D01*
X111666D01*
X111000Y497667D01*
X110334Y498333D01*
X109667D01*
X111000Y497667D02*
Y496334D01*
X112333Y494334D02*
X112999Y493668D01*
Y492335D01*
X112333Y491668D01*
X109667D01*
X109001Y492335D01*
Y493668D01*
X109667Y494334D01*
X110334D01*
X111000Y493668D01*
Y491668D01*
X121499Y502332D02*
X117501D01*
Y500332D01*
X118167Y499666D01*
X119500D01*
X120167Y500332D01*
Y502332D01*
Y500999D02*
X121499Y499666D01*
X118167Y498333D02*
X117501Y497666D01*
Y496334D01*
X118167Y495667D01*
X118833D01*
X119500Y496334D01*
X120167Y495667D01*
X120833D01*
X121499Y496334D01*
Y497666D01*
X120833Y498333D01*
X120167D01*
X119500Y497666D01*
X118833Y498333D01*
X118167D01*
X119500Y497666D02*
Y496334D01*
X118167Y494334D02*
X117501Y493668D01*
Y492335D01*
X118167Y491668D01*
X118833D01*
X119500Y492335D01*
X120167Y491668D01*
X120833D01*
X121499Y492335D01*
Y493668D01*
X120833Y494334D01*
X120167D01*
X119500Y493668D01*
X118833Y494334D01*
X118167D01*
X119500Y493668D02*
Y492335D01*
X129999Y502332D02*
X126001D01*
Y500332D01*
X126667Y499666D01*
X128000D01*
X128666Y500332D01*
Y502332D01*
Y500999D02*
X129999Y499666D01*
X126667Y498333D02*
X126001Y497666D01*
Y496334D01*
X126667Y495667D01*
X127333D01*
X128000Y496334D01*
X128666Y495667D01*
X129333D01*
X129999Y496334D01*
Y497666D01*
X129333Y498333D01*
X128666D01*
X128000Y497666D01*
X127333Y498333D01*
X126667D01*
X128000Y497666D02*
Y496334D01*
X126001Y494334D02*
Y491668D01*
X126667D01*
X129333Y494334D01*
X129999D01*
X138499Y502332D02*
X134501D01*
Y500332D01*
X135167Y499666D01*
X136500D01*
X137166Y500332D01*
Y502332D01*
Y500999D02*
X138499Y499666D01*
X135167Y498333D02*
X134501Y497666D01*
Y496334D01*
X135167Y495667D01*
X135834D01*
X136500Y496334D01*
X137166Y495667D01*
X137833D01*
X138499Y496334D01*
Y497666D01*
X137833Y498333D01*
X137166D01*
X136500Y497666D01*
X135834Y498333D01*
X135167D01*
X136500Y497666D02*
Y496334D01*
X134501Y491668D02*
X135167Y493001D01*
X136500Y494334D01*
X137833D01*
X138499Y493668D01*
Y492335D01*
X137833Y491668D01*
X137166D01*
X136500Y492335D01*
Y494334D01*
X147999Y502332D02*
X144001D01*
Y500332D01*
X144667Y499666D01*
X146000D01*
X146666Y500332D01*
Y502332D01*
Y500999D02*
X147999Y499666D01*
X144667Y498333D02*
X144001Y497667D01*
Y496334D01*
X144667Y495667D01*
X145334D01*
X146000Y496334D01*
X146666Y495667D01*
X147333D01*
X147999Y496334D01*
Y497667D01*
X147333Y498333D01*
X146666D01*
X146000Y497667D01*
X145334Y498333D01*
X144667D01*
X146000Y497667D02*
Y496334D01*
X144001Y491668D02*
Y494334D01*
X146000D01*
X145334Y493001D01*
Y492335D01*
X146000Y491668D01*
X147333D01*
X147999Y492335D01*
Y493668D01*
X147333Y494334D01*
X155499Y502332D02*
X151501D01*
Y500332D01*
X152167Y499666D01*
X153500D01*
X154166Y500332D01*
Y502332D01*
Y500999D02*
X155499Y499666D01*
X152167Y498333D02*
X151501Y497666D01*
Y496334D01*
X152167Y495667D01*
X152833D01*
X153500Y496334D01*
X154166Y495667D01*
X154833D01*
X155499Y496334D01*
Y497666D01*
X154833Y498333D01*
X154166D01*
X153500Y497666D01*
X152833Y498333D01*
X152167D01*
X153500Y497666D02*
Y496334D01*
X155499Y492335D02*
X151501D01*
X153500Y494334D01*
Y491668D01*
X163999Y502332D02*
X160001D01*
Y500332D01*
X160667Y499666D01*
X162000D01*
X162666Y500332D01*
Y502332D01*
Y500999D02*
X163999Y499666D01*
X160667Y498333D02*
X160001Y497667D01*
Y496334D01*
X160667Y495667D01*
X161334D01*
X162000Y496334D01*
X162666Y495667D01*
X163333D01*
X163999Y496334D01*
Y497667D01*
X163333Y498333D01*
X162666D01*
X162000Y497667D01*
X161334Y498333D01*
X160667D01*
X162000Y497667D02*
Y496334D01*
X160667Y494334D02*
X160001Y493668D01*
Y492335D01*
X160667Y491668D01*
X161334D01*
X162000Y492335D01*
Y493001D01*
Y492335D01*
X162666Y491668D01*
X163333D01*
X163999Y492335D01*
Y493668D01*
X163333Y494334D01*
X172499Y502332D02*
X168501D01*
Y500332D01*
X169167Y499666D01*
X170500D01*
X171167Y500332D01*
Y502332D01*
Y500999D02*
X172499Y499666D01*
X169167Y498333D02*
X168501Y497666D01*
Y496334D01*
X169167Y495667D01*
X169834D01*
X170500Y496334D01*
X171167Y495667D01*
X171833D01*
X172499Y496334D01*
Y497666D01*
X171833Y498333D01*
X171167D01*
X170500Y497666D01*
X169834Y498333D01*
X169167D01*
X170500Y497666D02*
Y496334D01*
X172499Y491668D02*
Y494334D01*
X169834Y491668D01*
X169167D01*
X168501Y492335D01*
Y493668D01*
X169167Y494334D01*
X180999Y501665D02*
X177001D01*
Y499666D01*
X177667Y498999D01*
X179000D01*
X179666Y499666D01*
Y501665D01*
Y500332D02*
X180999Y498999D01*
X177667Y497666D02*
X177001Y497000D01*
Y495667D01*
X177667Y495001D01*
X178333D01*
X179000Y495667D01*
X179666Y495001D01*
X180333D01*
X180999Y495667D01*
Y497000D01*
X180333Y497666D01*
X179666D01*
X179000Y497000D01*
X178333Y497666D01*
X177667D01*
X179000Y497000D02*
Y495667D01*
X180999Y493668D02*
Y492335D01*
Y493001D01*
X177001D01*
X177667Y493668D01*
X189499Y502332D02*
X185501D01*
Y500332D01*
X186167Y499666D01*
X187500D01*
X188166Y500332D01*
Y502332D01*
Y500999D02*
X189499Y499666D01*
X186167Y498333D02*
X185501Y497666D01*
Y496334D01*
X186167Y495667D01*
X186834D01*
X187500Y496334D01*
X188166Y495667D01*
X188833D01*
X189499Y496334D01*
Y497666D01*
X188833Y498333D01*
X188166D01*
X187500Y497666D01*
X186834Y498333D01*
X186167D01*
X187500Y497666D02*
Y496334D01*
X186167Y494334D02*
X185501Y493668D01*
Y492335D01*
X186167Y491668D01*
X188833D01*
X189499Y492335D01*
Y493668D01*
X188833Y494334D01*
X186167D01*
X679800Y562100D02*
Y566099D01*
X677801D01*
X677134Y565432D01*
Y564099D01*
X677801Y563433D01*
X679800D01*
X678467D02*
X677134Y562100D01*
X675801Y566099D02*
X673136D01*
Y565432D01*
X675801Y562766D01*
Y562100D01*
X671803Y562766D02*
X671136Y562100D01*
X669803D01*
X669137Y562766D01*
Y565432D01*
X669803Y566099D01*
X671136D01*
X671803Y565432D01*
Y564766D01*
X671136Y564099D01*
X669137D01*
X779800Y562100D02*
Y566099D01*
X777801D01*
X777134Y565432D01*
Y564099D01*
X777801Y563433D01*
X779800D01*
X778467D02*
X777134Y562100D01*
X775801Y566099D02*
X773136D01*
Y565432D01*
X775801Y562766D01*
Y562100D01*
X771803Y565432D02*
X771136Y566099D01*
X769803D01*
X769137Y565432D01*
Y564766D01*
X769803Y564099D01*
X769137Y563433D01*
Y562766D01*
X769803Y562100D01*
X771136D01*
X771803Y562766D01*
Y563433D01*
X771136Y564099D01*
X771803Y564766D01*
Y565432D01*
X771136Y564099D02*
X769803D01*
X879800Y562100D02*
Y566099D01*
X877801D01*
X877134Y565432D01*
Y564099D01*
X877801Y563433D01*
X879800D01*
X878467D02*
X877134Y562100D01*
X875801Y566099D02*
X873135D01*
Y565432D01*
X875801Y562766D01*
Y562100D01*
X871803Y566099D02*
X869137D01*
Y565432D01*
X871803Y562766D01*
Y562100D01*
X679800Y432100D02*
Y436099D01*
X677801D01*
X677134Y435432D01*
Y434099D01*
X677801Y433433D01*
X679800D01*
X678467D02*
X677134Y432100D01*
X675801Y436099D02*
X673136D01*
Y435432D01*
X675801Y432766D01*
Y432100D01*
X669137Y436099D02*
X670470Y435432D01*
X671803Y434099D01*
Y432766D01*
X671136Y432100D01*
X669803D01*
X669137Y432766D01*
Y433433D01*
X669803Y434099D01*
X671803D01*
X779800Y432100D02*
Y436099D01*
X777801D01*
X777134Y435432D01*
Y434099D01*
X777801Y433433D01*
X779800D01*
X778467D02*
X777134Y432100D01*
X775801Y436099D02*
X773136D01*
Y435432D01*
X775801Y432766D01*
Y432100D01*
X769137Y436099D02*
X771803D01*
Y434099D01*
X770470Y434766D01*
X769803D01*
X769137Y434099D01*
Y432766D01*
X769803Y432100D01*
X771136D01*
X771803Y432766D01*
X879800Y432100D02*
Y436099D01*
X877801D01*
X877134Y435432D01*
Y434099D01*
X877801Y433433D01*
X879800D01*
X878467D02*
X877134Y432100D01*
X875801Y436099D02*
X873135D01*
Y435432D01*
X875801Y432766D01*
Y432100D01*
X869803D02*
Y436099D01*
X871803Y434099D01*
X869137D01*
X679800Y302100D02*
Y306099D01*
X677801D01*
X677134Y305432D01*
Y304099D01*
X677801Y303433D01*
X679800D01*
X678467D02*
X677134Y302100D01*
X675801Y306099D02*
X673136D01*
Y305432D01*
X675801Y302766D01*
Y302100D01*
X671803Y305432D02*
X671136Y306099D01*
X669803D01*
X669137Y305432D01*
Y304766D01*
X669803Y304099D01*
X670470D01*
X669803D01*
X669137Y303433D01*
Y302766D01*
X669803Y302100D01*
X671136D01*
X671803Y302766D01*
X779800Y302100D02*
Y306099D01*
X777801D01*
X777134Y305432D01*
Y304099D01*
X777801Y303433D01*
X779800D01*
X778467D02*
X777134Y302100D01*
X775801Y306099D02*
X773136D01*
Y305432D01*
X775801Y302766D01*
Y302100D01*
X769137D02*
X771803D01*
X769137Y304766D01*
Y305432D01*
X769803Y306099D01*
X771136D01*
X771803Y305432D01*
X132999Y161848D02*
X129001D01*
Y159849D01*
X129667Y159183D01*
X131000D01*
X131666Y159849D01*
Y161848D01*
Y160516D02*
X132999Y159183D01*
X129667Y157850D02*
X129001Y157183D01*
Y155850D01*
X129667Y155184D01*
X130333D01*
X131000Y155850D01*
Y156517D01*
Y155850D01*
X131666Y155184D01*
X132333D01*
X132999Y155850D01*
Y157183D01*
X132333Y157850D01*
X132999Y153851D02*
Y152518D01*
Y153185D01*
X129001D01*
X129667Y153851D01*
X141999Y159332D02*
X138001D01*
Y157333D01*
X138667Y156667D01*
X140000D01*
X140666Y157333D01*
Y159332D01*
Y157999D02*
X141999Y156667D01*
Y153334D02*
X138001D01*
X140000Y155333D01*
Y152668D01*
X107999Y159332D02*
X104001D01*
Y157333D01*
X104667Y156667D01*
X106000D01*
X106666Y157333D01*
Y159332D01*
Y157999D02*
X107999Y156667D01*
X104667Y155333D02*
X104001Y154667D01*
Y153334D01*
X104667Y152668D01*
X105333D01*
X106000Y153334D01*
Y154001D01*
Y153334D01*
X106666Y152668D01*
X107333D01*
X107999Y153334D01*
Y154667D01*
X107333Y155333D01*
X91999Y159332D02*
X88001D01*
Y157333D01*
X88667Y156667D01*
X90000D01*
X90666Y157333D01*
Y159332D01*
Y157999D02*
X91999Y156667D01*
Y152668D02*
Y155333D01*
X89333Y152668D01*
X88667D01*
X88001Y153334D01*
Y154667D01*
X88667Y155333D01*
X116999Y158666D02*
X113001D01*
Y156667D01*
X113667Y156000D01*
X115000D01*
X115666Y156667D01*
Y158666D01*
Y157333D02*
X116999Y156000D01*
Y154667D02*
Y153334D01*
Y154001D01*
X113001D01*
X113667Y154667D01*
X35333Y113333D02*
X35999Y113999D01*
X37332D01*
X37998Y113333D01*
Y110667D01*
X37332Y110001D01*
X35999D01*
X35333Y110667D01*
X34000Y110001D02*
X32667D01*
X33333D01*
Y113999D01*
X34000Y113333D01*
X30667D02*
X30001Y113999D01*
X28668D01*
X28002Y113333D01*
Y112666D01*
X28668Y112000D01*
X28002Y111334D01*
Y110667D01*
X28668Y110001D01*
X30001D01*
X30667Y110667D01*
Y111334D01*
X30001Y112000D01*
X30667Y112666D01*
Y113333D01*
X30001Y112000D02*
X28668D01*
X132333Y249333D02*
X132999Y249999D01*
X134332D01*
X134998Y249333D01*
Y246667D01*
X134332Y246001D01*
X132999D01*
X132333Y246667D01*
X131000Y246001D02*
X129667D01*
X130333D01*
Y249999D01*
X131000Y249333D01*
X125002Y249999D02*
X126335Y249333D01*
X127667Y248000D01*
Y246667D01*
X127001Y246001D01*
X125668D01*
X125002Y246667D01*
Y247334D01*
X125668Y248000D01*
X127667D01*
X370333Y109333D02*
X370999Y109999D01*
X372332D01*
X372998Y109333D01*
Y106667D01*
X372332Y106001D01*
X370999D01*
X370333Y106667D01*
X369000Y106001D02*
X367667D01*
X368333D01*
Y109999D01*
X369000Y109333D01*
X363002Y109999D02*
X365667D01*
Y108000D01*
X364335Y108667D01*
X363668D01*
X363002Y108000D01*
Y106667D01*
X363668Y106001D01*
X365001D01*
X365667Y106667D01*
X370333Y127333D02*
X370999Y127999D01*
X372332D01*
X372998Y127333D01*
Y124667D01*
X372332Y124001D01*
X370999D01*
X370333Y124667D01*
X369000Y124001D02*
X367667D01*
X368333D01*
Y127999D01*
X369000Y127333D01*
X363668Y124001D02*
Y127999D01*
X365667Y126000D01*
X363002D01*
X382333Y109333D02*
X382999Y109999D01*
X384332D01*
X384998Y109333D01*
Y106667D01*
X384332Y106001D01*
X382999D01*
X382333Y106667D01*
X381000Y106001D02*
X379667D01*
X380333D01*
Y109999D01*
X381000Y109333D01*
X377667D02*
X377001Y109999D01*
X375668D01*
X375002Y109333D01*
Y108667D01*
X375668Y108000D01*
X376335D01*
X375668D01*
X375002Y107334D01*
Y106667D01*
X375668Y106001D01*
X377001D01*
X377667Y106667D01*
X382333Y127333D02*
X382999Y127999D01*
X384332D01*
X384998Y127333D01*
Y124667D01*
X384332Y124001D01*
X382999D01*
X382333Y124667D01*
X381000Y124001D02*
X379667D01*
X380333D01*
Y127999D01*
X381000Y127333D01*
X375002Y124001D02*
X377667D01*
X375002Y126666D01*
Y127333D01*
X375668Y127999D01*
X377001D01*
X377667Y127333D01*
X138000Y75333D02*
X138666Y75999D01*
X139999D01*
X140665Y75333D01*
Y72667D01*
X139999Y72001D01*
X138666D01*
X138000Y72667D01*
X136667Y72001D02*
X135334D01*
X136000D01*
Y75999D01*
X136667Y75333D01*
X133335Y72001D02*
X132002D01*
X132668D01*
Y75999D01*
X133335Y75333D01*
X139333Y81333D02*
X139999Y81999D01*
X141332D01*
X141998Y81333D01*
Y78667D01*
X141332Y78001D01*
X139999D01*
X139333Y78667D01*
X138000Y78001D02*
X136667D01*
X137333D01*
Y81999D01*
X138000Y81333D01*
X134667D02*
X134001Y81999D01*
X132668D01*
X132002Y81333D01*
Y78667D01*
X132668Y78001D01*
X134001D01*
X134667Y78667D01*
Y81333D01*
X136000Y87333D02*
X136667Y87999D01*
X138000D01*
X138666Y87333D01*
Y84667D01*
X138000Y84001D01*
X136667D01*
X136000Y84667D01*
X134667D02*
X134001Y84001D01*
X132668D01*
X132002Y84667D01*
Y87333D01*
X132668Y87999D01*
X134001D01*
X134667Y87333D01*
Y86666D01*
X134001Y86000D01*
X132002D01*
X102517Y75333D02*
X103183Y75999D01*
X104516D01*
X105183Y75333D01*
Y72667D01*
X104516Y72001D01*
X103183D01*
X102517Y72667D01*
X101184Y75333D02*
X100517Y75999D01*
X99185D01*
X98518Y75333D01*
Y74666D01*
X99185Y74000D01*
X98518Y73334D01*
Y72667D01*
X99185Y72001D01*
X100517D01*
X101184Y72667D01*
Y73334D01*
X100517Y74000D01*
X101184Y74666D01*
Y75333D01*
X100517Y74000D02*
X99185D01*
X102517Y81333D02*
X103183Y81999D01*
X104516D01*
X105183Y81333D01*
Y78667D01*
X104516Y78001D01*
X103183D01*
X102517Y78667D01*
X101184Y81999D02*
X98518D01*
Y81333D01*
X101184Y78667D01*
Y78001D01*
X102517Y87333D02*
X103183Y87999D01*
X104516D01*
X105183Y87333D01*
Y84667D01*
X104516Y84001D01*
X103183D01*
X102517Y84667D01*
X98518Y87999D02*
X99851Y87333D01*
X101184Y86000D01*
Y84667D01*
X100517Y84001D01*
X99185D01*
X98518Y84667D01*
Y85334D01*
X99185Y86000D01*
X101184D01*
X347234Y419432D02*
X347901Y420099D01*
X349234D01*
X349900Y419432D01*
Y416766D01*
X349234Y416100D01*
X347901D01*
X347234Y416766D01*
X343235Y420099D02*
X345901D01*
Y418099D01*
X344568Y418766D01*
X343902D01*
X343235Y418099D01*
Y416766D01*
X343902Y416100D01*
X345235D01*
X345901Y416766D01*
X224234Y419432D02*
X224901Y420099D01*
X226234D01*
X226900Y419432D01*
Y416766D01*
X226234Y416100D01*
X224901D01*
X224234Y416766D01*
X220902Y416100D02*
Y420099D01*
X222901Y418099D01*
X220235D01*
X84234Y419432D02*
X84901Y420099D01*
X86234D01*
X86900Y419432D01*
Y416766D01*
X86234Y416100D01*
X84901D01*
X84234Y416766D01*
X82901Y419432D02*
X82235Y420099D01*
X80902D01*
X80235Y419432D01*
Y418766D01*
X80902Y418099D01*
X81568D01*
X80902D01*
X80235Y417433D01*
Y416766D01*
X80902Y416100D01*
X82235D01*
X82901Y416766D01*
X154234Y419432D02*
X154901Y420099D01*
X156234D01*
X156900Y419432D01*
Y416766D01*
X156234Y416100D01*
X154901D01*
X154234Y416766D01*
X150235Y416100D02*
X152901D01*
X150235Y418766D01*
Y419432D01*
X150902Y420099D01*
X152235D01*
X152901Y419432D01*
D17*
X63500Y19600D02*
Y23700D01*
Y19600D02*
X68500D01*
Y23700D01*
Y26200D02*
Y30400D01*
X63500D02*
X68500D01*
X63500Y26300D02*
Y30400D01*
X56500Y19600D02*
Y23700D01*
Y19600D02*
X61500D01*
Y23700D01*
Y26200D02*
Y30400D01*
X56500D02*
X61500D01*
X56500Y26300D02*
Y30400D01*
X70500Y19600D02*
Y23700D01*
Y19600D02*
X75500D01*
Y23700D01*
Y26200D02*
Y30400D01*
X70500D02*
X75500D01*
X70500Y26300D02*
Y30400D01*
X226000Y236600D02*
Y240700D01*
X221000Y236600D02*
X226000D01*
X221000D02*
Y240800D01*
Y243300D02*
Y247400D01*
X226000D01*
Y243300D02*
Y247400D01*
X396500Y481300D02*
Y485400D01*
X401500D01*
Y481200D02*
Y485400D01*
Y474600D02*
Y478700D01*
X396500Y474600D02*
X401500D01*
X396500D02*
Y478700D01*
X388000Y481300D02*
Y485400D01*
X393000D01*
Y481200D02*
Y485400D01*
Y474600D02*
Y478700D01*
X388000Y474600D02*
X393000D01*
X388000D02*
Y478700D01*
X128500Y146300D02*
Y150400D01*
X133500D01*
Y146200D02*
Y150400D01*
Y139600D02*
Y143700D01*
X128500Y139600D02*
X133500D01*
X128500D02*
Y143700D01*
X87500Y146300D02*
Y150400D01*
X92500D01*
Y146200D02*
Y150400D01*
Y139600D02*
Y143700D01*
X87500Y139600D02*
X92500D01*
X87500D02*
Y143700D01*
X103500Y146300D02*
Y150400D01*
X108500D01*
Y146200D02*
Y150400D01*
Y139600D02*
Y143700D01*
X103500Y139600D02*
X108500D01*
X103500D02*
Y143700D01*
X112500Y146300D02*
Y150400D01*
X117500D01*
Y146200D02*
Y150400D01*
Y139600D02*
Y143700D01*
X112500Y139600D02*
X117500D01*
X112500D02*
Y143700D01*
X137500Y146300D02*
Y150400D01*
X142500D01*
Y146200D02*
Y150400D01*
Y139600D02*
Y143700D01*
X137500Y139600D02*
X142500D01*
X137500D02*
Y143700D01*
X656300Y558500D02*
X660400D01*
Y553500D02*
Y558500D01*
X656200Y553500D02*
X660400D01*
X649600D02*
X653700D01*
X649600D02*
Y558500D01*
X653700D01*
X876300Y428500D02*
X880400D01*
Y423500D02*
Y428500D01*
X876200Y423500D02*
X880400D01*
X869600D02*
X873700D01*
X869600D02*
Y428500D01*
X873700D01*
X126500Y232600D02*
Y236700D01*
Y232600D02*
X131500D01*
Y236700D01*
Y239200D02*
Y243400D01*
X126500D02*
X131500D01*
X126500Y239300D02*
Y243400D01*
X286000Y481300D02*
Y485400D01*
X291000D01*
Y481200D02*
Y485400D01*
Y474600D02*
Y478700D01*
X286000Y474600D02*
X291000D01*
X286000D02*
Y478700D01*
X294500Y481300D02*
Y485400D01*
X299500D01*
Y481200D02*
Y485400D01*
Y474600D02*
Y478700D01*
X294500Y474600D02*
X299500D01*
X294500D02*
Y478700D01*
X311500Y481300D02*
Y485400D01*
X316500D01*
Y481200D02*
Y485400D01*
Y474600D02*
Y478700D01*
X311500Y474600D02*
X316500D01*
X311500D02*
Y478700D01*
X382000Y321300D02*
Y325400D01*
X387000D01*
Y321200D02*
Y325400D01*
Y314600D02*
Y318700D01*
X382000Y314600D02*
X387000D01*
X382000D02*
Y318700D01*
X407500Y321300D02*
Y325400D01*
X412500D01*
Y321200D02*
Y325400D01*
Y314600D02*
Y318700D01*
X407500Y314600D02*
X412500D01*
X407500D02*
Y318700D01*
X399000Y321300D02*
Y325400D01*
X404000D01*
Y321200D02*
Y325400D01*
Y314600D02*
Y318700D01*
X399000Y314600D02*
X404000D01*
X399000D02*
Y318700D01*
X390500Y321300D02*
Y325400D01*
X395500D01*
Y321200D02*
Y325400D01*
Y314600D02*
Y318700D01*
X390500Y314600D02*
X395500D01*
X390500D02*
Y318700D01*
X373500Y321300D02*
Y325400D01*
X378500D01*
Y321200D02*
Y325400D01*
Y314600D02*
Y318700D01*
X373500Y314600D02*
X378500D01*
X373500D02*
Y318700D01*
X433000Y321300D02*
Y325400D01*
X438000D01*
Y321200D02*
Y325400D01*
Y314600D02*
Y318700D01*
X433000Y314600D02*
X438000D01*
X433000D02*
Y318700D01*
X441500Y321300D02*
Y325400D01*
X446500D01*
Y321200D02*
Y325400D01*
Y314600D02*
Y318700D01*
X441500Y314600D02*
X446500D01*
X441500D02*
Y318700D01*
X450000Y321300D02*
Y325400D01*
X455000D01*
Y321200D02*
Y325400D01*
Y314600D02*
Y318700D01*
X450000Y314600D02*
X455000D01*
X450000D02*
Y318700D01*
X458500Y321300D02*
Y325400D01*
X463500D01*
Y321200D02*
Y325400D01*
Y314600D02*
Y318700D01*
X458500Y314600D02*
X463500D01*
X458500D02*
Y318700D01*
X467000Y321300D02*
Y325400D01*
X472000D01*
Y321200D02*
Y325400D01*
Y314600D02*
Y318700D01*
X467000Y314600D02*
X472000D01*
X467000D02*
Y318700D01*
X484000Y321300D02*
Y325400D01*
X489000D01*
Y321200D02*
Y325400D01*
Y314600D02*
Y318700D01*
X484000Y314600D02*
X489000D01*
X484000D02*
Y318700D01*
X475500Y321300D02*
Y325400D01*
X480500D01*
Y321200D02*
Y325400D01*
Y314600D02*
Y318700D01*
X475500Y314600D02*
X480500D01*
X475500D02*
Y318700D01*
X492500Y321300D02*
Y325400D01*
X497500D01*
Y321200D02*
Y325400D01*
Y314600D02*
Y318700D01*
X492500Y314600D02*
X497500D01*
X492500D02*
Y318700D01*
X416000Y321300D02*
Y325400D01*
X421000D01*
Y321200D02*
Y325400D01*
Y314600D02*
Y318700D01*
X416000Y314600D02*
X421000D01*
X416000D02*
Y318700D01*
X424500Y321300D02*
Y325400D01*
X429500D01*
Y321200D02*
Y325400D01*
Y314600D02*
Y318700D01*
X424500Y314600D02*
X429500D01*
X424500D02*
Y318700D01*
X294500Y457300D02*
Y461400D01*
X299500D01*
Y457200D02*
Y461400D01*
Y450600D02*
Y454700D01*
X294500Y450600D02*
X299500D01*
X294500D02*
Y454700D01*
X328500Y474600D02*
Y478700D01*
Y474600D02*
X333500D01*
Y478700D01*
Y481200D02*
Y485400D01*
X328500D02*
X333500D01*
X328500Y481300D02*
Y485400D01*
X62500Y481300D02*
Y485400D01*
X57500D02*
X62500D01*
X57500Y481300D02*
Y485400D01*
Y474600D02*
Y478800D01*
Y474600D02*
X62500D01*
Y478700D01*
X277500Y474600D02*
Y478700D01*
Y474600D02*
X282500D01*
Y478700D01*
Y481200D02*
Y485400D01*
X277500D02*
X282500D01*
X277500Y481300D02*
Y485400D01*
X311500Y450600D02*
Y454700D01*
Y450600D02*
X316500D01*
Y454700D01*
Y457200D02*
Y461400D01*
X311500D02*
X316500D01*
X311500Y457300D02*
Y461400D01*
X379500Y474600D02*
Y478700D01*
Y474600D02*
X384500D01*
Y478700D01*
Y481200D02*
Y485400D01*
X379500D02*
X384500D01*
X379500Y481300D02*
Y485400D01*
X345500Y474600D02*
Y478700D01*
Y474600D02*
X350500D01*
Y478700D01*
Y481200D02*
Y485400D01*
X345500D02*
X350500D01*
X345500Y481300D02*
Y485400D01*
X303000Y474600D02*
Y478700D01*
Y474600D02*
X308000D01*
Y478700D01*
Y481200D02*
Y485400D01*
X303000D02*
X308000D01*
X303000Y481300D02*
Y485400D01*
Y450600D02*
Y454700D01*
Y450600D02*
X308000D01*
Y454700D01*
Y457200D02*
Y461400D01*
X303000D02*
X308000D01*
X303000Y457300D02*
Y461400D01*
X286000Y450600D02*
Y454700D01*
Y450600D02*
X291000D01*
Y454700D01*
Y457200D02*
Y461400D01*
X286000D02*
X291000D01*
X286000Y457300D02*
Y461400D01*
X79500Y481300D02*
Y485400D01*
X74500D02*
X79500D01*
X74500Y481300D02*
Y485400D01*
Y474600D02*
Y478800D01*
Y474600D02*
X79500D01*
Y478700D01*
X71000Y481300D02*
Y485400D01*
X66000D02*
X71000D01*
X66000Y481300D02*
Y485400D01*
Y474600D02*
Y478800D01*
Y474600D02*
X71000D01*
Y478700D01*
X96500Y481300D02*
Y485400D01*
X91500D02*
X96500D01*
X91500Y481300D02*
Y485400D01*
Y474600D02*
Y478800D01*
Y474600D02*
X96500D01*
Y478700D01*
X88000Y481300D02*
Y485400D01*
X83000D02*
X88000D01*
X83000Y481300D02*
Y485400D01*
Y474600D02*
Y478800D01*
Y474600D02*
X88000D01*
Y478700D01*
X371000Y474600D02*
Y478700D01*
Y474600D02*
X376000D01*
Y478700D01*
Y481200D02*
Y485400D01*
X371000D02*
X376000D01*
X371000Y481300D02*
Y485400D01*
X277500Y450600D02*
Y454700D01*
Y450600D02*
X282500D01*
Y454700D01*
Y457200D02*
Y461400D01*
X277500D02*
X282500D01*
X277500Y457300D02*
Y461400D01*
X354000Y474600D02*
Y478700D01*
Y474600D02*
X359000D01*
Y478700D01*
Y481200D02*
Y485400D01*
X354000D02*
X359000D01*
X354000Y481300D02*
Y485400D01*
X362500Y474600D02*
Y478700D01*
Y474600D02*
X367500D01*
Y478700D01*
Y481200D02*
Y485400D01*
X362500D02*
X367500D01*
X362500Y481300D02*
Y485400D01*
X337000Y474600D02*
Y478700D01*
Y474600D02*
X342000D01*
Y478700D01*
Y481200D02*
Y485400D01*
X337000D02*
X342000D01*
X337000Y481300D02*
Y485400D01*
X320000Y474600D02*
Y478700D01*
Y474600D02*
X325000D01*
Y478700D01*
Y481200D02*
Y485400D01*
X320000D02*
X325000D01*
X320000Y481300D02*
Y485400D01*
X147500Y481300D02*
Y485400D01*
X142500D02*
X147500D01*
X142500Y481300D02*
Y485400D01*
Y474600D02*
Y478800D01*
Y474600D02*
X147500D01*
Y478700D01*
X869600Y558500D02*
X873700D01*
X869600Y553500D02*
Y558500D01*
Y553500D02*
X873700D01*
X876200D02*
X880400D01*
Y558500D01*
X876300D02*
X880400D01*
X156000Y481300D02*
Y485400D01*
X151000D02*
X156000D01*
X151000Y481300D02*
Y485400D01*
Y474600D02*
Y478800D01*
Y474600D02*
X156000D01*
Y478700D01*
X139000Y481300D02*
Y485400D01*
X134000D02*
X139000D01*
X134000Y481300D02*
Y485400D01*
Y474600D02*
Y478800D01*
Y474600D02*
X139000D01*
Y478700D01*
X669600Y558500D02*
X673700D01*
X669600Y553500D02*
Y558500D01*
Y553500D02*
X673700D01*
X676200D02*
X680400D01*
Y558500D01*
X676300D02*
X680400D01*
X202000Y474600D02*
Y478700D01*
Y474600D02*
X207000D01*
Y478700D01*
Y481200D02*
Y485400D01*
X202000D02*
X207000D01*
X202000Y481300D02*
Y485400D01*
X236000Y474600D02*
Y478700D01*
Y474600D02*
X241000D01*
Y478700D01*
Y481200D02*
Y485400D01*
X236000D02*
X241000D01*
X236000Y481300D02*
Y485400D01*
X849600Y168500D02*
X853700D01*
X849600Y163500D02*
Y168500D01*
Y163500D02*
X853700D01*
X856200D02*
X860400D01*
Y168500D01*
X856300D02*
X860400D01*
X749600Y428500D02*
X753700D01*
X749600Y423500D02*
Y428500D01*
Y423500D02*
X753700D01*
X756200D02*
X760400D01*
Y428500D01*
X756300D02*
X760400D01*
X749600Y298500D02*
X753700D01*
X749600Y293500D02*
Y298500D01*
Y293500D02*
X753700D01*
X756200D02*
X760400D01*
Y298500D01*
X756300D02*
X760400D01*
X113500Y481300D02*
Y485400D01*
X108500D02*
X113500D01*
X108500Y481300D02*
Y485400D01*
Y474600D02*
Y478800D01*
Y474600D02*
X113500D01*
Y478700D01*
X122000Y481300D02*
Y485400D01*
X117000D02*
X122000D01*
X117000Y481300D02*
Y485400D01*
Y474600D02*
Y478800D01*
Y474600D02*
X122000D01*
Y478700D01*
X849600Y298500D02*
X853700D01*
X849600Y293500D02*
Y298500D01*
Y293500D02*
X853700D01*
X856200D02*
X860400D01*
Y298500D01*
X856300D02*
X860400D01*
X190000Y481300D02*
Y485400D01*
X185000D02*
X190000D01*
X185000Y481300D02*
Y485400D01*
Y474600D02*
Y478800D01*
Y474600D02*
X190000D01*
Y478700D01*
X181500Y481300D02*
Y485400D01*
X176500D02*
X181500D01*
X176500Y481300D02*
Y485400D01*
Y474600D02*
Y478800D01*
Y474600D02*
X181500D01*
Y478700D01*
X849600Y558500D02*
X853700D01*
X849600Y553500D02*
Y558500D01*
Y553500D02*
X853700D01*
X856200D02*
X860400D01*
Y558500D01*
X856300D02*
X860400D01*
X253000Y474600D02*
Y478700D01*
Y474600D02*
X258000D01*
Y478700D01*
Y481200D02*
Y485400D01*
X253000D02*
X258000D01*
X253000Y481300D02*
Y485400D01*
X164500Y481300D02*
Y485400D01*
X159500D02*
X164500D01*
X159500Y481300D02*
Y485400D01*
Y474600D02*
Y478800D01*
Y474600D02*
X164500D01*
Y478700D01*
X869600Y168500D02*
X873700D01*
X869600Y163500D02*
Y168500D01*
Y163500D02*
X873700D01*
X876200D02*
X880400D01*
Y168500D01*
X876300D02*
X880400D01*
X649600Y428500D02*
X653700D01*
X649600Y423500D02*
Y428500D01*
Y423500D02*
X653700D01*
X656200D02*
X660400D01*
Y428500D01*
X656300D02*
X660400D01*
X105000Y481300D02*
Y485400D01*
X100000D02*
X105000D01*
X100000Y481300D02*
Y485400D01*
Y474600D02*
Y478800D01*
Y474600D02*
X105000D01*
Y478700D01*
X244500Y474600D02*
Y478700D01*
Y474600D02*
X249500D01*
Y478700D01*
Y481200D02*
Y485400D01*
X244500D02*
X249500D01*
X244500Y481300D02*
Y485400D01*
X210500Y474600D02*
Y478700D01*
Y474600D02*
X215500D01*
Y478700D01*
Y481200D02*
Y485400D01*
X210500D02*
X215500D01*
X210500Y481300D02*
Y485400D01*
X769600Y298500D02*
X773700D01*
X769600Y293500D02*
Y298500D01*
Y293500D02*
X773700D01*
X776200D02*
X780400D01*
Y298500D01*
X776300D02*
X780400D01*
X173000Y481300D02*
Y485400D01*
X168000D02*
X173000D01*
X168000Y481300D02*
Y485400D01*
Y474600D02*
Y478800D01*
Y474600D02*
X173000D01*
Y478700D01*
X869600Y298500D02*
X873700D01*
X869600Y293500D02*
Y298500D01*
Y293500D02*
X873700D01*
X876200D02*
X880400D01*
Y298500D01*
X876300D02*
X880400D01*
X749600Y558500D02*
X753700D01*
X749600Y553500D02*
Y558500D01*
Y553500D02*
X753700D01*
X756200D02*
X760400D01*
Y558500D01*
X756300D02*
X760400D01*
X749600Y168500D02*
X753700D01*
X749600Y163500D02*
Y168500D01*
Y163500D02*
X753700D01*
X756200D02*
X760400D01*
Y168500D01*
X756300D02*
X760400D01*
X769600Y428500D02*
X773700D01*
X769600Y423500D02*
Y428500D01*
Y423500D02*
X773700D01*
X776200D02*
X780400D01*
Y428500D01*
X776300D02*
X780400D01*
X669600Y168500D02*
X673700D01*
X669600Y163500D02*
Y168500D01*
Y163500D02*
X673700D01*
X676200D02*
X680400D01*
Y168500D01*
X676300D02*
X680400D01*
X130500Y481300D02*
Y485400D01*
X125500D02*
X130500D01*
X125500Y481300D02*
Y485400D01*
Y474600D02*
Y478800D01*
Y474600D02*
X130500D01*
Y478700D01*
X769600Y168500D02*
X773700D01*
X769600Y163500D02*
Y168500D01*
Y163500D02*
X773700D01*
X776200D02*
X780400D01*
Y168500D01*
X776300D02*
X780400D01*
X669600Y428500D02*
X673700D01*
X669600Y423500D02*
Y428500D01*
Y423500D02*
X673700D01*
X676200D02*
X680400D01*
Y428500D01*
X676300D02*
X680400D01*
X649600Y168500D02*
X653700D01*
X649600Y163500D02*
Y168500D01*
Y163500D02*
X653700D01*
X656200D02*
X660400D01*
Y168500D01*
X656300D02*
X660400D01*
X669600Y298500D02*
X673700D01*
X669600Y293500D02*
Y298500D01*
Y293500D02*
X673700D01*
X676200D02*
X680400D01*
Y298500D01*
X676300D02*
X680400D01*
X227500Y474600D02*
Y478700D01*
Y474600D02*
X232500D01*
Y478700D01*
Y481200D02*
Y485400D01*
X227500D02*
X232500D01*
X227500Y481300D02*
Y485400D01*
X769600Y558500D02*
X773700D01*
X769600Y553500D02*
Y558500D01*
Y553500D02*
X773700D01*
X776200D02*
X780400D01*
Y558500D01*
X776300D02*
X780400D01*
X849600Y428500D02*
X853700D01*
X849600Y423500D02*
Y428500D01*
Y423500D02*
X853700D01*
X856200D02*
X860400D01*
Y428500D01*
X856300D02*
X860400D01*
X649600Y298500D02*
X653700D01*
X649600Y293500D02*
Y298500D01*
Y293500D02*
X653700D01*
X656200D02*
X660400D01*
Y298500D01*
X656300D02*
X660400D01*
X219000Y474600D02*
Y478700D01*
Y474600D02*
X224000D01*
Y478700D01*
Y481200D02*
Y485400D01*
X219000D02*
X224000D01*
X219000Y481300D02*
Y485400D01*
X261500Y474600D02*
Y478700D01*
Y474600D02*
X266500D01*
Y478700D01*
Y481200D02*
Y485400D01*
X261500D02*
X266500D01*
X261500Y481300D02*
Y485400D01*
X369300Y116500D02*
X373400D01*
Y111500D02*
Y116500D01*
X369200Y111500D02*
X373400D01*
X362600D02*
X366700D01*
X362600D02*
Y116500D01*
X366700D01*
X86300Y407500D02*
X90400D01*
Y412500D01*
X86300D02*
X90400D01*
X79600D02*
X83800D01*
X79600Y407500D02*
Y412500D01*
Y407500D02*
X83700D01*
X119600Y82500D02*
X123700D01*
X119600Y77500D02*
Y82500D01*
Y77500D02*
X123700D01*
X126200D02*
X130400D01*
Y82500D01*
X126300D02*
X130400D01*
X119600Y88500D02*
X123700D01*
X119600Y83500D02*
Y88500D01*
Y83500D02*
X123700D01*
X126200D02*
X130400D01*
Y88500D01*
X126300D02*
X130400D01*
X369300Y122500D02*
X373400D01*
Y117500D02*
Y122500D01*
X369200Y117500D02*
X373400D01*
X362600D02*
X366700D01*
X362600D02*
Y122500D01*
X366700D01*
X114300Y83500D02*
X118400D01*
Y88500D01*
X114300D02*
X118400D01*
X107600D02*
X111800D01*
X107600Y83500D02*
Y88500D01*
Y83500D02*
X111700D01*
X119600Y76500D02*
X123700D01*
X119600Y71500D02*
Y76500D01*
Y71500D02*
X123700D01*
X126200D02*
X130400D01*
Y76500D01*
X126300D02*
X130400D01*
X114300Y71500D02*
X118400D01*
Y76500D01*
X114300D02*
X118400D01*
X107600D02*
X111800D01*
X107600Y71500D02*
Y76500D01*
Y71500D02*
X111700D01*
X156300Y407500D02*
X160400D01*
Y412500D01*
X156300D02*
X160400D01*
X149600D02*
X153800D01*
X149600Y407500D02*
Y412500D01*
Y407500D02*
X153700D01*
X114300Y77500D02*
X118400D01*
Y82500D01*
X114300D02*
X118400D01*
X107600D02*
X111800D01*
X107600Y77500D02*
Y82500D01*
Y77500D02*
X111700D01*
X374600Y111500D02*
X378700D01*
X374600D02*
Y116500D01*
X378800D01*
X381300D02*
X385400D01*
Y111500D02*
Y116500D01*
X381300Y111500D02*
X385400D01*
X226300Y407500D02*
X230400D01*
Y412500D01*
X226300D02*
X230400D01*
X219600D02*
X223800D01*
X219600Y407500D02*
Y412500D01*
Y407500D02*
X223700D01*
X374600Y117500D02*
X378700D01*
X374600D02*
Y122500D01*
X378800D01*
X381300D02*
X385400D01*
Y117500D02*
Y122500D01*
X381300Y117500D02*
X385400D01*
X349300Y407500D02*
X353400D01*
Y412500D01*
X349300D02*
X353400D01*
X342600D02*
X346800D01*
X342600Y407500D02*
Y412500D01*
Y407500D02*
X346700D01*
X35500Y103300D02*
Y107400D01*
X30500D02*
X35500D01*
X30500Y103300D02*
Y107400D01*
Y96600D02*
Y100800D01*
Y96600D02*
X35500D01*
Y100700D01*
M02*
