G04*
G04 #@! TF.GenerationSoftware,Altium Limited,Altium Designer,22.3.1 (43)*
G04*
G04 Layer_Color=255*
%FSLAX25Y25*%
%MOIN*%
G70*
G04*
G04 #@! TF.SameCoordinates,A87CA661-C890-46F0-A320-74F5598AF3CC*
G04*
G04*
G04 #@! TF.FilePolarity,Positive*
G04*
G01*
G75*
%ADD20R,0.03150X0.03740*%
%ADD21R,0.03740X0.03150*%
%ADD31R,0.06004X0.02559*%
%ADD78R,0.05906X0.05906*%
%ADD79C,0.07087*%
%ADD80R,0.07087X0.07087*%
%ADD81R,0.07087X0.07087*%
%ADD82C,0.05906*%
%ADD83R,0.05906X0.05906*%
%ADD84R,0.05906X0.05906*%
%ADD85C,0.05906*%
%ADD86R,0.05906X0.05906*%
%ADD87C,0.20000*%
%ADD101R,0.05807X0.01772*%
D20*
X651850Y556000D02*
D03*
X658150D02*
D03*
X871850Y426000D02*
D03*
X878150D02*
D03*
Y556000D02*
D03*
X871850D02*
D03*
X678150D02*
D03*
X671850D02*
D03*
X858150Y166000D02*
D03*
X851850D02*
D03*
X758150Y426000D02*
D03*
X751850D02*
D03*
X758150Y296000D02*
D03*
X751850D02*
D03*
X858150D02*
D03*
X851850D02*
D03*
X858150Y556000D02*
D03*
X851850D02*
D03*
X878150Y166000D02*
D03*
X871850D02*
D03*
X658150Y426000D02*
D03*
X651850D02*
D03*
X778150Y296000D02*
D03*
X771850D02*
D03*
X878150D02*
D03*
X871850D02*
D03*
X758150Y556000D02*
D03*
X751850D02*
D03*
X758150Y166000D02*
D03*
X751850D02*
D03*
X778150Y426000D02*
D03*
X771850D02*
D03*
X678150Y166000D02*
D03*
X671850D02*
D03*
X778150D02*
D03*
X771850D02*
D03*
X678150Y426000D02*
D03*
X671850D02*
D03*
X658150Y166000D02*
D03*
X651850D02*
D03*
X678150Y296000D02*
D03*
X671850D02*
D03*
X778150Y556000D02*
D03*
X771850D02*
D03*
X858150Y426000D02*
D03*
X851850D02*
D03*
X658150Y296000D02*
D03*
X651850D02*
D03*
X364850Y114000D02*
D03*
X371150D02*
D03*
X88150Y410000D02*
D03*
X81850D02*
D03*
X121850Y80000D02*
D03*
X128150D02*
D03*
X121850Y86000D02*
D03*
X128150D02*
D03*
X364850Y120000D02*
D03*
X371150D02*
D03*
X116150Y86000D02*
D03*
X109850D02*
D03*
X121850Y74000D02*
D03*
X128150D02*
D03*
X116150D02*
D03*
X109850D02*
D03*
X158150Y410000D02*
D03*
X151850D02*
D03*
X116150Y80000D02*
D03*
X109850D02*
D03*
X383150Y114000D02*
D03*
X376850D02*
D03*
X228150Y410000D02*
D03*
X221850D02*
D03*
X383150Y120000D02*
D03*
X376850D02*
D03*
X351150Y410000D02*
D03*
X344850D02*
D03*
D21*
X66000Y28150D02*
D03*
Y21850D02*
D03*
X59000Y28150D02*
D03*
Y21850D02*
D03*
X73000Y28150D02*
D03*
Y21850D02*
D03*
X223500Y245150D02*
D03*
Y238850D02*
D03*
X399000Y476850D02*
D03*
Y483150D02*
D03*
X390500Y476850D02*
D03*
Y483150D02*
D03*
X131000Y148150D02*
D03*
Y141850D02*
D03*
X90000Y148150D02*
D03*
Y141850D02*
D03*
X106000Y148150D02*
D03*
Y141850D02*
D03*
X115000Y148150D02*
D03*
Y141850D02*
D03*
X140000Y148150D02*
D03*
Y141850D02*
D03*
X129000Y234850D02*
D03*
Y241150D02*
D03*
X288500Y476850D02*
D03*
Y483150D02*
D03*
X297000Y476850D02*
D03*
Y483150D02*
D03*
X314000Y476850D02*
D03*
Y483150D02*
D03*
X384500Y316850D02*
D03*
Y323150D02*
D03*
X410000Y316850D02*
D03*
Y323150D02*
D03*
X401500Y316850D02*
D03*
Y323150D02*
D03*
X393000Y316850D02*
D03*
Y323150D02*
D03*
X376000Y316850D02*
D03*
Y323150D02*
D03*
X435500Y316850D02*
D03*
Y323150D02*
D03*
X444000Y316850D02*
D03*
Y323150D02*
D03*
X452500Y316850D02*
D03*
Y323150D02*
D03*
X461000Y316850D02*
D03*
Y323150D02*
D03*
X469500Y316850D02*
D03*
Y323150D02*
D03*
X486500Y316850D02*
D03*
Y323150D02*
D03*
X478000Y316850D02*
D03*
Y323150D02*
D03*
X495000Y316850D02*
D03*
Y323150D02*
D03*
X418500Y316850D02*
D03*
Y323150D02*
D03*
X427000Y316850D02*
D03*
Y323150D02*
D03*
X297000Y452850D02*
D03*
Y459150D02*
D03*
X331000Y483150D02*
D03*
Y476850D02*
D03*
X60000Y483150D02*
D03*
Y476850D02*
D03*
X280000Y483150D02*
D03*
Y476850D02*
D03*
X314000Y459150D02*
D03*
Y452850D02*
D03*
X382000Y483150D02*
D03*
Y476850D02*
D03*
X348000Y483150D02*
D03*
Y476850D02*
D03*
X305500Y483150D02*
D03*
Y476850D02*
D03*
Y459150D02*
D03*
Y452850D02*
D03*
X288500Y459150D02*
D03*
Y452850D02*
D03*
X77000Y483150D02*
D03*
Y476850D02*
D03*
X68500Y483150D02*
D03*
Y476850D02*
D03*
X94000Y483150D02*
D03*
Y476850D02*
D03*
X85500Y483150D02*
D03*
Y476850D02*
D03*
X373500Y483150D02*
D03*
Y476850D02*
D03*
X280000Y459150D02*
D03*
Y452850D02*
D03*
X356500Y483150D02*
D03*
Y476850D02*
D03*
X365000Y483150D02*
D03*
Y476850D02*
D03*
X339500Y483150D02*
D03*
Y476850D02*
D03*
X322500Y483150D02*
D03*
Y476850D02*
D03*
X145000Y483150D02*
D03*
Y476850D02*
D03*
X153500Y483150D02*
D03*
Y476850D02*
D03*
X136500Y483150D02*
D03*
Y476850D02*
D03*
X204500Y483150D02*
D03*
Y476850D02*
D03*
X238500Y483150D02*
D03*
Y476850D02*
D03*
X111000Y483150D02*
D03*
Y476850D02*
D03*
X119500Y483150D02*
D03*
Y476850D02*
D03*
X187500Y483150D02*
D03*
Y476850D02*
D03*
X179000Y483150D02*
D03*
Y476850D02*
D03*
X255500Y483150D02*
D03*
Y476850D02*
D03*
X162000Y483150D02*
D03*
Y476850D02*
D03*
X102500Y483150D02*
D03*
Y476850D02*
D03*
X247000Y483150D02*
D03*
Y476850D02*
D03*
X213000Y483150D02*
D03*
Y476850D02*
D03*
X170500Y483150D02*
D03*
Y476850D02*
D03*
X128000Y483150D02*
D03*
Y476850D02*
D03*
X230000Y483150D02*
D03*
Y476850D02*
D03*
X221500Y483150D02*
D03*
Y476850D02*
D03*
X264000Y483150D02*
D03*
Y476850D02*
D03*
X33000Y105150D02*
D03*
Y98850D02*
D03*
D31*
X199677Y52000D02*
D03*
Y57000D02*
D03*
Y62000D02*
D03*
Y67000D02*
D03*
Y72000D02*
D03*
Y77000D02*
D03*
Y82000D02*
D03*
X178323D02*
D03*
Y77000D02*
D03*
Y72000D02*
D03*
Y67000D02*
D03*
Y62000D02*
D03*
Y57000D02*
D03*
Y52000D02*
D03*
D78*
X433000Y189000D02*
D03*
X582000Y569000D02*
D03*
X568000D02*
D03*
X555000D02*
D03*
X541000D02*
D03*
X158000Y110000D02*
D03*
X318000Y146000D02*
D03*
X265000Y130000D02*
D03*
X236000Y75000D02*
D03*
X600000Y82000D02*
D03*
X587000D02*
D03*
X250000Y75000D02*
D03*
Y55000D02*
D03*
X236000D02*
D03*
X44000Y23000D02*
D03*
X225000Y19000D02*
D03*
X254000D02*
D03*
X211000D02*
D03*
X267000D02*
D03*
X280000D02*
D03*
X240000D02*
D03*
X422000Y32000D02*
D03*
X519000Y581000D02*
D03*
X40000Y228000D02*
D03*
X580000Y550000D02*
D03*
X410000Y526000D02*
D03*
X553000Y80000D02*
D03*
X290000Y526000D02*
D03*
X140000D02*
D03*
X260000D02*
D03*
X40000Y208000D02*
D03*
X15000D02*
D03*
Y228000D02*
D03*
X354000Y306000D02*
D03*
Y328000D02*
D03*
X159000Y168000D02*
D03*
X81000D02*
D03*
X133000D02*
D03*
X94000D02*
D03*
X146000D02*
D03*
X120000D02*
D03*
X107000D02*
D03*
X568000Y550000D02*
D03*
X556000D02*
D03*
X544000D02*
D03*
X520000D02*
D03*
X532000D02*
D03*
D79*
X130000Y580000D02*
D03*
Y570000D02*
D03*
X120000Y580000D02*
D03*
Y570000D02*
D03*
X110000Y580000D02*
D03*
Y570000D02*
D03*
X100000Y580000D02*
D03*
Y570000D02*
D03*
X90000Y580000D02*
D03*
Y570000D02*
D03*
X80000Y580000D02*
D03*
Y570000D02*
D03*
X70000Y580000D02*
D03*
Y570000D02*
D03*
X60000Y580000D02*
D03*
X250000D02*
D03*
Y570000D02*
D03*
X240000Y580000D02*
D03*
Y570000D02*
D03*
X230000Y580000D02*
D03*
Y570000D02*
D03*
X220000Y580000D02*
D03*
Y570000D02*
D03*
X210000Y580000D02*
D03*
Y570000D02*
D03*
X200000Y580000D02*
D03*
Y570000D02*
D03*
X190000Y580000D02*
D03*
Y570000D02*
D03*
X180000Y580000D02*
D03*
X370000D02*
D03*
Y570000D02*
D03*
X360000Y580000D02*
D03*
Y570000D02*
D03*
X350000Y580000D02*
D03*
Y570000D02*
D03*
X340000Y580000D02*
D03*
Y570000D02*
D03*
X330000Y580000D02*
D03*
Y570000D02*
D03*
X320000Y580000D02*
D03*
Y570000D02*
D03*
X310000Y580000D02*
D03*
Y570000D02*
D03*
X300000Y580000D02*
D03*
X490000D02*
D03*
Y570000D02*
D03*
X480000Y580000D02*
D03*
Y570000D02*
D03*
X470000Y580000D02*
D03*
Y570000D02*
D03*
X460000Y580000D02*
D03*
Y570000D02*
D03*
X450000Y580000D02*
D03*
Y570000D02*
D03*
X440000Y580000D02*
D03*
Y570000D02*
D03*
X430000Y580000D02*
D03*
Y570000D02*
D03*
X420000Y580000D02*
D03*
X660000Y530000D02*
D03*
X670000D02*
D03*
X660000Y520000D02*
D03*
X670000D02*
D03*
X660000Y510000D02*
D03*
X670000D02*
D03*
X660000Y500000D02*
D03*
X670000D02*
D03*
X660000Y490000D02*
D03*
X670000D02*
D03*
X660000Y480000D02*
D03*
X670000D02*
D03*
X660000Y470000D02*
D03*
X670000D02*
D03*
X660000Y460000D02*
D03*
Y400000D02*
D03*
X670000D02*
D03*
X660000Y390000D02*
D03*
X670000D02*
D03*
X660000Y380000D02*
D03*
X670000D02*
D03*
X660000Y370000D02*
D03*
X670000D02*
D03*
X660000Y360000D02*
D03*
X670000D02*
D03*
X660000Y350000D02*
D03*
X670000D02*
D03*
X660000Y340000D02*
D03*
X670000D02*
D03*
X660000Y330000D02*
D03*
Y270000D02*
D03*
X670000D02*
D03*
X660000Y260000D02*
D03*
X670000D02*
D03*
X660000Y250000D02*
D03*
X670000D02*
D03*
X660000Y240000D02*
D03*
X670000D02*
D03*
X660000Y230000D02*
D03*
X670000D02*
D03*
X660000Y220000D02*
D03*
X670000D02*
D03*
X660000Y210000D02*
D03*
X670000D02*
D03*
X660000Y200000D02*
D03*
Y140000D02*
D03*
X670000D02*
D03*
X660000Y130000D02*
D03*
X670000D02*
D03*
X660000Y120000D02*
D03*
X670000D02*
D03*
X660000Y110000D02*
D03*
X670000D02*
D03*
X660000Y100000D02*
D03*
X670000D02*
D03*
X660000Y90000D02*
D03*
X670000D02*
D03*
X660000Y80000D02*
D03*
X670000D02*
D03*
X660000Y70000D02*
D03*
X760000Y530000D02*
D03*
X770000D02*
D03*
X760000Y520000D02*
D03*
X770000D02*
D03*
X760000Y510000D02*
D03*
X770000D02*
D03*
X760000Y500000D02*
D03*
X770000D02*
D03*
X760000Y490000D02*
D03*
X770000D02*
D03*
X760000Y480000D02*
D03*
X770000D02*
D03*
X760000Y470000D02*
D03*
X770000D02*
D03*
X760000Y460000D02*
D03*
X760000Y400000D02*
D03*
X770000D02*
D03*
X760000Y390000D02*
D03*
X770000D02*
D03*
X760000Y380000D02*
D03*
X770000D02*
D03*
X760000Y370000D02*
D03*
X770000D02*
D03*
X760000Y360000D02*
D03*
X770000D02*
D03*
X760000Y350000D02*
D03*
X770000D02*
D03*
X760000Y340000D02*
D03*
X770000D02*
D03*
X760000Y330000D02*
D03*
Y270000D02*
D03*
X770000D02*
D03*
X760000Y260000D02*
D03*
X770000D02*
D03*
X760000Y250000D02*
D03*
X770000D02*
D03*
X760000Y240000D02*
D03*
X770000D02*
D03*
X760000Y230000D02*
D03*
X770000D02*
D03*
X760000Y220000D02*
D03*
X770000D02*
D03*
X760000Y210000D02*
D03*
X770000D02*
D03*
X760000Y200000D02*
D03*
Y140000D02*
D03*
X770000D02*
D03*
X760000Y130000D02*
D03*
X770000D02*
D03*
X760000Y120000D02*
D03*
X770000D02*
D03*
X760000Y110000D02*
D03*
X770000D02*
D03*
X760000Y100000D02*
D03*
X770000D02*
D03*
X760000Y90000D02*
D03*
X770000D02*
D03*
X760000Y80000D02*
D03*
X770000D02*
D03*
X760000Y70000D02*
D03*
X860000Y530000D02*
D03*
X870000D02*
D03*
X860000Y520000D02*
D03*
X870000D02*
D03*
X860000Y510000D02*
D03*
X870000D02*
D03*
X860000Y500000D02*
D03*
X870000D02*
D03*
X860000Y490000D02*
D03*
X870000D02*
D03*
X860000Y480000D02*
D03*
X870000D02*
D03*
X860000Y470000D02*
D03*
X870000D02*
D03*
X860000Y460000D02*
D03*
Y400000D02*
D03*
X870000D02*
D03*
X860000Y390000D02*
D03*
X870000D02*
D03*
X860000Y380000D02*
D03*
X870000D02*
D03*
X860000Y370000D02*
D03*
X870000D02*
D03*
X860000Y360000D02*
D03*
X870000D02*
D03*
X860000Y350000D02*
D03*
X870000D02*
D03*
X860000Y340000D02*
D03*
X870000D02*
D03*
X860000Y330000D02*
D03*
Y270000D02*
D03*
X870000D02*
D03*
X860000Y260000D02*
D03*
X870000D02*
D03*
X860000Y250000D02*
D03*
X870000D02*
D03*
X860000Y240000D02*
D03*
X870000D02*
D03*
X860000Y230000D02*
D03*
X870000D02*
D03*
X860000Y220000D02*
D03*
X870000D02*
D03*
X860000Y210000D02*
D03*
X870000D02*
D03*
X860000Y200000D02*
D03*
Y140000D02*
D03*
X870000D02*
D03*
X860000Y130000D02*
D03*
X870000D02*
D03*
X860000Y120000D02*
D03*
X870000D02*
D03*
X860000Y110000D02*
D03*
X870000D02*
D03*
X860000Y100000D02*
D03*
X870000D02*
D03*
X860000Y90000D02*
D03*
X870000D02*
D03*
X860000Y80000D02*
D03*
X870000D02*
D03*
X860000Y70000D02*
D03*
X543000Y43500D02*
D03*
Y33500D02*
D03*
X533000Y43500D02*
D03*
Y33500D02*
D03*
X523000Y43500D02*
D03*
Y33500D02*
D03*
X513000Y43500D02*
D03*
Y33500D02*
D03*
X503000Y43500D02*
D03*
Y33500D02*
D03*
X493000Y43500D02*
D03*
Y33500D02*
D03*
X483000Y43500D02*
D03*
Y33500D02*
D03*
X473000Y43500D02*
D03*
X20000Y271000D02*
D03*
Y286000D02*
D03*
D80*
X60000Y570000D02*
D03*
X180000D02*
D03*
X300000D02*
D03*
X420000D02*
D03*
X473000Y33500D02*
D03*
D81*
X670000Y460000D02*
D03*
Y330000D02*
D03*
Y200000D02*
D03*
Y70000D02*
D03*
X770000Y460000D02*
D03*
X770000Y330000D02*
D03*
Y200000D02*
D03*
Y70000D02*
D03*
X870000Y460000D02*
D03*
Y330000D02*
D03*
Y200000D02*
D03*
Y70000D02*
D03*
X20000Y256000D02*
D03*
D82*
X141000Y364000D02*
D03*
X131000D02*
D03*
X57000Y100000D02*
D03*
Y110000D02*
D03*
X471000Y452000D02*
D03*
X481000D02*
D03*
X587000Y530000D02*
D03*
X577000D02*
D03*
X514000Y245000D02*
D03*
X524000D02*
D03*
X32000Y123000D02*
D03*
X42000D02*
D03*
X57000Y70000D02*
D03*
Y60000D02*
D03*
X265000Y63000D02*
D03*
Y73000D02*
D03*
D83*
X121000Y364000D02*
D03*
X491000Y452000D02*
D03*
X597000Y530000D02*
D03*
X534000Y245000D02*
D03*
X22000Y123000D02*
D03*
D84*
X57000Y90000D02*
D03*
Y50000D02*
D03*
X265000Y53000D02*
D03*
D85*
X382000Y22000D02*
D03*
X422000D02*
D03*
X412000D02*
D03*
X382000Y32000D02*
D03*
X392000Y22000D02*
D03*
Y32000D02*
D03*
X402000Y22000D02*
D03*
Y32000D02*
D03*
X412000D02*
D03*
X519000Y571000D02*
D03*
X280000Y294000D02*
D03*
Y334000D02*
D03*
Y374000D02*
D03*
Y324000D02*
D03*
Y364000D02*
D03*
Y314000D02*
D03*
Y354000D02*
D03*
Y304000D02*
D03*
Y344000D02*
D03*
X79000Y270000D02*
D03*
Y320000D02*
D03*
Y280000D02*
D03*
Y330000D02*
D03*
Y290000D02*
D03*
Y340000D02*
D03*
Y300000D02*
D03*
Y350000D02*
D03*
Y310000D02*
D03*
X295000Y344000D02*
D03*
Y304000D02*
D03*
Y354000D02*
D03*
Y314000D02*
D03*
Y364000D02*
D03*
Y324000D02*
D03*
Y374000D02*
D03*
Y334000D02*
D03*
Y294000D02*
D03*
X450000Y526000D02*
D03*
X490000D02*
D03*
X440000D02*
D03*
X480000D02*
D03*
X430000D02*
D03*
X470000D02*
D03*
X420000D02*
D03*
X460000D02*
D03*
X500000D02*
D03*
X315000Y344000D02*
D03*
Y304000D02*
D03*
Y354000D02*
D03*
Y314000D02*
D03*
Y364000D02*
D03*
Y324000D02*
D03*
Y374000D02*
D03*
Y334000D02*
D03*
Y294000D02*
D03*
X580000Y420000D02*
D03*
Y460000D02*
D03*
Y410000D02*
D03*
Y450000D02*
D03*
Y400000D02*
D03*
Y440000D02*
D03*
Y390000D02*
D03*
Y430000D02*
D03*
Y470000D02*
D03*
X513000Y80000D02*
D03*
X473000D02*
D03*
X523000D02*
D03*
X483000D02*
D03*
X533000D02*
D03*
X493000D02*
D03*
X543000D02*
D03*
X503000D02*
D03*
X463000D02*
D03*
X330000Y526000D02*
D03*
X370000D02*
D03*
X320000D02*
D03*
X360000D02*
D03*
X310000D02*
D03*
X350000D02*
D03*
X300000D02*
D03*
X340000D02*
D03*
X380000D02*
D03*
X580000Y310000D02*
D03*
Y350000D02*
D03*
Y300000D02*
D03*
Y340000D02*
D03*
Y290000D02*
D03*
Y330000D02*
D03*
Y280000D02*
D03*
Y320000D02*
D03*
Y360000D02*
D03*
X100000Y526000D02*
D03*
X60000D02*
D03*
X110000D02*
D03*
X70000D02*
D03*
X120000D02*
D03*
X80000D02*
D03*
X130000D02*
D03*
X90000D02*
D03*
X50000D02*
D03*
X580000Y200000D02*
D03*
Y240000D02*
D03*
Y190000D02*
D03*
Y230000D02*
D03*
Y180000D02*
D03*
Y220000D02*
D03*
Y170000D02*
D03*
Y210000D02*
D03*
Y250000D02*
D03*
X220000Y526000D02*
D03*
X180000D02*
D03*
X230000D02*
D03*
X190000D02*
D03*
X240000D02*
D03*
X200000D02*
D03*
X250000D02*
D03*
X210000D02*
D03*
X170000D02*
D03*
D86*
X280000Y384000D02*
D03*
X431000Y421000D02*
D03*
X79000Y360000D02*
D03*
X431000Y438000D02*
D03*
X295000Y384000D02*
D03*
X315000D02*
D03*
X580000Y380000D02*
D03*
Y270000D02*
D03*
Y160000D02*
D03*
X431000Y387000D02*
D03*
Y404000D02*
D03*
Y370000D02*
D03*
D87*
X880000Y20000D02*
D03*
X20000Y580000D02*
D03*
Y20000D02*
D03*
X880000Y580000D02*
D03*
D101*
X105433Y20323D02*
D03*
Y22882D02*
D03*
Y25441D02*
D03*
Y28000D02*
D03*
Y30559D02*
D03*
Y33118D02*
D03*
Y35677D02*
D03*
X128567D02*
D03*
Y33118D02*
D03*
Y30559D02*
D03*
Y28000D02*
D03*
Y25441D02*
D03*
Y22882D02*
D03*
Y20323D02*
D03*
M02*
