G04*
G04 #@! TF.GenerationSoftware,Altium Limited,Altium Designer,22.3.1 (43)*
G04*
G04 Layer_Physical_Order=4*
G04 Layer_Color=16711680*
%FSLAX25Y25*%
%MOIN*%
G70*
G04*
G04 #@! TF.SameCoordinates,A87CA661-C890-46F0-A320-74F5598AF3CC*
G04*
G04*
G04 #@! TF.FilePolarity,Positive*
G04*
G01*
G75*
%ADD16C,0.01000*%
%ADD20R,0.03150X0.03740*%
%ADD21R,0.03740X0.03150*%
%ADD31R,0.06004X0.02559*%
%ADD78R,0.05906X0.05906*%
%ADD79C,0.07087*%
%ADD80R,0.07087X0.07087*%
%ADD81R,0.07087X0.07087*%
%ADD82C,0.05906*%
%ADD83R,0.05906X0.05906*%
%ADD84R,0.05906X0.05906*%
%ADD85C,0.05906*%
%ADD86R,0.05906X0.05906*%
%ADD87C,0.20000*%
%ADD88C,0.05000*%
%ADD101R,0.05807X0.01772*%
D16*
X57000Y232000D02*
Y238000D01*
Y232000D02*
X60000Y229000D01*
X47000Y239879D02*
X64000Y222879D01*
X60000Y229000D02*
X67414D01*
X47000Y239879D02*
Y384485D01*
X64000Y214000D02*
Y222879D01*
X62000Y233000D02*
X67414D01*
X44000Y238243D02*
X57500Y224743D01*
Y220157D02*
Y224743D01*
X44000Y238243D02*
Y383243D01*
X45500Y238864D02*
Y383864D01*
X60000Y211082D02*
Y224364D01*
X45500Y238864D02*
X60000Y224364D01*
X323000Y102000D02*
X325500Y99500D01*
X310000Y102000D02*
X323000D01*
X325500Y99500D02*
X345414D01*
X333000Y101000D02*
X343914D01*
X316000Y107000D02*
X327000D01*
X333000Y101000D01*
X309000Y109000D02*
Y117000D01*
X298000Y98000D02*
X309000Y109000D01*
X298000Y94000D02*
Y98000D01*
X591000Y118000D02*
X642000D01*
X655000Y105000D01*
X884000Y287414D02*
X884586Y288000D01*
X884000Y210000D02*
Y287414D01*
X884586Y288000D02*
X891000D01*
X528000Y441414D02*
X528586Y442000D01*
X528000Y426000D02*
Y441414D01*
X528586Y442000D02*
X566414D01*
X567000Y441414D01*
Y341000D02*
Y441414D01*
X428586Y478000D02*
X479000D01*
X493000Y464000D01*
X496000Y495000D02*
X497000Y494000D01*
X509000D01*
X495765Y486765D02*
X497351D01*
X495000Y486000D02*
X495765Y486765D01*
X497351D02*
X497586Y487000D01*
X510000D01*
X495082Y476000D02*
X498082Y479000D01*
X510000D01*
X494000Y476000D02*
X495082D01*
X560000Y112000D02*
X576000D01*
X554000Y118000D02*
X560000Y112000D01*
X575235Y122235D02*
X576000Y123000D01*
X571918Y122000D02*
X572152Y122235D01*
X575235D01*
X570000Y122000D02*
X571918D01*
X568000Y124000D02*
X570000Y122000D01*
X568000Y124000D02*
Y151000D01*
X554000Y118000D02*
Y122500D01*
X496757Y124000D02*
X556000D01*
X557000Y123000D01*
Y119000D02*
X560000Y116000D01*
X567000D01*
X557000Y119000D02*
Y123000D01*
X563000Y156000D02*
X568000Y151000D01*
X563000Y156000D02*
Y166000D01*
X548621Y166379D02*
X549000Y166000D01*
X548621Y166379D02*
Y198000D01*
X547235Y156235D02*
X548000Y157000D01*
X537000Y156000D02*
X545414D01*
X545649Y156235D01*
X528035Y164964D02*
X537000Y156000D01*
X545649Y156235D02*
X547235D01*
X562500Y122500D02*
X563000Y122000D01*
X562500Y122500D02*
Y149500D01*
X562000Y150000D02*
X562500Y149500D01*
X330000Y8000D02*
X435414D01*
X436000Y8586D01*
Y87000D01*
X415181Y114095D02*
X425319D01*
X414595Y99405D02*
Y113510D01*
Y99405D02*
X416784Y97216D01*
X420784D01*
X414595Y113510D02*
X415181Y114095D01*
X413000Y98586D02*
X413586Y98000D01*
X413000Y115414D02*
X413586Y116000D01*
Y94414D02*
X414000Y94000D01*
X413000Y98586D02*
Y115414D01*
X413586Y94414D02*
Y98000D01*
Y116000D02*
X428000D01*
X431000Y113000D01*
X425905Y99586D02*
Y113510D01*
X425319Y114095D02*
X425905Y113510D01*
Y99586D02*
X426490Y99000D01*
X444000D01*
X420784Y97216D02*
X430500Y87500D01*
X495500Y122500D02*
X554000D01*
X490257Y127743D02*
X495500Y122500D01*
X451586Y127743D02*
X490257D01*
X451000Y106000D02*
Y127157D01*
X451586Y127743D01*
X444000Y99000D02*
X451000Y106000D01*
X505000Y179000D02*
X525757D01*
X505000Y172000D02*
X520879D01*
X526500Y166379D02*
X545621Y185500D01*
X539561Y188561D02*
Y202439D01*
X487586Y186000D02*
X505000D01*
X525000Y150121D02*
Y167000D01*
X544121Y186121D01*
X528035Y165793D02*
X547121Y184879D01*
X520879Y172000D02*
X538000Y189121D01*
X525757Y179000D02*
X536500Y189743D01*
X505000Y186000D02*
X530636D01*
X522000Y168636D02*
X541061Y187697D01*
X523500Y167621D02*
X542561Y186682D01*
X526500Y149500D02*
Y166379D01*
X516000Y165000D02*
X539561Y188561D01*
X544121Y186121D02*
Y200000D01*
X530636Y186000D02*
X535000Y190364D01*
X522000Y159000D02*
Y168636D01*
X547121Y184879D02*
Y198621D01*
X542561Y186682D02*
Y200561D01*
X545621Y185500D02*
Y199379D01*
X536500Y189743D02*
Y204379D01*
X541061Y187697D02*
Y201561D01*
X505000Y165000D02*
X516000D01*
X528035Y164964D02*
Y165793D01*
X491000Y179000D02*
X505000D01*
X538000Y189121D02*
Y203000D01*
X523500Y151500D02*
Y167621D01*
X548621Y198000D02*
X554500Y203879D01*
Y222636D01*
X539561Y202439D02*
X545500Y208379D01*
X551500Y223879D02*
X557000Y229379D01*
X547000Y225879D02*
X552000Y230879D01*
X545500Y226500D02*
X550000Y231000D01*
X541061Y201561D02*
X547000Y207500D01*
X544000Y209000D02*
Y227121D01*
X548500Y206500D02*
Y225257D01*
X550000Y224500D02*
X555000Y229500D01*
X541000Y229000D02*
X545500Y233500D01*
X542500Y227743D02*
X547000Y232243D01*
X536500Y204379D02*
X542500Y210379D01*
X547121Y198621D02*
X553000Y204500D01*
X541000Y211000D02*
Y229000D01*
X535000Y205000D02*
X541000Y211000D01*
X544000Y227121D02*
X548500Y231621D01*
X542561Y200561D02*
X548500Y206500D01*
X551500Y205257D02*
Y223879D01*
X542500Y210379D02*
Y227743D01*
X548500Y225257D02*
X553500Y230257D01*
X538000Y203000D02*
X544000Y209000D01*
X545500Y208379D02*
Y226500D01*
X544121Y200000D02*
X550000Y205879D01*
X553000Y204500D02*
Y223257D01*
X547000Y207500D02*
Y225879D01*
X545621Y199379D02*
X551500Y205257D01*
X550000Y205879D02*
Y224500D01*
X553000Y223257D02*
X559000Y229257D01*
X492000Y172000D02*
X505000D01*
X554500Y222636D02*
X560500Y228636D01*
Y277914D01*
X537086Y280000D02*
X558414D01*
X560500Y277914D01*
X557500Y278500D02*
X559000Y277000D01*
Y229257D02*
Y277000D01*
X535086Y278500D02*
X557500D01*
X536000Y281086D02*
X537086Y280000D01*
X534000Y279586D02*
X535086Y278500D01*
X534000Y279586D02*
Y328414D01*
X553500Y230257D02*
Y273293D01*
X526899Y273000D02*
X529278Y275379D01*
X538000Y263000D02*
Y273293D01*
X557000Y229379D02*
Y276293D01*
X552914Y273879D02*
X553500Y273293D01*
X526000Y273000D02*
X526899D01*
X532121Y276879D02*
X556414D01*
X529278Y275379D02*
X553657D01*
X538000Y273293D02*
X538586Y273879D01*
X552914D01*
X524000Y285000D02*
X532121Y276879D01*
X556414D02*
X557000Y276293D01*
X553657Y275379D02*
X555000Y274036D01*
Y229500D02*
Y274036D01*
X499000Y144000D02*
X505000D01*
X518879D01*
X536586Y320000D02*
X541000D01*
X536000Y281086D02*
Y319414D01*
X536586Y320000D01*
X534586Y329000D02*
X541000D01*
X534000Y328414D02*
X534586Y329000D01*
X548000Y283500D02*
X548500Y283000D01*
X562500D01*
X447510Y91914D02*
X463000D01*
X420000Y104000D02*
Y109000D01*
Y104000D02*
X422000Y102000D01*
Y98121D02*
Y102000D01*
X430500Y87500D02*
X432828D01*
X422000Y98121D02*
X431121Y89000D01*
X434000D01*
X433914Y62672D02*
Y86414D01*
X432828Y87500D02*
X433914Y86414D01*
X433328Y62086D02*
X433914Y62672D01*
X412000Y62086D02*
X433328D01*
X411414Y61500D02*
X412000Y62086D01*
X407086Y64000D02*
X430414D01*
X431000Y64586D01*
X406500Y63414D02*
X407086Y64000D01*
X431000Y64586D02*
Y79414D01*
X410828Y54000D02*
X411414Y54586D01*
X350000Y54000D02*
X410828D01*
X411414Y54586D02*
Y61500D01*
X163000Y110000D02*
X166000Y113000D01*
X158000Y110000D02*
X163000D01*
X163500Y117621D02*
X166121Y115000D01*
X163500Y117621D02*
Y176414D01*
X166121Y115000D02*
X246965D01*
X349000Y333000D02*
X349586Y333586D01*
X339918Y333000D02*
X349000D01*
X349586Y333586D02*
Y360000D01*
X349000Y360586D02*
X349586Y360000D01*
X349000Y360586D02*
Y365000D01*
X336765Y329848D02*
X339918Y333000D01*
X335414Y337000D02*
X336000Y337586D01*
X330000Y320000D02*
Y328879D01*
X329086Y337000D02*
X335414D01*
X331000Y354000D02*
X336000Y349000D01*
Y337586D02*
Y349000D01*
X339621Y338500D02*
X344500D01*
X330000Y328879D02*
X339621Y338500D01*
X328500Y319379D02*
Y336414D01*
X329086Y337000D01*
X344500Y338500D02*
X345000Y339000D01*
Y355414D01*
X343914Y356500D02*
X345000Y355414D01*
X335500Y356500D02*
X343914D01*
X311000Y309000D02*
X326000D01*
X306000Y314000D02*
X311000Y309000D01*
X306000Y314000D02*
Y333000D01*
X305000Y334000D02*
X306000Y333000D01*
X295000Y334000D02*
X305000D01*
X265000Y292000D02*
Y366586D01*
X261000Y286000D02*
X261765Y286765D01*
Y288765D02*
X265000Y292000D01*
X261765Y286765D02*
Y288765D01*
X263500Y294000D02*
Y365965D01*
X262500Y293000D02*
X263500Y294000D01*
X259243Y293000D02*
X262500D01*
X259121Y295000D02*
X261000D01*
Y359000D01*
X253500Y289379D02*
X259121Y295000D01*
X255000Y288757D02*
X259243Y293000D01*
X255000Y276207D02*
Y288757D01*
Y276207D02*
X255586Y275621D01*
X254086Y274000D02*
X273000D01*
X253500Y274586D02*
Y289379D01*
Y274586D02*
X254086Y274000D01*
X252000Y290000D02*
X259000Y297000D01*
X252000Y227000D02*
Y290000D01*
X259000Y297000D02*
Y353000D01*
X255500Y229500D02*
X260000Y225000D01*
X254000Y228000D02*
Y263879D01*
X255500Y229500D02*
Y263000D01*
X254000Y228000D02*
X258500Y223500D01*
X254000Y263879D02*
X260021Y269900D01*
X255500Y263000D02*
X257400Y264900D01*
X255586Y275621D02*
X274500D01*
X257000Y363000D02*
X261000Y359000D01*
X273000Y258121D02*
Y274000D01*
X274914Y283500D02*
X276371Y282043D01*
X267086Y283500D02*
X274914D01*
X266500Y284086D02*
Y370379D01*
Y284086D02*
X267086Y283500D01*
X279371Y263629D02*
X281250Y261750D01*
X277871Y262129D02*
Y284043D01*
X279371Y263629D02*
Y286043D01*
X278414Y287000D02*
X279371Y286043D01*
X280871Y277871D02*
X288000Y285000D01*
X276371Y261507D02*
Y282043D01*
X276914Y285000D02*
X277871Y284043D01*
Y262129D02*
X279750Y260250D01*
X276371Y261507D02*
X278250Y259629D01*
X274500Y261257D02*
Y275621D01*
X280871Y264250D02*
X282121Y263000D01*
X280871Y264250D02*
Y277871D01*
X268586Y285000D02*
X276914D01*
X268000Y285586D02*
Y361364D01*
Y285586D02*
X268586Y285000D01*
X269500Y287586D02*
Y309914D01*
X270086Y287000D02*
X278414D01*
X269500Y287586D02*
X270086Y287000D01*
X276000Y395000D02*
Y497414D01*
X275000Y236879D02*
Y256121D01*
X273000Y258121D02*
X275000Y256121D01*
X267500Y229536D02*
X270222Y232257D01*
X270379D01*
X275000Y236879D01*
X269500Y309914D02*
X273586Y314000D01*
X256964Y372500D02*
X263500Y365965D01*
X268000Y361364D02*
X270636Y364000D01*
X266500Y370379D02*
X270121Y374000D01*
X273586Y314000D02*
X280000D01*
X256086Y372500D02*
X256964D01*
X270636Y364000D02*
X280000D01*
X255000Y373586D02*
X256086Y372500D01*
X257000Y374586D02*
X265000Y366586D01*
X257000Y374586D02*
Y387000D01*
X261000Y391000D01*
X272000D01*
X276000Y395000D01*
X265000Y384000D02*
X270500Y389500D01*
X264000Y384000D02*
X265000D01*
X270500Y389500D02*
X284914D01*
X285500Y335086D02*
Y388914D01*
X284914Y389500D02*
X285500Y388914D01*
X276000Y497414D02*
X276586Y498000D01*
X378414D01*
X377000Y499500D02*
Y511000D01*
X275964Y499500D02*
X377000D01*
X378414Y498000D02*
X379439Y499025D01*
X369000Y501000D02*
X370000Y502000D01*
X275343Y501000D02*
X369000D01*
X370000Y502000D02*
Y526000D01*
X379439Y499025D02*
Y510439D01*
X377000Y511000D02*
X386000Y520000D01*
X379439Y510439D02*
X387500Y518500D01*
Y533500D01*
X391000Y537000D01*
X257000Y355000D02*
X259000Y353000D01*
X256000Y174000D02*
X260000Y178000D01*
X257000Y230621D02*
X261500Y226121D01*
X264500Y234414D02*
X265086Y235000D01*
X267500Y170379D02*
Y229536D01*
X269000Y228414D02*
X269586Y229000D01*
X266000Y169757D02*
Y230157D01*
X269601Y233757D01*
X264500Y169136D02*
Y234414D01*
X269586Y229000D02*
X282000D01*
X264500Y169136D02*
X265500Y168136D01*
X263000Y235536D02*
X263735Y236270D01*
X261500Y167893D02*
Y226121D01*
X257000Y188000D02*
Y222000D01*
X265086Y235000D02*
X268000D01*
X269000Y171000D02*
Y228414D01*
X256000Y184586D02*
X258500Y187086D01*
X263000Y168515D02*
Y235536D01*
X261500Y167893D02*
X262500Y166893D01*
X263000Y168515D02*
X264000Y167515D01*
X267500Y170379D02*
X270775Y167104D01*
X260000Y178000D02*
Y225000D01*
X258500Y187086D02*
Y223500D01*
X266000Y169757D02*
X270154Y165604D01*
X252000Y227000D02*
X257000Y222000D01*
X249050Y180050D02*
X257000Y188000D01*
X269000Y171000D02*
X271396Y168604D01*
X257586Y90439D02*
X262353D01*
X262939Y86939D02*
X264586Y85293D01*
X257000Y91025D02*
X257586Y90439D01*
X262353D02*
X262939Y89854D01*
Y86939D02*
Y89854D01*
X265000Y87586D02*
Y117414D01*
X253000Y118000D02*
X264414D01*
X265000Y87586D02*
X265586Y87000D01*
X264586Y85293D02*
X298414D01*
X257000Y91025D02*
Y113000D01*
X264414Y118000D02*
X265000Y117414D01*
X256235Y123765D02*
X257000Y123000D01*
X253235Y123765D02*
X256235D01*
X249050Y127950D02*
X253235Y123765D01*
X245000Y110000D02*
X253000Y118000D01*
X260021Y269900D02*
X268908D01*
X257000Y230621D02*
Y254414D01*
X257400Y264900D02*
X263000D01*
X257586Y255000D02*
X263000D01*
X257000Y254414D02*
X257586Y255000D01*
X249050Y127950D02*
Y180050D01*
X225636Y110000D02*
X226000D01*
X245000D01*
X246965Y115000D02*
X247550Y115586D01*
Y188914D01*
X168500Y123000D02*
X231000D01*
X245464Y119000D02*
X246050Y119586D01*
X225000Y119000D02*
X245464D01*
X246050Y119586D02*
Y187414D01*
X262586Y83500D02*
X268914D01*
X262000Y84086D02*
Y84914D01*
Y84086D02*
X262586Y83500D01*
X186000Y85500D02*
X261414D01*
X262000Y84914D01*
X263923Y82000D02*
X264509Y81414D01*
X199677Y82000D02*
X263923D01*
X264509Y73491D02*
Y81414D01*
X268914Y83500D02*
X270000Y82414D01*
X264509Y73491D02*
X265000Y73000D01*
X270000Y72586D02*
Y82414D01*
X296000Y64000D02*
X297000D01*
X298414Y85293D02*
X299000Y84707D01*
Y66000D02*
Y84707D01*
X265586Y87000D02*
X299414D01*
X300500Y85914D01*
X303500Y73743D02*
Y85414D01*
X304086Y86000D01*
X300914Y88500D02*
X302000Y87414D01*
X300500Y72500D02*
Y85914D01*
X297000Y64000D02*
X299000Y66000D01*
X303500Y73743D02*
X311243Y66000D01*
X302000Y73121D02*
X310621Y64500D01*
X304086Y86000D02*
X311000D01*
X300500Y72500D02*
X310000Y63000D01*
X302000Y73121D02*
Y87414D01*
X296000Y63000D02*
Y64000D01*
X270586Y72000D02*
X295000D01*
X270000Y72586D02*
X270586Y72000D01*
X403000Y512586D02*
Y533414D01*
X403586Y534000D02*
X429414D01*
X430000Y526000D02*
Y533414D01*
X429414Y534000D02*
X430000Y533414D01*
X403000D02*
X403586Y534000D01*
X401414Y511000D02*
X403000Y512586D01*
X386000Y511000D02*
X401414D01*
X386000Y520000D02*
Y535000D01*
X421586Y486000D02*
X438000D01*
X420000Y487586D02*
Y526000D01*
Y487586D02*
X421586Y486000D01*
X386000Y535000D02*
X390000Y539000D01*
X101086Y185000D02*
X154000D01*
X100500Y185586D02*
X101086Y185000D01*
X100500Y185586D02*
Y219586D01*
X95379Y188000D02*
X100379Y183000D01*
X92000Y188000D02*
X95379D01*
X100379Y183000D02*
X168586D01*
X101086Y219000D02*
X112000D01*
X154000Y185000D02*
X157000Y188000D01*
X146000Y192000D02*
X168015D01*
X286351Y268765D02*
X293235D01*
X294000Y268000D01*
X285000Y269000D02*
Y279000D01*
X292000Y286000D01*
X298000D01*
X289000Y259586D02*
Y263000D01*
X282121D02*
X289000D01*
X288000Y285000D02*
Y299000D01*
X294000Y257000D02*
Y268000D01*
X289000Y259586D02*
X297586Y251000D01*
X307729Y274729D02*
X313000Y280000D01*
X294000Y257000D02*
X298000Y253000D01*
X312000D01*
X297586Y251000D02*
X317000D01*
X312000Y253000D02*
X317000Y258000D01*
X303000Y268000D02*
X307729Y272729D01*
Y274729D01*
X302000Y260000D02*
X307000Y265000D01*
X315000D01*
X280336Y251250D02*
X283914D01*
X284500Y248000D02*
Y250664D01*
X283914Y251250D02*
X284500Y250664D01*
X284000Y256000D02*
Y256157D01*
X281250Y258907D02*
X284000Y256157D01*
X281250Y258907D02*
Y261750D01*
X279750Y251836D02*
X280336Y251250D01*
X279750Y251836D02*
Y260250D01*
X278836Y249000D02*
X283000D01*
X278250Y249586D02*
X278836Y249000D01*
X283000Y242586D02*
Y249000D01*
X278250Y249586D02*
Y259629D01*
X274500Y261257D02*
X276750Y259007D01*
X279000Y244900D02*
Y245982D01*
X276750Y248232D02*
X279000Y245982D01*
X276750Y248232D02*
Y259007D01*
X247000Y288879D02*
X250000Y291879D01*
X242500Y279379D02*
Y290743D01*
X235000Y283843D02*
Y295017D01*
X231257Y274500D02*
X238000Y281243D01*
X233500Y295638D02*
X236379Y298517D01*
X231879Y273000D02*
X239500Y280621D01*
X238000Y293000D02*
X240879Y295879D01*
X236500Y282621D02*
Y293664D01*
X242500Y290743D02*
X245379Y293621D01*
X241000Y291364D02*
X243879Y294243D01*
X238000Y281243D02*
Y293000D01*
X196000Y281000D02*
X232157D01*
X247000Y260000D02*
Y288879D01*
X244000Y290121D02*
X247000Y293121D01*
X240000Y269500D02*
X245500Y275000D01*
X232157Y281000D02*
X235000Y283843D01*
X245500Y289500D02*
X248500Y292500D01*
X232000Y285086D02*
Y296259D01*
X241000Y280000D02*
Y291364D01*
X194586Y283000D02*
X232035D01*
X233500Y284465D02*
Y295638D01*
X239500Y280621D02*
Y291985D01*
X193500Y284500D02*
X231414D01*
X244000Y278000D02*
Y290121D01*
Y257000D02*
X247000Y260000D01*
X232000Y296259D02*
X234879Y299138D01*
X235063Y269063D02*
X244000Y278000D01*
X233563Y270442D02*
X242500Y279379D01*
X235000Y295017D02*
X237879Y297895D01*
X236500Y293664D02*
X239379Y296543D01*
X231414Y284500D02*
X232000Y285086D01*
X232063Y271063D02*
X241000Y280000D01*
X239500Y291985D02*
X242379Y294864D01*
X232035Y283000D02*
X233500Y284465D01*
X245500Y275000D02*
Y289500D01*
X229879Y276000D02*
X236500Y282621D01*
X244000Y246000D02*
Y257000D01*
X237879Y297895D02*
Y308414D01*
X226291Y295500D02*
Y300709D01*
X234879Y299138D02*
Y301914D01*
X236379Y298517D02*
Y303414D01*
X296000Y247000D02*
X299000Y244000D01*
X284500Y248000D02*
X285500Y247000D01*
X283000Y242586D02*
X283586Y242000D01*
X285500Y247000D02*
X296000D01*
X299000Y227586D02*
Y244000D01*
X283586Y242000D02*
X292000D01*
X344850Y410000D02*
Y432414D01*
X344265Y433000D02*
X344850Y432414D01*
X334000Y433000D02*
X344265D01*
X431000Y471000D02*
X439000D01*
X427500Y467500D02*
X431000Y471000D01*
X446000Y486000D02*
Y506000D01*
X440000Y512000D02*
X446000Y506000D01*
X368586Y458000D02*
X445414D01*
X446000Y458586D02*
Y464000D01*
X445414Y458000D02*
X446000Y458586D01*
X440000Y512000D02*
Y526000D01*
X450000Y517000D02*
X450765Y516235D01*
X453765D01*
X455000Y515000D01*
Y483000D02*
Y515000D01*
X450000Y416121D02*
Y456000D01*
X454000D02*
X455000Y457000D01*
Y465000D01*
X450000Y456000D02*
X454000D01*
X429738Y460820D02*
X431918Y463000D01*
X366000Y459414D02*
X367406Y460820D01*
X431918Y463000D02*
X433000D01*
X367406Y460820D02*
X429738D01*
X366000Y454000D02*
Y459414D01*
X368000Y457414D02*
X368586Y458000D01*
X368000Y453000D02*
Y457414D01*
X446379Y412500D02*
X450000Y416121D01*
X453000Y452000D02*
X459414D01*
X453000Y417000D02*
Y452000D01*
X394500Y412500D02*
X446379D01*
X460000Y452586D02*
Y471000D01*
X459414Y452000D02*
X460000Y452586D01*
X463000Y441000D02*
Y458414D01*
X459000Y437000D02*
X463000Y441000D01*
Y458414D02*
X463586Y459000D01*
X476414D01*
X477000Y459586D02*
Y472000D01*
X476414Y459000D02*
X477000Y459586D01*
X377000Y392000D02*
Y419000D01*
X388000D01*
X394500Y412500D01*
X366000Y451000D02*
X368000Y453000D01*
X364500Y452500D02*
X366000Y454000D01*
X330621Y452500D02*
X364500D01*
X331500Y451000D02*
X366000D01*
X326500Y448379D02*
X330621Y452500D01*
X328000Y447500D02*
X331500Y451000D01*
X328000Y424000D02*
Y447500D01*
X325750Y426629D02*
X326500Y427379D01*
Y448379D01*
X327250Y423250D02*
X328000Y424000D01*
X325750Y416750D02*
Y426629D01*
X327250Y416129D02*
Y423250D01*
X326000Y414879D02*
X327250Y416129D01*
X326000Y412720D02*
Y414879D01*
X322000Y408720D02*
X326000Y412720D01*
X323000Y414000D02*
X325750Y416750D01*
X310414Y414000D02*
X323000D01*
X309000Y412586D02*
X310414Y414000D01*
X308000Y402000D02*
X308765Y402765D01*
Y404351D01*
X309000Y404586D01*
Y412586D01*
X447000Y411000D02*
X453000Y417000D01*
X335621Y467500D02*
X427500D01*
X428000Y470121D02*
Y477414D01*
X426879Y469000D02*
X428000Y470121D01*
X335000Y469000D02*
X426879D01*
X329500Y463500D02*
X335000Y469000D01*
X331000Y462879D02*
X335621Y467500D01*
X331000Y455000D02*
Y462879D01*
X329500Y456500D02*
Y463500D01*
X325000Y449000D02*
X331000Y455000D01*
X323500Y450500D02*
X329500Y456500D01*
X325000Y428000D02*
Y449000D01*
X289500Y399500D02*
Y408000D01*
X314850Y452000D02*
X322000D01*
X323500Y429207D02*
Y450500D01*
X322000Y429828D02*
Y452000D01*
X286500Y397500D02*
Y409500D01*
X308672Y416500D02*
X322000Y429828D01*
X298289Y421289D02*
X306411D01*
X318414Y444000D02*
X319000Y443414D01*
Y431578D02*
Y443414D01*
X289500Y408000D02*
X299500Y418000D01*
X316914Y442500D02*
X317500Y441914D01*
X291311Y407689D02*
X300121Y416500D01*
X299500Y418000D02*
X308000D01*
X286500Y409500D02*
X298289Y421289D01*
X300121Y416500D02*
X308672D01*
X298910Y419789D02*
X307211D01*
X317500Y432379D02*
Y441914D01*
X297586Y444000D02*
X318414D01*
X306411Y421289D02*
X317500Y432379D01*
X320500Y430500D02*
Y447414D01*
X289586Y442500D02*
X316914D01*
X288000Y398646D02*
Y408879D01*
X308000Y418000D02*
X320500Y430500D01*
X288000Y408879D02*
X298910Y419789D01*
X304000Y409000D02*
Y409707D01*
X307211Y419789D02*
X319000Y431578D01*
X304000Y409707D02*
X323500Y429207D01*
X291311Y399811D02*
Y407689D01*
X321000Y424000D02*
X325000Y428000D01*
X321000Y418957D02*
Y424000D01*
X391000Y537000D02*
X449414D01*
X450000Y536414D01*
Y526000D02*
Y536414D01*
X470000Y526000D02*
Y538000D01*
X469000Y539000D02*
X470000Y538000D01*
X390000Y539000D02*
X469000D01*
X408414Y67000D02*
X409000Y67586D01*
X395000Y70000D02*
X398000Y67000D01*
X406464Y65500D02*
X422914D01*
X405550Y64586D02*
X406464Y65500D01*
X409000Y67586D02*
Y81414D01*
X398000Y67000D02*
X408414D01*
X422914Y65500D02*
X424000Y66586D01*
X405000Y64586D02*
X405550D01*
X408414Y82000D02*
X409000Y81414D01*
X401320Y82000D02*
X408414D01*
X400735Y82586D02*
X401320Y82000D01*
X400735Y82586D02*
Y116735D01*
X405000Y121000D01*
X399235Y75351D02*
X399820Y74765D01*
X399235Y118235D02*
X404500Y123500D01*
X399820Y74765D02*
X402235D01*
X399235Y75351D02*
Y118235D01*
X434000Y121000D02*
X439000Y116000D01*
X405000Y121000D02*
X434000D01*
X445000Y123500D02*
Y124000D01*
X402235Y74765D02*
X403000Y74000D01*
X404500Y123500D02*
X444500D01*
X445000Y124000D01*
X431000Y104000D02*
Y113000D01*
X434000Y89000D02*
X436000Y87000D01*
X394000Y138950D02*
X397000Y135950D01*
Y129000D02*
Y135950D01*
Y129000D02*
X399500Y126500D01*
X394243Y125000D02*
X427257D01*
X431500Y129243D01*
X388235Y118992D02*
X394243Y125000D01*
X399500Y126500D02*
X426636D01*
X430879Y130743D01*
X405000Y128586D02*
Y154000D01*
Y128586D02*
X405586Y128000D01*
X413379Y129500D02*
X424621D01*
X426015Y128000D02*
X430257Y132243D01*
X405586Y128000D02*
X426015D01*
X412500Y130379D02*
X413379Y129500D01*
X412500Y130379D02*
Y151000D01*
X491515Y129243D02*
X496757Y124000D01*
X431500Y129243D02*
X491515D01*
X498379Y129000D02*
X555000D01*
X556500Y127000D02*
Y183500D01*
X492136Y130743D02*
X497379Y125500D01*
X493379Y134000D02*
X498379Y129000D01*
X497379Y125500D02*
X557500D01*
X498000Y127000D02*
X556500D01*
X555000Y129000D02*
Y184121D01*
X492757Y132243D02*
X498000Y127000D01*
X430879Y130743D02*
X492136D01*
X430257Y132243D02*
X492757D01*
X414000Y131000D02*
X424000D01*
X414000D02*
Y143000D01*
X424000Y131000D02*
X428500Y135500D01*
X424621Y129500D02*
X429121Y134000D01*
X497311Y132189D02*
X552914D01*
X553500Y132775D01*
Y184743D01*
X494000Y135500D02*
X497311Y132189D01*
X429121Y134000D02*
X493379D01*
X428500Y135500D02*
X494000D01*
X429500Y138500D02*
X431000Y137000D01*
X431646Y138561D02*
X497414D01*
X431061Y139146D02*
Y146061D01*
X505000Y137000D02*
X514000D01*
X429500Y138500D02*
Y151136D01*
X431000Y137000D02*
X505000D01*
X431061Y139146D02*
X431646Y138561D01*
X433146Y140121D02*
X494853D01*
X432561Y140707D02*
X433146Y140121D01*
X432561Y140707D02*
Y152318D01*
X498000Y139146D02*
Y143000D01*
X497414Y138561D02*
X498000Y139146D01*
X557500Y125500D02*
X558000Y126000D01*
X569000Y118000D02*
X591000D01*
X567000Y116000D02*
X569000Y118000D01*
X558000Y126000D02*
Y182000D01*
X556500Y183500D02*
X566500Y193500D01*
X555000Y184121D02*
X565000Y194121D01*
X558000Y182000D02*
X568000Y192000D01*
X388235Y95765D02*
Y118992D01*
X424000Y66586D02*
Y76000D01*
X430765Y79649D02*
Y81235D01*
Y79649D02*
X431000Y79414D01*
X406500Y58500D02*
Y63414D01*
X430000Y82000D02*
X430765Y81235D01*
X442000Y78586D02*
Y86404D01*
X447510Y91914D01*
X441765Y78351D02*
X442000Y78586D01*
X441000Y76000D02*
X441765Y76765D01*
Y78351D01*
X388235Y95765D02*
X389000Y95000D01*
X313000Y280000D02*
Y282000D01*
X318500Y265086D02*
Y285328D01*
X321500Y268086D02*
Y282843D01*
X324000Y285343D02*
Y286000D01*
X320000Y289000D02*
X323000Y292000D01*
X321500Y268086D02*
X322086Y267500D01*
X320000Y266586D02*
Y289000D01*
Y266586D02*
X320586Y266000D01*
X318500Y265086D02*
X319086Y264500D01*
X320586Y266000D02*
X324414D01*
X316914Y286914D02*
X318500Y285328D01*
X322086Y267500D02*
X325914D01*
X319086Y264500D02*
X322914D01*
X321500Y282843D02*
X324000Y285343D01*
X323500Y247000D02*
Y263914D01*
X322914Y264500D02*
X323500Y263914D01*
X319000Y242500D02*
X323500Y247000D01*
X324414Y266000D02*
X325000Y265414D01*
Y240879D02*
Y265414D01*
X325914Y267500D02*
X327000Y266414D01*
Y248576D02*
Y266414D01*
X314000Y232000D02*
X319000Y237000D01*
Y242500D01*
X314000Y221586D02*
Y232000D01*
X316000Y220500D02*
Y231879D01*
X325000Y240879D01*
X317500Y230500D02*
X319000Y232000D01*
Y226414D02*
X319586Y227000D01*
X324000Y214121D02*
Y222000D01*
X313414Y221000D02*
X314000Y221586D01*
X319000Y232000D02*
X323000D01*
X317500Y211424D02*
Y230500D01*
X319000Y215000D02*
Y226414D01*
X319586Y227000D02*
X331000D01*
X317500Y211424D02*
X318000Y210924D01*
X319000Y215000D02*
X327000Y207000D01*
X318000Y190000D02*
Y210924D01*
X314000Y218500D02*
X316000Y220500D01*
X327000Y248576D02*
X327586Y247990D01*
X348414D01*
X349000Y186000D02*
Y247405D01*
X348414Y247990D02*
X349000Y247405D01*
X309000Y287500D02*
X309586Y286914D01*
X316914D01*
X309000Y287500D02*
Y308000D01*
X294000Y227000D02*
X298414D01*
X377000Y392000D02*
X380000Y389000D01*
X393414D01*
X394000Y376000D02*
Y388414D01*
X393414Y389000D02*
X394000Y388414D01*
X391500Y373500D02*
X394000Y376000D01*
X386657Y411000D02*
X447000D01*
X383500Y413500D02*
X384157D01*
X386657Y411000D01*
X365500Y378500D02*
X370500Y373500D01*
X391500D01*
X327000Y378500D02*
X365500D01*
X326000Y377500D02*
X327000Y378500D01*
X326000Y366000D02*
Y377500D01*
X324500Y367136D02*
Y378414D01*
X316820Y389500D02*
X320000Y386320D01*
X323000Y379035D02*
X325964Y382000D01*
X315000Y364000D02*
X320000Y369000D01*
X321000Y367879D02*
X321500Y368379D01*
X326000Y366000D02*
X335500Y356500D01*
X324500Y378414D02*
X326086Y380000D01*
X320000Y369000D02*
Y386320D01*
X322500Y367257D02*
X323000Y367757D01*
X321500Y368379D02*
Y381914D01*
X323086Y383500D01*
X324000Y366636D02*
X324500Y367136D01*
X323000Y367757D02*
Y379035D01*
X330000Y320000D02*
X340500Y309500D01*
X327000Y318757D02*
Y341000D01*
X340500Y301689D02*
X341086Y301104D01*
X327000Y318757D02*
X337500Y308257D01*
X340500Y301689D02*
Y309500D01*
X341086Y301104D02*
X358861D01*
X339000Y300314D02*
Y308879D01*
X337500Y298586D02*
Y308257D01*
X328500Y319379D02*
X339000Y308879D01*
X337500Y298586D02*
X338086Y298000D01*
X339000Y300314D02*
X339710Y299604D01*
X358861Y301104D02*
X364257Y306500D01*
X441036D01*
X441604Y306311D02*
X442500Y305414D01*
X441225Y306311D02*
X441604D01*
X441036Y306500D02*
X441225Y306311D01*
X442500Y243621D02*
Y305414D01*
X364879Y305000D02*
X440414D01*
X441000Y304414D01*
Y243000D02*
Y304414D01*
X365500Y303500D02*
X438414D01*
X439000Y302914D01*
Y238086D02*
Y302914D01*
X442500Y243621D02*
X445621Y240500D01*
X498414D01*
X499000Y241086D02*
Y247000D01*
X498414Y240500D02*
X499000Y241086D01*
X359482Y299604D02*
X364879Y305000D01*
X360000Y298000D02*
X365500Y303500D01*
X212000Y288086D02*
Y293000D01*
X150525Y287500D02*
X211414D01*
X212000Y288086D01*
X206964Y302414D02*
X207550Y303000D01*
X206964Y291036D02*
Y302414D01*
X204929Y289000D02*
X206964Y291036D01*
X108000Y286000D02*
X218414D01*
X219000Y286586D02*
Y295000D01*
X218414Y286000D02*
X219000Y286586D01*
X207550Y303000D02*
X224000D01*
X226291Y300709D01*
X217061Y312818D02*
X227379Y302500D01*
X234293D01*
X208682Y314318D02*
X217682D01*
X228000Y304000D01*
X208000Y312818D02*
X217061D01*
X234293Y302500D02*
X234879Y301914D01*
X219757Y316000D02*
X222257Y313500D01*
X222000Y321000D02*
X225000Y318000D01*
X222000Y321000D02*
Y327000D01*
X220500Y317500D02*
X223000Y315000D01*
X223621Y316500D02*
X238682D01*
X222257Y313500D02*
X237035D01*
X223000Y315000D02*
X238061D01*
X221121Y319000D02*
X223621Y316500D01*
X225000Y318000D02*
X239303D01*
X228000Y304000D02*
X235793D01*
X236379Y303414D01*
X194000Y282414D02*
X194586Y283000D01*
X196000Y274000D02*
Y281000D01*
X239379Y296543D02*
Y311157D01*
X240879Y295879D02*
Y312182D01*
X231000Y309000D02*
X237293D01*
X237879Y308414D01*
X158000Y294000D02*
X202000D01*
X200918Y303000D02*
X202000D01*
X198918Y301000D02*
X200918Y303000D01*
X170082Y301000D02*
X198918D01*
X168082Y299000D02*
X170082Y301000D01*
X177000Y306000D02*
X177500Y305500D01*
X196500D01*
X201000Y310000D02*
Y311000D01*
X196500Y305500D02*
X201000Y310000D01*
X167000Y299000D02*
X168082D01*
X207379Y311318D02*
X209682D01*
X213000Y308000D01*
X184000Y362000D02*
Y372000D01*
X195000Y325000D02*
X196500Y323500D01*
X201914Y361000D02*
X202500Y360414D01*
Y333793D02*
Y360414D01*
X185000Y361000D02*
X201914D01*
X184000Y362000D02*
X185000Y361000D01*
X195586Y333000D02*
X201707D01*
X202500Y333793D01*
X195000Y332414D02*
X195586Y333000D01*
X195000Y325000D02*
Y332414D01*
X197086Y331000D02*
X202414D01*
X196500Y330414D02*
X197086Y331000D01*
X196500Y325621D02*
X198000Y324121D01*
X196500Y325621D02*
Y330414D01*
X202414Y331000D02*
X204000Y332586D01*
Y365414D01*
X188000Y366000D02*
X203414D01*
X204000Y365414D01*
X202697Y316000D02*
X207379Y311318D01*
X185000Y316000D02*
X202697D01*
X196500Y320500D02*
Y323500D01*
X200318Y320500D02*
X208000Y312818D01*
X196500Y320500D02*
X200318D01*
X198000Y322000D02*
Y324121D01*
X201000Y322000D02*
X208682Y314318D01*
X209192Y316000D02*
X219757D01*
X205479Y319713D02*
X209192Y316000D01*
X208000Y319314D02*
X209814Y317500D01*
X220500D01*
X198000Y322000D02*
X201000D01*
X179000Y310000D02*
X185000Y316000D01*
X171000Y310000D02*
X179000D01*
X151146Y289000D02*
X204929D01*
X150561Y289586D02*
X151146Y289000D01*
X150561Y289586D02*
Y295318D01*
X149000Y289025D02*
X150525Y287500D01*
X149000Y289025D02*
Y319000D01*
X150500Y295379D02*
X150500D01*
X150500Y295379D02*
X150500Y295770D01*
X150500Y295379D02*
Y295379D01*
X150500Y295379D02*
X150561Y295318D01*
X150500Y295770D02*
Y314500D01*
X153000Y323000D02*
Y329000D01*
X105000Y289000D02*
X108000Y286000D01*
X149000Y319000D02*
X153000Y323000D01*
X150500Y314500D02*
X155000Y319000D01*
X100500Y289000D02*
X105000D01*
X115000Y378000D02*
X118000D01*
X112000Y375000D02*
X115000Y378000D01*
X112000Y291000D02*
Y375000D01*
X100500Y289000D02*
Y346500D01*
Y219586D02*
Y289000D01*
X143000Y350000D02*
Y354000D01*
X144000Y355000D02*
X165000D01*
X143000Y354000D02*
X144000Y355000D01*
X100500Y346500D02*
X101000Y347000D01*
X100500Y219586D02*
X101086Y219000D01*
X310000Y63000D02*
X324414D01*
X311243Y66000D02*
X327414D01*
X310621Y64500D02*
X325914D01*
X293586Y88500D02*
X300914D01*
X293000Y89086D02*
X293586Y88500D01*
X184414Y94000D02*
X186000Y92414D01*
X175000Y94000D02*
X184414D01*
X186000Y85500D02*
Y92414D01*
X314000Y72000D02*
X335293D01*
X344293Y81000D02*
X365586D01*
X335293Y72000D02*
X344293Y81000D01*
X365586D02*
X379586Y95000D01*
X389000D01*
X395602Y259398D02*
X400000Y255000D01*
Y201000D02*
X406000Y195000D01*
X400000Y201000D02*
Y255000D01*
X406000Y195000D02*
X442000D01*
X447000Y190000D01*
X381398Y259398D02*
X395602D01*
X383000Y264000D02*
X386000Y261000D01*
X397879D02*
X409500Y272621D01*
X386000Y261000D02*
X397879D01*
X591000Y118000D02*
Y144000D01*
X450000Y193000D02*
X505000D01*
X447000Y190000D02*
X450000Y193000D01*
X417000Y215000D02*
Y227000D01*
X414000Y212000D02*
X417000Y215000D01*
X382414Y157000D02*
X383000Y156414D01*
Y131586D02*
Y156414D01*
X304000Y157000D02*
X382414D01*
X383500Y158500D02*
X385000Y157000D01*
Y135000D02*
Y157000D01*
X304750Y158500D02*
X383500D01*
X355000Y61000D02*
X356000D01*
X350414Y94500D02*
X351000Y95086D01*
Y130000D01*
X329500Y94500D02*
X350414D01*
X327000Y92000D02*
X329500Y94500D01*
X356000Y60000D02*
Y61000D01*
X363000Y64000D02*
X404414D01*
X405000Y64586D01*
X406000Y58000D02*
X406500Y58500D01*
X417000Y52000D02*
Y57636D01*
X417182Y57818D01*
X354000Y73000D02*
X363000Y64000D01*
X665000Y105000D02*
X670000Y100000D01*
X655000Y105000D02*
X665000D01*
X485000Y517000D02*
X556000D01*
X462586D02*
X485000D01*
X562414Y523414D02*
X563000Y524000D01*
X556000Y517000D02*
X562414Y523414D01*
X460000Y519586D02*
X462586Y517000D01*
X460000Y519586D02*
Y526000D01*
X831000Y223000D02*
X833000Y225000D01*
Y250000D01*
X839000Y256000D02*
Y380000D01*
X833000Y250000D02*
X839000Y256000D01*
X831000Y41000D02*
X833235Y43235D01*
Y119765D01*
X833000Y120000D02*
Y121364D01*
X831000Y123364D02*
Y223000D01*
Y123364D02*
X833000Y121364D01*
Y120000D02*
X833235Y119765D01*
X833000Y120000D02*
X834000D01*
X827000Y229000D02*
X827500Y228500D01*
Y100500D02*
X828000Y100000D01*
X827500Y100500D02*
Y228500D01*
X827000Y229000D02*
Y256000D01*
X823000Y62000D02*
Y192082D01*
Y275484D02*
Y322000D01*
X821500Y273984D02*
X823000Y275484D01*
X821500Y193582D02*
Y273984D01*
Y193582D02*
X823000Y192082D01*
X831000Y260000D02*
Y360000D01*
X827000Y256000D02*
X831000Y260000D01*
X565000Y495000D02*
X664000D01*
X562414Y497586D02*
X565000Y495000D01*
X562414Y497586D02*
Y523414D01*
X585000Y518500D02*
X638500D01*
X664000Y495000D02*
X669000Y490000D01*
X670000D01*
X702000Y360000D02*
Y490000D01*
X749000Y100000D02*
X754000Y105000D01*
X763868D02*
X768868Y100000D01*
X754000Y105000D02*
X763868D01*
X768868Y100000D02*
X770000D01*
X670000D02*
X749000D01*
X201000Y327000D02*
X205479Y322521D01*
X208000Y319314D02*
Y327000D01*
X205479Y319713D02*
Y322521D01*
X113000Y276000D02*
X185000D01*
X193500Y284500D01*
X194000Y280000D02*
Y282414D01*
X188500Y274500D02*
X194000Y280000D01*
X122500Y274500D02*
X188500D01*
X308000Y309000D02*
X309000Y308000D01*
X314000Y204000D02*
Y218500D01*
X327000Y189000D02*
Y207000D01*
X327121Y211000D02*
X334414D01*
X324000Y214121D02*
X327121Y211000D01*
X335000Y191000D02*
Y210414D01*
X334414Y211000D02*
X335000Y210414D01*
X329000Y216000D02*
X340414D01*
X341000Y215414D01*
Y186000D02*
Y215414D01*
X334000Y139586D02*
Y145000D01*
X334586Y139000D02*
X348914D01*
X334000Y139586D02*
X334586Y139000D01*
X394000Y138950D02*
Y156000D01*
X111000Y263000D02*
X122500Y274500D01*
X145000Y372000D02*
X153000Y364000D01*
X158000D01*
X69000Y53000D02*
X175235D01*
X66235Y50235D02*
X69000Y53000D01*
X175455Y52780D02*
X177543D01*
X175235Y53000D02*
X175455Y52780D01*
X177543D02*
X178323Y52000D01*
X66000Y50000D02*
Y79000D01*
X73000Y62000D02*
X76000Y59000D01*
X162414D01*
X67500Y58500D02*
X71000Y55000D01*
X164414D02*
X165000Y55586D01*
X71000Y55000D02*
X164414D01*
X165000Y55586D02*
Y66414D01*
X98000Y46000D02*
X104847D01*
X67500Y58500D02*
Y82500D01*
X164586Y72000D02*
X178323D01*
X163000Y70414D02*
X164586Y72000D01*
X163000Y59586D02*
Y70414D01*
X162414Y59000D02*
X163000Y59586D01*
X178323Y77000D02*
X199677D01*
Y52000D02*
X223000D01*
X233000Y42000D01*
X199677Y57000D02*
X224000D01*
X226000Y55000D02*
X236000D01*
X224000Y57000D02*
X226000Y55000D01*
X249414Y62000D02*
X250000Y61414D01*
Y55000D02*
Y61414D01*
X199677Y62000D02*
X249414D01*
X199677Y67000D02*
X249414D01*
X250000Y67586D02*
Y75000D01*
X249414Y67000D02*
X250000Y67586D01*
X199677Y72000D02*
X223000D01*
X226000Y75000D02*
X236000D01*
X223000Y72000D02*
X226000Y75000D01*
X349500Y97086D02*
Y138414D01*
X348414Y96000D02*
X349500Y97086D01*
X325000Y96000D02*
X348414D01*
X348914Y139000D02*
X349500Y138414D01*
X383000Y131586D02*
X383235Y131351D01*
X265000Y63000D02*
X296000D01*
X325000Y13000D02*
Y62414D01*
X324414Y63000D02*
X325000Y62414D01*
Y13000D02*
X330000Y8000D01*
X293000Y89086D02*
Y122000D01*
X327000Y14000D02*
X360000D01*
X325914Y64500D02*
X326500Y63914D01*
Y14500D02*
Y63914D01*
Y14500D02*
X327000Y14000D01*
X328000Y16086D02*
X328586Y15500D01*
X328000Y16086D02*
Y65414D01*
X328586Y15500D02*
X359379D01*
X327414Y66000D02*
X328000Y65414D01*
X360000Y14000D02*
X373500Y27500D01*
X335235Y60000D02*
X356000D01*
X334470Y60765D02*
X335235Y60000D01*
X339000Y54000D02*
X350000D01*
X223000Y237071D02*
Y238850D01*
X119586Y44000D02*
X182879D01*
X119000Y43414D02*
X119586Y44000D01*
X119000Y13000D02*
Y43414D01*
X124000Y8586D02*
Y42000D01*
X123414Y8000D02*
X124000Y8586D01*
X114000Y8000D02*
X123414D01*
X113000Y9000D02*
X114000Y8000D01*
X112414Y30559D02*
X113000Y29973D01*
Y9000D02*
Y29973D01*
X105433Y30559D02*
X112414D01*
X105433Y25441D02*
X110414D01*
Y13000D02*
X111000Y13586D01*
Y24855D01*
X105000Y13000D02*
X110414D01*
Y25441D02*
X111000Y24855D01*
X124000Y42000D02*
X184121D01*
X128567Y13433D02*
X130000Y12000D01*
X139000D01*
X78000Y32532D02*
X78586Y33118D01*
X105433D01*
X66586Y25000D02*
X77414D01*
X66000Y21850D02*
Y24414D01*
X66586Y25000D01*
X77414D02*
X78000Y25586D01*
Y32532D01*
X22000Y43000D02*
Y79000D01*
X121850Y94000D02*
X131000D01*
X114000D02*
X121850D01*
X128150Y86000D02*
X133000D01*
X137000Y82000D01*
X178323D01*
X36586Y60000D02*
X57000D01*
X35000Y61586D02*
X36586Y60000D01*
X35000Y86000D02*
X36000Y87000D01*
X35000Y61586D02*
Y86000D01*
X36000Y87000D02*
X49000D01*
X52000Y90000D02*
X57000D01*
X49000Y87000D02*
X52000Y90000D01*
X43000Y80000D02*
X53541D01*
X54541Y81000D01*
X64000D01*
X66000Y79000D01*
X65000Y85000D02*
X67500Y82500D01*
X37586Y85000D02*
X65000D01*
X37000Y65586D02*
Y84414D01*
X37586Y85000D01*
X49586Y69414D02*
X50172Y70000D01*
X57000D01*
X49000Y65000D02*
X49586Y65586D01*
Y69414D01*
X37000Y65586D02*
X37586Y65000D01*
X49000D01*
X104847Y46000D02*
X105433Y45414D01*
Y35677D02*
Y45414D01*
X128567Y22882D02*
X140882D01*
X141500Y23500D02*
Y32414D01*
X142086Y33000D02*
X210414D01*
X141500Y32414D02*
X142086Y33000D01*
X140882Y22882D02*
X141500Y23500D01*
X138441Y25441D02*
X140000Y27000D01*
X138000Y28000D02*
Y35414D01*
X128567Y25441D02*
X138441D01*
X140000Y33914D02*
X140586Y34500D01*
X140000Y27000D02*
Y33914D01*
X128567Y28000D02*
X138000D01*
X210414Y33000D02*
X211000Y32414D01*
Y19000D02*
Y32414D01*
X225000Y19000D02*
Y27414D01*
X140586Y34500D02*
X189121D01*
X192621Y38000D02*
X216914D01*
X189121Y34500D02*
X192621Y38000D01*
X216914D02*
X217500Y37414D01*
Y34257D02*
X223757Y28000D01*
X217500Y34257D02*
Y37414D01*
X224414Y28000D02*
X225000Y27414D01*
X223757Y28000D02*
X224414D01*
X240000Y19000D02*
Y28500D01*
X138000Y35414D02*
X138586Y36000D01*
X188500D01*
X137379Y37500D02*
X187500D01*
X188500Y36000D02*
X192000Y39500D01*
X136000Y30559D02*
Y36121D01*
X187500Y37500D02*
X191000Y41000D01*
X136000Y36121D02*
X137379Y37500D01*
X192000Y39500D02*
X218414D01*
X219000Y34879D02*
Y38914D01*
X218414Y39500D02*
X219000Y38914D01*
Y34879D02*
X223879Y30000D01*
X224000D01*
X224621Y31500D02*
X225121Y31000D01*
X224500Y31500D02*
X224621D01*
X224000Y30000D02*
X224500Y29500D01*
X220500Y35500D02*
Y40414D01*
X225121Y31000D02*
X253414D01*
X220500Y35500D02*
X224500Y31500D01*
Y29500D02*
X239000D01*
X253414Y31000D02*
X254000Y30414D01*
X239000Y29500D02*
X240000Y28500D01*
X254000Y19000D02*
Y30414D01*
X128567Y30559D02*
X136000D01*
X219914Y41000D02*
X220500Y40414D01*
X223500Y36743D02*
Y43414D01*
X225121Y33000D02*
X266414D01*
X222000Y36121D02*
Y41914D01*
X225743Y34500D02*
X277500D01*
X223500Y36743D02*
X225743Y34500D01*
X222000Y36121D02*
X225121Y33000D01*
X130000Y36063D02*
Y39914D01*
X189757Y44000D02*
X222914D01*
X221414Y42500D02*
X222000Y41914D01*
X186257Y40500D02*
X189757Y44000D01*
X186879Y39000D02*
X190379Y42500D01*
X222914Y44000D02*
X223500Y43414D01*
X128567Y35677D02*
X129614D01*
X130000Y39914D02*
X130586Y40500D01*
X129614Y35677D02*
X130000Y36063D01*
X130586Y40500D02*
X186257D01*
X190379Y42500D02*
X221414D01*
X191000Y41000D02*
X219914D01*
X136000Y39000D02*
X186879D01*
X134000Y37000D02*
X136000Y39000D01*
X134000Y33118D02*
Y37000D01*
X128567Y33118D02*
X134000D01*
X267000Y19000D02*
Y32414D01*
X266414Y33000D02*
X267000Y32414D01*
X277586Y34586D02*
X280000Y32172D01*
X277500Y34500D02*
X277586Y34586D01*
X280000Y19000D02*
Y32172D01*
X184121Y42000D02*
X188000Y45879D01*
Y61000D01*
X186000Y47121D02*
Y56414D01*
X182879Y44000D02*
X186000Y47121D01*
X128567Y13433D02*
Y20323D01*
X90000Y15161D02*
Y19737D01*
X59000Y15747D02*
X59586Y15161D01*
X90000D01*
X59000Y15747D02*
Y21850D01*
X66000Y17586D02*
Y21850D01*
X66586Y17000D02*
X83414D01*
X66000Y17586D02*
X66586Y17000D01*
X83414D02*
X84000Y17586D01*
Y22296D01*
X84586Y22882D02*
X105433D01*
X84000Y22296D02*
X84586Y22882D01*
X82000Y24000D02*
Y27414D01*
X82586Y28000D02*
X105433D01*
X82000Y27414D02*
X82586Y28000D01*
X79850Y21850D02*
X82000Y24000D01*
X73000Y21850D02*
X79850D01*
X66000Y28150D02*
Y39000D01*
Y28150D02*
X73000D01*
X59000D02*
X66000D01*
X90586Y20323D02*
X105433D01*
X90000Y19737D02*
X90586Y20323D01*
X178323Y57000D02*
X185414D01*
X186000Y56414D01*
X165000Y66414D02*
X165586Y67000D01*
X178323D01*
Y62000D02*
X187000D01*
X188000Y61000D01*
X72000Y75000D02*
Y91000D01*
X79000Y75000D02*
Y85000D01*
X372000Y15000D02*
X391748D01*
X392748Y14000D01*
X411414D01*
X278061Y393707D02*
X279268Y392500D01*
X273000Y498657D02*
X275343Y501000D01*
X274500Y395722D02*
Y498035D01*
X280061Y419312D02*
Y444000D01*
X273000Y396343D02*
Y498657D01*
X270657Y394000D02*
X273000Y396343D01*
X279268Y392500D02*
X285500D01*
X274500Y498035D02*
X275964Y499500D01*
X280000Y483150D02*
Y493000D01*
X278061Y393707D02*
Y417312D01*
X271278Y392500D02*
X274500Y395722D01*
X280000Y459150D02*
Y468000D01*
X278061Y417312D02*
X280061Y419312D01*
X361000Y253000D02*
X372000Y264000D01*
X333000Y256000D02*
X336000Y253000D01*
X361000D01*
X372000Y264000D02*
X383000D01*
X231000Y349000D02*
Y363000D01*
X337000Y274000D02*
X344000Y267000D01*
X328582Y274000D02*
X337000D01*
X326000Y272500D02*
X327082D01*
X328582Y274000D01*
X320121Y314000D02*
X324000Y317879D01*
X315000Y314000D02*
X320121D01*
X291000Y15000D02*
Y32000D01*
X518879Y144000D02*
X525000Y150121D01*
X514000Y137000D02*
X526500Y149500D01*
X523000Y151000D02*
X523500Y151500D01*
X505000Y151000D02*
X523000D01*
X498000D02*
X505000D01*
X535000Y190364D02*
Y205000D01*
X521000Y158000D02*
X522000Y159000D01*
X505000Y158000D02*
X521000D01*
X529000Y215000D02*
X533000Y211000D01*
Y202000D02*
Y211000D01*
X529000Y198000D02*
X533000Y202000D01*
X522414Y213000D02*
X523000Y212414D01*
X495000Y213000D02*
X522414D01*
X523000Y191000D02*
Y212414D01*
X492586Y165000D02*
X505000D01*
X495000Y158000D02*
X505000D01*
X91414Y112000D02*
X100000Y120586D01*
X76000Y112000D02*
X91414D01*
X71586Y107000D02*
X134414D01*
X71000Y107586D02*
Y149000D01*
Y107586D02*
X71586Y107000D01*
X134414D02*
X135000Y107586D01*
Y117000D01*
X100000Y120586D02*
Y125000D01*
X106000Y131000D01*
X241121Y213000D02*
X243000D01*
X238061Y216061D02*
X241121Y213000D01*
X238061Y216061D02*
Y242939D01*
X243000Y213000D02*
X244235Y211765D01*
X247235D02*
X248000Y211000D01*
X244235Y211765D02*
X247235D01*
X273000Y224000D02*
X282000D01*
X273000Y182000D02*
X276414D01*
X229000Y326994D02*
X229006D01*
X301250Y162000D02*
X304750Y158500D01*
X287000Y162000D02*
X301250D01*
X286879Y160000D02*
X301000D01*
X283879Y163000D02*
X286879Y160000D01*
X301000D02*
X304000Y157000D01*
X280396Y168604D02*
X287000Y162000D01*
X271396Y168604D02*
X280396D01*
X276000Y163000D02*
X283879D01*
X270775Y167104D02*
X271896D01*
X276000Y163000D01*
X270346Y165604D02*
X275000Y160950D01*
X270154Y165604D02*
X270346D01*
X269757Y233757D02*
X271000Y235000D01*
X262500Y163500D02*
Y166893D01*
X264000Y156000D02*
Y167515D01*
X265500Y165500D02*
Y168136D01*
X269601Y233757D02*
X269757D01*
X275000Y143000D02*
Y160950D01*
X259000Y160000D02*
X262500Y163500D01*
X272500Y189000D02*
X277914D01*
X277000Y177086D02*
Y181414D01*
X276414Y182000D02*
X277000Y181414D01*
X282000Y229000D02*
X290000Y221000D01*
X313414D01*
X272914Y245000D02*
X273500Y245586D01*
X271586Y245000D02*
X272914D01*
X273500Y245586D02*
Y255500D01*
X269000Y260000D02*
X273500Y255500D01*
X271000Y244414D02*
X271586Y245000D01*
X271000Y235000D02*
Y244414D01*
X256000Y181000D02*
Y184586D01*
X259000Y150000D02*
Y160000D01*
X244000Y216000D02*
X253000D01*
X264050Y142050D02*
X274050D01*
X275000Y143000D01*
X385000Y135000D02*
X386000Y134000D01*
X389000D01*
X392000Y131000D01*
X351000Y130000D02*
X355000Y134000D01*
X220500Y385500D02*
Y391000D01*
X208500D02*
X220500D01*
X198000Y399243D02*
X208243Y389000D01*
X214000D01*
X199500Y400000D02*
X208500Y391000D01*
X199500Y400000D02*
Y504914D01*
X200086Y505500D01*
X198586Y507000D02*
X247414D01*
X214000Y385000D02*
Y389000D01*
X198000Y399243D02*
Y506414D01*
X198586Y507000D01*
X206235Y385765D02*
X207000Y385000D01*
X206235Y385765D02*
Y388887D01*
X196379Y398743D02*
X206235Y388887D01*
X200000Y385000D02*
Y393000D01*
X194879Y398121D02*
X200000Y393000D01*
X194879Y398121D02*
Y509121D01*
X196379Y507914D02*
X196965Y508500D01*
X196379Y398743D02*
Y507914D01*
X248293Y510000D02*
X307000D01*
X310000Y513000D02*
Y526000D01*
X307000Y510000D02*
X310000Y513000D01*
X320000Y510500D02*
Y526000D01*
X318000Y508500D02*
X320000Y510500D01*
X249535Y507000D02*
X329000D01*
X330000Y508000D02*
Y526000D01*
X329000Y507000D02*
X330000Y508000D01*
X340000Y506086D02*
Y526000D01*
X339414Y505500D02*
X340000Y506086D01*
X272464Y505500D02*
X339414D01*
X273086Y504000D02*
X347750D01*
X350000Y506250D02*
Y526000D01*
X347750Y504000D02*
X350000Y506250D01*
X274722Y502500D02*
X359000D01*
X360000Y503500D01*
Y526000D01*
X270000Y500914D02*
X273086Y504000D01*
X247121Y397000D02*
X269414D01*
X271500Y396965D02*
Y499278D01*
X267914Y398500D02*
X268500Y399086D01*
Y501536D02*
X272464Y505500D01*
X268500Y399086D02*
Y501536D01*
X246500Y398500D02*
X267914D01*
X259000Y394000D02*
X270657D01*
X269414Y397000D02*
X270000Y397586D01*
X260379Y392500D02*
X271278D01*
X270000Y397586D02*
Y500914D01*
X252500Y395500D02*
X270036D01*
X271500Y499278D02*
X274722Y502500D01*
X270036Y395500D02*
X271500Y396965D01*
X298086Y511500D02*
X300000Y513414D01*
X195757Y510000D02*
X246172D01*
X247414Y507000D02*
X248914Y508500D01*
X246172Y510000D02*
X247672Y511500D01*
X246793Y508500D02*
X248293Y510000D01*
X200086Y505500D02*
X248036D01*
X220500Y385500D02*
X221000Y385000D01*
X196965Y508500D02*
X246793D01*
X248914D02*
X318000D01*
X248036Y505500D02*
X249535Y507000D01*
X247672Y511500D02*
X298086D01*
X194879Y509121D02*
X195757Y510000D01*
X250000Y385000D02*
X259000Y394000D01*
X255000Y387121D02*
X260379Y392500D01*
X255000Y373586D02*
Y387121D01*
X238000Y395000D02*
X243000D01*
X228000Y385000D02*
X238000Y395000D01*
X241653Y391653D02*
X241775D01*
X247121Y397000D01*
X235000Y385000D02*
X241653Y391653D01*
X243000Y395000D02*
X246500Y398500D01*
X280000Y444000D02*
Y452850D01*
X270121Y374000D02*
X280000D01*
X298414Y227000D02*
X299000Y227586D01*
X268908Y269900D02*
X268954Y269854D01*
X420636Y160000D02*
X429500Y151136D01*
X424364Y169000D02*
X438561Y154803D01*
X294364Y181121D02*
X309485Y166000D01*
X423121D01*
X292621Y176500D02*
X307621Y161500D01*
X423743Y167500D02*
X437061Y154182D01*
X421879Y163000D02*
X432561Y152318D01*
X310728Y169000D02*
X424364D01*
X423121Y166000D02*
X435561Y153561D01*
X310107Y167500D02*
X423743D01*
X307000Y160000D02*
X420636D01*
X295607Y184121D02*
X310728Y169000D01*
X294985Y182621D02*
X310107Y167500D01*
X422500Y164500D02*
X434061Y152939D01*
X308864Y164500D02*
X422500D01*
X293121Y178121D02*
X308243Y163000D01*
X421879D01*
X421257Y161500D02*
X431000Y151757D01*
X293743Y179621D02*
X308864Y164500D01*
X292000Y175000D02*
X307000Y160000D01*
X307621Y161500D02*
X421257D01*
X278000Y234000D02*
X292000D01*
X280000Y314000D02*
X286000D01*
X287000Y315000D02*
Y391000D01*
X286000Y314000D02*
X287000Y315000D01*
X285500Y392500D02*
X287000Y391000D01*
X148000Y562000D02*
X153000Y567000D01*
Y589000D01*
X45086Y562000D02*
X148000D01*
X60000Y526000D02*
X60939Y526939D01*
Y530309D01*
X61000Y530371D02*
Y532414D01*
X45086Y533000D02*
X60414D01*
X60939Y530309D02*
X61000Y530371D01*
X60414Y533000D02*
X61000Y532414D01*
X44500Y533586D02*
Y561414D01*
Y533586D02*
X45086Y533000D01*
X44500Y561414D02*
X45086Y562000D01*
X186000Y414000D02*
X192000D01*
X193000Y415000D01*
Y503000D01*
X191000Y505000D02*
X193000Y503000D01*
X168000Y505000D02*
X191000D01*
X204500Y483150D02*
Y493000D01*
X205000Y492575D02*
X205425Y493000D01*
X242000Y385000D02*
X252500Y395500D01*
X222000Y383918D02*
Y385000D01*
X154000Y510414D02*
X157086Y513500D01*
X153000Y517000D02*
X158879D01*
X161500Y516500D02*
X215914D01*
X160879Y515000D02*
X226000D01*
X202000Y518000D02*
X210000Y526000D01*
X158250Y507000D02*
X163250Y512000D01*
X193500Y519500D02*
X200000Y526000D01*
X154000Y524000D02*
X161500Y516500D01*
X157086Y513500D02*
X235500D01*
X240000Y518000D01*
X160000Y521879D02*
X163879Y518000D01*
X164500Y519500D02*
X193500D01*
X226000Y515000D02*
X230000Y519000D01*
X163879Y518000D02*
X202000D01*
X163250Y512000D02*
X246000D01*
X250000Y516000D01*
X215914Y516500D02*
X220000Y520586D01*
X162235Y521765D02*
X164500Y519500D01*
X158879Y517000D02*
X160879Y515000D01*
X300000Y513414D02*
Y526000D01*
X294561Y396561D02*
X305439D01*
X311000Y391000D02*
X334000D01*
X305439Y396561D02*
X311000Y391000D01*
X304818Y395061D02*
X310379Y389500D01*
X316820D01*
X334000Y391000D02*
X337000Y388000D01*
X293939Y395061D02*
X304818D01*
X303439Y393561D02*
X305000Y392000D01*
X293086Y393561D02*
X303439D01*
X305000Y374586D02*
Y392000D01*
X303000Y374000D02*
Y391000D01*
X302000Y392000D02*
X303000Y391000D01*
X292000Y392000D02*
X302000D01*
X305000Y374586D02*
X305586Y374000D01*
X289500Y399500D02*
X293939Y395061D01*
X291311Y399811D02*
X294561Y396561D01*
X286500Y397500D02*
X292000Y392000D01*
X288000Y398646D02*
X293086Y393561D01*
X284414Y334000D02*
X285500Y335086D01*
X162000Y117000D02*
Y120414D01*
X161414Y121000D02*
X162000Y120414D01*
X115586Y121000D02*
X161414D01*
X115000Y121586D02*
X115586Y121000D01*
X115000Y121586D02*
Y131000D01*
X222636Y113000D02*
X225636Y110000D01*
X166000Y113000D02*
X222636D01*
X162000Y117000D02*
X166000Y113000D01*
X308525Y79525D02*
X309000Y80000D01*
X314000D01*
X316000Y78000D01*
X316500Y80500D02*
X327914D01*
X311000Y86000D02*
X316500Y80500D01*
X294000Y123000D02*
X333000D01*
X293000Y122000D02*
X294000Y123000D01*
X343914Y114000D02*
X344500Y113414D01*
X343914Y101000D02*
X344500Y101586D01*
Y113414D01*
X330000Y114000D02*
X343914D01*
X346000Y100086D02*
Y118414D01*
X345414Y99500D02*
X346000Y100086D01*
X322879Y96000D02*
X324879Y98000D01*
X347414D01*
X348000Y98586D01*
X345414Y119000D02*
X346000Y118414D01*
X324000Y119000D02*
X345414D01*
X348000Y98586D02*
Y128414D01*
X347414Y129000D02*
X348000Y128414D01*
X322000Y129000D02*
X347414D01*
X316000Y96000D02*
X322879D01*
X323765Y92765D02*
Y94765D01*
X325000Y96000D01*
X323000Y92000D02*
X323765Y92765D01*
X316000Y78000D02*
X329918D01*
X332918Y81000D01*
X322000Y85000D02*
X323000D01*
X327000Y89000D01*
Y92000D01*
X327914Y80500D02*
X332000Y84586D01*
X332918Y81000D02*
X334000D01*
X332000Y84586D02*
Y89000D01*
X271000Y93000D02*
Y112500D01*
X358000Y109000D02*
X365436D01*
X364850Y114000D02*
Y120000D01*
X282000Y224000D02*
X286000Y220000D01*
Y186207D02*
Y220000D01*
Y186207D02*
X286586Y185621D01*
X296228D01*
X281914Y217000D02*
X284500Y214414D01*
X282000Y210000D02*
X283000Y209000D01*
X281500Y181707D02*
Y201500D01*
X273000Y203000D02*
X280000D01*
X283000Y183207D02*
Y209000D01*
X272500Y210000D02*
X282000D01*
X280000Y203000D02*
X281500Y201500D01*
X284500Y185000D02*
Y214414D01*
X272500Y217000D02*
X281914D01*
X284500Y185000D02*
X285379Y184121D01*
X295607D01*
X283000Y183207D02*
X283586Y182621D01*
X294985D01*
X282086Y181121D02*
X294364D01*
X281500Y181707D02*
X282086Y181121D01*
X279000Y196000D02*
X280000Y195000D01*
X272500Y196000D02*
X279000D01*
X280000Y180207D02*
Y195000D01*
X280586Y179621D02*
X293743D01*
X280000Y180207D02*
X280586Y179621D01*
X239561Y241561D02*
X244000Y246000D01*
X239561Y220439D02*
Y241561D01*
Y220439D02*
X244000Y216000D01*
X225500Y209500D02*
X227500Y207500D01*
X240000D01*
X193500Y187086D02*
X195586Y185000D01*
X196500Y190086D02*
X198586Y188000D01*
X246965Y189500D02*
X247550Y188914D01*
X192000Y185586D02*
X194086Y183500D01*
X197086Y186500D02*
X243965D01*
X187500Y183000D02*
X191500Y179000D01*
X199500Y209864D02*
X215000Y225364D01*
X200086Y189500D02*
X246965D01*
X189000Y183757D02*
X192257Y180500D01*
X201000Y209243D02*
X217000Y225243D01*
X192257Y180500D02*
X237965D01*
X198000Y191586D02*
X200086Y189500D01*
X199500Y194136D02*
X202636Y191000D01*
X191500Y179000D02*
X236465D01*
X237965Y180500D02*
X238550Y179914D01*
X240965Y183500D02*
X241550Y182914D01*
X195000Y188586D02*
X197086Y186500D01*
X190500Y184379D02*
X192879Y182000D01*
X195586Y185000D02*
X242464D01*
X245464Y188000D02*
X246050Y187414D01*
X203879Y194000D02*
X229000D01*
X242464Y185000D02*
X243050Y184414D01*
X243965Y186500D02*
X244550Y185914D01*
X235500Y192500D02*
X239000Y196000D01*
X201000Y194757D02*
X203257Y192500D01*
X243050Y127586D02*
Y184414D01*
X198586Y188000D02*
X245464D01*
X229000Y194000D02*
X232000Y197000D01*
X237050Y143586D02*
Y178414D01*
X238550Y140000D02*
Y179914D01*
X202500Y195379D02*
X203879Y194000D01*
X192879Y182000D02*
X239464D01*
X202636Y191000D02*
X252000D01*
X194086Y183500D02*
X240965D01*
X203257Y192500D02*
X235500D01*
X241550Y132308D02*
Y182914D01*
X244550Y123586D02*
Y185914D01*
X236465Y179000D02*
X237050Y178414D01*
X240050Y135586D02*
Y181414D01*
X239464Y182000D02*
X240050Y181414D01*
X277914Y189000D02*
X278500Y188414D01*
Y179000D02*
Y188414D01*
Y179000D02*
X279379Y178121D01*
X293121D01*
X277586Y176500D02*
X292621D01*
X277000Y177086D02*
X277586Y176500D01*
X272500Y175000D02*
X292000D01*
X243168Y319089D02*
X244447D01*
X239925Y319500D02*
X241836Y317589D01*
X240682Y314500D02*
X240914D01*
X238682Y316500D02*
X240682Y314500D01*
X236000Y326257D02*
Y331414D01*
X236500Y319500D02*
X239925D01*
X239303Y318000D02*
X241214Y316089D01*
X241836Y317589D02*
X243825D01*
X229006Y326994D02*
X236500Y319500D01*
X238061Y315000D02*
X240879Y312182D01*
X236000Y326257D02*
X243168Y319089D01*
X237035Y313500D02*
X239379Y311157D01*
X241214Y316089D02*
X243204D01*
X244447Y319089D02*
X247000Y316535D01*
X227414Y247142D02*
Y261414D01*
X215000Y327000D02*
Y331000D01*
X230000Y244036D02*
Y244556D01*
X227414Y247142D02*
X230000Y244556D01*
X215000Y320000D02*
Y327000D01*
X243204Y316089D02*
X243879Y315414D01*
X245379Y293621D02*
Y316036D01*
X247000Y293121D02*
Y316535D01*
X250000Y291879D02*
Y327000D01*
X243879Y294243D02*
Y315414D01*
X248500Y292500D02*
Y320207D01*
X242379Y294864D02*
Y313035D01*
X247914Y320793D02*
X248500Y320207D01*
X243825Y317589D02*
X245379Y316036D01*
X240914Y314500D02*
X242379Y313035D01*
X243586Y320793D02*
X247914D01*
X250000Y327000D02*
Y331000D01*
X140000Y134000D02*
X146000D01*
X154000Y126000D01*
X291000Y309000D02*
X308000D01*
X286000Y304000D02*
X291000Y309000D01*
X280000Y304000D02*
X286000D01*
X335000Y458000D02*
X358000D01*
X391000Y483650D02*
Y493000D01*
X428000Y477414D02*
X428586Y478000D01*
X332414Y292000D02*
X334500Y294086D01*
X323000Y292000D02*
X332414D01*
X334500Y294086D02*
Y307379D01*
X324000Y317879D02*
X334500Y307379D01*
X310000Y329000D02*
Y367000D01*
Y325000D02*
Y329000D01*
Y325000D02*
X311000Y324000D01*
X315000D01*
X321914D01*
X322500Y324586D01*
X320414Y334000D02*
X321000Y334586D01*
X315000Y334000D02*
X320414D01*
X303000Y374000D02*
X310000Y367000D01*
X336000Y327000D02*
X336765Y327765D01*
Y329848D01*
X315000Y304000D02*
X324000D01*
X328000Y300000D01*
Y299000D02*
Y300000D01*
X327000Y341000D02*
X330000Y344000D01*
X321000Y334586D02*
Y367879D01*
X324000Y317879D02*
Y366636D01*
X322500Y324586D02*
Y367257D01*
X305586Y374000D02*
X315000D01*
X325964Y382000D02*
X389000D01*
X326086Y380000D02*
X371000D01*
X323086Y383500D02*
X355500D01*
X216000Y319000D02*
X221121D01*
X215000Y320000D02*
X216000Y319000D01*
X218500Y222500D02*
X221914D01*
X205500Y207379D02*
X219121Y221000D01*
X221914Y222500D02*
X222500Y223086D01*
X201000Y194757D02*
Y209243D01*
X202500Y208621D02*
X218965Y225086D01*
X199500Y194136D02*
Y209864D01*
X204000Y208000D02*
X218500Y222500D01*
X219121Y221000D02*
X222535D01*
X202500Y195379D02*
Y208621D01*
X204000Y196586D02*
Y208000D01*
X205500Y198086D02*
Y207379D01*
X215000Y225364D02*
Y248000D01*
X210500Y252500D02*
X215000Y248000D01*
X217000Y225243D02*
Y243000D01*
X210500Y252500D02*
Y271914D01*
X214586Y276000D01*
X229879D01*
X499379Y257379D02*
X505757Y251000D01*
X493000Y285000D02*
X493257D01*
X499379Y278879D01*
Y257379D02*
Y278879D01*
X501000Y257879D02*
Y285000D01*
X503000Y258000D02*
X507000Y254000D01*
X544500D01*
X503000Y258000D02*
Y278000D01*
X505757Y251000D02*
X542879D01*
X506379Y252500D02*
X543500D01*
X501000Y257879D02*
X506379Y252500D01*
X515000Y257586D02*
Y264000D01*
Y257586D02*
X517086Y255500D01*
X515000Y264000D02*
X519000Y268000D01*
Y282000D01*
X516000Y285000D02*
X519000Y282000D01*
X510000Y269000D02*
X514000Y273000D01*
X510000Y259000D02*
Y269000D01*
X509000Y284000D02*
Y285000D01*
X503000Y278000D02*
X509000Y284000D01*
X521000Y282000D02*
X524000Y285000D01*
X521000Y267000D02*
Y282000D01*
X519500Y265500D02*
X521000Y267000D01*
X519500Y260000D02*
Y265500D01*
X551000Y270000D02*
X552000Y269000D01*
Y230879D02*
Y269000D01*
X543000Y270000D02*
X551000D01*
X517086Y255500D02*
X545121D01*
X526000Y265000D02*
Y273000D01*
Y265000D02*
X529000Y262000D01*
X545121Y255500D02*
X550000Y250621D01*
X544500Y254000D02*
X548500Y250000D01*
X543500Y252500D02*
X547000Y249000D01*
X542879Y251000D02*
X545500Y248379D01*
X550000Y231000D02*
Y250621D01*
X548500Y231621D02*
Y250000D01*
X409500Y297714D02*
X409680Y297893D01*
X409500Y272621D02*
Y297714D01*
X547000Y232243D02*
Y249000D01*
X545500Y233500D02*
Y248379D01*
X555000Y287000D02*
X565914D01*
X562500Y283000D02*
X568500Y277000D01*
X417000Y227000D02*
X419000Y229000D01*
X553500Y184743D02*
X559000Y190243D01*
X564414Y205000D02*
X565000Y204414D01*
Y194121D02*
Y204414D01*
X559000Y205000D02*
X564414D01*
X559000Y190243D02*
Y198000D01*
X568000Y192000D02*
Y219414D01*
X565914Y212000D02*
X566500Y211414D01*
X559000Y212000D02*
X565914D01*
X566500Y193500D02*
Y211414D01*
X558000Y220000D02*
X567414D01*
X568000Y219414D01*
X563000Y180000D02*
X580000D01*
X467459Y383000D02*
X490000D01*
X465459Y385000D02*
X467459Y383000D01*
X445000Y385000D02*
X465459D01*
X638500Y518500D02*
X639000Y519000D01*
X635000Y538000D02*
X639000Y534000D01*
Y519000D02*
Y534000D01*
X480000Y537414D02*
X480586Y538000D01*
X635000D01*
X480000Y526000D02*
Y537414D01*
X841000Y92000D02*
X852000D01*
X860000Y100000D01*
X842000Y383000D02*
Y435000D01*
X839000Y380000D02*
X842000Y383000D01*
X852000Y262152D02*
Y279000D01*
X857000Y284000D01*
X852000Y262152D02*
X852586Y261566D01*
X836000Y168172D02*
X844586Y159586D01*
X836000Y168172D02*
Y182000D01*
X852586Y261566D02*
X856787D01*
X831000Y446000D02*
X842000Y435000D01*
X825000Y470000D02*
X831000Y464000D01*
Y446000D02*
Y464000D01*
X825000Y470000D02*
Y515000D01*
X829000Y417000D02*
X832000Y414000D01*
X829000Y417000D02*
Y438000D01*
X681414Y319000D02*
X682000Y319586D01*
Y330000D01*
X656000Y319000D02*
X681414D01*
X655000Y320000D02*
X656000Y319000D01*
X655586Y340000D02*
X660000D01*
X655000Y339414D02*
X655586Y340000D01*
X655000Y320000D02*
Y339414D01*
X683000Y390000D02*
Y405000D01*
X675000Y413000D02*
X683000Y405000D01*
X790000Y154000D02*
Y262000D01*
X792000Y264000D01*
Y276000D01*
X790000Y278000D02*
Y286000D01*
Y278000D02*
X792000Y276000D01*
X795000Y115000D02*
Y245000D01*
X800000Y105000D02*
Y235000D01*
X556828Y41000D02*
X831000D01*
X805000Y95000D02*
Y225000D01*
X812000Y85000D02*
Y215000D01*
X817000Y53000D02*
Y205000D01*
X876414Y159586D02*
X877000Y159000D01*
X844586Y159586D02*
X876414D01*
Y90000D02*
X877000Y90586D01*
Y159000D01*
X870000Y90000D02*
X876414D01*
X838000Y135000D02*
Y154000D01*
X841835Y131165D02*
X858835D01*
X838000Y135000D02*
X841835Y131165D01*
X737436Y156000D02*
X777414D01*
X778000Y155414D01*
Y113000D02*
Y155414D01*
X776000Y111000D02*
X778000Y113000D01*
X771000Y111000D02*
X776000D01*
X770000Y110000D02*
X771000Y111000D01*
X756000Y149000D02*
X759957Y145043D01*
X663000Y149000D02*
X756000D01*
X660000Y146000D02*
X663000Y149000D01*
X736850Y161586D02*
Y181650D01*
X737436Y161000D02*
X780414D01*
X781000Y160414D01*
X736850Y161586D02*
X737436Y161000D01*
X781000Y96000D02*
Y160414D01*
X786000Y148000D02*
Y273000D01*
X870000Y210000D02*
X884000D01*
Y80586D02*
Y210000D01*
X870000Y80000D02*
X883414D01*
X884000Y80586D01*
X878150Y166000D02*
X879000Y166850D01*
Y175000D01*
X778000Y167150D02*
Y174000D01*
X770043Y90043D02*
X775043D01*
X770000Y90000D02*
X770043Y90043D01*
X775043D02*
X781000Y96000D01*
X786000Y273000D02*
Y410000D01*
X780000Y355000D02*
Y417000D01*
X770000Y350000D02*
X770043Y350043D01*
X775043D01*
X780000Y355000D01*
X765000Y345000D02*
X779000D01*
X753000Y191586D02*
Y209414D01*
X753586Y210000D02*
X760000D01*
X753000Y209414D02*
X753586Y210000D01*
X753000Y191586D02*
X753586Y191000D01*
X778414D01*
X779000Y191586D02*
Y198414D01*
X778414Y191000D02*
X779000Y191586D01*
X779235Y200235D02*
X780000Y201000D01*
X779235Y198649D02*
Y200235D01*
X779000Y198414D02*
X779235Y198649D01*
X765000Y215000D02*
X780000D01*
X795000Y245000D02*
Y375000D01*
X800000Y235000D02*
Y365000D01*
X805000Y225000D02*
Y355000D01*
X812000Y215000D02*
Y345000D01*
X817000Y205000D02*
Y316000D01*
X822500Y322500D02*
X823000Y322000D01*
X822500Y322500D02*
Y434484D01*
X777414Y289000D02*
X778000Y288414D01*
X724000Y294000D02*
X729000Y289000D01*
X778000Y220586D02*
Y288414D01*
X729000Y289000D02*
X777414D01*
Y220000D02*
X778000Y220586D01*
X775914Y240000D02*
X776500Y240586D01*
X774000Y284000D02*
X776500Y281500D01*
X770000Y220000D02*
X777414D01*
X776500Y240586D02*
Y281500D01*
X770000Y240000D02*
X775914D01*
X832000Y414000D02*
X837000D01*
X822500Y434484D02*
X825000Y436984D01*
Y459000D01*
X737000Y412000D02*
X756506D01*
X757506Y413000D01*
X775929D01*
X777414Y370000D02*
X778000Y370586D01*
Y410929D01*
X770000Y370000D02*
X777414D01*
X779000Y418000D02*
X780000Y417000D01*
X732000Y418000D02*
X779000D01*
X775929Y413000D02*
X778000Y410929D01*
X753000Y391000D02*
Y408414D01*
X753586Y409000D01*
X766000D01*
X805000Y355000D02*
Y485000D01*
X800000Y365000D02*
Y495000D01*
X790000Y286000D02*
Y390000D01*
X795000Y375000D02*
Y505000D01*
X817000Y316000D02*
Y471000D01*
X853000Y406000D02*
X863000D01*
X841500Y470500D02*
X859500D01*
X841000Y471000D02*
X841500Y470500D01*
X847383Y483040D02*
X850000Y480422D01*
X847383Y483040D02*
Y486383D01*
X850000Y480000D02*
Y480422D01*
X847383Y486383D02*
X851000Y490000D01*
X859500Y470500D02*
X860000Y470000D01*
X812000Y345000D02*
Y481000D01*
X790000Y390000D02*
Y528000D01*
X786000Y410000D02*
Y538000D01*
X844000Y77414D02*
X846586Y80000D01*
X844000Y53000D02*
Y77414D01*
X654000Y54000D02*
X750000D01*
Y78000D01*
X851000Y490000D02*
X860000D01*
X765000Y475000D02*
X781000D01*
X779000Y528000D02*
Y542000D01*
X778000Y543000D02*
X779000Y542000D01*
X770000Y543000D02*
X778000D01*
X727000Y529000D02*
X736000Y520000D01*
X727000Y529000D02*
Y531000D01*
X721000Y537000D02*
X727000Y531000D01*
X655000Y537000D02*
X721000D01*
X654000Y526000D02*
Y536000D01*
X655000Y537000D01*
X654000Y526000D02*
X660000Y520000D01*
X759500Y530500D02*
X760000Y530000D01*
X749500Y530500D02*
X759500D01*
X749000Y531000D02*
X749500Y530500D01*
X683000Y475000D02*
X686000Y472000D01*
X665000Y475000D02*
X683000D01*
X660000Y470000D02*
X665000Y475000D01*
X688000Y205000D02*
Y214414D01*
X665000Y215000D02*
X687414D01*
X688000Y214414D01*
X660000Y210000D02*
X665000Y215000D01*
X659000Y261000D02*
X660000Y260000D01*
X751000Y270000D02*
X760000D01*
X660000D02*
Y277414D01*
X660586Y278000D01*
X743000D01*
X751000Y270000D01*
X856787Y261566D02*
X858353Y260000D01*
X860000D01*
X67000Y199000D02*
X70414D01*
X64000Y182000D02*
Y196000D01*
X61000Y179000D02*
X64000Y182000D01*
Y196000D02*
X67000Y199000D01*
X113000Y383000D02*
X164414D01*
X165000Y382414D01*
Y372000D02*
Y382414D01*
X106000Y376000D02*
X113000Y383000D01*
X64086Y377500D02*
X105379D01*
X112379Y384500D01*
X168621D01*
X65293Y376000D02*
X106000D01*
X64500Y375207D02*
X65293Y376000D01*
X64500Y270500D02*
X68000Y267000D01*
X64500Y270500D02*
Y375207D01*
X57000Y238000D02*
X61000Y242000D01*
X68000Y222636D02*
Y228414D01*
X67414Y229000D02*
X68000Y228414D01*
Y222636D02*
X71500Y219136D01*
X70414Y199000D02*
X71500Y200086D01*
Y219136D01*
X68000Y195879D02*
X69121Y197000D01*
X72414D01*
X68000Y176000D02*
Y195879D01*
X69500Y194414D02*
X70086Y195000D01*
X69500Y178500D02*
Y194414D01*
X70086Y195000D02*
X73500D01*
X67000Y175000D02*
X68000Y176000D01*
X61000Y173000D02*
Y179000D01*
Y173000D02*
X64000Y170000D01*
X69000D01*
X73000Y174000D01*
X125414Y175500D02*
X126000Y174914D01*
X103457Y175500D02*
X125414D01*
X73000Y174000D02*
X101957D01*
X126000Y161000D02*
Y174914D01*
X101957Y174000D02*
X103457Y175500D01*
X124000Y155000D02*
Y159000D01*
X126000Y161000D01*
X167000Y357000D02*
Y365414D01*
X167586Y366000D01*
X178000D01*
X165000Y355000D02*
X167000Y357000D01*
X243000Y332000D02*
X249000D01*
X250000Y331000D01*
X242235Y327765D02*
X243000Y327000D01*
X240879Y332000D02*
X242235Y330644D01*
X241439Y333561D02*
X243000Y332000D01*
X238000D02*
X240879D01*
X242235Y327765D02*
Y330644D01*
X238561Y333561D02*
X241439D01*
X236500Y333500D02*
X238000Y332000D01*
X237121Y335000D02*
X238561Y333561D01*
X231743Y333500D02*
X236500D01*
X233000Y335000D02*
X237121D01*
X230500Y337500D02*
X233000Y335000D01*
X227621Y337500D02*
X230500D01*
X224561Y340561D02*
X227621Y337500D01*
X217146Y340561D02*
X224561D01*
X216561Y341146D02*
X217146Y340561D01*
X227000Y336000D02*
X229243D01*
X231743Y333500D01*
X223939Y339061D02*
X227000Y336000D01*
X231086Y332000D02*
X235414D01*
X230500Y332586D02*
X231086Y332000D01*
X228621Y334500D02*
X230500Y332621D01*
X235414Y332000D02*
X236000Y331414D01*
X230500Y332586D02*
Y332621D01*
X226000Y334500D02*
X228621D01*
X229000Y327000D02*
Y332000D01*
X228000Y333000D02*
X229000Y332000D01*
X222939Y337561D02*
X226000Y334500D01*
X225000Y333000D02*
X228000D01*
X215647Y339061D02*
X223939D01*
X215061Y339647D02*
X215647Y339061D01*
X216561Y341146D02*
Y372853D01*
X214146Y337561D02*
X222939D01*
X213561Y338146D02*
X214146Y337561D01*
X215061Y339647D02*
Y374354D01*
X221939Y336061D02*
X225000Y333000D01*
X212647Y336061D02*
X221939D01*
X212061Y336647D02*
X212647Y336061D01*
X213561Y338146D02*
Y375732D01*
X217146Y373439D02*
X227939D01*
X216561Y372853D02*
X217146Y373439D01*
X213561Y375732D02*
X214268Y376439D01*
X226561D01*
X215647Y374939D02*
X227182D01*
X230243Y378000D01*
X213647Y377939D02*
X225939D01*
X228000Y380000D01*
X215061Y374354D02*
X215647Y374939D01*
X226561Y376439D02*
X230121Y380000D01*
X212061Y376354D02*
X213647Y377939D01*
X227939Y373439D02*
X231000Y376500D01*
X242914D01*
X244000Y377586D01*
Y379414D01*
X241000Y378000D02*
X242000Y379000D01*
X230243Y378000D02*
X241000D01*
X242000Y379000D02*
Y385000D01*
X244586Y380000D02*
X249000D01*
X244000Y379414D02*
X244586Y380000D01*
X250000Y381000D02*
Y385000D01*
X249000Y380000D02*
X250000Y381000D01*
X234000Y380000D02*
X235000Y381000D01*
X230121Y380000D02*
X234000D01*
X235000Y381000D02*
Y385000D01*
X228000Y380000D02*
Y385000D01*
X212061Y336647D02*
Y376354D01*
X210561Y377561D02*
X213000Y380000D01*
X219000D02*
X220000Y381000D01*
X213000Y380000D02*
X219000D01*
X220000Y381918D02*
X222000Y383918D01*
X220000Y381000D02*
Y381918D01*
X208000Y327000D02*
Y332879D01*
X207000Y333879D02*
Y385000D01*
Y333879D02*
X208000Y332879D01*
X201000Y327000D02*
X205500Y331500D01*
Y378500D01*
X200000Y384000D02*
Y385000D01*
Y384000D02*
X205500Y378500D01*
X209000Y380000D02*
X214000Y385000D01*
X211146Y334561D02*
X219853D01*
X210561Y335146D02*
X211146Y334561D01*
X210561Y335146D02*
Y377561D01*
X209000Y334000D02*
Y380000D01*
X219853Y334561D02*
X222000Y332414D01*
Y327000D02*
Y332414D01*
X214000Y332000D02*
X215000Y331000D01*
X211000Y332000D02*
X214000D01*
X209000Y334000D02*
X211000Y332000D01*
X212000Y260000D02*
X215000Y257000D01*
X212000Y260000D02*
Y271000D01*
X215500Y274500D01*
X217000Y270000D02*
X220000Y273000D01*
X231879D01*
X217000Y264261D02*
Y270000D01*
X215500Y274500D02*
X231257D01*
X230879Y262000D02*
X232063Y263184D01*
X233563Y262563D02*
Y270442D01*
X240000Y263000D02*
Y269500D01*
X235063Y257063D02*
Y269063D01*
X231000Y260000D02*
X233563Y262563D01*
X232063Y263184D02*
Y271063D01*
X240000Y244879D02*
Y263000D01*
X235000Y257000D02*
X235063Y257063D01*
X133000Y424000D02*
Y430000D01*
Y424000D02*
X136000Y421000D01*
X109500Y411414D02*
X111086Y413000D01*
X117000D01*
X108000Y416000D02*
X112000Y420000D01*
X117000D01*
X186000Y493000D02*
X187500Y491500D01*
Y483150D02*
Y491500D01*
X255500Y483150D02*
Y493000D01*
X221500Y483150D02*
Y493000D01*
X179000Y483150D02*
Y493000D01*
X170500Y483150D02*
Y493000D01*
X153500Y483150D02*
Y493000D01*
X136500Y483150D02*
Y493000D01*
X119500Y483150D02*
Y493000D01*
X102500Y483150D02*
Y493000D01*
X68500Y483150D02*
Y493000D01*
X311349Y170500D02*
X424985D01*
X296228Y185621D02*
X311349Y170500D01*
X263735Y236270D02*
Y239235D01*
X264500Y240000D01*
X265500Y165500D02*
X269000Y162000D01*
X225000Y143000D02*
X236465D01*
X175000D02*
X225000D01*
X236465D02*
X237050Y143586D01*
X231000Y139000D02*
X237550D01*
X238550Y140000D01*
X170000Y127000D02*
X225000D01*
X242464D02*
X243050Y127586D01*
X225000Y127000D02*
X242464D01*
X243965Y123000D02*
X244550Y123586D01*
X231000Y123000D02*
X243965D01*
X239464Y135000D02*
X240050Y135586D01*
X231722Y131722D02*
X240965D01*
X225000Y135000D02*
X239464D01*
X240965Y131722D02*
X241550Y132308D01*
X173500Y139000D02*
X231000D01*
X225500Y209500D02*
Y230379D01*
X238061Y242939D02*
X240000Y244879D01*
X209843Y197500D02*
X212343Y200000D01*
X206086Y197500D02*
X209843D01*
X212343Y200000D02*
X213000D01*
X205500Y198086D02*
X206086Y197500D01*
X224000Y222464D02*
Y231000D01*
X218965Y241984D02*
X220500Y243519D01*
X229370Y236370D02*
X238000Y245000D01*
X225500Y230379D02*
X229370Y234249D01*
X220500Y243519D02*
Y261500D01*
X226370Y240441D02*
X229964Y244036D01*
X224000Y231000D02*
X227870Y234870D01*
X217739Y264261D02*
X220500Y261500D01*
X222500Y223086D02*
Y231621D01*
X227870Y236991D02*
X234000Y243121D01*
Y250000D01*
X222500Y231621D02*
X226370Y235491D01*
X229370Y234249D02*
Y236370D01*
X226370Y235491D02*
Y240441D01*
X227870Y234870D02*
Y236991D01*
X222464Y236536D02*
X223000Y237071D01*
X222535Y221000D02*
X224000Y222464D01*
X218965Y225086D02*
Y241984D01*
X217000Y264261D02*
X217739D01*
X219000Y245000D02*
Y251000D01*
X215765Y254235D02*
X219000Y251000D01*
X217000Y243000D02*
X219000Y245000D01*
X215765Y254235D02*
Y256235D01*
X204000Y196586D02*
X204586Y196000D01*
X220414D01*
X222414Y198000D01*
X223000D01*
X239000Y196000D02*
X240000D01*
X172000Y135000D02*
X225000D01*
X268000Y235000D02*
X269000Y236000D01*
X238000Y245000D02*
Y254000D01*
X235000Y257000D02*
X238000Y254000D01*
X223500Y245150D02*
Y255500D01*
X225914Y257914D01*
X185561Y234000D02*
X186561Y235000D01*
X192000D01*
X185561Y223167D02*
Y234000D01*
Y223167D02*
X198000Y210728D01*
Y191586D02*
Y210728D01*
X196500Y190086D02*
Y210107D01*
X184061Y222546D02*
Y235667D01*
Y222546D02*
X196500Y210107D01*
X178061Y220061D02*
X190500Y207621D01*
X176500Y219500D02*
X189000Y207000D01*
X181061Y221303D02*
X193500Y208864D01*
X189000Y183757D02*
Y207000D01*
X193500Y187086D02*
Y208864D01*
X195000Y188586D02*
Y209485D01*
X192000Y185586D02*
Y208243D01*
X179561Y220682D02*
X192000Y208243D01*
X190500Y184379D02*
Y207621D01*
X182561Y221925D02*
X195000Y209485D01*
X175000Y218879D02*
X187500Y206379D01*
X175000Y218879D02*
Y232000D01*
X187500Y183000D02*
Y206379D01*
X176500Y219500D02*
Y232621D01*
X178061Y220061D02*
Y233182D01*
X184000Y235728D02*
X184061Y235667D01*
X179500Y238107D02*
X182561Y235046D01*
Y221925D02*
Y235046D01*
X178000Y237485D02*
X181061Y234425D01*
X179561Y220682D02*
Y233803D01*
X180000Y199121D02*
Y204000D01*
X181061Y221303D02*
Y234425D01*
X176500Y236864D02*
X179561Y233803D01*
X175000Y236243D02*
X178061Y233182D01*
X173500Y235621D02*
X176500Y232621D01*
X173500Y235621D02*
Y262500D01*
X172000Y235000D02*
X175000Y232000D01*
X172000Y235000D02*
Y268000D01*
X255000Y139000D02*
X263950Y147950D01*
X264000Y142000D02*
X264050Y142050D01*
X263950Y147950D02*
X268950D01*
X269000Y148000D01*
Y236000D02*
Y250000D01*
X231000Y131000D02*
X231722Y131722D01*
X171500Y131000D02*
X231000D01*
X168000Y119000D02*
X225000D01*
X175000Y236243D02*
Y257000D01*
X176500Y236864D02*
Y254414D01*
X178000Y237485D02*
Y248649D01*
X184000Y235728D02*
Y239900D01*
X179500Y238107D02*
Y243414D01*
X173500Y262500D02*
X176000Y265000D01*
X176500Y254414D02*
X177086Y255000D01*
X192000D01*
X172000Y268000D02*
X174000Y270000D01*
X175000Y257000D02*
X178000Y260000D01*
X184000D01*
X174000Y270000D02*
X184000D01*
X176000Y265000D02*
X192000D01*
X178000Y248649D02*
X178586Y249235D01*
X181235D01*
X180000Y199121D02*
X186000Y193121D01*
Y175000D02*
Y193121D01*
X184500Y171000D02*
Y192500D01*
X172561Y204439D02*
Y226439D01*
Y204439D02*
X184500Y192500D01*
X171000Y203864D02*
X183000Y191864D01*
X171000Y203864D02*
Y224000D01*
X170000Y225000D02*
X171000Y224000D01*
X163586Y227000D02*
X172000D01*
X172561Y226439D01*
X169000Y223000D02*
X169500Y222500D01*
X160000Y225000D02*
X170000D01*
X169500Y203243D02*
Y222500D01*
X156000Y223000D02*
X169000D01*
X168000Y202000D02*
Y221000D01*
X152586D02*
X168000D01*
X169500Y203243D02*
X181500Y191243D01*
X169000Y201000D02*
X169621D01*
X180000Y190621D01*
X164586Y199500D02*
X169000D01*
X178500Y190000D01*
X168068Y194068D02*
X174000Y188136D01*
X160086Y197500D02*
X168879D01*
X168257Y196000D02*
X175500Y188757D01*
X168879Y197500D02*
X177000Y189379D01*
X175500Y147000D02*
Y188757D01*
X177000Y152000D02*
Y189379D01*
X153932Y194068D02*
X168068D01*
X178500Y155000D02*
Y190000D01*
X158000Y196000D02*
X168257D01*
X150000Y198000D02*
X153932Y194068D01*
X168000Y202000D02*
X169000Y201000D01*
X159000Y198586D02*
X160086Y197500D01*
X164000Y200086D02*
Y216000D01*
Y200086D02*
X164586Y199500D01*
X168015Y192000D02*
X172500Y187515D01*
Y140000D02*
Y187515D01*
X174000Y144000D02*
Y188136D01*
X159000Y198586D02*
Y210000D01*
X154000Y200000D02*
Y204000D01*
Y200000D02*
X158000Y196000D01*
X152000Y221586D02*
Y234521D01*
Y221586D02*
X152586Y221000D01*
X179500Y243414D02*
X181086Y245000D01*
X192000D01*
X181235Y249235D02*
X182000Y250000D01*
X165000Y122000D02*
Y177914D01*
Y122000D02*
X168000Y119000D01*
X166500Y125000D02*
Y179414D01*
Y125000D02*
X168500Y123000D01*
X168000Y129000D02*
X170000Y127000D01*
X168000Y129000D02*
Y180914D01*
X169500Y133000D02*
Y182086D01*
Y133000D02*
X171500Y131000D01*
X171000Y136000D02*
Y182707D01*
Y136000D02*
X172000Y135000D01*
X172500Y140000D02*
X173500Y139000D01*
X174000Y144000D02*
X175000Y143000D01*
X175500Y147000D02*
X231000D01*
X177000Y152000D02*
X178000Y151000D01*
X225000D01*
X178500Y155000D02*
X231000D01*
X181000Y159000D02*
X225000D01*
X180000Y160000D02*
Y190621D01*
Y160000D02*
X181000Y159000D01*
X182164Y163000D02*
X231000D01*
X181500Y163664D02*
Y191243D01*
Y163664D02*
X182164Y163000D01*
X183000Y168000D02*
Y191864D01*
Y168000D02*
X183939Y167061D01*
X206939D01*
X186000Y175000D02*
X225000D01*
X184500Y171000D02*
X231000D01*
X207000Y167000D02*
X225000D01*
X206939Y167061D02*
X207000Y167000D01*
X167414Y181500D02*
X168000Y180914D01*
X166707Y187000D02*
X171000Y182707D01*
X165914Y180000D02*
X166500Y179414D01*
X168586Y183000D02*
X169500Y182086D01*
X102500Y177000D02*
X162914D01*
X101500Y178500D02*
X164414D01*
X162914Y177000D02*
X163500Y176414D01*
X99500Y181500D02*
X167414D01*
X100121Y180000D02*
X165914D01*
X164414Y178500D02*
X165000Y177914D01*
X163000Y227586D02*
X163586Y227000D01*
X163000Y227586D02*
Y255000D01*
X159000Y226000D02*
X160000Y225000D01*
X159000Y226000D02*
Y249000D01*
X151765Y234755D02*
Y236341D01*
Y234755D02*
X152000Y234521D01*
X151000Y237107D02*
X151765Y236341D01*
X155000Y224000D02*
X156000Y223000D01*
X155000Y224000D02*
Y243000D01*
X166000Y187000D02*
X166707D01*
X98000Y180000D02*
X99500Y181500D01*
X99000Y178879D02*
X100121Y180000D01*
X72500Y175500D02*
X101000D01*
X102500Y177000D01*
X75000D02*
X100000D01*
X101500Y178500D01*
X76243Y180000D02*
X98000D01*
X75621Y178500D02*
X99000D01*
Y178879D01*
X69500Y178500D02*
X72500Y175500D01*
Y181621D02*
X75621Y178500D01*
X68000Y233586D02*
Y245000D01*
X67414Y233000D02*
X68000Y233586D01*
X48500Y246000D02*
Y385107D01*
X67000Y246000D02*
X68000Y245000D01*
X48500Y246000D02*
X67000D01*
X50000Y248086D02*
X50586Y247500D01*
X50000Y248086D02*
Y390000D01*
X75914Y247500D02*
X77000Y246414D01*
X50586Y247500D02*
X75914D01*
X69500Y223257D02*
Y239000D01*
X77000Y241000D02*
Y246414D01*
X75000Y239000D02*
X77000Y241000D01*
X69500Y239000D02*
X75000D01*
X73000Y197586D02*
Y219757D01*
X72414Y197000D02*
X73000Y197586D01*
X69500Y223257D02*
X73000Y219757D01*
X72500Y224500D02*
X76000Y221000D01*
X71000Y223879D02*
X74500Y220379D01*
X73500Y232500D02*
X82500D01*
X71000Y223879D02*
Y236000D01*
X72500Y224500D02*
Y231500D01*
X72000Y237000D02*
X78000D01*
X72500Y231500D02*
X73500Y232500D01*
X71000Y236000D02*
X72000Y237000D01*
X82500Y232500D02*
X88000Y238000D01*
X71000Y181000D02*
Y192914D01*
X74000Y182243D02*
X76243Y180000D01*
X78000Y184000D02*
X81000Y187000D01*
X71000Y181000D02*
X75000Y177000D01*
X72500Y191414D02*
X73086Y192000D01*
X77414D01*
X74000Y182243D02*
Y189414D01*
X72500Y181621D02*
Y191414D01*
X81000Y187000D02*
Y214414D01*
X71586Y193500D02*
X74914D01*
X71000Y192914D02*
X71586Y193500D01*
X74914D02*
X76000Y194586D01*
X73500Y195000D02*
X74500Y196000D01*
Y220379D01*
X82000Y241000D02*
Y242000D01*
X78000Y237000D02*
X82000Y241000D01*
X89000Y191000D02*
Y206000D01*
Y191000D02*
X92000Y188000D01*
X81000Y214414D02*
X81586Y215000D01*
X92414D01*
X79500Y220164D02*
X81000Y221664D01*
X86000D01*
X79500Y191000D02*
Y220164D01*
X86000Y221664D02*
X86336Y222000D01*
X78000Y192586D02*
Y226000D01*
X76000Y194586D02*
Y221000D01*
X74000Y189414D02*
X74586Y190000D01*
X78500D01*
X77414Y192000D02*
X78000Y192586D01*
X84672Y184328D02*
Y187328D01*
X82732Y211268D02*
X84465Y213000D01*
X84500Y191500D02*
X92000Y184000D01*
X82732Y189268D02*
X84672Y187328D01*
X84500Y210414D02*
X85086Y211000D01*
X84500Y191500D02*
Y210414D01*
X82732Y189268D02*
Y211268D01*
X84465Y213000D02*
X94414D01*
X85086Y211000D02*
X95914D01*
X84672Y184328D02*
X85000Y184000D01*
X78500Y190000D02*
X79500Y191000D01*
X92414Y215000D02*
X93000Y215586D01*
X89000Y206000D02*
X89765Y206765D01*
X98000Y207586D02*
Y260035D01*
X91586Y207000D02*
X97414D01*
X89765Y206765D02*
X91351D01*
X91586Y207000D01*
X97414D02*
X98000Y207586D01*
X95914Y211000D02*
X96500Y211586D01*
Y259414D01*
X95000Y213586D02*
Y256536D01*
X94414Y213000D02*
X95000Y213586D01*
X93000Y215586D02*
Y256414D01*
X91000Y222000D02*
Y254414D01*
X86336Y222000D02*
X91000D01*
X89500Y230500D02*
Y252414D01*
X78000Y226000D02*
X85000D01*
X89500Y230500D01*
X88000Y238000D02*
Y250414D01*
X52086Y249000D02*
X82000D01*
Y242000D02*
Y249000D01*
X51500Y249586D02*
Y383500D01*
Y249586D02*
X52086Y249000D01*
X87414Y251000D02*
X88000Y250414D01*
X53586Y251000D02*
X87414D01*
X53000Y251586D02*
Y382879D01*
Y251586D02*
X53586Y251000D01*
X54500Y253586D02*
Y382257D01*
X55086Y253000D02*
X88914D01*
X54500Y253586D02*
X55086Y253000D01*
X88914D02*
X89500Y252414D01*
X56000Y255586D02*
X56586Y255000D01*
X56000Y255586D02*
Y381636D01*
X90414Y255000D02*
X91000Y254414D01*
X56586Y255000D02*
X90414D01*
X58086Y257000D02*
X92414D01*
X59586Y259000D02*
X92536D01*
X92414Y257000D02*
X93000Y256414D01*
X57500Y257586D02*
Y380414D01*
Y257586D02*
X58086Y257000D01*
X92536Y259000D02*
X95000Y256536D01*
X95414Y260500D02*
X96500Y259414D01*
X59000Y259586D02*
Y378914D01*
Y259586D02*
X59586Y259000D01*
X61000Y261086D02*
X61586Y260500D01*
X95414D01*
X61000Y261086D02*
Y377414D01*
X63586Y262000D02*
X96035D01*
X98000Y260035D01*
X63000Y262586D02*
Y376414D01*
Y262586D02*
X63586Y262000D01*
X243000Y321379D02*
Y327000D01*
Y321379D02*
X243586Y320793D01*
X106000Y269000D02*
X113000Y276000D01*
X129000Y241150D02*
Y258000D01*
X113000Y204000D02*
X124000D01*
X129000Y209000D01*
Y234850D01*
X225914Y266914D02*
X226000Y267000D01*
X225914Y257914D02*
Y266914D01*
X227414Y261414D02*
X228000Y262000D01*
X230879D01*
X231000Y253000D02*
X234000Y250000D01*
X231000Y253000D02*
Y260000D01*
X57235Y208317D02*
X60000Y211082D01*
X57235Y204765D02*
Y208317D01*
Y204765D02*
X58000Y204000D01*
X46000Y221586D02*
Y232000D01*
X45414Y221000D02*
X46000Y221586D01*
X41000Y237000D02*
X46000Y232000D01*
X41000Y237000D02*
Y382000D01*
X42500Y237621D02*
X51000Y229121D01*
Y225000D02*
Y229121D01*
X42500Y237621D02*
Y382621D01*
X36000Y395485D02*
X47000Y384485D01*
X43379Y390228D02*
X48500Y385107D01*
X39500Y241500D02*
Y380500D01*
X31000Y312000D02*
X38000Y319000D01*
X24000Y403243D02*
X44000Y383243D01*
X61000Y377414D02*
X62586Y379000D01*
X30000Y399364D02*
X45500Y383864D01*
X36000Y238000D02*
X39500Y241500D01*
X21000Y402000D02*
X41000Y382000D01*
X22500Y402621D02*
X42500Y382621D01*
X34000Y383000D02*
X38000Y379000D01*
Y319000D02*
Y379000D01*
X19500Y400500D02*
X39500Y380500D01*
X56000Y381636D02*
X58364Y384000D01*
X51500Y383500D02*
X56500Y388500D01*
X53000Y382879D02*
X57121Y387000D01*
X54500Y382257D02*
X57743Y385500D01*
X57500Y380414D02*
X59586Y382500D01*
X59000Y378914D02*
X61086Y381000D01*
X63000Y376414D02*
X64086Y377500D01*
X59586Y382500D02*
X103621D01*
X62586Y379000D02*
X104364D01*
X61086Y381000D02*
X104243D01*
X43379Y390228D02*
Y395500D01*
X55000Y217657D02*
X57500Y220157D01*
X55000Y217000D02*
Y217657D01*
X90000Y148150D02*
X106000D01*
X115000D01*
X91322Y130764D02*
Y135770D01*
X90000Y137092D02*
Y141850D01*
Y137092D02*
X91322Y135770D01*
X106000Y131000D02*
Y141850D01*
Y131000D02*
X106000Y131000D01*
X115000Y141850D02*
X115000Y141850D01*
Y131000D02*
Y141850D01*
X140000Y141850D02*
X140000Y141850D01*
Y134000D02*
Y141850D01*
X60953Y103953D02*
Y131965D01*
X59000Y133918D02*
X60953Y131965D01*
X57000Y100000D02*
X60953Y103953D01*
X59000Y133918D02*
Y135000D01*
X168621Y384500D02*
X174500Y390379D01*
X58364Y384000D02*
X103000D01*
X57743Y385500D02*
X102379D01*
X29000Y383000D02*
X34000D01*
X57121Y387000D02*
X101000D01*
X56500Y388500D02*
X100379D01*
X104364Y379000D02*
X111364Y386000D01*
X104243Y381000D02*
X110743Y387500D01*
X103621Y382500D02*
X110121Y389000D01*
X111000Y394121D02*
Y405414D01*
X101000Y387000D02*
X109500Y395500D01*
X102379Y385500D02*
X111000Y394121D01*
X103000Y384000D02*
X112500Y393500D01*
Y400414D01*
X110121Y389000D02*
X166757D01*
X108000Y396121D02*
Y416000D01*
X110743Y387500D02*
X167379D01*
X100379Y388500D02*
X108000Y396121D01*
X111364Y386000D02*
X168000D01*
X109500Y395500D02*
Y411414D01*
X168000Y386000D02*
X173000Y391000D01*
X166757Y389000D02*
X170000Y392243D01*
X167379Y387500D02*
X171500Y391621D01*
X174500Y397414D02*
X175086Y398000D01*
X174500Y390379D02*
Y397414D01*
X175086Y398000D02*
X181000D01*
X170000Y392243D02*
Y413414D01*
X170586Y414000D01*
X173000Y391000D02*
Y403414D01*
X171500Y408414D02*
X172086Y409000D01*
X171500Y391621D02*
Y408414D01*
X173000Y403414D02*
X173586Y404000D01*
X187000D01*
X172086Y409000D02*
X180000D01*
X112500Y400414D02*
X113086Y401000D01*
X124000D01*
X170586Y414000D02*
X186000D01*
X111000Y405414D02*
X111586Y406000D01*
X122000D01*
X124000Y408000D01*
Y409000D01*
X30000Y399364D02*
Y408000D01*
X36000Y395485D02*
Y402000D01*
X22500Y402621D02*
Y423136D01*
X21000Y402000D02*
Y432184D01*
X24000Y403243D02*
Y413000D01*
X19500Y400500D02*
Y439457D01*
X24000Y413000D02*
X27000Y416000D01*
X19500Y439457D02*
X26000Y445957D01*
X21000Y432184D02*
X22525Y433709D01*
X22500Y423136D02*
X25364Y426000D01*
X26000D01*
X24925Y436000D02*
X26000D01*
X22634Y433709D02*
X24925Y436000D01*
X22525Y433709D02*
X22634D01*
X154235Y525235D02*
Y528235D01*
X154000Y525000D02*
X154235Y525235D01*
X154000Y524000D02*
Y525000D01*
X154235Y528235D02*
X155000Y529000D01*
X158000Y542414D02*
Y543000D01*
Y542414D02*
X160000Y540414D01*
Y521879D02*
Y540414D01*
X164298Y536000D02*
X165000D01*
X162235Y533937D02*
X164298Y536000D01*
X162235Y521765D02*
Y533937D01*
X135765Y504235D02*
X167235D01*
X132000Y508000D02*
X135765Y504235D01*
X167235D02*
X168000Y505000D01*
X250000Y516000D02*
Y526000D01*
X141000Y507000D02*
X158250D01*
X138000Y510000D02*
X141000Y507000D01*
X138000Y510000D02*
Y515000D01*
X33086Y508000D02*
X132000D01*
X149248Y512000D02*
X150834Y510414D01*
X154000D01*
X145000Y512000D02*
X149248D01*
X240000Y518000D02*
Y526000D01*
X230000Y519000D02*
Y526000D01*
X33586Y596000D02*
X127000D01*
X130000Y580000D02*
Y593000D01*
X127000Y596000D02*
X130000Y593000D01*
X32500Y508586D02*
X33086Y508000D01*
X32500Y594914D02*
X33586Y596000D01*
X32500Y508586D02*
Y594914D01*
X153000Y589000D02*
X156000Y592000D01*
X238000D01*
X250000Y580000D01*
X220000Y520586D02*
Y526000D01*
X38500Y515086D02*
X39586Y514000D01*
X42465Y517000D02*
X79414D01*
X120000Y511586D02*
Y526000D01*
X89414Y515500D02*
X90000Y516086D01*
Y526000D01*
X36586Y511000D02*
X119414D01*
X109414Y512500D02*
X110000Y513086D01*
X35500Y512086D02*
X36586Y511000D01*
X43000Y519086D02*
Y576000D01*
X99000Y514000D02*
X100000Y515000D01*
X37000Y513586D02*
X38086Y512500D01*
X34000Y510586D02*
X35086Y509500D01*
X128500D01*
X119414Y511000D02*
X120000Y511586D01*
X80000Y517586D02*
Y526000D01*
X38086Y512500D02*
X109414D01*
X41086Y515500D02*
X89414D01*
X43586Y518500D02*
X67500D01*
X70000Y521000D01*
X79414Y517000D02*
X80000Y517586D01*
X40000Y516586D02*
X41086Y515500D01*
X110000Y513086D02*
Y526000D01*
X43000Y519086D02*
X43586Y518500D01*
X128500Y509500D02*
X130000Y511000D01*
X41500Y517965D02*
X42465Y517000D01*
X39586Y514000D02*
X99000D01*
X100000Y515000D02*
Y526000D01*
X40000Y516586D02*
Y585914D01*
X34000Y592414D02*
X35586Y594000D01*
X35500Y512086D02*
Y590414D01*
X34000Y510586D02*
Y592414D01*
X38500Y515086D02*
Y587414D01*
X40000Y585914D02*
X41586Y587500D01*
X41500Y517965D02*
Y584414D01*
X38500Y587414D02*
X40086Y589000D01*
X37000Y588914D02*
X38586Y590500D01*
X43000Y576000D02*
X47000Y580000D01*
X35500Y590414D02*
X37086Y592000D01*
X37000Y513586D02*
Y588914D01*
X41500Y584414D02*
X43086Y586000D01*
X40086Y589000D02*
X88414D01*
X41586Y587500D02*
X79414D01*
X35586Y594000D02*
X119000D01*
X43086Y586000D02*
X69414D01*
X38586Y590500D02*
X98500D01*
X37086Y592000D02*
X109414D01*
X47000Y580000D02*
X60000D01*
X120000D02*
Y593000D01*
X119000Y594000D02*
X120000Y593000D01*
X130000Y511000D02*
Y526000D01*
X110000Y580000D02*
Y591414D01*
X109414Y592000D02*
X110000Y591414D01*
X98500Y590500D02*
X100000Y589000D01*
X88414D02*
X90000Y587414D01*
Y580000D02*
Y587414D01*
X100000Y580000D02*
Y589000D01*
X70000Y521000D02*
Y526000D01*
X80000Y580000D02*
Y586914D01*
X79414Y587500D02*
X80000Y586914D01*
X70000Y580000D02*
Y585414D01*
X69414Y586000D02*
X70000Y585414D01*
X424985Y170500D02*
X440061Y155425D01*
Y148646D02*
X440647Y148061D01*
X440061Y148646D02*
Y155425D01*
X438561Y147146D02*
X439147Y146561D01*
X438561Y147146D02*
Y154803D01*
X437061Y145647D02*
Y154182D01*
Y145647D02*
X437646Y145061D01*
X436146Y143561D02*
X491414D01*
X434061Y142647D02*
Y152939D01*
X435561Y144147D02*
X436146Y143561D01*
X435561Y144147D02*
Y153561D01*
X431000Y146121D02*
Y151757D01*
X434647Y142061D02*
X493354D01*
X434061Y142647D02*
X434647Y142061D01*
X494853Y140121D02*
X495439Y140707D01*
Y148439D01*
X431000Y146121D02*
X431061Y146061D01*
X498000Y143000D02*
X499000Y144000D01*
X440647Y148061D02*
X485828D01*
X486414Y148646D02*
Y184828D01*
X485828Y148061D02*
X486414Y148646D01*
Y184828D02*
X487586Y186000D01*
X487914Y175914D02*
X491000Y179000D01*
X487914Y147146D02*
Y175914D01*
X487328Y146561D02*
X487914Y147146D01*
X439147Y146561D02*
X487328D01*
X490000Y170000D02*
X492000Y172000D01*
X490000Y145647D02*
Y170000D01*
X489414Y145061D02*
X490000Y145647D01*
X492000Y144147D02*
Y164414D01*
X492586Y165000D01*
X437646Y145061D02*
X489414D01*
X491414Y143561D02*
X492000Y144147D01*
X493354Y142061D02*
X493939Y142647D01*
Y149500D01*
X494000Y149561D01*
Y157000D01*
X495000Y158000D01*
X495439Y148439D02*
X498000Y151000D01*
X495000Y213000D02*
Y227500D01*
X496793Y215000D02*
Y228621D01*
Y215000D02*
X529000D01*
X412500Y151000D02*
X413000Y151500D01*
X414000Y143000D02*
X417235Y146235D01*
X420235D01*
X421000Y147000D01*
X662000Y62000D02*
X740000D01*
X660000Y64000D02*
X662000Y62000D01*
X660000Y64000D02*
Y70000D01*
X420000Y226000D02*
X421500Y227500D01*
X420000Y208000D02*
Y226000D01*
X421500Y227500D02*
X495000D01*
X419000Y229000D02*
X496414D01*
X518000Y223586D02*
X518235Y223351D01*
X518000Y223586D02*
Y235000D01*
X515500Y237500D02*
X518000Y235000D01*
X518235Y221765D02*
X519000Y221000D01*
X518235Y221765D02*
Y223351D01*
X439586Y237500D02*
X515500D01*
X496414Y229000D02*
X496793Y228621D01*
X682000Y127000D02*
X744000D01*
X670000Y110000D02*
X670500Y110500D01*
X693500D01*
X694000Y111000D01*
X755000Y115000D02*
X760000Y110000D01*
X665000Y115000D02*
X755000D01*
X660000Y110000D02*
X665000Y115000D01*
X654000Y131000D02*
Y152000D01*
X655000Y130000D02*
X660000D01*
X654000Y131000D02*
X655000Y130000D01*
X716000Y144000D02*
X746000D01*
X656000Y154000D02*
X716000D01*
X746000Y144000D02*
X760000Y130000D01*
X654000Y152000D02*
X656000Y154000D01*
X759957Y140043D02*
X760000Y140000D01*
X759957Y140043D02*
Y145043D01*
X660000Y140000D02*
Y146000D01*
X591000Y159586D02*
X594586Y156000D01*
X637000D01*
X765000Y125000D02*
X770000Y120000D01*
X751000Y125000D02*
X765000D01*
X746000Y120000D02*
X751000Y125000D01*
X670000Y120000D02*
X746000D01*
X755000Y95000D02*
X760000Y100000D01*
X664000Y95000D02*
X755000D01*
X660000Y99000D02*
Y100000D01*
Y99000D02*
X664000Y95000D01*
X755086Y85086D02*
X760000Y90000D01*
X752000Y85000D02*
X752086Y85086D01*
X755086D01*
X665000Y85000D02*
X752000D01*
X660000Y90000D02*
X665000Y85000D01*
X658957Y78957D02*
X660000Y80000D01*
X654957Y78957D02*
X658957D01*
X652000Y76000D02*
X654957Y78957D01*
X652000Y56000D02*
Y76000D01*
Y56000D02*
X654000Y54000D01*
X765000Y85000D02*
X780000D01*
X760000Y90000D02*
X765000Y85000D01*
X846586Y80000D02*
X860000D01*
X750000Y78000D02*
X751957Y79957D01*
X759957D01*
X760000Y80000D01*
X858835Y131165D02*
X860000Y130000D01*
X760000Y220000D02*
X765000Y215000D01*
X724000Y294000D02*
Y302000D01*
X737000Y284000D02*
X774000D01*
X851000Y337414D02*
X853586Y340000D01*
X851000Y320000D02*
Y337414D01*
X853586Y340000D02*
X860000D01*
X851000Y320000D02*
X855000Y316000D01*
X861000D01*
X754000Y324000D02*
X762000Y316000D01*
X754000Y324000D02*
Y334000D01*
X760000Y340000D01*
Y350000D02*
X765000Y345000D01*
X753000Y391000D02*
X754000Y390000D01*
X760000D01*
X870000Y350000D02*
X877000D01*
X882000Y355000D01*
Y406000D01*
X866000Y409000D02*
X879000D01*
X882000Y406000D01*
X863000D02*
X866000Y409000D01*
X760000Y470000D02*
X765000Y475000D01*
X882000Y486000D02*
Y544000D01*
X879414Y546586D02*
X882000Y544000D01*
X876000Y480000D02*
X882000Y486000D01*
X870000Y480000D02*
X876000D01*
X825000Y546586D02*
X879414D01*
X383000Y109586D02*
Y113850D01*
X365436Y109000D02*
X382414D01*
X383000Y113850D02*
X383150Y114000D01*
X382414Y109000D02*
X383000Y109586D01*
X364850D02*
X365436Y109000D01*
X364850Y109586D02*
Y114000D01*
X280000Y334000D02*
X284414D01*
X54414Y130000D02*
X57000Y127414D01*
X36000Y130000D02*
X54414D01*
X32649Y126649D02*
X36000Y130000D01*
X338086Y298000D02*
X360000D01*
X339710Y299604D02*
X359482D01*
X342000Y318000D02*
X342500Y318500D01*
X366914D01*
X368000Y319586D01*
Y362414D01*
X367000Y365000D02*
X367765Y364235D01*
Y362649D02*
Y364235D01*
Y362649D02*
X368000Y362414D01*
X367000Y313000D02*
X367765Y313765D01*
X372620D01*
X375705Y316850D01*
X384500D01*
X330000Y354000D02*
X331000D01*
X418000Y206000D02*
X420000Y208000D01*
X405000Y206000D02*
X418000D01*
X439000Y238086D02*
X439586Y237500D01*
X523000Y229000D02*
Y238000D01*
X441000Y243000D02*
X445000Y239000D01*
X522000D01*
X523000Y238000D01*
X314000Y476850D02*
X322500D01*
X305500D02*
X314000D01*
X297000D02*
X305500D01*
X288500D02*
X297000D01*
X280000D02*
X288500D01*
Y443586D02*
Y452850D01*
Y443586D02*
X289586Y442500D01*
X297000Y444586D02*
X297586Y444000D01*
X297000Y444586D02*
Y452850D01*
X307000Y448000D02*
X319914D01*
X320500Y447414D01*
X305500Y448500D02*
X306086Y447914D01*
X306914D02*
X307000Y448000D01*
X305500Y448500D02*
Y452850D01*
X306086Y447914D02*
X306914D01*
X314000Y452850D02*
X314850Y452000D01*
X305500Y459150D02*
Y468000D01*
X314000Y459150D02*
Y468000D01*
X297000Y459150D02*
Y467000D01*
X288500Y467500D02*
X289000Y468000D01*
X288500Y459150D02*
Y467500D01*
X305000Y483650D02*
Y493000D01*
Y483650D02*
X305500Y483150D01*
X314000D02*
Y493000D01*
X297000Y483150D02*
Y493000D01*
X288000Y483650D02*
X288500Y483150D01*
X288000Y483650D02*
Y493000D01*
X891000Y288000D02*
X892000Y289000D01*
Y302000D01*
X885586Y303000D02*
X891000D01*
X892000Y302000D01*
X885000Y303586D02*
Y339414D01*
Y303586D02*
X885586Y303000D01*
X884414Y340000D02*
X885000Y339414D01*
X870000Y340000D02*
X884414D01*
X400000Y381000D02*
X400500Y380500D01*
X440500D01*
X445000Y385000D01*
X57000Y110000D02*
Y127414D01*
X32000Y123000D02*
X32649Y123649D01*
Y126649D01*
X399000Y483150D02*
Y493000D01*
X390500Y483150D02*
X391000Y483650D01*
X390500Y476850D02*
X399000D01*
X382000D02*
X390500D01*
X376000Y186000D02*
Y205360D01*
X394000Y184000D02*
Y211000D01*
X385918Y267000D02*
X387918Y265000D01*
X352000Y272000D02*
X377000D01*
X387918Y265000D02*
X389000D01*
X344000Y267000D02*
X385918D01*
X322500Y476850D02*
X323000Y476350D01*
Y465000D02*
Y476350D01*
X360000Y277586D02*
Y293000D01*
X347000D02*
X360000D01*
X346000Y294000D02*
X347000Y293000D01*
X360586Y277000D02*
X383000D01*
X360000Y277586D02*
X360586Y277000D01*
X388000Y180000D02*
Y218000D01*
X383000Y186000D02*
Y212000D01*
X492000Y534000D02*
X562000D01*
X355500Y383500D02*
X359000Y387000D01*
Y388000D01*
X371000Y380000D02*
X374000Y377000D01*
X372000Y28121D02*
Y46000D01*
X375121Y47000D02*
X421000D01*
X359379Y15500D02*
X372000Y28121D01*
X373500Y27500D02*
Y45379D01*
X374500Y48500D02*
X413500D01*
X373500Y45379D02*
X375121Y47000D01*
X372000Y46000D02*
X374500Y48500D01*
X550000Y34172D02*
X556828Y41000D01*
X489000Y15000D02*
X550000D01*
Y34172D01*
X483000Y21000D02*
X489000Y15000D01*
X483000Y21000D02*
Y33500D01*
X153000Y139000D02*
Y147564D01*
X152414Y148150D02*
X153000Y147564D01*
X115000Y148150D02*
X152414D01*
X131000Y130000D02*
Y141850D01*
X376850Y114000D02*
Y120000D01*
X486500Y316850D02*
X495000D01*
X478000D02*
X486500D01*
X469500D02*
X478000D01*
X461000D02*
X469500D01*
X452500D02*
X461000D01*
X444000D02*
X452500D01*
X435500D02*
X444000D01*
X427000D02*
X435500D01*
X418500D02*
X427000D01*
X410000D02*
X418500D01*
X401500D02*
X410000D01*
X393000D02*
X401500D01*
X384500D02*
X393000D01*
X351150Y410000D02*
Y428150D01*
X353000Y430000D01*
X361000D01*
X493000Y43500D02*
Y80000D01*
X483000Y43500D02*
Y80000D01*
X473000Y43500D02*
Y80000D01*
X503000Y43500D02*
Y80000D01*
X543000Y43500D02*
Y80000D01*
X533000Y43500D02*
Y80000D01*
X523000Y43500D02*
Y80000D01*
X513000Y43500D02*
Y80000D01*
X580000Y170000D02*
X587000D01*
X588000Y171000D01*
X568500Y230257D02*
X570000Y228757D01*
X568500Y230257D02*
Y277000D01*
X570000Y230879D02*
Y278000D01*
X568000Y282121D02*
X571500Y278621D01*
X573000Y232121D02*
Y279243D01*
Y232121D02*
X575121Y230000D01*
X566500Y281500D02*
X570000Y278000D01*
X571500Y231500D02*
X573000Y230000D01*
X571500Y231500D02*
Y278621D01*
X570000Y230879D02*
X571500Y229379D01*
X569500Y282743D02*
X573000Y279243D01*
X570000Y186000D02*
Y228757D01*
Y186000D02*
X571000Y185000D01*
X587000D01*
X588000Y184000D01*
Y171000D02*
Y184000D01*
X571500Y192500D02*
Y229379D01*
Y192500D02*
X574000Y190000D01*
X580000D01*
X573000Y211000D02*
Y230000D01*
Y211000D02*
X574000Y210000D01*
X580000D01*
X575121Y230000D02*
X580000D01*
X566500Y281500D02*
Y286414D01*
X565914Y287000D02*
X566500Y286414D01*
X568000Y282121D02*
Y295414D01*
X569500Y282743D02*
Y304000D01*
X567414Y296000D02*
X568000Y295414D01*
X542000Y296000D02*
X567414D01*
X571000Y285000D02*
Y311000D01*
X569000Y313000D02*
X571000Y311000D01*
Y285000D02*
X572000Y284000D01*
X576000D01*
X568500Y305000D02*
X569500Y304000D01*
X542000Y305000D02*
X568500D01*
X542000Y313000D02*
X569000D01*
X576000Y284000D02*
X580000Y280000D01*
X573000Y300586D02*
X573586Y300000D01*
X573000Y300586D02*
Y314000D01*
X573586Y300000D02*
X619000D01*
X565000Y322000D02*
X573000Y314000D01*
X490000Y526000D02*
Y532000D01*
X492000Y534000D01*
X565000Y322000D02*
Y337000D01*
X567000Y324000D02*
X571000Y320000D01*
X567000Y324000D02*
Y338879D01*
X580000Y320000D02*
X580939Y320939D01*
X565500Y340379D02*
X567000Y338879D01*
X564000Y338000D02*
Y437000D01*
Y338000D02*
X565000Y337000D01*
X569000Y396000D02*
X575000Y390000D01*
X568414Y444000D02*
X569000Y443414D01*
X568000Y340000D02*
X580000D01*
X571000Y413000D02*
X574000Y410000D01*
X565500Y340379D02*
Y439414D01*
X573000Y430586D02*
Y447414D01*
X569000Y396000D02*
Y443414D01*
X573000Y430586D02*
X573586Y430000D01*
X571000Y413000D02*
Y445414D01*
X570414Y446000D02*
X571000Y445414D01*
X573586Y430000D02*
X580000D01*
X574000Y410000D02*
X580000D01*
X567000Y341000D02*
X568000Y340000D01*
X564914Y440000D02*
X565500Y439414D01*
X571000Y320000D02*
X580000D01*
X534586Y438000D02*
X563000D01*
X534000Y421000D02*
Y437414D01*
X534586Y438000D01*
X563000D02*
X564000Y437000D01*
X534000Y421000D02*
X537000Y418000D01*
X536414Y403000D02*
X537000Y403586D01*
X520000Y403000D02*
X536414D01*
X537000Y403586D02*
Y418000D01*
X532000Y412000D02*
Y439414D01*
X532586Y440000D02*
X564914D01*
X532000Y439414D02*
X532586Y440000D01*
X575000Y390000D02*
X580000D01*
X524000Y444000D02*
X568414D01*
X523000Y433000D02*
Y443000D01*
X524000Y444000D01*
X518000Y439000D02*
Y445414D01*
X518586Y446000D02*
X570414D01*
X518000Y445414D02*
X518586Y446000D01*
X572414Y448000D02*
X573000Y447414D01*
X511000Y445000D02*
X514000Y448000D01*
X572414D01*
X506000Y450000D02*
X580000D01*
X383150Y114000D02*
Y120000D01*
X374000D02*
X376850D01*
X371150D02*
X374000D01*
Y129000D01*
X371150Y114000D02*
X376850D01*
X629000Y285586D02*
Y305000D01*
X629586Y285000D02*
X637000D01*
X624000Y310000D02*
X629000Y305000D01*
Y285586D02*
X629586Y285000D01*
X580000Y310000D02*
X624000D01*
X580500Y289500D02*
X606500D01*
X580000Y290000D02*
X580500Y289500D01*
X606500D02*
X607000Y289000D01*
X604914Y280086D02*
X605000Y280000D01*
X604000D02*
X604086Y280086D01*
X604914D01*
X580000Y280000D02*
X604000D01*
X580000Y240000D02*
X603000D01*
X614000Y330000D02*
X634000D01*
X614000Y349000D02*
X635000D01*
X620914Y432000D02*
X636414D01*
X613000Y350000D02*
X614000Y349000D01*
X637000Y432586D02*
Y444000D01*
X614000Y400000D02*
X633000D01*
X669000Y350000D02*
X670000D01*
X656000Y355000D02*
X664000D01*
X669000Y350000D01*
X650000Y361000D02*
X656000Y355000D01*
X635000Y382000D02*
X650000Y367000D01*
Y361000D02*
Y367000D01*
X614000Y390000D02*
X634414D01*
X644121Y375000D02*
X663353D01*
X637000Y382121D02*
X644121Y375000D01*
X634414Y390000D02*
X635000Y389414D01*
Y382000D02*
Y389414D01*
X637000Y382121D02*
Y396000D01*
X663353Y375000D02*
X668353Y370000D01*
X670000D01*
X633000Y400000D02*
X637000Y396000D01*
X593000Y460000D02*
X642000D01*
X599000Y462000D02*
X643000D01*
X591000Y470000D02*
X599000Y462000D01*
X642000Y460000D02*
X655000Y447000D01*
X598000Y420000D02*
Y454000D01*
X606000Y467000D02*
X622000D01*
X636414Y432000D02*
X637000Y432586D01*
X603000Y430000D02*
Y447000D01*
X830000Y556000D02*
Y570000D01*
X664000Y308000D02*
X671265D01*
X671850Y307414D01*
X653000Y308000D02*
X664000D01*
X671850Y296000D02*
Y307414D01*
X651850Y306850D02*
X653000Y308000D01*
X651850Y296000D02*
Y306850D01*
X591000Y159586D02*
Y217000D01*
X588000Y220000D02*
X591000Y217000D01*
X580000Y220000D02*
X588000D01*
X603000Y171000D02*
X609000Y177000D01*
Y210000D01*
X652436Y179000D02*
X671265D01*
X671850Y166000D02*
Y178414D01*
X671265Y179000D02*
X671850Y178414D01*
X651850D02*
X652436Y179000D01*
X651850Y166000D02*
Y178414D01*
X671850Y426000D02*
Y426295D01*
X672925Y427370D01*
X673220D02*
X673916Y428066D01*
X673330Y440000D02*
X673916Y439414D01*
X672925Y427370D02*
X673220D01*
X652436Y440000D02*
X673330D01*
X673916Y428066D02*
Y439414D01*
X651850Y426000D02*
Y439414D01*
X652436Y440000D01*
X751850Y179414D02*
X752436Y180000D01*
X751850Y166000D02*
Y179414D01*
X771850Y166000D02*
Y179150D01*
X771000Y180000D02*
X771850Y179150D01*
X752436Y180000D02*
X771000D01*
X854000Y177000D02*
X871000D01*
X872000Y166150D02*
Y176000D01*
X871000Y177000D02*
X872000Y176000D01*
X851850Y166000D02*
Y174850D01*
X854000Y177000D01*
X670000Y568000D02*
X671850Y566150D01*
X653436Y568000D02*
X661000D01*
X670000D01*
X671850Y556000D02*
Y566150D01*
X651850Y566414D02*
X653436Y568000D01*
X752436Y569000D02*
X771265D01*
X771850Y568414D01*
Y556000D02*
Y568414D01*
X751850Y556000D02*
Y568414D01*
X752436Y569000D01*
X851850Y566649D02*
X852436Y567235D01*
X863235D01*
X851850Y556000D02*
Y566649D01*
X870265Y568000D02*
X871850Y566414D01*
X863235Y567235D02*
X864000Y568000D01*
X870265D01*
X871850Y556000D02*
Y566414D01*
X742000Y485000D02*
X765000D01*
X741414Y485586D02*
Y542414D01*
Y485586D02*
X742000Y485000D01*
X765000D02*
X770000Y480000D01*
X740828Y543000D02*
X741414Y542414D01*
X729000Y543000D02*
X740828D01*
X737000Y549000D02*
X737586Y549586D01*
Y551000D01*
X742914D01*
X743500Y506000D02*
Y550414D01*
X742914Y551000D02*
X743500Y550414D01*
X744500Y505000D02*
X764000D01*
X743500Y506000D02*
X744500Y505000D01*
X769000Y500000D02*
X770000D01*
X764000Y505000D02*
X769000Y500000D01*
X651850Y556000D02*
Y566414D01*
X658150Y166000D02*
X665000D01*
X679150D02*
X684000D01*
X678150Y165000D02*
X679150Y166000D01*
X759150D02*
X765000D01*
X871850D02*
X872000Y166150D01*
X859150Y166000D02*
X865000D01*
X851850Y296000D02*
Y306850D01*
X855000Y310000D01*
X870000Y306000D02*
X871850Y304150D01*
Y296000D02*
Y304150D01*
X770000Y307586D02*
X771850Y305735D01*
Y296000D02*
Y305735D01*
X770000Y307586D02*
Y330000D01*
X757000Y307000D02*
X769414D01*
X751850Y301850D02*
X757000Y307000D01*
X769414D02*
X770000Y307586D01*
X751850Y296000D02*
Y301850D01*
Y426000D02*
Y435850D01*
X756000Y440000D01*
X854724Y438724D02*
X870850D01*
X851850Y435850D02*
X854724Y438724D01*
X851850Y426000D02*
Y435850D01*
X870850Y438724D02*
X871850Y437724D01*
Y426000D02*
Y437724D01*
X870850Y438724D02*
Y459150D01*
X877150Y426000D02*
X886000D01*
X879150Y556000D02*
X886000D01*
X677150Y296000D02*
X686000D01*
X695000Y449000D02*
Y498000D01*
X655000Y447000D02*
X693000D01*
X695000Y449000D01*
X692414Y450000D02*
X693000Y450586D01*
Y474879D01*
X655000Y450000D02*
X692414D01*
X643000Y462000D02*
X655000Y450000D01*
X413500Y48500D02*
X417000Y52000D01*
X426000D02*
Y58000D01*
X421000Y47000D02*
X426000Y52000D01*
X121850Y94000D02*
X121850Y94000D01*
Y86000D02*
Y94000D01*
X128000Y66586D02*
Y73850D01*
X111000Y66000D02*
X127414D01*
X128000Y73850D02*
X128150Y74000D01*
X127414Y66000D02*
X128000Y66586D01*
X693000Y500000D02*
X695000Y498000D01*
X670000Y500000D02*
X693000D01*
X687879Y480000D02*
X693000Y474879D01*
X670000Y480000D02*
X687879D01*
X109850Y74000D02*
X110925Y72925D01*
Y66075D02*
Y72925D01*
Y66075D02*
X111000Y66000D01*
X109850Y80000D02*
Y86000D01*
Y74000D02*
Y80000D01*
X128150D02*
Y86000D01*
Y74000D02*
Y80000D01*
X116150Y86000D02*
X121850D01*
Y80000D02*
Y86000D01*
Y74000D02*
Y80000D01*
X116150D02*
Y86000D01*
Y74000D02*
Y80000D01*
X411414Y14000D02*
X412000Y14586D01*
Y22000D01*
X214800Y463300D02*
Y463500D01*
Y463300D02*
X215300Y462800D01*
X213000Y465300D02*
X214800Y463500D01*
X213000Y465300D02*
Y476850D01*
X158150Y426150D02*
X166000Y434000D01*
X158150Y410000D02*
Y426150D01*
X212000Y413000D02*
X215000Y410000D01*
X212000Y413000D02*
Y433000D01*
X495000Y323150D02*
Y333000D01*
X486000Y323650D02*
X486500Y323150D01*
X486000Y323650D02*
Y333000D01*
X478000Y323150D02*
Y333000D01*
X469000Y323650D02*
Y333000D01*
Y323650D02*
X469500Y323150D01*
X461000D02*
Y333000D01*
X452000Y323650D02*
X452500Y323150D01*
X452000Y323650D02*
Y333000D01*
X376000Y323150D02*
Y333000D01*
X384500Y323150D02*
X385000Y323650D01*
Y333000D01*
X393000Y323150D02*
Y333000D01*
X401000Y323650D02*
Y333000D01*
Y323650D02*
X401500Y323150D01*
X410000D02*
Y333000D01*
X418500Y323150D02*
X419000Y323650D01*
Y333000D01*
X427000Y323150D02*
Y333000D01*
X435500Y323150D02*
X436000Y323650D01*
Y333000D01*
X444000Y323150D02*
Y333000D01*
X466000Y223000D02*
X467000Y222000D01*
X255500Y476850D02*
X264000D01*
X228150Y410000D02*
X236000D01*
X239000Y413000D02*
Y427000D01*
X236000Y410000D02*
X239000Y413000D01*
Y427000D02*
X244000Y432000D01*
X215000Y410000D02*
X221850D01*
X151850D02*
Y420150D01*
X151000Y421000D02*
X151850Y420150D01*
X136000Y421000D02*
X151000D01*
X81850Y410000D02*
Y427150D01*
X83000Y395000D02*
Y396082D01*
X88150Y416150D02*
X101000Y429000D01*
X88150Y410000D02*
Y416150D01*
X79000Y430000D02*
X81850Y427150D01*
X68000Y430000D02*
X79000D01*
X323000Y483650D02*
Y493000D01*
X322500Y483150D02*
X323000Y483650D01*
X331000Y483150D02*
Y493000D01*
X339500Y483150D02*
X340000Y483650D01*
Y493000D01*
X348000Y483150D02*
Y493000D01*
X357000Y483650D02*
Y493000D01*
X356500Y483150D02*
X357000Y483650D01*
X373000D02*
Y493000D01*
Y483650D02*
X373500Y483150D01*
X365000D02*
Y493000D01*
X382000Y483150D02*
Y493000D01*
X60000Y483150D02*
Y493000D01*
X60000Y483150D02*
X60000Y483150D01*
X77000Y483150D02*
Y493000D01*
X86000Y483650D02*
Y493000D01*
X85500Y483150D02*
X86000Y483650D01*
X94000Y483150D02*
Y493000D01*
X111000Y483150D02*
Y493000D01*
X128000Y483150D02*
Y493000D01*
X145000Y483150D02*
Y493000D01*
X162000Y483150D02*
Y493000D01*
X213000Y483150D02*
Y493000D01*
X230000Y483150D02*
Y493000D01*
X238500Y483150D02*
Y492500D01*
X247000Y483150D02*
Y493000D01*
X264000Y483150D02*
Y493000D01*
X373500Y476850D02*
X382000D01*
X365000D02*
X373500D01*
X356500D02*
X365000D01*
X348000D02*
X356500D01*
X339500D02*
X348000D01*
X331000D02*
X339500D01*
X322500D02*
X331000D01*
X247000D02*
X255500D01*
X238500D02*
X247000D01*
X230000D02*
X238500D01*
X221500D02*
X230000D01*
X213000D02*
X221500D01*
X204500D02*
X213000D01*
X179000D02*
X187500D01*
X170500D02*
X179000D01*
X162000D02*
X170500D01*
X153500D02*
X162000D01*
X145000D02*
X153500D01*
X136500D02*
X145000D01*
X128000D02*
X136500D01*
X119500D02*
X128000D01*
X111000D02*
X119500D01*
X102500D02*
X111000D01*
X94000D02*
X102500D01*
X85500D02*
X94000D01*
X77000D02*
X85500D01*
X68500D02*
X77000D01*
X60000D02*
X68500D01*
X50150D02*
X60000D01*
X50000Y477000D02*
X50150Y476850D01*
X33000Y92000D02*
Y98850D01*
Y105150D02*
Y109000D01*
X31000Y111000D02*
X33000Y109000D01*
X420000Y580000D02*
X421000D01*
X430000Y579000D02*
Y580000D01*
X657150Y296000D02*
X665000D01*
X777000Y296150D02*
Y304000D01*
Y296150D02*
X777150Y296000D01*
X759150D02*
X765000D01*
X879150D02*
X887000D01*
X857150D02*
X864000D01*
X870000Y310000D02*
Y330000D01*
Y306000D02*
Y310000D01*
X855000D02*
X870000D01*
X859150Y426000D02*
X865000D01*
X870000Y460000D02*
X870850Y459150D01*
X778000Y426299D02*
Y434000D01*
Y426299D02*
X778299Y426000D01*
X759150D02*
X765000D01*
X756000Y440000D02*
X770000D01*
X772000Y426000D02*
Y438000D01*
X770000Y440000D02*
Y460000D01*
Y440000D02*
X772000Y438000D01*
X677150Y426000D02*
X685000D01*
X657150D02*
X664000D01*
X677150Y556000D02*
X687000D01*
X657150D02*
X664000D01*
X777150D02*
X786000D01*
X757150D02*
X764000D01*
X857150D02*
X864000D01*
D20*
X651850D02*
D03*
X658150D02*
D03*
X871850Y426000D02*
D03*
X878150D02*
D03*
Y556000D02*
D03*
X871850D02*
D03*
X678150D02*
D03*
X671850D02*
D03*
X858150Y166000D02*
D03*
X851850D02*
D03*
X758150Y426000D02*
D03*
X751850D02*
D03*
X758150Y296000D02*
D03*
X751850D02*
D03*
X858150D02*
D03*
X851850D02*
D03*
X858150Y556000D02*
D03*
X851850D02*
D03*
X878150Y166000D02*
D03*
X871850D02*
D03*
X658150Y426000D02*
D03*
X651850D02*
D03*
X778150Y296000D02*
D03*
X771850D02*
D03*
X878150D02*
D03*
X871850D02*
D03*
X758150Y556000D02*
D03*
X751850D02*
D03*
X758150Y166000D02*
D03*
X751850D02*
D03*
X778150Y426000D02*
D03*
X771850D02*
D03*
X678150Y166000D02*
D03*
X671850D02*
D03*
X778150D02*
D03*
X771850D02*
D03*
X678150Y426000D02*
D03*
X671850D02*
D03*
X658150Y166000D02*
D03*
X651850D02*
D03*
X678150Y296000D02*
D03*
X671850D02*
D03*
X778150Y556000D02*
D03*
X771850D02*
D03*
X858150Y426000D02*
D03*
X851850D02*
D03*
X658150Y296000D02*
D03*
X651850D02*
D03*
X364850Y114000D02*
D03*
X371150D02*
D03*
X88150Y410000D02*
D03*
X81850D02*
D03*
X121850Y80000D02*
D03*
X128150D02*
D03*
X121850Y86000D02*
D03*
X128150D02*
D03*
X364850Y120000D02*
D03*
X371150D02*
D03*
X116150Y86000D02*
D03*
X109850D02*
D03*
X121850Y74000D02*
D03*
X128150D02*
D03*
X116150D02*
D03*
X109850D02*
D03*
X158150Y410000D02*
D03*
X151850D02*
D03*
X116150Y80000D02*
D03*
X109850D02*
D03*
X383150Y114000D02*
D03*
X376850D02*
D03*
X228150Y410000D02*
D03*
X221850D02*
D03*
X383150Y120000D02*
D03*
X376850D02*
D03*
X351150Y410000D02*
D03*
X344850D02*
D03*
D21*
X66000Y28150D02*
D03*
Y21850D02*
D03*
X59000Y28150D02*
D03*
Y21850D02*
D03*
X73000Y28150D02*
D03*
Y21850D02*
D03*
X223500Y245150D02*
D03*
Y238850D02*
D03*
X399000Y476850D02*
D03*
Y483150D02*
D03*
X390500Y476850D02*
D03*
Y483150D02*
D03*
X131000Y148150D02*
D03*
Y141850D02*
D03*
X90000Y148150D02*
D03*
Y141850D02*
D03*
X106000Y148150D02*
D03*
Y141850D02*
D03*
X115000Y148150D02*
D03*
Y141850D02*
D03*
X140000Y148150D02*
D03*
Y141850D02*
D03*
X129000Y234850D02*
D03*
Y241150D02*
D03*
X288500Y476850D02*
D03*
Y483150D02*
D03*
X297000Y476850D02*
D03*
Y483150D02*
D03*
X314000Y476850D02*
D03*
Y483150D02*
D03*
X384500Y316850D02*
D03*
Y323150D02*
D03*
X410000Y316850D02*
D03*
Y323150D02*
D03*
X401500Y316850D02*
D03*
Y323150D02*
D03*
X393000Y316850D02*
D03*
Y323150D02*
D03*
X376000Y316850D02*
D03*
Y323150D02*
D03*
X435500Y316850D02*
D03*
Y323150D02*
D03*
X444000Y316850D02*
D03*
Y323150D02*
D03*
X452500Y316850D02*
D03*
Y323150D02*
D03*
X461000Y316850D02*
D03*
Y323150D02*
D03*
X469500Y316850D02*
D03*
Y323150D02*
D03*
X486500Y316850D02*
D03*
Y323150D02*
D03*
X478000Y316850D02*
D03*
Y323150D02*
D03*
X495000Y316850D02*
D03*
Y323150D02*
D03*
X418500Y316850D02*
D03*
Y323150D02*
D03*
X427000Y316850D02*
D03*
Y323150D02*
D03*
X297000Y452850D02*
D03*
Y459150D02*
D03*
X331000Y483150D02*
D03*
Y476850D02*
D03*
X60000Y483150D02*
D03*
Y476850D02*
D03*
X280000Y483150D02*
D03*
Y476850D02*
D03*
X314000Y459150D02*
D03*
Y452850D02*
D03*
X382000Y483150D02*
D03*
Y476850D02*
D03*
X348000Y483150D02*
D03*
Y476850D02*
D03*
X305500Y483150D02*
D03*
Y476850D02*
D03*
Y459150D02*
D03*
Y452850D02*
D03*
X288500Y459150D02*
D03*
Y452850D02*
D03*
X77000Y483150D02*
D03*
Y476850D02*
D03*
X68500Y483150D02*
D03*
Y476850D02*
D03*
X94000Y483150D02*
D03*
Y476850D02*
D03*
X85500Y483150D02*
D03*
Y476850D02*
D03*
X373500Y483150D02*
D03*
Y476850D02*
D03*
X280000Y459150D02*
D03*
Y452850D02*
D03*
X356500Y483150D02*
D03*
Y476850D02*
D03*
X365000Y483150D02*
D03*
Y476850D02*
D03*
X339500Y483150D02*
D03*
Y476850D02*
D03*
X322500Y483150D02*
D03*
Y476850D02*
D03*
X145000Y483150D02*
D03*
Y476850D02*
D03*
X153500Y483150D02*
D03*
Y476850D02*
D03*
X136500Y483150D02*
D03*
Y476850D02*
D03*
X204500Y483150D02*
D03*
Y476850D02*
D03*
X238500Y483150D02*
D03*
Y476850D02*
D03*
X111000Y483150D02*
D03*
Y476850D02*
D03*
X119500Y483150D02*
D03*
Y476850D02*
D03*
X187500Y483150D02*
D03*
Y476850D02*
D03*
X179000Y483150D02*
D03*
Y476850D02*
D03*
X255500Y483150D02*
D03*
Y476850D02*
D03*
X162000Y483150D02*
D03*
Y476850D02*
D03*
X102500Y483150D02*
D03*
Y476850D02*
D03*
X247000Y483150D02*
D03*
Y476850D02*
D03*
X213000Y483150D02*
D03*
Y476850D02*
D03*
X170500Y483150D02*
D03*
Y476850D02*
D03*
X128000Y483150D02*
D03*
Y476850D02*
D03*
X230000Y483150D02*
D03*
Y476850D02*
D03*
X221500Y483150D02*
D03*
Y476850D02*
D03*
X264000Y483150D02*
D03*
Y476850D02*
D03*
X33000Y105150D02*
D03*
Y98850D02*
D03*
D31*
X199677Y52000D02*
D03*
Y57000D02*
D03*
Y62000D02*
D03*
Y67000D02*
D03*
Y72000D02*
D03*
Y77000D02*
D03*
Y82000D02*
D03*
X178323D02*
D03*
Y77000D02*
D03*
Y72000D02*
D03*
Y67000D02*
D03*
Y62000D02*
D03*
Y57000D02*
D03*
Y52000D02*
D03*
D78*
X433000Y189000D02*
D03*
X582000Y569000D02*
D03*
X568000D02*
D03*
X555000D02*
D03*
X541000D02*
D03*
X158000Y110000D02*
D03*
X318000Y146000D02*
D03*
X265000Y130000D02*
D03*
X236000Y75000D02*
D03*
X600000Y82000D02*
D03*
X587000D02*
D03*
X250000Y75000D02*
D03*
Y55000D02*
D03*
X236000D02*
D03*
X44000Y23000D02*
D03*
X225000Y19000D02*
D03*
X254000D02*
D03*
X211000D02*
D03*
X267000D02*
D03*
X280000D02*
D03*
X240000D02*
D03*
X422000Y32000D02*
D03*
X519000Y581000D02*
D03*
X40000Y228000D02*
D03*
X580000Y550000D02*
D03*
X410000Y526000D02*
D03*
X553000Y80000D02*
D03*
X290000Y526000D02*
D03*
X140000D02*
D03*
X260000D02*
D03*
X40000Y208000D02*
D03*
X15000D02*
D03*
Y228000D02*
D03*
X354000Y306000D02*
D03*
Y328000D02*
D03*
X159000Y168000D02*
D03*
X81000D02*
D03*
X133000D02*
D03*
X94000D02*
D03*
X146000D02*
D03*
X120000D02*
D03*
X107000D02*
D03*
X568000Y550000D02*
D03*
X556000D02*
D03*
X544000D02*
D03*
X520000D02*
D03*
X532000D02*
D03*
D79*
X130000Y580000D02*
D03*
Y570000D02*
D03*
X120000Y580000D02*
D03*
Y570000D02*
D03*
X110000Y580000D02*
D03*
Y570000D02*
D03*
X100000Y580000D02*
D03*
Y570000D02*
D03*
X90000Y580000D02*
D03*
Y570000D02*
D03*
X80000Y580000D02*
D03*
Y570000D02*
D03*
X70000Y580000D02*
D03*
Y570000D02*
D03*
X60000Y580000D02*
D03*
X250000D02*
D03*
Y570000D02*
D03*
X240000Y580000D02*
D03*
Y570000D02*
D03*
X230000Y580000D02*
D03*
Y570000D02*
D03*
X220000Y580000D02*
D03*
Y570000D02*
D03*
X210000Y580000D02*
D03*
Y570000D02*
D03*
X200000Y580000D02*
D03*
Y570000D02*
D03*
X190000Y580000D02*
D03*
Y570000D02*
D03*
X180000Y580000D02*
D03*
X370000D02*
D03*
Y570000D02*
D03*
X360000Y580000D02*
D03*
Y570000D02*
D03*
X350000Y580000D02*
D03*
Y570000D02*
D03*
X340000Y580000D02*
D03*
Y570000D02*
D03*
X330000Y580000D02*
D03*
Y570000D02*
D03*
X320000Y580000D02*
D03*
Y570000D02*
D03*
X310000Y580000D02*
D03*
Y570000D02*
D03*
X300000Y580000D02*
D03*
X490000D02*
D03*
Y570000D02*
D03*
X480000Y580000D02*
D03*
Y570000D02*
D03*
X470000Y580000D02*
D03*
Y570000D02*
D03*
X460000Y580000D02*
D03*
Y570000D02*
D03*
X450000Y580000D02*
D03*
Y570000D02*
D03*
X440000Y580000D02*
D03*
Y570000D02*
D03*
X430000Y580000D02*
D03*
Y570000D02*
D03*
X420000Y580000D02*
D03*
X660000Y530000D02*
D03*
X670000D02*
D03*
X660000Y520000D02*
D03*
X670000D02*
D03*
X660000Y510000D02*
D03*
X670000D02*
D03*
X660000Y500000D02*
D03*
X670000D02*
D03*
X660000Y490000D02*
D03*
X670000D02*
D03*
X660000Y480000D02*
D03*
X670000D02*
D03*
X660000Y470000D02*
D03*
X670000D02*
D03*
X660000Y460000D02*
D03*
Y400000D02*
D03*
X670000D02*
D03*
X660000Y390000D02*
D03*
X670000D02*
D03*
X660000Y380000D02*
D03*
X670000D02*
D03*
X660000Y370000D02*
D03*
X670000D02*
D03*
X660000Y360000D02*
D03*
X670000D02*
D03*
X660000Y350000D02*
D03*
X670000D02*
D03*
X660000Y340000D02*
D03*
X670000D02*
D03*
X660000Y330000D02*
D03*
Y270000D02*
D03*
X670000D02*
D03*
X660000Y260000D02*
D03*
X670000D02*
D03*
X660000Y250000D02*
D03*
X670000D02*
D03*
X660000Y240000D02*
D03*
X670000D02*
D03*
X660000Y230000D02*
D03*
X670000D02*
D03*
X660000Y220000D02*
D03*
X670000D02*
D03*
X660000Y210000D02*
D03*
X670000D02*
D03*
X660000Y200000D02*
D03*
Y140000D02*
D03*
X670000D02*
D03*
X660000Y130000D02*
D03*
X670000D02*
D03*
X660000Y120000D02*
D03*
X670000D02*
D03*
X660000Y110000D02*
D03*
X670000D02*
D03*
X660000Y100000D02*
D03*
X670000D02*
D03*
X660000Y90000D02*
D03*
X670000D02*
D03*
X660000Y80000D02*
D03*
X670000D02*
D03*
X660000Y70000D02*
D03*
X760000Y530000D02*
D03*
X770000D02*
D03*
X760000Y520000D02*
D03*
X770000D02*
D03*
X760000Y510000D02*
D03*
X770000D02*
D03*
X760000Y500000D02*
D03*
X770000D02*
D03*
X760000Y490000D02*
D03*
X770000D02*
D03*
X760000Y480000D02*
D03*
X770000D02*
D03*
X760000Y470000D02*
D03*
X770000D02*
D03*
X760000Y460000D02*
D03*
X760000Y400000D02*
D03*
X770000D02*
D03*
X760000Y390000D02*
D03*
X770000D02*
D03*
X760000Y380000D02*
D03*
X770000D02*
D03*
X760000Y370000D02*
D03*
X770000D02*
D03*
X760000Y360000D02*
D03*
X770000D02*
D03*
X760000Y350000D02*
D03*
X770000D02*
D03*
X760000Y340000D02*
D03*
X770000D02*
D03*
X760000Y330000D02*
D03*
Y270000D02*
D03*
X770000D02*
D03*
X760000Y260000D02*
D03*
X770000D02*
D03*
X760000Y250000D02*
D03*
X770000D02*
D03*
X760000Y240000D02*
D03*
X770000D02*
D03*
X760000Y230000D02*
D03*
X770000D02*
D03*
X760000Y220000D02*
D03*
X770000D02*
D03*
X760000Y210000D02*
D03*
X770000D02*
D03*
X760000Y200000D02*
D03*
Y140000D02*
D03*
X770000D02*
D03*
X760000Y130000D02*
D03*
X770000D02*
D03*
X760000Y120000D02*
D03*
X770000D02*
D03*
X760000Y110000D02*
D03*
X770000D02*
D03*
X760000Y100000D02*
D03*
X770000D02*
D03*
X760000Y90000D02*
D03*
X770000D02*
D03*
X760000Y80000D02*
D03*
X770000D02*
D03*
X760000Y70000D02*
D03*
X860000Y530000D02*
D03*
X870000D02*
D03*
X860000Y520000D02*
D03*
X870000D02*
D03*
X860000Y510000D02*
D03*
X870000D02*
D03*
X860000Y500000D02*
D03*
X870000D02*
D03*
X860000Y490000D02*
D03*
X870000D02*
D03*
X860000Y480000D02*
D03*
X870000D02*
D03*
X860000Y470000D02*
D03*
X870000D02*
D03*
X860000Y460000D02*
D03*
Y400000D02*
D03*
X870000D02*
D03*
X860000Y390000D02*
D03*
X870000D02*
D03*
X860000Y380000D02*
D03*
X870000D02*
D03*
X860000Y370000D02*
D03*
X870000D02*
D03*
X860000Y360000D02*
D03*
X870000D02*
D03*
X860000Y350000D02*
D03*
X870000D02*
D03*
X860000Y340000D02*
D03*
X870000D02*
D03*
X860000Y330000D02*
D03*
Y270000D02*
D03*
X870000D02*
D03*
X860000Y260000D02*
D03*
X870000D02*
D03*
X860000Y250000D02*
D03*
X870000D02*
D03*
X860000Y240000D02*
D03*
X870000D02*
D03*
X860000Y230000D02*
D03*
X870000D02*
D03*
X860000Y220000D02*
D03*
X870000D02*
D03*
X860000Y210000D02*
D03*
X870000D02*
D03*
X860000Y200000D02*
D03*
Y140000D02*
D03*
X870000D02*
D03*
X860000Y130000D02*
D03*
X870000D02*
D03*
X860000Y120000D02*
D03*
X870000D02*
D03*
X860000Y110000D02*
D03*
X870000D02*
D03*
X860000Y100000D02*
D03*
X870000D02*
D03*
X860000Y90000D02*
D03*
X870000D02*
D03*
X860000Y80000D02*
D03*
X870000D02*
D03*
X860000Y70000D02*
D03*
X543000Y43500D02*
D03*
Y33500D02*
D03*
X533000Y43500D02*
D03*
Y33500D02*
D03*
X523000Y43500D02*
D03*
Y33500D02*
D03*
X513000Y43500D02*
D03*
Y33500D02*
D03*
X503000Y43500D02*
D03*
Y33500D02*
D03*
X493000Y43500D02*
D03*
Y33500D02*
D03*
X483000Y43500D02*
D03*
Y33500D02*
D03*
X473000Y43500D02*
D03*
X20000Y271000D02*
D03*
Y286000D02*
D03*
D80*
X60000Y570000D02*
D03*
X180000D02*
D03*
X300000D02*
D03*
X420000D02*
D03*
X473000Y33500D02*
D03*
D81*
X670000Y460000D02*
D03*
Y330000D02*
D03*
Y200000D02*
D03*
Y70000D02*
D03*
X770000Y460000D02*
D03*
X770000Y330000D02*
D03*
Y200000D02*
D03*
Y70000D02*
D03*
X870000Y460000D02*
D03*
Y330000D02*
D03*
Y200000D02*
D03*
Y70000D02*
D03*
X20000Y256000D02*
D03*
D82*
X141000Y364000D02*
D03*
X131000D02*
D03*
X57000Y100000D02*
D03*
Y110000D02*
D03*
X471000Y452000D02*
D03*
X481000D02*
D03*
X587000Y530000D02*
D03*
X577000D02*
D03*
X514000Y245000D02*
D03*
X524000D02*
D03*
X32000Y123000D02*
D03*
X42000D02*
D03*
X57000Y70000D02*
D03*
Y60000D02*
D03*
X265000Y63000D02*
D03*
Y73000D02*
D03*
D83*
X121000Y364000D02*
D03*
X491000Y452000D02*
D03*
X597000Y530000D02*
D03*
X534000Y245000D02*
D03*
X22000Y123000D02*
D03*
D84*
X57000Y90000D02*
D03*
Y50000D02*
D03*
X265000Y53000D02*
D03*
D85*
X382000Y22000D02*
D03*
X422000D02*
D03*
X412000D02*
D03*
X382000Y32000D02*
D03*
X392000Y22000D02*
D03*
Y32000D02*
D03*
X402000Y22000D02*
D03*
Y32000D02*
D03*
X412000D02*
D03*
X519000Y571000D02*
D03*
X280000Y294000D02*
D03*
Y334000D02*
D03*
Y374000D02*
D03*
Y324000D02*
D03*
Y364000D02*
D03*
Y314000D02*
D03*
Y354000D02*
D03*
Y304000D02*
D03*
Y344000D02*
D03*
X79000Y270000D02*
D03*
Y320000D02*
D03*
Y280000D02*
D03*
Y330000D02*
D03*
Y290000D02*
D03*
Y340000D02*
D03*
Y300000D02*
D03*
Y350000D02*
D03*
Y310000D02*
D03*
X295000Y344000D02*
D03*
Y304000D02*
D03*
Y354000D02*
D03*
Y314000D02*
D03*
Y364000D02*
D03*
Y324000D02*
D03*
Y374000D02*
D03*
Y334000D02*
D03*
Y294000D02*
D03*
X450000Y526000D02*
D03*
X490000D02*
D03*
X440000D02*
D03*
X480000D02*
D03*
X430000D02*
D03*
X470000D02*
D03*
X420000D02*
D03*
X460000D02*
D03*
X500000D02*
D03*
X315000Y344000D02*
D03*
Y304000D02*
D03*
Y354000D02*
D03*
Y314000D02*
D03*
Y364000D02*
D03*
Y324000D02*
D03*
Y374000D02*
D03*
Y334000D02*
D03*
Y294000D02*
D03*
X580000Y420000D02*
D03*
Y460000D02*
D03*
Y410000D02*
D03*
Y450000D02*
D03*
Y400000D02*
D03*
Y440000D02*
D03*
Y390000D02*
D03*
Y430000D02*
D03*
Y470000D02*
D03*
X513000Y80000D02*
D03*
X473000D02*
D03*
X523000D02*
D03*
X483000D02*
D03*
X533000D02*
D03*
X493000D02*
D03*
X543000D02*
D03*
X503000D02*
D03*
X463000D02*
D03*
X330000Y526000D02*
D03*
X370000D02*
D03*
X320000D02*
D03*
X360000D02*
D03*
X310000D02*
D03*
X350000D02*
D03*
X300000D02*
D03*
X340000D02*
D03*
X380000D02*
D03*
X580000Y310000D02*
D03*
Y350000D02*
D03*
Y300000D02*
D03*
Y340000D02*
D03*
Y290000D02*
D03*
Y330000D02*
D03*
Y280000D02*
D03*
Y320000D02*
D03*
Y360000D02*
D03*
X100000Y526000D02*
D03*
X60000D02*
D03*
X110000D02*
D03*
X70000D02*
D03*
X120000D02*
D03*
X80000D02*
D03*
X130000D02*
D03*
X90000D02*
D03*
X50000D02*
D03*
X580000Y200000D02*
D03*
Y240000D02*
D03*
Y190000D02*
D03*
Y230000D02*
D03*
Y180000D02*
D03*
Y220000D02*
D03*
Y170000D02*
D03*
Y210000D02*
D03*
Y250000D02*
D03*
X220000Y526000D02*
D03*
X180000D02*
D03*
X230000D02*
D03*
X190000D02*
D03*
X240000D02*
D03*
X200000D02*
D03*
X250000D02*
D03*
X210000D02*
D03*
X170000D02*
D03*
D86*
X280000Y384000D02*
D03*
X431000Y421000D02*
D03*
X79000Y360000D02*
D03*
X431000Y438000D02*
D03*
X295000Y384000D02*
D03*
X315000D02*
D03*
X580000Y380000D02*
D03*
Y270000D02*
D03*
Y160000D02*
D03*
X431000Y387000D02*
D03*
Y404000D02*
D03*
Y370000D02*
D03*
D87*
X880000Y20000D02*
D03*
X20000Y580000D02*
D03*
Y20000D02*
D03*
X880000Y580000D02*
D03*
D88*
X62000Y233000D02*
D03*
X493000Y464000D02*
D03*
X496000Y495000D02*
D03*
X509000Y494000D02*
D03*
X495000Y486000D02*
D03*
X510000Y487000D02*
D03*
X494000Y476000D02*
D03*
X510000Y479000D02*
D03*
X576000Y112000D02*
D03*
Y123000D02*
D03*
X563000Y166000D02*
D03*
X549000D02*
D03*
X562000Y150000D02*
D03*
X548000Y157000D02*
D03*
X414000Y94000D02*
D03*
X548000Y284000D02*
D03*
X541000Y320000D02*
D03*
Y329000D02*
D03*
X420000Y109000D02*
D03*
X463000Y91914D02*
D03*
X345000Y339000D02*
D03*
X326000Y309000D02*
D03*
X261000Y286000D02*
D03*
X264000Y384000D02*
D03*
X257000Y355000D02*
D03*
Y113000D02*
D03*
Y123000D02*
D03*
X231000Y115000D02*
D03*
Y123000D02*
D03*
X386000Y511000D02*
D03*
X146000Y192000D02*
D03*
X157000Y188000D02*
D03*
X289000Y263000D02*
D03*
X288000Y299000D02*
D03*
X298000Y286000D02*
D03*
X313000Y280000D02*
D03*
X317000Y258000D02*
D03*
X285000Y269000D02*
D03*
X317000Y251000D02*
D03*
X226291Y294500D02*
D03*
X446000Y486000D02*
D03*
Y464000D02*
D03*
X433000Y463000D02*
D03*
X459000Y437000D02*
D03*
X467000Y478000D02*
D03*
X322000Y408720D02*
D03*
X455000Y465000D02*
D03*
X460000Y471000D02*
D03*
X439000D02*
D03*
X455000Y483000D02*
D03*
X438000Y486000D02*
D03*
X334000Y433000D02*
D03*
X321000Y418957D02*
D03*
X403000Y74000D02*
D03*
X395000Y70000D02*
D03*
X431000Y104000D02*
D03*
X445000Y124000D02*
D03*
X439000Y116000D02*
D03*
X424000Y76000D02*
D03*
X430000Y82000D02*
D03*
X394000Y107000D02*
D03*
X295000Y154000D02*
D03*
X303000Y268000D02*
D03*
X319000Y242500D02*
D03*
X324000Y222000D02*
D03*
X341000Y243000D02*
D03*
X323000Y232000D02*
D03*
X302000Y260000D02*
D03*
X315000Y265000D02*
D03*
X308000Y402000D02*
D03*
X294000Y227000D02*
D03*
X450000Y517000D02*
D03*
X499000Y247000D02*
D03*
X212000Y293000D02*
D03*
X219000Y295000D02*
D03*
X202000Y294000D02*
D03*
X158000D02*
D03*
X202000Y303000D02*
D03*
X177000Y306000D02*
D03*
X201000Y311000D02*
D03*
X213000Y308000D02*
D03*
X153000Y329000D02*
D03*
X155000Y319000D02*
D03*
X100500Y289000D02*
D03*
X118000Y378000D02*
D03*
X112000Y291000D02*
D03*
X171000Y310000D02*
D03*
X143000Y350000D02*
D03*
X101000Y347000D02*
D03*
X112000Y219000D02*
D03*
X175000Y94000D02*
D03*
X295000Y72000D02*
D03*
X314000D02*
D03*
X381398Y259398D02*
D03*
X591000Y144000D02*
D03*
X505000Y193000D02*
D03*
X447000Y190000D02*
D03*
X414000Y212000D02*
D03*
X406000Y58000D02*
D03*
X417182Y57818D02*
D03*
X389000Y95000D02*
D03*
X485000Y517000D02*
D03*
X477000Y472000D02*
D03*
X833000Y250000D02*
D03*
X834000Y120000D02*
D03*
X828000Y100000D02*
D03*
X823000Y191000D02*
D03*
X827000Y229000D02*
D03*
X831000Y360000D02*
D03*
X585000Y518500D02*
D03*
X563000Y524000D02*
D03*
X702000Y360000D02*
D03*
Y490000D02*
D03*
X231000Y309000D02*
D03*
X167000Y299000D02*
D03*
X177000Y319000D02*
D03*
X314000Y204000D02*
D03*
X331000Y227000D02*
D03*
X329000Y216000D02*
D03*
X318000Y190000D02*
D03*
X327000Y189000D02*
D03*
X335000Y191000D02*
D03*
X341000Y186000D02*
D03*
X349000D02*
D03*
X394000Y156000D02*
D03*
X145000Y372000D02*
D03*
X66000Y50000D02*
D03*
X73000Y62000D02*
D03*
X98000Y46000D02*
D03*
X233000Y42000D02*
D03*
X354000Y73000D02*
D03*
X296000Y63000D02*
D03*
X356000Y60000D02*
D03*
X333000Y32000D02*
D03*
X339000Y54000D02*
D03*
X319000Y38000D02*
D03*
X334000Y60000D02*
D03*
X350000Y54000D02*
D03*
X367000Y98000D02*
D03*
X119000Y13000D02*
D03*
X105000D02*
D03*
X139000Y12000D02*
D03*
X22000Y43000D02*
D03*
Y79000D02*
D03*
X43000Y80000D02*
D03*
X66000Y39000D02*
D03*
X72000Y75000D02*
D03*
X79000D02*
D03*
X372000Y15000D02*
D03*
X42000Y42000D02*
D03*
X280000Y493000D02*
D03*
Y468000D02*
D03*
X280061Y444000D02*
D03*
X231000Y349000D02*
D03*
Y363000D02*
D03*
X326000Y272500D02*
D03*
X563000Y122000D02*
D03*
X291000Y15000D02*
D03*
Y32000D02*
D03*
X529000Y198000D02*
D03*
X523000Y191000D02*
D03*
X76000Y112000D02*
D03*
X256000Y181000D02*
D03*
X273000Y189000D02*
D03*
Y182000D02*
D03*
X257000Y363000D02*
D03*
X253000Y216000D02*
D03*
X355000Y134000D02*
D03*
X392000Y131000D02*
D03*
X384000Y129000D02*
D03*
X279000Y244900D02*
D03*
X292000Y242000D02*
D03*
X268954Y269854D02*
D03*
X292000Y234000D02*
D03*
X278000D02*
D03*
X284000Y256000D02*
D03*
X204500Y493000D02*
D03*
X441000Y76000D02*
D03*
X226000Y110000D02*
D03*
X298000Y94000D02*
D03*
X308525Y79525D02*
D03*
X310000Y102000D02*
D03*
X309000Y117000D02*
D03*
X316000Y107000D02*
D03*
X330000Y114000D02*
D03*
X324000Y119000D02*
D03*
X322000Y129000D02*
D03*
X316000Y96000D02*
D03*
X323000Y92000D02*
D03*
X322000Y85000D02*
D03*
X332000Y89000D02*
D03*
X334000Y81000D02*
D03*
Y145000D02*
D03*
X333000Y123000D02*
D03*
X328000Y135000D02*
D03*
X271000Y93000D02*
D03*
X358000Y109000D02*
D03*
X271000Y112500D02*
D03*
X273000Y224000D02*
D03*
X196000Y274000D02*
D03*
X154000Y126000D02*
D03*
X335000Y458000D02*
D03*
X358000D02*
D03*
X391000Y493000D02*
D03*
X383500Y413500D02*
D03*
X336000Y327000D02*
D03*
X324000Y286000D02*
D03*
X328000Y299000D02*
D03*
X514000Y273000D02*
D03*
X501000Y285000D02*
D03*
X493000D02*
D03*
X510000Y259000D02*
D03*
X538000Y263000D02*
D03*
X526000Y273000D02*
D03*
X524000Y285000D02*
D03*
X516000D02*
D03*
X519500Y260000D02*
D03*
X529000Y262000D02*
D03*
X543000Y270000D02*
D03*
X509000Y285000D02*
D03*
X409680Y297893D02*
D03*
X553000Y192000D02*
D03*
X559000Y198000D02*
D03*
X558000Y220000D02*
D03*
X559000Y212000D02*
D03*
Y205000D02*
D03*
X563000Y180000D02*
D03*
X490000Y383000D02*
D03*
X639000Y519000D02*
D03*
X522000Y522000D02*
D03*
X841000Y92000D02*
D03*
X839000Y380000D02*
D03*
X857000Y284000D02*
D03*
X836000Y182000D02*
D03*
X825000Y515000D02*
D03*
X829000Y438000D02*
D03*
X682000Y330000D02*
D03*
X683000Y390000D02*
D03*
X675000Y413000D02*
D03*
X790000Y154000D02*
D03*
X786000Y273000D02*
D03*
X795000Y115000D02*
D03*
X800000Y105000D02*
D03*
X805000Y95000D02*
D03*
X812000Y85000D02*
D03*
X817000Y53000D02*
D03*
X823000Y62000D02*
D03*
X838000Y154000D02*
D03*
X737436Y156000D02*
D03*
X786000Y148000D02*
D03*
X879000Y175000D02*
D03*
X778000Y174000D02*
D03*
X736850Y181650D02*
D03*
X779000Y345000D02*
D03*
X780000Y201000D02*
D03*
Y215000D02*
D03*
X795000Y245000D02*
D03*
X800000Y235000D02*
D03*
X805000Y225000D02*
D03*
X812000Y215000D02*
D03*
X817000Y205000D02*
D03*
X823000Y322000D02*
D03*
X825000Y459000D02*
D03*
X737000Y412000D02*
D03*
X766000Y409000D02*
D03*
X805000Y355000D02*
D03*
X800000Y365000D02*
D03*
X790000Y286000D02*
D03*
X795000Y375000D02*
D03*
X817000Y316000D02*
D03*
Y471000D02*
D03*
X853000Y406000D02*
D03*
X841000Y471000D02*
D03*
X850000Y480000D02*
D03*
X812000Y345000D02*
D03*
Y481000D02*
D03*
X805000Y485000D02*
D03*
X800000Y495000D02*
D03*
X795000Y505000D02*
D03*
X790000Y390000D02*
D03*
Y528000D02*
D03*
X786000Y410000D02*
D03*
Y538000D02*
D03*
X844000Y53000D02*
D03*
X750000Y54000D02*
D03*
X781000Y475000D02*
D03*
X779000Y528000D02*
D03*
X770000Y543000D02*
D03*
X736000Y520000D02*
D03*
X749000Y531000D02*
D03*
X686000Y472000D02*
D03*
X688000Y205000D02*
D03*
X165000Y372000D02*
D03*
X68000Y267000D02*
D03*
X61000Y242000D02*
D03*
X178000Y366000D02*
D03*
X184000Y372000D02*
D03*
X188000Y366000D02*
D03*
X235000Y385000D02*
D03*
X250000D02*
D03*
X242000D02*
D03*
X228000D02*
D03*
X221000D02*
D03*
X207000D02*
D03*
X214000D02*
D03*
X240000Y263000D02*
D03*
X208000Y327000D02*
D03*
X200000Y385000D02*
D03*
X133000Y430000D02*
D03*
X117000Y413000D02*
D03*
Y420000D02*
D03*
X111000Y429000D02*
D03*
X187500Y493000D02*
D03*
X155000Y398000D02*
D03*
X68500Y493000D02*
D03*
X273000Y175000D02*
D03*
Y196000D02*
D03*
Y203000D02*
D03*
Y210000D02*
D03*
X240000Y207500D02*
D03*
X269000Y162000D02*
D03*
X252000Y191000D02*
D03*
X248000Y211000D02*
D03*
X273000Y217000D02*
D03*
X222464Y236536D02*
D03*
X229964Y244036D02*
D03*
X213000Y200000D02*
D03*
X223000Y198000D02*
D03*
X232000Y197000D02*
D03*
X240000Y196000D02*
D03*
X215000Y248000D02*
D03*
Y257000D02*
D03*
X217000Y265000D02*
D03*
X180000Y204000D02*
D03*
X256000Y174000D02*
D03*
X269000Y148000D02*
D03*
X255000Y139000D02*
D03*
X259000Y150000D02*
D03*
X264000Y156000D02*
D03*
Y142000D02*
D03*
X264500Y240000D02*
D03*
X256000Y166000D02*
D03*
X269000Y250000D02*
D03*
X263000Y255000D02*
D03*
X269000Y260000D02*
D03*
X263000Y264900D02*
D03*
X192000Y245000D02*
D03*
Y235000D02*
D03*
X184000Y239900D02*
D03*
Y250000D02*
D03*
X192000Y255000D02*
D03*
X184000Y260000D02*
D03*
X192000Y265000D02*
D03*
X184000Y270000D02*
D03*
X231000Y131000D02*
D03*
X225000Y119000D02*
D03*
X67000Y175000D02*
D03*
X231000Y139000D02*
D03*
X225000Y143000D02*
D03*
Y175000D02*
D03*
X159000Y249000D02*
D03*
X155000Y243000D02*
D03*
X163000Y255000D02*
D03*
X164000Y216000D02*
D03*
X159000Y210000D02*
D03*
X151000Y237107D02*
D03*
X154000Y204000D02*
D03*
X150000Y198000D02*
D03*
X166000Y187000D02*
D03*
X78000Y184000D02*
D03*
X89000Y206000D02*
D03*
X92000Y184000D02*
D03*
X86000Y221664D02*
D03*
X78000Y226000D02*
D03*
X82500Y232500D02*
D03*
X82000Y242000D02*
D03*
X225000Y127000D02*
D03*
X124000Y155000D02*
D03*
X225000Y135000D02*
D03*
Y159000D02*
D03*
X231000Y171000D02*
D03*
Y147000D02*
D03*
X225000Y151000D02*
D03*
X231000Y155000D02*
D03*
Y163000D02*
D03*
X225000Y167000D02*
D03*
X222000Y327000D02*
D03*
X215000D02*
D03*
X250000D02*
D03*
X236000D02*
D03*
X243000D02*
D03*
X201000D02*
D03*
X229000D02*
D03*
X111000Y263000D02*
D03*
X129000Y258000D02*
D03*
X106000Y269000D02*
D03*
X113000Y204000D02*
D03*
X79000Y85000D02*
D03*
X72000Y91000D02*
D03*
X234000Y250000D02*
D03*
X235000Y257000D02*
D03*
X64000Y214000D02*
D03*
X58000Y204000D02*
D03*
X43379Y395500D02*
D03*
X85000Y184000D02*
D03*
X55000Y217000D02*
D03*
X51000Y225000D02*
D03*
X45414Y221000D02*
D03*
X36000Y238000D02*
D03*
X106000Y131000D02*
D03*
X115000D02*
D03*
X140000Y134000D02*
D03*
X226000Y267000D02*
D03*
X31000Y312000D02*
D03*
X50000Y390000D02*
D03*
X29000Y383000D02*
D03*
X181000Y398000D02*
D03*
X187000Y404000D02*
D03*
X180000Y409000D02*
D03*
X186000Y414000D02*
D03*
X124000Y401000D02*
D03*
Y409000D02*
D03*
X36000Y402000D02*
D03*
X30000Y408000D02*
D03*
X27000Y416000D02*
D03*
X26000Y426000D02*
D03*
Y436000D02*
D03*
X102500Y493000D02*
D03*
X26000Y445957D02*
D03*
X155000Y529000D02*
D03*
X165000Y536000D02*
D03*
X168000Y505000D02*
D03*
X138000Y515000D02*
D03*
X145000Y512000D02*
D03*
X153000Y517000D02*
D03*
Y589000D02*
D03*
X158000Y543000D02*
D03*
X244000Y257000D02*
D03*
X405000Y154000D02*
D03*
X505000Y137000D02*
D03*
Y144000D02*
D03*
Y151000D02*
D03*
Y158000D02*
D03*
Y165000D02*
D03*
Y172000D02*
D03*
Y179000D02*
D03*
Y186000D02*
D03*
X740000Y62000D02*
D03*
X744000Y127000D02*
D03*
X682000D02*
D03*
X694000Y111000D02*
D03*
X716000Y144000D02*
D03*
Y154000D02*
D03*
X637000Y156000D02*
D03*
X780000Y85000D02*
D03*
X861000Y316000D02*
D03*
X762000D02*
D03*
X732000Y418000D02*
D03*
X825000Y546586D02*
D03*
X135000Y117000D02*
D03*
X59000Y135000D02*
D03*
X342000Y318000D02*
D03*
X349000Y365000D02*
D03*
X389000Y382000D02*
D03*
X367000Y313000D02*
D03*
Y365000D02*
D03*
X337000Y388000D02*
D03*
X330000Y354000D02*
D03*
X314000Y468000D02*
D03*
X305500D02*
D03*
X297000D02*
D03*
X289000D02*
D03*
X305000Y493000D02*
D03*
X314000D02*
D03*
X297000D02*
D03*
X288000D02*
D03*
X400000Y381000D02*
D03*
X91322Y130764D02*
D03*
X428000Y478000D02*
D03*
X399000Y493000D02*
D03*
X287000Y118000D02*
D03*
X376000Y205360D02*
D03*
X394000Y183000D02*
D03*
X323000Y465000D02*
D03*
X330000Y344000D02*
D03*
X346000Y294000D02*
D03*
X519000Y221000D02*
D03*
X523000Y229000D02*
D03*
X304000Y409000D02*
D03*
X387500Y180000D02*
D03*
X383000Y186000D02*
D03*
X562000Y533000D02*
D03*
X359000Y388000D02*
D03*
X374000Y377000D02*
D03*
X413000Y151500D02*
D03*
X376000Y186000D02*
D03*
X131000Y130000D02*
D03*
X153000Y139000D02*
D03*
X372000Y430000D02*
D03*
X348000Y395000D02*
D03*
X361000Y430000D02*
D03*
X383000Y212000D02*
D03*
X388000Y218000D02*
D03*
X394000Y211000D02*
D03*
X421000Y147000D02*
D03*
X405000Y206000D02*
D03*
X555000Y287000D02*
D03*
X542000Y296000D02*
D03*
Y305000D02*
D03*
Y313000D02*
D03*
X520000Y403000D02*
D03*
X532000Y412000D02*
D03*
X528000Y426000D02*
D03*
X523000Y433000D02*
D03*
X518000Y439000D02*
D03*
X511000Y445000D02*
D03*
X506000Y450000D02*
D03*
X500000Y415000D02*
D03*
X333000Y256000D02*
D03*
X389765Y265765D02*
D03*
X353273Y261484D02*
D03*
X352000Y272000D02*
D03*
X383000Y277000D02*
D03*
X421000Y137000D02*
D03*
X374000Y129000D02*
D03*
X179000Y493000D02*
D03*
X158000Y364000D02*
D03*
X140000Y325000D02*
D03*
X143000Y315000D02*
D03*
X355000Y209000D02*
D03*
X351000Y285000D02*
D03*
X384000Y229000D02*
D03*
X382000Y238000D02*
D03*
X377000Y272000D02*
D03*
X383000Y287000D02*
D03*
X374000Y293000D02*
D03*
X619000Y300000D02*
D03*
X637000Y285000D02*
D03*
X607000Y289000D02*
D03*
X605000Y280000D02*
D03*
X603000Y240000D02*
D03*
X634000Y330000D02*
D03*
X614000D02*
D03*
X635000Y349000D02*
D03*
X620914Y432000D02*
D03*
X613000Y350000D02*
D03*
X637000Y444000D02*
D03*
X614000Y400000D02*
D03*
Y390000D02*
D03*
X593000Y460000D02*
D03*
X591000Y470000D02*
D03*
X598000Y454000D02*
D03*
X606000Y467000D02*
D03*
X622000D02*
D03*
X603000Y447000D02*
D03*
Y430000D02*
D03*
X598000Y420000D02*
D03*
X830000Y570000D02*
D03*
Y556000D02*
D03*
X664000Y308000D02*
D03*
X724000Y302000D02*
D03*
X603000Y171000D02*
D03*
X609000Y210000D02*
D03*
X663000Y179000D02*
D03*
X662000Y440000D02*
D03*
X764000Y180000D02*
D03*
X737000Y284000D02*
D03*
X863000Y177000D02*
D03*
X837000Y414000D02*
D03*
X661000Y568000D02*
D03*
X764000Y569000D02*
D03*
X864000Y568000D02*
D03*
X729000Y543000D02*
D03*
X737000Y549000D02*
D03*
X630000Y556000D02*
D03*
X684000Y166000D02*
D03*
X765000D02*
D03*
X865000D02*
D03*
X664000Y426000D02*
D03*
X765000D02*
D03*
X886000D02*
D03*
Y556000D02*
D03*
X686000Y296000D02*
D03*
X665000Y166000D02*
D03*
X426000Y58000D02*
D03*
X385000Y70000D02*
D03*
X131000Y94000D02*
D03*
X71000Y149000D02*
D03*
X114000Y94000D02*
D03*
X111000Y66000D02*
D03*
X613000Y20000D02*
D03*
X578500Y18500D02*
D03*
X215300Y462800D02*
D03*
X175000Y444000D02*
D03*
X166000Y434000D02*
D03*
X212000Y433000D02*
D03*
X495000Y333000D02*
D03*
X486000D02*
D03*
X478000D02*
D03*
X469000D02*
D03*
X461000D02*
D03*
X452000D02*
D03*
X376000D02*
D03*
X385000D02*
D03*
X393000D02*
D03*
X401000D02*
D03*
X410000D02*
D03*
X419000D02*
D03*
X427000D02*
D03*
X436000D02*
D03*
X444000D02*
D03*
X466000Y223000D02*
D03*
X479000Y222000D02*
D03*
X463987Y213000D02*
D03*
X224000Y395000D02*
D03*
X254000Y430000D02*
D03*
X244000Y432000D02*
D03*
X83000Y395000D02*
D03*
X101000Y429000D02*
D03*
X68000Y430000D02*
D03*
X323000Y493000D02*
D03*
X331000D02*
D03*
X340000D02*
D03*
X348000D02*
D03*
X357000D02*
D03*
X373000D02*
D03*
X365000D02*
D03*
X382000D02*
D03*
X60000D02*
D03*
X77000D02*
D03*
X85500D02*
D03*
X94000D02*
D03*
X111000D02*
D03*
X119500D02*
D03*
X128000D02*
D03*
X136500D02*
D03*
X145000D02*
D03*
X153500D02*
D03*
X162000D02*
D03*
X170500D02*
D03*
X213000D02*
D03*
X221500D02*
D03*
X230000D02*
D03*
X238500Y492500D02*
D03*
X247000Y493000D02*
D03*
X255500D02*
D03*
X264000D02*
D03*
X50000Y477000D02*
D03*
X545000Y492000D02*
D03*
X16000Y388000D02*
D03*
X33000Y92000D02*
D03*
X31000Y111000D02*
D03*
X31874Y348000D02*
D03*
X665000Y296000D02*
D03*
X777000Y304000D02*
D03*
X765000Y296000D02*
D03*
X887000D02*
D03*
X864000D02*
D03*
X865000Y426000D02*
D03*
X778000Y434000D02*
D03*
X685000Y426000D02*
D03*
X687000Y556000D02*
D03*
X664000D02*
D03*
X786000D02*
D03*
X764000D02*
D03*
X864000D02*
D03*
D101*
X105433Y20323D02*
D03*
Y22882D02*
D03*
Y25441D02*
D03*
Y28000D02*
D03*
Y30559D02*
D03*
Y33118D02*
D03*
Y35677D02*
D03*
X128567D02*
D03*
Y33118D02*
D03*
Y30559D02*
D03*
Y28000D02*
D03*
Y25441D02*
D03*
Y22882D02*
D03*
Y20323D02*
D03*
M02*
