G04*
G04 #@! TF.GenerationSoftware,Altium Limited,Altium Designer,22.3.1 (43)*
G04*
G04 Layer_Color=255*
%FSLAX25Y25*%
%MOIN*%
G70*
G04*
G04 #@! TF.SameCoordinates,A87CA661-C890-46F0-A320-74F5598AF3CC*
G04*
G04*
G04 #@! TF.FilePolarity,Positive*
G04*
G01*
G75*
%ADD20R,0.03150X0.03740*%
%ADD21R,0.03740X0.03150*%
%ADD22R,0.07087X0.07874*%
%ADD23R,0.05807X0.02362*%
%ADD24R,0.02362X0.05807*%
%ADD25R,0.05807X0.03000*%
%ADD26R,0.03000X0.05807*%
%ADD27R,0.07284X0.02756*%
%ADD28R,0.02362X0.07284*%
%ADD29R,0.07284X0.02362*%
%ADD30R,0.03150X0.03150*%
%ADD31R,0.06004X0.02559*%
%ADD32R,0.02362X0.09449*%
%ADD33O,0.08441X0.02756*%
%ADD34O,0.02756X0.08441*%
%ADD35R,0.03740X0.08268*%
%ADD36R,0.21654X0.25591*%
%ADD37R,0.07087X0.01772*%
%ADD38R,0.03937X0.10827*%
%ADD39R,0.04724X0.09843*%
%ADD40R,0.07087X0.06299*%
%ADD41R,0.12000X0.06000*%
%ADD42R,0.03150X0.03150*%
%ADD78R,0.05906X0.05906*%
%ADD79C,0.07087*%
%ADD80R,0.07087X0.07087*%
%ADD81R,0.07087X0.07087*%
%ADD82C,0.05906*%
%ADD83R,0.05906X0.05906*%
%ADD84R,0.05906X0.05906*%
%ADD85C,0.05906*%
%ADD86R,0.05906X0.05906*%
%ADD87C,0.20000*%
D20*
X318850Y53000D02*
D03*
X325150D02*
D03*
X318850Y46000D02*
D03*
X325150D02*
D03*
X318850Y60000D02*
D03*
X325150D02*
D03*
X736850Y166000D02*
D03*
X743150D02*
D03*
X836850Y562000D02*
D03*
X843150D02*
D03*
X836850Y432000D02*
D03*
X843150D02*
D03*
X836850Y296000D02*
D03*
X843150D02*
D03*
X636850Y166000D02*
D03*
X643150D02*
D03*
X836850D02*
D03*
X843150D02*
D03*
X836850Y302000D02*
D03*
X843150D02*
D03*
X636850Y172000D02*
D03*
X643150D02*
D03*
X736850D02*
D03*
X743150D02*
D03*
X836850D02*
D03*
X843150D02*
D03*
X164150Y94000D02*
D03*
X157850D02*
D03*
X428150Y242000D02*
D03*
X421850D02*
D03*
X428150Y230000D02*
D03*
X421850D02*
D03*
X428150Y224000D02*
D03*
X421850D02*
D03*
X428150Y218000D02*
D03*
X421850D02*
D03*
X428150Y212000D02*
D03*
X421850D02*
D03*
X428150Y206000D02*
D03*
X421850D02*
D03*
X428150Y200000D02*
D03*
X421850D02*
D03*
X643150Y556000D02*
D03*
X636850D02*
D03*
X643150Y296000D02*
D03*
X636850D02*
D03*
X743150Y426000D02*
D03*
X736850D02*
D03*
X743150Y296000D02*
D03*
X736850D02*
D03*
X743150Y556000D02*
D03*
X736850D02*
D03*
X843150Y426000D02*
D03*
X836850D02*
D03*
X643150D02*
D03*
X636850D02*
D03*
X843150Y556000D02*
D03*
X836850D02*
D03*
X513150Y216000D02*
D03*
X506850D02*
D03*
X428150Y236000D02*
D03*
X421850D02*
D03*
X513150Y228000D02*
D03*
X506850D02*
D03*
X513150Y234000D02*
D03*
X506850D02*
D03*
X513150Y222000D02*
D03*
X506850D02*
D03*
X743150Y563000D02*
D03*
X736850D02*
D03*
X743150Y302000D02*
D03*
X736850D02*
D03*
X743150Y432000D02*
D03*
X736850D02*
D03*
X643150D02*
D03*
X636850D02*
D03*
X643150Y562000D02*
D03*
X636850D02*
D03*
X643150Y303000D02*
D03*
X636850D02*
D03*
X20850Y323000D02*
D03*
X27150D02*
D03*
X594150Y18500D02*
D03*
X587850D02*
D03*
D21*
X344000Y38150D02*
D03*
Y31850D02*
D03*
X356000Y38150D02*
D03*
Y31850D02*
D03*
X350000Y38150D02*
D03*
Y31850D02*
D03*
X9000Y46850D02*
D03*
Y53150D02*
D03*
Y70150D02*
D03*
Y63850D02*
D03*
X151000Y348850D02*
D03*
Y355150D02*
D03*
X420000Y479150D02*
D03*
Y472850D02*
D03*
X412000Y479150D02*
D03*
Y472850D02*
D03*
X422000Y51150D02*
D03*
Y44850D02*
D03*
X470000Y508150D02*
D03*
Y501850D02*
D03*
X460000Y508150D02*
D03*
Y501850D02*
D03*
X450000Y508150D02*
D03*
Y501850D02*
D03*
X440000Y508150D02*
D03*
Y501850D02*
D03*
X430000Y508150D02*
D03*
Y501850D02*
D03*
X420000Y508150D02*
D03*
Y501850D02*
D03*
X9500Y131850D02*
D03*
Y138150D02*
D03*
X23000Y370850D02*
D03*
Y377150D02*
D03*
X533000Y93850D02*
D03*
Y100150D02*
D03*
X457000Y248850D02*
D03*
Y255150D02*
D03*
X481000D02*
D03*
Y248850D02*
D03*
X493000Y93850D02*
D03*
Y100150D02*
D03*
X513000Y93850D02*
D03*
Y100150D02*
D03*
X543000Y93850D02*
D03*
Y100150D02*
D03*
X463000Y248850D02*
D03*
Y255150D02*
D03*
X460000Y192150D02*
D03*
Y185850D02*
D03*
X473000Y93850D02*
D03*
Y100150D02*
D03*
X487000Y255150D02*
D03*
Y248850D02*
D03*
X483000Y93850D02*
D03*
Y100150D02*
D03*
X503000Y93850D02*
D03*
Y100150D02*
D03*
X475000Y255150D02*
D03*
Y248850D02*
D03*
X523000Y93850D02*
D03*
Y100150D02*
D03*
X412000Y44850D02*
D03*
Y51150D02*
D03*
X380000Y44850D02*
D03*
Y51150D02*
D03*
X428500D02*
D03*
Y44850D02*
D03*
X400000D02*
D03*
Y51150D02*
D03*
X8500Y93850D02*
D03*
Y100150D02*
D03*
X158000Y355150D02*
D03*
Y348850D02*
D03*
X469000Y248850D02*
D03*
Y255150D02*
D03*
X165000Y355150D02*
D03*
Y348850D02*
D03*
X71000Y119850D02*
D03*
Y126150D02*
D03*
X374000Y51150D02*
D03*
Y44850D02*
D03*
X16000Y370701D02*
D03*
Y377000D02*
D03*
X394000Y51150D02*
D03*
Y44850D02*
D03*
X106000Y115850D02*
D03*
Y122150D02*
D03*
X71000Y141150D02*
D03*
Y134850D02*
D03*
X115000Y115850D02*
D03*
Y122150D02*
D03*
X90000Y115850D02*
D03*
Y122150D02*
D03*
X140000Y121850D02*
D03*
Y128150D02*
D03*
X123000Y125850D02*
D03*
Y132150D02*
D03*
D22*
X22000Y53732D02*
D03*
X32000D02*
D03*
X42000D02*
D03*
Y70268D02*
D03*
X32000D02*
D03*
X22000D02*
D03*
D23*
X129764Y331524D02*
D03*
Y328374D02*
D03*
Y325224D02*
D03*
Y322075D02*
D03*
Y318925D02*
D03*
Y315776D02*
D03*
Y312626D02*
D03*
Y309476D02*
D03*
X163134D02*
D03*
Y312626D02*
D03*
Y315776D02*
D03*
Y318925D02*
D03*
Y322075D02*
D03*
Y325224D02*
D03*
Y328374D02*
D03*
Y331524D02*
D03*
X477815Y424524D02*
D03*
Y421374D02*
D03*
Y418224D02*
D03*
Y415075D02*
D03*
Y411925D02*
D03*
Y408776D02*
D03*
Y405626D02*
D03*
Y402476D02*
D03*
X511185D02*
D03*
Y405626D02*
D03*
Y408776D02*
D03*
Y411925D02*
D03*
Y415075D02*
D03*
Y418224D02*
D03*
Y421374D02*
D03*
Y424524D02*
D03*
X528315Y511024D02*
D03*
Y507874D02*
D03*
Y504724D02*
D03*
Y501575D02*
D03*
Y498425D02*
D03*
Y495276D02*
D03*
Y492126D02*
D03*
Y488976D02*
D03*
X561685D02*
D03*
Y492126D02*
D03*
Y495276D02*
D03*
Y498425D02*
D03*
Y501575D02*
D03*
Y504724D02*
D03*
Y507874D02*
D03*
Y511024D02*
D03*
X454591Y229709D02*
D03*
Y226559D02*
D03*
Y223409D02*
D03*
Y220260D02*
D03*
Y217110D02*
D03*
Y213961D02*
D03*
Y210811D02*
D03*
Y207661D02*
D03*
X487961D02*
D03*
Y210811D02*
D03*
Y213961D02*
D03*
Y217110D02*
D03*
Y220260D02*
D03*
Y223409D02*
D03*
Y226559D02*
D03*
Y229709D02*
D03*
D24*
X135425Y303815D02*
D03*
X138575D02*
D03*
X141724D02*
D03*
X144874D02*
D03*
X148024D02*
D03*
X151173D02*
D03*
X154323D02*
D03*
X157472D02*
D03*
Y337185D02*
D03*
X154323D02*
D03*
X151173D02*
D03*
X148024D02*
D03*
X144874D02*
D03*
X141724D02*
D03*
X138575D02*
D03*
X135425D02*
D03*
X483476Y396815D02*
D03*
X486626D02*
D03*
X489776D02*
D03*
X492925D02*
D03*
X496075D02*
D03*
X499224D02*
D03*
X502374D02*
D03*
X505524D02*
D03*
Y430185D02*
D03*
X502374D02*
D03*
X499224D02*
D03*
X496075D02*
D03*
X492925D02*
D03*
X489776D02*
D03*
X486626D02*
D03*
X483476D02*
D03*
X556024Y516685D02*
D03*
X552874D02*
D03*
X549724D02*
D03*
X546575D02*
D03*
X543425D02*
D03*
X540276D02*
D03*
X537126D02*
D03*
X533976D02*
D03*
Y483315D02*
D03*
X537126D02*
D03*
X540276D02*
D03*
X543425D02*
D03*
X546575D02*
D03*
X549724D02*
D03*
X552874D02*
D03*
X556024D02*
D03*
X460252Y202000D02*
D03*
X463402D02*
D03*
X466551D02*
D03*
X469701D02*
D03*
X472850D02*
D03*
X476000D02*
D03*
X479150D02*
D03*
X482299D02*
D03*
Y235370D02*
D03*
X479150D02*
D03*
X476000D02*
D03*
X472850D02*
D03*
X469701D02*
D03*
X466551D02*
D03*
X463402D02*
D03*
X460252D02*
D03*
D25*
X252500Y239900D02*
D03*
Y244900D02*
D03*
Y234900D02*
D03*
X207500Y269900D02*
D03*
Y264900D02*
D03*
Y259900D02*
D03*
Y254900D02*
D03*
Y249900D02*
D03*
Y244900D02*
D03*
Y239900D02*
D03*
Y234900D02*
D03*
Y229900D02*
D03*
X252500Y249900D02*
D03*
Y254900D02*
D03*
Y259900D02*
D03*
Y264900D02*
D03*
Y269900D02*
D03*
Y229900D02*
D03*
D26*
X240000Y222500D02*
D03*
X235000D02*
D03*
X230000D02*
D03*
X245000D02*
D03*
X230000Y277000D02*
D03*
X225000D02*
D03*
X220000D02*
D03*
X215000D02*
D03*
Y222500D02*
D03*
X220000D02*
D03*
X225000D02*
D03*
X245000Y277000D02*
D03*
X240000D02*
D03*
X235000D02*
D03*
D27*
X141171Y207500D02*
D03*
Y212500D02*
D03*
Y217500D02*
D03*
Y222500D02*
D03*
Y227500D02*
D03*
Y232500D02*
D03*
Y237500D02*
D03*
Y242500D02*
D03*
Y247500D02*
D03*
Y252500D02*
D03*
Y257500D02*
D03*
Y262500D02*
D03*
Y267500D02*
D03*
Y272500D02*
D03*
X97667D02*
D03*
Y267500D02*
D03*
Y262500D02*
D03*
Y257500D02*
D03*
Y252500D02*
D03*
Y247500D02*
D03*
Y242500D02*
D03*
Y237500D02*
D03*
Y232500D02*
D03*
Y227500D02*
D03*
Y222500D02*
D03*
Y217500D02*
D03*
Y212500D02*
D03*
Y207500D02*
D03*
D28*
X104252Y105213D02*
D03*
X107402D02*
D03*
X110551D02*
D03*
X113701D02*
D03*
X116850D02*
D03*
X120000D02*
D03*
X123150D02*
D03*
X126299D02*
D03*
X129449D02*
D03*
X132598D02*
D03*
X135748D02*
D03*
Y56787D02*
D03*
X132598D02*
D03*
X129449D02*
D03*
X126299D02*
D03*
X123150D02*
D03*
X120000D02*
D03*
X116850D02*
D03*
X113701D02*
D03*
X110551D02*
D03*
X107402D02*
D03*
X104252D02*
D03*
D29*
X144213Y96748D02*
D03*
Y93598D02*
D03*
Y90449D02*
D03*
Y87299D02*
D03*
Y84150D02*
D03*
Y81000D02*
D03*
Y77850D02*
D03*
Y74701D02*
D03*
Y71551D02*
D03*
Y68402D02*
D03*
Y65252D02*
D03*
X95787D02*
D03*
Y68402D02*
D03*
Y71551D02*
D03*
Y74701D02*
D03*
Y77850D02*
D03*
Y81000D02*
D03*
Y84150D02*
D03*
Y87299D02*
D03*
Y90449D02*
D03*
Y93598D02*
D03*
Y96748D02*
D03*
D30*
X68500Y483150D02*
D03*
Y476850D02*
D03*
X102500D02*
D03*
Y483150D02*
D03*
X390500D02*
D03*
Y476850D02*
D03*
X187500Y483150D02*
D03*
Y476850D02*
D03*
X376000Y323150D02*
D03*
Y316850D02*
D03*
X136500Y476850D02*
D03*
Y483150D02*
D03*
X119500Y476850D02*
D03*
Y483150D02*
D03*
X145000Y476850D02*
D03*
Y483150D02*
D03*
X111000Y476850D02*
D03*
Y483150D02*
D03*
X153500Y476850D02*
D03*
Y483150D02*
D03*
X162000Y476850D02*
D03*
Y483150D02*
D03*
X128000Y476850D02*
D03*
Y483150D02*
D03*
X170500Y476850D02*
D03*
Y483150D02*
D03*
X179000Y476850D02*
D03*
Y483150D02*
D03*
X495000Y316850D02*
D03*
Y323150D02*
D03*
X297000Y476850D02*
D03*
Y483150D02*
D03*
X339500Y476850D02*
D03*
Y483150D02*
D03*
X280000Y476850D02*
D03*
Y483150D02*
D03*
X314000Y476850D02*
D03*
Y483150D02*
D03*
X382000Y476850D02*
D03*
Y483150D02*
D03*
X322500Y476850D02*
D03*
Y483150D02*
D03*
X486500Y316850D02*
D03*
Y323150D02*
D03*
X478000Y316850D02*
D03*
Y323150D02*
D03*
X331000Y476850D02*
D03*
Y483150D02*
D03*
X373500Y476850D02*
D03*
Y483150D02*
D03*
X356500Y476850D02*
D03*
Y483150D02*
D03*
X365000Y476850D02*
D03*
Y483150D02*
D03*
X305500Y476850D02*
D03*
Y483150D02*
D03*
X288500Y476850D02*
D03*
Y483150D02*
D03*
X399000Y476850D02*
D03*
Y483150D02*
D03*
X348000Y476850D02*
D03*
Y483150D02*
D03*
X204500Y476850D02*
D03*
Y483150D02*
D03*
X238500Y476850D02*
D03*
Y483150D02*
D03*
X393000Y316850D02*
D03*
Y323150D02*
D03*
X401500D02*
D03*
Y316850D02*
D03*
X384500D02*
D03*
Y323150D02*
D03*
X230000Y476850D02*
D03*
Y483150D02*
D03*
X213000Y476850D02*
D03*
Y483150D02*
D03*
X427000Y316850D02*
D03*
Y323150D02*
D03*
X221500Y476850D02*
D03*
Y483150D02*
D03*
X418500Y316850D02*
D03*
Y323150D02*
D03*
X410000Y316850D02*
D03*
Y323150D02*
D03*
X60000Y476700D02*
D03*
Y483000D02*
D03*
X264000Y476850D02*
D03*
Y483150D02*
D03*
X94000Y476850D02*
D03*
Y483150D02*
D03*
X85500Y476850D02*
D03*
Y483150D02*
D03*
X77000Y476850D02*
D03*
Y483150D02*
D03*
X444000Y316850D02*
D03*
Y323150D02*
D03*
X469500Y316850D02*
D03*
Y323150D02*
D03*
X461000Y316850D02*
D03*
Y323150D02*
D03*
X452500Y316850D02*
D03*
Y323150D02*
D03*
X435500Y316850D02*
D03*
Y323150D02*
D03*
X255500Y476850D02*
D03*
Y483150D02*
D03*
X247000Y476850D02*
D03*
Y483150D02*
D03*
D31*
X278323Y117000D02*
D03*
X299677Y147000D02*
D03*
X278323D02*
D03*
Y142000D02*
D03*
Y137000D02*
D03*
Y132000D02*
D03*
Y127000D02*
D03*
Y122000D02*
D03*
X299677Y117000D02*
D03*
Y122000D02*
D03*
Y127000D02*
D03*
Y132000D02*
D03*
Y137000D02*
D03*
Y142000D02*
D03*
D32*
X621000Y34600D02*
D03*
Y52500D02*
D03*
D33*
X404720Y104000D02*
D03*
X343280Y134000D02*
D03*
X404720Y129000D02*
D03*
X343280Y109000D02*
D03*
X404720Y89000D02*
D03*
Y94000D02*
D03*
Y99000D02*
D03*
Y109000D02*
D03*
Y114000D02*
D03*
Y119000D02*
D03*
Y124000D02*
D03*
Y134000D02*
D03*
Y139000D02*
D03*
X343280D02*
D03*
Y129000D02*
D03*
Y124000D02*
D03*
Y119000D02*
D03*
Y114000D02*
D03*
Y104000D02*
D03*
Y99000D02*
D03*
Y94000D02*
D03*
Y89000D02*
D03*
D34*
X379000Y144720D02*
D03*
X359000Y83280D02*
D03*
X384000D02*
D03*
X374000Y144720D02*
D03*
Y83280D02*
D03*
X379000D02*
D03*
X389000D02*
D03*
X394000D02*
D03*
X399000D02*
D03*
Y144720D02*
D03*
X394000D02*
D03*
X389000D02*
D03*
X384000D02*
D03*
X369000D02*
D03*
X364000D02*
D03*
X359000D02*
D03*
X354000D02*
D03*
X349000D02*
D03*
Y83280D02*
D03*
X354000D02*
D03*
X364000D02*
D03*
X369000D02*
D03*
D35*
X584024Y27768D02*
D03*
X601976D02*
D03*
D36*
X593000Y52571D02*
D03*
D37*
X361976Y418957D02*
D03*
X334024Y398484D02*
D03*
Y421516D02*
D03*
X361976D02*
D03*
Y416398D02*
D03*
Y413839D02*
D03*
Y411280D02*
D03*
Y408720D02*
D03*
Y406161D02*
D03*
Y403602D02*
D03*
Y401043D02*
D03*
Y398484D02*
D03*
X334024Y401043D02*
D03*
Y403602D02*
D03*
Y406161D02*
D03*
Y408720D02*
D03*
Y411280D02*
D03*
Y413839D02*
D03*
Y416398D02*
D03*
Y418957D02*
D03*
X241476D02*
D03*
X213524Y398484D02*
D03*
Y421516D02*
D03*
X241476D02*
D03*
Y416398D02*
D03*
Y413839D02*
D03*
Y411280D02*
D03*
Y408720D02*
D03*
Y406161D02*
D03*
Y403602D02*
D03*
Y401043D02*
D03*
Y398484D02*
D03*
X213524Y401043D02*
D03*
Y403602D02*
D03*
Y406161D02*
D03*
Y408720D02*
D03*
Y411280D02*
D03*
Y413839D02*
D03*
Y416398D02*
D03*
Y418957D02*
D03*
X341024Y231957D02*
D03*
Y229398D02*
D03*
Y226839D02*
D03*
Y224280D02*
D03*
Y221720D02*
D03*
Y219161D02*
D03*
Y216602D02*
D03*
Y214043D02*
D03*
X368976Y211484D02*
D03*
Y214043D02*
D03*
Y216602D02*
D03*
Y219161D02*
D03*
Y221720D02*
D03*
Y224280D02*
D03*
Y226839D02*
D03*
Y229398D02*
D03*
Y234516D02*
D03*
X341024D02*
D03*
Y211484D02*
D03*
X368976Y231957D02*
D03*
X71024Y418957D02*
D03*
Y416398D02*
D03*
Y413839D02*
D03*
Y411280D02*
D03*
Y408720D02*
D03*
Y406161D02*
D03*
Y403602D02*
D03*
Y401043D02*
D03*
X98976Y398484D02*
D03*
Y401043D02*
D03*
Y403602D02*
D03*
Y406161D02*
D03*
Y408720D02*
D03*
Y411280D02*
D03*
Y413839D02*
D03*
Y416398D02*
D03*
Y421516D02*
D03*
X71024D02*
D03*
Y398484D02*
D03*
X98976Y418957D02*
D03*
X341024Y281957D02*
D03*
Y279398D02*
D03*
Y276839D02*
D03*
Y274280D02*
D03*
Y271720D02*
D03*
Y269161D02*
D03*
Y266602D02*
D03*
Y264043D02*
D03*
X368976Y261484D02*
D03*
Y264043D02*
D03*
Y266602D02*
D03*
Y269161D02*
D03*
Y271720D02*
D03*
Y274280D02*
D03*
Y276839D02*
D03*
Y279398D02*
D03*
Y284516D02*
D03*
X341024D02*
D03*
Y261484D02*
D03*
X368976Y281957D02*
D03*
X141024Y418957D02*
D03*
Y416398D02*
D03*
Y413839D02*
D03*
Y411280D02*
D03*
Y408720D02*
D03*
Y406161D02*
D03*
Y403602D02*
D03*
Y401043D02*
D03*
X168976Y398484D02*
D03*
Y401043D02*
D03*
Y403602D02*
D03*
Y406161D02*
D03*
Y408720D02*
D03*
Y411280D02*
D03*
Y413839D02*
D03*
Y416398D02*
D03*
Y421516D02*
D03*
X141024D02*
D03*
Y398484D02*
D03*
X168976Y418957D02*
D03*
D38*
X31874Y336681D02*
D03*
Y359319D02*
D03*
X16126Y336681D02*
D03*
Y359319D02*
D03*
D39*
X22158Y169827D02*
D03*
X32000D02*
D03*
X41842D02*
D03*
Y148173D02*
D03*
X32000D02*
D03*
X22158D02*
D03*
D40*
X42000Y93732D02*
D03*
X22000Y110268D02*
D03*
Y93732D02*
D03*
X42000Y110268D02*
D03*
D41*
X20000Y187000D02*
D03*
X45000D02*
D03*
D42*
X871850Y166000D02*
D03*
X878150D02*
D03*
X671850D02*
D03*
X678150D02*
D03*
X751850D02*
D03*
X758150D02*
D03*
X851850D02*
D03*
X858150D02*
D03*
X651850Y426000D02*
D03*
X658150D02*
D03*
X751850D02*
D03*
X758150D02*
D03*
X858150D02*
D03*
X851850D02*
D03*
X651850Y296000D02*
D03*
X658150D02*
D03*
X751850D02*
D03*
X758150D02*
D03*
X851850Y556000D02*
D03*
X858150D02*
D03*
X751850D02*
D03*
X758150D02*
D03*
X778150Y296000D02*
D03*
X771850D02*
D03*
X678150Y556000D02*
D03*
X671850D02*
D03*
X678150Y426000D02*
D03*
X671850D02*
D03*
X678150Y296000D02*
D03*
X671850D02*
D03*
X778150Y556000D02*
D03*
X771850D02*
D03*
X878150Y426000D02*
D03*
X871850D02*
D03*
X771850D02*
D03*
X778150D02*
D03*
X878150Y556000D02*
D03*
X871850D02*
D03*
X658150Y166000D02*
D03*
X651850D02*
D03*
X778150D02*
D03*
X771850D02*
D03*
X878150Y296000D02*
D03*
X871850D02*
D03*
X658150Y556000D02*
D03*
X651850D02*
D03*
X858150Y296000D02*
D03*
X851850D02*
D03*
D78*
X433000Y189000D02*
D03*
X582000Y569000D02*
D03*
X568000D02*
D03*
X555000D02*
D03*
X541000D02*
D03*
X158000Y110000D02*
D03*
X318000Y146000D02*
D03*
X265000Y130000D02*
D03*
X236000Y75000D02*
D03*
X600000Y82000D02*
D03*
X587000D02*
D03*
X250000Y75000D02*
D03*
Y55000D02*
D03*
X236000D02*
D03*
X44000Y23000D02*
D03*
X225000Y19000D02*
D03*
X254000D02*
D03*
X211000D02*
D03*
X267000D02*
D03*
X280000D02*
D03*
X240000D02*
D03*
X422000Y32000D02*
D03*
X519000Y581000D02*
D03*
X40000Y228000D02*
D03*
X580000Y550000D02*
D03*
X410000Y526000D02*
D03*
X553000Y80000D02*
D03*
X290000Y526000D02*
D03*
X140000D02*
D03*
X260000D02*
D03*
X40000Y208000D02*
D03*
X15000D02*
D03*
Y228000D02*
D03*
X354000Y306000D02*
D03*
Y328000D02*
D03*
X159000Y168000D02*
D03*
X81000D02*
D03*
X133000D02*
D03*
X94000D02*
D03*
X146000D02*
D03*
X120000D02*
D03*
X107000D02*
D03*
X568000Y550000D02*
D03*
X556000D02*
D03*
X544000D02*
D03*
X520000D02*
D03*
X532000D02*
D03*
D79*
X130000Y580000D02*
D03*
Y570000D02*
D03*
X120000Y580000D02*
D03*
Y570000D02*
D03*
X110000Y580000D02*
D03*
Y570000D02*
D03*
X100000Y580000D02*
D03*
Y570000D02*
D03*
X90000Y580000D02*
D03*
Y570000D02*
D03*
X80000Y580000D02*
D03*
Y570000D02*
D03*
X70000Y580000D02*
D03*
Y570000D02*
D03*
X60000Y580000D02*
D03*
X250000D02*
D03*
Y570000D02*
D03*
X240000Y580000D02*
D03*
Y570000D02*
D03*
X230000Y580000D02*
D03*
Y570000D02*
D03*
X220000Y580000D02*
D03*
Y570000D02*
D03*
X210000Y580000D02*
D03*
Y570000D02*
D03*
X200000Y580000D02*
D03*
Y570000D02*
D03*
X190000Y580000D02*
D03*
Y570000D02*
D03*
X180000Y580000D02*
D03*
X370000D02*
D03*
Y570000D02*
D03*
X360000Y580000D02*
D03*
Y570000D02*
D03*
X350000Y580000D02*
D03*
Y570000D02*
D03*
X340000Y580000D02*
D03*
Y570000D02*
D03*
X330000Y580000D02*
D03*
Y570000D02*
D03*
X320000Y580000D02*
D03*
Y570000D02*
D03*
X310000Y580000D02*
D03*
Y570000D02*
D03*
X300000Y580000D02*
D03*
X490000D02*
D03*
Y570000D02*
D03*
X480000Y580000D02*
D03*
Y570000D02*
D03*
X470000Y580000D02*
D03*
Y570000D02*
D03*
X460000Y580000D02*
D03*
Y570000D02*
D03*
X450000Y580000D02*
D03*
Y570000D02*
D03*
X440000Y580000D02*
D03*
Y570000D02*
D03*
X430000Y580000D02*
D03*
Y570000D02*
D03*
X420000Y580000D02*
D03*
X660000Y530000D02*
D03*
X670000D02*
D03*
X660000Y520000D02*
D03*
X670000D02*
D03*
X660000Y510000D02*
D03*
X670000D02*
D03*
X660000Y500000D02*
D03*
X670000D02*
D03*
X660000Y490000D02*
D03*
X670000D02*
D03*
X660000Y480000D02*
D03*
X670000D02*
D03*
X660000Y470000D02*
D03*
X670000D02*
D03*
X660000Y460000D02*
D03*
Y400000D02*
D03*
X670000D02*
D03*
X660000Y390000D02*
D03*
X670000D02*
D03*
X660000Y380000D02*
D03*
X670000D02*
D03*
X660000Y370000D02*
D03*
X670000D02*
D03*
X660000Y360000D02*
D03*
X670000D02*
D03*
X660000Y350000D02*
D03*
X670000D02*
D03*
X660000Y340000D02*
D03*
X670000D02*
D03*
X660000Y330000D02*
D03*
Y270000D02*
D03*
X670000D02*
D03*
X660000Y260000D02*
D03*
X670000D02*
D03*
X660000Y250000D02*
D03*
X670000D02*
D03*
X660000Y240000D02*
D03*
X670000D02*
D03*
X660000Y230000D02*
D03*
X670000D02*
D03*
X660000Y220000D02*
D03*
X670000D02*
D03*
X660000Y210000D02*
D03*
X670000D02*
D03*
X660000Y200000D02*
D03*
Y140000D02*
D03*
X670000D02*
D03*
X660000Y130000D02*
D03*
X670000D02*
D03*
X660000Y120000D02*
D03*
X670000D02*
D03*
X660000Y110000D02*
D03*
X670000D02*
D03*
X660000Y100000D02*
D03*
X670000D02*
D03*
X660000Y90000D02*
D03*
X670000D02*
D03*
X660000Y80000D02*
D03*
X670000D02*
D03*
X660000Y70000D02*
D03*
X760000Y530000D02*
D03*
X770000D02*
D03*
X760000Y520000D02*
D03*
X770000D02*
D03*
X760000Y510000D02*
D03*
X770000D02*
D03*
X760000Y500000D02*
D03*
X770000D02*
D03*
X760000Y490000D02*
D03*
X770000D02*
D03*
X760000Y480000D02*
D03*
X770000D02*
D03*
X760000Y470000D02*
D03*
X770000D02*
D03*
X760000Y460000D02*
D03*
X760000Y400000D02*
D03*
X770000D02*
D03*
X760000Y390000D02*
D03*
X770000D02*
D03*
X760000Y380000D02*
D03*
X770000D02*
D03*
X760000Y370000D02*
D03*
X770000D02*
D03*
X760000Y360000D02*
D03*
X770000D02*
D03*
X760000Y350000D02*
D03*
X770000D02*
D03*
X760000Y340000D02*
D03*
X770000D02*
D03*
X760000Y330000D02*
D03*
Y270000D02*
D03*
X770000D02*
D03*
X760000Y260000D02*
D03*
X770000D02*
D03*
X760000Y250000D02*
D03*
X770000D02*
D03*
X760000Y240000D02*
D03*
X770000D02*
D03*
X760000Y230000D02*
D03*
X770000D02*
D03*
X760000Y220000D02*
D03*
X770000D02*
D03*
X760000Y210000D02*
D03*
X770000D02*
D03*
X760000Y200000D02*
D03*
Y140000D02*
D03*
X770000D02*
D03*
X760000Y130000D02*
D03*
X770000D02*
D03*
X760000Y120000D02*
D03*
X770000D02*
D03*
X760000Y110000D02*
D03*
X770000D02*
D03*
X760000Y100000D02*
D03*
X770000D02*
D03*
X760000Y90000D02*
D03*
X770000D02*
D03*
X760000Y80000D02*
D03*
X770000D02*
D03*
X760000Y70000D02*
D03*
X860000Y530000D02*
D03*
X870000D02*
D03*
X860000Y520000D02*
D03*
X870000D02*
D03*
X860000Y510000D02*
D03*
X870000D02*
D03*
X860000Y500000D02*
D03*
X870000D02*
D03*
X860000Y490000D02*
D03*
X870000D02*
D03*
X860000Y480000D02*
D03*
X870000D02*
D03*
X860000Y470000D02*
D03*
X870000D02*
D03*
X860000Y460000D02*
D03*
Y400000D02*
D03*
X870000D02*
D03*
X860000Y390000D02*
D03*
X870000D02*
D03*
X860000Y380000D02*
D03*
X870000D02*
D03*
X860000Y370000D02*
D03*
X870000D02*
D03*
X860000Y360000D02*
D03*
X870000D02*
D03*
X860000Y350000D02*
D03*
X870000D02*
D03*
X860000Y340000D02*
D03*
X870000D02*
D03*
X860000Y330000D02*
D03*
Y270000D02*
D03*
X870000D02*
D03*
X860000Y260000D02*
D03*
X870000D02*
D03*
X860000Y250000D02*
D03*
X870000D02*
D03*
X860000Y240000D02*
D03*
X870000D02*
D03*
X860000Y230000D02*
D03*
X870000D02*
D03*
X860000Y220000D02*
D03*
X870000D02*
D03*
X860000Y210000D02*
D03*
X870000D02*
D03*
X860000Y200000D02*
D03*
Y140000D02*
D03*
X870000D02*
D03*
X860000Y130000D02*
D03*
X870000D02*
D03*
X860000Y120000D02*
D03*
X870000D02*
D03*
X860000Y110000D02*
D03*
X870000D02*
D03*
X860000Y100000D02*
D03*
X870000D02*
D03*
X860000Y90000D02*
D03*
X870000D02*
D03*
X860000Y80000D02*
D03*
X870000D02*
D03*
X860000Y70000D02*
D03*
X543000Y43500D02*
D03*
Y33500D02*
D03*
X533000Y43500D02*
D03*
Y33500D02*
D03*
X523000Y43500D02*
D03*
Y33500D02*
D03*
X513000Y43500D02*
D03*
Y33500D02*
D03*
X503000Y43500D02*
D03*
Y33500D02*
D03*
X493000Y43500D02*
D03*
Y33500D02*
D03*
X483000Y43500D02*
D03*
Y33500D02*
D03*
X473000Y43500D02*
D03*
X20000Y271000D02*
D03*
Y286000D02*
D03*
D80*
X60000Y570000D02*
D03*
X180000D02*
D03*
X300000D02*
D03*
X420000D02*
D03*
X473000Y33500D02*
D03*
D81*
X670000Y460000D02*
D03*
Y330000D02*
D03*
Y200000D02*
D03*
Y70000D02*
D03*
X770000Y460000D02*
D03*
X770000Y330000D02*
D03*
Y200000D02*
D03*
Y70000D02*
D03*
X870000Y460000D02*
D03*
Y330000D02*
D03*
Y200000D02*
D03*
Y70000D02*
D03*
X20000Y256000D02*
D03*
D82*
X141000Y364000D02*
D03*
X131000D02*
D03*
X57000Y100000D02*
D03*
Y110000D02*
D03*
X471000Y452000D02*
D03*
X481000D02*
D03*
X587000Y530000D02*
D03*
X577000D02*
D03*
X514000Y245000D02*
D03*
X524000D02*
D03*
X32000Y123000D02*
D03*
X42000D02*
D03*
X57000Y70000D02*
D03*
Y60000D02*
D03*
X265000Y63000D02*
D03*
Y73000D02*
D03*
D83*
X121000Y364000D02*
D03*
X491000Y452000D02*
D03*
X597000Y530000D02*
D03*
X534000Y245000D02*
D03*
X22000Y123000D02*
D03*
D84*
X57000Y90000D02*
D03*
Y50000D02*
D03*
X265000Y53000D02*
D03*
D85*
X382000Y22000D02*
D03*
X422000D02*
D03*
X412000D02*
D03*
X382000Y32000D02*
D03*
X392000Y22000D02*
D03*
Y32000D02*
D03*
X402000Y22000D02*
D03*
Y32000D02*
D03*
X412000D02*
D03*
X519000Y571000D02*
D03*
X280000Y294000D02*
D03*
Y334000D02*
D03*
Y374000D02*
D03*
Y324000D02*
D03*
Y364000D02*
D03*
Y314000D02*
D03*
Y354000D02*
D03*
Y304000D02*
D03*
Y344000D02*
D03*
X79000Y270000D02*
D03*
Y320000D02*
D03*
Y280000D02*
D03*
Y330000D02*
D03*
Y290000D02*
D03*
Y340000D02*
D03*
Y300000D02*
D03*
Y350000D02*
D03*
Y310000D02*
D03*
X295000Y344000D02*
D03*
Y304000D02*
D03*
Y354000D02*
D03*
Y314000D02*
D03*
Y364000D02*
D03*
Y324000D02*
D03*
Y374000D02*
D03*
Y334000D02*
D03*
Y294000D02*
D03*
X450000Y526000D02*
D03*
X490000D02*
D03*
X440000D02*
D03*
X480000D02*
D03*
X430000D02*
D03*
X470000D02*
D03*
X420000D02*
D03*
X460000D02*
D03*
X500000D02*
D03*
X315000Y344000D02*
D03*
Y304000D02*
D03*
Y354000D02*
D03*
Y314000D02*
D03*
Y364000D02*
D03*
Y324000D02*
D03*
Y374000D02*
D03*
Y334000D02*
D03*
Y294000D02*
D03*
X580000Y420000D02*
D03*
Y460000D02*
D03*
Y410000D02*
D03*
Y450000D02*
D03*
Y400000D02*
D03*
Y440000D02*
D03*
Y390000D02*
D03*
Y430000D02*
D03*
Y470000D02*
D03*
X513000Y80000D02*
D03*
X473000D02*
D03*
X523000D02*
D03*
X483000D02*
D03*
X533000D02*
D03*
X493000D02*
D03*
X543000D02*
D03*
X503000D02*
D03*
X463000D02*
D03*
X330000Y526000D02*
D03*
X370000D02*
D03*
X320000D02*
D03*
X360000D02*
D03*
X310000D02*
D03*
X350000D02*
D03*
X300000D02*
D03*
X340000D02*
D03*
X380000D02*
D03*
X580000Y310000D02*
D03*
Y350000D02*
D03*
Y300000D02*
D03*
Y340000D02*
D03*
Y290000D02*
D03*
Y330000D02*
D03*
Y280000D02*
D03*
Y320000D02*
D03*
Y360000D02*
D03*
X100000Y526000D02*
D03*
X60000D02*
D03*
X110000D02*
D03*
X70000D02*
D03*
X120000D02*
D03*
X80000D02*
D03*
X130000D02*
D03*
X90000D02*
D03*
X50000D02*
D03*
X580000Y200000D02*
D03*
Y240000D02*
D03*
Y190000D02*
D03*
Y230000D02*
D03*
Y180000D02*
D03*
Y220000D02*
D03*
Y170000D02*
D03*
Y210000D02*
D03*
Y250000D02*
D03*
X220000Y526000D02*
D03*
X180000D02*
D03*
X230000D02*
D03*
X190000D02*
D03*
X240000D02*
D03*
X200000D02*
D03*
X250000D02*
D03*
X210000D02*
D03*
X170000D02*
D03*
D86*
X280000Y384000D02*
D03*
X431000Y421000D02*
D03*
X79000Y360000D02*
D03*
X431000Y438000D02*
D03*
X295000Y384000D02*
D03*
X315000D02*
D03*
X580000Y380000D02*
D03*
Y270000D02*
D03*
Y160000D02*
D03*
X431000Y387000D02*
D03*
Y404000D02*
D03*
Y370000D02*
D03*
D87*
X880000Y20000D02*
D03*
X20000Y580000D02*
D03*
Y20000D02*
D03*
X880000Y580000D02*
D03*
M02*
