M48
;Layer_Color=9474304
;FILE_FORMAT=2:5
INCH,LZ
;TYPE=PLATED
T1F00S00C0.02800
T2F00S00C0.03150
T3F00S00C0.03543
T4F00S00C0.17000
%
T01
X0066Y002
X0062Y0063
X0049Y0069
X0043Y0075
X0037Y0081
X0031Y0087
X0048Y0135
Y0145
Y0155
X0073Y015
Y014
Y013
X0075Y012
X0098Y0115
X0104Y0119
X01095Y0115
X0128
X0127Y0103
X0136Y0124
X015Y0126
X0148Y0116
X0144Y0136
X0124Y0135
X0127Y0145
X0113
X0122Y0155
X00895
Y0145
Y0135
X0151Y0058
X0153Y0009
X0138Y0016
X0126
X0119Y0011
X0114Y0016
X0169Y0022
X0184
X0188Y0058
X0194Y0064
Y0073
X0182Y0076
X0177Y0083
X0209Y009
X0207Y007
X0212Y0064
X0207Y0057
X023Y0061
X0249Y0048
X0269Y0054
X0282Y0064
X0302Y0069
X0301Y011
Y0118
X0296Y0133
X0295Y0152
X031015
X0279Y0143
X026065Y0152
X026Y0125
X0252Y0118
X0244Y0114
X0233Y0098
X0205Y0111
Y0131
X0219
X0208Y0145
X022815Y0152
X0272Y0107
X0271Y0085
X0318Y008
X0329Y0079
X0331Y0068
X0348Y0078
X0355025Y0081975
X0356Y0097
X0346Y0094
X0369Y0095
X0379Y0098
X038Y0088
X0385Y0112
X0396Y0113
Y0135
X0382
X0372Y0138
X0375Y0149
X0383Y0152
X0388Y0146
X0403Y0151
X041Y0135
X0422
X0434
X0447
X046
X0447Y0075
X0434Y0073
Y0063
X0425Y0062
X0427Y0026
X0417
X0408
X0396Y0029
X0392Y0037
X0378Y0041
X0377Y0051
X0381Y006
X0372Y0065
X0360565Y006787
X0364Y0033
X0374Y0032
X0384Y0026
X0351Y0034
X033Y0041
X0336Y00114
X0321Y0095
X0328Y0108
Y0139
X0339Y0133
X0349Y013
X0357Y0127
Y0138
X0359Y0151
X0352Y0154
X034265Y0152
X0374Y0122
X0402Y0095
X0464Y006
X0462Y0026
X0468Y0020089
X0446Y0023
X0435
X0441Y0029
X048Y0024
X0493Y0020089
X0471Y0051
X0479Y0065
X0472Y0074
X0477Y0113
X0495Y0115
X0511Y012
X0504Y013
X0507Y014
Y015
X0472Y0135
X0505Y0092
X0512Y0079
X051Y022
X0505Y023
X05Y025
X0472Y026
X046
X0447
X0434
X0422
X0416Y0266
X0409Y026
X0396
X0382
X0372Y0259
X0374Y0247
X0361Y0253
X0353Y0252
X034265Y0251
X0345Y0235
X03395
X0351
X0356Y0215
X0359Y0206
X0375
Y0177
X0367Y0169
X0351Y0168
X0335Y0173
X033Y0164
X0317Y0173
X034265Y0185
X0336Y0197
X0323Y0207
X034265Y0218
X0362Y0184
X0389Y024
X0409Y0225
X0441Y0227
X0453
X0466
X0447Y0175
X0403Y0268
X0407Y0281
X0371Y0275
Y0291
X0334Y0299
X0326Y0294
X0325Y0283
X0336Y0268
X0348Y0269
X0312Y028
X0291
X0269
X0251
X024Y0278
X0234Y0285
X0227Y028
X022Y0273
X0233Y0269
X0244Y0265
X022815Y0251
X0235Y0241
X0212Y0243
X0214Y0227
X0216Y0217
X022815Y0218
X0223Y0199
X02105Y0205
X0196Y0202
X0194Y0222
Y0233
Y024
X0195Y0253
X0201Y0269
X0189Y0271
Y0279
X0206Y028
X017Y0271
X0159Y0247
X0187Y0228
Y0216
X0196Y0175
X0219Y0183
X022815Y0185
X026065
X0278Y0193
X0296Y02
X031015Y0185
Y021837
Y0251
X0297Y0249
X0294Y0236
X0284025
X0284Y0227
X026065Y0218
Y0251
X0276Y0168
X0277Y0158
X0289Y0168
X0213Y016
X0122Y0165
X0113Y0182
X00895Y0165
X0071Y017
Y018
Y019
Y016
X0048Y0165
X0029Y0234
X0021Y0276
X006
X0068Y0267
X0102Y0268
X0095Y0258
X0102Y0241
Y0226
X0133Y0214
X0146Y0281
X0154Y0275
X0148Y0375
X0138
X0128
X0118
X0108
X0098
X0088
X0078
X0035Y0322
X0185Y0347
X0192Y0375
X0206
X0219
X0237
X0251
X0269
X0291
X0312
X0177
X0162
X0342
X0376
X0394
X0385Y0339
X0402Y0332
X0394Y032
X0376
X033Y0332
T02
X002Y012
Y013
Y014
Y015
X003
Y014
Y013
Y012
Y016
Y017
Y018
X002
Y019
X003
X002Y017
Y016
T03
X0164Y011
X0174
X0184
Y012
X0174
X0164
X054
Y013
Y014
Y015
X055
Y014
Y013
Y012
Y011
X054
Y01
X055
Y016
Y017
X054
Y016
Y022
X055
Y023
Y024
Y025
Y026
Y027
Y028
Y029
X054
Y028
Y027
Y026
Y025
Y024
Y023
X0192Y0166
X0178
X0164
X036Y0332
T04
X002Y002
X054
X002Y038
X054
M30
